<svg version="1.1" id="Layer_1" xmlns="http://www.w3.org/2000/svg" x="0" y="0" viewBox="0 0 113 167" xml:space="preserve">
    <style>
        .st1{fill:none;stroke:#d3dbdf;stroke-width:.4;stroke-miterlimit:10}.st2{fill:#aebdc4}.st3{font-family:&apos;OpenSans-Semibold&apos;}.st4{font-size:6.3996px}
    </style>
    <g onclick="this.parentNode.sekt.push(this);this.a_name=&quot;E 1 (низ)&quot;;">
        <path onclick="this.parentNode.a_fon=this;" fill="#f1f3f4" stroke="#bcc8ce" stroke-width=".4" stroke-linecap="round" stroke-miterlimit="10" d="M.4 166.7L52.3.3h60.4v166.4z"/>
        <g onclick="this.parentNode.a_row=this;">
            <path onclick="this.a_par={beg_namb:1,quant:9};" class="st1" d="M63.2 9.4h38.3M63.2 15.3h38.3M63.2 21.2h38.3M63.2 27.2h38.3"/>
            <path onclick="this.a_par={beg_namb:1,quant:10};" class="st1" d="M58.9 33.1h42.6"/>
            <path onclick="this.a_par={beg_namb:1,quant:11};" class="st1" d="M54.6 39h46.9M54.6 45h46.9M54.6 50.9h46.9"/>
            <path onclick="this.a_par={beg_namb:1,quant:12};" class="st1" d="M50.3 56.8h51.2M50.3 62.7h51.2M50.3 68.7h51.2"/>
            <path onclick="this.a_par={beg_namb:1,quant:13};" class="st1" d="M45.9 74.6h55.6M45.9 80.5h55.6"/>
            <path onclick="this.a_par={beg_namb:1,quant:14};" class="st1" d="M41.6 86.5h59.9M41.6 92.4h59.9M41.6 98.3h59.9"/>
            <path onclick="this.a_par={beg_namb:1,quant:15};" class="st1" d="M37.3 104.3h64.2M37.3 110.2h64.2"/>
            <path onclick="this.a_par={beg_namb:1,quant:13};" class="st1" d="M37.3 116.1h55.6"/>
            <path onclick="this.a_par={beg_namb:1,quant:14};" class="st1" d="M33 122.1h59.9"/>
            <path onclick="this.a_par={beg_namb:1,quant:8};" class="st1" d="M58.9 128h34M58.9 133.9h34M58.9 139.9h34"/>
            <path onclick="this.a_par={beg_namb:1,quant:10};" class="st1" d="M58.9 145.8h42.6M58.9 151.7h42.6M58.9 157.6h42.6"/>
        </g>
        <circle class="st2" cx="60.8" cy="139.9" r="1.9"/>
        <circle class="st2" cx="65.1" cy="139.9" r="1.9"/>
        <circle class="st2" cx="69.4" cy="139.9" r="1.9"/>
        <circle class="st2" cx="73.7" cy="139.9" r="1.9"/>
        <circle class="st2" cx="78.1" cy="139.9" r="1.9"/>
        <circle class="st2" cx="82.4" cy="139.9" r="1.9"/>
        <circle class="st2" cx="86.7" cy="139.9" r="1.9"/>
        <circle class="st2" cx="91" cy="139.9" r="1.9"/>
        <circle class="st2" cx="60.8" cy="133.9" r="1.9"/>
        <circle class="st2" cx="65.1" cy="133.9" r="1.9"/>
        <circle class="st2" cx="69.4" cy="133.9" r="1.9"/>
        <circle class="st2" cx="73.7" cy="133.9" r="1.9"/>
        <circle class="st2" cx="78.1" cy="133.9" r="1.9"/>
        <circle class="st2" cx="82.4" cy="133.9" r="1.9"/>
        <circle class="st2" cx="86.7" cy="133.9" r="1.9"/>
        <circle class="st2" cx="91" cy="133.9" r="1.9"/>
        <circle class="st2" cx="60.8" cy="128" r="1.8"/>
        <circle class="st2" cx="65.1" cy="128" r="1.8"/>
        <circle class="st2" cx="69.4" cy="128" r="1.8"/>
        <circle class="st2" cx="73.7" cy="128" r="1.8"/>
        <circle class="st2" cx="78.1" cy="128" r="1.8"/>
        <circle class="st2" cx="82.4" cy="128" r="1.8"/>
        <circle class="st2" cx="86.7" cy="128" r="1.8"/>
        <circle class="st2" cx="91" cy="128" r="1.8"/>
        <circle class="st2" cx="65.1" cy="27.2" r="1.8"/>
        <circle class="st2" cx="69.4" cy="27.2" r="1.8"/>
        <circle class="st2" cx="73.7" cy="27.2" r="1.8"/>
        <circle class="st2" cx="78.1" cy="27.2" r="1.8"/>
        <circle class="st2" cx="82.4" cy="27.2" r="1.8"/>
        <circle class="st2" cx="86.7" cy="27.2" r="1.8"/>
        <circle class="st2" cx="91" cy="27.2" r="1.8"/>
        <circle class="st2" cx="95.3" cy="27.2" r="1.8"/>
        <circle class="st2" cx="99.7" cy="27.2" r="1.8"/>
        <g>
            <circle class="st2" cx="65.1" cy="21.2" r="1.8"/>
            <circle class="st2" cx="69.4" cy="21.2" r="1.8"/>
            <circle class="st2" cx="73.7" cy="21.2" r="1.8"/>
            <circle class="st2" cx="78.1" cy="21.2" r="1.8"/>
            <circle class="st2" cx="82.4" cy="21.2" r="1.8"/>
            <circle class="st2" cx="86.7" cy="21.2" r="1.8"/>
            <circle class="st2" cx="91" cy="21.2" r="1.8"/>
            <circle class="st2" cx="95.3" cy="21.2" r="1.8"/>
            <circle class="st2" cx="99.7" cy="21.2" r="1.8"/>
        </g>
        <g>
            <circle class="st2" cx="65.1" cy="15.3" r="1.8"/>
            <circle class="st2" cx="69.4" cy="15.3" r="1.8"/>
            <circle class="st2" cx="73.7" cy="15.3" r="1.8"/>
            <circle class="st2" cx="78.1" cy="15.3" r="1.8"/>
            <circle class="st2" cx="82.4" cy="15.3" r="1.8"/>
            <circle class="st2" cx="86.7" cy="15.3" r="1.8"/>
            <circle class="st2" cx="91" cy="15.3" r="1.8"/>
            <circle class="st2" cx="95.3" cy="15.3" r="1.8"/>
            <circle class="st2" cx="99.7" cy="15.3" r="1.8"/>
        </g>
        <g>
            <circle class="st2" cx="65.1" cy="9.4" r="1.8"/>
            <circle class="st2" cx="69.4" cy="9.4" r="1.8"/>
            <circle class="st2" cx="73.7" cy="9.4" r="1.8"/>
            <circle class="st2" cx="78.1" cy="9.4" r="1.8"/>
            <circle class="st2" cx="82.4" cy="9.4" r="1.8"/>
            <circle class="st2" cx="86.7" cy="9.4" r="1.8"/>
            <circle class="st2" cx="91" cy="9.4" r="1.8"/>
            <circle class="st2" cx="95.3" cy="9.4" r="1.8"/>
            <circle class="st2" cx="99.7" cy="9.4" r="1.8"/>
        </g>
        <g>
            <circle class="st2" cx="60.8" cy="33.1" r="1.8"/>
            <circle class="st2" cx="65.1" cy="33.1" r="1.8"/>
            <circle class="st2" cx="69.4" cy="33.1" r="1.8"/>
            <circle class="st2" cx="73.7" cy="33.1" r="1.8"/>
            <circle class="st2" cx="78.1" cy="33.1" r="1.8"/>
            <circle class="st2" cx="82.4" cy="33.1" r="1.8"/>
            <circle class="st2" cx="86.7" cy="33.1" r="1.8"/>
            <circle class="st2" cx="91" cy="33.1" r="1.8"/>
            <circle class="st2" cx="95.3" cy="33.1" r="1.8"/>
            <circle class="st2" cx="99.7" cy="33.1" r="1.8"/>
        </g>
        <g>
            <circle class="st2" cx="60.8" cy="157.6" r="1.9"/>
            <circle class="st2" cx="65.1" cy="157.6" r="1.9"/>
            <circle class="st2" cx="69.4" cy="157.6" r="1.9"/>
            <circle class="st2" cx="73.7" cy="157.6" r="1.9"/>
            <circle class="st2" cx="78.1" cy="157.6" r="1.9"/>
            <circle class="st2" cx="82.4" cy="157.6" r="1.9"/>
            <circle class="st2" cx="86.7" cy="157.6" r="1.9"/>
            <circle class="st2" cx="91" cy="157.6" r="1.9"/>
            <circle class="st2" cx="95.3" cy="157.6" r="1.9"/>
            <circle class="st2" cx="99.7" cy="157.6" r="1.9"/>
        </g>
        <g>
            <circle class="st2" cx="60.8" cy="151.7" r="1.9"/>
            <circle class="st2" cx="65.1" cy="151.7" r="1.9"/>
            <circle class="st2" cx="69.4" cy="151.7" r="1.9"/>
            <circle class="st2" cx="73.7" cy="151.7" r="1.9"/>
            <circle class="st2" cx="78.1" cy="151.7" r="1.9"/>
            <circle class="st2" cx="82.4" cy="151.7" r="1.9"/>
            <circle class="st2" cx="86.7" cy="151.7" r="1.9"/>
            <circle class="st2" cx="91" cy="151.7" r="1.9"/>
            <circle class="st2" cx="95.3" cy="151.7" r="1.9"/>
            <circle class="st2" cx="99.7" cy="151.7" r="1.9"/>
        </g>
        <g>
            <circle class="st2" cx="60.8" cy="145.8" r="1.9"/>
            <circle class="st2" cx="65.1" cy="145.8" r="1.9"/>
            <circle class="st2" cx="69.4" cy="145.8" r="1.9"/>
            <circle class="st2" cx="73.7" cy="145.8" r="1.9"/>
            <circle class="st2" cx="78.1" cy="145.8" r="1.9"/>
            <circle class="st2" cx="82.4" cy="145.8" r="1.9"/>
            <circle class="st2" cx="86.7" cy="145.8" r="1.9"/>
            <circle class="st2" cx="91" cy="145.8" r="1.9"/>
            <circle class="st2" cx="95.3" cy="145.8" r="1.9"/>
            <circle class="st2" cx="99.7" cy="145.8" r="1.9"/>
        </g>
        <g>
            <circle class="st2" cx="56.4" cy="50.9" r="1.8"/>
            <circle class="st2" cx="60.8" cy="50.9" r="1.8"/>
            <circle class="st2" cx="65.1" cy="50.9" r="1.8"/>
            <circle class="st2" cx="69.4" cy="50.9" r="1.8"/>
            <circle class="st2" cx="73.7" cy="50.9" r="1.8"/>
            <circle class="st2" cx="78" cy="50.9" r="1.8"/>
            <circle class="st2" cx="82.4" cy="50.9" r="1.8"/>
            <circle class="st2" cx="86.7" cy="50.9" r="1.8"/>
            <circle class="st2" cx="91" cy="50.9" r="1.8"/>
            <circle class="st2" cx="95.3" cy="50.9" r="1.8"/>
            <circle class="st2" cx="99.7" cy="50.9" r="1.8"/>
        </g>
        <g>
            <circle class="st2" cx="56.4" cy="45" r="1.8"/>
            <circle class="st2" cx="60.8" cy="45" r="1.8"/>
            <circle class="st2" cx="65.1" cy="45" r="1.8"/>
            <circle class="st2" cx="69.4" cy="45" r="1.8"/>
            <circle class="st2" cx="73.7" cy="45" r="1.8"/>
            <circle class="st2" cx="78" cy="45" r="1.8"/>
            <circle class="st2" cx="82.4" cy="45" r="1.8"/>
            <circle class="st2" cx="86.7" cy="45" r="1.8"/>
            <circle class="st2" cx="91" cy="45" r="1.8"/>
            <circle class="st2" cx="95.3" cy="45" r="1.8"/>
            <circle class="st2" cx="99.7" cy="45" r="1.8"/>
        </g>
        <g>
            <circle class="st2" cx="56.4" cy="39" r="1.8"/>
            <circle class="st2" cx="60.8" cy="39" r="1.8"/>
            <circle class="st2" cx="65.1" cy="39" r="1.8"/>
            <circle class="st2" cx="69.4" cy="39" r="1.8"/>
            <circle class="st2" cx="73.7" cy="39" r="1.8"/>
            <circle class="st2" cx="78" cy="39" r="1.8"/>
            <circle class="st2" cx="82.4" cy="39" r="1.8"/>
            <circle class="st2" cx="86.7" cy="39" r="1.8"/>
            <circle class="st2" cx="91" cy="39" r="1.8"/>
            <circle class="st2" cx="95.3" cy="39" r="1.8"/>
            <circle class="st2" cx="99.7" cy="39" r="1.8"/>
        </g>
        <g>
            <circle class="st2" cx="52.1" cy="68.7" r="1.8"/>
            <circle class="st2" cx="56.4" cy="68.7" r="1.8"/>
            <circle class="st2" cx="60.8" cy="68.7" r="1.8"/>
            <circle class="st2" cx="65.1" cy="68.7" r="1.8"/>
            <circle class="st2" cx="69.4" cy="68.7" r="1.8"/>
            <circle class="st2" cx="73.7" cy="68.7" r="1.8"/>
            <circle class="st2" cx="78" cy="68.7" r="1.8"/>
            <circle class="st2" cx="82.4" cy="68.7" r="1.8"/>
            <circle class="st2" cx="86.7" cy="68.7" r="1.8"/>
            <circle class="st2" cx="91" cy="68.7" r="1.8"/>
            <circle class="st2" cx="95.3" cy="68.7" r="1.8"/>
            <circle class="st2" cx="99.7" cy="68.7" r="1.8"/>
        </g>
        <g>
            <circle class="st2" cx="52.1" cy="62.7" r="1.8"/>
            <circle class="st2" cx="56.4" cy="62.7" r="1.8"/>
            <circle class="st2" cx="60.8" cy="62.7" r="1.8"/>
            <circle class="st2" cx="65.1" cy="62.7" r="1.8"/>
            <circle class="st2" cx="69.4" cy="62.7" r="1.8"/>
            <circle class="st2" cx="73.7" cy="62.7" r="1.8"/>
            <circle class="st2" cx="78" cy="62.7" r="1.8"/>
            <circle class="st2" cx="82.4" cy="62.7" r="1.8"/>
            <circle class="st2" cx="86.7" cy="62.7" r="1.8"/>
            <circle class="st2" cx="91" cy="62.7" r="1.8"/>
            <circle class="st2" cx="95.3" cy="62.7" r="1.8"/>
            <circle class="st2" cx="99.7" cy="62.7" r="1.8"/>
        </g>
        <g>
            <circle class="st2" cx="52.1" cy="56.8" r="1.8"/>
            <circle class="st2" cx="56.4" cy="56.8" r="1.8"/>
            <circle class="st2" cx="60.8" cy="56.8" r="1.8"/>
            <circle class="st2" cx="65.1" cy="56.8" r="1.8"/>
            <circle class="st2" cx="69.4" cy="56.8" r="1.8"/>
            <circle class="st2" cx="73.7" cy="56.8" r="1.8"/>
            <circle class="st2" cx="78" cy="56.8" r="1.8"/>
            <circle class="st2" cx="82.4" cy="56.8" r="1.8"/>
            <circle class="st2" cx="86.7" cy="56.8" r="1.8"/>
            <circle class="st2" cx="91" cy="56.8" r="1.8"/>
            <circle class="st2" cx="95.3" cy="56.8" r="1.8"/>
            <circle class="st2" cx="99.7" cy="56.8" r="1.8"/>
        </g>
        <g>
            <circle class="st2" cx="47.8" cy="80.5" r="1.8"/>
            <circle class="st2" cx="52.1" cy="80.5" r="1.8"/>
            <circle class="st2" cx="56.4" cy="80.5" r="1.8"/>
            <circle class="st2" cx="60.7" cy="80.5" r="1.8"/>
            <circle class="st2" cx="65.1" cy="80.5" r="1.8"/>
            <circle class="st2" cx="69.4" cy="80.5" r="1.8"/>
            <circle class="st2" cx="73.7" cy="80.5" r="1.8"/>
            <circle class="st2" cx="78" cy="80.5" r="1.8"/>
            <circle class="st2" cx="82.3" cy="80.5" r="1.8"/>
            <circle class="st2" cx="86.7" cy="80.5" r="1.8"/>
            <circle class="st2" cx="91" cy="80.5" r="1.8"/>
            <circle class="st2" cx="95.3" cy="80.5" r="1.8"/>
            <circle class="st2" cx="99.7" cy="80.5" r="1.8"/>
        </g>
        <g>
            <circle class="st2" cx="47.8" cy="74.6" r="1.8"/>
            <circle class="st2" cx="52.1" cy="74.6" r="1.8"/>
            <circle class="st2" cx="56.4" cy="74.6" r="1.8"/>
            <circle class="st2" cx="60.7" cy="74.6" r="1.8"/>
            <circle class="st2" cx="65.1" cy="74.6" r="1.8"/>
            <circle class="st2" cx="69.4" cy="74.6" r="1.8"/>
            <circle class="st2" cx="73.7" cy="74.6" r="1.8"/>
            <circle class="st2" cx="78" cy="74.6" r="1.8"/>
            <circle class="st2" cx="82.3" cy="74.6" r="1.8"/>
            <circle class="st2" cx="86.7" cy="74.6" r="1.8"/>
            <circle class="st2" cx="91" cy="74.6" r="1.8"/>
            <circle class="st2" cx="95.3" cy="74.6" r="1.8"/>
            <circle class="st2" cx="99.7" cy="74.6" r="1.8"/>
        </g>
        <g>
            <circle class="st2" cx="39.1" cy="116.1" r="1.8"/>
            <circle class="st2" cx="43.5" cy="116.1" r="1.8"/>
            <circle class="st2" cx="47.8" cy="116.1" r="1.8"/>
            <circle class="st2" cx="52.1" cy="116.1" r="1.8"/>
            <circle class="st2" cx="56.4" cy="116.1" r="1.8"/>
            <circle class="st2" cx="60.7" cy="116.1" r="1.8"/>
            <circle class="st2" cx="65.1" cy="116.1" r="1.8"/>
            <circle class="st2" cx="69.4" cy="116.1" r="1.8"/>
            <circle class="st2" cx="73.7" cy="116.1" r="1.8"/>
            <circle class="st2" cx="78" cy="116.1" r="1.8"/>
            <circle class="st2" cx="82.4" cy="116.1" r="1.8"/>
            <circle class="st2" cx="86.7" cy="116.1" r="1.8"/>
            <circle class="st2" cx="91" cy="116.1" r="1.8"/>
        </g>
        <g>
            <circle class="st2" cx="43.5" cy="98.3" r="1.8"/>
            <circle class="st2" cx="47.8" cy="98.3" r="1.8"/>
            <circle class="st2" cx="52.1" cy="98.3" r="1.8"/>
            <circle class="st2" cx="56.4" cy="98.3" r="1.8"/>
            <circle class="st2" cx="60.7" cy="98.3" r="1.8"/>
            <circle class="st2" cx="65.1" cy="98.3" r="1.8"/>
            <circle class="st2" cx="69.4" cy="98.3" r="1.8"/>
            <circle class="st2" cx="73.7" cy="98.3" r="1.8"/>
            <circle class="st2" cx="78" cy="98.3" r="1.8"/>
            <circle class="st2" cx="82.3" cy="98.3" r="1.8"/>
            <circle class="st2" cx="86.7" cy="98.3" r="1.8"/>
            <circle class="st2" cx="91" cy="98.3" r="1.8"/>
            <circle class="st2" cx="95.3" cy="98.3" r="1.8"/>
            <circle class="st2" cx="99.7" cy="98.3" r="1.8"/>
        </g>
        <g>
            <circle class="st2" cx="43.5" cy="92.4" r="1.8"/>
            <circle class="st2" cx="47.8" cy="92.4" r="1.8"/>
            <circle class="st2" cx="52.1" cy="92.4" r="1.8"/>
            <circle class="st2" cx="56.4" cy="92.4" r="1.8"/>
            <circle class="st2" cx="60.7" cy="92.4" r="1.8"/>
            <circle class="st2" cx="65.1" cy="92.4" r="1.8"/>
            <circle class="st2" cx="69.4" cy="92.4" r="1.8"/>
            <circle class="st2" cx="73.7" cy="92.4" r="1.8"/>
            <circle class="st2" cx="78" cy="92.4" r="1.8"/>
            <circle class="st2" cx="82.3" cy="92.4" r="1.8"/>
            <circle class="st2" cx="86.7" cy="92.4" r="1.8"/>
            <circle class="st2" cx="91" cy="92.4" r="1.8"/>
            <circle class="st2" cx="95.3" cy="92.4" r="1.8"/>
            <circle class="st2" cx="99.7" cy="92.4" r="1.8"/>
        </g>
        <g>
            <circle class="st2" cx="43.5" cy="86.5" r="1.8"/>
            <circle class="st2" cx="47.8" cy="86.5" r="1.8"/>
            <circle class="st2" cx="52.1" cy="86.5" r="1.8"/>
            <circle class="st2" cx="56.4" cy="86.5" r="1.8"/>
            <circle class="st2" cx="60.7" cy="86.5" r="1.8"/>
            <circle class="st2" cx="65.1" cy="86.5" r="1.8"/>
            <circle class="st2" cx="69.4" cy="86.5" r="1.8"/>
            <circle class="st2" cx="73.7" cy="86.5" r="1.8"/>
            <circle class="st2" cx="78" cy="86.5" r="1.8"/>
            <circle class="st2" cx="82.3" cy="86.5" r="1.8"/>
            <circle class="st2" cx="86.7" cy="86.5" r="1.8"/>
            <circle class="st2" cx="91" cy="86.5" r="1.8"/>
            <circle class="st2" cx="95.3" cy="86.5" r="1.8"/>
            <circle class="st2" cx="99.7" cy="86.5" r="1.8"/>
        </g>
        <g>
            <circle class="st2" cx="34.8" cy="122.1" r="1.8"/>
            <circle class="st2" cx="39.1" cy="122.1" r="1.8"/>
            <circle class="st2" cx="43.5" cy="122.1" r="1.8"/>
            <circle class="st2" cx="47.8" cy="122.1" r="1.8"/>
            <circle class="st2" cx="52.1" cy="122.1" r="1.8"/>
            <circle class="st2" cx="56.4" cy="122.1" r="1.8"/>
            <circle class="st2" cx="60.7" cy="122.1" r="1.8"/>
            <circle class="st2" cx="65.1" cy="122.1" r="1.8"/>
            <circle class="st2" cx="69.4" cy="122.1" r="1.8"/>
            <circle class="st2" cx="73.7" cy="122.1" r="1.8"/>
            <circle class="st2" cx="78" cy="122.1" r="1.8"/>
            <circle class="st2" cx="82.4" cy="122.1" r="1.8"/>
            <circle class="st2" cx="86.7" cy="122.1" r="1.8"/>
            <circle class="st2" cx="91" cy="122.1" r="1.8"/>
        </g>
        <g>
            <circle class="st2" cx="39.1" cy="110.2" r="1.8"/>
            <circle class="st2" cx="43.4" cy="110.2" r="1.8"/>
            <circle class="st2" cx="47.8" cy="110.2" r="1.8"/>
            <circle class="st2" cx="52.1" cy="110.2" r="1.8"/>
            <circle class="st2" cx="56.4" cy="110.2" r="1.8"/>
            <circle class="st2" cx="60.7" cy="110.2" r="1.8"/>
            <circle class="st2" cx="65" cy="110.2" r="1.8"/>
            <circle class="st2" cx="69.4" cy="110.2" r="1.8"/>
            <circle class="st2" cx="73.7" cy="110.2" r="1.8"/>
            <circle class="st2" cx="78" cy="110.2" r="1.8"/>
            <circle class="st2" cx="82.3" cy="110.2" r="1.8"/>
            <circle class="st2" cx="86.7" cy="110.2" r="1.8"/>
            <circle class="st2" cx="91" cy="110.2" r="1.8"/>
            <circle class="st2" cx="95.3" cy="110.2" r="1.8"/>
            <circle class="st2" cx="99.7" cy="110.2" r="1.8"/>
        </g>
        <g>
            <circle class="st2" cx="39.1" cy="104.3" r="1.8"/>
            <circle class="st2" cx="43.4" cy="104.3" r="1.8"/>
            <circle class="st2" cx="47.8" cy="104.3" r="1.8"/>
            <circle class="st2" cx="52.1" cy="104.3" r="1.8"/>
            <circle class="st2" cx="56.4" cy="104.3" r="1.8"/>
            <circle class="st2" cx="60.7" cy="104.3" r="1.8"/>
            <circle class="st2" cx="65" cy="104.3" r="1.8"/>
            <circle class="st2" cx="69.4" cy="104.3" r="1.8"/>
            <circle class="st2" cx="73.7" cy="104.3" r="1.8"/>
            <circle class="st2" cx="78" cy="104.3" r="1.8"/>
            <circle class="st2" cx="82.3" cy="104.3" r="1.8"/>
            <circle class="st2" cx="86.7" cy="104.3" r="1.8"/>
            <circle class="st2" cx="91" cy="104.3" r="1.8"/>
            <circle class="st2" cx="95.3" cy="104.3" r="1.8"/>
            <circle class="st2" cx="99.7" cy="104.3" r="1.8"/>
        </g>
        <g onclick="this.parentNode.a_text=this;">
            <text transform="matrix(.9999 0 0 1 69.29 66.978)" class="st3 st4">
                E 1
            </text>
            <text transform="matrix(.9999 0 0 1 65.57 74.178)" class="st3 st4">
                (
            </text>
            <text transform="matrix(.9999 0 0 1 67.61 74.178)" class="st3 st4">
                н
            </text>
            <text transform="matrix(.9999 0 0 1 71.958 74.178)" class="st3 st4">
                и
            </text>
            <text transform="matrix(.9999 0 0 1 76.518 74.178)" class="st3 st4">
                з
            </text>
            <text transform="matrix(.9999 0 0 1 79.868 74.178)" class="st3 st4">
                )
            </text>
        </g>
    </g>
</svg>
