<svg xmlns="http://www.w3.org/2000/svg">
    <path fill="#F1F3F4" stroke="#BCC8CE" stroke-width=".5" stroke-linecap="round" stroke-miterlimit="10" d="M279.72 116.113v60.52H121.27v-60.52z"/>
    <g>
        <g>
            <path fill="none" stroke="#BCC8CE" stroke-width=".5" stroke-miterlimit="10" d="M264.92 165.31H135.85"/>
        </g>
        <g>
            <path fill="none" stroke="#BCC8CE" stroke-width=".5" stroke-miterlimit="10" d="M264.92 159.9H135.85"/>
        </g>
        <g>
            <path fill="none" stroke="#BCC8CE" stroke-width=".5" stroke-miterlimit="10" d="M264.92 154.49H135.85"/>
        </g>
        <g>
            <path fill="none" stroke="#BCC8CE" stroke-width=".5" stroke-miterlimit="10" d="M264.92 149.07H135.85"/>
        </g>
        <g>
            <path fill="none" stroke="#BCC8CE" stroke-width=".5" stroke-miterlimit="10" d="M264.92 143.66H135.85"/>
        </g>
        <g>
            <path fill="none" stroke="#BCC8CE" stroke-width=".5" stroke-miterlimit="10" d="M264.92 138.24H135.85"/>
        </g>
        <g>
            <path fill="none" stroke="#BCC8CE" stroke-width=".5" stroke-miterlimit="10" d="M264.92 132.83H135.85"/>
        </g>
        <g>
            <path fill="none" stroke="#BCC8CE" stroke-width=".5" stroke-miterlimit="10" d="M264.92 127.42H135.85"/>
        </g>
    </g>
    <g fill="#5591D8">
        <g>
            <path d="M170.57 129.72a2.311 2.311 0 0 1 0-4.62c1.28 0 2.31 1.03 2.31 2.31s-1.03 2.31-2.31 2.31z"/>
            <path d="M175.99 129.72a2.311 2.311 0 0 1 0-4.62 2.311 2.311 0 0 1 0 4.62z"/>
            <path d="M181.4 129.72a2.311 2.311 0 0 1 0-4.62 2.311 2.311 0 0 1 0 4.62z"/>
            <path d="M186.81 129.72a2.311 2.311 0 0 1 0-4.62 2.311 2.311 0 0 1 0 4.62z"/>
            <path d="M192.23 129.72a2.311 2.311 0 0 1 0-4.62 2.311 2.311 0 0 1 0 4.62z"/>
            <path d="M197.64 129.72a2.311 2.311 0 0 1 0-4.62 2.311 2.311 0 0 1 0 4.62z"/>
            <path d="M203.06 129.72a2.311 2.311 0 0 1 0-4.62 2.311 2.311 0 0 1 0 4.62z"/>
            <path d="M208.47 129.72a2.311 2.311 0 0 1 0-4.62 2.311 2.311 0 0 1 0 4.62z"/>
            <path d="M213.88 129.72a2.311 2.311 0 0 1 0-4.62c1.28 0 2.31 1.03 2.31 2.31s-1.03 2.31-2.31 2.31z"/>
            <path d="M219.3 129.72a2.311 2.311 0 0 1 0-4.62 2.311 2.311 0 0 1 0 4.62z"/>
            <path d="M224.71 129.72a2.311 2.311 0 0 1 0-4.62c1.28 0 2.31 1.03 2.31 2.31s-1.03 2.31-2.31 2.31z"/>
            <path d="M230.13 129.72a2.311 2.311 0 0 1 0-4.62 2.311 2.311 0 0 1 0 4.62z"/>
            <path d="M235.54 129.72a2.311 2.311 0 0 1 0-4.62 2.311 2.311 0 0 1 0 4.62z"/>
            <path d="M240.95 129.72a2.311 2.311 0 0 1 0-4.62 2.311 2.311 0 0 1 0 4.62z"/>
            <path d="M246.37 129.72a2.311 2.311 0 0 1 0-4.62 2.311 2.311 0 0 1 0 4.62z"/>
            <path d="M251.78 129.72a2.311 2.311 0 0 1 0-4.62 2.311 2.311 0 0 1 0 4.62z"/>
            <path d="M257.2 129.72a2.311 2.311 0 0 1 0-4.62 2.311 2.311 0 0 1 0 4.62z"/>
            <path d="M262.61 129.72a2.311 2.311 0 0 1 0-4.62 2.311 2.311 0 0 1 0 4.62z"/>
            <path d="M165.17 129.72a2.311 2.311 0 0 1 0-4.62 2.311 2.311 0 0 1 0 4.62z"/>
            <path d="M159.77 129.72a2.311 2.311 0 0 1 0-4.62 2.311 2.311 0 0 1 0 4.62z"/>
            <path d="M154.37 129.72a2.311 2.311 0 0 1 0-4.62c1.28 0 2.31 1.03 2.31 2.31a2.317 2.317 0 0 1-2.31 2.31z"/>
            <path d="M148.96 129.72a2.311 2.311 0 0 1 0-4.62 2.311 2.311 0 0 1 0 4.62z"/>
            <path d="M143.56 129.72a2.311 2.311 0 0 1 0-4.62 2.311 2.311 0 0 1 0 4.62z"/>
            <path d="M138.16 129.72a2.311 2.311 0 0 1 0-4.62 2.311 2.311 0 0 1 0 4.62z"/>
        </g>
        <g>
            <path d="M170.57 135.14a2.311 2.311 0 1 1 .002-4.622 2.311 2.311 0 0 1-.002 4.622z"/>
            <path d="M175.99 135.14c-1.28 0-2.31-1.03-2.31-2.31s1.03-2.31 2.31-2.31 2.31 1.03 2.31 2.31-1.04 2.31-2.31 2.31z"/>
            <path d="M181.4 135.14c-1.28 0-2.31-1.03-2.31-2.31s1.03-2.31 2.31-2.31a2.311 2.311 0 0 1 0 4.62z"/>
            <path d="M186.81 135.14c-1.28 0-2.31-1.03-2.31-2.31s1.03-2.31 2.31-2.31a2.311 2.311 0 0 1 0 4.62z"/>
            <path d="M192.23 135.14c-1.28 0-2.31-1.03-2.31-2.31s1.03-2.31 2.31-2.31a2.311 2.311 0 0 1 0 4.62z"/>
            <path d="M197.64 135.14c-1.28 0-2.31-1.03-2.31-2.31s1.03-2.31 2.31-2.31a2.311 2.311 0 0 1 0 4.62z"/>
            <path d="M203.06 135.14c-1.28 0-2.31-1.03-2.31-2.31s1.03-2.31 2.31-2.31a2.311 2.311 0 0 1 0 4.62z"/>
            <path d="M208.47 135.14c-1.28 0-2.31-1.03-2.31-2.31s1.03-2.31 2.31-2.31a2.311 2.311 0 0 1 0 4.62z"/>
            <path d="M213.88 135.14a2.311 2.311 0 1 1 .002-4.622 2.311 2.311 0 0 1-.002 4.622z"/>
            <path d="M219.3 135.14a2.311 2.311 0 1 1 .002-4.622 2.311 2.311 0 0 1-.002 4.622z"/>
            <path d="M224.71 135.14a2.311 2.311 0 1 1 .002-4.622 2.311 2.311 0 0 1-.002 4.622z"/>
            <path d="M230.13 135.14c-1.28 0-2.31-1.03-2.31-2.31s1.03-2.31 2.31-2.31 2.31 1.03 2.31 2.31-1.04 2.31-2.31 2.31z"/>
            <path d="M235.54 135.14c-1.28 0-2.31-1.03-2.31-2.31s1.03-2.31 2.31-2.31a2.311 2.311 0 0 1 0 4.62z"/>
            <path d="M240.95 135.14c-1.28 0-2.31-1.03-2.31-2.31s1.03-2.31 2.31-2.31a2.311 2.311 0 0 1 0 4.62z"/>
            <path d="M246.37 135.14c-1.28 0-2.31-1.03-2.31-2.31s1.03-2.31 2.31-2.31a2.311 2.311 0 0 1 0 4.62z"/>
            <path d="M251.78 135.14c-1.28 0-2.31-1.03-2.31-2.31s1.03-2.31 2.31-2.31a2.311 2.311 0 0 1 0 4.62z"/>
            <path d="M257.2 135.14a2.311 2.311 0 1 1 .002-4.622 2.311 2.311 0 0 1-.002 4.622z"/>
            <path d="M262.61 135.14a2.311 2.311 0 0 1 0-4.62 2.311 2.311 0 0 1 0 4.62z"/>
            <path d="M165.17 135.14c-1.28 0-2.31-1.03-2.31-2.31s1.03-2.31 2.31-2.31a2.311 2.311 0 0 1 0 4.62z"/>
            <path d="M159.77 135.14c-1.28 0-2.31-1.03-2.31-2.31s1.03-2.31 2.31-2.31a2.311 2.311 0 0 1 0 4.62z"/>
            <path d="M154.37 135.14a2.311 2.311 0 1 1 2.31-2.31 2.317 2.317 0 0 1-2.31 2.31z"/>
            <path d="M148.96 135.14c-1.28 0-2.31-1.03-2.31-2.31s1.03-2.31 2.31-2.31a2.311 2.311 0 0 1 0 4.62z"/>
            <path d="M143.56 135.14c-1.28 0-2.31-1.03-2.31-2.31s1.03-2.31 2.31-2.31a2.311 2.311 0 0 1 0 4.62z"/>
            <path d="M138.16 135.14a2.311 2.311 0 1 1 .002-4.622 2.311 2.311 0 0 1-.002 4.622z"/>
        </g>
        <g>
            <path d="M170.57 140.55a2.311 2.311 0 0 1 0-4.62c1.28 0 2.31 1.03 2.31 2.31s-1.03 2.31-2.31 2.31z"/>
            <path d="M175.99 140.55a2.311 2.311 0 0 1 0-4.62 2.311 2.311 0 0 1 0 4.62z"/>
            <path d="M181.4 140.55a2.311 2.311 0 0 1 0-4.62 2.311 2.311 0 0 1 0 4.62z"/>
            <path d="M186.81 140.55a2.311 2.311 0 0 1 0-4.62 2.311 2.311 0 0 1 0 4.62z"/>
            <path d="M192.23 140.55a2.311 2.311 0 0 1 0-4.62 2.311 2.311 0 0 1 0 4.62z"/>
            <path d="M197.64 140.55a2.311 2.311 0 0 1 0-4.62 2.311 2.311 0 0 1 0 4.62z"/>
            <path d="M203.06 140.55a2.311 2.311 0 0 1 0-4.62 2.311 2.311 0 0 1 0 4.62z"/>
            <path d="M208.47 140.55a2.311 2.311 0 0 1 0-4.62 2.311 2.311 0 0 1 0 4.62z"/>
            <path d="M213.88 140.55a2.311 2.311 0 0 1 0-4.62c1.28 0 2.31 1.03 2.31 2.31s-1.03 2.31-2.31 2.31z"/>
            <path d="M219.3 140.55a2.311 2.311 0 0 1 0-4.62 2.311 2.311 0 0 1 0 4.62z"/>
            <path d="M224.71 140.55a2.311 2.311 0 0 1 0-4.62c1.28 0 2.31 1.03 2.31 2.31s-1.03 2.31-2.31 2.31z"/>
            <path d="M230.13 140.55a2.311 2.311 0 0 1 0-4.62 2.311 2.311 0 0 1 0 4.62z"/>
            <path d="M235.54 140.55a2.311 2.311 0 0 1 0-4.62 2.311 2.311 0 0 1 0 4.62z"/>
            <path d="M240.95 140.55a2.311 2.311 0 0 1 0-4.62 2.311 2.311 0 0 1 0 4.62z"/>
            <path d="M246.37 140.55a2.311 2.311 0 0 1 0-4.62 2.311 2.311 0 0 1 0 4.62z"/>
            <path d="M251.78 140.55a2.311 2.311 0 0 1 0-4.62 2.311 2.311 0 0 1 0 4.62z"/>
            <path d="M257.2 140.55a2.311 2.311 0 0 1 0-4.62 2.311 2.311 0 0 1 0 4.62z"/>
            <path d="M262.61 140.55a2.311 2.311 0 0 1 0-4.62 2.311 2.311 0 0 1 0 4.62z"/>
            <path d="M165.17 140.55a2.311 2.311 0 0 1 0-4.62 2.311 2.311 0 0 1 0 4.62z"/>
            <path d="M159.77 140.55a2.311 2.311 0 0 1 0-4.62 2.311 2.311 0 0 1 0 4.62z"/>
            <path d="M154.37 140.55a2.311 2.311 0 0 1 0-4.62c1.28 0 2.31 1.03 2.31 2.31a2.317 2.317 0 0 1-2.31 2.31z"/>
            <path d="M148.96 140.55a2.311 2.311 0 0 1 0-4.62 2.311 2.311 0 0 1 0 4.62z"/>
            <path d="M143.56 140.55a2.311 2.311 0 0 1 0-4.62 2.311 2.311 0 0 1 0 4.62z"/>
            <path d="M138.16 140.55a2.311 2.311 0 0 1 0-4.62 2.311 2.311 0 0 1 0 4.62z"/>
        </g>
        <g>
            <path d="M170.57 145.97a2.311 2.311 0 0 1 0-4.62 2.311 2.311 0 0 1 0 4.62z"/>
            <path d="M175.99 145.97a2.311 2.311 0 0 1 0-4.62c1.28 0 2.31 1.03 2.31 2.31 0 1.27-1.04 2.31-2.31 2.31z"/>
            <path d="M181.4 145.97a2.311 2.311 0 0 1 0-4.62 2.311 2.311 0 0 1 0 4.62z"/>
            <path d="M186.81 145.97a2.311 2.311 0 0 1 0-4.62 2.311 2.311 0 0 1 0 4.62z"/>
            <path d="M192.23 145.97a2.311 2.311 0 0 1 0-4.62c1.27 0 2.31 1.03 2.31 2.31 0 1.27-1.04 2.31-2.31 2.31z"/>
            <path d="M197.64 145.97a2.311 2.311 0 0 1 0-4.62 2.311 2.311 0 0 1 0 4.62z"/>
            <path d="M203.06 145.97a2.311 2.311 0 0 1 0-4.62c1.27 0 2.31 1.03 2.31 2.31 0 1.27-1.04 2.31-2.31 2.31z"/>
            <path d="M208.47 145.97a2.311 2.311 0 0 1 0-4.62 2.311 2.311 0 0 1 0 4.62z"/>
            <path d="M213.88 145.97a2.311 2.311 0 0 1 0-4.62 2.311 2.311 0 0 1 0 4.62z"/>
            <path d="M219.3 145.97a2.311 2.311 0 0 1 0-4.62c1.28 0 2.31 1.03 2.31 2.31 0 1.27-1.04 2.31-2.31 2.31z"/>
            <path d="M224.71 145.97a2.311 2.311 0 0 1 0-4.62 2.311 2.311 0 0 1 0 4.62z"/>
            <path d="M230.13 145.97a2.311 2.311 0 0 1 0-4.62c1.28 0 2.31 1.03 2.31 2.31 0 1.27-1.04 2.31-2.31 2.31z"/>
            <path d="M235.54 145.97a2.311 2.311 0 0 1 0-4.62 2.311 2.311 0 0 1 0 4.62z"/>
            <path d="M240.95 145.97a2.311 2.311 0 0 1 0-4.62 2.311 2.311 0 0 1 0 4.62z"/>
            <path d="M246.37 145.97a2.311 2.311 0 0 1 0-4.62c1.27 0 2.31 1.03 2.31 2.31 0 1.27-1.04 2.31-2.31 2.31z"/>
            <path d="M251.78 145.97a2.311 2.311 0 0 1 0-4.62 2.311 2.311 0 0 1 0 4.62z"/>
            <path d="M257.2 145.97a2.311 2.311 0 0 1 0-4.62c1.28 0 2.31 1.03 2.31 2.31 0 1.27-1.04 2.31-2.31 2.31z"/>
            <path d="M262.61 145.97a2.311 2.311 0 0 1 0-4.62 2.311 2.311 0 0 1 0 4.62z"/>
            <path d="M165.17 145.97a2.311 2.311 0 0 1 0-4.62 2.311 2.311 0 0 1 0 4.62z"/>
            <path d="M159.77 145.97a2.311 2.311 0 0 1 0-4.62c1.27 0 2.31 1.03 2.31 2.31 0 1.27-1.04 2.31-2.31 2.31z"/>
            <path d="M154.37 145.97a2.311 2.311 0 0 1 0-4.62c1.28 0 2.31 1.03 2.31 2.31-.01 1.27-1.04 2.31-2.31 2.31z"/>
            <path d="M148.96 145.97a2.311 2.311 0 0 1 0-4.62 2.311 2.311 0 0 1 0 4.62z"/>
            <path d="M143.56 145.97a2.311 2.311 0 0 1 0-4.62 2.311 2.311 0 0 1 0 4.62z"/>
            <path d="M138.16 145.97a2.311 2.311 0 0 1 0-4.62c1.28 0 2.31 1.03 2.31 2.31 0 1.27-1.04 2.31-2.31 2.31z"/>
        </g>
        <g>
            <path d="M170.57 151.38a2.311 2.311 0 0 1 0-4.62c1.28 0 2.31 1.03 2.31 2.31s-1.03 2.31-2.31 2.31z"/>
            <path d="M175.99 151.38a2.311 2.311 0 0 1 0-4.62 2.311 2.311 0 0 1 0 4.62z"/>
            <path d="M181.4 151.38a2.311 2.311 0 0 1 0-4.62 2.311 2.311 0 0 1 0 4.62z"/>
            <path d="M186.81 151.38a2.311 2.311 0 0 1 0-4.62 2.311 2.311 0 0 1 0 4.62z"/>
            <path d="M192.23 151.38a2.311 2.311 0 0 1 0-4.62 2.311 2.311 0 0 1 0 4.62z"/>
            <path d="M197.64 151.38a2.311 2.311 0 0 1 0-4.62 2.311 2.311 0 0 1 0 4.62z"/>
            <path d="M203.06 151.38a2.311 2.311 0 0 1 0-4.62 2.311 2.311 0 0 1 0 4.62z"/>
            <path d="M208.47 151.38a2.311 2.311 0 0 1 0-4.62 2.311 2.311 0 0 1 0 4.62z"/>
            <path d="M213.88 151.38a2.311 2.311 0 0 1 0-4.62c1.28 0 2.31 1.03 2.31 2.31s-1.03 2.31-2.31 2.31z"/>
            <path d="M219.3 151.38a2.311 2.311 0 0 1 0-4.62 2.311 2.311 0 0 1 0 4.62z"/>
            <path d="M224.71 151.38a2.311 2.311 0 0 1 0-4.62c1.28 0 2.31 1.03 2.31 2.31s-1.03 2.31-2.31 2.31z"/>
            <path d="M230.13 151.38a2.311 2.311 0 0 1 0-4.62 2.311 2.311 0 0 1 0 4.62z"/>
            <path d="M235.54 151.38a2.311 2.311 0 0 1 0-4.62 2.311 2.311 0 0 1 0 4.62z"/>
            <path d="M240.95 151.38a2.311 2.311 0 0 1 0-4.62 2.311 2.311 0 0 1 0 4.62z"/>
            <path d="M246.37 151.38a2.311 2.311 0 0 1 0-4.62 2.311 2.311 0 0 1 0 4.62z"/>
            <path d="M251.78 151.38a2.311 2.311 0 0 1 0-4.62 2.311 2.311 0 0 1 0 4.62z"/>
            <path d="M257.2 151.38a2.311 2.311 0 0 1 0-4.62 2.311 2.311 0 0 1 0 4.62z"/>
            <path d="M262.61 151.38a2.311 2.311 0 0 1 0-4.62 2.311 2.311 0 0 1 0 4.62z"/>
            <path d="M165.17 151.38a2.311 2.311 0 0 1 0-4.62 2.311 2.311 0 0 1 0 4.62z"/>
            <path d="M159.77 151.38a2.311 2.311 0 0 1 0-4.62 2.311 2.311 0 0 1 0 4.62z"/>
            <path d="M154.37 151.38a2.311 2.311 0 0 1 0-4.62c1.28 0 2.31 1.03 2.31 2.31a2.317 2.317 0 0 1-2.31 2.31z"/>
            <path d="M148.96 151.38a2.311 2.311 0 0 1 0-4.62 2.311 2.311 0 0 1 0 4.62z"/>
            <path d="M143.56 151.38a2.311 2.311 0 0 1 0-4.62 2.311 2.311 0 0 1 0 4.62z"/>
            <path d="M138.16 151.38a2.311 2.311 0 0 1 0-4.62 2.311 2.311 0 0 1 0 4.62z"/>
        </g>
        <g>
            <path d="M170.57 156.79a2.311 2.311 0 0 1 0-4.62c1.28 0 2.31 1.03 2.31 2.31s-1.03 2.31-2.31 2.31z"/>
            <path d="M175.99 156.79a2.311 2.311 0 0 1 0-4.62 2.311 2.311 0 0 1 0 4.62z"/>
            <path d="M181.4 156.79a2.311 2.311 0 0 1 0-4.62 2.311 2.311 0 0 1 0 4.62z"/>
            <path d="M186.81 156.79a2.311 2.311 0 0 1 0-4.62 2.311 2.311 0 0 1 0 4.62z"/>
            <path d="M192.23 156.79a2.311 2.311 0 0 1 0-4.62 2.311 2.311 0 0 1 0 4.62z"/>
            <path d="M197.64 156.79a2.311 2.311 0 0 1 0-4.62 2.311 2.311 0 0 1 0 4.62z"/>
            <path d="M203.06 156.79a2.311 2.311 0 0 1 0-4.62 2.311 2.311 0 0 1 0 4.62z"/>
            <path d="M208.47 156.79a2.311 2.311 0 0 1 0-4.62 2.311 2.311 0 0 1 0 4.62z"/>
            <path d="M213.88 156.79a2.311 2.311 0 0 1 0-4.62c1.28 0 2.31 1.03 2.31 2.31s-1.03 2.31-2.31 2.31z"/>
            <path d="M219.3 156.79a2.311 2.311 0 0 1 0-4.62 2.311 2.311 0 0 1 0 4.62z"/>
            <path d="M224.71 156.79a2.311 2.311 0 0 1 0-4.62c1.28 0 2.31 1.03 2.31 2.31s-1.03 2.31-2.31 2.31z"/>
            <path d="M230.13 156.79a2.311 2.311 0 0 1 0-4.62 2.311 2.311 0 0 1 0 4.62z"/>
            <path d="M235.54 156.79a2.311 2.311 0 0 1 0-4.62 2.311 2.311 0 0 1 0 4.62z"/>
            <path d="M240.95 156.79a2.311 2.311 0 0 1 0-4.62 2.311 2.311 0 0 1 0 4.62z"/>
            <path d="M246.37 156.79a2.311 2.311 0 0 1 0-4.62 2.311 2.311 0 0 1 0 4.62z"/>
            <path d="M251.78 156.79a2.311 2.311 0 0 1 0-4.62 2.311 2.311 0 0 1 0 4.62z"/>
            <path d="M257.2 156.79a2.311 2.311 0 0 1 0-4.62 2.311 2.311 0 0 1 0 4.62z"/>
            <path d="M262.61 156.79a2.311 2.311 0 0 1 0-4.62 2.311 2.311 0 0 1 0 4.62z"/>
            <path d="M165.17 156.79a2.311 2.311 0 0 1 0-4.62 2.311 2.311 0 0 1 0 4.62z"/>
            <path d="M159.77 156.79a2.311 2.311 0 0 1 0-4.62 2.311 2.311 0 0 1 0 4.62z"/>
            <path d="M154.37 156.79a2.311 2.311 0 0 1 0-4.62c1.28 0 2.31 1.03 2.31 2.31a2.317 2.317 0 0 1-2.31 2.31z"/>
            <path d="M148.96 156.79a2.311 2.311 0 0 1 0-4.62 2.311 2.311 0 0 1 0 4.62z"/>
            <path d="M143.56 156.79a2.311 2.311 0 0 1 0-4.62 2.311 2.311 0 0 1 0 4.62z"/>
            <path d="M138.16 156.79a2.311 2.311 0 0 1 0-4.62 2.311 2.311 0 0 1 0 4.62z"/>
        </g>
        <g>
            <path d="M170.57 162.21a2.311 2.311 0 0 1 0-4.62c1.28 0 2.31 1.03 2.31 2.31s-1.03 2.31-2.31 2.31z"/>
            <path d="M175.99 162.21a2.311 2.311 0 0 1 0-4.62 2.311 2.311 0 0 1 0 4.62z"/>
            <path d="M181.4 162.21a2.311 2.311 0 0 1 0-4.62 2.311 2.311 0 0 1 0 4.62z"/>
            <path d="M186.81 162.21a2.311 2.311 0 0 1 0-4.62 2.311 2.311 0 0 1 0 4.62z"/>
            <path d="M192.23 162.21a2.311 2.311 0 0 1 0-4.62 2.311 2.311 0 0 1 0 4.62z"/>
            <path d="M197.64 162.21a2.311 2.311 0 0 1 0-4.62 2.311 2.311 0 0 1 0 4.62z"/>
            <path d="M203.06 162.21a2.311 2.311 0 0 1 0-4.62 2.311 2.311 0 0 1 0 4.62z"/>
            <path d="M208.47 162.21a2.311 2.311 0 0 1 0-4.62 2.311 2.311 0 0 1 0 4.62z"/>
            <path d="M213.88 162.21a2.311 2.311 0 0 1 0-4.62c1.28 0 2.31 1.03 2.31 2.31s-1.03 2.31-2.31 2.31z"/>
            <path d="M219.3 162.21a2.311 2.311 0 0 1 0-4.62 2.311 2.311 0 0 1 0 4.62z"/>
            <path d="M224.71 162.21a2.311 2.311 0 0 1 0-4.62c1.28 0 2.31 1.03 2.31 2.31s-1.03 2.31-2.31 2.31z"/>
            <path d="M230.13 162.21a2.311 2.311 0 0 1 0-4.62 2.311 2.311 0 0 1 0 4.62z"/>
            <path d="M235.54 162.21a2.311 2.311 0 0 1 0-4.62 2.311 2.311 0 0 1 0 4.62z"/>
            <path d="M240.95 162.21a2.311 2.311 0 0 1 0-4.62 2.311 2.311 0 0 1 0 4.62z"/>
            <path d="M246.37 162.21a2.311 2.311 0 0 1 0-4.62 2.311 2.311 0 0 1 0 4.62z"/>
            <path d="M251.78 162.21a2.311 2.311 0 0 1 0-4.62 2.311 2.311 0 0 1 0 4.62z"/>
            <path d="M257.2 162.21a2.311 2.311 0 0 1 0-4.62 2.311 2.311 0 0 1 0 4.62z"/>
            <path d="M262.61 162.21a2.311 2.311 0 0 1 0-4.62 2.311 2.311 0 0 1 0 4.62z"/>
            <path d="M165.17 162.21a2.311 2.311 0 0 1 0-4.62 2.311 2.311 0 0 1 0 4.62z"/>
            <path d="M159.77 162.21a2.311 2.311 0 0 1 0-4.62 2.311 2.311 0 0 1 0 4.62z"/>
            <path d="M154.37 162.21a2.311 2.311 0 0 1 0-4.62c1.28 0 2.31 1.03 2.31 2.31a2.317 2.317 0 0 1-2.31 2.31z"/>
            <path d="M148.96 162.21a2.311 2.311 0 0 1 0-4.62 2.311 2.311 0 0 1 0 4.62z"/>
            <path d="M143.56 162.21a2.311 2.311 0 0 1 0-4.62 2.311 2.311 0 0 1 0 4.62z"/>
            <path d="M138.16 162.21a2.311 2.311 0 0 1 0-4.62 2.311 2.311 0 0 1 0 4.62z"/>
        </g>
        <g>
            <path d="M170.57 167.62a2.311 2.311 0 0 1 0-4.62c1.28 0 2.31 1.03 2.31 2.31s-1.03 2.31-2.31 2.31z"/>
            <path d="M175.99 167.62a2.311 2.311 0 0 1 0-4.62 2.311 2.311 0 0 1 0 4.62z"/>
            <path d="M181.4 167.62a2.311 2.311 0 0 1 0-4.62 2.311 2.311 0 0 1 0 4.62z"/>
            <path d="M186.81 167.62a2.311 2.311 0 0 1 0-4.62 2.311 2.311 0 0 1 0 4.62z"/>
            <path d="M192.23 167.62a2.311 2.311 0 0 1 0-4.62 2.311 2.311 0 0 1 0 4.62z"/>
            <path d="M197.64 167.62a2.311 2.311 0 0 1 0-4.62 2.311 2.311 0 0 1 0 4.62z"/>
            <path d="M203.06 167.62a2.311 2.311 0 0 1 0-4.62 2.311 2.311 0 0 1 0 4.62z"/>
            <path d="M208.47 167.62a2.311 2.311 0 0 1 0-4.62 2.311 2.311 0 0 1 0 4.62z"/>
            <path d="M213.88 167.62a2.311 2.311 0 0 1 0-4.62c1.28 0 2.31 1.03 2.31 2.31s-1.03 2.31-2.31 2.31z"/>
            <path d="M219.3 167.62a2.311 2.311 0 0 1 0-4.62 2.311 2.311 0 0 1 0 4.62z"/>
            <path d="M224.71 167.62a2.311 2.311 0 0 1 0-4.62c1.28 0 2.31 1.03 2.31 2.31s-1.03 2.31-2.31 2.31z"/>
            <path d="M230.13 167.62a2.311 2.311 0 0 1 0-4.62 2.311 2.311 0 0 1 0 4.62z"/>
            <path d="M235.54 167.62a2.311 2.311 0 0 1 0-4.62 2.311 2.311 0 0 1 0 4.62z"/>
            <path d="M240.95 167.62a2.311 2.311 0 0 1 0-4.62 2.311 2.311 0 0 1 0 4.62z"/>
            <path d="M246.37 167.62a2.311 2.311 0 0 1 0-4.62 2.311 2.311 0 0 1 0 4.62z"/>
            <path d="M251.78 167.62a2.311 2.311 0 0 1 0-4.62 2.311 2.311 0 0 1 0 4.62z"/>
            <path d="M257.2 167.62a2.311 2.311 0 0 1 0-4.62 2.311 2.311 0 0 1 0 4.62z"/>
            <path d="M262.61 167.62a2.311 2.311 0 0 1 0-4.62 2.311 2.311 0 0 1 0 4.62z"/>
            <path d="M165.17 167.62a2.311 2.311 0 0 1 0-4.62 2.311 2.311 0 0 1 0 4.62z"/>
            <path d="M159.77 167.62a2.311 2.311 0 0 1 0-4.62 2.311 2.311 0 0 1 0 4.62z"/>
            <path d="M154.37 167.62a2.311 2.311 0 0 1 0-4.62c1.28 0 2.31 1.03 2.31 2.31a2.317 2.317 0 0 1-2.31 2.31z"/>
            <path d="M148.96 167.62a2.311 2.311 0 0 1 0-4.62 2.311 2.311 0 0 1 0 4.62z"/>
            <path d="M143.56 167.62a2.311 2.311 0 0 1 0-4.62 2.311 2.311 0 0 1 0 4.62z"/>
            <path d="M138.16 167.62a2.311 2.311 0 0 1 0-4.62 2.311 2.311 0 0 1 0 4.62z"/>
        </g>
    </g>
</svg>
