<svg version="1.1" id="Layer_1" xmlns="http://www.w3.org/2000/svg" x="0" y="0" viewBox="0 0 131 61" xml:space="preserve">
    <style>
        .st1{fill:none;stroke:#d3dbdf;stroke-width:.4;stroke-miterlimit:10}.st2{fill:#aebdc4}.st3{font-family:&apos;OpenSans-Semibold&apos;}.st4{font-size:6.3996px}
    </style>
    <g onclick="this.parentNode.sekt.push(this);this.a_name=&quot;W 6 (низ)&quot;;">
        <path onclick="this.parentNode.a_fon=this;" fill="#f1f3f4" stroke="#bcc8ce" stroke-width=".4" stroke-linecap="round" stroke-miterlimit="10" d="M.5.7h129.9v59.6H.5z"/>
        <g onclick="this.parentNode.a_row=this;">
            <path class="st1" d="M117 51.2H13.8M117 45.3H13.8M117 39.4H13.8M117 33.4H13.8M117 27.5H13.8M117 21.6H13.8M117 15.6H13.8M117 9.7H13.8" onclick="this.a_par={beg_namb:1,quant:24};"/>
        </g>
        <circle class="st2" cx="15.6" cy="51.2" r="1.8"/>
        <circle class="st2" cx="20" cy="51.2" r="1.8"/>
        <circle class="st2" cx="24.3" cy="51.2" r="1.8"/>
        <circle class="st2" cx="28.6" cy="51.2" r="1.8"/>
        <circle class="st2" cx="32.9" cy="51.2" r="1.8"/>
        <circle class="st2" cx="37.2" cy="51.2" r="1.8"/>
        <circle class="st2" cx="41.6" cy="51.2" r="1.8"/>
        <circle class="st2" cx="45.9" cy="51.2" r="1.8"/>
        <circle class="st2" cx="50.2" cy="51.2" r="1.8"/>
        <circle class="st2" cx="54.5" cy="51.2" r="1.8"/>
        <circle class="st2" cx="58.9" cy="51.2" r="1.8"/>
        <circle class="st2" cx="63.2" cy="51.2" r="1.8"/>
        <circle class="st2" cx="67.5" cy="51.2" r="1.8"/>
        <circle class="st2" cx="71.9" cy="51.2" r="1.8"/>
        <circle class="st2" cx="76.2" cy="51.2" r="1.8"/>
        <circle class="st2" cx="80.5" cy="51.2" r="1.8"/>
        <circle class="st2" cx="84.9" cy="51.2" r="1.8"/>
        <circle class="st2" cx="89.2" cy="51.2" r="1.8"/>
        <circle class="st2" cx="93.5" cy="51.2" r="1.8"/>
        <circle class="st2" cx="97.9" cy="51.2" r="1.8"/>
        <circle class="st2" cx="102.2" cy="51.2" r="1.8"/>
        <circle class="st2" cx="106.5" cy="51.2" r="1.8"/>
        <circle class="st2" cx="110.8" cy="51.2" r="1.8"/>
        <circle class="st2" cx="115.2" cy="51.2" r="1.8"/>
        <g>
            <circle class="st2" cx="15.6" cy="45.3" r="1.8"/>
            <circle class="st2" cx="20" cy="45.3" r="1.8"/>
            <circle class="st2" cx="24.3" cy="45.3" r="1.8"/>
            <circle class="st2" cx="28.6" cy="45.3" r="1.8"/>
            <circle class="st2" cx="32.9" cy="45.3" r="1.8"/>
            <circle class="st2" cx="37.2" cy="45.3" r="1.8"/>
            <circle class="st2" cx="41.6" cy="45.3" r="1.8"/>
            <circle class="st2" cx="45.9" cy="45.3" r="1.8"/>
            <circle class="st2" cx="50.2" cy="45.3" r="1.8"/>
            <circle class="st2" cx="54.5" cy="45.3" r="1.8"/>
            <circle class="st2" cx="58.9" cy="45.3" r="1.8"/>
            <circle class="st2" cx="63.2" cy="45.3" r="1.8"/>
            <circle class="st2" cx="67.5" cy="45.3" r="1.8"/>
            <circle class="st2" cx="71.9" cy="45.3" r="1.8"/>
            <circle class="st2" cx="76.2" cy="45.3" r="1.8"/>
            <circle class="st2" cx="80.5" cy="45.3" r="1.8"/>
            <circle class="st2" cx="84.9" cy="45.3" r="1.8"/>
            <circle class="st2" cx="89.2" cy="45.3" r="1.8"/>
            <circle class="st2" cx="93.5" cy="45.3" r="1.8"/>
            <circle class="st2" cx="97.9" cy="45.3" r="1.8"/>
            <circle class="st2" cx="102.2" cy="45.3" r="1.8"/>
            <circle class="st2" cx="106.5" cy="45.3" r="1.8"/>
            <circle class="st2" cx="110.8" cy="45.3" r="1.8"/>
            <circle class="st2" cx="115.2" cy="45.3" r="1.8"/>
        </g>
        <g>
            <circle class="st2" cx="15.6" cy="39.4" r="1.8"/>
            <circle class="st2" cx="20" cy="39.4" r="1.8"/>
            <circle class="st2" cx="24.3" cy="39.4" r="1.8"/>
            <circle class="st2" cx="28.6" cy="39.4" r="1.8"/>
            <circle class="st2" cx="32.9" cy="39.4" r="1.8"/>
            <circle class="st2" cx="37.2" cy="39.4" r="1.8"/>
            <circle class="st2" cx="41.6" cy="39.4" r="1.8"/>
            <circle class="st2" cx="45.9" cy="39.4" r="1.8"/>
            <circle class="st2" cx="50.2" cy="39.4" r="1.8"/>
            <circle class="st2" cx="54.5" cy="39.4" r="1.8"/>
            <circle class="st2" cx="58.9" cy="39.4" r="1.8"/>
            <circle class="st2" cx="63.2" cy="39.4" r="1.8"/>
            <circle class="st2" cx="67.5" cy="39.4" r="1.8"/>
            <circle class="st2" cx="71.9" cy="39.4" r="1.8"/>
            <circle class="st2" cx="76.2" cy="39.4" r="1.8"/>
            <circle class="st2" cx="80.5" cy="39.4" r="1.8"/>
            <circle class="st2" cx="84.9" cy="39.4" r="1.8"/>
            <circle class="st2" cx="89.2" cy="39.4" r="1.8"/>
            <circle class="st2" cx="93.5" cy="39.4" r="1.8"/>
            <circle class="st2" cx="97.9" cy="39.4" r="1.8"/>
            <circle class="st2" cx="102.2" cy="39.4" r="1.8"/>
            <circle class="st2" cx="106.5" cy="39.4" r="1.8"/>
            <circle class="st2" cx="110.8" cy="39.4" r="1.8"/>
            <circle class="st2" cx="115.2" cy="39.4" r="1.8"/>
        </g>
        <g>
            <circle class="st2" cx="15.6" cy="33.4" r="1.8"/>
            <circle class="st2" cx="20" cy="33.4" r="1.8"/>
            <circle class="st2" cx="24.3" cy="33.4" r="1.8"/>
            <circle class="st2" cx="28.6" cy="33.4" r="1.8"/>
            <circle class="st2" cx="32.9" cy="33.4" r="1.8"/>
            <circle class="st2" cx="37.2" cy="33.4" r="1.8"/>
            <circle class="st2" cx="41.6" cy="33.4" r="1.8"/>
            <circle class="st2" cx="45.9" cy="33.4" r="1.8"/>
            <circle class="st2" cx="50.2" cy="33.4" r="1.8"/>
            <circle class="st2" cx="54.5" cy="33.4" r="1.8"/>
            <circle class="st2" cx="58.9" cy="33.4" r="1.8"/>
            <circle class="st2" cx="63.2" cy="33.4" r="1.8"/>
            <circle class="st2" cx="67.5" cy="33.4" r="1.8"/>
            <circle class="st2" cx="71.9" cy="33.4" r="1.8"/>
            <circle class="st2" cx="76.2" cy="33.4" r="1.8"/>
            <circle class="st2" cx="80.5" cy="33.4" r="1.8"/>
            <circle class="st2" cx="84.9" cy="33.4" r="1.8"/>
            <circle class="st2" cx="89.2" cy="33.4" r="1.8"/>
            <circle class="st2" cx="93.5" cy="33.4" r="1.8"/>
            <circle class="st2" cx="97.9" cy="33.4" r="1.8"/>
            <circle class="st2" cx="102.2" cy="33.4" r="1.8"/>
            <circle class="st2" cx="106.5" cy="33.4" r="1.8"/>
            <circle class="st2" cx="110.8" cy="33.4" r="1.8"/>
            <circle class="st2" cx="115.2" cy="33.4" r="1.8"/>
        </g>
        <g>
            <circle class="st2" cx="15.6" cy="27.5" r="1.9"/>
            <circle class="st2" cx="20" cy="27.5" r="1.9"/>
            <circle class="st2" cx="24.3" cy="27.5" r="1.9"/>
            <circle class="st2" cx="28.6" cy="27.5" r="1.9"/>
            <circle class="st2" cx="32.9" cy="27.5" r="1.8"/>
            <circle class="st2" cx="37.2" cy="27.5" r="1.8"/>
            <circle class="st2" cx="41.6" cy="27.5" r="1.8"/>
            <circle class="st2" cx="45.9" cy="27.5" r="1.8"/>
            <circle class="st2" cx="50.2" cy="27.5" r="1.8"/>
            <circle class="st2" cx="54.5" cy="27.5" r="1.8"/>
            <circle class="st2" cx="58.9" cy="27.5" r="1.8"/>
            <circle class="st2" cx="63.2" cy="27.5" r="1.8"/>
            <circle class="st2" cx="67.5" cy="27.5" r="1.8"/>
            <circle class="st2" cx="71.9" cy="27.5" r="1.8"/>
            <circle class="st2" cx="76.2" cy="27.5" r="1.8"/>
            <circle class="st2" cx="80.5" cy="27.5" r="1.8"/>
            <circle class="st2" cx="84.9" cy="27.5" r="1.8"/>
            <circle class="st2" cx="89.2" cy="27.5" r="1.8"/>
            <circle class="st2" cx="93.5" cy="27.5" r="1.8"/>
            <circle class="st2" cx="97.9" cy="27.5" r="1.8"/>
            <circle class="st2" cx="102.2" cy="27.5" r="1.8"/>
            <circle class="st2" cx="106.5" cy="27.5" r="1.8"/>
            <circle class="st2" cx="110.8" cy="27.5" r="1.8"/>
            <circle class="st2" cx="115.2" cy="27.5" r="1.8"/>
        </g>
        <g>
            <circle class="st2" cx="15.6" cy="15.6" r="1.9"/>
            <circle class="st2" cx="20" cy="15.6" r="1.9"/>
            <circle class="st2" cx="24.3" cy="15.6" r="1.9"/>
            <circle class="st2" cx="28.6" cy="15.6" r="1.9"/>
            <circle class="st2" cx="32.9" cy="15.6" r="1.8"/>
            <circle class="st2" cx="37.2" cy="15.6" r="1.8"/>
            <circle class="st2" cx="41.6" cy="15.6" r="1.8"/>
            <circle class="st2" cx="45.9" cy="15.6" r="1.8"/>
            <circle class="st2" cx="50.2" cy="15.6" r="1.8"/>
            <circle class="st2" cx="54.5" cy="15.6" r="1.8"/>
            <circle class="st2" cx="58.9" cy="15.6" r="1.8"/>
            <circle class="st2" cx="63.2" cy="15.6" r="1.8"/>
            <circle class="st2" cx="67.5" cy="15.6" r="1.8"/>
            <circle class="st2" cx="71.9" cy="15.6" r="1.8"/>
            <circle class="st2" cx="76.2" cy="15.6" r="1.8"/>
            <circle class="st2" cx="80.5" cy="15.6" r="1.8"/>
            <circle class="st2" cx="84.9" cy="15.6" r="1.8"/>
            <circle class="st2" cx="89.2" cy="15.6" r="1.8"/>
            <circle class="st2" cx="93.5" cy="15.6" r="1.8"/>
            <circle class="st2" cx="97.9" cy="15.6" r="1.8"/>
            <circle class="st2" cx="102.2" cy="15.6" r="1.8"/>
            <circle class="st2" cx="106.5" cy="15.6" r="1.8"/>
            <circle class="st2" cx="110.8" cy="15.6" r="1.8"/>
            <circle class="st2" cx="115.2" cy="15.6" r="1.8"/>
        </g>
        <g>
            <circle class="st2" cx="15.6" cy="9.7" r="1.9"/>
            <circle class="st2" cx="20" cy="9.7" r="1.9"/>
            <circle class="st2" cx="24.3" cy="9.7" r="1.9"/>
            <circle class="st2" cx="28.6" cy="9.7" r="1.9"/>
            <circle class="st2" cx="32.9" cy="9.7" r="1.8"/>
            <circle class="st2" cx="37.2" cy="9.7" r="1.8"/>
            <circle class="st2" cx="41.6" cy="9.7" r="1.8"/>
            <circle class="st2" cx="45.9" cy="9.7" r="1.8"/>
            <circle class="st2" cx="50.2" cy="9.7" r="1.8"/>
            <circle class="st2" cx="54.5" cy="9.7" r="1.8"/>
            <circle class="st2" cx="58.9" cy="9.7" r="1.8"/>
            <circle class="st2" cx="63.2" cy="9.7" r="1.8"/>
            <circle class="st2" cx="67.5" cy="9.7" r="1.8"/>
            <circle class="st2" cx="71.9" cy="9.7" r="1.8"/>
            <circle class="st2" cx="76.2" cy="9.7" r="1.8"/>
            <circle class="st2" cx="80.5" cy="9.7" r="1.8"/>
            <circle class="st2" cx="84.9" cy="9.7" r="1.8"/>
            <circle class="st2" cx="89.2" cy="9.7" r="1.8"/>
            <circle class="st2" cx="93.5" cy="9.7" r="1.8"/>
            <circle class="st2" cx="97.9" cy="9.7" r="1.8"/>
            <circle class="st2" cx="102.2" cy="9.7" r="1.8"/>
            <circle class="st2" cx="106.5" cy="9.7" r="1.8"/>
            <circle class="st2" cx="110.8" cy="9.7" r="1.8"/>
            <circle class="st2" cx="115.2" cy="9.7" r="1.8"/>
        </g>
        <g>
            <circle class="st2" cx="15.6" cy="21.6" r="1.9"/>
            <circle class="st2" cx="20" cy="21.6" r="1.9"/>
            <circle class="st2" cx="24.3" cy="21.6" r="1.9"/>
            <circle class="st2" cx="28.6" cy="21.6" r="1.9"/>
            <circle class="st2" cx="32.9" cy="21.6" r="1.8"/>
            <circle class="st2" cx="37.2" cy="21.6" r="1.8"/>
            <circle class="st2" cx="41.6" cy="21.6" r="1.8"/>
            <circle class="st2" cx="45.9" cy="21.6" r="1.8"/>
            <circle class="st2" cx="50.2" cy="21.6" r="1.8"/>
            <circle class="st2" cx="54.5" cy="21.6" r="1.8"/>
            <circle class="st2" cx="58.9" cy="21.6" r="1.8"/>
            <circle class="st2" cx="63.2" cy="21.6" r="1.8"/>
            <circle class="st2" cx="67.5" cy="21.6" r="1.8"/>
            <circle class="st2" cx="71.9" cy="21.6" r="1.8"/>
            <circle class="st2" cx="76.2" cy="21.6" r="1.8"/>
            <circle class="st2" cx="80.5" cy="21.6" r="1.8"/>
            <circle class="st2" cx="84.9" cy="21.6" r="1.8"/>
            <circle class="st2" cx="89.2" cy="21.6" r="1.8"/>
            <circle class="st2" cx="93.5" cy="21.6" r="1.8"/>
            <circle class="st2" cx="97.9" cy="21.6" r="1.8"/>
            <circle class="st2" cx="102.2" cy="21.6" r="1.8"/>
            <circle class="st2" cx="106.5" cy="21.6" r="1.8"/>
            <circle class="st2" cx="110.8" cy="21.6" r="1.8"/>
            <circle class="st2" cx="115.2" cy="21.6" r="1.8"/>
        </g>
    </g>
</svg>
