<?xml version="1.0" encoding="utf-8"?>
<!-- Generator: Adobe Illustrator 23.0.1, SVG Export Plug-In . SVG Version: 6.00 Build 0)  -->
<svg version="1.1" id="Layer_1" xmlns="http://www.w3.org/2000/svg" xmlns:xlink="http://www.w3.org/1999/xlink" x="0px" y="0px"
  viewBox="0 0 64 118" enable-background="new 0 0 64 118" xml:space="preserve">
  <polygon fill="#F1F3F4" stroke="#BCC8CE" stroke-width="0.4" stroke-linecap="round" stroke-miterlimit="10" points="
    0.5,0.36 63.5,0.36 63.5,91.95 0.5,117.55 	"/>
    <g 
      data-sort-seat-direction="ltr" 
      data-sort-line-direction="ttb" 
      data-sort-seat-option="cx" 
      data-sort-line-option="cy" 
      data-line-start="28"
      >
      
      <g>
        <circle fill="#AEBDC4" cx="11.55" cy="98.39" r="1.85"/>
        <circle fill="#AEBDC4" cx="15.87" cy="98.39" r="1.85"/>
        <circle fill="#AEBDC4" cx="20.19" cy="98.39" r="1.85"/>
      </g>
      <g>
        <circle fill="#AEBDC4" cx="11.55" cy="92.45" r="1.85"/>
        <circle fill="#AEBDC4" cx="15.87" cy="92.45" r="1.85"/>
        <circle fill="#AEBDC4" cx="20.19" cy="92.45" r="1.85"/>
        <circle fill="#AEBDC4" cx="24.51" cy="92.45" r="1.85"/>
        <circle fill="#AEBDC4" cx="28.83" cy="92.45" r="1.85"/>
        <circle fill="#AEBDC4" cx="33.15" cy="92.45" r="1.85"/>
      </g>
      <g>
        <circle fill="#AEBDC4" cx="11.55" cy="86.52" r="1.85"/>
        <circle fill="#AEBDC4" cx="15.87" cy="86.52" r="1.85"/>
        <circle fill="#AEBDC4" cx="20.19" cy="86.52" r="1.85"/>
        <circle fill="#AEBDC4" cx="24.51" cy="86.52" r="1.85"/>
        <circle fill="#AEBDC4" cx="28.83" cy="86.52" r="1.85"/>
        <circle fill="#AEBDC4" cx="33.15" cy="86.52" r="1.85"/>
        <circle fill="#AEBDC4" cx="37.47" cy="86.52" r="1.85"/>
        <circle fill="#AEBDC4" cx="41.79" cy="86.52" r="1.85"/>
        <circle fill="#AEBDC4" cx="46.11" cy="86.52" r="1.85"/>
        <circle fill="#AEBDC4" cx="50.45" cy="86.52" r="1.85"/>
      </g>
      <g>
        <circle fill="#AEBDC4" cx="11.55" cy="80.59" r="1.85"/>
        <circle fill="#AEBDC4" cx="15.87" cy="80.59" r="1.85"/>
        <circle fill="#AEBDC4" cx="20.19" cy="80.59" r="1.85"/>
        <circle fill="#AEBDC4" cx="24.51" cy="80.59" r="1.85"/>
        <circle fill="#AEBDC4" cx="28.83" cy="80.59" r="1.85"/>
        <circle fill="#AEBDC4" cx="33.15" cy="80.59" r="1.85"/>
        <circle fill="#AEBDC4" cx="37.47" cy="80.59" r="1.85"/>
        <circle fill="#AEBDC4" cx="41.79" cy="80.59" r="1.85"/>
        <circle fill="#AEBDC4" cx="46.11" cy="80.59" r="1.85"/>
        <circle fill="#AEBDC4" cx="50.45" cy="80.59" r="1.85"/>
      </g>
      <g>
        <circle fill="#AEBDC4" cx="11.55" cy="74.66" r="1.85"/>
        <circle fill="#AEBDC4" cx="15.87" cy="74.66" r="1.85"/>
        <circle fill="#AEBDC4" cx="20.19" cy="74.66" r="1.85"/>
        <circle fill="#AEBDC4" cx="24.51" cy="74.66" r="1.85"/>
        <circle fill="#AEBDC4" cx="28.83" cy="74.66" r="1.85"/>
        <circle fill="#AEBDC4" cx="33.15" cy="74.66" r="1.85"/>
        <circle fill="#AEBDC4" cx="37.47" cy="74.66" r="1.85"/>
        <circle fill="#AEBDC4" cx="41.79" cy="74.66" r="1.85"/>
        <circle fill="#AEBDC4" cx="46.11" cy="74.66" r="1.85"/>
        <circle fill="#AEBDC4" cx="50.45" cy="74.66" r="1.85"/>
      </g>
      <g>
        <circle fill="#AEBDC4" cx="11.55" cy="68.73" r="1.85"/>
        <circle fill="#AEBDC4" cx="15.87" cy="68.73" r="1.85"/>
        <circle fill="#AEBDC4" cx="20.19" cy="68.73" r="1.85"/>
        <circle fill="#AEBDC4" cx="24.51" cy="68.73" r="1.85"/>
        <circle fill="#AEBDC4" cx="28.83" cy="68.73" r="1.85"/>
        <circle fill="#AEBDC4" cx="33.15" cy="68.73" r="1.85"/>
        <circle fill="#AEBDC4" cx="37.47" cy="68.73" r="1.85"/>
        <circle fill="#AEBDC4" cx="41.79" cy="68.73" r="1.85"/>
        <circle fill="#AEBDC4" cx="46.11" cy="68.73" r="1.85"/>
        <circle fill="#AEBDC4" cx="50.45" cy="68.73" r="1.85"/>
      </g>
      <g>
        <circle fill="#AEBDC4" cx="20.2" cy="62.8" r="1.85"/>
        <circle fill="#AEBDC4" cx="24.52" cy="62.8" r="1.85"/>
        <circle fill="#AEBDC4" cx="28.84" cy="62.8" r="1.85"/>
        <circle fill="#AEBDC4" cx="33.16" cy="62.8" r="1.85"/>
        <circle fill="#AEBDC4" cx="37.48" cy="62.8" r="1.85"/>
        <circle fill="#AEBDC4" cx="41.8" cy="62.8" r="1.85"/>
        <circle fill="#AEBDC4" cx="46.12" cy="62.8" r="1.85"/>
        <circle fill="#AEBDC4" cx="50.45" cy="62.8" r="1.85"/>
      </g>
      <g>
        <circle fill="#AEBDC4" cx="20.2" cy="56.87" r="1.85"/>
        <circle fill="#AEBDC4" cx="24.52" cy="56.87" r="1.85"/>
        <circle fill="#AEBDC4" cx="28.84" cy="56.87" r="1.85"/>
        <circle fill="#AEBDC4" cx="33.16" cy="56.87" r="1.85"/>
        <circle fill="#AEBDC4" cx="37.48" cy="56.87" r="1.85"/>
        <circle fill="#AEBDC4" cx="41.8" cy="56.87" r="1.85"/>
        <circle fill="#AEBDC4" cx="46.12" cy="56.87" r="1.85"/>
        <circle fill="#AEBDC4" cx="50.45" cy="56.87" r="1.85"/>
      </g>
      <g>
        <circle fill="#AEBDC4" cx="20.2" cy="50.94" r="1.85"/>
        <circle fill="#AEBDC4" cx="24.52" cy="50.94" r="1.85"/>
        <circle fill="#AEBDC4" cx="28.84" cy="50.94" r="1.85"/>
        <circle fill="#AEBDC4" cx="33.16" cy="50.94" r="1.85"/>
        <circle fill="#AEBDC4" cx="37.48" cy="50.94" r="1.85"/>
        <circle fill="#AEBDC4" cx="41.8" cy="50.94" r="1.85"/>
        <circle fill="#AEBDC4" cx="46.12" cy="50.94" r="1.85"/>
        <circle fill="#AEBDC4" cx="50.45" cy="50.94" r="1.85"/>
      </g>
      <g>
        <circle fill="#AEBDC4" cx="20.2" cy="45.01" r="1.85"/>
        <circle fill="#AEBDC4" cx="24.52" cy="45.01" r="1.85"/>
        <circle fill="#AEBDC4" cx="28.84" cy="45.01" r="1.85"/>
        <circle fill="#AEBDC4" cx="33.16" cy="45.01" r="1.85"/>
        <circle fill="#AEBDC4" cx="37.48" cy="45.01" r="1.85"/>
        <circle fill="#AEBDC4" cx="41.8" cy="45.01" r="1.85"/>
        <circle fill="#AEBDC4" cx="46.12" cy="45.01" r="1.85"/>
        <circle fill="#AEBDC4" cx="50.45" cy="45.01" r="1.85"/>
      </g>
      <g>
        <circle fill="#AEBDC4" cx="20.2" cy="39.08" r="1.85"/>
        <circle fill="#AEBDC4" cx="24.52" cy="39.08" r="1.85"/>
        <circle fill="#AEBDC4" cx="28.84" cy="39.08" r="1.85"/>
        <circle fill="#AEBDC4" cx="33.16" cy="39.08" r="1.85"/>
        <circle fill="#AEBDC4" cx="37.48" cy="39.08" r="1.85"/>
        <circle fill="#AEBDC4" cx="41.8" cy="39.08" r="1.85"/>
        <circle fill="#AEBDC4" cx="46.12" cy="39.08" r="1.85"/>
        <circle fill="#AEBDC4" cx="50.45" cy="39.08" r="1.85"/>
      </g>
      <g>
        <circle fill="#AEBDC4" cx="11.55" cy="33.15" r="1.85"/>
        <circle fill="#AEBDC4" cx="15.87" cy="33.15" r="1.85"/>
        <circle fill="#AEBDC4" cx="20.19" cy="33.15" r="1.85"/>
        <circle fill="#AEBDC4" cx="24.51" cy="33.15" r="1.85"/>
        <circle fill="#AEBDC4" cx="28.83" cy="33.15" r="1.85"/>
        <circle fill="#AEBDC4" cx="33.15" cy="33.15" r="1.85"/>
        <circle fill="#AEBDC4" cx="37.47" cy="33.15" r="1.85"/>
        <circle fill="#AEBDC4" cx="41.79" cy="33.15" r="1.85"/>
        <circle fill="#AEBDC4" cx="46.11" cy="33.15" r="1.85"/>
        <circle fill="#AEBDC4" cx="50.45" cy="33.15" r="1.85"/>
      </g>
      <g>
        <circle fill="#AEBDC4" cx="11.55" cy="27.22" r="1.85"/>
        <circle fill="#AEBDC4" cx="15.87" cy="27.22" r="1.85"/>
        <circle fill="#AEBDC4" cx="20.19" cy="27.22" r="1.85"/>
        <circle fill="#AEBDC4" cx="24.51" cy="27.22" r="1.85"/>
        <circle fill="#AEBDC4" cx="28.83" cy="27.22" r="1.85"/>
        <circle fill="#AEBDC4" cx="33.15" cy="27.22" r="1.85"/>
        <circle fill="#AEBDC4" cx="37.47" cy="27.22" r="1.85"/>
        <circle fill="#AEBDC4" cx="41.79" cy="27.22" r="1.85"/>
        <circle fill="#AEBDC4" cx="46.11" cy="27.22" r="1.85"/>
        <circle fill="#AEBDC4" cx="50.45" cy="27.22" r="1.85"/>
      </g>
      <g>
        <circle fill="#AEBDC4" cx="11.55" cy="21.28" r="1.85"/>
        <circle fill="#AEBDC4" cx="15.87" cy="21.28" r="1.85"/>
        <circle fill="#AEBDC4" cx="20.19" cy="21.28" r="1.85"/>
        <circle fill="#AEBDC4" cx="24.51" cy="21.28" r="1.85"/>
        <circle fill="#AEBDC4" cx="28.83" cy="21.28" r="1.85"/>
        <circle fill="#AEBDC4" cx="33.15" cy="21.28" r="1.85"/>
        <circle fill="#AEBDC4" cx="37.47" cy="21.28" r="1.85"/>
        <circle fill="#AEBDC4" cx="41.79" cy="21.28" r="1.85"/>
        <circle fill="#AEBDC4" cx="46.11" cy="21.28" r="1.85"/>
        <circle fill="#AEBDC4" cx="50.45" cy="21.28" r="1.85"/>
      </g>
      <g>
        <circle fill="#AEBDC4" cx="11.55" cy="15.35" r="1.85"/>
        <circle fill="#AEBDC4" cx="15.87" cy="15.35" r="1.85"/>
        <circle fill="#AEBDC4" cx="20.19" cy="15.35" r="1.85"/>
        <circle fill="#AEBDC4" cx="24.51" cy="15.35" r="1.85"/>
        <circle fill="#AEBDC4" cx="28.83" cy="15.35" r="1.85"/>
        <circle fill="#AEBDC4" cx="33.15" cy="15.35" r="1.85"/>
        <circle fill="#AEBDC4" cx="37.47" cy="15.35" r="1.85"/>
        <circle fill="#AEBDC4" cx="41.79" cy="15.35" r="1.85"/>
        <circle fill="#AEBDC4" cx="46.11" cy="15.35" r="1.85"/>
        <circle fill="#AEBDC4" cx="50.45" cy="15.35" r="1.85"/>
      </g>
      <g>
        <circle fill="#AEBDC4" cx="11.55" cy="9.42" r="1.85"/>
        <circle fill="#AEBDC4" cx="15.87" cy="9.42" r="1.85"/>
        <circle fill="#AEBDC4" cx="20.19" cy="9.42" r="1.85"/>
        <circle fill="#AEBDC4" cx="24.51" cy="9.42" r="1.85"/>
        <circle fill="#AEBDC4" cx="28.83" cy="9.42" r="1.85"/>
        <circle fill="#AEBDC4" cx="33.15" cy="9.42" r="1.85"/>
        <circle fill="#AEBDC4" cx="37.47" cy="9.42" r="1.85"/>
        <circle fill="#AEBDC4" cx="41.79" cy="9.42" r="1.85"/>
        <circle fill="#AEBDC4" cx="46.11" cy="9.42" r="1.85"/>
        <circle fill="#AEBDC4" cx="50.45" cy="9.42" r="1.85"/>
      </g>
    </g>
  </svg>
