<?xml version="1.0" encoding="utf-8"?>
<!-- Generator: Adobe Illustrator 23.0.1, SVG Export Plug-In . SVG Version: 6.00 Build 0)  -->
<svg version="1.1" id="Layer_1" xmlns="http://www.w3.org/2000/svg" xmlns:xlink="http://www.w3.org/1999/xlink" x="0px" y="0px"
  viewBox="0 0 215 66" enable-background="new 0 0 215 66" xml:space="preserve">
  <polygon fill="#F1F3F4" stroke="#BCC8CE" stroke-width="0.4" stroke-linecap="round" stroke-miterlimit="10" points="
    191.58,65.49 1.22,0.45 214.7,0.45 	"/>
    <g 
      data-sort-seat-direction="rtl" 
      data-sort-line-direction="ttb" 
      data-sort-seat-option="cy" 
      data-sort-line-option="cx" 
      data-line-start="9"
      >
      
      <g>
        <circle fill="#AEBDC4" cx="189.97" cy="12.23" r="1.85"/>
        <circle fill="#AEBDC4" cx="189.97" cy="7.9" r="1.85"/>
      </g>
      <g>
        <circle fill="#AEBDC4" cx="184.04" cy="29.51" r="1.85"/>
        <circle fill="#AEBDC4" cx="184.04" cy="25.19" r="1.85"/>
        <circle fill="#AEBDC4" cx="184.04" cy="20.87" r="1.85"/>
        <circle fill="#AEBDC4" cx="184.04" cy="16.55" r="1.85"/>
        <circle fill="#AEBDC4" cx="184.04" cy="12.23" r="1.85"/>
        <circle fill="#AEBDC4" cx="184.04" cy="7.9" r="1.85"/>
      </g>
      <g>
        <circle fill="#AEBDC4" cx="178.11" cy="46.81" r="1.85"/>
        <circle fill="#AEBDC4" cx="178.11" cy="42.48" r="1.85"/>
        <circle fill="#AEBDC4" cx="178.11" cy="38.16" r="1.85"/>
        <circle fill="#AEBDC4" cx="178.11" cy="33.84" r="1.85"/>
        <circle fill="#AEBDC4" cx="178.11" cy="29.52" r="1.85"/>
        <circle fill="#AEBDC4" cx="178.11" cy="25.2" r="1.85"/>
        <circle fill="#AEBDC4" cx="178.11" cy="20.88" r="1.85"/>
        <circle fill="#AEBDC4" cx="178.11" cy="16.56" r="1.85"/>
        <circle fill="#AEBDC4" cx="178.11" cy="12.23" r="1.85"/>
        <circle fill="#AEBDC4" cx="178.11" cy="7.9" r="1.85"/>
      </g>
      <g>
        <circle fill="#AEBDC4" cx="172.18" cy="46.81" r="1.85"/>
        <circle fill="#AEBDC4" cx="172.18" cy="42.48" r="1.85"/>
        <circle fill="#AEBDC4" cx="172.18" cy="38.16" r="1.85"/>
        <circle fill="#AEBDC4" cx="172.18" cy="33.84" r="1.85"/>
        <circle fill="#AEBDC4" cx="172.18" cy="29.52" r="1.85"/>
        <circle fill="#AEBDC4" cx="172.18" cy="25.2" r="1.85"/>
        <circle fill="#AEBDC4" cx="172.18" cy="20.88" r="1.85"/>
        <circle fill="#AEBDC4" cx="172.18" cy="16.56" r="1.85"/>
        <circle fill="#AEBDC4" cx="172.18" cy="12.23" r="1.85"/>
        <circle fill="#AEBDC4" cx="172.18" cy="7.9" r="1.85"/>
      </g>
      <g>
        <circle fill="#AEBDC4" cx="166.25" cy="46.81" r="1.85"/>
        <circle fill="#AEBDC4" cx="166.25" cy="42.48" r="1.85"/>
        <circle fill="#AEBDC4" cx="166.25" cy="38.16" r="1.85"/>
        <circle fill="#AEBDC4" cx="166.25" cy="33.84" r="1.85"/>
        <circle fill="#AEBDC4" cx="166.25" cy="29.52" r="1.85"/>
        <circle fill="#AEBDC4" cx="166.25" cy="25.2" r="1.85"/>
        <circle fill="#AEBDC4" cx="166.25" cy="20.88" r="1.85"/>
        <circle fill="#AEBDC4" cx="166.25" cy="16.56" r="1.85"/>
        <circle fill="#AEBDC4" cx="166.25" cy="12.23" r="1.85"/>
        <circle fill="#AEBDC4" cx="166.25" cy="7.9" r="1.85"/>
      </g>
      <g>
        <circle fill="#AEBDC4" cx="160.32" cy="42.48" r="1.85"/>
        <circle fill="#AEBDC4" cx="160.32" cy="38.15" r="1.85"/>
        <circle fill="#AEBDC4" cx="160.32" cy="33.83" r="1.85"/>
        <circle fill="#AEBDC4" cx="160.32" cy="29.51" r="1.85"/>
        <circle fill="#AEBDC4" cx="160.32" cy="25.19" r="1.85"/>
        <circle fill="#AEBDC4" cx="160.32" cy="20.87" r="1.85"/>
        <circle fill="#AEBDC4" cx="160.32" cy="16.55" r="1.85"/>
        <circle fill="#AEBDC4" cx="160.32" cy="12.23" r="1.85"/>
        <circle fill="#AEBDC4" cx="160.32" cy="7.9" r="1.85"/>
      </g>
      <g>
        <circle fill="#AEBDC4" cx="154.39" cy="42.48" r="1.85"/>
        <circle fill="#AEBDC4" cx="154.39" cy="38.15" r="1.85"/>
        <circle fill="#AEBDC4" cx="154.39" cy="33.83" r="1.85"/>
        <circle fill="#AEBDC4" cx="154.39" cy="29.51" r="1.85"/>
        <circle fill="#AEBDC4" cx="154.39" cy="25.19" r="1.85"/>
        <circle fill="#AEBDC4" cx="154.39" cy="20.87" r="1.85"/>
        <circle fill="#AEBDC4" cx="154.39" cy="16.55" r="1.85"/>
        <circle fill="#AEBDC4" cx="154.39" cy="12.23" r="1.85"/>
        <circle fill="#AEBDC4" cx="154.39" cy="7.9" r="1.85"/>
      </g>
      <g>
        <circle fill="#AEBDC4" cx="148.46" cy="38.15" r="1.85"/>
        <circle fill="#AEBDC4" cx="148.46" cy="33.83" r="1.85"/>
        <circle fill="#AEBDC4" cx="148.46" cy="29.51" r="1.85"/>
        <circle fill="#AEBDC4" cx="148.46" cy="25.19" r="1.85"/>
        <circle fill="#AEBDC4" cx="148.46" cy="20.87" r="1.85"/>
        <circle fill="#AEBDC4" cx="148.46" cy="16.55" r="1.85"/>
        <circle fill="#AEBDC4" cx="148.46" cy="12.23" r="1.85"/>
        <circle fill="#AEBDC4" cx="148.46" cy="7.9" r="1.85"/>
      </g>
      <g>
        <circle fill="#AEBDC4" cx="142.53" cy="38.15" r="1.85"/>
        <circle fill="#AEBDC4" cx="142.53" cy="33.83" r="1.85"/>
        <circle fill="#AEBDC4" cx="142.53" cy="29.51" r="1.85"/>
        <circle fill="#AEBDC4" cx="142.53" cy="25.19" r="1.85"/>
        <circle fill="#AEBDC4" cx="142.53" cy="20.87" r="1.85"/>
        <circle fill="#AEBDC4" cx="142.53" cy="16.55" r="1.85"/>
        <circle fill="#AEBDC4" cx="142.53" cy="12.23" r="1.85"/>
        <circle fill="#AEBDC4" cx="142.53" cy="7.9" r="1.85"/>
      </g>
      <g>
        <circle fill="#AEBDC4" cx="136.6" cy="25.19" r="1.85"/>
        <circle fill="#AEBDC4" cx="136.6" cy="20.87" r="1.85"/>
        <circle fill="#AEBDC4" cx="136.6" cy="16.55" r="1.85"/>
        <circle fill="#AEBDC4" cx="136.6" cy="12.23" r="1.85"/>
        <circle fill="#AEBDC4" cx="136.6" cy="7.9" r="1.85"/>
      </g>
      <g>
        <circle fill="#AEBDC4" cx="130.67" cy="25.19" r="1.85"/>
        <circle fill="#AEBDC4" cx="130.67" cy="20.87" r="1.85"/>
        <circle fill="#AEBDC4" cx="130.67" cy="16.55" r="1.85"/>
        <circle fill="#AEBDC4" cx="130.67" cy="12.23" r="1.85"/>
        <circle fill="#AEBDC4" cx="130.67" cy="7.9" r="1.85"/>
      </g>
      <g>
        <circle fill="#AEBDC4" cx="124.74" cy="25.19" r="1.85"/>
        <circle fill="#AEBDC4" cx="124.74" cy="20.87" r="1.85"/>
        <circle fill="#AEBDC4" cx="124.74" cy="16.55" r="1.85"/>
        <circle fill="#AEBDC4" cx="124.74" cy="12.23" r="1.85"/>
        <circle fill="#AEBDC4" cx="124.74" cy="7.9" r="1.85"/>
      </g>
      <g>
        <circle fill="#AEBDC4" cx="118.81" cy="20.87" r="1.85"/>
        <circle fill="#AEBDC4" cx="118.81" cy="16.55" r="1.85"/>
        <circle fill="#AEBDC4" cx="118.81" cy="12.23" r="1.85"/>
        <circle fill="#AEBDC4" cx="118.81" cy="7.9" r="1.85"/>
      </g>
      <g>
        <circle fill="#AEBDC4" cx="112.88" cy="20.87" r="1.85"/>
        <circle fill="#AEBDC4" cx="112.88" cy="16.55" r="1.85"/>
        <circle fill="#AEBDC4" cx="112.88" cy="12.23" r="1.85"/>
        <circle fill="#AEBDC4" cx="112.88" cy="7.9" r="1.85"/>
      </g>
      <g>
        <circle fill="#AEBDC4" cx="106.95" cy="25.19" r="1.85"/>
        <circle fill="#AEBDC4" cx="106.95" cy="20.87" r="1.85"/>
        <circle fill="#AEBDC4" cx="106.95" cy="16.55" r="1.85"/>
        <circle fill="#AEBDC4" cx="106.95" cy="12.22" r="1.85"/>
        <circle fill="#AEBDC4" cx="106.95" cy="7.9" r="1.85"/>
      </g>
      <g>
        <circle fill="#AEBDC4" cx="101.02" cy="25.19" r="1.85"/>
        <circle fill="#AEBDC4" cx="101.02" cy="20.87" r="1.85"/>
        <circle fill="#AEBDC4" cx="101.02" cy="16.55" r="1.85"/>
        <circle fill="#AEBDC4" cx="101.02" cy="12.22" r="1.85"/>
        <circle fill="#AEBDC4" cx="101.02" cy="7.9" r="1.85"/>
      </g>
      <g>
        <circle fill="#AEBDC4" cx="95.09" cy="20.87" r="1.85"/>
        <circle fill="#AEBDC4" cx="95.09" cy="16.55" r="1.85"/>
        <circle fill="#AEBDC4" cx="95.09" cy="12.23" r="1.85"/>
        <circle fill="#AEBDC4" cx="95.09" cy="7.9" r="1.85"/>
      </g>
      <g>
        <circle fill="#AEBDC4" cx="89.16" cy="20.87" r="1.85"/>
        <circle fill="#AEBDC4" cx="89.16" cy="16.55" r="1.85"/>
        <circle fill="#AEBDC4" cx="89.16" cy="12.23" r="1.85"/>
        <circle fill="#AEBDC4" cx="89.16" cy="7.9" r="1.85"/>
      </g>
      <g>
        <circle fill="#AEBDC4" cx="83.22" cy="20.87" r="1.85"/>
        <circle fill="#AEBDC4" cx="83.22" cy="16.55" r="1.85"/>
        <circle fill="#AEBDC4" cx="83.22" cy="12.23" r="1.85"/>
        <circle fill="#AEBDC4" cx="83.22" cy="7.9" r="1.85"/>
      </g>
      <g>
        <circle fill="#AEBDC4" cx="77.29" cy="16.55" r="1.85"/>
        <circle fill="#AEBDC4" cx="77.29" cy="12.23" r="1.85"/>
        <circle fill="#AEBDC4" cx="77.29" cy="7.9" r="1.85"/>
      </g>
      <g>
        <circle fill="#AEBDC4" cx="71.36" cy="16.55" r="1.85"/>
        <circle fill="#AEBDC4" cx="71.36" cy="12.23" r="1.85"/>
        <circle fill="#AEBDC4" cx="71.36" cy="7.9" r="1.85"/>
      </g>
      <g>
        <circle fill="#AEBDC4" cx="65.43" cy="12.23" r="1.85"/>
        <circle fill="#AEBDC4" cx="65.43" cy="7.9" r="1.85"/>
      </g>
      <g>
        <circle fill="#AEBDC4" cx="59.5" cy="12.23" r="1.85"/>
        <circle fill="#AEBDC4" cx="59.5" cy="7.9" r="1.85"/>
      </g>
      <g>
        <circle fill="#AEBDC4" cx="53.57" cy="12.23" r="1.85"/>
        <circle fill="#AEBDC4" cx="53.57" cy="7.9" r="1.85"/>
      </g>
    </g>
  </svg>
