<?xml version="1.0" encoding="utf-8"?>
<!-- Generator: Adobe Illustrator 23.0.1, SVG Export Plug-In . SVG Version: 6.00 Build 0)  -->
<svg version="1.1" id="Layer_1" xmlns="http://www.w3.org/2000/svg" xmlns:xlink="http://www.w3.org/1999/xlink" x="0px" y="0px"
  viewBox="0 0 157 157" enable-background="new 0 0 157 157" xml:space="preserve">
  <polygon fill="#F1F3F4" stroke="#BCC8CE" stroke-width="0.4" stroke-linecap="round" stroke-miterlimit="10" points="0.59,117.97 
    91.2,156.52 156.52,91.2 117.96,0.59 	"/>
    <g 
      data-sort-seat-direction="ltr" 
      data-sort-line-direction="btt" 
      data-sort-seat-option="cy" 
      data-sort-line-option="order" 
      data-line-start="2"
      >
      
      <g>
        <circle fill="#AEBDC4" order="13" cx="93.88" cy="142.34" r="1.85"></circle>
        <circle fill="#AEBDC4" cx="96.94" cy="139.28" r="1.85"></circle>
        <circle fill="#AEBDC4" cx="138.92" cy="97.3" r="1.85"></circle>
        <circle fill="#AEBDC4" cx="141.97" cy="94.25" r="1.85"></circle>
      </g>
      <g>
        <circle fill="#AEBDC4" order="12" cx="89.69" cy="138.15" r="1.85"></circle>
        <circle fill="#AEBDC4" cx="92.74" cy="135.09" r="1.85"></circle>
        <circle fill="#AEBDC4" cx="134.72" cy="93.11" r="1.85"></circle>
        <circle fill="#AEBDC4" cx="137.78" cy="90.05" r="1.85"></circle>
        <circle fill="#AEBDC4" cx="140.83" cy="87" r="1.85"></circle>
      </g>
      <g>
        <circle fill="#AEBDC4" order="11" cx="85.5" cy="133.95" r="1.85"></circle>
        <circle fill="#AEBDC4" cx="88.55" cy="130.9" r="1.85"></circle>
        <circle fill="#AEBDC4" cx="130.53" cy="88.91" r="1.85"></circle>
        <circle fill="#AEBDC4" cx="133.59" cy="85.86" r="1.85"></circle>
        <circle fill="#AEBDC4" cx="136.64" cy="82.8" r="1.85"></circle>
      </g>
      <g>
        <circle fill="#AEBDC4" order="10" cx="78.25" cy="132.81" r="1.85"></circle>
        <circle fill="#AEBDC4" cx="81.3" cy="129.76" r="1.85"></circle>
        <circle fill="#AEBDC4" cx="84.36" cy="126.7" r="1.85"></circle>
        <circle fill="#AEBDC4" cx="126.34" cy="84.72" r="1.85"></circle>
        <circle fill="#AEBDC4" cx="129.39" cy="81.67" r="1.85"></circle>
        <circle fill="#AEBDC4" cx="132.45" cy="78.61" r="1.85"></circle>
      </g>
      <g>
        <circle fill="#AEBDC4" order="9" cx="71" cy="131.68" r="1.85"></circle>
        <circle fill="#AEBDC4" cx="74.05" cy="128.62" r="1.85"></circle>
        <circle fill="#AEBDC4" cx="77.11" cy="125.56" r="1.85"></circle>
        <circle fill="#AEBDC4" cx="80.16" cy="122.51" r="1.85"></circle>
        <circle fill="#AEBDC4" cx="122.14" cy="80.53" r="1.85"></circle>
        <circle fill="#AEBDC4" cx="125.2" cy="77.47" r="1.85"></circle>
        <circle fill="#AEBDC4" cx="128.25" cy="74.42" r="1.85"></circle>
        <circle fill="#AEBDC4" cx="131.31" cy="71.36" r="1.85"></circle>
      </g>
      <g>
        <circle fill="#AEBDC4" order="8" cx="117.95" cy="76.33" r="1.85"></circle>
        <circle fill="#AEBDC4" cx="121" cy="73.28" r="1.85"></circle>
        <circle fill="#AEBDC4" cx="124.06" cy="70.22" r="1.85"></circle>
        <circle fill="#AEBDC4" cx="127.12" cy="67.17" r="1.85"></circle>
        <circle fill="#AEBDC4" cx="63.75" cy="130.54" r="1.85"></circle>
        <circle fill="#AEBDC4" cx="66.8" cy="127.48" r="1.85"></circle>
        <circle fill="#AEBDC4" cx="69.86" cy="124.43" r="1.85"></circle>
        <circle fill="#AEBDC4" cx="72.92" cy="121.37" r="1.85"></circle>
        <circle fill="#AEBDC4" cx="75.97" cy="118.31" r="1.85"></circle>
      </g>
      <g>
        <circle fill="#AEBDC4" order="7" cx="113.76" cy="72.14" r="1.85"></circle>
        <circle fill="#AEBDC4" cx="116.81" cy="69.08" r="1.85"></circle>
        <circle fill="#AEBDC4" cx="119.87" cy="66.03" r="1.85"></circle>
        <circle fill="#AEBDC4" cx="122.92" cy="62.97" r="1.85"></circle>
        <circle fill="#AEBDC4" cx="56.5" cy="129.4" r="1.85"></circle>
        <circle fill="#AEBDC4" cx="59.55" cy="126.34" r="1.85"></circle>
        <circle fill="#AEBDC4" cx="62.61" cy="123.29" r="1.85"></circle>
        <circle fill="#AEBDC4" cx="65.67" cy="120.23" r="1.85"></circle>
        <circle fill="#AEBDC4" cx="68.72" cy="117.18" r="1.85"></circle>
        <circle fill="#AEBDC4" cx="71.78" cy="114.12" r="1.85"></circle>
      </g>
      <g>
        <circle fill="#AEBDC4" order="6" cx="109.56" cy="67.95" r="1.85"></circle>
        <circle fill="#AEBDC4" cx="112.62" cy="64.89" r="1.85"></circle>
        <circle fill="#AEBDC4" cx="115.67" cy="61.83" r="1.85"></circle>
        <circle fill="#AEBDC4" cx="118.73" cy="58.78" r="1.85"></circle>
        <circle fill="#AEBDC4" cx="121.78" cy="55.72" r="1.85"></circle>
        <circle fill="#AEBDC4" cx="52.31" cy="125.21" r="1.85"></circle>
        <circle fill="#AEBDC4" cx="55.36" cy="122.15" r="1.85"></circle>
        <circle fill="#AEBDC4" cx="58.42" cy="119.09" r="1.85"></circle>
        <circle fill="#AEBDC4" cx="61.47" cy="116.04" r="1.85"></circle>
        <circle fill="#AEBDC4" cx="64.53" cy="112.98" r="1.85"></circle>
        <circle fill="#AEBDC4" cx="67.58" cy="109.93" r="1.85"></circle>
      </g>
      <g>
        <circle fill="#AEBDC4" order="5" cx="48.11" cy="121.01" r="1.85"></circle>
        <circle fill="#AEBDC4" cx="51.17" cy="117.96" r="1.85"></circle>
        <circle fill="#AEBDC4" cx="54.22" cy="114.9" r="1.85"></circle>
        <circle fill="#AEBDC4" cx="57.28" cy="111.85" r="1.85"></circle>
        <circle fill="#AEBDC4" cx="60.33" cy="108.79" r="1.85"></circle>
        <circle fill="#AEBDC4" cx="63.39" cy="105.73" r="1.85"></circle>
        <circle fill="#AEBDC4" cx="105.37" cy="63.75" r="1.85"></circle>
        <circle fill="#AEBDC4" cx="108.42" cy="60.7" r="1.85"></circle>
        <circle fill="#AEBDC4" cx="111.48" cy="57.64" r="1.85"></circle>
        <circle fill="#AEBDC4" cx="114.54" cy="54.59" r="1.85"></circle>
        <circle fill="#AEBDC4" cx="117.59" cy="51.53" r="1.85"></circle>
        <circle fill="#AEBDC4" cx="120.65" cy="48.47" r="1.85"></circle>
      </g>
      <g>
        <circle fill="#AEBDC4" order="4" cx="40.86" cy="119.87" r="1.85"></circle>
        <circle fill="#AEBDC4" cx="43.92" cy="116.82" r="1.85"></circle>
        <circle fill="#AEBDC4" cx="46.97" cy="113.76" r="1.85"></circle>
        <circle fill="#AEBDC4" cx="50.03" cy="110.71" r="1.85"></circle>
        <circle fill="#AEBDC4" cx="53.09" cy="107.65" r="1.85"></circle>
        <circle fill="#AEBDC4" cx="56.14" cy="104.6" r="1.85"></circle>
        <circle fill="#AEBDC4" cx="59.2" cy="101.54" r="1.85"></circle>
        <circle fill="#AEBDC4" cx="101.18" cy="59.56" r="1.85"></circle>
        <circle fill="#AEBDC4" cx="104.23" cy="56.5" r="1.85"></circle>
        <circle fill="#AEBDC4" cx="107.29" cy="53.45" r="1.85"></circle>
        <circle fill="#AEBDC4" cx="110.34" cy="50.39" r="1.85"></circle>
        <circle fill="#AEBDC4" cx="113.4" cy="47.34" r="1.85"></circle>
        <circle fill="#AEBDC4" cx="116.45" cy="44.28" r="1.85"></circle>
        <circle fill="#AEBDC4" cx="119.51" cy="41.22" r="1.85"></circle>
      </g>
      <g>
        <circle fill="#AEBDC4" order="3" cx="36.67" cy="115.68" r="1.85"></circle>
        <circle fill="#AEBDC4" cx="39.73" cy="112.62" r="1.85"></circle>
        <circle fill="#AEBDC4" cx="42.78" cy="109.57" r="1.85"></circle>
        <circle fill="#AEBDC4" cx="45.84" cy="106.51" r="1.85"></circle>
        <circle fill="#AEBDC4" cx="48.89" cy="103.46" r="1.85"></circle>
        <circle fill="#AEBDC4" cx="51.95" cy="100.4" r="1.85"></circle>
        <circle fill="#AEBDC4" cx="55" cy="97.35" r="1.85"></circle>
        <circle fill="#AEBDC4" cx="96.98" cy="55.36" r="1.85"></circle>
        <circle fill="#AEBDC4" cx="100.04" cy="52.31" r="1.85"></circle>
        <circle fill="#AEBDC4" cx="103.09" cy="49.25" r="1.85"></circle>
        <circle fill="#AEBDC4" cx="106.15" cy="46.2" r="1.85"></circle>
        <circle fill="#AEBDC4" cx="109.2" cy="43.14" r="1.85"></circle>
        <circle fill="#AEBDC4" cx="112.26" cy="40.09" r="1.85"></circle>
        <circle fill="#AEBDC4" cx="115.32" cy="37.03" r="1.85"></circle>
        <circle fill="#AEBDC4" cx="62.23" cy="90.12" r="1.85"></circle>
        <circle fill="#AEBDC4" cx="65.28" cy="87.07" r="1.85"></circle>
        <circle fill="#AEBDC4" cx="68.34" cy="84.01" r="1.85"></circle>
        <circle fill="#AEBDC4" cx="71.39" cy="80.96" r="1.85"></circle>
        <circle fill="#AEBDC4" cx="74.45" cy="77.9" r="1.85"></circle>
        <circle fill="#AEBDC4" cx="77.5" cy="74.84" r="1.85"></circle>
        <circle fill="#AEBDC4" cx="80.56" cy="71.79" r="1.85"></circle>
        <circle fill="#AEBDC4" cx="83.62" cy="68.73" r="1.85"></circle>
        <circle fill="#AEBDC4" cx="86.67" cy="65.68" r="1.85"></circle>
        <circle fill="#AEBDC4" cx="89.73" cy="62.61" r="1.85"></circle>
      </g>
      <g>
        <circle fill="#AEBDC4" order="2" cx="29.41" cy="114.55" r="1.85"></circle>
        <circle fill="#AEBDC4" cx="32.47" cy="111.49" r="1.85"></circle>
        <circle fill="#AEBDC4" cx="35.52" cy="108.44" r="1.85"></circle>
        <circle fill="#AEBDC4" cx="38.58" cy="105.38" r="1.85"></circle>
        <circle fill="#AEBDC4" cx="41.64" cy="102.33" r="1.85"></circle>
        <circle fill="#AEBDC4" cx="44.69" cy="99.27" r="1.85"></circle>
        <circle fill="#AEBDC4" cx="47.75" cy="96.22" r="1.85"></circle>
        <circle fill="#AEBDC4" cx="95.85" cy="48.11" r="1.85"></circle>
        <circle fill="#AEBDC4" cx="98.91" cy="45.05" r="1.85"></circle>
        <circle fill="#AEBDC4" cx="101.96" cy="42" r="1.85"></circle>
        <circle fill="#AEBDC4" cx="105.02" cy="38.94" r="1.85"></circle>
        <circle fill="#AEBDC4" cx="108.07" cy="35.89" r="1.85"></circle>
        <circle fill="#AEBDC4" cx="111.13" cy="32.83" r="1.85"></circle>
        <circle fill="#AEBDC4" cx="114.18" cy="29.77" r="1.85"></circle>
        <circle fill="#AEBDC4" cx="54.97" cy="88.99" r="1.85"></circle>
        <circle fill="#AEBDC4" cx="58.03" cy="85.94" r="1.85"></circle>
        <circle fill="#AEBDC4" cx="61.08" cy="82.88" r="1.85"></circle>
        <circle fill="#AEBDC4" cx="64.14" cy="79.82" r="1.85"></circle>
        <circle fill="#AEBDC4" cx="67.19" cy="76.77" r="1.85"></circle>
        <circle fill="#AEBDC4" cx="70.25" cy="73.71" r="1.85"></circle>
        <circle fill="#AEBDC4" cx="73.3" cy="70.66" r="1.85"></circle>
        <circle fill="#AEBDC4" cx="76.36" cy="67.6" r="1.85"></circle>
        <circle fill="#AEBDC4" cx="79.42" cy="64.55" r="1.85"></circle>
        <circle fill="#AEBDC4" cx="82.48" cy="61.48" r="1.85"></circle>
        <circle fill="#AEBDC4" cx="85.54" cy="58.42" r="1.85"></circle>
        <circle fill="#AEBDC4" cx="88.6" cy="55.36" r="1.85"></circle>
      </g>
      <g>
        <circle fill="#AEBDC4" order="1" cx="19.11" cy="116.47" r="1.85"></circle>
        <circle fill="#AEBDC4" cx="22.16" cy="113.41" r="1.85"></circle>
        <circle fill="#AEBDC4" cx="25.22" cy="110.36" r="1.85"></circle>
        <circle fill="#AEBDC4" cx="28.28" cy="107.3" r="1.85"></circle>
        <circle fill="#AEBDC4" cx="31.33" cy="104.24" r="1.85"></circle>
        <circle fill="#AEBDC4" cx="34.39" cy="101.19" r="1.85"></circle>
        <circle fill="#AEBDC4" cx="37.44" cy="98.13" r="1.85"></circle>
        <circle fill="#AEBDC4" cx="40.5" cy="95.08" r="1.85"></circle>
        <circle fill="#AEBDC4" cx="43.55" cy="92.02" r="1.85"></circle>
        <circle fill="#AEBDC4" cx="91.66" cy="43.92" r="1.85"></circle>
        <circle fill="#AEBDC4" cx="94.71" cy="40.86" r="1.85"></circle>
        <circle fill="#AEBDC4" cx="97.77" cy="37.8" r="1.85"></circle>
        <circle fill="#AEBDC4" cx="100.82" cy="34.75" r="1.85"></circle>
        <circle fill="#AEBDC4" cx="103.88" cy="31.69" r="1.85"></circle>
        <circle fill="#AEBDC4" cx="106.93" cy="28.64" r="1.85"></circle>
        <circle fill="#AEBDC4" cx="109.99" cy="25.58" r="1.85"></circle>
        <circle fill="#AEBDC4" cx="113.05" cy="22.53" r="1.85"></circle>
        <circle fill="#AEBDC4" cx="116.1" cy="19.47" r="1.85"></circle>
        <circle fill="#AEBDC4" cx="50.78" cy="84.8" r="1.85"></circle>
        <circle fill="#AEBDC4" cx="53.83" cy="81.74" r="1.85"></circle>
        <circle fill="#AEBDC4" cx="56.89" cy="78.69" r="1.85"></circle>
        <circle fill="#AEBDC4" cx="59.94" cy="75.63" r="1.85"></circle>
        <circle fill="#AEBDC4" cx="63" cy="72.57" r="1.85"></circle>
        <circle fill="#AEBDC4" cx="66.06" cy="69.52" r="1.85"></circle>
        <circle fill="#AEBDC4" cx="69.11" cy="66.46" r="1.85"></circle>
        <circle fill="#AEBDC4" cx="72.17" cy="63.41" r="1.85"></circle>
        <circle fill="#AEBDC4" cx="75.22" cy="60.35" r="1.85"></circle>
        <circle fill="#AEBDC4" cx="78.28" cy="57.29" r="1.85"></circle>
        <circle fill="#AEBDC4" cx="81.35" cy="54.23" r="1.85"></circle>
        <circle fill="#AEBDC4" cx="84.41" cy="51.16" r="1.85"></circle>
      </g>
    </g>
  </svg>
