<?xml version="1.0" encoding="utf-8"?>
<!-- Generator: Adobe Illustrator 23.0.1, SVG Export Plug-In . SVG Version: 6.00 Build 0)  -->
<svg version="1.1" id="Layer_1" xmlns="http://www.w3.org/2000/svg" xmlns:xlink="http://www.w3.org/1999/xlink" x="0px" y="0px"
  viewBox="0 0 61 132" enable-background="new 0 0 61 132" xml:space="preserve">
  <polygon fill="#F1F3F4" stroke="#BCC8CE" stroke-width="0.4" stroke-linecap="round" stroke-miterlimit="10" points="
    0.4,131.31 0.4,0.79 60.6,26.04 60.6,131.31 	"/>
    <g 
      data-sort-seat-direction="rtl" 
      data-sort-line-direction="btt" 
      data-sort-seat-option="cx" 
      data-sort-line-option="cy" 
      data-line-start="21"
      >
      
      <g>
        <circle fill="#AEBDC4" cx="11.06" cy="122.27" r="1.85"/>
        <circle fill="#AEBDC4" cx="15.38" cy="122.27" r="1.85"/>
        <circle fill="#AEBDC4" cx="19.7" cy="122.27" r="1.85"/>
        <circle fill="#AEBDC4" cx="24.02" cy="122.27" r="1.85"/>
      </g>
      <g>
        <circle fill="#AEBDC4" cx="11.06" cy="116.34" r="1.85"/>
        <circle fill="#AEBDC4" cx="15.38" cy="116.34" r="1.85"/>
        <circle fill="#AEBDC4" cx="19.7" cy="116.34" r="1.85"/>
        <circle fill="#AEBDC4" cx="24.02" cy="116.34" r="1.85"/>
      </g>
      <g>
        <circle fill="#AEBDC4" cx="11.06" cy="110.41" r="1.85"/>
        <circle fill="#AEBDC4" cx="15.38" cy="110.41" r="1.85"/>
        <circle fill="#AEBDC4" cx="19.7" cy="110.41" r="1.85"/>
        <circle fill="#AEBDC4" cx="24.02" cy="110.41" r="1.85"/>
        <circle fill="#AEBDC4" cx="28.34" cy="110.41" r="1.85"/>
        <circle fill="#AEBDC4" cx="32.66" cy="110.41" r="1.85"/>
        <circle fill="#AEBDC4" cx="36.98" cy="110.41" r="1.85"/>
        <circle fill="#AEBDC4" cx="41.31" cy="110.41" r="1.85"/>
        <circle fill="#AEBDC4" cx="45.63" cy="110.41" r="1.85"/>
        <circle fill="#AEBDC4" cx="49.96" cy="110.41" r="1.85"/>
      </g>
      <g>
        <circle fill="#AEBDC4" cx="11.06" cy="104.48" r="1.85"/>
        <circle fill="#AEBDC4" cx="15.38" cy="104.48" r="1.85"/>
        <circle fill="#AEBDC4" cx="19.7" cy="104.48" r="1.85"/>
        <circle fill="#AEBDC4" cx="24.02" cy="104.48" r="1.85"/>
        <circle fill="#AEBDC4" cx="28.34" cy="104.48" r="1.85"/>
        <circle fill="#AEBDC4" cx="32.66" cy="104.48" r="1.85"/>
        <circle fill="#AEBDC4" cx="36.98" cy="104.48" r="1.85"/>
        <circle fill="#AEBDC4" cx="41.31" cy="104.48" r="1.85"/>
        <circle fill="#AEBDC4" cx="45.63" cy="104.48" r="1.85"/>
        <circle fill="#AEBDC4" cx="49.96" cy="104.48" r="1.85"/>
      </g>
      <g>
        <circle fill="#AEBDC4" cx="11.06" cy="98.55" r="1.85"/>
        <circle fill="#AEBDC4" cx="15.38" cy="98.55" r="1.85"/>
        <circle fill="#AEBDC4" cx="19.7" cy="98.55" r="1.85"/>
        <circle fill="#AEBDC4" cx="24.02" cy="98.55" r="1.85"/>
        <circle fill="#AEBDC4" cx="28.34" cy="98.55" r="1.85"/>
        <circle fill="#AEBDC4" cx="32.66" cy="98.55" r="1.85"/>
        <circle fill="#AEBDC4" cx="36.98" cy="98.55" r="1.85"/>
        <circle fill="#AEBDC4" cx="41.31" cy="98.55" r="1.85"/>
        <circle fill="#AEBDC4" cx="45.63" cy="98.55" r="1.85"/>
        <circle fill="#AEBDC4" cx="49.96" cy="98.55" r="1.85"/>
      </g>
      <g>
        <circle fill="#AEBDC4" cx="19.7" cy="92.62" r="1.85"/>
        <circle fill="#AEBDC4" cx="24.03" cy="92.62" r="1.85"/>
        <circle fill="#AEBDC4" cx="28.35" cy="92.62" r="1.85"/>
        <circle fill="#AEBDC4" cx="32.67" cy="92.62" r="1.85"/>
        <circle fill="#AEBDC4" cx="36.99" cy="92.62" r="1.85"/>
        <circle fill="#AEBDC4" cx="41.31" cy="92.62" r="1.85"/>
        <circle fill="#AEBDC4" cx="45.63" cy="92.62" r="1.85"/>
        <circle fill="#AEBDC4" cx="49.95" cy="92.62" r="1.85"/>
      </g>
      <g>
        <circle fill="#AEBDC4" cx="19.7" cy="86.68" r="1.85"/>
        <circle fill="#AEBDC4" cx="24.03" cy="86.68" r="1.85"/>
        <circle fill="#AEBDC4" cx="28.35" cy="86.68" r="1.85"/>
        <circle fill="#AEBDC4" cx="32.67" cy="86.68" r="1.85"/>
        <circle fill="#AEBDC4" cx="36.99" cy="86.68" r="1.85"/>
        <circle fill="#AEBDC4" cx="41.31" cy="86.68" r="1.85"/>
        <circle fill="#AEBDC4" cx="45.63" cy="86.68" r="1.85"/>
        <circle fill="#AEBDC4" cx="49.95" cy="86.68" r="1.85"/>
      </g>
      <g>
        <circle fill="#AEBDC4" cx="19.7" cy="80.75" r="1.85"/>
        <circle fill="#AEBDC4" cx="24.03" cy="80.75" r="1.85"/>
        <circle fill="#AEBDC4" cx="28.35" cy="80.75" r="1.85"/>
        <circle fill="#AEBDC4" cx="32.67" cy="80.75" r="1.85"/>
        <circle fill="#AEBDC4" cx="36.99" cy="80.75" r="1.85"/>
        <circle fill="#AEBDC4" cx="41.31" cy="80.75" r="1.85"/>
        <circle fill="#AEBDC4" cx="45.63" cy="80.75" r="1.85"/>
        <circle fill="#AEBDC4" cx="49.95" cy="80.75" r="1.85"/>
      </g>
      <g>
        <circle fill="#AEBDC4" cx="19.7" cy="74.82" r="1.85"/>
        <circle fill="#AEBDC4" cx="24.03" cy="74.82" r="1.85"/>
        <circle fill="#AEBDC4" cx="28.35" cy="74.82" r="1.85"/>
        <circle fill="#AEBDC4" cx="32.67" cy="74.82" r="1.85"/>
        <circle fill="#AEBDC4" cx="36.99" cy="74.82" r="1.85"/>
        <circle fill="#AEBDC4" cx="41.31" cy="74.82" r="1.85"/>
        <circle fill="#AEBDC4" cx="45.63" cy="74.82" r="1.85"/>
        <circle fill="#AEBDC4" cx="49.95" cy="74.82" r="1.85"/>
      </g>
      <g>
        <circle fill="#AEBDC4" cx="19.7" cy="68.89" r="1.85"/>
        <circle fill="#AEBDC4" cx="24.03" cy="68.89" r="1.85"/>
        <circle fill="#AEBDC4" cx="28.35" cy="68.89" r="1.85"/>
        <circle fill="#AEBDC4" cx="32.67" cy="68.89" r="1.85"/>
        <circle fill="#AEBDC4" cx="36.99" cy="68.89" r="1.85"/>
        <circle fill="#AEBDC4" cx="41.31" cy="68.89" r="1.85"/>
        <circle fill="#AEBDC4" cx="45.63" cy="68.89" r="1.85"/>
        <circle fill="#AEBDC4" cx="49.95" cy="68.89" r="1.85"/>
      </g>
      <g>
        <circle fill="#AEBDC4" cx="19.7" cy="62.96" r="1.85"/>
        <circle fill="#AEBDC4" cx="24.03" cy="62.96" r="1.85"/>
        <circle fill="#AEBDC4" cx="28.35" cy="62.96" r="1.85"/>
        <circle fill="#AEBDC4" cx="32.67" cy="62.96" r="1.85"/>
        <circle fill="#AEBDC4" cx="36.99" cy="62.96" r="1.85"/>
        <circle fill="#AEBDC4" cx="41.31" cy="62.96" r="1.85"/>
        <circle fill="#AEBDC4" cx="45.63" cy="62.96" r="1.85"/>
        <circle fill="#AEBDC4" cx="49.95" cy="62.96" r="1.85"/>
      </g>
      <g>
        <circle fill="#AEBDC4" cx="19.7" cy="57.03" r="1.85"/>
        <circle fill="#AEBDC4" cx="24.03" cy="57.03" r="1.85"/>
        <circle fill="#AEBDC4" cx="28.35" cy="57.03" r="1.85"/>
        <circle fill="#AEBDC4" cx="32.67" cy="57.03" r="1.85"/>
        <circle fill="#AEBDC4" cx="36.99" cy="57.03" r="1.85"/>
        <circle fill="#AEBDC4" cx="41.31" cy="57.03" r="1.85"/>
        <circle fill="#AEBDC4" cx="45.63" cy="57.03" r="1.85"/>
        <circle fill="#AEBDC4" cx="49.95" cy="57.03" r="1.85"/>
      </g>
      <g>
        <circle fill="#AEBDC4" cx="19.7" cy="51.1" r="1.85"/>
        <circle fill="#AEBDC4" cx="24.03" cy="51.1" r="1.85"/>
        <circle fill="#AEBDC4" cx="28.35" cy="51.1" r="1.85"/>
        <circle fill="#AEBDC4" cx="32.67" cy="51.1" r="1.85"/>
        <circle fill="#AEBDC4" cx="36.99" cy="51.1" r="1.85"/>
        <circle fill="#AEBDC4" cx="41.31" cy="51.1" r="1.85"/>
        <circle fill="#AEBDC4" cx="45.63" cy="51.1" r="1.85"/>
        <circle fill="#AEBDC4" cx="49.95" cy="51.1" r="1.85"/>
      </g>
      <g>
        <circle fill="#AEBDC4" cx="19.71" cy="45.17" r="1.85"/>
        <circle fill="#AEBDC4" cx="24.03" cy="45.17" r="1.85"/>
        <circle fill="#AEBDC4" cx="28.35" cy="45.17" r="1.85"/>
        <circle fill="#AEBDC4" cx="32.67" cy="45.17" r="1.85"/>
        <circle fill="#AEBDC4" cx="36.99" cy="45.17" r="1.85"/>
        <circle fill="#AEBDC4" cx="41.32" cy="45.17" r="1.85"/>
        <circle fill="#AEBDC4" cx="45.64" cy="45.17" r="1.85"/>
        <circle fill="#AEBDC4" cx="49.96" cy="45.17" r="1.85"/>
      </g>
      <g>
        <circle fill="#AEBDC4" cx="11.06" cy="39.24" r="1.85"/>
        <circle fill="#AEBDC4" cx="15.38" cy="39.24" r="1.85"/>
        <circle fill="#AEBDC4" cx="19.7" cy="39.24" r="1.85"/>
        <circle fill="#AEBDC4" cx="24.02" cy="39.24" r="1.85"/>
        <circle fill="#AEBDC4" cx="28.34" cy="39.24" r="1.85"/>
        <circle fill="#AEBDC4" cx="32.66" cy="39.24" r="1.85"/>
        <circle fill="#AEBDC4" cx="36.98" cy="39.24" r="1.85"/>
        <circle fill="#AEBDC4" cx="41.31" cy="39.24" r="1.85"/>
      </g>
      <g>
        <circle fill="#AEBDC4" cx="11.06" cy="33.31" r="1.85"/>
        <circle fill="#AEBDC4" cx="15.38" cy="33.31" r="1.85"/>
        <circle fill="#AEBDC4" cx="19.7" cy="33.31" r="1.85"/>
        <circle fill="#AEBDC4" cx="24.02" cy="33.31" r="1.85"/>
        <circle fill="#AEBDC4" cx="28.34" cy="33.31" r="1.85"/>
        <circle fill="#AEBDC4" cx="32.66" cy="33.31" r="1.85"/>
      </g>
      <g>
        <circle fill="#AEBDC4" cx="11.06" cy="27.38" r="1.85"/>
        <circle fill="#AEBDC4" cx="15.38" cy="27.38" r="1.85"/>
        <circle fill="#AEBDC4" cx="19.7" cy="27.38" r="1.85"/>
      </g>
    </g>
  </svg>
