<?xml version="1.0" encoding="utf-8"?>
<!-- Generator: Adobe Illustrator 23.0.1, SVG Export Plug-In . SVG Version: 6.00 Build 0)  -->
<svg version="1.1" id="Layer_1" xmlns="http://www.w3.org/2000/svg" xmlns:xlink="http://www.w3.org/1999/xlink" x="0px" y="0px"
  viewBox="0 0 131 61" enable-background="new 0 0 131 61" xml:space="preserve">
  <rect x="0.5" y="0.7" fill="#F1F3F4" stroke="#BCC8CE" stroke-width="0.4" stroke-linecap="round" stroke-miterlimit="10" width="129.9" height="59.6"/>
  <g 
    data-sort-seat-direction="rtl" 
    data-sort-line-direction="btt" 
    data-sort-seat-option="cx" 
    data-sort-line-option="cy" 
    data-line-start="1"
    >
    
    <g>
      <circle fill="#AEBDC4" cx="15.7" cy="51.3" r="1.8"/>
      <circle fill="#AEBDC4" cx="20.1" cy="51.3" r="1.8"/>
      <circle fill="#AEBDC4" cx="24.4" cy="51.3" r="1.8"/>
      <circle fill="#AEBDC4" cx="28.7" cy="51.3" r="1.8"/>
      <circle fill="#AEBDC4" cx="33" cy="51.3" r="1.8"/>
      <circle fill="#AEBDC4" cx="37.3" cy="51.3" r="1.8"/>
      <circle fill="#AEBDC4" cx="41.7" cy="51.3" r="1.8"/>
      <circle fill="#AEBDC4" cx="46" cy="51.3" r="1.8"/>
      <circle fill="#AEBDC4" cx="50.3" cy="51.3" r="1.8"/>
      <circle fill="#AEBDC4" cx="54.6" cy="51.3" r="1.8"/>
      <circle fill="#AEBDC4" cx="59" cy="51.3" r="1.8"/>
      <circle fill="#AEBDC4" cx="63.3" cy="51.3" r="1.8"/>
      <circle fill="#AEBDC4" cx="67.6" cy="51.3" r="1.8"/>
      <circle fill="#AEBDC4" cx="72" cy="51.3" r="1.8"/>
      <circle fill="#AEBDC4" cx="76.3" cy="51.3" r="1.8"/>
      <circle fill="#AEBDC4" cx="80.6" cy="51.3" r="1.8"/>
      <circle fill="#AEBDC4" cx="84.9" cy="51.3" r="1.8"/>
      <circle fill="#AEBDC4" cx="89.3" cy="51.3" r="1.8"/>
    </g>
    <g>
      <circle fill="#AEBDC4" cx="15.7" cy="45.3" r="1.8"/>
      <circle fill="#AEBDC4" cx="20.1" cy="45.3" r="1.8"/>
      <circle fill="#AEBDC4" cx="24.4" cy="45.3" r="1.8"/>
      <circle fill="#AEBDC4" cx="28.7" cy="45.3" r="1.8"/>
      <circle fill="#AEBDC4" cx="33" cy="45.3" r="1.8"/>
      <circle fill="#AEBDC4" cx="37.3" cy="45.3" r="1.8"/>
      <circle fill="#AEBDC4" cx="41.7" cy="45.3" r="1.8"/>
      <circle fill="#AEBDC4" cx="46" cy="45.3" r="1.8"/>
      <circle fill="#AEBDC4" cx="50.3" cy="45.3" r="1.8"/>
      <circle fill="#AEBDC4" cx="54.6" cy="45.3" r="1.8"/>
      <circle fill="#AEBDC4" cx="59" cy="45.3" r="1.8"/>
      <circle fill="#AEBDC4" cx="63.3" cy="45.3" r="1.8"/>
      <circle fill="#AEBDC4" cx="67.6" cy="45.3" r="1.8"/>
      <circle fill="#AEBDC4" cx="72" cy="45.3" r="1.8"/>
      <circle fill="#AEBDC4" cx="76.3" cy="45.3" r="1.8"/>
      <circle fill="#AEBDC4" cx="80.6" cy="45.3" r="1.8"/>
      <circle fill="#AEBDC4" cx="84.9" cy="45.3" r="1.8"/>
      <circle fill="#AEBDC4" cx="89.3" cy="45.3" r="1.8"/>
    </g>
    <g>
      <circle fill="#AEBDC4" cx="15.7" cy="39.4" r="1.8"/>
      <circle fill="#AEBDC4" cx="20.1" cy="39.4" r="1.8"/>
      <circle fill="#AEBDC4" cx="24.4" cy="39.4" r="1.8"/>
      <circle fill="#AEBDC4" cx="28.7" cy="39.4" r="1.8"/>
      <circle fill="#AEBDC4" cx="33" cy="39.4" r="1.8"/>
      <circle fill="#AEBDC4" cx="37.3" cy="39.4" r="1.8"/>
      <circle fill="#AEBDC4" cx="41.7" cy="39.4" r="1.8"/>
      <circle fill="#AEBDC4" cx="46" cy="39.4" r="1.8"/>
      <circle fill="#AEBDC4" cx="50.3" cy="39.4" r="1.8"/>
      <circle fill="#AEBDC4" cx="54.6" cy="39.4" r="1.8"/>
      <circle fill="#AEBDC4" cx="59" cy="39.4" r="1.8"/>
      <circle fill="#AEBDC4" cx="63.3" cy="39.4" r="1.8"/>
      <circle fill="#AEBDC4" cx="67.6" cy="39.4" r="1.8"/>
      <circle fill="#AEBDC4" cx="72" cy="39.4" r="1.8"/>
      <circle fill="#AEBDC4" cx="76.3" cy="39.4" r="1.8"/>
      <circle fill="#AEBDC4" cx="80.6" cy="39.4" r="1.8"/>
      <circle fill="#AEBDC4" cx="84.9" cy="39.4" r="1.8"/>
      <circle fill="#AEBDC4" cx="89.3" cy="39.4" r="1.8"/>
      <circle fill="#AEBDC4" cx="93.6" cy="39.4" r="1.8"/>
      <circle fill="#AEBDC4" cx="97.9" cy="39.4" r="1.8"/>
      <circle fill="#AEBDC4" cx="102.3" cy="39.4" r="1.8"/>
      <circle fill="#AEBDC4" cx="106.6" cy="39.4" r="1.8"/>
      <circle fill="#AEBDC4" cx="110.9" cy="39.4" r="1.8"/>
      <circle fill="#AEBDC4" cx="115.3" cy="39.4" r="1.8"/>
    </g>
    <g>
      <circle fill="#AEBDC4" cx="15.7" cy="33.5" r="1.8"/>
      <circle fill="#AEBDC4" cx="20.1" cy="33.5" r="1.8"/>
      <circle fill="#AEBDC4" cx="24.4" cy="33.5" r="1.8"/>
      <circle fill="#AEBDC4" cx="28.7" cy="33.5" r="1.8"/>
      <circle fill="#AEBDC4" cx="33" cy="33.5" r="1.8"/>
      <circle fill="#AEBDC4" cx="37.3" cy="33.5" r="1.8"/>
      <circle fill="#AEBDC4" cx="41.7" cy="33.5" r="1.8"/>
      <circle fill="#AEBDC4" cx="46" cy="33.5" r="1.8"/>
      <circle fill="#AEBDC4" cx="50.3" cy="33.5" r="1.8"/>
      <circle fill="#AEBDC4" cx="54.6" cy="33.5" r="1.8"/>
      <circle fill="#AEBDC4" cx="59" cy="33.5" r="1.8"/>
      <circle fill="#AEBDC4" cx="63.3" cy="33.5" r="1.9"/>
      <circle fill="#AEBDC4" cx="67.6" cy="33.5" r="1.8"/>
      <circle fill="#AEBDC4" cx="72" cy="33.5" r="1.8"/>
      <circle fill="#AEBDC4" cx="76.3" cy="33.5" r="1.8"/>
      <circle fill="#AEBDC4" cx="80.6" cy="33.5" r="1.8"/>
      <circle fill="#AEBDC4" cx="84.9" cy="33.5" r="1.8"/>
      <circle fill="#AEBDC4" cx="89.3" cy="33.5" r="1.8"/>
      <circle fill="#AEBDC4" cx="93.6" cy="33.5" r="1.8"/>
      <circle fill="#AEBDC4" cx="97.9" cy="33.5" r="1.8"/>
      <circle fill="#AEBDC4" cx="102.3" cy="33.5" r="1.8"/>
      <circle fill="#AEBDC4" cx="106.6" cy="33.5" r="1.8"/>
      <circle fill="#AEBDC4" cx="110.9" cy="33.5" r="1.8"/>
      <circle fill="#AEBDC4" cx="115.3" cy="33.5" r="1.8"/>
    </g>
    <g>
      <circle fill="#AEBDC4" cx="15.7" cy="27.5" r="1.9"/>
      <circle fill="#AEBDC4" cx="20.1" cy="27.5" r="1.9"/>
      <circle fill="#AEBDC4" cx="24.4" cy="27.5" r="1.9"/>
      <circle fill="#AEBDC4" cx="28.7" cy="27.5" r="1.9"/>
      <circle fill="#AEBDC4" cx="33" cy="27.5" r="1.8"/>
      <circle fill="#AEBDC4" cx="37.3" cy="27.5" r="1.8"/>
      <circle fill="#AEBDC4" cx="41.7" cy="27.5" r="1.8"/>
      <circle fill="#AEBDC4" cx="46" cy="27.5" r="1.8"/>
      <circle fill="#AEBDC4" cx="50.3" cy="27.5" r="1.8"/>
      <circle fill="#AEBDC4" cx="54.6" cy="27.5" r="1.8"/>
      <circle fill="#AEBDC4" cx="59" cy="27.5" r="1.8"/>
      <circle fill="#AEBDC4" cx="63.3" cy="27.5" r="1.9"/>
      <circle fill="#AEBDC4" cx="67.6" cy="27.5" r="1.8"/>
      <circle fill="#AEBDC4" cx="72" cy="27.5" r="1.8"/>
      <circle fill="#AEBDC4" cx="76.3" cy="27.5" r="1.8"/>
      <circle fill="#AEBDC4" cx="80.6" cy="27.5" r="1.8"/>
      <circle fill="#AEBDC4" cx="84.9" cy="27.5" r="1.8"/>
      <circle fill="#AEBDC4" cx="89.3" cy="27.5" r="1.8"/>
      <circle fill="#AEBDC4" cx="93.6" cy="27.5" r="1.8"/>
      <circle fill="#AEBDC4" cx="97.9" cy="27.5" r="1.8"/>
      <circle fill="#AEBDC4" cx="102.3" cy="27.5" r="1.8"/>
      <circle fill="#AEBDC4" cx="106.6" cy="27.5" r="1.8"/>
      <circle fill="#AEBDC4" cx="110.9" cy="27.5" r="1.8"/>
      <circle fill="#AEBDC4" cx="115.3" cy="27.5" r="1.8"/>
    </g>
    <g>
      <circle fill="#AEBDC4" cx="15.7" cy="21.6" r="1.9"/>
      <circle fill="#AEBDC4" cx="20.1" cy="21.6" r="1.9"/>
      <circle fill="#AEBDC4" cx="24.4" cy="21.6" r="1.9"/>
      <circle fill="#AEBDC4" cx="28.7" cy="21.6" r="1.9"/>
      <circle fill="#AEBDC4" cx="33" cy="21.6" r="1.8"/>
      <circle fill="#AEBDC4" cx="37.3" cy="21.6" r="1.8"/>
      <circle fill="#AEBDC4" cx="41.7" cy="21.6" r="1.8"/>
      <circle fill="#AEBDC4" cx="46" cy="21.6" r="1.8"/>
      <circle fill="#AEBDC4" cx="50.3" cy="21.6" r="1.8"/>
      <circle fill="#AEBDC4" cx="54.6" cy="21.6" r="1.8"/>
      <circle fill="#AEBDC4" cx="59" cy="21.6" r="1.8"/>
      <circle fill="#AEBDC4" cx="63.3" cy="21.6" r="1.9"/>
      <circle fill="#AEBDC4" cx="67.6" cy="21.6" r="1.8"/>
      <circle fill="#AEBDC4" cx="72" cy="21.6" r="1.8"/>
      <circle fill="#AEBDC4" cx="76.3" cy="21.6" r="1.8"/>
      <circle fill="#AEBDC4" cx="80.6" cy="21.6" r="1.8"/>
      <circle fill="#AEBDC4" cx="84.9" cy="21.6" r="1.8"/>
      <circle fill="#AEBDC4" cx="89.3" cy="21.6" r="1.8"/>
      <circle fill="#AEBDC4" cx="93.6" cy="21.6" r="1.8"/>
      <circle fill="#AEBDC4" cx="97.9" cy="21.6" r="1.8"/>
      <circle fill="#AEBDC4" cx="102.3" cy="21.6" r="1.8"/>
      <circle fill="#AEBDC4" cx="106.6" cy="21.6" r="1.8"/>
      <circle fill="#AEBDC4" cx="110.9" cy="21.6" r="1.8"/>
      <circle fill="#AEBDC4" cx="115.3" cy="21.6" r="1.8"/>
    </g>
    <g>
      <circle fill="#AEBDC4" cx="15.7" cy="15.7" r="1.9"/>
      <circle fill="#AEBDC4" cx="20.1" cy="15.7" r="1.9"/>
      <circle fill="#AEBDC4" cx="24.4" cy="15.7" r="1.9"/>
      <circle fill="#AEBDC4" cx="28.7" cy="15.7" r="1.9"/>
      <circle fill="#AEBDC4" cx="33" cy="15.7" r="1.8"/>
      <circle fill="#AEBDC4" cx="37.3" cy="15.7" r="1.8"/>
      <circle fill="#AEBDC4" cx="41.7" cy="15.7" r="1.8"/>
      <circle fill="#AEBDC4" cx="46" cy="15.7" r="1.8"/>
      <circle fill="#AEBDC4" cx="50.3" cy="15.7" r="1.8"/>
      <circle fill="#AEBDC4" cx="54.6" cy="15.7" r="1.8"/>
      <circle fill="#AEBDC4" cx="59" cy="15.7" r="1.8"/>
      <circle fill="#AEBDC4" cx="63.3" cy="15.7" r="1.9"/>
      <circle fill="#AEBDC4" cx="67.6" cy="15.7" r="1.8"/>
      <circle fill="#AEBDC4" cx="72" cy="15.7" r="1.8"/>
      <circle fill="#AEBDC4" cx="76.3" cy="15.7" r="1.8"/>
      <circle fill="#AEBDC4" cx="80.6" cy="15.7" r="1.8"/>
      <circle fill="#AEBDC4" cx="84.9" cy="15.7" r="1.8"/>
      <circle fill="#AEBDC4" cx="89.3" cy="15.7" r="1.8"/>
      <circle fill="#AEBDC4" cx="93.6" cy="15.7" r="1.8"/>
      <circle fill="#AEBDC4" cx="97.9" cy="15.7" r="1.8"/>
      <circle fill="#AEBDC4" cx="102.3" cy="15.7" r="1.8"/>
      <circle fill="#AEBDC4" cx="106.6" cy="15.7" r="1.8"/>
      <circle fill="#AEBDC4" cx="110.9" cy="15.7" r="1.8"/>
      <circle fill="#AEBDC4" cx="115.3" cy="15.7" r="1.8"/>
    </g>
    <g>
      <circle fill="#AEBDC4" cx="15.7" cy="9.7" r="1.9"/>
      <circle fill="#AEBDC4" cx="20.1" cy="9.7" r="1.9"/>
      <circle fill="#AEBDC4" cx="24.4" cy="9.7" r="1.9"/>
      <circle fill="#AEBDC4" cx="28.7" cy="9.7" r="1.9"/>
      <circle fill="#AEBDC4" cx="33" cy="9.7" r="1.8"/>
      <circle fill="#AEBDC4" cx="37.3" cy="9.7" r="1.8"/>
      <circle fill="#AEBDC4" cx="41.7" cy="9.7" r="1.8"/>
      <circle fill="#AEBDC4" cx="46" cy="9.7" r="1.8"/>
      <circle fill="#AEBDC4" cx="50.3" cy="9.7" r="1.8"/>
      <circle fill="#AEBDC4" cx="54.6" cy="9.7" r="1.8"/>
      <circle fill="#AEBDC4" cx="59" cy="9.7" r="1.8"/>
      <circle fill="#AEBDC4" cx="63.3" cy="9.7" r="1.9"/>
      <circle fill="#AEBDC4" cx="67.6" cy="9.7" r="1.8"/>
      <circle fill="#AEBDC4" cx="72" cy="9.7" r="1.8"/>
      <circle fill="#AEBDC4" cx="76.3" cy="9.7" r="1.8"/>
      <circle fill="#AEBDC4" cx="80.6" cy="9.7" r="1.8"/>
      <circle fill="#AEBDC4" cx="84.9" cy="9.7" r="1.8"/>
      <circle fill="#AEBDC4" cx="89.3" cy="9.7" r="1.8"/>
      <circle fill="#AEBDC4" cx="93.6" cy="9.7" r="1.8"/>
      <circle fill="#AEBDC4" cx="97.9" cy="9.7" r="1.8"/>
      <circle fill="#AEBDC4" cx="102.3" cy="9.7" r="1.8"/>
      <circle fill="#AEBDC4" cx="106.6" cy="9.7" r="1.8"/>
      <circle fill="#AEBDC4" cx="110.9" cy="9.7" r="1.8"/>
      <circle fill="#AEBDC4" cx="115.3" cy="9.7" r="1.8"/>
    </g>
  </g>
</svg>
