<?xml version="1.0" encoding="utf-8"?>
<!-- Generator: Adobe Illustrator 23.0.1, SVG Export Plug-In . SVG Version: 6.00 Build 0)  -->
<svg version="1.1" id="Layer_1" xmlns="http://www.w3.org/2000/svg" xmlns:xlink="http://www.w3.org/1999/xlink" x="0px" y="0px"
  viewBox="0 0 131 205" enable-background="new 0 0 131 205" xml:space="preserve">
  <polygon fill="#F1F3F4" stroke="#BCC8CE" stroke-width="0.4" stroke-linecap="round" stroke-miterlimit="10" points="
    0.53,204.43 0.53,0.62 130.47,27.02 130.47,204.43 	"/>
    <g 
      data-sort-seat-direction="rtl" 
      data-sort-line-direction="btt" 
      data-sort-seat-option="cx" 
      data-sort-line-option="cy" 
      data-line-start="21"
      >
      
      <g>
        <circle fill="#AEBDC4" cx="11.4" cy="196.99" r="1.85"/>
        <circle fill="#AEBDC4" cx="15.72" cy="196.99" r="1.85"/>
        <circle fill="#AEBDC4" cx="20.04" cy="196.99" r="1.85"/>
        <circle fill="#AEBDC4" cx="24.36" cy="196.99" r="1.85"/>
        <circle fill="#AEBDC4" cx="28.68" cy="196.99" r="1.85"/>
        <circle fill="#AEBDC4" cx="33.01" cy="196.99" r="1.85"/>
        <circle fill="#AEBDC4" cx="37.33" cy="196.99" r="1.85"/>
        <circle fill="#AEBDC4" cx="41.65" cy="196.99" r="1.85"/>
        <circle fill="#AEBDC4" cx="45.97" cy="196.99" r="1.85"/>
        <circle fill="#AEBDC4" cx="50.3" cy="196.99" r="1.85"/>
        <circle fill="#AEBDC4" cx="54.63" cy="196.99" r="1.85"/>
        <circle fill="#AEBDC4" cx="58.96" cy="196.99" r="1.85"/>
        <circle fill="#AEBDC4" cx="63.29" cy="196.99" r="1.85"/>
        <circle fill="#AEBDC4" cx="67.62" cy="196.99" r="1.85"/>
        <circle fill="#AEBDC4" cx="71.95" cy="196.99" r="1.85"/>
        <circle fill="#AEBDC4" cx="76.28" cy="196.99" r="1.85"/>
        <circle fill="#AEBDC4" cx="80.61" cy="196.99" r="1.85"/>
        <circle fill="#AEBDC4" cx="84.95" cy="196.99" r="1.85"/>
        <circle fill="#AEBDC4" cx="89.28" cy="196.99" r="1.85"/>
        <circle fill="#AEBDC4" cx="93.61" cy="196.99" r="1.85"/>
      </g>
      <g>
        <circle fill="#AEBDC4" cx="11.4" cy="191.06" r="1.85"/>
        <circle fill="#AEBDC4" cx="15.72" cy="191.06" r="1.85"/>
        <circle fill="#AEBDC4" cx="20.04" cy="191.06" r="1.85"/>
        <circle fill="#AEBDC4" cx="24.36" cy="191.06" r="1.85"/>
        <circle fill="#AEBDC4" cx="28.68" cy="191.06" r="1.85"/>
        <circle fill="#AEBDC4" cx="33.01" cy="191.06" r="1.85"/>
        <circle fill="#AEBDC4" cx="37.33" cy="191.06" r="1.85"/>
        <circle fill="#AEBDC4" cx="41.65" cy="191.06" r="1.85"/>
        <circle fill="#AEBDC4" cx="45.97" cy="191.06" r="1.85"/>
        <circle fill="#AEBDC4" cx="50.3" cy="191.06" r="1.85"/>
        <circle fill="#AEBDC4" cx="54.63" cy="191.06" r="1.85"/>
        <circle fill="#AEBDC4" cx="58.96" cy="191.06" r="1.85"/>
        <circle fill="#AEBDC4" cx="63.29" cy="191.06" r="1.85"/>
        <circle fill="#AEBDC4" cx="67.62" cy="191.06" r="1.85"/>
        <circle fill="#AEBDC4" cx="71.95" cy="191.06" r="1.85"/>
        <circle fill="#AEBDC4" cx="76.28" cy="191.06" r="1.85"/>
        <circle fill="#AEBDC4" cx="80.61" cy="191.06" r="1.85"/>
        <circle fill="#AEBDC4" cx="84.95" cy="191.06" r="1.85"/>
        <circle fill="#AEBDC4" cx="89.28" cy="191.06" r="1.85"/>
        <circle fill="#AEBDC4" cx="93.61" cy="191.06" r="1.85"/>
      </g>
      <g>
        <circle fill="#AEBDC4" cx="11.4" cy="185.12" r="1.85"/>
        <circle fill="#AEBDC4" cx="15.72" cy="185.12" r="1.85"/>
        <circle fill="#AEBDC4" cx="20.04" cy="185.12" r="1.85"/>
        <circle fill="#AEBDC4" cx="24.36" cy="185.12" r="1.85"/>
        <circle fill="#AEBDC4" cx="28.68" cy="185.12" r="1.85"/>
        <circle fill="#AEBDC4" cx="33.01" cy="185.12" r="1.85"/>
        <circle fill="#AEBDC4" cx="37.33" cy="185.12" r="1.85"/>
        <circle fill="#AEBDC4" cx="41.65" cy="185.12" r="1.85"/>
        <circle fill="#AEBDC4" cx="45.97" cy="185.12" r="1.85"/>
        <circle fill="#AEBDC4" cx="50.3" cy="185.12" r="1.85"/>
        <circle fill="#AEBDC4" cx="54.63" cy="185.12" r="1.85"/>
        <circle fill="#AEBDC4" cx="58.96" cy="185.12" r="1.85"/>
        <circle fill="#AEBDC4" cx="63.29" cy="185.12" r="1.85"/>
        <circle fill="#AEBDC4" cx="67.62" cy="185.12" r="1.85"/>
        <circle fill="#AEBDC4" cx="71.95" cy="185.12" r="1.85"/>
        <circle fill="#AEBDC4" cx="76.28" cy="185.12" r="1.85"/>
        <circle fill="#AEBDC4" cx="80.61" cy="185.12" r="1.85"/>
        <circle fill="#AEBDC4" cx="84.95" cy="185.12" r="1.85"/>
        <circle fill="#AEBDC4" cx="89.28" cy="185.12" r="1.85"/>
        <circle fill="#AEBDC4" cx="93.61" cy="185.12" r="1.85"/>
        <circle fill="#AEBDC4" cx="97.94" cy="185.12" r="1.85"/>
        <circle fill="#AEBDC4" cx="102.27" cy="185.12" r="1.85"/>
        <circle fill="#AEBDC4" cx="106.6" cy="185.12" r="1.85"/>
        <circle fill="#AEBDC4" cx="110.93" cy="185.12" r="1.85"/>
        <circle fill="#AEBDC4" cx="115.26" cy="185.12" r="1.85"/>
        <circle fill="#AEBDC4" cx="119.59" cy="185.12" r="1.85"/>
      </g>
      <g>
        <circle fill="#AEBDC4" cx="11.4" cy="179.19" r="1.85"/>
        <circle fill="#AEBDC4" cx="15.72" cy="179.19" r="1.85"/>
        <circle fill="#AEBDC4" cx="20.04" cy="179.19" r="1.85"/>
        <circle fill="#AEBDC4" cx="24.36" cy="179.19" r="1.85"/>
        <circle fill="#AEBDC4" cx="28.68" cy="179.19" r="1.85"/>
        <circle fill="#AEBDC4" cx="33.01" cy="179.19" r="1.85"/>
        <circle fill="#AEBDC4" cx="37.33" cy="179.19" r="1.85"/>
        <circle fill="#AEBDC4" cx="41.65" cy="179.19" r="1.85"/>
        <circle fill="#AEBDC4" cx="45.97" cy="179.19" r="1.85"/>
        <circle fill="#AEBDC4" cx="50.3" cy="179.19" r="1.85"/>
        <circle fill="#AEBDC4" cx="54.63" cy="179.19" r="1.85"/>
        <circle fill="#AEBDC4" cx="58.96" cy="179.19" r="1.85"/>
        <circle fill="#AEBDC4" cx="63.29" cy="179.19" r="1.85"/>
        <circle fill="#AEBDC4" cx="67.62" cy="179.19" r="1.85"/>
        <circle fill="#AEBDC4" cx="71.95" cy="179.19" r="1.85"/>
        <circle fill="#AEBDC4" cx="76.28" cy="179.19" r="1.85"/>
        <circle fill="#AEBDC4" cx="80.61" cy="179.19" r="1.85"/>
        <circle fill="#AEBDC4" cx="84.95" cy="179.19" r="1.85"/>
        <circle fill="#AEBDC4" cx="89.28" cy="179.19" r="1.85"/>
        <circle fill="#AEBDC4" cx="93.61" cy="179.19" r="1.85"/>
        <circle fill="#AEBDC4" cx="97.94" cy="179.19" r="1.85"/>
        <circle fill="#AEBDC4" cx="102.27" cy="179.19" r="1.85"/>
        <circle fill="#AEBDC4" cx="106.6" cy="179.19" r="1.85"/>
        <circle fill="#AEBDC4" cx="110.93" cy="179.19" r="1.85"/>
        <circle fill="#AEBDC4" cx="115.26" cy="179.19" r="1.85"/>
        <circle fill="#AEBDC4" cx="119.59" cy="179.19" r="1.85"/>
      </g>
      <g>
        <circle fill="#AEBDC4" cx="11.4" cy="173.26" r="1.85"/>
        <circle fill="#AEBDC4" cx="15.72" cy="173.26" r="1.85"/>
        <circle fill="#AEBDC4" cx="20.04" cy="173.26" r="1.85"/>
        <circle fill="#AEBDC4" cx="24.36" cy="173.26" r="1.85"/>
        <circle fill="#AEBDC4" cx="28.68" cy="173.26" r="1.85"/>
        <circle fill="#AEBDC4" cx="33.01" cy="173.26" r="1.85"/>
        <circle fill="#AEBDC4" cx="37.33" cy="173.26" r="1.85"/>
        <circle fill="#AEBDC4" cx="41.65" cy="173.26" r="1.85"/>
        <circle fill="#AEBDC4" cx="45.97" cy="173.26" r="1.85"/>
        <circle fill="#AEBDC4" cx="50.3" cy="173.26" r="1.85"/>
        <circle fill="#AEBDC4" cx="54.63" cy="173.26" r="1.85"/>
        <circle fill="#AEBDC4" cx="58.96" cy="173.26" r="1.85"/>
        <circle fill="#AEBDC4" cx="63.29" cy="173.26" r="1.85"/>
        <circle fill="#AEBDC4" cx="67.62" cy="173.26" r="1.85"/>
        <circle fill="#AEBDC4" cx="71.95" cy="173.26" r="1.85"/>
        <circle fill="#AEBDC4" cx="76.28" cy="173.26" r="1.85"/>
        <circle fill="#AEBDC4" cx="80.61" cy="173.26" r="1.85"/>
        <circle fill="#AEBDC4" cx="84.95" cy="173.26" r="1.85"/>
        <circle fill="#AEBDC4" cx="89.28" cy="173.26" r="1.85"/>
        <circle fill="#AEBDC4" cx="93.61" cy="173.26" r="1.85"/>
        <circle fill="#AEBDC4" cx="97.94" cy="173.26" r="1.85"/>
        <circle fill="#AEBDC4" cx="102.27" cy="173.26" r="1.85"/>
        <circle fill="#AEBDC4" cx="106.6" cy="173.26" r="1.85"/>
        <circle fill="#AEBDC4" cx="110.93" cy="173.26" r="1.85"/>
        <circle fill="#AEBDC4" cx="115.26" cy="173.26" r="1.85"/>
        <circle fill="#AEBDC4" cx="119.59" cy="173.26" r="1.85"/>
      </g>
      <g>
        <circle fill="#AEBDC4" cx="20.06" cy="167.33" r="1.85"/>
        <circle fill="#AEBDC4" cx="24.38" cy="167.33" r="1.85"/>
        <circle fill="#AEBDC4" cx="28.7" cy="167.33" r="1.85"/>
        <circle fill="#AEBDC4" cx="33.02" cy="167.33" r="1.85"/>
        <circle fill="#AEBDC4" cx="37.35" cy="167.33" r="1.85"/>
        <circle fill="#AEBDC4" cx="41.67" cy="167.33" r="1.85"/>
        <circle fill="#AEBDC4" cx="45.99" cy="167.33" r="1.85"/>
        <circle fill="#AEBDC4" cx="50.31" cy="167.33" r="1.85"/>
        <circle fill="#AEBDC4" cx="54.63" cy="167.33" r="1.85"/>
        <circle fill="#AEBDC4" cx="58.96" cy="167.33" r="1.85"/>
        <circle fill="#AEBDC4" cx="63.29" cy="167.33" r="1.85"/>
        <circle fill="#AEBDC4" cx="67.62" cy="167.33" r="1.85"/>
        <circle fill="#AEBDC4" cx="71.95" cy="167.33" r="1.85"/>
        <circle fill="#AEBDC4" cx="76.28" cy="167.33" r="1.85"/>
        <circle fill="#AEBDC4" cx="80.61" cy="167.33" r="1.85"/>
        <circle fill="#AEBDC4" cx="84.95" cy="167.33" r="1.85"/>
        <circle fill="#AEBDC4" cx="89.28" cy="167.33" r="1.85"/>
        <circle fill="#AEBDC4" cx="93.61" cy="167.33" r="1.85"/>
        <circle fill="#AEBDC4" cx="97.94" cy="167.33" r="1.85"/>
        <circle fill="#AEBDC4" cx="102.27" cy="167.33" r="1.85"/>
        <circle fill="#AEBDC4" cx="106.6" cy="167.33" r="1.85"/>
        <circle fill="#AEBDC4" cx="110.93" cy="167.33" r="1.85"/>
      </g>
      <g>
        <circle fill="#AEBDC4" cx="20.06" cy="161.4" r="1.85"/>
        <circle fill="#AEBDC4" cx="24.38" cy="161.4" r="1.85"/>
        <circle fill="#AEBDC4" cx="28.7" cy="161.4" r="1.85"/>
        <circle fill="#AEBDC4" cx="33.02" cy="161.4" r="1.85"/>
        <circle fill="#AEBDC4" cx="37.35" cy="161.4" r="1.85"/>
        <circle fill="#AEBDC4" cx="41.67" cy="161.4" r="1.85"/>
        <circle fill="#AEBDC4" cx="45.99" cy="161.4" r="1.85"/>
        <circle fill="#AEBDC4" cx="50.31" cy="161.4" r="1.85"/>
        <circle fill="#AEBDC4" cx="54.63" cy="161.4" r="1.85"/>
        <circle fill="#AEBDC4" cx="58.96" cy="161.4" r="1.85"/>
        <circle fill="#AEBDC4" cx="63.29" cy="161.4" r="1.85"/>
        <circle fill="#AEBDC4" cx="67.62" cy="161.4" r="1.85"/>
        <circle fill="#AEBDC4" cx="71.95" cy="161.4" r="1.85"/>
        <circle fill="#AEBDC4" cx="76.28" cy="161.4" r="1.85"/>
        <circle fill="#AEBDC4" cx="80.61" cy="161.4" r="1.85"/>
        <circle fill="#AEBDC4" cx="84.95" cy="161.4" r="1.85"/>
        <circle fill="#AEBDC4" cx="89.28" cy="161.4" r="1.85"/>
        <circle fill="#AEBDC4" cx="93.61" cy="161.4" r="1.85"/>
        <circle fill="#AEBDC4" cx="97.94" cy="161.4" r="1.85"/>
        <circle fill="#AEBDC4" cx="102.27" cy="161.4" r="1.85"/>
        <circle fill="#AEBDC4" cx="106.6" cy="161.4" r="1.85"/>
        <circle fill="#AEBDC4" cx="110.93" cy="161.4" r="1.85"/>
      </g>
      <g>
        <circle fill="#AEBDC4" cx="20.06" cy="155.47" r="1.85"/>
        <circle fill="#AEBDC4" cx="24.38" cy="155.47" r="1.85"/>
        <circle fill="#AEBDC4" cx="28.7" cy="155.47" r="1.85"/>
        <circle fill="#AEBDC4" cx="33.02" cy="155.47" r="1.85"/>
        <circle fill="#AEBDC4" cx="37.35" cy="155.47" r="1.85"/>
        <circle fill="#AEBDC4" cx="41.67" cy="155.47" r="1.85"/>
        <circle fill="#AEBDC4" cx="45.99" cy="155.47" r="1.85"/>
        <circle fill="#AEBDC4" cx="50.31" cy="155.47" r="1.85"/>
        <circle fill="#AEBDC4" cx="54.63" cy="155.47" r="1.85"/>
        <circle fill="#AEBDC4" cx="58.96" cy="155.47" r="1.85"/>
        <circle fill="#AEBDC4" cx="63.29" cy="155.47" r="1.85"/>
        <circle fill="#AEBDC4" cx="67.62" cy="155.47" r="1.85"/>
        <circle fill="#AEBDC4" cx="71.95" cy="155.47" r="1.85"/>
        <circle fill="#AEBDC4" cx="76.28" cy="155.47" r="1.85"/>
        <circle fill="#AEBDC4" cx="80.61" cy="155.47" r="1.85"/>
        <circle fill="#AEBDC4" cx="84.95" cy="155.47" r="1.85"/>
        <circle fill="#AEBDC4" cx="89.28" cy="155.47" r="1.85"/>
        <circle fill="#AEBDC4" cx="93.61" cy="155.47" r="1.85"/>
        <circle fill="#AEBDC4" cx="97.94" cy="155.47" r="1.85"/>
        <circle fill="#AEBDC4" cx="102.27" cy="155.47" r="1.85"/>
        <circle fill="#AEBDC4" cx="106.6" cy="155.47" r="1.85"/>
        <circle fill="#AEBDC4" cx="110.93" cy="155.47" r="1.85"/>
      </g>
      <g>
        <circle fill="#AEBDC4" cx="20.06" cy="149.54" r="1.85"/>
        <circle fill="#AEBDC4" cx="24.38" cy="149.54" r="1.85"/>
        <circle fill="#AEBDC4" cx="28.7" cy="149.54" r="1.85"/>
        <circle fill="#AEBDC4" cx="33.02" cy="149.54" r="1.85"/>
        <circle fill="#AEBDC4" cx="37.35" cy="149.54" r="1.85"/>
        <circle fill="#AEBDC4" cx="41.67" cy="149.54" r="1.85"/>
        <circle fill="#AEBDC4" cx="45.99" cy="149.54" r="1.85"/>
        <circle fill="#AEBDC4" cx="50.31" cy="149.54" r="1.85"/>
        <circle fill="#AEBDC4" cx="54.63" cy="149.54" r="1.85"/>
        <circle fill="#AEBDC4" cx="58.96" cy="149.54" r="1.85"/>
        <circle fill="#AEBDC4" cx="63.29" cy="149.54" r="1.85"/>
        <circle fill="#AEBDC4" cx="67.62" cy="149.54" r="1.85"/>
        <circle fill="#AEBDC4" cx="71.95" cy="149.54" r="1.85"/>
        <circle fill="#AEBDC4" cx="76.28" cy="149.54" r="1.85"/>
        <circle fill="#AEBDC4" cx="80.61" cy="149.54" r="1.85"/>
        <circle fill="#AEBDC4" cx="84.95" cy="149.54" r="1.85"/>
        <circle fill="#AEBDC4" cx="89.28" cy="149.54" r="1.85"/>
        <circle fill="#AEBDC4" cx="93.61" cy="149.54" r="1.85"/>
        <circle fill="#AEBDC4" cx="97.94" cy="149.54" r="1.85"/>
        <circle fill="#AEBDC4" cx="102.27" cy="149.54" r="1.85"/>
        <circle fill="#AEBDC4" cx="106.6" cy="149.54" r="1.85"/>
        <circle fill="#AEBDC4" cx="110.93" cy="149.54" r="1.85"/>
      </g>
      <g>
        <circle fill="#AEBDC4" cx="20.06" cy="143.61" r="1.85"/>
        <circle fill="#AEBDC4" cx="24.38" cy="143.61" r="1.85"/>
        <circle fill="#AEBDC4" cx="28.7" cy="143.61" r="1.85"/>
        <circle fill="#AEBDC4" cx="33.02" cy="143.61" r="1.85"/>
        <circle fill="#AEBDC4" cx="37.35" cy="143.61" r="1.85"/>
        <circle fill="#AEBDC4" cx="41.67" cy="143.61" r="1.85"/>
        <circle fill="#AEBDC4" cx="45.99" cy="143.61" r="1.85"/>
        <circle fill="#AEBDC4" cx="50.31" cy="143.61" r="1.85"/>
        <circle fill="#AEBDC4" cx="54.63" cy="143.61" r="1.85"/>
        <circle fill="#AEBDC4" cx="58.96" cy="143.61" r="1.85"/>
        <circle fill="#AEBDC4" cx="63.29" cy="143.61" r="1.85"/>
        <circle fill="#AEBDC4" cx="67.62" cy="143.61" r="1.85"/>
        <circle fill="#AEBDC4" cx="71.95" cy="143.61" r="1.85"/>
        <circle fill="#AEBDC4" cx="76.28" cy="143.61" r="1.85"/>
        <circle fill="#AEBDC4" cx="80.61" cy="143.61" r="1.85"/>
        <circle fill="#AEBDC4" cx="84.95" cy="143.61" r="1.85"/>
        <circle fill="#AEBDC4" cx="89.28" cy="143.61" r="1.85"/>
        <circle fill="#AEBDC4" cx="93.61" cy="143.61" r="1.85"/>
        <circle fill="#AEBDC4" cx="97.94" cy="143.61" r="1.85"/>
        <circle fill="#AEBDC4" cx="102.27" cy="143.61" r="1.85"/>
        <circle fill="#AEBDC4" cx="106.6" cy="143.61" r="1.85"/>
        <circle fill="#AEBDC4" cx="110.93" cy="143.61" r="1.85"/>
      </g>
      <g>
        <circle fill="#AEBDC4" cx="11.4" cy="137.68" r="1.85"/>
        <circle fill="#AEBDC4" cx="15.72" cy="137.68" r="1.85"/>
        <circle fill="#AEBDC4" cx="20.04" cy="137.68" r="1.85"/>
        <circle fill="#AEBDC4" cx="24.36" cy="137.68" r="1.85"/>
        <circle fill="#AEBDC4" cx="28.68" cy="137.68" r="1.85"/>
        <circle fill="#AEBDC4" cx="33.01" cy="137.68" r="1.85"/>
        <circle fill="#AEBDC4" cx="37.33" cy="137.68" r="1.85"/>
        <circle fill="#AEBDC4" cx="41.65" cy="137.68" r="1.85"/>
        <circle fill="#AEBDC4" cx="45.97" cy="137.68" r="1.85"/>
        <circle fill="#AEBDC4" cx="50.3" cy="137.68" r="1.85"/>
        <circle fill="#AEBDC4" cx="54.63" cy="137.68" r="1.85"/>
        <circle fill="#AEBDC4" cx="58.96" cy="137.68" r="1.85"/>
        <circle fill="#AEBDC4" cx="63.29" cy="137.68" r="1.85"/>
        <circle fill="#AEBDC4" cx="67.62" cy="137.68" r="1.85"/>
        <circle fill="#AEBDC4" cx="71.95" cy="137.68" r="1.85"/>
        <circle fill="#AEBDC4" cx="76.28" cy="137.68" r="1.85"/>
        <circle fill="#AEBDC4" cx="80.61" cy="137.68" r="1.85"/>
        <circle fill="#AEBDC4" cx="84.95" cy="137.68" r="1.85"/>
        <circle fill="#AEBDC4" cx="89.28" cy="137.68" r="1.85"/>
        <circle fill="#AEBDC4" cx="93.61" cy="137.68" r="1.85"/>
        <circle fill="#AEBDC4" cx="97.94" cy="137.68" r="1.85"/>
        <circle fill="#AEBDC4" cx="102.27" cy="137.68" r="1.85"/>
        <circle fill="#AEBDC4" cx="106.6" cy="137.68" r="1.85"/>
        <circle fill="#AEBDC4" cx="110.93" cy="137.68" r="1.85"/>
        <circle fill="#AEBDC4" cx="115.26" cy="137.68" r="1.85"/>
        <circle fill="#AEBDC4" cx="119.59" cy="137.68" r="1.85"/>
      </g>
      <g>
        <circle fill="#AEBDC4" cx="11.4" cy="131.75" r="1.85"/>
        <circle fill="#AEBDC4" cx="15.72" cy="131.75" r="1.85"/>
        <circle fill="#AEBDC4" cx="20.04" cy="131.75" r="1.85"/>
        <circle fill="#AEBDC4" cx="24.36" cy="131.75" r="1.85"/>
        <circle fill="#AEBDC4" cx="28.68" cy="131.75" r="1.85"/>
        <circle fill="#AEBDC4" cx="33.01" cy="131.75" r="1.85"/>
        <circle fill="#AEBDC4" cx="37.33" cy="131.75" r="1.85"/>
        <circle fill="#AEBDC4" cx="41.65" cy="131.75" r="1.85"/>
        <circle fill="#AEBDC4" cx="45.97" cy="131.75" r="1.85"/>
        <circle fill="#AEBDC4" cx="50.3" cy="131.75" r="1.85"/>
        <circle fill="#AEBDC4" cx="54.63" cy="131.75" r="1.85"/>
        <circle fill="#AEBDC4" cx="58.96" cy="131.75" r="1.85"/>
        <circle fill="#AEBDC4" cx="63.29" cy="131.75" r="1.85"/>
        <circle fill="#AEBDC4" cx="67.62" cy="131.75" r="1.85"/>
        <circle fill="#AEBDC4" cx="71.95" cy="131.75" r="1.85"/>
        <circle fill="#AEBDC4" cx="76.28" cy="131.75" r="1.85"/>
        <circle fill="#AEBDC4" cx="80.61" cy="131.75" r="1.85"/>
        <circle fill="#AEBDC4" cx="84.95" cy="131.75" r="1.85"/>
        <circle fill="#AEBDC4" cx="89.28" cy="131.75" r="1.85"/>
        <circle fill="#AEBDC4" cx="93.61" cy="131.75" r="1.85"/>
        <circle fill="#AEBDC4" cx="97.94" cy="131.75" r="1.85"/>
        <circle fill="#AEBDC4" cx="102.27" cy="131.75" r="1.85"/>
        <circle fill="#AEBDC4" cx="106.6" cy="131.75" r="1.85"/>
        <circle fill="#AEBDC4" cx="110.93" cy="131.75" r="1.85"/>
        <circle fill="#AEBDC4" cx="115.26" cy="131.75" r="1.85"/>
        <circle fill="#AEBDC4" cx="119.59" cy="131.75" r="1.85"/>
      </g>
      <g>
        <circle fill="#AEBDC4" cx="11.4" cy="125.82" r="1.85"/>
        <circle fill="#AEBDC4" cx="15.72" cy="125.82" r="1.85"/>
        <circle fill="#AEBDC4" cx="20.04" cy="125.82" r="1.85"/>
        <circle fill="#AEBDC4" cx="24.36" cy="125.82" r="1.85"/>
        <circle fill="#AEBDC4" cx="28.68" cy="125.82" r="1.85"/>
        <circle fill="#AEBDC4" cx="33.01" cy="125.82" r="1.85"/>
        <circle fill="#AEBDC4" cx="37.33" cy="125.82" r="1.85"/>
        <circle fill="#AEBDC4" cx="41.65" cy="125.82" r="1.85"/>
        <circle fill="#AEBDC4" cx="45.97" cy="125.82" r="1.85"/>
        <circle fill="#AEBDC4" cx="50.3" cy="125.82" r="1.85"/>
        <circle fill="#AEBDC4" cx="54.63" cy="125.82" r="1.85"/>
        <circle fill="#AEBDC4" cx="58.96" cy="125.82" r="1.85"/>
        <circle fill="#AEBDC4" cx="63.29" cy="125.82" r="1.85"/>
        <circle fill="#AEBDC4" cx="67.62" cy="125.82" r="1.85"/>
        <circle fill="#AEBDC4" cx="71.95" cy="125.82" r="1.85"/>
        <circle fill="#AEBDC4" cx="76.28" cy="125.82" r="1.85"/>
        <circle fill="#AEBDC4" cx="80.61" cy="125.82" r="1.85"/>
        <circle fill="#AEBDC4" cx="84.95" cy="125.82" r="1.85"/>
        <circle fill="#AEBDC4" cx="89.28" cy="125.82" r="1.85"/>
        <circle fill="#AEBDC4" cx="93.61" cy="125.82" r="1.85"/>
        <circle fill="#AEBDC4" cx="97.94" cy="125.82" r="1.85"/>
        <circle fill="#AEBDC4" cx="102.27" cy="125.82" r="1.85"/>
        <circle fill="#AEBDC4" cx="106.6" cy="125.82" r="1.85"/>
        <circle fill="#AEBDC4" cx="110.93" cy="125.82" r="1.85"/>
        <circle fill="#AEBDC4" cx="115.26" cy="125.82" r="1.85"/>
        <circle fill="#AEBDC4" cx="119.59" cy="125.82" r="1.85"/>
      </g>
      <g>
        <circle fill="#AEBDC4" cx="11.4" cy="119.89" r="1.85"/>
        <circle fill="#AEBDC4" cx="15.72" cy="119.89" r="1.85"/>
        <circle fill="#AEBDC4" cx="20.04" cy="119.89" r="1.85"/>
        <circle fill="#AEBDC4" cx="24.36" cy="119.89" r="1.85"/>
        <circle fill="#AEBDC4" cx="28.68" cy="119.89" r="1.85"/>
        <circle fill="#AEBDC4" cx="33.01" cy="119.89" r="1.85"/>
        <circle fill="#AEBDC4" cx="37.33" cy="119.89" r="1.85"/>
        <circle fill="#AEBDC4" cx="41.65" cy="119.89" r="1.85"/>
        <circle fill="#AEBDC4" cx="45.97" cy="119.89" r="1.85"/>
        <circle fill="#AEBDC4" cx="50.3" cy="119.89" r="1.85"/>
        <circle fill="#AEBDC4" cx="54.63" cy="119.89" r="1.85"/>
        <circle fill="#AEBDC4" cx="58.96" cy="119.89" r="1.85"/>
        <circle fill="#AEBDC4" cx="63.29" cy="119.89" r="1.85"/>
        <circle fill="#AEBDC4" cx="67.62" cy="119.89" r="1.85"/>
        <circle fill="#AEBDC4" cx="71.95" cy="119.89" r="1.85"/>
        <circle fill="#AEBDC4" cx="76.28" cy="119.89" r="1.85"/>
        <circle fill="#AEBDC4" cx="80.61" cy="119.89" r="1.85"/>
        <circle fill="#AEBDC4" cx="84.95" cy="119.89" r="1.85"/>
        <circle fill="#AEBDC4" cx="89.28" cy="119.89" r="1.85"/>
        <circle fill="#AEBDC4" cx="93.61" cy="119.89" r="1.85"/>
        <circle fill="#AEBDC4" cx="97.94" cy="119.89" r="1.85"/>
        <circle fill="#AEBDC4" cx="102.27" cy="119.89" r="1.85"/>
        <circle fill="#AEBDC4" cx="106.6" cy="119.89" r="1.85"/>
        <circle fill="#AEBDC4" cx="110.93" cy="119.89" r="1.85"/>
        <circle fill="#AEBDC4" cx="115.26" cy="119.89" r="1.85"/>
        <circle fill="#AEBDC4" cx="119.59" cy="119.89" r="1.85"/>
      </g>
      <g>
        <circle fill="#AEBDC4" cx="11.4" cy="113.95" r="1.85"/>
        <circle fill="#AEBDC4" cx="15.72" cy="113.95" r="1.85"/>
        <circle fill="#AEBDC4" cx="20.04" cy="113.95" r="1.85"/>
        <circle fill="#AEBDC4" cx="24.36" cy="113.95" r="1.85"/>
        <circle fill="#AEBDC4" cx="28.68" cy="113.95" r="1.85"/>
        <circle fill="#AEBDC4" cx="33.01" cy="113.95" r="1.85"/>
        <circle fill="#AEBDC4" cx="37.33" cy="113.95" r="1.85"/>
        <circle fill="#AEBDC4" cx="41.65" cy="113.95" r="1.85"/>
        <circle fill="#AEBDC4" cx="45.97" cy="113.95" r="1.85"/>
        <circle fill="#AEBDC4" cx="50.3" cy="113.95" r="1.85"/>
        <circle fill="#AEBDC4" cx="54.63" cy="113.95" r="1.85"/>
        <circle fill="#AEBDC4" cx="58.96" cy="113.95" r="1.85"/>
        <circle fill="#AEBDC4" cx="63.29" cy="113.95" r="1.85"/>
        <circle fill="#AEBDC4" cx="67.62" cy="113.95" r="1.85"/>
        <circle fill="#AEBDC4" cx="71.95" cy="113.95" r="1.85"/>
        <circle fill="#AEBDC4" cx="76.28" cy="113.95" r="1.85"/>
        <circle fill="#AEBDC4" cx="80.61" cy="113.95" r="1.85"/>
        <circle fill="#AEBDC4" cx="84.95" cy="113.95" r="1.85"/>
        <circle fill="#AEBDC4" cx="89.28" cy="113.95" r="1.85"/>
        <circle fill="#AEBDC4" cx="93.61" cy="113.95" r="1.85"/>
        <circle fill="#AEBDC4" cx="97.94" cy="113.95" r="1.85"/>
        <circle fill="#AEBDC4" cx="102.27" cy="113.95" r="1.85"/>
        <circle fill="#AEBDC4" cx="106.6" cy="113.95" r="1.85"/>
        <circle fill="#AEBDC4" cx="110.93" cy="113.95" r="1.85"/>
        <circle fill="#AEBDC4" cx="115.26" cy="113.95" r="1.85"/>
        <circle fill="#AEBDC4" cx="119.59" cy="113.95" r="1.85"/>
      </g>
      <g>
        <circle fill="#AEBDC4" cx="11.4" cy="108.02" r="1.85"/>
        <circle fill="#AEBDC4" cx="15.72" cy="108.02" r="1.85"/>
        <circle fill="#AEBDC4" cx="20.04" cy="108.02" r="1.85"/>
        <circle fill="#AEBDC4" cx="24.36" cy="108.02" r="1.85"/>
        <circle fill="#AEBDC4" cx="28.68" cy="108.02" r="1.85"/>
        <circle fill="#AEBDC4" cx="33.01" cy="108.02" r="1.85"/>
        <circle fill="#AEBDC4" cx="37.33" cy="108.02" r="1.85"/>
        <circle fill="#AEBDC4" cx="41.65" cy="108.02" r="1.85"/>
        <circle fill="#AEBDC4" cx="45.97" cy="108.02" r="1.85"/>
        <circle fill="#AEBDC4" cx="50.3" cy="108.02" r="1.85"/>
        <circle fill="#AEBDC4" cx="54.63" cy="108.02" r="1.85"/>
        <circle fill="#AEBDC4" cx="58.96" cy="108.02" r="1.85"/>
        <circle fill="#AEBDC4" cx="63.29" cy="108.02" r="1.85"/>
        <circle fill="#AEBDC4" cx="67.62" cy="108.02" r="1.85"/>
        <circle fill="#AEBDC4" cx="71.95" cy="108.02" r="1.85"/>
        <circle fill="#AEBDC4" cx="76.28" cy="108.02" r="1.85"/>
        <circle fill="#AEBDC4" cx="80.61" cy="108.02" r="1.85"/>
        <circle fill="#AEBDC4" cx="84.95" cy="108.02" r="1.85"/>
        <circle fill="#AEBDC4" cx="89.28" cy="108.02" r="1.85"/>
        <circle fill="#AEBDC4" cx="93.61" cy="108.02" r="1.85"/>
        <circle fill="#AEBDC4" cx="97.94" cy="108.02" r="1.85"/>
        <circle fill="#AEBDC4" cx="102.27" cy="108.02" r="1.85"/>
        <circle fill="#AEBDC4" cx="106.6" cy="108.02" r="1.85"/>
        <circle fill="#AEBDC4" cx="110.93" cy="108.02" r="1.85"/>
        <circle fill="#AEBDC4" cx="115.26" cy="108.02" r="1.85"/>
        <circle fill="#AEBDC4" cx="119.59" cy="108.02" r="1.85"/>
      </g>
      <g>
        <circle fill="#AEBDC4" cx="11.4" cy="102.09" r="1.85"/>
        <circle fill="#AEBDC4" cx="15.72" cy="102.09" r="1.85"/>
        <circle fill="#AEBDC4" cx="20.04" cy="102.09" r="1.85"/>
        <circle fill="#AEBDC4" cx="24.36" cy="102.09" r="1.85"/>
        <circle fill="#AEBDC4" cx="28.68" cy="102.09" r="1.85"/>
        <circle fill="#AEBDC4" cx="33.01" cy="102.09" r="1.85"/>
        <circle fill="#AEBDC4" cx="37.33" cy="102.09" r="1.85"/>
        <circle fill="#AEBDC4" cx="41.65" cy="102.09" r="1.85"/>
        <circle fill="#AEBDC4" cx="45.97" cy="102.09" r="1.85"/>
        <circle fill="#AEBDC4" cx="50.3" cy="102.09" r="1.85"/>
        <circle fill="#AEBDC4" cx="54.63" cy="102.09" r="1.85"/>
        <circle fill="#AEBDC4" cx="58.96" cy="102.09" r="1.85"/>
        <circle fill="#AEBDC4" cx="63.29" cy="102.09" r="1.85"/>
        <circle fill="#AEBDC4" cx="67.62" cy="102.09" r="1.85"/>
        <circle fill="#AEBDC4" cx="71.95" cy="102.09" r="1.85"/>
        <circle fill="#AEBDC4" cx="76.28" cy="102.09" r="1.85"/>
        <circle fill="#AEBDC4" cx="80.61" cy="102.09" r="1.85"/>
        <circle fill="#AEBDC4" cx="84.95" cy="102.09" r="1.85"/>
        <circle fill="#AEBDC4" cx="89.28" cy="102.09" r="1.85"/>
        <circle fill="#AEBDC4" cx="93.61" cy="102.09" r="1.85"/>
        <circle fill="#AEBDC4" cx="97.94" cy="102.09" r="1.85"/>
        <circle fill="#AEBDC4" cx="102.27" cy="102.09" r="1.85"/>
        <circle fill="#AEBDC4" cx="106.6" cy="102.09" r="1.85"/>
        <circle fill="#AEBDC4" cx="110.93" cy="102.09" r="1.85"/>
        <circle fill="#AEBDC4" cx="115.26" cy="102.09" r="1.85"/>
        <circle fill="#AEBDC4" cx="119.59" cy="102.09" r="1.85"/>
      </g>
      <g>
        <circle fill="#AEBDC4" cx="11.4" cy="96.16" r="1.85"/>
        <circle fill="#AEBDC4" cx="15.72" cy="96.16" r="1.85"/>
        <circle fill="#AEBDC4" cx="20.04" cy="96.16" r="1.85"/>
        <circle fill="#AEBDC4" cx="24.36" cy="96.16" r="1.85"/>
        <circle fill="#AEBDC4" cx="28.68" cy="96.16" r="1.85"/>
        <circle fill="#AEBDC4" cx="33.01" cy="96.16" r="1.85"/>
        <circle fill="#AEBDC4" cx="37.33" cy="96.16" r="1.85"/>
        <circle fill="#AEBDC4" cx="41.65" cy="96.16" r="1.85"/>
        <circle fill="#AEBDC4" cx="45.97" cy="96.16" r="1.85"/>
        <circle fill="#AEBDC4" cx="50.3" cy="96.16" r="1.85"/>
        <circle fill="#AEBDC4" cx="54.63" cy="96.16" r="1.85"/>
        <circle fill="#AEBDC4" cx="58.96" cy="96.16" r="1.85"/>
        <circle fill="#AEBDC4" cx="63.29" cy="96.16" r="1.85"/>
        <circle fill="#AEBDC4" cx="67.62" cy="96.16" r="1.85"/>
        <circle fill="#AEBDC4" cx="71.95" cy="96.16" r="1.85"/>
        <circle fill="#AEBDC4" cx="76.28" cy="96.16" r="1.85"/>
        <circle fill="#AEBDC4" cx="80.61" cy="96.16" r="1.85"/>
        <circle fill="#AEBDC4" cx="84.95" cy="96.16" r="1.85"/>
        <circle fill="#AEBDC4" cx="89.28" cy="96.16" r="1.85"/>
        <circle fill="#AEBDC4" cx="93.61" cy="96.16" r="1.85"/>
        <circle fill="#AEBDC4" cx="97.94" cy="96.16" r="1.85"/>
        <circle fill="#AEBDC4" cx="102.27" cy="96.16" r="1.85"/>
        <circle fill="#AEBDC4" cx="106.6" cy="96.16" r="1.85"/>
        <circle fill="#AEBDC4" cx="110.93" cy="96.16" r="1.85"/>
        <circle fill="#AEBDC4" cx="115.26" cy="96.16" r="1.85"/>
        <circle fill="#AEBDC4" cx="119.59" cy="96.16" r="1.85"/>
      </g>
      <g>
        <circle fill="#AEBDC4" cx="11.4" cy="90.23" r="1.85"/>
        <circle fill="#AEBDC4" cx="15.72" cy="90.23" r="1.85"/>
        <circle fill="#AEBDC4" cx="20.04" cy="90.23" r="1.85"/>
        <circle fill="#AEBDC4" cx="24.36" cy="90.23" r="1.85"/>
        <circle fill="#AEBDC4" cx="28.68" cy="90.23" r="1.85"/>
        <circle fill="#AEBDC4" cx="33.01" cy="90.23" r="1.85"/>
        <circle fill="#AEBDC4" cx="37.33" cy="90.23" r="1.85"/>
        <circle fill="#AEBDC4" cx="41.65" cy="90.23" r="1.85"/>
        <circle fill="#AEBDC4" cx="45.97" cy="90.23" r="1.85"/>
        <circle fill="#AEBDC4" cx="50.3" cy="90.23" r="1.85"/>
        <circle fill="#AEBDC4" cx="54.63" cy="90.23" r="1.85"/>
        <circle fill="#AEBDC4" cx="58.96" cy="90.23" r="1.85"/>
        <circle fill="#AEBDC4" cx="63.29" cy="90.23" r="1.85"/>
        <circle fill="#AEBDC4" cx="67.62" cy="90.23" r="1.85"/>
        <circle fill="#AEBDC4" cx="71.95" cy="90.23" r="1.85"/>
        <circle fill="#AEBDC4" cx="76.28" cy="90.23" r="1.85"/>
        <circle fill="#AEBDC4" cx="80.61" cy="90.23" r="1.85"/>
        <circle fill="#AEBDC4" cx="84.95" cy="90.23" r="1.85"/>
        <circle fill="#AEBDC4" cx="89.28" cy="90.23" r="1.85"/>
        <circle fill="#AEBDC4" cx="93.61" cy="90.23" r="1.85"/>
        <circle fill="#AEBDC4" cx="97.94" cy="90.23" r="1.85"/>
        <circle fill="#AEBDC4" cx="102.27" cy="90.23" r="1.85"/>
        <circle fill="#AEBDC4" cx="106.6" cy="90.23" r="1.85"/>
        <circle fill="#AEBDC4" cx="110.93" cy="90.23" r="1.85"/>
        <circle fill="#AEBDC4" cx="115.26" cy="90.23" r="1.85"/>
        <circle fill="#AEBDC4" cx="119.59" cy="90.23" r="1.85"/>
      </g>
      <g>
        <circle fill="#AEBDC4" cx="11.4" cy="84.3" r="1.85"/>
        <circle fill="#AEBDC4" cx="15.72" cy="84.3" r="1.85"/>
        <circle fill="#AEBDC4" cx="20.04" cy="84.3" r="1.85"/>
        <circle fill="#AEBDC4" cx="24.36" cy="84.3" r="1.85"/>
        <circle fill="#AEBDC4" cx="28.68" cy="84.3" r="1.85"/>
        <circle fill="#AEBDC4" cx="33.01" cy="84.3" r="1.85"/>
        <circle fill="#AEBDC4" cx="37.33" cy="84.3" r="1.85"/>
        <circle fill="#AEBDC4" cx="41.65" cy="84.3" r="1.85"/>
        <circle fill="#AEBDC4" cx="45.97" cy="84.3" r="1.85"/>
        <circle fill="#AEBDC4" cx="50.3" cy="84.3" r="1.85"/>
        <circle fill="#AEBDC4" cx="54.63" cy="84.3" r="1.85"/>
        <circle fill="#AEBDC4" cx="58.96" cy="84.3" r="1.85"/>
        <circle fill="#AEBDC4" cx="63.29" cy="84.3" r="1.85"/>
        <circle fill="#AEBDC4" cx="67.62" cy="84.3" r="1.85"/>
        <circle fill="#AEBDC4" cx="71.95" cy="84.3" r="1.85"/>
        <circle fill="#AEBDC4" cx="76.28" cy="84.3" r="1.85"/>
        <circle fill="#AEBDC4" cx="80.61" cy="84.3" r="1.85"/>
        <circle fill="#AEBDC4" cx="84.95" cy="84.3" r="1.85"/>
        <circle fill="#AEBDC4" cx="89.28" cy="84.3" r="1.85"/>
        <circle fill="#AEBDC4" cx="93.61" cy="84.3" r="1.85"/>
        <circle fill="#AEBDC4" cx="97.94" cy="84.3" r="1.85"/>
        <circle fill="#AEBDC4" cx="102.27" cy="84.3" r="1.85"/>
        <circle fill="#AEBDC4" cx="106.6" cy="84.3" r="1.85"/>
        <circle fill="#AEBDC4" cx="110.93" cy="84.3" r="1.85"/>
        <circle fill="#AEBDC4" cx="115.26" cy="84.3" r="1.85"/>
        <circle fill="#AEBDC4" cx="119.59" cy="84.3" r="1.85"/>
      </g>
      <g>
        <circle fill="#AEBDC4" cx="11.4" cy="78.37" r="1.85"/>
        <circle fill="#AEBDC4" cx="15.72" cy="78.37" r="1.85"/>
        <circle fill="#AEBDC4" cx="20.04" cy="78.37" r="1.85"/>
        <circle fill="#AEBDC4" cx="24.36" cy="78.37" r="1.85"/>
        <circle fill="#AEBDC4" cx="28.68" cy="78.37" r="1.85"/>
        <circle fill="#AEBDC4" cx="33.01" cy="78.37" r="1.85"/>
        <circle fill="#AEBDC4" cx="37.33" cy="78.37" r="1.85"/>
        <circle fill="#AEBDC4" cx="41.65" cy="78.37" r="1.85"/>
        <circle fill="#AEBDC4" cx="45.97" cy="78.37" r="1.85"/>
        <circle fill="#AEBDC4" cx="50.3" cy="78.37" r="1.85"/>
        <circle fill="#AEBDC4" cx="54.63" cy="78.37" r="1.85"/>
        <circle fill="#AEBDC4" cx="58.96" cy="78.37" r="1.85"/>
        <circle fill="#AEBDC4" cx="63.29" cy="78.37" r="1.85"/>
        <circle fill="#AEBDC4" cx="67.62" cy="78.37" r="1.85"/>
        <circle fill="#AEBDC4" cx="71.95" cy="78.37" r="1.85"/>
        <circle fill="#AEBDC4" cx="76.28" cy="78.37" r="1.85"/>
        <circle fill="#AEBDC4" cx="80.61" cy="78.37" r="1.85"/>
        <circle fill="#AEBDC4" cx="84.95" cy="78.37" r="1.85"/>
        <circle fill="#AEBDC4" cx="89.28" cy="78.37" r="1.85"/>
        <circle fill="#AEBDC4" cx="93.61" cy="78.37" r="1.85"/>
        <circle fill="#AEBDC4" cx="97.94" cy="78.37" r="1.85"/>
        <circle fill="#AEBDC4" cx="102.27" cy="78.37" r="1.85"/>
        <circle fill="#AEBDC4" cx="106.6" cy="78.37" r="1.85"/>
        <circle fill="#AEBDC4" cx="110.93" cy="78.37" r="1.85"/>
        <circle fill="#AEBDC4" cx="115.26" cy="78.37" r="1.85"/>
        <circle fill="#AEBDC4" cx="119.59" cy="78.37" r="1.85"/>
      </g>
      <g>
        <circle fill="#AEBDC4" cx="11.4" cy="72.44" r="1.85"/>
        <circle fill="#AEBDC4" cx="15.72" cy="72.44" r="1.85"/>
        <circle fill="#AEBDC4" cx="20.04" cy="72.44" r="1.85"/>
        <circle fill="#AEBDC4" cx="24.36" cy="72.44" r="1.85"/>
        <circle fill="#AEBDC4" cx="28.68" cy="72.44" r="1.85"/>
        <circle fill="#AEBDC4" cx="33.01" cy="72.44" r="1.85"/>
        <circle fill="#AEBDC4" cx="37.33" cy="72.44" r="1.85"/>
        <circle fill="#AEBDC4" cx="41.65" cy="72.44" r="1.85"/>
        <circle fill="#AEBDC4" cx="45.97" cy="72.44" r="1.85"/>
        <circle fill="#AEBDC4" cx="50.3" cy="72.44" r="1.85"/>
        <circle fill="#AEBDC4" cx="54.63" cy="72.44" r="1.85"/>
        <circle fill="#AEBDC4" cx="58.96" cy="72.44" r="1.85"/>
        <circle fill="#AEBDC4" cx="63.29" cy="72.44" r="1.85"/>
        <circle fill="#AEBDC4" cx="67.62" cy="72.44" r="1.85"/>
        <circle fill="#AEBDC4" cx="71.95" cy="72.44" r="1.85"/>
        <circle fill="#AEBDC4" cx="76.28" cy="72.44" r="1.85"/>
        <circle fill="#AEBDC4" cx="80.61" cy="72.44" r="1.85"/>
        <circle fill="#AEBDC4" cx="84.95" cy="72.44" r="1.85"/>
        <circle fill="#AEBDC4" cx="89.28" cy="72.44" r="1.85"/>
        <circle fill="#AEBDC4" cx="93.61" cy="72.44" r="1.85"/>
        <circle fill="#AEBDC4" cx="97.94" cy="72.44" r="1.85"/>
        <circle fill="#AEBDC4" cx="102.27" cy="72.44" r="1.85"/>
        <circle fill="#AEBDC4" cx="106.6" cy="72.44" r="1.85"/>
        <circle fill="#AEBDC4" cx="110.93" cy="72.44" r="1.85"/>
        <circle fill="#AEBDC4" cx="115.26" cy="72.44" r="1.85"/>
        <circle fill="#AEBDC4" cx="119.59" cy="72.44" r="1.85"/>
      </g>
      <g>
        <circle fill="#AEBDC4" cx="11.4" cy="66.51" r="1.85"/>
        <circle fill="#AEBDC4" cx="15.72" cy="66.51" r="1.85"/>
        <circle fill="#AEBDC4" cx="20.04" cy="66.51" r="1.85"/>
        <circle fill="#AEBDC4" cx="24.36" cy="66.51" r="1.85"/>
        <circle fill="#AEBDC4" cx="28.68" cy="66.51" r="1.85"/>
        <circle fill="#AEBDC4" cx="33.01" cy="66.51" r="1.85"/>
        <circle fill="#AEBDC4" cx="37.33" cy="66.51" r="1.85"/>
        <circle fill="#AEBDC4" cx="41.65" cy="66.51" r="1.85"/>
        <circle fill="#AEBDC4" cx="45.97" cy="66.51" r="1.85"/>
        <circle fill="#AEBDC4" cx="50.3" cy="66.51" r="1.85"/>
        <circle fill="#AEBDC4" cx="54.63" cy="66.51" r="1.85"/>
        <circle fill="#AEBDC4" cx="58.96" cy="66.51" r="1.85"/>
        <circle fill="#AEBDC4" cx="63.29" cy="66.51" r="1.85"/>
        <circle fill="#AEBDC4" cx="67.62" cy="66.51" r="1.85"/>
        <circle fill="#AEBDC4" cx="71.95" cy="66.51" r="1.85"/>
        <circle fill="#AEBDC4" cx="76.28" cy="66.51" r="1.85"/>
        <circle fill="#AEBDC4" cx="80.61" cy="66.51" r="1.85"/>
        <circle fill="#AEBDC4" cx="84.95" cy="66.51" r="1.85"/>
        <circle fill="#AEBDC4" cx="89.28" cy="66.51" r="1.85"/>
        <circle fill="#AEBDC4" cx="93.61" cy="66.51" r="1.85"/>
        <circle fill="#AEBDC4" cx="97.94" cy="66.51" r="1.85"/>
        <circle fill="#AEBDC4" cx="102.27" cy="66.51" r="1.85"/>
        <circle fill="#AEBDC4" cx="106.6" cy="66.51" r="1.85"/>
        <circle fill="#AEBDC4" cx="110.93" cy="66.51" r="1.85"/>
        <circle fill="#AEBDC4" cx="115.26" cy="66.51" r="1.85"/>
        <circle fill="#AEBDC4" cx="119.59" cy="66.51" r="1.85"/>
      </g>
      <g>
        <circle fill="#AEBDC4" cx="11.4" cy="60.58" r="1.85"/>
        <circle fill="#AEBDC4" cx="15.72" cy="60.58" r="1.85"/>
        <circle fill="#AEBDC4" cx="20.04" cy="60.58" r="1.85"/>
        <circle fill="#AEBDC4" cx="24.36" cy="60.58" r="1.85"/>
        <circle fill="#AEBDC4" cx="28.68" cy="60.58" r="1.85"/>
        <circle fill="#AEBDC4" cx="33.01" cy="60.58" r="1.85"/>
        <circle fill="#AEBDC4" cx="37.33" cy="60.58" r="1.85"/>
        <circle fill="#AEBDC4" cx="41.65" cy="60.58" r="1.85"/>
        <circle fill="#AEBDC4" cx="45.97" cy="60.58" r="1.85"/>
        <circle fill="#AEBDC4" cx="50.3" cy="60.58" r="1.85"/>
        <circle fill="#AEBDC4" cx="54.63" cy="60.58" r="1.85"/>
        <circle fill="#AEBDC4" cx="58.96" cy="60.58" r="1.85"/>
        <circle fill="#AEBDC4" cx="63.29" cy="60.58" r="1.85"/>
        <circle fill="#AEBDC4" cx="67.62" cy="60.58" r="1.85"/>
        <circle fill="#AEBDC4" cx="71.95" cy="60.58" r="1.85"/>
        <circle fill="#AEBDC4" cx="76.28" cy="60.58" r="1.85"/>
        <circle fill="#AEBDC4" cx="80.61" cy="60.58" r="1.85"/>
        <circle fill="#AEBDC4" cx="84.95" cy="60.58" r="1.85"/>
        <circle fill="#AEBDC4" cx="89.28" cy="60.58" r="1.85"/>
        <circle fill="#AEBDC4" cx="93.61" cy="60.58" r="1.85"/>
        <circle fill="#AEBDC4" cx="97.94" cy="60.58" r="1.85"/>
        <circle fill="#AEBDC4" cx="102.27" cy="60.58" r="1.85"/>
        <circle fill="#AEBDC4" cx="106.6" cy="60.58" r="1.85"/>
        <circle fill="#AEBDC4" cx="110.93" cy="60.58" r="1.85"/>
        <circle fill="#AEBDC4" cx="115.26" cy="60.58" r="1.85"/>
        <circle fill="#AEBDC4" cx="119.59" cy="60.58" r="1.85"/>
      </g>
      <g>
        <circle fill="#AEBDC4" cx="11.4" cy="54.65" r="1.85"/>
        <circle fill="#AEBDC4" cx="15.72" cy="54.65" r="1.85"/>
        <circle fill="#AEBDC4" cx="20.04" cy="54.65" r="1.85"/>
        <circle fill="#AEBDC4" cx="24.36" cy="54.65" r="1.85"/>
        <circle fill="#AEBDC4" cx="28.68" cy="54.65" r="1.85"/>
        <circle fill="#AEBDC4" cx="33.01" cy="54.65" r="1.85"/>
        <circle fill="#AEBDC4" cx="37.33" cy="54.65" r="1.85"/>
        <circle fill="#AEBDC4" cx="41.65" cy="54.65" r="1.85"/>
        <circle fill="#AEBDC4" cx="45.97" cy="54.65" r="1.85"/>
        <circle fill="#AEBDC4" cx="50.3" cy="54.65" r="1.85"/>
        <circle fill="#AEBDC4" cx="54.63" cy="54.65" r="1.85"/>
        <circle fill="#AEBDC4" cx="58.96" cy="54.65" r="1.85"/>
        <circle fill="#AEBDC4" cx="63.29" cy="54.65" r="1.85"/>
        <circle fill="#AEBDC4" cx="67.62" cy="54.65" r="1.85"/>
        <circle fill="#AEBDC4" cx="71.95" cy="54.65" r="1.85"/>
        <circle fill="#AEBDC4" cx="76.28" cy="54.65" r="1.85"/>
        <circle fill="#AEBDC4" cx="80.61" cy="54.65" r="1.85"/>
        <circle fill="#AEBDC4" cx="84.95" cy="54.65" r="1.85"/>
        <circle fill="#AEBDC4" cx="89.28" cy="54.65" r="1.85"/>
        <circle fill="#AEBDC4" cx="93.61" cy="54.65" r="1.85"/>
        <circle fill="#AEBDC4" cx="97.94" cy="54.65" r="1.85"/>
        <circle fill="#AEBDC4" cx="102.27" cy="54.65" r="1.85"/>
        <circle fill="#AEBDC4" cx="106.6" cy="54.65" r="1.85"/>
        <circle fill="#AEBDC4" cx="110.93" cy="54.65" r="1.85"/>
        <circle fill="#AEBDC4" cx="115.26" cy="54.65" r="1.85"/>
        <circle fill="#AEBDC4" cx="119.59" cy="54.65" r="1.85"/>
      </g>
      <g>
        <circle fill="#AEBDC4" cx="11.4" cy="48.72" r="1.85"/>
        <circle fill="#AEBDC4" cx="15.72" cy="48.72" r="1.85"/>
        <circle fill="#AEBDC4" cx="20.04" cy="48.72" r="1.85"/>
        <circle fill="#AEBDC4" cx="24.36" cy="48.72" r="1.85"/>
        <circle fill="#AEBDC4" cx="28.68" cy="48.72" r="1.85"/>
        <circle fill="#AEBDC4" cx="33.01" cy="48.72" r="1.85"/>
        <circle fill="#AEBDC4" cx="37.33" cy="48.72" r="1.85"/>
        <circle fill="#AEBDC4" cx="41.65" cy="48.72" r="1.85"/>
        <circle fill="#AEBDC4" cx="45.97" cy="48.72" r="1.85"/>
        <circle fill="#AEBDC4" cx="50.3" cy="48.72" r="1.85"/>
        <circle fill="#AEBDC4" cx="54.63" cy="48.72" r="1.85"/>
        <circle fill="#AEBDC4" cx="58.96" cy="48.72" r="1.85"/>
        <circle fill="#AEBDC4" cx="63.29" cy="48.72" r="1.85"/>
        <circle fill="#AEBDC4" cx="67.62" cy="48.72" r="1.85"/>
        <circle fill="#AEBDC4" cx="71.95" cy="48.72" r="1.85"/>
        <circle fill="#AEBDC4" cx="76.28" cy="48.72" r="1.85"/>
        <circle fill="#AEBDC4" cx="80.61" cy="48.72" r="1.85"/>
        <circle fill="#AEBDC4" cx="84.95" cy="48.72" r="1.85"/>
        <circle fill="#AEBDC4" cx="89.28" cy="48.72" r="1.85"/>
        <circle fill="#AEBDC4" cx="93.61" cy="48.72" r="1.85"/>
        <circle fill="#AEBDC4" cx="97.94" cy="48.72" r="1.85"/>
        <circle fill="#AEBDC4" cx="102.27" cy="48.72" r="1.85"/>
        <circle fill="#AEBDC4" cx="106.6" cy="48.72" r="1.85"/>
        <circle fill="#AEBDC4" cx="110.93" cy="48.72" r="1.85"/>
        <circle fill="#AEBDC4" cx="115.26" cy="48.72" r="1.85"/>
        <circle fill="#AEBDC4" cx="119.59" cy="48.72" r="1.85"/>
      </g>
      <g>
        <circle fill="#AEBDC4" cx="11.4" cy="42.78" r="1.85"/>
        <circle fill="#AEBDC4" cx="15.72" cy="42.78" r="1.85"/>
        <circle fill="#AEBDC4" cx="20.04" cy="42.78" r="1.85"/>
        <circle fill="#AEBDC4" cx="24.36" cy="42.78" r="1.85"/>
        <circle fill="#AEBDC4" cx="28.68" cy="42.78" r="1.85"/>
        <circle fill="#AEBDC4" cx="33.01" cy="42.78" r="1.85"/>
        <circle fill="#AEBDC4" cx="37.33" cy="42.78" r="1.85"/>
        <circle fill="#AEBDC4" cx="41.65" cy="42.78" r="1.85"/>
        <circle fill="#AEBDC4" cx="45.97" cy="42.78" r="1.85"/>
        <circle fill="#AEBDC4" cx="50.3" cy="42.78" r="1.85"/>
        <circle fill="#AEBDC4" cx="54.63" cy="42.78" r="1.85"/>
        <circle fill="#AEBDC4" cx="58.96" cy="42.78" r="1.85"/>
        <circle fill="#AEBDC4" cx="63.29" cy="42.78" r="1.85"/>
        <circle fill="#AEBDC4" cx="67.62" cy="42.78" r="1.85"/>
        <circle fill="#AEBDC4" cx="71.95" cy="42.78" r="1.85"/>
        <circle fill="#AEBDC4" cx="76.28" cy="42.78" r="1.85"/>
        <circle fill="#AEBDC4" cx="80.61" cy="42.78" r="1.85"/>
        <circle fill="#AEBDC4" cx="84.95" cy="42.78" r="1.85"/>
        <circle fill="#AEBDC4" cx="89.28" cy="42.78" r="1.85"/>
        <circle fill="#AEBDC4" cx="93.61" cy="42.78" r="1.85"/>
        <circle fill="#AEBDC4" cx="97.94" cy="42.78" r="1.85"/>
        <circle fill="#AEBDC4" cx="102.27" cy="42.78" r="1.85"/>
        <circle fill="#AEBDC4" cx="106.6" cy="42.78" r="1.85"/>
        <circle fill="#AEBDC4" cx="110.93" cy="42.78" r="1.85"/>
        <circle fill="#AEBDC4" cx="115.26" cy="42.78" r="1.85"/>
        <circle fill="#AEBDC4" cx="119.59" cy="42.78" r="1.85"/>
      </g>
      <g>
        <circle fill="#AEBDC4" cx="11.4" cy="36.85" r="1.85"/>
        <circle fill="#AEBDC4" cx="15.72" cy="36.85" r="1.85"/>
        <circle fill="#AEBDC4" cx="20.04" cy="36.85" r="1.85"/>
        <circle fill="#AEBDC4" cx="24.36" cy="36.85" r="1.85"/>
        <circle fill="#AEBDC4" cx="28.68" cy="36.85" r="1.85"/>
        <circle fill="#AEBDC4" cx="33.01" cy="36.85" r="1.85"/>
        <circle fill="#AEBDC4" cx="37.33" cy="36.85" r="1.85"/>
        <circle fill="#AEBDC4" cx="41.65" cy="36.85" r="1.85"/>
        <circle fill="#AEBDC4" cx="45.97" cy="36.85" r="1.85"/>
        <circle fill="#AEBDC4" cx="50.3" cy="36.85" r="1.85"/>
        <circle fill="#AEBDC4" cx="54.63" cy="36.85" r="1.85"/>
        <circle fill="#AEBDC4" cx="58.96" cy="36.85" r="1.85"/>
        <circle fill="#AEBDC4" cx="63.29" cy="36.85" r="1.85"/>
        <circle fill="#AEBDC4" cx="67.62" cy="36.85" r="1.85"/>
        <circle fill="#AEBDC4" cx="71.95" cy="36.85" r="1.85"/>
        <circle fill="#AEBDC4" cx="76.28" cy="36.85" r="1.85"/>
        <circle fill="#AEBDC4" cx="80.61" cy="36.85" r="1.85"/>
        <circle fill="#AEBDC4" cx="84.95" cy="36.85" r="1.85"/>
        <circle fill="#AEBDC4" cx="89.28" cy="36.85" r="1.85"/>
        <circle fill="#AEBDC4" cx="93.61" cy="36.85" r="1.85"/>
        <circle fill="#AEBDC4" cx="97.94" cy="36.85" r="1.85"/>
        <circle fill="#AEBDC4" cx="102.27" cy="36.85" r="1.85"/>
        <circle fill="#AEBDC4" cx="106.6" cy="36.85" r="1.85"/>
        <circle fill="#AEBDC4" cx="110.93" cy="36.85" r="1.85"/>
      </g>
      <g>
        <circle fill="#AEBDC4" cx="11.4" cy="30.92" r="1.85"/>
        <circle fill="#AEBDC4" cx="15.72" cy="30.92" r="1.85"/>
        <circle fill="#AEBDC4" cx="20.04" cy="30.92" r="1.85"/>
        <circle fill="#AEBDC4" cx="24.36" cy="30.92" r="1.85"/>
        <circle fill="#AEBDC4" cx="28.68" cy="30.92" r="1.85"/>
        <circle fill="#AEBDC4" cx="33.01" cy="30.92" r="1.85"/>
        <circle fill="#AEBDC4" cx="37.33" cy="30.92" r="1.85"/>
        <circle fill="#AEBDC4" cx="41.65" cy="30.92" r="1.85"/>
        <circle fill="#AEBDC4" cx="45.97" cy="30.92" r="1.85"/>
        <circle fill="#AEBDC4" cx="50.3" cy="30.92" r="1.85"/>
        <circle fill="#AEBDC4" cx="54.63" cy="30.92" r="1.85"/>
        <circle fill="#AEBDC4" cx="58.96" cy="30.92" r="1.85"/>
        <circle fill="#AEBDC4" cx="63.29" cy="30.92" r="1.85"/>
        <circle fill="#AEBDC4" cx="67.62" cy="30.92" r="1.85"/>
        <circle fill="#AEBDC4" cx="71.95" cy="30.92" r="1.85"/>
        <circle fill="#AEBDC4" cx="76.28" cy="30.92" r="1.85"/>
        <circle fill="#AEBDC4" cx="80.61" cy="30.92" r="1.85"/>
        <circle fill="#AEBDC4" cx="84.95" cy="30.92" r="1.85"/>
        <circle fill="#AEBDC4" cx="89.28" cy="30.92" r="1.85"/>
        <circle fill="#AEBDC4" cx="93.61" cy="30.92" r="1.85"/>
      </g>
      <g>
        <circle fill="#AEBDC4" cx="11.4" cy="24.99" r="1.85"/>
        <circle fill="#AEBDC4" cx="15.72" cy="24.99" r="1.85"/>
        <circle fill="#AEBDC4" cx="20.04" cy="24.99" r="1.85"/>
        <circle fill="#AEBDC4" cx="24.36" cy="24.99" r="1.85"/>
        <circle fill="#AEBDC4" cx="28.68" cy="24.99" r="1.85"/>
        <circle fill="#AEBDC4" cx="33.01" cy="24.99" r="1.85"/>
        <circle fill="#AEBDC4" cx="37.33" cy="24.99" r="1.85"/>
        <circle fill="#AEBDC4" cx="41.65" cy="24.99" r="1.85"/>
        <circle fill="#AEBDC4" cx="45.97" cy="24.99" r="1.85"/>
        <circle fill="#AEBDC4" cx="50.3" cy="24.99" r="1.85"/>
        <circle fill="#AEBDC4" cx="54.63" cy="24.99" r="1.85"/>
        <circle fill="#AEBDC4" cx="58.96" cy="24.99" r="1.85"/>
        <circle fill="#AEBDC4" cx="63.29" cy="24.99" r="1.85"/>
      </g>
      <g>
        <circle fill="#AEBDC4" cx="11.4" cy="19.06" r="1.85"/>
        <circle fill="#AEBDC4" cx="15.72" cy="19.06" r="1.85"/>
        <circle fill="#AEBDC4" cx="20.04" cy="19.06" r="1.85"/>
        <circle fill="#AEBDC4" cx="24.36" cy="19.06" r="1.85"/>
        <circle fill="#AEBDC4" cx="28.68" cy="19.06" r="1.85"/>
      </g>
    </g>
  </svg>
