<?xml version="1.0" encoding="utf-8"?>
<!-- Generator: Adobe Illustrator 23.0.1, SVG Export Plug-In . SVG Version: 6.00 Build 0)  -->
<svg version="1.1" id="Layer_1" xmlns="http://www.w3.org/2000/svg" xmlns:xlink="http://www.w3.org/1999/xlink" x="0px" y="0px"
  viewBox="0 0 131 61" enable-background="new 0 0 131 61" xml:space="preserve">
  <rect x="0.52" y="0.67" fill="#F1F3F4" stroke="#BCC8CE" stroke-width="0.4" stroke-linecap="round" stroke-miterlimit="10" width="129.95" height="59.61"/>
  <g 
    data-sort-seat-direction="ltr" 
    data-sort-line-direction="btt" 
    data-sort-seat-option="cx" 
    data-sort-line-option="cy" 
    data-line-start="1"
    >
    
    <g>
      <circle fill="#AEBDC4" cx="15.65" cy="51.23" r="1.85"/>
      <circle fill="#AEBDC4" cx="19.97" cy="51.23" r="1.85"/>
      <circle fill="#AEBDC4" cx="24.29" cy="51.23" r="1.85"/>
      <circle fill="#AEBDC4" cx="28.61" cy="51.23" r="1.85"/>
      <circle fill="#AEBDC4" cx="32.93" cy="51.23" r="1.85"/>
      <circle fill="#AEBDC4" cx="37.25" cy="51.23" r="1.85"/>
      <circle fill="#AEBDC4" cx="41.58" cy="51.23" r="1.85"/>
      <circle fill="#AEBDC4" cx="45.9" cy="51.23" r="1.85"/>
      <circle fill="#AEBDC4" cx="50.22" cy="51.23" r="1.85"/>
      <circle fill="#AEBDC4" cx="54.55" cy="51.23" r="1.85"/>
      <circle fill="#AEBDC4" cx="58.88" cy="51.23" r="1.85"/>
      <circle fill="#AEBDC4" cx="63.21" cy="51.23" r="1.85"/>
      <circle fill="#AEBDC4" cx="67.54" cy="51.23" r="1.85"/>
      <circle fill="#AEBDC4" cx="71.87" cy="51.23" r="1.85"/>
      <circle fill="#AEBDC4" cx="76.2" cy="51.23" r="1.85"/>
      <circle fill="#AEBDC4" cx="80.53" cy="51.23" r="1.85"/>
      <circle fill="#AEBDC4" cx="84.86" cy="51.23" r="1.85"/>
      <circle fill="#AEBDC4" cx="89.19" cy="51.23" r="1.85"/>
      <circle fill="#AEBDC4" cx="93.52" cy="51.23" r="1.85"/>
      <circle fill="#AEBDC4" cx="97.86" cy="51.23" r="1.85"/>
      <circle fill="#AEBDC4" cx="102.19" cy="51.23" r="1.85"/>
      <circle fill="#AEBDC4" cx="106.52" cy="51.23" r="1.85"/>
      <circle fill="#AEBDC4" cx="110.85" cy="51.23" r="1.85"/>
      <circle fill="#AEBDC4" cx="115.18" cy="51.23" r="1.85"/>
    </g>
    <g>
      <circle fill="#AEBDC4" cx="15.65" cy="45.3" r="1.85"/>
      <circle fill="#AEBDC4" cx="19.97" cy="45.3" r="1.85"/>
      <circle fill="#AEBDC4" cx="24.29" cy="45.3" r="1.85"/>
      <circle fill="#AEBDC4" cx="28.61" cy="45.3" r="1.85"/>
      <circle fill="#AEBDC4" cx="32.93" cy="45.3" r="1.85"/>
      <circle fill="#AEBDC4" cx="37.25" cy="45.3" r="1.85"/>
      <circle fill="#AEBDC4" cx="41.58" cy="45.3" r="1.85"/>
      <circle fill="#AEBDC4" cx="45.9" cy="45.3" r="1.85"/>
      <circle fill="#AEBDC4" cx="50.22" cy="45.3" r="1.85"/>
      <circle fill="#AEBDC4" cx="54.55" cy="45.3" r="1.85"/>
      <circle fill="#AEBDC4" cx="58.88" cy="45.3" r="1.85"/>
      <circle fill="#AEBDC4" cx="63.21" cy="45.3" r="1.85"/>
      <circle fill="#AEBDC4" cx="67.54" cy="45.3" r="1.85"/>
      <circle fill="#AEBDC4" cx="71.87" cy="45.3" r="1.85"/>
      <circle fill="#AEBDC4" cx="76.2" cy="45.3" r="1.85"/>
      <circle fill="#AEBDC4" cx="80.53" cy="45.3" r="1.85"/>
      <circle fill="#AEBDC4" cx="84.86" cy="45.3" r="1.85"/>
      <circle fill="#AEBDC4" cx="89.19" cy="45.3" r="1.85"/>
      <circle fill="#AEBDC4" cx="93.52" cy="45.3" r="1.85"/>
      <circle fill="#AEBDC4" cx="97.86" cy="45.3" r="1.85"/>
      <circle fill="#AEBDC4" cx="102.19" cy="45.3" r="1.85"/>
      <circle fill="#AEBDC4" cx="106.52" cy="45.3" r="1.85"/>
      <circle fill="#AEBDC4" cx="110.85" cy="45.3" r="1.85"/>
      <circle fill="#AEBDC4" cx="115.18" cy="45.3" r="1.85"/>
    </g>
    <g>
      <circle fill="#AEBDC4" cx="15.65" cy="39.37" r="1.85"/>
      <circle fill="#AEBDC4" cx="19.97" cy="39.37" r="1.85"/>
      <circle fill="#AEBDC4" cx="24.29" cy="39.37" r="1.85"/>
      <circle fill="#AEBDC4" cx="28.61" cy="39.37" r="1.85"/>
      <circle fill="#AEBDC4" cx="32.93" cy="39.37" r="1.85"/>
      <circle fill="#AEBDC4" cx="37.25" cy="39.37" r="1.85"/>
      <circle fill="#AEBDC4" cx="41.58" cy="39.37" r="1.85"/>
      <circle fill="#AEBDC4" cx="45.9" cy="39.37" r="1.85"/>
      <circle fill="#AEBDC4" cx="50.22" cy="39.37" r="1.85"/>
      <circle fill="#AEBDC4" cx="54.55" cy="39.37" r="1.85"/>
      <circle fill="#AEBDC4" cx="58.88" cy="39.37" r="1.85"/>
      <circle fill="#AEBDC4" cx="63.21" cy="39.37" r="1.85"/>
      <circle fill="#AEBDC4" cx="67.54" cy="39.37" r="1.85"/>
      <circle fill="#AEBDC4" cx="71.87" cy="39.37" r="1.85"/>
      <circle fill="#AEBDC4" cx="76.2" cy="39.37" r="1.85"/>
      <circle fill="#AEBDC4" cx="80.53" cy="39.37" r="1.85"/>
      <circle fill="#AEBDC4" cx="84.86" cy="39.37" r="1.85"/>
      <circle fill="#AEBDC4" cx="89.19" cy="39.37" r="1.85"/>
      <circle fill="#AEBDC4" cx="93.52" cy="39.37" r="1.85"/>
      <circle fill="#AEBDC4" cx="97.86" cy="39.37" r="1.85"/>
      <circle fill="#AEBDC4" cx="102.19" cy="39.37" r="1.85"/>
      <circle fill="#AEBDC4" cx="106.52" cy="39.37" r="1.85"/>
      <circle fill="#AEBDC4" cx="110.85" cy="39.37" r="1.85"/>
      <circle fill="#AEBDC4" cx="115.18" cy="39.37" r="1.85"/>
    </g>
    <g>
      <circle fill="#AEBDC4" cx="15.65" cy="33.44" r="1.85"/>
      <circle fill="#AEBDC4" cx="19.97" cy="33.44" r="1.85"/>
      <circle fill="#AEBDC4" cx="24.29" cy="33.44" r="1.85"/>
      <circle fill="#AEBDC4" cx="28.61" cy="33.44" r="1.85"/>
      <circle fill="#AEBDC4" cx="32.93" cy="33.44" r="1.85"/>
      <circle fill="#AEBDC4" cx="37.25" cy="33.44" r="1.85"/>
      <circle fill="#AEBDC4" cx="41.58" cy="33.44" r="1.85"/>
      <circle fill="#AEBDC4" cx="45.9" cy="33.44" r="1.85"/>
      <circle fill="#AEBDC4" cx="50.22" cy="33.44" r="1.85"/>
      <circle fill="#AEBDC4" cx="54.55" cy="33.44" r="1.85"/>
      <circle fill="#AEBDC4" cx="58.88" cy="33.44" r="1.85"/>
      <circle fill="#AEBDC4" cx="63.21" cy="33.44" r="1.85"/>
      <circle fill="#AEBDC4" cx="67.54" cy="33.44" r="1.85"/>
      <circle fill="#AEBDC4" cx="71.87" cy="33.44" r="1.85"/>
      <circle fill="#AEBDC4" cx="76.2" cy="33.44" r="1.85"/>
      <circle fill="#AEBDC4" cx="80.53" cy="33.44" r="1.85"/>
      <circle fill="#AEBDC4" cx="84.86" cy="33.44" r="1.85"/>
      <circle fill="#AEBDC4" cx="89.19" cy="33.44" r="1.85"/>
      <circle fill="#AEBDC4" cx="93.52" cy="33.44" r="1.85"/>
      <circle fill="#AEBDC4" cx="97.86" cy="33.44" r="1.85"/>
      <circle fill="#AEBDC4" cx="102.19" cy="33.44" r="1.85"/>
      <circle fill="#AEBDC4" cx="106.52" cy="33.44" r="1.85"/>
      <circle fill="#AEBDC4" cx="110.85" cy="33.44" r="1.85"/>
      <circle fill="#AEBDC4" cx="115.18" cy="33.44" r="1.85"/>
    </g>
    <g>
      <circle fill="#AEBDC4" cx="15.65" cy="27.5" r="1.85"/>
      <circle fill="#AEBDC4" cx="19.97" cy="27.5" r="1.85"/>
      <circle fill="#AEBDC4" cx="24.29" cy="27.5" r="1.85"/>
      <circle fill="#AEBDC4" cx="28.61" cy="27.5" r="1.85"/>
      <circle fill="#AEBDC4" cx="32.93" cy="27.5" r="1.85"/>
      <circle fill="#AEBDC4" cx="37.25" cy="27.5" r="1.85"/>
      <circle fill="#AEBDC4" cx="41.58" cy="27.5" r="1.85"/>
      <circle fill="#AEBDC4" cx="45.9" cy="27.5" r="1.85"/>
      <circle fill="#AEBDC4" cx="50.22" cy="27.5" r="1.85"/>
      <circle fill="#AEBDC4" cx="54.55" cy="27.5" r="1.85"/>
      <circle fill="#AEBDC4" cx="58.88" cy="27.5" r="1.85"/>
      <circle fill="#AEBDC4" cx="63.21" cy="27.5" r="1.85"/>
      <circle fill="#AEBDC4" cx="67.54" cy="27.5" r="1.85"/>
      <circle fill="#AEBDC4" cx="71.87" cy="27.5" r="1.85"/>
      <circle fill="#AEBDC4" cx="76.2" cy="27.5" r="1.85"/>
      <circle fill="#AEBDC4" cx="80.53" cy="27.5" r="1.85"/>
      <circle fill="#AEBDC4" cx="84.86" cy="27.5" r="1.85"/>
      <circle fill="#AEBDC4" cx="89.19" cy="27.5" r="1.85"/>
      <circle fill="#AEBDC4" cx="93.52" cy="27.5" r="1.85"/>
      <circle fill="#AEBDC4" cx="97.86" cy="27.5" r="1.85"/>
      <circle fill="#AEBDC4" cx="102.19" cy="27.5" r="1.85"/>
      <circle fill="#AEBDC4" cx="106.52" cy="27.5" r="1.85"/>
      <circle fill="#AEBDC4" cx="110.85" cy="27.5" r="1.85"/>
      <circle fill="#AEBDC4" cx="115.18" cy="27.5" r="1.85"/>
    </g>
    <g>
      <circle fill="#AEBDC4" cx="15.65" cy="21.57" r="1.85"/>
      <circle fill="#AEBDC4" cx="19.97" cy="21.57" r="1.85"/>
      <circle fill="#AEBDC4" cx="24.29" cy="21.57" r="1.85"/>
      <circle fill="#AEBDC4" cx="28.61" cy="21.57" r="1.85"/>
      <circle fill="#AEBDC4" cx="32.93" cy="21.57" r="1.85"/>
      <circle fill="#AEBDC4" cx="37.25" cy="21.57" r="1.85"/>
      <circle fill="#AEBDC4" cx="41.58" cy="21.57" r="1.85"/>
      <circle fill="#AEBDC4" cx="45.9" cy="21.57" r="1.85"/>
      <circle fill="#AEBDC4" cx="50.22" cy="21.57" r="1.85"/>
      <circle fill="#AEBDC4" cx="54.55" cy="21.57" r="1.85"/>
      <circle fill="#AEBDC4" cx="58.88" cy="21.57" r="1.85"/>
      <circle fill="#AEBDC4" cx="63.21" cy="21.57" r="1.85"/>
      <circle fill="#AEBDC4" cx="67.54" cy="21.57" r="1.85"/>
      <circle fill="#AEBDC4" cx="71.87" cy="21.57" r="1.85"/>
      <circle fill="#AEBDC4" cx="76.2" cy="21.57" r="1.85"/>
      <circle fill="#AEBDC4" cx="80.53" cy="21.57" r="1.85"/>
      <circle fill="#AEBDC4" cx="84.86" cy="21.57" r="1.85"/>
      <circle fill="#AEBDC4" cx="89.19" cy="21.57" r="1.85"/>
      <circle fill="#AEBDC4" cx="93.52" cy="21.57" r="1.85"/>
      <circle fill="#AEBDC4" cx="97.86" cy="21.57" r="1.85"/>
      <circle fill="#AEBDC4" cx="102.19" cy="21.57" r="1.85"/>
      <circle fill="#AEBDC4" cx="106.52" cy="21.57" r="1.85"/>
      <circle fill="#AEBDC4" cx="110.85" cy="21.57" r="1.85"/>
      <circle fill="#AEBDC4" cx="115.18" cy="21.57" r="1.85"/>
    </g>
    <g>
      <circle fill="#AEBDC4" cx="15.65" cy="15.64" r="1.85"/>
      <circle fill="#AEBDC4" cx="19.97" cy="15.64" r="1.85"/>
      <circle fill="#AEBDC4" cx="24.29" cy="15.64" r="1.85"/>
      <circle fill="#AEBDC4" cx="28.61" cy="15.64" r="1.85"/>
      <circle fill="#AEBDC4" cx="32.93" cy="15.64" r="1.85"/>
      <circle fill="#AEBDC4" cx="37.25" cy="15.64" r="1.85"/>
      <circle fill="#AEBDC4" cx="41.58" cy="15.64" r="1.85"/>
      <circle fill="#AEBDC4" cx="45.9" cy="15.64" r="1.85"/>
      <circle fill="#AEBDC4" cx="50.22" cy="15.64" r="1.85"/>
      <circle fill="#AEBDC4" cx="54.55" cy="15.64" r="1.85"/>
      <circle fill="#AEBDC4" cx="58.88" cy="15.64" r="1.85"/>
      <circle fill="#AEBDC4" cx="63.21" cy="15.64" r="1.85"/>
      <circle fill="#AEBDC4" cx="67.54" cy="15.64" r="1.85"/>
      <circle fill="#AEBDC4" cx="71.87" cy="15.64" r="1.85"/>
      <circle fill="#AEBDC4" cx="76.2" cy="15.64" r="1.85"/>
      <circle fill="#AEBDC4" cx="80.53" cy="15.64" r="1.85"/>
      <circle fill="#AEBDC4" cx="84.86" cy="15.64" r="1.85"/>
      <circle fill="#AEBDC4" cx="89.19" cy="15.64" r="1.85"/>
      <circle fill="#AEBDC4" cx="93.52" cy="15.64" r="1.85"/>
      <circle fill="#AEBDC4" cx="97.86" cy="15.64" r="1.85"/>
      <circle fill="#AEBDC4" cx="102.19" cy="15.64" r="1.85"/>
      <circle fill="#AEBDC4" cx="106.52" cy="15.64" r="1.85"/>
      <circle fill="#AEBDC4" cx="110.85" cy="15.64" r="1.85"/>
      <circle fill="#AEBDC4" cx="115.18" cy="15.64" r="1.85"/>
    </g>
    <g>
      <circle fill="#AEBDC4" cx="15.65" cy="9.71" r="1.85"/>
      <circle fill="#AEBDC4" cx="19.97" cy="9.71" r="1.85"/>
      <circle fill="#AEBDC4" cx="24.29" cy="9.71" r="1.85"/>
      <circle fill="#AEBDC4" cx="28.61" cy="9.71" r="1.85"/>
      <circle fill="#AEBDC4" cx="32.93" cy="9.71" r="1.85"/>
      <circle fill="#AEBDC4" cx="37.25" cy="9.71" r="1.85"/>
      <circle fill="#AEBDC4" cx="41.58" cy="9.71" r="1.85"/>
      <circle fill="#AEBDC4" cx="45.9" cy="9.71" r="1.85"/>
      <circle fill="#AEBDC4" cx="50.22" cy="9.71" r="1.85"/>
      <circle fill="#AEBDC4" cx="54.55" cy="9.71" r="1.85"/>
      <circle fill="#AEBDC4" cx="58.88" cy="9.71" r="1.85"/>
      <circle fill="#AEBDC4" cx="63.21" cy="9.71" r="1.85"/>
      <circle fill="#AEBDC4" cx="67.54" cy="9.71" r="1.85"/>
      <circle fill="#AEBDC4" cx="71.87" cy="9.71" r="1.85"/>
      <circle fill="#AEBDC4" cx="76.2" cy="9.71" r="1.85"/>
      <circle fill="#AEBDC4" cx="80.53" cy="9.71" r="1.85"/>
      <circle fill="#AEBDC4" cx="84.86" cy="9.71" r="1.85"/>
      <circle fill="#AEBDC4" cx="89.19" cy="9.71" r="1.85"/>
      <circle fill="#AEBDC4" cx="93.52" cy="9.71" r="1.85"/>
      <circle fill="#AEBDC4" cx="97.86" cy="9.71" r="1.85"/>
      <circle fill="#AEBDC4" cx="102.19" cy="9.71" r="1.85"/>
      <circle fill="#AEBDC4" cx="106.52" cy="9.71" r="1.85"/>
      <circle fill="#AEBDC4" cx="110.85" cy="9.71" r="1.85"/>
      <circle fill="#AEBDC4" cx="115.18" cy="9.71" r="1.85"/>
    </g>
  </g>
</svg>
