<?xml version="1.0" encoding="utf-8"?>
<!-- Generator: Adobe Illustrator 23.0.1, SVG Export Plug-In . SVG Version: 6.00 Build 0)  -->
<svg version="1.1" id="Layer_1" xmlns="http://www.w3.org/2000/svg" xmlns:xlink="http://www.w3.org/1999/xlink" x="0px" y="0px"
	 viewBox="0 0 113 167" style="enable-background:new 0 0 113 167;" xml:space="preserve">
<style type="text/css">
	.st0{fill:#F1F3F4;stroke:#BCC8CE;stroke-width:0.4;stroke-linecap:round;stroke-miterlimit:10;}
	.st1{fill:#AEBDC4;}
	.st2{font-family:'Roboto-Medium';}
	.st3{font-size:3px;}
</style>
<polygon class="st0" points="0.4,166.7 52.3,0.3 112.7,0.3 112.7,166.7 "/>
<g>
	<g>
		<circle class="st1" cx="60.7" cy="158.1" r="1.8"/>
		<circle class="st1" cx="65" cy="158.1" r="1.8"/>
		<circle class="st1" cx="69.4" cy="158.1" r="1.8"/>
		<circle class="st1" cx="73.7" cy="158.1" r="1.8"/>
		<circle class="st1" cx="78" cy="158.1" r="1.8"/>
		<circle class="st1" cx="82.3" cy="158.1" r="1.8"/>
		<circle class="st1" cx="86.7" cy="158.1" r="1.8"/>
		<circle class="st1" cx="91" cy="158.1" r="1.8"/>
		<circle class="st1" cx="95.3" cy="158.1" r="1.8"/>
		<circle class="st1" cx="99.7" cy="158.1" r="1.8"/>
		<text transform="matrix(1 0 0 1 102.8008 159.1514)" class="st1 st2 st3">00</text>
		<text transform="matrix(1 0 0 1 54.2006 159.1514)" class="st1 st2 st3">00</text>
	</g>
	<g>
		<circle class="st1" cx="60.7" cy="152.1" r="1.8"/>
		<circle class="st1" cx="65" cy="152.1" r="1.8"/>
		<circle class="st1" cx="69.4" cy="152.1" r="1.8"/>
		<circle class="st1" cx="73.7" cy="152.1" r="1.8"/>
		<circle class="st1" cx="78" cy="152.1" r="1.8"/>
		<circle class="st1" cx="82.3" cy="152.1" r="1.8"/>
		<circle class="st1" cx="86.7" cy="152.1" r="1.8"/>
		<circle class="st1" cx="91" cy="152.1" r="1.8"/>
		<circle class="st1" cx="95.3" cy="152.1" r="1.8"/>
		<circle class="st1" cx="99.7" cy="152.1" r="1.8"/>
		<text transform="matrix(1 0 0 1 102.8008 153.1514)" class="st1 st2 st3">00</text>
		<text transform="matrix(1 0 0 1 54.2006 153.1514)" class="st1 st2 st3">00</text>
	</g>
	<g>
		<circle class="st1" cx="60.7" cy="146.1" r="1.8"/>
		<circle class="st1" cx="65" cy="146.1" r="1.8"/>
		<circle class="st1" cx="69.4" cy="146.1" r="1.8"/>
		<circle class="st1" cx="73.7" cy="146.1" r="1.8"/>
		<circle class="st1" cx="78" cy="146.1" r="1.8"/>
		<circle class="st1" cx="82.3" cy="146.1" r="1.8"/>
		<circle class="st1" cx="86.7" cy="146.1" r="1.8"/>
		<circle class="st1" cx="91" cy="146.1" r="1.8"/>
		<circle class="st1" cx="95.3" cy="146.1" r="1.8"/>
		<circle class="st1" cx="99.7" cy="146.1" r="1.8"/>
		<text transform="matrix(1 0 0 1 102.8008 147.1514)" class="st1 st2 st3">00</text>
		<text transform="matrix(1 0 0 1 54.2006 147.1514)" class="st1 st2 st3">00</text>
	</g>
	<g>
		<circle class="st1" cx="60.7" cy="140.1" r="1.8"/>
		<circle class="st1" cx="65.1" cy="140.1" r="1.8"/>
		<circle class="st1" cx="69.4" cy="140.1" r="1.8"/>
		<circle class="st1" cx="73.7" cy="140.1" r="1.8"/>
		<circle class="st1" cx="78" cy="140.1" r="1.8"/>
		<circle class="st1" cx="82.4" cy="140.1" r="1.8"/>
		<circle class="st1" cx="86.7" cy="140.1" r="1.8"/>
		<circle class="st1" cx="91" cy="140.1" r="1.8"/>
		<text transform="matrix(1 0 0 1 94.1008 141.1514)" class="st1 st2 st3">00</text>
		<text transform="matrix(1 0 0 1 54.2007 141.1514)" class="st1 st2 st3">00</text>
	</g>
	<g>
		<circle class="st1" cx="60.7" cy="134.1" r="1.8"/>
		<circle class="st1" cx="65.1" cy="134.1" r="1.8"/>
		<circle class="st1" cx="69.4" cy="134.1" r="1.8"/>
		<circle class="st1" cx="73.7" cy="134.1" r="1.8"/>
		<circle class="st1" cx="78" cy="134.1" r="1.8"/>
		<circle class="st1" cx="82.4" cy="134.1" r="1.8"/>
		<circle class="st1" cx="86.7" cy="134.1" r="1.8"/>
		<circle class="st1" cx="91" cy="134.1" r="1.8"/>
		<text transform="matrix(1 0 0 1 94.1008 135.1514)" class="st1 st2 st3">00</text>
		<text transform="matrix(1 0 0 1 54.2007 135.1514)" class="st1 st2 st3">00</text>
	</g>
	<g>
		<circle class="st1" cx="58.4" cy="128.1" r="1.8"/>
		<circle class="st1" cx="62.8" cy="128.1" r="1.8"/>
		<circle class="st1" cx="67.1" cy="128.1" r="1.8"/>
		<circle class="st1" cx="71.4" cy="128.1" r="1.8"/>
		<circle class="st1" cx="75.7" cy="128.1" r="1.8"/>
		<circle class="st1" cx="80.1" cy="128.1" r="1.8"/>
		<circle class="st1" cx="84.4" cy="128.1" r="1.8"/>
		<circle class="st1" cx="88.7" cy="128.1" r="1.8"/>
		<text transform="matrix(1 0 0 1 91.8502 129.1514)" class="st1 st2 st3">00</text>
		<text transform="matrix(1 0 0 1 51.9501 129.1514)" class="st1 st2 st3">00</text>
	</g>
	<g>
		<circle class="st1" cx="34.8" cy="122.1" r="1.8"/>
		<circle class="st1" cx="39.1" cy="122.1" r="1.8"/>
		<circle class="st1" cx="43.5" cy="122.1" r="1.8"/>
		<circle class="st1" cx="47.8" cy="122.1" r="1.8"/>
		<circle class="st1" cx="52.1" cy="122.1" r="1.8"/>
		<circle class="st1" cx="56.4" cy="122.1" r="1.8"/>
		<circle class="st1" cx="60.7" cy="122.1" r="1.8"/>
		<circle class="st1" cx="65.1" cy="122.1" r="1.8"/>
		<circle class="st1" cx="69.4" cy="122.1" r="1.8"/>
		<circle class="st1" cx="73.7" cy="122.1" r="1.8"/>
		<circle class="st1" cx="78" cy="122.1" r="1.8"/>
		<circle class="st1" cx="82.4" cy="122.1" r="1.8"/>
		<circle class="st1" cx="86.7" cy="122.1" r="1.8"/>
		<circle class="st1" cx="91" cy="122.1" r="1.8"/>
		<text transform="matrix(1 0 0 1 94.1008 123.1514)" class="st1 st2 st3">00</text>
		<text transform="matrix(1 0 0 1 28.3007 123.1514)" class="st1 st2 st3">00</text>
	</g>
	<g>
		<circle class="st1" cx="39.1" cy="116.1" r="1.8"/>
		<circle class="st1" cx="43.5" cy="116.1" r="1.8"/>
		<circle class="st1" cx="47.8" cy="116.1" r="1.8"/>
		<circle class="st1" cx="52.1" cy="116.1" r="1.8"/>
		<circle class="st1" cx="56.4" cy="116.1" r="1.8"/>
		<circle class="st1" cx="60.7" cy="116.1" r="1.8"/>
		<circle class="st1" cx="65.1" cy="116.1" r="1.8"/>
		<circle class="st1" cx="69.4" cy="116.1" r="1.8"/>
		<circle class="st1" cx="73.7" cy="116.1" r="1.8"/>
		<circle class="st1" cx="78" cy="116.1" r="1.8"/>
		<circle class="st1" cx="82.4" cy="116.1" r="1.8"/>
		<circle class="st1" cx="86.7" cy="116.1" r="1.8"/>
		<circle class="st1" cx="91" cy="116.1" r="1.8"/>
		<text transform="matrix(1 0 0 1 94.1008 117.1514)" class="st1 st2 st3">00</text>
		<text transform="matrix(1 0 0 1 32.6007 117.1514)" class="st1 st2 st3">00</text>
	</g>
	<g>
		<circle class="st1" cx="39.1" cy="110.2" r="1.8"/>
		<circle class="st1" cx="43.4" cy="110.2" r="1.8"/>
		<circle class="st1" cx="47.8" cy="110.2" r="1.8"/>
		<circle class="st1" cx="52.1" cy="110.2" r="1.8"/>
		<circle class="st1" cx="56.4" cy="110.2" r="1.8"/>
		<circle class="st1" cx="60.7" cy="110.2" r="1.8"/>
		<circle class="st1" cx="65" cy="110.2" r="1.8"/>
		<circle class="st1" cx="69.4" cy="110.2" r="1.8"/>
		<circle class="st1" cx="73.7" cy="110.2" r="1.8"/>
		<circle class="st1" cx="78" cy="110.2" r="1.8"/>
		<circle class="st1" cx="82.3" cy="110.2" r="1.8"/>
		<circle class="st1" cx="86.7" cy="110.2" r="1.8"/>
		<circle class="st1" cx="91" cy="110.2" r="1.8"/>
		<circle class="st1" cx="95.3" cy="110.2" r="1.8"/>
		<circle class="st1" cx="99.7" cy="110.2" r="1.8"/>
		<text transform="matrix(1 0 0 1 102.8008 111.2513)" class="st1 st2 st3">00</text>
		<text transform="matrix(1 0 0 1 32.6006 111.2513)" class="st1 st2 st3">00</text>
	</g>
	<g>
		<circle class="st1" cx="39.1" cy="104.3" r="1.8"/>
		<circle class="st1" cx="43.4" cy="104.3" r="1.8"/>
		<circle class="st1" cx="47.8" cy="104.3" r="1.8"/>
		<circle class="st1" cx="52.1" cy="104.3" r="1.8"/>
		<circle class="st1" cx="56.4" cy="104.3" r="1.8"/>
		<circle class="st1" cx="60.7" cy="104.3" r="1.8"/>
		<circle class="st1" cx="65" cy="104.3" r="1.8"/>
		<circle class="st1" cx="69.4" cy="104.3" r="1.8"/>
		<circle class="st1" cx="73.7" cy="104.3" r="1.8"/>
		<circle class="st1" cx="78" cy="104.3" r="1.8"/>
		<circle class="st1" cx="82.3" cy="104.3" r="1.8"/>
		<circle class="st1" cx="86.7" cy="104.3" r="1.8"/>
		<circle class="st1" cx="91" cy="104.3" r="1.8"/>
		<circle class="st1" cx="95.3" cy="104.3" r="1.8"/>
		<circle class="st1" cx="99.7" cy="104.3" r="1.8"/>
		<text transform="matrix(1 0 0 1 102.8008 105.3513)" class="st1 st2 st3">00</text>
		<text transform="matrix(1 0 0 1 32.6006 105.3513)" class="st1 st2 st3">00</text>
	</g>
	<g>
		<circle class="st1" cx="43.5" cy="98.3" r="1.8"/>
		<circle class="st1" cx="47.8" cy="98.3" r="1.8"/>
		<circle class="st1" cx="52.1" cy="98.3" r="1.8"/>
		<circle class="st1" cx="56.4" cy="98.3" r="1.8"/>
		<circle class="st1" cx="60.7" cy="98.3" r="1.8"/>
		<circle class="st1" cx="65.1" cy="98.3" r="1.8"/>
		<circle class="st1" cx="69.4" cy="98.3" r="1.8"/>
		<circle class="st1" cx="73.7" cy="98.3" r="1.8"/>
		<circle class="st1" cx="78" cy="98.3" r="1.8"/>
		<circle class="st1" cx="82.3" cy="98.3" r="1.8"/>
		<circle class="st1" cx="86.7" cy="98.3" r="1.8"/>
		<circle class="st1" cx="91" cy="98.3" r="1.8"/>
		<circle class="st1" cx="95.3" cy="98.3" r="1.8"/>
		<circle class="st1" cx="99.7" cy="98.3" r="1.8"/>
		<text transform="matrix(1 0 0 1 102.8008 99.3513)" class="st1 st2 st3">00</text>
		<text transform="matrix(1 0 0 1 37.0006 99.3513)" class="st1 st2 st3">00</text>
	</g>
	<g>
		<circle class="st1" cx="43.5" cy="92.4" r="1.8"/>
		<circle class="st1" cx="47.8" cy="92.4" r="1.8"/>
		<circle class="st1" cx="52.1" cy="92.4" r="1.8"/>
		<circle class="st1" cx="56.4" cy="92.4" r="1.8"/>
		<circle class="st1" cx="60.7" cy="92.4" r="1.8"/>
		<circle class="st1" cx="65.1" cy="92.4" r="1.8"/>
		<circle class="st1" cx="69.4" cy="92.4" r="1.8"/>
		<circle class="st1" cx="73.7" cy="92.4" r="1.8"/>
		<circle class="st1" cx="78" cy="92.4" r="1.8"/>
		<circle class="st1" cx="82.3" cy="92.4" r="1.8"/>
		<circle class="st1" cx="86.7" cy="92.4" r="1.8"/>
		<circle class="st1" cx="91" cy="92.4" r="1.8"/>
		<circle class="st1" cx="95.3" cy="92.4" r="1.8"/>
		<circle class="st1" cx="99.7" cy="92.4" r="1.8"/>
		<text transform="matrix(1 0 0 1 102.8008 93.4513)" class="st1 st2 st3">00</text>
		<text transform="matrix(1 0 0 1 37.0006 93.4513)" class="st1 st2 st3">00</text>
	</g>
	<g>
		<circle class="st1" cx="43.5" cy="86.5" r="1.8"/>
		<circle class="st1" cx="47.8" cy="86.5" r="1.8"/>
		<circle class="st1" cx="52.1" cy="86.5" r="1.8"/>
		<circle class="st1" cx="56.4" cy="86.5" r="1.8"/>
		<circle class="st1" cx="60.7" cy="86.5" r="1.8"/>
		<circle class="st1" cx="65.1" cy="86.5" r="1.8"/>
		<circle class="st1" cx="69.4" cy="86.5" r="1.8"/>
		<circle class="st1" cx="73.7" cy="86.5" r="1.8"/>
		<circle class="st1" cx="78" cy="86.5" r="1.8"/>
		<circle class="st1" cx="82.3" cy="86.5" r="1.8"/>
		<circle class="st1" cx="86.7" cy="86.5" r="1.8"/>
		<circle class="st1" cx="91" cy="86.5" r="1.8"/>
		<circle class="st1" cx="95.3" cy="86.5" r="1.8"/>
		<circle class="st1" cx="99.7" cy="86.5" r="1.8"/>
		<text transform="matrix(1 0 0 1 102.8008 87.5513)" class="st1 st2 st3">00</text>
		<text transform="matrix(1 0 0 1 37.0006 87.5513)" class="st1 st2 st3">00</text>
	</g>
	<g>
		<circle class="st1" cx="47.8" cy="80.5" r="1.8"/>
		<circle class="st1" cx="52.1" cy="80.5" r="1.8"/>
		<circle class="st1" cx="56.4" cy="80.5" r="1.8"/>
		<circle class="st1" cx="60.7" cy="80.5" r="1.8"/>
		<circle class="st1" cx="65.1" cy="80.5" r="1.8"/>
		<circle class="st1" cx="69.4" cy="80.5" r="1.8"/>
		<circle class="st1" cx="73.7" cy="80.5" r="1.8"/>
		<circle class="st1" cx="78" cy="80.5" r="1.8"/>
		<circle class="st1" cx="82.3" cy="80.5" r="1.8"/>
		<circle class="st1" cx="86.7" cy="80.5" r="1.8"/>
		<circle class="st1" cx="91" cy="80.5" r="1.8"/>
		<circle class="st1" cx="95.3" cy="80.5" r="1.8"/>
		<circle class="st1" cx="99.7" cy="80.5" r="1.8"/>
		<text transform="matrix(1 0 0 1 102.8008 81.5513)" class="st1 st2 st3">00</text>
		<text transform="matrix(1 0 0 1 41.3005 81.5513)" class="st1 st2 st3">00</text>
	</g>
	<g>
		<circle class="st1" cx="47.8" cy="74.6" r="1.8"/>
		<circle class="st1" cx="52.1" cy="74.6" r="1.8"/>
		<circle class="st1" cx="56.4" cy="74.6" r="1.8"/>
		<circle class="st1" cx="60.7" cy="74.6" r="1.8"/>
		<circle class="st1" cx="65.1" cy="74.6" r="1.8"/>
		<circle class="st1" cx="69.4" cy="74.6" r="1.8"/>
		<circle class="st1" cx="73.7" cy="74.6" r="1.8"/>
		<circle class="st1" cx="78" cy="74.6" r="1.8"/>
		<circle class="st1" cx="82.3" cy="74.6" r="1.8"/>
		<circle class="st1" cx="86.7" cy="74.6" r="1.8"/>
		<circle class="st1" cx="91" cy="74.6" r="1.8"/>
		<circle class="st1" cx="95.3" cy="74.6" r="1.8"/>
		<circle class="st1" cx="99.7" cy="74.6" r="1.8"/>
		<text transform="matrix(1 0 0 1 102.8008 75.6512)" class="st1 st2 st3">00</text>
		<text transform="matrix(1 0 0 1 41.3005 75.6512)" class="st1 st2 st3">00</text>
	</g>
	<g>
		<circle class="st1" cx="52.1" cy="68.7" r="1.8"/>
		<circle class="st1" cx="56.4" cy="68.7" r="1.8"/>
		<circle class="st1" cx="60.8" cy="68.7" r="1.8"/>
		<circle class="st1" cx="65.1" cy="68.7" r="1.8"/>
		<circle class="st1" cx="69.4" cy="68.7" r="1.8"/>
		<circle class="st1" cx="73.7" cy="68.7" r="1.8"/>
		<circle class="st1" cx="78" cy="68.7" r="1.8"/>
		<circle class="st1" cx="82.4" cy="68.7" r="1.8"/>
		<circle class="st1" cx="86.7" cy="68.7" r="1.8"/>
		<circle class="st1" cx="91" cy="68.7" r="1.8"/>
		<circle class="st1" cx="95.3" cy="68.7" r="1.8"/>
		<circle class="st1" cx="99.7" cy="68.7" r="1.8"/>
		<text transform="matrix(1 0 0 1 102.8008 69.7512)" class="st1 st2 st3">00</text>
		<text transform="matrix(1 0 0 1 45.6006 69.7512)" class="st1 st2 st3">00</text>
	</g>
	<g>
		<circle class="st1" cx="52.1" cy="62.7" r="1.8"/>
		<circle class="st1" cx="56.4" cy="62.7" r="1.8"/>
		<circle class="st1" cx="60.8" cy="62.7" r="1.8"/>
		<circle class="st1" cx="65.1" cy="62.7" r="1.8"/>
		<circle class="st1" cx="69.4" cy="62.7" r="1.8"/>
		<circle class="st1" cx="73.7" cy="62.7" r="1.8"/>
		<circle class="st1" cx="78" cy="62.7" r="1.8"/>
		<circle class="st1" cx="82.4" cy="62.7" r="1.8"/>
		<circle class="st1" cx="86.7" cy="62.7" r="1.8"/>
		<circle class="st1" cx="91" cy="62.7" r="1.8"/>
		<circle class="st1" cx="95.3" cy="62.7" r="1.8"/>
		<circle class="st1" cx="99.7" cy="62.7" r="1.8"/>
		<text transform="matrix(1 0 0 1 102.8008 63.7512)" class="st1 st2 st3">00</text>
		<text transform="matrix(1 0 0 1 45.6006 63.7512)" class="st1 st2 st3">00</text>
	</g>
	<g>
		<circle class="st1" cx="52.1" cy="56.8" r="1.8"/>
		<circle class="st1" cx="56.4" cy="56.8" r="1.8"/>
		<circle class="st1" cx="60.8" cy="56.8" r="1.8"/>
		<circle class="st1" cx="65.1" cy="56.8" r="1.8"/>
		<circle class="st1" cx="69.4" cy="56.8" r="1.8"/>
		<circle class="st1" cx="73.7" cy="56.8" r="1.8"/>
		<circle class="st1" cx="78" cy="56.8" r="1.8"/>
		<circle class="st1" cx="82.4" cy="56.8" r="1.8"/>
		<circle class="st1" cx="86.7" cy="56.8" r="1.8"/>
		<circle class="st1" cx="91" cy="56.8" r="1.8"/>
		<circle class="st1" cx="95.3" cy="56.8" r="1.8"/>
		<circle class="st1" cx="99.7" cy="56.8" r="1.8"/>
		<text transform="matrix(1 0 0 1 102.8008 57.8512)" class="st1 st2 st3">00</text>
		<text transform="matrix(1 0 0 1 45.6006 57.8512)" class="st1 st2 st3">00</text>
	</g>
	<g>
		<circle class="st1" cx="56.4" cy="50.9" r="1.8"/>
		<circle class="st1" cx="60.8" cy="50.9" r="1.8"/>
		<circle class="st1" cx="65.1" cy="50.9" r="1.8"/>
		<circle class="st1" cx="69.4" cy="50.9" r="1.8"/>
		<circle class="st1" cx="73.7" cy="50.9" r="1.8"/>
		<circle class="st1" cx="78" cy="50.9" r="1.8"/>
		<circle class="st1" cx="82.4" cy="50.9" r="1.8"/>
		<circle class="st1" cx="86.7" cy="50.9" r="1.8"/>
		<circle class="st1" cx="91" cy="50.9" r="1.8"/>
		<circle class="st1" cx="95.3" cy="50.9" r="1.8"/>
		<circle class="st1" cx="99.7" cy="50.9" r="1.8"/>
		<text transform="matrix(1 0 0 1 102.8008 51.9512)" class="st1 st2 st3">00</text>
		<text transform="matrix(1 0 0 1 49.9006 51.9512)" class="st1 st2 st3">00</text>
	</g>
	<g>
		<circle class="st1" cx="56.4" cy="45" r="1.8"/>
		<circle class="st1" cx="60.8" cy="45" r="1.8"/>
		<circle class="st1" cx="65.1" cy="45" r="1.8"/>
		<circle class="st1" cx="69.4" cy="45" r="1.8"/>
		<circle class="st1" cx="73.7" cy="45" r="1.8"/>
		<circle class="st1" cx="78" cy="45" r="1.8"/>
		<circle class="st1" cx="82.4" cy="45" r="1.8"/>
		<circle class="st1" cx="86.7" cy="45" r="1.8"/>
		<circle class="st1" cx="91" cy="45" r="1.8"/>
		<circle class="st1" cx="95.3" cy="45" r="1.8"/>
		<circle class="st1" cx="99.7" cy="45" r="1.8"/>
		<text transform="matrix(1 0 0 1 102.8008 46.0511)" class="st1 st2 st3">00</text>
		<text transform="matrix(1 0 0 1 49.9006 46.0511)" class="st1 st2 st3">00</text>
	</g>
	<g>
		<circle class="st1" cx="56.4" cy="39" r="1.8"/>
		<circle class="st1" cx="60.8" cy="39" r="1.8"/>
		<circle class="st1" cx="65.1" cy="39" r="1.8"/>
		<circle class="st1" cx="69.4" cy="39" r="1.8"/>
		<circle class="st1" cx="73.7" cy="39" r="1.8"/>
		<circle class="st1" cx="78" cy="39" r="1.8"/>
		<circle class="st1" cx="82.4" cy="39" r="1.8"/>
		<circle class="st1" cx="86.7" cy="39" r="1.8"/>
		<circle class="st1" cx="91" cy="39" r="1.8"/>
		<circle class="st1" cx="95.3" cy="39" r="1.8"/>
		<circle class="st1" cx="99.7" cy="39" r="1.8"/>
		<text transform="matrix(1 0 0 1 102.8008 40.0511)" class="st1 st2 st3">00</text>
		<text transform="matrix(1 0 0 1 49.9006 40.0511)" class="st1 st2 st3">00</text>
	</g>
	<g>
		<circle class="st1" cx="60.8" cy="33.1" r="1.8"/>
		<circle class="st1" cx="65.1" cy="33.1" r="1.8"/>
		<circle class="st1" cx="69.4" cy="33.1" r="1.8"/>
		<circle class="st1" cx="73.7" cy="33.1" r="1.8"/>
		<circle class="st1" cx="78.1" cy="33.1" r="1.8"/>
		<circle class="st1" cx="82.4" cy="33.1" r="1.8"/>
		<circle class="st1" cx="86.7" cy="33.1" r="1.8"/>
		<circle class="st1" cx="91" cy="33.1" r="1.8"/>
		<circle class="st1" cx="95.3" cy="33.1" r="1.8"/>
		<circle class="st1" cx="99.7" cy="33.1" r="1.8"/>
		<text transform="matrix(1 0 0 1 102.8008 34.1511)" class="st1 st2 st3">00</text>
		<text transform="matrix(1 0 0 1 54.3007 34.1511)" class="st1 st2 st3">00</text>
	</g>
	<g>
		<circle class="st1" cx="65.1" cy="27.2" r="1.8"/>
		<circle class="st1" cx="69.4" cy="27.2" r="1.8"/>
		<circle class="st1" cx="73.7" cy="27.2" r="1.8"/>
		<circle class="st1" cx="78.1" cy="27.2" r="1.8"/>
		<circle class="st1" cx="82.4" cy="27.2" r="1.8"/>
		<circle class="st1" cx="86.7" cy="27.2" r="1.8"/>
		<circle class="st1" cx="91" cy="27.2" r="1.8"/>
		<circle class="st1" cx="95.3" cy="27.2" r="1.8"/>
		<circle class="st1" cx="99.7" cy="27.2" r="1.8"/>
		<text transform="matrix(1 0 0 1 102.8008 28.2511)" class="st1 st2 st3">00</text>
		<text transform="matrix(1 0 0 1 58.6006 28.2511)" class="st1 st2 st3">00</text>
	</g>
	<g>
		<circle class="st1" cx="65.1" cy="21.2" r="1.8"/>
		<circle class="st1" cx="69.4" cy="21.2" r="1.8"/>
		<circle class="st1" cx="73.7" cy="21.2" r="1.8"/>
		<circle class="st1" cx="78.1" cy="21.2" r="1.8"/>
		<circle class="st1" cx="82.4" cy="21.2" r="1.8"/>
		<circle class="st1" cx="86.7" cy="21.2" r="1.8"/>
		<circle class="st1" cx="91" cy="21.2" r="1.8"/>
		<circle class="st1" cx="95.3" cy="21.2" r="1.8"/>
		<circle class="st1" cx="99.7" cy="21.2" r="1.8"/>
		<text transform="matrix(1 0 0 1 102.8008 22.2511)" class="st1 st2 st3">00</text>
		<text transform="matrix(1 0 0 1 58.6006 22.2511)" class="st1 st2 st3">00</text>
	</g>
	<g>
		<circle class="st1" cx="65.1" cy="15.3" r="1.8"/>
		<circle class="st1" cx="69.4" cy="15.3" r="1.8"/>
		<circle class="st1" cx="73.7" cy="15.3" r="1.8"/>
		<circle class="st1" cx="78.1" cy="15.3" r="1.8"/>
		<circle class="st1" cx="82.4" cy="15.3" r="1.8"/>
		<circle class="st1" cx="86.7" cy="15.3" r="1.8"/>
		<circle class="st1" cx="91" cy="15.3" r="1.8"/>
		<circle class="st1" cx="95.3" cy="15.3" r="1.8"/>
		<circle class="st1" cx="99.7" cy="15.3" r="1.8"/>
		<text transform="matrix(1 0 0 1 102.8008 16.3511)" class="st1 st2 st3">00</text>
		<text transform="matrix(1 0 0 1 58.6006 16.3511)" class="st1 st2 st3">00</text>
	</g>
	<g>
		<circle class="st1" cx="65.1" cy="9.4" r="1.8"/>
		<circle class="st1" cx="69.4" cy="9.4" r="1.8"/>
		<circle class="st1" cx="73.7" cy="9.4" r="1.8"/>
		<circle class="st1" cx="78.1" cy="9.4" r="1.8"/>
		<circle class="st1" cx="82.4" cy="9.4" r="1.8"/>
		<circle class="st1" cx="86.7" cy="9.4" r="1.8"/>
		<circle class="st1" cx="91" cy="9.4" r="1.8"/>
		<circle class="st1" cx="95.3" cy="9.4" r="1.8"/>
		<circle class="st1" cx="99.7" cy="9.4" r="1.8"/>
		<text transform="matrix(1 0 0 1 102.8008 10.451)" class="st1 st2 st3">00</text>
		<text transform="matrix(1 0 0 1 58.6006 10.451)" class="st1 st2 st3">00</text>
	</g>
</g>
</svg>
