<?xml version="1.0" encoding="utf-8"?>
<!-- Generator: Adobe Illustrator 23.0.1, SVG Export Plug-In . SVG Version: 6.00 Build 0)  -->
<svg version="1.1" id="Layer_1" xmlns="http://www.w3.org/2000/svg" xmlns:xlink="http://www.w3.org/1999/xlink" x="0px" y="0px"
	 viewBox="0 0 61 118" style="enable-background:new 0 0 61 118;" xml:space="preserve">
<style type="text/css">
	.st0{fill:#F1F3F4;stroke:#BCC8CE;stroke-width:0.4;stroke-linecap:round;stroke-miterlimit:10;}
	.st1{fill:#AEBDC4;}
	.st2{font-family:'Roboto-Medium';}
	.st3{font-size:3px;}
</style>
<polygon class="st0" points="0.4,91.9 60.6,117.5 60.6,0.3 0.4,0.3 "/>
<g>
	<g>
		<circle class="st1" cx="41.3" cy="98.4" r="1.8"/>
		<circle class="st1" cx="45.6" cy="98.4" r="1.8"/>
		<circle class="st1" cx="50" cy="98.4" r="1.8"/>
		<text transform="matrix(1 0 0 1 53.0608 99.4314)" class="st1 st2 st3">00</text>
		<text transform="matrix(1 0 0 1 34.8207 99.4314)" class="st1 st2 st3">00</text>
	</g>
	<g>
		<circle class="st1" cx="28.3" cy="92.4" r="1.8"/>
		<circle class="st1" cx="32.7" cy="92.4" r="1.8"/>
		<circle class="st1" cx="37" cy="92.4" r="1.8"/>
		<circle class="st1" cx="41.3" cy="92.4" r="1.8"/>
		<circle class="st1" cx="45.6" cy="92.4" r="1.8"/>
		<circle class="st1" cx="49.9" cy="92.4" r="1.8"/>
		<text transform="matrix(1 0 0 1 53.0608 93.5013)" class="st1 st2 st3">00</text>
		<text transform="matrix(1 0 0 1 21.8306 93.5013)" class="st1 st2 st3">00</text>
	</g>
	<g>
		<circle class="st1" cx="11" cy="86.5" r="1.8"/>
		<circle class="st1" cx="15.3" cy="86.5" r="1.8"/>
		<circle class="st1" cx="19.6" cy="86.5" r="1.8"/>
		<circle class="st1" cx="24" cy="86.5" r="1.8"/>
		<circle class="st1" cx="28.3" cy="86.5" r="1.8"/>
		<circle class="st1" cx="32.6" cy="86.5" r="1.8"/>
		<circle class="st1" cx="36.9" cy="86.5" r="1.8"/>
		<circle class="st1" cx="41.2" cy="86.5" r="1.8"/>
		<circle class="st1" cx="45.6" cy="86.5" r="1.8"/>
		<circle class="st1" cx="49.9" cy="86.5" r="1.8"/>
		<text transform="matrix(1 0 0 1 53.0608 87.5713)" class="st1 st2 st3">00</text>
		<text transform="matrix(1 0 0 1 4.5106 87.5713)" class="st1 st2 st3">00</text>
	</g>
	<g>
		<circle class="st1" cx="11" cy="80.6" r="1.8"/>
		<circle class="st1" cx="15.3" cy="80.6" r="1.8"/>
		<circle class="st1" cx="19.6" cy="80.6" r="1.8"/>
		<circle class="st1" cx="24" cy="80.6" r="1.8"/>
		<circle class="st1" cx="28.3" cy="80.6" r="1.8"/>
		<circle class="st1" cx="32.6" cy="80.6" r="1.8"/>
		<circle class="st1" cx="36.9" cy="80.6" r="1.8"/>
		<circle class="st1" cx="41.2" cy="80.6" r="1.8"/>
		<circle class="st1" cx="45.6" cy="80.6" r="1.8"/>
		<circle class="st1" cx="49.9" cy="80.6" r="1.8"/>
		<text transform="matrix(1 0 0 1 53.0608 81.6412)" class="st1 st2 st3">00</text>
		<text transform="matrix(1 0 0 1 4.5106 81.6412)" class="st1 st2 st3">00</text>
	</g>
	<g>
		<circle class="st1" cx="11" cy="74.7" r="1.8"/>
		<circle class="st1" cx="15.3" cy="74.7" r="1.8"/>
		<circle class="st1" cx="19.6" cy="74.7" r="1.8"/>
		<circle class="st1" cx="24" cy="74.7" r="1.8"/>
		<circle class="st1" cx="28.3" cy="74.7" r="1.8"/>
		<circle class="st1" cx="32.6" cy="74.7" r="1.8"/>
		<circle class="st1" cx="36.9" cy="74.7" r="1.8"/>
		<circle class="st1" cx="41.2" cy="74.7" r="1.8"/>
		<circle class="st1" cx="45.6" cy="74.7" r="1.8"/>
		<circle class="st1" cx="49.9" cy="74.7" r="1.8"/>
		<text transform="matrix(1 0 0 1 53.0608 75.7112)" class="st1 st2 st3">00</text>
		<text transform="matrix(1 0 0 1 4.5106 75.7112)" class="st1 st2 st3">00</text>
	</g>
	<g>
		<circle class="st1" cx="11" cy="68.7" r="1.8"/>
		<circle class="st1" cx="15.3" cy="68.7" r="1.8"/>
		<circle class="st1" cx="19.6" cy="68.7" r="1.8"/>
		<circle class="st1" cx="24" cy="68.7" r="1.8"/>
		<circle class="st1" cx="28.3" cy="68.7" r="1.8"/>
		<circle class="st1" cx="32.6" cy="68.7" r="1.8"/>
		<circle class="st1" cx="36.9" cy="68.7" r="1.8"/>
		<circle class="st1" cx="41.2" cy="68.7" r="1.8"/>
		<circle class="st1" cx="45.6" cy="68.7" r="1.8"/>
		<circle class="st1" cx="49.9" cy="68.7" r="1.8"/>
		<text transform="matrix(1 0 0 1 53.0608 69.7811)" class="st1 st2 st3">00</text>
		<text transform="matrix(1 0 0 1 4.5106 69.7811)" class="st1 st2 st3">00</text>
	</g>
	<g>
		<circle class="st1" cx="11" cy="62.8" r="1.9"/>
		<circle class="st1" cx="15.3" cy="62.8" r="1.9"/>
		<circle class="st1" cx="19.6" cy="62.8" r="1.9"/>
		<circle class="st1" cx="24" cy="62.8" r="1.9"/>
		<circle class="st1" cx="28.3" cy="62.8" r="1.9"/>
		<circle class="st1" cx="32.6" cy="62.8" r="1.9"/>
		<circle class="st1" cx="36.9" cy="62.8" r="1.8"/>
		<circle class="st1" cx="41.2" cy="62.8" r="1.8"/>
		<text transform="matrix(1 0 0 1 44.3508 63.8511)" class="st1 st2 st3">00</text>
		<text transform="matrix(1 0 0 1 4.5106 63.8511)" class="st1 st2 st3">00</text>
	</g>
	<g>
		<circle class="st1" cx="11" cy="56.9" r="1.8"/>
		<circle class="st1" cx="15.3" cy="56.9" r="1.8"/>
		<circle class="st1" cx="19.6" cy="56.9" r="1.8"/>
		<circle class="st1" cx="24" cy="56.9" r="1.8"/>
		<circle class="st1" cx="28.3" cy="56.9" r="1.8"/>
		<circle class="st1" cx="32.6" cy="56.9" r="1.8"/>
		<circle class="st1" cx="36.9" cy="56.9" r="1.8"/>
		<circle class="st1" cx="41.2" cy="56.9" r="1.8"/>
		<text transform="matrix(1 0 0 1 44.3508 57.921)" class="st1 st2 st3">00</text>
		<text transform="matrix(1 0 0 1 4.5106 57.921)" class="st1 st2 st3">00</text>
	</g>
	<g>
		<circle class="st1" cx="11" cy="50.9" r="1.8"/>
		<circle class="st1" cx="15.3" cy="50.9" r="1.8"/>
		<circle class="st1" cx="19.6" cy="50.9" r="1.8"/>
		<circle class="st1" cx="24" cy="50.9" r="1.8"/>
		<circle class="st1" cx="28.3" cy="50.9" r="1.8"/>
		<circle class="st1" cx="32.6" cy="50.9" r="1.8"/>
		<circle class="st1" cx="36.9" cy="50.9" r="1.8"/>
		<circle class="st1" cx="41.2" cy="50.9" r="1.8"/>
		<text transform="matrix(1 0 0 1 44.3508 51.991)" class="st1 st2 st3">00</text>
		<text transform="matrix(1 0 0 1 4.5106 51.991)" class="st1 st2 st3">00</text>
	</g>
	<g>
		<circle class="st1" cx="11" cy="45" r="1.8"/>
		<circle class="st1" cx="15.3" cy="45" r="1.8"/>
		<circle class="st1" cx="19.6" cy="45" r="1.8"/>
		<circle class="st1" cx="24" cy="45" r="1.8"/>
		<circle class="st1" cx="28.3" cy="45" r="1.8"/>
		<circle class="st1" cx="32.6" cy="45" r="1.8"/>
		<circle class="st1" cx="36.9" cy="45" r="1.8"/>
		<circle class="st1" cx="41.2" cy="45" r="1.8"/>
		<text transform="matrix(1 0 0 1 44.3508 46.0609)" class="st1 st2 st3">00</text>
		<text transform="matrix(1 0 0 1 4.5106 46.0609)" class="st1 st2 st3">00</text>
	</g>
	<g>
		<circle class="st1" cx="11" cy="39.1" r="1.8"/>
		<circle class="st1" cx="15.3" cy="39.1" r="1.8"/>
		<circle class="st1" cx="19.6" cy="39.1" r="1.8"/>
		<circle class="st1" cx="24" cy="39.1" r="1.8"/>
		<circle class="st1" cx="28.3" cy="39.1" r="1.8"/>
		<circle class="st1" cx="32.6" cy="39.1" r="1.8"/>
		<circle class="st1" cx="36.9" cy="39.1" r="1.8"/>
		<circle class="st1" cx="41.2" cy="39.1" r="1.8"/>
		<text transform="matrix(1 0 0 1 44.3508 40.1309)" class="st1 st2 st3">00</text>
		<text transform="matrix(1 0 0 1 4.5106 40.1309)" class="st1 st2 st3">00</text>
	</g>
	<g>
		<circle class="st1" cx="11" cy="33.1" r="1.8"/>
		<circle class="st1" cx="15.3" cy="33.1" r="1.8"/>
		<circle class="st1" cx="19.6" cy="33.1" r="1.8"/>
		<circle class="st1" cx="24" cy="33.1" r="1.8"/>
		<circle class="st1" cx="28.3" cy="33.1" r="1.8"/>
		<circle class="st1" cx="32.6" cy="33.1" r="1.8"/>
		<circle class="st1" cx="36.9" cy="33.1" r="1.8"/>
		<circle class="st1" cx="41.2" cy="33.1" r="1.8"/>
		<circle class="st1" cx="45.6" cy="33.1" r="1.8"/>
		<circle class="st1" cx="49.9" cy="33.1" r="1.8"/>
		<text transform="matrix(1 0 0 1 53.0608 34.2008)" class="st1 st2 st3">00</text>
		<text transform="matrix(1 0 0 1 4.5106 34.2008)" class="st1 st2 st3">00</text>
	</g>
	<g>
		<circle class="st1" cx="11" cy="27.2" r="1.9"/>
		<circle class="st1" cx="15.3" cy="27.2" r="1.9"/>
		<circle class="st1" cx="19.6" cy="27.2" r="1.9"/>
		<circle class="st1" cx="24" cy="27.2" r="1.9"/>
		<circle class="st1" cx="28.3" cy="27.2" r="1.9"/>
		<circle class="st1" cx="32.6" cy="27.2" r="1.8"/>
		<circle class="st1" cx="36.9" cy="27.2" r="1.8"/>
		<circle class="st1" cx="41.2" cy="27.2" r="1.8"/>
		<circle class="st1" cx="45.6" cy="27.2" r="1.8"/>
		<circle class="st1" cx="49.9" cy="27.2" r="1.8"/>
		<text transform="matrix(1 0 0 1 53.0608 28.2708)" class="st1 st2 st3">00</text>
		<text transform="matrix(1 0 0 1 4.5106 28.2708)" class="st1 st2 st3">00</text>
	</g>
	<g>
		<circle class="st1" cx="11" cy="21.3" r="1.9"/>
		<circle class="st1" cx="15.3" cy="21.3" r="1.9"/>
		<circle class="st1" cx="19.6" cy="21.3" r="1.9"/>
		<circle class="st1" cx="24" cy="21.3" r="1.9"/>
		<circle class="st1" cx="28.3" cy="21.3" r="1.9"/>
		<circle class="st1" cx="32.6" cy="21.3" r="1.8"/>
		<circle class="st1" cx="36.9" cy="21.3" r="1.8"/>
		<circle class="st1" cx="41.2" cy="21.3" r="1.8"/>
		<circle class="st1" cx="45.6" cy="21.3" r="1.8"/>
		<circle class="st1" cx="49.9" cy="21.3" r="1.8"/>
		<text transform="matrix(1 0 0 1 53.0608 22.3407)" class="st1 st2 st3">00</text>
		<text transform="matrix(1 0 0 1 4.5106 22.3407)" class="st1 st2 st3">00</text>
	</g>
	<g>
		<circle class="st1" cx="11" cy="15.4" r="1.9"/>
		<circle class="st1" cx="15.3" cy="15.4" r="1.9"/>
		<circle class="st1" cx="19.6" cy="15.4" r="1.9"/>
		<circle class="st1" cx="24" cy="15.4" r="1.9"/>
		<circle class="st1" cx="28.3" cy="15.4" r="1.9"/>
		<circle class="st1" cx="32.6" cy="15.4" r="1.8"/>
		<circle class="st1" cx="36.9" cy="15.4" r="1.8"/>
		<circle class="st1" cx="41.2" cy="15.4" r="1.8"/>
		<circle class="st1" cx="45.6" cy="15.4" r="1.8"/>
		<circle class="st1" cx="49.9" cy="15.4" r="1.8"/>
		<text transform="matrix(1 0 0 1 53.0608 16.4106)" class="st1 st2 st3">00</text>
		<text transform="matrix(1 0 0 1 4.5106 16.4106)" class="st1 st2 st3">00</text>
	</g>
	<g>
		<circle class="st1" cx="11" cy="9.4" r="1.9"/>
		<circle class="st1" cx="15.3" cy="9.4" r="1.9"/>
		<circle class="st1" cx="19.6" cy="9.4" r="1.9"/>
		<circle class="st1" cx="24" cy="9.4" r="1.9"/>
		<circle class="st1" cx="28.3" cy="9.4" r="1.9"/>
		<circle class="st1" cx="32.6" cy="9.4" r="1.8"/>
		<circle class="st1" cx="36.9" cy="9.4" r="1.8"/>
		<circle class="st1" cx="41.2" cy="9.4" r="1.8"/>
		<circle class="st1" cx="45.6" cy="9.4" r="1.8"/>
		<circle class="st1" cx="49.9" cy="9.4" r="1.8"/>
		<text transform="matrix(1 0 0 1 53.0608 10.4806)" class="st1 st2 st3">00</text>
		<text transform="matrix(1 0 0 1 4.5106 10.4806)" class="st1 st2 st3">00</text>
	</g>
</g>
</svg>
