<?xml version="1.0" encoding="utf-8"?>
<!-- Generator: Adobe Illustrator 23.0.1, SVG Export Plug-In . SVG Version: 6.00 Build 0)  -->
<svg version="1.1" id="Layer_1" xmlns="http://www.w3.org/2000/svg" xmlns:xlink="http://www.w3.org/1999/xlink" x="0px" y="0px"
	 viewBox="0 0 131 167" style="enable-background:new 0 0 131 167;" xml:space="preserve">
<style type="text/css">
	.st0{fill:#F1F3F4;stroke:#BCC8CE;stroke-width:0.4;stroke-linecap:round;stroke-miterlimit:10;}
	.st1{fill:#AEBDC4;}
	.st2{font-family:'Roboto-Medium';}
	.st3{font-size:3px;}
</style>
<rect x="0.5" y="0.3" class="st0" width="129.9" height="166.4"/>
<g>
	<g>
		<circle class="st1" cx="15.7" cy="157.6" r="1.9"/>
		<circle class="st1" cx="20.1" cy="157.6" r="1.9"/>
		<circle class="st1" cx="24.4" cy="157.6" r="1.9"/>
		<circle class="st1" cx="28.7" cy="157.6" r="1.9"/>
		<circle class="st1" cx="33" cy="157.6" r="1.9"/>
		<circle class="st1" cx="37.3" cy="157.6" r="1.9"/>
		<circle class="st1" cx="41.7" cy="157.6" r="1.9"/>
		<circle class="st1" cx="46" cy="157.6" r="1.9"/>
		<circle class="st1" cx="50.3" cy="157.6" r="1.9"/>
		<circle class="st1" cx="54.6" cy="157.6" r="1.9"/>
		<circle class="st1" cx="59" cy="157.6" r="1.9"/>
		<circle class="st1" cx="63.3" cy="157.6" r="1.9"/>
		<circle class="st1" cx="67.6" cy="157.6" r="1.9"/>
		<circle class="st1" cx="72" cy="157.6" r="1.9"/>
		<circle class="st1" cx="76.3" cy="157.6" r="1.9"/>
		<circle class="st1" cx="80.6" cy="157.6" r="1.9"/>
		<circle class="st1" cx="84.9" cy="157.6" r="1.9"/>
		<circle class="st1" cx="89.3" cy="157.6" r="1.9"/>
		<circle class="st1" cx="93.6" cy="157.6" r="1.9"/>
		<circle class="st1" cx="97.9" cy="157.6" r="1.9"/>
		<circle class="st1" cx="102.3" cy="157.6" r="1.9"/>
		<circle class="st1" cx="106.6" cy="157.6" r="1.9"/>
		<circle class="st1" cx="110.9" cy="157.6" r="1.9"/>
		<circle class="st1" cx="115.3" cy="157.6" r="1.9"/>
		<text transform="matrix(1 0 0 1 118.3607 158.6726)" class="st1 st2 st3">00</text>
		<text transform="matrix(1 0 0 1 9.2406 158.6726)" class="st1 st2 st3">00</text>
	</g>
	<g>
		<circle class="st1" cx="15.7" cy="151.7" r="1.9"/>
		<circle class="st1" cx="20.1" cy="151.7" r="1.9"/>
		<circle class="st1" cx="24.4" cy="151.7" r="1.9"/>
		<circle class="st1" cx="28.7" cy="151.7" r="1.9"/>
		<circle class="st1" cx="33" cy="151.7" r="1.9"/>
		<circle class="st1" cx="37.3" cy="151.7" r="1.9"/>
		<circle class="st1" cx="41.7" cy="151.7" r="1.9"/>
		<circle class="st1" cx="46" cy="151.7" r="1.9"/>
		<circle class="st1" cx="50.3" cy="151.7" r="1.9"/>
		<circle class="st1" cx="54.6" cy="151.7" r="1.9"/>
		<circle class="st1" cx="59" cy="151.7" r="1.9"/>
		<circle class="st1" cx="63.3" cy="151.7" r="1.9"/>
		<circle class="st1" cx="67.6" cy="151.7" r="1.9"/>
		<circle class="st1" cx="72" cy="151.7" r="1.9"/>
		<circle class="st1" cx="76.3" cy="151.7" r="1.9"/>
		<circle class="st1" cx="80.6" cy="151.7" r="1.9"/>
		<circle class="st1" cx="84.9" cy="151.7" r="1.9"/>
		<circle class="st1" cx="89.3" cy="151.7" r="1.9"/>
		<circle class="st1" cx="93.6" cy="151.7" r="1.9"/>
		<circle class="st1" cx="97.9" cy="151.7" r="1.9"/>
		<circle class="st1" cx="102.3" cy="151.7" r="1.9"/>
		<circle class="st1" cx="106.6" cy="151.7" r="1.9"/>
		<circle class="st1" cx="110.9" cy="151.7" r="1.9"/>
		<circle class="st1" cx="115.3" cy="151.7" r="1.9"/>
		<text transform="matrix(1 0 0 1 118.3607 152.7426)" class="st1 st2 st3">00</text>
		<text transform="matrix(1 0 0 1 9.2406 152.7426)" class="st1 st2 st3">00</text>
	</g>
	<g>
		<circle class="st1" cx="15.7" cy="145.8" r="1.9"/>
		<circle class="st1" cx="20.1" cy="145.8" r="1.9"/>
		<circle class="st1" cx="24.4" cy="145.8" r="1.9"/>
		<circle class="st1" cx="28.7" cy="145.8" r="1.9"/>
		<circle class="st1" cx="33" cy="145.8" r="1.9"/>
		<circle class="st1" cx="37.3" cy="145.8" r="1.9"/>
		<circle class="st1" cx="41.7" cy="145.8" r="1.9"/>
		<circle class="st1" cx="46" cy="145.8" r="1.9"/>
		<circle class="st1" cx="50.3" cy="145.8" r="1.9"/>
		<circle class="st1" cx="54.6" cy="145.8" r="1.9"/>
		<circle class="st1" cx="59" cy="145.8" r="1.9"/>
		<circle class="st1" cx="63.3" cy="145.8" r="1.9"/>
		<circle class="st1" cx="67.6" cy="145.8" r="1.9"/>
		<circle class="st1" cx="72" cy="145.8" r="1.9"/>
		<circle class="st1" cx="76.3" cy="145.8" r="1.9"/>
		<circle class="st1" cx="80.6" cy="145.8" r="1.9"/>
		<circle class="st1" cx="84.9" cy="145.8" r="1.9"/>
		<circle class="st1" cx="89.3" cy="145.8" r="1.9"/>
		<circle class="st1" cx="93.6" cy="145.8" r="1.9"/>
		<circle class="st1" cx="97.9" cy="145.8" r="1.9"/>
		<circle class="st1" cx="102.3" cy="145.8" r="1.9"/>
		<circle class="st1" cx="106.6" cy="145.8" r="1.9"/>
		<circle class="st1" cx="110.9" cy="145.8" r="1.9"/>
		<circle class="st1" cx="115.3" cy="145.8" r="1.9"/>
		<text transform="matrix(1 0 0 1 118.3607 146.8125)" class="st1 st2 st3">00</text>
		<text transform="matrix(1 0 0 1 9.2406 146.8125)" class="st1 st2 st3">00</text>
	</g>
	<g>
		<circle class="st1" cx="24.4" cy="139.9" r="1.9"/>
		<circle class="st1" cx="28.7" cy="139.9" r="1.9"/>
		<circle class="st1" cx="33" cy="139.9" r="1.9"/>
		<circle class="st1" cx="37.4" cy="139.9" r="1.9"/>
		<circle class="st1" cx="41.7" cy="139.9" r="1.9"/>
		<circle class="st1" cx="46" cy="139.9" r="1.9"/>
		<circle class="st1" cx="50.3" cy="139.9" r="1.9"/>
		<circle class="st1" cx="54.6" cy="139.9" r="1.9"/>
		<circle class="st1" cx="59" cy="139.9" r="1.9"/>
		<circle class="st1" cx="63.3" cy="139.9" r="1.9"/>
		<circle class="st1" cx="67.6" cy="139.9" r="1.9"/>
		<circle class="st1" cx="72" cy="139.9" r="1.9"/>
		<circle class="st1" cx="76.3" cy="139.9" r="1.9"/>
		<circle class="st1" cx="80.6" cy="139.9" r="1.9"/>
		<circle class="st1" cx="84.9" cy="139.9" r="1.9"/>
		<circle class="st1" cx="89.3" cy="139.9" r="1.9"/>
		<circle class="st1" cx="93.6" cy="139.9" r="1.9"/>
		<circle class="st1" cx="97.9" cy="139.9" r="1.9"/>
		<circle class="st1" cx="102.3" cy="139.9" r="1.9"/>
		<circle class="st1" cx="106.6" cy="139.9" r="1.9"/>
		<text transform="matrix(1 0 0 1 109.7007 140.8824)" class="st1 st2 st3">00</text>
		<text transform="matrix(1 0 0 1 17.9006 140.8824)" class="st1 st2 st3">00</text>
	</g>
	<g>
		<circle class="st1" cx="24.4" cy="133.9" r="1.9"/>
		<circle class="st1" cx="28.7" cy="133.9" r="1.9"/>
		<circle class="st1" cx="33" cy="133.9" r="1.9"/>
		<circle class="st1" cx="37.4" cy="133.9" r="1.9"/>
		<circle class="st1" cx="41.7" cy="133.9" r="1.9"/>
		<circle class="st1" cx="46" cy="133.9" r="1.9"/>
		<circle class="st1" cx="50.3" cy="133.9" r="1.9"/>
		<circle class="st1" cx="54.6" cy="133.9" r="1.9"/>
		<circle class="st1" cx="59" cy="133.9" r="1.9"/>
		<circle class="st1" cx="63.3" cy="133.9" r="1.9"/>
		<circle class="st1" cx="67.6" cy="133.9" r="1.9"/>
		<circle class="st1" cx="72" cy="133.9" r="1.9"/>
		<circle class="st1" cx="76.3" cy="133.9" r="1.9"/>
		<circle class="st1" cx="80.6" cy="133.9" r="1.9"/>
		<circle class="st1" cx="84.9" cy="133.9" r="1.9"/>
		<circle class="st1" cx="89.3" cy="133.9" r="1.9"/>
		<circle class="st1" cx="93.6" cy="133.9" r="1.9"/>
		<circle class="st1" cx="97.9" cy="133.9" r="1.9"/>
		<circle class="st1" cx="102.3" cy="133.9" r="1.9"/>
		<circle class="st1" cx="106.6" cy="133.9" r="1.9"/>
		<text transform="matrix(1 0 0 1 109.7007 134.9524)" class="st1 st2 st3">00</text>
		<text transform="matrix(1 0 0 1 17.9006 134.9524)" class="st1 st2 st3">00</text>
	</g>
	<g>
		<circle class="st1" cx="24.4" cy="128" r="1.8"/>
		<circle class="st1" cx="28.7" cy="128" r="1.8"/>
		<circle class="st1" cx="33" cy="128" r="1.8"/>
		<circle class="st1" cx="37.4" cy="128" r="1.8"/>
		<circle class="st1" cx="41.7" cy="128" r="1.8"/>
		<circle class="st1" cx="46" cy="128" r="1.8"/>
		<circle class="st1" cx="50.3" cy="128" r="1.8"/>
		<circle class="st1" cx="54.6" cy="128" r="1.8"/>
		<circle class="st1" cx="59" cy="128" r="1.8"/>
		<circle class="st1" cx="63.3" cy="128" r="1.8"/>
		<circle class="st1" cx="67.6" cy="128" r="1.8"/>
		<circle class="st1" cx="72" cy="128" r="1.8"/>
		<circle class="st1" cx="76.3" cy="128" r="1.8"/>
		<circle class="st1" cx="80.6" cy="128" r="1.8"/>
		<circle class="st1" cx="84.9" cy="128" r="1.8"/>
		<circle class="st1" cx="89.3" cy="128" r="1.8"/>
		<circle class="st1" cx="93.6" cy="128" r="1.8"/>
		<circle class="st1" cx="97.9" cy="128" r="1.8"/>
		<circle class="st1" cx="102.3" cy="128" r="1.8"/>
		<circle class="st1" cx="106.6" cy="128" r="1.8"/>
		<text transform="matrix(1 0 0 1 109.7007 129.0223)" class="st1 st2 st3">00</text>
		<text transform="matrix(1 0 0 1 17.9006 129.0223)" class="st1 st2 st3">00</text>
	</g>
	<g>
		<circle class="st1" cx="24.4" cy="122.1" r="1.8"/>
		<circle class="st1" cx="28.7" cy="122.1" r="1.8"/>
		<circle class="st1" cx="33" cy="122.1" r="1.8"/>
		<circle class="st1" cx="37.4" cy="122.1" r="1.8"/>
		<circle class="st1" cx="41.7" cy="122.1" r="1.8"/>
		<circle class="st1" cx="46" cy="122.1" r="1.8"/>
		<circle class="st1" cx="50.3" cy="122.1" r="1.8"/>
		<circle class="st1" cx="54.6" cy="122.1" r="1.8"/>
		<circle class="st1" cx="59" cy="122.1" r="1.8"/>
		<circle class="st1" cx="63.3" cy="122.1" r="1.8"/>
		<circle class="st1" cx="67.6" cy="122.1" r="1.8"/>
		<circle class="st1" cx="72" cy="122.1" r="1.8"/>
		<circle class="st1" cx="76.3" cy="122.1" r="1.8"/>
		<circle class="st1" cx="80.6" cy="122.1" r="1.8"/>
		<circle class="st1" cx="84.9" cy="122.1" r="1.8"/>
		<circle class="st1" cx="89.3" cy="122.1" r="1.8"/>
		<circle class="st1" cx="93.6" cy="122.1" r="1.8"/>
		<circle class="st1" cx="97.9" cy="122.1" r="1.8"/>
		<circle class="st1" cx="102.3" cy="122.1" r="1.8"/>
		<circle class="st1" cx="106.6" cy="122.1" r="1.8"/>
		<text transform="matrix(1 0 0 1 109.7007 123.0923)" class="st1 st2 st3">00</text>
		<text transform="matrix(1 0 0 1 17.9006 123.0923)" class="st1 st2 st3">00</text>
	</g>
	<g>
		<circle class="st1" cx="24.4" cy="116.1" r="1.8"/>
		<circle class="st1" cx="28.7" cy="116.1" r="1.8"/>
		<circle class="st1" cx="33" cy="116.1" r="1.8"/>
		<circle class="st1" cx="37.4" cy="116.1" r="1.8"/>
		<circle class="st1" cx="41.7" cy="116.1" r="1.8"/>
		<circle class="st1" cx="46" cy="116.1" r="1.8"/>
		<circle class="st1" cx="50.3" cy="116.1" r="1.8"/>
		<circle class="st1" cx="54.6" cy="116.1" r="1.8"/>
		<circle class="st1" cx="59" cy="116.1" r="1.8"/>
		<circle class="st1" cx="63.3" cy="116.1" r="1.8"/>
		<circle class="st1" cx="67.6" cy="116.1" r="1.8"/>
		<circle class="st1" cx="72" cy="116.1" r="1.8"/>
		<circle class="st1" cx="76.3" cy="116.1" r="1.8"/>
		<circle class="st1" cx="80.6" cy="116.1" r="1.8"/>
		<circle class="st1" cx="84.9" cy="116.1" r="1.8"/>
		<circle class="st1" cx="89.3" cy="116.1" r="1.8"/>
		<circle class="st1" cx="93.6" cy="116.1" r="1.8"/>
		<circle class="st1" cx="97.9" cy="116.1" r="1.8"/>
		<circle class="st1" cx="102.3" cy="116.1" r="1.8"/>
		<circle class="st1" cx="106.6" cy="116.1" r="1.8"/>
		<text transform="matrix(1 0 0 1 109.7007 117.1622)" class="st1 st2 st3">00</text>
		<text transform="matrix(1 0 0 1 17.9006 117.1622)" class="st1 st2 st3">00</text>
	</g>
	<g>
		<circle class="st1" cx="15.7" cy="110.2" r="1.8"/>
		<circle class="st1" cx="20.1" cy="110.2" r="1.8"/>
		<circle class="st1" cx="24.4" cy="110.2" r="1.8"/>
		<circle class="st1" cx="28.7" cy="110.2" r="1.8"/>
		<circle class="st1" cx="33" cy="110.2" r="1.8"/>
		<circle class="st1" cx="37.3" cy="110.2" r="1.8"/>
		<circle class="st1" cx="41.7" cy="110.2" r="1.8"/>
		<circle class="st1" cx="46" cy="110.2" r="1.8"/>
		<circle class="st1" cx="50.3" cy="110.2" r="1.8"/>
		<circle class="st1" cx="54.6" cy="110.2" r="1.8"/>
		<circle class="st1" cx="59" cy="110.2" r="1.8"/>
		<circle class="st1" cx="63.3" cy="110.2" r="1.8"/>
		<circle class="st1" cx="67.6" cy="110.2" r="1.8"/>
		<circle class="st1" cx="72" cy="110.2" r="1.8"/>
		<circle class="st1" cx="76.3" cy="110.2" r="1.8"/>
		<circle class="st1" cx="80.6" cy="110.2" r="1.8"/>
		<circle class="st1" cx="84.9" cy="110.2" r="1.8"/>
		<circle class="st1" cx="89.3" cy="110.2" r="1.8"/>
		<circle class="st1" cx="93.6" cy="110.2" r="1.8"/>
		<circle class="st1" cx="97.9" cy="110.2" r="1.8"/>
		<circle class="st1" cx="102.3" cy="110.2" r="1.8"/>
		<circle class="st1" cx="106.6" cy="110.2" r="1.8"/>
		<circle class="st1" cx="110.9" cy="110.2" r="1.8"/>
		<circle class="st1" cx="115.3" cy="110.2" r="1.8"/>
		<text transform="matrix(1 0 0 1 118.3607 111.2322)" class="st1 st2 st3">00</text>
		<text transform="matrix(1 0 0 1 9.2406 111.2322)" class="st1 st2 st3">00</text>
	</g>
	<g>
		<circle class="st1" cx="15.7" cy="104.3" r="1.8"/>
		<circle class="st1" cx="20.1" cy="104.3" r="1.8"/>
		<circle class="st1" cx="24.4" cy="104.3" r="1.8"/>
		<circle class="st1" cx="28.7" cy="104.3" r="1.8"/>
		<circle class="st1" cx="33" cy="104.3" r="1.8"/>
		<circle class="st1" cx="37.3" cy="104.3" r="1.8"/>
		<circle class="st1" cx="41.7" cy="104.3" r="1.8"/>
		<circle class="st1" cx="46" cy="104.3" r="1.8"/>
		<circle class="st1" cx="50.3" cy="104.3" r="1.8"/>
		<circle class="st1" cx="54.6" cy="104.3" r="1.8"/>
		<circle class="st1" cx="59" cy="104.3" r="1.8"/>
		<circle class="st1" cx="63.3" cy="104.3" r="1.8"/>
		<circle class="st1" cx="67.6" cy="104.3" r="1.8"/>
		<circle class="st1" cx="72" cy="104.3" r="1.8"/>
		<circle class="st1" cx="76.3" cy="104.3" r="1.8"/>
		<circle class="st1" cx="80.6" cy="104.3" r="1.8"/>
		<circle class="st1" cx="84.9" cy="104.3" r="1.8"/>
		<circle class="st1" cx="89.3" cy="104.3" r="1.8"/>
		<circle class="st1" cx="93.6" cy="104.3" r="1.8"/>
		<circle class="st1" cx="97.9" cy="104.3" r="1.8"/>
		<circle class="st1" cx="102.3" cy="104.3" r="1.8"/>
		<circle class="st1" cx="106.6" cy="104.3" r="1.8"/>
		<circle class="st1" cx="110.9" cy="104.3" r="1.8"/>
		<circle class="st1" cx="115.3" cy="104.3" r="1.8"/>
		<text transform="matrix(1 0 0 1 118.3607 105.3021)" class="st1 st2 st3">00</text>
		<text transform="matrix(1 0 0 1 9.2406 105.3021)" class="st1 st2 st3">00</text>
	</g>
	<g>
		<circle class="st1" cx="15.7" cy="98.3" r="1.8"/>
		<circle class="st1" cx="20.1" cy="98.3" r="1.8"/>
		<circle class="st1" cx="24.4" cy="98.3" r="1.8"/>
		<circle class="st1" cx="28.7" cy="98.3" r="1.8"/>
		<circle class="st1" cx="33" cy="98.3" r="1.8"/>
		<circle class="st1" cx="37.3" cy="98.3" r="1.8"/>
		<circle class="st1" cx="41.7" cy="98.3" r="1.8"/>
		<circle class="st1" cx="46" cy="98.3" r="1.8"/>
		<circle class="st1" cx="50.3" cy="98.3" r="1.8"/>
		<circle class="st1" cx="54.6" cy="98.3" r="1.8"/>
		<circle class="st1" cx="59" cy="98.3" r="1.8"/>
		<circle class="st1" cx="63.3" cy="98.3" r="1.8"/>
		<circle class="st1" cx="67.6" cy="98.3" r="1.8"/>
		<circle class="st1" cx="72" cy="98.3" r="1.8"/>
		<circle class="st1" cx="76.3" cy="98.3" r="1.8"/>
		<circle class="st1" cx="80.6" cy="98.3" r="1.8"/>
		<circle class="st1" cx="84.9" cy="98.3" r="1.8"/>
		<circle class="st1" cx="89.3" cy="98.3" r="1.8"/>
		<circle class="st1" cx="93.6" cy="98.3" r="1.8"/>
		<circle class="st1" cx="97.9" cy="98.3" r="1.8"/>
		<circle class="st1" cx="102.3" cy="98.3" r="1.8"/>
		<circle class="st1" cx="106.6" cy="98.3" r="1.8"/>
		<circle class="st1" cx="110.9" cy="98.3" r="1.8"/>
		<circle class="st1" cx="115.3" cy="98.3" r="1.8"/>
		<text transform="matrix(1 0 0 1 118.3607 99.3721)" class="st1 st2 st3">00</text>
		<text transform="matrix(1 0 0 1 9.2406 99.3721)" class="st1 st2 st3">00</text>
	</g>
	<g>
		<circle class="st1" cx="15.7" cy="92.4" r="1.8"/>
		<circle class="st1" cx="20.1" cy="92.4" r="1.8"/>
		<circle class="st1" cx="24.4" cy="92.4" r="1.8"/>
		<circle class="st1" cx="28.7" cy="92.4" r="1.8"/>
		<circle class="st1" cx="33" cy="92.4" r="1.8"/>
		<circle class="st1" cx="37.3" cy="92.4" r="1.8"/>
		<circle class="st1" cx="41.7" cy="92.4" r="1.8"/>
		<circle class="st1" cx="46" cy="92.4" r="1.8"/>
		<circle class="st1" cx="50.3" cy="92.4" r="1.8"/>
		<circle class="st1" cx="54.6" cy="92.4" r="1.8"/>
		<circle class="st1" cx="59" cy="92.4" r="1.8"/>
		<circle class="st1" cx="63.3" cy="92.4" r="1.8"/>
		<circle class="st1" cx="67.6" cy="92.4" r="1.8"/>
		<circle class="st1" cx="72" cy="92.4" r="1.8"/>
		<circle class="st1" cx="76.3" cy="92.4" r="1.8"/>
		<circle class="st1" cx="80.6" cy="92.4" r="1.8"/>
		<circle class="st1" cx="84.9" cy="92.4" r="1.8"/>
		<circle class="st1" cx="89.3" cy="92.4" r="1.8"/>
		<circle class="st1" cx="93.6" cy="92.4" r="1.8"/>
		<circle class="st1" cx="97.9" cy="92.4" r="1.8"/>
		<circle class="st1" cx="102.3" cy="92.4" r="1.8"/>
		<circle class="st1" cx="106.6" cy="92.4" r="1.8"/>
		<circle class="st1" cx="110.9" cy="92.4" r="1.8"/>
		<circle class="st1" cx="115.3" cy="92.4" r="1.8"/>
		<text transform="matrix(1 0 0 1 118.3607 93.442)" class="st1 st2 st3">00</text>
		<text transform="matrix(1 0 0 1 9.2406 93.442)" class="st1 st2 st3">00</text>
	</g>
	<g>
		<circle class="st1" cx="15.7" cy="86.5" r="1.8"/>
		<circle class="st1" cx="20.1" cy="86.5" r="1.8"/>
		<circle class="st1" cx="24.4" cy="86.5" r="1.8"/>
		<circle class="st1" cx="28.7" cy="86.5" r="1.8"/>
		<circle class="st1" cx="33" cy="86.5" r="1.8"/>
		<circle class="st1" cx="37.3" cy="86.5" r="1.8"/>
		<circle class="st1" cx="41.7" cy="86.5" r="1.8"/>
		<circle class="st1" cx="46" cy="86.5" r="1.8"/>
		<circle class="st1" cx="50.3" cy="86.5" r="1.8"/>
		<circle class="st1" cx="54.6" cy="86.5" r="1.8"/>
		<circle class="st1" cx="59" cy="86.5" r="1.8"/>
		<circle class="st1" cx="63.3" cy="86.5" r="1.8"/>
		<circle class="st1" cx="67.6" cy="86.5" r="1.8"/>
		<circle class="st1" cx="72" cy="86.5" r="1.8"/>
		<circle class="st1" cx="76.3" cy="86.5" r="1.8"/>
		<circle class="st1" cx="80.6" cy="86.5" r="1.8"/>
		<circle class="st1" cx="84.9" cy="86.5" r="1.8"/>
		<circle class="st1" cx="89.3" cy="86.5" r="1.8"/>
		<circle class="st1" cx="93.6" cy="86.5" r="1.8"/>
		<circle class="st1" cx="97.9" cy="86.5" r="1.8"/>
		<circle class="st1" cx="102.3" cy="86.5" r="1.8"/>
		<circle class="st1" cx="106.6" cy="86.5" r="1.8"/>
		<circle class="st1" cx="110.9" cy="86.5" r="1.8"/>
		<circle class="st1" cx="115.3" cy="86.5" r="1.8"/>
		<text transform="matrix(1 0 0 1 118.3607 87.512)" class="st1 st2 st3">00</text>
		<text transform="matrix(1 0 0 1 9.2406 87.512)" class="st1 st2 st3">00</text>
	</g>
	<g>
		<circle class="st1" cx="15.7" cy="80.5" r="1.8"/>
		<circle class="st1" cx="20.1" cy="80.5" r="1.8"/>
		<circle class="st1" cx="24.4" cy="80.5" r="1.8"/>
		<circle class="st1" cx="28.7" cy="80.5" r="1.8"/>
		<circle class="st1" cx="33" cy="80.5" r="1.8"/>
		<circle class="st1" cx="37.3" cy="80.5" r="1.8"/>
		<circle class="st1" cx="41.7" cy="80.5" r="1.8"/>
		<circle class="st1" cx="46" cy="80.5" r="1.8"/>
		<circle class="st1" cx="50.3" cy="80.5" r="1.8"/>
		<circle class="st1" cx="54.6" cy="80.5" r="1.8"/>
		<circle class="st1" cx="59" cy="80.5" r="1.8"/>
		<circle class="st1" cx="63.3" cy="80.5" r="1.8"/>
		<circle class="st1" cx="67.6" cy="80.5" r="1.8"/>
		<circle class="st1" cx="72" cy="80.5" r="1.8"/>
		<circle class="st1" cx="76.3" cy="80.5" r="1.8"/>
		<circle class="st1" cx="80.6" cy="80.5" r="1.8"/>
		<circle class="st1" cx="84.9" cy="80.5" r="1.8"/>
		<circle class="st1" cx="89.3" cy="80.5" r="1.8"/>
		<circle class="st1" cx="93.6" cy="80.5" r="1.8"/>
		<circle class="st1" cx="97.9" cy="80.5" r="1.8"/>
		<circle class="st1" cx="102.3" cy="80.5" r="1.8"/>
		<circle class="st1" cx="106.6" cy="80.5" r="1.8"/>
		<circle class="st1" cx="110.9" cy="80.5" r="1.8"/>
		<circle class="st1" cx="115.3" cy="80.5" r="1.8"/>
		<text transform="matrix(1 0 0 1 118.3607 81.5819)" class="st1 st2 st3">00</text>
		<text transform="matrix(1 0 0 1 9.2406 81.5819)" class="st1 st2 st3">00</text>
	</g>
	<g>
		<circle class="st1" cx="15.7" cy="74.6" r="1.8"/>
		<circle class="st1" cx="20.1" cy="74.6" r="1.8"/>
		<circle class="st1" cx="24.4" cy="74.6" r="1.8"/>
		<circle class="st1" cx="28.7" cy="74.6" r="1.8"/>
		<circle class="st1" cx="33" cy="74.6" r="1.8"/>
		<circle class="st1" cx="37.3" cy="74.6" r="1.8"/>
		<circle class="st1" cx="41.7" cy="74.6" r="1.8"/>
		<circle class="st1" cx="46" cy="74.6" r="1.8"/>
		<circle class="st1" cx="50.3" cy="74.6" r="1.8"/>
		<circle class="st1" cx="54.6" cy="74.6" r="1.8"/>
		<circle class="st1" cx="59" cy="74.6" r="1.8"/>
		<circle class="st1" cx="63.3" cy="74.6" r="1.8"/>
		<circle class="st1" cx="67.6" cy="74.6" r="1.8"/>
		<circle class="st1" cx="72" cy="74.6" r="1.8"/>
		<circle class="st1" cx="76.3" cy="74.6" r="1.8"/>
		<circle class="st1" cx="80.6" cy="74.6" r="1.8"/>
		<circle class="st1" cx="84.9" cy="74.6" r="1.8"/>
		<circle class="st1" cx="89.3" cy="74.6" r="1.8"/>
		<circle class="st1" cx="93.6" cy="74.6" r="1.8"/>
		<circle class="st1" cx="97.9" cy="74.6" r="1.8"/>
		<circle class="st1" cx="102.3" cy="74.6" r="1.8"/>
		<circle class="st1" cx="106.6" cy="74.6" r="1.8"/>
		<circle class="st1" cx="110.9" cy="74.6" r="1.8"/>
		<circle class="st1" cx="115.3" cy="74.6" r="1.8"/>
		<text transform="matrix(1 0 0 1 118.3607 75.6519)" class="st1 st2 st3">00</text>
		<text transform="matrix(1 0 0 1 9.2406 75.6519)" class="st1 st2 st3">00</text>
	</g>
	<g>
		<circle class="st1" cx="15.7" cy="68.7" r="1.8"/>
		<circle class="st1" cx="20.1" cy="68.7" r="1.8"/>
		<circle class="st1" cx="24.4" cy="68.7" r="1.8"/>
		<circle class="st1" cx="28.7" cy="68.7" r="1.8"/>
		<circle class="st1" cx="33" cy="68.7" r="1.8"/>
		<circle class="st1" cx="37.3" cy="68.7" r="1.8"/>
		<circle class="st1" cx="41.7" cy="68.7" r="1.8"/>
		<circle class="st1" cx="46" cy="68.7" r="1.8"/>
		<circle class="st1" cx="50.3" cy="68.7" r="1.8"/>
		<circle class="st1" cx="54.6" cy="68.7" r="1.8"/>
		<circle class="st1" cx="59" cy="68.7" r="1.8"/>
		<circle class="st1" cx="63.3" cy="68.7" r="1.8"/>
		<circle class="st1" cx="67.6" cy="68.7" r="1.8"/>
		<circle class="st1" cx="72" cy="68.7" r="1.8"/>
		<circle class="st1" cx="76.3" cy="68.7" r="1.8"/>
		<circle class="st1" cx="80.6" cy="68.7" r="1.8"/>
		<circle class="st1" cx="84.9" cy="68.7" r="1.8"/>
		<circle class="st1" cx="89.3" cy="68.7" r="1.8"/>
		<circle class="st1" cx="93.6" cy="68.7" r="1.8"/>
		<circle class="st1" cx="97.9" cy="68.7" r="1.8"/>
		<circle class="st1" cx="102.3" cy="68.7" r="1.8"/>
		<circle class="st1" cx="106.6" cy="68.7" r="1.8"/>
		<circle class="st1" cx="110.9" cy="68.7" r="1.8"/>
		<circle class="st1" cx="115.3" cy="68.7" r="1.8"/>
		<text transform="matrix(1 0 0 1 118.3607 69.7218)" class="st1 st2 st3">00</text>
		<text transform="matrix(1 0 0 1 9.2406 69.7218)" class="st1 st2 st3">00</text>
	</g>
	<g>
		<circle class="st1" cx="15.7" cy="62.7" r="1.9"/>
		<circle class="st1" cx="20.1" cy="62.7" r="1.9"/>
		<circle class="st1" cx="24.4" cy="62.7" r="1.9"/>
		<circle class="st1" cx="28.7" cy="62.7" r="1.9"/>
		<circle class="st1" cx="33" cy="62.7" r="1.9"/>
		<circle class="st1" cx="37.3" cy="62.7" r="1.8"/>
		<circle class="st1" cx="41.7" cy="62.7" r="1.8"/>
		<circle class="st1" cx="46" cy="62.7" r="1.8"/>
		<circle class="st1" cx="50.3" cy="62.7" r="1.8"/>
		<circle class="st1" cx="54.6" cy="62.7" r="1.8"/>
		<circle class="st1" cx="59" cy="62.7" r="1.8"/>
		<circle class="st1" cx="63.3" cy="62.7" r="1.9"/>
		<circle class="st1" cx="67.6" cy="62.7" r="1.8"/>
		<circle class="st1" cx="72" cy="62.7" r="1.8"/>
		<circle class="st1" cx="76.3" cy="62.7" r="1.8"/>
		<circle class="st1" cx="80.6" cy="62.7" r="1.8"/>
		<circle class="st1" cx="84.9" cy="62.7" r="1.8"/>
		<circle class="st1" cx="89.3" cy="62.7" r="1.8"/>
		<circle class="st1" cx="93.6" cy="62.7" r="1.8"/>
		<circle class="st1" cx="97.9" cy="62.7" r="1.8"/>
		<circle class="st1" cx="102.3" cy="62.7" r="1.8"/>
		<circle class="st1" cx="106.6" cy="62.7" r="1.8"/>
		<circle class="st1" cx="110.9" cy="62.7" r="1.8"/>
		<circle class="st1" cx="115.3" cy="62.7" r="1.8"/>
		<text transform="matrix(1 0 0 1 118.3607 63.7917)" class="st1 st2 st3">00</text>
		<text transform="matrix(1 0 0 1 9.2406 63.7917)" class="st1 st2 st3">00</text>
	</g>
	<g>
		<circle class="st1" cx="15.7" cy="56.8" r="1.8"/>
		<circle class="st1" cx="20.1" cy="56.8" r="1.8"/>
		<circle class="st1" cx="24.4" cy="56.8" r="1.8"/>
		<circle class="st1" cx="28.7" cy="56.8" r="1.8"/>
		<circle class="st1" cx="33" cy="56.8" r="1.8"/>
		<circle class="st1" cx="37.3" cy="56.8" r="1.8"/>
		<circle class="st1" cx="41.7" cy="56.8" r="1.8"/>
		<circle class="st1" cx="46" cy="56.8" r="1.8"/>
		<circle class="st1" cx="50.3" cy="56.8" r="1.8"/>
		<circle class="st1" cx="54.6" cy="56.8" r="1.8"/>
		<circle class="st1" cx="59" cy="56.8" r="1.8"/>
		<circle class="st1" cx="63.3" cy="56.8" r="1.8"/>
		<circle class="st1" cx="67.6" cy="56.8" r="1.8"/>
		<circle class="st1" cx="72" cy="56.8" r="1.8"/>
		<circle class="st1" cx="76.3" cy="56.8" r="1.8"/>
		<circle class="st1" cx="80.6" cy="56.8" r="1.8"/>
		<circle class="st1" cx="84.9" cy="56.8" r="1.8"/>
		<circle class="st1" cx="89.3" cy="56.8" r="1.8"/>
		<circle class="st1" cx="93.6" cy="56.8" r="1.8"/>
		<circle class="st1" cx="97.9" cy="56.8" r="1.8"/>
		<circle class="st1" cx="102.3" cy="56.8" r="1.8"/>
		<circle class="st1" cx="106.6" cy="56.8" r="1.8"/>
		<circle class="st1" cx="110.9" cy="56.8" r="1.8"/>
		<circle class="st1" cx="115.3" cy="56.8" r="1.8"/>
		<text transform="matrix(1 0 0 1 118.3607 57.8617)" class="st1 st2 st3">00</text>
		<text transform="matrix(1 0 0 1 9.2406 57.8617)" class="st1 st2 st3">00</text>
	</g>
	<g>
		<circle class="st1" cx="15.7" cy="50.9" r="1.8"/>
		<circle class="st1" cx="20.1" cy="50.9" r="1.8"/>
		<circle class="st1" cx="24.4" cy="50.9" r="1.8"/>
		<circle class="st1" cx="28.7" cy="50.9" r="1.8"/>
		<circle class="st1" cx="33" cy="50.9" r="1.8"/>
		<circle class="st1" cx="37.3" cy="50.9" r="1.8"/>
		<circle class="st1" cx="41.7" cy="50.9" r="1.8"/>
		<circle class="st1" cx="46" cy="50.9" r="1.8"/>
		<circle class="st1" cx="50.3" cy="50.9" r="1.8"/>
		<circle class="st1" cx="54.6" cy="50.9" r="1.8"/>
		<circle class="st1" cx="59" cy="50.9" r="1.8"/>
		<circle class="st1" cx="63.3" cy="50.9" r="1.8"/>
		<circle class="st1" cx="67.6" cy="50.9" r="1.8"/>
		<circle class="st1" cx="72" cy="50.9" r="1.8"/>
		<circle class="st1" cx="76.3" cy="50.9" r="1.8"/>
		<circle class="st1" cx="80.6" cy="50.9" r="1.8"/>
		<circle class="st1" cx="84.9" cy="50.9" r="1.8"/>
		<circle class="st1" cx="89.3" cy="50.9" r="1.8"/>
		<circle class="st1" cx="93.6" cy="50.9" r="1.8"/>
		<circle class="st1" cx="97.9" cy="50.9" r="1.8"/>
		<circle class="st1" cx="102.3" cy="50.9" r="1.8"/>
		<circle class="st1" cx="106.6" cy="50.9" r="1.8"/>
		<circle class="st1" cx="110.9" cy="50.9" r="1.8"/>
		<circle class="st1" cx="115.3" cy="50.9" r="1.8"/>
		<text transform="matrix(1 0 0 1 118.3607 51.9316)" class="st1 st2 st3">00</text>
		<text transform="matrix(1 0 0 1 9.2406 51.9316)" class="st1 st2 st3">00</text>
	</g>
	<g>
		<circle class="st1" cx="15.7" cy="45" r="1.8"/>
		<circle class="st1" cx="20.1" cy="45" r="1.8"/>
		<circle class="st1" cx="24.4" cy="45" r="1.8"/>
		<circle class="st1" cx="28.7" cy="45" r="1.8"/>
		<circle class="st1" cx="33" cy="45" r="1.8"/>
		<circle class="st1" cx="37.3" cy="45" r="1.8"/>
		<circle class="st1" cx="41.7" cy="45" r="1.8"/>
		<circle class="st1" cx="46" cy="45" r="1.8"/>
		<circle class="st1" cx="50.3" cy="45" r="1.8"/>
		<circle class="st1" cx="54.6" cy="45" r="1.8"/>
		<circle class="st1" cx="59" cy="45" r="1.8"/>
		<circle class="st1" cx="63.3" cy="45" r="1.8"/>
		<circle class="st1" cx="67.6" cy="45" r="1.8"/>
		<circle class="st1" cx="72" cy="45" r="1.8"/>
		<circle class="st1" cx="76.3" cy="45" r="1.8"/>
		<circle class="st1" cx="80.6" cy="45" r="1.8"/>
		<circle class="st1" cx="84.9" cy="45" r="1.8"/>
		<circle class="st1" cx="89.3" cy="45" r="1.8"/>
		<circle class="st1" cx="93.6" cy="45" r="1.8"/>
		<circle class="st1" cx="97.9" cy="45" r="1.8"/>
		<circle class="st1" cx="102.3" cy="45" r="1.8"/>
		<circle class="st1" cx="106.6" cy="45" r="1.8"/>
		<circle class="st1" cx="110.9" cy="45" r="1.8"/>
		<circle class="st1" cx="115.3" cy="45" r="1.8"/>
		<text transform="matrix(1 0 0 1 118.3607 46.0016)" class="st1 st2 st3">00</text>
		<text transform="matrix(1 0 0 1 9.2406 46.0016)" class="st1 st2 st3">00</text>
	</g>
	<g>
		<circle class="st1" cx="15.7" cy="39" r="1.8"/>
		<circle class="st1" cx="20.1" cy="39" r="1.8"/>
		<circle class="st1" cx="24.4" cy="39" r="1.8"/>
		<circle class="st1" cx="28.7" cy="39" r="1.8"/>
		<circle class="st1" cx="33" cy="39" r="1.8"/>
		<circle class="st1" cx="37.3" cy="39" r="1.8"/>
		<circle class="st1" cx="41.7" cy="39" r="1.8"/>
		<circle class="st1" cx="46" cy="39" r="1.8"/>
		<circle class="st1" cx="50.3" cy="39" r="1.8"/>
		<circle class="st1" cx="54.6" cy="39" r="1.8"/>
		<circle class="st1" cx="59" cy="39" r="1.8"/>
		<circle class="st1" cx="63.3" cy="39" r="1.8"/>
		<circle class="st1" cx="67.6" cy="39" r="1.8"/>
		<circle class="st1" cx="72" cy="39" r="1.8"/>
		<circle class="st1" cx="76.3" cy="39" r="1.8"/>
		<circle class="st1" cx="80.6" cy="39" r="1.8"/>
		<circle class="st1" cx="84.9" cy="39" r="1.8"/>
		<circle class="st1" cx="89.3" cy="39" r="1.8"/>
		<circle class="st1" cx="93.6" cy="39" r="1.8"/>
		<circle class="st1" cx="97.9" cy="39" r="1.8"/>
		<circle class="st1" cx="102.3" cy="39" r="1.8"/>
		<circle class="st1" cx="106.6" cy="39" r="1.8"/>
		<circle class="st1" cx="110.9" cy="39" r="1.8"/>
		<circle class="st1" cx="115.3" cy="39" r="1.8"/>
		<text transform="matrix(1 0 0 1 118.3607 40.0715)" class="st1 st2 st3">00</text>
		<text transform="matrix(1 0 0 1 9.2406 40.0715)" class="st1 st2 st3">00</text>
	</g>
	<g>
		<circle class="st1" cx="15.7" cy="33.1" r="1.8"/>
		<circle class="st1" cx="20.1" cy="33.1" r="1.8"/>
		<circle class="st1" cx="24.4" cy="33.1" r="1.8"/>
		<circle class="st1" cx="28.7" cy="33.1" r="1.8"/>
		<circle class="st1" cx="33" cy="33.1" r="1.8"/>
		<circle class="st1" cx="37.3" cy="33.1" r="1.8"/>
		<circle class="st1" cx="41.7" cy="33.1" r="1.8"/>
		<circle class="st1" cx="46" cy="33.1" r="1.8"/>
		<circle class="st1" cx="50.3" cy="33.1" r="1.8"/>
		<circle class="st1" cx="54.6" cy="33.1" r="1.8"/>
		<circle class="st1" cx="59" cy="33.1" r="1.8"/>
		<circle class="st1" cx="63.3" cy="33.1" r="1.9"/>
		<circle class="st1" cx="67.6" cy="33.1" r="1.8"/>
		<circle class="st1" cx="72" cy="33.1" r="1.8"/>
		<circle class="st1" cx="76.3" cy="33.1" r="1.8"/>
		<circle class="st1" cx="80.6" cy="33.1" r="1.8"/>
		<circle class="st1" cx="84.9" cy="33.1" r="1.8"/>
		<circle class="st1" cx="89.3" cy="33.1" r="1.8"/>
		<circle class="st1" cx="93.6" cy="33.1" r="1.8"/>
		<circle class="st1" cx="97.9" cy="33.1" r="1.8"/>
		<circle class="st1" cx="102.3" cy="33.1" r="1.8"/>
		<circle class="st1" cx="106.6" cy="33.1" r="1.8"/>
		<circle class="st1" cx="110.9" cy="33.1" r="1.8"/>
		<circle class="st1" cx="115.3" cy="33.1" r="1.8"/>
		<text transform="matrix(1 0 0 1 118.3607 34.1415)" class="st1 st2 st3">00</text>
		<text transform="matrix(1 0 0 1 9.2406 34.1415)" class="st1 st2 st3">00</text>
	</g>
	<g>
		<circle class="st1" cx="15.7" cy="27.2" r="1.9"/>
		<circle class="st1" cx="20.1" cy="27.2" r="1.9"/>
		<circle class="st1" cx="24.4" cy="27.2" r="1.9"/>
		<circle class="st1" cx="28.7" cy="27.2" r="1.9"/>
		<circle class="st1" cx="33" cy="27.2" r="1.8"/>
		<circle class="st1" cx="37.3" cy="27.2" r="1.8"/>
		<circle class="st1" cx="41.7" cy="27.2" r="1.8"/>
		<circle class="st1" cx="46" cy="27.2" r="1.8"/>
		<circle class="st1" cx="50.3" cy="27.2" r="1.8"/>
		<circle class="st1" cx="54.6" cy="27.2" r="1.8"/>
		<circle class="st1" cx="59" cy="27.2" r="1.8"/>
		<circle class="st1" cx="63.3" cy="27.2" r="1.9"/>
		<circle class="st1" cx="67.6" cy="27.2" r="1.8"/>
		<circle class="st1" cx="72" cy="27.2" r="1.8"/>
		<circle class="st1" cx="76.3" cy="27.2" r="1.8"/>
		<circle class="st1" cx="80.6" cy="27.2" r="1.8"/>
		<circle class="st1" cx="84.9" cy="27.2" r="1.8"/>
		<circle class="st1" cx="89.3" cy="27.2" r="1.8"/>
		<circle class="st1" cx="93.6" cy="27.2" r="1.8"/>
		<circle class="st1" cx="97.9" cy="27.2" r="1.8"/>
		<circle class="st1" cx="102.3" cy="27.2" r="1.8"/>
		<circle class="st1" cx="106.6" cy="27.2" r="1.8"/>
		<circle class="st1" cx="110.9" cy="27.2" r="1.8"/>
		<circle class="st1" cx="115.3" cy="27.2" r="1.8"/>
		<text transform="matrix(1 0 0 1 118.3607 28.2114)" class="st1 st2 st3">00</text>
		<text transform="matrix(1 0 0 1 9.2406 28.2114)" class="st1 st2 st3">00</text>
	</g>
	<g>
		<circle class="st1" cx="15.7" cy="21.2" r="1.9"/>
		<circle class="st1" cx="20.1" cy="21.2" r="1.9"/>
		<circle class="st1" cx="24.4" cy="21.2" r="1.9"/>
		<circle class="st1" cx="28.7" cy="21.2" r="1.9"/>
		<circle class="st1" cx="33" cy="21.2" r="1.8"/>
		<circle class="st1" cx="37.3" cy="21.2" r="1.8"/>
		<circle class="st1" cx="41.7" cy="21.2" r="1.8"/>
		<circle class="st1" cx="46" cy="21.2" r="1.8"/>
		<circle class="st1" cx="50.3" cy="21.2" r="1.8"/>
		<circle class="st1" cx="54.6" cy="21.2" r="1.8"/>
		<circle class="st1" cx="59" cy="21.2" r="1.8"/>
		<circle class="st1" cx="63.3" cy="21.2" r="1.9"/>
		<circle class="st1" cx="67.6" cy="21.2" r="1.8"/>
		<circle class="st1" cx="72" cy="21.2" r="1.8"/>
		<circle class="st1" cx="76.3" cy="21.2" r="1.8"/>
		<circle class="st1" cx="80.6" cy="21.2" r="1.8"/>
		<circle class="st1" cx="84.9" cy="21.2" r="1.8"/>
		<circle class="st1" cx="89.3" cy="21.2" r="1.8"/>
		<circle class="st1" cx="93.6" cy="21.2" r="1.8"/>
		<circle class="st1" cx="97.9" cy="21.2" r="1.8"/>
		<circle class="st1" cx="102.3" cy="21.2" r="1.8"/>
		<circle class="st1" cx="106.6" cy="21.2" r="1.8"/>
		<circle class="st1" cx="110.9" cy="21.2" r="1.8"/>
		<circle class="st1" cx="115.3" cy="21.2" r="1.8"/>
		<text transform="matrix(1 0 0 1 118.3607 22.2814)" class="st1 st2 st3">00</text>
		<text transform="matrix(1 0 0 1 9.2406 22.2814)" class="st1 st2 st3">00</text>
	</g>
	<g>
		<circle class="st1" cx="41.7" cy="15.3" r="1.8"/>
		<circle class="st1" cx="46" cy="15.3" r="1.8"/>
		<circle class="st1" cx="50.4" cy="15.3" r="1.8"/>
		<circle class="st1" cx="54.7" cy="15.3" r="1.8"/>
		<circle class="st1" cx="59" cy="15.3" r="1.8"/>
		<circle class="st1" cx="63.3" cy="15.3" r="1.8"/>
		<circle class="st1" cx="67.7" cy="15.3" r="1.8"/>
		<circle class="st1" cx="72" cy="15.3" r="1.8"/>
		<circle class="st1" cx="76.3" cy="15.3" r="1.8"/>
		<circle class="st1" cx="80.6" cy="15.3" r="1.8"/>
		<circle class="st1" cx="84.9" cy="15.3" r="1.8"/>
		<circle class="st1" cx="89.3" cy="15.3" r="1.8"/>
		<circle class="st1" cx="93.6" cy="15.3" r="1.8"/>
		<circle class="st1" cx="97.9" cy="15.3" r="1.8"/>
		<circle class="st1" cx="102.3" cy="15.3" r="1.8"/>
		<circle class="st1" cx="106.6" cy="15.3" r="1.8"/>
		<circle class="st1" cx="110.9" cy="15.3" r="1.8"/>
		<circle class="st1" cx="115.3" cy="15.3" r="1.8"/>
		<text transform="matrix(1 0 0 1 118.3607 16.3513)" class="st1 st2 st3">00</text>
		<text transform="matrix(1 0 0 1 35.2206 16.3513)" class="st1 st2 st3">00</text>
	</g>
	<g>
		<circle class="st1" cx="41.7" cy="9.4" r="1.8"/>
		<circle class="st1" cx="46" cy="9.4" r="1.8"/>
		<circle class="st1" cx="50.4" cy="9.4" r="1.8"/>
		<circle class="st1" cx="54.7" cy="9.4" r="1.8"/>
		<circle class="st1" cx="59" cy="9.4" r="1.8"/>
		<circle class="st1" cx="63.3" cy="9.4" r="1.8"/>
		<circle class="st1" cx="67.7" cy="9.4" r="1.8"/>
		<circle class="st1" cx="72" cy="9.4" r="1.8"/>
		<circle class="st1" cx="76.3" cy="9.4" r="1.8"/>
		<circle class="st1" cx="80.6" cy="9.4" r="1.8"/>
		<circle class="st1" cx="84.9" cy="9.4" r="1.8"/>
		<circle class="st1" cx="89.3" cy="9.4" r="1.8"/>
		<circle class="st1" cx="93.6" cy="9.4" r="1.8"/>
		<circle class="st1" cx="97.9" cy="9.4" r="1.8"/>
		<circle class="st1" cx="102.3" cy="9.4" r="1.8"/>
		<circle class="st1" cx="106.6" cy="9.4" r="1.8"/>
		<circle class="st1" cx="110.9" cy="9.4" r="1.8"/>
		<circle class="st1" cx="115.3" cy="9.4" r="1.8"/>
		<text transform="matrix(1 0 0 1 118.3607 10.4213)" class="st1 st2 st3">00</text>
		<text transform="matrix(1 0 0 1 35.2206 10.4213)" class="st1 st2 st3">00</text>
	</g>
</g>
</svg>
