<?xml version="1.0" encoding="utf-8"?>
<!-- Generator: Adobe Illustrator 23.0.1, SVG Export Plug-In . SVG Version: 6.00 Build 0)  -->
<svg version="1.1" id="Layer_1" xmlns="http://www.w3.org/2000/svg" xmlns:xlink="http://www.w3.org/1999/xlink" x="0px" y="0px"
	 viewBox="0 0 131 167" style="enable-background:new 0 0 131 167;" xml:space="preserve">
<style type="text/css">
	.st0{fill:#F1F3F4;stroke:#BCC8CE;stroke-width:0.4;stroke-linecap:round;stroke-miterlimit:10;}
	.st1{fill:#AEBDC4;}
	.st2{font-family:'Roboto-Medium';}
	.st3{font-size:3px;}
</style>
<rect x="0.5" y="0.3" class="st0" width="129.9" height="166.4"/>
<g>
	<g>
		<circle class="st1" cx="15.7" cy="157.6" r="1.9"/>
		<circle class="st1" cx="20.1" cy="157.6" r="1.9"/>
		<circle class="st1" cx="24.4" cy="157.6" r="1.9"/>
		<circle class="st1" cx="28.7" cy="157.6" r="1.9"/>
		<circle class="st1" cx="33" cy="157.6" r="1.9"/>
		<circle class="st1" cx="37.3" cy="157.6" r="1.9"/>
		<circle class="st1" cx="41.7" cy="157.6" r="1.9"/>
		<circle class="st1" cx="46" cy="157.6" r="1.9"/>
		<circle class="st1" cx="50.3" cy="157.6" r="1.9"/>
		<circle class="st1" cx="54.6" cy="157.6" r="1.9"/>
		<circle class="st1" cx="59" cy="157.6" r="1.9"/>
		<circle class="st1" cx="63.3" cy="157.6" r="1.9"/>
		<circle class="st1" cx="67.6" cy="157.6" r="1.9"/>
		<circle class="st1" cx="72" cy="157.6" r="1.9"/>
		<circle class="st1" cx="76.3" cy="157.6" r="1.9"/>
		<circle class="st1" cx="80.6" cy="157.6" r="1.9"/>
		<circle class="st1" cx="84.9" cy="157.6" r="1.9"/>
		<circle class="st1" cx="89.3" cy="157.6" r="1.9"/>
		<circle class="st1" cx="93.6" cy="157.6" r="1.9"/>
		<circle class="st1" cx="97.9" cy="157.6" r="1.9"/>
		<circle class="st1" cx="102.3" cy="157.6" r="1.9"/>
		<circle class="st1" cx="106.6" cy="157.6" r="1.9"/>
		<circle class="st1" cx="110.9" cy="157.6" r="1.9"/>
		<circle class="st1" cx="115.3" cy="157.6" r="1.9"/>
		<text transform="matrix(1 0 0 1 118.343 158.7085)" class="st1 st2 st3">00</text>
		<text transform="matrix(1 0 0 1 9.2229 158.7085)" class="st1 st2 st3">00</text>
	</g>
	<g>
		<circle class="st1" cx="15.7" cy="151.7" r="1.9"/>
		<circle class="st1" cx="20.1" cy="151.7" r="1.9"/>
		<circle class="st1" cx="24.4" cy="151.7" r="1.9"/>
		<circle class="st1" cx="28.7" cy="151.7" r="1.9"/>
		<circle class="st1" cx="33" cy="151.7" r="1.9"/>
		<circle class="st1" cx="37.3" cy="151.7" r="1.9"/>
		<circle class="st1" cx="41.7" cy="151.7" r="1.9"/>
		<circle class="st1" cx="46" cy="151.7" r="1.9"/>
		<circle class="st1" cx="50.3" cy="151.7" r="1.9"/>
		<circle class="st1" cx="54.6" cy="151.7" r="1.9"/>
		<circle class="st1" cx="59" cy="151.7" r="1.9"/>
		<circle class="st1" cx="63.3" cy="151.7" r="1.9"/>
		<circle class="st1" cx="67.6" cy="151.7" r="1.9"/>
		<circle class="st1" cx="72" cy="151.7" r="1.9"/>
		<circle class="st1" cx="76.3" cy="151.7" r="1.9"/>
		<circle class="st1" cx="80.6" cy="151.7" r="1.9"/>
		<circle class="st1" cx="84.9" cy="151.7" r="1.9"/>
		<circle class="st1" cx="89.3" cy="151.7" r="1.9"/>
		<circle class="st1" cx="93.6" cy="151.7" r="1.9"/>
		<circle class="st1" cx="97.9" cy="151.7" r="1.9"/>
		<circle class="st1" cx="102.3" cy="151.7" r="1.9"/>
		<circle class="st1" cx="106.6" cy="151.7" r="1.9"/>
		<circle class="st1" cx="110.9" cy="151.7" r="1.9"/>
		<circle class="st1" cx="115.3" cy="151.7" r="1.9"/>
		<text transform="matrix(1 0 0 1 118.343 152.7786)" class="st1 st2 st3">00</text>
		<text transform="matrix(1 0 0 1 9.2229 152.7786)" class="st1 st2 st3">00</text>
	</g>
	<g>
		<circle class="st1" cx="15.7" cy="145.8" r="1.9"/>
		<circle class="st1" cx="20.1" cy="145.8" r="1.9"/>
		<circle class="st1" cx="24.4" cy="145.8" r="1.9"/>
		<circle class="st1" cx="28.7" cy="145.8" r="1.9"/>
		<circle class="st1" cx="33" cy="145.8" r="1.9"/>
		<circle class="st1" cx="37.3" cy="145.8" r="1.9"/>
		<circle class="st1" cx="41.7" cy="145.8" r="1.9"/>
		<circle class="st1" cx="46" cy="145.8" r="1.9"/>
		<circle class="st1" cx="50.3" cy="145.8" r="1.9"/>
		<circle class="st1" cx="54.6" cy="145.8" r="1.9"/>
		<circle class="st1" cx="59" cy="145.8" r="1.9"/>
		<circle class="st1" cx="63.3" cy="145.8" r="1.9"/>
		<circle class="st1" cx="67.6" cy="145.8" r="1.9"/>
		<circle class="st1" cx="72" cy="145.8" r="1.9"/>
		<circle class="st1" cx="76.3" cy="145.8" r="1.9"/>
		<circle class="st1" cx="80.6" cy="145.8" r="1.9"/>
		<circle class="st1" cx="84.9" cy="145.8" r="1.9"/>
		<circle class="st1" cx="89.3" cy="145.8" r="1.9"/>
		<circle class="st1" cx="93.6" cy="145.8" r="1.9"/>
		<circle class="st1" cx="97.9" cy="145.8" r="1.9"/>
		<circle class="st1" cx="102.3" cy="145.8" r="1.9"/>
		<circle class="st1" cx="106.6" cy="145.8" r="1.9"/>
		<circle class="st1" cx="110.9" cy="145.8" r="1.9"/>
		<circle class="st1" cx="115.3" cy="145.8" r="1.9"/>
		<text transform="matrix(1 0 0 1 118.343 146.8486)" class="st1 st2 st3">00</text>
		<text transform="matrix(1 0 0 1 9.2229 146.8486)" class="st1 st2 st3">00</text>
	</g>
	<g>
		<circle class="st1" cx="24.4" cy="139.9" r="1.9"/>
		<circle class="st1" cx="28.7" cy="139.9" r="1.9"/>
		<circle class="st1" cx="33" cy="139.9" r="1.9"/>
		<circle class="st1" cx="37.4" cy="139.9" r="1.9"/>
		<circle class="st1" cx="41.7" cy="139.9" r="1.9"/>
		<circle class="st1" cx="46" cy="139.9" r="1.9"/>
		<circle class="st1" cx="50.3" cy="139.9" r="1.9"/>
		<circle class="st1" cx="54.6" cy="139.9" r="1.9"/>
		<circle class="st1" cx="59" cy="139.9" r="1.9"/>
		<circle class="st1" cx="63.3" cy="139.9" r="1.9"/>
		<circle class="st1" cx="67.6" cy="139.9" r="1.9"/>
		<circle class="st1" cx="72" cy="139.9" r="1.9"/>
		<circle class="st1" cx="76.3" cy="139.9" r="1.9"/>
		<circle class="st1" cx="80.6" cy="139.9" r="1.9"/>
		<circle class="st1" cx="84.9" cy="139.9" r="1.9"/>
		<circle class="st1" cx="89.3" cy="139.9" r="1.9"/>
		<circle class="st1" cx="93.6" cy="139.9" r="1.9"/>
		<circle class="st1" cx="97.9" cy="139.9" r="1.9"/>
		<circle class="st1" cx="102.3" cy="139.9" r="1.9"/>
		<circle class="st1" cx="106.6" cy="139.9" r="1.9"/>
		<text transform="matrix(1 0 0 1 109.683 140.9497)" class="st1 st2 st3">00</text>
		<text transform="matrix(1 0 0 1 17.8629 140.9497)" class="st1 st2 st3">00</text>
	</g>
	<g>
		<circle class="st1" cx="24.4" cy="133.9" r="1.9"/>
		<circle class="st1" cx="28.7" cy="133.9" r="1.9"/>
		<circle class="st1" cx="33" cy="133.9" r="1.9"/>
		<circle class="st1" cx="37.4" cy="133.9" r="1.9"/>
		<circle class="st1" cx="41.7" cy="133.9" r="1.9"/>
		<circle class="st1" cx="46" cy="133.9" r="1.9"/>
		<circle class="st1" cx="50.3" cy="133.9" r="1.9"/>
		<circle class="st1" cx="54.6" cy="133.9" r="1.9"/>
		<circle class="st1" cx="59" cy="133.9" r="1.9"/>
		<circle class="st1" cx="63.3" cy="133.9" r="1.9"/>
		<circle class="st1" cx="67.6" cy="133.9" r="1.9"/>
		<circle class="st1" cx="72" cy="133.9" r="1.9"/>
		<circle class="st1" cx="76.3" cy="133.9" r="1.9"/>
		<circle class="st1" cx="80.6" cy="133.9" r="1.9"/>
		<circle class="st1" cx="84.9" cy="133.9" r="1.9"/>
		<circle class="st1" cx="89.3" cy="133.9" r="1.9"/>
		<circle class="st1" cx="93.6" cy="133.9" r="1.9"/>
		<circle class="st1" cx="97.9" cy="133.9" r="1.9"/>
		<circle class="st1" cx="102.3" cy="133.9" r="1.9"/>
		<circle class="st1" cx="106.6" cy="133.9" r="1.9"/>
		<text transform="matrix(1 0 0 1 109.683 134.9785)" class="st1 st2 st3">00</text>
		<text transform="matrix(1 0 0 1 17.8629 134.9785)" class="st1 st2 st3">00</text>
	</g>
	<g>
		<circle class="st1" cx="24.4" cy="128" r="1.8"/>
		<circle class="st1" cx="28.7" cy="128" r="1.8"/>
		<circle class="st1" cx="33" cy="128" r="1.8"/>
		<circle class="st1" cx="37.4" cy="128" r="1.8"/>
		<circle class="st1" cx="41.7" cy="128" r="1.8"/>
		<circle class="st1" cx="46" cy="128" r="1.8"/>
		<circle class="st1" cx="50.3" cy="128" r="1.8"/>
		<circle class="st1" cx="54.6" cy="128" r="1.8"/>
		<circle class="st1" cx="59" cy="128" r="1.8"/>
		<circle class="st1" cx="63.3" cy="128" r="1.8"/>
		<circle class="st1" cx="67.6" cy="128" r="1.8"/>
		<circle class="st1" cx="72" cy="128" r="1.8"/>
		<circle class="st1" cx="76.3" cy="128" r="1.8"/>
		<circle class="st1" cx="80.6" cy="128" r="1.8"/>
		<circle class="st1" cx="84.9" cy="128" r="1.8"/>
		<circle class="st1" cx="89.3" cy="128" r="1.8"/>
		<circle class="st1" cx="93.6" cy="128" r="1.8"/>
		<circle class="st1" cx="97.9" cy="128" r="1.8"/>
		<circle class="st1" cx="102.3" cy="128" r="1.8"/>
		<circle class="st1" cx="106.6" cy="128" r="1.8"/>
		<text transform="matrix(1 0 0 1 109.683 129.0073)" class="st1 st2 st3">00</text>
		<text transform="matrix(1 0 0 1 17.8629 129.0073)" class="st1 st2 st3">00</text>
	</g>
	<g>
		<circle class="st1" cx="24.4" cy="122.1" r="1.8"/>
		<circle class="st1" cx="28.7" cy="122.1" r="1.8"/>
		<circle class="st1" cx="33" cy="122.1" r="1.8"/>
		<circle class="st1" cx="37.4" cy="122.1" r="1.8"/>
		<circle class="st1" cx="41.7" cy="122.1" r="1.8"/>
		<circle class="st1" cx="46" cy="122.1" r="1.8"/>
		<circle class="st1" cx="50.3" cy="122.1" r="1.8"/>
		<circle class="st1" cx="54.6" cy="122.1" r="1.8"/>
		<circle class="st1" cx="59" cy="122.1" r="1.8"/>
		<circle class="st1" cx="63.3" cy="122.1" r="1.8"/>
		<circle class="st1" cx="67.6" cy="122.1" r="1.8"/>
		<circle class="st1" cx="72" cy="122.1" r="1.8"/>
		<circle class="st1" cx="76.3" cy="122.1" r="1.8"/>
		<circle class="st1" cx="80.6" cy="122.1" r="1.8"/>
		<circle class="st1" cx="84.9" cy="122.1" r="1.8"/>
		<circle class="st1" cx="89.3" cy="122.1" r="1.8"/>
		<circle class="st1" cx="93.6" cy="122.1" r="1.8"/>
		<circle class="st1" cx="97.9" cy="122.1" r="1.8"/>
		<circle class="st1" cx="102.3" cy="122.1" r="1.8"/>
		<circle class="st1" cx="106.6" cy="122.1" r="1.8"/>
		<text transform="matrix(1 0 0 1 109.683 123.0361)" class="st1 st2 st3">00</text>
		<text transform="matrix(1 0 0 1 17.8629 123.0361)" class="st1 st2 st3">00</text>
	</g>
	<g>
		<circle class="st1" cx="24.4" cy="116.1" r="1.8"/>
		<circle class="st1" cx="28.7" cy="116.1" r="1.8"/>
		<circle class="st1" cx="33" cy="116.1" r="1.8"/>
		<circle class="st1" cx="37.4" cy="116.1" r="1.8"/>
		<circle class="st1" cx="41.7" cy="116.1" r="1.8"/>
		<circle class="st1" cx="46" cy="116.1" r="1.8"/>
		<circle class="st1" cx="50.3" cy="116.1" r="1.8"/>
		<circle class="st1" cx="54.6" cy="116.1" r="1.8"/>
		<circle class="st1" cx="59" cy="116.1" r="1.8"/>
		<circle class="st1" cx="63.3" cy="116.1" r="1.8"/>
		<circle class="st1" cx="67.6" cy="116.1" r="1.8"/>
		<circle class="st1" cx="72" cy="116.1" r="1.8"/>
		<circle class="st1" cx="76.3" cy="116.1" r="1.8"/>
		<circle class="st1" cx="80.6" cy="116.1" r="1.8"/>
		<circle class="st1" cx="84.9" cy="116.1" r="1.8"/>
		<circle class="st1" cx="89.3" cy="116.1" r="1.8"/>
		<circle class="st1" cx="93.6" cy="116.1" r="1.8"/>
		<circle class="st1" cx="97.9" cy="116.1" r="1.8"/>
		<circle class="st1" cx="102.3" cy="116.1" r="1.8"/>
		<circle class="st1" cx="106.6" cy="116.1" r="1.8"/>
		<text transform="matrix(1 0 0 1 109.683 117.0649)" class="st1 st2 st3">00</text>
		<text transform="matrix(1 0 0 1 17.8629 117.0649)" class="st1 st2 st3">00</text>
	</g>
	<g>
		<circle class="st1" cx="15.7" cy="110.2" r="1.8"/>
		<circle class="st1" cx="20.1" cy="110.2" r="1.8"/>
		<circle class="st1" cx="24.4" cy="110.2" r="1.8"/>
		<circle class="st1" cx="28.7" cy="110.2" r="1.8"/>
		<circle class="st1" cx="33" cy="110.2" r="1.8"/>
		<circle class="st1" cx="37.3" cy="110.2" r="1.8"/>
		<circle class="st1" cx="41.7" cy="110.2" r="1.8"/>
		<circle class="st1" cx="46" cy="110.2" r="1.8"/>
		<circle class="st1" cx="50.3" cy="110.2" r="1.8"/>
		<circle class="st1" cx="54.6" cy="110.2" r="1.8"/>
		<circle class="st1" cx="59" cy="110.2" r="1.8"/>
		<circle class="st1" cx="63.3" cy="110.2" r="1.8"/>
		<circle class="st1" cx="67.6" cy="110.2" r="1.8"/>
		<circle class="st1" cx="72" cy="110.2" r="1.8"/>
		<circle class="st1" cx="76.3" cy="110.2" r="1.8"/>
		<circle class="st1" cx="80.6" cy="110.2" r="1.8"/>
		<circle class="st1" cx="84.9" cy="110.2" r="1.8"/>
		<circle class="st1" cx="89.3" cy="110.2" r="1.8"/>
		<circle class="st1" cx="93.6" cy="110.2" r="1.8"/>
		<circle class="st1" cx="97.9" cy="110.2" r="1.8"/>
		<circle class="st1" cx="102.3" cy="110.2" r="1.8"/>
		<circle class="st1" cx="106.6" cy="110.2" r="1.8"/>
		<circle class="st1" cx="110.9" cy="110.2" r="1.8"/>
		<circle class="st1" cx="115.3" cy="110.2" r="1.8"/>
		<text transform="matrix(1 0 0 1 118.343 111.2587)" class="st1 st2 st3">00</text>
		<text transform="matrix(1 0 0 1 9.2229 111.2587)" class="st1 st2 st3">00</text>
	</g>
	<g>
		<circle class="st1" cx="15.7" cy="104.3" r="1.8"/>
		<circle class="st1" cx="20.1" cy="104.3" r="1.8"/>
		<circle class="st1" cx="24.4" cy="104.3" r="1.8"/>
		<circle class="st1" cx="28.7" cy="104.3" r="1.8"/>
		<circle class="st1" cx="33" cy="104.3" r="1.8"/>
		<circle class="st1" cx="37.3" cy="104.3" r="1.8"/>
		<circle class="st1" cx="41.7" cy="104.3" r="1.8"/>
		<circle class="st1" cx="46" cy="104.3" r="1.8"/>
		<circle class="st1" cx="50.3" cy="104.3" r="1.8"/>
		<circle class="st1" cx="54.6" cy="104.3" r="1.8"/>
		<circle class="st1" cx="59" cy="104.3" r="1.8"/>
		<circle class="st1" cx="63.3" cy="104.3" r="1.8"/>
		<circle class="st1" cx="67.6" cy="104.3" r="1.8"/>
		<circle class="st1" cx="72" cy="104.3" r="1.8"/>
		<circle class="st1" cx="76.3" cy="104.3" r="1.8"/>
		<circle class="st1" cx="80.6" cy="104.3" r="1.8"/>
		<circle class="st1" cx="84.9" cy="104.3" r="1.8"/>
		<circle class="st1" cx="89.3" cy="104.3" r="1.8"/>
		<circle class="st1" cx="93.6" cy="104.3" r="1.8"/>
		<circle class="st1" cx="97.9" cy="104.3" r="1.8"/>
		<circle class="st1" cx="102.3" cy="104.3" r="1.8"/>
		<circle class="st1" cx="106.6" cy="104.3" r="1.8"/>
		<circle class="st1" cx="110.9" cy="104.3" r="1.8"/>
		<circle class="st1" cx="115.3" cy="104.3" r="1.8"/>
		<text transform="matrix(1 0 0 1 118.343 105.3286)" class="st1 st2 st3">00</text>
		<text transform="matrix(1 0 0 1 9.2229 105.3286)" class="st1 st2 st3">00</text>
	</g>
	<g>
		<circle class="st1" cx="15.7" cy="98.3" r="1.8"/>
		<circle class="st1" cx="20.1" cy="98.3" r="1.8"/>
		<circle class="st1" cx="24.4" cy="98.3" r="1.8"/>
		<circle class="st1" cx="28.7" cy="98.3" r="1.8"/>
		<circle class="st1" cx="33" cy="98.3" r="1.8"/>
		<circle class="st1" cx="37.3" cy="98.3" r="1.8"/>
		<circle class="st1" cx="41.7" cy="98.3" r="1.8"/>
		<circle class="st1" cx="46" cy="98.3" r="1.8"/>
		<circle class="st1" cx="50.3" cy="98.3" r="1.8"/>
		<circle class="st1" cx="54.6" cy="98.3" r="1.8"/>
		<circle class="st1" cx="59" cy="98.3" r="1.8"/>
		<circle class="st1" cx="63.3" cy="98.3" r="1.8"/>
		<circle class="st1" cx="67.6" cy="98.3" r="1.8"/>
		<circle class="st1" cx="72" cy="98.3" r="1.8"/>
		<circle class="st1" cx="76.3" cy="98.3" r="1.8"/>
		<circle class="st1" cx="80.6" cy="98.3" r="1.8"/>
		<circle class="st1" cx="84.9" cy="98.3" r="1.8"/>
		<circle class="st1" cx="89.3" cy="98.3" r="1.8"/>
		<circle class="st1" cx="93.6" cy="98.3" r="1.8"/>
		<circle class="st1" cx="97.9" cy="98.3" r="1.8"/>
		<circle class="st1" cx="102.3" cy="98.3" r="1.8"/>
		<circle class="st1" cx="106.6" cy="98.3" r="1.8"/>
		<circle class="st1" cx="110.9" cy="98.3" r="1.8"/>
		<circle class="st1" cx="115.3" cy="98.3" r="1.8"/>
		<text transform="matrix(1 0 0 1 118.343 99.3986)" class="st1 st2 st3">00</text>
		<text transform="matrix(1 0 0 1 9.2229 99.3986)" class="st1 st2 st3">00</text>
	</g>
	<g>
		<circle class="st1" cx="15.7" cy="92.4" r="1.8"/>
		<circle class="st1" cx="20.1" cy="92.4" r="1.8"/>
		<circle class="st1" cx="24.4" cy="92.4" r="1.8"/>
		<circle class="st1" cx="28.7" cy="92.4" r="1.8"/>
		<circle class="st1" cx="33" cy="92.4" r="1.8"/>
		<circle class="st1" cx="37.3" cy="92.4" r="1.8"/>
		<circle class="st1" cx="41.7" cy="92.4" r="1.8"/>
		<circle class="st1" cx="46" cy="92.4" r="1.8"/>
		<circle class="st1" cx="50.3" cy="92.4" r="1.8"/>
		<circle class="st1" cx="54.6" cy="92.4" r="1.8"/>
		<circle class="st1" cx="59" cy="92.4" r="1.8"/>
		<circle class="st1" cx="63.3" cy="92.4" r="1.8"/>
		<circle class="st1" cx="67.6" cy="92.4" r="1.8"/>
		<circle class="st1" cx="72" cy="92.4" r="1.8"/>
		<circle class="st1" cx="76.3" cy="92.4" r="1.8"/>
		<circle class="st1" cx="80.6" cy="92.4" r="1.8"/>
		<circle class="st1" cx="84.9" cy="92.4" r="1.8"/>
		<circle class="st1" cx="89.3" cy="92.4" r="1.8"/>
		<circle class="st1" cx="93.6" cy="92.4" r="1.8"/>
		<circle class="st1" cx="97.9" cy="92.4" r="1.8"/>
		<circle class="st1" cx="102.3" cy="92.4" r="1.8"/>
		<circle class="st1" cx="106.6" cy="92.4" r="1.8"/>
		<circle class="st1" cx="110.9" cy="92.4" r="1.8"/>
		<circle class="st1" cx="115.3" cy="92.4" r="1.8"/>
		<text transform="matrix(1 0 0 1 118.343 93.4685)" class="st1 st2 st3">00</text>
		<text transform="matrix(1 0 0 1 9.2229 93.4685)" class="st1 st2 st3">00</text>
	</g>
	<g>
		<circle class="st1" cx="15.7" cy="86.5" r="1.8"/>
		<circle class="st1" cx="20.1" cy="86.5" r="1.8"/>
		<circle class="st1" cx="24.4" cy="86.5" r="1.8"/>
		<circle class="st1" cx="28.7" cy="86.5" r="1.8"/>
		<circle class="st1" cx="33" cy="86.5" r="1.8"/>
		<circle class="st1" cx="37.3" cy="86.5" r="1.8"/>
		<circle class="st1" cx="41.7" cy="86.5" r="1.8"/>
		<circle class="st1" cx="46" cy="86.5" r="1.8"/>
		<circle class="st1" cx="50.3" cy="86.5" r="1.8"/>
		<circle class="st1" cx="54.6" cy="86.5" r="1.8"/>
		<circle class="st1" cx="59" cy="86.5" r="1.8"/>
		<circle class="st1" cx="63.3" cy="86.5" r="1.8"/>
		<circle class="st1" cx="67.6" cy="86.5" r="1.8"/>
		<circle class="st1" cx="72" cy="86.5" r="1.8"/>
		<circle class="st1" cx="76.3" cy="86.5" r="1.8"/>
		<circle class="st1" cx="80.6" cy="86.5" r="1.8"/>
		<circle class="st1" cx="84.9" cy="86.5" r="1.8"/>
		<circle class="st1" cx="89.3" cy="86.5" r="1.8"/>
		<circle class="st1" cx="93.6" cy="86.5" r="1.8"/>
		<circle class="st1" cx="97.9" cy="86.5" r="1.8"/>
		<circle class="st1" cx="102.3" cy="86.5" r="1.8"/>
		<circle class="st1" cx="106.6" cy="86.5" r="1.8"/>
		<circle class="st1" cx="110.9" cy="86.5" r="1.8"/>
		<circle class="st1" cx="115.3" cy="86.5" r="1.8"/>
		<text transform="matrix(1 0 0 1 118.343 87.5385)" class="st1 st2 st3">00</text>
		<text transform="matrix(1 0 0 1 9.2229 87.5385)" class="st1 st2 st3">00</text>
	</g>
	<g>
		<circle class="st1" cx="15.7" cy="80.5" r="1.8"/>
		<circle class="st1" cx="20.1" cy="80.5" r="1.8"/>
		<circle class="st1" cx="24.4" cy="80.5" r="1.8"/>
		<circle class="st1" cx="28.7" cy="80.5" r="1.8"/>
		<circle class="st1" cx="33" cy="80.5" r="1.8"/>
		<circle class="st1" cx="37.3" cy="80.5" r="1.8"/>
		<circle class="st1" cx="41.7" cy="80.5" r="1.8"/>
		<circle class="st1" cx="46" cy="80.5" r="1.8"/>
		<circle class="st1" cx="50.3" cy="80.5" r="1.8"/>
		<circle class="st1" cx="54.6" cy="80.5" r="1.8"/>
		<circle class="st1" cx="59" cy="80.5" r="1.8"/>
		<circle class="st1" cx="63.3" cy="80.5" r="1.8"/>
		<circle class="st1" cx="67.6" cy="80.5" r="1.8"/>
		<circle class="st1" cx="72" cy="80.5" r="1.8"/>
		<circle class="st1" cx="76.3" cy="80.5" r="1.8"/>
		<circle class="st1" cx="80.6" cy="80.5" r="1.8"/>
		<circle class="st1" cx="84.9" cy="80.5" r="1.8"/>
		<circle class="st1" cx="89.3" cy="80.5" r="1.8"/>
		<circle class="st1" cx="93.6" cy="80.5" r="1.8"/>
		<circle class="st1" cx="97.9" cy="80.5" r="1.8"/>
		<circle class="st1" cx="102.3" cy="80.5" r="1.8"/>
		<circle class="st1" cx="106.6" cy="80.5" r="1.8"/>
		<circle class="st1" cx="110.9" cy="80.5" r="1.8"/>
		<circle class="st1" cx="115.3" cy="80.5" r="1.8"/>
		<text transform="matrix(1 0 0 1 118.343 81.6084)" class="st1 st2 st3">00</text>
		<text transform="matrix(1 0 0 1 9.2229 81.6084)" class="st1 st2 st3">00</text>
	</g>
	<g>
		<circle class="st1" cx="15.7" cy="74.6" r="1.8"/>
		<circle class="st1" cx="20.1" cy="74.6" r="1.8"/>
		<circle class="st1" cx="24.4" cy="74.6" r="1.8"/>
		<circle class="st1" cx="28.7" cy="74.6" r="1.8"/>
		<circle class="st1" cx="33" cy="74.6" r="1.8"/>
		<circle class="st1" cx="37.3" cy="74.6" r="1.8"/>
		<circle class="st1" cx="41.7" cy="74.6" r="1.8"/>
		<circle class="st1" cx="46" cy="74.6" r="1.8"/>
		<circle class="st1" cx="50.3" cy="74.6" r="1.8"/>
		<circle class="st1" cx="54.6" cy="74.6" r="1.8"/>
		<circle class="st1" cx="59" cy="74.6" r="1.8"/>
		<circle class="st1" cx="63.3" cy="74.6" r="1.8"/>
		<circle class="st1" cx="67.6" cy="74.6" r="1.8"/>
		<circle class="st1" cx="72" cy="74.6" r="1.8"/>
		<circle class="st1" cx="76.3" cy="74.6" r="1.8"/>
		<circle class="st1" cx="80.6" cy="74.6" r="1.8"/>
		<circle class="st1" cx="84.9" cy="74.6" r="1.8"/>
		<circle class="st1" cx="89.3" cy="74.6" r="1.8"/>
		<circle class="st1" cx="93.6" cy="74.6" r="1.8"/>
		<circle class="st1" cx="97.9" cy="74.6" r="1.8"/>
		<circle class="st1" cx="102.3" cy="74.6" r="1.8"/>
		<circle class="st1" cx="106.6" cy="74.6" r="1.8"/>
		<circle class="st1" cx="110.9" cy="74.6" r="1.8"/>
		<circle class="st1" cx="115.3" cy="74.6" r="1.8"/>
		<text transform="matrix(1 0 0 1 118.343 75.6783)" class="st1 st2 st3">00</text>
		<text transform="matrix(1 0 0 1 9.2229 75.6783)" class="st1 st2 st3">00</text>
	</g>
	<g>
		<circle class="st1" cx="15.7" cy="68.7" r="1.8"/>
		<circle class="st1" cx="20.1" cy="68.7" r="1.8"/>
		<circle class="st1" cx="24.4" cy="68.7" r="1.8"/>
		<circle class="st1" cx="28.7" cy="68.7" r="1.8"/>
		<circle class="st1" cx="33" cy="68.7" r="1.8"/>
		<circle class="st1" cx="37.3" cy="68.7" r="1.8"/>
		<circle class="st1" cx="41.7" cy="68.7" r="1.8"/>
		<circle class="st1" cx="46" cy="68.7" r="1.8"/>
		<circle class="st1" cx="50.3" cy="68.7" r="1.8"/>
		<circle class="st1" cx="54.6" cy="68.7" r="1.8"/>
		<circle class="st1" cx="59" cy="68.7" r="1.8"/>
		<circle class="st1" cx="63.3" cy="68.7" r="1.8"/>
		<circle class="st1" cx="67.6" cy="68.7" r="1.8"/>
		<circle class="st1" cx="72" cy="68.7" r="1.8"/>
		<circle class="st1" cx="76.3" cy="68.7" r="1.8"/>
		<circle class="st1" cx="80.6" cy="68.7" r="1.8"/>
		<circle class="st1" cx="84.9" cy="68.7" r="1.8"/>
		<circle class="st1" cx="89.3" cy="68.7" r="1.8"/>
		<circle class="st1" cx="93.6" cy="68.7" r="1.8"/>
		<circle class="st1" cx="97.9" cy="68.7" r="1.8"/>
		<circle class="st1" cx="102.3" cy="68.7" r="1.8"/>
		<circle class="st1" cx="106.6" cy="68.7" r="1.8"/>
		<circle class="st1" cx="110.9" cy="68.7" r="1.8"/>
		<circle class="st1" cx="115.3" cy="68.7" r="1.8"/>
		<text transform="matrix(1 0 0 1 118.343 69.7483)" class="st1 st2 st3">00</text>
		<text transform="matrix(1 0 0 1 9.2229 69.7483)" class="st1 st2 st3">00</text>
	</g>
	<g>
		<circle class="st1" cx="15.7" cy="62.7" r="1.9"/>
		<circle class="st1" cx="20.1" cy="62.7" r="1.9"/>
		<circle class="st1" cx="24.4" cy="62.7" r="1.9"/>
		<circle class="st1" cx="28.7" cy="62.7" r="1.9"/>
		<circle class="st1" cx="33" cy="62.7" r="1.9"/>
		<circle class="st1" cx="37.3" cy="62.7" r="1.8"/>
		<circle class="st1" cx="41.7" cy="62.7" r="1.8"/>
		<circle class="st1" cx="46" cy="62.7" r="1.8"/>
		<circle class="st1" cx="50.3" cy="62.7" r="1.8"/>
		<circle class="st1" cx="54.6" cy="62.7" r="1.8"/>
		<circle class="st1" cx="59" cy="62.7" r="1.8"/>
		<circle class="st1" cx="63.3" cy="62.7" r="1.9"/>
		<circle class="st1" cx="67.6" cy="62.7" r="1.8"/>
		<circle class="st1" cx="72" cy="62.7" r="1.8"/>
		<circle class="st1" cx="76.3" cy="62.7" r="1.8"/>
		<circle class="st1" cx="80.6" cy="62.7" r="1.8"/>
		<circle class="st1" cx="84.9" cy="62.7" r="1.8"/>
		<circle class="st1" cx="89.3" cy="62.7" r="1.8"/>
		<circle class="st1" cx="93.6" cy="62.7" r="1.8"/>
		<circle class="st1" cx="97.9" cy="62.7" r="1.8"/>
		<circle class="st1" cx="102.3" cy="62.7" r="1.8"/>
		<circle class="st1" cx="106.6" cy="62.7" r="1.8"/>
		<circle class="st1" cx="110.9" cy="62.7" r="1.8"/>
		<circle class="st1" cx="115.3" cy="62.7" r="1.8"/>
		<text transform="matrix(1 0 0 1 118.343 63.8182)" class="st1 st2 st3">00</text>
		<text transform="matrix(1 0 0 1 9.2229 63.8182)" class="st1 st2 st3">00</text>
	</g>
	<g>
		<circle class="st1" cx="15.7" cy="56.8" r="1.8"/>
		<circle class="st1" cx="20.1" cy="56.8" r="1.8"/>
		<circle class="st1" cx="24.4" cy="56.8" r="1.8"/>
		<circle class="st1" cx="28.7" cy="56.8" r="1.8"/>
		<circle class="st1" cx="33" cy="56.8" r="1.8"/>
		<circle class="st1" cx="37.3" cy="56.8" r="1.8"/>
		<circle class="st1" cx="41.7" cy="56.8" r="1.8"/>
		<circle class="st1" cx="46" cy="56.8" r="1.8"/>
		<circle class="st1" cx="50.3" cy="56.8" r="1.8"/>
		<circle class="st1" cx="54.6" cy="56.8" r="1.8"/>
		<circle class="st1" cx="59" cy="56.8" r="1.8"/>
		<circle class="st1" cx="63.3" cy="56.8" r="1.8"/>
		<circle class="st1" cx="67.6" cy="56.8" r="1.8"/>
		<circle class="st1" cx="72" cy="56.8" r="1.8"/>
		<circle class="st1" cx="76.3" cy="56.8" r="1.8"/>
		<circle class="st1" cx="80.6" cy="56.8" r="1.8"/>
		<circle class="st1" cx="84.9" cy="56.8" r="1.8"/>
		<circle class="st1" cx="89.3" cy="56.8" r="1.8"/>
		<circle class="st1" cx="93.6" cy="56.8" r="1.8"/>
		<circle class="st1" cx="97.9" cy="56.8" r="1.8"/>
		<circle class="st1" cx="102.3" cy="56.8" r="1.8"/>
		<circle class="st1" cx="106.6" cy="56.8" r="1.8"/>
		<circle class="st1" cx="110.9" cy="56.8" r="1.8"/>
		<circle class="st1" cx="115.3" cy="56.8" r="1.8"/>
		<text transform="matrix(1 0 0 1 118.343 57.8882)" class="st1 st2 st3">00</text>
		<text transform="matrix(1 0 0 1 9.2229 57.8882)" class="st1 st2 st3">00</text>
	</g>
	<g>
		<circle class="st1" cx="15.7" cy="50.9" r="1.8"/>
		<circle class="st1" cx="20.1" cy="50.9" r="1.8"/>
		<circle class="st1" cx="24.4" cy="50.9" r="1.8"/>
		<circle class="st1" cx="28.7" cy="50.9" r="1.8"/>
		<circle class="st1" cx="33" cy="50.9" r="1.8"/>
		<circle class="st1" cx="37.3" cy="50.9" r="1.8"/>
		<circle class="st1" cx="41.7" cy="50.9" r="1.8"/>
		<circle class="st1" cx="46" cy="50.9" r="1.8"/>
		<circle class="st1" cx="50.3" cy="50.9" r="1.8"/>
		<circle class="st1" cx="54.6" cy="50.9" r="1.8"/>
		<circle class="st1" cx="59" cy="50.9" r="1.8"/>
		<circle class="st1" cx="63.3" cy="50.9" r="1.8"/>
		<circle class="st1" cx="67.6" cy="50.9" r="1.8"/>
		<circle class="st1" cx="72" cy="50.9" r="1.8"/>
		<circle class="st1" cx="76.3" cy="50.9" r="1.8"/>
		<circle class="st1" cx="80.6" cy="50.9" r="1.8"/>
		<circle class="st1" cx="84.9" cy="50.9" r="1.8"/>
		<circle class="st1" cx="89.3" cy="50.9" r="1.8"/>
		<circle class="st1" cx="93.6" cy="50.9" r="1.8"/>
		<circle class="st1" cx="97.9" cy="50.9" r="1.8"/>
		<circle class="st1" cx="102.3" cy="50.9" r="1.8"/>
		<circle class="st1" cx="106.6" cy="50.9" r="1.8"/>
		<circle class="st1" cx="110.9" cy="50.9" r="1.8"/>
		<circle class="st1" cx="115.3" cy="50.9" r="1.8"/>
		<text transform="matrix(1 0 0 1 118.343 51.9581)" class="st1 st2 st3">00</text>
		<text transform="matrix(1 0 0 1 9.2229 51.9581)" class="st1 st2 st3">00</text>
	</g>
	<g>
		<circle class="st1" cx="15.7" cy="45" r="1.8"/>
		<circle class="st1" cx="20.1" cy="45" r="1.8"/>
		<circle class="st1" cx="24.4" cy="45" r="1.8"/>
		<circle class="st1" cx="28.7" cy="45" r="1.8"/>
		<circle class="st1" cx="33" cy="45" r="1.8"/>
		<circle class="st1" cx="37.3" cy="45" r="1.8"/>
		<circle class="st1" cx="41.7" cy="45" r="1.8"/>
		<circle class="st1" cx="46" cy="45" r="1.8"/>
		<circle class="st1" cx="50.3" cy="45" r="1.8"/>
		<circle class="st1" cx="54.6" cy="45" r="1.8"/>
		<circle class="st1" cx="59" cy="45" r="1.8"/>
		<circle class="st1" cx="63.3" cy="45" r="1.8"/>
		<circle class="st1" cx="67.6" cy="45" r="1.8"/>
		<circle class="st1" cx="72" cy="45" r="1.8"/>
		<circle class="st1" cx="76.3" cy="45" r="1.8"/>
		<circle class="st1" cx="80.6" cy="45" r="1.8"/>
		<circle class="st1" cx="84.9" cy="45" r="1.8"/>
		<circle class="st1" cx="89.3" cy="45" r="1.8"/>
		<circle class="st1" cx="93.6" cy="45" r="1.8"/>
		<circle class="st1" cx="97.9" cy="45" r="1.8"/>
		<circle class="st1" cx="102.3" cy="45" r="1.8"/>
		<circle class="st1" cx="106.6" cy="45" r="1.8"/>
		<circle class="st1" cx="110.9" cy="45" r="1.8"/>
		<circle class="st1" cx="115.3" cy="45" r="1.8"/>
		<text transform="matrix(1 0 0 1 118.343 46.0281)" class="st1 st2 st3">00</text>
		<text transform="matrix(1 0 0 1 9.2229 46.0281)" class="st1 st2 st3">00</text>
	</g>
	<g>
		<circle class="st1" cx="15.7" cy="39" r="1.8"/>
		<circle class="st1" cx="20.1" cy="39" r="1.8"/>
		<circle class="st1" cx="24.4" cy="39" r="1.8"/>
		<circle class="st1" cx="28.7" cy="39" r="1.8"/>
		<circle class="st1" cx="33" cy="39" r="1.8"/>
		<circle class="st1" cx="37.3" cy="39" r="1.8"/>
		<circle class="st1" cx="41.7" cy="39" r="1.8"/>
		<circle class="st1" cx="46" cy="39" r="1.8"/>
		<circle class="st1" cx="50.3" cy="39" r="1.8"/>
		<circle class="st1" cx="54.6" cy="39" r="1.8"/>
		<circle class="st1" cx="59" cy="39" r="1.8"/>
		<circle class="st1" cx="63.3" cy="39" r="1.8"/>
		<circle class="st1" cx="67.6" cy="39" r="1.8"/>
		<circle class="st1" cx="72" cy="39" r="1.8"/>
		<circle class="st1" cx="76.3" cy="39" r="1.8"/>
		<circle class="st1" cx="80.6" cy="39" r="1.8"/>
		<circle class="st1" cx="84.9" cy="39" r="1.8"/>
		<circle class="st1" cx="89.3" cy="39" r="1.8"/>
		<circle class="st1" cx="93.6" cy="39" r="1.8"/>
		<circle class="st1" cx="97.9" cy="39" r="1.8"/>
		<circle class="st1" cx="102.3" cy="39" r="1.8"/>
		<circle class="st1" cx="106.6" cy="39" r="1.8"/>
		<circle class="st1" cx="110.9" cy="39" r="1.8"/>
		<circle class="st1" cx="115.3" cy="39" r="1.8"/>
		<text transform="matrix(1 0 0 1 118.343 40.098)" class="st1 st2 st3">00</text>
		<text transform="matrix(1 0 0 1 9.2229 40.098)" class="st1 st2 st3">00</text>
	</g>
	<g>
		<circle class="st1" cx="15.7" cy="33.1" r="1.8"/>
		<circle class="st1" cx="20.1" cy="33.1" r="1.8"/>
		<circle class="st1" cx="24.4" cy="33.1" r="1.8"/>
		<circle class="st1" cx="28.7" cy="33.1" r="1.8"/>
		<circle class="st1" cx="33" cy="33.1" r="1.8"/>
		<circle class="st1" cx="37.3" cy="33.1" r="1.8"/>
		<circle class="st1" cx="41.7" cy="33.1" r="1.8"/>
		<circle class="st1" cx="46" cy="33.1" r="1.8"/>
		<circle class="st1" cx="50.3" cy="33.1" r="1.8"/>
		<circle class="st1" cx="54.6" cy="33.1" r="1.8"/>
		<circle class="st1" cx="59" cy="33.1" r="1.8"/>
		<circle class="st1" cx="63.3" cy="33.1" r="1.9"/>
		<circle class="st1" cx="67.6" cy="33.1" r="1.8"/>
		<circle class="st1" cx="72" cy="33.1" r="1.8"/>
		<circle class="st1" cx="76.3" cy="33.1" r="1.8"/>
		<circle class="st1" cx="80.6" cy="33.1" r="1.8"/>
		<circle class="st1" cx="84.9" cy="33.1" r="1.8"/>
		<circle class="st1" cx="89.3" cy="33.1" r="1.8"/>
		<circle class="st1" cx="93.6" cy="33.1" r="1.8"/>
		<circle class="st1" cx="97.9" cy="33.1" r="1.8"/>
		<circle class="st1" cx="102.3" cy="33.1" r="1.8"/>
		<circle class="st1" cx="106.6" cy="33.1" r="1.8"/>
		<circle class="st1" cx="110.9" cy="33.1" r="1.8"/>
		<circle class="st1" cx="115.3" cy="33.1" r="1.8"/>
		<text transform="matrix(1 0 0 1 118.343 34.168)" class="st1 st2 st3">00</text>
		<text transform="matrix(1 0 0 1 9.2229 34.168)" class="st1 st2 st3">00</text>
	</g>
	<g>
		<circle class="st1" cx="15.7" cy="27.2" r="1.9"/>
		<circle class="st1" cx="20.1" cy="27.2" r="1.9"/>
		<circle class="st1" cx="24.4" cy="27.2" r="1.9"/>
		<circle class="st1" cx="28.7" cy="27.2" r="1.9"/>
		<circle class="st1" cx="33" cy="27.2" r="1.8"/>
		<circle class="st1" cx="37.3" cy="27.2" r="1.8"/>
		<circle class="st1" cx="41.7" cy="27.2" r="1.8"/>
		<circle class="st1" cx="46" cy="27.2" r="1.8"/>
		<circle class="st1" cx="50.3" cy="27.2" r="1.8"/>
		<circle class="st1" cx="54.6" cy="27.2" r="1.8"/>
		<circle class="st1" cx="59" cy="27.2" r="1.8"/>
		<circle class="st1" cx="63.3" cy="27.2" r="1.9"/>
		<circle class="st1" cx="67.6" cy="27.2" r="1.8"/>
		<circle class="st1" cx="72" cy="27.2" r="1.8"/>
		<circle class="st1" cx="76.3" cy="27.2" r="1.8"/>
		<circle class="st1" cx="80.6" cy="27.2" r="1.8"/>
		<circle class="st1" cx="84.9" cy="27.2" r="1.8"/>
		<circle class="st1" cx="89.3" cy="27.2" r="1.8"/>
		<circle class="st1" cx="93.6" cy="27.2" r="1.8"/>
		<circle class="st1" cx="97.9" cy="27.2" r="1.8"/>
		<circle class="st1" cx="102.3" cy="27.2" r="1.8"/>
		<circle class="st1" cx="106.6" cy="27.2" r="1.8"/>
		<circle class="st1" cx="110.9" cy="27.2" r="1.8"/>
		<circle class="st1" cx="115.3" cy="27.2" r="1.8"/>
		<text transform="matrix(1 0 0 1 118.343 28.2379)" class="st1 st2 st3">00</text>
		<text transform="matrix(1 0 0 1 9.2229 28.2379)" class="st1 st2 st3">00</text>
	</g>
	<g>
		<circle class="st1" cx="15.7" cy="21.2" r="1.9"/>
		<circle class="st1" cx="20.1" cy="21.2" r="1.9"/>
		<circle class="st1" cx="24.4" cy="21.2" r="1.9"/>
		<circle class="st1" cx="28.7" cy="21.2" r="1.9"/>
		<circle class="st1" cx="33" cy="21.2" r="1.8"/>
		<circle class="st1" cx="37.3" cy="21.2" r="1.8"/>
		<circle class="st1" cx="41.7" cy="21.2" r="1.8"/>
		<circle class="st1" cx="46" cy="21.2" r="1.8"/>
		<circle class="st1" cx="50.3" cy="21.2" r="1.8"/>
		<circle class="st1" cx="54.6" cy="21.2" r="1.8"/>
		<circle class="st1" cx="59" cy="21.2" r="1.8"/>
		<circle class="st1" cx="63.3" cy="21.2" r="1.9"/>
		<circle class="st1" cx="67.6" cy="21.2" r="1.8"/>
		<circle class="st1" cx="72" cy="21.2" r="1.8"/>
		<circle class="st1" cx="76.3" cy="21.2" r="1.8"/>
		<circle class="st1" cx="80.6" cy="21.2" r="1.8"/>
		<circle class="st1" cx="84.9" cy="21.2" r="1.8"/>
		<circle class="st1" cx="89.3" cy="21.2" r="1.8"/>
		<circle class="st1" cx="93.6" cy="21.2" r="1.8"/>
		<circle class="st1" cx="97.9" cy="21.2" r="1.8"/>
		<circle class="st1" cx="102.3" cy="21.2" r="1.8"/>
		<circle class="st1" cx="106.6" cy="21.2" r="1.8"/>
		<circle class="st1" cx="110.9" cy="21.2" r="1.8"/>
		<circle class="st1" cx="115.3" cy="21.2" r="1.8"/>
		<text transform="matrix(1 0 0 1 118.343 22.3079)" class="st1 st2 st3">00</text>
		<text transform="matrix(1 0 0 1 9.2229 22.3079)" class="st1 st2 st3">00</text>
	</g>
	<g>
		<circle class="st1" cx="15.7" cy="15.3" r="1.9"/>
		<circle class="st1" cx="20.1" cy="15.3" r="1.9"/>
		<circle class="st1" cx="24.4" cy="15.3" r="1.9"/>
		<circle class="st1" cx="28.7" cy="15.3" r="1.9"/>
		<circle class="st1" cx="33" cy="15.3" r="1.8"/>
		<circle class="st1" cx="37.3" cy="15.3" r="1.8"/>
		<circle class="st1" cx="41.7" cy="15.3" r="1.8"/>
		<circle class="st1" cx="46" cy="15.3" r="1.8"/>
		<circle class="st1" cx="50.3" cy="15.3" r="1.8"/>
		<circle class="st1" cx="54.6" cy="15.3" r="1.8"/>
		<circle class="st1" cx="59" cy="15.3" r="1.8"/>
		<circle class="st1" cx="63.3" cy="15.3" r="1.9"/>
		<circle class="st1" cx="67.6" cy="15.3" r="1.8"/>
		<circle class="st1" cx="72" cy="15.3" r="1.8"/>
		<circle class="st1" cx="76.3" cy="15.3" r="1.8"/>
		<circle class="st1" cx="80.6" cy="15.3" r="1.8"/>
		<circle class="st1" cx="84.9" cy="15.3" r="1.8"/>
		<circle class="st1" cx="89.3" cy="15.3" r="1.8"/>
		<circle class="st1" cx="93.6" cy="15.3" r="1.8"/>
		<circle class="st1" cx="97.9" cy="15.3" r="1.8"/>
		<circle class="st1" cx="102.3" cy="15.3" r="1.8"/>
		<circle class="st1" cx="106.6" cy="15.3" r="1.8"/>
		<circle class="st1" cx="110.9" cy="15.3" r="1.8"/>
		<circle class="st1" cx="115.3" cy="15.3" r="1.8"/>
		<text transform="matrix(1 0 0 1 118.343 16.3778)" class="st1 st2 st3">00</text>
		<text transform="matrix(1 0 0 1 9.2229 16.3778)" class="st1 st2 st3">00</text>
	</g>
	<g>
		<circle class="st1" cx="15.7" cy="9.4" r="1.9"/>
		<circle class="st1" cx="20.1" cy="9.4" r="1.9"/>
		<circle class="st1" cx="24.4" cy="9.4" r="1.9"/>
		<circle class="st1" cx="28.7" cy="9.4" r="1.9"/>
		<circle class="st1" cx="33" cy="9.4" r="1.8"/>
		<circle class="st1" cx="37.3" cy="9.4" r="1.8"/>
		<circle class="st1" cx="41.7" cy="9.4" r="1.8"/>
		<circle class="st1" cx="46" cy="9.4" r="1.8"/>
		<circle class="st1" cx="50.3" cy="9.4" r="1.8"/>
		<circle class="st1" cx="54.6" cy="9.4" r="1.8"/>
		<circle class="st1" cx="59" cy="9.4" r="1.8"/>
		<circle class="st1" cx="63.3" cy="9.4" r="1.9"/>
		<circle class="st1" cx="67.6" cy="9.4" r="1.8"/>
		<circle class="st1" cx="72" cy="9.4" r="1.8"/>
		<circle class="st1" cx="76.3" cy="9.4" r="1.8"/>
		<circle class="st1" cx="80.6" cy="9.4" r="1.8"/>
		<circle class="st1" cx="84.9" cy="9.4" r="1.8"/>
		<circle class="st1" cx="89.3" cy="9.4" r="1.8"/>
		<circle class="st1" cx="93.6" cy="9.4" r="1.8"/>
		<circle class="st1" cx="97.9" cy="9.4" r="1.8"/>
		<circle class="st1" cx="102.3" cy="9.4" r="1.8"/>
		<circle class="st1" cx="106.6" cy="9.4" r="1.8"/>
		<circle class="st1" cx="110.9" cy="9.4" r="1.8"/>
		<circle class="st1" cx="115.3" cy="9.4" r="1.8"/>
		<text transform="matrix(1 0 0 1 118.343 10.4478)" class="st1 st2 st3">00</text>
		<text transform="matrix(1 0 0 1 9.2229 10.4478)" class="st1 st2 st3">00</text>
	</g>
</g>
</svg>
