<?xml version="1.0" encoding="utf-8"?>
<!-- Generator: Adobe Illustrator 23.0.1, SVG Export Plug-In . SVG Version: 6.00 Build 0)  -->
<svg version="1.1" id="Layer_1" xmlns="http://www.w3.org/2000/svg" xmlns:xlink="http://www.w3.org/1999/xlink" x="0px" y="0px"
	 viewBox="0 0 131 202" style="enable-background:new 0 0 131 202;" xml:space="preserve">
<style type="text/css">
	.st0{fill:#F1F3F4;stroke:#BCC8CE;stroke-width:0.4;stroke-linecap:round;stroke-miterlimit:10;}
	.st1{fill:#AEBDC4;}
	.st2{font-family:'Roboto-Medium';}
	.st3{font-size:3px;}
</style>
<rect x="0.5" y="0.2" class="st0" width="129.9" height="201.6"/>
<g>
	<g>
		<circle class="st1" cx="80.7" cy="193.1" r="1.9"/>
		<circle class="st1" cx="85" cy="193.1" r="1.9"/>
		<circle class="st1" cx="89.3" cy="193.1" r="1.9"/>
		<circle class="st1" cx="93.7" cy="193.1" r="1.9"/>
		<circle class="st1" cx="98" cy="193.1" r="1.9"/>
		<circle class="st1" cx="102.3" cy="193.1" r="1.9"/>
		<circle class="st1" cx="106.6" cy="193.1" r="1.9"/>
		<circle class="st1" cx="110.9" cy="193.1" r="1.9"/>
		<circle class="st1" cx="115.3" cy="193.1" r="1.9"/>
		<circle class="st1" cx="119.6" cy="193.1" r="1.9"/>
		<circle class="st1" cx="11.4" cy="193.1" r="1.9"/>
		<circle class="st1" cx="15.7" cy="193.1" r="1.9"/>
		<circle class="st1" cx="20" cy="193.1" r="1.9"/>
		<circle class="st1" cx="24.4" cy="193.1" r="1.9"/>
		<circle class="st1" cx="28.7" cy="193.1" r="1.9"/>
		<circle class="st1" cx="33" cy="193.1" r="1.9"/>
		<circle class="st1" cx="37.3" cy="193.1" r="1.9"/>
		<circle class="st1" cx="41.7" cy="193.1" r="1.9"/>
		<circle class="st1" cx="46" cy="193.1" r="1.9"/>
		<circle class="st1" cx="50.3" cy="193.1" r="1.9"/>
		<text transform="matrix(1 0 0 1 122.6831 194.1702)" class="st1 st2 st3">00</text>
		<text transform="matrix(1 0 0 1 4.8829 194.1702)" class="st1 st2 st3">00</text>
	</g>
	<g>
		<circle class="st1" cx="11.4" cy="187.2" r="1.9"/>
		<circle class="st1" cx="15.7" cy="187.2" r="1.9"/>
		<circle class="st1" cx="20" cy="187.2" r="1.9"/>
		<circle class="st1" cx="24.4" cy="187.2" r="1.9"/>
		<circle class="st1" cx="28.7" cy="187.2" r="1.9"/>
		<circle class="st1" cx="33" cy="187.2" r="1.9"/>
		<circle class="st1" cx="37.3" cy="187.2" r="1.9"/>
		<circle class="st1" cx="41.7" cy="187.2" r="1.9"/>
		<circle class="st1" cx="46" cy="187.2" r="1.9"/>
		<circle class="st1" cx="80.7" cy="187.2" r="1.9"/>
		<circle class="st1" cx="85" cy="187.2" r="1.9"/>
		<circle class="st1" cx="89.3" cy="187.2" r="1.9"/>
		<circle class="st1" cx="93.7" cy="187.2" r="1.9"/>
		<circle class="st1" cx="98" cy="187.2" r="1.9"/>
		<circle class="st1" cx="102.3" cy="187.2" r="1.9"/>
		<circle class="st1" cx="106.6" cy="187.2" r="1.9"/>
		<circle class="st1" cx="110.9" cy="187.2" r="1.9"/>
		<circle class="st1" cx="115.3" cy="187.2" r="1.9"/>
		<circle class="st1" cx="119.6" cy="187.2" r="1.9"/>
		<text transform="matrix(1 0 0 1 122.6831 188.2401)" class="st1 st2 st3">00</text>
		<text transform="matrix(1 0 0 1 4.8829 188.2401)" class="st1 st2 st3">00</text>
	</g>
	<g>
		<circle class="st1" cx="11.4" cy="181.3" r="1.9"/>
		<circle class="st1" cx="15.7" cy="181.3" r="1.9"/>
		<circle class="st1" cx="20" cy="181.3" r="1.9"/>
		<circle class="st1" cx="24.4" cy="181.3" r="1.9"/>
		<circle class="st1" cx="28.7" cy="181.3" r="1.9"/>
		<circle class="st1" cx="33" cy="181.3" r="1.9"/>
		<circle class="st1" cx="37.3" cy="181.3" r="1.9"/>
		<circle class="st1" cx="41.7" cy="181.3" r="1.9"/>
		<circle class="st1" cx="46" cy="181.3" r="1.9"/>
		<circle class="st1" cx="50.3" cy="181.3" r="1.9"/>
		<circle class="st1" cx="54.6" cy="181.3" r="1.9"/>
		<circle class="st1" cx="59" cy="181.3" r="1.9"/>
		<circle class="st1" cx="63.3" cy="181.3" r="1.9"/>
		<circle class="st1" cx="67.6" cy="181.3" r="1.9"/>
		<circle class="st1" cx="72" cy="181.3" r="1.9"/>
		<circle class="st1" cx="76.3" cy="181.3" r="1.9"/>
		<circle class="st1" cx="80.6" cy="181.3" r="1.9"/>
		<circle class="st1" cx="84.9" cy="181.3" r="1.9"/>
		<circle class="st1" cx="89.3" cy="181.3" r="1.9"/>
		<circle class="st1" cx="93.6" cy="181.3" r="1.9"/>
		<circle class="st1" cx="97.9" cy="181.3" r="1.9"/>
		<circle class="st1" cx="102.3" cy="181.3" r="1.9"/>
		<circle class="st1" cx="106.6" cy="181.3" r="1.9"/>
		<circle class="st1" cx="110.9" cy="181.3" r="1.9"/>
		<circle class="st1" cx="115.3" cy="181.3" r="1.9"/>
		<circle class="st1" cx="119.6" cy="181.3" r="1.9"/>
		<text transform="matrix(1 0 0 1 122.6831 182.3101)" class="st1 st2 st3">00</text>
		<text transform="matrix(1 0 0 1 4.8829 182.3101)" class="st1 st2 st3">00</text>
	</g>
	<g>
		<circle class="st1" cx="11.4" cy="175.3" r="1.9"/>
		<circle class="st1" cx="15.7" cy="175.3" r="1.9"/>
		<circle class="st1" cx="20" cy="175.3" r="1.9"/>
		<circle class="st1" cx="24.4" cy="175.3" r="1.9"/>
		<circle class="st1" cx="28.7" cy="175.3" r="1.9"/>
		<circle class="st1" cx="33" cy="175.3" r="1.9"/>
		<circle class="st1" cx="37.3" cy="175.3" r="1.9"/>
		<circle class="st1" cx="41.7" cy="175.3" r="1.9"/>
		<circle class="st1" cx="46" cy="175.3" r="1.9"/>
		<circle class="st1" cx="50.3" cy="175.3" r="1.9"/>
		<circle class="st1" cx="54.6" cy="175.3" r="1.9"/>
		<circle class="st1" cx="59" cy="175.3" r="1.9"/>
		<circle class="st1" cx="63.3" cy="175.3" r="1.9"/>
		<circle class="st1" cx="67.6" cy="175.3" r="1.9"/>
		<circle class="st1" cx="72" cy="175.3" r="1.9"/>
		<circle class="st1" cx="76.3" cy="175.3" r="1.9"/>
		<circle class="st1" cx="80.6" cy="175.3" r="1.9"/>
		<circle class="st1" cx="84.9" cy="175.3" r="1.9"/>
		<circle class="st1" cx="89.3" cy="175.3" r="1.9"/>
		<circle class="st1" cx="93.6" cy="175.3" r="1.9"/>
		<circle class="st1" cx="97.9" cy="175.3" r="1.9"/>
		<circle class="st1" cx="102.3" cy="175.3" r="1.9"/>
		<circle class="st1" cx="106.6" cy="175.3" r="1.9"/>
		<circle class="st1" cx="110.9" cy="175.3" r="1.9"/>
		<circle class="st1" cx="115.3" cy="175.3" r="1.9"/>
		<circle class="st1" cx="119.6" cy="175.3" r="1.9"/>
		<text transform="matrix(1 0 0 1 122.6831 176.38)" class="st1 st2 st3">00</text>
		<text transform="matrix(1 0 0 1 4.8829 176.38)" class="st1 st2 st3">00</text>
	</g>
	<g>
		<circle class="st1" cx="11.4" cy="169.4" r="1.9"/>
		<circle class="st1" cx="15.7" cy="169.4" r="1.9"/>
		<circle class="st1" cx="20" cy="169.4" r="1.9"/>
		<circle class="st1" cx="24.4" cy="169.4" r="1.9"/>
		<circle class="st1" cx="28.7" cy="169.4" r="1.9"/>
		<circle class="st1" cx="33" cy="169.4" r="1.9"/>
		<circle class="st1" cx="37.3" cy="169.4" r="1.9"/>
		<circle class="st1" cx="41.7" cy="169.4" r="1.9"/>
		<circle class="st1" cx="46" cy="169.4" r="1.9"/>
		<circle class="st1" cx="50.3" cy="169.4" r="1.9"/>
		<circle class="st1" cx="54.6" cy="169.4" r="1.9"/>
		<circle class="st1" cx="59" cy="169.4" r="1.9"/>
		<circle class="st1" cx="63.3" cy="169.4" r="1.9"/>
		<circle class="st1" cx="67.6" cy="169.4" r="1.9"/>
		<circle class="st1" cx="72" cy="169.4" r="1.9"/>
		<circle class="st1" cx="76.3" cy="169.4" r="1.9"/>
		<circle class="st1" cx="80.6" cy="169.4" r="1.9"/>
		<circle class="st1" cx="84.9" cy="169.4" r="1.9"/>
		<circle class="st1" cx="89.3" cy="169.4" r="1.9"/>
		<circle class="st1" cx="93.6" cy="169.4" r="1.9"/>
		<circle class="st1" cx="97.9" cy="169.4" r="1.9"/>
		<circle class="st1" cx="102.3" cy="169.4" r="1.9"/>
		<circle class="st1" cx="106.6" cy="169.4" r="1.9"/>
		<circle class="st1" cx="110.9" cy="169.4" r="1.9"/>
		<circle class="st1" cx="115.3" cy="169.4" r="1.9"/>
		<circle class="st1" cx="119.6" cy="169.4" r="1.9"/>
		<text transform="matrix(1 0 0 1 122.6831 170.45)" class="st1 st2 st3">00</text>
		<text transform="matrix(1 0 0 1 4.8829 170.45)" class="st1 st2 st3">00</text>
	</g>
	<g>
		<circle class="st1" cx="11.4" cy="163.5" r="1.9"/>
		<circle class="st1" cx="15.7" cy="163.5" r="1.9"/>
		<circle class="st1" cx="20" cy="163.5" r="1.9"/>
		<circle class="st1" cx="24.4" cy="163.5" r="1.9"/>
		<circle class="st1" cx="28.7" cy="163.5" r="1.9"/>
		<circle class="st1" cx="33" cy="163.5" r="1.9"/>
		<circle class="st1" cx="37.3" cy="163.5" r="1.9"/>
		<circle class="st1" cx="41.7" cy="163.5" r="1.9"/>
		<circle class="st1" cx="46" cy="163.5" r="1.9"/>
		<circle class="st1" cx="50.3" cy="163.5" r="1.9"/>
		<circle class="st1" cx="54.6" cy="163.5" r="1.9"/>
		<circle class="st1" cx="59" cy="163.5" r="1.9"/>
		<circle class="st1" cx="63.3" cy="163.5" r="1.9"/>
		<circle class="st1" cx="67.6" cy="163.5" r="1.9"/>
		<circle class="st1" cx="72" cy="163.5" r="1.9"/>
		<circle class="st1" cx="76.3" cy="163.5" r="1.9"/>
		<circle class="st1" cx="80.6" cy="163.5" r="1.9"/>
		<circle class="st1" cx="84.9" cy="163.5" r="1.9"/>
		<circle class="st1" cx="89.3" cy="163.5" r="1.9"/>
		<circle class="st1" cx="93.6" cy="163.5" r="1.9"/>
		<circle class="st1" cx="97.9" cy="163.5" r="1.9"/>
		<circle class="st1" cx="102.3" cy="163.5" r="1.9"/>
		<circle class="st1" cx="106.6" cy="163.5" r="1.9"/>
		<circle class="st1" cx="110.9" cy="163.5" r="1.9"/>
		<circle class="st1" cx="115.3" cy="163.5" r="1.9"/>
		<circle class="st1" cx="119.6" cy="163.5" r="1.9"/>
		<text transform="matrix(1 0 0 1 122.6831 164.5199)" class="st1 st2 st3">00</text>
		<text transform="matrix(1 0 0 1 4.8829 164.5199)" class="st1 st2 st3">00</text>
	</g>
	<g>
		<circle class="st1" cx="11.4" cy="157.5" r="1.9"/>
		<circle class="st1" cx="15.7" cy="157.5" r="1.9"/>
		<circle class="st1" cx="20" cy="157.5" r="1.9"/>
		<circle class="st1" cx="24.4" cy="157.5" r="1.9"/>
		<circle class="st1" cx="28.7" cy="157.5" r="1.9"/>
		<circle class="st1" cx="33" cy="157.5" r="1.9"/>
		<circle class="st1" cx="37.3" cy="157.5" r="1.9"/>
		<circle class="st1" cx="41.7" cy="157.5" r="1.9"/>
		<circle class="st1" cx="46" cy="157.5" r="1.9"/>
		<circle class="st1" cx="50.3" cy="157.5" r="1.9"/>
		<circle class="st1" cx="54.6" cy="157.5" r="1.9"/>
		<circle class="st1" cx="59" cy="157.5" r="1.9"/>
		<circle class="st1" cx="63.3" cy="157.5" r="1.9"/>
		<circle class="st1" cx="67.6" cy="157.5" r="1.9"/>
		<circle class="st1" cx="72" cy="157.5" r="1.9"/>
		<circle class="st1" cx="76.3" cy="157.5" r="1.9"/>
		<circle class="st1" cx="80.6" cy="157.5" r="1.9"/>
		<circle class="st1" cx="84.9" cy="157.5" r="1.9"/>
		<circle class="st1" cx="89.3" cy="157.5" r="1.9"/>
		<circle class="st1" cx="93.6" cy="157.5" r="1.9"/>
		<circle class="st1" cx="97.9" cy="157.5" r="1.9"/>
		<circle class="st1" cx="102.3" cy="157.5" r="1.9"/>
		<circle class="st1" cx="106.6" cy="157.5" r="1.9"/>
		<circle class="st1" cx="110.9" cy="157.5" r="1.9"/>
		<circle class="st1" cx="115.3" cy="157.5" r="1.9"/>
		<circle class="st1" cx="119.6" cy="157.5" r="1.9"/>
		<text transform="matrix(1 0 0 1 122.6831 158.5898)" class="st1 st2 st3">00</text>
		<text transform="matrix(1 0 0 1 4.8829 158.5898)" class="st1 st2 st3">00</text>
	</g>
	<g>
		<circle class="st1" cx="11.4" cy="151.6" r="1.9"/>
		<circle class="st1" cx="15.7" cy="151.6" r="1.9"/>
		<circle class="st1" cx="20" cy="151.6" r="1.9"/>
		<circle class="st1" cx="24.4" cy="151.6" r="1.9"/>
		<circle class="st1" cx="28.7" cy="151.6" r="1.9"/>
		<circle class="st1" cx="33" cy="151.6" r="1.9"/>
		<circle class="st1" cx="37.3" cy="151.6" r="1.9"/>
		<circle class="st1" cx="41.7" cy="151.6" r="1.9"/>
		<circle class="st1" cx="46" cy="151.6" r="1.9"/>
		<circle class="st1" cx="50.3" cy="151.6" r="1.9"/>
		<circle class="st1" cx="54.6" cy="151.6" r="1.9"/>
		<circle class="st1" cx="59" cy="151.6" r="1.9"/>
		<circle class="st1" cx="63.3" cy="151.6" r="1.9"/>
		<circle class="st1" cx="67.6" cy="151.6" r="1.9"/>
		<circle class="st1" cx="72" cy="151.6" r="1.9"/>
		<circle class="st1" cx="76.3" cy="151.6" r="1.9"/>
		<circle class="st1" cx="80.6" cy="151.6" r="1.9"/>
		<circle class="st1" cx="84.9" cy="151.6" r="1.9"/>
		<circle class="st1" cx="89.3" cy="151.6" r="1.9"/>
		<circle class="st1" cx="93.6" cy="151.6" r="1.9"/>
		<circle class="st1" cx="97.9" cy="151.6" r="1.9"/>
		<circle class="st1" cx="102.3" cy="151.6" r="1.9"/>
		<circle class="st1" cx="106.6" cy="151.6" r="1.9"/>
		<circle class="st1" cx="110.9" cy="151.6" r="1.9"/>
		<circle class="st1" cx="115.3" cy="151.6" r="1.9"/>
		<circle class="st1" cx="119.6" cy="151.6" r="1.9"/>
		<text transform="matrix(1 0 0 1 122.6831 152.6598)" class="st1 st2 st3">00</text>
		<text transform="matrix(1 0 0 1 4.8829 152.6598)" class="st1 st2 st3">00</text>
	</g>
	<g>
		<circle class="st1" cx="11.4" cy="145.7" r="1.9"/>
		<circle class="st1" cx="15.7" cy="145.7" r="1.9"/>
		<circle class="st1" cx="20" cy="145.7" r="1.9"/>
		<circle class="st1" cx="24.4" cy="145.7" r="1.9"/>
		<circle class="st1" cx="28.7" cy="145.7" r="1.9"/>
		<circle class="st1" cx="33" cy="145.7" r="1.9"/>
		<circle class="st1" cx="37.3" cy="145.7" r="1.9"/>
		<circle class="st1" cx="41.7" cy="145.7" r="1.9"/>
		<circle class="st1" cx="46" cy="145.7" r="1.9"/>
		<circle class="st1" cx="50.3" cy="145.7" r="1.9"/>
		<circle class="st1" cx="54.6" cy="145.7" r="1.9"/>
		<circle class="st1" cx="59" cy="145.7" r="1.9"/>
		<circle class="st1" cx="63.3" cy="145.7" r="1.9"/>
		<circle class="st1" cx="67.6" cy="145.7" r="1.9"/>
		<circle class="st1" cx="72" cy="145.7" r="1.9"/>
		<circle class="st1" cx="76.3" cy="145.7" r="1.9"/>
		<circle class="st1" cx="80.6" cy="145.7" r="1.9"/>
		<circle class="st1" cx="84.9" cy="145.7" r="1.9"/>
		<circle class="st1" cx="89.3" cy="145.7" r="1.9"/>
		<circle class="st1" cx="93.6" cy="145.7" r="1.9"/>
		<circle class="st1" cx="97.9" cy="145.7" r="1.9"/>
		<circle class="st1" cx="102.3" cy="145.7" r="1.9"/>
		<circle class="st1" cx="106.6" cy="145.7" r="1.9"/>
		<circle class="st1" cx="110.9" cy="145.7" r="1.9"/>
		<circle class="st1" cx="115.3" cy="145.7" r="1.9"/>
		<circle class="st1" cx="119.6" cy="145.7" r="1.9"/>
		<text transform="matrix(1 0 0 1 122.6831 146.7297)" class="st1 st2 st3">00</text>
		<text transform="matrix(1 0 0 1 4.8829 146.7297)" class="st1 st2 st3">00</text>
	</g>
	<g>
		<circle class="st1" cx="11.4" cy="139.8" r="1.9"/>
		<circle class="st1" cx="15.7" cy="139.8" r="1.9"/>
		<circle class="st1" cx="20" cy="139.8" r="1.9"/>
		<circle class="st1" cx="24.4" cy="139.8" r="1.9"/>
		<circle class="st1" cx="28.7" cy="139.8" r="1.9"/>
		<circle class="st1" cx="33" cy="139.8" r="1.9"/>
		<circle class="st1" cx="37.3" cy="139.8" r="1.9"/>
		<circle class="st1" cx="41.7" cy="139.8" r="1.9"/>
		<circle class="st1" cx="46" cy="139.8" r="1.9"/>
		<circle class="st1" cx="50.3" cy="139.8" r="1.9"/>
		<circle class="st1" cx="54.6" cy="139.8" r="1.9"/>
		<circle class="st1" cx="59" cy="139.8" r="1.9"/>
		<circle class="st1" cx="63.3" cy="139.8" r="1.9"/>
		<circle class="st1" cx="67.6" cy="139.8" r="1.9"/>
		<circle class="st1" cx="72" cy="139.8" r="1.9"/>
		<circle class="st1" cx="76.3" cy="139.8" r="1.9"/>
		<circle class="st1" cx="80.6" cy="139.8" r="1.9"/>
		<circle class="st1" cx="84.9" cy="139.8" r="1.9"/>
		<circle class="st1" cx="89.3" cy="139.8" r="1.9"/>
		<circle class="st1" cx="93.6" cy="139.8" r="1.9"/>
		<circle class="st1" cx="97.9" cy="139.8" r="1.9"/>
		<circle class="st1" cx="102.3" cy="139.8" r="1.9"/>
		<circle class="st1" cx="106.6" cy="139.8" r="1.9"/>
		<circle class="st1" cx="110.9" cy="139.8" r="1.9"/>
		<circle class="st1" cx="115.3" cy="139.8" r="1.9"/>
		<circle class="st1" cx="119.6" cy="139.8" r="1.9"/>
		<text transform="matrix(1 0 0 1 122.6831 140.7997)" class="st1 st2 st3">00</text>
		<text transform="matrix(1 0 0 1 4.8829 140.7997)" class="st1 st2 st3">00</text>
	</g>
	<g>
		<circle class="st1" cx="11.4" cy="133.8" r="1.9"/>
		<circle class="st1" cx="15.7" cy="133.8" r="1.9"/>
		<circle class="st1" cx="20" cy="133.8" r="1.9"/>
		<circle class="st1" cx="24.4" cy="133.8" r="1.9"/>
		<circle class="st1" cx="28.7" cy="133.8" r="1.9"/>
		<circle class="st1" cx="33" cy="133.8" r="1.9"/>
		<circle class="st1" cx="37.3" cy="133.8" r="1.9"/>
		<circle class="st1" cx="41.7" cy="133.8" r="1.9"/>
		<circle class="st1" cx="46" cy="133.8" r="1.9"/>
		<circle class="st1" cx="50.3" cy="133.8" r="1.9"/>
		<circle class="st1" cx="54.6" cy="133.8" r="1.9"/>
		<circle class="st1" cx="59" cy="133.8" r="1.9"/>
		<circle class="st1" cx="63.3" cy="133.8" r="1.9"/>
		<circle class="st1" cx="67.6" cy="133.8" r="1.9"/>
		<circle class="st1" cx="72" cy="133.8" r="1.9"/>
		<circle class="st1" cx="76.3" cy="133.8" r="1.9"/>
		<circle class="st1" cx="80.6" cy="133.8" r="1.9"/>
		<circle class="st1" cx="84.9" cy="133.8" r="1.9"/>
		<circle class="st1" cx="89.3" cy="133.8" r="1.9"/>
		<circle class="st1" cx="93.6" cy="133.8" r="1.9"/>
		<circle class="st1" cx="97.9" cy="133.8" r="1.9"/>
		<circle class="st1" cx="102.3" cy="133.8" r="1.9"/>
		<circle class="st1" cx="106.6" cy="133.8" r="1.9"/>
		<circle class="st1" cx="110.9" cy="133.8" r="1.9"/>
		<circle class="st1" cx="115.3" cy="133.8" r="1.9"/>
		<circle class="st1" cx="119.6" cy="133.8" r="1.9"/>
		<text transform="matrix(1 0 0 1 122.6831 134.8696)" class="st1 st2 st3">00</text>
		<text transform="matrix(1 0 0 1 4.8829 134.8696)" class="st1 st2 st3">00</text>
	</g>
	<g>
		<circle class="st1" cx="11.4" cy="127.9" r="1.9"/>
		<circle class="st1" cx="15.7" cy="127.9" r="1.9"/>
		<circle class="st1" cx="20" cy="127.9" r="1.9"/>
		<circle class="st1" cx="24.4" cy="127.9" r="1.9"/>
		<circle class="st1" cx="28.7" cy="127.9" r="1.9"/>
		<circle class="st1" cx="33" cy="127.9" r="1.9"/>
		<circle class="st1" cx="37.3" cy="127.9" r="1.9"/>
		<circle class="st1" cx="41.7" cy="127.9" r="1.9"/>
		<circle class="st1" cx="46" cy="127.9" r="1.9"/>
		<circle class="st1" cx="50.3" cy="127.9" r="1.9"/>
		<circle class="st1" cx="54.6" cy="127.9" r="1.9"/>
		<circle class="st1" cx="59" cy="127.9" r="1.9"/>
		<circle class="st1" cx="63.3" cy="127.9" r="1.9"/>
		<circle class="st1" cx="67.6" cy="127.9" r="1.9"/>
		<circle class="st1" cx="72" cy="127.9" r="1.9"/>
		<circle class="st1" cx="76.3" cy="127.9" r="1.9"/>
		<circle class="st1" cx="80.6" cy="127.9" r="1.9"/>
		<circle class="st1" cx="84.9" cy="127.9" r="1.9"/>
		<circle class="st1" cx="89.3" cy="127.9" r="1.9"/>
		<circle class="st1" cx="93.6" cy="127.9" r="1.9"/>
		<circle class="st1" cx="97.9" cy="127.9" r="1.9"/>
		<circle class="st1" cx="102.3" cy="127.9" r="1.9"/>
		<circle class="st1" cx="106.6" cy="127.9" r="1.9"/>
		<circle class="st1" cx="110.9" cy="127.9" r="1.9"/>
		<circle class="st1" cx="115.3" cy="127.9" r="1.9"/>
		<circle class="st1" cx="119.6" cy="127.9" r="1.9"/>
		<text transform="matrix(1 0 0 1 122.6831 128.9396)" class="st1 st2 st3">00</text>
		<text transform="matrix(1 0 0 1 4.8829 128.9396)" class="st1 st2 st3">00</text>
	</g>
	<g>
		<circle class="st1" cx="11.4" cy="122" r="1.8"/>
		<circle class="st1" cx="15.7" cy="122" r="1.8"/>
		<circle class="st1" cx="20" cy="122" r="1.8"/>
		<circle class="st1" cx="24.4" cy="122" r="1.8"/>
		<circle class="st1" cx="28.7" cy="122" r="1.8"/>
		<circle class="st1" cx="33" cy="122" r="1.8"/>
		<circle class="st1" cx="37.3" cy="122" r="1.8"/>
		<circle class="st1" cx="41.7" cy="122" r="1.8"/>
		<circle class="st1" cx="46" cy="122" r="1.8"/>
		<circle class="st1" cx="50.3" cy="122" r="1.8"/>
		<circle class="st1" cx="54.6" cy="122" r="1.8"/>
		<circle class="st1" cx="59" cy="122" r="1.8"/>
		<circle class="st1" cx="63.3" cy="122" r="1.8"/>
		<circle class="st1" cx="67.6" cy="122" r="1.8"/>
		<circle class="st1" cx="72" cy="122" r="1.8"/>
		<circle class="st1" cx="76.3" cy="122" r="1.8"/>
		<circle class="st1" cx="80.6" cy="122" r="1.8"/>
		<circle class="st1" cx="84.9" cy="122" r="1.8"/>
		<circle class="st1" cx="89.3" cy="122" r="1.8"/>
		<circle class="st1" cx="93.6" cy="122" r="1.8"/>
		<circle class="st1" cx="97.9" cy="122" r="1.8"/>
		<circle class="st1" cx="102.3" cy="122" r="1.8"/>
		<circle class="st1" cx="106.6" cy="122" r="1.8"/>
		<circle class="st1" cx="110.9" cy="122" r="1.8"/>
		<circle class="st1" cx="115.3" cy="122" r="1.8"/>
		<circle class="st1" cx="119.6" cy="122" r="1.8"/>
		<text transform="matrix(1 0 0 1 122.6831 123.0095)" class="st1 st2 st3">00</text>
		<text transform="matrix(1 0 0 1 4.8829 123.0095)" class="st1 st2 st3">00</text>
	</g>
	<g>
		<circle class="st1" cx="11.4" cy="116" r="1.8"/>
		<circle class="st1" cx="15.7" cy="116" r="1.8"/>
		<circle class="st1" cx="20" cy="116" r="1.8"/>
		<circle class="st1" cx="24.4" cy="116" r="1.8"/>
		<circle class="st1" cx="28.7" cy="116" r="1.8"/>
		<circle class="st1" cx="33" cy="116" r="1.8"/>
		<circle class="st1" cx="37.3" cy="116" r="1.8"/>
		<circle class="st1" cx="41.7" cy="116" r="1.8"/>
		<circle class="st1" cx="46" cy="116" r="1.8"/>
		<circle class="st1" cx="50.3" cy="116" r="1.8"/>
		<circle class="st1" cx="54.6" cy="116" r="1.8"/>
		<circle class="st1" cx="59" cy="116" r="1.8"/>
		<circle class="st1" cx="63.3" cy="116" r="1.8"/>
		<circle class="st1" cx="67.6" cy="116" r="1.8"/>
		<circle class="st1" cx="72" cy="116" r="1.8"/>
		<circle class="st1" cx="76.3" cy="116" r="1.8"/>
		<circle class="st1" cx="80.6" cy="116" r="1.8"/>
		<circle class="st1" cx="84.9" cy="116" r="1.8"/>
		<circle class="st1" cx="89.3" cy="116" r="1.8"/>
		<circle class="st1" cx="93.6" cy="116" r="1.8"/>
		<circle class="st1" cx="97.9" cy="116" r="1.8"/>
		<circle class="st1" cx="102.3" cy="116" r="1.8"/>
		<circle class="st1" cx="106.6" cy="116" r="1.8"/>
		<circle class="st1" cx="110.9" cy="116" r="1.8"/>
		<circle class="st1" cx="115.3" cy="116" r="1.8"/>
		<circle class="st1" cx="119.6" cy="116" r="1.8"/>
		<text transform="matrix(1 0 0 1 122.6831 117.0795)" class="st1 st2 st3">00</text>
		<text transform="matrix(1 0 0 1 4.8829 117.0795)" class="st1 st2 st3">00</text>
	</g>
	<g>
		<circle class="st1" cx="11.4" cy="110.1" r="1.8"/>
		<circle class="st1" cx="15.7" cy="110.1" r="1.8"/>
		<circle class="st1" cx="20" cy="110.1" r="1.8"/>
		<circle class="st1" cx="24.4" cy="110.1" r="1.8"/>
		<circle class="st1" cx="28.7" cy="110.1" r="1.8"/>
		<circle class="st1" cx="33" cy="110.1" r="1.8"/>
		<circle class="st1" cx="37.3" cy="110.1" r="1.8"/>
		<circle class="st1" cx="41.7" cy="110.1" r="1.8"/>
		<circle class="st1" cx="46" cy="110.1" r="1.8"/>
		<circle class="st1" cx="50.3" cy="110.1" r="1.8"/>
		<circle class="st1" cx="54.6" cy="110.1" r="1.8"/>
		<circle class="st1" cx="59" cy="110.1" r="1.8"/>
		<circle class="st1" cx="63.3" cy="110.1" r="1.8"/>
		<circle class="st1" cx="67.6" cy="110.1" r="1.8"/>
		<circle class="st1" cx="72" cy="110.1" r="1.8"/>
		<circle class="st1" cx="76.3" cy="110.1" r="1.8"/>
		<circle class="st1" cx="80.6" cy="110.1" r="1.8"/>
		<circle class="st1" cx="84.9" cy="110.1" r="1.8"/>
		<circle class="st1" cx="89.3" cy="110.1" r="1.8"/>
		<circle class="st1" cx="93.6" cy="110.1" r="1.8"/>
		<circle class="st1" cx="97.9" cy="110.1" r="1.8"/>
		<circle class="st1" cx="102.3" cy="110.1" r="1.8"/>
		<circle class="st1" cx="106.6" cy="110.1" r="1.8"/>
		<circle class="st1" cx="110.9" cy="110.1" r="1.8"/>
		<circle class="st1" cx="115.3" cy="110.1" r="1.8"/>
		<circle class="st1" cx="119.6" cy="110.1" r="1.8"/>
		<text transform="matrix(1 0 0 1 122.6831 111.1494)" class="st1 st2 st3">00</text>
		<text transform="matrix(1 0 0 1 4.8829 111.1494)" class="st1 st2 st3">00</text>
	</g>
	<g>
		<circle class="st1" cx="20.1" cy="104.2" r="1.8"/>
		<circle class="st1" cx="24.4" cy="104.2" r="1.8"/>
		<circle class="st1" cx="28.7" cy="104.2" r="1.8"/>
		<circle class="st1" cx="33" cy="104.2" r="1.8"/>
		<circle class="st1" cx="37.3" cy="104.2" r="1.8"/>
		<circle class="st1" cx="41.7" cy="104.2" r="1.8"/>
		<circle class="st1" cx="46" cy="104.2" r="1.8"/>
		<circle class="st1" cx="50.3" cy="104.2" r="1.8"/>
		<circle class="st1" cx="54.6" cy="104.2" r="1.8"/>
		<circle class="st1" cx="59" cy="104.2" r="1.8"/>
		<circle class="st1" cx="63.3" cy="104.2" r="1.8"/>
		<circle class="st1" cx="67.6" cy="104.2" r="1.8"/>
		<circle class="st1" cx="72" cy="104.2" r="1.8"/>
		<circle class="st1" cx="76.3" cy="104.2" r="1.8"/>
		<circle class="st1" cx="80.6" cy="104.2" r="1.8"/>
		<circle class="st1" cx="84.9" cy="104.2" r="1.8"/>
		<circle class="st1" cx="89.3" cy="104.2" r="1.8"/>
		<circle class="st1" cx="93.6" cy="104.2" r="1.8"/>
		<circle class="st1" cx="97.9" cy="104.2" r="1.8"/>
		<circle class="st1" cx="102.3" cy="104.2" r="1.8"/>
		<circle class="st1" cx="106.6" cy="104.2" r="1.8"/>
		<circle class="st1" cx="110.9" cy="104.2" r="1.8"/>
		<text transform="matrix(1 0 0 1 114.0131 105.2194)" class="st1 st2 st3">00</text>
		<text transform="matrix(1 0 0 1 13.553 105.2194)" class="st1 st2 st3">00</text>
	</g>
	<g>
		<circle class="st1" cx="20.1" cy="98.2" r="1.8"/>
		<circle class="st1" cx="24.4" cy="98.2" r="1.8"/>
		<circle class="st1" cx="28.7" cy="98.2" r="1.8"/>
		<circle class="st1" cx="33" cy="98.2" r="1.8"/>
		<circle class="st1" cx="37.3" cy="98.2" r="1.8"/>
		<circle class="st1" cx="41.7" cy="98.2" r="1.8"/>
		<circle class="st1" cx="46" cy="98.2" r="1.8"/>
		<circle class="st1" cx="50.3" cy="98.2" r="1.8"/>
		<circle class="st1" cx="54.6" cy="98.2" r="1.8"/>
		<circle class="st1" cx="59" cy="98.2" r="1.8"/>
		<circle class="st1" cx="63.3" cy="98.2" r="1.8"/>
		<circle class="st1" cx="67.6" cy="98.2" r="1.8"/>
		<circle class="st1" cx="72" cy="98.2" r="1.8"/>
		<circle class="st1" cx="76.3" cy="98.2" r="1.8"/>
		<circle class="st1" cx="80.6" cy="98.2" r="1.8"/>
		<circle class="st1" cx="84.9" cy="98.2" r="1.8"/>
		<circle class="st1" cx="89.3" cy="98.2" r="1.8"/>
		<circle class="st1" cx="93.6" cy="98.2" r="1.8"/>
		<circle class="st1" cx="97.9" cy="98.2" r="1.8"/>
		<circle class="st1" cx="102.3" cy="98.2" r="1.8"/>
		<circle class="st1" cx="106.6" cy="98.2" r="1.8"/>
		<circle class="st1" cx="110.9" cy="98.2" r="1.8"/>
		<text transform="matrix(1 0 0 1 114.0131 99.2893)" class="st1 st2 st3">00</text>
		<text transform="matrix(1 0 0 1 13.553 99.2893)" class="st1 st2 st3">00</text>
	</g>
	<g>
		<circle class="st1" cx="20.1" cy="92.3" r="1.8"/>
		<circle class="st1" cx="24.4" cy="92.3" r="1.8"/>
		<circle class="st1" cx="28.7" cy="92.3" r="1.8"/>
		<circle class="st1" cx="33" cy="92.3" r="1.8"/>
		<circle class="st1" cx="37.3" cy="92.3" r="1.8"/>
		<circle class="st1" cx="41.7" cy="92.3" r="1.8"/>
		<circle class="st1" cx="46" cy="92.3" r="1.8"/>
		<circle class="st1" cx="50.3" cy="92.3" r="1.8"/>
		<circle class="st1" cx="54.6" cy="92.3" r="1.8"/>
		<circle class="st1" cx="59" cy="92.3" r="1.8"/>
		<circle class="st1" cx="63.3" cy="92.3" r="1.8"/>
		<circle class="st1" cx="67.6" cy="92.3" r="1.8"/>
		<circle class="st1" cx="72" cy="92.3" r="1.8"/>
		<circle class="st1" cx="76.3" cy="92.3" r="1.8"/>
		<circle class="st1" cx="80.6" cy="92.3" r="1.8"/>
		<circle class="st1" cx="84.9" cy="92.3" r="1.8"/>
		<circle class="st1" cx="89.3" cy="92.3" r="1.8"/>
		<circle class="st1" cx="93.6" cy="92.3" r="1.8"/>
		<circle class="st1" cx="97.9" cy="92.3" r="1.8"/>
		<circle class="st1" cx="102.3" cy="92.3" r="1.8"/>
		<circle class="st1" cx="106.6" cy="92.3" r="1.8"/>
		<circle class="st1" cx="110.9" cy="92.3" r="1.8"/>
		<text transform="matrix(1 0 0 1 114.0131 93.3593)" class="st1 st2 st3">00</text>
		<text transform="matrix(1 0 0 1 13.553 93.3593)" class="st1 st2 st3">00</text>
	</g>
	<g>
		<circle class="st1" cx="20.1" cy="86.4" r="1.8"/>
		<circle class="st1" cx="24.4" cy="86.4" r="1.8"/>
		<circle class="st1" cx="28.7" cy="86.4" r="1.8"/>
		<circle class="st1" cx="33" cy="86.4" r="1.8"/>
		<circle class="st1" cx="37.3" cy="86.4" r="1.8"/>
		<circle class="st1" cx="41.7" cy="86.4" r="1.8"/>
		<circle class="st1" cx="46" cy="86.4" r="1.8"/>
		<circle class="st1" cx="50.3" cy="86.4" r="1.8"/>
		<circle class="st1" cx="54.6" cy="86.4" r="1.8"/>
		<circle class="st1" cx="59" cy="86.4" r="1.8"/>
		<circle class="st1" cx="63.3" cy="86.4" r="1.8"/>
		<circle class="st1" cx="67.6" cy="86.4" r="1.8"/>
		<circle class="st1" cx="72" cy="86.4" r="1.8"/>
		<circle class="st1" cx="76.3" cy="86.4" r="1.8"/>
		<circle class="st1" cx="80.6" cy="86.4" r="1.8"/>
		<circle class="st1" cx="84.9" cy="86.4" r="1.8"/>
		<circle class="st1" cx="89.3" cy="86.4" r="1.8"/>
		<circle class="st1" cx="93.6" cy="86.4" r="1.8"/>
		<circle class="st1" cx="97.9" cy="86.4" r="1.8"/>
		<circle class="st1" cx="102.3" cy="86.4" r="1.8"/>
		<circle class="st1" cx="106.6" cy="86.4" r="1.8"/>
		<circle class="st1" cx="110.9" cy="86.4" r="1.8"/>
		<text transform="matrix(1 0 0 1 114.0131 87.4292)" class="st1 st2 st3">00</text>
		<text transform="matrix(1 0 0 1 13.553 87.4292)" class="st1 st2 st3">00</text>
	</g>
	<g>
		<circle class="st1" cx="20.1" cy="80.4" r="1.8"/>
		<circle class="st1" cx="24.4" cy="80.4" r="1.8"/>
		<circle class="st1" cx="28.7" cy="80.4" r="1.8"/>
		<circle class="st1" cx="33" cy="80.4" r="1.8"/>
		<circle class="st1" cx="37.3" cy="80.4" r="1.8"/>
		<circle class="st1" cx="41.7" cy="80.4" r="1.8"/>
		<circle class="st1" cx="46" cy="80.4" r="1.8"/>
		<circle class="st1" cx="50.3" cy="80.4" r="1.8"/>
		<circle class="st1" cx="54.6" cy="80.4" r="1.8"/>
		<circle class="st1" cx="59" cy="80.4" r="1.8"/>
		<circle class="st1" cx="63.3" cy="80.4" r="1.8"/>
		<circle class="st1" cx="67.6" cy="80.4" r="1.8"/>
		<circle class="st1" cx="72" cy="80.4" r="1.8"/>
		<circle class="st1" cx="76.3" cy="80.4" r="1.8"/>
		<circle class="st1" cx="80.6" cy="80.4" r="1.8"/>
		<circle class="st1" cx="84.9" cy="80.4" r="1.8"/>
		<circle class="st1" cx="89.3" cy="80.4" r="1.8"/>
		<circle class="st1" cx="93.6" cy="80.4" r="1.8"/>
		<circle class="st1" cx="97.9" cy="80.4" r="1.8"/>
		<circle class="st1" cx="102.3" cy="80.4" r="1.8"/>
		<circle class="st1" cx="106.6" cy="80.4" r="1.8"/>
		<circle class="st1" cx="110.9" cy="80.4" r="1.8"/>
		<text transform="matrix(1 0 0 1 114.0131 81.4991)" class="st1 st2 st3">00</text>
		<text transform="matrix(1 0 0 1 13.553 81.4991)" class="st1 st2 st3">00</text>
	</g>
	<g>
		<circle class="st1" cx="11.4" cy="74.5" r="1.8"/>
		<circle class="st1" cx="15.7" cy="74.5" r="1.8"/>
		<circle class="st1" cx="20" cy="74.5" r="1.8"/>
		<circle class="st1" cx="24.4" cy="74.5" r="1.8"/>
		<circle class="st1" cx="28.7" cy="74.5" r="1.8"/>
		<circle class="st1" cx="33" cy="74.5" r="1.8"/>
		<circle class="st1" cx="37.3" cy="74.5" r="1.8"/>
		<circle class="st1" cx="41.7" cy="74.5" r="1.8"/>
		<circle class="st1" cx="46" cy="74.5" r="1.8"/>
		<circle class="st1" cx="50.3" cy="74.5" r="1.8"/>
		<circle class="st1" cx="54.6" cy="74.5" r="1.8"/>
		<circle class="st1" cx="59" cy="74.5" r="1.8"/>
		<circle class="st1" cx="63.3" cy="74.5" r="1.8"/>
		<circle class="st1" cx="67.6" cy="74.5" r="1.8"/>
		<circle class="st1" cx="72" cy="74.5" r="1.8"/>
		<circle class="st1" cx="76.3" cy="74.5" r="1.8"/>
		<circle class="st1" cx="80.6" cy="74.5" r="1.8"/>
		<circle class="st1" cx="84.9" cy="74.5" r="1.8"/>
		<circle class="st1" cx="89.3" cy="74.5" r="1.8"/>
		<circle class="st1" cx="93.6" cy="74.5" r="1.8"/>
		<circle class="st1" cx="97.9" cy="74.5" r="1.8"/>
		<circle class="st1" cx="102.3" cy="74.5" r="1.8"/>
		<circle class="st1" cx="106.6" cy="74.5" r="1.8"/>
		<circle class="st1" cx="110.9" cy="74.5" r="1.8"/>
		<circle class="st1" cx="115.3" cy="74.5" r="1.8"/>
		<circle class="st1" cx="119.6" cy="74.5" r="1.8"/>
		<text transform="matrix(1 0 0 1 122.6831 75.5691)" class="st1 st2 st3">00</text>
		<text transform="matrix(1 0 0 1 4.8829 75.5691)" class="st1 st2 st3">00</text>
	</g>
	<g>
		<circle class="st1" cx="11.4" cy="68.6" r="1.8"/>
		<circle class="st1" cx="15.7" cy="68.6" r="1.8"/>
		<circle class="st1" cx="20" cy="68.6" r="1.8"/>
		<circle class="st1" cx="24.4" cy="68.6" r="1.8"/>
		<circle class="st1" cx="28.7" cy="68.6" r="1.8"/>
		<circle class="st1" cx="33" cy="68.6" r="1.8"/>
		<circle class="st1" cx="37.3" cy="68.6" r="1.8"/>
		<circle class="st1" cx="41.7" cy="68.6" r="1.8"/>
		<circle class="st1" cx="46" cy="68.6" r="1.8"/>
		<circle class="st1" cx="50.3" cy="68.6" r="1.8"/>
		<circle class="st1" cx="54.6" cy="68.6" r="1.8"/>
		<circle class="st1" cx="59" cy="68.6" r="1.8"/>
		<circle class="st1" cx="63.3" cy="68.6" r="1.8"/>
		<circle class="st1" cx="67.6" cy="68.6" r="1.8"/>
		<circle class="st1" cx="72" cy="68.6" r="1.8"/>
		<circle class="st1" cx="76.3" cy="68.6" r="1.8"/>
		<circle class="st1" cx="80.6" cy="68.6" r="1.8"/>
		<circle class="st1" cx="84.9" cy="68.6" r="1.8"/>
		<circle class="st1" cx="89.3" cy="68.6" r="1.8"/>
		<circle class="st1" cx="93.6" cy="68.6" r="1.8"/>
		<circle class="st1" cx="97.9" cy="68.6" r="1.8"/>
		<circle class="st1" cx="102.3" cy="68.6" r="1.8"/>
		<circle class="st1" cx="106.6" cy="68.6" r="1.8"/>
		<circle class="st1" cx="110.9" cy="68.6" r="1.8"/>
		<circle class="st1" cx="115.3" cy="68.6" r="1.8"/>
		<circle class="st1" cx="119.6" cy="68.6" r="1.8"/>
		<text transform="matrix(1 0 0 1 122.6831 69.639)" class="st1 st2 st3">00</text>
		<text transform="matrix(1 0 0 1 4.8829 69.639)" class="st1 st2 st3">00</text>
	</g>
	<g>
		<circle class="st1" cx="11.4" cy="62.7" r="1.8"/>
		<circle class="st1" cx="15.7" cy="62.7" r="1.8"/>
		<circle class="st1" cx="20" cy="62.7" r="1.8"/>
		<circle class="st1" cx="24.4" cy="62.7" r="1.8"/>
		<circle class="st1" cx="28.7" cy="62.7" r="1.8"/>
		<circle class="st1" cx="33" cy="62.7" r="1.8"/>
		<circle class="st1" cx="37.3" cy="62.7" r="1.8"/>
		<circle class="st1" cx="41.7" cy="62.7" r="1.8"/>
		<circle class="st1" cx="46" cy="62.7" r="1.8"/>
		<circle class="st1" cx="50.3" cy="62.7" r="1.8"/>
		<circle class="st1" cx="54.6" cy="62.7" r="1.8"/>
		<circle class="st1" cx="59" cy="62.7" r="1.8"/>
		<circle class="st1" cx="63.3" cy="62.7" r="1.8"/>
		<circle class="st1" cx="67.6" cy="62.7" r="1.8"/>
		<circle class="st1" cx="72" cy="62.7" r="1.8"/>
		<circle class="st1" cx="76.3" cy="62.7" r="1.8"/>
		<circle class="st1" cx="80.6" cy="62.7" r="1.8"/>
		<circle class="st1" cx="84.9" cy="62.7" r="1.8"/>
		<circle class="st1" cx="89.3" cy="62.7" r="1.8"/>
		<circle class="st1" cx="93.6" cy="62.7" r="1.8"/>
		<circle class="st1" cx="97.9" cy="62.7" r="1.8"/>
		<circle class="st1" cx="102.3" cy="62.7" r="1.8"/>
		<circle class="st1" cx="106.6" cy="62.7" r="1.8"/>
		<circle class="st1" cx="110.9" cy="62.7" r="1.8"/>
		<circle class="st1" cx="115.3" cy="62.7" r="1.8"/>
		<circle class="st1" cx="119.6" cy="62.7" r="1.8"/>
		<text transform="matrix(1 0 0 1 122.6831 63.709)" class="st1 st2 st3">00</text>
		<text transform="matrix(1 0 0 1 4.8829 63.709)" class="st1 st2 st3">00</text>
	</g>
	<g>
		<circle class="st1" cx="11.4" cy="56.7" r="1.8"/>
		<circle class="st1" cx="15.7" cy="56.7" r="1.8"/>
		<circle class="st1" cx="20" cy="56.7" r="1.8"/>
		<circle class="st1" cx="24.4" cy="56.7" r="1.8"/>
		<circle class="st1" cx="28.7" cy="56.7" r="1.8"/>
		<circle class="st1" cx="33" cy="56.7" r="1.8"/>
		<circle class="st1" cx="37.3" cy="56.7" r="1.8"/>
		<circle class="st1" cx="41.7" cy="56.7" r="1.8"/>
		<circle class="st1" cx="46" cy="56.7" r="1.8"/>
		<circle class="st1" cx="50.3" cy="56.7" r="1.8"/>
		<circle class="st1" cx="54.6" cy="56.7" r="1.8"/>
		<circle class="st1" cx="59" cy="56.7" r="1.8"/>
		<circle class="st1" cx="63.3" cy="56.7" r="1.8"/>
		<circle class="st1" cx="67.6" cy="56.7" r="1.8"/>
		<circle class="st1" cx="72" cy="56.7" r="1.8"/>
		<circle class="st1" cx="76.3" cy="56.7" r="1.8"/>
		<circle class="st1" cx="80.6" cy="56.7" r="1.8"/>
		<circle class="st1" cx="84.9" cy="56.7" r="1.8"/>
		<circle class="st1" cx="89.3" cy="56.7" r="1.8"/>
		<circle class="st1" cx="93.6" cy="56.7" r="1.8"/>
		<circle class="st1" cx="97.9" cy="56.7" r="1.8"/>
		<circle class="st1" cx="102.3" cy="56.7" r="1.8"/>
		<circle class="st1" cx="106.6" cy="56.7" r="1.8"/>
		<circle class="st1" cx="110.9" cy="56.7" r="1.8"/>
		<circle class="st1" cx="115.3" cy="56.7" r="1.8"/>
		<circle class="st1" cx="119.6" cy="56.7" r="1.8"/>
		<text transform="matrix(1 0 0 1 122.6831 57.7789)" class="st1 st2 st3">00</text>
		<text transform="matrix(1 0 0 1 4.8829 57.7789)" class="st1 st2 st3">00</text>
	</g>
	<g>
		<circle class="st1" cx="11.4" cy="50.8" r="1.8"/>
		<circle class="st1" cx="15.7" cy="50.8" r="1.8"/>
		<circle class="st1" cx="20" cy="50.8" r="1.8"/>
		<circle class="st1" cx="24.4" cy="50.8" r="1.8"/>
		<circle class="st1" cx="28.7" cy="50.8" r="1.8"/>
		<circle class="st1" cx="33" cy="50.8" r="1.8"/>
		<circle class="st1" cx="37.3" cy="50.8" r="1.8"/>
		<circle class="st1" cx="41.7" cy="50.8" r="1.8"/>
		<circle class="st1" cx="46" cy="50.8" r="1.8"/>
		<circle class="st1" cx="50.3" cy="50.8" r="1.8"/>
		<circle class="st1" cx="54.6" cy="50.8" r="1.8"/>
		<circle class="st1" cx="59" cy="50.8" r="1.8"/>
		<circle class="st1" cx="63.3" cy="50.8" r="1.8"/>
		<circle class="st1" cx="67.6" cy="50.8" r="1.8"/>
		<circle class="st1" cx="72" cy="50.8" r="1.8"/>
		<circle class="st1" cx="76.3" cy="50.8" r="1.8"/>
		<circle class="st1" cx="80.6" cy="50.8" r="1.8"/>
		<circle class="st1" cx="84.9" cy="50.8" r="1.8"/>
		<circle class="st1" cx="89.3" cy="50.8" r="1.8"/>
		<circle class="st1" cx="93.6" cy="50.8" r="1.8"/>
		<circle class="st1" cx="97.9" cy="50.8" r="1.8"/>
		<circle class="st1" cx="102.3" cy="50.8" r="1.8"/>
		<circle class="st1" cx="106.6" cy="50.8" r="1.8"/>
		<circle class="st1" cx="110.9" cy="50.8" r="1.8"/>
		<circle class="st1" cx="115.3" cy="50.8" r="1.8"/>
		<circle class="st1" cx="119.6" cy="50.8" r="1.8"/>
		<text transform="matrix(1 0 0 1 122.6831 51.8489)" class="st1 st2 st3">00</text>
		<text transform="matrix(1 0 0 1 4.8829 51.8489)" class="st1 st2 st3">00</text>
	</g>
	<g>
		<circle class="st1" cx="11.4" cy="44.9" r="1.8"/>
		<circle class="st1" cx="15.7" cy="44.9" r="1.8"/>
		<circle class="st1" cx="20" cy="44.9" r="1.8"/>
		<circle class="st1" cx="24.4" cy="44.9" r="1.8"/>
		<circle class="st1" cx="28.7" cy="44.9" r="1.8"/>
		<circle class="st1" cx="33" cy="44.9" r="1.8"/>
		<circle class="st1" cx="37.3" cy="44.9" r="1.8"/>
		<circle class="st1" cx="41.7" cy="44.9" r="1.8"/>
		<circle class="st1" cx="46" cy="44.9" r="1.8"/>
		<circle class="st1" cx="50.3" cy="44.9" r="1.8"/>
		<circle class="st1" cx="54.6" cy="44.9" r="1.8"/>
		<circle class="st1" cx="59" cy="44.9" r="1.8"/>
		<circle class="st1" cx="63.3" cy="44.9" r="1.8"/>
		<circle class="st1" cx="67.6" cy="44.9" r="1.8"/>
		<circle class="st1" cx="72" cy="44.9" r="1.8"/>
		<circle class="st1" cx="76.3" cy="44.9" r="1.8"/>
		<circle class="st1" cx="80.6" cy="44.9" r="1.8"/>
		<circle class="st1" cx="84.9" cy="44.9" r="1.8"/>
		<circle class="st1" cx="89.3" cy="44.9" r="1.8"/>
		<circle class="st1" cx="93.6" cy="44.9" r="1.8"/>
		<circle class="st1" cx="97.9" cy="44.9" r="1.8"/>
		<circle class="st1" cx="102.3" cy="44.9" r="1.8"/>
		<circle class="st1" cx="106.6" cy="44.9" r="1.8"/>
		<circle class="st1" cx="110.9" cy="44.9" r="1.8"/>
		<circle class="st1" cx="115.3" cy="44.9" r="1.8"/>
		<circle class="st1" cx="119.6" cy="44.9" r="1.8"/>
		<text transform="matrix(1 0 0 1 122.6831 45.9188)" class="st1 st2 st3">00</text>
		<text transform="matrix(1 0 0 1 4.8829 45.9188)" class="st1 st2 st3">00</text>
	</g>
	<g>
		<circle class="st1" cx="11.4" cy="38.9" r="1.8"/>
		<circle class="st1" cx="15.7" cy="38.9" r="1.8"/>
		<circle class="st1" cx="20" cy="38.9" r="1.8"/>
		<circle class="st1" cx="24.4" cy="38.9" r="1.8"/>
		<circle class="st1" cx="28.7" cy="38.9" r="1.8"/>
		<circle class="st1" cx="33" cy="38.9" r="1.8"/>
		<circle class="st1" cx="37.3" cy="38.9" r="1.8"/>
		<circle class="st1" cx="41.7" cy="38.9" r="1.8"/>
		<circle class="st1" cx="46" cy="38.9" r="1.8"/>
		<circle class="st1" cx="50.3" cy="38.9" r="1.8"/>
		<circle class="st1" cx="54.6" cy="38.9" r="1.8"/>
		<circle class="st1" cx="59" cy="38.9" r="1.8"/>
		<circle class="st1" cx="63.3" cy="38.9" r="1.8"/>
		<circle class="st1" cx="67.6" cy="38.9" r="1.8"/>
		<circle class="st1" cx="72" cy="38.9" r="1.8"/>
		<circle class="st1" cx="76.3" cy="38.9" r="1.8"/>
		<circle class="st1" cx="80.6" cy="38.9" r="1.8"/>
		<circle class="st1" cx="84.9" cy="38.9" r="1.8"/>
		<circle class="st1" cx="89.3" cy="38.9" r="1.8"/>
		<circle class="st1" cx="93.6" cy="38.9" r="1.8"/>
		<circle class="st1" cx="97.9" cy="38.9" r="1.8"/>
		<circle class="st1" cx="102.3" cy="38.9" r="1.8"/>
		<circle class="st1" cx="106.6" cy="38.9" r="1.8"/>
		<circle class="st1" cx="110.9" cy="38.9" r="1.8"/>
		<circle class="st1" cx="115.3" cy="38.9" r="1.8"/>
		<circle class="st1" cx="119.6" cy="38.9" r="1.8"/>
		<text transform="matrix(1 0 0 1 122.6831 39.9888)" class="st1 st2 st3">00</text>
		<text transform="matrix(1 0 0 1 4.8829 39.9888)" class="st1 st2 st3">00</text>
	</g>
	<g>
		<circle class="st1" cx="11.4" cy="33" r="1.8"/>
		<circle class="st1" cx="15.7" cy="33" r="1.8"/>
		<circle class="st1" cx="20" cy="33" r="1.8"/>
		<circle class="st1" cx="24.4" cy="33" r="1.8"/>
		<circle class="st1" cx="28.7" cy="33" r="1.8"/>
		<circle class="st1" cx="33" cy="33" r="1.8"/>
		<circle class="st1" cx="37.3" cy="33" r="1.8"/>
		<circle class="st1" cx="41.7" cy="33" r="1.8"/>
		<circle class="st1" cx="46" cy="33" r="1.8"/>
		<circle class="st1" cx="50.3" cy="33" r="1.8"/>
		<circle class="st1" cx="54.6" cy="33" r="1.8"/>
		<circle class="st1" cx="59" cy="33" r="1.8"/>
		<circle class="st1" cx="63.3" cy="33" r="1.9"/>
		<circle class="st1" cx="67.6" cy="33" r="1.8"/>
		<circle class="st1" cx="72" cy="33" r="1.8"/>
		<circle class="st1" cx="76.3" cy="33" r="1.8"/>
		<circle class="st1" cx="80.6" cy="33" r="1.8"/>
		<circle class="st1" cx="84.9" cy="33" r="1.8"/>
		<circle class="st1" cx="89.3" cy="33" r="1.8"/>
		<circle class="st1" cx="93.6" cy="33" r="1.8"/>
		<circle class="st1" cx="97.9" cy="33" r="1.8"/>
		<circle class="st1" cx="102.3" cy="33" r="1.8"/>
		<circle class="st1" cx="106.6" cy="33" r="1.8"/>
		<circle class="st1" cx="110.9" cy="33" r="1.8"/>
		<circle class="st1" cx="115.3" cy="33" r="1.8"/>
		<circle class="st1" cx="119.6" cy="33" r="1.8"/>
		<text transform="matrix(1 0 0 1 122.6831 34.0587)" class="st1 st2 st3">00</text>
		<text transform="matrix(1 0 0 1 4.8829 34.0587)" class="st1 st2 st3">00</text>
	</g>
	<g>
		<circle class="st1" cx="11.4" cy="27.1" r="1.9"/>
		<circle class="st1" cx="15.7" cy="27.1" r="1.9"/>
		<circle class="st1" cx="20" cy="27.1" r="1.9"/>
		<circle class="st1" cx="24.4" cy="27.1" r="1.9"/>
		<circle class="st1" cx="28.7" cy="27.1" r="1.9"/>
		<circle class="st1" cx="33" cy="27.1" r="1.8"/>
		<circle class="st1" cx="37.3" cy="27.1" r="1.8"/>
		<circle class="st1" cx="41.7" cy="27.1" r="1.8"/>
		<circle class="st1" cx="46" cy="27.1" r="1.8"/>
		<circle class="st1" cx="50.3" cy="27.1" r="1.8"/>
		<circle class="st1" cx="54.6" cy="27.1" r="1.8"/>
		<circle class="st1" cx="59" cy="27.1" r="1.8"/>
		<circle class="st1" cx="63.3" cy="27.1" r="1.9"/>
		<circle class="st1" cx="67.6" cy="27.1" r="1.8"/>
		<circle class="st1" cx="72" cy="27.1" r="1.8"/>
		<circle class="st1" cx="76.3" cy="27.1" r="1.8"/>
		<circle class="st1" cx="80.6" cy="27.1" r="1.8"/>
		<circle class="st1" cx="84.9" cy="27.1" r="1.8"/>
		<circle class="st1" cx="89.3" cy="27.1" r="1.8"/>
		<circle class="st1" cx="93.6" cy="27.1" r="1.8"/>
		<circle class="st1" cx="97.9" cy="27.1" r="1.8"/>
		<circle class="st1" cx="102.3" cy="27.1" r="1.8"/>
		<circle class="st1" cx="106.6" cy="27.1" r="1.8"/>
		<circle class="st1" cx="110.9" cy="27.1" r="1.8"/>
		<circle class="st1" cx="115.3" cy="27.1" r="1.8"/>
		<circle class="st1" cx="119.6" cy="27.1" r="1.8"/>
		<text transform="matrix(1 0 0 1 122.6831 28.1287)" class="st1 st2 st3">00</text>
		<text transform="matrix(1 0 0 1 4.8829 28.1287)" class="st1 st2 st3">00</text>
	</g>
	<g>
		<circle class="st1" cx="11.4" cy="21.1" r="1.9"/>
		<circle class="st1" cx="15.7" cy="21.1" r="1.9"/>
		<circle class="st1" cx="20" cy="21.1" r="1.9"/>
		<circle class="st1" cx="24.4" cy="21.1" r="1.9"/>
		<circle class="st1" cx="28.7" cy="21.1" r="1.9"/>
		<circle class="st1" cx="33" cy="21.1" r="1.8"/>
		<circle class="st1" cx="37.3" cy="21.1" r="1.8"/>
		<circle class="st1" cx="41.7" cy="21.1" r="1.8"/>
		<circle class="st1" cx="46" cy="21.1" r="1.8"/>
		<circle class="st1" cx="50.3" cy="21.1" r="1.8"/>
		<circle class="st1" cx="54.6" cy="21.1" r="1.8"/>
		<circle class="st1" cx="59" cy="21.1" r="1.8"/>
		<circle class="st1" cx="63.3" cy="21.1" r="1.9"/>
		<circle class="st1" cx="67.6" cy="21.1" r="1.8"/>
		<circle class="st1" cx="72" cy="21.1" r="1.8"/>
		<circle class="st1" cx="76.3" cy="21.1" r="1.8"/>
		<circle class="st1" cx="80.6" cy="21.1" r="1.8"/>
		<circle class="st1" cx="84.9" cy="21.1" r="1.8"/>
		<circle class="st1" cx="89.3" cy="21.1" r="1.8"/>
		<circle class="st1" cx="93.6" cy="21.1" r="1.8"/>
		<circle class="st1" cx="97.9" cy="21.1" r="1.8"/>
		<circle class="st1" cx="102.3" cy="21.1" r="1.8"/>
		<circle class="st1" cx="106.6" cy="21.1" r="1.8"/>
		<circle class="st1" cx="110.9" cy="21.1" r="1.8"/>
		<circle class="st1" cx="115.3" cy="21.1" r="1.8"/>
		<circle class="st1" cx="119.6" cy="21.1" r="1.8"/>
		<text transform="matrix(1 0 0 1 122.6831 22.1986)" class="st1 st2 st3">00</text>
		<text transform="matrix(1 0 0 1 4.8829 22.1986)" class="st1 st2 st3">00</text>
	</g>
	<g>
		<circle class="st1" cx="11.4" cy="15.2" r="1.9"/>
		<circle class="st1" cx="15.7" cy="15.2" r="1.9"/>
		<circle class="st1" cx="20" cy="15.2" r="1.9"/>
		<circle class="st1" cx="24.4" cy="15.2" r="1.9"/>
		<circle class="st1" cx="28.7" cy="15.2" r="1.9"/>
		<circle class="st1" cx="33" cy="15.2" r="1.8"/>
		<circle class="st1" cx="37.3" cy="15.2" r="1.8"/>
		<circle class="st1" cx="41.7" cy="15.2" r="1.8"/>
		<circle class="st1" cx="46" cy="15.2" r="1.8"/>
		<circle class="st1" cx="50.3" cy="15.2" r="1.8"/>
		<circle class="st1" cx="54.6" cy="15.2" r="1.8"/>
		<circle class="st1" cx="59" cy="15.2" r="1.8"/>
		<circle class="st1" cx="63.3" cy="15.2" r="1.9"/>
		<circle class="st1" cx="67.6" cy="15.2" r="1.8"/>
		<circle class="st1" cx="72" cy="15.2" r="1.8"/>
		<circle class="st1" cx="76.3" cy="15.2" r="1.8"/>
		<circle class="st1" cx="80.6" cy="15.2" r="1.8"/>
		<circle class="st1" cx="84.9" cy="15.2" r="1.8"/>
		<circle class="st1" cx="89.3" cy="15.2" r="1.8"/>
		<circle class="st1" cx="93.6" cy="15.2" r="1.8"/>
		<circle class="st1" cx="97.9" cy="15.2" r="1.8"/>
		<circle class="st1" cx="102.3" cy="15.2" r="1.8"/>
		<circle class="st1" cx="106.6" cy="15.2" r="1.8"/>
		<circle class="st1" cx="110.9" cy="15.2" r="1.8"/>
		<circle class="st1" cx="115.3" cy="15.2" r="1.8"/>
		<circle class="st1" cx="119.6" cy="15.2" r="1.8"/>
		<text transform="matrix(1 0 0 1 122.6831 16.2686)" class="st1 st2 st3">00</text>
		<text transform="matrix(1 0 0 1 4.8829 16.2686)" class="st1 st2 st3">00</text>
	</g>
	<g>
		<circle class="st1" cx="11.4" cy="9.3" r="1.9"/>
		<circle class="st1" cx="15.7" cy="9.3" r="1.9"/>
		<circle class="st1" cx="20" cy="9.3" r="1.9"/>
		<circle class="st1" cx="24.4" cy="9.3" r="1.9"/>
		<circle class="st1" cx="28.7" cy="9.3" r="1.9"/>
		<circle class="st1" cx="33" cy="9.3" r="1.8"/>
		<circle class="st1" cx="37.3" cy="9.3" r="1.8"/>
		<circle class="st1" cx="41.7" cy="9.3" r="1.8"/>
		<circle class="st1" cx="46" cy="9.3" r="1.8"/>
		<circle class="st1" cx="50.3" cy="9.3" r="1.8"/>
		<circle class="st1" cx="54.6" cy="9.3" r="1.8"/>
		<circle class="st1" cx="59" cy="9.3" r="1.8"/>
		<circle class="st1" cx="63.3" cy="9.3" r="1.9"/>
		<circle class="st1" cx="67.6" cy="9.3" r="1.8"/>
		<circle class="st1" cx="72" cy="9.3" r="1.8"/>
		<circle class="st1" cx="76.3" cy="9.3" r="1.8"/>
		<circle class="st1" cx="80.6" cy="9.3" r="1.8"/>
		<circle class="st1" cx="84.9" cy="9.3" r="1.8"/>
		<circle class="st1" cx="89.3" cy="9.3" r="1.8"/>
		<circle class="st1" cx="93.6" cy="9.3" r="1.8"/>
		<circle class="st1" cx="97.9" cy="9.3" r="1.8"/>
		<circle class="st1" cx="102.3" cy="9.3" r="1.8"/>
		<circle class="st1" cx="106.6" cy="9.3" r="1.8"/>
		<circle class="st1" cx="110.9" cy="9.3" r="1.8"/>
		<circle class="st1" cx="115.3" cy="9.3" r="1.8"/>
		<circle class="st1" cx="119.6" cy="9.3" r="1.8"/>
		<text transform="matrix(1 0 0 1 122.6831 10.3385)" class="st1 st2 st3">00</text>
		<text transform="matrix(1 0 0 1 4.8829 10.3385)" class="st1 st2 st3">00</text>
	</g>
</g>
</svg>
