<?xml version="1.0" encoding="utf-8"?>
<!-- Generator: Adobe Illustrator 23.0.1, SVG Export Plug-In . SVG Version: 6.00 Build 0)  -->
<svg version="1.1" id="Layer_1" xmlns="http://www.w3.org/2000/svg" xmlns:xlink="http://www.w3.org/1999/xlink" x="0px" y="0px"
	 viewBox="0 0 130 167" style="enable-background:new 0 0 130 167;" xml:space="preserve">
<style type="text/css">
	.st0{fill:#F1F3F4;stroke:#BCC8CE;stroke-width:0.4;stroke-linecap:round;stroke-miterlimit:10;}
	.st1{fill:#AEBDC4;}
	.st2{font-family:'Roboto-Medium';}
	.st3{font-size:3px;}
</style>
<rect x="0.3" y="0.3" class="st0" width="129.5" height="166.4"/>
<g>
	<g>
		<circle class="st1" cx="15.2" cy="157.6" r="1.9"/>
		<circle class="st1" cx="19.6" cy="157.6" r="1.9"/>
		<circle class="st1" cx="23.9" cy="157.6" r="1.9"/>
		<circle class="st1" cx="28.2" cy="157.6" r="1.9"/>
		<circle class="st1" cx="32.5" cy="157.6" r="1.9"/>
		<circle class="st1" cx="36.8" cy="157.6" r="1.9"/>
		<circle class="st1" cx="41.2" cy="157.6" r="1.9"/>
		<circle class="st1" cx="45.5" cy="157.6" r="1.9"/>
		<circle class="st1" cx="49.8" cy="157.6" r="1.9"/>
		<circle class="st1" cx="54.1" cy="157.6" r="1.9"/>
		<circle class="st1" cx="58.5" cy="157.6" r="1.9"/>
		<circle class="st1" cx="62.8" cy="157.6" r="1.9"/>
		<circle class="st1" cx="67.1" cy="157.6" r="1.9"/>
		<circle class="st1" cx="71.5" cy="157.6" r="1.9"/>
		<circle class="st1" cx="75.8" cy="157.6" r="1.9"/>
		<circle class="st1" cx="80.1" cy="157.6" r="1.9"/>
		<circle class="st1" cx="84.4" cy="157.6" r="1.9"/>
		<circle class="st1" cx="88.8" cy="157.6" r="1.9"/>
		<circle class="st1" cx="93.1" cy="157.6" r="1.9"/>
		<circle class="st1" cx="97.4" cy="157.6" r="1.9"/>
		<circle class="st1" cx="101.8" cy="157.6" r="1.9"/>
		<circle class="st1" cx="106.1" cy="157.6" r="1.9"/>
		<circle class="st1" cx="110.4" cy="157.6" r="1.9"/>
		<circle class="st1" cx="114.8" cy="157.6" r="1.9"/>
		<text transform="matrix(1 0 0 1 8.723 158.7085)" class="st1 st2 st3">00</text>
		<text transform="matrix(1 0 0 1 117.8431 158.7085)" class="st1 st2 st3">00</text>
	</g>
	<g>
		<circle class="st1" cx="15.2" cy="151.7" r="1.9"/>
		<circle class="st1" cx="19.6" cy="151.7" r="1.9"/>
		<circle class="st1" cx="23.9" cy="151.7" r="1.9"/>
		<circle class="st1" cx="28.2" cy="151.7" r="1.9"/>
		<circle class="st1" cx="32.5" cy="151.7" r="1.9"/>
		<circle class="st1" cx="36.8" cy="151.7" r="1.9"/>
		<circle class="st1" cx="41.2" cy="151.7" r="1.9"/>
		<circle class="st1" cx="45.5" cy="151.7" r="1.9"/>
		<circle class="st1" cx="49.8" cy="151.7" r="1.9"/>
		<circle class="st1" cx="54.1" cy="151.7" r="1.9"/>
		<circle class="st1" cx="58.5" cy="151.7" r="1.9"/>
		<circle class="st1" cx="62.8" cy="151.7" r="1.9"/>
		<circle class="st1" cx="67.1" cy="151.7" r="1.9"/>
		<circle class="st1" cx="71.5" cy="151.7" r="1.9"/>
		<circle class="st1" cx="75.8" cy="151.7" r="1.9"/>
		<circle class="st1" cx="80.1" cy="151.7" r="1.9"/>
		<circle class="st1" cx="84.4" cy="151.7" r="1.9"/>
		<circle class="st1" cx="88.8" cy="151.7" r="1.9"/>
		<circle class="st1" cx="93.1" cy="151.7" r="1.9"/>
		<circle class="st1" cx="97.4" cy="151.7" r="1.9"/>
		<circle class="st1" cx="101.8" cy="151.7" r="1.9"/>
		<circle class="st1" cx="106.1" cy="151.7" r="1.9"/>
		<circle class="st1" cx="110.4" cy="151.7" r="1.9"/>
		<circle class="st1" cx="114.8" cy="151.7" r="1.9"/>
		<text transform="matrix(1 0 0 1 8.723 152.7786)" class="st1 st2 st3">00</text>
		<text transform="matrix(1 0 0 1 117.8431 152.7786)" class="st1 st2 st3">00</text>
	</g>
	<g>
		<circle class="st1" cx="15.2" cy="145.8" r="1.9"/>
		<circle class="st1" cx="19.6" cy="145.8" r="1.9"/>
		<circle class="st1" cx="23.9" cy="145.8" r="1.9"/>
		<circle class="st1" cx="28.2" cy="145.8" r="1.9"/>
		<circle class="st1" cx="32.5" cy="145.8" r="1.9"/>
		<circle class="st1" cx="36.8" cy="145.8" r="1.9"/>
		<circle class="st1" cx="41.2" cy="145.8" r="1.9"/>
		<circle class="st1" cx="45.5" cy="145.8" r="1.9"/>
		<circle class="st1" cx="49.8" cy="145.8" r="1.9"/>
		<circle class="st1" cx="54.1" cy="145.8" r="1.9"/>
		<circle class="st1" cx="58.5" cy="145.8" r="1.9"/>
		<circle class="st1" cx="62.8" cy="145.8" r="1.9"/>
		<circle class="st1" cx="67.1" cy="145.8" r="1.9"/>
		<circle class="st1" cx="71.5" cy="145.8" r="1.9"/>
		<circle class="st1" cx="75.8" cy="145.8" r="1.9"/>
		<circle class="st1" cx="80.1" cy="145.8" r="1.9"/>
		<circle class="st1" cx="84.4" cy="145.8" r="1.9"/>
		<circle class="st1" cx="88.8" cy="145.8" r="1.9"/>
		<circle class="st1" cx="93.1" cy="145.8" r="1.9"/>
		<circle class="st1" cx="97.4" cy="145.8" r="1.9"/>
		<circle class="st1" cx="101.8" cy="145.8" r="1.9"/>
		<circle class="st1" cx="106.1" cy="145.8" r="1.9"/>
		<circle class="st1" cx="110.4" cy="145.8" r="1.9"/>
		<circle class="st1" cx="114.8" cy="145.8" r="1.9"/>
		<text transform="matrix(1 0 0 1 8.723 146.8486)" class="st1 st2 st3">00</text>
		<text transform="matrix(1 0 0 1 117.8431 146.8486)" class="st1 st2 st3">00</text>
	</g>
	<g>
		<circle class="st1" cx="23.9" cy="139.9" r="1.9"/>
		<circle class="st1" cx="28.2" cy="139.9" r="1.9"/>
		<circle class="st1" cx="32.5" cy="139.9" r="1.9"/>
		<circle class="st1" cx="36.9" cy="139.9" r="1.9"/>
		<circle class="st1" cx="41.2" cy="139.9" r="1.9"/>
		<circle class="st1" cx="45.5" cy="139.9" r="1.9"/>
		<circle class="st1" cx="49.8" cy="139.9" r="1.9"/>
		<circle class="st1" cx="54.1" cy="139.9" r="1.9"/>
		<circle class="st1" cx="58.5" cy="139.9" r="1.9"/>
		<circle class="st1" cx="62.8" cy="139.9" r="1.9"/>
		<circle class="st1" cx="67.1" cy="139.9" r="1.9"/>
		<circle class="st1" cx="71.5" cy="139.9" r="1.9"/>
		<circle class="st1" cx="75.8" cy="139.9" r="1.9"/>
		<circle class="st1" cx="80.1" cy="139.9" r="1.9"/>
		<circle class="st1" cx="84.4" cy="139.9" r="1.9"/>
		<circle class="st1" cx="88.8" cy="139.9" r="1.9"/>
		<circle class="st1" cx="93.1" cy="139.9" r="1.9"/>
		<circle class="st1" cx="97.4" cy="139.9" r="1.9"/>
		<circle class="st1" cx="101.8" cy="139.9" r="1.9"/>
		<circle class="st1" cx="106.1" cy="139.9" r="1.9"/>
		<text transform="matrix(1 0 0 1 17.3831 140.9187)" class="st1 st2 st3">00</text>
		<text transform="matrix(1 0 0 1 109.1831 140.9187)" class="st1 st2 st3">00</text>
	</g>
	<g>
		<circle class="st1" cx="23.9" cy="133.9" r="1.9"/>
		<circle class="st1" cx="28.2" cy="133.9" r="1.9"/>
		<circle class="st1" cx="32.5" cy="133.9" r="1.9"/>
		<circle class="st1" cx="36.9" cy="133.9" r="1.9"/>
		<circle class="st1" cx="41.2" cy="133.9" r="1.9"/>
		<circle class="st1" cx="45.5" cy="133.9" r="1.9"/>
		<circle class="st1" cx="49.8" cy="133.9" r="1.9"/>
		<circle class="st1" cx="54.1" cy="133.9" r="1.9"/>
		<circle class="st1" cx="58.5" cy="133.9" r="1.9"/>
		<circle class="st1" cx="62.8" cy="133.9" r="1.9"/>
		<circle class="st1" cx="67.1" cy="133.9" r="1.9"/>
		<circle class="st1" cx="71.5" cy="133.9" r="1.9"/>
		<circle class="st1" cx="75.8" cy="133.9" r="1.9"/>
		<circle class="st1" cx="80.1" cy="133.9" r="1.9"/>
		<circle class="st1" cx="84.4" cy="133.9" r="1.9"/>
		<circle class="st1" cx="88.8" cy="133.9" r="1.9"/>
		<circle class="st1" cx="93.1" cy="133.9" r="1.9"/>
		<circle class="st1" cx="97.4" cy="133.9" r="1.9"/>
		<circle class="st1" cx="101.8" cy="133.9" r="1.9"/>
		<circle class="st1" cx="106.1" cy="133.9" r="1.9"/>
		<text transform="matrix(1 0 0 1 17.3831 134.9888)" class="st1 st2 st3">00</text>
		<text transform="matrix(1 0 0 1 109.1831 134.9888)" class="st1 st2 st3">00</text>
	</g>
	<g>
		<circle class="st1" cx="23.9" cy="128" r="1.8"/>
		<circle class="st1" cx="28.2" cy="128" r="1.8"/>
		<circle class="st1" cx="32.5" cy="128" r="1.8"/>
		<circle class="st1" cx="36.9" cy="128" r="1.8"/>
		<circle class="st1" cx="41.2" cy="128" r="1.8"/>
		<circle class="st1" cx="45.5" cy="128" r="1.8"/>
		<circle class="st1" cx="49.8" cy="128" r="1.8"/>
		<circle class="st1" cx="54.1" cy="128" r="1.8"/>
		<circle class="st1" cx="58.5" cy="128" r="1.8"/>
		<circle class="st1" cx="62.8" cy="128" r="1.8"/>
		<circle class="st1" cx="67.1" cy="128" r="1.8"/>
		<circle class="st1" cx="71.5" cy="128" r="1.8"/>
		<circle class="st1" cx="75.8" cy="128" r="1.8"/>
		<circle class="st1" cx="80.1" cy="128" r="1.8"/>
		<circle class="st1" cx="84.4" cy="128" r="1.8"/>
		<circle class="st1" cx="88.8" cy="128" r="1.8"/>
		<circle class="st1" cx="93.1" cy="128" r="1.8"/>
		<circle class="st1" cx="97.4" cy="128" r="1.8"/>
		<circle class="st1" cx="101.8" cy="128" r="1.8"/>
		<circle class="st1" cx="106.1" cy="128" r="1.8"/>
		<text transform="matrix(1 0 0 1 17.3831 129.0588)" class="st1 st2 st3">00</text>
		<text transform="matrix(1 0 0 1 109.1831 129.0588)" class="st1 st2 st3">00</text>
	</g>
	<g>
		<circle class="st1" cx="23.9" cy="122.1" r="1.8"/>
		<circle class="st1" cx="28.2" cy="122.1" r="1.8"/>
		<circle class="st1" cx="32.5" cy="122.1" r="1.8"/>
		<circle class="st1" cx="36.9" cy="122.1" r="1.8"/>
		<circle class="st1" cx="41.2" cy="122.1" r="1.8"/>
		<circle class="st1" cx="45.5" cy="122.1" r="1.8"/>
		<circle class="st1" cx="49.8" cy="122.1" r="1.8"/>
		<circle class="st1" cx="54.1" cy="122.1" r="1.8"/>
		<circle class="st1" cx="58.5" cy="122.1" r="1.8"/>
		<circle class="st1" cx="62.8" cy="122.1" r="1.8"/>
		<circle class="st1" cx="67.1" cy="122.1" r="1.8"/>
		<circle class="st1" cx="71.5" cy="122.1" r="1.8"/>
		<circle class="st1" cx="75.8" cy="122.1" r="1.8"/>
		<circle class="st1" cx="80.1" cy="122.1" r="1.8"/>
		<circle class="st1" cx="84.4" cy="122.1" r="1.8"/>
		<circle class="st1" cx="88.8" cy="122.1" r="1.8"/>
		<circle class="st1" cx="93.1" cy="122.1" r="1.8"/>
		<circle class="st1" cx="97.4" cy="122.1" r="1.8"/>
		<circle class="st1" cx="101.8" cy="122.1" r="1.8"/>
		<circle class="st1" cx="106.1" cy="122.1" r="1.8"/>
		<text transform="matrix(1 0 0 1 17.3831 123.1289)" class="st1 st2 st3">00</text>
		<text transform="matrix(1 0 0 1 109.1831 123.1289)" class="st1 st2 st3">00</text>
	</g>
	<g>
		<circle class="st1" cx="23.9" cy="116.1" r="1.8"/>
		<circle class="st1" cx="28.2" cy="116.1" r="1.8"/>
		<circle class="st1" cx="32.5" cy="116.1" r="1.8"/>
		<circle class="st1" cx="36.9" cy="116.1" r="1.8"/>
		<circle class="st1" cx="41.2" cy="116.1" r="1.8"/>
		<circle class="st1" cx="45.5" cy="116.1" r="1.8"/>
		<circle class="st1" cx="49.8" cy="116.1" r="1.8"/>
		<circle class="st1" cx="54.1" cy="116.1" r="1.8"/>
		<circle class="st1" cx="58.5" cy="116.1" r="1.8"/>
		<circle class="st1" cx="62.8" cy="116.1" r="1.8"/>
		<circle class="st1" cx="67.1" cy="116.1" r="1.8"/>
		<circle class="st1" cx="71.5" cy="116.1" r="1.8"/>
		<circle class="st1" cx="75.8" cy="116.1" r="1.8"/>
		<circle class="st1" cx="80.1" cy="116.1" r="1.8"/>
		<circle class="st1" cx="84.4" cy="116.1" r="1.8"/>
		<circle class="st1" cx="88.8" cy="116.1" r="1.8"/>
		<circle class="st1" cx="93.1" cy="116.1" r="1.8"/>
		<circle class="st1" cx="97.4" cy="116.1" r="1.8"/>
		<circle class="st1" cx="101.8" cy="116.1" r="1.8"/>
		<circle class="st1" cx="106.1" cy="116.1" r="1.8"/>
		<text transform="matrix(1 0 0 1 17.3831 117.199)" class="st1 st2 st3">00</text>
		<text transform="matrix(1 0 0 1 109.1831 117.199)" class="st1 st2 st3">00</text>
	</g>
	<g>
		<circle class="st1" cx="15.2" cy="110.2" r="1.8"/>
		<circle class="st1" cx="19.6" cy="110.2" r="1.8"/>
		<circle class="st1" cx="23.9" cy="110.2" r="1.8"/>
		<circle class="st1" cx="28.2" cy="110.2" r="1.8"/>
		<circle class="st1" cx="32.5" cy="110.2" r="1.8"/>
		<circle class="st1" cx="36.8" cy="110.2" r="1.8"/>
		<circle class="st1" cx="41.2" cy="110.2" r="1.8"/>
		<circle class="st1" cx="45.5" cy="110.2" r="1.8"/>
		<circle class="st1" cx="49.8" cy="110.2" r="1.8"/>
		<circle class="st1" cx="54.1" cy="110.2" r="1.8"/>
		<circle class="st1" cx="58.5" cy="110.2" r="1.8"/>
		<circle class="st1" cx="62.8" cy="110.2" r="1.8"/>
		<circle class="st1" cx="67.1" cy="110.2" r="1.8"/>
		<circle class="st1" cx="71.5" cy="110.2" r="1.8"/>
		<circle class="st1" cx="75.8" cy="110.2" r="1.8"/>
		<circle class="st1" cx="80.1" cy="110.2" r="1.8"/>
		<circle class="st1" cx="84.4" cy="110.2" r="1.8"/>
		<circle class="st1" cx="88.8" cy="110.2" r="1.8"/>
		<circle class="st1" cx="93.1" cy="110.2" r="1.8"/>
		<circle class="st1" cx="97.4" cy="110.2" r="1.8"/>
		<circle class="st1" cx="101.8" cy="110.2" r="1.8"/>
		<circle class="st1" cx="106.1" cy="110.2" r="1.8"/>
		<circle class="st1" cx="110.4" cy="110.2" r="1.8"/>
		<circle class="st1" cx="114.8" cy="110.2" r="1.8"/>
		<text transform="matrix(1 0 0 1 8.723 111.269)" class="st1 st2 st3">00</text>
		<text transform="matrix(1 0 0 1 117.8431 111.269)" class="st1 st2 st3">00</text>
	</g>
	<g>
		<circle class="st1" cx="15.2" cy="104.3" r="1.8"/>
		<circle class="st1" cx="19.6" cy="104.3" r="1.8"/>
		<circle class="st1" cx="23.9" cy="104.3" r="1.8"/>
		<circle class="st1" cx="28.2" cy="104.3" r="1.8"/>
		<circle class="st1" cx="32.5" cy="104.3" r="1.8"/>
		<circle class="st1" cx="36.8" cy="104.3" r="1.8"/>
		<circle class="st1" cx="41.2" cy="104.3" r="1.8"/>
		<circle class="st1" cx="45.5" cy="104.3" r="1.8"/>
		<circle class="st1" cx="49.8" cy="104.3" r="1.8"/>
		<circle class="st1" cx="54.1" cy="104.3" r="1.8"/>
		<circle class="st1" cx="58.5" cy="104.3" r="1.8"/>
		<circle class="st1" cx="62.8" cy="104.3" r="1.8"/>
		<circle class="st1" cx="67.1" cy="104.3" r="1.8"/>
		<circle class="st1" cx="71.5" cy="104.3" r="1.8"/>
		<circle class="st1" cx="75.8" cy="104.3" r="1.8"/>
		<circle class="st1" cx="80.1" cy="104.3" r="1.8"/>
		<circle class="st1" cx="84.4" cy="104.3" r="1.8"/>
		<circle class="st1" cx="88.8" cy="104.3" r="1.8"/>
		<circle class="st1" cx="93.1" cy="104.3" r="1.8"/>
		<circle class="st1" cx="97.4" cy="104.3" r="1.8"/>
		<circle class="st1" cx="101.8" cy="104.3" r="1.8"/>
		<circle class="st1" cx="106.1" cy="104.3" r="1.8"/>
		<circle class="st1" cx="110.4" cy="104.3" r="1.8"/>
		<circle class="st1" cx="114.8" cy="104.3" r="1.8"/>
		<text transform="matrix(1 0 0 1 8.723 105.3391)" class="st1 st2 st3">00</text>
		<text transform="matrix(1 0 0 1 117.8431 105.3391)" class="st1 st2 st3">00</text>
	</g>
	<g>
		<circle class="st1" cx="15.2" cy="98.3" r="1.8"/>
		<circle class="st1" cx="19.6" cy="98.3" r="1.8"/>
		<circle class="st1" cx="23.9" cy="98.3" r="1.8"/>
		<circle class="st1" cx="28.2" cy="98.3" r="1.8"/>
		<circle class="st1" cx="32.5" cy="98.3" r="1.8"/>
		<circle class="st1" cx="36.8" cy="98.3" r="1.8"/>
		<circle class="st1" cx="41.2" cy="98.3" r="1.8"/>
		<circle class="st1" cx="45.5" cy="98.3" r="1.8"/>
		<circle class="st1" cx="49.8" cy="98.3" r="1.8"/>
		<circle class="st1" cx="54.1" cy="98.3" r="1.8"/>
		<circle class="st1" cx="58.5" cy="98.3" r="1.8"/>
		<circle class="st1" cx="62.8" cy="98.3" r="1.8"/>
		<circle class="st1" cx="67.1" cy="98.3" r="1.8"/>
		<circle class="st1" cx="71.5" cy="98.3" r="1.8"/>
		<circle class="st1" cx="75.8" cy="98.3" r="1.8"/>
		<circle class="st1" cx="80.1" cy="98.3" r="1.8"/>
		<circle class="st1" cx="84.4" cy="98.3" r="1.8"/>
		<circle class="st1" cx="88.8" cy="98.3" r="1.8"/>
		<circle class="st1" cx="93.1" cy="98.3" r="1.8"/>
		<circle class="st1" cx="97.4" cy="98.3" r="1.8"/>
		<circle class="st1" cx="101.8" cy="98.3" r="1.8"/>
		<circle class="st1" cx="106.1" cy="98.3" r="1.8"/>
		<circle class="st1" cx="110.4" cy="98.3" r="1.8"/>
		<circle class="st1" cx="114.8" cy="98.3" r="1.8"/>
		<text transform="matrix(1 0 0 1 8.723 99.4092)" class="st1 st2 st3">00</text>
		<text transform="matrix(1 0 0 1 117.8431 99.4092)" class="st1 st2 st3">00</text>
	</g>
	<g>
		<circle class="st1" cx="15.2" cy="92.4" r="1.8"/>
		<circle class="st1" cx="19.6" cy="92.4" r="1.8"/>
		<circle class="st1" cx="23.9" cy="92.4" r="1.8"/>
		<circle class="st1" cx="28.2" cy="92.4" r="1.8"/>
		<circle class="st1" cx="32.5" cy="92.4" r="1.8"/>
		<circle class="st1" cx="36.8" cy="92.4" r="1.8"/>
		<circle class="st1" cx="41.2" cy="92.4" r="1.8"/>
		<circle class="st1" cx="45.5" cy="92.4" r="1.8"/>
		<circle class="st1" cx="49.8" cy="92.4" r="1.8"/>
		<circle class="st1" cx="54.1" cy="92.4" r="1.8"/>
		<circle class="st1" cx="58.5" cy="92.4" r="1.8"/>
		<circle class="st1" cx="62.8" cy="92.4" r="1.8"/>
		<circle class="st1" cx="67.1" cy="92.4" r="1.8"/>
		<circle class="st1" cx="71.5" cy="92.4" r="1.8"/>
		<circle class="st1" cx="75.8" cy="92.4" r="1.8"/>
		<circle class="st1" cx="80.1" cy="92.4" r="1.8"/>
		<circle class="st1" cx="84.4" cy="92.4" r="1.8"/>
		<circle class="st1" cx="88.8" cy="92.4" r="1.8"/>
		<circle class="st1" cx="93.1" cy="92.4" r="1.8"/>
		<circle class="st1" cx="97.4" cy="92.4" r="1.8"/>
		<circle class="st1" cx="101.8" cy="92.4" r="1.8"/>
		<circle class="st1" cx="106.1" cy="92.4" r="1.8"/>
		<circle class="st1" cx="110.4" cy="92.4" r="1.8"/>
		<circle class="st1" cx="114.8" cy="92.4" r="1.8"/>
		<text transform="matrix(1 0 0 1 8.723 93.4792)" class="st1 st2 st3">00</text>
		<text transform="matrix(1 0 0 1 117.8431 93.4792)" class="st1 st2 st3">00</text>
	</g>
	<g>
		<circle class="st1" cx="15.2" cy="86.5" r="1.8"/>
		<circle class="st1" cx="19.6" cy="86.5" r="1.8"/>
		<circle class="st1" cx="23.9" cy="86.5" r="1.8"/>
		<circle class="st1" cx="28.2" cy="86.5" r="1.8"/>
		<circle class="st1" cx="32.5" cy="86.5" r="1.8"/>
		<circle class="st1" cx="36.8" cy="86.5" r="1.8"/>
		<circle class="st1" cx="41.2" cy="86.5" r="1.8"/>
		<circle class="st1" cx="45.5" cy="86.5" r="1.8"/>
		<circle class="st1" cx="49.8" cy="86.5" r="1.8"/>
		<circle class="st1" cx="54.1" cy="86.5" r="1.8"/>
		<circle class="st1" cx="58.5" cy="86.5" r="1.8"/>
		<circle class="st1" cx="62.8" cy="86.5" r="1.8"/>
		<circle class="st1" cx="67.1" cy="86.5" r="1.8"/>
		<circle class="st1" cx="71.5" cy="86.5" r="1.8"/>
		<circle class="st1" cx="75.8" cy="86.5" r="1.8"/>
		<circle class="st1" cx="80.1" cy="86.5" r="1.8"/>
		<circle class="st1" cx="84.4" cy="86.5" r="1.8"/>
		<circle class="st1" cx="88.8" cy="86.5" r="1.8"/>
		<circle class="st1" cx="93.1" cy="86.5" r="1.8"/>
		<circle class="st1" cx="97.4" cy="86.5" r="1.8"/>
		<circle class="st1" cx="101.8" cy="86.5" r="1.8"/>
		<circle class="st1" cx="106.1" cy="86.5" r="1.8"/>
		<circle class="st1" cx="110.4" cy="86.5" r="1.8"/>
		<circle class="st1" cx="114.8" cy="86.5" r="1.8"/>
		<text transform="matrix(1 0 0 1 8.723 87.5493)" class="st1 st2 st3">00</text>
		<text transform="matrix(1 0 0 1 117.8431 87.5493)" class="st1 st2 st3">00</text>
	</g>
	<g>
		<circle class="st1" cx="15.2" cy="80.5" r="1.8"/>
		<circle class="st1" cx="19.6" cy="80.5" r="1.8"/>
		<circle class="st1" cx="23.9" cy="80.5" r="1.8"/>
		<circle class="st1" cx="28.2" cy="80.5" r="1.8"/>
		<circle class="st1" cx="32.5" cy="80.5" r="1.8"/>
		<circle class="st1" cx="36.8" cy="80.5" r="1.8"/>
		<circle class="st1" cx="41.2" cy="80.5" r="1.8"/>
		<circle class="st1" cx="45.5" cy="80.5" r="1.8"/>
		<circle class="st1" cx="49.8" cy="80.5" r="1.8"/>
		<circle class="st1" cx="54.1" cy="80.5" r="1.8"/>
		<circle class="st1" cx="58.5" cy="80.5" r="1.8"/>
		<circle class="st1" cx="62.8" cy="80.5" r="1.8"/>
		<circle class="st1" cx="67.1" cy="80.5" r="1.8"/>
		<circle class="st1" cx="71.5" cy="80.5" r="1.8"/>
		<circle class="st1" cx="75.8" cy="80.5" r="1.8"/>
		<circle class="st1" cx="80.1" cy="80.5" r="1.8"/>
		<circle class="st1" cx="84.4" cy="80.5" r="1.8"/>
		<circle class="st1" cx="88.8" cy="80.5" r="1.8"/>
		<circle class="st1" cx="93.1" cy="80.5" r="1.8"/>
		<circle class="st1" cx="97.4" cy="80.5" r="1.8"/>
		<circle class="st1" cx="101.8" cy="80.5" r="1.8"/>
		<circle class="st1" cx="106.1" cy="80.5" r="1.8"/>
		<circle class="st1" cx="110.4" cy="80.5" r="1.8"/>
		<circle class="st1" cx="114.8" cy="80.5" r="1.8"/>
		<text transform="matrix(1 0 0 1 8.723 81.6194)" class="st1 st2 st3">00</text>
		<text transform="matrix(1 0 0 1 117.8431 81.6194)" class="st1 st2 st3">00</text>
	</g>
	<g>
		<circle class="st1" cx="15.2" cy="74.6" r="1.8"/>
		<circle class="st1" cx="19.6" cy="74.6" r="1.8"/>
		<circle class="st1" cx="23.9" cy="74.6" r="1.8"/>
		<circle class="st1" cx="28.2" cy="74.6" r="1.8"/>
		<circle class="st1" cx="32.5" cy="74.6" r="1.8"/>
		<circle class="st1" cx="36.8" cy="74.6" r="1.8"/>
		<circle class="st1" cx="41.2" cy="74.6" r="1.8"/>
		<circle class="st1" cx="45.5" cy="74.6" r="1.8"/>
		<circle class="st1" cx="49.8" cy="74.6" r="1.8"/>
		<circle class="st1" cx="54.1" cy="74.6" r="1.8"/>
		<circle class="st1" cx="58.5" cy="74.6" r="1.8"/>
		<circle class="st1" cx="62.8" cy="74.6" r="1.8"/>
		<circle class="st1" cx="67.1" cy="74.6" r="1.8"/>
		<circle class="st1" cx="71.5" cy="74.6" r="1.8"/>
		<circle class="st1" cx="75.8" cy="74.6" r="1.8"/>
		<circle class="st1" cx="80.1" cy="74.6" r="1.8"/>
		<circle class="st1" cx="84.4" cy="74.6" r="1.8"/>
		<circle class="st1" cx="88.8" cy="74.6" r="1.8"/>
		<circle class="st1" cx="93.1" cy="74.6" r="1.8"/>
		<circle class="st1" cx="97.4" cy="74.6" r="1.8"/>
		<circle class="st1" cx="101.8" cy="74.6" r="1.8"/>
		<circle class="st1" cx="106.1" cy="74.6" r="1.8"/>
		<circle class="st1" cx="110.4" cy="74.6" r="1.8"/>
		<circle class="st1" cx="114.8" cy="74.6" r="1.8"/>
		<text transform="matrix(1 0 0 1 8.723 75.6895)" class="st1 st2 st3">00</text>
		<text transform="matrix(1 0 0 1 117.8431 75.6895)" class="st1 st2 st3">00</text>
	</g>
	<g>
		<circle class="st1" cx="15.2" cy="68.7" r="1.8"/>
		<circle class="st1" cx="19.6" cy="68.7" r="1.8"/>
		<circle class="st1" cx="23.9" cy="68.7" r="1.8"/>
		<circle class="st1" cx="28.2" cy="68.7" r="1.8"/>
		<circle class="st1" cx="32.5" cy="68.7" r="1.8"/>
		<circle class="st1" cx="36.8" cy="68.7" r="1.8"/>
		<circle class="st1" cx="41.2" cy="68.7" r="1.8"/>
		<circle class="st1" cx="45.5" cy="68.7" r="1.8"/>
		<circle class="st1" cx="49.8" cy="68.7" r="1.8"/>
		<circle class="st1" cx="54.1" cy="68.7" r="1.8"/>
		<circle class="st1" cx="58.5" cy="68.7" r="1.8"/>
		<circle class="st1" cx="62.8" cy="68.7" r="1.8"/>
		<circle class="st1" cx="67.1" cy="68.7" r="1.8"/>
		<circle class="st1" cx="71.5" cy="68.7" r="1.8"/>
		<circle class="st1" cx="75.8" cy="68.7" r="1.8"/>
		<circle class="st1" cx="80.1" cy="68.7" r="1.8"/>
		<circle class="st1" cx="84.4" cy="68.7" r="1.8"/>
		<circle class="st1" cx="88.8" cy="68.7" r="1.8"/>
		<circle class="st1" cx="93.1" cy="68.7" r="1.8"/>
		<circle class="st1" cx="97.4" cy="68.7" r="1.8"/>
		<circle class="st1" cx="101.8" cy="68.7" r="1.8"/>
		<circle class="st1" cx="106.1" cy="68.7" r="1.8"/>
		<circle class="st1" cx="110.4" cy="68.7" r="1.8"/>
		<circle class="st1" cx="114.8" cy="68.7" r="1.8"/>
		<text transform="matrix(1 0 0 1 8.723 69.7595)" class="st1 st2 st3">00</text>
		<text transform="matrix(1 0 0 1 117.8431 69.7595)" class="st1 st2 st3">00</text>
	</g>
	<g>
		<circle class="st1" cx="15.2" cy="62.7" r="1.9"/>
		<circle class="st1" cx="19.6" cy="62.7" r="1.9"/>
		<circle class="st1" cx="23.9" cy="62.7" r="1.9"/>
		<circle class="st1" cx="28.2" cy="62.7" r="1.9"/>
		<circle class="st1" cx="32.5" cy="62.7" r="1.9"/>
		<circle class="st1" cx="36.8" cy="62.7" r="1.8"/>
		<circle class="st1" cx="41.2" cy="62.7" r="1.8"/>
		<circle class="st1" cx="45.5" cy="62.7" r="1.8"/>
		<circle class="st1" cx="49.8" cy="62.7" r="1.8"/>
		<circle class="st1" cx="54.1" cy="62.7" r="1.8"/>
		<circle class="st1" cx="58.5" cy="62.7" r="1.8"/>
		<circle class="st1" cx="62.8" cy="62.7" r="1.9"/>
		<circle class="st1" cx="67.1" cy="62.7" r="1.8"/>
		<circle class="st1" cx="71.5" cy="62.7" r="1.8"/>
		<circle class="st1" cx="75.8" cy="62.7" r="1.8"/>
		<circle class="st1" cx="80.1" cy="62.7" r="1.8"/>
		<circle class="st1" cx="84.4" cy="62.7" r="1.8"/>
		<circle class="st1" cx="88.8" cy="62.7" r="1.8"/>
		<circle class="st1" cx="93.1" cy="62.7" r="1.8"/>
		<circle class="st1" cx="97.4" cy="62.7" r="1.8"/>
		<circle class="st1" cx="101.8" cy="62.7" r="1.8"/>
		<circle class="st1" cx="106.1" cy="62.7" r="1.8"/>
		<circle class="st1" cx="110.4" cy="62.7" r="1.8"/>
		<circle class="st1" cx="114.8" cy="62.7" r="1.8"/>
		<text transform="matrix(1 0 0 1 8.723 63.8296)" class="st1 st2 st3">00</text>
		<text transform="matrix(1 0 0 1 117.8431 63.8296)" class="st1 st2 st3">00</text>
	</g>
	<g>
		<circle class="st1" cx="15.2" cy="56.8" r="1.8"/>
		<circle class="st1" cx="19.6" cy="56.8" r="1.8"/>
		<circle class="st1" cx="23.9" cy="56.8" r="1.8"/>
		<circle class="st1" cx="28.2" cy="56.8" r="1.8"/>
		<circle class="st1" cx="32.5" cy="56.8" r="1.8"/>
		<circle class="st1" cx="36.8" cy="56.8" r="1.8"/>
		<circle class="st1" cx="41.2" cy="56.8" r="1.8"/>
		<circle class="st1" cx="45.5" cy="56.8" r="1.8"/>
		<circle class="st1" cx="49.8" cy="56.8" r="1.8"/>
		<circle class="st1" cx="54.1" cy="56.8" r="1.8"/>
		<circle class="st1" cx="58.5" cy="56.8" r="1.8"/>
		<circle class="st1" cx="62.8" cy="56.8" r="1.8"/>
		<circle class="st1" cx="67.1" cy="56.8" r="1.8"/>
		<circle class="st1" cx="71.5" cy="56.8" r="1.8"/>
		<circle class="st1" cx="75.8" cy="56.8" r="1.8"/>
		<circle class="st1" cx="80.1" cy="56.8" r="1.8"/>
		<circle class="st1" cx="84.4" cy="56.8" r="1.8"/>
		<circle class="st1" cx="88.8" cy="56.8" r="1.8"/>
		<circle class="st1" cx="93.1" cy="56.8" r="1.8"/>
		<circle class="st1" cx="97.4" cy="56.8" r="1.8"/>
		<circle class="st1" cx="101.8" cy="56.8" r="1.8"/>
		<circle class="st1" cx="106.1" cy="56.8" r="1.8"/>
		<circle class="st1" cx="110.4" cy="56.8" r="1.8"/>
		<circle class="st1" cx="114.8" cy="56.8" r="1.8"/>
		<text transform="matrix(1 0 0 1 8.723 57.8997)" class="st1 st2 st3">00</text>
		<text transform="matrix(1 0 0 1 117.8431 57.8997)" class="st1 st2 st3">00</text>
	</g>
	<g>
		<circle class="st1" cx="15.2" cy="50.9" r="1.8"/>
		<circle class="st1" cx="19.6" cy="50.9" r="1.8"/>
		<circle class="st1" cx="23.9" cy="50.9" r="1.8"/>
		<circle class="st1" cx="28.2" cy="50.9" r="1.8"/>
		<circle class="st1" cx="32.5" cy="50.9" r="1.8"/>
		<circle class="st1" cx="36.8" cy="50.9" r="1.8"/>
		<circle class="st1" cx="41.2" cy="50.9" r="1.8"/>
		<circle class="st1" cx="45.5" cy="50.9" r="1.8"/>
		<circle class="st1" cx="49.8" cy="50.9" r="1.8"/>
		<circle class="st1" cx="54.1" cy="50.9" r="1.8"/>
		<circle class="st1" cx="58.5" cy="50.9" r="1.8"/>
		<circle class="st1" cx="62.8" cy="50.9" r="1.8"/>
		<circle class="st1" cx="67.1" cy="50.9" r="1.8"/>
		<circle class="st1" cx="71.5" cy="50.9" r="1.8"/>
		<circle class="st1" cx="75.8" cy="50.9" r="1.8"/>
		<circle class="st1" cx="80.1" cy="50.9" r="1.8"/>
		<circle class="st1" cx="84.4" cy="50.9" r="1.8"/>
		<circle class="st1" cx="88.8" cy="50.9" r="1.8"/>
		<circle class="st1" cx="93.1" cy="50.9" r="1.8"/>
		<circle class="st1" cx="97.4" cy="50.9" r="1.8"/>
		<circle class="st1" cx="101.8" cy="50.9" r="1.8"/>
		<circle class="st1" cx="106.1" cy="50.9" r="1.8"/>
		<circle class="st1" cx="110.4" cy="50.9" r="1.8"/>
		<circle class="st1" cx="114.8" cy="50.9" r="1.8"/>
		<text transform="matrix(1 0 0 1 8.723 51.9697)" class="st1 st2 st3">00</text>
		<text transform="matrix(1 0 0 1 117.8431 51.9697)" class="st1 st2 st3">00</text>
	</g>
	<g>
		<circle class="st1" cx="15.2" cy="45" r="1.8"/>
		<circle class="st1" cx="19.6" cy="45" r="1.8"/>
		<circle class="st1" cx="23.9" cy="45" r="1.8"/>
		<circle class="st1" cx="28.2" cy="45" r="1.8"/>
		<circle class="st1" cx="32.5" cy="45" r="1.8"/>
		<circle class="st1" cx="36.8" cy="45" r="1.8"/>
		<circle class="st1" cx="41.2" cy="45" r="1.8"/>
		<circle class="st1" cx="45.5" cy="45" r="1.8"/>
		<circle class="st1" cx="49.8" cy="45" r="1.8"/>
		<circle class="st1" cx="54.1" cy="45" r="1.8"/>
		<circle class="st1" cx="58.5" cy="45" r="1.8"/>
		<circle class="st1" cx="62.8" cy="45" r="1.8"/>
		<circle class="st1" cx="67.1" cy="45" r="1.8"/>
		<circle class="st1" cx="71.5" cy="45" r="1.8"/>
		<circle class="st1" cx="75.8" cy="45" r="1.8"/>
		<circle class="st1" cx="80.1" cy="45" r="1.8"/>
		<circle class="st1" cx="84.4" cy="45" r="1.8"/>
		<circle class="st1" cx="88.8" cy="45" r="1.8"/>
		<circle class="st1" cx="93.1" cy="45" r="1.8"/>
		<circle class="st1" cx="97.4" cy="45" r="1.8"/>
		<circle class="st1" cx="101.8" cy="45" r="1.8"/>
		<circle class="st1" cx="106.1" cy="45" r="1.8"/>
		<circle class="st1" cx="110.4" cy="45" r="1.8"/>
		<circle class="st1" cx="114.8" cy="45" r="1.8"/>
		<text transform="matrix(1 0 0 1 8.723 46.0398)" class="st1 st2 st3">00</text>
		<text transform="matrix(1 0 0 1 117.8431 46.0398)" class="st1 st2 st3">00</text>
	</g>
	<g>
		<circle class="st1" cx="15.2" cy="39" r="1.8"/>
		<circle class="st1" cx="19.6" cy="39" r="1.8"/>
		<circle class="st1" cx="23.9" cy="39" r="1.8"/>
		<circle class="st1" cx="28.2" cy="39" r="1.8"/>
		<circle class="st1" cx="32.5" cy="39" r="1.8"/>
		<circle class="st1" cx="36.8" cy="39" r="1.8"/>
		<circle class="st1" cx="41.2" cy="39" r="1.8"/>
		<circle class="st1" cx="45.5" cy="39" r="1.8"/>
		<circle class="st1" cx="49.8" cy="39" r="1.8"/>
		<circle class="st1" cx="54.1" cy="39" r="1.8"/>
		<circle class="st1" cx="58.5" cy="39" r="1.8"/>
		<circle class="st1" cx="62.8" cy="39" r="1.8"/>
		<circle class="st1" cx="67.1" cy="39" r="1.8"/>
		<circle class="st1" cx="71.5" cy="39" r="1.8"/>
		<circle class="st1" cx="75.8" cy="39" r="1.8"/>
		<circle class="st1" cx="80.1" cy="39" r="1.8"/>
		<circle class="st1" cx="84.4" cy="39" r="1.8"/>
		<circle class="st1" cx="88.8" cy="39" r="1.8"/>
		<circle class="st1" cx="93.1" cy="39" r="1.8"/>
		<circle class="st1" cx="97.4" cy="39" r="1.8"/>
		<circle class="st1" cx="101.8" cy="39" r="1.8"/>
		<circle class="st1" cx="106.1" cy="39" r="1.8"/>
		<circle class="st1" cx="110.4" cy="39" r="1.8"/>
		<circle class="st1" cx="114.8" cy="39" r="1.8"/>
		<text transform="matrix(1 0 0 1 8.723 40.1099)" class="st1 st2 st3">00</text>
		<text transform="matrix(1 0 0 1 117.8431 40.1099)" class="st1 st2 st3">00</text>
	</g>
	<g>
		<circle class="st1" cx="15.2" cy="33.1" r="1.8"/>
		<circle class="st1" cx="19.6" cy="33.1" r="1.8"/>
		<circle class="st1" cx="23.9" cy="33.1" r="1.8"/>
		<circle class="st1" cx="28.2" cy="33.1" r="1.8"/>
		<circle class="st1" cx="32.5" cy="33.1" r="1.8"/>
		<circle class="st1" cx="36.8" cy="33.1" r="1.8"/>
		<circle class="st1" cx="41.2" cy="33.1" r="1.8"/>
		<circle class="st1" cx="45.5" cy="33.1" r="1.8"/>
		<circle class="st1" cx="49.8" cy="33.1" r="1.8"/>
		<circle class="st1" cx="54.1" cy="33.1" r="1.8"/>
		<circle class="st1" cx="58.5" cy="33.1" r="1.8"/>
		<circle class="st1" cx="62.8" cy="33.1" r="1.9"/>
		<circle class="st1" cx="67.1" cy="33.1" r="1.8"/>
		<circle class="st1" cx="71.5" cy="33.1" r="1.8"/>
		<circle class="st1" cx="75.8" cy="33.1" r="1.8"/>
		<circle class="st1" cx="80.1" cy="33.1" r="1.8"/>
		<circle class="st1" cx="84.4" cy="33.1" r="1.8"/>
		<circle class="st1" cx="88.8" cy="33.1" r="1.8"/>
		<circle class="st1" cx="93.1" cy="33.1" r="1.8"/>
		<circle class="st1" cx="97.4" cy="33.1" r="1.8"/>
		<circle class="st1" cx="101.8" cy="33.1" r="1.8"/>
		<circle class="st1" cx="106.1" cy="33.1" r="1.8"/>
		<circle class="st1" cx="110.4" cy="33.1" r="1.8"/>
		<circle class="st1" cx="114.8" cy="33.1" r="1.8"/>
		<text transform="matrix(1 0 0 1 8.723 34.1799)" class="st1 st2 st3">00</text>
		<text transform="matrix(1 0 0 1 117.8431 34.1799)" class="st1 st2 st3">00</text>
	</g>
	<g>
		<circle class="st1" cx="15.2" cy="27.2" r="1.9"/>
		<circle class="st1" cx="19.6" cy="27.2" r="1.9"/>
		<circle class="st1" cx="23.9" cy="27.2" r="1.9"/>
		<circle class="st1" cx="28.2" cy="27.2" r="1.9"/>
		<circle class="st1" cx="32.5" cy="27.2" r="1.8"/>
		<circle class="st1" cx="36.8" cy="27.2" r="1.8"/>
		<circle class="st1" cx="41.2" cy="27.2" r="1.8"/>
		<circle class="st1" cx="45.5" cy="27.2" r="1.8"/>
		<circle class="st1" cx="49.8" cy="27.2" r="1.8"/>
		<circle class="st1" cx="54.1" cy="27.2" r="1.8"/>
		<circle class="st1" cx="58.5" cy="27.2" r="1.8"/>
		<circle class="st1" cx="62.8" cy="27.2" r="1.9"/>
		<circle class="st1" cx="67.1" cy="27.2" r="1.8"/>
		<circle class="st1" cx="71.5" cy="27.2" r="1.8"/>
		<circle class="st1" cx="75.8" cy="27.2" r="1.8"/>
		<circle class="st1" cx="80.1" cy="27.2" r="1.8"/>
		<circle class="st1" cx="84.4" cy="27.2" r="1.8"/>
		<circle class="st1" cx="88.8" cy="27.2" r="1.8"/>
		<circle class="st1" cx="93.1" cy="27.2" r="1.8"/>
		<circle class="st1" cx="97.4" cy="27.2" r="1.8"/>
		<circle class="st1" cx="101.8" cy="27.2" r="1.8"/>
		<circle class="st1" cx="106.1" cy="27.2" r="1.8"/>
		<circle class="st1" cx="110.4" cy="27.2" r="1.8"/>
		<circle class="st1" cx="114.8" cy="27.2" r="1.8"/>
		<text transform="matrix(1 0 0 1 8.723 28.25)" class="st1 st2 st3">00</text>
		<text transform="matrix(1 0 0 1 117.8431 28.25)" class="st1 st2 st3">00</text>
	</g>
	<g>
		<circle class="st1" cx="15.2" cy="21.2" r="1.9"/>
		<circle class="st1" cx="19.6" cy="21.2" r="1.9"/>
		<circle class="st1" cx="23.9" cy="21.2" r="1.9"/>
		<circle class="st1" cx="28.2" cy="21.2" r="1.9"/>
		<circle class="st1" cx="32.5" cy="21.2" r="1.8"/>
		<circle class="st1" cx="36.8" cy="21.2" r="1.8"/>
		<circle class="st1" cx="41.2" cy="21.2" r="1.8"/>
		<circle class="st1" cx="45.5" cy="21.2" r="1.8"/>
		<circle class="st1" cx="49.8" cy="21.2" r="1.8"/>
		<circle class="st1" cx="54.1" cy="21.2" r="1.8"/>
		<circle class="st1" cx="58.5" cy="21.2" r="1.8"/>
		<circle class="st1" cx="62.8" cy="21.2" r="1.9"/>
		<circle class="st1" cx="67.1" cy="21.2" r="1.8"/>
		<circle class="st1" cx="71.5" cy="21.2" r="1.8"/>
		<circle class="st1" cx="75.8" cy="21.2" r="1.8"/>
		<circle class="st1" cx="80.1" cy="21.2" r="1.8"/>
		<circle class="st1" cx="84.4" cy="21.2" r="1.8"/>
		<circle class="st1" cx="88.8" cy="21.2" r="1.8"/>
		<circle class="st1" cx="93.1" cy="21.2" r="1.8"/>
		<circle class="st1" cx="97.4" cy="21.2" r="1.8"/>
		<circle class="st1" cx="101.8" cy="21.2" r="1.8"/>
		<circle class="st1" cx="106.1" cy="21.2" r="1.8"/>
		<circle class="st1" cx="110.4" cy="21.2" r="1.8"/>
		<circle class="st1" cx="114.8" cy="21.2" r="1.8"/>
		<text transform="matrix(1 0 0 1 8.723 22.3201)" class="st1 st2 st3">00</text>
		<text transform="matrix(1 0 0 1 117.8431 22.3201)" class="st1 st2 st3">00</text>
	</g>
	<g>
		<circle class="st1" cx="15.2" cy="15.3" r="1.9"/>
		<circle class="st1" cx="19.6" cy="15.3" r="1.9"/>
		<circle class="st1" cx="23.9" cy="15.3" r="1.9"/>
		<circle class="st1" cx="28.2" cy="15.3" r="1.9"/>
		<circle class="st1" cx="32.5" cy="15.3" r="1.8"/>
		<circle class="st1" cx="36.8" cy="15.3" r="1.8"/>
		<circle class="st1" cx="41.2" cy="15.3" r="1.8"/>
		<circle class="st1" cx="45.5" cy="15.3" r="1.8"/>
		<circle class="st1" cx="49.8" cy="15.3" r="1.8"/>
		<circle class="st1" cx="54.1" cy="15.3" r="1.8"/>
		<circle class="st1" cx="58.5" cy="15.3" r="1.8"/>
		<circle class="st1" cx="62.8" cy="15.3" r="1.9"/>
		<circle class="st1" cx="67.1" cy="15.3" r="1.8"/>
		<circle class="st1" cx="71.5" cy="15.3" r="1.8"/>
		<circle class="st1" cx="75.8" cy="15.3" r="1.8"/>
		<circle class="st1" cx="80.1" cy="15.3" r="1.8"/>
		<circle class="st1" cx="84.4" cy="15.3" r="1.8"/>
		<circle class="st1" cx="88.8" cy="15.3" r="1.8"/>
		<circle class="st1" cx="93.1" cy="15.3" r="1.8"/>
		<circle class="st1" cx="97.4" cy="15.3" r="1.8"/>
		<circle class="st1" cx="101.8" cy="15.3" r="1.8"/>
		<circle class="st1" cx="106.1" cy="15.3" r="1.8"/>
		<circle class="st1" cx="110.4" cy="15.3" r="1.8"/>
		<circle class="st1" cx="114.8" cy="15.3" r="1.8"/>
		<text transform="matrix(1 0 0 1 8.723 16.3901)" class="st1 st2 st3">00</text>
		<text transform="matrix(1 0 0 1 117.8431 16.3901)" class="st1 st2 st3">00</text>
	</g>
	<g>
		<circle class="st1" cx="15.2" cy="9.4" r="1.9"/>
		<circle class="st1" cx="19.6" cy="9.4" r="1.9"/>
		<circle class="st1" cx="23.9" cy="9.4" r="1.9"/>
		<circle class="st1" cx="28.2" cy="9.4" r="1.9"/>
		<circle class="st1" cx="32.5" cy="9.4" r="1.8"/>
		<circle class="st1" cx="36.8" cy="9.4" r="1.8"/>
		<circle class="st1" cx="41.2" cy="9.4" r="1.8"/>
		<circle class="st1" cx="45.5" cy="9.4" r="1.8"/>
		<circle class="st1" cx="49.8" cy="9.4" r="1.8"/>
		<circle class="st1" cx="54.1" cy="9.4" r="1.8"/>
		<circle class="st1" cx="58.5" cy="9.4" r="1.8"/>
		<circle class="st1" cx="62.8" cy="9.4" r="1.9"/>
		<circle class="st1" cx="67.1" cy="9.4" r="1.8"/>
		<circle class="st1" cx="71.5" cy="9.4" r="1.8"/>
		<circle class="st1" cx="75.8" cy="9.4" r="1.8"/>
		<circle class="st1" cx="80.1" cy="9.4" r="1.8"/>
		<circle class="st1" cx="84.4" cy="9.4" r="1.8"/>
		<circle class="st1" cx="88.8" cy="9.4" r="1.8"/>
		<circle class="st1" cx="93.1" cy="9.4" r="1.8"/>
		<circle class="st1" cx="97.4" cy="9.4" r="1.8"/>
		<circle class="st1" cx="101.8" cy="9.4" r="1.8"/>
		<circle class="st1" cx="106.1" cy="9.4" r="1.8"/>
		<circle class="st1" cx="110.4" cy="9.4" r="1.8"/>
		<circle class="st1" cx="114.8" cy="9.4" r="1.8"/>
		<text transform="matrix(1 0 0 1 8.723 10.4602)" class="st1 st2 st3">00</text>
		<text transform="matrix(1 0 0 1 117.8431 10.4602)" class="st1 st2 st3">00</text>
	</g>
</g>
</svg>
