<?xml version="1.0" encoding="utf-8"?>
<!-- Generator: Adobe Illustrator 23.0.1, SVG Export Plug-In . SVG Version: 6.00 Build 0)  -->
<svg version="1.1" id="Layer_1" xmlns="http://www.w3.org/2000/svg" xmlns:xlink="http://www.w3.org/1999/xlink" x="0px" y="0px"
	 viewBox="0 0 130 172" style="enable-background:new 0 0 130 172;" xml:space="preserve">
<style type="text/css">
	.st0{fill:#F1F3F4;stroke:#BCC8CE;stroke-width:0.4;stroke-linecap:round;stroke-miterlimit:10;}
	.st1{fill:#AEBDC4;}
	.st2{font-family:'Roboto-Medium';}
	.st3{font-size:3px;}
</style>
<polygon class="st0" points="0.3,0.6 129.7,0.6 129.7,122.6 0.3,171.4 "/>
<g>
	<g>
		<circle class="st1" cx="10.9" cy="146" r="1.9"/>
		<circle class="st1" cx="15.2" cy="146" r="1.9"/>
		<circle class="st1" cx="19.5" cy="146" r="1.9"/>
		<circle class="st1" cx="23.9" cy="146" r="1.9"/>
		<circle class="st1" cx="28.2" cy="146" r="1.9"/>
		<circle class="st1" cx="32.5" cy="146" r="1.9"/>
		<text transform="matrix(1 0 0 1 4.3829 147.1084)" class="st1 st2 st3">00</text>
		<text transform="matrix(1 0 0 1 35.5931 147.1084)" class="st1 st2 st3">00</text>
	</g>
	<g>
		<circle class="st1" cx="10.9" cy="140.1" r="1.9"/>
		<circle class="st1" cx="15.2" cy="140.1" r="1.9"/>
		<circle class="st1" cx="19.5" cy="140.1" r="1.9"/>
		<circle class="st1" cx="23.9" cy="140.1" r="1.9"/>
		<circle class="st1" cx="28.2" cy="140.1" r="1.9"/>
		<circle class="st1" cx="32.5" cy="140.1" r="1.9"/>
		<circle class="st1" cx="36.8" cy="140.1" r="1.9"/>
		<circle class="st1" cx="41.2" cy="140.1" r="1.9"/>
		<circle class="st1" cx="45.5" cy="140.1" r="1.9"/>
		<text transform="matrix(1 0 0 1 4.3829 141.1785)" class="st1 st2 st3">00</text>
		<text transform="matrix(1 0 0 1 48.5531 141.1785)" class="st1 st2 st3">00</text>
	</g>
	<g>
		<circle class="st1" cx="10.9" cy="134.2" r="1.9"/>
		<circle class="st1" cx="15.2" cy="134.2" r="1.9"/>
		<circle class="st1" cx="19.5" cy="134.2" r="1.9"/>
		<circle class="st1" cx="23.9" cy="134.2" r="1.9"/>
		<circle class="st1" cx="28.2" cy="134.2" r="1.9"/>
		<circle class="st1" cx="32.5" cy="134.2" r="1.9"/>
		<circle class="st1" cx="36.8" cy="134.2" r="1.9"/>
		<circle class="st1" cx="41.2" cy="134.2" r="1.9"/>
		<circle class="st1" cx="45.5" cy="134.2" r="1.9"/>
		<circle class="st1" cx="49.8" cy="134.2" r="1.9"/>
		<circle class="st1" cx="54.1" cy="134.2" r="1.9"/>
		<circle class="st1" cx="58.5" cy="134.2" r="1.9"/>
		<text transform="matrix(1 0 0 1 4.3829 135.2485)" class="st1 st2 st3">00</text>
		<text transform="matrix(1 0 0 1 61.5531 135.2485)" class="st1 st2 st3">00</text>
	</g>
	<g>
		<circle class="st1" cx="10.9" cy="128.2" r="1.9"/>
		<circle class="st1" cx="15.2" cy="128.2" r="1.9"/>
		<circle class="st1" cx="19.5" cy="128.2" r="1.9"/>
		<circle class="st1" cx="23.9" cy="128.2" r="1.9"/>
		<circle class="st1" cx="28.2" cy="128.2" r="1.9"/>
		<circle class="st1" cx="32.5" cy="128.2" r="1.9"/>
		<circle class="st1" cx="36.8" cy="128.2" r="1.9"/>
		<circle class="st1" cx="41.2" cy="128.2" r="1.9"/>
		<circle class="st1" cx="45.5" cy="128.2" r="1.9"/>
		<circle class="st1" cx="49.8" cy="128.2" r="1.9"/>
		<circle class="st1" cx="54.1" cy="128.2" r="1.9"/>
		<circle class="st1" cx="58.5" cy="128.2" r="1.9"/>
		<circle class="st1" cx="62.8" cy="128.2" r="1.9"/>
		<circle class="st1" cx="67.1" cy="128.2" r="1.9"/>
		<circle class="st1" cx="71.5" cy="128.2" r="1.9"/>
		<circle class="st1" cx="75.8" cy="128.2" r="1.9"/>
		<text transform="matrix(1 0 0 1 4.3829 129.3186)" class="st1 st2 st3">00</text>
		<text transform="matrix(1 0 0 1 78.873 129.3186)" class="st1 st2 st3">00</text>
	</g>
	<g>
		<circle class="st1" cx="10.9" cy="122.3" r="1.8"/>
		<circle class="st1" cx="15.2" cy="122.3" r="1.8"/>
		<circle class="st1" cx="19.5" cy="122.3" r="1.8"/>
		<circle class="st1" cx="23.9" cy="122.3" r="1.8"/>
		<circle class="st1" cx="28.2" cy="122.3" r="1.8"/>
		<circle class="st1" cx="32.5" cy="122.3" r="1.8"/>
		<circle class="st1" cx="36.8" cy="122.3" r="1.8"/>
		<circle class="st1" cx="41.2" cy="122.3" r="1.8"/>
		<circle class="st1" cx="45.5" cy="122.3" r="1.8"/>
		<circle class="st1" cx="49.8" cy="122.3" r="1.8"/>
		<circle class="st1" cx="54.1" cy="122.3" r="1.8"/>
		<circle class="st1" cx="58.5" cy="122.3" r="1.8"/>
		<circle class="st1" cx="62.8" cy="122.3" r="1.8"/>
		<circle class="st1" cx="67.1" cy="122.3" r="1.8"/>
		<circle class="st1" cx="71.5" cy="122.3" r="1.8"/>
		<circle class="st1" cx="75.8" cy="122.3" r="1.8"/>
		<circle class="st1" cx="80.1" cy="122.3" r="1.8"/>
		<circle class="st1" cx="84.4" cy="122.3" r="1.8"/>
		<circle class="st1" cx="88.8" cy="122.3" r="1.8"/>
		<circle class="st1" cx="93.1" cy="122.3" r="1.8"/>
		<text transform="matrix(1 0 0 1 4.3829 123.3887)" class="st1 st2 st3">00</text>
		<text transform="matrix(1 0 0 1 96.193 123.3887)" class="st1 st2 st3">00</text>
	</g>
	<g>
		<circle class="st1" cx="10.9" cy="116.4" r="1.8"/>
		<circle class="st1" cx="15.2" cy="116.4" r="1.8"/>
		<circle class="st1" cx="19.5" cy="116.4" r="1.8"/>
		<circle class="st1" cx="23.9" cy="116.4" r="1.8"/>
		<circle class="st1" cx="28.2" cy="116.4" r="1.8"/>
		<circle class="st1" cx="32.5" cy="116.4" r="1.8"/>
		<circle class="st1" cx="36.8" cy="116.4" r="1.8"/>
		<circle class="st1" cx="41.2" cy="116.4" r="1.8"/>
		<circle class="st1" cx="45.5" cy="116.4" r="1.8"/>
		<circle class="st1" cx="49.8" cy="116.4" r="1.8"/>
		<circle class="st1" cx="54.1" cy="116.4" r="1.8"/>
		<circle class="st1" cx="58.5" cy="116.4" r="1.8"/>
		<circle class="st1" cx="62.8" cy="116.4" r="1.8"/>
		<circle class="st1" cx="67.1" cy="116.4" r="1.8"/>
		<circle class="st1" cx="71.5" cy="116.4" r="1.8"/>
		<circle class="st1" cx="75.8" cy="116.4" r="1.8"/>
		<circle class="st1" cx="80.1" cy="116.4" r="1.8"/>
		<circle class="st1" cx="84.4" cy="116.4" r="1.8"/>
		<circle class="st1" cx="88.8" cy="116.4" r="1.8"/>
		<circle class="st1" cx="93.1" cy="116.4" r="1.8"/>
		<circle class="st1" cx="97.4" cy="116.4" r="1.8"/>
		<circle class="st1" cx="101.8" cy="116.4" r="1.8"/>
		<circle class="st1" cx="106.1" cy="116.4" r="1.8"/>
		<text transform="matrix(1 0 0 1 4.3829 117.4587)" class="st1 st2 st3">00</text>
		<text transform="matrix(1 0 0 1 109.183 117.4587)" class="st1 st2 st3">00</text>
	</g>
	<g>
		<circle class="st1" cx="10.9" cy="110.4" r="1.8"/>
		<circle class="st1" cx="15.2" cy="110.4" r="1.8"/>
		<circle class="st1" cx="19.5" cy="110.4" r="1.8"/>
		<circle class="st1" cx="23.9" cy="110.4" r="1.8"/>
		<circle class="st1" cx="28.2" cy="110.4" r="1.8"/>
		<circle class="st1" cx="32.5" cy="110.4" r="1.8"/>
		<circle class="st1" cx="36.8" cy="110.4" r="1.8"/>
		<circle class="st1" cx="41.2" cy="110.4" r="1.8"/>
		<circle class="st1" cx="45.5" cy="110.4" r="1.8"/>
		<circle class="st1" cx="49.8" cy="110.4" r="1.8"/>
		<circle class="st1" cx="54.1" cy="110.4" r="1.8"/>
		<circle class="st1" cx="58.5" cy="110.4" r="1.8"/>
		<circle class="st1" cx="62.8" cy="110.4" r="1.8"/>
		<circle class="st1" cx="67.1" cy="110.4" r="1.8"/>
		<circle class="st1" cx="71.5" cy="110.4" r="1.8"/>
		<circle class="st1" cx="75.8" cy="110.4" r="1.8"/>
		<circle class="st1" cx="80.1" cy="110.4" r="1.8"/>
		<circle class="st1" cx="84.4" cy="110.4" r="1.8"/>
		<circle class="st1" cx="88.8" cy="110.4" r="1.8"/>
		<circle class="st1" cx="93.1" cy="110.4" r="1.8"/>
		<circle class="st1" cx="97.4" cy="110.4" r="1.8"/>
		<circle class="st1" cx="101.8" cy="110.4" r="1.8"/>
		<circle class="st1" cx="106.1" cy="110.4" r="1.8"/>
		<circle class="st1" cx="110.4" cy="110.4" r="1.8"/>
		<circle class="st1" cx="114.8" cy="110.4" r="1.8"/>
		<circle class="st1" cx="119.1" cy="110.4" r="1.8"/>
		<text transform="matrix(1 0 0 1 4.3829 111.5288)" class="st1 st2 st3">00</text>
		<text transform="matrix(1 0 0 1 122.183 111.5288)" class="st1 st2 st3">00</text>
	</g>
	<g>
		<circle class="st1" cx="10.9" cy="104.5" r="1.8"/>
		<circle class="st1" cx="15.2" cy="104.5" r="1.8"/>
		<circle class="st1" cx="19.5" cy="104.5" r="1.8"/>
		<circle class="st1" cx="23.9" cy="104.5" r="1.8"/>
		<circle class="st1" cx="28.2" cy="104.5" r="1.8"/>
		<circle class="st1" cx="32.5" cy="104.5" r="1.8"/>
		<circle class="st1" cx="36.8" cy="104.5" r="1.8"/>
		<circle class="st1" cx="41.2" cy="104.5" r="1.8"/>
		<circle class="st1" cx="45.5" cy="104.5" r="1.8"/>
		<circle class="st1" cx="49.8" cy="104.5" r="1.8"/>
		<circle class="st1" cx="54.1" cy="104.5" r="1.8"/>
		<circle class="st1" cx="58.5" cy="104.5" r="1.8"/>
		<circle class="st1" cx="62.8" cy="104.5" r="1.8"/>
		<circle class="st1" cx="67.1" cy="104.5" r="1.8"/>
		<circle class="st1" cx="71.5" cy="104.5" r="1.8"/>
		<circle class="st1" cx="75.8" cy="104.5" r="1.8"/>
		<circle class="st1" cx="80.1" cy="104.5" r="1.8"/>
		<circle class="st1" cx="84.4" cy="104.5" r="1.8"/>
		<circle class="st1" cx="88.8" cy="104.5" r="1.8"/>
		<circle class="st1" cx="93.1" cy="104.5" r="1.8"/>
		<circle class="st1" cx="97.4" cy="104.5" r="1.8"/>
		<circle class="st1" cx="101.8" cy="104.5" r="1.8"/>
		<circle class="st1" cx="106.1" cy="104.5" r="1.8"/>
		<circle class="st1" cx="110.4" cy="104.5" r="1.8"/>
		<circle class="st1" cx="114.8" cy="104.5" r="1.8"/>
		<circle class="st1" cx="119.1" cy="104.5" r="1.8"/>
		<text transform="matrix(1 0 0 1 4.3829 105.5989)" class="st1 st2 st3">00</text>
		<text transform="matrix(1 0 0 1 122.183 105.5989)" class="st1 st2 st3">00</text>
	</g>
	<g>
		<circle class="st1" cx="10.9" cy="98.6" r="1.8"/>
		<circle class="st1" cx="15.2" cy="98.6" r="1.8"/>
		<circle class="st1" cx="19.5" cy="98.6" r="1.8"/>
		<circle class="st1" cx="23.9" cy="98.6" r="1.8"/>
		<circle class="st1" cx="28.2" cy="98.6" r="1.8"/>
		<circle class="st1" cx="32.5" cy="98.6" r="1.8"/>
		<circle class="st1" cx="36.8" cy="98.6" r="1.8"/>
		<circle class="st1" cx="41.2" cy="98.6" r="1.8"/>
		<circle class="st1" cx="45.5" cy="98.6" r="1.8"/>
		<circle class="st1" cx="49.8" cy="98.6" r="1.8"/>
		<circle class="st1" cx="54.1" cy="98.6" r="1.8"/>
		<circle class="st1" cx="58.5" cy="98.6" r="1.8"/>
		<circle class="st1" cx="62.8" cy="98.6" r="1.8"/>
		<circle class="st1" cx="67.1" cy="98.6" r="1.8"/>
		<circle class="st1" cx="71.5" cy="98.6" r="1.8"/>
		<circle class="st1" cx="75.8" cy="98.6" r="1.8"/>
		<circle class="st1" cx="80.1" cy="98.6" r="1.8"/>
		<circle class="st1" cx="84.4" cy="98.6" r="1.8"/>
		<circle class="st1" cx="88.8" cy="98.6" r="1.8"/>
		<circle class="st1" cx="93.1" cy="98.6" r="1.8"/>
		<circle class="st1" cx="97.4" cy="98.6" r="1.8"/>
		<circle class="st1" cx="101.8" cy="98.6" r="1.8"/>
		<circle class="st1" cx="106.1" cy="98.6" r="1.8"/>
		<circle class="st1" cx="110.4" cy="98.6" r="1.8"/>
		<circle class="st1" cx="114.8" cy="98.6" r="1.8"/>
		<circle class="st1" cx="119.1" cy="98.6" r="1.8"/>
		<text transform="matrix(1 0 0 1 4.3829 99.6689)" class="st1 st2 st3">00</text>
		<text transform="matrix(1 0 0 1 122.183 99.6689)" class="st1 st2 st3">00</text>
	</g>
	<g>
		<circle class="st1" cx="10.9" cy="92.7" r="1.8"/>
		<circle class="st1" cx="15.2" cy="92.7" r="1.8"/>
		<circle class="st1" cx="19.5" cy="92.7" r="1.8"/>
		<circle class="st1" cx="23.9" cy="92.7" r="1.8"/>
		<circle class="st1" cx="28.2" cy="92.7" r="1.8"/>
		<circle class="st1" cx="32.5" cy="92.7" r="1.8"/>
		<circle class="st1" cx="36.8" cy="92.7" r="1.8"/>
		<circle class="st1" cx="41.2" cy="92.7" r="1.8"/>
		<circle class="st1" cx="45.5" cy="92.7" r="1.8"/>
		<circle class="st1" cx="49.8" cy="92.7" r="1.8"/>
		<circle class="st1" cx="54.1" cy="92.7" r="1.8"/>
		<circle class="st1" cx="58.5" cy="92.7" r="1.8"/>
		<circle class="st1" cx="62.8" cy="92.7" r="1.8"/>
		<circle class="st1" cx="67.1" cy="92.7" r="1.8"/>
		<circle class="st1" cx="71.5" cy="92.7" r="1.8"/>
		<circle class="st1" cx="75.8" cy="92.7" r="1.8"/>
		<circle class="st1" cx="80.1" cy="92.7" r="1.8"/>
		<circle class="st1" cx="84.4" cy="92.7" r="1.8"/>
		<circle class="st1" cx="88.8" cy="92.7" r="1.8"/>
		<circle class="st1" cx="93.1" cy="92.7" r="1.8"/>
		<circle class="st1" cx="97.4" cy="92.7" r="1.8"/>
		<circle class="st1" cx="101.8" cy="92.7" r="1.8"/>
		<circle class="st1" cx="106.1" cy="92.7" r="1.8"/>
		<circle class="st1" cx="110.4" cy="92.7" r="1.8"/>
		<circle class="st1" cx="114.8" cy="92.7" r="1.8"/>
		<circle class="st1" cx="119.1" cy="92.7" r="1.8"/>
		<text transform="matrix(1 0 0 1 4.3829 93.739)" class="st1 st2 st3">00</text>
		<text transform="matrix(1 0 0 1 122.183 93.739)" class="st1 st2 st3">00</text>
	</g>
	<g>
		<circle class="st1" cx="10.9" cy="86.7" r="1.8"/>
		<circle class="st1" cx="15.2" cy="86.7" r="1.8"/>
		<circle class="st1" cx="19.5" cy="86.7" r="1.8"/>
		<circle class="st1" cx="23.9" cy="86.7" r="1.8"/>
		<circle class="st1" cx="28.2" cy="86.7" r="1.8"/>
		<circle class="st1" cx="32.5" cy="86.7" r="1.8"/>
		<circle class="st1" cx="36.8" cy="86.7" r="1.8"/>
		<circle class="st1" cx="41.2" cy="86.7" r="1.8"/>
		<circle class="st1" cx="45.5" cy="86.7" r="1.8"/>
		<circle class="st1" cx="49.8" cy="86.7" r="1.8"/>
		<circle class="st1" cx="54.1" cy="86.7" r="1.8"/>
		<circle class="st1" cx="58.5" cy="86.7" r="1.8"/>
		<circle class="st1" cx="62.8" cy="86.7" r="1.8"/>
		<circle class="st1" cx="67.1" cy="86.7" r="1.8"/>
		<circle class="st1" cx="71.5" cy="86.7" r="1.8"/>
		<circle class="st1" cx="75.8" cy="86.7" r="1.8"/>
		<circle class="st1" cx="80.1" cy="86.7" r="1.8"/>
		<circle class="st1" cx="84.4" cy="86.7" r="1.8"/>
		<circle class="st1" cx="88.8" cy="86.7" r="1.8"/>
		<circle class="st1" cx="93.1" cy="86.7" r="1.8"/>
		<circle class="st1" cx="97.4" cy="86.7" r="1.8"/>
		<circle class="st1" cx="101.8" cy="86.7" r="1.8"/>
		<circle class="st1" cx="106.1" cy="86.7" r="1.8"/>
		<circle class="st1" cx="110.4" cy="86.7" r="1.8"/>
		<circle class="st1" cx="114.8" cy="86.7" r="1.8"/>
		<circle class="st1" cx="119.1" cy="86.7" r="1.8"/>
		<text transform="matrix(1 0 0 1 4.3829 87.8091)" class="st1 st2 st3">00</text>
		<text transform="matrix(1 0 0 1 122.183 87.8091)" class="st1 st2 st3">00</text>
	</g>
	<g>
		<circle class="st1" cx="10.9" cy="80.8" r="1.8"/>
		<circle class="st1" cx="15.2" cy="80.8" r="1.8"/>
		<circle class="st1" cx="19.5" cy="80.8" r="1.8"/>
		<circle class="st1" cx="23.9" cy="80.8" r="1.8"/>
		<circle class="st1" cx="28.2" cy="80.8" r="1.8"/>
		<circle class="st1" cx="32.5" cy="80.8" r="1.8"/>
		<circle class="st1" cx="36.8" cy="80.8" r="1.8"/>
		<circle class="st1" cx="41.2" cy="80.8" r="1.8"/>
		<circle class="st1" cx="45.5" cy="80.8" r="1.8"/>
		<circle class="st1" cx="49.8" cy="80.8" r="1.8"/>
		<circle class="st1" cx="54.1" cy="80.8" r="1.8"/>
		<circle class="st1" cx="58.5" cy="80.8" r="1.8"/>
		<circle class="st1" cx="62.8" cy="80.8" r="1.8"/>
		<circle class="st1" cx="67.1" cy="80.8" r="1.8"/>
		<circle class="st1" cx="71.5" cy="80.8" r="1.8"/>
		<circle class="st1" cx="75.8" cy="80.8" r="1.8"/>
		<circle class="st1" cx="80.1" cy="80.8" r="1.8"/>
		<circle class="st1" cx="84.4" cy="80.8" r="1.8"/>
		<circle class="st1" cx="88.8" cy="80.8" r="1.8"/>
		<circle class="st1" cx="93.1" cy="80.8" r="1.8"/>
		<circle class="st1" cx="97.4" cy="80.8" r="1.8"/>
		<circle class="st1" cx="101.8" cy="80.8" r="1.8"/>
		<circle class="st1" cx="106.1" cy="80.8" r="1.8"/>
		<circle class="st1" cx="110.4" cy="80.8" r="1.8"/>
		<circle class="st1" cx="114.8" cy="80.8" r="1.8"/>
		<circle class="st1" cx="119.1" cy="80.8" r="1.8"/>
		<text transform="matrix(1 0 0 1 4.3829 81.8792)" class="st1 st2 st3">00</text>
		<text transform="matrix(1 0 0 1 122.183 81.8792)" class="st1 st2 st3">00</text>
	</g>
	<g>
		<circle class="st1" cx="10.9" cy="74.9" r="1.8"/>
		<circle class="st1" cx="15.2" cy="74.9" r="1.8"/>
		<circle class="st1" cx="19.5" cy="74.9" r="1.8"/>
		<circle class="st1" cx="23.9" cy="74.9" r="1.8"/>
		<circle class="st1" cx="28.2" cy="74.9" r="1.8"/>
		<circle class="st1" cx="32.5" cy="74.9" r="1.8"/>
		<circle class="st1" cx="36.8" cy="74.9" r="1.8"/>
		<circle class="st1" cx="41.2" cy="74.9" r="1.8"/>
		<circle class="st1" cx="45.5" cy="74.9" r="1.8"/>
		<circle class="st1" cx="49.8" cy="74.9" r="1.8"/>
		<circle class="st1" cx="54.1" cy="74.9" r="1.8"/>
		<circle class="st1" cx="58.5" cy="74.9" r="1.8"/>
		<circle class="st1" cx="62.8" cy="74.9" r="1.8"/>
		<circle class="st1" cx="67.1" cy="74.9" r="1.8"/>
		<circle class="st1" cx="71.5" cy="74.9" r="1.8"/>
		<circle class="st1" cx="75.8" cy="74.9" r="1.8"/>
		<circle class="st1" cx="80.1" cy="74.9" r="1.8"/>
		<circle class="st1" cx="84.4" cy="74.9" r="1.8"/>
		<circle class="st1" cx="88.8" cy="74.9" r="1.8"/>
		<circle class="st1" cx="93.1" cy="74.9" r="1.8"/>
		<circle class="st1" cx="97.4" cy="74.9" r="1.8"/>
		<circle class="st1" cx="101.8" cy="74.9" r="1.8"/>
		<circle class="st1" cx="106.1" cy="74.9" r="1.8"/>
		<circle class="st1" cx="110.4" cy="74.9" r="1.8"/>
		<circle class="st1" cx="114.8" cy="74.9" r="1.8"/>
		<circle class="st1" cx="119.1" cy="74.9" r="1.8"/>
		<text transform="matrix(1 0 0 1 4.3829 75.9492)" class="st1 st2 st3">00</text>
		<text transform="matrix(1 0 0 1 122.183 75.9492)" class="st1 st2 st3">00</text>
	</g>
	<g>
		<circle class="st1" cx="10.9" cy="68.9" r="1.8"/>
		<circle class="st1" cx="15.2" cy="68.9" r="1.8"/>
		<circle class="st1" cx="19.5" cy="68.9" r="1.8"/>
		<circle class="st1" cx="23.9" cy="68.9" r="1.8"/>
		<circle class="st1" cx="28.2" cy="68.9" r="1.8"/>
		<circle class="st1" cx="32.5" cy="68.9" r="1.8"/>
		<circle class="st1" cx="36.8" cy="68.9" r="1.8"/>
		<circle class="st1" cx="41.2" cy="68.9" r="1.8"/>
		<circle class="st1" cx="45.5" cy="68.9" r="1.8"/>
		<circle class="st1" cx="49.8" cy="68.9" r="1.8"/>
		<circle class="st1" cx="54.1" cy="68.9" r="1.8"/>
		<circle class="st1" cx="58.5" cy="68.9" r="1.8"/>
		<circle class="st1" cx="62.8" cy="68.9" r="1.8"/>
		<circle class="st1" cx="67.1" cy="68.9" r="1.8"/>
		<circle class="st1" cx="71.5" cy="68.9" r="1.8"/>
		<circle class="st1" cx="75.8" cy="68.9" r="1.8"/>
		<circle class="st1" cx="80.1" cy="68.9" r="1.8"/>
		<circle class="st1" cx="84.4" cy="68.9" r="1.8"/>
		<circle class="st1" cx="88.8" cy="68.9" r="1.8"/>
		<circle class="st1" cx="93.1" cy="68.9" r="1.8"/>
		<circle class="st1" cx="97.4" cy="68.9" r="1.8"/>
		<circle class="st1" cx="101.8" cy="68.9" r="1.8"/>
		<circle class="st1" cx="106.1" cy="68.9" r="1.8"/>
		<circle class="st1" cx="110.4" cy="68.9" r="1.8"/>
		<circle class="st1" cx="114.8" cy="68.9" r="1.8"/>
		<circle class="st1" cx="119.1" cy="68.9" r="1.8"/>
		<text transform="matrix(1 0 0 1 4.3829 70.0193)" class="st1 st2 st3">00</text>
		<text transform="matrix(1 0 0 1 122.183 70.0193)" class="st1 st2 st3">00</text>
	</g>
	<g>
		<circle class="st1" cx="19.6" cy="63" r="1.9"/>
		<circle class="st1" cx="23.9" cy="63" r="1.9"/>
		<circle class="st1" cx="28.2" cy="63" r="1.9"/>
		<circle class="st1" cx="32.5" cy="63" r="1.9"/>
		<circle class="st1" cx="36.8" cy="63" r="1.8"/>
		<circle class="st1" cx="41.2" cy="63" r="1.8"/>
		<circle class="st1" cx="45.5" cy="63" r="1.8"/>
		<circle class="st1" cx="49.8" cy="63" r="1.8"/>
		<circle class="st1" cx="54.1" cy="63" r="1.8"/>
		<circle class="st1" cx="58.5" cy="63" r="1.8"/>
		<circle class="st1" cx="62.8" cy="63" r="1.9"/>
		<circle class="st1" cx="67.1" cy="63" r="1.8"/>
		<circle class="st1" cx="71.5" cy="63" r="1.8"/>
		<circle class="st1" cx="75.8" cy="63" r="1.8"/>
		<circle class="st1" cx="80.1" cy="63" r="1.8"/>
		<circle class="st1" cx="84.4" cy="63" r="1.8"/>
		<circle class="st1" cx="88.8" cy="63" r="1.8"/>
		<circle class="st1" cx="93.1" cy="63" r="1.8"/>
		<circle class="st1" cx="97.4" cy="63" r="1.8"/>
		<circle class="st1" cx="101.8" cy="63" r="1.8"/>
		<circle class="st1" cx="106.1" cy="63" r="1.8"/>
		<circle class="st1" cx="110.4" cy="63" r="1.8"/>
		<text transform="matrix(1 0 0 1 13.0216 64.0894)" class="st1 st2 st3">00</text>
		<text transform="matrix(1 0 0 1 113.5129 64.0894)" class="st1 st2 st3">00</text>
	</g>
	<g>
		<circle class="st1" cx="19.6" cy="57.1" r="1.8"/>
		<circle class="st1" cx="23.9" cy="57.1" r="1.8"/>
		<circle class="st1" cx="28.2" cy="57.1" r="1.8"/>
		<circle class="st1" cx="32.5" cy="57.1" r="1.8"/>
		<circle class="st1" cx="36.8" cy="57.1" r="1.8"/>
		<circle class="st1" cx="41.2" cy="57.1" r="1.8"/>
		<circle class="st1" cx="45.5" cy="57.1" r="1.8"/>
		<circle class="st1" cx="49.8" cy="57.1" r="1.8"/>
		<circle class="st1" cx="54.1" cy="57.1" r="1.8"/>
		<circle class="st1" cx="58.5" cy="57.1" r="1.8"/>
		<circle class="st1" cx="62.8" cy="57.1" r="1.8"/>
		<circle class="st1" cx="67.1" cy="57.1" r="1.8"/>
		<circle class="st1" cx="71.5" cy="57.1" r="1.8"/>
		<circle class="st1" cx="75.8" cy="57.1" r="1.8"/>
		<circle class="st1" cx="80.1" cy="57.1" r="1.8"/>
		<circle class="st1" cx="84.4" cy="57.1" r="1.8"/>
		<circle class="st1" cx="88.8" cy="57.1" r="1.8"/>
		<circle class="st1" cx="93.1" cy="57.1" r="1.8"/>
		<circle class="st1" cx="97.4" cy="57.1" r="1.8"/>
		<circle class="st1" cx="101.8" cy="57.1" r="1.8"/>
		<circle class="st1" cx="106.1" cy="57.1" r="1.8"/>
		<circle class="st1" cx="110.4" cy="57.1" r="1.8"/>
		<text transform="matrix(1 0 0 1 13.0216 58.1594)" class="st1 st2 st3">00</text>
		<text transform="matrix(1 0 0 1 113.5129 58.1594)" class="st1 st2 st3">00</text>
	</g>
	<g>
		<circle class="st1" cx="19.6" cy="51.1" r="1.8"/>
		<circle class="st1" cx="23.9" cy="51.1" r="1.8"/>
		<circle class="st1" cx="28.2" cy="51.1" r="1.8"/>
		<circle class="st1" cx="32.5" cy="51.1" r="1.8"/>
		<circle class="st1" cx="36.8" cy="51.1" r="1.8"/>
		<circle class="st1" cx="41.2" cy="51.1" r="1.8"/>
		<circle class="st1" cx="45.5" cy="51.1" r="1.8"/>
		<circle class="st1" cx="49.8" cy="51.1" r="1.8"/>
		<circle class="st1" cx="54.1" cy="51.1" r="1.8"/>
		<circle class="st1" cx="58.5" cy="51.1" r="1.8"/>
		<circle class="st1" cx="62.8" cy="51.1" r="1.8"/>
		<circle class="st1" cx="67.1" cy="51.1" r="1.8"/>
		<circle class="st1" cx="71.5" cy="51.1" r="1.8"/>
		<circle class="st1" cx="75.8" cy="51.1" r="1.8"/>
		<circle class="st1" cx="80.1" cy="51.1" r="1.8"/>
		<circle class="st1" cx="84.4" cy="51.1" r="1.8"/>
		<circle class="st1" cx="88.8" cy="51.1" r="1.8"/>
		<circle class="st1" cx="93.1" cy="51.1" r="1.8"/>
		<circle class="st1" cx="97.4" cy="51.1" r="1.8"/>
		<circle class="st1" cx="101.8" cy="51.1" r="1.8"/>
		<circle class="st1" cx="106.1" cy="51.1" r="1.8"/>
		<circle class="st1" cx="110.4" cy="51.1" r="1.8"/>
		<text transform="matrix(1 0 0 1 13.0216 52.2295)" class="st1 st2 st3">00</text>
		<text transform="matrix(1 0 0 1 113.5129 52.2295)" class="st1 st2 st3">00</text>
	</g>
	<g>
		<circle class="st1" cx="19.6" cy="45.2" r="1.8"/>
		<circle class="st1" cx="23.9" cy="45.2" r="1.8"/>
		<circle class="st1" cx="28.2" cy="45.2" r="1.8"/>
		<circle class="st1" cx="32.5" cy="45.2" r="1.8"/>
		<circle class="st1" cx="36.8" cy="45.2" r="1.8"/>
		<circle class="st1" cx="41.2" cy="45.2" r="1.8"/>
		<circle class="st1" cx="45.5" cy="45.2" r="1.8"/>
		<circle class="st1" cx="49.8" cy="45.2" r="1.8"/>
		<circle class="st1" cx="54.1" cy="45.2" r="1.8"/>
		<circle class="st1" cx="58.5" cy="45.2" r="1.8"/>
		<circle class="st1" cx="62.8" cy="45.2" r="1.8"/>
		<circle class="st1" cx="67.1" cy="45.2" r="1.8"/>
		<circle class="st1" cx="71.5" cy="45.2" r="1.8"/>
		<circle class="st1" cx="75.8" cy="45.2" r="1.8"/>
		<circle class="st1" cx="80.1" cy="45.2" r="1.8"/>
		<circle class="st1" cx="84.4" cy="45.2" r="1.8"/>
		<circle class="st1" cx="88.8" cy="45.2" r="1.8"/>
		<circle class="st1" cx="93.1" cy="45.2" r="1.8"/>
		<circle class="st1" cx="97.4" cy="45.2" r="1.8"/>
		<circle class="st1" cx="101.8" cy="45.2" r="1.8"/>
		<circle class="st1" cx="106.1" cy="45.2" r="1.8"/>
		<circle class="st1" cx="110.4" cy="45.2" r="1.8"/>
		<text transform="matrix(1 0 0 1 13.0216 46.2996)" class="st1 st2 st3">00</text>
		<text transform="matrix(1 0 0 1 113.5129 46.2996)" class="st1 st2 st3">00</text>
	</g>
	<g>
		<circle class="st1" cx="19.6" cy="39.3" r="1.8"/>
		<circle class="st1" cx="23.9" cy="39.3" r="1.8"/>
		<circle class="st1" cx="28.2" cy="39.3" r="1.8"/>
		<circle class="st1" cx="32.5" cy="39.3" r="1.8"/>
		<circle class="st1" cx="36.8" cy="39.3" r="1.8"/>
		<circle class="st1" cx="41.2" cy="39.3" r="1.8"/>
		<circle class="st1" cx="45.5" cy="39.3" r="1.8"/>
		<circle class="st1" cx="49.8" cy="39.3" r="1.8"/>
		<circle class="st1" cx="54.1" cy="39.3" r="1.8"/>
		<circle class="st1" cx="58.5" cy="39.3" r="1.8"/>
		<circle class="st1" cx="62.8" cy="39.3" r="1.8"/>
		<circle class="st1" cx="67.1" cy="39.3" r="1.8"/>
		<circle class="st1" cx="71.5" cy="39.3" r="1.8"/>
		<circle class="st1" cx="75.8" cy="39.3" r="1.8"/>
		<circle class="st1" cx="80.1" cy="39.3" r="1.8"/>
		<circle class="st1" cx="84.4" cy="39.3" r="1.8"/>
		<circle class="st1" cx="88.8" cy="39.3" r="1.8"/>
		<circle class="st1" cx="93.1" cy="39.3" r="1.8"/>
		<circle class="st1" cx="97.4" cy="39.3" r="1.8"/>
		<circle class="st1" cx="101.8" cy="39.3" r="1.8"/>
		<circle class="st1" cx="106.1" cy="39.3" r="1.8"/>
		<circle class="st1" cx="110.4" cy="39.3" r="1.8"/>
		<text transform="matrix(1 0 0 1 13.0216 40.3696)" class="st1 st2 st3">00</text>
		<text transform="matrix(1 0 0 1 113.5129 40.3696)" class="st1 st2 st3">00</text>
	</g>
	<g>
		<circle class="st1" cx="10.9" cy="33.3" r="1.8"/>
		<circle class="st1" cx="15.2" cy="33.3" r="1.8"/>
		<circle class="st1" cx="19.5" cy="33.3" r="1.8"/>
		<circle class="st1" cx="23.9" cy="33.3" r="1.8"/>
		<circle class="st1" cx="28.2" cy="33.3" r="1.8"/>
		<circle class="st1" cx="32.5" cy="33.3" r="1.8"/>
		<circle class="st1" cx="36.8" cy="33.3" r="1.8"/>
		<circle class="st1" cx="41.2" cy="33.3" r="1.8"/>
		<circle class="st1" cx="45.5" cy="33.3" r="1.8"/>
		<circle class="st1" cx="49.8" cy="33.3" r="1.8"/>
		<circle class="st1" cx="54.1" cy="33.3" r="1.8"/>
		<circle class="st1" cx="58.5" cy="33.3" r="1.8"/>
		<circle class="st1" cx="62.8" cy="33.3" r="1.9"/>
		<circle class="st1" cx="67.1" cy="33.3" r="1.8"/>
		<circle class="st1" cx="71.5" cy="33.3" r="1.8"/>
		<circle class="st1" cx="75.8" cy="33.3" r="1.8"/>
		<circle class="st1" cx="80.1" cy="33.3" r="1.8"/>
		<circle class="st1" cx="84.4" cy="33.3" r="1.8"/>
		<circle class="st1" cx="88.8" cy="33.3" r="1.8"/>
		<circle class="st1" cx="93.1" cy="33.3" r="1.8"/>
		<circle class="st1" cx="97.4" cy="33.3" r="1.8"/>
		<circle class="st1" cx="101.8" cy="33.3" r="1.8"/>
		<circle class="st1" cx="106.1" cy="33.3" r="1.8"/>
		<circle class="st1" cx="110.4" cy="33.3" r="1.8"/>
		<circle class="st1" cx="114.8" cy="33.3" r="1.8"/>
		<circle class="st1" cx="119.1" cy="33.3" r="1.8"/>
		<text transform="matrix(1 0 0 1 4.3829 34.4397)" class="st1 st2 st3">00</text>
		<text transform="matrix(1 0 0 1 122.183 34.4397)" class="st1 st2 st3">00</text>
	</g>
	<g>
		<circle class="st1" cx="10.9" cy="27.4" r="1.9"/>
		<circle class="st1" cx="15.2" cy="27.4" r="1.9"/>
		<circle class="st1" cx="19.5" cy="27.4" r="1.9"/>
		<circle class="st1" cx="23.9" cy="27.4" r="1.9"/>
		<circle class="st1" cx="28.2" cy="27.4" r="1.9"/>
		<circle class="st1" cx="32.5" cy="27.4" r="1.8"/>
		<circle class="st1" cx="36.8" cy="27.4" r="1.8"/>
		<circle class="st1" cx="41.2" cy="27.4" r="1.8"/>
		<circle class="st1" cx="45.5" cy="27.4" r="1.8"/>
		<circle class="st1" cx="49.8" cy="27.4" r="1.8"/>
		<circle class="st1" cx="54.1" cy="27.4" r="1.8"/>
		<circle class="st1" cx="58.5" cy="27.4" r="1.8"/>
		<circle class="st1" cx="62.8" cy="27.4" r="1.9"/>
		<circle class="st1" cx="67.1" cy="27.4" r="1.8"/>
		<circle class="st1" cx="71.5" cy="27.4" r="1.8"/>
		<circle class="st1" cx="75.8" cy="27.4" r="1.8"/>
		<circle class="st1" cx="80.1" cy="27.4" r="1.8"/>
		<circle class="st1" cx="84.4" cy="27.4" r="1.8"/>
		<circle class="st1" cx="88.8" cy="27.4" r="1.8"/>
		<circle class="st1" cx="93.1" cy="27.4" r="1.8"/>
		<circle class="st1" cx="97.4" cy="27.4" r="1.8"/>
		<circle class="st1" cx="101.8" cy="27.4" r="1.8"/>
		<circle class="st1" cx="106.1" cy="27.4" r="1.8"/>
		<circle class="st1" cx="110.4" cy="27.4" r="1.8"/>
		<circle class="st1" cx="114.8" cy="27.4" r="1.8"/>
		<circle class="st1" cx="119.1" cy="27.4" r="1.8"/>
		<text transform="matrix(1 0 0 1 4.3829 28.5098)" class="st1 st2 st3">00</text>
		<text transform="matrix(1 0 0 1 122.183 28.5098)" class="st1 st2 st3">00</text>
	</g>
	<g>
		<circle class="st1" cx="10.9" cy="21.5" r="1.9"/>
		<circle class="st1" cx="15.2" cy="21.5" r="1.9"/>
		<circle class="st1" cx="19.5" cy="21.5" r="1.9"/>
		<circle class="st1" cx="23.9" cy="21.5" r="1.9"/>
		<circle class="st1" cx="28.2" cy="21.5" r="1.9"/>
		<circle class="st1" cx="32.5" cy="21.5" r="1.8"/>
		<circle class="st1" cx="36.8" cy="21.5" r="1.8"/>
		<circle class="st1" cx="41.2" cy="21.5" r="1.8"/>
		<circle class="st1" cx="45.5" cy="21.5" r="1.8"/>
		<circle class="st1" cx="49.8" cy="21.5" r="1.8"/>
		<circle class="st1" cx="54.1" cy="21.5" r="1.8"/>
		<circle class="st1" cx="58.5" cy="21.5" r="1.8"/>
		<circle class="st1" cx="62.8" cy="21.5" r="1.9"/>
		<circle class="st1" cx="67.1" cy="21.5" r="1.8"/>
		<circle class="st1" cx="71.5" cy="21.5" r="1.8"/>
		<circle class="st1" cx="75.8" cy="21.5" r="1.8"/>
		<circle class="st1" cx="80.1" cy="21.5" r="1.8"/>
		<circle class="st1" cx="84.4" cy="21.5" r="1.8"/>
		<circle class="st1" cx="88.8" cy="21.5" r="1.8"/>
		<circle class="st1" cx="93.1" cy="21.5" r="1.8"/>
		<circle class="st1" cx="97.4" cy="21.5" r="1.8"/>
		<circle class="st1" cx="101.8" cy="21.5" r="1.8"/>
		<circle class="st1" cx="106.1" cy="21.5" r="1.8"/>
		<circle class="st1" cx="110.4" cy="21.5" r="1.8"/>
		<circle class="st1" cx="114.8" cy="21.5" r="1.8"/>
		<circle class="st1" cx="119.1" cy="21.5" r="1.8"/>
		<text transform="matrix(1 0 0 1 4.3829 22.5798)" class="st1 st2 st3">00</text>
		<text transform="matrix(1 0 0 1 122.183 22.5798)" class="st1 st2 st3">00</text>
	</g>
	<g>
		<circle class="st1" cx="10.9" cy="15.6" r="1.9"/>
		<circle class="st1" cx="15.2" cy="15.6" r="1.9"/>
		<circle class="st1" cx="19.5" cy="15.6" r="1.9"/>
		<circle class="st1" cx="23.9" cy="15.6" r="1.9"/>
		<circle class="st1" cx="28.2" cy="15.6" r="1.9"/>
		<circle class="st1" cx="32.5" cy="15.6" r="1.8"/>
		<circle class="st1" cx="36.8" cy="15.6" r="1.8"/>
		<circle class="st1" cx="41.2" cy="15.6" r="1.8"/>
		<circle class="st1" cx="45.5" cy="15.6" r="1.8"/>
		<circle class="st1" cx="49.8" cy="15.6" r="1.8"/>
		<circle class="st1" cx="54.1" cy="15.6" r="1.8"/>
		<circle class="st1" cx="58.5" cy="15.6" r="1.8"/>
		<circle class="st1" cx="62.8" cy="15.6" r="1.9"/>
		<circle class="st1" cx="67.1" cy="15.6" r="1.8"/>
		<circle class="st1" cx="71.5" cy="15.6" r="1.8"/>
		<circle class="st1" cx="75.8" cy="15.6" r="1.8"/>
		<circle class="st1" cx="80.1" cy="15.6" r="1.8"/>
		<circle class="st1" cx="84.4" cy="15.6" r="1.8"/>
		<circle class="st1" cx="88.8" cy="15.6" r="1.8"/>
		<circle class="st1" cx="93.1" cy="15.6" r="1.8"/>
		<circle class="st1" cx="97.4" cy="15.6" r="1.8"/>
		<circle class="st1" cx="101.8" cy="15.6" r="1.8"/>
		<circle class="st1" cx="106.1" cy="15.6" r="1.8"/>
		<circle class="st1" cx="110.4" cy="15.6" r="1.8"/>
		<circle class="st1" cx="114.8" cy="15.6" r="1.8"/>
		<circle class="st1" cx="119.1" cy="15.6" r="1.8"/>
		<text transform="matrix(1 0 0 1 4.3829 16.6499)" class="st1 st2 st3">00</text>
		<text transform="matrix(1 0 0 1 122.183 16.6499)" class="st1 st2 st3">00</text>
	</g>
	<g>
		<circle class="st1" cx="10.9" cy="9.6" r="1.9"/>
		<circle class="st1" cx="15.2" cy="9.6" r="1.9"/>
		<circle class="st1" cx="19.5" cy="9.6" r="1.9"/>
		<circle class="st1" cx="23.9" cy="9.6" r="1.9"/>
		<circle class="st1" cx="28.2" cy="9.6" r="1.9"/>
		<circle class="st1" cx="32.5" cy="9.6" r="1.8"/>
		<circle class="st1" cx="36.8" cy="9.6" r="1.8"/>
		<circle class="st1" cx="41.2" cy="9.6" r="1.8"/>
		<circle class="st1" cx="45.5" cy="9.6" r="1.8"/>
		<circle class="st1" cx="49.8" cy="9.6" r="1.8"/>
		<circle class="st1" cx="54.1" cy="9.6" r="1.8"/>
		<circle class="st1" cx="58.5" cy="9.6" r="1.8"/>
		<circle class="st1" cx="62.8" cy="9.6" r="1.9"/>
		<circle class="st1" cx="67.1" cy="9.6" r="1.8"/>
		<circle class="st1" cx="71.5" cy="9.6" r="1.8"/>
		<circle class="st1" cx="75.8" cy="9.6" r="1.8"/>
		<circle class="st1" cx="80.1" cy="9.6" r="1.8"/>
		<circle class="st1" cx="84.4" cy="9.6" r="1.8"/>
		<circle class="st1" cx="88.8" cy="9.6" r="1.8"/>
		<circle class="st1" cx="93.1" cy="9.6" r="1.8"/>
		<circle class="st1" cx="97.4" cy="9.6" r="1.8"/>
		<circle class="st1" cx="101.8" cy="9.6" r="1.8"/>
		<circle class="st1" cx="106.1" cy="9.6" r="1.8"/>
		<circle class="st1" cx="110.4" cy="9.6" r="1.8"/>
		<circle class="st1" cx="114.8" cy="9.6" r="1.8"/>
		<circle class="st1" cx="119.1" cy="9.6" r="1.8"/>
		<text transform="matrix(1 0 0 1 4.3829 10.72)" class="st1 st2 st3">00</text>
		<text transform="matrix(1 0 0 1 122.183 10.72)" class="st1 st2 st3">00</text>
	</g>
</g>
</svg>
