<?xml version="1.0" encoding="utf-8"?>
<!-- Generator: Adobe Illustrator 23.0.1, SVG Export Plug-In . SVG Version: 6.00 Build 0)  -->
<svg version="1.1" id="Layer_1" xmlns="http://www.w3.org/2000/svg" xmlns:xlink="http://www.w3.org/1999/xlink" x="0px" y="0px"
	 viewBox="0 0 64 118" style="enable-background:new 0 0 64 118;" xml:space="preserve">
<style type="text/css">
	.st0{fill:#F1F3F4;stroke:#BCC8CE;stroke-width:0.4;stroke-linecap:round;stroke-miterlimit:10;}
	.st1{fill:#AEBDC4;}
	.st2{font-family:'Roboto-Medium';}
	.st3{font-size:3px;}
</style>
<polygon class="st0" points="0.5,0.4 63.5,0.4 63.5,91.9 0.5,117.6 "/>
<g>
	<g>
		<circle class="st1" cx="11.6" cy="98.4" r="1.8"/>
		<circle class="st1" cx="15.9" cy="98.4" r="1.8"/>
		<circle class="st1" cx="20.2" cy="98.4" r="1.8"/>
		<text transform="matrix(1 0 0 1 5.0331 99.443)" class="st1 st2 st3">00</text>
		<text transform="matrix(1 0 0 1 23.2733 99.4431)" class="st1 st2 st3">00</text>
	</g>
	<g>
		<circle class="st1" cx="11.6" cy="92.4" r="1.8"/>
		<circle class="st1" cx="15.9" cy="92.4" r="1.8"/>
		<circle class="st1" cx="20.2" cy="92.4" r="1.8"/>
		<circle class="st1" cx="24.5" cy="92.4" r="1.8"/>
		<circle class="st1" cx="28.8" cy="92.4" r="1.8"/>
		<circle class="st1" cx="33.2" cy="92.4" r="1.8"/>
		<text transform="matrix(1 0 0 1 5.0331 93.5182)" class="st1 st2 st3">00</text>
		<text transform="matrix(1 0 0 1 36.2333 93.5183)" class="st1 st2 st3">00</text>
	</g>
	<g>
		<circle class="st1" cx="11.6" cy="86.5" r="1.8"/>
		<circle class="st1" cx="15.9" cy="86.5" r="1.8"/>
		<circle class="st1" cx="20.2" cy="86.5" r="1.8"/>
		<circle class="st1" cx="24.5" cy="86.5" r="1.8"/>
		<circle class="st1" cx="28.8" cy="86.5" r="1.8"/>
		<circle class="st1" cx="33.2" cy="86.5" r="1.8"/>
		<circle class="st1" cx="37.5" cy="86.5" r="1.8"/>
		<circle class="st1" cx="41.8" cy="86.5" r="1.8"/>
		<circle class="st1" cx="46.1" cy="86.5" r="1.8"/>
		<circle class="st1" cx="50.5" cy="86.5" r="1.8"/>
		<text transform="matrix(1 0 0 1 5.0331 87.5934)" class="st1 st2 st3">00</text>
		<text transform="matrix(1 0 0 1 53.5332 87.5883)" class="st1 st2 st3">00</text>
	</g>
	<g>
		<circle class="st1" cx="11.6" cy="80.6" r="1.8"/>
		<circle class="st1" cx="15.9" cy="80.6" r="1.8"/>
		<circle class="st1" cx="20.2" cy="80.6" r="1.8"/>
		<circle class="st1" cx="24.5" cy="80.6" r="1.8"/>
		<circle class="st1" cx="28.8" cy="80.6" r="1.8"/>
		<circle class="st1" cx="33.2" cy="80.6" r="1.8"/>
		<circle class="st1" cx="37.5" cy="80.6" r="1.8"/>
		<circle class="st1" cx="41.8" cy="80.6" r="1.8"/>
		<circle class="st1" cx="46.1" cy="80.6" r="1.8"/>
		<circle class="st1" cx="50.5" cy="80.6" r="1.8"/>
		<text transform="matrix(1 0 0 1 5.0331 81.6686)" class="st1 st2 st3">00</text>
		<text transform="matrix(1 0 0 1 53.5332 81.6582)" class="st1 st2 st3">00</text>
	</g>
	<g>
		<circle class="st1" cx="11.6" cy="74.7" r="1.8"/>
		<circle class="st1" cx="15.9" cy="74.7" r="1.8"/>
		<circle class="st1" cx="20.2" cy="74.7" r="1.8"/>
		<circle class="st1" cx="24.5" cy="74.7" r="1.8"/>
		<circle class="st1" cx="28.8" cy="74.7" r="1.8"/>
		<circle class="st1" cx="33.2" cy="74.7" r="1.8"/>
		<circle class="st1" cx="37.5" cy="74.7" r="1.8"/>
		<circle class="st1" cx="41.8" cy="74.7" r="1.8"/>
		<circle class="st1" cx="46.1" cy="74.7" r="1.8"/>
		<circle class="st1" cx="50.5" cy="74.7" r="1.8"/>
		<text transform="matrix(1 0 0 1 5.0331 75.7438)" class="st1 st2 st3">00</text>
		<text transform="matrix(1 0 0 1 53.5332 75.7281)" class="st1 st2 st3">00</text>
	</g>
	<g>
		<circle class="st1" cx="11.6" cy="68.7" r="1.8"/>
		<circle class="st1" cx="15.9" cy="68.7" r="1.8"/>
		<circle class="st1" cx="20.2" cy="68.7" r="1.8"/>
		<circle class="st1" cx="24.5" cy="68.7" r="1.8"/>
		<circle class="st1" cx="28.8" cy="68.7" r="1.8"/>
		<circle class="st1" cx="33.2" cy="68.7" r="1.8"/>
		<circle class="st1" cx="37.5" cy="68.7" r="1.8"/>
		<circle class="st1" cx="41.8" cy="68.7" r="1.8"/>
		<circle class="st1" cx="46.1" cy="68.7" r="1.8"/>
		<circle class="st1" cx="50.5" cy="68.7" r="1.8"/>
		<text transform="matrix(1 0 0 1 5.0331 69.819)" class="st1 st2 st3">00</text>
		<text transform="matrix(1 0 0 1 53.5332 69.7981)" class="st1 st2 st3">00</text>
	</g>
	<g>
		<circle class="st1" cx="20.2" cy="62.8" r="1.9"/>
		<circle class="st1" cx="24.5" cy="62.8" r="1.9"/>
		<circle class="st1" cx="28.8" cy="62.8" r="1.9"/>
		<circle class="st1" cx="33.2" cy="62.8" r="1.9"/>
		<circle class="st1" cx="37.5" cy="62.8" r="1.8"/>
		<circle class="st1" cx="41.8" cy="62.8" r="1.8"/>
		<circle class="st1" cx="46.1" cy="62.8" r="1.8"/>
		<circle class="st1" cx="50.5" cy="62.8" r="1.8"/>
		<text transform="matrix(1 0 0 1 13.6831 63.868)" class="st1 st2 st3">00</text>
		<text transform="matrix(1 0 0 1 53.5332 63.868)" class="st1 st2 st3">00</text>
	</g>
	<g>
		<circle class="st1" cx="20.2" cy="56.9" r="1.8"/>
		<circle class="st1" cx="24.5" cy="56.9" r="1.8"/>
		<circle class="st1" cx="28.8" cy="56.9" r="1.8"/>
		<circle class="st1" cx="33.2" cy="56.9" r="1.8"/>
		<circle class="st1" cx="37.5" cy="56.9" r="1.8"/>
		<circle class="st1" cx="41.8" cy="56.9" r="1.8"/>
		<circle class="st1" cx="46.1" cy="56.9" r="1.8"/>
		<circle class="st1" cx="50.5" cy="56.9" r="1.8"/>
		<text transform="matrix(1 0 0 1 13.6831 57.938)" class="st1 st2 st3">00</text>
		<text transform="matrix(1 0 0 1 53.5332 57.938)" class="st1 st2 st3">00</text>
	</g>
	<g>
		<circle class="st1" cx="20.2" cy="50.9" r="1.8"/>
		<circle class="st1" cx="24.5" cy="50.9" r="1.8"/>
		<circle class="st1" cx="28.8" cy="50.9" r="1.8"/>
		<circle class="st1" cx="33.2" cy="50.9" r="1.8"/>
		<circle class="st1" cx="37.5" cy="50.9" r="1.8"/>
		<circle class="st1" cx="41.8" cy="50.9" r="1.8"/>
		<circle class="st1" cx="46.1" cy="50.9" r="1.8"/>
		<circle class="st1" cx="50.5" cy="50.9" r="1.8"/>
		<text transform="matrix(1 0 0 1 13.6831 52.0079)" class="st1 st2 st3">00</text>
		<text transform="matrix(1 0 0 1 53.5332 52.0079)" class="st1 st2 st3">00</text>
	</g>
	<g>
		<circle class="st1" cx="20.2" cy="45" r="1.8"/>
		<circle class="st1" cx="24.5" cy="45" r="1.8"/>
		<circle class="st1" cx="28.8" cy="45" r="1.8"/>
		<circle class="st1" cx="33.2" cy="45" r="1.8"/>
		<circle class="st1" cx="37.5" cy="45" r="1.8"/>
		<circle class="st1" cx="41.8" cy="45" r="1.8"/>
		<circle class="st1" cx="46.1" cy="45" r="1.8"/>
		<circle class="st1" cx="50.5" cy="45" r="1.8"/>
		<text transform="matrix(1 0 0 1 13.6831 46.0779)" class="st1 st2 st3">00</text>
		<text transform="matrix(1 0 0 1 53.5332 46.0779)" class="st1 st2 st3">00</text>
	</g>
	<g>
		<circle class="st1" cx="20.2" cy="39.1" r="1.8"/>
		<circle class="st1" cx="24.5" cy="39.1" r="1.8"/>
		<circle class="st1" cx="28.8" cy="39.1" r="1.8"/>
		<circle class="st1" cx="33.2" cy="39.1" r="1.8"/>
		<circle class="st1" cx="37.5" cy="39.1" r="1.8"/>
		<circle class="st1" cx="41.8" cy="39.1" r="1.8"/>
		<circle class="st1" cx="46.1" cy="39.1" r="1.8"/>
		<circle class="st1" cx="50.5" cy="39.1" r="1.8"/>
		<text transform="matrix(1 0 0 1 13.6831 40.1478)" class="st1 st2 st3">00</text>
		<text transform="matrix(1 0 0 1 53.5332 40.1478)" class="st1 st2 st3">00</text>
	</g>
	<g>
		<circle class="st1" cx="11.6" cy="33.2" r="1.8"/>
		<circle class="st1" cx="15.9" cy="33.2" r="1.8"/>
		<circle class="st1" cx="20.2" cy="33.2" r="1.8"/>
		<circle class="st1" cx="24.5" cy="33.2" r="1.8"/>
		<circle class="st1" cx="28.8" cy="33.2" r="1.8"/>
		<circle class="st1" cx="33.2" cy="33.2" r="1.8"/>
		<circle class="st1" cx="37.5" cy="33.2" r="1.8"/>
		<circle class="st1" cx="41.8" cy="33.2" r="1.8"/>
		<circle class="st1" cx="46.1" cy="33.2" r="1.8"/>
		<circle class="st1" cx="50.5" cy="33.2" r="1.8"/>
		<text transform="matrix(1 0 0 1 5.0331 34.2178)" class="st1 st2 st3">00</text>
		<text transform="matrix(1 0 0 1 53.5332 34.2178)" class="st1 st2 st3">00</text>
	</g>
	<g>
		<circle class="st1" cx="11.6" cy="27.2" r="1.9"/>
		<circle class="st1" cx="15.9" cy="27.2" r="1.9"/>
		<circle class="st1" cx="20.2" cy="27.2" r="1.9"/>
		<circle class="st1" cx="24.5" cy="27.2" r="1.9"/>
		<circle class="st1" cx="28.8" cy="27.2" r="1.9"/>
		<circle class="st1" cx="33.2" cy="27.2" r="1.8"/>
		<circle class="st1" cx="37.5" cy="27.2" r="1.8"/>
		<circle class="st1" cx="41.8" cy="27.2" r="1.8"/>
		<circle class="st1" cx="46.1" cy="27.2" r="1.8"/>
		<circle class="st1" cx="50.5" cy="27.2" r="1.8"/>
		<text transform="matrix(1 0 0 1 5.0331 28.2877)" class="st1 st2 st3">00</text>
		<text transform="matrix(1 0 0 1 53.5332 28.2877)" class="st1 st2 st3">00</text>
	</g>
	<g>
		<circle class="st1" cx="11.6" cy="21.3" r="1.9"/>
		<circle class="st1" cx="15.9" cy="21.3" r="1.9"/>
		<circle class="st1" cx="20.2" cy="21.3" r="1.9"/>
		<circle class="st1" cx="24.5" cy="21.3" r="1.9"/>
		<circle class="st1" cx="28.8" cy="21.3" r="1.9"/>
		<circle class="st1" cx="33.2" cy="21.3" r="1.8"/>
		<circle class="st1" cx="37.5" cy="21.3" r="1.8"/>
		<circle class="st1" cx="41.8" cy="21.3" r="1.8"/>
		<circle class="st1" cx="46.1" cy="21.3" r="1.8"/>
		<circle class="st1" cx="50.5" cy="21.3" r="1.8"/>
		<text transform="matrix(1 0 0 1 5.0331 22.3577)" class="st1 st2 st3">00</text>
		<text transform="matrix(1 0 0 1 53.5332 22.3577)" class="st1 st2 st3">00</text>
	</g>
	<g>
		<circle class="st1" cx="11.6" cy="15.4" r="1.9"/>
		<circle class="st1" cx="15.9" cy="15.4" r="1.9"/>
		<circle class="st1" cx="20.2" cy="15.4" r="1.9"/>
		<circle class="st1" cx="24.5" cy="15.4" r="1.9"/>
		<circle class="st1" cx="28.8" cy="15.4" r="1.9"/>
		<circle class="st1" cx="33.2" cy="15.4" r="1.8"/>
		<circle class="st1" cx="37.5" cy="15.4" r="1.8"/>
		<circle class="st1" cx="41.8" cy="15.4" r="1.8"/>
		<circle class="st1" cx="46.1" cy="15.4" r="1.8"/>
		<circle class="st1" cx="50.5" cy="15.4" r="1.8"/>
		<text transform="matrix(1 0 0 1 5.0331 16.4276)" class="st1 st2 st3">00</text>
		<text transform="matrix(1 0 0 1 53.5332 16.4276)" class="st1 st2 st3">00</text>
	</g>
	<g>
		<circle class="st1" cx="11.6" cy="9.4" r="1.9"/>
		<circle class="st1" cx="15.9" cy="9.4" r="1.9"/>
		<circle class="st1" cx="20.2" cy="9.4" r="1.9"/>
		<circle class="st1" cx="24.5" cy="9.4" r="1.9"/>
		<circle class="st1" cx="28.8" cy="9.4" r="1.9"/>
		<circle class="st1" cx="33.2" cy="9.4" r="1.8"/>
		<circle class="st1" cx="37.5" cy="9.4" r="1.8"/>
		<circle class="st1" cx="41.8" cy="9.4" r="1.8"/>
		<circle class="st1" cx="46.1" cy="9.4" r="1.8"/>
		<circle class="st1" cx="50.5" cy="9.4" r="1.8"/>
		<text transform="matrix(1 0 0 1 5.0331 10.4976)" class="st1 st2 st3">00</text>
		<text transform="matrix(1 0 0 1 53.5332 10.4976)" class="st1 st2 st3">00</text>
	</g>
</g>
</svg>
