<?xml version="1.0" encoding="utf-8"?>
<!-- Generator: Adobe Illustrator 23.0.1, SVG Export Plug-In . SVG Version: 6.00 Build 0)  -->
<svg version="1.1" id="Layer_1" xmlns="http://www.w3.org/2000/svg" xmlns:xlink="http://www.w3.org/1999/xlink" x="0px" y="0px"
	 viewBox="0 0 1204 728" enable-background="new 0 0 1204 728" xml:space="preserve">
<g>
	
		<rect x="0.68" y="0.22" fill="#D8EDD9" stroke="#C8E6C9" stroke-width="0.4" stroke-linecap="round" stroke-miterlimit="10" width="1202.64" height="727.55"/>
	<line fill="none" stroke="#FFFFFF" stroke-width="2" stroke-miterlimit="10" x1="602" y1="21.75" x2="602" y2="706.25"/>
	<ellipse fill="none" stroke="#FFFFFF" stroke-width="2" stroke-miterlimit="10" cx="602" cy="364" rx="87.91" ry="87.95"/>
	<rect x="22.2" y="21.75" fill="none" stroke="#FFFFFF" stroke-width="2" stroke-miterlimit="10" width="1159.59" height="684.5"/>
	<g>
		
			<rect x="22.2" y="176.92" fill="none" stroke="#FFFFFF" stroke-width="2" stroke-miterlimit="10" width="180.14" height="374.15"/>
		<rect x="22.2" y="266.47" fill="none" stroke="#FFFFFF" stroke-width="2" stroke-miterlimit="10" width="66.99" height="195.06"/>
		<path fill="none" stroke="#FFFFFF" stroke-width="2" stroke-miterlimit="10" d="M202.34,284.24v159.53
			c30.02-13.99,50.84-44.44,50.84-79.76S232.37,298.23,202.34,284.24z"/>
	</g>
	<g>
		
			<rect x="1001.66" y="176.92" fill="none" stroke="#FFFFFF" stroke-width="2" stroke-miterlimit="10" width="180.14" height="374.15"/>
		
			<rect x="1114.81" y="266.47" fill="none" stroke="#FFFFFF" stroke-width="2" stroke-miterlimit="10" width="66.99" height="195.06"/>
		<path fill="none" stroke="#FFFFFF" stroke-width="2" stroke-miterlimit="10" d="M1001.66,284.24v159.53
			c-30.02-13.99-50.84-44.44-50.84-79.76S971.63,298.23,1001.66,284.24z"/>
	</g>
</g>
</svg>
