<?xml version="1.0" encoding="utf-8"?>
<!-- Generator: Adobe Illustrator 23.0.1, SVG Export Plug-In . SVG Version: 6.00 Build 0)  -->
<svg version="1.1" id="Layer_1" xmlns="http://www.w3.org/2000/svg" xmlns:xlink="http://www.w3.org/1999/xlink" x="0px" y="0px"
	 viewBox="0 0 215 66" style="enable-background:new 0 0 215 66;" xml:space="preserve">
<style type="text/css">
	.st0{fill:#F1F3F4;stroke:#BCC8CE;stroke-width:0.4;stroke-linecap:round;stroke-miterlimit:10;}
	.st1{fill:#AEBDC4;}
	.st2{font-family:'Roboto-Medium';}
	.st3{font-size:3px;}
</style>
<polygon class="st0" points="191.6,65.5 1.2,0.4 214.7,0.4 "/>
<g>
	<g>
		<circle class="st1" cx="190" cy="12.2" r="1.9"/>
		<circle class="st1" cx="190" cy="7.9" r="1.9"/>
		<text transform="matrix(6.123234e-17 1 -1 6.123234e-17 188.9004 1.7008)" class="st1 st2 st3">00</text>
	</g>
	<g>
		<circle class="st1" cx="184" cy="29.5" r="1.9"/>
		<circle class="st1" cx="184" cy="25.2" r="1.9"/>
		<circle class="st1" cx="184" cy="20.9" r="1.9"/>
		<circle class="st1" cx="184" cy="16.5" r="1.9"/>
		<circle class="st1" cx="184" cy="12.2" r="1.9"/>
		<circle class="st1" cx="184" cy="7.9" r="1.9"/>
		<text transform="matrix(6.123234e-17 1 -1 6.123234e-17 182.9707 1.7008)" class="st1 st2 st3">00</text>
		<text transform="matrix(6.123234e-17 1 -1 6.123234e-17 182.9707 32.3208)" class="st1 st2 st3">00</text>
	</g>
	<g>
		<circle class="st1" cx="178.1" cy="46.8" r="1.9"/>
		<circle class="st1" cx="178.1" cy="42.5" r="1.9"/>
		<circle class="st1" cx="178.1" cy="38.2" r="1.9"/>
		<circle class="st1" cx="178.1" cy="33.8" r="1.9"/>
		<circle class="st1" cx="178.1" cy="29.5" r="1.9"/>
		<circle class="st1" cx="178.1" cy="25.2" r="1.9"/>
		<circle class="st1" cx="178.1" cy="20.9" r="1.9"/>
		<circle class="st1" cx="178.1" cy="16.6" r="1.9"/>
		<circle class="st1" cx="178.1" cy="12.2" r="1.9"/>
		<circle class="st1" cx="178.1" cy="7.9" r="1.9"/>
		<text transform="matrix(6.123234e-17 1 -1 6.123234e-17 177.041 1.7008)" class="st1 st2 st3">00</text>
		<text transform="matrix(6.123234e-17 1 -1 6.123234e-17 177.041 49.6108)" class="st1 st2 st3">00</text>
	</g>
	<g>
		<circle class="st1" cx="172.2" cy="46.8" r="1.9"/>
		<circle class="st1" cx="172.2" cy="42.5" r="1.9"/>
		<circle class="st1" cx="172.2" cy="38.2" r="1.9"/>
		<circle class="st1" cx="172.2" cy="33.8" r="1.9"/>
		<circle class="st1" cx="172.2" cy="29.5" r="1.9"/>
		<circle class="st1" cx="172.2" cy="25.2" r="1.9"/>
		<circle class="st1" cx="172.2" cy="20.9" r="1.9"/>
		<circle class="st1" cx="172.2" cy="16.6" r="1.9"/>
		<circle class="st1" cx="172.2" cy="12.2" r="1.9"/>
		<circle class="st1" cx="172.2" cy="7.9" r="1.9"/>
		<text transform="matrix(6.123234e-17 1 -1 6.123234e-17 171.1113 1.7008)" class="st1 st2 st3">00</text>
		<text transform="matrix(6.123234e-17 1 -1 6.123234e-17 171.1113 49.6108)" class="st1 st2 st3">00</text>
	</g>
	<g>
		<circle class="st1" cx="166.2" cy="46.8" r="1.9"/>
		<circle class="st1" cx="166.2" cy="42.5" r="1.9"/>
		<circle class="st1" cx="166.2" cy="38.2" r="1.9"/>
		<circle class="st1" cx="166.2" cy="33.8" r="1.9"/>
		<circle class="st1" cx="166.2" cy="29.5" r="1.9"/>
		<circle class="st1" cx="166.2" cy="25.2" r="1.9"/>
		<circle class="st1" cx="166.2" cy="20.9" r="1.9"/>
		<circle class="st1" cx="166.2" cy="16.6" r="1.9"/>
		<circle class="st1" cx="166.2" cy="12.2" r="1.9"/>
		<circle class="st1" cx="166.2" cy="7.9" r="1.9"/>
		<text transform="matrix(6.123234e-17 1 -1 6.123234e-17 165.1816 1.7008)" class="st1 st2 st3">00</text>
		<text transform="matrix(6.123234e-17 1 -1 6.123234e-17 165.1816 49.6108)" class="st1 st2 st3">00</text>
	</g>
	<g>
		<circle class="st1" cx="160.3" cy="42.5" r="1.9"/>
		<circle class="st1" cx="160.3" cy="38.2" r="1.9"/>
		<circle class="st1" cx="160.3" cy="33.8" r="1.9"/>
		<circle class="st1" cx="160.3" cy="29.5" r="1.9"/>
		<circle class="st1" cx="160.3" cy="25.2" r="1.9"/>
		<circle class="st1" cx="160.3" cy="20.9" r="1.9"/>
		<circle class="st1" cx="160.3" cy="16.5" r="1.9"/>
		<circle class="st1" cx="160.3" cy="12.2" r="1.9"/>
		<circle class="st1" cx="160.3" cy="7.9" r="1.9"/>
		<text transform="matrix(6.123234e-17 1 -1 6.123234e-17 159.252 1.7008)" class="st1 st2 st3">00</text>
		<text transform="matrix(6.123234e-17 1 -1 6.123234e-17 159.252 45.2808)" class="st1 st2 st3">00</text>
	</g>
	<g>
		<circle class="st1" cx="154.4" cy="42.5" r="1.9"/>
		<circle class="st1" cx="154.4" cy="38.2" r="1.9"/>
		<circle class="st1" cx="154.4" cy="33.8" r="1.9"/>
		<circle class="st1" cx="154.4" cy="29.5" r="1.9"/>
		<circle class="st1" cx="154.4" cy="25.2" r="1.9"/>
		<circle class="st1" cx="154.4" cy="20.9" r="1.9"/>
		<circle class="st1" cx="154.4" cy="16.5" r="1.9"/>
		<circle class="st1" cx="154.4" cy="12.2" r="1.9"/>
		<circle class="st1" cx="154.4" cy="7.9" r="1.9"/>
		<text transform="matrix(6.123234e-17 1 -1 6.123234e-17 153.3223 1.7008)" class="st1 st2 st3">00</text>
		<text transform="matrix(6.123234e-17 1 -1 6.123234e-17 153.3223 45.2808)" class="st1 st2 st3">00</text>
	</g>
	<g>
		<circle class="st1" cx="148.5" cy="38.2" r="1.9"/>
		<circle class="st1" cx="148.5" cy="33.8" r="1.9"/>
		<circle class="st1" cx="148.5" cy="29.5" r="1.9"/>
		<circle class="st1" cx="148.5" cy="25.2" r="1.9"/>
		<circle class="st1" cx="148.5" cy="20.9" r="1.9"/>
		<circle class="st1" cx="148.5" cy="16.5" r="1.9"/>
		<circle class="st1" cx="148.5" cy="12.2" r="1.9"/>
		<circle class="st1" cx="148.5" cy="7.9" r="1.9"/>
		<text transform="matrix(6.123234e-17 1 -1 6.123234e-17 147.3926 1.7008)" class="st1 st2 st3">00</text>
		<text transform="matrix(6.123234e-17 1 -1 6.123234e-17 147.3926 40.9608)" class="st1 st2 st3">00</text>
	</g>
	<g>
		<circle class="st1" cx="142.5" cy="38.2" r="1.9"/>
		<circle class="st1" cx="142.5" cy="33.8" r="1.9"/>
		<circle class="st1" cx="142.5" cy="29.5" r="1.9"/>
		<circle class="st1" cx="142.5" cy="25.2" r="1.9"/>
		<circle class="st1" cx="142.5" cy="20.9" r="1.9"/>
		<circle class="st1" cx="142.5" cy="16.5" r="1.9"/>
		<circle class="st1" cx="142.5" cy="12.2" r="1.9"/>
		<circle class="st1" cx="142.5" cy="7.9" r="1.9"/>
		<text transform="matrix(6.123234e-17 1 -1 6.123234e-17 141.4629 1.7008)" class="st1 st2 st3">00</text>
		<text transform="matrix(6.123234e-17 1 -1 6.123234e-17 141.4629 40.9608)" class="st1 st2 st3">00</text>
	</g>
	<g>
		<circle class="st1" cx="136.6" cy="25.2" r="1.9"/>
		<circle class="st1" cx="136.6" cy="20.9" r="1.9"/>
		<circle class="st1" cx="136.6" cy="16.5" r="1.9"/>
		<circle class="st1" cx="136.6" cy="12.2" r="1.9"/>
		<circle class="st1" cx="136.6" cy="7.9" r="1.9"/>
		<text transform="matrix(6.123234e-17 1 -1 6.123234e-17 135.5332 1.7008)" class="st1 st2 st3">00</text>
		<text transform="matrix(6.123234e-17 1 -1 6.123234e-17 135.5332 27.9908)" class="st1 st2 st3">00</text>
	</g>
	<g>
		<circle class="st1" cx="130.7" cy="25.2" r="1.9"/>
		<circle class="st1" cx="130.7" cy="20.9" r="1.9"/>
		<circle class="st1" cx="130.7" cy="16.5" r="1.9"/>
		<circle class="st1" cx="130.7" cy="12.2" r="1.9"/>
		<circle class="st1" cx="130.7" cy="7.9" r="1.9"/>
		<text transform="matrix(6.123234e-17 1 -1 6.123234e-17 129.6035 1.7008)" class="st1 st2 st3">00</text>
		<text transform="matrix(6.123234e-17 1 -1 6.123234e-17 129.6035 27.9908)" class="st1 st2 st3">00</text>
	</g>
	<g>
		<circle class="st1" cx="124.7" cy="25.2" r="1.8"/>
		<circle class="st1" cx="124.7" cy="20.9" r="1.8"/>
		<circle class="st1" cx="124.7" cy="16.5" r="1.8"/>
		<circle class="st1" cx="124.7" cy="12.2" r="1.8"/>
		<circle class="st1" cx="124.7" cy="7.9" r="1.8"/>
		<text transform="matrix(6.123234e-17 1 -1 6.123234e-17 123.6738 1.7008)" class="st1 st2 st3">00</text>
		<text transform="matrix(6.123234e-17 1 -1 6.123234e-17 123.6738 27.9908)" class="st1 st2 st3">00</text>
	</g>
	<g>
		<circle class="st1" cx="118.8" cy="20.9" r="1.8"/>
		<circle class="st1" cx="118.8" cy="16.5" r="1.8"/>
		<circle class="st1" cx="118.8" cy="12.2" r="1.8"/>
		<circle class="st1" cx="118.8" cy="7.9" r="1.8"/>
		<text transform="matrix(6.123234e-17 1 -1 6.123234e-17 117.7441 1.7008)" class="st1 st2 st3">00</text>
		<text transform="matrix(6.123234e-17 1 -1 6.123234e-17 117.7441 23.6708)" class="st1 st2 st3">00</text>
	</g>
	<g>
		<circle class="st1" cx="112.9" cy="20.9" r="1.8"/>
		<circle class="st1" cx="112.9" cy="16.5" r="1.8"/>
		<circle class="st1" cx="112.9" cy="12.2" r="1.8"/>
		<circle class="st1" cx="112.9" cy="7.9" r="1.8"/>
		<text transform="matrix(6.123234e-17 1 -1 6.123234e-17 111.8145 1.7008)" class="st1 st2 st3">00</text>
		<text transform="matrix(6.123234e-17 1 -1 6.123234e-17 111.8145 23.6708)" class="st1 st2 st3">00</text>
	</g>
	<g>
		<circle class="st1" cx="106.9" cy="25.2" r="1.8"/>
		<circle class="st1" cx="106.9" cy="20.9" r="1.8"/>
		<circle class="st1" cx="106.9" cy="16.5" r="1.8"/>
		<circle class="st1" cx="106.9" cy="12.2" r="1.8"/>
		<circle class="st1" cx="106.9" cy="7.9" r="1.8"/>
		<text transform="matrix(6.123234e-17 1 -1 6.123234e-17 105.8848 1.7008)" class="st1 st2 st3">00</text>
		<text transform="matrix(6.123234e-17 1 -1 6.123234e-17 105.8848 27.9908)" class="st1 st2 st3">00</text>
	</g>
	<g>
		<circle class="st1" cx="101" cy="25.2" r="1.8"/>
		<circle class="st1" cx="101" cy="20.9" r="1.8"/>
		<circle class="st1" cx="101" cy="16.5" r="1.8"/>
		<circle class="st1" cx="101" cy="12.2" r="1.8"/>
		<circle class="st1" cx="101" cy="7.9" r="1.8"/>
		<text transform="matrix(6.123234e-17 1 -1 6.123234e-17 99.9551 1.7008)" class="st1 st2 st3">00</text>
		<text transform="matrix(6.123234e-17 1 -1 6.123234e-17 99.9551 27.9908)" class="st1 st2 st3">00</text>
	</g>
	<g>
		<circle class="st1" cx="95.1" cy="20.9" r="1.8"/>
		<circle class="st1" cx="95.1" cy="16.5" r="1.8"/>
		<circle class="st1" cx="95.1" cy="12.2" r="1.8"/>
		<circle class="st1" cx="95.1" cy="7.9" r="1.8"/>
		<text transform="matrix(6.123234e-17 1 -1 6.123234e-17 94.0254 1.7008)" class="st1 st2 st3">00</text>
		<text transform="matrix(6.123234e-17 1 -1 6.123234e-17 94.0254 23.6708)" class="st1 st2 st3">00</text>
	</g>
	<g>
		<circle class="st1" cx="89.2" cy="20.9" r="1.8"/>
		<circle class="st1" cx="89.2" cy="16.5" r="1.8"/>
		<circle class="st1" cx="89.2" cy="12.2" r="1.8"/>
		<circle class="st1" cx="89.2" cy="7.9" r="1.8"/>
		<text transform="matrix(6.123234e-17 1 -1 6.123234e-17 88.0957 1.7008)" class="st1 st2 st3">00</text>
		<text transform="matrix(6.123234e-17 1 -1 6.123234e-17 88.0957 23.6708)" class="st1 st2 st3">00</text>
	</g>
	<g>
		<circle class="st1" cx="83.2" cy="20.9" r="1.8"/>
		<circle class="st1" cx="83.2" cy="16.5" r="1.8"/>
		<circle class="st1" cx="83.2" cy="12.2" r="1.8"/>
		<circle class="st1" cx="83.2" cy="7.9" r="1.8"/>
		<text transform="matrix(6.123234e-17 1 -1 6.123234e-17 82.166 1.7008)" class="st1 st2 st3">00</text>
		<text transform="matrix(6.123234e-17 1 -1 6.123234e-17 82.166 23.6708)" class="st1 st2 st3">00</text>
	</g>
	<g>
		<circle class="st1" cx="77.3" cy="16.5" r="1.8"/>
		<circle class="st1" cx="77.3" cy="12.2" r="1.8"/>
		<circle class="st1" cx="77.3" cy="7.9" r="1.8"/>
		<text transform="matrix(6.123234e-17 1 -1 6.123234e-17 76.2363 1.7008)" class="st1 st2 st3">00</text>
		<text transform="matrix(6.123234e-17 1 -1 6.123234e-17 76.2363 19.3508)" class="st1 st2 st3">00</text>
	</g>
	<g>
		<circle class="st1" cx="71.4" cy="16.5" r="1.8"/>
		<circle class="st1" cx="71.4" cy="12.2" r="1.8"/>
		<circle class="st1" cx="71.4" cy="7.9" r="1.8"/>
		<text transform="matrix(6.123234e-17 1 -1 6.123234e-17 70.3066 1.7008)" class="st1 st2 st3">00</text>
		<text transform="matrix(6.123234e-17 1 -1 6.123234e-17 70.3066 19.3508)" class="st1 st2 st3">00</text>
	</g>
	<g>
		<circle class="st1" cx="65.4" cy="12.2" r="1.8"/>
		<circle class="st1" cx="65.4" cy="7.9" r="1.8"/>
		<text transform="matrix(6.123234e-17 1 -1 6.123234e-17 64.377 1.7008)" class="st1 st2 st3">00</text>
	</g>
	<g>
		<circle class="st1" cx="59.5" cy="12.2" r="1.8"/>
		<circle class="st1" cx="59.5" cy="7.9" r="1.8"/>
		<text transform="matrix(6.123234e-17 1 -1 6.123234e-17 58.4473 1.7008)" class="st1 st2 st3">00</text>
	</g>
	<g>
		<circle class="st1" cx="53.6" cy="12.2" r="1.8"/>
		<circle class="st1" cx="53.6" cy="7.9" r="1.8"/>
		<text transform="matrix(6.123234e-17 1 -1 6.123234e-17 52.5176 1.7008)" class="st1 st2 st3">00</text>
	</g>
</g>
</svg>
