<?xml version="1.0" encoding="utf-8"?>
<!-- Generator: Adobe Illustrator 23.0.1, SVG Export Plug-In . SVG Version: 6.00 Build 0)  -->
<svg version="1.1" id="Layer_1" xmlns="http://www.w3.org/2000/svg" xmlns:xlink="http://www.w3.org/1999/xlink" x="0px" y="0px"
	 viewBox="0 0 216 66" style="enable-background:new 0 0 216 66;" xml:space="preserve">
<style type="text/css">
	.st0{fill:#F1F3F4;stroke:#BCC8CE;stroke-width:0.4;stroke-linecap:round;stroke-miterlimit:10;}
	.st1{fill:#AEBDC4;}
	.st2{font-family:'Roboto-Medium';}
	.st3{font-size:3px;}
</style>
<polygon class="st0" points="192.1,0.5 1.7,65.6 215.2,65.6 "/>
<g>
	<g>
		<circle class="st1" cx="188.8" cy="59.5" r="1.9"/>
		<circle class="st1" cx="188.8" cy="55.1" r="1.9"/>
		<circle class="st1" cx="188.8" cy="50.8" r="1.9"/>
		<circle class="st1" cx="188.8" cy="46.5" r="1.9"/>
		<circle class="st1" cx="188.8" cy="42.2" r="1.9"/>
		<circle class="st1" cx="188.8" cy="37.8" r="1.9"/>
		<circle class="st1" cx="188.8" cy="33.5" r="1.9"/>
		<circle class="st1" cx="188.8" cy="29.2" r="1.9"/>
		<text transform="matrix(6.123234e-17 1 -1 6.123234e-17 187.7832 61.6608)" class="st1 st2 st3">00</text>
		<text transform="matrix(6.123234e-17 1 -1 6.123234e-17 187.7832 23.6111)" class="st1 st2 st3">00</text>
	</g>
	<g>
		<circle class="st1" cx="182.9" cy="59.5" r="1.9"/>
		<circle class="st1" cx="182.9" cy="55.1" r="1.9"/>
		<circle class="st1" cx="182.9" cy="50.8" r="1.9"/>
		<circle class="st1" cx="182.9" cy="46.5" r="1.9"/>
		<circle class="st1" cx="182.9" cy="42.2" r="1.9"/>
		<circle class="st1" cx="182.9" cy="37.8" r="1.9"/>
		<circle class="st1" cx="182.9" cy="33.5" r="1.9"/>
		<circle class="st1" cx="182.9" cy="29.2" r="1.9"/>
		<circle class="st1" cx="182.9" cy="24.9" r="1.9"/>
		<circle class="st1" cx="182.9" cy="20.6" r="1.9"/>
		<circle class="st1" cx="182.9" cy="16.2" r="1.9"/>
		<text transform="matrix(6.123234e-17 1 -1 6.123234e-17 181.8535 61.6608)" class="st1 st2 st3">00</text>
		<text transform="matrix(6.123234e-17 1 -1 6.123234e-17 181.8535 10.6311)" class="st1 st2 st3">00</text>
	</g>
	<g>
		<circle class="st1" cx="177" cy="59.5" r="1.9"/>
		<circle class="st1" cx="177" cy="55.1" r="1.9"/>
		<circle class="st1" cx="177" cy="50.8" r="1.9"/>
		<circle class="st1" cx="177" cy="46.5" r="1.9"/>
		<circle class="st1" cx="177" cy="42.2" r="1.9"/>
		<circle class="st1" cx="177" cy="37.8" r="1.9"/>
		<circle class="st1" cx="177" cy="33.5" r="1.9"/>
		<circle class="st1" cx="177" cy="29.2" r="1.9"/>
		<circle class="st1" cx="177" cy="24.9" r="1.9"/>
		<circle class="st1" cx="177" cy="20.6" r="1.9"/>
		<circle class="st1" cx="177" cy="16.2" r="1.9"/>
		<text transform="matrix(6.123234e-17 1 -1 6.123234e-17 175.9238 61.6608)" class="st1 st2 st3">00</text>
		<text transform="matrix(6.123234e-17 1 -1 6.123234e-17 175.9238 10.6311)" class="st1 st2 st3">00</text>
	</g>
	<g>
		<circle class="st1" cx="171.1" cy="59.5" r="1.9"/>
		<circle class="st1" cx="171.1" cy="55.1" r="1.9"/>
		<circle class="st1" cx="171.1" cy="50.8" r="1.9"/>
		<circle class="st1" cx="171.1" cy="46.5" r="1.9"/>
		<circle class="st1" cx="171.1" cy="42.2" r="1.9"/>
		<circle class="st1" cx="171.1" cy="37.8" r="1.9"/>
		<circle class="st1" cx="171.1" cy="33.5" r="1.9"/>
		<circle class="st1" cx="171.1" cy="29.2" r="1.9"/>
		<circle class="st1" cx="171.1" cy="24.9" r="1.9"/>
		<circle class="st1" cx="171.1" cy="20.6" r="1.9"/>
		<text transform="matrix(6.123234e-17 1 -1 6.123234e-17 169.9941 61.6608)" class="st1 st2 st3">00</text>
		<text transform="matrix(6.123234e-17 1 -1 6.123234e-17 169.9941 14.9611)" class="st1 st2 st3">00</text>
	</g>
	<g>
		<circle class="st1" cx="165.1" cy="59.5" r="1.9"/>
		<circle class="st1" cx="165.1" cy="55.1" r="1.9"/>
		<circle class="st1" cx="165.1" cy="50.8" r="1.9"/>
		<circle class="st1" cx="165.1" cy="46.5" r="1.9"/>
		<circle class="st1" cx="165.1" cy="42.2" r="1.9"/>
		<circle class="st1" cx="165.1" cy="37.8" r="1.9"/>
		<circle class="st1" cx="165.1" cy="33.5" r="1.9"/>
		<circle class="st1" cx="165.1" cy="29.2" r="1.9"/>
		<circle class="st1" cx="165.1" cy="24.9" r="1.9"/>
		<circle class="st1" cx="165.1" cy="20.6" r="1.9"/>
		<text transform="matrix(6.123234e-17 1 -1 6.123234e-17 164.0645 61.6608)" class="st1 st2 st3">00</text>
		<text transform="matrix(6.123234e-17 1 -1 6.123234e-17 164.0645 14.9611)" class="st1 st2 st3">00</text>
	</g>
	<g>
		<circle class="st1" cx="159.2" cy="59.5" r="1.9"/>
		<circle class="st1" cx="159.2" cy="55.1" r="1.9"/>
		<circle class="st1" cx="159.2" cy="50.8" r="1.9"/>
		<circle class="st1" cx="159.2" cy="46.5" r="1.9"/>
		<circle class="st1" cx="159.2" cy="42.2" r="1.9"/>
		<circle class="st1" cx="159.2" cy="37.8" r="1.9"/>
		<circle class="st1" cx="159.2" cy="33.5" r="1.9"/>
		<circle class="st1" cx="159.2" cy="29.2" r="1.9"/>
		<circle class="st1" cx="159.2" cy="24.9" r="1.9"/>
		<text transform="matrix(6.123234e-17 1 -1 6.123234e-17 158.1348 61.6608)" class="st1 st2 st3">00</text>
		<text transform="matrix(6.123234e-17 1 -1 6.123234e-17 158.1348 19.2911)" class="st1 st2 st3">00</text>
	</g>
	<g>
		<circle class="st1" cx="153.3" cy="59.5" r="1.9"/>
		<circle class="st1" cx="153.3" cy="55.1" r="1.9"/>
		<circle class="st1" cx="153.3" cy="50.8" r="1.9"/>
		<circle class="st1" cx="153.3" cy="46.5" r="1.9"/>
		<circle class="st1" cx="153.3" cy="42.2" r="1.9"/>
		<circle class="st1" cx="153.3" cy="37.8" r="1.9"/>
		<circle class="st1" cx="153.3" cy="33.5" r="1.9"/>
		<circle class="st1" cx="153.3" cy="29.2" r="1.9"/>
		<circle class="st1" cx="153.3" cy="24.9" r="1.9"/>
		<text transform="matrix(6.123234e-17 1 -1 6.123234e-17 152.2051 61.6608)" class="st1 st2 st3">00</text>
		<text transform="matrix(6.123234e-17 1 -1 6.123234e-17 152.2051 19.2911)" class="st1 st2 st3">00</text>
	</g>
	<g>
		<circle class="st1" cx="147.3" cy="59.5" r="1.9"/>
		<circle class="st1" cx="147.3" cy="55.1" r="1.9"/>
		<circle class="st1" cx="147.3" cy="50.8" r="1.9"/>
		<circle class="st1" cx="147.3" cy="46.5" r="1.9"/>
		<circle class="st1" cx="147.3" cy="42.2" r="1.9"/>
		<circle class="st1" cx="147.3" cy="37.8" r="1.9"/>
		<circle class="st1" cx="147.3" cy="33.5" r="1.9"/>
		<circle class="st1" cx="147.3" cy="29.2" r="1.9"/>
		<text transform="matrix(6.123234e-17 1 -1 6.123234e-17 146.2754 61.6608)" class="st1 st2 st3">00</text>
		<text transform="matrix(6.123234e-17 1 -1 6.123234e-17 146.2754 23.6111)" class="st1 st2 st3">00</text>
	</g>
	<g>
		<circle class="st1" cx="141.4" cy="59.5" r="1.9"/>
		<circle class="st1" cx="141.4" cy="55.1" r="1.9"/>
		<circle class="st1" cx="141.4" cy="50.8" r="1.9"/>
		<circle class="st1" cx="141.4" cy="46.5" r="1.9"/>
		<circle class="st1" cx="141.4" cy="42.2" r="1.9"/>
		<circle class="st1" cx="141.4" cy="37.8" r="1.9"/>
		<text transform="matrix(6.123234e-17 1 -1 6.123234e-17 140.3457 61.6608)" class="st1 st2 st3">00</text>
		<text transform="matrix(6.123234e-17 1 -1 6.123234e-17 140.3457 32.2511)" class="st1 st2 st3">00</text>
	</g>
	<g>
		<circle class="st1" cx="135.5" cy="59.5" r="1.9"/>
		<circle class="st1" cx="135.5" cy="55.1" r="1.9"/>
		<circle class="st1" cx="135.5" cy="50.8" r="1.9"/>
		<circle class="st1" cx="135.5" cy="46.5" r="1.9"/>
		<circle class="st1" cx="135.5" cy="42.2" r="1.9"/>
		<text transform="matrix(6.123234e-17 1 -1 6.123234e-17 134.416 61.6608)" class="st1 st2 st3">00</text>
		<text transform="matrix(6.123234e-17 1 -1 6.123234e-17 134.416 36.5811)" class="st1 st2 st3">00</text>
	</g>
	<g>
		<circle class="st1" cx="129.5" cy="59.5" r="1.9"/>
		<circle class="st1" cx="129.5" cy="55.1" r="1.9"/>
		<circle class="st1" cx="129.5" cy="50.8" r="1.9"/>
		<circle class="st1" cx="129.5" cy="46.5" r="1.9"/>
		<circle class="st1" cx="129.5" cy="42.2" r="1.9"/>
		<text transform="matrix(6.123234e-17 1 -1 6.123234e-17 128.4863 61.6608)" class="st1 st2 st3">00</text>
		<text transform="matrix(6.123234e-17 1 -1 6.123234e-17 128.4863 36.5811)" class="st1 st2 st3">00</text>
	</g>
	<g>
		<circle class="st1" cx="123.6" cy="59.5" r="1.8"/>
		<circle class="st1" cx="123.6" cy="55.1" r="1.8"/>
		<circle class="st1" cx="123.6" cy="50.8" r="1.8"/>
		<circle class="st1" cx="123.6" cy="46.5" r="1.8"/>
		<text transform="matrix(6.123234e-17 1 -1 6.123234e-17 122.5566 61.6608)" class="st1 st2 st3">00</text>
		<text transform="matrix(6.123234e-17 1 -1 6.123234e-17 122.5566 40.901)" class="st1 st2 st3">00</text>
	</g>
	<g>
		<circle class="st1" cx="117.7" cy="59.5" r="1.8"/>
		<circle class="st1" cx="117.7" cy="55.1" r="1.8"/>
		<circle class="st1" cx="117.7" cy="50.8" r="1.8"/>
		<circle class="st1" cx="117.7" cy="46.5" r="1.8"/>
		<text transform="matrix(6.123234e-17 1 -1 6.123234e-17 116.627 61.6608)" class="st1 st2 st3">00</text>
		<text transform="matrix(6.123234e-17 1 -1 6.123234e-17 116.627 40.901)" class="st1 st2 st3">00</text>
	</g>
	<g>
		<circle class="st1" cx="111.7" cy="59.5" r="1.8"/>
		<circle class="st1" cx="111.7" cy="55.1" r="1.8"/>
		<circle class="st1" cx="111.7" cy="50.8" r="1.8"/>
		<circle class="st1" cx="111.7" cy="46.5" r="1.8"/>
		<circle class="st1" cx="111.7" cy="42.2" r="1.8"/>
		<text transform="matrix(6.123234e-17 1 -1 6.123234e-17 110.6973 61.6608)" class="st1 st2 st3">00</text>
		<text transform="matrix(6.123234e-17 1 -1 6.123234e-17 110.6973 36.5811)" class="st1 st2 st3">00</text>
	</g>
	<g>
		<circle class="st1" cx="105.8" cy="59.5" r="1.8"/>
		<circle class="st1" cx="105.8" cy="55.1" r="1.8"/>
		<circle class="st1" cx="105.8" cy="50.8" r="1.8"/>
		<circle class="st1" cx="105.8" cy="46.5" r="1.8"/>
		<circle class="st1" cx="105.8" cy="42.2" r="1.8"/>
		<text transform="matrix(6.123234e-17 1 -1 6.123234e-17 104.7676 61.6608)" class="st1 st2 st3">00</text>
		<text transform="matrix(6.123234e-17 1 -1 6.123234e-17 104.7676 36.5811)" class="st1 st2 st3">00</text>
	</g>
	<g>
		<circle class="st1" cx="99.9" cy="59.5" r="1.8"/>
		<circle class="st1" cx="99.9" cy="55.1" r="1.8"/>
		<circle class="st1" cx="99.9" cy="50.8" r="1.8"/>
		<circle class="st1" cx="99.9" cy="46.5" r="1.8"/>
		<circle class="st1" cx="99.9" cy="42.2" r="1.8"/>
		<text transform="matrix(6.123234e-17 1 -1 6.123234e-17 98.8379 61.6608)" class="st1 st2 st3">00</text>
		<text transform="matrix(6.123234e-17 1 -1 6.123234e-17 98.8379 36.5811)" class="st1 st2 st3">00</text>
	</g>
	<g>
		<circle class="st1" cx="93.9" cy="59.5" r="1.8"/>
		<circle class="st1" cx="93.9" cy="55.1" r="1.8"/>
		<circle class="st1" cx="93.9" cy="50.8" r="1.8"/>
		<circle class="st1" cx="93.9" cy="46.5" r="1.8"/>
		<text transform="matrix(6.123234e-17 1 -1 6.123234e-17 92.9082 61.6608)" class="st1 st2 st3">00</text>
		<text transform="matrix(6.123234e-17 1 -1 6.123234e-17 92.9082 40.901)" class="st1 st2 st3">00</text>
	</g>
	<g>
		<circle class="st1" cx="88" cy="59.5" r="1.8"/>
		<circle class="st1" cx="88" cy="55.1" r="1.8"/>
		<circle class="st1" cx="88" cy="50.8" r="1.8"/>
		<circle class="st1" cx="88" cy="46.5" r="1.8"/>
		<text transform="matrix(6.123234e-17 1 -1 6.123234e-17 86.9785 61.6608)" class="st1 st2 st3">00</text>
		<text transform="matrix(6.123234e-17 1 -1 6.123234e-17 86.9785 40.901)" class="st1 st2 st3">00</text>
	</g>
	<g>
		<circle class="st1" cx="82.1" cy="59.5" r="1.8"/>
		<circle class="st1" cx="82.1" cy="55.1" r="1.8"/>
		<circle class="st1" cx="82.1" cy="50.8" r="1.8"/>
		<circle class="st1" cx="82.1" cy="46.5" r="1.8"/>
		<text transform="matrix(6.123234e-17 1 -1 6.123234e-17 81.0488 61.6608)" class="st1 st2 st3">00</text>
		<text transform="matrix(6.123234e-17 1 -1 6.123234e-17 81.0488 40.901)" class="st1 st2 st3">00</text>
	</g>
	<g>
		<circle class="st1" cx="76.2" cy="59.5" r="1.8"/>
		<circle class="st1" cx="76.2" cy="55.1" r="1.8"/>
		<circle class="st1" cx="76.2" cy="50.8" r="1.8"/>
		<circle class="st1" cx="76.2" cy="46.5" r="1.8"/>
		<text transform="matrix(6.123234e-17 1 -1 6.123234e-17 75.1191 61.6608)" class="st1 st2 st3">00</text>
		<text transform="matrix(6.123234e-17 1 -1 6.123234e-17 75.1191 40.901)" class="st1 st2 st3">00</text>
	</g>
	<g>
		<circle class="st1" cx="70.2" cy="59.5" r="1.8"/>
		<circle class="st1" cx="70.2" cy="55.1" r="1.8"/>
		<text transform="matrix(6.123234e-17 1 -1 6.123234e-17 69.1895 61.6608)" class="st1 st2 st3">00</text>
	</g>
	<g>
		<circle class="st1" cx="64.3" cy="59.5" r="1.8"/>
		<circle class="st1" cx="64.3" cy="55.1" r="1.8"/>
		<text transform="matrix(6.123234e-17 1 -1 6.123234e-17 63.2598 61.6608)" class="st1 st2 st3">00</text>
	</g>
	<g>
		<circle class="st1" cx="58.4" cy="59.5" r="1.8"/>
		<circle class="st1" cx="58.4" cy="55.1" r="1.8"/>
		<text transform="matrix(6.123234e-17 1 -1 6.123234e-17 57.3301 61.6608)" class="st1 st2 st3">00</text>
	</g>
</g>
</svg>
