<?xml version="1.0" encoding="utf-8"?>
<!-- Generator: Adobe Illustrator 23.0.1, SVG Export Plug-In . SVG Version: 6.00 Build 0)  -->
<svg version="1.1" id="Layer_1" xmlns="http://www.w3.org/2000/svg" xmlns:xlink="http://www.w3.org/1999/xlink" x="0px" y="0px"
	 viewBox="0 0 168 168" style="enable-background:new 0 0 168 168;" xml:space="preserve">
<style type="text/css">
	.st0{fill:#F1F3F4;stroke:#BCC8CE;stroke-width:0.4;stroke-linecap:round;stroke-miterlimit:10;}
	.st1{fill:#AEBDC4;}
	.st2{font-family:'Roboto-Medium';}
	.st3{font-size:3px;}
</style>
<polygon class="st0" points="0.4,123.7 16.8,167.5 167.5,16.8 123.6,0.4 "/>
<g>
	<g>
		<circle class="st1" cx="148.4" cy="20.5" r="1.9"/>
		<circle class="st1" cx="145.4" cy="23.6" r="1.9"/>
		<circle class="st1" cx="142.3" cy="26.6" r="1.9"/>
		<circle class="st1" cx="139.3" cy="29.7" r="1.9"/>
		<circle class="st1" cx="136.2" cy="32.8" r="1.9"/>
		<circle class="st1" cx="133.2" cy="35.8" r="1.9"/>
		<circle class="st1" cx="130.1" cy="38.9" r="1.9"/>
		<circle class="st1" cx="127.1" cy="41.9" r="1.9"/>
		<circle class="st1" cx="124" cy="45" r="1.8"/>
		<circle class="st1" cx="120.9" cy="48" r="1.8"/>
		<circle class="st1" cx="117.9" cy="51.1" r="1.8"/>
		<circle class="st1" cx="114.8" cy="54.2" r="1.8"/>
		<circle class="st1" cx="109" cy="60" r="1.8"/>
		<circle class="st1" cx="105.9" cy="63" r="1.8"/>
		<circle class="st1" cx="102.9" cy="66.1" r="1.8"/>
		<circle class="st1" cx="99.8" cy="69.2" r="1.8"/>
		<circle class="st1" cx="96.8" cy="72.2" r="1.8"/>
		<circle class="st1" cx="93.7" cy="75.3" r="1.8"/>
		<circle class="st1" cx="90.7" cy="78.3" r="1.8"/>
		<circle class="st1" cx="87.6" cy="81.4" r="1.8"/>
		<circle class="st1" cx="84.6" cy="84.4" r="1.8"/>
		<circle class="st1" cx="81.5" cy="87.5" r="1.8"/>
		<circle class="st1" cx="78.4" cy="90.6" r="1.8"/>
		<circle class="st1" cx="75.4" cy="93.6" r="1.8"/>
		<circle class="st1" cx="72.3" cy="96.7" r="1.8"/>
		<circle class="st1" cx="69.2" cy="99.8" r="1.8"/>
		<circle class="st1" cx="66.2" cy="102.8" r="1.8"/>
		<circle class="st1" cx="63.1" cy="105.9" r="1.8"/>
		<circle class="st1" cx="60" cy="108.9" r="1.8"/>
		<circle class="st1" cx="54.2" cy="114.8" r="1.8"/>
		<circle class="st1" cx="51.1" cy="117.9" r="1.8"/>
		<circle class="st1" cx="48.1" cy="120.9" r="1.8"/>
		<circle class="st1" cx="45" cy="124" r="1.8"/>
		<circle class="st1" cx="42" cy="127" r="1.9"/>
		<circle class="st1" cx="38.9" cy="130.1" r="1.9"/>
		<circle class="st1" cx="35.9" cy="133.1" r="1.9"/>
		<circle class="st1" cx="32.8" cy="136.2" r="1.9"/>
		<circle class="st1" cx="29.7" cy="139.2" r="1.9"/>
		<circle class="st1" cx="26.7" cy="142.3" r="1.9"/>
		<circle class="st1" cx="23.6" cy="145.4" r="1.9"/>
		<circle class="st1" cx="20.6" cy="148.4" r="1.9"/>
		<text transform="matrix(-0.7071 0.7071 -0.7071 -0.7071 152.2979 15.1943)" class="st1 st2 st3">00</text>
		<text transform="matrix(-0.7071 0.7071 -0.7071 -0.7071 17.6182 149.875)" class="st1 st2 st3">00</text>
	</g>
	<g>
		<circle class="st1" cx="51.7" cy="108.9" r="1.8"/>
		<circle class="st1" cx="48.6" cy="112" r="1.8"/>
		<circle class="st1" cx="45.5" cy="115.1" r="1.8"/>
		<circle class="st1" cx="42.5" cy="118.1" r="1.8"/>
		<circle class="st1" cx="39.4" cy="121.2" r="1.8"/>
		<circle class="st1" cx="36.4" cy="124.2" r="1.8"/>
		<circle class="st1" cx="33.3" cy="127.3" r="1.9"/>
		<circle class="st1" cx="30.3" cy="130.3" r="1.9"/>
		<circle class="st1" cx="27.2" cy="133.4" r="1.9"/>
		<circle class="st1" cx="24.1" cy="136.5" r="1.9"/>
		<circle class="st1" cx="21.1" cy="139.5" r="1.9"/>
		<circle class="st1" cx="139.8" cy="20.8" r="1.9"/>
		<circle class="st1" cx="136.8" cy="23.8" r="1.9"/>
		<circle class="st1" cx="133.7" cy="26.9" r="1.9"/>
		<circle class="st1" cx="130.6" cy="29.9" r="1.9"/>
		<circle class="st1" cx="127.6" cy="33" r="1.9"/>
		<circle class="st1" cx="124.5" cy="36.1" r="1.8"/>
		<circle class="st1" cx="121.5" cy="39.1" r="1.8"/>
		<circle class="st1" cx="118.4" cy="42.2" r="1.8"/>
		<circle class="st1" cx="115.4" cy="45.2" r="1.8"/>
		<circle class="st1" cx="112.3" cy="48.3" r="1.8"/>
		<circle class="st1" cx="109.2" cy="51.4" r="1.8"/>
		<circle class="st1" cx="100.4" cy="60.2" r="1.8"/>
		<circle class="st1" cx="97.3" cy="63.3" r="1.8"/>
		<circle class="st1" cx="94.2" cy="66.3" r="1.8"/>
		<circle class="st1" cx="91.2" cy="69.4" r="1.8"/>
		<circle class="st1" cx="88.1" cy="72.5" r="1.8"/>
		<circle class="st1" cx="85.1" cy="75.5" r="1.8"/>
		<circle class="st1" cx="82" cy="78.6" r="1.8"/>
		<circle class="st1" cx="79" cy="81.6" r="1.8"/>
		<circle class="st1" cx="75.9" cy="84.7" r="1.8"/>
		<circle class="st1" cx="72.8" cy="87.7" r="1.8"/>
		<circle class="st1" cx="69.8" cy="90.8" r="1.8"/>
		<circle class="st1" cx="66.7" cy="93.9" r="1.8"/>
		<circle class="st1" cx="63.7" cy="96.9" r="1.8"/>
		<circle class="st1" cx="60.6" cy="100" r="1.8"/>
		<text transform="matrix(-0.7071 0.7071 -0.7071 -0.7071 143.6689 15.4443)" class="st1 st2 st3">00</text>
		<text transform="matrix(-0.7071 0.7071 -0.7071 -0.7071 18.1494 140.9648)" class="st1 st2 st3">00</text>
	</g>
	<g>
		<circle class="st1" cx="51.9" cy="100.3" r="1.8"/>
		<circle class="st1" cx="48.8" cy="103.4" r="1.8"/>
		<circle class="st1" cx="45.8" cy="106.4" r="1.8"/>
		<circle class="st1" cx="42.7" cy="109.5" r="1.8"/>
		<circle class="st1" cx="39.7" cy="112.5" r="1.8"/>
		<circle class="st1" cx="36.6" cy="115.6" r="1.8"/>
		<circle class="st1" cx="33.6" cy="118.6" r="1.8"/>
		<circle class="st1" cx="30.5" cy="121.7" r="1.8"/>
		<circle class="st1" cx="27.5" cy="124.8" r="1.9"/>
		<circle class="st1" cx="24.4" cy="127.8" r="1.9"/>
		<circle class="st1" cx="21.3" cy="130.9" r="1.9"/>
		<circle class="st1" cx="130.9" cy="21.3" r="1.9"/>
		<circle class="st1" cx="127.8" cy="24.4" r="1.9"/>
		<circle class="st1" cx="124.8" cy="27.4" r="1.9"/>
		<circle class="st1" cx="121.7" cy="30.5" r="1.8"/>
		<circle class="st1" cx="118.7" cy="33.5" r="1.8"/>
		<circle class="st1" cx="115.6" cy="36.6" r="1.8"/>
		<circle class="st1" cx="112.6" cy="39.6" r="1.8"/>
		<circle class="st1" cx="109.5" cy="42.7" r="1.8"/>
		<circle class="st1" cx="106.4" cy="45.8" r="1.8"/>
		<circle class="st1" cx="103.4" cy="48.8" r="1.8"/>
		<circle class="st1" cx="100.3" cy="51.9" r="1.8"/>
		<circle class="st1" cx="94.5" cy="57.7" r="1.8"/>
		<circle class="st1" cx="91.4" cy="60.8" r="1.8"/>
		<circle class="st1" cx="88.4" cy="63.8" r="1.8"/>
		<circle class="st1" cx="85.3" cy="66.9" r="1.8"/>
		<circle class="st1" cx="82.3" cy="69.9" r="1.8"/>
		<circle class="st1" cx="79.2" cy="73" r="1.8"/>
		<circle class="st1" cx="76.2" cy="76.1" r="1.8"/>
		<circle class="st1" cx="73.1" cy="79.1" r="1.8"/>
		<circle class="st1" cx="70" cy="82.2" r="1.8"/>
		<circle class="st1" cx="67" cy="85.2" r="1.8"/>
		<circle class="st1" cx="63.9" cy="88.3" r="1.8"/>
		<circle class="st1" cx="60.8" cy="91.4" r="1.8"/>
		<circle class="st1" cx="57.8" cy="94.4" r="1.8"/>
		<text transform="matrix(-0.7071 0.7071 -0.7071 -0.7071 134.749 15.9746)" class="st1 st2 st3">00</text>
		<text transform="matrix(-0.7071 0.7071 -0.7071 -0.7071 18.3994 132.3242)" class="st1 st2 st3">00</text>
	</g>
	<g>
		<circle class="st1" cx="125.3" cy="18.5" r="1.9"/>
		<circle class="st1" cx="122.3" cy="21.6" r="1.8"/>
		<circle class="st1" cx="119.2" cy="24.6" r="1.8"/>
		<circle class="st1" cx="116.1" cy="27.7" r="1.8"/>
		<circle class="st1" cx="113.1" cy="30.7" r="1.8"/>
		<circle class="st1" cx="110" cy="33.8" r="1.8"/>
		<circle class="st1" cx="107" cy="36.8" r="1.8"/>
		<circle class="st1" cx="103.9" cy="39.9" r="1.8"/>
		<circle class="st1" cx="100.9" cy="43" r="1.8"/>
		<circle class="st1" cx="97.8" cy="46" r="1.8"/>
		<circle class="st1" cx="46.4" cy="97.4" r="1.8"/>
		<circle class="st1" cx="43.3" cy="100.5" r="1.8"/>
		<circle class="st1" cx="40.3" cy="103.6" r="1.8"/>
		<circle class="st1" cx="37.2" cy="106.6" r="1.8"/>
		<circle class="st1" cx="34.2" cy="109.7" r="1.8"/>
		<circle class="st1" cx="31.1" cy="112.7" r="1.8"/>
		<circle class="st1" cx="28" cy="115.8" r="1.8"/>
		<circle class="st1" cx="25" cy="118.8" r="1.8"/>
		<circle class="st1" cx="21.9" cy="121.9" r="1.8"/>
		<circle class="st1" cx="18.9" cy="124.9" r="1.9"/>
		<circle class="st1" cx="92" cy="51.8" r="1.8"/>
		<circle class="st1" cx="88.9" cy="54.9" r="1.8"/>
		<circle class="st1" cx="85.9" cy="58" r="1.8"/>
		<circle class="st1" cx="82.8" cy="61" r="1.8"/>
		<circle class="st1" cx="79.8" cy="64.1" r="1.8"/>
		<circle class="st1" cx="76.7" cy="67.1" r="1.8"/>
		<circle class="st1" cx="73.6" cy="70.2" r="1.8"/>
		<circle class="st1" cx="70.6" cy="73.2" r="1.8"/>
		<circle class="st1" cx="67.5" cy="76.3" r="1.8"/>
		<circle class="st1" cx="64.5" cy="79.4" r="1.8"/>
		<circle class="st1" cx="61.4" cy="82.4" r="1.8"/>
		<circle class="st1" cx="58.3" cy="85.5" r="1.8"/>
		<circle class="st1" cx="55.3" cy="88.5" r="1.8"/>
		<circle class="st1" cx="52.2" cy="91.6" r="1.8"/>
		<text transform="matrix(-0.7071 0.7071 -0.7071 -0.7071 129.1533 13.1699)" class="st1 st2 st3">00</text>
		<text transform="matrix(-0.7071 0.7071 -0.7071 -0.7071 15.9346 126.3897)" class="st1 st2 st3">00</text>
	</g>
</g>
</svg>
