<?xml version="1.0" encoding="utf-8"?>
<!-- Generator: Adobe Illustrator 23.0.1, SVG Export Plug-In . SVG Version: 6.00 Build 0)  -->
<svg version="1.1" id="Layer_1" xmlns="http://www.w3.org/2000/svg" xmlns:xlink="http://www.w3.org/1999/xlink" x="0px" y="0px"
	 viewBox="0 0 157 157" style="enable-background:new 0 0 157 157;" xml:space="preserve">
<style type="text/css">
	.st0{fill:#F1F3F4;stroke:#BCC8CE;stroke-width:0.4;stroke-linecap:round;stroke-miterlimit:10;}
	.st1{fill:#AEBDC4;}
	.st2{font-family:'Roboto-Medium';}
	.st3{font-size:3px;}
</style>
<polygon class="st0" points="39,0.6 0.5,91.2 65.8,156.5 156.4,118 "/>
<g>
	<g>
		<circle class="st1" cx="45.9" cy="22.4" r="1.8"/>
		<circle class="st1" cx="48.9" cy="25.4" r="1.8"/>
		<circle class="st1" cx="52" cy="28.5" r="1.8"/>
		<circle class="st1" cx="55" cy="31.5" r="1.8"/>
		<circle class="st1" cx="58.1" cy="34.6" r="1.8"/>
		<circle class="st1" cx="61.2" cy="37.6" r="1.8"/>
		<circle class="st1" cx="64.2" cy="40.7" r="1.8"/>
		<circle class="st1" cx="67.3" cy="43.8" r="1.8"/>
		<circle class="st1" cx="70.3" cy="46.8" r="1.8"/>
		<circle class="st1" cx="73.4" cy="49.9" r="1.8"/>
		<circle class="st1" cx="76.4" cy="52.9" r="1.8"/>
		<circle class="st1" cx="79.5" cy="56" r="1.8"/>
		<circle class="st1" cx="82.6" cy="59" r="1.8"/>
		<circle class="st1" cx="85.6" cy="62.1" r="1.8"/>
		<circle class="st1" cx="88.7" cy="65.2" r="1.8"/>
		<circle class="st1" cx="91.8" cy="68.2" r="1.8"/>
		<circle class="st1" cx="94.8" cy="71.3" r="1.8"/>
		<circle class="st1" cx="97.9" cy="74.4" r="1.8"/>
		<circle class="st1" cx="100.9" cy="77.4" r="1.8"/>
		<circle class="st1" cx="104" cy="80.5" r="1.8"/>
		<circle class="st1" cx="107.1" cy="83.6" r="1.8"/>
		<circle class="st1" cx="110.1" cy="86.6" r="1.8"/>
		<circle class="st1" cx="113.2" cy="89.7" r="1.8"/>
		<circle class="st1" cx="116.3" cy="92.7" r="1.8"/>
		<circle class="st1" cx="119.3" cy="95.8" r="1.8"/>
		<circle class="st1" cx="122.4" cy="98.9" r="1.8"/>
		<circle class="st1" cx="125.4" cy="101.9" r="1.8"/>
		<circle class="st1" cx="128.5" cy="105" r="1.9"/>
		<circle class="st1" cx="131.6" cy="108.1" r="1.9"/>
		<circle class="st1" cx="134.6" cy="111.1" r="1.9"/>
		<text transform="matrix(0.7071 0.7071 -0.7071 0.7071 40.541 18.5073)" class="st1 st2 st3">00</text>
		<text transform="matrix(0.7071 0.7071 -0.7071 0.7071 136.084 114.0508)" class="st1 st2 st3">00</text>
	</g>
	<g>
		<circle class="st1" cx="44.7" cy="29.6" r="1.8"/>
		<circle class="st1" cx="47.8" cy="32.7" r="1.8"/>
		<circle class="st1" cx="50.9" cy="35.7" r="1.8"/>
		<circle class="st1" cx="53.9" cy="38.8" r="1.8"/>
		<circle class="st1" cx="57" cy="41.8" r="1.8"/>
		<circle class="st1" cx="60" cy="44.9" r="1.8"/>
		<circle class="st1" cx="63.1" cy="48" r="1.8"/>
		<circle class="st1" cx="66.1" cy="51" r="1.8"/>
		<circle class="st1" cx="69.2" cy="54.1" r="1.8"/>
		<circle class="st1" cx="72.2" cy="57.1" r="1.8"/>
		<circle class="st1" cx="75.3" cy="60.2" r="1.8"/>
		<circle class="st1" cx="78.4" cy="63.2" r="1.8"/>
		<circle class="st1" cx="81.4" cy="66.3" r="1.8"/>
		<circle class="st1" cx="84.5" cy="69.4" r="1.8"/>
		<circle class="st1" cx="87.6" cy="72.4" r="1.8"/>
		<circle class="st1" cx="90.6" cy="75.5" r="1.8"/>
		<circle class="st1" cx="93.7" cy="78.6" r="1.8"/>
		<circle class="st1" cx="96.8" cy="81.6" r="1.8"/>
		<circle class="st1" cx="99.8" cy="84.7" r="1.8"/>
		<circle class="st1" cx="102.9" cy="87.7" r="1.8"/>
		<circle class="st1" cx="105.9" cy="90.8" r="1.8"/>
		<circle class="st1" cx="109" cy="93.9" r="1.8"/>
		<circle class="st1" cx="112.1" cy="96.9" r="1.8"/>
		<circle class="st1" cx="115.1" cy="100" r="1.8"/>
		<circle class="st1" cx="118.2" cy="103.1" r="1.8"/>
		<circle class="st1" cx="121.2" cy="106.1" r="1.8"/>
		<circle class="st1" cx="124.3" cy="109.2" r="1.8"/>
		<circle class="st1" cx="127.4" cy="112.2" r="1.8"/>
		<text transform="matrix(0.7071 0.7071 -0.7071 0.7071 39.4014 25.7573)" class="st1 st2 st3">00</text>
		<text transform="matrix(0.7071 0.7071 -0.7071 0.7071 128.8242 115.1807)" class="st1 st2 st3">00</text>
	</g>
	<g>
		<circle class="st1" cx="42.2" cy="35.5" r="1.8"/>
		<circle class="st1" cx="45.3" cy="38.5" r="1.8"/>
		<circle class="st1" cx="48.3" cy="41.6" r="1.8"/>
		<circle class="st1" cx="51.4" cy="44.6" r="1.8"/>
		<circle class="st1" cx="54.4" cy="47.7" r="1.8"/>
		<circle class="st1" cx="57.5" cy="50.8" r="1.8"/>
		<circle class="st1" cx="60.5" cy="53.8" r="1.8"/>
		<circle class="st1" cx="63.6" cy="56.9" r="1.8"/>
		<circle class="st1" cx="66.7" cy="59.9" r="1.8"/>
		<circle class="st1" cx="69.7" cy="63" r="1.8"/>
		<circle class="st1" cx="72.8" cy="66" r="1.8"/>
		<circle class="st1" cx="75.8" cy="69.1" r="1.8"/>
		<circle class="st1" cx="78.9" cy="72.2" r="1.8"/>
		<circle class="st1" cx="82" cy="75.2" r="1.8"/>
		<circle class="st1" cx="85" cy="78.3" r="1.8"/>
		<circle class="st1" cx="88.1" cy="81.4" r="1.8"/>
		<circle class="st1" cx="91.2" cy="84.4" r="1.8"/>
		<circle class="st1" cx="94.2" cy="87.5" r="1.8"/>
		<circle class="st1" cx="97.3" cy="90.5" r="1.8"/>
		<circle class="st1" cx="100.3" cy="93.6" r="1.8"/>
		<circle class="st1" cx="103.4" cy="96.7" r="1.8"/>
		<circle class="st1" cx="106.5" cy="99.7" r="1.8"/>
		<circle class="st1" cx="109.5" cy="102.8" r="1.8"/>
		<circle class="st1" cx="112.6" cy="105.9" r="1.8"/>
		<circle class="st1" cx="115.7" cy="108.9" r="1.8"/>
		<circle class="st1" cx="118.7" cy="112" r="1.8"/>
		<circle class="st1" cx="121.8" cy="115" r="1.8"/>
		<text transform="matrix(0.7071 0.7071 -0.7071 0.7071 36.8809 31.6174)" class="st1 st2 st3">00</text>
		<text transform="matrix(0.7071 0.7071 -0.7071 0.7071 123.1895 117.9255)" class="st1 st2 st3">00</text>
	</g>
	<g>
		<circle class="st1" cx="41.1" cy="42.7" r="1.8"/>
		<circle class="st1" cx="44.1" cy="45.8" r="1.8"/>
		<circle class="st1" cx="47.2" cy="48.8" r="1.8"/>
		<circle class="st1" cx="50.2" cy="51.9" r="1.8"/>
		<circle class="st1" cx="53.3" cy="55" r="1.8"/>
		<circle class="st1" cx="56.4" cy="58" r="1.8"/>
		<circle class="st1" cx="59.4" cy="61.1" r="1.8"/>
		<circle class="st1" cx="96.2" cy="97.8" r="1.8"/>
		<circle class="st1" cx="99.2" cy="100.9" r="1.8"/>
		<circle class="st1" cx="102.3" cy="103.9" r="1.8"/>
		<circle class="st1" cx="105.3" cy="107" r="1.8"/>
		<circle class="st1" cx="108.4" cy="110" r="1.8"/>
		<circle class="st1" cx="111.4" cy="113.1" r="1.8"/>
		<circle class="st1" cx="114.5" cy="116.1" r="1.8"/>
		<circle class="st1" cx="117.5" cy="119.2" r="1.8"/>
		<text transform="matrix(0.7071 0.7071 -0.7071 0.7071 35.7412 38.8674)" class="st1 st2 st3">00</text>
		<text transform="matrix(0.7071 0.7071 -0.7071 0.7071 118.9941 122.1206)" class="st1 st2 st3">00</text>
	</g>
	<g>
		<circle class="st1" cx="39.9" cy="50" r="1.8"/>
		<circle class="st1" cx="43" cy="53" r="1.8"/>
		<circle class="st1" cx="46.1" cy="56.1" r="1.8"/>
		<circle class="st1" cx="49.1" cy="59.1" r="1.8"/>
		<circle class="st1" cx="52.2" cy="62.2" r="1.8"/>
		<circle class="st1" cx="55.2" cy="65.2" r="1.8"/>
		<circle class="st1" cx="92" cy="102" r="1.8"/>
		<circle class="st1" cx="95" cy="105.1" r="1.8"/>
		<circle class="st1" cx="98.1" cy="108.1" r="1.8"/>
		<circle class="st1" cx="101.1" cy="111.2" r="1.8"/>
		<circle class="st1" cx="104.2" cy="114.2" r="1.8"/>
		<circle class="st1" cx="107.2" cy="117.3" r="1.8"/>
		<circle class="st1" cx="110.3" cy="120.3" r="1.8"/>
		<text transform="matrix(0.7071 0.7071 -0.7071 0.7071 34.6016 46.1174)" class="st1 st2 st3">00</text>
		<text transform="matrix(0.7071 0.7071 -0.7071 0.7071 111.749 123.2656)" class="st1 st2 st3">00</text>
	</g>
	<g>
		<circle class="st1" cx="35.8" cy="54.2" r="1.8"/>
		<circle class="st1" cx="38.8" cy="57.2" r="1.8"/>
		<circle class="st1" cx="41.9" cy="60.3" r="1.8"/>
		<circle class="st1" cx="44.9" cy="63.3" r="1.8"/>
		<circle class="st1" cx="48" cy="66.4" r="1.8"/>
		<circle class="st1" cx="51" cy="69.4" r="1.8"/>
		<circle class="st1" cx="87.8" cy="106.2" r="1.8"/>
		<circle class="st1" cx="90.8" cy="109.2" r="1.8"/>
		<circle class="st1" cx="93.9" cy="112.3" r="1.8"/>
		<circle class="st1" cx="96.9" cy="115.3" r="1.8"/>
		<circle class="st1" cx="100" cy="118.4" r="1.8"/>
		<circle class="st1" cx="103.1" cy="121.5" r="1.8"/>
		<text transform="matrix(0.7071 0.7071 -0.7071 0.7071 30.4111 50.3074)" class="st1 st2 st3">00</text>
		<text transform="matrix(0.7071 0.7071 -0.7071 0.7071 104.5049 124.4006)" class="st1 st2 st3">00</text>
	</g>
	<g>
		<circle class="st1" cx="34.6" cy="61.4" r="1.8"/>
		<circle class="st1" cx="37.7" cy="64.5" r="1.8"/>
		<circle class="st1" cx="40.7" cy="67.5" r="1.8"/>
		<circle class="st1" cx="43.8" cy="70.6" r="1.8"/>
		<circle class="st1" cx="46.8" cy="73.6" r="1.8"/>
		<circle class="st1" cx="83.6" cy="110.4" r="1.8"/>
		<circle class="st1" cx="86.6" cy="113.4" r="1.8"/>
		<circle class="st1" cx="89.7" cy="116.5" r="1.8"/>
		<circle class="st1" cx="92.7" cy="119.6" r="1.8"/>
		<circle class="st1" cx="95.8" cy="122.6" r="1.8"/>
		<circle class="st1" cx="98.8" cy="125.7" r="1.8"/>
		<text transform="matrix(0.7071 0.7071 -0.7071 0.7071 29.2715 57.5674)" class="st1 st2 st3">00</text>
		<text transform="matrix(0.7071 0.7071 -0.7071 0.7071 100.3047 128.6006)" class="st1 st2 st3">00</text>
	</g>
	<g>
		<circle class="st1" cx="33.5" cy="68.7" r="1.8"/>
		<circle class="st1" cx="36.5" cy="71.7" r="1.8"/>
		<circle class="st1" cx="39.6" cy="74.8" r="1.8"/>
		<circle class="st1" cx="42.6" cy="77.8" r="1.8"/>
		<circle class="st1" cx="79.4" cy="114.6" r="1.8"/>
		<circle class="st1" cx="82.4" cy="117.6" r="1.8"/>
		<circle class="st1" cx="85.5" cy="120.7" r="1.8"/>
		<circle class="st1" cx="88.6" cy="123.7" r="1.8"/>
		<circle class="st1" cx="91.6" cy="126.8" r="1.9"/>
		<text transform="matrix(0.7071 0.7071 -0.7071 0.7071 28.1309 64.8274)" class="st1 st2 st3">00</text>
		<text transform="matrix(0.7071 0.7071 -0.7071 0.7071 93.0449 129.7407)" class="st1 st2 st3">00</text>
	</g>
	<g>
		<circle class="st1" cx="32.3" cy="75.9" r="1.8"/>
		<circle class="st1" cx="35.4" cy="79" r="1.8"/>
		<circle class="st1" cx="38.5" cy="82" r="1.8"/>
		<circle class="st1" cx="75.2" cy="118.8" r="1.8"/>
		<circle class="st1" cx="78.2" cy="121.8" r="1.8"/>
		<circle class="st1" cx="81.3" cy="124.9" r="1.8"/>
		<circle class="st1" cx="84.3" cy="127.9" r="1.9"/>
		<circle class="st1" cx="87.4" cy="131" r="1.9"/>
		<text transform="matrix(0.7071 0.7071 -0.7071 0.7071 26.9912 72.0874)" class="st1 st2 st3">00</text>
		<text transform="matrix(0.7071 0.7071 -0.7071 0.7071 88.8447 133.9407)" class="st1 st2 st3">00</text>
	</g>
	<g>
		<circle class="st1" cx="28.1" cy="80.1" r="1.8"/>
		<circle class="st1" cx="31.2" cy="83.2" r="1.8"/>
		<circle class="st1" cx="34.2" cy="86.2" r="1.8"/>
		<circle class="st1" cx="71" cy="123" r="1.8"/>
		<circle class="st1" cx="74.1" cy="126" r="1.8"/>
		<circle class="st1" cx="77.1" cy="129.1" r="1.9"/>
		<circle class="st1" cx="80.2" cy="132.1" r="1.9"/>
		<text transform="matrix(0.7071 0.7071 -0.7071 0.7071 22.8115 76.2673)" class="st1 st2 st3">00</text>
		<text transform="matrix(0.7071 0.7071 -0.7071 0.7071 81.6094 135.0657)" class="st1 st2 st3">00</text>
	</g>
	<g>
		<circle class="st1" cx="66.8" cy="127.2" r="1.9"/>
		<circle class="st1" cx="69.9" cy="130.2" r="1.9"/>
		<circle class="st1" cx="72.9" cy="133.3" r="1.9"/>
		<circle class="st1" cx="24" cy="84.3" r="1.8"/>
		<circle class="st1" cx="27" cy="87.4" r="1.8"/>
		<circle class="st1" cx="30.1" cy="90.4" r="1.8"/>
		<text transform="matrix(0.7071 0.7071 -0.7071 0.7071 18.6309 80.4473)" class="st1 st2 st3">00</text>
		<text transform="matrix(0.7071 0.7071 -0.7071 0.7071 74.375 136.1907)" class="st1 st2 st3">00</text>
	</g>
	<g>
		<circle class="st1" cx="62.6" cy="131.4" r="1.9"/>
		<circle class="st1" cx="65.7" cy="134.4" r="1.9"/>
		<circle class="st1" cx="22.8" cy="91.6" r="1.8"/>
		<circle class="st1" cx="25.9" cy="94.6" r="1.8"/>
		<text transform="matrix(0.7071 0.7071 -0.7071 0.7071 17.4766 87.7024)" class="st1 st2 st3">00</text>
		<text transform="matrix(0.7071 0.7071 -0.7071 0.7071 67.1143 137.3406)" class="st1 st2 st3">00</text>
	</g>
	<g>
		<circle class="st1" cx="58.4" cy="135.5" r="1.9"/>
		<circle class="st1" cx="61.5" cy="138.6" r="1.9"/>
		<circle class="st1" cx="18.6" cy="95.8" r="1.8"/>
		<circle class="st1" cx="21.7" cy="98.8" r="1.8"/>
		<text transform="matrix(0.7071 0.7071 -0.7071 0.7071 13.2813 91.8972)" class="st1 st2 st3">00</text>
		<text transform="matrix(0.7071 0.7071 -0.7071 0.7071 62.9199 141.5356)" class="st1 st2 st3">00</text>
	</g>
</g>
</svg>
