<?xml version="1.0" encoding="utf-8"?>
<!-- Generator: Adobe Illustrator 23.0.1, SVG Export Plug-In . SVG Version: 6.00 Build 0)  -->
<svg version="1.1" id="Layer_1" xmlns="http://www.w3.org/2000/svg" xmlns:xlink="http://www.w3.org/1999/xlink" x="0px" y="0px"
	 viewBox="0 0 157 157" style="enable-background:new 0 0 157 157;" xml:space="preserve">
<style type="text/css">
	.st0{fill:#F1F3F4;stroke:#BCC8CE;stroke-width:0.4;stroke-linecap:round;stroke-miterlimit:10;}
	.st1{fill:#AEBDC4;}
	.st2{font-family:'Roboto-Medium';}
	.st3{font-size:3px;}
</style>
<polygon class="st0" points="118,156.4 156.5,65.8 91.2,0.5 0.6,39 "/>
<g>
	<g>
		<circle class="st1" cx="110.2" cy="138.6" r="1.9"/>
		<circle class="st1" cx="107.2" cy="135.6" r="1.9"/>
		<circle class="st1" cx="104.1" cy="132.5" r="1.9"/>
		<circle class="st1" cx="101.1" cy="129.4" r="1.9"/>
		<circle class="st1" cx="98" cy="126.4" r="1.8"/>
		<circle class="st1" cx="94.9" cy="123.3" r="1.8"/>
		<circle class="st1" cx="91.9" cy="120.3" r="1.8"/>
		<circle class="st1" cx="88.8" cy="117.2" r="1.8"/>
		<circle class="st1" cx="85.8" cy="114.2" r="1.8"/>
		<circle class="st1" cx="82.7" cy="111.1" r="1.8"/>
		<circle class="st1" cx="79.7" cy="108" r="1.8"/>
		<circle class="st1" cx="76.6" cy="105" r="1.8"/>
		<circle class="st1" cx="73.5" cy="101.9" r="1.8"/>
		<circle class="st1" cx="70.5" cy="98.8" r="1.8"/>
		<circle class="st1" cx="67.4" cy="95.8" r="1.8"/>
		<circle class="st1" cx="64.3" cy="92.7" r="1.8"/>
		<circle class="st1" cx="61.3" cy="89.7" r="1.8"/>
		<circle class="st1" cx="58.2" cy="86.6" r="1.8"/>
		<circle class="st1" cx="55.2" cy="83.5" r="1.8"/>
		<circle class="st1" cx="52.1" cy="80.5" r="1.8"/>
		<circle class="st1" cx="49" cy="77.4" r="1.8"/>
		<circle class="st1" cx="46" cy="74.3" r="1.8"/>
		<circle class="st1" cx="42.9" cy="71.3" r="1.8"/>
		<circle class="st1" cx="39.8" cy="68.2" r="1.8"/>
		<circle class="st1" cx="36.8" cy="65.2" r="1.8"/>
		<circle class="st1" cx="33.7" cy="62.1" r="1.8"/>
		<circle class="st1" cx="30.6" cy="59" r="1.8"/>
		<circle class="st1" cx="27.6" cy="56" r="1.8"/>
		<circle class="st1" cx="24.5" cy="52.9" r="1.8"/>
		<circle class="st1" cx="21.5" cy="49.8" r="1.8"/>
		<circle class="st1" cx="18.4" cy="46.8" r="1.8"/>
		<text transform="matrix(-0.7071 -0.7071 0.7071 -0.7071 115.5693 142.4521)" class="st1 st2 st3">00</text>
		<text transform="matrix(-0.7071 -0.7071 0.7071 -0.7071 16.9609 43.8447)" class="st1 st2 st3">00</text>
	</g>
	<g>
		<circle class="st1" cx="109.8" cy="129.8" r="1.9"/>
		<circle class="st1" cx="106.7" cy="126.7" r="1.8"/>
		<circle class="st1" cx="103.7" cy="123.7" r="1.8"/>
		<circle class="st1" cx="100.6" cy="120.6" r="1.8"/>
		<circle class="st1" cx="97.6" cy="117.6" r="1.8"/>
		<circle class="st1" cx="94.5" cy="114.5" r="1.8"/>
		<circle class="st1" cx="91.5" cy="111.5" r="1.8"/>
		<circle class="st1" cx="88.4" cy="108.4" r="1.8"/>
		<circle class="st1" cx="85.3" cy="105.3" r="1.8"/>
		<circle class="st1" cx="82.3" cy="102.3" r="1.8"/>
		<circle class="st1" cx="79.2" cy="99.2" r="1.8"/>
		<circle class="st1" cx="76.2" cy="96.2" r="1.8"/>
		<circle class="st1" cx="73.1" cy="93.1" r="1.8"/>
		<circle class="st1" cx="70" cy="90" r="1.8"/>
		<circle class="st1" cx="67" cy="87" r="1.8"/>
		<circle class="st1" cx="63.9" cy="83.9" r="1.8"/>
		<circle class="st1" cx="60.8" cy="80.8" r="1.8"/>
		<circle class="st1" cx="57.8" cy="77.8" r="1.8"/>
		<circle class="st1" cx="54.7" cy="74.7" r="1.8"/>
		<circle class="st1" cx="51.7" cy="71.7" r="1.8"/>
		<circle class="st1" cx="48.6" cy="68.6" r="1.8"/>
		<circle class="st1" cx="45.5" cy="65.5" r="1.8"/>
		<circle class="st1" cx="42.5" cy="62.5" r="1.8"/>
		<circle class="st1" cx="39.4" cy="59.4" r="1.8"/>
		<circle class="st1" cx="36.3" cy="56.3" r="1.8"/>
		<circle class="st1" cx="33.3" cy="53.3" r="1.8"/>
		<circle class="st1" cx="30.2" cy="50.2" r="1.8"/>
		<circle class="st1" cx="27.2" cy="47.2" r="1.8"/>
		<text transform="matrix(-0.7071 -0.7071 0.7071 -0.7071 115.1343 133.6377)" class="st1 st2 st3">00</text>
		<text transform="matrix(-0.7071 -0.7071 0.7071 -0.7071 25.7212 44.2256)" class="st1 st2 st3">00</text>
	</g>
	<g>
		<circle class="st1" cx="112.3" cy="123.9" r="1.8"/>
		<circle class="st1" cx="109.3" cy="120.9" r="1.8"/>
		<circle class="st1" cx="106.2" cy="117.8" r="1.8"/>
		<circle class="st1" cx="103.2" cy="114.8" r="1.8"/>
		<circle class="st1" cx="100.1" cy="111.7" r="1.8"/>
		<circle class="st1" cx="97" cy="108.7" r="1.8"/>
		<circle class="st1" cx="94" cy="105.6" r="1.8"/>
		<circle class="st1" cx="90.9" cy="102.5" r="1.8"/>
		<circle class="st1" cx="87.9" cy="99.5" r="1.8"/>
		<circle class="st1" cx="84.8" cy="96.4" r="1.8"/>
		<circle class="st1" cx="81.8" cy="93.4" r="1.8"/>
		<circle class="st1" cx="78.7" cy="90.3" r="1.8"/>
		<circle class="st1" cx="75.6" cy="87.2" r="1.8"/>
		<circle class="st1" cx="72.6" cy="84.2" r="1.8"/>
		<circle class="st1" cx="69.5" cy="81.1" r="1.8"/>
		<circle class="st1" cx="66.4" cy="78.1" r="1.8"/>
		<circle class="st1" cx="63.4" cy="75" r="1.8"/>
		<circle class="st1" cx="60.3" cy="71.9" r="1.8"/>
		<circle class="st1" cx="57.2" cy="68.9" r="1.8"/>
		<circle class="st1" cx="54.2" cy="65.8" r="1.8"/>
		<circle class="st1" cx="51.1" cy="62.7" r="1.8"/>
		<circle class="st1" cx="48.1" cy="59.7" r="1.8"/>
		<circle class="st1" cx="45" cy="56.6" r="1.8"/>
		<circle class="st1" cx="41.9" cy="53.5" r="1.8"/>
		<circle class="st1" cx="38.9" cy="50.5" r="1.8"/>
		<circle class="st1" cx="35.8" cy="47.4" r="1.8"/>
		<circle class="st1" cx="32.8" cy="44.4" r="1.8"/>
		<text transform="matrix(-0.7071 -0.7071 0.7071 -0.7071 117.6592 127.7842)" class="st1 st2 st3">00</text>
		<text transform="matrix(-0.7071 -0.7071 0.7071 -0.7071 31.3013 41.4248)" class="st1 st2 st3">00</text>
	</g>
	<g>
		<circle class="st1" cx="113.4" cy="116.7" r="1.8"/>
		<circle class="st1" cx="110.4" cy="113.6" r="1.8"/>
		<circle class="st1" cx="107.3" cy="110.6" r="1.8"/>
		<circle class="st1" cx="104.3" cy="107.5" r="1.8"/>
		<circle class="st1" cx="101.2" cy="104.4" r="1.8"/>
		<circle class="st1" cx="98.2" cy="101.4" r="1.8"/>
		<circle class="st1" cx="95.1" cy="98.3" r="1.8"/>
		<circle class="st1" cx="92.1" cy="95.3" r="1.8"/>
		<circle class="st1" cx="89" cy="92.2" r="1.8"/>
		<circle class="st1" cx="85.9" cy="89.2" r="1.8"/>
		<circle class="st1" cx="82.9" cy="86.1" r="1.8"/>
		<circle class="st1" cx="79.8" cy="83" r="1.8"/>
		<circle class="st1" cx="76.8" cy="80" r="1.8"/>
		<circle class="st1" cx="73.7" cy="76.9" r="1.8"/>
		<circle class="st1" cx="70.6" cy="73.9" r="1.8"/>
		<circle class="st1" cx="67.6" cy="70.8" r="1.8"/>
		<circle class="st1" cx="64.5" cy="67.7" r="1.8"/>
		<circle class="st1" cx="61.5" cy="64.7" r="1.8"/>
		<circle class="st1" cx="58.4" cy="61.6" r="1.8"/>
		<circle class="st1" cx="55.3" cy="58.5" r="1.8"/>
		<circle class="st1" cx="52.3" cy="55.5" r="1.8"/>
		<circle class="st1" cx="49.2" cy="52.4" r="1.8"/>
		<circle class="st1" cx="46.1" cy="49.4" r="1.8"/>
		<circle class="st1" cx="43.1" cy="46.3" r="1.8"/>
		<circle class="st1" cx="40" cy="43.2" r="1.8"/>
		<text transform="matrix(-0.7071 -0.7071 0.7071 -0.7071 118.7944 120.5283)" class="st1 st2 st3">00</text>
		<text transform="matrix(-0.7071 -0.7071 0.7071 -0.7071 38.561 40.2939)" class="st1 st2 st3">00</text>
	</g>
	<g>
		<circle class="st1" cx="117.7" cy="112.5" r="1.8"/>
		<circle class="st1" cx="114.6" cy="109.4" r="1.8"/>
		<circle class="st1" cx="111.5" cy="106.4" r="1.8"/>
		<circle class="st1" cx="108.5" cy="103.3" r="1.8"/>
		<circle class="st1" cx="105.4" cy="100.3" r="1.8"/>
		<circle class="st1" cx="102.4" cy="97.2" r="1.8"/>
		<circle class="st1" cx="99.3" cy="94.2" r="1.8"/>
		<circle class="st1" cx="96.3" cy="91.1" r="1.8"/>
		<circle class="st1" cx="93.2" cy="88" r="1.8"/>
		<circle class="st1" cx="90.1" cy="85" r="1.8"/>
		<circle class="st1" cx="87.1" cy="81.9" r="1.8"/>
		<circle class="st1" cx="84" cy="78.8" r="1.8"/>
		<circle class="st1" cx="80.9" cy="75.8" r="1.8"/>
		<circle class="st1" cx="77.9" cy="72.7" r="1.8"/>
		<circle class="st1" cx="74.8" cy="69.7" r="1.8"/>
		<circle class="st1" cx="71.8" cy="66.6" r="1.8"/>
		<circle class="st1" cx="68.7" cy="63.5" r="1.8"/>
		<circle class="st1" cx="65.6" cy="60.5" r="1.8"/>
		<circle class="st1" cx="62.6" cy="57.4" r="1.8"/>
		<circle class="st1" cx="59.5" cy="54.3" r="1.8"/>
		<circle class="st1" cx="56.5" cy="51.3" r="1.8"/>
		<circle class="st1" cx="53.4" cy="48.2" r="1.8"/>
		<circle class="st1" cx="50.3" cy="45.2" r="1.8"/>
		<circle class="st1" cx="47.3" cy="42.1" r="1.8"/>
		<circle class="st1" cx="44.2" cy="39" r="1.8"/>
		<text transform="matrix(-0.7071 -0.7071 0.7071 -0.7071 122.9844 116.3389)" class="st1 st2 st3">00</text>
		<text transform="matrix(-0.7071 -0.7071 0.7071 -0.7071 42.751 36.1045)" class="st1 st2 st3">00</text>
	</g>
	<g>
		<circle class="st1" cx="118.8" cy="105.2" r="1.8"/>
		<circle class="st1" cx="115.7" cy="102.2" r="1.8"/>
		<circle class="st1" cx="112.7" cy="99.1" r="1.8"/>
		<circle class="st1" cx="109.6" cy="96.1" r="1.8"/>
		<circle class="st1" cx="106.6" cy="93" r="1.8"/>
		<circle class="st1" cx="103.5" cy="89.9" r="1.8"/>
		<circle class="st1" cx="100.4" cy="86.9" r="1.8"/>
		<circle class="st1" cx="97.4" cy="83.8" r="1.8"/>
		<circle class="st1" cx="94.3" cy="80.8" r="1.8"/>
		<circle class="st1" cx="91.3" cy="77.7" r="1.8"/>
		<circle class="st1" cx="88.2" cy="74.7" r="1.8"/>
		<circle class="st1" cx="85.2" cy="71.6" r="1.8"/>
		<circle class="st1" cx="82.1" cy="68.5" r="1.8"/>
		<circle class="st1" cx="79" cy="65.5" r="1.8"/>
		<circle class="st1" cx="76" cy="62.4" r="1.8"/>
		<circle class="st1" cx="72.9" cy="59.3" r="1.8"/>
		<circle class="st1" cx="69.8" cy="56.3" r="1.8"/>
		<circle class="st1" cx="66.8" cy="53.2" r="1.8"/>
		<circle class="st1" cx="63.7" cy="50.2" r="1.8"/>
		<circle class="st1" cx="60.7" cy="47.1" r="1.8"/>
		<circle class="st1" cx="57.6" cy="44" r="1.8"/>
		<circle class="st1" cx="54.5" cy="41" r="1.8"/>
		<circle class="st1" cx="51.5" cy="37.9" r="1.8"/>
		<text transform="matrix(-0.7071 -0.7071 0.7071 -0.7071 124.1191 109.083)" class="st1 st2 st3">00</text>
		<text transform="matrix(-0.7071 -0.7071 0.7071 -0.7071 50.0161 34.9795)" class="st1 st2 st3">00</text>
	</g>
	<g>
		<circle class="st1" cx="119.9" cy="98" r="1.8"/>
		<circle class="st1" cx="116.8" cy="94.9" r="1.8"/>
		<circle class="st1" cx="113.8" cy="91.9" r="1.8"/>
		<circle class="st1" cx="110.7" cy="88.8" r="1.8"/>
		<circle class="st1" cx="107.7" cy="85.8" r="1.8"/>
		<circle class="st1" cx="104.6" cy="82.7" r="1.8"/>
		<circle class="st1" cx="101.6" cy="79.6" r="1.8"/>
		<circle class="st1" cx="98.5" cy="76.6" r="1.8"/>
		<circle class="st1" cx="95.5" cy="73.5" r="1.8"/>
		<circle class="st1" cx="92.4" cy="70.5" r="1.8"/>
		<circle class="st1" cx="89.3" cy="67.4" r="1.8"/>
		<circle class="st1" cx="86.3" cy="64.3" r="1.8"/>
		<circle class="st1" cx="83.2" cy="61.3" r="1.8"/>
		<circle class="st1" cx="80.2" cy="58.2" r="1.8"/>
		<circle class="st1" cx="77.1" cy="55.2" r="1.8"/>
		<circle class="st1" cx="74" cy="52.1" r="1.8"/>
		<circle class="st1" cx="71" cy="49" r="1.8"/>
		<circle class="st1" cx="67.9" cy="46" r="1.8"/>
		<circle class="st1" cx="64.8" cy="42.9" r="1.8"/>
		<circle class="st1" cx="61.8" cy="39.8" r="1.8"/>
		<circle class="st1" cx="58.7" cy="36.8" r="1.8"/>
		<text transform="matrix(-0.7071 -0.7071 0.7071 -0.7071 125.2495 101.8232)" class="st1 st2 st3">00</text>
		<text transform="matrix(-0.7071 -0.7071 0.7071 -0.7071 57.2661 33.8408)" class="st1 st2 st3">00</text>
	</g>
	<g>
		<circle class="st1" cx="122.7" cy="92.4" r="1.8"/>
		<circle class="st1" cx="119.7" cy="89.3" r="1.8"/>
		<circle class="st1" cx="116.6" cy="86.3" r="1.8"/>
		<circle class="st1" cx="113.5" cy="83.2" r="1.8"/>
		<circle class="st1" cx="110.5" cy="80.2" r="1.8"/>
		<circle class="st1" cx="107.4" cy="77.1" r="1.8"/>
		<circle class="st1" cx="104.4" cy="74.1" r="1.8"/>
		<circle class="st1" cx="101.3" cy="71" r="1.8"/>
		<circle class="st1" cx="98.3" cy="67.9" r="1.8"/>
		<circle class="st1" cx="95.2" cy="64.9" r="1.8"/>
		<circle class="st1" cx="92.1" cy="61.8" r="1.8"/>
		<circle class="st1" cx="89.1" cy="58.8" r="1.8"/>
		<circle class="st1" cx="86" cy="55.7" r="1.8"/>
		<circle class="st1" cx="83" cy="52.6" r="1.8"/>
		<circle class="st1" cx="79.9" cy="49.6" r="1.8"/>
		<circle class="st1" cx="76.8" cy="46.5" r="1.8"/>
		<circle class="st1" cx="73.8" cy="43.4" r="1.8"/>
		<circle class="st1" cx="70.7" cy="40.4" r="1.8"/>
		<circle class="st1" cx="67.6" cy="37.3" r="1.8"/>
		<circle class="st1" cx="64.6" cy="34.2" r="1.8"/>
		<text transform="matrix(-0.7071 -0.7071 0.7071 -0.7071 127.9917 96.1748)" class="st1 st2 st3">00</text>
		<text transform="matrix(-0.7071 -0.7071 0.7071 -0.7071 63.1309 31.3154)" class="st1 st2 st3">00</text>
	</g>
	<g>
		<circle class="st1" cx="125.2" cy="86.5" r="1.8"/>
		<circle class="st1" cx="122.2" cy="83.5" r="1.8"/>
		<circle class="st1" cx="119.1" cy="80.4" r="1.8"/>
		<circle class="st1" cx="116.1" cy="77.3" r="1.8"/>
		<circle class="st1" cx="113" cy="74.3" r="1.8"/>
		<circle class="st1" cx="110" cy="71.2" r="1.8"/>
		<circle class="st1" cx="106.9" cy="68.2" r="1.8"/>
		<circle class="st1" cx="103.8" cy="65.1" r="1.8"/>
		<circle class="st1" cx="100.8" cy="62.1" r="1.8"/>
		<circle class="st1" cx="97.7" cy="59" r="1.8"/>
		<circle class="st1" cx="94.7" cy="56" r="1.8"/>
		<circle class="st1" cx="91.6" cy="52.9" r="1.8"/>
		<circle class="st1" cx="88.5" cy="49.8" r="1.8"/>
		<circle class="st1" cx="85.5" cy="46.8" r="1.8"/>
		<circle class="st1" cx="82.4" cy="43.7" r="1.8"/>
		<circle class="st1" cx="79.3" cy="40.6" r="1.8"/>
		<circle class="st1" cx="76.3" cy="37.6" r="1.8"/>
		<circle class="st1" cx="73.2" cy="34.5" r="1.8"/>
		<circle class="st1" cx="70.2" cy="31.5" r="1.8"/>
		<text transform="matrix(-0.7071 -0.7071 0.7071 -0.7071 130.5742 90.3682)" class="st1 st2 st3">00</text>
		<text transform="matrix(-0.7071 -0.7071 0.7071 -0.7071 68.7212 28.5146)" class="st1 st2 st3">00</text>
	</g>
	<g>
		<circle class="st1" cx="125" cy="77.9" r="1.8"/>
		<circle class="st1" cx="121.9" cy="74.8" r="1.8"/>
		<circle class="st1" cx="118.9" cy="71.8" r="1.8"/>
		<circle class="st1" cx="115.8" cy="68.7" r="1.8"/>
		<circle class="st1" cx="112.8" cy="65.7" r="1.8"/>
		<circle class="st1" cx="109.7" cy="62.6" r="1.8"/>
		<circle class="st1" cx="106.6" cy="59.5" r="1.8"/>
		<circle class="st1" cx="103.6" cy="56.5" r="1.8"/>
		<circle class="st1" cx="100.5" cy="53.4" r="1.8"/>
		<circle class="st1" cx="97.5" cy="50.4" r="1.8"/>
		<circle class="st1" cx="94.4" cy="47.3" r="1.8"/>
		<circle class="st1" cx="91.3" cy="44.2" r="1.8"/>
		<circle class="st1" cx="88.3" cy="41.2" r="1.8"/>
		<circle class="st1" cx="85.2" cy="38.1" r="1.8"/>
		<circle class="st1" cx="82.2" cy="35" r="1.8"/>
		<circle class="st1" cx="79.1" cy="32" r="1.8"/>
		<text transform="matrix(-0.7071 -0.7071 0.7071 -0.7071 130.3145 81.7275)" class="st1 st2 st3">00</text>
		<text transform="matrix(-0.7071 -0.7071 0.7071 -0.7071 77.6411 29.0557)" class="st1 st2 st3">00</text>
	</g>
	<g>
		<circle class="st1" cx="127.5" cy="72" r="1.9"/>
		<circle class="st1" cx="124.4" cy="68.9" r="1.8"/>
		<circle class="st1" cx="121.4" cy="65.9" r="1.8"/>
		<circle class="st1" cx="118.3" cy="62.8" r="1.8"/>
		<circle class="st1" cx="115.3" cy="59.8" r="1.8"/>
		<circle class="st1" cx="112.2" cy="56.7" r="1.8"/>
		<circle class="st1" cx="109.2" cy="53.7" r="1.8"/>
		<circle class="st1" cx="106.1" cy="50.6" r="1.8"/>
		<circle class="st1" cx="103.1" cy="47.6" r="1.8"/>
		<circle class="st1" cx="100" cy="44.5" r="1.8"/>
		<circle class="st1" cx="96.9" cy="41.4" r="1.8"/>
		<circle class="st1" cx="93.9" cy="38.4" r="1.8"/>
		<circle class="st1" cx="90.8" cy="35.3" r="1.8"/>
		<circle class="st1" cx="87.7" cy="32.2" r="1.8"/>
		<circle class="st1" cx="84.7" cy="29.2" r="1.8"/>
		<text transform="matrix(-0.7071 -0.7071 0.7071 -0.7071 132.8442 75.8779)" class="st1 st2 st3">00</text>
		<text transform="matrix(-0.7071 -0.7071 0.7071 -0.7071 83.2261 26.2607)" class="st1 st2 st3">00</text>
	</g>
	<g>
		<circle class="st1" cx="127.2" cy="63.4" r="1.8"/>
		<circle class="st1" cx="124.2" cy="60.3" r="1.8"/>
		<circle class="st1" cx="121.1" cy="57.2" r="1.8"/>
		<circle class="st1" cx="118.1" cy="54.2" r="1.8"/>
		<circle class="st1" cx="115" cy="51.1" r="1.8"/>
		<circle class="st1" cx="112" cy="48.1" r="1.8"/>
		<circle class="st1" cx="108.9" cy="45" r="1.8"/>
		<circle class="st1" cx="105.8" cy="42" r="1.8"/>
		<circle class="st1" cx="102.8" cy="38.9" r="1.8"/>
		<circle class="st1" cx="99.7" cy="35.8" r="1.8"/>
		<circle class="st1" cx="96.7" cy="32.8" r="1.8"/>
		<circle class="st1" cx="93.6" cy="29.7" r="1.8"/>
		<text transform="matrix(-0.7071 -0.7071 0.7071 -0.7071 132.584 67.208)" class="st1 st2 st3">00</text>
		<text transform="matrix(-0.7071 -0.7071 0.7071 -0.7071 92.1655 26.79)" class="st1 st2 st3">00</text>
	</g>
	<g>
		<circle class="st1" cx="131.4" cy="59.2" r="1.9"/>
		<circle class="st1" cx="128.4" cy="56.1" r="1.9"/>
		<circle class="st1" cx="125.3" cy="53.1" r="1.8"/>
		<circle class="st1" cx="122.3" cy="50" r="1.8"/>
		<circle class="st1" cx="119.2" cy="47" r="1.8"/>
		<circle class="st1" cx="116.2" cy="43.9" r="1.8"/>
		<circle class="st1" cx="113.1" cy="40.8" r="1.8"/>
		<circle class="st1" cx="110" cy="37.8" r="1.8"/>
		<circle class="st1" cx="107" cy="34.7" r="1.8"/>
		<circle class="st1" cx="103.9" cy="31.7" r="1.8"/>
		<circle class="st1" cx="100.9" cy="28.6" r="1.8"/>
		<circle class="st1" cx="97.8" cy="25.5" r="1.8"/>
		<text transform="matrix(-0.7071 -0.7071 0.7071 -0.7071 136.769 63.0225)" class="st1 st2 st3">00</text>
		<text transform="matrix(-0.7071 -0.7071 0.7071 -0.7071 96.3511 22.6045)" class="st1 st2 st3">00</text>
	</g>
	<g>
		<circle class="st1" cx="134.1" cy="53.4" r="1.9"/>
		<circle class="st1" cx="131" cy="50.4" r="1.9"/>
		<circle class="st1" cx="128" cy="47.3" r="1.8"/>
		<circle class="st1" cx="124.9" cy="44.3" r="1.8"/>
		<circle class="st1" cx="121.9" cy="41.2" r="1.8"/>
		<circle class="st1" cx="118.8" cy="38.2" r="1.8"/>
		<circle class="st1" cx="115.8" cy="35.1" r="1.8"/>
		<circle class="st1" cx="112.7" cy="32" r="1.8"/>
		<circle class="st1" cx="109.7" cy="29" r="1.8"/>
		<circle class="st1" cx="106.6" cy="25.9" r="1.8"/>
		<circle class="st1" cx="103.5" cy="22.9" r="1.8"/>
		<text transform="matrix(-0.7071 -0.7071 0.7071 -0.7071 139.4292 57.2939)" class="st1 st2 st3">00</text>
		<text transform="matrix(-0.7071 -0.7071 0.7071 -0.7071 102.0713 19.9346)" class="st1 st2 st3">00</text>
	</g>
</g>
</svg>
