<?xml version="1.0" encoding="utf-8"?>
<!-- Generator: Adobe Illustrator 23.0.1, SVG Export Plug-In . SVG Version: 6.00 Build 0)  -->
<svg version="1.1" id="Layer_1" xmlns="http://www.w3.org/2000/svg" xmlns:xlink="http://www.w3.org/1999/xlink" x="0px" y="0px"
	 viewBox="0 0 168 168" style="enable-background:new 0 0 168 168;" xml:space="preserve">
<style type="text/css">
	.st0{fill:#F1F3F4;stroke:#BCC8CE;stroke-width:0.4;stroke-linecap:round;stroke-miterlimit:10;}
	.st1{fill:#AEBDC4;}
	.st2{font-family:'Roboto-Medium';}
	.st3{font-size:3px;}
</style>
<polygon class="st0" points="44.4,0.4 0.5,16.8 151.2,167.5 167.6,123.6 "/>
<g>
	<g>
		<circle class="st1" cx="145.9" cy="144.6" r="1.9"/>
		<circle class="st1" cx="142.8" cy="141.5" r="1.9"/>
		<circle class="st1" cx="139.8" cy="138.5" r="1.9"/>
		<circle class="st1" cx="136.7" cy="135.4" r="1.9"/>
		<circle class="st1" cx="133.6" cy="132.4" r="1.9"/>
		<circle class="st1" cx="130.6" cy="129.3" r="1.9"/>
		<circle class="st1" cx="127.5" cy="126.2" r="1.9"/>
		<circle class="st1" cx="124.5" cy="123.2" r="1.8"/>
		<circle class="st1" cx="121.4" cy="120.1" r="1.8"/>
		<circle class="st1" cx="118.4" cy="117.1" r="1.8"/>
		<circle class="st1" cx="115.3" cy="114" r="1.8"/>
		<circle class="st1" cx="112.2" cy="110.9" r="1.8"/>
		<circle class="st1" cx="109.2" cy="107.9" r="1.8"/>
		<circle class="st1" cx="106.1" cy="104.8" r="1.8"/>
		<circle class="st1" cx="103.1" cy="101.8" r="1.8"/>
		<circle class="st1" cx="100" cy="98.7" r="1.8"/>
		<circle class="st1" cx="96.9" cy="95.6" r="1.8"/>
		<circle class="st1" cx="93.9" cy="92.6" r="1.8"/>
		<circle class="st1" cx="90.8" cy="89.5" r="1.8"/>
		<circle class="st1" cx="87.7" cy="86.4" r="1.8"/>
		<circle class="st1" cx="84.7" cy="83.4" r="1.8"/>
		<circle class="st1" cx="81.6" cy="80.3" r="1.8"/>
		<circle class="st1" cx="78.6" cy="77.3" r="1.8"/>
		<circle class="st1" cx="75.5" cy="74.2" r="1.8"/>
		<circle class="st1" cx="72.4" cy="71.1" r="1.8"/>
		<circle class="st1" cx="69.4" cy="68.1" r="1.8"/>
		<circle class="st1" cx="66.3" cy="65" r="1.8"/>
		<circle class="st1" cx="63.2" cy="62" r="1.8"/>
		<circle class="st1" cx="60.2" cy="58.9" r="1.8"/>
		<circle class="st1" cx="57.1" cy="55.8" r="1.8"/>
		<circle class="st1" cx="54.1" cy="52.8" r="1.8"/>
		<circle class="st1" cx="51" cy="49.7" r="1.8"/>
		<circle class="st1" cx="47.9" cy="46.6" r="1.8"/>
		<circle class="st1" cx="44.9" cy="43.6" r="1.8"/>
		<circle class="st1" cx="41.8" cy="40.5" r="1.8"/>
		<circle class="st1" cx="38.8" cy="37.5" r="1.8"/>
		<circle class="st1" cx="35.7" cy="34.4" r="1.8"/>
		<circle class="st1" cx="32.6" cy="31.3" r="1.8"/>
		<circle class="st1" cx="29.6" cy="28.3" r="1.9"/>
		<circle class="st1" cx="26.5" cy="25.2" r="1.9"/>
		<circle class="st1" cx="23.4" cy="22.1" r="1.9"/>
		<text transform="matrix(-0.7071 -0.7071 0.7071 -0.7071 151.209 148.4326)" class="st1 st2 st3">00</text>
		<text transform="matrix(-0.7071 -0.7071 0.7071 -0.7071 21.9805 19.2041)" class="st1 st2 st3">00</text>
	</g>
	<g>
		<circle class="st1" cx="142.6" cy="132.9" r="1.9"/>
		<circle class="st1" cx="139.5" cy="129.8" r="1.9"/>
		<circle class="st1" cx="136.4" cy="126.8" r="1.9"/>
		<circle class="st1" cx="133.4" cy="123.7" r="1.9"/>
		<circle class="st1" cx="130.3" cy="120.7" r="1.9"/>
		<circle class="st1" cx="127.3" cy="117.6" r="1.9"/>
		<circle class="st1" cx="124.2" cy="114.6" r="1.8"/>
		<circle class="st1" cx="121.2" cy="111.5" r="1.8"/>
		<circle class="st1" cx="118.1" cy="108.4" r="1.8"/>
		<circle class="st1" cx="115.1" cy="105.4" r="1.8"/>
		<circle class="st1" cx="112" cy="102.3" r="1.8"/>
		<circle class="st1" cx="108.9" cy="99.2" r="1.8"/>
		<circle class="st1" cx="105.9" cy="96.2" r="1.8"/>
		<circle class="st1" cx="102.8" cy="93.1" r="1.8"/>
		<circle class="st1" cx="99.7" cy="90.1" r="1.8"/>
		<circle class="st1" cx="96.7" cy="87" r="1.8"/>
		<circle class="st1" cx="93.6" cy="83.9" r="1.8"/>
		<circle class="st1" cx="90.6" cy="80.9" r="1.8"/>
		<circle class="st1" cx="87.5" cy="77.8" r="1.8"/>
		<circle class="st1" cx="84.4" cy="74.8" r="1.8"/>
		<circle class="st1" cx="81.4" cy="71.7" r="1.8"/>
		<circle class="st1" cx="78.3" cy="68.6" r="1.8"/>
		<circle class="st1" cx="75.2" cy="65.6" r="1.8"/>
		<circle class="st1" cx="72.2" cy="62.5" r="1.8"/>
		<circle class="st1" cx="69.1" cy="59.4" r="1.8"/>
		<circle class="st1" cx="66.1" cy="56.4" r="1.8"/>
		<circle class="st1" cx="63" cy="53.3" r="1.8"/>
		<circle class="st1" cx="59.9" cy="50.2" r="1.8"/>
		<circle class="st1" cx="56.9" cy="47.2" r="1.8"/>
		<circle class="st1" cx="53.8" cy="44.1" r="1.8"/>
		<circle class="st1" cx="50.7" cy="41.1" r="1.8"/>
		<circle class="st1" cx="47.7" cy="38" r="1.8"/>
		<circle class="st1" cx="44.6" cy="34.9" r="1.8"/>
		<circle class="st1" cx="41.6" cy="31.9" r="1.8"/>
		<circle class="st1" cx="38.5" cy="28.8" r="1.8"/>
		<circle class="st1" cx="35.4" cy="25.8" r="1.8"/>
		<text transform="matrix(-0.7071 -0.7071 0.7071 -0.7071 147.8989 136.7314)" class="st1 st2 st3">00</text>
		<text transform="matrix(-0.7071 -0.7071 0.7071 -0.7071 33.9805 22.8135)" class="st1 st2 st3">00</text>
	</g>
	<g>
		<circle class="st1" cx="145.1" cy="127" r="1.9"/>
		<circle class="st1" cx="142" cy="124" r="1.9"/>
		<circle class="st1" cx="139" cy="120.9" r="1.9"/>
		<circle class="st1" cx="135.9" cy="117.8" r="1.9"/>
		<circle class="st1" cx="132.9" cy="114.8" r="1.9"/>
		<circle class="st1" cx="129.8" cy="111.7" r="1.9"/>
		<circle class="st1" cx="126.8" cy="108.7" r="1.9"/>
		<circle class="st1" cx="123.7" cy="105.6" r="1.8"/>
		<circle class="st1" cx="120.6" cy="102.6" r="1.8"/>
		<circle class="st1" cx="117.6" cy="99.5" r="1.8"/>
		<circle class="st1" cx="114.5" cy="96.4" r="1.8"/>
		<circle class="st1" cx="111.4" cy="93.4" r="1.8"/>
		<circle class="st1" cx="108.4" cy="90.3" r="1.8"/>
		<circle class="st1" cx="105.3" cy="87.3" r="1.8"/>
		<circle class="st1" cx="102.3" cy="84.2" r="1.8"/>
		<circle class="st1" cx="99.2" cy="81.1" r="1.8"/>
		<circle class="st1" cx="96.1" cy="78.1" r="1.8"/>
		<circle class="st1" cx="93.1" cy="75" r="1.8"/>
		<circle class="st1" cx="90" cy="71.9" r="1.8"/>
		<circle class="st1" cx="86.9" cy="68.9" r="1.8"/>
		<circle class="st1" cx="83.9" cy="65.8" r="1.8"/>
		<circle class="st1" cx="80.8" cy="62.8" r="1.8"/>
		<circle class="st1" cx="77.8" cy="59.7" r="1.8"/>
		<circle class="st1" cx="74.7" cy="56.6" r="1.8"/>
		<circle class="st1" cx="71.6" cy="53.6" r="1.8"/>
		<circle class="st1" cx="68.6" cy="50.5" r="1.8"/>
		<circle class="st1" cx="65.5" cy="47.5" r="1.8"/>
		<circle class="st1" cx="62.5" cy="44.4" r="1.8"/>
		<circle class="st1" cx="59.4" cy="41.3" r="1.8"/>
		<circle class="st1" cx="56.3" cy="38.3" r="1.8"/>
		<circle class="st1" cx="53.3" cy="35.2" r="1.8"/>
		<circle class="st1" cx="50.2" cy="32.1" r="1.8"/>
		<circle class="st1" cx="47.1" cy="29.1" r="1.8"/>
		<circle class="st1" cx="44.1" cy="26" r="1.8"/>
		<circle class="st1" cx="41" cy="23" r="1.8"/>
		<text transform="matrix(-0.7071 -0.7071 0.7071 -0.7071 150.4341 130.876)" class="st1 st2 st3">00</text>
		<text transform="matrix(-0.7071 -0.7071 0.7071 -0.7071 39.5708 20.0127)" class="st1 st2 st3">00</text>
	</g>
	<g>
		<circle class="st1" cx="147.9" cy="121.4" r="1.9"/>
		<circle class="st1" cx="144.8" cy="118.4" r="1.9"/>
		<circle class="st1" cx="141.8" cy="115.3" r="1.9"/>
		<circle class="st1" cx="138.7" cy="112.3" r="1.9"/>
		<circle class="st1" cx="135.7" cy="109.2" r="1.9"/>
		<circle class="st1" cx="132.6" cy="106.2" r="1.9"/>
		<circle class="st1" cx="129.6" cy="103.1" r="1.9"/>
		<circle class="st1" cx="126.5" cy="100" r="1.9"/>
		<circle class="st1" cx="123.4" cy="97" r="1.8"/>
		<circle class="st1" cx="120.4" cy="93.9" r="1.8"/>
		<circle class="st1" cx="117.3" cy="90.9" r="1.8"/>
		<circle class="st1" cx="114.2" cy="87.8" r="1.8"/>
		<circle class="st1" cx="111.2" cy="84.7" r="1.8"/>
		<circle class="st1" cx="108.1" cy="81.7" r="1.8"/>
		<circle class="st1" cx="105.1" cy="78.6" r="1.8"/>
		<circle class="st1" cx="102" cy="75.6" r="1.8"/>
		<circle class="st1" cx="98.9" cy="72.5" r="1.8"/>
		<circle class="st1" cx="95.9" cy="69.4" r="1.8"/>
		<circle class="st1" cx="92.8" cy="66.4" r="1.8"/>
		<circle class="st1" cx="89.8" cy="63.3" r="1.8"/>
		<circle class="st1" cx="86.7" cy="60.2" r="1.8"/>
		<circle class="st1" cx="83.6" cy="57.2" r="1.8"/>
		<circle class="st1" cx="80.6" cy="54.1" r="1.8"/>
		<circle class="st1" cx="77.5" cy="51" r="1.8"/>
		<circle class="st1" cx="74.4" cy="48" r="1.8"/>
		<circle class="st1" cx="71.4" cy="44.9" r="1.8"/>
		<circle class="st1" cx="68.3" cy="41.9" r="1.8"/>
		<circle class="st1" cx="65.3" cy="38.8" r="1.8"/>
		<circle class="st1" cx="62.2" cy="35.7" r="1.8"/>
		<circle class="st1" cx="59.1" cy="32.7" r="1.8"/>
		<circle class="st1" cx="56.1" cy="29.6" r="1.8"/>
		<circle class="st1" cx="53" cy="26.5" r="1.8"/>
		<circle class="st1" cx="50" cy="23.5" r="1.8"/>
		<circle class="st1" cx="46.9" cy="20.4" r="1.8"/>
		<text transform="matrix(-0.7071 -0.7071 0.7071 -0.7071 153.2241 125.2764)" class="st1 st2 st3">00</text>
		<text transform="matrix(-0.7071 -0.7071 0.7071 -0.7071 45.4307 17.4834)" class="st1 st2 st3">00</text>
	</g>
</g>
</svg>
