<?xml version="1.0" encoding="utf-8"?>
<!-- Generator: Adobe Illustrator 23.0.1, SVG Export Plug-In . SVG Version: 6.00 Build 0)  -->
<svg version="1.1" id="Layer_1" xmlns="http://www.w3.org/2000/svg" xmlns:xlink="http://www.w3.org/1999/xlink" x="0px" y="0px"
	 viewBox="0 0 157 157" style="enable-background:new 0 0 157 157;" xml:space="preserve">
<style type="text/css">
	.st0{fill:#F1F3F4;stroke:#BCC8CE;stroke-width:0.4;stroke-linecap:round;stroke-miterlimit:10;}
	.st1{fill:#AEBDC4;}
	.st2{font-family:'Roboto-Medium';}
	.st3{font-size:3px;}
</style>
<polygon class="st0" points="0.6,118 91.2,156.5 156.5,91.2 118,0.6 "/>
<g>
	<g>
		<circle class="st1" cx="93.9" cy="142.3" r="1.9"/>
		<circle class="st1" cx="96.9" cy="139.3" r="1.9"/>
		<circle class="st1" cx="138.9" cy="97.3" r="1.9"/>
		<circle class="st1" cx="142" cy="94.2" r="1.9"/>
		<text transform="matrix(0.7071 -0.7071 0.7071 0.7071 90.0376 147.6587)" class="st1 st2 st3">00</text>
		<text transform="matrix(0.7071 -0.7071 0.7071 0.7071 144.9009 92.7954)" class="st1 st2 st3">00</text>
	</g>
	<g>
		<circle class="st1" cx="89.7" cy="138.1" r="1.9"/>
		<circle class="st1" cx="92.7" cy="135.1" r="1.9"/>
		<circle class="st1" cx="134.7" cy="93.1" r="1.9"/>
		<circle class="st1" cx="137.8" cy="90.1" r="1.9"/>
		<circle class="st1" cx="140.8" cy="87" r="1.9"/>
		<text transform="matrix(0.7071 -0.7071 0.7071 0.7071 85.8477 143.4688)" class="st1 st2 st3">00</text>
		<text transform="matrix(0.7071 -0.7071 0.7071 0.7071 143.7659 85.5508)" class="st1 st2 st3">00</text>
	</g>
	<g>
		<circle class="st1" cx="85.5" cy="133.9" r="1.9"/>
		<circle class="st1" cx="88.6" cy="130.9" r="1.9"/>
		<circle class="st1" cx="130.5" cy="88.9" r="1.9"/>
		<circle class="st1" cx="133.6" cy="85.9" r="1.9"/>
		<circle class="st1" cx="136.6" cy="82.8" r="1.9"/>
		<text transform="matrix(0.7071 -0.7071 0.7071 0.7071 81.6577 139.2788)" class="st1 st2 st3">00</text>
		<text transform="matrix(0.7071 -0.7071 0.7071 0.7071 139.5811 81.3555)" class="st1 st2 st3">00</text>
	</g>
	<g>
		<circle class="st1" cx="78.2" cy="132.8" r="1.9"/>
		<circle class="st1" cx="81.3" cy="129.8" r="1.9"/>
		<circle class="st1" cx="84.4" cy="126.7" r="1.9"/>
		<circle class="st1" cx="126.3" cy="84.7" r="1.9"/>
		<circle class="st1" cx="129.4" cy="81.7" r="1.9"/>
		<circle class="st1" cx="132.4" cy="78.6" r="1.9"/>
		<text transform="matrix(0.7071 -0.7071 0.7071 0.7071 74.4026 138.144)" class="st1 st2 st3">00</text>
		<text transform="matrix(0.7071 -0.7071 0.7071 0.7071 135.386 77.1606)" class="st1 st2 st3">00</text>
	</g>
	<g>
		<circle class="st1" cx="71" cy="131.7" r="1.9"/>
		<circle class="st1" cx="74.1" cy="128.6" r="1.9"/>
		<circle class="st1" cx="77.1" cy="125.6" r="1.8"/>
		<circle class="st1" cx="80.2" cy="122.5" r="1.8"/>
		<circle class="st1" cx="122.1" cy="80.5" r="1.8"/>
		<circle class="st1" cx="125.2" cy="77.5" r="1.8"/>
		<circle class="st1" cx="128.2" cy="74.4" r="1.9"/>
		<circle class="st1" cx="131.3" cy="71.4" r="1.9"/>
		<text transform="matrix(0.7071 -0.7071 0.7071 0.7071 67.1526 137.0137)" class="st1 st2 st3">00</text>
		<text transform="matrix(0.7071 -0.7071 0.7071 0.7071 134.251 69.9155)" class="st1 st2 st3">00</text>
	</g>
	<g>
		<circle class="st1" cx="117.9" cy="76.3" r="1.8"/>
		<circle class="st1" cx="121" cy="73.3" r="1.8"/>
		<circle class="st1" cx="124.1" cy="70.2" r="1.8"/>
		<circle class="st1" cx="127.1" cy="67.2" r="1.8"/>
		<circle class="st1" cx="63.8" cy="130.5" r="1.9"/>
		<circle class="st1" cx="66.8" cy="127.5" r="1.8"/>
		<circle class="st1" cx="69.9" cy="124.4" r="1.8"/>
		<circle class="st1" cx="72.9" cy="121.4" r="1.8"/>
		<circle class="st1" cx="76" cy="118.3" r="1.8"/>
		<text transform="matrix(0.7071 -0.7071 0.7071 0.7071 59.8823 135.8638)" class="st1 st2 st3">00</text>
		<text transform="matrix(0.7071 -0.7071 0.7071 0.7071 130.0405 65.7051)" class="st1 st2 st3">00</text>
		<text transform="matrix(0.7071 -0.7071 0.7071 0.7071 52.6426 134.7236)" class="st1 st2 st3">00</text>
		<text transform="matrix(0.7071 -0.7071 0.7071 0.7071 125.8508 61.5156)" class="st1 st2 st3">00</text>
	</g>
	<g>
		<circle class="st1" cx="113.8" cy="72.1" r="1.8"/>
		<circle class="st1" cx="116.8" cy="69.1" r="1.8"/>
		<circle class="st1" cx="119.9" cy="66" r="1.8"/>
		<circle class="st1" cx="122.9" cy="63" r="1.8"/>
		<circle class="st1" cx="56.5" cy="129.4" r="1.9"/>
		<circle class="st1" cx="59.5" cy="126.3" r="1.9"/>
		<circle class="st1" cx="62.6" cy="123.3" r="1.8"/>
		<circle class="st1" cx="65.7" cy="120.2" r="1.8"/>
		<circle class="st1" cx="68.7" cy="117.2" r="1.8"/>
		<circle class="st1" cx="71.8" cy="114.1" r="1.8"/>
	</g>
	<g>
		<circle class="st1" cx="109.6" cy="67.9" r="1.8"/>
		<circle class="st1" cx="112.6" cy="64.9" r="1.8"/>
		<circle class="st1" cx="115.7" cy="61.8" r="1.8"/>
		<circle class="st1" cx="118.7" cy="58.8" r="1.8"/>
		<circle class="st1" cx="121.8" cy="55.7" r="1.8"/>
		<circle class="st1" cx="52.3" cy="125.2" r="1.8"/>
		<circle class="st1" cx="55.4" cy="122.2" r="1.8"/>
		<circle class="st1" cx="58.4" cy="119.1" r="1.8"/>
		<circle class="st1" cx="61.5" cy="116" r="1.8"/>
		<circle class="st1" cx="64.5" cy="113" r="1.8"/>
		<circle class="st1" cx="67.6" cy="109.9" r="1.8"/>
		<text transform="matrix(0.7071 -0.7071 0.7071 0.7071 48.4526 130.5342)" class="st1 st2 st3">00</text>
		<text transform="matrix(0.7071 -0.7071 0.7071 0.7071 124.7158 54.2705)" class="st1 st2 st3">00</text>
	</g>
	<g>
		<circle class="st1" cx="48.1" cy="121" r="1.8"/>
		<circle class="st1" cx="51.2" cy="118" r="1.8"/>
		<circle class="st1" cx="54.2" cy="114.9" r="1.8"/>
		<circle class="st1" cx="57.3" cy="111.8" r="1.8"/>
		<circle class="st1" cx="60.3" cy="108.8" r="1.8"/>
		<circle class="st1" cx="63.4" cy="105.7" r="1.8"/>
		<circle class="st1" cx="105.4" cy="63.8" r="1.8"/>
		<circle class="st1" cx="108.4" cy="60.7" r="1.8"/>
		<circle class="st1" cx="111.5" cy="57.6" r="1.8"/>
		<circle class="st1" cx="114.5" cy="54.6" r="1.8"/>
		<circle class="st1" cx="117.6" cy="51.5" r="1.8"/>
		<circle class="st1" cx="120.7" cy="48.5" r="1.8"/>
		<text transform="matrix(0.7071 -0.7071 0.7071 0.7071 44.2627 126.3437)" class="st1 st2 st3">00</text>
		<text transform="matrix(0.7071 -0.7071 0.7071 0.7071 123.5808 47.0259)" class="st1 st2 st3">00</text>
	</g>
	<g>
		<circle class="st1" cx="40.9" cy="119.9" r="1.8"/>
		<circle class="st1" cx="43.9" cy="116.8" r="1.8"/>
		<circle class="st1" cx="47" cy="113.8" r="1.8"/>
		<circle class="st1" cx="50" cy="110.7" r="1.8"/>
		<circle class="st1" cx="53.1" cy="107.7" r="1.8"/>
		<circle class="st1" cx="56.1" cy="104.6" r="1.8"/>
		<circle class="st1" cx="59.2" cy="101.5" r="1.8"/>
		<circle class="st1" cx="101.2" cy="59.6" r="1.8"/>
		<circle class="st1" cx="104.2" cy="56.5" r="1.8"/>
		<circle class="st1" cx="107.3" cy="53.5" r="1.8"/>
		<circle class="st1" cx="110.3" cy="50.4" r="1.8"/>
		<circle class="st1" cx="113.4" cy="47.3" r="1.8"/>
		<circle class="st1" cx="116.4" cy="44.3" r="1.8"/>
		<circle class="st1" cx="119.5" cy="41.2" r="1.8"/>
		<text transform="matrix(0.7071 -0.7071 0.7071 0.7071 37.0076 125.209)" class="st1 st2 st3">00</text>
		<text transform="matrix(0.7071 -0.7071 0.7071 0.7071 122.4509 39.7656)" class="st1 st2 st3">00</text>
	</g>
	<g>
		<circle class="st1" cx="36.7" cy="115.7" r="1.8"/>
		<circle class="st1" cx="39.7" cy="112.6" r="1.8"/>
		<circle class="st1" cx="42.8" cy="109.6" r="1.8"/>
		<circle class="st1" cx="45.8" cy="106.5" r="1.8"/>
		<circle class="st1" cx="48.9" cy="103.5" r="1.8"/>
		<circle class="st1" cx="52" cy="100.4" r="1.8"/>
		<circle class="st1" cx="55" cy="97.3" r="1.8"/>
		<circle class="st1" cx="97" cy="55.4" r="1.8"/>
		<circle class="st1" cx="100" cy="52.3" r="1.8"/>
		<circle class="st1" cx="103.1" cy="49.2" r="1.8"/>
		<circle class="st1" cx="106.2" cy="46.2" r="1.8"/>
		<circle class="st1" cx="109.2" cy="43.1" r="1.8"/>
		<circle class="st1" cx="112.3" cy="40.1" r="1.8"/>
		<circle class="st1" cx="115.3" cy="37" r="1.8"/>
		<circle class="st1" cx="62.2" cy="90.1" r="1.8"/>
		<circle class="st1" cx="65.3" cy="87.1" r="1.8"/>
		<circle class="st1" cx="68.3" cy="84" r="1.8"/>
		<circle class="st1" cx="71.4" cy="81" r="1.8"/>
		<circle class="st1" cx="74.4" cy="77.9" r="1.8"/>
		<circle class="st1" cx="77.5" cy="74.8" r="1.8"/>
		<circle class="st1" cx="80.6" cy="71.8" r="1.8"/>
		<circle class="st1" cx="83.6" cy="68.7" r="1.8"/>
		<circle class="st1" cx="86.7" cy="65.7" r="1.8"/>
		<circle class="st1" cx="89.7" cy="62.6" r="1.8"/>
		<text transform="matrix(0.7071 -0.7071 0.7071 0.7071 32.8176 121.019)" class="st1 st2 st3">00</text>
		<text transform="matrix(0.7071 -0.7071 0.7071 0.7071 118.261 35.5757)" class="st1 st2 st3">00</text>
	</g>
	<g>
		<circle class="st1" cx="29.4" cy="114.6" r="1.8"/>
		<circle class="st1" cx="32.5" cy="111.5" r="1.8"/>
		<circle class="st1" cx="35.5" cy="108.4" r="1.8"/>
		<circle class="st1" cx="38.6" cy="105.4" r="1.8"/>
		<circle class="st1" cx="41.6" cy="102.3" r="1.8"/>
		<circle class="st1" cx="44.7" cy="99.3" r="1.8"/>
		<circle class="st1" cx="47.8" cy="96.2" r="1.8"/>
		<circle class="st1" cx="95.8" cy="48.1" r="1.8"/>
		<circle class="st1" cx="98.9" cy="45" r="1.8"/>
		<circle class="st1" cx="102" cy="42" r="1.8"/>
		<circle class="st1" cx="105" cy="38.9" r="1.8"/>
		<circle class="st1" cx="108.1" cy="35.9" r="1.8"/>
		<circle class="st1" cx="111.1" cy="32.8" r="1.8"/>
		<circle class="st1" cx="114.2" cy="29.8" r="1.8"/>
		<circle class="st1" cx="55" cy="89" r="1.8"/>
		<circle class="st1" cx="58" cy="85.9" r="1.8"/>
		<circle class="st1" cx="61.1" cy="82.9" r="1.8"/>
		<circle class="st1" cx="64.1" cy="79.8" r="1.8"/>
		<circle class="st1" cx="67.2" cy="76.8" r="1.8"/>
		<circle class="st1" cx="70.2" cy="73.7" r="1.8"/>
		<circle class="st1" cx="73.3" cy="70.7" r="1.8"/>
		<circle class="st1" cx="76.4" cy="67.6" r="1.8"/>
		<circle class="st1" cx="79.4" cy="64.6" r="1.8"/>
		<circle class="st1" cx="82.5" cy="61.5" r="1.8"/>
		<circle class="st1" cx="85.5" cy="58.4" r="1.8"/>
		<circle class="st1" cx="88.6" cy="55.4" r="1.8"/>
		<text transform="matrix(0.7071 -0.7071 0.7071 0.7071 25.5627 119.894)" class="st1 st2 st3">00</text>
		<text transform="matrix(0.7071 -0.7071 0.7071 0.7071 117.126 28.3306)" class="st1 st2 st3">00</text>
	</g>
	<g>
		<circle class="st1" cx="19.1" cy="116.5" r="1.8"/>
		<circle class="st1" cx="22.2" cy="113.4" r="1.8"/>
		<circle class="st1" cx="25.2" cy="110.4" r="1.8"/>
		<circle class="st1" cx="28.3" cy="107.3" r="1.8"/>
		<circle class="st1" cx="31.3" cy="104.2" r="1.8"/>
		<circle class="st1" cx="34.4" cy="101.2" r="1.8"/>
		<circle class="st1" cx="37.4" cy="98.1" r="1.8"/>
		<circle class="st1" cx="40.5" cy="95.1" r="1.8"/>
		<circle class="st1" cx="43.5" cy="92" r="1.8"/>
		<circle class="st1" cx="91.7" cy="43.9" r="1.8"/>
		<circle class="st1" cx="94.7" cy="40.9" r="1.8"/>
		<circle class="st1" cx="97.8" cy="37.8" r="1.8"/>
		<circle class="st1" cx="100.8" cy="34.8" r="1.8"/>
		<circle class="st1" cx="103.9" cy="31.7" r="1.8"/>
		<circle class="st1" cx="106.9" cy="28.6" r="1.8"/>
		<circle class="st1" cx="110" cy="25.6" r="1.8"/>
		<circle class="st1" cx="113.1" cy="22.5" r="1.8"/>
		<circle class="st1" cx="116.1" cy="19.5" r="1.8"/>
		<circle class="st1" cx="50.8" cy="84.8" r="1.8"/>
		<circle class="st1" cx="53.8" cy="81.7" r="1.8"/>
		<circle class="st1" cx="56.9" cy="78.7" r="1.8"/>
		<circle class="st1" cx="59.9" cy="75.6" r="1.8"/>
		<circle class="st1" cx="63" cy="72.6" r="1.8"/>
		<circle class="st1" cx="66.1" cy="69.5" r="1.8"/>
		<circle class="st1" cx="69.1" cy="66.5" r="1.8"/>
		<circle class="st1" cx="72.2" cy="63.4" r="1.8"/>
		<circle class="st1" cx="75.2" cy="60.3" r="1.8"/>
		<circle class="st1" cx="78.3" cy="57.3" r="1.8"/>
		<circle class="st1" cx="81.3" cy="54.2" r="1.8"/>
		<circle class="st1" cx="84.4" cy="51.2" r="1.8"/>
		<text transform="matrix(0.7071 -0.7071 0.7071 0.7071 15.2483 121.8086)" class="st1 st2 st3">00</text>
		<text transform="matrix(0.7071 -0.7071 0.7071 0.7071 119.0359 18.021)" class="st1 st2 st3">00</text>
	</g>
</g>
</svg>
