<?xml version="1.0" encoding="utf-8"?>
<!-- Generator: Adobe Illustrator 23.0.1, SVG Export Plug-In . SVG Version: 6.00 Build 0)  -->
<svg version="1.1" id="Layer_1" xmlns="http://www.w3.org/2000/svg" xmlns:xlink="http://www.w3.org/1999/xlink" x="0px" y="0px"
	 viewBox="0 0 61 132" style="enable-background:new 0 0 61 132;" xml:space="preserve">
<style type="text/css">
	.st0{fill:#F1F3F4;stroke:#BCC8CE;stroke-width:0.4;stroke-linecap:round;stroke-miterlimit:10;}
	.st1{fill:#AEBDC4;}
	.st2{font-family:'Roboto-Medium';}
	.st3{font-size:3px;}
</style>
<polygon class="st0" points="0.4,131.3 0.4,0.8 60.6,26 60.6,131.3 "/>
<g>
	<g>
		<circle class="st1" cx="11.1" cy="122.3" r="1.8"/>
		<circle class="st1" cx="15.4" cy="122.3" r="1.8"/>
		<circle class="st1" cx="19.7" cy="122.3" r="1.8"/>
		<circle class="st1" cx="24" cy="122.3" r="1.8"/>
		<text transform="matrix(1 0 0 1 4.5608 123.3206)" class="st1 st2 st3">00</text>
		<text transform="matrix(1 0 0 1 27.1208 123.3206)" class="st1 st2 st3">00</text>
	</g>
	<g>
		<circle class="st1" cx="11.1" cy="116.3" r="1.8"/>
		<circle class="st1" cx="15.4" cy="116.3" r="1.8"/>
		<circle class="st1" cx="19.7" cy="116.3" r="1.8"/>
		<circle class="st1" cx="24" cy="116.3" r="1.8"/>
		<text transform="matrix(1 0 0 1 4.5608 117.3905)" class="st1 st2 st3">00</text>
		<text transform="matrix(1 0 0 1 27.1208 117.3905)" class="st1 st2 st3">00</text>
	</g>
	<g>
		<circle class="st1" cx="11.1" cy="110.4" r="1.8"/>
		<circle class="st1" cx="15.4" cy="110.4" r="1.8"/>
		<circle class="st1" cx="19.7" cy="110.4" r="1.8"/>
		<circle class="st1" cx="24" cy="110.4" r="1.8"/>
		<circle class="st1" cx="28.3" cy="110.4" r="1.8"/>
		<circle class="st1" cx="32.7" cy="110.4" r="1.8"/>
		<circle class="st1" cx="37" cy="110.4" r="1.8"/>
		<circle class="st1" cx="41.3" cy="110.4" r="1.8"/>
		<circle class="st1" cx="45.6" cy="110.4" r="1.8"/>
		<circle class="st1" cx="50" cy="110.4" r="1.8"/>
		<text transform="matrix(1 0 0 1 4.5608 111.4604)" class="st1 st2 st3">00</text>
		<text transform="matrix(1 0 0 1 53.0509 111.4604)" class="st1 st2 st3">00</text>
	</g>
	<g>
		<circle class="st1" cx="11.1" cy="104.5" r="1.8"/>
		<circle class="st1" cx="15.4" cy="104.5" r="1.8"/>
		<circle class="st1" cx="19.7" cy="104.5" r="1.8"/>
		<circle class="st1" cx="24" cy="104.5" r="1.8"/>
		<circle class="st1" cx="28.3" cy="104.5" r="1.8"/>
		<circle class="st1" cx="32.7" cy="104.5" r="1.8"/>
		<circle class="st1" cx="37" cy="104.5" r="1.8"/>
		<circle class="st1" cx="41.3" cy="104.5" r="1.8"/>
		<circle class="st1" cx="45.6" cy="104.5" r="1.8"/>
		<circle class="st1" cx="50" cy="104.5" r="1.8"/>
		<text transform="matrix(1 0 0 1 4.5608 105.5304)" class="st1 st2 st3">00</text>
		<text transform="matrix(1 0 0 1 53.0509 105.5304)" class="st1 st2 st3">00</text>
	</g>
	<g>
		<circle class="st1" cx="11.1" cy="98.6" r="1.8"/>
		<circle class="st1" cx="15.4" cy="98.6" r="1.8"/>
		<circle class="st1" cx="19.7" cy="98.6" r="1.8"/>
		<circle class="st1" cx="24" cy="98.6" r="1.8"/>
		<circle class="st1" cx="28.3" cy="98.6" r="1.8"/>
		<circle class="st1" cx="32.7" cy="98.6" r="1.8"/>
		<circle class="st1" cx="37" cy="98.6" r="1.8"/>
		<circle class="st1" cx="41.3" cy="98.6" r="1.8"/>
		<circle class="st1" cx="45.6" cy="98.6" r="1.8"/>
		<circle class="st1" cx="50" cy="98.6" r="1.8"/>
		<text transform="matrix(1 0 0 1 4.5608 99.6003)" class="st1 st2 st3">00</text>
		<text transform="matrix(1 0 0 1 53.0509 99.6003)" class="st1 st2 st3">00</text>
	</g>
	<g>
		<circle class="st1" cx="19.7" cy="92.6" r="1.8"/>
		<circle class="st1" cx="24" cy="92.6" r="1.8"/>
		<circle class="st1" cx="28.4" cy="92.6" r="1.8"/>
		<circle class="st1" cx="32.7" cy="92.6" r="1.8"/>
		<circle class="st1" cx="37" cy="92.6" r="1.8"/>
		<circle class="st1" cx="41.3" cy="92.6" r="1.8"/>
		<circle class="st1" cx="45.6" cy="92.6" r="1.8"/>
		<circle class="st1" cx="50" cy="92.6" r="1.8"/>
		<text transform="matrix(1 0 0 1 13.2008 93.6703)" class="st1 st2 st3">00</text>
		<text transform="matrix(1 0 0 1 53.0509 93.6703)" class="st1 st2 st3">00</text>
	</g>
	<g>
		<circle class="st1" cx="19.7" cy="86.7" r="1.8"/>
		<circle class="st1" cx="24" cy="86.7" r="1.8"/>
		<circle class="st1" cx="28.4" cy="86.7" r="1.8"/>
		<circle class="st1" cx="32.7" cy="86.7" r="1.8"/>
		<circle class="st1" cx="37" cy="86.7" r="1.8"/>
		<circle class="st1" cx="41.3" cy="86.7" r="1.8"/>
		<circle class="st1" cx="45.6" cy="86.7" r="1.8"/>
		<circle class="st1" cx="50" cy="86.7" r="1.8"/>
		<text transform="matrix(1 0 0 1 13.2008 87.7402)" class="st1 st2 st3">00</text>
		<text transform="matrix(1 0 0 1 53.0509 87.7402)" class="st1 st2 st3">00</text>
	</g>
	<g>
		<circle class="st1" cx="19.7" cy="80.8" r="1.8"/>
		<circle class="st1" cx="24" cy="80.8" r="1.8"/>
		<circle class="st1" cx="28.4" cy="80.8" r="1.8"/>
		<circle class="st1" cx="32.7" cy="80.8" r="1.8"/>
		<circle class="st1" cx="37" cy="80.8" r="1.8"/>
		<circle class="st1" cx="41.3" cy="80.8" r="1.8"/>
		<circle class="st1" cx="45.6" cy="80.8" r="1.8"/>
		<circle class="st1" cx="50" cy="80.8" r="1.8"/>
		<text transform="matrix(1 0 0 1 13.2008 81.8102)" class="st1 st2 st3">00</text>
		<text transform="matrix(1 0 0 1 53.0509 81.8102)" class="st1 st2 st3">00</text>
	</g>
	<g>
		<circle class="st1" cx="19.7" cy="74.8" r="1.8"/>
		<circle class="st1" cx="24" cy="74.8" r="1.8"/>
		<circle class="st1" cx="28.4" cy="74.8" r="1.8"/>
		<circle class="st1" cx="32.7" cy="74.8" r="1.8"/>
		<circle class="st1" cx="37" cy="74.8" r="1.8"/>
		<circle class="st1" cx="41.3" cy="74.8" r="1.8"/>
		<circle class="st1" cx="45.6" cy="74.8" r="1.8"/>
		<circle class="st1" cx="50" cy="74.8" r="1.8"/>
		<text transform="matrix(1 0 0 1 13.2008 75.8801)" class="st1 st2 st3">00</text>
		<text transform="matrix(1 0 0 1 53.0509 75.8801)" class="st1 st2 st3">00</text>
	</g>
	<g>
		<circle class="st1" cx="19.7" cy="68.9" r="1.8"/>
		<circle class="st1" cx="24" cy="68.9" r="1.8"/>
		<circle class="st1" cx="28.4" cy="68.9" r="1.8"/>
		<circle class="st1" cx="32.7" cy="68.9" r="1.8"/>
		<circle class="st1" cx="37" cy="68.9" r="1.8"/>
		<circle class="st1" cx="41.3" cy="68.9" r="1.8"/>
		<circle class="st1" cx="45.6" cy="68.9" r="1.8"/>
		<circle class="st1" cx="50" cy="68.9" r="1.8"/>
		<text transform="matrix(1 0 0 1 13.2008 69.9501)" class="st1 st2 st3">00</text>
		<text transform="matrix(1 0 0 1 53.0509 69.9501)" class="st1 st2 st3">00</text>
	</g>
	<g>
		<circle class="st1" cx="19.7" cy="63" r="1.8"/>
		<circle class="st1" cx="24" cy="63" r="1.8"/>
		<circle class="st1" cx="28.4" cy="63" r="1.8"/>
		<circle class="st1" cx="32.7" cy="63" r="1.8"/>
		<circle class="st1" cx="37" cy="63" r="1.8"/>
		<circle class="st1" cx="41.3" cy="63" r="1.8"/>
		<circle class="st1" cx="45.6" cy="63" r="1.8"/>
		<circle class="st1" cx="50" cy="63" r="1.8"/>
		<text transform="matrix(1 0 0 1 13.2008 64.02)" class="st1 st2 st3">00</text>
		<text transform="matrix(1 0 0 1 53.0509 64.02)" class="st1 st2 st3">00</text>
	</g>
	<g>
		<circle class="st1" cx="19.7" cy="57" r="1.8"/>
		<circle class="st1" cx="24" cy="57" r="1.8"/>
		<circle class="st1" cx="28.4" cy="57" r="1.8"/>
		<circle class="st1" cx="32.7" cy="57" r="1.8"/>
		<circle class="st1" cx="37" cy="57" r="1.8"/>
		<circle class="st1" cx="41.3" cy="57" r="1.8"/>
		<circle class="st1" cx="45.6" cy="57" r="1.8"/>
		<circle class="st1" cx="50" cy="57" r="1.8"/>
		<text transform="matrix(1 0 0 1 13.2008 58.09)" class="st1 st2 st3">00</text>
		<text transform="matrix(1 0 0 1 53.0509 58.09)" class="st1 st2 st3">00</text>
	</g>
	<g>
		<circle class="st1" cx="19.7" cy="51.1" r="1.8"/>
		<circle class="st1" cx="24" cy="51.1" r="1.8"/>
		<circle class="st1" cx="28.4" cy="51.1" r="1.8"/>
		<circle class="st1" cx="32.7" cy="51.1" r="1.8"/>
		<circle class="st1" cx="37" cy="51.1" r="1.8"/>
		<circle class="st1" cx="41.3" cy="51.1" r="1.8"/>
		<circle class="st1" cx="45.6" cy="51.1" r="1.8"/>
		<circle class="st1" cx="50" cy="51.1" r="1.8"/>
		<text transform="matrix(1 0 0 1 13.2008 52.1599)" class="st1 st2 st3">00</text>
		<text transform="matrix(1 0 0 1 53.0509 52.1599)" class="st1 st2 st3">00</text>
	</g>
	<g>
		<circle class="st1" cx="19.7" cy="45.2" r="1.8"/>
		<circle class="st1" cx="24" cy="45.2" r="1.8"/>
		<circle class="st1" cx="28.4" cy="45.2" r="1.8"/>
		<circle class="st1" cx="32.7" cy="45.2" r="1.8"/>
		<circle class="st1" cx="37" cy="45.2" r="1.8"/>
		<circle class="st1" cx="41.3" cy="45.2" r="1.8"/>
		<circle class="st1" cx="45.6" cy="45.2" r="1.8"/>
		<circle class="st1" cx="50" cy="45.2" r="1.8"/>
		<text transform="matrix(1 0 0 1 13.2008 46.2299)" class="st1 st2 st3">00</text>
		<text transform="matrix(1 0 0 1 53.0509 46.2299)" class="st1 st2 st3">00</text>
	</g>
	<g>
		<circle class="st1" cx="11.1" cy="39.2" r="1.8"/>
		<circle class="st1" cx="15.4" cy="39.2" r="1.8"/>
		<circle class="st1" cx="19.7" cy="39.2" r="1.8"/>
		<circle class="st1" cx="24" cy="39.2" r="1.8"/>
		<circle class="st1" cx="28.3" cy="39.2" r="1.8"/>
		<circle class="st1" cx="32.7" cy="39.2" r="1.8"/>
		<circle class="st1" cx="37" cy="39.2" r="1.8"/>
		<circle class="st1" cx="41.3" cy="39.2" r="1.8"/>
		<text transform="matrix(1 0 0 1 4.5608 40.2998)" class="st1 st2 st3">00</text>
		<text transform="matrix(1 0 0 1 44.4209 40.2998)" class="st1 st2 st3">00</text>
	</g>
	<g>
		<circle class="st1" cx="11.1" cy="33.3" r="1.8"/>
		<circle class="st1" cx="15.4" cy="33.3" r="1.8"/>
		<circle class="st1" cx="19.7" cy="33.3" r="1.8"/>
		<circle class="st1" cx="24" cy="33.3" r="1.8"/>
		<circle class="st1" cx="28.3" cy="33.3" r="1.8"/>
		<circle class="st1" cx="32.7" cy="33.3" r="1.8"/>
		<text transform="matrix(1 0 0 1 4.5608 34.3698)" class="st1 st2 st3">00</text>
		<text transform="matrix(1 0 0 1 35.7709 34.3698)" class="st1 st2 st3">00</text>
	</g>
	<g>
		<circle class="st1" cx="11.1" cy="27.4" r="1.9"/>
		<circle class="st1" cx="15.4" cy="27.4" r="1.9"/>
		<circle class="st1" cx="19.7" cy="27.4" r="1.9"/>
		<text transform="matrix(1 0 0 1 4.5608 28.4397)" class="st1 st2 st3">00</text>
		<text transform="matrix(1 0 0 1 22.8009 28.4397)" class="st1 st2 st3">00</text>
	</g>
</g>
</svg>
