<?xml version="1.0" encoding="utf-8"?>
<!-- Generator: Adobe Illustrator 23.0.1, SVG Export Plug-In . SVG Version: 6.00 Build 0)  -->
<svg version="1.1" id="Layer_1" xmlns="http://www.w3.org/2000/svg" xmlns:xlink="http://www.w3.org/1999/xlink" x="0px" y="0px"
	 viewBox="0 0 130 132" style="enable-background:new 0 0 130 132;" xml:space="preserve">
<style type="text/css">
	.st0{fill:#F1F3F4;stroke:#BCC8CE;stroke-width:0.4;stroke-linecap:round;stroke-miterlimit:10;}
	.st1{fill:#AEBDC4;}
	.st2{font-family:'Roboto-Medium';}
	.st3{font-size:3px;}
</style>
<rect x="0.3" y="0.6" class="st0" width="129.5" height="130.8"/>
<g>
	<g>
		<circle class="st1" cx="15.3" cy="122.3" r="1.8"/>
		<circle class="st1" cx="19.6" cy="122.3" r="1.8"/>
		<circle class="st1" cx="23.9" cy="122.3" r="1.8"/>
		<circle class="st1" cx="28.2" cy="122.3" r="1.8"/>
		<circle class="st1" cx="32.6" cy="122.3" r="1.8"/>
		<circle class="st1" cx="36.9" cy="122.3" r="1.8"/>
		<circle class="st1" cx="41.2" cy="122.3" r="1.8"/>
		<circle class="st1" cx="45.5" cy="122.3" r="1.8"/>
		<circle class="st1" cx="49.8" cy="122.3" r="1.8"/>
		<circle class="st1" cx="54.2" cy="122.3" r="1.8"/>
		<circle class="st1" cx="58.5" cy="122.3" r="1.8"/>
		<circle class="st1" cx="62.8" cy="122.3" r="1.8"/>
		<circle class="st1" cx="67.2" cy="122.3" r="1.8"/>
		<circle class="st1" cx="71.5" cy="122.3" r="1.8"/>
		<circle class="st1" cx="75.8" cy="122.3" r="1.8"/>
		<circle class="st1" cx="80.2" cy="122.3" r="1.8"/>
		<circle class="st1" cx="84.5" cy="122.3" r="1.8"/>
		<circle class="st1" cx="88.8" cy="122.3" r="1.8"/>
		<circle class="st1" cx="93.2" cy="122.3" r="1.8"/>
		<circle class="st1" cx="97.5" cy="122.3" r="1.8"/>
		<circle class="st1" cx="101.8" cy="122.3" r="1.8"/>
		<circle class="st1" cx="106.1" cy="122.3" r="1.8"/>
		<circle class="st1" cx="110.5" cy="122.3" r="1.8"/>
		<circle class="st1" cx="114.8" cy="122.3" r="1.8"/>
		<text transform="matrix(1 0 0 1 8.7708 123.3905)" class="st1 st2 st3">00</text>
		<text transform="matrix(1 0 0 1 117.9009 123.3905)" class="st1 st2 st3">00</text>
	</g>
	<g>
		<circle class="st1" cx="15.3" cy="116.4" r="1.8"/>
		<circle class="st1" cx="19.6" cy="116.4" r="1.8"/>
		<circle class="st1" cx="23.9" cy="116.4" r="1.8"/>
		<circle class="st1" cx="28.2" cy="116.4" r="1.8"/>
		<circle class="st1" cx="32.6" cy="116.4" r="1.8"/>
		<circle class="st1" cx="36.9" cy="116.4" r="1.8"/>
		<circle class="st1" cx="41.2" cy="116.4" r="1.8"/>
		<circle class="st1" cx="45.5" cy="116.4" r="1.8"/>
		<circle class="st1" cx="49.8" cy="116.4" r="1.8"/>
		<circle class="st1" cx="54.2" cy="116.4" r="1.8"/>
		<circle class="st1" cx="58.5" cy="116.4" r="1.8"/>
		<circle class="st1" cx="62.8" cy="116.4" r="1.8"/>
		<circle class="st1" cx="67.2" cy="116.4" r="1.8"/>
		<circle class="st1" cx="71.5" cy="116.4" r="1.8"/>
		<circle class="st1" cx="75.8" cy="116.4" r="1.8"/>
		<circle class="st1" cx="80.2" cy="116.4" r="1.8"/>
		<circle class="st1" cx="84.5" cy="116.4" r="1.8"/>
		<circle class="st1" cx="88.8" cy="116.4" r="1.8"/>
		<circle class="st1" cx="93.2" cy="116.4" r="1.8"/>
		<circle class="st1" cx="97.5" cy="116.4" r="1.8"/>
		<circle class="st1" cx="101.8" cy="116.4" r="1.8"/>
		<circle class="st1" cx="106.1" cy="116.4" r="1.8"/>
		<circle class="st1" cx="110.5" cy="116.4" r="1.8"/>
		<circle class="st1" cx="114.8" cy="116.4" r="1.8"/>
		<text transform="matrix(1 0 0 1 8.7708 117.4604)" class="st1 st2 st3">00</text>
		<text transform="matrix(1 0 0 1 117.9009 117.4604)" class="st1 st2 st3">00</text>
	</g>
	<g>
		<circle class="st1" cx="15.3" cy="110.5" r="1.8"/>
		<circle class="st1" cx="19.6" cy="110.5" r="1.8"/>
		<circle class="st1" cx="23.9" cy="110.5" r="1.8"/>
		<circle class="st1" cx="28.2" cy="110.5" r="1.8"/>
		<circle class="st1" cx="32.6" cy="110.5" r="1.8"/>
		<circle class="st1" cx="36.9" cy="110.5" r="1.8"/>
		<circle class="st1" cx="41.2" cy="110.5" r="1.8"/>
		<circle class="st1" cx="45.5" cy="110.5" r="1.8"/>
		<circle class="st1" cx="49.8" cy="110.5" r="1.8"/>
		<circle class="st1" cx="54.2" cy="110.5" r="1.8"/>
		<circle class="st1" cx="58.5" cy="110.5" r="1.8"/>
		<circle class="st1" cx="62.8" cy="110.5" r="1.8"/>
		<circle class="st1" cx="67.2" cy="110.5" r="1.8"/>
		<circle class="st1" cx="71.5" cy="110.5" r="1.8"/>
		<circle class="st1" cx="75.8" cy="110.5" r="1.8"/>
		<circle class="st1" cx="80.2" cy="110.5" r="1.8"/>
		<circle class="st1" cx="84.5" cy="110.5" r="1.8"/>
		<circle class="st1" cx="88.8" cy="110.5" r="1.8"/>
		<circle class="st1" cx="93.2" cy="110.5" r="1.8"/>
		<circle class="st1" cx="97.5" cy="110.5" r="1.8"/>
		<circle class="st1" cx="101.8" cy="110.5" r="1.8"/>
		<circle class="st1" cx="106.1" cy="110.5" r="1.8"/>
		<circle class="st1" cx="110.5" cy="110.5" r="1.8"/>
		<circle class="st1" cx="114.8" cy="110.5" r="1.8"/>
		<text transform="matrix(1 0 0 1 8.7708 111.5305)" class="st1 st2 st3">00</text>
		<text transform="matrix(1 0 0 1 117.9009 111.5305)" class="st1 st2 st3">00</text>
	</g>
	<g>
		<circle class="st1" cx="15.3" cy="104.6" r="1.8"/>
		<circle class="st1" cx="19.6" cy="104.6" r="1.8"/>
		<circle class="st1" cx="23.9" cy="104.6" r="1.8"/>
		<circle class="st1" cx="28.2" cy="104.6" r="1.8"/>
		<circle class="st1" cx="32.6" cy="104.6" r="1.8"/>
		<circle class="st1" cx="36.9" cy="104.6" r="1.8"/>
		<circle class="st1" cx="41.2" cy="104.6" r="1.8"/>
		<circle class="st1" cx="45.5" cy="104.6" r="1.8"/>
		<circle class="st1" cx="49.8" cy="104.6" r="1.8"/>
		<circle class="st1" cx="54.2" cy="104.6" r="1.8"/>
		<circle class="st1" cx="58.5" cy="104.6" r="1.8"/>
		<circle class="st1" cx="62.8" cy="104.6" r="1.8"/>
		<circle class="st1" cx="67.2" cy="104.6" r="1.8"/>
		<circle class="st1" cx="71.5" cy="104.6" r="1.8"/>
		<circle class="st1" cx="75.8" cy="104.6" r="1.8"/>
		<circle class="st1" cx="80.2" cy="104.6" r="1.8"/>
		<circle class="st1" cx="84.5" cy="104.6" r="1.8"/>
		<circle class="st1" cx="88.8" cy="104.6" r="1.8"/>
		<circle class="st1" cx="93.2" cy="104.6" r="1.8"/>
		<circle class="st1" cx="97.5" cy="104.6" r="1.8"/>
		<circle class="st1" cx="101.8" cy="104.6" r="1.8"/>
		<circle class="st1" cx="106.1" cy="104.6" r="1.8"/>
		<circle class="st1" cx="110.5" cy="104.6" r="1.8"/>
		<circle class="st1" cx="114.8" cy="104.6" r="1.8"/>
		<text transform="matrix(1 0 0 1 8.7708 105.6006)" class="st1 st2 st3">00</text>
		<text transform="matrix(1 0 0 1 117.9009 105.6006)" class="st1 st2 st3">00</text>
	</g>
	<g>
		<circle class="st1" cx="15.3" cy="98.6" r="1.8"/>
		<circle class="st1" cx="19.6" cy="98.6" r="1.8"/>
		<circle class="st1" cx="23.9" cy="98.6" r="1.8"/>
		<circle class="st1" cx="28.2" cy="98.6" r="1.8"/>
		<circle class="st1" cx="32.6" cy="98.6" r="1.8"/>
		<circle class="st1" cx="36.9" cy="98.6" r="1.8"/>
		<circle class="st1" cx="41.2" cy="98.6" r="1.8"/>
		<circle class="st1" cx="45.5" cy="98.6" r="1.8"/>
		<circle class="st1" cx="49.8" cy="98.6" r="1.8"/>
		<circle class="st1" cx="54.2" cy="98.6" r="1.8"/>
		<circle class="st1" cx="58.5" cy="98.6" r="1.8"/>
		<circle class="st1" cx="62.8" cy="98.6" r="1.8"/>
		<circle class="st1" cx="67.2" cy="98.6" r="1.8"/>
		<circle class="st1" cx="71.5" cy="98.6" r="1.8"/>
		<circle class="st1" cx="75.8" cy="98.6" r="1.8"/>
		<circle class="st1" cx="80.2" cy="98.6" r="1.8"/>
		<circle class="st1" cx="84.5" cy="98.6" r="1.8"/>
		<circle class="st1" cx="88.8" cy="98.6" r="1.8"/>
		<circle class="st1" cx="93.2" cy="98.6" r="1.8"/>
		<circle class="st1" cx="97.5" cy="98.6" r="1.8"/>
		<circle class="st1" cx="101.8" cy="98.6" r="1.8"/>
		<circle class="st1" cx="106.1" cy="98.6" r="1.8"/>
		<circle class="st1" cx="110.5" cy="98.6" r="1.8"/>
		<circle class="st1" cx="114.8" cy="98.6" r="1.8"/>
		<text transform="matrix(1 0 0 1 8.7708 99.6707)" class="st1 st2 st3">00</text>
		<text transform="matrix(1 0 0 1 117.9009 99.6707)" class="st1 st2 st3">00</text>
	</g>
	<g>
		<circle class="st1" cx="15.3" cy="92.7" r="1.8"/>
		<circle class="st1" cx="19.6" cy="92.7" r="1.8"/>
		<circle class="st1" cx="23.9" cy="92.7" r="1.8"/>
		<circle class="st1" cx="28.2" cy="92.7" r="1.8"/>
		<circle class="st1" cx="32.6" cy="92.7" r="1.8"/>
		<circle class="st1" cx="36.9" cy="92.7" r="1.8"/>
		<circle class="st1" cx="41.2" cy="92.7" r="1.8"/>
		<circle class="st1" cx="45.5" cy="92.7" r="1.8"/>
		<circle class="st1" cx="49.8" cy="92.7" r="1.8"/>
		<circle class="st1" cx="54.2" cy="92.7" r="1.8"/>
		<circle class="st1" cx="58.5" cy="92.7" r="1.8"/>
		<circle class="st1" cx="62.8" cy="92.7" r="1.8"/>
		<circle class="st1" cx="67.2" cy="92.7" r="1.8"/>
		<circle class="st1" cx="71.5" cy="92.7" r="1.8"/>
		<circle class="st1" cx="75.8" cy="92.7" r="1.8"/>
		<circle class="st1" cx="80.2" cy="92.7" r="1.8"/>
		<circle class="st1" cx="84.5" cy="92.7" r="1.8"/>
		<circle class="st1" cx="88.8" cy="92.7" r="1.8"/>
		<circle class="st1" cx="93.2" cy="92.7" r="1.8"/>
		<circle class="st1" cx="97.5" cy="92.7" r="1.8"/>
		<circle class="st1" cx="101.8" cy="92.7" r="1.8"/>
		<circle class="st1" cx="106.1" cy="92.7" r="1.8"/>
		<circle class="st1" cx="110.5" cy="92.7" r="1.8"/>
		<circle class="st1" cx="114.8" cy="92.7" r="1.8"/>
		<text transform="matrix(1 0 0 1 8.7708 93.7407)" class="st1 st2 st3">00</text>
		<text transform="matrix(1 0 0 1 117.9009 93.7407)" class="st1 st2 st3">00</text>
	</g>
	<g>
		<circle class="st1" cx="15.3" cy="86.8" r="1.8"/>
		<circle class="st1" cx="19.6" cy="86.8" r="1.8"/>
		<circle class="st1" cx="23.9" cy="86.8" r="1.8"/>
		<circle class="st1" cx="28.2" cy="86.8" r="1.8"/>
		<circle class="st1" cx="32.6" cy="86.8" r="1.8"/>
		<circle class="st1" cx="36.9" cy="86.8" r="1.8"/>
		<circle class="st1" cx="41.2" cy="86.8" r="1.8"/>
		<circle class="st1" cx="45.5" cy="86.8" r="1.8"/>
		<circle class="st1" cx="49.8" cy="86.8" r="1.8"/>
		<circle class="st1" cx="54.2" cy="86.8" r="1.8"/>
		<circle class="st1" cx="58.5" cy="86.8" r="1.8"/>
		<circle class="st1" cx="62.8" cy="86.8" r="1.8"/>
		<circle class="st1" cx="67.2" cy="86.8" r="1.8"/>
		<circle class="st1" cx="71.5" cy="86.8" r="1.8"/>
		<circle class="st1" cx="75.8" cy="86.8" r="1.8"/>
		<circle class="st1" cx="80.2" cy="86.8" r="1.8"/>
		<circle class="st1" cx="84.5" cy="86.8" r="1.8"/>
		<circle class="st1" cx="88.8" cy="86.8" r="1.8"/>
		<circle class="st1" cx="93.2" cy="86.8" r="1.8"/>
		<circle class="st1" cx="97.5" cy="86.8" r="1.8"/>
		<circle class="st1" cx="101.8" cy="86.8" r="1.8"/>
		<circle class="st1" cx="106.1" cy="86.8" r="1.8"/>
		<circle class="st1" cx="110.5" cy="86.8" r="1.8"/>
		<circle class="st1" cx="114.8" cy="86.8" r="1.8"/>
		<text transform="matrix(1 0 0 1 8.7708 87.8108)" class="st1 st2 st3">00</text>
		<text transform="matrix(1 0 0 1 117.9009 87.8108)" class="st1 st2 st3">00</text>
	</g>
	<g>
		<circle class="st1" cx="15.3" cy="80.8" r="1.8"/>
		<circle class="st1" cx="19.6" cy="80.8" r="1.8"/>
		<circle class="st1" cx="23.9" cy="80.8" r="1.8"/>
		<circle class="st1" cx="28.2" cy="80.8" r="1.8"/>
		<circle class="st1" cx="32.6" cy="80.8" r="1.8"/>
		<circle class="st1" cx="36.9" cy="80.8" r="1.8"/>
		<circle class="st1" cx="41.2" cy="80.8" r="1.8"/>
		<circle class="st1" cx="45.5" cy="80.8" r="1.8"/>
		<circle class="st1" cx="49.8" cy="80.8" r="1.8"/>
		<circle class="st1" cx="54.2" cy="80.8" r="1.8"/>
		<circle class="st1" cx="58.5" cy="80.8" r="1.8"/>
		<circle class="st1" cx="62.8" cy="80.8" r="1.8"/>
		<circle class="st1" cx="67.2" cy="80.8" r="1.8"/>
		<circle class="st1" cx="71.5" cy="80.8" r="1.8"/>
		<circle class="st1" cx="75.8" cy="80.8" r="1.8"/>
		<circle class="st1" cx="80.2" cy="80.8" r="1.8"/>
		<circle class="st1" cx="84.5" cy="80.8" r="1.8"/>
		<circle class="st1" cx="88.8" cy="80.8" r="1.8"/>
		<circle class="st1" cx="93.2" cy="80.8" r="1.8"/>
		<circle class="st1" cx="97.5" cy="80.8" r="1.8"/>
		<circle class="st1" cx="101.8" cy="80.8" r="1.8"/>
		<circle class="st1" cx="106.1" cy="80.8" r="1.8"/>
		<circle class="st1" cx="110.5" cy="80.8" r="1.8"/>
		<circle class="st1" cx="114.8" cy="80.8" r="1.8"/>
		<text transform="matrix(1 0 0 1 8.7708 81.8809)" class="st1 st2 st3">00</text>
		<text transform="matrix(1 0 0 1 117.9009 81.8809)" class="st1 st2 st3">00</text>
	</g>
	<g>
		<circle class="st1" cx="15.3" cy="74.9" r="1.8"/>
		<circle class="st1" cx="19.6" cy="74.9" r="1.8"/>
		<circle class="st1" cx="23.9" cy="74.9" r="1.8"/>
		<circle class="st1" cx="28.2" cy="74.9" r="1.8"/>
		<circle class="st1" cx="32.6" cy="74.9" r="1.8"/>
		<circle class="st1" cx="36.9" cy="74.9" r="1.8"/>
		<circle class="st1" cx="41.2" cy="74.9" r="1.8"/>
		<circle class="st1" cx="45.5" cy="74.9" r="1.8"/>
		<circle class="st1" cx="49.8" cy="74.9" r="1.8"/>
		<circle class="st1" cx="54.2" cy="74.9" r="1.8"/>
		<circle class="st1" cx="58.5" cy="74.9" r="1.8"/>
		<circle class="st1" cx="62.8" cy="74.9" r="1.8"/>
		<circle class="st1" cx="67.2" cy="74.9" r="1.8"/>
		<circle class="st1" cx="71.5" cy="74.9" r="1.8"/>
		<circle class="st1" cx="75.8" cy="74.9" r="1.8"/>
		<circle class="st1" cx="80.2" cy="74.9" r="1.8"/>
		<circle class="st1" cx="84.5" cy="74.9" r="1.8"/>
		<circle class="st1" cx="88.8" cy="74.9" r="1.8"/>
		<circle class="st1" cx="93.2" cy="74.9" r="1.8"/>
		<circle class="st1" cx="97.5" cy="74.9" r="1.8"/>
		<circle class="st1" cx="101.8" cy="74.9" r="1.8"/>
		<circle class="st1" cx="106.1" cy="74.9" r="1.8"/>
		<circle class="st1" cx="110.5" cy="74.9" r="1.8"/>
		<circle class="st1" cx="114.8" cy="74.9" r="1.8"/>
		<text transform="matrix(1 0 0 1 8.7708 75.9509)" class="st1 st2 st3">00</text>
		<text transform="matrix(1 0 0 1 117.9009 75.9509)" class="st1 st2 st3">00</text>
	</g>
	<g>
		<circle class="st1" cx="15.3" cy="69" r="1.8"/>
		<circle class="st1" cx="19.6" cy="69" r="1.8"/>
		<circle class="st1" cx="23.9" cy="69" r="1.8"/>
		<circle class="st1" cx="28.2" cy="69" r="1.8"/>
		<circle class="st1" cx="32.6" cy="69" r="1.8"/>
		<circle class="st1" cx="36.9" cy="69" r="1.8"/>
		<circle class="st1" cx="41.2" cy="69" r="1.8"/>
		<circle class="st1" cx="45.5" cy="69" r="1.8"/>
		<circle class="st1" cx="49.8" cy="69" r="1.8"/>
		<circle class="st1" cx="54.2" cy="69" r="1.8"/>
		<circle class="st1" cx="58.5" cy="69" r="1.8"/>
		<circle class="st1" cx="62.8" cy="69" r="1.8"/>
		<circle class="st1" cx="67.2" cy="69" r="1.8"/>
		<circle class="st1" cx="71.5" cy="69" r="1.8"/>
		<circle class="st1" cx="75.8" cy="69" r="1.8"/>
		<circle class="st1" cx="80.2" cy="69" r="1.8"/>
		<circle class="st1" cx="84.5" cy="69" r="1.8"/>
		<circle class="st1" cx="88.8" cy="69" r="1.8"/>
		<circle class="st1" cx="93.2" cy="69" r="1.8"/>
		<circle class="st1" cx="97.5" cy="69" r="1.8"/>
		<circle class="st1" cx="101.8" cy="69" r="1.8"/>
		<circle class="st1" cx="106.1" cy="69" r="1.8"/>
		<circle class="st1" cx="110.5" cy="69" r="1.8"/>
		<circle class="st1" cx="114.8" cy="69" r="1.8"/>
		<text transform="matrix(1 0 0 1 8.7708 70.021)" class="st1 st2 st3">00</text>
		<text transform="matrix(1 0 0 1 117.9009 70.021)" class="st1 st2 st3">00</text>
	</g>
	<g>
		<circle class="st1" cx="15.3" cy="63" r="1.8"/>
		<circle class="st1" cx="19.6" cy="63" r="1.8"/>
		<circle class="st1" cx="23.9" cy="63" r="1.8"/>
		<circle class="st1" cx="28.2" cy="63" r="1.8"/>
		<circle class="st1" cx="32.6" cy="63" r="1.8"/>
		<circle class="st1" cx="36.9" cy="63" r="1.8"/>
		<circle class="st1" cx="41.2" cy="63" r="1.8"/>
		<circle class="st1" cx="45.5" cy="63" r="1.8"/>
		<circle class="st1" cx="49.8" cy="63" r="1.8"/>
		<circle class="st1" cx="54.2" cy="63" r="1.8"/>
		<circle class="st1" cx="58.5" cy="63" r="1.8"/>
		<circle class="st1" cx="62.8" cy="63" r="1.8"/>
		<circle class="st1" cx="67.2" cy="63" r="1.8"/>
		<circle class="st1" cx="71.5" cy="63" r="1.8"/>
		<circle class="st1" cx="75.8" cy="63" r="1.8"/>
		<circle class="st1" cx="80.2" cy="63" r="1.8"/>
		<circle class="st1" cx="84.5" cy="63" r="1.8"/>
		<circle class="st1" cx="88.8" cy="63" r="1.8"/>
		<circle class="st1" cx="93.2" cy="63" r="1.8"/>
		<circle class="st1" cx="97.5" cy="63" r="1.8"/>
		<circle class="st1" cx="101.8" cy="63" r="1.8"/>
		<circle class="st1" cx="106.1" cy="63" r="1.8"/>
		<circle class="st1" cx="110.5" cy="63" r="1.8"/>
		<circle class="st1" cx="114.8" cy="63" r="1.8"/>
		<text transform="matrix(1 0 0 1 8.7708 64.0911)" class="st1 st2 st3">00</text>
		<text transform="matrix(1 0 0 1 117.9009 64.0911)" class="st1 st2 st3">00</text>
	</g>
	<g>
		<circle class="st1" cx="15.3" cy="57.1" r="1.8"/>
		<circle class="st1" cx="19.6" cy="57.1" r="1.8"/>
		<circle class="st1" cx="23.9" cy="57.1" r="1.8"/>
		<circle class="st1" cx="28.2" cy="57.1" r="1.8"/>
		<circle class="st1" cx="32.6" cy="57.1" r="1.8"/>
		<circle class="st1" cx="36.9" cy="57.1" r="1.8"/>
		<circle class="st1" cx="41.2" cy="57.1" r="1.8"/>
		<circle class="st1" cx="45.5" cy="57.1" r="1.8"/>
		<circle class="st1" cx="49.8" cy="57.1" r="1.8"/>
		<circle class="st1" cx="54.2" cy="57.1" r="1.8"/>
		<circle class="st1" cx="58.5" cy="57.1" r="1.8"/>
		<circle class="st1" cx="62.8" cy="57.1" r="1.8"/>
		<circle class="st1" cx="67.2" cy="57.1" r="1.8"/>
		<circle class="st1" cx="71.5" cy="57.1" r="1.8"/>
		<circle class="st1" cx="75.8" cy="57.1" r="1.8"/>
		<circle class="st1" cx="80.2" cy="57.1" r="1.8"/>
		<circle class="st1" cx="84.5" cy="57.1" r="1.8"/>
		<circle class="st1" cx="88.8" cy="57.1" r="1.8"/>
		<circle class="st1" cx="93.2" cy="57.1" r="1.8"/>
		<circle class="st1" cx="97.5" cy="57.1" r="1.8"/>
		<circle class="st1" cx="101.8" cy="57.1" r="1.8"/>
		<circle class="st1" cx="106.1" cy="57.1" r="1.8"/>
		<circle class="st1" cx="110.5" cy="57.1" r="1.8"/>
		<circle class="st1" cx="114.8" cy="57.1" r="1.8"/>
		<text transform="matrix(1 0 0 1 8.7708 58.1611)" class="st1 st2 st3">00</text>
		<text transform="matrix(1 0 0 1 117.9009 58.1611)" class="st1 st2 st3">00</text>
	</g>
	<g>
		<circle class="st1" cx="15.3" cy="51.2" r="1.8"/>
		<circle class="st1" cx="19.6" cy="51.2" r="1.8"/>
		<circle class="st1" cx="23.9" cy="51.2" r="1.8"/>
		<circle class="st1" cx="28.2" cy="51.2" r="1.8"/>
		<circle class="st1" cx="32.6" cy="51.2" r="1.8"/>
		<circle class="st1" cx="36.9" cy="51.2" r="1.8"/>
		<circle class="st1" cx="41.2" cy="51.2" r="1.8"/>
		<circle class="st1" cx="45.5" cy="51.2" r="1.8"/>
		<circle class="st1" cx="49.8" cy="51.2" r="1.8"/>
		<circle class="st1" cx="54.2" cy="51.2" r="1.8"/>
		<circle class="st1" cx="58.5" cy="51.2" r="1.8"/>
		<circle class="st1" cx="62.8" cy="51.2" r="1.8"/>
		<circle class="st1" cx="67.2" cy="51.2" r="1.8"/>
		<circle class="st1" cx="71.5" cy="51.2" r="1.8"/>
		<circle class="st1" cx="75.8" cy="51.2" r="1.8"/>
		<circle class="st1" cx="80.2" cy="51.2" r="1.8"/>
		<circle class="st1" cx="84.5" cy="51.2" r="1.8"/>
		<circle class="st1" cx="88.8" cy="51.2" r="1.8"/>
		<circle class="st1" cx="93.2" cy="51.2" r="1.8"/>
		<circle class="st1" cx="97.5" cy="51.2" r="1.8"/>
		<circle class="st1" cx="101.8" cy="51.2" r="1.8"/>
		<circle class="st1" cx="106.1" cy="51.2" r="1.8"/>
		<circle class="st1" cx="110.5" cy="51.2" r="1.8"/>
		<circle class="st1" cx="114.8" cy="51.2" r="1.8"/>
		<text transform="matrix(1 0 0 1 8.7708 52.2312)" class="st1 st2 st3">00</text>
		<text transform="matrix(1 0 0 1 117.9009 52.2312)" class="st1 st2 st3">00</text>
	</g>
	<g>
		<circle class="st1" cx="15.3" cy="45.2" r="1.8"/>
		<circle class="st1" cx="19.6" cy="45.2" r="1.8"/>
		<circle class="st1" cx="23.9" cy="45.2" r="1.8"/>
		<circle class="st1" cx="28.2" cy="45.2" r="1.8"/>
		<circle class="st1" cx="32.6" cy="45.2" r="1.8"/>
		<circle class="st1" cx="36.9" cy="45.2" r="1.8"/>
		<circle class="st1" cx="41.2" cy="45.2" r="1.8"/>
		<circle class="st1" cx="45.5" cy="45.2" r="1.8"/>
		<circle class="st1" cx="49.8" cy="45.2" r="1.8"/>
		<circle class="st1" cx="54.2" cy="45.2" r="1.8"/>
		<circle class="st1" cx="58.5" cy="45.2" r="1.8"/>
		<circle class="st1" cx="62.8" cy="45.2" r="1.8"/>
		<circle class="st1" cx="67.2" cy="45.2" r="1.8"/>
		<circle class="st1" cx="71.5" cy="45.2" r="1.8"/>
		<circle class="st1" cx="75.8" cy="45.2" r="1.8"/>
		<circle class="st1" cx="80.2" cy="45.2" r="1.8"/>
		<circle class="st1" cx="84.5" cy="45.2" r="1.8"/>
		<circle class="st1" cx="88.8" cy="45.2" r="1.8"/>
		<circle class="st1" cx="93.2" cy="45.2" r="1.8"/>
		<circle class="st1" cx="97.5" cy="45.2" r="1.8"/>
		<circle class="st1" cx="101.8" cy="45.2" r="1.8"/>
		<circle class="st1" cx="106.1" cy="45.2" r="1.8"/>
		<circle class="st1" cx="110.5" cy="45.2" r="1.8"/>
		<circle class="st1" cx="114.8" cy="45.2" r="1.8"/>
		<text transform="matrix(1 0 0 1 8.7708 46.3013)" class="st1 st2 st3">00</text>
		<text transform="matrix(1 0 0 1 117.9009 46.3013)" class="st1 st2 st3">00</text>
	</g>
	<g>
		<circle class="st1" cx="15.3" cy="39.3" r="1.8"/>
		<circle class="st1" cx="19.6" cy="39.3" r="1.8"/>
		<circle class="st1" cx="23.9" cy="39.3" r="1.8"/>
		<circle class="st1" cx="28.2" cy="39.3" r="1.8"/>
		<circle class="st1" cx="32.6" cy="39.3" r="1.8"/>
		<circle class="st1" cx="36.9" cy="39.3" r="1.8"/>
		<circle class="st1" cx="41.2" cy="39.3" r="1.8"/>
		<circle class="st1" cx="45.5" cy="39.3" r="1.8"/>
		<circle class="st1" cx="49.8" cy="39.3" r="1.8"/>
		<circle class="st1" cx="54.2" cy="39.3" r="1.8"/>
		<circle class="st1" cx="58.5" cy="39.3" r="1.8"/>
		<circle class="st1" cx="62.8" cy="39.3" r="1.8"/>
		<circle class="st1" cx="67.2" cy="39.3" r="1.8"/>
		<circle class="st1" cx="71.5" cy="39.3" r="1.8"/>
		<circle class="st1" cx="75.8" cy="39.3" r="1.8"/>
		<circle class="st1" cx="80.2" cy="39.3" r="1.8"/>
		<circle class="st1" cx="84.5" cy="39.3" r="1.8"/>
		<circle class="st1" cx="88.8" cy="39.3" r="1.8"/>
		<circle class="st1" cx="93.2" cy="39.3" r="1.8"/>
		<circle class="st1" cx="97.5" cy="39.3" r="1.8"/>
		<circle class="st1" cx="101.8" cy="39.3" r="1.8"/>
		<circle class="st1" cx="106.1" cy="39.3" r="1.8"/>
		<circle class="st1" cx="110.5" cy="39.3" r="1.8"/>
		<circle class="st1" cx="114.8" cy="39.3" r="1.8"/>
		<text transform="matrix(1 0 0 1 8.7708 40.3713)" class="st1 st2 st3">00</text>
		<text transform="matrix(1 0 0 1 117.9009 40.3713)" class="st1 st2 st3">00</text>
	</g>
	<g>
		<circle class="st1" cx="15.3" cy="33.4" r="1.8"/>
		<circle class="st1" cx="19.6" cy="33.4" r="1.8"/>
		<circle class="st1" cx="23.9" cy="33.4" r="1.8"/>
		<circle class="st1" cx="28.2" cy="33.4" r="1.8"/>
		<circle class="st1" cx="32.6" cy="33.4" r="1.8"/>
		<circle class="st1" cx="36.9" cy="33.4" r="1.8"/>
		<circle class="st1" cx="41.2" cy="33.4" r="1.8"/>
		<circle class="st1" cx="45.5" cy="33.4" r="1.8"/>
		<circle class="st1" cx="49.8" cy="33.4" r="1.8"/>
		<circle class="st1" cx="54.2" cy="33.4" r="1.8"/>
		<circle class="st1" cx="58.5" cy="33.4" r="1.8"/>
		<circle class="st1" cx="62.8" cy="33.4" r="1.8"/>
		<circle class="st1" cx="67.2" cy="33.4" r="1.8"/>
		<circle class="st1" cx="71.5" cy="33.4" r="1.8"/>
		<circle class="st1" cx="75.8" cy="33.4" r="1.8"/>
		<circle class="st1" cx="80.2" cy="33.4" r="1.8"/>
		<circle class="st1" cx="84.5" cy="33.4" r="1.8"/>
		<circle class="st1" cx="88.8" cy="33.4" r="1.8"/>
		<circle class="st1" cx="93.2" cy="33.4" r="1.8"/>
		<circle class="st1" cx="97.5" cy="33.4" r="1.8"/>
		<circle class="st1" cx="101.8" cy="33.4" r="1.8"/>
		<circle class="st1" cx="106.1" cy="33.4" r="1.8"/>
		<circle class="st1" cx="110.5" cy="33.4" r="1.8"/>
		<circle class="st1" cx="114.8" cy="33.4" r="1.8"/>
		<text transform="matrix(1 0 0 1 8.7708 34.4414)" class="st1 st2 st3">00</text>
		<text transform="matrix(1 0 0 1 117.9009 34.4414)" class="st1 st2 st3">00</text>
	</g>
	<g>
		<circle class="st1" cx="23.9" cy="27.5" r="1.9"/>
		<circle class="st1" cx="28.3" cy="27.5" r="1.9"/>
		<circle class="st1" cx="32.6" cy="27.5" r="1.8"/>
		<circle class="st1" cx="36.9" cy="27.5" r="1.8"/>
		<circle class="st1" cx="41.2" cy="27.5" r="1.8"/>
		<circle class="st1" cx="45.5" cy="27.5" r="1.8"/>
		<circle class="st1" cx="49.9" cy="27.5" r="1.8"/>
		<circle class="st1" cx="54.2" cy="27.5" r="1.8"/>
		<circle class="st1" cx="58.5" cy="27.5" r="1.8"/>
		<circle class="st1" cx="62.8" cy="27.5" r="1.8"/>
		<circle class="st1" cx="67.2" cy="27.5" r="1.8"/>
		<circle class="st1" cx="71.5" cy="27.5" r="1.8"/>
		<circle class="st1" cx="75.8" cy="27.5" r="1.8"/>
		<circle class="st1" cx="80.2" cy="27.5" r="1.8"/>
		<circle class="st1" cx="84.5" cy="27.5" r="1.8"/>
		<circle class="st1" cx="88.8" cy="27.5" r="1.8"/>
		<circle class="st1" cx="93.2" cy="27.5" r="1.8"/>
		<circle class="st1" cx="97.5" cy="27.5" r="1.8"/>
		<circle class="st1" cx="101.8" cy="27.5" r="1.8"/>
		<circle class="st1" cx="106.1" cy="27.5" r="1.8"/>
		<text transform="matrix(1 0 0 1 17.4308 28.5115)" class="st1 st2 st3">00</text>
		<text transform="matrix(1 0 0 1 109.2408 28.5115)" class="st1 st2 st3">00</text>
	</g>
	<g>
		<circle class="st1" cx="23.9" cy="21.5" r="1.9"/>
		<circle class="st1" cx="28.3" cy="21.5" r="1.9"/>
		<circle class="st1" cx="32.6" cy="21.5" r="1.8"/>
		<circle class="st1" cx="36.9" cy="21.5" r="1.8"/>
		<circle class="st1" cx="41.2" cy="21.5" r="1.8"/>
		<circle class="st1" cx="45.5" cy="21.5" r="1.8"/>
		<circle class="st1" cx="49.9" cy="21.5" r="1.8"/>
		<circle class="st1" cx="54.2" cy="21.5" r="1.8"/>
		<circle class="st1" cx="58.5" cy="21.5" r="1.8"/>
		<circle class="st1" cx="62.8" cy="21.5" r="1.8"/>
		<circle class="st1" cx="67.2" cy="21.5" r="1.8"/>
		<circle class="st1" cx="71.5" cy="21.5" r="1.8"/>
		<circle class="st1" cx="75.8" cy="21.5" r="1.8"/>
		<circle class="st1" cx="80.2" cy="21.5" r="1.8"/>
		<circle class="st1" cx="84.5" cy="21.5" r="1.8"/>
		<circle class="st1" cx="88.8" cy="21.5" r="1.8"/>
		<circle class="st1" cx="93.2" cy="21.5" r="1.8"/>
		<circle class="st1" cx="97.5" cy="21.5" r="1.8"/>
		<circle class="st1" cx="101.8" cy="21.5" r="1.8"/>
		<circle class="st1" cx="106.1" cy="21.5" r="1.8"/>
		<text transform="matrix(1 0 0 1 17.4308 22.5815)" class="st1 st2 st3">00</text>
		<text transform="matrix(1 0 0 1 109.2408 22.5815)" class="st1 st2 st3">00</text>
	</g>
	<g>
		<circle class="st1" cx="23.9" cy="15.6" r="1.9"/>
		<circle class="st1" cx="28.3" cy="15.6" r="1.9"/>
		<circle class="st1" cx="32.6" cy="15.6" r="1.8"/>
		<circle class="st1" cx="36.9" cy="15.6" r="1.8"/>
		<circle class="st1" cx="41.2" cy="15.6" r="1.8"/>
		<circle class="st1" cx="45.5" cy="15.6" r="1.8"/>
		<circle class="st1" cx="49.9" cy="15.6" r="1.8"/>
		<circle class="st1" cx="54.2" cy="15.6" r="1.8"/>
		<circle class="st1" cx="58.5" cy="15.6" r="1.8"/>
		<circle class="st1" cx="62.8" cy="15.6" r="1.8"/>
		<circle class="st1" cx="67.2" cy="15.6" r="1.8"/>
		<circle class="st1" cx="71.5" cy="15.6" r="1.8"/>
		<circle class="st1" cx="75.8" cy="15.6" r="1.8"/>
		<circle class="st1" cx="80.2" cy="15.6" r="1.8"/>
		<circle class="st1" cx="84.5" cy="15.6" r="1.8"/>
		<circle class="st1" cx="88.8" cy="15.6" r="1.8"/>
		<circle class="st1" cx="93.2" cy="15.6" r="1.8"/>
		<circle class="st1" cx="97.5" cy="15.6" r="1.8"/>
		<circle class="st1" cx="101.8" cy="15.6" r="1.8"/>
		<circle class="st1" cx="106.1" cy="15.6" r="1.8"/>
		<text transform="matrix(1 0 0 1 17.4308 16.6516)" class="st1 st2 st3">00</text>
		<text transform="matrix(1 0 0 1 109.2408 16.6516)" class="st1 st2 st3">00</text>
	</g>
	<g>
		<circle class="st1" cx="23.9" cy="9.6" r="1.9"/>
		<circle class="st1" cx="28.3" cy="9.6" r="1.9"/>
		<circle class="st1" cx="32.6" cy="9.6" r="1.8"/>
		<circle class="st1" cx="36.9" cy="9.6" r="1.8"/>
		<circle class="st1" cx="41.2" cy="9.6" r="1.8"/>
		<circle class="st1" cx="45.5" cy="9.6" r="1.8"/>
		<circle class="st1" cx="49.9" cy="9.6" r="1.8"/>
		<circle class="st1" cx="54.2" cy="9.6" r="1.8"/>
		<circle class="st1" cx="58.5" cy="9.6" r="1.8"/>
		<circle class="st1" cx="62.8" cy="9.6" r="1.8"/>
		<circle class="st1" cx="67.2" cy="9.6" r="1.8"/>
		<circle class="st1" cx="71.5" cy="9.6" r="1.8"/>
		<circle class="st1" cx="75.8" cy="9.6" r="1.8"/>
		<circle class="st1" cx="80.2" cy="9.6" r="1.8"/>
		<circle class="st1" cx="84.5" cy="9.6" r="1.8"/>
		<circle class="st1" cx="88.8" cy="9.6" r="1.8"/>
		<circle class="st1" cx="93.2" cy="9.6" r="1.8"/>
		<circle class="st1" cx="97.5" cy="9.6" r="1.8"/>
		<circle class="st1" cx="101.8" cy="9.6" r="1.8"/>
		<circle class="st1" cx="106.1" cy="9.6" r="1.8"/>
		<text transform="matrix(1 0 0 1 17.4308 10.7217)" class="st1 st2 st3">00</text>
		<text transform="matrix(1 0 0 1 109.2408 10.7217)" class="st1 st2 st3">00</text>
	</g>
</g>
</svg>
