<?xml version="1.0" encoding="utf-8"?>
<!-- Generator: Adobe Illustrator 23.0.1, SVG Export Plug-In . SVG Version: 6.00 Build 0)  -->
<svg version="1.1" id="Layer_1" xmlns="http://www.w3.org/2000/svg" xmlns:xlink="http://www.w3.org/1999/xlink" x="0px" y="0px"
	 viewBox="0 0 131 205" style="enable-background:new 0 0 131 205;" xml:space="preserve">
<style type="text/css">
	.st0{fill:#F1F3F4;stroke:#BCC8CE;stroke-width:0.4;stroke-linecap:round;stroke-miterlimit:10;}
	.st1{fill:#AEBDC4;}
	.st2{font-family:'Roboto-Medium';}
	.st3{font-size:3px;}
</style>
<polygon class="st0" points="0.5,204.4 0.5,0.6 130.5,27 130.5,204.4 "/>
<g>
	<g>
		<circle class="st1" cx="11.4" cy="197" r="1.9"/>
		<circle class="st1" cx="15.7" cy="197" r="1.9"/>
		<circle class="st1" cx="20" cy="197" r="1.9"/>
		<circle class="st1" cx="24.4" cy="197" r="1.9"/>
		<circle class="st1" cx="28.7" cy="197" r="1.9"/>
		<circle class="st1" cx="33" cy="197" r="1.9"/>
		<circle class="st1" cx="37.3" cy="197" r="1.9"/>
		<circle class="st1" cx="41.7" cy="197" r="1.9"/>
		<circle class="st1" cx="46" cy="197" r="1.9"/>
		<circle class="st1" cx="50.3" cy="197" r="1.9"/>
		<circle class="st1" cx="54.6" cy="197" r="1.9"/>
		<circle class="st1" cx="59" cy="197" r="1.9"/>
		<circle class="st1" cx="63.3" cy="197" r="1.9"/>
		<circle class="st1" cx="67.6" cy="197" r="1.9"/>
		<circle class="st1" cx="71.9" cy="197" r="1.9"/>
		<circle class="st1" cx="76.3" cy="197" r="1.9"/>
		<circle class="st1" cx="80.6" cy="197" r="1.9"/>
		<circle class="st1" cx="84.9" cy="197" r="1.9"/>
		<circle class="st1" cx="89.3" cy="197" r="1.9"/>
		<circle class="st1" cx="93.6" cy="197" r="1.9"/>
		<text transform="matrix(1 0 0 1 4.9009 198.0405)" class="st1 st2 st3">00</text>
		<text transform="matrix(1 0 0 1 96.7109 198.0405)" class="st1 st2 st3">00</text>
	</g>
	<g>
		<circle class="st1" cx="11.4" cy="191.1" r="1.9"/>
		<circle class="st1" cx="15.7" cy="191.1" r="1.9"/>
		<circle class="st1" cx="20" cy="191.1" r="1.9"/>
		<circle class="st1" cx="24.4" cy="191.1" r="1.9"/>
		<circle class="st1" cx="28.7" cy="191.1" r="1.9"/>
		<circle class="st1" cx="33" cy="191.1" r="1.9"/>
		<circle class="st1" cx="37.3" cy="191.1" r="1.9"/>
		<circle class="st1" cx="41.7" cy="191.1" r="1.9"/>
		<circle class="st1" cx="46" cy="191.1" r="1.9"/>
		<circle class="st1" cx="50.3" cy="191.1" r="1.9"/>
		<circle class="st1" cx="54.6" cy="191.1" r="1.9"/>
		<circle class="st1" cx="59" cy="191.1" r="1.9"/>
		<circle class="st1" cx="63.3" cy="191.1" r="1.9"/>
		<circle class="st1" cx="67.6" cy="191.1" r="1.9"/>
		<circle class="st1" cx="71.9" cy="191.1" r="1.9"/>
		<circle class="st1" cx="76.3" cy="191.1" r="1.9"/>
		<circle class="st1" cx="80.6" cy="191.1" r="1.9"/>
		<circle class="st1" cx="84.9" cy="191.1" r="1.9"/>
		<circle class="st1" cx="89.3" cy="191.1" r="1.9"/>
		<circle class="st1" cx="93.6" cy="191.1" r="1.9"/>
		<text transform="matrix(1 0 0 1 4.9009 192.1105)" class="st1 st2 st3">00</text>
		<text transform="matrix(1 0 0 1 96.7109 192.1105)" class="st1 st2 st3">00</text>
	</g>
	<g>
		<circle class="st1" cx="11.4" cy="185.1" r="1.9"/>
		<circle class="st1" cx="15.7" cy="185.1" r="1.9"/>
		<circle class="st1" cx="20" cy="185.1" r="1.9"/>
		<circle class="st1" cx="24.4" cy="185.1" r="1.9"/>
		<circle class="st1" cx="28.7" cy="185.1" r="1.9"/>
		<circle class="st1" cx="33" cy="185.1" r="1.9"/>
		<circle class="st1" cx="37.3" cy="185.1" r="1.9"/>
		<circle class="st1" cx="41.7" cy="185.1" r="1.9"/>
		<circle class="st1" cx="46" cy="185.1" r="1.9"/>
		<circle class="st1" cx="50.3" cy="185.1" r="1.9"/>
		<circle class="st1" cx="54.6" cy="185.1" r="1.9"/>
		<circle class="st1" cx="59" cy="185.1" r="1.9"/>
		<circle class="st1" cx="63.3" cy="185.1" r="1.9"/>
		<circle class="st1" cx="67.6" cy="185.1" r="1.9"/>
		<circle class="st1" cx="71.9" cy="185.1" r="1.9"/>
		<circle class="st1" cx="76.3" cy="185.1" r="1.9"/>
		<circle class="st1" cx="80.6" cy="185.1" r="1.9"/>
		<circle class="st1" cx="84.9" cy="185.1" r="1.9"/>
		<circle class="st1" cx="89.3" cy="185.1" r="1.9"/>
		<circle class="st1" cx="93.6" cy="185.1" r="1.9"/>
		<circle class="st1" cx="97.9" cy="185.1" r="1.9"/>
		<circle class="st1" cx="102.3" cy="185.1" r="1.9"/>
		<circle class="st1" cx="106.6" cy="185.1" r="1.9"/>
		<circle class="st1" cx="110.9" cy="185.1" r="1.9"/>
		<circle class="st1" cx="115.3" cy="185.1" r="1.9"/>
		<circle class="st1" cx="119.6" cy="185.1" r="1.9"/>
		<text transform="matrix(1 0 0 1 4.9009 186.1804)" class="st1 st2 st3">00</text>
		<text transform="matrix(1 0 0 1 122.6909 186.1804)" class="st1 st2 st3">00</text>
	</g>
	<g>
		<circle class="st1" cx="11.4" cy="179.2" r="1.9"/>
		<circle class="st1" cx="15.7" cy="179.2" r="1.9"/>
		<circle class="st1" cx="20" cy="179.2" r="1.9"/>
		<circle class="st1" cx="24.4" cy="179.2" r="1.9"/>
		<circle class="st1" cx="28.7" cy="179.2" r="1.9"/>
		<circle class="st1" cx="33" cy="179.2" r="1.9"/>
		<circle class="st1" cx="37.3" cy="179.2" r="1.9"/>
		<circle class="st1" cx="41.7" cy="179.2" r="1.9"/>
		<circle class="st1" cx="46" cy="179.2" r="1.9"/>
		<circle class="st1" cx="50.3" cy="179.2" r="1.9"/>
		<circle class="st1" cx="54.6" cy="179.2" r="1.9"/>
		<circle class="st1" cx="59" cy="179.2" r="1.9"/>
		<circle class="st1" cx="63.3" cy="179.2" r="1.9"/>
		<circle class="st1" cx="67.6" cy="179.2" r="1.9"/>
		<circle class="st1" cx="71.9" cy="179.2" r="1.9"/>
		<circle class="st1" cx="76.3" cy="179.2" r="1.9"/>
		<circle class="st1" cx="80.6" cy="179.2" r="1.9"/>
		<circle class="st1" cx="84.9" cy="179.2" r="1.9"/>
		<circle class="st1" cx="89.3" cy="179.2" r="1.9"/>
		<circle class="st1" cx="93.6" cy="179.2" r="1.9"/>
		<circle class="st1" cx="97.9" cy="179.2" r="1.9"/>
		<circle class="st1" cx="102.3" cy="179.2" r="1.9"/>
		<circle class="st1" cx="106.6" cy="179.2" r="1.9"/>
		<circle class="st1" cx="110.9" cy="179.2" r="1.9"/>
		<circle class="st1" cx="115.3" cy="179.2" r="1.9"/>
		<circle class="st1" cx="119.6" cy="179.2" r="1.9"/>
		<text transform="matrix(1 0 0 1 4.9009 180.2504)" class="st1 st2 st3">00</text>
		<text transform="matrix(1 0 0 1 122.6909 180.2504)" class="st1 st2 st3">00</text>
	</g>
	<g>
		<circle class="st1" cx="11.4" cy="173.3" r="1.9"/>
		<circle class="st1" cx="15.7" cy="173.3" r="1.9"/>
		<circle class="st1" cx="20" cy="173.3" r="1.9"/>
		<circle class="st1" cx="24.4" cy="173.3" r="1.9"/>
		<circle class="st1" cx="28.7" cy="173.3" r="1.9"/>
		<circle class="st1" cx="33" cy="173.3" r="1.9"/>
		<circle class="st1" cx="37.3" cy="173.3" r="1.9"/>
		<circle class="st1" cx="41.7" cy="173.3" r="1.9"/>
		<circle class="st1" cx="46" cy="173.3" r="1.9"/>
		<circle class="st1" cx="50.3" cy="173.3" r="1.9"/>
		<circle class="st1" cx="54.6" cy="173.3" r="1.9"/>
		<circle class="st1" cx="59" cy="173.3" r="1.9"/>
		<circle class="st1" cx="63.3" cy="173.3" r="1.9"/>
		<circle class="st1" cx="67.6" cy="173.3" r="1.9"/>
		<circle class="st1" cx="71.9" cy="173.3" r="1.9"/>
		<circle class="st1" cx="76.3" cy="173.3" r="1.9"/>
		<circle class="st1" cx="80.6" cy="173.3" r="1.9"/>
		<circle class="st1" cx="84.9" cy="173.3" r="1.9"/>
		<circle class="st1" cx="89.3" cy="173.3" r="1.9"/>
		<circle class="st1" cx="93.6" cy="173.3" r="1.9"/>
		<circle class="st1" cx="97.9" cy="173.3" r="1.9"/>
		<circle class="st1" cx="102.3" cy="173.3" r="1.9"/>
		<circle class="st1" cx="106.6" cy="173.3" r="1.9"/>
		<circle class="st1" cx="110.9" cy="173.3" r="1.9"/>
		<circle class="st1" cx="115.3" cy="173.3" r="1.9"/>
		<circle class="st1" cx="119.6" cy="173.3" r="1.9"/>
		<text transform="matrix(1 0 0 1 4.9009 174.3203)" class="st1 st2 st3">00</text>
		<text transform="matrix(1 0 0 1 122.6909 174.3203)" class="st1 st2 st3">00</text>
	</g>
	<g>
		<circle class="st1" cx="20.1" cy="167.3" r="1.9"/>
		<circle class="st1" cx="24.4" cy="167.3" r="1.9"/>
		<circle class="st1" cx="28.7" cy="167.3" r="1.9"/>
		<circle class="st1" cx="33" cy="167.3" r="1.9"/>
		<circle class="st1" cx="37.3" cy="167.3" r="1.9"/>
		<circle class="st1" cx="41.7" cy="167.3" r="1.9"/>
		<circle class="st1" cx="46" cy="167.3" r="1.9"/>
		<circle class="st1" cx="50.3" cy="167.3" r="1.9"/>
		<circle class="st1" cx="54.6" cy="167.3" r="1.9"/>
		<circle class="st1" cx="59" cy="167.3" r="1.9"/>
		<circle class="st1" cx="63.3" cy="167.3" r="1.9"/>
		<circle class="st1" cx="67.6" cy="167.3" r="1.9"/>
		<circle class="st1" cx="71.9" cy="167.3" r="1.9"/>
		<circle class="st1" cx="76.3" cy="167.3" r="1.9"/>
		<circle class="st1" cx="80.6" cy="167.3" r="1.9"/>
		<circle class="st1" cx="84.9" cy="167.3" r="1.9"/>
		<circle class="st1" cx="89.3" cy="167.3" r="1.9"/>
		<circle class="st1" cx="93.6" cy="167.3" r="1.9"/>
		<circle class="st1" cx="97.9" cy="167.3" r="1.9"/>
		<circle class="st1" cx="102.3" cy="167.3" r="1.9"/>
		<circle class="st1" cx="106.6" cy="167.3" r="1.9"/>
		<circle class="st1" cx="110.9" cy="167.3" r="1.9"/>
		<text transform="matrix(1 0 0 1 13.5409 168.3903)" class="st1 st2 st3">00</text>
		<text transform="matrix(1 0 0 1 114.0309 168.3903)" class="st1 st2 st3">00</text>
	</g>
	<g>
		<circle class="st1" cx="20.1" cy="161.4" r="1.9"/>
		<circle class="st1" cx="24.4" cy="161.4" r="1.9"/>
		<circle class="st1" cx="28.7" cy="161.4" r="1.9"/>
		<circle class="st1" cx="33" cy="161.4" r="1.9"/>
		<circle class="st1" cx="37.3" cy="161.4" r="1.9"/>
		<circle class="st1" cx="41.7" cy="161.4" r="1.9"/>
		<circle class="st1" cx="46" cy="161.4" r="1.9"/>
		<circle class="st1" cx="50.3" cy="161.4" r="1.9"/>
		<circle class="st1" cx="54.6" cy="161.4" r="1.9"/>
		<circle class="st1" cx="59" cy="161.4" r="1.9"/>
		<circle class="st1" cx="63.3" cy="161.4" r="1.9"/>
		<circle class="st1" cx="67.6" cy="161.4" r="1.9"/>
		<circle class="st1" cx="71.9" cy="161.4" r="1.9"/>
		<circle class="st1" cx="76.3" cy="161.4" r="1.9"/>
		<circle class="st1" cx="80.6" cy="161.4" r="1.9"/>
		<circle class="st1" cx="84.9" cy="161.4" r="1.9"/>
		<circle class="st1" cx="89.3" cy="161.4" r="1.9"/>
		<circle class="st1" cx="93.6" cy="161.4" r="1.9"/>
		<circle class="st1" cx="97.9" cy="161.4" r="1.9"/>
		<circle class="st1" cx="102.3" cy="161.4" r="1.9"/>
		<circle class="st1" cx="106.6" cy="161.4" r="1.9"/>
		<circle class="st1" cx="110.9" cy="161.4" r="1.9"/>
		<text transform="matrix(1 0 0 1 13.5409 162.4602)" class="st1 st2 st3">00</text>
		<text transform="matrix(1 0 0 1 114.0309 162.4602)" class="st1 st2 st3">00</text>
	</g>
	<g>
		<circle class="st1" cx="20.1" cy="155.5" r="1.9"/>
		<circle class="st1" cx="24.4" cy="155.5" r="1.9"/>
		<circle class="st1" cx="28.7" cy="155.5" r="1.9"/>
		<circle class="st1" cx="33" cy="155.5" r="1.9"/>
		<circle class="st1" cx="37.3" cy="155.5" r="1.9"/>
		<circle class="st1" cx="41.7" cy="155.5" r="1.9"/>
		<circle class="st1" cx="46" cy="155.5" r="1.9"/>
		<circle class="st1" cx="50.3" cy="155.5" r="1.9"/>
		<circle class="st1" cx="54.6" cy="155.5" r="1.9"/>
		<circle class="st1" cx="59" cy="155.5" r="1.9"/>
		<circle class="st1" cx="63.3" cy="155.5" r="1.9"/>
		<circle class="st1" cx="67.6" cy="155.5" r="1.9"/>
		<circle class="st1" cx="71.9" cy="155.5" r="1.9"/>
		<circle class="st1" cx="76.3" cy="155.5" r="1.9"/>
		<circle class="st1" cx="80.6" cy="155.5" r="1.9"/>
		<circle class="st1" cx="84.9" cy="155.5" r="1.9"/>
		<circle class="st1" cx="89.3" cy="155.5" r="1.9"/>
		<circle class="st1" cx="93.6" cy="155.5" r="1.9"/>
		<circle class="st1" cx="97.9" cy="155.5" r="1.9"/>
		<circle class="st1" cx="102.3" cy="155.5" r="1.9"/>
		<circle class="st1" cx="106.6" cy="155.5" r="1.9"/>
		<circle class="st1" cx="110.9" cy="155.5" r="1.9"/>
		<text transform="matrix(1 0 0 1 13.5409 156.5302)" class="st1 st2 st3">00</text>
		<text transform="matrix(1 0 0 1 114.0309 156.5302)" class="st1 st2 st3">00</text>
	</g>
	<g>
		<circle class="st1" cx="20.1" cy="149.5" r="1.9"/>
		<circle class="st1" cx="24.4" cy="149.5" r="1.9"/>
		<circle class="st1" cx="28.7" cy="149.5" r="1.9"/>
		<circle class="st1" cx="33" cy="149.5" r="1.9"/>
		<circle class="st1" cx="37.3" cy="149.5" r="1.9"/>
		<circle class="st1" cx="41.7" cy="149.5" r="1.9"/>
		<circle class="st1" cx="46" cy="149.5" r="1.9"/>
		<circle class="st1" cx="50.3" cy="149.5" r="1.9"/>
		<circle class="st1" cx="54.6" cy="149.5" r="1.9"/>
		<circle class="st1" cx="59" cy="149.5" r="1.9"/>
		<circle class="st1" cx="63.3" cy="149.5" r="1.9"/>
		<circle class="st1" cx="67.6" cy="149.5" r="1.9"/>
		<circle class="st1" cx="71.9" cy="149.5" r="1.9"/>
		<circle class="st1" cx="76.3" cy="149.5" r="1.9"/>
		<circle class="st1" cx="80.6" cy="149.5" r="1.9"/>
		<circle class="st1" cx="84.9" cy="149.5" r="1.9"/>
		<circle class="st1" cx="89.3" cy="149.5" r="1.9"/>
		<circle class="st1" cx="93.6" cy="149.5" r="1.9"/>
		<circle class="st1" cx="97.9" cy="149.5" r="1.9"/>
		<circle class="st1" cx="102.3" cy="149.5" r="1.9"/>
		<circle class="st1" cx="106.6" cy="149.5" r="1.9"/>
		<circle class="st1" cx="110.9" cy="149.5" r="1.9"/>
		<text transform="matrix(1 0 0 1 13.5409 150.6001)" class="st1 st2 st3">00</text>
		<text transform="matrix(1 0 0 1 114.0309 150.6001)" class="st1 st2 st3">00</text>
	</g>
	<g>
		<circle class="st1" cx="20.1" cy="143.6" r="1.9"/>
		<circle class="st1" cx="24.4" cy="143.6" r="1.9"/>
		<circle class="st1" cx="28.7" cy="143.6" r="1.9"/>
		<circle class="st1" cx="33" cy="143.6" r="1.9"/>
		<circle class="st1" cx="37.3" cy="143.6" r="1.9"/>
		<circle class="st1" cx="41.7" cy="143.6" r="1.9"/>
		<circle class="st1" cx="46" cy="143.6" r="1.9"/>
		<circle class="st1" cx="50.3" cy="143.6" r="1.9"/>
		<circle class="st1" cx="54.6" cy="143.6" r="1.9"/>
		<circle class="st1" cx="59" cy="143.6" r="1.9"/>
		<circle class="st1" cx="63.3" cy="143.6" r="1.9"/>
		<circle class="st1" cx="67.6" cy="143.6" r="1.9"/>
		<circle class="st1" cx="71.9" cy="143.6" r="1.9"/>
		<circle class="st1" cx="76.3" cy="143.6" r="1.9"/>
		<circle class="st1" cx="80.6" cy="143.6" r="1.9"/>
		<circle class="st1" cx="84.9" cy="143.6" r="1.9"/>
		<circle class="st1" cx="89.3" cy="143.6" r="1.9"/>
		<circle class="st1" cx="93.6" cy="143.6" r="1.9"/>
		<circle class="st1" cx="97.9" cy="143.6" r="1.9"/>
		<circle class="st1" cx="102.3" cy="143.6" r="1.9"/>
		<circle class="st1" cx="106.6" cy="143.6" r="1.9"/>
		<circle class="st1" cx="110.9" cy="143.6" r="1.9"/>
		<text transform="matrix(1 0 0 1 13.5409 144.67)" class="st1 st2 st3">00</text>
		<text transform="matrix(1 0 0 1 114.0309 144.67)" class="st1 st2 st3">00</text>
	</g>
	<g>
		<circle class="st1" cx="11.4" cy="137.7" r="1.9"/>
		<circle class="st1" cx="15.7" cy="137.7" r="1.9"/>
		<circle class="st1" cx="20" cy="137.7" r="1.9"/>
		<circle class="st1" cx="24.4" cy="137.7" r="1.9"/>
		<circle class="st1" cx="28.7" cy="137.7" r="1.9"/>
		<circle class="st1" cx="33" cy="137.7" r="1.9"/>
		<circle class="st1" cx="37.3" cy="137.7" r="1.9"/>
		<circle class="st1" cx="41.7" cy="137.7" r="1.9"/>
		<circle class="st1" cx="46" cy="137.7" r="1.9"/>
		<circle class="st1" cx="50.3" cy="137.7" r="1.9"/>
		<circle class="st1" cx="54.6" cy="137.7" r="1.9"/>
		<circle class="st1" cx="59" cy="137.7" r="1.9"/>
		<circle class="st1" cx="63.3" cy="137.7" r="1.9"/>
		<circle class="st1" cx="67.6" cy="137.7" r="1.9"/>
		<circle class="st1" cx="71.9" cy="137.7" r="1.9"/>
		<circle class="st1" cx="76.3" cy="137.7" r="1.9"/>
		<circle class="st1" cx="80.6" cy="137.7" r="1.9"/>
		<circle class="st1" cx="84.9" cy="137.7" r="1.9"/>
		<circle class="st1" cx="89.3" cy="137.7" r="1.9"/>
		<circle class="st1" cx="93.6" cy="137.7" r="1.9"/>
		<circle class="st1" cx="97.9" cy="137.7" r="1.9"/>
		<circle class="st1" cx="102.3" cy="137.7" r="1.9"/>
		<circle class="st1" cx="106.6" cy="137.7" r="1.9"/>
		<circle class="st1" cx="110.9" cy="137.7" r="1.9"/>
		<circle class="st1" cx="115.3" cy="137.7" r="1.9"/>
		<circle class="st1" cx="119.6" cy="137.7" r="1.9"/>
		<text transform="matrix(1 0 0 1 4.9009 138.74)" class="st1 st2 st3">00</text>
		<text transform="matrix(1 0 0 1 122.6909 138.74)" class="st1 st2 st3">00</text>
	</g>
	<g>
		<circle class="st1" cx="11.4" cy="131.8" r="1.9"/>
		<circle class="st1" cx="15.7" cy="131.8" r="1.9"/>
		<circle class="st1" cx="20" cy="131.8" r="1.9"/>
		<circle class="st1" cx="24.4" cy="131.8" r="1.9"/>
		<circle class="st1" cx="28.7" cy="131.8" r="1.9"/>
		<circle class="st1" cx="33" cy="131.8" r="1.9"/>
		<circle class="st1" cx="37.3" cy="131.8" r="1.9"/>
		<circle class="st1" cx="41.7" cy="131.8" r="1.9"/>
		<circle class="st1" cx="46" cy="131.8" r="1.9"/>
		<circle class="st1" cx="50.3" cy="131.8" r="1.9"/>
		<circle class="st1" cx="54.6" cy="131.8" r="1.9"/>
		<circle class="st1" cx="59" cy="131.8" r="1.9"/>
		<circle class="st1" cx="63.3" cy="131.8" r="1.9"/>
		<circle class="st1" cx="67.6" cy="131.8" r="1.9"/>
		<circle class="st1" cx="71.9" cy="131.8" r="1.9"/>
		<circle class="st1" cx="76.3" cy="131.8" r="1.9"/>
		<circle class="st1" cx="80.6" cy="131.8" r="1.9"/>
		<circle class="st1" cx="84.9" cy="131.8" r="1.9"/>
		<circle class="st1" cx="89.3" cy="131.8" r="1.9"/>
		<circle class="st1" cx="93.6" cy="131.8" r="1.9"/>
		<circle class="st1" cx="97.9" cy="131.8" r="1.9"/>
		<circle class="st1" cx="102.3" cy="131.8" r="1.9"/>
		<circle class="st1" cx="106.6" cy="131.8" r="1.9"/>
		<circle class="st1" cx="110.9" cy="131.8" r="1.9"/>
		<circle class="st1" cx="115.3" cy="131.8" r="1.9"/>
		<circle class="st1" cx="119.6" cy="131.8" r="1.9"/>
		<text transform="matrix(1 0 0 1 4.9009 132.8099)" class="st1 st2 st3">00</text>
		<text transform="matrix(1 0 0 1 122.6909 132.8099)" class="st1 st2 st3">00</text>
	</g>
	<g>
		<circle class="st1" cx="11.4" cy="125.8" r="1.8"/>
		<circle class="st1" cx="15.7" cy="125.8" r="1.8"/>
		<circle class="st1" cx="20" cy="125.8" r="1.8"/>
		<circle class="st1" cx="24.4" cy="125.8" r="1.8"/>
		<circle class="st1" cx="28.7" cy="125.8" r="1.8"/>
		<circle class="st1" cx="33" cy="125.8" r="1.8"/>
		<circle class="st1" cx="37.3" cy="125.8" r="1.8"/>
		<circle class="st1" cx="41.7" cy="125.8" r="1.8"/>
		<circle class="st1" cx="46" cy="125.8" r="1.8"/>
		<circle class="st1" cx="50.3" cy="125.8" r="1.8"/>
		<circle class="st1" cx="54.6" cy="125.8" r="1.8"/>
		<circle class="st1" cx="59" cy="125.8" r="1.8"/>
		<circle class="st1" cx="63.3" cy="125.8" r="1.8"/>
		<circle class="st1" cx="67.6" cy="125.8" r="1.8"/>
		<circle class="st1" cx="71.9" cy="125.8" r="1.8"/>
		<circle class="st1" cx="76.3" cy="125.8" r="1.8"/>
		<circle class="st1" cx="80.6" cy="125.8" r="1.8"/>
		<circle class="st1" cx="84.9" cy="125.8" r="1.8"/>
		<circle class="st1" cx="89.3" cy="125.8" r="1.8"/>
		<circle class="st1" cx="93.6" cy="125.8" r="1.8"/>
		<circle class="st1" cx="97.9" cy="125.8" r="1.8"/>
		<circle class="st1" cx="102.3" cy="125.8" r="1.8"/>
		<circle class="st1" cx="106.6" cy="125.8" r="1.8"/>
		<circle class="st1" cx="110.9" cy="125.8" r="1.8"/>
		<circle class="st1" cx="115.3" cy="125.8" r="1.8"/>
		<circle class="st1" cx="119.6" cy="125.8" r="1.8"/>
		<text transform="matrix(1 0 0 1 4.9009 126.8799)" class="st1 st2 st3">00</text>
		<text transform="matrix(1 0 0 1 122.6909 126.8799)" class="st1 st2 st3">00</text>
	</g>
	<g>
		<circle class="st1" cx="11.4" cy="119.9" r="1.8"/>
		<circle class="st1" cx="15.7" cy="119.9" r="1.8"/>
		<circle class="st1" cx="20" cy="119.9" r="1.8"/>
		<circle class="st1" cx="24.4" cy="119.9" r="1.8"/>
		<circle class="st1" cx="28.7" cy="119.9" r="1.8"/>
		<circle class="st1" cx="33" cy="119.9" r="1.8"/>
		<circle class="st1" cx="37.3" cy="119.9" r="1.8"/>
		<circle class="st1" cx="41.7" cy="119.9" r="1.8"/>
		<circle class="st1" cx="46" cy="119.9" r="1.8"/>
		<circle class="st1" cx="50.3" cy="119.9" r="1.8"/>
		<circle class="st1" cx="54.6" cy="119.9" r="1.8"/>
		<circle class="st1" cx="59" cy="119.9" r="1.8"/>
		<circle class="st1" cx="63.3" cy="119.9" r="1.8"/>
		<circle class="st1" cx="67.6" cy="119.9" r="1.8"/>
		<circle class="st1" cx="71.9" cy="119.9" r="1.8"/>
		<circle class="st1" cx="76.3" cy="119.9" r="1.8"/>
		<circle class="st1" cx="80.6" cy="119.9" r="1.8"/>
		<circle class="st1" cx="84.9" cy="119.9" r="1.8"/>
		<circle class="st1" cx="89.3" cy="119.9" r="1.8"/>
		<circle class="st1" cx="93.6" cy="119.9" r="1.8"/>
		<circle class="st1" cx="97.9" cy="119.9" r="1.8"/>
		<circle class="st1" cx="102.3" cy="119.9" r="1.8"/>
		<circle class="st1" cx="106.6" cy="119.9" r="1.8"/>
		<circle class="st1" cx="110.9" cy="119.9" r="1.8"/>
		<circle class="st1" cx="115.3" cy="119.9" r="1.8"/>
		<circle class="st1" cx="119.6" cy="119.9" r="1.8"/>
		<text transform="matrix(1 0 0 1 4.9009 120.9498)" class="st1 st2 st3">00</text>
		<text transform="matrix(1 0 0 1 122.6909 120.9498)" class="st1 st2 st3">00</text>
	</g>
	<g>
		<circle class="st1" cx="11.4" cy="113.9" r="1.8"/>
		<circle class="st1" cx="15.7" cy="113.9" r="1.8"/>
		<circle class="st1" cx="20" cy="113.9" r="1.8"/>
		<circle class="st1" cx="24.4" cy="113.9" r="1.8"/>
		<circle class="st1" cx="28.7" cy="113.9" r="1.8"/>
		<circle class="st1" cx="33" cy="113.9" r="1.8"/>
		<circle class="st1" cx="37.3" cy="113.9" r="1.8"/>
		<circle class="st1" cx="41.7" cy="113.9" r="1.8"/>
		<circle class="st1" cx="46" cy="113.9" r="1.8"/>
		<circle class="st1" cx="50.3" cy="113.9" r="1.8"/>
		<circle class="st1" cx="54.6" cy="113.9" r="1.8"/>
		<circle class="st1" cx="59" cy="113.9" r="1.8"/>
		<circle class="st1" cx="63.3" cy="113.9" r="1.8"/>
		<circle class="st1" cx="67.6" cy="113.9" r="1.8"/>
		<circle class="st1" cx="71.9" cy="113.9" r="1.8"/>
		<circle class="st1" cx="76.3" cy="113.9" r="1.8"/>
		<circle class="st1" cx="80.6" cy="113.9" r="1.8"/>
		<circle class="st1" cx="84.9" cy="113.9" r="1.8"/>
		<circle class="st1" cx="89.3" cy="113.9" r="1.8"/>
		<circle class="st1" cx="93.6" cy="113.9" r="1.8"/>
		<circle class="st1" cx="97.9" cy="113.9" r="1.8"/>
		<circle class="st1" cx="102.3" cy="113.9" r="1.8"/>
		<circle class="st1" cx="106.6" cy="113.9" r="1.8"/>
		<circle class="st1" cx="110.9" cy="113.9" r="1.8"/>
		<circle class="st1" cx="115.3" cy="113.9" r="1.8"/>
		<circle class="st1" cx="119.6" cy="113.9" r="1.8"/>
		<text transform="matrix(1 0 0 1 4.9009 115.0198)" class="st1 st2 st3">00</text>
		<text transform="matrix(1 0 0 1 122.6909 115.0198)" class="st1 st2 st3">00</text>
	</g>
	<g>
		<circle class="st1" cx="11.4" cy="108" r="1.8"/>
		<circle class="st1" cx="15.7" cy="108" r="1.8"/>
		<circle class="st1" cx="20" cy="108" r="1.8"/>
		<circle class="st1" cx="24.4" cy="108" r="1.8"/>
		<circle class="st1" cx="28.7" cy="108" r="1.8"/>
		<circle class="st1" cx="33" cy="108" r="1.8"/>
		<circle class="st1" cx="37.3" cy="108" r="1.8"/>
		<circle class="st1" cx="41.7" cy="108" r="1.8"/>
		<circle class="st1" cx="46" cy="108" r="1.8"/>
		<circle class="st1" cx="50.3" cy="108" r="1.8"/>
		<circle class="st1" cx="54.6" cy="108" r="1.8"/>
		<circle class="st1" cx="59" cy="108" r="1.8"/>
		<circle class="st1" cx="63.3" cy="108" r="1.8"/>
		<circle class="st1" cx="67.6" cy="108" r="1.8"/>
		<circle class="st1" cx="71.9" cy="108" r="1.8"/>
		<circle class="st1" cx="76.3" cy="108" r="1.8"/>
		<circle class="st1" cx="80.6" cy="108" r="1.8"/>
		<circle class="st1" cx="84.9" cy="108" r="1.8"/>
		<circle class="st1" cx="89.3" cy="108" r="1.8"/>
		<circle class="st1" cx="93.6" cy="108" r="1.8"/>
		<circle class="st1" cx="97.9" cy="108" r="1.8"/>
		<circle class="st1" cx="102.3" cy="108" r="1.8"/>
		<circle class="st1" cx="106.6" cy="108" r="1.8"/>
		<circle class="st1" cx="110.9" cy="108" r="1.8"/>
		<circle class="st1" cx="115.3" cy="108" r="1.8"/>
		<circle class="st1" cx="119.6" cy="108" r="1.8"/>
		<text transform="matrix(1 0 0 1 4.9009 109.0897)" class="st1 st2 st3">00</text>
		<text transform="matrix(1 0 0 1 122.6909 109.0897)" class="st1 st2 st3">00</text>
	</g>
	<g>
		<circle class="st1" cx="11.4" cy="102.1" r="1.8"/>
		<circle class="st1" cx="15.7" cy="102.1" r="1.8"/>
		<circle class="st1" cx="20" cy="102.1" r="1.8"/>
		<circle class="st1" cx="24.4" cy="102.1" r="1.8"/>
		<circle class="st1" cx="28.7" cy="102.1" r="1.8"/>
		<circle class="st1" cx="33" cy="102.1" r="1.8"/>
		<circle class="st1" cx="37.3" cy="102.1" r="1.8"/>
		<circle class="st1" cx="41.7" cy="102.1" r="1.8"/>
		<circle class="st1" cx="46" cy="102.1" r="1.8"/>
		<circle class="st1" cx="50.3" cy="102.1" r="1.8"/>
		<circle class="st1" cx="54.6" cy="102.1" r="1.8"/>
		<circle class="st1" cx="59" cy="102.1" r="1.8"/>
		<circle class="st1" cx="63.3" cy="102.1" r="1.8"/>
		<circle class="st1" cx="67.6" cy="102.1" r="1.8"/>
		<circle class="st1" cx="71.9" cy="102.1" r="1.8"/>
		<circle class="st1" cx="76.3" cy="102.1" r="1.8"/>
		<circle class="st1" cx="80.6" cy="102.1" r="1.8"/>
		<circle class="st1" cx="84.9" cy="102.1" r="1.8"/>
		<circle class="st1" cx="89.3" cy="102.1" r="1.8"/>
		<circle class="st1" cx="93.6" cy="102.1" r="1.8"/>
		<circle class="st1" cx="97.9" cy="102.1" r="1.8"/>
		<circle class="st1" cx="102.3" cy="102.1" r="1.8"/>
		<circle class="st1" cx="106.6" cy="102.1" r="1.8"/>
		<circle class="st1" cx="110.9" cy="102.1" r="1.8"/>
		<circle class="st1" cx="115.3" cy="102.1" r="1.8"/>
		<circle class="st1" cx="119.6" cy="102.1" r="1.8"/>
		<text transform="matrix(1 0 0 1 4.9009 103.1597)" class="st1 st2 st3">00</text>
		<text transform="matrix(1 0 0 1 122.6909 103.1597)" class="st1 st2 st3">00</text>
	</g>
	<g>
		<circle class="st1" cx="11.4" cy="96.2" r="1.8"/>
		<circle class="st1" cx="15.7" cy="96.2" r="1.8"/>
		<circle class="st1" cx="20" cy="96.2" r="1.8"/>
		<circle class="st1" cx="24.4" cy="96.2" r="1.8"/>
		<circle class="st1" cx="28.7" cy="96.2" r="1.8"/>
		<circle class="st1" cx="33" cy="96.2" r="1.8"/>
		<circle class="st1" cx="37.3" cy="96.2" r="1.8"/>
		<circle class="st1" cx="41.7" cy="96.2" r="1.8"/>
		<circle class="st1" cx="46" cy="96.2" r="1.8"/>
		<circle class="st1" cx="50.3" cy="96.2" r="1.8"/>
		<circle class="st1" cx="54.6" cy="96.2" r="1.8"/>
		<circle class="st1" cx="59" cy="96.2" r="1.8"/>
		<circle class="st1" cx="63.3" cy="96.2" r="1.8"/>
		<circle class="st1" cx="67.6" cy="96.2" r="1.8"/>
		<circle class="st1" cx="71.9" cy="96.2" r="1.8"/>
		<circle class="st1" cx="76.3" cy="96.2" r="1.8"/>
		<circle class="st1" cx="80.6" cy="96.2" r="1.8"/>
		<circle class="st1" cx="84.9" cy="96.2" r="1.8"/>
		<circle class="st1" cx="89.3" cy="96.2" r="1.8"/>
		<circle class="st1" cx="93.6" cy="96.2" r="1.8"/>
		<circle class="st1" cx="97.9" cy="96.2" r="1.8"/>
		<circle class="st1" cx="102.3" cy="96.2" r="1.8"/>
		<circle class="st1" cx="106.6" cy="96.2" r="1.8"/>
		<circle class="st1" cx="110.9" cy="96.2" r="1.8"/>
		<circle class="st1" cx="115.3" cy="96.2" r="1.8"/>
		<circle class="st1" cx="119.6" cy="96.2" r="1.8"/>
		<text transform="matrix(1 0 0 1 4.9009 97.2296)" class="st1 st2 st3">00</text>
		<text transform="matrix(1 0 0 1 122.6909 97.2296)" class="st1 st2 st3">00</text>
	</g>
	<g>
		<circle class="st1" cx="11.4" cy="90.2" r="1.8"/>
		<circle class="st1" cx="15.7" cy="90.2" r="1.8"/>
		<circle class="st1" cx="20" cy="90.2" r="1.8"/>
		<circle class="st1" cx="24.4" cy="90.2" r="1.8"/>
		<circle class="st1" cx="28.7" cy="90.2" r="1.8"/>
		<circle class="st1" cx="33" cy="90.2" r="1.8"/>
		<circle class="st1" cx="37.3" cy="90.2" r="1.8"/>
		<circle class="st1" cx="41.7" cy="90.2" r="1.8"/>
		<circle class="st1" cx="46" cy="90.2" r="1.8"/>
		<circle class="st1" cx="50.3" cy="90.2" r="1.8"/>
		<circle class="st1" cx="54.6" cy="90.2" r="1.8"/>
		<circle class="st1" cx="59" cy="90.2" r="1.8"/>
		<circle class="st1" cx="63.3" cy="90.2" r="1.8"/>
		<circle class="st1" cx="67.6" cy="90.2" r="1.8"/>
		<circle class="st1" cx="71.9" cy="90.2" r="1.8"/>
		<circle class="st1" cx="76.3" cy="90.2" r="1.8"/>
		<circle class="st1" cx="80.6" cy="90.2" r="1.8"/>
		<circle class="st1" cx="84.9" cy="90.2" r="1.8"/>
		<circle class="st1" cx="89.3" cy="90.2" r="1.8"/>
		<circle class="st1" cx="93.6" cy="90.2" r="1.8"/>
		<circle class="st1" cx="97.9" cy="90.2" r="1.8"/>
		<circle class="st1" cx="102.3" cy="90.2" r="1.8"/>
		<circle class="st1" cx="106.6" cy="90.2" r="1.8"/>
		<circle class="st1" cx="110.9" cy="90.2" r="1.8"/>
		<circle class="st1" cx="115.3" cy="90.2" r="1.8"/>
		<circle class="st1" cx="119.6" cy="90.2" r="1.8"/>
		<text transform="matrix(1 0 0 1 4.9009 91.2996)" class="st1 st2 st3">00</text>
		<text transform="matrix(1 0 0 1 122.6909 91.2996)" class="st1 st2 st3">00</text>
	</g>
	<g>
		<circle class="st1" cx="11.4" cy="84.3" r="1.8"/>
		<circle class="st1" cx="15.7" cy="84.3" r="1.8"/>
		<circle class="st1" cx="20" cy="84.3" r="1.8"/>
		<circle class="st1" cx="24.4" cy="84.3" r="1.8"/>
		<circle class="st1" cx="28.7" cy="84.3" r="1.8"/>
		<circle class="st1" cx="33" cy="84.3" r="1.8"/>
		<circle class="st1" cx="37.3" cy="84.3" r="1.8"/>
		<circle class="st1" cx="41.7" cy="84.3" r="1.8"/>
		<circle class="st1" cx="46" cy="84.3" r="1.8"/>
		<circle class="st1" cx="50.3" cy="84.3" r="1.8"/>
		<circle class="st1" cx="54.6" cy="84.3" r="1.8"/>
		<circle class="st1" cx="59" cy="84.3" r="1.8"/>
		<circle class="st1" cx="63.3" cy="84.3" r="1.8"/>
		<circle class="st1" cx="67.6" cy="84.3" r="1.8"/>
		<circle class="st1" cx="71.9" cy="84.3" r="1.8"/>
		<circle class="st1" cx="76.3" cy="84.3" r="1.8"/>
		<circle class="st1" cx="80.6" cy="84.3" r="1.8"/>
		<circle class="st1" cx="84.9" cy="84.3" r="1.8"/>
		<circle class="st1" cx="89.3" cy="84.3" r="1.8"/>
		<circle class="st1" cx="93.6" cy="84.3" r="1.8"/>
		<circle class="st1" cx="97.9" cy="84.3" r="1.8"/>
		<circle class="st1" cx="102.3" cy="84.3" r="1.8"/>
		<circle class="st1" cx="106.6" cy="84.3" r="1.8"/>
		<circle class="st1" cx="110.9" cy="84.3" r="1.8"/>
		<circle class="st1" cx="115.3" cy="84.3" r="1.8"/>
		<circle class="st1" cx="119.6" cy="84.3" r="1.8"/>
		<text transform="matrix(1 0 0 1 4.9009 85.3695)" class="st1 st2 st3">00</text>
		<text transform="matrix(1 0 0 1 122.6909 85.3695)" class="st1 st2 st3">00</text>
	</g>
	<g>
		<circle class="st1" cx="11.4" cy="78.4" r="1.8"/>
		<circle class="st1" cx="15.7" cy="78.4" r="1.8"/>
		<circle class="st1" cx="20" cy="78.4" r="1.8"/>
		<circle class="st1" cx="24.4" cy="78.4" r="1.8"/>
		<circle class="st1" cx="28.7" cy="78.4" r="1.8"/>
		<circle class="st1" cx="33" cy="78.4" r="1.8"/>
		<circle class="st1" cx="37.3" cy="78.4" r="1.8"/>
		<circle class="st1" cx="41.7" cy="78.4" r="1.8"/>
		<circle class="st1" cx="46" cy="78.4" r="1.8"/>
		<circle class="st1" cx="50.3" cy="78.4" r="1.8"/>
		<circle class="st1" cx="54.6" cy="78.4" r="1.8"/>
		<circle class="st1" cx="59" cy="78.4" r="1.8"/>
		<circle class="st1" cx="63.3" cy="78.4" r="1.8"/>
		<circle class="st1" cx="67.6" cy="78.4" r="1.8"/>
		<circle class="st1" cx="71.9" cy="78.4" r="1.8"/>
		<circle class="st1" cx="76.3" cy="78.4" r="1.8"/>
		<circle class="st1" cx="80.6" cy="78.4" r="1.8"/>
		<circle class="st1" cx="84.9" cy="78.4" r="1.8"/>
		<circle class="st1" cx="89.3" cy="78.4" r="1.8"/>
		<circle class="st1" cx="93.6" cy="78.4" r="1.8"/>
		<circle class="st1" cx="97.9" cy="78.4" r="1.8"/>
		<circle class="st1" cx="102.3" cy="78.4" r="1.8"/>
		<circle class="st1" cx="106.6" cy="78.4" r="1.8"/>
		<circle class="st1" cx="110.9" cy="78.4" r="1.8"/>
		<circle class="st1" cx="115.3" cy="78.4" r="1.8"/>
		<circle class="st1" cx="119.6" cy="78.4" r="1.8"/>
		<text transform="matrix(1 0 0 1 4.9009 79.4395)" class="st1 st2 st3">00</text>
		<text transform="matrix(1 0 0 1 122.6909 79.4395)" class="st1 st2 st3">00</text>
	</g>
	<g>
		<circle class="st1" cx="11.4" cy="72.4" r="1.8"/>
		<circle class="st1" cx="15.7" cy="72.4" r="1.8"/>
		<circle class="st1" cx="20" cy="72.4" r="1.8"/>
		<circle class="st1" cx="24.4" cy="72.4" r="1.8"/>
		<circle class="st1" cx="28.7" cy="72.4" r="1.8"/>
		<circle class="st1" cx="33" cy="72.4" r="1.8"/>
		<circle class="st1" cx="37.3" cy="72.4" r="1.8"/>
		<circle class="st1" cx="41.7" cy="72.4" r="1.8"/>
		<circle class="st1" cx="46" cy="72.4" r="1.8"/>
		<circle class="st1" cx="50.3" cy="72.4" r="1.8"/>
		<circle class="st1" cx="54.6" cy="72.4" r="1.8"/>
		<circle class="st1" cx="59" cy="72.4" r="1.8"/>
		<circle class="st1" cx="63.3" cy="72.4" r="1.8"/>
		<circle class="st1" cx="67.6" cy="72.4" r="1.8"/>
		<circle class="st1" cx="71.9" cy="72.4" r="1.8"/>
		<circle class="st1" cx="76.3" cy="72.4" r="1.8"/>
		<circle class="st1" cx="80.6" cy="72.4" r="1.8"/>
		<circle class="st1" cx="84.9" cy="72.4" r="1.8"/>
		<circle class="st1" cx="89.3" cy="72.4" r="1.8"/>
		<circle class="st1" cx="93.6" cy="72.4" r="1.8"/>
		<circle class="st1" cx="97.9" cy="72.4" r="1.8"/>
		<circle class="st1" cx="102.3" cy="72.4" r="1.8"/>
		<circle class="st1" cx="106.6" cy="72.4" r="1.8"/>
		<circle class="st1" cx="110.9" cy="72.4" r="1.8"/>
		<circle class="st1" cx="115.3" cy="72.4" r="1.8"/>
		<circle class="st1" cx="119.6" cy="72.4" r="1.8"/>
		<text transform="matrix(1 0 0 1 4.9009 73.5094)" class="st1 st2 st3">00</text>
		<text transform="matrix(1 0 0 1 122.6909 73.5094)" class="st1 st2 st3">00</text>
	</g>
	<g>
		<circle class="st1" cx="11.4" cy="66.5" r="1.8"/>
		<circle class="st1" cx="15.7" cy="66.5" r="1.8"/>
		<circle class="st1" cx="20" cy="66.5" r="1.8"/>
		<circle class="st1" cx="24.4" cy="66.5" r="1.8"/>
		<circle class="st1" cx="28.7" cy="66.5" r="1.8"/>
		<circle class="st1" cx="33" cy="66.5" r="1.8"/>
		<circle class="st1" cx="37.3" cy="66.5" r="1.8"/>
		<circle class="st1" cx="41.7" cy="66.5" r="1.8"/>
		<circle class="st1" cx="46" cy="66.5" r="1.8"/>
		<circle class="st1" cx="50.3" cy="66.5" r="1.8"/>
		<circle class="st1" cx="54.6" cy="66.5" r="1.8"/>
		<circle class="st1" cx="59" cy="66.5" r="1.8"/>
		<circle class="st1" cx="63.3" cy="66.5" r="1.8"/>
		<circle class="st1" cx="67.6" cy="66.5" r="1.8"/>
		<circle class="st1" cx="71.9" cy="66.5" r="1.8"/>
		<circle class="st1" cx="76.3" cy="66.5" r="1.8"/>
		<circle class="st1" cx="80.6" cy="66.5" r="1.8"/>
		<circle class="st1" cx="84.9" cy="66.5" r="1.8"/>
		<circle class="st1" cx="89.3" cy="66.5" r="1.8"/>
		<circle class="st1" cx="93.6" cy="66.5" r="1.8"/>
		<circle class="st1" cx="97.9" cy="66.5" r="1.8"/>
		<circle class="st1" cx="102.3" cy="66.5" r="1.8"/>
		<circle class="st1" cx="106.6" cy="66.5" r="1.8"/>
		<circle class="st1" cx="110.9" cy="66.5" r="1.8"/>
		<circle class="st1" cx="115.3" cy="66.5" r="1.8"/>
		<circle class="st1" cx="119.6" cy="66.5" r="1.8"/>
		<text transform="matrix(1 0 0 1 4.9009 67.5793)" class="st1 st2 st3">00</text>
		<text transform="matrix(1 0 0 1 122.6909 67.5793)" class="st1 st2 st3">00</text>
	</g>
	<g>
		<circle class="st1" cx="11.4" cy="60.6" r="1.8"/>
		<circle class="st1" cx="15.7" cy="60.6" r="1.8"/>
		<circle class="st1" cx="20" cy="60.6" r="1.8"/>
		<circle class="st1" cx="24.4" cy="60.6" r="1.8"/>
		<circle class="st1" cx="28.7" cy="60.6" r="1.8"/>
		<circle class="st1" cx="33" cy="60.6" r="1.8"/>
		<circle class="st1" cx="37.3" cy="60.6" r="1.8"/>
		<circle class="st1" cx="41.7" cy="60.6" r="1.8"/>
		<circle class="st1" cx="46" cy="60.6" r="1.8"/>
		<circle class="st1" cx="50.3" cy="60.6" r="1.8"/>
		<circle class="st1" cx="54.6" cy="60.6" r="1.8"/>
		<circle class="st1" cx="59" cy="60.6" r="1.8"/>
		<circle class="st1" cx="63.3" cy="60.6" r="1.8"/>
		<circle class="st1" cx="67.6" cy="60.6" r="1.8"/>
		<circle class="st1" cx="71.9" cy="60.6" r="1.8"/>
		<circle class="st1" cx="76.3" cy="60.6" r="1.8"/>
		<circle class="st1" cx="80.6" cy="60.6" r="1.8"/>
		<circle class="st1" cx="84.9" cy="60.6" r="1.8"/>
		<circle class="st1" cx="89.3" cy="60.6" r="1.8"/>
		<circle class="st1" cx="93.6" cy="60.6" r="1.8"/>
		<circle class="st1" cx="97.9" cy="60.6" r="1.8"/>
		<circle class="st1" cx="102.3" cy="60.6" r="1.8"/>
		<circle class="st1" cx="106.6" cy="60.6" r="1.8"/>
		<circle class="st1" cx="110.9" cy="60.6" r="1.8"/>
		<circle class="st1" cx="115.3" cy="60.6" r="1.8"/>
		<circle class="st1" cx="119.6" cy="60.6" r="1.8"/>
		<text transform="matrix(1 0 0 1 4.9009 61.6493)" class="st1 st2 st3">00</text>
		<text transform="matrix(1 0 0 1 122.6909 61.6493)" class="st1 st2 st3">00</text>
	</g>
	<g>
		<circle class="st1" cx="11.4" cy="54.7" r="1.8"/>
		<circle class="st1" cx="15.7" cy="54.7" r="1.8"/>
		<circle class="st1" cx="20" cy="54.7" r="1.8"/>
		<circle class="st1" cx="24.4" cy="54.7" r="1.8"/>
		<circle class="st1" cx="28.7" cy="54.7" r="1.8"/>
		<circle class="st1" cx="33" cy="54.7" r="1.8"/>
		<circle class="st1" cx="37.3" cy="54.7" r="1.8"/>
		<circle class="st1" cx="41.7" cy="54.7" r="1.8"/>
		<circle class="st1" cx="46" cy="54.7" r="1.8"/>
		<circle class="st1" cx="50.3" cy="54.7" r="1.8"/>
		<circle class="st1" cx="54.6" cy="54.7" r="1.8"/>
		<circle class="st1" cx="59" cy="54.7" r="1.8"/>
		<circle class="st1" cx="63.3" cy="54.7" r="1.8"/>
		<circle class="st1" cx="67.6" cy="54.7" r="1.8"/>
		<circle class="st1" cx="71.9" cy="54.7" r="1.8"/>
		<circle class="st1" cx="76.3" cy="54.7" r="1.8"/>
		<circle class="st1" cx="80.6" cy="54.7" r="1.8"/>
		<circle class="st1" cx="84.9" cy="54.7" r="1.8"/>
		<circle class="st1" cx="89.3" cy="54.7" r="1.8"/>
		<circle class="st1" cx="93.6" cy="54.7" r="1.8"/>
		<circle class="st1" cx="97.9" cy="54.7" r="1.8"/>
		<circle class="st1" cx="102.3" cy="54.7" r="1.8"/>
		<circle class="st1" cx="106.6" cy="54.7" r="1.8"/>
		<circle class="st1" cx="110.9" cy="54.7" r="1.8"/>
		<circle class="st1" cx="115.3" cy="54.7" r="1.8"/>
		<circle class="st1" cx="119.6" cy="54.7" r="1.8"/>
		<text transform="matrix(1 0 0 1 4.9009 55.7192)" class="st1 st2 st3">00</text>
		<text transform="matrix(1 0 0 1 122.6909 55.7192)" class="st1 st2 st3">00</text>
	</g>
	<g>
		<circle class="st1" cx="11.4" cy="48.7" r="1.8"/>
		<circle class="st1" cx="15.7" cy="48.7" r="1.8"/>
		<circle class="st1" cx="20" cy="48.7" r="1.8"/>
		<circle class="st1" cx="24.4" cy="48.7" r="1.8"/>
		<circle class="st1" cx="28.7" cy="48.7" r="1.8"/>
		<circle class="st1" cx="33" cy="48.7" r="1.8"/>
		<circle class="st1" cx="37.3" cy="48.7" r="1.8"/>
		<circle class="st1" cx="41.7" cy="48.7" r="1.8"/>
		<circle class="st1" cx="46" cy="48.7" r="1.8"/>
		<circle class="st1" cx="50.3" cy="48.7" r="1.8"/>
		<circle class="st1" cx="54.6" cy="48.7" r="1.8"/>
		<circle class="st1" cx="59" cy="48.7" r="1.8"/>
		<circle class="st1" cx="63.3" cy="48.7" r="1.8"/>
		<circle class="st1" cx="67.6" cy="48.7" r="1.8"/>
		<circle class="st1" cx="71.9" cy="48.7" r="1.8"/>
		<circle class="st1" cx="76.3" cy="48.7" r="1.8"/>
		<circle class="st1" cx="80.6" cy="48.7" r="1.8"/>
		<circle class="st1" cx="84.9" cy="48.7" r="1.8"/>
		<circle class="st1" cx="89.3" cy="48.7" r="1.8"/>
		<circle class="st1" cx="93.6" cy="48.7" r="1.8"/>
		<circle class="st1" cx="97.9" cy="48.7" r="1.8"/>
		<circle class="st1" cx="102.3" cy="48.7" r="1.8"/>
		<circle class="st1" cx="106.6" cy="48.7" r="1.8"/>
		<circle class="st1" cx="110.9" cy="48.7" r="1.8"/>
		<circle class="st1" cx="115.3" cy="48.7" r="1.8"/>
		<circle class="st1" cx="119.6" cy="48.7" r="1.8"/>
		<text transform="matrix(1 0 0 1 4.9009 49.7892)" class="st1 st2 st3">00</text>
		<text transform="matrix(1 0 0 1 122.6909 49.7892)" class="st1 st2 st3">00</text>
	</g>
	<g>
		<circle class="st1" cx="11.4" cy="42.8" r="1.8"/>
		<circle class="st1" cx="15.7" cy="42.8" r="1.8"/>
		<circle class="st1" cx="20" cy="42.8" r="1.8"/>
		<circle class="st1" cx="24.4" cy="42.8" r="1.8"/>
		<circle class="st1" cx="28.7" cy="42.8" r="1.8"/>
		<circle class="st1" cx="33" cy="42.8" r="1.8"/>
		<circle class="st1" cx="37.3" cy="42.8" r="1.8"/>
		<circle class="st1" cx="41.7" cy="42.8" r="1.8"/>
		<circle class="st1" cx="46" cy="42.8" r="1.8"/>
		<circle class="st1" cx="50.3" cy="42.8" r="1.8"/>
		<circle class="st1" cx="54.6" cy="42.8" r="1.8"/>
		<circle class="st1" cx="59" cy="42.8" r="1.8"/>
		<circle class="st1" cx="63.3" cy="42.8" r="1.8"/>
		<circle class="st1" cx="67.6" cy="42.8" r="1.8"/>
		<circle class="st1" cx="71.9" cy="42.8" r="1.8"/>
		<circle class="st1" cx="76.3" cy="42.8" r="1.8"/>
		<circle class="st1" cx="80.6" cy="42.8" r="1.8"/>
		<circle class="st1" cx="84.9" cy="42.8" r="1.8"/>
		<circle class="st1" cx="89.3" cy="42.8" r="1.8"/>
		<circle class="st1" cx="93.6" cy="42.8" r="1.8"/>
		<circle class="st1" cx="97.9" cy="42.8" r="1.8"/>
		<circle class="st1" cx="102.3" cy="42.8" r="1.8"/>
		<circle class="st1" cx="106.6" cy="42.8" r="1.8"/>
		<circle class="st1" cx="110.9" cy="42.8" r="1.8"/>
		<circle class="st1" cx="115.3" cy="42.8" r="1.8"/>
		<circle class="st1" cx="119.6" cy="42.8" r="1.8"/>
		<text transform="matrix(1 0 0 1 4.9009 43.8591)" class="st1 st2 st3">00</text>
		<text transform="matrix(1 0 0 1 122.6909 43.8591)" class="st1 st2 st3">00</text>
	</g>
	<g>
		<circle class="st1" cx="11.4" cy="36.8" r="1.8"/>
		<circle class="st1" cx="15.7" cy="36.8" r="1.8"/>
		<circle class="st1" cx="20" cy="36.8" r="1.8"/>
		<circle class="st1" cx="24.4" cy="36.8" r="1.8"/>
		<circle class="st1" cx="28.7" cy="36.8" r="1.8"/>
		<circle class="st1" cx="33" cy="36.8" r="1.8"/>
		<circle class="st1" cx="37.3" cy="36.8" r="1.8"/>
		<circle class="st1" cx="41.7" cy="36.8" r="1.8"/>
		<circle class="st1" cx="46" cy="36.8" r="1.8"/>
		<circle class="st1" cx="50.3" cy="36.8" r="1.8"/>
		<circle class="st1" cx="54.6" cy="36.8" r="1.8"/>
		<circle class="st1" cx="59" cy="36.8" r="1.8"/>
		<circle class="st1" cx="63.3" cy="36.8" r="1.8"/>
		<circle class="st1" cx="67.6" cy="36.8" r="1.8"/>
		<circle class="st1" cx="71.9" cy="36.8" r="1.8"/>
		<circle class="st1" cx="76.3" cy="36.8" r="1.8"/>
		<circle class="st1" cx="80.6" cy="36.8" r="1.8"/>
		<circle class="st1" cx="84.9" cy="36.8" r="1.8"/>
		<circle class="st1" cx="89.3" cy="36.8" r="1.8"/>
		<circle class="st1" cx="93.6" cy="36.8" r="1.8"/>
		<circle class="st1" cx="97.9" cy="36.8" r="1.8"/>
		<circle class="st1" cx="102.3" cy="36.8" r="1.8"/>
		<circle class="st1" cx="106.6" cy="36.8" r="1.8"/>
		<circle class="st1" cx="110.9" cy="36.8" r="1.8"/>
		<text transform="matrix(1 0 0 1 4.9009 37.9291)" class="st1 st2 st3">00</text>
		<text transform="matrix(1 0 0 1 114.0309 37.9291)" class="st1 st2 st3">00</text>
	</g>
	<g>
		<circle class="st1" cx="11.4" cy="30.9" r="1.9"/>
		<circle class="st1" cx="15.7" cy="30.9" r="1.9"/>
		<circle class="st1" cx="20" cy="30.9" r="1.9"/>
		<circle class="st1" cx="24.4" cy="30.9" r="1.9"/>
		<circle class="st1" cx="28.7" cy="30.9" r="1.9"/>
		<circle class="st1" cx="33" cy="30.9" r="1.8"/>
		<circle class="st1" cx="37.3" cy="30.9" r="1.8"/>
		<circle class="st1" cx="41.7" cy="30.9" r="1.8"/>
		<circle class="st1" cx="46" cy="30.9" r="1.8"/>
		<circle class="st1" cx="50.3" cy="30.9" r="1.8"/>
		<circle class="st1" cx="54.6" cy="30.9" r="1.8"/>
		<circle class="st1" cx="59" cy="30.9" r="1.8"/>
		<circle class="st1" cx="63.3" cy="30.9" r="1.8"/>
		<circle class="st1" cx="67.6" cy="30.9" r="1.8"/>
		<circle class="st1" cx="71.9" cy="30.9" r="1.8"/>
		<circle class="st1" cx="76.3" cy="30.9" r="1.8"/>
		<circle class="st1" cx="80.6" cy="30.9" r="1.8"/>
		<circle class="st1" cx="84.9" cy="30.9" r="1.8"/>
		<circle class="st1" cx="89.3" cy="30.9" r="1.8"/>
		<circle class="st1" cx="93.6" cy="30.9" r="1.8"/>
		<text transform="matrix(1 0 0 1 4.9009 31.999)" class="st1 st2 st3">00</text>
		<text transform="matrix(1 0 0 1 96.7109 31.999)" class="st1 st2 st3">00</text>
	</g>
	<g>
		<circle class="st1" cx="11.4" cy="25" r="1.9"/>
		<circle class="st1" cx="15.7" cy="25" r="1.9"/>
		<circle class="st1" cx="20" cy="25" r="1.9"/>
		<circle class="st1" cx="24.4" cy="25" r="1.9"/>
		<circle class="st1" cx="28.7" cy="25" r="1.9"/>
		<circle class="st1" cx="33" cy="25" r="1.8"/>
		<circle class="st1" cx="37.3" cy="25" r="1.8"/>
		<circle class="st1" cx="41.7" cy="25" r="1.8"/>
		<circle class="st1" cx="46" cy="25" r="1.8"/>
		<circle class="st1" cx="50.3" cy="25" r="1.8"/>
		<circle class="st1" cx="54.6" cy="25" r="1.8"/>
		<circle class="st1" cx="59" cy="25" r="1.8"/>
		<circle class="st1" cx="63.3" cy="25" r="1.8"/>
		<text transform="matrix(1 0 0 1 4.9009 26.069)" class="st1 st2 st3">00</text>
		<text transform="matrix(1 0 0 1 66.391 26.069)" class="st1 st2 st3">00</text>
	</g>
	<g>
		<circle class="st1" cx="11.4" cy="19.1" r="1.9"/>
		<circle class="st1" cx="15.7" cy="19.1" r="1.9"/>
		<circle class="st1" cx="20" cy="19.1" r="1.9"/>
		<circle class="st1" cx="24.4" cy="19.1" r="1.9"/>
		<circle class="st1" cx="28.7" cy="19.1" r="1.9"/>
		<text transform="matrix(1 0 0 1 4.9009 20.1389)" class="st1 st2 st3">00</text>
		<text transform="matrix(1 0 0 1 31.781 20.1389)" class="st1 st2 st3">00</text>
	</g>
</g>
</svg>
