<?xml version="1.0" encoding="utf-8"?>
<!-- Generator: Adobe Illustrator 23.0.1, SVG Export Plug-In . SVG Version: 6.00 Build 0)  -->
<svg version="1.1" id="Layer_1" xmlns="http://www.w3.org/2000/svg" xmlns:xlink="http://www.w3.org/1999/xlink" x="0px" y="0px"
	 viewBox="0 0 131 219" style="enable-background:new 0 0 131 219;" xml:space="preserve">
<style type="text/css">
	.st0{fill:#F1F3F4;stroke:#BCC8CE;stroke-width:0.4;stroke-linecap:round;stroke-miterlimit:10;}
	.st1{fill:#AEBDC4;}
	.st2{font-family:'Roboto-Medium';}
	.st3{font-size:3px;}
</style>
<polygon class="st0" points="0.5,218.6 0.5,0.4 130.5,10.8 130.5,218.6 "/>
<g>
	<g>
		<circle class="st1" cx="11.4" cy="209.6" r="1.9"/>
		<circle class="st1" cx="15.7" cy="209.6" r="1.9"/>
		<circle class="st1" cx="20" cy="209.6" r="1.9"/>
		<circle class="st1" cx="24.4" cy="209.6" r="1.9"/>
		<circle class="st1" cx="28.7" cy="209.6" r="1.9"/>
		<circle class="st1" cx="33" cy="209.6" r="1.9"/>
		<circle class="st1" cx="37.3" cy="209.6" r="1.9"/>
		<circle class="st1" cx="41.7" cy="209.6" r="1.9"/>
		<circle class="st1" cx="46" cy="209.6" r="1.9"/>
		<circle class="st1" cx="50.3" cy="209.6" r="1.9"/>
		<circle class="st1" cx="54.6" cy="209.6" r="1.9"/>
		<circle class="st1" cx="59" cy="209.6" r="1.9"/>
		<circle class="st1" cx="63.3" cy="209.6" r="1.9"/>
		<circle class="st1" cx="67.6" cy="209.6" r="1.9"/>
		<circle class="st1" cx="72" cy="209.6" r="1.9"/>
		<circle class="st1" cx="76.3" cy="209.6" r="1.9"/>
		<circle class="st1" cx="80.6" cy="209.6" r="1.9"/>
		<circle class="st1" cx="84.9" cy="209.6" r="1.9"/>
		<circle class="st1" cx="89.3" cy="209.6" r="1.9"/>
		<circle class="st1" cx="93.6" cy="209.6" r="1.9"/>
		<circle class="st1" cx="97.9" cy="209.6" r="1.9"/>
		<circle class="st1" cx="102.3" cy="209.6" r="1.9"/>
		<circle class="st1" cx="106.6" cy="209.6" r="1.9"/>
		<circle class="st1" cx="110.9" cy="209.6" r="1.9"/>
		<circle class="st1" cx="115.3" cy="209.6" r="1.9"/>
		<circle class="st1" cx="119.6" cy="209.6" r="1.9"/>
		<text transform="matrix(1 0 0 1 4.9108 210.6206)" class="st1 st2 st3">00</text>
		<text transform="matrix(1 0 0 1 122.7008 210.6206)" class="st1 st2 st3">00</text>
	</g>
	<g>
		<circle class="st1" cx="11.4" cy="203.6" r="1.9"/>
		<circle class="st1" cx="15.7" cy="203.6" r="1.9"/>
		<circle class="st1" cx="20" cy="203.6" r="1.9"/>
		<circle class="st1" cx="24.4" cy="203.6" r="1.9"/>
		<circle class="st1" cx="28.7" cy="203.6" r="1.9"/>
		<circle class="st1" cx="33" cy="203.6" r="1.9"/>
		<circle class="st1" cx="37.3" cy="203.6" r="1.9"/>
		<circle class="st1" cx="41.7" cy="203.6" r="1.9"/>
		<circle class="st1" cx="46" cy="203.6" r="1.9"/>
		<circle class="st1" cx="50.3" cy="203.6" r="1.9"/>
		<circle class="st1" cx="54.6" cy="203.6" r="1.9"/>
		<circle class="st1" cx="59" cy="203.6" r="1.9"/>
		<circle class="st1" cx="63.3" cy="203.6" r="1.9"/>
		<circle class="st1" cx="67.6" cy="203.6" r="1.9"/>
		<circle class="st1" cx="72" cy="203.6" r="1.9"/>
		<circle class="st1" cx="76.3" cy="203.6" r="1.9"/>
		<circle class="st1" cx="80.6" cy="203.6" r="1.9"/>
		<circle class="st1" cx="84.9" cy="203.6" r="1.9"/>
		<circle class="st1" cx="89.3" cy="203.6" r="1.9"/>
		<circle class="st1" cx="93.6" cy="203.6" r="1.9"/>
		<circle class="st1" cx="97.9" cy="203.6" r="1.9"/>
		<circle class="st1" cx="102.3" cy="203.6" r="1.9"/>
		<circle class="st1" cx="106.6" cy="203.6" r="1.9"/>
		<circle class="st1" cx="110.9" cy="203.6" r="1.9"/>
		<circle class="st1" cx="115.3" cy="203.6" r="1.9"/>
		<circle class="st1" cx="119.6" cy="203.6" r="1.9"/>
		<text transform="matrix(1 0 0 1 4.9108 204.6906)" class="st1 st2 st3">00</text>
		<text transform="matrix(1 0 0 1 122.7008 204.6906)" class="st1 st2 st3">00</text>
	</g>
	<g>
		<circle class="st1" cx="11.4" cy="197.7" r="1.9"/>
		<circle class="st1" cx="15.7" cy="197.7" r="1.9"/>
		<circle class="st1" cx="20" cy="197.7" r="1.9"/>
		<circle class="st1" cx="24.4" cy="197.7" r="1.9"/>
		<circle class="st1" cx="28.7" cy="197.7" r="1.9"/>
		<circle class="st1" cx="33" cy="197.7" r="1.9"/>
		<circle class="st1" cx="37.3" cy="197.7" r="1.9"/>
		<circle class="st1" cx="41.7" cy="197.7" r="1.9"/>
		<circle class="st1" cx="46" cy="197.7" r="1.9"/>
		<circle class="st1" cx="50.3" cy="197.7" r="1.9"/>
		<circle class="st1" cx="54.6" cy="197.7" r="1.9"/>
		<circle class="st1" cx="59" cy="197.7" r="1.9"/>
		<circle class="st1" cx="63.3" cy="197.7" r="1.9"/>
		<circle class="st1" cx="67.6" cy="197.7" r="1.9"/>
		<circle class="st1" cx="72" cy="197.7" r="1.9"/>
		<circle class="st1" cx="76.3" cy="197.7" r="1.9"/>
		<circle class="st1" cx="80.6" cy="197.7" r="1.9"/>
		<circle class="st1" cx="84.9" cy="197.7" r="1.9"/>
		<circle class="st1" cx="89.3" cy="197.7" r="1.9"/>
		<circle class="st1" cx="93.6" cy="197.7" r="1.9"/>
		<circle class="st1" cx="97.9" cy="197.7" r="1.9"/>
		<circle class="st1" cx="102.3" cy="197.7" r="1.9"/>
		<circle class="st1" cx="106.6" cy="197.7" r="1.9"/>
		<circle class="st1" cx="110.9" cy="197.7" r="1.9"/>
		<circle class="st1" cx="115.3" cy="197.7" r="1.9"/>
		<circle class="st1" cx="119.6" cy="197.7" r="1.9"/>
		<text transform="matrix(1 0 0 1 4.9108 198.7605)" class="st1 st2 st3">00</text>
		<text transform="matrix(1 0 0 1 122.7008 198.7605)" class="st1 st2 st3">00</text>
	</g>
	<g>
		<circle class="st1" cx="11.4" cy="191.8" r="1.9"/>
		<circle class="st1" cx="15.7" cy="191.8" r="1.9"/>
		<circle class="st1" cx="20" cy="191.8" r="1.9"/>
		<circle class="st1" cx="24.4" cy="191.8" r="1.9"/>
		<circle class="st1" cx="28.7" cy="191.8" r="1.9"/>
		<circle class="st1" cx="33" cy="191.8" r="1.9"/>
		<circle class="st1" cx="37.3" cy="191.8" r="1.9"/>
		<circle class="st1" cx="41.7" cy="191.8" r="1.9"/>
		<circle class="st1" cx="46" cy="191.8" r="1.9"/>
		<circle class="st1" cx="50.3" cy="191.8" r="1.9"/>
		<circle class="st1" cx="54.6" cy="191.8" r="1.9"/>
		<circle class="st1" cx="59" cy="191.8" r="1.9"/>
		<circle class="st1" cx="63.3" cy="191.8" r="1.9"/>
		<circle class="st1" cx="67.6" cy="191.8" r="1.9"/>
		<circle class="st1" cx="72" cy="191.8" r="1.9"/>
		<circle class="st1" cx="76.3" cy="191.8" r="1.9"/>
		<circle class="st1" cx="80.6" cy="191.8" r="1.9"/>
		<circle class="st1" cx="84.9" cy="191.8" r="1.9"/>
		<circle class="st1" cx="89.3" cy="191.8" r="1.9"/>
		<circle class="st1" cx="93.6" cy="191.8" r="1.9"/>
		<circle class="st1" cx="97.9" cy="191.8" r="1.9"/>
		<circle class="st1" cx="102.3" cy="191.8" r="1.9"/>
		<circle class="st1" cx="106.6" cy="191.8" r="1.9"/>
		<circle class="st1" cx="110.9" cy="191.8" r="1.9"/>
		<circle class="st1" cx="115.3" cy="191.8" r="1.9"/>
		<circle class="st1" cx="119.6" cy="191.8" r="1.9"/>
		<text transform="matrix(1 0 0 1 4.9108 192.8304)" class="st1 st2 st3">00</text>
		<text transform="matrix(1 0 0 1 122.7008 192.8304)" class="st1 st2 st3">00</text>
	</g>
	<g>
		<circle class="st1" cx="11.4" cy="185.9" r="1.9"/>
		<circle class="st1" cx="15.7" cy="185.9" r="1.9"/>
		<circle class="st1" cx="20" cy="185.9" r="1.9"/>
		<circle class="st1" cx="24.4" cy="185.9" r="1.9"/>
		<circle class="st1" cx="28.7" cy="185.9" r="1.9"/>
		<circle class="st1" cx="33" cy="185.9" r="1.9"/>
		<circle class="st1" cx="37.3" cy="185.9" r="1.9"/>
		<circle class="st1" cx="41.7" cy="185.9" r="1.9"/>
		<circle class="st1" cx="46" cy="185.9" r="1.9"/>
		<circle class="st1" cx="50.3" cy="185.9" r="1.9"/>
		<circle class="st1" cx="54.6" cy="185.9" r="1.9"/>
		<circle class="st1" cx="59" cy="185.9" r="1.9"/>
		<circle class="st1" cx="63.3" cy="185.9" r="1.9"/>
		<circle class="st1" cx="67.6" cy="185.9" r="1.9"/>
		<circle class="st1" cx="72" cy="185.9" r="1.9"/>
		<circle class="st1" cx="76.3" cy="185.9" r="1.9"/>
		<circle class="st1" cx="80.6" cy="185.9" r="1.9"/>
		<circle class="st1" cx="84.9" cy="185.9" r="1.9"/>
		<circle class="st1" cx="89.3" cy="185.9" r="1.9"/>
		<circle class="st1" cx="93.6" cy="185.9" r="1.9"/>
		<circle class="st1" cx="97.9" cy="185.9" r="1.9"/>
		<circle class="st1" cx="102.3" cy="185.9" r="1.9"/>
		<circle class="st1" cx="106.6" cy="185.9" r="1.9"/>
		<circle class="st1" cx="110.9" cy="185.9" r="1.9"/>
		<circle class="st1" cx="115.3" cy="185.9" r="1.9"/>
		<circle class="st1" cx="119.6" cy="185.9" r="1.9"/>
		<text transform="matrix(1 0 0 1 4.9108 186.9004)" class="st1 st2 st3">00</text>
		<text transform="matrix(1 0 0 1 122.7008 186.9004)" class="st1 st2 st3">00</text>
	</g>
	<g>
		<circle class="st1" cx="11.4" cy="179.9" r="1.9"/>
		<circle class="st1" cx="15.7" cy="179.9" r="1.9"/>
		<circle class="st1" cx="20" cy="179.9" r="1.9"/>
		<circle class="st1" cx="24.4" cy="179.9" r="1.9"/>
		<circle class="st1" cx="28.7" cy="179.9" r="1.9"/>
		<circle class="st1" cx="33" cy="179.9" r="1.9"/>
		<circle class="st1" cx="37.3" cy="179.9" r="1.9"/>
		<circle class="st1" cx="41.7" cy="179.9" r="1.9"/>
		<circle class="st1" cx="46" cy="179.9" r="1.9"/>
		<circle class="st1" cx="50.3" cy="179.9" r="1.9"/>
		<circle class="st1" cx="54.6" cy="179.9" r="1.9"/>
		<circle class="st1" cx="59" cy="179.9" r="1.9"/>
		<circle class="st1" cx="63.3" cy="179.9" r="1.9"/>
		<circle class="st1" cx="67.6" cy="179.9" r="1.9"/>
		<circle class="st1" cx="72" cy="179.9" r="1.9"/>
		<circle class="st1" cx="76.3" cy="179.9" r="1.9"/>
		<circle class="st1" cx="80.6" cy="179.9" r="1.9"/>
		<circle class="st1" cx="84.9" cy="179.9" r="1.9"/>
		<circle class="st1" cx="89.3" cy="179.9" r="1.9"/>
		<circle class="st1" cx="93.6" cy="179.9" r="1.9"/>
		<circle class="st1" cx="97.9" cy="179.9" r="1.9"/>
		<circle class="st1" cx="102.3" cy="179.9" r="1.9"/>
		<circle class="st1" cx="106.6" cy="179.9" r="1.9"/>
		<circle class="st1" cx="110.9" cy="179.9" r="1.9"/>
		<text transform="matrix(1 0 0 1 4.9108 180.9703)" class="st1 st2 st3">00</text>
		<text transform="matrix(1 0 0 1 114.0408 180.9703)" class="st1 st2 st3">00</text>
	</g>
	<g>
		<circle class="st1" cx="11.4" cy="174" r="1.9"/>
		<circle class="st1" cx="15.7" cy="174" r="1.9"/>
		<circle class="st1" cx="20" cy="174" r="1.9"/>
		<circle class="st1" cx="24.4" cy="174" r="1.9"/>
		<circle class="st1" cx="28.7" cy="174" r="1.9"/>
		<circle class="st1" cx="33" cy="174" r="1.9"/>
		<circle class="st1" cx="37.3" cy="174" r="1.9"/>
		<circle class="st1" cx="41.7" cy="174" r="1.9"/>
		<circle class="st1" cx="46" cy="174" r="1.9"/>
		<circle class="st1" cx="50.3" cy="174" r="1.9"/>
		<circle class="st1" cx="54.6" cy="174" r="1.9"/>
		<circle class="st1" cx="59" cy="174" r="1.9"/>
		<circle class="st1" cx="63.3" cy="174" r="1.9"/>
		<circle class="st1" cx="67.6" cy="174" r="1.9"/>
		<circle class="st1" cx="72" cy="174" r="1.9"/>
		<circle class="st1" cx="76.3" cy="174" r="1.9"/>
		<circle class="st1" cx="80.6" cy="174" r="1.9"/>
		<circle class="st1" cx="84.9" cy="174" r="1.9"/>
		<circle class="st1" cx="89.3" cy="174" r="1.9"/>
		<circle class="st1" cx="93.6" cy="174" r="1.9"/>
		<circle class="st1" cx="97.9" cy="174" r="1.9"/>
		<circle class="st1" cx="102.3" cy="174" r="1.9"/>
		<circle class="st1" cx="106.6" cy="174" r="1.9"/>
		<circle class="st1" cx="110.9" cy="174" r="1.9"/>
		<text transform="matrix(1 0 0 1 4.9108 175.0403)" class="st1 st2 st3">00</text>
		<text transform="matrix(1 0 0 1 114.0408 175.0403)" class="st1 st2 st3">00</text>
	</g>
	<g>
		<circle class="st1" cx="11.4" cy="168.1" r="1.9"/>
		<circle class="st1" cx="15.7" cy="168.1" r="1.9"/>
		<circle class="st1" cx="20" cy="168.1" r="1.9"/>
		<circle class="st1" cx="24.4" cy="168.1" r="1.9"/>
		<circle class="st1" cx="28.7" cy="168.1" r="1.9"/>
		<circle class="st1" cx="33" cy="168.1" r="1.9"/>
		<circle class="st1" cx="37.3" cy="168.1" r="1.9"/>
		<circle class="st1" cx="41.7" cy="168.1" r="1.9"/>
		<circle class="st1" cx="46" cy="168.1" r="1.9"/>
		<circle class="st1" cx="50.3" cy="168.1" r="1.9"/>
		<circle class="st1" cx="54.6" cy="168.1" r="1.9"/>
		<circle class="st1" cx="59" cy="168.1" r="1.9"/>
		<circle class="st1" cx="63.3" cy="168.1" r="1.9"/>
		<circle class="st1" cx="67.6" cy="168.1" r="1.9"/>
		<circle class="st1" cx="72" cy="168.1" r="1.9"/>
		<circle class="st1" cx="76.3" cy="168.1" r="1.9"/>
		<circle class="st1" cx="80.6" cy="168.1" r="1.9"/>
		<circle class="st1" cx="84.9" cy="168.1" r="1.9"/>
		<circle class="st1" cx="89.3" cy="168.1" r="1.9"/>
		<circle class="st1" cx="93.6" cy="168.1" r="1.9"/>
		<circle class="st1" cx="97.9" cy="168.1" r="1.9"/>
		<circle class="st1" cx="102.3" cy="168.1" r="1.9"/>
		<circle class="st1" cx="106.6" cy="168.1" r="1.9"/>
		<circle class="st1" cx="110.9" cy="168.1" r="1.9"/>
		<text transform="matrix(1 0 0 1 4.9108 169.1102)" class="st1 st2 st3">00</text>
		<text transform="matrix(1 0 0 1 114.0408 169.1102)" class="st1 st2 st3">00</text>
	</g>
	<g>
		<circle class="st1" cx="11.4" cy="162.1" r="1.9"/>
		<circle class="st1" cx="15.7" cy="162.1" r="1.9"/>
		<circle class="st1" cx="20" cy="162.1" r="1.9"/>
		<circle class="st1" cx="24.4" cy="162.1" r="1.9"/>
		<circle class="st1" cx="28.7" cy="162.1" r="1.9"/>
		<circle class="st1" cx="33" cy="162.1" r="1.9"/>
		<circle class="st1" cx="37.3" cy="162.1" r="1.9"/>
		<circle class="st1" cx="41.7" cy="162.1" r="1.9"/>
		<circle class="st1" cx="46" cy="162.1" r="1.9"/>
		<circle class="st1" cx="50.3" cy="162.1" r="1.9"/>
		<circle class="st1" cx="54.6" cy="162.1" r="1.9"/>
		<circle class="st1" cx="59" cy="162.1" r="1.9"/>
		<circle class="st1" cx="63.3" cy="162.1" r="1.9"/>
		<circle class="st1" cx="67.6" cy="162.1" r="1.9"/>
		<circle class="st1" cx="72" cy="162.1" r="1.9"/>
		<circle class="st1" cx="76.3" cy="162.1" r="1.9"/>
		<circle class="st1" cx="80.6" cy="162.1" r="1.9"/>
		<circle class="st1" cx="84.9" cy="162.1" r="1.9"/>
		<circle class="st1" cx="89.3" cy="162.1" r="1.9"/>
		<circle class="st1" cx="93.6" cy="162.1" r="1.9"/>
		<circle class="st1" cx="97.9" cy="162.1" r="1.9"/>
		<circle class="st1" cx="102.3" cy="162.1" r="1.9"/>
		<circle class="st1" cx="106.6" cy="162.1" r="1.9"/>
		<circle class="st1" cx="110.9" cy="162.1" r="1.9"/>
		<text transform="matrix(1 0 0 1 4.9108 163.1802)" class="st1 st2 st3">00</text>
		<text transform="matrix(1 0 0 1 114.0408 163.1802)" class="st1 st2 st3">00</text>
	</g>
	<g>
		<circle class="st1" cx="11.4" cy="156.2" r="1.9"/>
		<circle class="st1" cx="15.7" cy="156.2" r="1.9"/>
		<circle class="st1" cx="20" cy="156.2" r="1.9"/>
		<circle class="st1" cx="24.4" cy="156.2" r="1.9"/>
		<circle class="st1" cx="28.7" cy="156.2" r="1.9"/>
		<circle class="st1" cx="33" cy="156.2" r="1.9"/>
		<circle class="st1" cx="37.3" cy="156.2" r="1.9"/>
		<circle class="st1" cx="41.7" cy="156.2" r="1.9"/>
		<circle class="st1" cx="46" cy="156.2" r="1.9"/>
		<circle class="st1" cx="50.3" cy="156.2" r="1.9"/>
		<circle class="st1" cx="54.6" cy="156.2" r="1.9"/>
		<circle class="st1" cx="59" cy="156.2" r="1.9"/>
		<circle class="st1" cx="63.3" cy="156.2" r="1.9"/>
		<circle class="st1" cx="67.6" cy="156.2" r="1.9"/>
		<circle class="st1" cx="72" cy="156.2" r="1.9"/>
		<circle class="st1" cx="76.3" cy="156.2" r="1.9"/>
		<circle class="st1" cx="80.6" cy="156.2" r="1.9"/>
		<circle class="st1" cx="84.9" cy="156.2" r="1.9"/>
		<circle class="st1" cx="89.3" cy="156.2" r="1.9"/>
		<circle class="st1" cx="93.6" cy="156.2" r="1.9"/>
		<circle class="st1" cx="97.9" cy="156.2" r="1.9"/>
		<circle class="st1" cx="102.3" cy="156.2" r="1.9"/>
		<circle class="st1" cx="106.6" cy="156.2" r="1.9"/>
		<circle class="st1" cx="110.9" cy="156.2" r="1.9"/>
		<text transform="matrix(1 0 0 1 4.9108 157.2501)" class="st1 st2 st3">00</text>
		<text transform="matrix(1 0 0 1 114.0408 157.2501)" class="st1 st2 st3">00</text>
	</g>
	<g>
		<circle class="st1" cx="11.4" cy="150.3" r="1.9"/>
		<circle class="st1" cx="15.7" cy="150.3" r="1.9"/>
		<circle class="st1" cx="20" cy="150.3" r="1.9"/>
		<circle class="st1" cx="24.4" cy="150.3" r="1.9"/>
		<circle class="st1" cx="28.7" cy="150.3" r="1.9"/>
		<circle class="st1" cx="33" cy="150.3" r="1.9"/>
		<circle class="st1" cx="37.3" cy="150.3" r="1.9"/>
		<circle class="st1" cx="41.7" cy="150.3" r="1.9"/>
		<circle class="st1" cx="46" cy="150.3" r="1.9"/>
		<circle class="st1" cx="50.3" cy="150.3" r="1.9"/>
		<circle class="st1" cx="54.6" cy="150.3" r="1.9"/>
		<circle class="st1" cx="59" cy="150.3" r="1.9"/>
		<circle class="st1" cx="63.3" cy="150.3" r="1.9"/>
		<circle class="st1" cx="67.6" cy="150.3" r="1.9"/>
		<circle class="st1" cx="72" cy="150.3" r="1.9"/>
		<circle class="st1" cx="76.3" cy="150.3" r="1.9"/>
		<circle class="st1" cx="80.6" cy="150.3" r="1.9"/>
		<circle class="st1" cx="84.9" cy="150.3" r="1.9"/>
		<circle class="st1" cx="89.3" cy="150.3" r="1.9"/>
		<circle class="st1" cx="93.6" cy="150.3" r="1.9"/>
		<circle class="st1" cx="97.9" cy="150.3" r="1.9"/>
		<circle class="st1" cx="102.3" cy="150.3" r="1.9"/>
		<circle class="st1" cx="106.6" cy="150.3" r="1.9"/>
		<circle class="st1" cx="110.9" cy="150.3" r="1.9"/>
		<circle class="st1" cx="115.3" cy="150.3" r="1.9"/>
		<circle class="st1" cx="119.6" cy="150.3" r="1.9"/>
		<text transform="matrix(1 0 0 1 4.9108 151.3201)" class="st1 st2 st3">00</text>
		<text transform="matrix(1 0 0 1 122.7008 151.3201)" class="st1 st2 st3">00</text>
	</g>
	<g>
		<circle class="st1" cx="11.4" cy="144.3" r="1.9"/>
		<circle class="st1" cx="15.7" cy="144.3" r="1.9"/>
		<circle class="st1" cx="20" cy="144.3" r="1.9"/>
		<circle class="st1" cx="24.4" cy="144.3" r="1.9"/>
		<circle class="st1" cx="28.7" cy="144.3" r="1.9"/>
		<circle class="st1" cx="33" cy="144.3" r="1.9"/>
		<circle class="st1" cx="37.3" cy="144.3" r="1.9"/>
		<circle class="st1" cx="41.7" cy="144.3" r="1.9"/>
		<circle class="st1" cx="46" cy="144.3" r="1.9"/>
		<circle class="st1" cx="50.3" cy="144.3" r="1.9"/>
		<circle class="st1" cx="54.6" cy="144.3" r="1.9"/>
		<circle class="st1" cx="59" cy="144.3" r="1.9"/>
		<circle class="st1" cx="63.3" cy="144.3" r="1.9"/>
		<circle class="st1" cx="67.6" cy="144.3" r="1.9"/>
		<circle class="st1" cx="72" cy="144.3" r="1.9"/>
		<circle class="st1" cx="76.3" cy="144.3" r="1.9"/>
		<circle class="st1" cx="80.6" cy="144.3" r="1.9"/>
		<circle class="st1" cx="84.9" cy="144.3" r="1.9"/>
		<circle class="st1" cx="89.3" cy="144.3" r="1.9"/>
		<circle class="st1" cx="93.6" cy="144.3" r="1.9"/>
		<circle class="st1" cx="97.9" cy="144.3" r="1.9"/>
		<circle class="st1" cx="102.3" cy="144.3" r="1.9"/>
		<circle class="st1" cx="106.6" cy="144.3" r="1.9"/>
		<circle class="st1" cx="110.9" cy="144.3" r="1.9"/>
		<circle class="st1" cx="115.3" cy="144.3" r="1.9"/>
		<circle class="st1" cx="119.6" cy="144.3" r="1.9"/>
		<text transform="matrix(1 0 0 1 4.9108 145.39)" class="st1 st2 st3">00</text>
		<text transform="matrix(1 0 0 1 122.7008 145.39)" class="st1 st2 st3">00</text>
	</g>
	<g>
		<circle class="st1" cx="20.1" cy="138.4" r="1.9"/>
		<circle class="st1" cx="24.4" cy="138.4" r="1.9"/>
		<circle class="st1" cx="28.7" cy="138.4" r="1.9"/>
		<circle class="st1" cx="33" cy="138.4" r="1.9"/>
		<circle class="st1" cx="37.3" cy="138.4" r="1.9"/>
		<circle class="st1" cx="41.7" cy="138.4" r="1.9"/>
		<circle class="st1" cx="46" cy="138.4" r="1.9"/>
		<circle class="st1" cx="50.3" cy="138.4" r="1.9"/>
		<circle class="st1" cx="54.6" cy="138.4" r="1.9"/>
		<circle class="st1" cx="59" cy="138.4" r="1.9"/>
		<circle class="st1" cx="63.3" cy="138.4" r="1.9"/>
		<circle class="st1" cx="67.6" cy="138.4" r="1.9"/>
		<circle class="st1" cx="72" cy="138.4" r="1.9"/>
		<circle class="st1" cx="76.3" cy="138.4" r="1.9"/>
		<circle class="st1" cx="80.6" cy="138.4" r="1.9"/>
		<circle class="st1" cx="84.9" cy="138.4" r="1.9"/>
		<circle class="st1" cx="89.3" cy="138.4" r="1.9"/>
		<circle class="st1" cx="93.6" cy="138.4" r="1.9"/>
		<circle class="st1" cx="97.9" cy="138.4" r="1.9"/>
		<circle class="st1" cx="102.3" cy="138.4" r="1.9"/>
		<circle class="st1" cx="106.6" cy="138.4" r="1.9"/>
		<circle class="st1" cx="110.9" cy="138.4" r="1.9"/>
		<circle class="st1" cx="115.3" cy="138.4" r="1.9"/>
		<circle class="st1" cx="119.6" cy="138.4" r="1.9"/>
		<text transform="matrix(1 0 0 1 13.5708 139.46)" class="st1 st2 st3">00</text>
		<text transform="matrix(1 0 0 1 122.7008 139.46)" class="st1 st2 st3">00</text>
	</g>
	<g>
		<circle class="st1" cx="20.1" cy="132.5" r="1.9"/>
		<circle class="st1" cx="24.4" cy="132.5" r="1.9"/>
		<circle class="st1" cx="28.7" cy="132.5" r="1.9"/>
		<circle class="st1" cx="33" cy="132.5" r="1.9"/>
		<circle class="st1" cx="37.3" cy="132.5" r="1.9"/>
		<circle class="st1" cx="41.7" cy="132.5" r="1.9"/>
		<circle class="st1" cx="46" cy="132.5" r="1.9"/>
		<circle class="st1" cx="50.3" cy="132.5" r="1.9"/>
		<circle class="st1" cx="54.6" cy="132.5" r="1.9"/>
		<circle class="st1" cx="59" cy="132.5" r="1.9"/>
		<circle class="st1" cx="63.3" cy="132.5" r="1.9"/>
		<circle class="st1" cx="67.6" cy="132.5" r="1.9"/>
		<circle class="st1" cx="72" cy="132.5" r="1.9"/>
		<circle class="st1" cx="76.3" cy="132.5" r="1.9"/>
		<circle class="st1" cx="80.6" cy="132.5" r="1.9"/>
		<circle class="st1" cx="84.9" cy="132.5" r="1.9"/>
		<circle class="st1" cx="89.3" cy="132.5" r="1.9"/>
		<circle class="st1" cx="93.6" cy="132.5" r="1.9"/>
		<circle class="st1" cx="97.9" cy="132.5" r="1.9"/>
		<circle class="st1" cx="102.3" cy="132.5" r="1.9"/>
		<circle class="st1" cx="106.6" cy="132.5" r="1.9"/>
		<circle class="st1" cx="110.9" cy="132.5" r="1.9"/>
		<circle class="st1" cx="115.3" cy="132.5" r="1.9"/>
		<circle class="st1" cx="119.6" cy="132.5" r="1.9"/>
		<text transform="matrix(1 0 0 1 13.5708 133.5299)" class="st1 st2 st3">00</text>
		<text transform="matrix(1 0 0 1 122.7008 133.5299)" class="st1 st2 st3">00</text>
	</g>
	<g>
		<circle class="st1" cx="20.1" cy="126.5" r="1.8"/>
		<circle class="st1" cx="24.4" cy="126.5" r="1.8"/>
		<circle class="st1" cx="28.7" cy="126.5" r="1.8"/>
		<circle class="st1" cx="33" cy="126.5" r="1.8"/>
		<circle class="st1" cx="37.3" cy="126.5" r="1.8"/>
		<circle class="st1" cx="41.7" cy="126.5" r="1.8"/>
		<circle class="st1" cx="46" cy="126.5" r="1.8"/>
		<circle class="st1" cx="50.3" cy="126.5" r="1.8"/>
		<circle class="st1" cx="54.6" cy="126.5" r="1.8"/>
		<circle class="st1" cx="59" cy="126.5" r="1.8"/>
		<circle class="st1" cx="63.3" cy="126.5" r="1.8"/>
		<circle class="st1" cx="67.6" cy="126.5" r="1.8"/>
		<circle class="st1" cx="72" cy="126.5" r="1.8"/>
		<circle class="st1" cx="76.3" cy="126.5" r="1.8"/>
		<circle class="st1" cx="80.6" cy="126.5" r="1.8"/>
		<circle class="st1" cx="84.9" cy="126.5" r="1.8"/>
		<circle class="st1" cx="89.3" cy="126.5" r="1.8"/>
		<circle class="st1" cx="93.6" cy="126.5" r="1.8"/>
		<circle class="st1" cx="97.9" cy="126.5" r="1.8"/>
		<circle class="st1" cx="102.3" cy="126.5" r="1.8"/>
		<circle class="st1" cx="106.6" cy="126.5" r="1.8"/>
		<circle class="st1" cx="110.9" cy="126.5" r="1.8"/>
		<circle class="st1" cx="115.3" cy="126.5" r="1.8"/>
		<circle class="st1" cx="119.6" cy="126.5" r="1.8"/>
		<text transform="matrix(1 0 0 1 13.5708 127.5999)" class="st1 st2 st3">00</text>
		<text transform="matrix(1 0 0 1 122.7008 127.5999)" class="st1 st2 st3">00</text>
	</g>
	<g>
		<circle class="st1" cx="20.1" cy="120.6" r="1.8"/>
		<circle class="st1" cx="24.4" cy="120.6" r="1.8"/>
		<circle class="st1" cx="28.7" cy="120.6" r="1.8"/>
		<circle class="st1" cx="33" cy="120.6" r="1.8"/>
		<circle class="st1" cx="37.3" cy="120.6" r="1.8"/>
		<circle class="st1" cx="41.7" cy="120.6" r="1.8"/>
		<circle class="st1" cx="46" cy="120.6" r="1.8"/>
		<circle class="st1" cx="50.3" cy="120.6" r="1.8"/>
		<circle class="st1" cx="54.6" cy="120.6" r="1.8"/>
		<circle class="st1" cx="59" cy="120.6" r="1.8"/>
		<circle class="st1" cx="63.3" cy="120.6" r="1.8"/>
		<circle class="st1" cx="67.6" cy="120.6" r="1.8"/>
		<circle class="st1" cx="72" cy="120.6" r="1.8"/>
		<circle class="st1" cx="76.3" cy="120.6" r="1.8"/>
		<circle class="st1" cx="80.6" cy="120.6" r="1.8"/>
		<circle class="st1" cx="84.9" cy="120.6" r="1.8"/>
		<circle class="st1" cx="89.3" cy="120.6" r="1.8"/>
		<circle class="st1" cx="93.6" cy="120.6" r="1.8"/>
		<circle class="st1" cx="97.9" cy="120.6" r="1.8"/>
		<circle class="st1" cx="102.3" cy="120.6" r="1.8"/>
		<circle class="st1" cx="106.6" cy="120.6" r="1.8"/>
		<circle class="st1" cx="110.9" cy="120.6" r="1.8"/>
		<circle class="st1" cx="115.3" cy="120.6" r="1.8"/>
		<circle class="st1" cx="119.6" cy="120.6" r="1.8"/>
		<text transform="matrix(1 0 0 1 13.5708 121.6698)" class="st1 st2 st3">00</text>
		<text transform="matrix(1 0 0 1 122.7008 121.6698)" class="st1 st2 st3">00</text>
	</g>
	<g>
		<circle class="st1" cx="20.1" cy="114.7" r="1.8"/>
		<circle class="st1" cx="24.4" cy="114.7" r="1.8"/>
		<circle class="st1" cx="28.7" cy="114.7" r="1.8"/>
		<circle class="st1" cx="33" cy="114.7" r="1.8"/>
		<circle class="st1" cx="37.3" cy="114.7" r="1.8"/>
		<circle class="st1" cx="41.7" cy="114.7" r="1.8"/>
		<circle class="st1" cx="46" cy="114.7" r="1.8"/>
		<circle class="st1" cx="50.3" cy="114.7" r="1.8"/>
		<circle class="st1" cx="54.6" cy="114.7" r="1.8"/>
		<circle class="st1" cx="59" cy="114.7" r="1.8"/>
		<circle class="st1" cx="63.3" cy="114.7" r="1.8"/>
		<circle class="st1" cx="67.6" cy="114.7" r="1.8"/>
		<circle class="st1" cx="72" cy="114.7" r="1.8"/>
		<circle class="st1" cx="76.3" cy="114.7" r="1.8"/>
		<circle class="st1" cx="80.6" cy="114.7" r="1.8"/>
		<circle class="st1" cx="84.9" cy="114.7" r="1.8"/>
		<circle class="st1" cx="89.3" cy="114.7" r="1.8"/>
		<circle class="st1" cx="93.6" cy="114.7" r="1.8"/>
		<circle class="st1" cx="97.9" cy="114.7" r="1.8"/>
		<circle class="st1" cx="102.3" cy="114.7" r="1.8"/>
		<circle class="st1" cx="106.6" cy="114.7" r="1.8"/>
		<circle class="st1" cx="110.9" cy="114.7" r="1.8"/>
		<circle class="st1" cx="115.3" cy="114.7" r="1.8"/>
		<circle class="st1" cx="119.6" cy="114.7" r="1.8"/>
		<text transform="matrix(1 0 0 1 13.5708 115.7397)" class="st1 st2 st3">00</text>
		<text transform="matrix(1 0 0 1 122.7008 115.7397)" class="st1 st2 st3">00</text>
	</g>
	<g>
		<circle class="st1" cx="11.4" cy="108.8" r="1.8"/>
		<circle class="st1" cx="15.7" cy="108.8" r="1.8"/>
		<circle class="st1" cx="20" cy="108.8" r="1.8"/>
		<circle class="st1" cx="24.4" cy="108.8" r="1.8"/>
		<circle class="st1" cx="28.7" cy="108.8" r="1.8"/>
		<circle class="st1" cx="33" cy="108.8" r="1.8"/>
		<circle class="st1" cx="37.3" cy="108.8" r="1.8"/>
		<circle class="st1" cx="41.7" cy="108.8" r="1.8"/>
		<circle class="st1" cx="46" cy="108.8" r="1.8"/>
		<circle class="st1" cx="50.3" cy="108.8" r="1.8"/>
		<circle class="st1" cx="54.6" cy="108.8" r="1.8"/>
		<circle class="st1" cx="59" cy="108.8" r="1.8"/>
		<circle class="st1" cx="63.3" cy="108.8" r="1.8"/>
		<circle class="st1" cx="67.6" cy="108.8" r="1.8"/>
		<circle class="st1" cx="72" cy="108.8" r="1.8"/>
		<circle class="st1" cx="76.3" cy="108.8" r="1.8"/>
		<circle class="st1" cx="80.6" cy="108.8" r="1.8"/>
		<circle class="st1" cx="84.9" cy="108.8" r="1.8"/>
		<circle class="st1" cx="89.3" cy="108.8" r="1.8"/>
		<circle class="st1" cx="93.6" cy="108.8" r="1.8"/>
		<circle class="st1" cx="97.9" cy="108.8" r="1.8"/>
		<circle class="st1" cx="102.3" cy="108.8" r="1.8"/>
		<circle class="st1" cx="106.6" cy="108.8" r="1.8"/>
		<circle class="st1" cx="110.9" cy="108.8" r="1.8"/>
		<circle class="st1" cx="115.3" cy="108.8" r="1.8"/>
		<circle class="st1" cx="119.6" cy="108.8" r="1.8"/>
		<text transform="matrix(1 0 0 1 4.9108 109.8097)" class="st1 st2 st3">00</text>
		<text transform="matrix(1 0 0 1 122.7008 109.8097)" class="st1 st2 st3">00</text>
	</g>
	<g>
		<circle class="st1" cx="11.4" cy="102.8" r="1.8"/>
		<circle class="st1" cx="15.7" cy="102.8" r="1.8"/>
		<circle class="st1" cx="20" cy="102.8" r="1.8"/>
		<circle class="st1" cx="24.4" cy="102.8" r="1.8"/>
		<circle class="st1" cx="28.7" cy="102.8" r="1.8"/>
		<circle class="st1" cx="33" cy="102.8" r="1.8"/>
		<circle class="st1" cx="37.3" cy="102.8" r="1.8"/>
		<circle class="st1" cx="41.7" cy="102.8" r="1.8"/>
		<circle class="st1" cx="46" cy="102.8" r="1.8"/>
		<circle class="st1" cx="50.3" cy="102.8" r="1.8"/>
		<circle class="st1" cx="54.6" cy="102.8" r="1.8"/>
		<circle class="st1" cx="59" cy="102.8" r="1.8"/>
		<circle class="st1" cx="63.3" cy="102.8" r="1.8"/>
		<circle class="st1" cx="67.6" cy="102.8" r="1.8"/>
		<circle class="st1" cx="72" cy="102.8" r="1.8"/>
		<circle class="st1" cx="76.3" cy="102.8" r="1.8"/>
		<circle class="st1" cx="80.6" cy="102.8" r="1.8"/>
		<circle class="st1" cx="84.9" cy="102.8" r="1.8"/>
		<circle class="st1" cx="89.3" cy="102.8" r="1.8"/>
		<circle class="st1" cx="93.6" cy="102.8" r="1.8"/>
		<circle class="st1" cx="97.9" cy="102.8" r="1.8"/>
		<circle class="st1" cx="102.3" cy="102.8" r="1.8"/>
		<circle class="st1" cx="106.6" cy="102.8" r="1.8"/>
		<circle class="st1" cx="110.9" cy="102.8" r="1.8"/>
		<circle class="st1" cx="115.3" cy="102.8" r="1.8"/>
		<circle class="st1" cx="119.6" cy="102.8" r="1.8"/>
		<text transform="matrix(1 0 0 1 4.9108 103.8796)" class="st1 st2 st3">00</text>
		<text transform="matrix(1 0 0 1 122.7008 103.8796)" class="st1 st2 st3">00</text>
	</g>
	<g>
		<circle class="st1" cx="11.4" cy="96.9" r="1.8"/>
		<circle class="st1" cx="15.7" cy="96.9" r="1.8"/>
		<circle class="st1" cx="20" cy="96.9" r="1.8"/>
		<circle class="st1" cx="24.4" cy="96.9" r="1.8"/>
		<circle class="st1" cx="28.7" cy="96.9" r="1.8"/>
		<circle class="st1" cx="33" cy="96.9" r="1.8"/>
		<circle class="st1" cx="37.3" cy="96.9" r="1.8"/>
		<circle class="st1" cx="41.7" cy="96.9" r="1.8"/>
		<circle class="st1" cx="46" cy="96.9" r="1.8"/>
		<circle class="st1" cx="50.3" cy="96.9" r="1.8"/>
		<circle class="st1" cx="54.6" cy="96.9" r="1.8"/>
		<circle class="st1" cx="59" cy="96.9" r="1.8"/>
		<circle class="st1" cx="63.3" cy="96.9" r="1.8"/>
		<circle class="st1" cx="67.6" cy="96.9" r="1.8"/>
		<circle class="st1" cx="72" cy="96.9" r="1.8"/>
		<circle class="st1" cx="76.3" cy="96.9" r="1.8"/>
		<circle class="st1" cx="80.6" cy="96.9" r="1.8"/>
		<circle class="st1" cx="84.9" cy="96.9" r="1.8"/>
		<circle class="st1" cx="89.3" cy="96.9" r="1.8"/>
		<circle class="st1" cx="93.6" cy="96.9" r="1.8"/>
		<circle class="st1" cx="97.9" cy="96.9" r="1.8"/>
		<circle class="st1" cx="102.3" cy="96.9" r="1.8"/>
		<circle class="st1" cx="106.6" cy="96.9" r="1.8"/>
		<circle class="st1" cx="110.9" cy="96.9" r="1.8"/>
		<circle class="st1" cx="115.3" cy="96.9" r="1.8"/>
		<circle class="st1" cx="119.6" cy="96.9" r="1.8"/>
		<text transform="matrix(1 0 0 1 4.9108 97.9496)" class="st1 st2 st3">00</text>
		<text transform="matrix(1 0 0 1 122.7008 97.9496)" class="st1 st2 st3">00</text>
	</g>
	<g>
		<circle class="st1" cx="11.4" cy="90.9" r="1.8"/>
		<circle class="st1" cx="15.7" cy="90.9" r="1.8"/>
		<circle class="st1" cx="20" cy="90.9" r="1.8"/>
		<circle class="st1" cx="24.4" cy="90.9" r="1.8"/>
		<circle class="st1" cx="28.7" cy="90.9" r="1.8"/>
		<circle class="st1" cx="33" cy="90.9" r="1.8"/>
		<circle class="st1" cx="37.3" cy="90.9" r="1.8"/>
		<circle class="st1" cx="41.7" cy="90.9" r="1.8"/>
		<circle class="st1" cx="46" cy="90.9" r="1.8"/>
		<circle class="st1" cx="50.3" cy="90.9" r="1.8"/>
		<circle class="st1" cx="54.6" cy="90.9" r="1.8"/>
		<circle class="st1" cx="59" cy="90.9" r="1.8"/>
		<circle class="st1" cx="63.3" cy="90.9" r="1.8"/>
		<circle class="st1" cx="67.6" cy="90.9" r="1.8"/>
		<circle class="st1" cx="72" cy="90.9" r="1.8"/>
		<circle class="st1" cx="76.3" cy="90.9" r="1.8"/>
		<circle class="st1" cx="80.6" cy="90.9" r="1.8"/>
		<circle class="st1" cx="84.9" cy="90.9" r="1.8"/>
		<circle class="st1" cx="89.3" cy="90.9" r="1.8"/>
		<circle class="st1" cx="93.6" cy="90.9" r="1.8"/>
		<circle class="st1" cx="97.9" cy="90.9" r="1.8"/>
		<circle class="st1" cx="102.3" cy="90.9" r="1.8"/>
		<circle class="st1" cx="106.6" cy="90.9" r="1.8"/>
		<circle class="st1" cx="110.9" cy="90.9" r="1.8"/>
		<circle class="st1" cx="115.3" cy="90.9" r="1.8"/>
		<circle class="st1" cx="119.6" cy="90.9" r="1.8"/>
		<text transform="matrix(1 0 0 1 4.9108 92.0195)" class="st1 st2 st3">00</text>
		<text transform="matrix(1 0 0 1 122.7008 92.0195)" class="st1 st2 st3">00</text>
	</g>
	<g>
		<circle class="st1" cx="11.4" cy="85" r="1.8"/>
		<circle class="st1" cx="15.7" cy="85" r="1.8"/>
		<circle class="st1" cx="20" cy="85" r="1.8"/>
		<circle class="st1" cx="24.4" cy="85" r="1.8"/>
		<circle class="st1" cx="28.7" cy="85" r="1.8"/>
		<circle class="st1" cx="33" cy="85" r="1.8"/>
		<circle class="st1" cx="37.3" cy="85" r="1.8"/>
		<circle class="st1" cx="41.7" cy="85" r="1.8"/>
		<circle class="st1" cx="46" cy="85" r="1.8"/>
		<circle class="st1" cx="50.3" cy="85" r="1.8"/>
		<circle class="st1" cx="54.6" cy="85" r="1.8"/>
		<circle class="st1" cx="59" cy="85" r="1.8"/>
		<circle class="st1" cx="63.3" cy="85" r="1.8"/>
		<circle class="st1" cx="67.6" cy="85" r="1.8"/>
		<circle class="st1" cx="72" cy="85" r="1.8"/>
		<circle class="st1" cx="76.3" cy="85" r="1.8"/>
		<circle class="st1" cx="80.6" cy="85" r="1.8"/>
		<circle class="st1" cx="84.9" cy="85" r="1.8"/>
		<circle class="st1" cx="89.3" cy="85" r="1.8"/>
		<circle class="st1" cx="93.6" cy="85" r="1.8"/>
		<circle class="st1" cx="97.9" cy="85" r="1.8"/>
		<circle class="st1" cx="102.3" cy="85" r="1.8"/>
		<circle class="st1" cx="106.6" cy="85" r="1.8"/>
		<circle class="st1" cx="110.9" cy="85" r="1.8"/>
		<circle class="st1" cx="115.3" cy="85" r="1.8"/>
		<circle class="st1" cx="119.6" cy="85" r="1.8"/>
		<text transform="matrix(1 0 0 1 4.9108 86.0895)" class="st1 st2 st3">00</text>
		<text transform="matrix(1 0 0 1 122.7008 86.0895)" class="st1 st2 st3">00</text>
	</g>
	<g>
		<circle class="st1" cx="11.4" cy="79.1" r="1.8"/>
		<circle class="st1" cx="15.7" cy="79.1" r="1.8"/>
		<circle class="st1" cx="20" cy="79.1" r="1.8"/>
		<circle class="st1" cx="24.4" cy="79.1" r="1.8"/>
		<circle class="st1" cx="28.7" cy="79.1" r="1.8"/>
		<circle class="st1" cx="33" cy="79.1" r="1.8"/>
		<circle class="st1" cx="37.3" cy="79.1" r="1.8"/>
		<circle class="st1" cx="41.7" cy="79.1" r="1.8"/>
		<circle class="st1" cx="46" cy="79.1" r="1.8"/>
		<circle class="st1" cx="50.3" cy="79.1" r="1.8"/>
		<circle class="st1" cx="54.6" cy="79.1" r="1.8"/>
		<circle class="st1" cx="59" cy="79.1" r="1.8"/>
		<circle class="st1" cx="63.3" cy="79.1" r="1.8"/>
		<circle class="st1" cx="67.6" cy="79.1" r="1.8"/>
		<circle class="st1" cx="72" cy="79.1" r="1.8"/>
		<circle class="st1" cx="76.3" cy="79.1" r="1.8"/>
		<circle class="st1" cx="80.6" cy="79.1" r="1.8"/>
		<circle class="st1" cx="84.9" cy="79.1" r="1.8"/>
		<circle class="st1" cx="89.3" cy="79.1" r="1.8"/>
		<circle class="st1" cx="93.6" cy="79.1" r="1.8"/>
		<circle class="st1" cx="97.9" cy="79.1" r="1.8"/>
		<circle class="st1" cx="102.3" cy="79.1" r="1.8"/>
		<circle class="st1" cx="106.6" cy="79.1" r="1.8"/>
		<circle class="st1" cx="110.9" cy="79.1" r="1.8"/>
		<circle class="st1" cx="115.3" cy="79.1" r="1.8"/>
		<circle class="st1" cx="119.6" cy="79.1" r="1.8"/>
		<text transform="matrix(1 0 0 1 4.9108 80.1594)" class="st1 st2 st3">00</text>
		<text transform="matrix(1 0 0 1 122.7008 80.1594)" class="st1 st2 st3">00</text>
	</g>
	<g>
		<circle class="st1" cx="11.4" cy="73.2" r="1.8"/>
		<circle class="st1" cx="15.7" cy="73.2" r="1.8"/>
		<circle class="st1" cx="20" cy="73.2" r="1.8"/>
		<circle class="st1" cx="24.4" cy="73.2" r="1.8"/>
		<circle class="st1" cx="28.7" cy="73.2" r="1.8"/>
		<circle class="st1" cx="33" cy="73.2" r="1.8"/>
		<circle class="st1" cx="37.3" cy="73.2" r="1.8"/>
		<circle class="st1" cx="41.7" cy="73.2" r="1.8"/>
		<circle class="st1" cx="46" cy="73.2" r="1.8"/>
		<circle class="st1" cx="50.3" cy="73.2" r="1.8"/>
		<circle class="st1" cx="54.6" cy="73.2" r="1.8"/>
		<circle class="st1" cx="59" cy="73.2" r="1.8"/>
		<circle class="st1" cx="63.3" cy="73.2" r="1.8"/>
		<circle class="st1" cx="67.6" cy="73.2" r="1.8"/>
		<circle class="st1" cx="72" cy="73.2" r="1.8"/>
		<circle class="st1" cx="76.3" cy="73.2" r="1.8"/>
		<circle class="st1" cx="80.6" cy="73.2" r="1.8"/>
		<circle class="st1" cx="84.9" cy="73.2" r="1.8"/>
		<circle class="st1" cx="89.3" cy="73.2" r="1.8"/>
		<circle class="st1" cx="93.6" cy="73.2" r="1.8"/>
		<circle class="st1" cx="97.9" cy="73.2" r="1.8"/>
		<circle class="st1" cx="102.3" cy="73.2" r="1.8"/>
		<circle class="st1" cx="106.6" cy="73.2" r="1.8"/>
		<circle class="st1" cx="110.9" cy="73.2" r="1.8"/>
		<circle class="st1" cx="115.3" cy="73.2" r="1.8"/>
		<circle class="st1" cx="119.6" cy="73.2" r="1.8"/>
		<text transform="matrix(1 0 0 1 4.9108 74.2294)" class="st1 st2 st3">00</text>
		<text transform="matrix(1 0 0 1 122.7008 74.2294)" class="st1 st2 st3">00</text>
	</g>
	<g>
		<circle class="st1" cx="11.4" cy="67.2" r="1.8"/>
		<circle class="st1" cx="15.7" cy="67.2" r="1.8"/>
		<circle class="st1" cx="20" cy="67.2" r="1.8"/>
		<circle class="st1" cx="24.4" cy="67.2" r="1.8"/>
		<circle class="st1" cx="28.7" cy="67.2" r="1.8"/>
		<circle class="st1" cx="33" cy="67.2" r="1.8"/>
		<circle class="st1" cx="37.3" cy="67.2" r="1.8"/>
		<circle class="st1" cx="41.7" cy="67.2" r="1.8"/>
		<circle class="st1" cx="46" cy="67.2" r="1.8"/>
		<circle class="st1" cx="50.3" cy="67.2" r="1.8"/>
		<circle class="st1" cx="54.6" cy="67.2" r="1.8"/>
		<circle class="st1" cx="59" cy="67.2" r="1.8"/>
		<circle class="st1" cx="63.3" cy="67.2" r="1.8"/>
		<circle class="st1" cx="67.6" cy="67.2" r="1.8"/>
		<circle class="st1" cx="72" cy="67.2" r="1.8"/>
		<circle class="st1" cx="76.3" cy="67.2" r="1.8"/>
		<circle class="st1" cx="80.6" cy="67.2" r="1.8"/>
		<circle class="st1" cx="84.9" cy="67.2" r="1.8"/>
		<circle class="st1" cx="89.3" cy="67.2" r="1.8"/>
		<circle class="st1" cx="93.6" cy="67.2" r="1.8"/>
		<circle class="st1" cx="97.9" cy="67.2" r="1.8"/>
		<circle class="st1" cx="102.3" cy="67.2" r="1.8"/>
		<circle class="st1" cx="106.6" cy="67.2" r="1.8"/>
		<circle class="st1" cx="110.9" cy="67.2" r="1.8"/>
		<circle class="st1" cx="115.3" cy="67.2" r="1.8"/>
		<circle class="st1" cx="119.6" cy="67.2" r="1.8"/>
		<text transform="matrix(1 0 0 1 4.9108 68.2993)" class="st1 st2 st3">00</text>
		<text transform="matrix(1 0 0 1 122.7008 68.2993)" class="st1 st2 st3">00</text>
	</g>
	<g>
		<circle class="st1" cx="11.4" cy="61.3" r="1.8"/>
		<circle class="st1" cx="15.7" cy="61.3" r="1.8"/>
		<circle class="st1" cx="20" cy="61.3" r="1.8"/>
		<circle class="st1" cx="24.4" cy="61.3" r="1.8"/>
		<circle class="st1" cx="28.7" cy="61.3" r="1.8"/>
		<circle class="st1" cx="33" cy="61.3" r="1.8"/>
		<circle class="st1" cx="37.3" cy="61.3" r="1.8"/>
		<circle class="st1" cx="41.7" cy="61.3" r="1.8"/>
		<circle class="st1" cx="46" cy="61.3" r="1.8"/>
		<circle class="st1" cx="50.3" cy="61.3" r="1.8"/>
		<circle class="st1" cx="54.6" cy="61.3" r="1.8"/>
		<circle class="st1" cx="59" cy="61.3" r="1.8"/>
		<circle class="st1" cx="63.3" cy="61.3" r="1.8"/>
		<circle class="st1" cx="67.6" cy="61.3" r="1.8"/>
		<circle class="st1" cx="72" cy="61.3" r="1.8"/>
		<circle class="st1" cx="76.3" cy="61.3" r="1.8"/>
		<circle class="st1" cx="80.6" cy="61.3" r="1.8"/>
		<circle class="st1" cx="84.9" cy="61.3" r="1.8"/>
		<circle class="st1" cx="89.3" cy="61.3" r="1.8"/>
		<circle class="st1" cx="93.6" cy="61.3" r="1.8"/>
		<circle class="st1" cx="97.9" cy="61.3" r="1.8"/>
		<circle class="st1" cx="102.3" cy="61.3" r="1.8"/>
		<circle class="st1" cx="106.6" cy="61.3" r="1.8"/>
		<circle class="st1" cx="110.9" cy="61.3" r="1.8"/>
		<circle class="st1" cx="115.3" cy="61.3" r="1.8"/>
		<circle class="st1" cx="119.6" cy="61.3" r="1.8"/>
		<text transform="matrix(1 0 0 1 4.9108 62.3693)" class="st1 st2 st3">00</text>
		<text transform="matrix(1 0 0 1 122.7008 62.3693)" class="st1 st2 st3">00</text>
	</g>
	<g>
		<circle class="st1" cx="11.4" cy="55.4" r="1.8"/>
		<circle class="st1" cx="15.7" cy="55.4" r="1.8"/>
		<circle class="st1" cx="20" cy="55.4" r="1.8"/>
		<circle class="st1" cx="24.4" cy="55.4" r="1.8"/>
		<circle class="st1" cx="28.7" cy="55.4" r="1.8"/>
		<circle class="st1" cx="33" cy="55.4" r="1.8"/>
		<circle class="st1" cx="37.3" cy="55.4" r="1.8"/>
		<circle class="st1" cx="41.7" cy="55.4" r="1.8"/>
		<circle class="st1" cx="46" cy="55.4" r="1.8"/>
		<circle class="st1" cx="50.3" cy="55.4" r="1.8"/>
		<circle class="st1" cx="54.6" cy="55.4" r="1.8"/>
		<circle class="st1" cx="59" cy="55.4" r="1.8"/>
		<circle class="st1" cx="63.3" cy="55.4" r="1.8"/>
		<circle class="st1" cx="67.6" cy="55.4" r="1.8"/>
		<circle class="st1" cx="72" cy="55.4" r="1.8"/>
		<circle class="st1" cx="76.3" cy="55.4" r="1.8"/>
		<circle class="st1" cx="80.6" cy="55.4" r="1.8"/>
		<circle class="st1" cx="84.9" cy="55.4" r="1.8"/>
		<circle class="st1" cx="89.3" cy="55.4" r="1.8"/>
		<circle class="st1" cx="93.6" cy="55.4" r="1.8"/>
		<circle class="st1" cx="97.9" cy="55.4" r="1.8"/>
		<circle class="st1" cx="102.3" cy="55.4" r="1.8"/>
		<circle class="st1" cx="106.6" cy="55.4" r="1.8"/>
		<circle class="st1" cx="110.9" cy="55.4" r="1.8"/>
		<circle class="st1" cx="115.3" cy="55.4" r="1.8"/>
		<circle class="st1" cx="119.6" cy="55.4" r="1.8"/>
		<text transform="matrix(1 0 0 1 4.9108 56.4392)" class="st1 st2 st3">00</text>
		<text transform="matrix(1 0 0 1 122.7008 56.4392)" class="st1 st2 st3">00</text>
	</g>
	<g>
		<circle class="st1" cx="11.4" cy="49.4" r="1.8"/>
		<circle class="st1" cx="15.7" cy="49.4" r="1.8"/>
		<circle class="st1" cx="20" cy="49.4" r="1.8"/>
		<circle class="st1" cx="24.4" cy="49.4" r="1.8"/>
		<circle class="st1" cx="28.7" cy="49.4" r="1.8"/>
		<circle class="st1" cx="33" cy="49.4" r="1.8"/>
		<circle class="st1" cx="37.3" cy="49.4" r="1.8"/>
		<circle class="st1" cx="41.7" cy="49.4" r="1.8"/>
		<circle class="st1" cx="46" cy="49.4" r="1.8"/>
		<circle class="st1" cx="50.3" cy="49.4" r="1.8"/>
		<circle class="st1" cx="54.6" cy="49.4" r="1.8"/>
		<circle class="st1" cx="59" cy="49.4" r="1.8"/>
		<circle class="st1" cx="63.3" cy="49.4" r="1.8"/>
		<circle class="st1" cx="67.6" cy="49.4" r="1.8"/>
		<circle class="st1" cx="72" cy="49.4" r="1.8"/>
		<circle class="st1" cx="76.3" cy="49.4" r="1.8"/>
		<circle class="st1" cx="80.6" cy="49.4" r="1.8"/>
		<circle class="st1" cx="84.9" cy="49.4" r="1.8"/>
		<circle class="st1" cx="89.3" cy="49.4" r="1.8"/>
		<circle class="st1" cx="93.6" cy="49.4" r="1.8"/>
		<circle class="st1" cx="97.9" cy="49.4" r="1.8"/>
		<circle class="st1" cx="102.3" cy="49.4" r="1.8"/>
		<circle class="st1" cx="106.6" cy="49.4" r="1.8"/>
		<circle class="st1" cx="110.9" cy="49.4" r="1.8"/>
		<circle class="st1" cx="115.3" cy="49.4" r="1.8"/>
		<circle class="st1" cx="119.6" cy="49.4" r="1.8"/>
		<text transform="matrix(1 0 0 1 4.9108 50.5092)" class="st1 st2 st3">00</text>
		<text transform="matrix(1 0 0 1 122.7008 50.5092)" class="st1 st2 st3">00</text>
	</g>
	<g>
		<circle class="st1" cx="11.4" cy="43.5" r="1.8"/>
		<circle class="st1" cx="15.7" cy="43.5" r="1.8"/>
		<circle class="st1" cx="20" cy="43.5" r="1.8"/>
		<circle class="st1" cx="24.4" cy="43.5" r="1.8"/>
		<circle class="st1" cx="28.7" cy="43.5" r="1.8"/>
		<circle class="st1" cx="33" cy="43.5" r="1.8"/>
		<circle class="st1" cx="37.3" cy="43.5" r="1.8"/>
		<circle class="st1" cx="41.7" cy="43.5" r="1.8"/>
		<circle class="st1" cx="46" cy="43.5" r="1.8"/>
		<circle class="st1" cx="50.3" cy="43.5" r="1.8"/>
		<circle class="st1" cx="54.6" cy="43.5" r="1.8"/>
		<circle class="st1" cx="59" cy="43.5" r="1.8"/>
		<circle class="st1" cx="63.3" cy="43.5" r="1.8"/>
		<circle class="st1" cx="67.6" cy="43.5" r="1.8"/>
		<circle class="st1" cx="72" cy="43.5" r="1.8"/>
		<circle class="st1" cx="76.3" cy="43.5" r="1.8"/>
		<circle class="st1" cx="80.6" cy="43.5" r="1.8"/>
		<circle class="st1" cx="84.9" cy="43.5" r="1.8"/>
		<circle class="st1" cx="89.3" cy="43.5" r="1.8"/>
		<circle class="st1" cx="93.6" cy="43.5" r="1.8"/>
		<circle class="st1" cx="97.9" cy="43.5" r="1.8"/>
		<circle class="st1" cx="102.3" cy="43.5" r="1.8"/>
		<circle class="st1" cx="106.6" cy="43.5" r="1.8"/>
		<circle class="st1" cx="110.9" cy="43.5" r="1.8"/>
		<circle class="st1" cx="115.3" cy="43.5" r="1.8"/>
		<circle class="st1" cx="119.6" cy="43.5" r="1.8"/>
		<text transform="matrix(1 0 0 1 4.9108 44.5791)" class="st1 st2 st3">00</text>
		<text transform="matrix(1 0 0 1 122.7008 44.5791)" class="st1 st2 st3">00</text>
	</g>
	<g>
		<circle class="st1" cx="11.4" cy="37.6" r="1.8"/>
		<circle class="st1" cx="15.7" cy="37.6" r="1.8"/>
		<circle class="st1" cx="20" cy="37.6" r="1.8"/>
		<circle class="st1" cx="24.4" cy="37.6" r="1.8"/>
		<circle class="st1" cx="28.7" cy="37.6" r="1.8"/>
		<circle class="st1" cx="33" cy="37.6" r="1.8"/>
		<circle class="st1" cx="37.3" cy="37.6" r="1.8"/>
		<circle class="st1" cx="41.7" cy="37.6" r="1.8"/>
		<circle class="st1" cx="46" cy="37.6" r="1.8"/>
		<circle class="st1" cx="50.3" cy="37.6" r="1.8"/>
		<circle class="st1" cx="54.6" cy="37.6" r="1.8"/>
		<circle class="st1" cx="59" cy="37.6" r="1.8"/>
		<circle class="st1" cx="63.3" cy="37.6" r="1.8"/>
		<circle class="st1" cx="67.6" cy="37.6" r="1.8"/>
		<circle class="st1" cx="72" cy="37.6" r="1.8"/>
		<circle class="st1" cx="76.3" cy="37.6" r="1.8"/>
		<circle class="st1" cx="80.6" cy="37.6" r="1.8"/>
		<circle class="st1" cx="84.9" cy="37.6" r="1.8"/>
		<circle class="st1" cx="89.3" cy="37.6" r="1.8"/>
		<circle class="st1" cx="93.6" cy="37.6" r="1.8"/>
		<circle class="st1" cx="97.9" cy="37.6" r="1.8"/>
		<circle class="st1" cx="102.3" cy="37.6" r="1.8"/>
		<circle class="st1" cx="106.6" cy="37.6" r="1.8"/>
		<circle class="st1" cx="110.9" cy="37.6" r="1.8"/>
		<circle class="st1" cx="115.3" cy="37.6" r="1.8"/>
		<circle class="st1" cx="119.6" cy="37.6" r="1.8"/>
		<text transform="matrix(1 0 0 1 4.9108 38.649)" class="st1 st2 st3">00</text>
		<text transform="matrix(1 0 0 1 122.7008 38.649)" class="st1 st2 st3">00</text>
	</g>
	<g>
		<circle class="st1" cx="89.3" cy="31.6" r="1.8"/>
		<circle class="st1" cx="93.7" cy="31.6" r="1.8"/>
		<circle class="st1" cx="98" cy="31.6" r="1.8"/>
		<circle class="st1" cx="102.3" cy="31.6" r="1.8"/>
		<circle class="st1" cx="106.6" cy="31.6" r="1.8"/>
		<circle class="st1" cx="111" cy="31.6" r="1.8"/>
		<circle class="st1" cx="115.3" cy="31.6" r="1.8"/>
		<circle class="st1" cx="119.6" cy="31.6" r="1.8"/>
		<text transform="matrix(1 0 0 1 82.7808 32.719)" class="st1 st2 st3">00</text>
		<text transform="matrix(1 0 0 1 122.7008 32.719)" class="st1 st2 st3">00</text>
	</g>
	<g>
		<circle class="st1" cx="89.3" cy="25.7" r="1.8"/>
		<circle class="st1" cx="93.7" cy="25.7" r="1.8"/>
		<circle class="st1" cx="98" cy="25.7" r="1.8"/>
		<circle class="st1" cx="102.3" cy="25.7" r="1.8"/>
		<circle class="st1" cx="106.6" cy="25.7" r="1.8"/>
		<circle class="st1" cx="111" cy="25.7" r="1.8"/>
		<circle class="st1" cx="115.3" cy="25.7" r="1.8"/>
		<circle class="st1" cx="119.6" cy="25.7" r="1.8"/>
		<text transform="matrix(1 0 0 1 82.7808 26.7889)" class="st1 st2 st3">00</text>
		<text transform="matrix(1 0 0 1 122.7008 26.7889)" class="st1 st2 st3">00</text>
	</g>
	<g>
		<circle class="st1" cx="11.4" cy="19.8" r="1.9"/>
		<circle class="st1" cx="15.7" cy="19.8" r="1.9"/>
		<circle class="st1" cx="20" cy="19.8" r="1.9"/>
		<circle class="st1" cx="24.4" cy="19.8" r="1.9"/>
		<circle class="st1" cx="28.7" cy="19.8" r="1.9"/>
		<circle class="st1" cx="33" cy="19.8" r="1.8"/>
		<circle class="st1" cx="37.3" cy="19.8" r="1.8"/>
		<circle class="st1" cx="41.7" cy="19.8" r="1.8"/>
		<circle class="st1" cx="46" cy="19.8" r="1.8"/>
		<circle class="st1" cx="50.3" cy="19.8" r="1.8"/>
		<circle class="st1" cx="54.6" cy="19.8" r="1.8"/>
		<circle class="st1" cx="59" cy="19.8" r="1.8"/>
		<circle class="st1" cx="63.3" cy="19.8" r="1.9"/>
		<circle class="st1" cx="67.6" cy="19.8" r="1.8"/>
		<circle class="st1" cx="72" cy="19.8" r="1.8"/>
		<circle class="st1" cx="76.3" cy="19.8" r="1.8"/>
		<circle class="st1" cx="80.6" cy="19.8" r="1.8"/>
		<circle class="st1" cx="84.9" cy="19.8" r="1.8"/>
		<circle class="st1" cx="89.3" cy="19.8" r="1.8"/>
		<circle class="st1" cx="93.6" cy="19.8" r="1.8"/>
		<text transform="matrix(1 0 0 1 4.9108 20.8589)" class="st1 st2 st3">00</text>
		<text transform="matrix(1 0 0 1 96.7108 20.8589)" class="st1 st2 st3">00</text>
	</g>
</g>
</svg>
