<?xml version="1.0" encoding="utf-8"?>
<!-- Generator: Adobe Illustrator 23.0.1, SVG Export Plug-In . SVG Version: 6.00 Build 0)  -->
<svg version="1.1" id="Layer_1" xmlns="http://www.w3.org/2000/svg" xmlns:xlink="http://www.w3.org/1999/xlink" x="0px" y="0px"
	 viewBox="0 0 131 61" style="enable-background:new 0 0 131 61;" xml:space="preserve">
<style type="text/css">
	.st0{fill:#F1F3F4;stroke:#BCC8CE;stroke-width:0.4;stroke-linecap:round;stroke-miterlimit:10;}
	.st1{fill:#AEBDC4;}
	.st2{font-family:'Roboto-Medium';}
	.st3{font-size:3px;}
</style>
<rect x="0.5" y="0.7" class="st0" width="129.9" height="59.6"/>
<g>
	<g>
		<circle class="st1" cx="15.6" cy="51.2" r="1.8"/>
		<circle class="st1" cx="20" cy="51.2" r="1.8"/>
		<circle class="st1" cx="24.3" cy="51.2" r="1.8"/>
		<circle class="st1" cx="28.6" cy="51.2" r="1.8"/>
		<circle class="st1" cx="32.9" cy="51.2" r="1.8"/>
		<circle class="st1" cx="37.2" cy="51.2" r="1.8"/>
		<circle class="st1" cx="41.6" cy="51.2" r="1.8"/>
		<circle class="st1" cx="45.9" cy="51.2" r="1.8"/>
		<circle class="st1" cx="50.2" cy="51.2" r="1.8"/>
		<circle class="st1" cx="54.5" cy="51.2" r="1.8"/>
		<circle class="st1" cx="58.9" cy="51.2" r="1.8"/>
		<circle class="st1" cx="63.2" cy="51.2" r="1.8"/>
		<circle class="st1" cx="67.5" cy="51.2" r="1.8"/>
		<circle class="st1" cx="71.9" cy="51.2" r="1.8"/>
		<circle class="st1" cx="76.2" cy="51.2" r="1.8"/>
		<circle class="st1" cx="80.5" cy="51.2" r="1.8"/>
		<circle class="st1" cx="84.9" cy="51.2" r="1.8"/>
		<circle class="st1" cx="89.2" cy="51.2" r="1.8"/>
		<circle class="st1" cx="93.5" cy="51.2" r="1.8"/>
		<circle class="st1" cx="97.9" cy="51.2" r="1.8"/>
		<circle class="st1" cx="102.2" cy="51.2" r="1.8"/>
		<circle class="st1" cx="106.5" cy="51.2" r="1.8"/>
		<circle class="st1" cx="110.8" cy="51.2" r="1.8"/>
		<circle class="st1" cx="115.2" cy="51.2" r="1.8"/>
		<text transform="matrix(1 0 0 1 9.1508 52.2805)" class="st1 st2 st3">00</text>
		<text transform="matrix(1 0 0 1 118.2809 52.2805)" class="st1 st2 st3">00</text>
	</g>
	<g>
		<circle class="st1" cx="15.6" cy="45.3" r="1.8"/>
		<circle class="st1" cx="20" cy="45.3" r="1.8"/>
		<circle class="st1" cx="24.3" cy="45.3" r="1.8"/>
		<circle class="st1" cx="28.6" cy="45.3" r="1.8"/>
		<circle class="st1" cx="32.9" cy="45.3" r="1.8"/>
		<circle class="st1" cx="37.2" cy="45.3" r="1.8"/>
		<circle class="st1" cx="41.6" cy="45.3" r="1.8"/>
		<circle class="st1" cx="45.9" cy="45.3" r="1.8"/>
		<circle class="st1" cx="50.2" cy="45.3" r="1.8"/>
		<circle class="st1" cx="54.5" cy="45.3" r="1.8"/>
		<circle class="st1" cx="58.9" cy="45.3" r="1.8"/>
		<circle class="st1" cx="63.2" cy="45.3" r="1.8"/>
		<circle class="st1" cx="67.5" cy="45.3" r="1.8"/>
		<circle class="st1" cx="71.9" cy="45.3" r="1.8"/>
		<circle class="st1" cx="76.2" cy="45.3" r="1.8"/>
		<circle class="st1" cx="80.5" cy="45.3" r="1.8"/>
		<circle class="st1" cx="84.9" cy="45.3" r="1.8"/>
		<circle class="st1" cx="89.2" cy="45.3" r="1.8"/>
		<circle class="st1" cx="93.5" cy="45.3" r="1.8"/>
		<circle class="st1" cx="97.9" cy="45.3" r="1.8"/>
		<circle class="st1" cx="102.2" cy="45.3" r="1.8"/>
		<circle class="st1" cx="106.5" cy="45.3" r="1.8"/>
		<circle class="st1" cx="110.8" cy="45.3" r="1.8"/>
		<circle class="st1" cx="115.2" cy="45.3" r="1.8"/>
		<text transform="matrix(1 0 0 1 9.1508 46.3505)" class="st1 st2 st3">00</text>
		<text transform="matrix(1 0 0 1 118.2809 46.3505)" class="st1 st2 st3">00</text>
	</g>
	<g>
		<circle class="st1" cx="15.6" cy="39.4" r="1.8"/>
		<circle class="st1" cx="20" cy="39.4" r="1.8"/>
		<circle class="st1" cx="24.3" cy="39.4" r="1.8"/>
		<circle class="st1" cx="28.6" cy="39.4" r="1.8"/>
		<circle class="st1" cx="32.9" cy="39.4" r="1.8"/>
		<circle class="st1" cx="37.2" cy="39.4" r="1.8"/>
		<circle class="st1" cx="41.6" cy="39.4" r="1.8"/>
		<circle class="st1" cx="45.9" cy="39.4" r="1.8"/>
		<circle class="st1" cx="50.2" cy="39.4" r="1.8"/>
		<circle class="st1" cx="54.5" cy="39.4" r="1.8"/>
		<circle class="st1" cx="58.9" cy="39.4" r="1.8"/>
		<circle class="st1" cx="63.2" cy="39.4" r="1.8"/>
		<circle class="st1" cx="67.5" cy="39.4" r="1.8"/>
		<circle class="st1" cx="71.9" cy="39.4" r="1.8"/>
		<circle class="st1" cx="76.2" cy="39.4" r="1.8"/>
		<circle class="st1" cx="80.5" cy="39.4" r="1.8"/>
		<circle class="st1" cx="84.9" cy="39.4" r="1.8"/>
		<circle class="st1" cx="89.2" cy="39.4" r="1.8"/>
		<circle class="st1" cx="93.5" cy="39.4" r="1.8"/>
		<circle class="st1" cx="97.9" cy="39.4" r="1.8"/>
		<circle class="st1" cx="102.2" cy="39.4" r="1.8"/>
		<circle class="st1" cx="106.5" cy="39.4" r="1.8"/>
		<circle class="st1" cx="110.8" cy="39.4" r="1.8"/>
		<circle class="st1" cx="115.2" cy="39.4" r="1.8"/>
		<text transform="matrix(1 0 0 1 9.1508 40.4204)" class="st1 st2 st3">00</text>
		<text transform="matrix(1 0 0 1 118.2809 40.4204)" class="st1 st2 st3">00</text>
	</g>
	<g>
		<circle class="st1" cx="15.6" cy="33.4" r="1.8"/>
		<circle class="st1" cx="20" cy="33.4" r="1.8"/>
		<circle class="st1" cx="24.3" cy="33.4" r="1.8"/>
		<circle class="st1" cx="28.6" cy="33.4" r="1.8"/>
		<circle class="st1" cx="32.9" cy="33.4" r="1.8"/>
		<circle class="st1" cx="37.2" cy="33.4" r="1.8"/>
		<circle class="st1" cx="41.6" cy="33.4" r="1.8"/>
		<circle class="st1" cx="45.9" cy="33.4" r="1.8"/>
		<circle class="st1" cx="50.2" cy="33.4" r="1.8"/>
		<circle class="st1" cx="54.5" cy="33.4" r="1.8"/>
		<circle class="st1" cx="58.9" cy="33.4" r="1.8"/>
		<circle class="st1" cx="63.2" cy="33.4" r="1.8"/>
		<circle class="st1" cx="67.5" cy="33.4" r="1.8"/>
		<circle class="st1" cx="71.9" cy="33.4" r="1.8"/>
		<circle class="st1" cx="76.2" cy="33.4" r="1.8"/>
		<circle class="st1" cx="80.5" cy="33.4" r="1.8"/>
		<circle class="st1" cx="84.9" cy="33.4" r="1.8"/>
		<circle class="st1" cx="89.2" cy="33.4" r="1.8"/>
		<circle class="st1" cx="93.5" cy="33.4" r="1.8"/>
		<circle class="st1" cx="97.9" cy="33.4" r="1.8"/>
		<circle class="st1" cx="102.2" cy="33.4" r="1.8"/>
		<circle class="st1" cx="106.5" cy="33.4" r="1.8"/>
		<circle class="st1" cx="110.8" cy="33.4" r="1.8"/>
		<circle class="st1" cx="115.2" cy="33.4" r="1.8"/>
		<text transform="matrix(1 0 0 1 9.1508 34.4904)" class="st1 st2 st3">00</text>
		<text transform="matrix(1 0 0 1 118.2809 34.4904)" class="st1 st2 st3">00</text>
	</g>
	<g>
		<circle class="st1" cx="15.6" cy="27.5" r="1.9"/>
		<circle class="st1" cx="20" cy="27.5" r="1.9"/>
		<circle class="st1" cx="24.3" cy="27.5" r="1.9"/>
		<circle class="st1" cx="28.6" cy="27.5" r="1.9"/>
		<circle class="st1" cx="32.9" cy="27.5" r="1.8"/>
		<circle class="st1" cx="37.2" cy="27.5" r="1.8"/>
		<circle class="st1" cx="41.6" cy="27.5" r="1.8"/>
		<circle class="st1" cx="45.9" cy="27.5" r="1.8"/>
		<circle class="st1" cx="50.2" cy="27.5" r="1.8"/>
		<circle class="st1" cx="54.5" cy="27.5" r="1.8"/>
		<circle class="st1" cx="58.9" cy="27.5" r="1.8"/>
		<circle class="st1" cx="63.2" cy="27.5" r="1.8"/>
		<circle class="st1" cx="67.5" cy="27.5" r="1.8"/>
		<circle class="st1" cx="71.9" cy="27.5" r="1.8"/>
		<circle class="st1" cx="76.2" cy="27.5" r="1.8"/>
		<circle class="st1" cx="80.5" cy="27.5" r="1.8"/>
		<circle class="st1" cx="84.9" cy="27.5" r="1.8"/>
		<circle class="st1" cx="89.2" cy="27.5" r="1.8"/>
		<circle class="st1" cx="93.5" cy="27.5" r="1.8"/>
		<circle class="st1" cx="97.9" cy="27.5" r="1.8"/>
		<circle class="st1" cx="102.2" cy="27.5" r="1.8"/>
		<circle class="st1" cx="106.5" cy="27.5" r="1.8"/>
		<circle class="st1" cx="110.8" cy="27.5" r="1.8"/>
		<circle class="st1" cx="115.2" cy="27.5" r="1.8"/>
		<text transform="matrix(1 0 0 1 9.1508 28.5603)" class="st1 st2 st3">00</text>
		<text transform="matrix(1 0 0 1 118.2809 28.5603)" class="st1 st2 st3">00</text>
	</g>
	<g>
		<circle class="st1" cx="15.6" cy="21.6" r="1.9"/>
		<circle class="st1" cx="20" cy="21.6" r="1.9"/>
		<circle class="st1" cx="24.3" cy="21.6" r="1.9"/>
		<circle class="st1" cx="28.6" cy="21.6" r="1.9"/>
		<circle class="st1" cx="32.9" cy="21.6" r="1.8"/>
		<circle class="st1" cx="37.2" cy="21.6" r="1.8"/>
		<circle class="st1" cx="41.6" cy="21.6" r="1.8"/>
		<circle class="st1" cx="45.9" cy="21.6" r="1.8"/>
		<circle class="st1" cx="50.2" cy="21.6" r="1.8"/>
		<circle class="st1" cx="54.5" cy="21.6" r="1.8"/>
		<circle class="st1" cx="58.9" cy="21.6" r="1.8"/>
		<circle class="st1" cx="63.2" cy="21.6" r="1.8"/>
		<circle class="st1" cx="67.5" cy="21.6" r="1.8"/>
		<circle class="st1" cx="71.9" cy="21.6" r="1.8"/>
		<circle class="st1" cx="76.2" cy="21.6" r="1.8"/>
		<circle class="st1" cx="80.5" cy="21.6" r="1.8"/>
		<circle class="st1" cx="84.9" cy="21.6" r="1.8"/>
		<circle class="st1" cx="89.2" cy="21.6" r="1.8"/>
		<circle class="st1" cx="93.5" cy="21.6" r="1.8"/>
		<circle class="st1" cx="97.9" cy="21.6" r="1.8"/>
		<circle class="st1" cx="102.2" cy="21.6" r="1.8"/>
		<circle class="st1" cx="106.5" cy="21.6" r="1.8"/>
		<circle class="st1" cx="110.8" cy="21.6" r="1.8"/>
		<circle class="st1" cx="115.2" cy="21.6" r="1.8"/>
		<text transform="matrix(1 0 0 1 9.1508 22.6302)" class="st1 st2 st3">00</text>
		<text transform="matrix(1 0 0 1 118.2809 22.6302)" class="st1 st2 st3">00</text>
	</g>
	<g>
		<circle class="st1" cx="15.6" cy="15.6" r="1.9"/>
		<circle class="st1" cx="20" cy="15.6" r="1.9"/>
		<circle class="st1" cx="24.3" cy="15.6" r="1.9"/>
		<circle class="st1" cx="28.6" cy="15.6" r="1.9"/>
		<circle class="st1" cx="32.9" cy="15.6" r="1.8"/>
		<circle class="st1" cx="37.2" cy="15.6" r="1.8"/>
		<circle class="st1" cx="41.6" cy="15.6" r="1.8"/>
		<circle class="st1" cx="45.9" cy="15.6" r="1.8"/>
		<circle class="st1" cx="50.2" cy="15.6" r="1.8"/>
		<circle class="st1" cx="54.5" cy="15.6" r="1.8"/>
		<circle class="st1" cx="58.9" cy="15.6" r="1.8"/>
		<circle class="st1" cx="63.2" cy="15.6" r="1.8"/>
		<circle class="st1" cx="67.5" cy="15.6" r="1.8"/>
		<circle class="st1" cx="71.9" cy="15.6" r="1.8"/>
		<circle class="st1" cx="76.2" cy="15.6" r="1.8"/>
		<circle class="st1" cx="80.5" cy="15.6" r="1.8"/>
		<circle class="st1" cx="84.9" cy="15.6" r="1.8"/>
		<circle class="st1" cx="89.2" cy="15.6" r="1.8"/>
		<circle class="st1" cx="93.5" cy="15.6" r="1.8"/>
		<circle class="st1" cx="97.9" cy="15.6" r="1.8"/>
		<circle class="st1" cx="102.2" cy="15.6" r="1.8"/>
		<circle class="st1" cx="106.5" cy="15.6" r="1.8"/>
		<circle class="st1" cx="110.8" cy="15.6" r="1.8"/>
		<circle class="st1" cx="115.2" cy="15.6" r="1.8"/>
		<text transform="matrix(1 0 0 1 9.1508 16.7002)" class="st1 st2 st3">00</text>
		<text transform="matrix(1 0 0 1 118.2809 16.7002)" class="st1 st2 st3">00</text>
	</g>
	<g>
		<circle class="st1" cx="15.6" cy="9.7" r="1.9"/>
		<circle class="st1" cx="20" cy="9.7" r="1.9"/>
		<circle class="st1" cx="24.3" cy="9.7" r="1.9"/>
		<circle class="st1" cx="28.6" cy="9.7" r="1.9"/>
		<circle class="st1" cx="32.9" cy="9.7" r="1.8"/>
		<circle class="st1" cx="37.2" cy="9.7" r="1.8"/>
		<circle class="st1" cx="41.6" cy="9.7" r="1.8"/>
		<circle class="st1" cx="45.9" cy="9.7" r="1.8"/>
		<circle class="st1" cx="50.2" cy="9.7" r="1.8"/>
		<circle class="st1" cx="54.5" cy="9.7" r="1.8"/>
		<circle class="st1" cx="58.9" cy="9.7" r="1.8"/>
		<circle class="st1" cx="63.2" cy="9.7" r="1.8"/>
		<circle class="st1" cx="67.5" cy="9.7" r="1.8"/>
		<circle class="st1" cx="71.9" cy="9.7" r="1.8"/>
		<circle class="st1" cx="76.2" cy="9.7" r="1.8"/>
		<circle class="st1" cx="80.5" cy="9.7" r="1.8"/>
		<circle class="st1" cx="84.9" cy="9.7" r="1.8"/>
		<circle class="st1" cx="89.2" cy="9.7" r="1.8"/>
		<circle class="st1" cx="93.5" cy="9.7" r="1.8"/>
		<circle class="st1" cx="97.9" cy="9.7" r="1.8"/>
		<circle class="st1" cx="102.2" cy="9.7" r="1.8"/>
		<circle class="st1" cx="106.5" cy="9.7" r="1.8"/>
		<circle class="st1" cx="110.8" cy="9.7" r="1.8"/>
		<circle class="st1" cx="115.2" cy="9.7" r="1.8"/>
		<text transform="matrix(1 0 0 1 9.1508 10.7701)" class="st1 st2 st3">00</text>
		<text transform="matrix(1 0 0 1 118.2809 10.7701)" class="st1 st2 st3">00</text>
	</g>
</g>
</svg>
