<?xml version="1.0" encoding="utf-8"?>
<!-- Generator: Adobe Illustrator 23.0.1, SVG Export Plug-In . SVG Version: 6.00 Build 0)  -->
<svg version="1.1" id="Layer_1" xmlns="http://www.w3.org/2000/svg" xmlns:xlink="http://www.w3.org/1999/xlink" x="0px" y="0px"
	 viewBox="0 0 131 84" style="enable-background:new 0 0 131 84;" xml:space="preserve">
<style type="text/css">
	.st0{fill:#F1F3F4;stroke:#BCC8CE;stroke-width:0.4;stroke-linecap:round;stroke-miterlimit:10;}
	.st1{fill:#AEBDC4;}
	.st2{font-family:'Roboto-Medium';}
	.st3{font-size:3px;}
</style>
<g onclick="&quot;W 6 (мягкие)&quot;;">
	<rect x="0.5" y="0.4" class="st0" width="129.9" height="83.3"/>
	<g>
		<circle class="st1" cx="13.6" cy="74.6" r="1.8"/>
		<circle class="st1" cx="17.9" cy="74.6" r="1.8"/>
		<circle class="st1" cx="22.2" cy="74.6" r="1.8"/>
		<circle class="st1" cx="26.5" cy="74.6" r="1.8"/>
		<circle class="st1" cx="30.9" cy="74.6" r="1.8"/>
		<circle class="st1" cx="35.2" cy="74.6" r="1.8"/>
		<circle class="st1" cx="39.5" cy="74.6" r="1.8"/>
		<circle class="st1" cx="43.8" cy="74.6" r="1.8"/>
		<circle class="st1" cx="48.2" cy="74.6" r="1.8"/>
		<circle class="st1" cx="52.5" cy="74.6" r="1.8"/>
		<circle class="st1" cx="56.8" cy="74.6" r="1.8"/>
		<circle class="st1" cx="61.1" cy="74.6" r="1.8"/>
		<circle class="st1" cx="65.5" cy="74.6" r="1.8"/>
		<circle class="st1" cx="69.8" cy="74.6" r="1.8"/>
		<circle class="st1" cx="74.1" cy="74.6" r="1.8"/>
		<circle class="st1" cx="78.5" cy="74.6" r="1.8"/>
		<circle class="st1" cx="82.8" cy="74.6" r="1.8"/>
		<circle class="st1" cx="87.1" cy="74.6" r="1.8"/>
		<circle class="st1" cx="91.5" cy="74.6" r="1.8"/>
		<circle class="st1" cx="95.8" cy="74.6" r="1.8"/>
		<circle class="st1" cx="100.1" cy="74.6" r="1.8"/>
		<circle class="st1" cx="104.4" cy="74.6" r="1.8"/>
		<circle class="st1" cx="108.8" cy="74.6" r="1.8"/>
		<circle class="st1" cx="113.1" cy="74.6" r="1.8"/>
		<circle class="st1" cx="117.4" cy="74.6" r="1.8"/>
		<text transform="matrix(1 0 0 1 7.1008 75.6505)" class="st1 st2 st3">00</text>
		<text transform="matrix(1 0 0 1 120.501 75.6505)" class="st1 st2 st3">00</text>
	</g>
	<g>
		<circle class="st1" cx="13.6" cy="68.7" r="1.8"/>
		<circle class="st1" cx="17.9" cy="68.7" r="1.8"/>
		<circle class="st1" cx="22.2" cy="68.7" r="1.8"/>
		<circle class="st1" cx="26.5" cy="68.7" r="1.8"/>
		<circle class="st1" cx="30.9" cy="68.7" r="1.8"/>
		<circle class="st1" cx="35.2" cy="68.7" r="1.8"/>
		<circle class="st1" cx="39.5" cy="68.7" r="1.8"/>
		<circle class="st1" cx="43.8" cy="68.7" r="1.8"/>
		<circle class="st1" cx="48.2" cy="68.7" r="1.8"/>
		<circle class="st1" cx="52.5" cy="68.7" r="1.8"/>
		<circle class="st1" cx="56.8" cy="68.7" r="1.8"/>
		<circle class="st1" cx="61.1" cy="68.7" r="1.8"/>
		<circle class="st1" cx="65.5" cy="68.7" r="1.8"/>
		<circle class="st1" cx="69.8" cy="68.7" r="1.8"/>
		<circle class="st1" cx="74.1" cy="68.7" r="1.8"/>
		<circle class="st1" cx="78.5" cy="68.7" r="1.8"/>
		<circle class="st1" cx="82.8" cy="68.7" r="1.8"/>
		<circle class="st1" cx="87.1" cy="68.7" r="1.8"/>
		<circle class="st1" cx="91.5" cy="68.7" r="1.8"/>
		<circle class="st1" cx="95.8" cy="68.7" r="1.8"/>
		<circle class="st1" cx="100.1" cy="68.7" r="1.8"/>
		<circle class="st1" cx="104.4" cy="68.7" r="1.8"/>
		<circle class="st1" cx="108.8" cy="68.7" r="1.8"/>
		<circle class="st1" cx="113.1" cy="68.7" r="1.8"/>
		<circle class="st1" cx="117.4" cy="68.7" r="1.8"/>
		<text transform="matrix(1 0 0 1 7.1008 69.7505)" class="st1 st2 st3">00</text>
		<text transform="matrix(1 0 0 1 120.501 69.7505)" class="st1 st2 st3">00</text>
	</g>
	<g>
		<circle class="st1" cx="13.6" cy="62.8" r="1.9"/>
		<circle class="st1" cx="17.9" cy="62.8" r="1.9"/>
		<circle class="st1" cx="22.2" cy="62.8" r="1.9"/>
		<circle class="st1" cx="26.5" cy="62.8" r="1.9"/>
		<circle class="st1" cx="30.9" cy="62.8" r="1.9"/>
		<circle class="st1" cx="35.2" cy="62.8" r="1.8"/>
		<circle class="st1" cx="39.5" cy="62.8" r="1.8"/>
		<circle class="st1" cx="43.8" cy="62.8" r="1.8"/>
		<circle class="st1" cx="48.2" cy="62.8" r="1.8"/>
		<circle class="st1" cx="52.5" cy="62.8" r="1.8"/>
		<circle class="st1" cx="56.8" cy="62.8" r="1.8"/>
		<circle class="st1" cx="61.1" cy="62.8" r="1.8"/>
		<circle class="st1" cx="65.5" cy="62.8" r="1.8"/>
		<circle class="st1" cx="69.8" cy="62.8" r="1.8"/>
		<circle class="st1" cx="74.1" cy="62.8" r="1.8"/>
		<circle class="st1" cx="78.5" cy="62.8" r="1.8"/>
		<circle class="st1" cx="82.8" cy="62.8" r="1.8"/>
		<circle class="st1" cx="87.1" cy="62.8" r="1.8"/>
		<circle class="st1" cx="91.5" cy="62.8" r="1.8"/>
		<circle class="st1" cx="95.8" cy="62.8" r="1.8"/>
		<circle class="st1" cx="100.1" cy="62.8" r="1.8"/>
		<circle class="st1" cx="104.4" cy="62.8" r="1.8"/>
		<circle class="st1" cx="108.8" cy="62.8" r="1.8"/>
		<circle class="st1" cx="113.1" cy="62.8" r="1.8"/>
		<circle class="st1" cx="117.4" cy="62.8" r="1.8"/>
		<text transform="matrix(1 0 0 1 7.1008 63.8505)" class="st1 st2 st3">00</text>
		<text transform="matrix(1 0 0 1 120.501 63.8505)" class="st1 st2 st3">00</text>
	</g>
	<g>
		<circle class="st1" cx="13.6" cy="56.8" r="1.8"/>
		<circle class="st1" cx="17.9" cy="56.8" r="1.8"/>
		<circle class="st1" cx="22.2" cy="56.8" r="1.8"/>
		<circle class="st1" cx="26.5" cy="56.8" r="1.8"/>
		<circle class="st1" cx="30.9" cy="56.8" r="1.8"/>
		<circle class="st1" cx="35.2" cy="56.8" r="1.8"/>
		<circle class="st1" cx="39.5" cy="56.8" r="1.8"/>
		<circle class="st1" cx="43.8" cy="56.8" r="1.8"/>
		<circle class="st1" cx="48.2" cy="56.8" r="1.8"/>
		<circle class="st1" cx="52.5" cy="56.8" r="1.8"/>
		<circle class="st1" cx="56.8" cy="56.8" r="1.8"/>
		<circle class="st1" cx="61.1" cy="56.8" r="1.8"/>
		<circle class="st1" cx="65.5" cy="56.8" r="1.8"/>
		<circle class="st1" cx="69.8" cy="56.8" r="1.8"/>
		<circle class="st1" cx="74.1" cy="56.8" r="1.8"/>
		<circle class="st1" cx="78.5" cy="56.8" r="1.8"/>
		<circle class="st1" cx="82.8" cy="56.8" r="1.8"/>
		<circle class="st1" cx="87.1" cy="56.8" r="1.8"/>
		<circle class="st1" cx="91.5" cy="56.8" r="1.8"/>
		<circle class="st1" cx="95.8" cy="56.8" r="1.8"/>
		<circle class="st1" cx="100.1" cy="56.8" r="1.8"/>
		<circle class="st1" cx="104.4" cy="56.8" r="1.8"/>
		<circle class="st1" cx="108.8" cy="56.8" r="1.8"/>
		<circle class="st1" cx="113.1" cy="56.8" r="1.8"/>
		<circle class="st1" cx="117.4" cy="56.8" r="1.8"/>
		<text transform="matrix(1 0 0 1 7.1008 57.8505)" class="st1 st2 st3">00</text>
		<text transform="matrix(1 0 0 1 120.501 57.8505)" class="st1 st2 st3">00</text>
	</g>
	<g>
		<circle class="st1" cx="13.6" cy="50.9" r="1.8"/>
		<circle class="st1" cx="17.9" cy="50.9" r="1.8"/>
		<circle class="st1" cx="22.2" cy="50.9" r="1.8"/>
		<circle class="st1" cx="26.5" cy="50.9" r="1.8"/>
		<circle class="st1" cx="30.9" cy="50.9" r="1.8"/>
		<circle class="st1" cx="35.2" cy="50.9" r="1.8"/>
		<circle class="st1" cx="39.5" cy="50.9" r="1.8"/>
		<circle class="st1" cx="43.8" cy="50.9" r="1.8"/>
		<circle class="st1" cx="48.2" cy="50.9" r="1.8"/>
		<circle class="st1" cx="52.5" cy="50.9" r="1.8"/>
		<circle class="st1" cx="56.8" cy="50.9" r="1.8"/>
		<circle class="st1" cx="61.1" cy="50.9" r="1.8"/>
		<circle class="st1" cx="65.5" cy="50.9" r="1.8"/>
		<circle class="st1" cx="69.8" cy="50.9" r="1.8"/>
		<circle class="st1" cx="74.1" cy="50.9" r="1.8"/>
		<circle class="st1" cx="78.5" cy="50.9" r="1.8"/>
		<circle class="st1" cx="82.8" cy="50.9" r="1.8"/>
		<circle class="st1" cx="87.1" cy="50.9" r="1.8"/>
		<circle class="st1" cx="91.5" cy="50.9" r="1.8"/>
		<circle class="st1" cx="95.8" cy="50.9" r="1.8"/>
		<circle class="st1" cx="100.1" cy="50.9" r="1.8"/>
		<circle class="st1" cx="104.4" cy="50.9" r="1.8"/>
		<circle class="st1" cx="108.8" cy="50.9" r="1.8"/>
		<circle class="st1" cx="113.1" cy="50.9" r="1.8"/>
		<circle class="st1" cx="117.4" cy="50.9" r="1.8"/>
		<text transform="matrix(1 0 0 1 7.1008 51.9504)" class="st1 st2 st3">00</text>
		<text transform="matrix(1 0 0 1 120.501 51.9504)" class="st1 st2 st3">00</text>
	</g>
	<g>
		<circle class="st1" cx="13.6" cy="45" r="1.8"/>
		<circle class="st1" cx="17.9" cy="45" r="1.8"/>
		<circle class="st1" cx="22.2" cy="45" r="1.8"/>
		<circle class="st1" cx="26.5" cy="45" r="1.8"/>
		<circle class="st1" cx="30.9" cy="45" r="1.8"/>
		<circle class="st1" cx="35.2" cy="45" r="1.8"/>
		<circle class="st1" cx="39.5" cy="45" r="1.8"/>
		<circle class="st1" cx="43.8" cy="45" r="1.8"/>
		<circle class="st1" cx="48.2" cy="45" r="1.8"/>
		<circle class="st1" cx="52.5" cy="45" r="1.8"/>
		<circle class="st1" cx="56.8" cy="45" r="1.8"/>
		<circle class="st1" cx="61.1" cy="45" r="1.8"/>
		<circle class="st1" cx="65.5" cy="45" r="1.8"/>
		<circle class="st1" cx="69.8" cy="45" r="1.8"/>
		<circle class="st1" cx="74.1" cy="45" r="1.8"/>
		<circle class="st1" cx="78.5" cy="45" r="1.8"/>
		<circle class="st1" cx="82.8" cy="45" r="1.8"/>
		<circle class="st1" cx="87.1" cy="45" r="1.8"/>
		<circle class="st1" cx="91.5" cy="45" r="1.8"/>
		<circle class="st1" cx="95.8" cy="45" r="1.8"/>
		<circle class="st1" cx="100.1" cy="45" r="1.8"/>
		<circle class="st1" cx="104.4" cy="45" r="1.8"/>
		<circle class="st1" cx="108.8" cy="45" r="1.8"/>
		<circle class="st1" cx="113.1" cy="45" r="1.8"/>
		<circle class="st1" cx="117.4" cy="45" r="1.8"/>
		<text transform="matrix(1 0 0 1 7.1008 46.0504)" class="st1 st2 st3">00</text>
		<text transform="matrix(1 0 0 1 120.501 46.0504)" class="st1 st2 st3">00</text>
	</g>
	<g>
		<circle class="st1" cx="13.6" cy="39" r="1.8"/>
		<circle class="st1" cx="17.9" cy="39" r="1.8"/>
		<circle class="st1" cx="22.2" cy="39" r="1.8"/>
		<circle class="st1" cx="26.5" cy="39" r="1.8"/>
		<circle class="st1" cx="30.9" cy="39" r="1.8"/>
		<circle class="st1" cx="35.2" cy="39" r="1.8"/>
		<circle class="st1" cx="39.5" cy="39" r="1.8"/>
		<circle class="st1" cx="43.8" cy="39" r="1.8"/>
		<circle class="st1" cx="48.2" cy="39" r="1.8"/>
		<circle class="st1" cx="52.5" cy="39" r="1.8"/>
		<circle class="st1" cx="56.8" cy="39" r="1.8"/>
		<circle class="st1" cx="61.1" cy="39" r="1.8"/>
		<circle class="st1" cx="65.5" cy="39" r="1.8"/>
		<circle class="st1" cx="69.8" cy="39" r="1.8"/>
		<circle class="st1" cx="74.1" cy="39" r="1.8"/>
		<circle class="st1" cx="78.5" cy="39" r="1.8"/>
		<circle class="st1" cx="82.8" cy="39" r="1.8"/>
		<circle class="st1" cx="87.1" cy="39" r="1.8"/>
		<circle class="st1" cx="91.5" cy="39" r="1.8"/>
		<circle class="st1" cx="95.8" cy="39" r="1.8"/>
		<circle class="st1" cx="100.1" cy="39" r="1.8"/>
		<circle class="st1" cx="104.4" cy="39" r="1.8"/>
		<circle class="st1" cx="108.8" cy="39" r="1.8"/>
		<circle class="st1" cx="113.1" cy="39" r="1.8"/>
		<circle class="st1" cx="117.4" cy="39" r="1.8"/>
		<text transform="matrix(1 0 0 1 7.1008 40.0504)" class="st1 st2 st3">00</text>
		<text transform="matrix(1 0 0 1 120.501 40.0504)" class="st1 st2 st3">00</text>
	</g>
	<g>
		<circle class="st1" cx="13.6" cy="33.1" r="1.8"/>
		<circle class="st1" cx="17.9" cy="33.1" r="1.8"/>
		<circle class="st1" cx="22.2" cy="33.1" r="1.8"/>
		<circle class="st1" cx="26.5" cy="33.1" r="1.8"/>
		<circle class="st1" cx="30.9" cy="33.1" r="1.8"/>
		<circle class="st1" cx="35.2" cy="33.1" r="1.8"/>
		<circle class="st1" cx="39.5" cy="33.1" r="1.8"/>
		<circle class="st1" cx="43.8" cy="33.1" r="1.8"/>
		<circle class="st1" cx="48.2" cy="33.1" r="1.8"/>
		<circle class="st1" cx="52.5" cy="33.1" r="1.8"/>
		<circle class="st1" cx="56.8" cy="33.1" r="1.8"/>
		<circle class="st1" cx="61.1" cy="33.1" r="1.8"/>
		<circle class="st1" cx="65.5" cy="33.1" r="1.8"/>
		<circle class="st1" cx="69.8" cy="33.1" r="1.8"/>
		<circle class="st1" cx="74.1" cy="33.1" r="1.8"/>
		<circle class="st1" cx="78.5" cy="33.1" r="1.8"/>
		<circle class="st1" cx="82.8" cy="33.1" r="1.8"/>
		<circle class="st1" cx="87.1" cy="33.1" r="1.8"/>
		<circle class="st1" cx="91.5" cy="33.1" r="1.8"/>
		<circle class="st1" cx="95.8" cy="33.1" r="1.8"/>
		<circle class="st1" cx="100.1" cy="33.1" r="1.8"/>
		<circle class="st1" cx="104.4" cy="33.1" r="1.8"/>
		<circle class="st1" cx="108.8" cy="33.1" r="1.8"/>
		<circle class="st1" cx="113.1" cy="33.1" r="1.8"/>
		<circle class="st1" cx="117.4" cy="33.1" r="1.8"/>
		<text transform="matrix(1 0 0 1 7.1008 34.1504)" class="st1 st2 st3">00</text>
		<text transform="matrix(1 0 0 1 120.501 34.1504)" class="st1 st2 st3">00</text>
	</g>
	<g>
		<circle class="st1" cx="22.2" cy="27.2" r="1.9"/>
		<circle class="st1" cx="26.6" cy="27.2" r="1.9"/>
		<circle class="st1" cx="30.9" cy="27.2" r="1.9"/>
		<circle class="st1" cx="35.2" cy="27.2" r="1.8"/>
		<circle class="st1" cx="39.5" cy="27.2" r="1.8"/>
		<circle class="st1" cx="43.8" cy="27.2" r="1.8"/>
		<circle class="st1" cx="48.2" cy="27.2" r="1.8"/>
		<circle class="st1" cx="52.5" cy="27.2" r="1.8"/>
		<circle class="st1" cx="56.8" cy="27.2" r="1.8"/>
		<circle class="st1" cx="61.1" cy="27.2" r="1.8"/>
		<circle class="st1" cx="65.5" cy="27.2" r="1.8"/>
		<circle class="st1" cx="69.8" cy="27.2" r="1.8"/>
		<circle class="st1" cx="74.1" cy="27.2" r="1.8"/>
		<circle class="st1" cx="78.5" cy="27.2" r="1.8"/>
		<circle class="st1" cx="82.8" cy="27.2" r="1.8"/>
		<circle class="st1" cx="87.1" cy="27.2" r="1.8"/>
		<circle class="st1" cx="91.5" cy="27.2" r="1.8"/>
		<circle class="st1" cx="95.8" cy="27.2" r="1.8"/>
		<circle class="st1" cx="100.1" cy="27.2" r="1.8"/>
		<circle class="st1" cx="104.4" cy="27.2" r="1.8"/>
		<circle class="st1" cx="108.8" cy="27.2" r="1.8"/>
		<text transform="matrix(1 0 0 1 15.7008 28.2504)" class="st1 st2 st3">00</text>
		<text transform="matrix(1 0 0 1 111.901 28.2504)" class="st1 st2 st3">00</text>
	</g>
	<g>
		<circle class="st1" cx="22.2" cy="21.2" r="1.9"/>
		<circle class="st1" cx="26.6" cy="21.2" r="1.9"/>
		<circle class="st1" cx="30.9" cy="21.2" r="1.9"/>
		<circle class="st1" cx="35.2" cy="21.2" r="1.8"/>
		<circle class="st1" cx="39.5" cy="21.2" r="1.8"/>
		<circle class="st1" cx="43.8" cy="21.2" r="1.8"/>
		<circle class="st1" cx="48.2" cy="21.2" r="1.8"/>
		<circle class="st1" cx="52.5" cy="21.2" r="1.8"/>
		<circle class="st1" cx="56.8" cy="21.2" r="1.8"/>
		<circle class="st1" cx="61.1" cy="21.2" r="1.8"/>
		<circle class="st1" cx="65.5" cy="21.2" r="1.8"/>
		<circle class="st1" cx="69.8" cy="21.2" r="1.8"/>
		<circle class="st1" cx="74.1" cy="21.2" r="1.8"/>
		<circle class="st1" cx="78.5" cy="21.2" r="1.8"/>
		<circle class="st1" cx="82.8" cy="21.2" r="1.8"/>
		<circle class="st1" cx="87.1" cy="21.2" r="1.8"/>
		<circle class="st1" cx="91.5" cy="21.2" r="1.8"/>
		<circle class="st1" cx="95.8" cy="21.2" r="1.8"/>
		<circle class="st1" cx="100.1" cy="21.2" r="1.8"/>
		<circle class="st1" cx="104.4" cy="21.2" r="1.8"/>
		<circle class="st1" cx="108.8" cy="21.2" r="1.8"/>
		<text transform="matrix(1 0 0 1 15.7008 22.2504)" class="st1 st2 st3">00</text>
		<text transform="matrix(1 0 0 1 111.901 22.2504)" class="st1 st2 st3">00</text>
	</g>
	<g>
		<circle class="st1" cx="22.2" cy="15.3" r="1.9"/>
		<circle class="st1" cx="26.6" cy="15.3" r="1.9"/>
		<circle class="st1" cx="30.9" cy="15.3" r="1.9"/>
		<circle class="st1" cx="35.2" cy="15.3" r="1.8"/>
		<circle class="st1" cx="39.5" cy="15.3" r="1.8"/>
		<circle class="st1" cx="43.8" cy="15.3" r="1.8"/>
		<circle class="st1" cx="48.2" cy="15.3" r="1.8"/>
		<circle class="st1" cx="52.5" cy="15.3" r="1.8"/>
		<circle class="st1" cx="56.8" cy="15.3" r="1.8"/>
		<circle class="st1" cx="61.1" cy="15.3" r="1.8"/>
		<circle class="st1" cx="65.5" cy="15.3" r="1.8"/>
		<circle class="st1" cx="69.8" cy="15.3" r="1.8"/>
		<circle class="st1" cx="74.1" cy="15.3" r="1.8"/>
		<circle class="st1" cx="78.5" cy="15.3" r="1.8"/>
		<circle class="st1" cx="82.8" cy="15.3" r="1.8"/>
		<circle class="st1" cx="87.1" cy="15.3" r="1.8"/>
		<circle class="st1" cx="91.5" cy="15.3" r="1.8"/>
		<circle class="st1" cx="95.8" cy="15.3" r="1.8"/>
		<circle class="st1" cx="100.1" cy="15.3" r="1.8"/>
		<circle class="st1" cx="104.4" cy="15.3" r="1.8"/>
		<circle class="st1" cx="108.8" cy="15.3" r="1.8"/>
		<text transform="matrix(1 0 0 1 15.7008 16.3503)" class="st1 st2 st3">00</text>
		<text transform="matrix(1 0 0 1 111.901 16.3503)" class="st1 st2 st3">00</text>
	</g>
	<g>
		<circle class="st1" cx="22.2" cy="9.4" r="1.9"/>
		<circle class="st1" cx="26.6" cy="9.4" r="1.9"/>
		<circle class="st1" cx="30.9" cy="9.4" r="1.9"/>
		<circle class="st1" cx="35.2" cy="9.4" r="1.8"/>
		<circle class="st1" cx="39.5" cy="9.4" r="1.8"/>
		<circle class="st1" cx="43.8" cy="9.4" r="1.8"/>
		<circle class="st1" cx="48.2" cy="9.4" r="1.8"/>
		<circle class="st1" cx="52.5" cy="9.4" r="1.8"/>
		<circle class="st1" cx="56.8" cy="9.4" r="1.8"/>
		<circle class="st1" cx="61.1" cy="9.4" r="1.8"/>
		<circle class="st1" cx="65.5" cy="9.4" r="1.8"/>
		<circle class="st1" cx="69.8" cy="9.4" r="1.8"/>
		<circle class="st1" cx="74.1" cy="9.4" r="1.8"/>
		<circle class="st1" cx="78.5" cy="9.4" r="1.8"/>
		<circle class="st1" cx="82.8" cy="9.4" r="1.8"/>
		<circle class="st1" cx="87.1" cy="9.4" r="1.8"/>
		<circle class="st1" cx="91.5" cy="9.4" r="1.8"/>
		<circle class="st1" cx="95.8" cy="9.4" r="1.8"/>
		<circle class="st1" cx="100.1" cy="9.4" r="1.8"/>
		<circle class="st1" cx="104.4" cy="9.4" r="1.8"/>
		<circle class="st1" cx="108.8" cy="9.4" r="1.8"/>
		<text transform="matrix(1 0 0 1 15.7008 10.4503)" class="st1 st2 st3">00</text>
		<text transform="matrix(1 0 0 1 111.901 10.4503)" class="st1 st2 st3">00</text>
	</g>
</g>
</svg>
