<?xml version="1.0" encoding="utf-8"?>
<!-- Generator: Adobe Illustrator 23.0.1, SVG Export Plug-In . SVG Version: 6.00 Build 0)  -->
<svg version="1.1" id="Layer_1" xmlns="http://www.w3.org/2000/svg" xmlns:xlink="http://www.w3.org/1999/xlink" x="0px" y="0px"
	 viewBox="0 0 131 219" style="enable-background:new 0 0 131 219;" xml:space="preserve">
<style type="text/css">
	.st0{fill:#F1F3F4;stroke:#BCC8CE;stroke-width:0.4;stroke-linecap:round;stroke-miterlimit:10;}
	.st1{fill:#AEBDC4;}
	.st2{font-family:'Roboto-Medium';}
	.st3{font-size:3px;}
</style>
<polygon class="st0" points="0.5,218.6 0.5,10.8 130.5,0.4 130.5,218.6 "/>
<g>
	<g>
		<circle class="st1" cx="11.4" cy="209.6" r="1.9"/>
		<circle class="st1" cx="15.7" cy="209.6" r="1.9"/>
		<circle class="st1" cx="20" cy="209.6" r="1.9"/>
		<circle class="st1" cx="24.4" cy="209.6" r="1.9"/>
		<circle class="st1" cx="28.7" cy="209.6" r="1.9"/>
		<circle class="st1" cx="33" cy="209.6" r="1.9"/>
		<circle class="st1" cx="37.3" cy="209.6" r="1.9"/>
		<circle class="st1" cx="41.7" cy="209.6" r="1.9"/>
		<circle class="st1" cx="46" cy="209.6" r="1.9"/>
		<circle class="st1" cx="50.3" cy="209.6" r="1.9"/>
		<circle class="st1" cx="54.6" cy="209.6" r="1.9"/>
		<circle class="st1" cx="59" cy="209.6" r="1.9"/>
		<circle class="st1" cx="63.3" cy="209.6" r="1.9"/>
		<circle class="st1" cx="67.6" cy="209.6" r="1.9"/>
		<circle class="st1" cx="72" cy="209.6" r="1.9"/>
		<circle class="st1" cx="76.3" cy="209.6" r="1.9"/>
		<circle class="st1" cx="80.6" cy="209.6" r="1.9"/>
		<circle class="st1" cx="84.9" cy="209.6" r="1.9"/>
		<circle class="st1" cx="89.3" cy="209.6" r="1.9"/>
		<circle class="st1" cx="93.6" cy="209.6" r="1.9"/>
		<circle class="st1" cx="97.9" cy="209.6" r="1.9"/>
		<circle class="st1" cx="102.3" cy="209.6" r="1.9"/>
		<circle class="st1" cx="106.6" cy="209.6" r="1.9"/>
		<circle class="st1" cx="110.9" cy="209.6" r="1.9"/>
		<circle class="st1" cx="115.3" cy="209.6" r="1.9"/>
		<circle class="st1" cx="119.6" cy="209.6" r="1.9"/>
		<text transform="matrix(1 0 0 1 4.9008 210.6505)" class="st1 st2 st3">00</text>
		<text transform="matrix(1 0 0 1 122.7 210.6505)" class="st1 st2 st3">00</text>
	</g>
	<g>
		<circle class="st1" cx="11.4" cy="203.6" r="1.9"/>
		<circle class="st1" cx="15.7" cy="203.6" r="1.9"/>
		<circle class="st1" cx="20" cy="203.6" r="1.9"/>
		<circle class="st1" cx="24.4" cy="203.6" r="1.9"/>
		<circle class="st1" cx="28.7" cy="203.6" r="1.9"/>
		<circle class="st1" cx="33" cy="203.6" r="1.9"/>
		<circle class="st1" cx="37.3" cy="203.6" r="1.9"/>
		<circle class="st1" cx="41.7" cy="203.6" r="1.9"/>
		<circle class="st1" cx="46" cy="203.6" r="1.9"/>
		<circle class="st1" cx="50.3" cy="203.6" r="1.9"/>
		<circle class="st1" cx="54.6" cy="203.6" r="1.9"/>
		<circle class="st1" cx="59" cy="203.6" r="1.9"/>
		<circle class="st1" cx="63.3" cy="203.6" r="1.9"/>
		<circle class="st1" cx="67.6" cy="203.6" r="1.9"/>
		<circle class="st1" cx="72" cy="203.6" r="1.9"/>
		<circle class="st1" cx="76.3" cy="203.6" r="1.9"/>
		<circle class="st1" cx="80.6" cy="203.6" r="1.9"/>
		<circle class="st1" cx="84.9" cy="203.6" r="1.9"/>
		<circle class="st1" cx="89.3" cy="203.6" r="1.9"/>
		<circle class="st1" cx="93.6" cy="203.6" r="1.9"/>
		<circle class="st1" cx="97.9" cy="203.6" r="1.9"/>
		<circle class="st1" cx="102.3" cy="203.6" r="1.9"/>
		<circle class="st1" cx="106.6" cy="203.6" r="1.9"/>
		<circle class="st1" cx="110.9" cy="203.6" r="1.9"/>
		<circle class="st1" cx="115.3" cy="203.6" r="1.9"/>
		<circle class="st1" cx="119.6" cy="203.6" r="1.9"/>
		<text transform="matrix(1 0 0 1 4.9008 204.676)" class="st1 st2 st3">00</text>
		<text transform="matrix(1 0 0 1 122.7 204.676)" class="st1 st2 st3">00</text>
	</g>
	<g>
		<circle class="st1" cx="11.4" cy="197.7" r="1.9"/>
		<circle class="st1" cx="15.7" cy="197.7" r="1.9"/>
		<circle class="st1" cx="20" cy="197.7" r="1.9"/>
		<circle class="st1" cx="24.4" cy="197.7" r="1.9"/>
		<circle class="st1" cx="28.7" cy="197.7" r="1.9"/>
		<circle class="st1" cx="33" cy="197.7" r="1.9"/>
		<circle class="st1" cx="37.3" cy="197.7" r="1.9"/>
		<circle class="st1" cx="41.7" cy="197.7" r="1.9"/>
		<circle class="st1" cx="46" cy="197.7" r="1.9"/>
		<circle class="st1" cx="50.3" cy="197.7" r="1.9"/>
		<circle class="st1" cx="54.6" cy="197.7" r="1.9"/>
		<circle class="st1" cx="59" cy="197.7" r="1.9"/>
		<circle class="st1" cx="63.3" cy="197.7" r="1.9"/>
		<circle class="st1" cx="67.6" cy="197.7" r="1.9"/>
		<circle class="st1" cx="72" cy="197.7" r="1.9"/>
		<circle class="st1" cx="76.3" cy="197.7" r="1.9"/>
		<circle class="st1" cx="80.6" cy="197.7" r="1.9"/>
		<circle class="st1" cx="84.9" cy="197.7" r="1.9"/>
		<circle class="st1" cx="89.3" cy="197.7" r="1.9"/>
		<circle class="st1" cx="93.6" cy="197.7" r="1.9"/>
		<circle class="st1" cx="97.9" cy="197.7" r="1.9"/>
		<circle class="st1" cx="102.3" cy="197.7" r="1.9"/>
		<circle class="st1" cx="106.6" cy="197.7" r="1.9"/>
		<circle class="st1" cx="110.9" cy="197.7" r="1.9"/>
		<circle class="st1" cx="115.3" cy="197.7" r="1.9"/>
		<circle class="st1" cx="119.6" cy="197.7" r="1.9"/>
		<text transform="matrix(1 0 0 1 4.9008 198.7017)" class="st1 st2 st3">00</text>
		<text transform="matrix(1 0 0 1 122.7 198.7017)" class="st1 st2 st3">00</text>
	</g>
	<g>
		<circle class="st1" cx="11.4" cy="191.7" r="1.9"/>
		<circle class="st1" cx="15.7" cy="191.7" r="1.9"/>
		<circle class="st1" cx="20" cy="191.7" r="1.9"/>
		<circle class="st1" cx="24.4" cy="191.7" r="1.9"/>
		<circle class="st1" cx="28.7" cy="191.7" r="1.9"/>
		<circle class="st1" cx="33" cy="191.7" r="1.9"/>
		<circle class="st1" cx="37.3" cy="191.7" r="1.9"/>
		<circle class="st1" cx="41.7" cy="191.7" r="1.9"/>
		<circle class="st1" cx="46" cy="191.7" r="1.9"/>
		<circle class="st1" cx="50.3" cy="191.7" r="1.9"/>
		<circle class="st1" cx="54.6" cy="191.7" r="1.9"/>
		<circle class="st1" cx="59" cy="191.7" r="1.9"/>
		<circle class="st1" cx="63.3" cy="191.7" r="1.9"/>
		<circle class="st1" cx="67.6" cy="191.7" r="1.9"/>
		<circle class="st1" cx="72" cy="191.7" r="1.9"/>
		<circle class="st1" cx="76.3" cy="191.7" r="1.9"/>
		<circle class="st1" cx="80.6" cy="191.7" r="1.9"/>
		<circle class="st1" cx="84.9" cy="191.7" r="1.9"/>
		<circle class="st1" cx="89.3" cy="191.7" r="1.9"/>
		<circle class="st1" cx="93.6" cy="191.7" r="1.9"/>
		<circle class="st1" cx="97.9" cy="191.7" r="1.9"/>
		<circle class="st1" cx="102.3" cy="191.7" r="1.9"/>
		<circle class="st1" cx="106.6" cy="191.7" r="1.9"/>
		<circle class="st1" cx="110.9" cy="191.7" r="1.9"/>
		<circle class="st1" cx="115.3" cy="191.7" r="1.9"/>
		<circle class="st1" cx="119.6" cy="191.7" r="1.9"/>
		<text transform="matrix(1 0 0 1 4.9008 192.7273)" class="st1 st2 st3">00</text>
		<text transform="matrix(1 0 0 1 122.7 192.7273)" class="st1 st2 st3">00</text>
	</g>
	<g>
		<circle class="st1" cx="11.4" cy="185.7" r="1.9"/>
		<circle class="st1" cx="15.7" cy="185.7" r="1.9"/>
		<circle class="st1" cx="20" cy="185.7" r="1.9"/>
		<circle class="st1" cx="24.4" cy="185.7" r="1.9"/>
		<circle class="st1" cx="28.7" cy="185.7" r="1.9"/>
		<circle class="st1" cx="33" cy="185.7" r="1.9"/>
		<circle class="st1" cx="37.3" cy="185.7" r="1.9"/>
		<circle class="st1" cx="41.7" cy="185.7" r="1.9"/>
		<circle class="st1" cx="46" cy="185.7" r="1.9"/>
		<circle class="st1" cx="50.3" cy="185.7" r="1.9"/>
		<circle class="st1" cx="54.6" cy="185.7" r="1.9"/>
		<circle class="st1" cx="59" cy="185.7" r="1.9"/>
		<circle class="st1" cx="63.3" cy="185.7" r="1.9"/>
		<circle class="st1" cx="67.6" cy="185.7" r="1.9"/>
		<circle class="st1" cx="72" cy="185.7" r="1.9"/>
		<circle class="st1" cx="76.3" cy="185.7" r="1.9"/>
		<circle class="st1" cx="80.6" cy="185.7" r="1.9"/>
		<circle class="st1" cx="84.9" cy="185.7" r="1.9"/>
		<circle class="st1" cx="89.3" cy="185.7" r="1.9"/>
		<circle class="st1" cx="93.6" cy="185.7" r="1.9"/>
		<circle class="st1" cx="97.9" cy="185.7" r="1.9"/>
		<circle class="st1" cx="102.3" cy="185.7" r="1.9"/>
		<circle class="st1" cx="106.6" cy="185.7" r="1.9"/>
		<circle class="st1" cx="110.9" cy="185.7" r="1.9"/>
		<circle class="st1" cx="115.3" cy="185.7" r="1.9"/>
		<circle class="st1" cx="119.6" cy="185.7" r="1.9"/>
		<text transform="matrix(1 0 0 1 4.9008 186.7529)" class="st1 st2 st3">00</text>
		<text transform="matrix(1 0 0 1 122.7 186.7529)" class="st1 st2 st3">00</text>
	</g>
	<g>
		<circle class="st1" cx="20.1" cy="179.7" r="1.9"/>
		<circle class="st1" cx="24.4" cy="179.7" r="1.9"/>
		<circle class="st1" cx="28.7" cy="179.7" r="1.9"/>
		<circle class="st1" cx="33" cy="179.7" r="1.9"/>
		<circle class="st1" cx="37.3" cy="179.7" r="1.9"/>
		<circle class="st1" cx="41.7" cy="179.7" r="1.9"/>
		<circle class="st1" cx="46" cy="179.7" r="1.9"/>
		<circle class="st1" cx="50.3" cy="179.7" r="1.9"/>
		<circle class="st1" cx="54.6" cy="179.7" r="1.9"/>
		<circle class="st1" cx="59" cy="179.7" r="1.9"/>
		<circle class="st1" cx="63.3" cy="179.7" r="1.9"/>
		<circle class="st1" cx="67.6" cy="179.7" r="1.9"/>
		<circle class="st1" cx="72" cy="179.7" r="1.9"/>
		<circle class="st1" cx="76.3" cy="179.7" r="1.9"/>
		<circle class="st1" cx="80.6" cy="179.7" r="1.9"/>
		<circle class="st1" cx="84.9" cy="179.7" r="1.9"/>
		<circle class="st1" cx="89.3" cy="179.7" r="1.9"/>
		<circle class="st1" cx="93.6" cy="179.7" r="1.9"/>
		<circle class="st1" cx="97.9" cy="179.7" r="1.9"/>
		<circle class="st1" cx="102.3" cy="179.7" r="1.9"/>
		<circle class="st1" cx="106.6" cy="179.7" r="1.9"/>
		<circle class="st1" cx="110.9" cy="179.7" r="1.9"/>
		<circle class="st1" cx="115.3" cy="179.7" r="1.9"/>
		<circle class="st1" cx="119.6" cy="179.7" r="1.9"/>
		<text transform="matrix(1 0 0 1 13.6008 180.7784)" class="st1 st2 st3">00</text>
		<text transform="matrix(1 0 0 1 122.7001 180.7784)" class="st1 st2 st3">00</text>
	</g>
	<g>
		<circle class="st1" cx="20.1" cy="173.8" r="1.9"/>
		<circle class="st1" cx="24.4" cy="173.8" r="1.9"/>
		<circle class="st1" cx="28.7" cy="173.8" r="1.9"/>
		<circle class="st1" cx="33" cy="173.8" r="1.9"/>
		<circle class="st1" cx="37.3" cy="173.8" r="1.9"/>
		<circle class="st1" cx="41.7" cy="173.8" r="1.9"/>
		<circle class="st1" cx="46" cy="173.8" r="1.9"/>
		<circle class="st1" cx="50.3" cy="173.8" r="1.9"/>
		<circle class="st1" cx="54.6" cy="173.8" r="1.9"/>
		<circle class="st1" cx="59" cy="173.8" r="1.9"/>
		<circle class="st1" cx="63.3" cy="173.8" r="1.9"/>
		<circle class="st1" cx="67.6" cy="173.8" r="1.9"/>
		<circle class="st1" cx="72" cy="173.8" r="1.9"/>
		<circle class="st1" cx="76.3" cy="173.8" r="1.9"/>
		<circle class="st1" cx="80.6" cy="173.8" r="1.9"/>
		<circle class="st1" cx="84.9" cy="173.8" r="1.9"/>
		<circle class="st1" cx="89.3" cy="173.8" r="1.9"/>
		<circle class="st1" cx="93.6" cy="173.8" r="1.9"/>
		<circle class="st1" cx="97.9" cy="173.8" r="1.9"/>
		<circle class="st1" cx="102.3" cy="173.8" r="1.9"/>
		<circle class="st1" cx="106.6" cy="173.8" r="1.9"/>
		<circle class="st1" cx="110.9" cy="173.8" r="1.9"/>
		<circle class="st1" cx="115.3" cy="173.8" r="1.9"/>
		<circle class="st1" cx="119.6" cy="173.8" r="1.9"/>
		<text transform="matrix(1 0 0 1 13.6008 174.8041)" class="st1 st2 st3">00</text>
		<text transform="matrix(1 0 0 1 122.7001 174.8041)" class="st1 st2 st3">00</text>
	</g>
	<g>
		<circle class="st1" cx="20.1" cy="167.8" r="1.9"/>
		<circle class="st1" cx="24.4" cy="167.8" r="1.9"/>
		<circle class="st1" cx="28.7" cy="167.8" r="1.9"/>
		<circle class="st1" cx="33" cy="167.8" r="1.9"/>
		<circle class="st1" cx="37.3" cy="167.8" r="1.9"/>
		<circle class="st1" cx="41.7" cy="167.8" r="1.9"/>
		<circle class="st1" cx="46" cy="167.8" r="1.9"/>
		<circle class="st1" cx="50.3" cy="167.8" r="1.9"/>
		<circle class="st1" cx="54.6" cy="167.8" r="1.9"/>
		<circle class="st1" cx="59" cy="167.8" r="1.9"/>
		<circle class="st1" cx="63.3" cy="167.8" r="1.9"/>
		<circle class="st1" cx="67.6" cy="167.8" r="1.9"/>
		<circle class="st1" cx="72" cy="167.8" r="1.9"/>
		<circle class="st1" cx="76.3" cy="167.8" r="1.9"/>
		<circle class="st1" cx="80.6" cy="167.8" r="1.9"/>
		<circle class="st1" cx="84.9" cy="167.8" r="1.9"/>
		<circle class="st1" cx="89.3" cy="167.8" r="1.9"/>
		<circle class="st1" cx="93.6" cy="167.8" r="1.9"/>
		<circle class="st1" cx="97.9" cy="167.8" r="1.9"/>
		<circle class="st1" cx="102.3" cy="167.8" r="1.9"/>
		<circle class="st1" cx="106.6" cy="167.8" r="1.9"/>
		<circle class="st1" cx="110.9" cy="167.8" r="1.9"/>
		<circle class="st1" cx="115.3" cy="167.8" r="1.9"/>
		<circle class="st1" cx="119.6" cy="167.8" r="1.9"/>
		<text transform="matrix(1 0 0 1 13.6008 168.8427)" class="st1 st2 st3">00</text>
		<text transform="matrix(1 0 0 1 122.7001 168.8427)" class="st1 st2 st3">00</text>
	</g>
	<g>
		<circle class="st1" cx="20.1" cy="161.8" r="1.9"/>
		<circle class="st1" cx="24.4" cy="161.8" r="1.9"/>
		<circle class="st1" cx="28.7" cy="161.8" r="1.9"/>
		<circle class="st1" cx="33" cy="161.8" r="1.9"/>
		<circle class="st1" cx="37.3" cy="161.8" r="1.9"/>
		<circle class="st1" cx="41.7" cy="161.8" r="1.9"/>
		<circle class="st1" cx="46" cy="161.8" r="1.9"/>
		<circle class="st1" cx="50.3" cy="161.8" r="1.9"/>
		<circle class="st1" cx="54.6" cy="161.8" r="1.9"/>
		<circle class="st1" cx="59" cy="161.8" r="1.9"/>
		<circle class="st1" cx="63.3" cy="161.8" r="1.9"/>
		<circle class="st1" cx="67.6" cy="161.8" r="1.9"/>
		<circle class="st1" cx="72" cy="161.8" r="1.9"/>
		<circle class="st1" cx="76.3" cy="161.8" r="1.9"/>
		<circle class="st1" cx="80.6" cy="161.8" r="1.9"/>
		<circle class="st1" cx="84.9" cy="161.8" r="1.9"/>
		<circle class="st1" cx="89.3" cy="161.8" r="1.9"/>
		<circle class="st1" cx="93.6" cy="161.8" r="1.9"/>
		<circle class="st1" cx="97.9" cy="161.8" r="1.9"/>
		<circle class="st1" cx="102.3" cy="161.8" r="1.9"/>
		<circle class="st1" cx="106.6" cy="161.8" r="1.9"/>
		<circle class="st1" cx="110.9" cy="161.8" r="1.9"/>
		<circle class="st1" cx="115.3" cy="161.8" r="1.9"/>
		<circle class="st1" cx="119.6" cy="161.8" r="1.9"/>
		<text transform="matrix(1 0 0 1 13.6008 162.8552)" class="st1 st2 st3">00</text>
		<text transform="matrix(1 0 0 1 122.7001 162.8552)" class="st1 st2 st3">00</text>
	</g>
	<g>
		<circle class="st1" cx="20.1" cy="155.8" r="1.9"/>
		<circle class="st1" cx="24.4" cy="155.8" r="1.9"/>
		<circle class="st1" cx="28.7" cy="155.8" r="1.9"/>
		<circle class="st1" cx="33" cy="155.8" r="1.9"/>
		<circle class="st1" cx="37.3" cy="155.8" r="1.9"/>
		<circle class="st1" cx="41.7" cy="155.8" r="1.9"/>
		<circle class="st1" cx="46" cy="155.8" r="1.9"/>
		<circle class="st1" cx="50.3" cy="155.8" r="1.9"/>
		<circle class="st1" cx="54.6" cy="155.8" r="1.9"/>
		<circle class="st1" cx="59" cy="155.8" r="1.9"/>
		<circle class="st1" cx="63.3" cy="155.8" r="1.9"/>
		<circle class="st1" cx="67.6" cy="155.8" r="1.9"/>
		<circle class="st1" cx="72" cy="155.8" r="1.9"/>
		<circle class="st1" cx="76.3" cy="155.8" r="1.9"/>
		<circle class="st1" cx="80.6" cy="155.8" r="1.9"/>
		<circle class="st1" cx="84.9" cy="155.8" r="1.9"/>
		<circle class="st1" cx="89.3" cy="155.8" r="1.9"/>
		<circle class="st1" cx="93.6" cy="155.8" r="1.9"/>
		<circle class="st1" cx="97.9" cy="155.8" r="1.9"/>
		<circle class="st1" cx="102.3" cy="155.8" r="1.9"/>
		<circle class="st1" cx="106.6" cy="155.8" r="1.9"/>
		<circle class="st1" cx="110.9" cy="155.8" r="1.9"/>
		<circle class="st1" cx="115.3" cy="155.8" r="1.9"/>
		<circle class="st1" cx="119.6" cy="155.8" r="1.9"/>
		<text transform="matrix(1 0 0 1 13.6008 156.8809)" class="st1 st2 st3">00</text>
		<text transform="matrix(1 0 0 1 122.7001 156.8809)" class="st1 st2 st3">00</text>
	</g>
	<g>
		<circle class="st1" cx="11.4" cy="149.9" r="1.9"/>
		<circle class="st1" cx="15.7" cy="149.9" r="1.9"/>
		<circle class="st1" cx="20" cy="149.9" r="1.9"/>
		<circle class="st1" cx="24.4" cy="149.9" r="1.9"/>
		<circle class="st1" cx="28.7" cy="149.9" r="1.9"/>
		<circle class="st1" cx="33" cy="149.9" r="1.9"/>
		<circle class="st1" cx="37.3" cy="149.9" r="1.9"/>
		<circle class="st1" cx="41.7" cy="149.9" r="1.9"/>
		<circle class="st1" cx="46" cy="149.9" r="1.9"/>
		<circle class="st1" cx="50.3" cy="149.9" r="1.9"/>
		<circle class="st1" cx="54.6" cy="149.9" r="1.9"/>
		<circle class="st1" cx="59" cy="149.9" r="1.9"/>
		<circle class="st1" cx="63.3" cy="149.9" r="1.9"/>
		<circle class="st1" cx="67.6" cy="149.9" r="1.9"/>
		<circle class="st1" cx="72" cy="149.9" r="1.9"/>
		<circle class="st1" cx="76.3" cy="149.9" r="1.9"/>
		<circle class="st1" cx="80.6" cy="149.9" r="1.9"/>
		<circle class="st1" cx="84.9" cy="149.9" r="1.9"/>
		<circle class="st1" cx="89.3" cy="149.9" r="1.9"/>
		<circle class="st1" cx="93.6" cy="149.9" r="1.9"/>
		<circle class="st1" cx="97.9" cy="149.9" r="1.9"/>
		<circle class="st1" cx="102.3" cy="149.9" r="1.9"/>
		<circle class="st1" cx="106.6" cy="149.9" r="1.9"/>
		<circle class="st1" cx="110.9" cy="149.9" r="1.9"/>
		<circle class="st1" cx="115.3" cy="149.9" r="1.9"/>
		<circle class="st1" cx="119.6" cy="149.9" r="1.9"/>
		<text transform="matrix(1 0 0 1 4.9008 150.9065)" class="st1 st2 st3">00</text>
		<text transform="matrix(1 0 0 1 122.7 150.9065)" class="st1 st2 st3">00</text>
	</g>
	<g>
		<circle class="st1" cx="11.4" cy="143.9" r="1.9"/>
		<circle class="st1" cx="15.7" cy="143.9" r="1.9"/>
		<circle class="st1" cx="20" cy="143.9" r="1.9"/>
		<circle class="st1" cx="24.4" cy="143.9" r="1.9"/>
		<circle class="st1" cx="28.7" cy="143.9" r="1.9"/>
		<circle class="st1" cx="33" cy="143.9" r="1.9"/>
		<circle class="st1" cx="37.3" cy="143.9" r="1.9"/>
		<circle class="st1" cx="41.7" cy="143.9" r="1.9"/>
		<circle class="st1" cx="46" cy="143.9" r="1.9"/>
		<circle class="st1" cx="50.3" cy="143.9" r="1.9"/>
		<circle class="st1" cx="54.6" cy="143.9" r="1.9"/>
		<circle class="st1" cx="59" cy="143.9" r="1.9"/>
		<circle class="st1" cx="63.3" cy="143.9" r="1.9"/>
		<circle class="st1" cx="67.6" cy="143.9" r="1.9"/>
		<circle class="st1" cx="72" cy="143.9" r="1.9"/>
		<circle class="st1" cx="76.3" cy="143.9" r="1.9"/>
		<circle class="st1" cx="80.6" cy="143.9" r="1.9"/>
		<circle class="st1" cx="84.9" cy="143.9" r="1.9"/>
		<circle class="st1" cx="89.3" cy="143.9" r="1.9"/>
		<circle class="st1" cx="93.6" cy="143.9" r="1.9"/>
		<circle class="st1" cx="97.9" cy="143.9" r="1.9"/>
		<circle class="st1" cx="102.3" cy="143.9" r="1.9"/>
		<circle class="st1" cx="106.6" cy="143.9" r="1.9"/>
		<circle class="st1" cx="110.9" cy="143.9" r="1.9"/>
		<circle class="st1" cx="115.3" cy="143.9" r="1.9"/>
		<circle class="st1" cx="119.6" cy="143.9" r="1.9"/>
		<text transform="matrix(1 0 0 1 4.9008 144.9321)" class="st1 st2 st3">00</text>
		<text transform="matrix(1 0 0 1 122.7 144.9321)" class="st1 st2 st3">00</text>
	</g>
	<g>
		<circle class="st1" cx="11.4" cy="137.9" r="1.9"/>
		<circle class="st1" cx="15.7" cy="137.9" r="1.9"/>
		<circle class="st1" cx="20" cy="137.9" r="1.9"/>
		<circle class="st1" cx="24.4" cy="137.9" r="1.9"/>
		<circle class="st1" cx="28.7" cy="137.9" r="1.9"/>
		<circle class="st1" cx="33" cy="137.9" r="1.9"/>
		<circle class="st1" cx="37.3" cy="137.9" r="1.9"/>
		<circle class="st1" cx="41.7" cy="137.9" r="1.9"/>
		<circle class="st1" cx="46" cy="137.9" r="1.9"/>
		<circle class="st1" cx="50.3" cy="137.9" r="1.9"/>
		<circle class="st1" cx="54.6" cy="137.9" r="1.9"/>
		<circle class="st1" cx="59" cy="137.9" r="1.9"/>
		<circle class="st1" cx="63.3" cy="137.9" r="1.9"/>
		<circle class="st1" cx="67.6" cy="137.9" r="1.9"/>
		<circle class="st1" cx="72" cy="137.9" r="1.9"/>
		<circle class="st1" cx="76.3" cy="137.9" r="1.9"/>
		<circle class="st1" cx="80.6" cy="137.9" r="1.9"/>
		<circle class="st1" cx="84.9" cy="137.9" r="1.9"/>
		<circle class="st1" cx="89.3" cy="137.9" r="1.9"/>
		<circle class="st1" cx="93.6" cy="137.9" r="1.9"/>
		<circle class="st1" cx="97.9" cy="137.9" r="1.9"/>
		<circle class="st1" cx="102.3" cy="137.9" r="1.9"/>
		<circle class="st1" cx="106.6" cy="137.9" r="1.9"/>
		<circle class="st1" cx="110.9" cy="137.9" r="1.9"/>
		<text transform="matrix(1 0 0 1 4.9008 138.9576)" class="st1 st2 st3">00</text>
		<text transform="matrix(1 0 0 1 114.0009 138.9576)" class="st1 st2 st3">00</text>
	</g>
	<g>
		<circle class="st1" cx="11.4" cy="131.9" r="1.9"/>
		<circle class="st1" cx="15.7" cy="131.9" r="1.9"/>
		<circle class="st1" cx="20" cy="131.9" r="1.9"/>
		<circle class="st1" cx="24.4" cy="131.9" r="1.9"/>
		<circle class="st1" cx="28.7" cy="131.9" r="1.9"/>
		<circle class="st1" cx="33" cy="131.9" r="1.9"/>
		<circle class="st1" cx="37.3" cy="131.9" r="1.9"/>
		<circle class="st1" cx="41.7" cy="131.9" r="1.9"/>
		<circle class="st1" cx="46" cy="131.9" r="1.9"/>
		<circle class="st1" cx="50.3" cy="131.9" r="1.9"/>
		<circle class="st1" cx="54.6" cy="131.9" r="1.9"/>
		<circle class="st1" cx="59" cy="131.9" r="1.9"/>
		<circle class="st1" cx="63.3" cy="131.9" r="1.9"/>
		<circle class="st1" cx="67.6" cy="131.9" r="1.9"/>
		<circle class="st1" cx="72" cy="131.9" r="1.9"/>
		<circle class="st1" cx="76.3" cy="131.9" r="1.9"/>
		<circle class="st1" cx="80.6" cy="131.9" r="1.9"/>
		<circle class="st1" cx="84.9" cy="131.9" r="1.9"/>
		<circle class="st1" cx="89.3" cy="131.9" r="1.9"/>
		<circle class="st1" cx="93.6" cy="131.9" r="1.9"/>
		<circle class="st1" cx="97.9" cy="131.9" r="1.9"/>
		<circle class="st1" cx="102.3" cy="131.9" r="1.9"/>
		<circle class="st1" cx="106.6" cy="131.9" r="1.9"/>
		<circle class="st1" cx="110.9" cy="131.9" r="1.9"/>
		<text transform="matrix(1 0 0 1 4.9008 132.9833)" class="st1 st2 st3">00</text>
		<text transform="matrix(1 0 0 1 114.0009 132.9833)" class="st1 st2 st3">00</text>
	</g>
	<g>
		<circle class="st1" cx="11.4" cy="126" r="1.9"/>
		<circle class="st1" cx="15.7" cy="126" r="1.9"/>
		<circle class="st1" cx="20" cy="126" r="1.9"/>
		<circle class="st1" cx="24.4" cy="126" r="1.9"/>
		<circle class="st1" cx="28.7" cy="126" r="1.9"/>
		<circle class="st1" cx="33" cy="126" r="1.9"/>
		<circle class="st1" cx="37.3" cy="126" r="1.9"/>
		<circle class="st1" cx="41.7" cy="126" r="1.9"/>
		<circle class="st1" cx="46" cy="126" r="1.9"/>
		<circle class="st1" cx="50.3" cy="126" r="1.9"/>
		<circle class="st1" cx="54.6" cy="126" r="1.9"/>
		<circle class="st1" cx="59" cy="126" r="1.9"/>
		<circle class="st1" cx="63.3" cy="126" r="1.9"/>
		<circle class="st1" cx="67.6" cy="126" r="1.9"/>
		<circle class="st1" cx="72" cy="126" r="1.9"/>
		<circle class="st1" cx="76.3" cy="126" r="1.9"/>
		<circle class="st1" cx="80.6" cy="126" r="1.9"/>
		<circle class="st1" cx="84.9" cy="126" r="1.9"/>
		<circle class="st1" cx="89.3" cy="126" r="1.9"/>
		<circle class="st1" cx="93.6" cy="126" r="1.9"/>
		<circle class="st1" cx="97.9" cy="126" r="1.9"/>
		<circle class="st1" cx="102.3" cy="126" r="1.9"/>
		<circle class="st1" cx="106.6" cy="126" r="1.9"/>
		<circle class="st1" cx="110.9" cy="126" r="1.9"/>
		<text transform="matrix(1 0 0 1 4.9008 127.0088)" class="st1 st2 st3">00</text>
		<text transform="matrix(1 0 0 1 114.0009 127.0088)" class="st1 st2 st3">00</text>
	</g>
	<g>
		<circle class="st1" cx="11.4" cy="120" r="1.8"/>
		<circle class="st1" cx="15.7" cy="120" r="1.8"/>
		<circle class="st1" cx="20" cy="120" r="1.8"/>
		<circle class="st1" cx="24.4" cy="120" r="1.8"/>
		<circle class="st1" cx="28.7" cy="120" r="1.8"/>
		<circle class="st1" cx="33" cy="120" r="1.8"/>
		<circle class="st1" cx="37.3" cy="120" r="1.8"/>
		<circle class="st1" cx="41.7" cy="120" r="1.8"/>
		<circle class="st1" cx="46" cy="120" r="1.8"/>
		<circle class="st1" cx="50.3" cy="120" r="1.8"/>
		<circle class="st1" cx="54.6" cy="120" r="1.8"/>
		<circle class="st1" cx="59" cy="120" r="1.8"/>
		<circle class="st1" cx="63.3" cy="120" r="1.8"/>
		<circle class="st1" cx="67.6" cy="120" r="1.8"/>
		<circle class="st1" cx="72" cy="120" r="1.8"/>
		<circle class="st1" cx="76.3" cy="120" r="1.8"/>
		<circle class="st1" cx="80.6" cy="120" r="1.8"/>
		<circle class="st1" cx="84.9" cy="120" r="1.8"/>
		<circle class="st1" cx="89.3" cy="120" r="1.8"/>
		<circle class="st1" cx="93.6" cy="120" r="1.8"/>
		<circle class="st1" cx="97.9" cy="120" r="1.8"/>
		<circle class="st1" cx="102.3" cy="120" r="1.8"/>
		<circle class="st1" cx="106.6" cy="120" r="1.8"/>
		<circle class="st1" cx="110.9" cy="120" r="1.8"/>
		<text transform="matrix(1 0 0 1 4.9008 121.0717)" class="st1 st2 st3">00</text>
		<text transform="matrix(1 0 0 1 114.0009 121.0717)" class="st1 st2 st3">00</text>
	</g>
	<g>
		<circle class="st1" cx="11.4" cy="114.2" r="1.8"/>
		<circle class="st1" cx="15.7" cy="114.2" r="1.8"/>
		<circle class="st1" cx="20" cy="114.2" r="1.8"/>
		<circle class="st1" cx="24.4" cy="114.2" r="1.8"/>
		<circle class="st1" cx="28.7" cy="114.2" r="1.8"/>
		<circle class="st1" cx="33" cy="114.2" r="1.8"/>
		<circle class="st1" cx="37.3" cy="114.2" r="1.8"/>
		<circle class="st1" cx="41.7" cy="114.2" r="1.8"/>
		<circle class="st1" cx="46" cy="114.2" r="1.8"/>
		<circle class="st1" cx="50.3" cy="114.2" r="1.8"/>
		<circle class="st1" cx="54.6" cy="114.2" r="1.8"/>
		<circle class="st1" cx="59" cy="114.2" r="1.8"/>
		<circle class="st1" cx="63.3" cy="114.2" r="1.8"/>
		<circle class="st1" cx="67.6" cy="114.2" r="1.8"/>
		<circle class="st1" cx="72" cy="114.2" r="1.8"/>
		<circle class="st1" cx="76.3" cy="114.2" r="1.8"/>
		<circle class="st1" cx="80.6" cy="114.2" r="1.8"/>
		<circle class="st1" cx="84.9" cy="114.2" r="1.8"/>
		<circle class="st1" cx="89.3" cy="114.2" r="1.8"/>
		<circle class="st1" cx="93.6" cy="114.2" r="1.8"/>
		<circle class="st1" cx="97.9" cy="114.2" r="1.8"/>
		<circle class="st1" cx="102.3" cy="114.2" r="1.8"/>
		<circle class="st1" cx="106.6" cy="114.2" r="1.8"/>
		<circle class="st1" cx="110.9" cy="114.2" r="1.8"/>
		<text transform="matrix(1 0 0 1 4.9008 115.234)" class="st1 st2 st3">00</text>
		<text transform="matrix(1 0 0 1 114.0009 115.234)" class="st1 st2 st3">00</text>
	</g>
	<g>
		<circle class="st1" cx="11.4" cy="108.3" r="1.8"/>
		<circle class="st1" cx="15.7" cy="108.3" r="1.8"/>
		<circle class="st1" cx="20" cy="108.3" r="1.8"/>
		<circle class="st1" cx="24.4" cy="108.3" r="1.8"/>
		<circle class="st1" cx="28.7" cy="108.3" r="1.8"/>
		<circle class="st1" cx="33" cy="108.3" r="1.8"/>
		<circle class="st1" cx="37.3" cy="108.3" r="1.8"/>
		<circle class="st1" cx="41.7" cy="108.3" r="1.8"/>
		<circle class="st1" cx="46" cy="108.3" r="1.8"/>
		<circle class="st1" cx="50.3" cy="108.3" r="1.8"/>
		<circle class="st1" cx="54.6" cy="108.3" r="1.8"/>
		<circle class="st1" cx="59" cy="108.3" r="1.8"/>
		<circle class="st1" cx="63.3" cy="108.3" r="1.8"/>
		<circle class="st1" cx="67.6" cy="108.3" r="1.8"/>
		<circle class="st1" cx="72" cy="108.3" r="1.8"/>
		<circle class="st1" cx="76.3" cy="108.3" r="1.8"/>
		<circle class="st1" cx="80.6" cy="108.3" r="1.8"/>
		<circle class="st1" cx="84.9" cy="108.3" r="1.8"/>
		<circle class="st1" cx="89.3" cy="108.3" r="1.8"/>
		<circle class="st1" cx="93.6" cy="108.3" r="1.8"/>
		<circle class="st1" cx="97.9" cy="108.3" r="1.8"/>
		<circle class="st1" cx="102.3" cy="108.3" r="1.8"/>
		<circle class="st1" cx="106.6" cy="108.3" r="1.8"/>
		<circle class="st1" cx="110.9" cy="108.3" r="1.8"/>
		<circle class="st1" cx="115.3" cy="108.3" r="1.8"/>
		<circle class="st1" cx="119.6" cy="108.3" r="1.8"/>
		<text transform="matrix(1 0 0 1 4.9008 109.3962)" class="st1 st2 st3">00</text>
		<text transform="matrix(1 0 0 1 122.7 109.3962)" class="st1 st2 st3">00</text>
	</g>
	<g>
		<circle class="st1" cx="11.4" cy="102.5" r="1.8"/>
		<circle class="st1" cx="15.7" cy="102.5" r="1.8"/>
		<circle class="st1" cx="20" cy="102.5" r="1.8"/>
		<circle class="st1" cx="24.4" cy="102.5" r="1.8"/>
		<circle class="st1" cx="28.7" cy="102.5" r="1.8"/>
		<circle class="st1" cx="33" cy="102.5" r="1.8"/>
		<circle class="st1" cx="37.3" cy="102.5" r="1.8"/>
		<circle class="st1" cx="41.7" cy="102.5" r="1.8"/>
		<circle class="st1" cx="46" cy="102.5" r="1.8"/>
		<circle class="st1" cx="50.3" cy="102.5" r="1.8"/>
		<circle class="st1" cx="54.6" cy="102.5" r="1.8"/>
		<circle class="st1" cx="59" cy="102.5" r="1.8"/>
		<circle class="st1" cx="63.3" cy="102.5" r="1.8"/>
		<circle class="st1" cx="67.6" cy="102.5" r="1.8"/>
		<circle class="st1" cx="72" cy="102.5" r="1.8"/>
		<circle class="st1" cx="76.3" cy="102.5" r="1.8"/>
		<circle class="st1" cx="80.6" cy="102.5" r="1.8"/>
		<circle class="st1" cx="84.9" cy="102.5" r="1.8"/>
		<circle class="st1" cx="89.3" cy="102.5" r="1.8"/>
		<circle class="st1" cx="93.6" cy="102.5" r="1.8"/>
		<circle class="st1" cx="97.9" cy="102.5" r="1.8"/>
		<circle class="st1" cx="102.3" cy="102.5" r="1.8"/>
		<circle class="st1" cx="106.6" cy="102.5" r="1.8"/>
		<circle class="st1" cx="110.9" cy="102.5" r="1.8"/>
		<circle class="st1" cx="115.3" cy="102.5" r="1.8"/>
		<circle class="st1" cx="119.6" cy="102.5" r="1.8"/>
		<text transform="matrix(1 0 0 1 4.9008 103.5457)" class="st1 st2 st3">00</text>
		<text transform="matrix(1 0 0 1 122.7 103.5457)" class="st1 st2 st3">00</text>
	</g>
	<g>
		<circle class="st1" cx="11.4" cy="96.7" r="1.8"/>
		<circle class="st1" cx="15.7" cy="96.7" r="1.8"/>
		<circle class="st1" cx="20" cy="96.7" r="1.8"/>
		<circle class="st1" cx="24.4" cy="96.7" r="1.8"/>
		<circle class="st1" cx="28.7" cy="96.7" r="1.8"/>
		<circle class="st1" cx="33" cy="96.7" r="1.8"/>
		<circle class="st1" cx="37.3" cy="96.7" r="1.8"/>
		<circle class="st1" cx="41.7" cy="96.7" r="1.8"/>
		<circle class="st1" cx="46" cy="96.7" r="1.8"/>
		<circle class="st1" cx="50.3" cy="96.7" r="1.8"/>
		<circle class="st1" cx="54.6" cy="96.7" r="1.8"/>
		<circle class="st1" cx="59" cy="96.7" r="1.8"/>
		<circle class="st1" cx="63.3" cy="96.7" r="1.8"/>
		<circle class="st1" cx="67.6" cy="96.7" r="1.8"/>
		<circle class="st1" cx="72" cy="96.7" r="1.8"/>
		<circle class="st1" cx="76.3" cy="96.7" r="1.8"/>
		<circle class="st1" cx="80.6" cy="96.7" r="1.8"/>
		<circle class="st1" cx="84.9" cy="96.7" r="1.8"/>
		<circle class="st1" cx="89.3" cy="96.7" r="1.8"/>
		<circle class="st1" cx="93.6" cy="96.7" r="1.8"/>
		<circle class="st1" cx="97.9" cy="96.7" r="1.8"/>
		<circle class="st1" cx="102.3" cy="96.7" r="1.8"/>
		<circle class="st1" cx="106.6" cy="96.7" r="1.8"/>
		<circle class="st1" cx="110.9" cy="96.7" r="1.8"/>
		<circle class="st1" cx="115.3" cy="96.7" r="1.8"/>
		<circle class="st1" cx="119.6" cy="96.7" r="1.8"/>
		<text transform="matrix(1 0 0 1 4.9008 97.7083)" class="st1 st2 st3">00</text>
		<text transform="matrix(1 0 0 1 122.7 97.7083)" class="st1 st2 st3">00</text>
	</g>
	<g>
		<circle class="st1" cx="11.4" cy="90.8" r="1.8"/>
		<circle class="st1" cx="15.7" cy="90.8" r="1.8"/>
		<circle class="st1" cx="20" cy="90.8" r="1.8"/>
		<circle class="st1" cx="24.4" cy="90.8" r="1.8"/>
		<circle class="st1" cx="28.7" cy="90.8" r="1.8"/>
		<circle class="st1" cx="33" cy="90.8" r="1.8"/>
		<circle class="st1" cx="37.3" cy="90.8" r="1.8"/>
		<circle class="st1" cx="41.7" cy="90.8" r="1.8"/>
		<circle class="st1" cx="46" cy="90.8" r="1.8"/>
		<circle class="st1" cx="50.3" cy="90.8" r="1.8"/>
		<circle class="st1" cx="54.6" cy="90.8" r="1.8"/>
		<circle class="st1" cx="59" cy="90.8" r="1.8"/>
		<circle class="st1" cx="63.3" cy="90.8" r="1.8"/>
		<circle class="st1" cx="67.6" cy="90.8" r="1.8"/>
		<circle class="st1" cx="72" cy="90.8" r="1.8"/>
		<circle class="st1" cx="76.3" cy="90.8" r="1.8"/>
		<circle class="st1" cx="80.6" cy="90.8" r="1.8"/>
		<circle class="st1" cx="84.9" cy="90.8" r="1.8"/>
		<circle class="st1" cx="89.3" cy="90.8" r="1.8"/>
		<circle class="st1" cx="93.6" cy="90.8" r="1.8"/>
		<circle class="st1" cx="97.9" cy="90.8" r="1.8"/>
		<circle class="st1" cx="102.3" cy="90.8" r="1.8"/>
		<circle class="st1" cx="106.6" cy="90.8" r="1.8"/>
		<circle class="st1" cx="110.9" cy="90.8" r="1.8"/>
		<circle class="st1" cx="115.3" cy="90.8" r="1.8"/>
		<circle class="st1" cx="119.6" cy="90.8" r="1.8"/>
		<text transform="matrix(1 0 0 1 4.9008 91.8707)" class="st1 st2 st3">00</text>
		<text transform="matrix(1 0 0 1 122.7 91.8707)" class="st1 st2 st3">00</text>
	</g>
	<g>
		<circle class="st1" cx="11.4" cy="85" r="1.8"/>
		<circle class="st1" cx="15.7" cy="85" r="1.8"/>
		<circle class="st1" cx="20" cy="85" r="1.8"/>
		<circle class="st1" cx="24.4" cy="85" r="1.8"/>
		<circle class="st1" cx="28.7" cy="85" r="1.8"/>
		<circle class="st1" cx="33" cy="85" r="1.8"/>
		<circle class="st1" cx="37.3" cy="85" r="1.8"/>
		<circle class="st1" cx="41.7" cy="85" r="1.8"/>
		<circle class="st1" cx="46" cy="85" r="1.8"/>
		<circle class="st1" cx="50.3" cy="85" r="1.8"/>
		<circle class="st1" cx="54.6" cy="85" r="1.8"/>
		<circle class="st1" cx="59" cy="85" r="1.8"/>
		<circle class="st1" cx="63.3" cy="85" r="1.8"/>
		<circle class="st1" cx="67.6" cy="85" r="1.8"/>
		<circle class="st1" cx="72" cy="85" r="1.8"/>
		<circle class="st1" cx="76.3" cy="85" r="1.8"/>
		<circle class="st1" cx="80.6" cy="85" r="1.8"/>
		<circle class="st1" cx="84.9" cy="85" r="1.8"/>
		<circle class="st1" cx="89.3" cy="85" r="1.8"/>
		<circle class="st1" cx="93.6" cy="85" r="1.8"/>
		<circle class="st1" cx="97.9" cy="85" r="1.8"/>
		<circle class="st1" cx="102.3" cy="85" r="1.8"/>
		<circle class="st1" cx="106.6" cy="85" r="1.8"/>
		<circle class="st1" cx="110.9" cy="85" r="1.8"/>
		<circle class="st1" cx="115.3" cy="85" r="1.8"/>
		<circle class="st1" cx="119.6" cy="85" r="1.8"/>
		<text transform="matrix(1 0 0 1 4.9008 86.0332)" class="st1 st2 st3">00</text>
		<text transform="matrix(1 0 0 1 122.7 86.0332)" class="st1 st2 st3">00</text>
	</g>
	<g>
		<circle class="st1" cx="11.4" cy="79.1" r="1.8"/>
		<circle class="st1" cx="15.7" cy="79.1" r="1.8"/>
		<circle class="st1" cx="20" cy="79.1" r="1.8"/>
		<circle class="st1" cx="24.4" cy="79.1" r="1.8"/>
		<circle class="st1" cx="28.7" cy="79.1" r="1.8"/>
		<circle class="st1" cx="33" cy="79.1" r="1.8"/>
		<circle class="st1" cx="37.3" cy="79.1" r="1.8"/>
		<circle class="st1" cx="41.7" cy="79.1" r="1.8"/>
		<circle class="st1" cx="46" cy="79.1" r="1.8"/>
		<circle class="st1" cx="50.3" cy="79.1" r="1.8"/>
		<circle class="st1" cx="54.6" cy="79.1" r="1.8"/>
		<circle class="st1" cx="59" cy="79.1" r="1.8"/>
		<circle class="st1" cx="63.3" cy="79.1" r="1.8"/>
		<circle class="st1" cx="67.6" cy="79.1" r="1.8"/>
		<circle class="st1" cx="72" cy="79.1" r="1.8"/>
		<circle class="st1" cx="76.3" cy="79.1" r="1.8"/>
		<circle class="st1" cx="80.6" cy="79.1" r="1.8"/>
		<circle class="st1" cx="84.9" cy="79.1" r="1.8"/>
		<circle class="st1" cx="89.3" cy="79.1" r="1.8"/>
		<circle class="st1" cx="93.6" cy="79.1" r="1.8"/>
		<circle class="st1" cx="97.9" cy="79.1" r="1.8"/>
		<circle class="st1" cx="102.3" cy="79.1" r="1.8"/>
		<circle class="st1" cx="106.6" cy="79.1" r="1.8"/>
		<circle class="st1" cx="110.9" cy="79.1" r="1.8"/>
		<circle class="st1" cx="115.3" cy="79.1" r="1.8"/>
		<circle class="st1" cx="119.6" cy="79.1" r="1.8"/>
		<text transform="matrix(1 0 0 1 4.9008 80.196)" class="st1 st2 st3">00</text>
		<text transform="matrix(1 0 0 1 122.7 80.196)" class="st1 st2 st3">00</text>
	</g>
	<g>
		<circle class="st1" cx="11.4" cy="73.3" r="1.8"/>
		<circle class="st1" cx="15.7" cy="73.3" r="1.8"/>
		<circle class="st1" cx="20" cy="73.3" r="1.8"/>
		<circle class="st1" cx="24.4" cy="73.3" r="1.8"/>
		<circle class="st1" cx="28.7" cy="73.3" r="1.8"/>
		<circle class="st1" cx="33" cy="73.3" r="1.8"/>
		<circle class="st1" cx="37.3" cy="73.3" r="1.8"/>
		<circle class="st1" cx="41.7" cy="73.3" r="1.8"/>
		<circle class="st1" cx="46" cy="73.3" r="1.8"/>
		<circle class="st1" cx="50.3" cy="73.3" r="1.8"/>
		<circle class="st1" cx="54.6" cy="73.3" r="1.8"/>
		<circle class="st1" cx="59" cy="73.3" r="1.8"/>
		<circle class="st1" cx="63.3" cy="73.3" r="1.8"/>
		<circle class="st1" cx="67.6" cy="73.3" r="1.8"/>
		<circle class="st1" cx="72" cy="73.3" r="1.8"/>
		<circle class="st1" cx="76.3" cy="73.3" r="1.8"/>
		<circle class="st1" cx="80.6" cy="73.3" r="1.8"/>
		<circle class="st1" cx="84.9" cy="73.3" r="1.8"/>
		<circle class="st1" cx="89.3" cy="73.3" r="1.8"/>
		<circle class="st1" cx="93.6" cy="73.3" r="1.8"/>
		<circle class="st1" cx="97.9" cy="73.3" r="1.8"/>
		<circle class="st1" cx="102.3" cy="73.3" r="1.8"/>
		<circle class="st1" cx="106.6" cy="73.3" r="1.8"/>
		<circle class="st1" cx="110.9" cy="73.3" r="1.8"/>
		<circle class="st1" cx="115.3" cy="73.3" r="1.8"/>
		<circle class="st1" cx="119.6" cy="73.3" r="1.8"/>
		<text transform="matrix(1 0 0 1 4.9008 74.3588)" class="st1 st2 st3">00</text>
		<text transform="matrix(1 0 0 1 122.7 74.3588)" class="st1 st2 st3">00</text>
	</g>
	<g>
		<circle class="st1" cx="11.4" cy="67.5" r="1.8"/>
		<circle class="st1" cx="15.7" cy="67.5" r="1.8"/>
		<circle class="st1" cx="20" cy="67.5" r="1.8"/>
		<circle class="st1" cx="24.4" cy="67.5" r="1.8"/>
		<circle class="st1" cx="28.7" cy="67.5" r="1.8"/>
		<circle class="st1" cx="33" cy="67.5" r="1.8"/>
		<circle class="st1" cx="37.3" cy="67.5" r="1.8"/>
		<circle class="st1" cx="41.7" cy="67.5" r="1.8"/>
		<circle class="st1" cx="46" cy="67.5" r="1.8"/>
		<circle class="st1" cx="50.3" cy="67.5" r="1.8"/>
		<circle class="st1" cx="54.6" cy="67.5" r="1.8"/>
		<circle class="st1" cx="59" cy="67.5" r="1.8"/>
		<circle class="st1" cx="63.3" cy="67.5" r="1.8"/>
		<circle class="st1" cx="67.6" cy="67.5" r="1.8"/>
		<circle class="st1" cx="72" cy="67.5" r="1.8"/>
		<circle class="st1" cx="76.3" cy="67.5" r="1.8"/>
		<circle class="st1" cx="80.6" cy="67.5" r="1.8"/>
		<circle class="st1" cx="84.9" cy="67.5" r="1.8"/>
		<circle class="st1" cx="89.3" cy="67.5" r="1.8"/>
		<circle class="st1" cx="93.6" cy="67.5" r="1.8"/>
		<circle class="st1" cx="97.9" cy="67.5" r="1.8"/>
		<circle class="st1" cx="102.3" cy="67.5" r="1.8"/>
		<circle class="st1" cx="106.6" cy="67.5" r="1.8"/>
		<circle class="st1" cx="110.9" cy="67.5" r="1.8"/>
		<circle class="st1" cx="115.3" cy="67.5" r="1.8"/>
		<circle class="st1" cx="119.6" cy="67.5" r="1.8"/>
		<text transform="matrix(1 0 0 1 4.9008 68.5216)" class="st1 st2 st3">00</text>
		<text transform="matrix(1 0 0 1 122.7 68.5216)" class="st1 st2 st3">00</text>
	</g>
	<g>
		<circle class="st1" cx="11.4" cy="61.6" r="1.8"/>
		<circle class="st1" cx="15.7" cy="61.6" r="1.8"/>
		<circle class="st1" cx="20" cy="61.6" r="1.8"/>
		<circle class="st1" cx="24.4" cy="61.6" r="1.8"/>
		<circle class="st1" cx="28.7" cy="61.6" r="1.8"/>
		<circle class="st1" cx="33" cy="61.6" r="1.8"/>
		<circle class="st1" cx="37.3" cy="61.6" r="1.8"/>
		<circle class="st1" cx="41.7" cy="61.6" r="1.8"/>
		<circle class="st1" cx="46" cy="61.6" r="1.8"/>
		<circle class="st1" cx="50.3" cy="61.6" r="1.8"/>
		<circle class="st1" cx="54.6" cy="61.6" r="1.8"/>
		<circle class="st1" cx="59" cy="61.6" r="1.8"/>
		<circle class="st1" cx="63.3" cy="61.6" r="1.8"/>
		<circle class="st1" cx="67.6" cy="61.6" r="1.8"/>
		<circle class="st1" cx="72" cy="61.6" r="1.8"/>
		<circle class="st1" cx="76.3" cy="61.6" r="1.8"/>
		<circle class="st1" cx="80.6" cy="61.6" r="1.8"/>
		<circle class="st1" cx="84.9" cy="61.6" r="1.8"/>
		<circle class="st1" cx="89.3" cy="61.6" r="1.8"/>
		<circle class="st1" cx="93.6" cy="61.6" r="1.8"/>
		<circle class="st1" cx="97.9" cy="61.6" r="1.8"/>
		<circle class="st1" cx="102.3" cy="61.6" r="1.8"/>
		<circle class="st1" cx="106.6" cy="61.6" r="1.8"/>
		<circle class="st1" cx="110.9" cy="61.6" r="1.8"/>
		<circle class="st1" cx="115.3" cy="61.6" r="1.8"/>
		<circle class="st1" cx="119.6" cy="61.6" r="1.8"/>
		<text transform="matrix(1 0 0 1 4.9008 62.6842)" class="st1 st2 st3">00</text>
		<text transform="matrix(1 0 0 1 122.7 62.6842)" class="st1 st2 st3">00</text>
	</g>
	<g>
		<circle class="st1" cx="11.4" cy="55.8" r="1.8"/>
		<circle class="st1" cx="15.7" cy="55.8" r="1.8"/>
		<circle class="st1" cx="20" cy="55.8" r="1.8"/>
		<circle class="st1" cx="24.4" cy="55.8" r="1.8"/>
		<circle class="st1" cx="28.7" cy="55.8" r="1.8"/>
		<circle class="st1" cx="33" cy="55.8" r="1.8"/>
		<circle class="st1" cx="37.3" cy="55.8" r="1.8"/>
		<circle class="st1" cx="41.7" cy="55.8" r="1.8"/>
		<circle class="st1" cx="46" cy="55.8" r="1.8"/>
		<circle class="st1" cx="50.3" cy="55.8" r="1.8"/>
		<circle class="st1" cx="54.6" cy="55.8" r="1.8"/>
		<circle class="st1" cx="59" cy="55.8" r="1.8"/>
		<circle class="st1" cx="63.3" cy="55.8" r="1.8"/>
		<circle class="st1" cx="67.6" cy="55.8" r="1.8"/>
		<circle class="st1" cx="72" cy="55.8" r="1.8"/>
		<circle class="st1" cx="76.3" cy="55.8" r="1.8"/>
		<circle class="st1" cx="80.6" cy="55.8" r="1.8"/>
		<circle class="st1" cx="84.9" cy="55.8" r="1.8"/>
		<circle class="st1" cx="89.3" cy="55.8" r="1.8"/>
		<circle class="st1" cx="93.6" cy="55.8" r="1.8"/>
		<circle class="st1" cx="97.9" cy="55.8" r="1.8"/>
		<circle class="st1" cx="102.3" cy="55.8" r="1.8"/>
		<circle class="st1" cx="106.6" cy="55.8" r="1.8"/>
		<circle class="st1" cx="110.9" cy="55.8" r="1.8"/>
		<circle class="st1" cx="115.3" cy="55.8" r="1.8"/>
		<circle class="st1" cx="119.6" cy="55.8" r="1.8"/>
		<text transform="matrix(1 0 0 1 4.9008 56.8473)" class="st1 st2 st3">00</text>
		<text transform="matrix(1 0 0 1 122.7 56.8473)" class="st1 st2 st3">00</text>
	</g>
	<g>
		<circle class="st1" cx="11.4" cy="50" r="1.8"/>
		<circle class="st1" cx="15.7" cy="50" r="1.8"/>
		<circle class="st1" cx="20" cy="50" r="1.8"/>
		<circle class="st1" cx="24.4" cy="50" r="1.8"/>
		<circle class="st1" cx="28.7" cy="50" r="1.8"/>
		<circle class="st1" cx="33" cy="50" r="1.8"/>
		<circle class="st1" cx="37.3" cy="50" r="1.8"/>
		<circle class="st1" cx="41.7" cy="50" r="1.8"/>
		<circle class="st1" cx="46" cy="50" r="1.8"/>
		<circle class="st1" cx="50.3" cy="50" r="1.8"/>
		<circle class="st1" cx="54.6" cy="50" r="1.8"/>
		<circle class="st1" cx="59" cy="50" r="1.8"/>
		<circle class="st1" cx="63.3" cy="50" r="1.8"/>
		<circle class="st1" cx="67.6" cy="50" r="1.8"/>
		<circle class="st1" cx="72" cy="50" r="1.8"/>
		<circle class="st1" cx="76.3" cy="50" r="1.8"/>
		<circle class="st1" cx="80.6" cy="50" r="1.8"/>
		<circle class="st1" cx="84.9" cy="50" r="1.8"/>
		<circle class="st1" cx="89.3" cy="50" r="1.8"/>
		<circle class="st1" cx="93.6" cy="50" r="1.8"/>
		<circle class="st1" cx="97.9" cy="50" r="1.8"/>
		<circle class="st1" cx="102.3" cy="50" r="1.8"/>
		<circle class="st1" cx="106.6" cy="50" r="1.8"/>
		<circle class="st1" cx="110.9" cy="50" r="1.8"/>
		<circle class="st1" cx="115.3" cy="50" r="1.8"/>
		<circle class="st1" cx="119.6" cy="50" r="1.8"/>
		<text transform="matrix(1 0 0 1 4.9008 51.0104)" class="st1 st2 st3">00</text>
		<text transform="matrix(1 0 0 1 122.7 51.0104)" class="st1 st2 st3">00</text>
	</g>
	<g>
		<circle class="st1" cx="11.4" cy="44.1" r="1.8"/>
		<circle class="st1" cx="15.7" cy="44.1" r="1.8"/>
		<circle class="st1" cx="20" cy="44.1" r="1.8"/>
		<circle class="st1" cx="24.4" cy="44.1" r="1.8"/>
		<circle class="st1" cx="28.7" cy="44.1" r="1.8"/>
		<circle class="st1" cx="33" cy="44.1" r="1.8"/>
		<circle class="st1" cx="37.3" cy="44.1" r="1.8"/>
		<circle class="st1" cx="41.7" cy="44.1" r="1.8"/>
		<circle class="st1" cx="46" cy="44.1" r="1.8"/>
		<circle class="st1" cx="50.3" cy="44.1" r="1.8"/>
		<circle class="st1" cx="54.6" cy="44.1" r="1.8"/>
		<circle class="st1" cx="59" cy="44.1" r="1.8"/>
		<circle class="st1" cx="63.3" cy="44.1" r="1.8"/>
		<circle class="st1" cx="67.6" cy="44.1" r="1.8"/>
		<circle class="st1" cx="72" cy="44.1" r="1.8"/>
		<circle class="st1" cx="76.3" cy="44.1" r="1.8"/>
		<circle class="st1" cx="80.6" cy="44.1" r="1.8"/>
		<circle class="st1" cx="84.9" cy="44.1" r="1.8"/>
		<circle class="st1" cx="89.3" cy="44.1" r="1.8"/>
		<circle class="st1" cx="93.6" cy="44.1" r="1.8"/>
		<circle class="st1" cx="97.9" cy="44.1" r="1.8"/>
		<circle class="st1" cx="102.3" cy="44.1" r="1.8"/>
		<circle class="st1" cx="106.6" cy="44.1" r="1.8"/>
		<circle class="st1" cx="110.9" cy="44.1" r="1.8"/>
		<circle class="st1" cx="115.3" cy="44.1" r="1.8"/>
		<circle class="st1" cx="119.6" cy="44.1" r="1.8"/>
		<text transform="matrix(1 0 0 1 4.9008 45.1733)" class="st1 st2 st3">00</text>
		<text transform="matrix(1 0 0 1 122.7 45.1733)" class="st1 st2 st3">00</text>
	</g>
	<g>
		<circle class="st1" cx="11.4" cy="38.3" r="1.8"/>
		<circle class="st1" cx="15.7" cy="38.3" r="1.8"/>
		<circle class="st1" cx="20" cy="38.3" r="1.8"/>
		<circle class="st1" cx="24.4" cy="38.3" r="1.8"/>
		<circle class="st1" cx="28.7" cy="38.3" r="1.8"/>
		<circle class="st1" cx="33" cy="38.3" r="1.8"/>
		<circle class="st1" cx="37.3" cy="38.3" r="1.8"/>
		<circle class="st1" cx="41.7" cy="38.3" r="1.8"/>
		<circle class="st1" cx="46" cy="38.3" r="1.8"/>
		<circle class="st1" cx="50.3" cy="38.3" r="1.8"/>
		<circle class="st1" cx="54.6" cy="38.3" r="1.8"/>
		<circle class="st1" cx="59" cy="38.3" r="1.8"/>
		<circle class="st1" cx="63.3" cy="38.3" r="1.8"/>
		<circle class="st1" cx="67.6" cy="38.3" r="1.8"/>
		<circle class="st1" cx="72" cy="38.3" r="1.8"/>
		<circle class="st1" cx="76.3" cy="38.3" r="1.8"/>
		<circle class="st1" cx="80.6" cy="38.3" r="1.8"/>
		<circle class="st1" cx="84.9" cy="38.3" r="1.8"/>
		<circle class="st1" cx="89.3" cy="38.3" r="1.8"/>
		<circle class="st1" cx="93.6" cy="38.3" r="1.8"/>
		<circle class="st1" cx="97.9" cy="38.3" r="1.8"/>
		<circle class="st1" cx="102.3" cy="38.3" r="1.8"/>
		<circle class="st1" cx="106.6" cy="38.3" r="1.8"/>
		<circle class="st1" cx="110.9" cy="38.3" r="1.8"/>
		<circle class="st1" cx="115.3" cy="38.3" r="1.8"/>
		<circle class="st1" cx="119.6" cy="38.3" r="1.8"/>
		<text transform="matrix(1 0 0 1 4.9008 39.3362)" class="st1 st2 st3">00</text>
		<text transform="matrix(1 0 0 1 122.7 39.3362)" class="st1 st2 st3">00</text>
	</g>
	<g>
		<circle class="st1" cx="11.4" cy="32.4" r="1.8"/>
		<circle class="st1" cx="15.7" cy="32.4" r="1.8"/>
		<circle class="st1" cx="20" cy="32.4" r="1.8"/>
		<circle class="st1" cx="24.4" cy="32.4" r="1.8"/>
		<circle class="st1" cx="28.7" cy="32.4" r="1.8"/>
		<circle class="st1" cx="33" cy="32.4" r="1.8"/>
		<circle class="st1" cx="37.3" cy="32.4" r="1.8"/>
		<circle class="st1" cx="41.7" cy="32.4" r="1.8"/>
		<circle class="st1" cx="46" cy="32.4" r="1.8"/>
		<circle class="st1" cx="50.3" cy="32.4" r="1.8"/>
		<circle class="st1" cx="54.6" cy="32.4" r="1.8"/>
		<circle class="st1" cx="59" cy="32.4" r="1.8"/>
		<circle class="st1" cx="63.3" cy="32.4" r="1.8"/>
		<circle class="st1" cx="67.6" cy="32.4" r="1.8"/>
		<circle class="st1" cx="72" cy="32.4" r="1.8"/>
		<circle class="st1" cx="76.3" cy="32.4" r="1.8"/>
		<circle class="st1" cx="80.6" cy="32.4" r="1.8"/>
		<circle class="st1" cx="84.9" cy="32.4" r="1.8"/>
		<circle class="st1" cx="89.3" cy="32.4" r="1.8"/>
		<circle class="st1" cx="93.6" cy="32.4" r="1.8"/>
		<circle class="st1" cx="97.9" cy="32.4" r="1.8"/>
		<circle class="st1" cx="102.3" cy="32.4" r="1.8"/>
		<circle class="st1" cx="106.6" cy="32.4" r="1.8"/>
		<circle class="st1" cx="110.9" cy="32.4" r="1.8"/>
		<circle class="st1" cx="115.3" cy="32.4" r="1.8"/>
		<circle class="st1" cx="119.6" cy="32.4" r="1.8"/>
		<text transform="matrix(1 0 0 1 4.9008 33.499)" class="st1 st2 st3">00</text>
		<text transform="matrix(1 0 0 1 122.7 33.499)" class="st1 st2 st3">00</text>
	</g>
	<g>
		<circle class="st1" cx="11.4" cy="26.6" r="1.9"/>
		<circle class="st1" cx="15.7" cy="26.6" r="1.9"/>
		<circle class="st1" cx="20" cy="26.6" r="1.9"/>
		<circle class="st1" cx="24.4" cy="26.6" r="1.9"/>
		<circle class="st1" cx="28.7" cy="26.6" r="1.9"/>
		<circle class="st1" cx="33" cy="26.6" r="1.8"/>
		<circle class="st1" cx="37.3" cy="26.6" r="1.8"/>
		<circle class="st1" cx="41.7" cy="26.6" r="1.8"/>
		<circle class="st1" cx="46" cy="26.6" r="1.8"/>
		<circle class="st1" cx="50.3" cy="26.6" r="1.8"/>
		<circle class="st1" cx="54.6" cy="26.6" r="1.8"/>
		<circle class="st1" cx="59" cy="26.6" r="1.8"/>
		<circle class="st1" cx="63.3" cy="26.6" r="1.8"/>
		<circle class="st1" cx="67.6" cy="26.6" r="1.8"/>
		<circle class="st1" cx="72" cy="26.6" r="1.8"/>
		<circle class="st1" cx="76.3" cy="26.6" r="1.8"/>
		<circle class="st1" cx="80.6" cy="26.6" r="1.8"/>
		<circle class="st1" cx="84.9" cy="26.6" r="1.8"/>
		<circle class="st1" cx="89.3" cy="26.6" r="1.8"/>
		<circle class="st1" cx="93.6" cy="26.6" r="1.8"/>
		<circle class="st1" cx="97.9" cy="26.6" r="1.8"/>
		<circle class="st1" cx="102.3" cy="26.6" r="1.8"/>
		<circle class="st1" cx="106.6" cy="26.6" r="1.8"/>
		<circle class="st1" cx="110.9" cy="26.6" r="1.8"/>
		<circle class="st1" cx="115.3" cy="26.6" r="1.8"/>
		<circle class="st1" cx="119.6" cy="26.6" r="1.8"/>
		<text transform="matrix(1 0 0 1 4.9008 27.6246)" class="st1 st2 st3">00</text>
		<text transform="matrix(1 0 0 1 122.7 27.6246)" class="st1 st2 st3">00</text>
	</g>
	<g>
		<circle class="st1" cx="37.4" cy="20.6" r="1.8"/>
		<circle class="st1" cx="41.7" cy="20.6" r="1.8"/>
		<circle class="st1" cx="46" cy="20.6" r="1.8"/>
		<circle class="st1" cx="50.3" cy="20.6" r="1.8"/>
		<circle class="st1" cx="54.7" cy="20.6" r="1.8"/>
		<circle class="st1" cx="59" cy="20.6" r="1.8"/>
		<circle class="st1" cx="63.3" cy="20.6" r="1.9"/>
		<circle class="st1" cx="67.6" cy="20.6" r="1.8"/>
		<circle class="st1" cx="72" cy="20.6" r="1.8"/>
		<circle class="st1" cx="76.3" cy="20.6" r="1.8"/>
		<circle class="st1" cx="80.6" cy="20.6" r="1.8"/>
		<circle class="st1" cx="84.9" cy="20.6" r="1.8"/>
		<circle class="st1" cx="89.3" cy="20.6" r="1.8"/>
		<circle class="st1" cx="93.6" cy="20.6" r="1.8"/>
		<circle class="st1" cx="97.9" cy="20.6" r="1.8"/>
		<circle class="st1" cx="102.3" cy="20.6" r="1.8"/>
		<circle class="st1" cx="106.6" cy="20.6" r="1.8"/>
		<circle class="st1" cx="110.9" cy="20.6" r="1.8"/>
		<circle class="st1" cx="115.3" cy="20.6" r="1.8"/>
		<circle class="st1" cx="119.6" cy="20.6" r="1.8"/>
		<text transform="matrix(1 0 0 1 30.9008 21.6501)" class="st1 st2 st3">00</text>
		<text transform="matrix(1 0 0 1 122.7 21.6501)" class="st1 st2 st3">00</text>
	</g>
</g>
</svg>
