<?xml version="1.0" encoding="utf-8"?>
<!-- Generator: Adobe Illustrator 23.0.1, SVG Export Plug-In . SVG Version: 6.00 Build 0)  -->
<svg version="1.1" id="Layer_1" xmlns="http://www.w3.org/2000/svg" xmlns:xlink="http://www.w3.org/1999/xlink" x="0px" y="0px"
	 viewBox="0 0 131 206" style="enable-background:new 0 0 131 206;" xml:space="preserve">
<style type="text/css">
	.st0{fill:#F1F3F4;stroke:#BCC8CE;stroke-width:0.4;stroke-linecap:round;stroke-miterlimit:10;}
	.st1{fill:#AEBDC4;}
	.st2{font-family:'Roboto-Medium';}
	.st3{font-size:3px;}
</style>
<polygon class="st0" points="0.5,205.7 0.5,26.7 130.5,0.3 130.5,205.7 "/>
<g>
	<g>
		<circle class="st1" cx="35" cy="196.7" r="1.9"/>
		<circle class="st1" cx="39.3" cy="196.7" r="1.9"/>
		<circle class="st1" cx="43.6" cy="196.7" r="1.9"/>
		<circle class="st1" cx="48" cy="196.7" r="1.9"/>
		<circle class="st1" cx="52.3" cy="196.7" r="1.9"/>
		<circle class="st1" cx="56.6" cy="196.7" r="1.9"/>
		<circle class="st1" cx="60.9" cy="196.7" r="1.9"/>
		<circle class="st1" cx="65.2" cy="196.7" r="1.9"/>
		<circle class="st1" cx="69.6" cy="196.7" r="1.9"/>
		<circle class="st1" cx="73.9" cy="196.7" r="1.9"/>
		<circle class="st1" cx="78.2" cy="196.7" r="1.9"/>
		<circle class="st1" cx="82.6" cy="196.7" r="1.9"/>
		<circle class="st1" cx="86.9" cy="196.7" r="1.9"/>
		<circle class="st1" cx="91.2" cy="196.7" r="1.9"/>
		<circle class="st1" cx="95.5" cy="196.7" r="1.9"/>
		<circle class="st1" cx="99.9" cy="196.7" r="1.9"/>
		<circle class="st1" cx="104.2" cy="196.7" r="1.9"/>
		<circle class="st1" cx="108.5" cy="196.7" r="1.9"/>
		<circle class="st1" cx="112.9" cy="196.7" r="1.9"/>
		<circle class="st1" cx="117.2" cy="196.7" r="1.9"/>
		<text transform="matrix(1 0 0 1 120.3009 197.7406)" class="st1 st2 st3">00</text>
		<text transform="matrix(1 0 0 1 28.491 197.7406)" class="st1 st2 st3">00</text>
	</g>
	<g>
		<circle class="st1" cx="35" cy="190.8" r="1.9"/>
		<circle class="st1" cx="39.3" cy="190.8" r="1.9"/>
		<circle class="st1" cx="43.6" cy="190.8" r="1.9"/>
		<circle class="st1" cx="48" cy="190.8" r="1.9"/>
		<circle class="st1" cx="52.3" cy="190.8" r="1.9"/>
		<circle class="st1" cx="56.6" cy="190.8" r="1.9"/>
		<circle class="st1" cx="60.9" cy="190.8" r="1.9"/>
		<circle class="st1" cx="65.2" cy="190.8" r="1.9"/>
		<circle class="st1" cx="69.6" cy="190.8" r="1.9"/>
		<circle class="st1" cx="73.9" cy="190.8" r="1.9"/>
		<circle class="st1" cx="78.2" cy="190.8" r="1.9"/>
		<circle class="st1" cx="82.6" cy="190.8" r="1.9"/>
		<circle class="st1" cx="86.9" cy="190.8" r="1.9"/>
		<circle class="st1" cx="91.2" cy="190.8" r="1.9"/>
		<circle class="st1" cx="95.5" cy="190.8" r="1.9"/>
		<circle class="st1" cx="99.9" cy="190.8" r="1.9"/>
		<circle class="st1" cx="104.2" cy="190.8" r="1.9"/>
		<circle class="st1" cx="108.5" cy="190.8" r="1.9"/>
		<circle class="st1" cx="112.9" cy="190.8" r="1.9"/>
		<circle class="st1" cx="117.2" cy="190.8" r="1.9"/>
		<text transform="matrix(1 0 0 1 120.3009 191.8258)" class="st1 st2 st3">00</text>
		<text transform="matrix(1 0 0 1 28.491 191.8258)" class="st1 st2 st3">00</text>
	</g>
	<g>
		<circle class="st1" cx="9" cy="184.9" r="1.9"/>
		<circle class="st1" cx="13.3" cy="184.9" r="1.9"/>
		<circle class="st1" cx="17.6" cy="184.9" r="1.9"/>
		<circle class="st1" cx="22" cy="184.9" r="1.9"/>
		<circle class="st1" cx="26.3" cy="184.9" r="1.9"/>
		<circle class="st1" cx="30.6" cy="184.9" r="1.9"/>
		<circle class="st1" cx="34.9" cy="184.9" r="1.9"/>
		<circle class="st1" cx="39.2" cy="184.9" r="1.9"/>
		<circle class="st1" cx="43.6" cy="184.9" r="1.9"/>
		<circle class="st1" cx="47.9" cy="184.9" r="1.9"/>
		<circle class="st1" cx="52.2" cy="184.9" r="1.9"/>
		<circle class="st1" cx="56.6" cy="184.9" r="1.9"/>
		<circle class="st1" cx="60.9" cy="184.9" r="1.9"/>
		<circle class="st1" cx="65.2" cy="184.9" r="1.9"/>
		<circle class="st1" cx="69.6" cy="184.9" r="1.9"/>
		<circle class="st1" cx="73.9" cy="184.9" r="1.9"/>
		<circle class="st1" cx="78.2" cy="184.9" r="1.9"/>
		<circle class="st1" cx="82.6" cy="184.9" r="1.9"/>
		<circle class="st1" cx="86.9" cy="184.9" r="1.9"/>
		<circle class="st1" cx="91.2" cy="184.9" r="1.9"/>
		<circle class="st1" cx="95.5" cy="184.9" r="1.9"/>
		<circle class="st1" cx="99.9" cy="184.9" r="1.9"/>
		<circle class="st1" cx="104.2" cy="184.9" r="1.9"/>
		<circle class="st1" cx="108.5" cy="184.9" r="1.9"/>
		<circle class="st1" cx="112.9" cy="184.9" r="1.9"/>
		<circle class="st1" cx="117.2" cy="184.9" r="1.9"/>
		<text transform="matrix(1 0 0 1 120.3009 185.9106)" class="st1 st2 st3">00</text>
		<text transform="matrix(1 0 0 1 2.5109 185.9106)" class="st1 st2 st3">00</text>
	</g>
	<g>
		<circle class="st1" cx="9" cy="178.9" r="1.9"/>
		<circle class="st1" cx="13.3" cy="178.9" r="1.9"/>
		<circle class="st1" cx="17.6" cy="178.9" r="1.9"/>
		<circle class="st1" cx="22" cy="178.9" r="1.9"/>
		<circle class="st1" cx="26.3" cy="178.9" r="1.9"/>
		<circle class="st1" cx="30.6" cy="178.9" r="1.9"/>
		<circle class="st1" cx="34.9" cy="178.9" r="1.9"/>
		<circle class="st1" cx="39.2" cy="178.9" r="1.9"/>
		<circle class="st1" cx="43.6" cy="178.9" r="1.9"/>
		<circle class="st1" cx="47.9" cy="178.9" r="1.9"/>
		<circle class="st1" cx="52.2" cy="178.9" r="1.9"/>
		<circle class="st1" cx="56.6" cy="178.9" r="1.9"/>
		<circle class="st1" cx="60.9" cy="178.9" r="1.9"/>
		<circle class="st1" cx="65.2" cy="178.9" r="1.9"/>
		<circle class="st1" cx="69.6" cy="178.9" r="1.9"/>
		<circle class="st1" cx="73.9" cy="178.9" r="1.9"/>
		<circle class="st1" cx="78.2" cy="178.9" r="1.9"/>
		<circle class="st1" cx="82.6" cy="178.9" r="1.9"/>
		<circle class="st1" cx="86.9" cy="178.9" r="1.9"/>
		<circle class="st1" cx="91.2" cy="178.9" r="1.9"/>
		<circle class="st1" cx="95.5" cy="178.9" r="1.9"/>
		<circle class="st1" cx="99.9" cy="178.9" r="1.9"/>
		<circle class="st1" cx="104.2" cy="178.9" r="1.9"/>
		<circle class="st1" cx="108.5" cy="178.9" r="1.9"/>
		<circle class="st1" cx="112.9" cy="178.9" r="1.9"/>
		<circle class="st1" cx="117.2" cy="178.9" r="1.9"/>
		<text transform="matrix(1 0 0 1 120.3009 179.9861)" class="st1 st2 st3">00</text>
		<text transform="matrix(1 0 0 1 2.5109 179.9861)" class="st1 st2 st3">00</text>
	</g>
	<g>
		<circle class="st1" cx="9" cy="173" r="1.9"/>
		<circle class="st1" cx="13.3" cy="173" r="1.9"/>
		<circle class="st1" cx="17.6" cy="173" r="1.9"/>
		<circle class="st1" cx="22" cy="173" r="1.9"/>
		<circle class="st1" cx="26.3" cy="173" r="1.9"/>
		<circle class="st1" cx="30.6" cy="173" r="1.9"/>
		<circle class="st1" cx="34.9" cy="173" r="1.9"/>
		<circle class="st1" cx="39.2" cy="173" r="1.9"/>
		<circle class="st1" cx="43.6" cy="173" r="1.9"/>
		<circle class="st1" cx="47.9" cy="173" r="1.9"/>
		<circle class="st1" cx="52.2" cy="173" r="1.9"/>
		<circle class="st1" cx="56.6" cy="173" r="1.9"/>
		<circle class="st1" cx="60.9" cy="173" r="1.9"/>
		<circle class="st1" cx="65.2" cy="173" r="1.9"/>
		<circle class="st1" cx="69.6" cy="173" r="1.9"/>
		<circle class="st1" cx="73.9" cy="173" r="1.9"/>
		<circle class="st1" cx="78.2" cy="173" r="1.9"/>
		<circle class="st1" cx="82.6" cy="173" r="1.9"/>
		<circle class="st1" cx="86.9" cy="173" r="1.9"/>
		<circle class="st1" cx="91.2" cy="173" r="1.9"/>
		<circle class="st1" cx="95.5" cy="173" r="1.9"/>
		<circle class="st1" cx="99.9" cy="173" r="1.9"/>
		<circle class="st1" cx="104.2" cy="173" r="1.9"/>
		<circle class="st1" cx="108.5" cy="173" r="1.9"/>
		<circle class="st1" cx="112.9" cy="173" r="1.9"/>
		<circle class="st1" cx="117.2" cy="173" r="1.9"/>
		<text transform="matrix(1 0 0 1 120.3009 174.0613)" class="st1 st2 st3">00</text>
		<text transform="matrix(1 0 0 1 2.5109 174.0613)" class="st1 st2 st3">00</text>
	</g>
	<g>
		<circle class="st1" cx="17.7" cy="167.1" r="1.9"/>
		<circle class="st1" cx="22" cy="167.1" r="1.9"/>
		<circle class="st1" cx="26.3" cy="167.1" r="1.9"/>
		<circle class="st1" cx="30.6" cy="167.1" r="1.9"/>
		<circle class="st1" cx="35" cy="167.1" r="1.9"/>
		<circle class="st1" cx="39.3" cy="167.1" r="1.9"/>
		<circle class="st1" cx="43.6" cy="167.1" r="1.9"/>
		<circle class="st1" cx="47.9" cy="167.1" r="1.9"/>
		<circle class="st1" cx="52.2" cy="167.1" r="1.9"/>
		<circle class="st1" cx="56.6" cy="167.1" r="1.9"/>
		<circle class="st1" cx="60.9" cy="167.1" r="1.9"/>
		<circle class="st1" cx="65.2" cy="167.1" r="1.9"/>
		<circle class="st1" cx="69.6" cy="167.1" r="1.9"/>
		<circle class="st1" cx="73.9" cy="167.1" r="1.9"/>
		<circle class="st1" cx="78.2" cy="167.1" r="1.9"/>
		<circle class="st1" cx="82.6" cy="167.1" r="1.9"/>
		<circle class="st1" cx="86.9" cy="167.1" r="1.9"/>
		<circle class="st1" cx="91.2" cy="167.1" r="1.9"/>
		<circle class="st1" cx="95.5" cy="167.1" r="1.9"/>
		<circle class="st1" cx="99.9" cy="167.1" r="1.9"/>
		<circle class="st1" cx="104.2" cy="167.1" r="1.9"/>
		<circle class="st1" cx="108.5" cy="167.1" r="1.9"/>
		<text transform="matrix(1 0 0 1 111.6409 168.1371)" class="st1 st2 st3">00</text>
		<text transform="matrix(1 0 0 1 11.1509 168.1371)" class="st1 st2 st3">00</text>
	</g>
	<g>
		<circle class="st1" cx="17.7" cy="161.2" r="1.9"/>
		<circle class="st1" cx="22" cy="161.2" r="1.9"/>
		<circle class="st1" cx="26.3" cy="161.2" r="1.9"/>
		<circle class="st1" cx="30.6" cy="161.2" r="1.9"/>
		<circle class="st1" cx="35" cy="161.2" r="1.9"/>
		<circle class="st1" cx="39.3" cy="161.2" r="1.9"/>
		<circle class="st1" cx="43.6" cy="161.2" r="1.9"/>
		<circle class="st1" cx="47.9" cy="161.2" r="1.9"/>
		<circle class="st1" cx="52.2" cy="161.2" r="1.9"/>
		<circle class="st1" cx="56.6" cy="161.2" r="1.9"/>
		<circle class="st1" cx="60.9" cy="161.2" r="1.9"/>
		<circle class="st1" cx="65.2" cy="161.2" r="1.9"/>
		<circle class="st1" cx="69.6" cy="161.2" r="1.9"/>
		<circle class="st1" cx="73.9" cy="161.2" r="1.9"/>
		<circle class="st1" cx="78.2" cy="161.2" r="1.9"/>
		<circle class="st1" cx="82.6" cy="161.2" r="1.9"/>
		<circle class="st1" cx="86.9" cy="161.2" r="1.9"/>
		<circle class="st1" cx="91.2" cy="161.2" r="1.9"/>
		<circle class="st1" cx="95.5" cy="161.2" r="1.9"/>
		<circle class="st1" cx="99.9" cy="161.2" r="1.9"/>
		<circle class="st1" cx="104.2" cy="161.2" r="1.9"/>
		<circle class="st1" cx="108.5" cy="161.2" r="1.9"/>
		<text transform="matrix(1 0 0 1 111.6409 162.2126)" class="st1 st2 st3">00</text>
		<text transform="matrix(1 0 0 1 11.1509 162.2126)" class="st1 st2 st3">00</text>
	</g>
	<g>
		<circle class="st1" cx="17.7" cy="155.2" r="1.9"/>
		<circle class="st1" cx="22" cy="155.2" r="1.9"/>
		<circle class="st1" cx="26.3" cy="155.2" r="1.9"/>
		<circle class="st1" cx="30.6" cy="155.2" r="1.9"/>
		<circle class="st1" cx="35" cy="155.2" r="1.9"/>
		<circle class="st1" cx="39.3" cy="155.2" r="1.9"/>
		<circle class="st1" cx="43.6" cy="155.2" r="1.9"/>
		<circle class="st1" cx="47.9" cy="155.2" r="1.9"/>
		<circle class="st1" cx="52.2" cy="155.2" r="1.9"/>
		<circle class="st1" cx="56.6" cy="155.2" r="1.9"/>
		<circle class="st1" cx="60.9" cy="155.2" r="1.9"/>
		<circle class="st1" cx="65.2" cy="155.2" r="1.9"/>
		<circle class="st1" cx="69.6" cy="155.2" r="1.9"/>
		<circle class="st1" cx="73.9" cy="155.2" r="1.9"/>
		<circle class="st1" cx="78.2" cy="155.2" r="1.9"/>
		<circle class="st1" cx="82.6" cy="155.2" r="1.9"/>
		<circle class="st1" cx="86.9" cy="155.2" r="1.9"/>
		<circle class="st1" cx="91.2" cy="155.2" r="1.9"/>
		<circle class="st1" cx="95.5" cy="155.2" r="1.9"/>
		<circle class="st1" cx="99.9" cy="155.2" r="1.9"/>
		<circle class="st1" cx="104.2" cy="155.2" r="1.9"/>
		<circle class="st1" cx="108.5" cy="155.2" r="1.9"/>
		<text transform="matrix(1 0 0 1 111.6409 156.288)" class="st1 st2 st3">00</text>
		<text transform="matrix(1 0 0 1 11.1509 156.288)" class="st1 st2 st3">00</text>
	</g>
	<g>
		<circle class="st1" cx="17.7" cy="149.3" r="1.9"/>
		<circle class="st1" cx="22" cy="149.3" r="1.9"/>
		<circle class="st1" cx="26.3" cy="149.3" r="1.9"/>
		<circle class="st1" cx="30.6" cy="149.3" r="1.9"/>
		<circle class="st1" cx="35" cy="149.3" r="1.9"/>
		<circle class="st1" cx="39.3" cy="149.3" r="1.9"/>
		<circle class="st1" cx="43.6" cy="149.3" r="1.9"/>
		<circle class="st1" cx="47.9" cy="149.3" r="1.9"/>
		<circle class="st1" cx="52.2" cy="149.3" r="1.9"/>
		<circle class="st1" cx="56.6" cy="149.3" r="1.9"/>
		<circle class="st1" cx="60.9" cy="149.3" r="1.9"/>
		<circle class="st1" cx="65.2" cy="149.3" r="1.9"/>
		<circle class="st1" cx="69.6" cy="149.3" r="1.9"/>
		<circle class="st1" cx="73.9" cy="149.3" r="1.9"/>
		<circle class="st1" cx="78.2" cy="149.3" r="1.9"/>
		<circle class="st1" cx="82.6" cy="149.3" r="1.9"/>
		<circle class="st1" cx="86.9" cy="149.3" r="1.9"/>
		<circle class="st1" cx="91.2" cy="149.3" r="1.9"/>
		<circle class="st1" cx="95.5" cy="149.3" r="1.9"/>
		<circle class="st1" cx="99.9" cy="149.3" r="1.9"/>
		<circle class="st1" cx="104.2" cy="149.3" r="1.9"/>
		<circle class="st1" cx="108.5" cy="149.3" r="1.9"/>
		<text transform="matrix(1 0 0 1 111.6409 150.3638)" class="st1 st2 st3">00</text>
		<text transform="matrix(1 0 0 1 11.1509 150.3638)" class="st1 st2 st3">00</text>
	</g>
	<g>
		<circle class="st1" cx="17.7" cy="143.4" r="1.9"/>
		<circle class="st1" cx="22" cy="143.4" r="1.9"/>
		<circle class="st1" cx="26.3" cy="143.4" r="1.9"/>
		<circle class="st1" cx="30.6" cy="143.4" r="1.9"/>
		<circle class="st1" cx="35" cy="143.4" r="1.9"/>
		<circle class="st1" cx="39.3" cy="143.4" r="1.9"/>
		<circle class="st1" cx="43.6" cy="143.4" r="1.9"/>
		<circle class="st1" cx="47.9" cy="143.4" r="1.9"/>
		<circle class="st1" cx="52.2" cy="143.4" r="1.9"/>
		<circle class="st1" cx="56.6" cy="143.4" r="1.9"/>
		<circle class="st1" cx="60.9" cy="143.4" r="1.9"/>
		<circle class="st1" cx="65.2" cy="143.4" r="1.9"/>
		<circle class="st1" cx="69.6" cy="143.4" r="1.9"/>
		<circle class="st1" cx="73.9" cy="143.4" r="1.9"/>
		<circle class="st1" cx="78.2" cy="143.4" r="1.9"/>
		<circle class="st1" cx="82.6" cy="143.4" r="1.9"/>
		<circle class="st1" cx="86.9" cy="143.4" r="1.9"/>
		<circle class="st1" cx="91.2" cy="143.4" r="1.9"/>
		<circle class="st1" cx="95.5" cy="143.4" r="1.9"/>
		<circle class="st1" cx="99.9" cy="143.4" r="1.9"/>
		<circle class="st1" cx="104.2" cy="143.4" r="1.9"/>
		<circle class="st1" cx="108.5" cy="143.4" r="1.9"/>
		<text transform="matrix(1 0 0 1 111.6409 144.4395)" class="st1 st2 st3">00</text>
		<text transform="matrix(1 0 0 1 11.1509 144.4395)" class="st1 st2 st3">00</text>
	</g>
	<g>
		<circle class="st1" cx="9" cy="137.5" r="1.9"/>
		<circle class="st1" cx="13.3" cy="137.5" r="1.9"/>
		<circle class="st1" cx="17.6" cy="137.5" r="1.9"/>
		<circle class="st1" cx="22" cy="137.5" r="1.9"/>
		<circle class="st1" cx="26.3" cy="137.5" r="1.9"/>
		<circle class="st1" cx="30.6" cy="137.5" r="1.9"/>
		<circle class="st1" cx="34.9" cy="137.5" r="1.9"/>
		<circle class="st1" cx="39.2" cy="137.5" r="1.9"/>
		<circle class="st1" cx="43.6" cy="137.5" r="1.9"/>
		<circle class="st1" cx="47.9" cy="137.5" r="1.9"/>
		<circle class="st1" cx="52.2" cy="137.5" r="1.9"/>
		<circle class="st1" cx="56.6" cy="137.5" r="1.9"/>
		<circle class="st1" cx="60.9" cy="137.5" r="1.9"/>
		<circle class="st1" cx="65.2" cy="137.5" r="1.9"/>
		<circle class="st1" cx="69.6" cy="137.5" r="1.9"/>
		<circle class="st1" cx="73.9" cy="137.5" r="1.9"/>
		<circle class="st1" cx="78.2" cy="137.5" r="1.9"/>
		<circle class="st1" cx="82.6" cy="137.5" r="1.9"/>
		<circle class="st1" cx="86.9" cy="137.5" r="1.9"/>
		<circle class="st1" cx="91.2" cy="137.5" r="1.9"/>
		<circle class="st1" cx="95.5" cy="137.5" r="1.9"/>
		<circle class="st1" cx="99.9" cy="137.5" r="1.9"/>
		<circle class="st1" cx="104.2" cy="137.5" r="1.9"/>
		<circle class="st1" cx="108.5" cy="137.5" r="1.9"/>
		<circle class="st1" cx="112.9" cy="137.5" r="1.9"/>
		<circle class="st1" cx="117.2" cy="137.5" r="1.9"/>
		<text transform="matrix(1 0 0 1 120.3009 138.5146)" class="st1 st2 st3">00</text>
		<text transform="matrix(1 0 0 1 2.5109 138.5146)" class="st1 st2 st3">00</text>
	</g>
	<g>
		<circle class="st1" cx="9" cy="131.5" r="1.9"/>
		<circle class="st1" cx="13.3" cy="131.5" r="1.9"/>
		<circle class="st1" cx="17.6" cy="131.5" r="1.9"/>
		<circle class="st1" cx="22" cy="131.5" r="1.9"/>
		<circle class="st1" cx="26.3" cy="131.5" r="1.9"/>
		<circle class="st1" cx="30.6" cy="131.5" r="1.9"/>
		<circle class="st1" cx="34.9" cy="131.5" r="1.9"/>
		<circle class="st1" cx="39.2" cy="131.5" r="1.9"/>
		<circle class="st1" cx="43.6" cy="131.5" r="1.9"/>
		<circle class="st1" cx="47.9" cy="131.5" r="1.9"/>
		<circle class="st1" cx="52.2" cy="131.5" r="1.9"/>
		<circle class="st1" cx="56.6" cy="131.5" r="1.9"/>
		<circle class="st1" cx="60.9" cy="131.5" r="1.9"/>
		<circle class="st1" cx="65.2" cy="131.5" r="1.9"/>
		<circle class="st1" cx="69.6" cy="131.5" r="1.9"/>
		<circle class="st1" cx="73.9" cy="131.5" r="1.9"/>
		<circle class="st1" cx="78.2" cy="131.5" r="1.9"/>
		<circle class="st1" cx="82.6" cy="131.5" r="1.9"/>
		<circle class="st1" cx="86.9" cy="131.5" r="1.9"/>
		<circle class="st1" cx="91.2" cy="131.5" r="1.9"/>
		<circle class="st1" cx="95.5" cy="131.5" r="1.9"/>
		<circle class="st1" cx="99.9" cy="131.5" r="1.9"/>
		<circle class="st1" cx="104.2" cy="131.5" r="1.9"/>
		<circle class="st1" cx="108.5" cy="131.5" r="1.9"/>
		<circle class="st1" cx="112.9" cy="131.5" r="1.9"/>
		<circle class="st1" cx="117.2" cy="131.5" r="1.9"/>
		<text transform="matrix(1 0 0 1 120.3009 132.5906)" class="st1 st2 st3">00</text>
		<text transform="matrix(1 0 0 1 2.5109 132.5906)" class="st1 st2 st3">00</text>
	</g>
	<g>
		<circle class="st1" cx="9" cy="125.6" r="1.8"/>
		<circle class="st1" cx="13.3" cy="125.6" r="1.8"/>
		<circle class="st1" cx="17.6" cy="125.6" r="1.8"/>
		<circle class="st1" cx="22" cy="125.6" r="1.8"/>
		<circle class="st1" cx="26.3" cy="125.6" r="1.8"/>
		<circle class="st1" cx="30.6" cy="125.6" r="1.8"/>
		<circle class="st1" cx="34.9" cy="125.6" r="1.8"/>
		<circle class="st1" cx="39.2" cy="125.6" r="1.8"/>
		<circle class="st1" cx="43.6" cy="125.6" r="1.8"/>
		<circle class="st1" cx="47.9" cy="125.6" r="1.8"/>
		<circle class="st1" cx="52.2" cy="125.6" r="1.8"/>
		<circle class="st1" cx="56.6" cy="125.6" r="1.8"/>
		<circle class="st1" cx="60.9" cy="125.6" r="1.8"/>
		<circle class="st1" cx="65.2" cy="125.6" r="1.8"/>
		<circle class="st1" cx="69.6" cy="125.6" r="1.8"/>
		<circle class="st1" cx="73.9" cy="125.6" r="1.8"/>
		<circle class="st1" cx="78.2" cy="125.6" r="1.8"/>
		<circle class="st1" cx="82.6" cy="125.6" r="1.8"/>
		<circle class="st1" cx="86.9" cy="125.6" r="1.8"/>
		<circle class="st1" cx="91.2" cy="125.6" r="1.8"/>
		<circle class="st1" cx="95.5" cy="125.6" r="1.8"/>
		<circle class="st1" cx="99.9" cy="125.6" r="1.8"/>
		<circle class="st1" cx="104.2" cy="125.6" r="1.8"/>
		<circle class="st1" cx="108.5" cy="125.6" r="1.8"/>
		<circle class="st1" cx="112.9" cy="125.6" r="1.8"/>
		<circle class="st1" cx="117.2" cy="125.6" r="1.8"/>
		<text transform="matrix(1 0 0 1 120.3009 126.6663)" class="st1 st2 st3">00</text>
		<text transform="matrix(1 0 0 1 2.5109 126.6663)" class="st1 st2 st3">00</text>
	</g>
	<g>
		<circle class="st1" cx="9" cy="119.7" r="1.8"/>
		<circle class="st1" cx="13.3" cy="119.7" r="1.8"/>
		<circle class="st1" cx="17.6" cy="119.7" r="1.8"/>
		<circle class="st1" cx="22" cy="119.7" r="1.8"/>
		<circle class="st1" cx="26.3" cy="119.7" r="1.8"/>
		<circle class="st1" cx="30.6" cy="119.7" r="1.8"/>
		<circle class="st1" cx="34.9" cy="119.7" r="1.8"/>
		<circle class="st1" cx="39.2" cy="119.7" r="1.8"/>
		<circle class="st1" cx="43.6" cy="119.7" r="1.8"/>
		<circle class="st1" cx="47.9" cy="119.7" r="1.8"/>
		<circle class="st1" cx="52.2" cy="119.7" r="1.8"/>
		<circle class="st1" cx="56.6" cy="119.7" r="1.8"/>
		<circle class="st1" cx="60.9" cy="119.7" r="1.8"/>
		<circle class="st1" cx="65.2" cy="119.7" r="1.8"/>
		<circle class="st1" cx="69.6" cy="119.7" r="1.8"/>
		<circle class="st1" cx="73.9" cy="119.7" r="1.8"/>
		<circle class="st1" cx="78.2" cy="119.7" r="1.8"/>
		<circle class="st1" cx="82.6" cy="119.7" r="1.8"/>
		<circle class="st1" cx="86.9" cy="119.7" r="1.8"/>
		<circle class="st1" cx="91.2" cy="119.7" r="1.8"/>
		<circle class="st1" cx="95.5" cy="119.7" r="1.8"/>
		<circle class="st1" cx="99.9" cy="119.7" r="1.8"/>
		<circle class="st1" cx="104.2" cy="119.7" r="1.8"/>
		<circle class="st1" cx="108.5" cy="119.7" r="1.8"/>
		<circle class="st1" cx="112.9" cy="119.7" r="1.8"/>
		<circle class="st1" cx="117.2" cy="119.7" r="1.8"/>
		<text transform="matrix(1 0 0 1 120.3009 120.7416)" class="st1 st2 st3">00</text>
		<text transform="matrix(1 0 0 1 2.5109 120.7416)" class="st1 st2 st3">00</text>
	</g>
	<g>
		<circle class="st1" cx="9" cy="113.7" r="1.8"/>
		<circle class="st1" cx="13.3" cy="113.7" r="1.8"/>
		<circle class="st1" cx="17.6" cy="113.7" r="1.8"/>
		<circle class="st1" cx="22" cy="113.7" r="1.8"/>
		<circle class="st1" cx="26.3" cy="113.7" r="1.8"/>
		<circle class="st1" cx="30.6" cy="113.7" r="1.8"/>
		<circle class="st1" cx="34.9" cy="113.7" r="1.8"/>
		<circle class="st1" cx="39.2" cy="113.7" r="1.8"/>
		<circle class="st1" cx="43.6" cy="113.7" r="1.8"/>
		<circle class="st1" cx="47.9" cy="113.7" r="1.8"/>
		<circle class="st1" cx="52.2" cy="113.7" r="1.8"/>
		<circle class="st1" cx="56.6" cy="113.7" r="1.8"/>
		<circle class="st1" cx="60.9" cy="113.7" r="1.8"/>
		<circle class="st1" cx="65.2" cy="113.7" r="1.8"/>
		<circle class="st1" cx="69.6" cy="113.7" r="1.8"/>
		<circle class="st1" cx="73.9" cy="113.7" r="1.8"/>
		<circle class="st1" cx="78.2" cy="113.7" r="1.8"/>
		<circle class="st1" cx="82.6" cy="113.7" r="1.8"/>
		<circle class="st1" cx="86.9" cy="113.7" r="1.8"/>
		<circle class="st1" cx="91.2" cy="113.7" r="1.8"/>
		<circle class="st1" cx="95.5" cy="113.7" r="1.8"/>
		<circle class="st1" cx="99.9" cy="113.7" r="1.8"/>
		<circle class="st1" cx="104.2" cy="113.7" r="1.8"/>
		<circle class="st1" cx="108.5" cy="113.7" r="1.8"/>
		<circle class="st1" cx="112.9" cy="113.7" r="1.8"/>
		<circle class="st1" cx="117.2" cy="113.7" r="1.8"/>
		<text transform="matrix(1 0 0 1 120.3009 114.8175)" class="st1 st2 st3">00</text>
		<text transform="matrix(1 0 0 1 2.5109 114.8175)" class="st1 st2 st3">00</text>
	</g>
	<g>
		<circle class="st1" cx="9" cy="107.8" r="1.8"/>
		<circle class="st1" cx="13.3" cy="107.8" r="1.8"/>
		<circle class="st1" cx="17.6" cy="107.8" r="1.8"/>
		<circle class="st1" cx="22" cy="107.8" r="1.8"/>
		<circle class="st1" cx="26.3" cy="107.8" r="1.8"/>
		<circle class="st1" cx="30.6" cy="107.8" r="1.8"/>
		<circle class="st1" cx="34.9" cy="107.8" r="1.8"/>
		<circle class="st1" cx="39.2" cy="107.8" r="1.8"/>
		<circle class="st1" cx="43.6" cy="107.8" r="1.8"/>
		<circle class="st1" cx="47.9" cy="107.8" r="1.8"/>
		<circle class="st1" cx="52.2" cy="107.8" r="1.8"/>
		<circle class="st1" cx="56.6" cy="107.8" r="1.8"/>
		<circle class="st1" cx="60.9" cy="107.8" r="1.8"/>
		<circle class="st1" cx="65.2" cy="107.8" r="1.8"/>
		<circle class="st1" cx="69.6" cy="107.8" r="1.8"/>
		<circle class="st1" cx="73.9" cy="107.8" r="1.8"/>
		<circle class="st1" cx="78.2" cy="107.8" r="1.8"/>
		<circle class="st1" cx="82.6" cy="107.8" r="1.8"/>
		<circle class="st1" cx="86.9" cy="107.8" r="1.8"/>
		<circle class="st1" cx="91.2" cy="107.8" r="1.8"/>
		<circle class="st1" cx="95.5" cy="107.8" r="1.8"/>
		<circle class="st1" cx="99.9" cy="107.8" r="1.8"/>
		<circle class="st1" cx="104.2" cy="107.8" r="1.8"/>
		<circle class="st1" cx="108.5" cy="107.8" r="1.8"/>
		<circle class="st1" cx="112.9" cy="107.8" r="1.8"/>
		<circle class="st1" cx="117.2" cy="107.8" r="1.8"/>
		<text transform="matrix(1 0 0 1 120.3009 108.8832)" class="st1 st2 st3">00</text>
		<text transform="matrix(1 0 0 1 2.5109 108.8832)" class="st1 st2 st3">00</text>
	</g>
	<g>
		<circle class="st1" cx="9" cy="101.9" r="1.8"/>
		<circle class="st1" cx="13.3" cy="101.9" r="1.8"/>
		<circle class="st1" cx="17.6" cy="101.9" r="1.8"/>
		<circle class="st1" cx="22" cy="101.9" r="1.8"/>
		<circle class="st1" cx="26.3" cy="101.9" r="1.8"/>
		<circle class="st1" cx="30.6" cy="101.9" r="1.8"/>
		<circle class="st1" cx="34.9" cy="101.9" r="1.8"/>
		<circle class="st1" cx="39.2" cy="101.9" r="1.8"/>
		<circle class="st1" cx="43.6" cy="101.9" r="1.8"/>
		<circle class="st1" cx="47.9" cy="101.9" r="1.8"/>
		<circle class="st1" cx="52.2" cy="101.9" r="1.8"/>
		<circle class="st1" cx="56.6" cy="101.9" r="1.8"/>
		<circle class="st1" cx="60.9" cy="101.9" r="1.8"/>
		<circle class="st1" cx="65.2" cy="101.9" r="1.8"/>
		<circle class="st1" cx="69.6" cy="101.9" r="1.8"/>
		<circle class="st1" cx="73.9" cy="101.9" r="1.8"/>
		<circle class="st1" cx="78.2" cy="101.9" r="1.8"/>
		<circle class="st1" cx="82.6" cy="101.9" r="1.8"/>
		<circle class="st1" cx="86.9" cy="101.9" r="1.8"/>
		<circle class="st1" cx="91.2" cy="101.9" r="1.8"/>
		<circle class="st1" cx="95.5" cy="101.9" r="1.8"/>
		<circle class="st1" cx="99.9" cy="101.9" r="1.8"/>
		<circle class="st1" cx="104.2" cy="101.9" r="1.8"/>
		<circle class="st1" cx="108.5" cy="101.9" r="1.8"/>
		<circle class="st1" cx="112.9" cy="101.9" r="1.8"/>
		<circle class="st1" cx="117.2" cy="101.9" r="1.8"/>
		<text transform="matrix(1 0 0 1 120.3009 102.9495)" class="st1 st2 st3">00</text>
		<text transform="matrix(1 0 0 1 2.5109 102.9495)" class="st1 st2 st3">00</text>
	</g>
	<g>
		<circle class="st1" cx="9" cy="95.9" r="1.8"/>
		<circle class="st1" cx="13.3" cy="95.9" r="1.8"/>
		<circle class="st1" cx="17.6" cy="95.9" r="1.8"/>
		<circle class="st1" cx="22" cy="95.9" r="1.8"/>
		<circle class="st1" cx="26.3" cy="95.9" r="1.8"/>
		<circle class="st1" cx="30.6" cy="95.9" r="1.8"/>
		<circle class="st1" cx="34.9" cy="95.9" r="1.8"/>
		<circle class="st1" cx="39.2" cy="95.9" r="1.8"/>
		<circle class="st1" cx="43.6" cy="95.9" r="1.8"/>
		<circle class="st1" cx="47.9" cy="95.9" r="1.8"/>
		<circle class="st1" cx="52.2" cy="95.9" r="1.8"/>
		<circle class="st1" cx="56.6" cy="95.9" r="1.8"/>
		<circle class="st1" cx="60.9" cy="95.9" r="1.8"/>
		<circle class="st1" cx="65.2" cy="95.9" r="1.8"/>
		<circle class="st1" cx="69.6" cy="95.9" r="1.8"/>
		<circle class="st1" cx="73.9" cy="95.9" r="1.8"/>
		<circle class="st1" cx="78.2" cy="95.9" r="1.8"/>
		<circle class="st1" cx="82.6" cy="95.9" r="1.8"/>
		<circle class="st1" cx="86.9" cy="95.9" r="1.8"/>
		<circle class="st1" cx="91.2" cy="95.9" r="1.8"/>
		<circle class="st1" cx="95.5" cy="95.9" r="1.8"/>
		<circle class="st1" cx="99.9" cy="95.9" r="1.8"/>
		<circle class="st1" cx="104.2" cy="95.9" r="1.8"/>
		<circle class="st1" cx="108.5" cy="95.9" r="1.8"/>
		<circle class="st1" cx="112.9" cy="95.9" r="1.8"/>
		<circle class="st1" cx="117.2" cy="95.9" r="1.8"/>
		<text transform="matrix(1 0 0 1 120.3009 97.0155)" class="st1 st2 st3">00</text>
		<text transform="matrix(1 0 0 1 2.5109 97.0155)" class="st1 st2 st3">00</text>
	</g>
	<g>
		<circle class="st1" cx="9" cy="90" r="1.8"/>
		<circle class="st1" cx="13.3" cy="90" r="1.8"/>
		<circle class="st1" cx="17.6" cy="90" r="1.8"/>
		<circle class="st1" cx="22" cy="90" r="1.8"/>
		<circle class="st1" cx="26.3" cy="90" r="1.8"/>
		<circle class="st1" cx="30.6" cy="90" r="1.8"/>
		<circle class="st1" cx="34.9" cy="90" r="1.8"/>
		<circle class="st1" cx="39.2" cy="90" r="1.8"/>
		<circle class="st1" cx="43.6" cy="90" r="1.8"/>
		<circle class="st1" cx="47.9" cy="90" r="1.8"/>
		<circle class="st1" cx="52.2" cy="90" r="1.8"/>
		<circle class="st1" cx="56.6" cy="90" r="1.8"/>
		<circle class="st1" cx="60.9" cy="90" r="1.8"/>
		<circle class="st1" cx="65.2" cy="90" r="1.8"/>
		<circle class="st1" cx="69.6" cy="90" r="1.8"/>
		<circle class="st1" cx="73.9" cy="90" r="1.8"/>
		<circle class="st1" cx="78.2" cy="90" r="1.8"/>
		<circle class="st1" cx="82.6" cy="90" r="1.8"/>
		<circle class="st1" cx="86.9" cy="90" r="1.8"/>
		<circle class="st1" cx="91.2" cy="90" r="1.8"/>
		<circle class="st1" cx="95.5" cy="90" r="1.8"/>
		<circle class="st1" cx="99.9" cy="90" r="1.8"/>
		<circle class="st1" cx="104.2" cy="90" r="1.8"/>
		<circle class="st1" cx="108.5" cy="90" r="1.8"/>
		<circle class="st1" cx="112.9" cy="90" r="1.8"/>
		<circle class="st1" cx="117.2" cy="90" r="1.8"/>
		<text transform="matrix(1 0 0 1 120.3009 91.0817)" class="st1 st2 st3">00</text>
		<text transform="matrix(1 0 0 1 2.5109 91.0817)" class="st1 st2 st3">00</text>
	</g>
	<g>
		<circle class="st1" cx="9" cy="84.1" r="1.8"/>
		<circle class="st1" cx="13.3" cy="84.1" r="1.8"/>
		<circle class="st1" cx="17.6" cy="84.1" r="1.8"/>
		<circle class="st1" cx="22" cy="84.1" r="1.8"/>
		<circle class="st1" cx="26.3" cy="84.1" r="1.8"/>
		<circle class="st1" cx="30.6" cy="84.1" r="1.8"/>
		<circle class="st1" cx="34.9" cy="84.1" r="1.8"/>
		<circle class="st1" cx="39.2" cy="84.1" r="1.8"/>
		<circle class="st1" cx="43.6" cy="84.1" r="1.8"/>
		<circle class="st1" cx="47.9" cy="84.1" r="1.8"/>
		<circle class="st1" cx="52.2" cy="84.1" r="1.8"/>
		<circle class="st1" cx="56.6" cy="84.1" r="1.8"/>
		<circle class="st1" cx="60.9" cy="84.1" r="1.8"/>
		<circle class="st1" cx="65.2" cy="84.1" r="1.8"/>
		<circle class="st1" cx="69.6" cy="84.1" r="1.8"/>
		<circle class="st1" cx="73.9" cy="84.1" r="1.8"/>
		<circle class="st1" cx="78.2" cy="84.1" r="1.8"/>
		<circle class="st1" cx="82.6" cy="84.1" r="1.8"/>
		<circle class="st1" cx="86.9" cy="84.1" r="1.8"/>
		<circle class="st1" cx="91.2" cy="84.1" r="1.8"/>
		<circle class="st1" cx="95.5" cy="84.1" r="1.8"/>
		<circle class="st1" cx="99.9" cy="84.1" r="1.8"/>
		<circle class="st1" cx="104.2" cy="84.1" r="1.8"/>
		<circle class="st1" cx="108.5" cy="84.1" r="1.8"/>
		<circle class="st1" cx="112.9" cy="84.1" r="1.8"/>
		<circle class="st1" cx="117.2" cy="84.1" r="1.8"/>
		<text transform="matrix(1 0 0 1 120.3009 85.1481)" class="st1 st2 st3">00</text>
		<text transform="matrix(1 0 0 1 2.5109 85.1481)" class="st1 st2 st3">00</text>
	</g>
	<g>
		<circle class="st1" cx="9" cy="78.1" r="1.8"/>
		<circle class="st1" cx="13.3" cy="78.1" r="1.8"/>
		<circle class="st1" cx="17.6" cy="78.1" r="1.8"/>
		<circle class="st1" cx="22" cy="78.1" r="1.8"/>
		<circle class="st1" cx="26.3" cy="78.1" r="1.8"/>
		<circle class="st1" cx="30.6" cy="78.1" r="1.8"/>
		<circle class="st1" cx="34.9" cy="78.1" r="1.8"/>
		<circle class="st1" cx="39.2" cy="78.1" r="1.8"/>
		<circle class="st1" cx="43.6" cy="78.1" r="1.8"/>
		<circle class="st1" cx="47.9" cy="78.1" r="1.8"/>
		<circle class="st1" cx="52.2" cy="78.1" r="1.8"/>
		<circle class="st1" cx="56.6" cy="78.1" r="1.8"/>
		<circle class="st1" cx="60.9" cy="78.1" r="1.8"/>
		<circle class="st1" cx="65.2" cy="78.1" r="1.8"/>
		<circle class="st1" cx="69.6" cy="78.1" r="1.8"/>
		<circle class="st1" cx="73.9" cy="78.1" r="1.8"/>
		<circle class="st1" cx="78.2" cy="78.1" r="1.8"/>
		<circle class="st1" cx="82.6" cy="78.1" r="1.8"/>
		<circle class="st1" cx="86.9" cy="78.1" r="1.8"/>
		<circle class="st1" cx="91.2" cy="78.1" r="1.8"/>
		<circle class="st1" cx="95.5" cy="78.1" r="1.8"/>
		<circle class="st1" cx="99.9" cy="78.1" r="1.8"/>
		<circle class="st1" cx="104.2" cy="78.1" r="1.8"/>
		<circle class="st1" cx="108.5" cy="78.1" r="1.8"/>
		<circle class="st1" cx="112.9" cy="78.1" r="1.8"/>
		<circle class="st1" cx="117.2" cy="78.1" r="1.8"/>
		<text transform="matrix(1 0 0 1 120.3009 79.2141)" class="st1 st2 st3">00</text>
		<text transform="matrix(1 0 0 1 2.5109 79.2141)" class="st1 st2 st3">00</text>
	</g>
	<g>
		<circle class="st1" cx="9" cy="72.2" r="1.8"/>
		<circle class="st1" cx="13.3" cy="72.2" r="1.8"/>
		<circle class="st1" cx="17.6" cy="72.2" r="1.8"/>
		<circle class="st1" cx="22" cy="72.2" r="1.8"/>
		<circle class="st1" cx="26.3" cy="72.2" r="1.8"/>
		<circle class="st1" cx="30.6" cy="72.2" r="1.8"/>
		<circle class="st1" cx="34.9" cy="72.2" r="1.8"/>
		<circle class="st1" cx="39.2" cy="72.2" r="1.8"/>
		<circle class="st1" cx="43.6" cy="72.2" r="1.8"/>
		<circle class="st1" cx="47.9" cy="72.2" r="1.8"/>
		<circle class="st1" cx="52.2" cy="72.2" r="1.8"/>
		<circle class="st1" cx="56.6" cy="72.2" r="1.8"/>
		<circle class="st1" cx="60.9" cy="72.2" r="1.8"/>
		<circle class="st1" cx="65.2" cy="72.2" r="1.8"/>
		<circle class="st1" cx="69.6" cy="72.2" r="1.8"/>
		<circle class="st1" cx="73.9" cy="72.2" r="1.8"/>
		<circle class="st1" cx="78.2" cy="72.2" r="1.8"/>
		<circle class="st1" cx="82.6" cy="72.2" r="1.8"/>
		<circle class="st1" cx="86.9" cy="72.2" r="1.8"/>
		<circle class="st1" cx="91.2" cy="72.2" r="1.8"/>
		<circle class="st1" cx="95.5" cy="72.2" r="1.8"/>
		<circle class="st1" cx="99.9" cy="72.2" r="1.8"/>
		<circle class="st1" cx="104.2" cy="72.2" r="1.8"/>
		<circle class="st1" cx="108.5" cy="72.2" r="1.8"/>
		<circle class="st1" cx="112.9" cy="72.2" r="1.8"/>
		<circle class="st1" cx="117.2" cy="72.2" r="1.8"/>
		<text transform="matrix(1 0 0 1 120.3009 73.2804)" class="st1 st2 st3">00</text>
		<text transform="matrix(1 0 0 1 2.5109 73.2804)" class="st1 st2 st3">00</text>
	</g>
	<g>
		<circle class="st1" cx="9" cy="66.3" r="1.8"/>
		<circle class="st1" cx="13.3" cy="66.3" r="1.8"/>
		<circle class="st1" cx="17.6" cy="66.3" r="1.8"/>
		<circle class="st1" cx="22" cy="66.3" r="1.8"/>
		<circle class="st1" cx="26.3" cy="66.3" r="1.8"/>
		<circle class="st1" cx="30.6" cy="66.3" r="1.8"/>
		<circle class="st1" cx="34.9" cy="66.3" r="1.8"/>
		<circle class="st1" cx="39.2" cy="66.3" r="1.8"/>
		<circle class="st1" cx="43.6" cy="66.3" r="1.8"/>
		<circle class="st1" cx="47.9" cy="66.3" r="1.8"/>
		<circle class="st1" cx="52.2" cy="66.3" r="1.8"/>
		<circle class="st1" cx="56.6" cy="66.3" r="1.8"/>
		<circle class="st1" cx="60.9" cy="66.3" r="1.8"/>
		<circle class="st1" cx="65.2" cy="66.3" r="1.8"/>
		<circle class="st1" cx="69.6" cy="66.3" r="1.8"/>
		<circle class="st1" cx="73.9" cy="66.3" r="1.8"/>
		<circle class="st1" cx="78.2" cy="66.3" r="1.8"/>
		<circle class="st1" cx="82.6" cy="66.3" r="1.8"/>
		<circle class="st1" cx="86.9" cy="66.3" r="1.8"/>
		<circle class="st1" cx="91.2" cy="66.3" r="1.8"/>
		<circle class="st1" cx="95.5" cy="66.3" r="1.8"/>
		<circle class="st1" cx="99.9" cy="66.3" r="1.8"/>
		<circle class="st1" cx="104.2" cy="66.3" r="1.8"/>
		<circle class="st1" cx="108.5" cy="66.3" r="1.8"/>
		<circle class="st1" cx="112.9" cy="66.3" r="1.8"/>
		<circle class="st1" cx="117.2" cy="66.3" r="1.8"/>
		<text transform="matrix(1 0 0 1 120.3009 67.3468)" class="st1 st2 st3">00</text>
		<text transform="matrix(1 0 0 1 2.5109 67.3468)" class="st1 st2 st3">00</text>
	</g>
	<g>
		<circle class="st1" cx="9" cy="60.3" r="1.8"/>
		<circle class="st1" cx="13.3" cy="60.3" r="1.8"/>
		<circle class="st1" cx="17.6" cy="60.3" r="1.8"/>
		<circle class="st1" cx="22" cy="60.3" r="1.8"/>
		<circle class="st1" cx="26.3" cy="60.3" r="1.8"/>
		<circle class="st1" cx="30.6" cy="60.3" r="1.8"/>
		<circle class="st1" cx="34.9" cy="60.3" r="1.8"/>
		<circle class="st1" cx="39.2" cy="60.3" r="1.8"/>
		<circle class="st1" cx="43.6" cy="60.3" r="1.8"/>
		<circle class="st1" cx="47.9" cy="60.3" r="1.8"/>
		<circle class="st1" cx="52.2" cy="60.3" r="1.8"/>
		<circle class="st1" cx="56.6" cy="60.3" r="1.8"/>
		<circle class="st1" cx="60.9" cy="60.3" r="1.8"/>
		<circle class="st1" cx="65.2" cy="60.3" r="1.8"/>
		<circle class="st1" cx="69.6" cy="60.3" r="1.8"/>
		<circle class="st1" cx="73.9" cy="60.3" r="1.8"/>
		<circle class="st1" cx="78.2" cy="60.3" r="1.8"/>
		<circle class="st1" cx="82.6" cy="60.3" r="1.8"/>
		<circle class="st1" cx="86.9" cy="60.3" r="1.8"/>
		<circle class="st1" cx="91.2" cy="60.3" r="1.8"/>
		<circle class="st1" cx="95.5" cy="60.3" r="1.8"/>
		<circle class="st1" cx="99.9" cy="60.3" r="1.8"/>
		<circle class="st1" cx="104.2" cy="60.3" r="1.8"/>
		<circle class="st1" cx="108.5" cy="60.3" r="1.8"/>
		<circle class="st1" cx="112.9" cy="60.3" r="1.8"/>
		<circle class="st1" cx="117.2" cy="60.3" r="1.8"/>
		<text transform="matrix(1 0 0 1 120.3009 61.4128)" class="st1 st2 st3">00</text>
		<text transform="matrix(1 0 0 1 2.5109 61.4128)" class="st1 st2 st3">00</text>
	</g>
	<g>
		<circle class="st1" cx="9" cy="54.4" r="1.8"/>
		<circle class="st1" cx="13.3" cy="54.4" r="1.8"/>
		<circle class="st1" cx="17.6" cy="54.4" r="1.8"/>
		<circle class="st1" cx="22" cy="54.4" r="1.8"/>
		<circle class="st1" cx="26.3" cy="54.4" r="1.8"/>
		<circle class="st1" cx="30.6" cy="54.4" r="1.8"/>
		<circle class="st1" cx="34.9" cy="54.4" r="1.8"/>
		<circle class="st1" cx="39.2" cy="54.4" r="1.8"/>
		<circle class="st1" cx="43.6" cy="54.4" r="1.8"/>
		<circle class="st1" cx="47.9" cy="54.4" r="1.8"/>
		<circle class="st1" cx="52.2" cy="54.4" r="1.8"/>
		<circle class="st1" cx="56.6" cy="54.4" r="1.8"/>
		<circle class="st1" cx="60.9" cy="54.4" r="1.8"/>
		<circle class="st1" cx="65.2" cy="54.4" r="1.8"/>
		<circle class="st1" cx="69.6" cy="54.4" r="1.8"/>
		<circle class="st1" cx="73.9" cy="54.4" r="1.8"/>
		<circle class="st1" cx="78.2" cy="54.4" r="1.8"/>
		<circle class="st1" cx="82.6" cy="54.4" r="1.8"/>
		<circle class="st1" cx="86.9" cy="54.4" r="1.8"/>
		<circle class="st1" cx="91.2" cy="54.4" r="1.8"/>
		<circle class="st1" cx="95.5" cy="54.4" r="1.8"/>
		<circle class="st1" cx="99.9" cy="54.4" r="1.8"/>
		<circle class="st1" cx="104.2" cy="54.4" r="1.8"/>
		<circle class="st1" cx="108.5" cy="54.4" r="1.8"/>
		<circle class="st1" cx="112.9" cy="54.4" r="1.8"/>
		<circle class="st1" cx="117.2" cy="54.4" r="1.8"/>
		<text transform="matrix(1 0 0 1 120.3009 55.4791)" class="st1 st2 st3">00</text>
		<text transform="matrix(1 0 0 1 2.5109 55.4791)" class="st1 st2 st3">00</text>
	</g>
	<g>
		<circle class="st1" cx="9" cy="48.5" r="1.8"/>
		<circle class="st1" cx="13.3" cy="48.5" r="1.8"/>
		<circle class="st1" cx="17.6" cy="48.5" r="1.8"/>
		<circle class="st1" cx="22" cy="48.5" r="1.8"/>
		<circle class="st1" cx="26.3" cy="48.5" r="1.8"/>
		<circle class="st1" cx="30.6" cy="48.5" r="1.8"/>
		<circle class="st1" cx="34.9" cy="48.5" r="1.8"/>
		<circle class="st1" cx="39.2" cy="48.5" r="1.8"/>
		<circle class="st1" cx="43.6" cy="48.5" r="1.8"/>
		<circle class="st1" cx="47.9" cy="48.5" r="1.8"/>
		<circle class="st1" cx="52.2" cy="48.5" r="1.8"/>
		<circle class="st1" cx="56.6" cy="48.5" r="1.8"/>
		<circle class="st1" cx="60.9" cy="48.5" r="1.8"/>
		<circle class="st1" cx="65.2" cy="48.5" r="1.8"/>
		<circle class="st1" cx="69.6" cy="48.5" r="1.8"/>
		<circle class="st1" cx="73.9" cy="48.5" r="1.8"/>
		<circle class="st1" cx="78.2" cy="48.5" r="1.8"/>
		<circle class="st1" cx="82.6" cy="48.5" r="1.8"/>
		<circle class="st1" cx="86.9" cy="48.5" r="1.8"/>
		<circle class="st1" cx="91.2" cy="48.5" r="1.8"/>
		<circle class="st1" cx="95.5" cy="48.5" r="1.8"/>
		<circle class="st1" cx="99.9" cy="48.5" r="1.8"/>
		<circle class="st1" cx="104.2" cy="48.5" r="1.8"/>
		<circle class="st1" cx="108.5" cy="48.5" r="1.8"/>
		<circle class="st1" cx="112.9" cy="48.5" r="1.8"/>
		<circle class="st1" cx="117.2" cy="48.5" r="1.8"/>
		<text transform="matrix(1 0 0 1 120.3009 49.5455)" class="st1 st2 st3">00</text>
		<text transform="matrix(1 0 0 1 2.5109 49.5455)" class="st1 st2 st3">00</text>
	</g>
	<g>
		<circle class="st1" cx="9" cy="42.5" r="1.8"/>
		<circle class="st1" cx="13.3" cy="42.5" r="1.8"/>
		<circle class="st1" cx="17.6" cy="42.5" r="1.8"/>
		<circle class="st1" cx="22" cy="42.5" r="1.8"/>
		<circle class="st1" cx="26.3" cy="42.5" r="1.8"/>
		<circle class="st1" cx="30.6" cy="42.5" r="1.8"/>
		<circle class="st1" cx="34.9" cy="42.5" r="1.8"/>
		<circle class="st1" cx="39.2" cy="42.5" r="1.8"/>
		<circle class="st1" cx="43.6" cy="42.5" r="1.8"/>
		<circle class="st1" cx="47.9" cy="42.5" r="1.8"/>
		<circle class="st1" cx="52.2" cy="42.5" r="1.8"/>
		<circle class="st1" cx="56.6" cy="42.5" r="1.8"/>
		<circle class="st1" cx="60.9" cy="42.5" r="1.8"/>
		<circle class="st1" cx="65.2" cy="42.5" r="1.8"/>
		<circle class="st1" cx="69.6" cy="42.5" r="1.8"/>
		<circle class="st1" cx="73.9" cy="42.5" r="1.8"/>
		<circle class="st1" cx="78.2" cy="42.5" r="1.8"/>
		<circle class="st1" cx="82.6" cy="42.5" r="1.8"/>
		<circle class="st1" cx="86.9" cy="42.5" r="1.8"/>
		<circle class="st1" cx="91.2" cy="42.5" r="1.8"/>
		<circle class="st1" cx="95.5" cy="42.5" r="1.8"/>
		<circle class="st1" cx="99.9" cy="42.5" r="1.8"/>
		<circle class="st1" cx="104.2" cy="42.5" r="1.8"/>
		<circle class="st1" cx="108.5" cy="42.5" r="1.8"/>
		<circle class="st1" cx="112.9" cy="42.5" r="1.8"/>
		<circle class="st1" cx="117.2" cy="42.5" r="1.8"/>
		<circle class="st1" cx="121.5" cy="42.5" r="1.8"/>
		<text transform="matrix(1 0 0 1 124.6309 43.6122)" class="st1 st2 st3">00</text>
		<text transform="matrix(1 0 0 1 2.5109 43.6122)" class="st1 st2 st3">00</text>
	</g>
	<g>
		<circle class="st1" cx="17.7" cy="36.6" r="1.8"/>
		<circle class="st1" cx="22" cy="36.6" r="1.8"/>
		<circle class="st1" cx="26.3" cy="36.6" r="1.8"/>
		<circle class="st1" cx="30.6" cy="36.6" r="1.8"/>
		<circle class="st1" cx="35" cy="36.6" r="1.8"/>
		<circle class="st1" cx="39.3" cy="36.6" r="1.8"/>
		<circle class="st1" cx="43.6" cy="36.6" r="1.8"/>
		<circle class="st1" cx="47.9" cy="36.6" r="1.8"/>
		<circle class="st1" cx="52.2" cy="36.6" r="1.8"/>
		<circle class="st1" cx="56.6" cy="36.6" r="1.8"/>
		<circle class="st1" cx="60.9" cy="36.6" r="1.8"/>
		<circle class="st1" cx="65.2" cy="36.6" r="1.8"/>
		<circle class="st1" cx="69.6" cy="36.6" r="1.8"/>
		<circle class="st1" cx="73.9" cy="36.6" r="1.8"/>
		<circle class="st1" cx="78.2" cy="36.6" r="1.8"/>
		<circle class="st1" cx="82.6" cy="36.6" r="1.8"/>
		<circle class="st1" cx="86.9" cy="36.6" r="1.8"/>
		<circle class="st1" cx="91.2" cy="36.6" r="1.8"/>
		<circle class="st1" cx="95.5" cy="36.6" r="1.8"/>
		<circle class="st1" cx="99.9" cy="36.6" r="1.8"/>
		<circle class="st1" cx="104.2" cy="36.6" r="1.8"/>
		<circle class="st1" cx="108.5" cy="36.6" r="1.8"/>
		<circle class="st1" cx="112.9" cy="36.6" r="1.8"/>
		<circle class="st1" cx="117.2" cy="36.6" r="1.8"/>
		<text transform="matrix(1 0 0 1 120.3009 37.6689)" class="st1 st2 st3">00</text>
		<text transform="matrix(1 0 0 1 11.1509 37.6689)" class="st1 st2 st3">00</text>
	</g>
	<g>
		<circle class="st1" cx="39.3" cy="30.6" r="1.8"/>
		<circle class="st1" cx="43.6" cy="30.6" r="1.8"/>
		<circle class="st1" cx="48" cy="30.6" r="1.8"/>
		<circle class="st1" cx="52.3" cy="30.6" r="1.8"/>
		<circle class="st1" cx="56.6" cy="30.6" r="1.8"/>
		<circle class="st1" cx="60.9" cy="30.6" r="1.8"/>
		<circle class="st1" cx="65.2" cy="30.6" r="1.8"/>
		<circle class="st1" cx="69.6" cy="30.6" r="1.8"/>
		<circle class="st1" cx="73.9" cy="30.6" r="1.8"/>
		<circle class="st1" cx="78.2" cy="30.6" r="1.8"/>
		<circle class="st1" cx="82.6" cy="30.6" r="1.8"/>
		<circle class="st1" cx="86.9" cy="30.6" r="1.8"/>
		<circle class="st1" cx="91.2" cy="30.6" r="1.8"/>
		<circle class="st1" cx="95.5" cy="30.6" r="1.8"/>
		<circle class="st1" cx="99.9" cy="30.6" r="1.8"/>
		<circle class="st1" cx="104.2" cy="30.6" r="1.8"/>
		<circle class="st1" cx="108.5" cy="30.6" r="1.8"/>
		<circle class="st1" cx="112.9" cy="30.6" r="1.8"/>
		<circle class="st1" cx="117.2" cy="30.6" r="1.8"/>
		<text transform="matrix(1 0 0 1 120.3009 31.7255)" class="st1 st2 st3">00</text>
		<text transform="matrix(1 0 0 1 32.8209 31.7255)" class="st1 st2 st3">00</text>
	</g>
	<g>
		<circle class="st1" cx="69.6" cy="24.7" r="1.8"/>
		<circle class="st1" cx="74" cy="24.7" r="1.8"/>
		<circle class="st1" cx="78.3" cy="24.7" r="1.8"/>
		<circle class="st1" cx="82.6" cy="24.7" r="1.8"/>
		<circle class="st1" cx="86.9" cy="24.7" r="1.8"/>
		<circle class="st1" cx="91.2" cy="24.7" r="1.8"/>
		<circle class="st1" cx="95.6" cy="24.7" r="1.8"/>
		<circle class="st1" cx="99.9" cy="24.7" r="1.8"/>
		<circle class="st1" cx="104.2" cy="24.7" r="1.8"/>
		<circle class="st1" cx="108.5" cy="24.7" r="1.8"/>
		<circle class="st1" cx="112.9" cy="24.7" r="1.8"/>
		<circle class="st1" cx="117.2" cy="24.7" r="1.8"/>
		<text transform="matrix(1 0 0 1 120.3009 25.7821)" class="st1 st2 st3">00</text>
		<text transform="matrix(1 0 0 1 63.1409 25.7821)" class="st1 st2 st3">00</text>
	</g>
	<g>
		<circle class="st1" cx="99.9" cy="18.8" r="1.8"/>
		<circle class="st1" cx="104.2" cy="18.8" r="1.8"/>
		<circle class="st1" cx="108.6" cy="18.8" r="1.8"/>
		<circle class="st1" cx="112.9" cy="18.8" r="1.8"/>
		<circle class="st1" cx="117.2" cy="18.8" r="1.8"/>
		<text transform="matrix(1 0 0 1 120.3009 19.839)" class="st1 st2 st3">00</text>
		<text transform="matrix(1 0 0 1 93.4109 19.839)" class="st1 st2 st3">00</text>
	</g>
</g>
</svg>
