<?xml version="1.0" encoding="utf-8"?>

<svg version="1.1" id="Layer_1" xmlns="http://www.w3.org/2000/svg" xmlns:xlink="http://www.w3.org/1999/xlink" x="0px" y="0px"
	 viewBox="0 0 135 132" style="enable-background:new 0 0 135 132;" xml:space="preserve">
<style type="text/css">
	.st0{fill:#F1F3F4;stroke:#BCC8CE;stroke-width:0.4;stroke-linecap:round;stroke-miterlimit:10;}
	.st1{fill:#AEBDC4;}
	.st2{font-family:'Roboto-Medium';}
	.st3{font-size:3px;}
</style>
<rect x="0.4" y="0.6" class="st0" width="134.3" height="130.8"/>
<g
	data-sort-seat-direction="rtl" 
    data-sort-line-direction="btt" 
    data-sort-seat-option="cx" 
    data-sort-line-option="cy" 
    data-line-start="1">
	<g>
		<circle class="st1" cx="17.8" cy="122.3" r="1.8"/>
		<circle class="st1" cx="22.1" cy="122.3" r="1.8"/>
		<circle class="st1" cx="26.4" cy="122.3" r="1.8"/>
		<circle class="st1" cx="30.7" cy="122.3" r="1.8"/>
		<circle class="st1" cx="35" cy="122.3" r="1.8"/>
		<circle class="st1" cx="39.4" cy="122.3" r="1.8"/>
		<circle class="st1" cx="43.7" cy="122.3" r="1.8"/>
		<circle class="st1" cx="48" cy="122.3" r="1.8"/>
		<circle class="st1" cx="52.3" cy="122.3" r="1.8"/>
		<circle class="st1" cx="56.7" cy="122.3" r="1.8"/>
		<circle class="st1" cx="61" cy="122.3" r="1.8"/>
		<circle class="st1" cx="65.3" cy="122.3" r="1.8"/>
		<circle class="st1" cx="69.7" cy="122.3" r="1.8"/>
		<circle class="st1" cx="74" cy="122.3" r="1.8"/>
		<circle class="st1" cx="78.3" cy="122.3" r="1.8"/>
		<circle class="st1" cx="82.6" cy="122.3" r="1.8"/>
		<circle class="st1" cx="87" cy="122.3" r="1.8"/>
		<circle class="st1" cx="91.3" cy="122.3" r="1.8"/>
		<circle class="st1" cx="95.6" cy="122.3" r="1.8"/>
		<circle class="st1" cx="100" cy="122.3" r="1.8"/>
		<circle class="st1" cx="104.3" cy="122.3" r="1.8"/>
		<circle class="st1" cx="108.6" cy="122.3" r="1.8"/>
		<circle class="st1" cx="112.9" cy="122.3" r="1.8"/>
		<circle class="st1" cx="117.3" cy="122.3" r="1.8"/>
		<text transform="matrix(1 0 0 1 120.3909 123.3905)" class="st1 st2 st3">00</text>
		<text transform="matrix(1 0 0 1 11.2607 123.3905)" class="st1 st2 st3">00</text>
	</g>
	<g>
		<circle class="st1" cx="17.8" cy="116.4" r="1.8"/>
		<circle class="st1" cx="22.1" cy="116.4" r="1.8"/>
		<circle class="st1" cx="26.4" cy="116.4" r="1.8"/>
		<circle class="st1" cx="30.7" cy="116.4" r="1.8"/>
		<circle class="st1" cx="35" cy="116.4" r="1.8"/>
		<circle class="st1" cx="39.4" cy="116.4" r="1.8"/>
		<circle class="st1" cx="43.7" cy="116.4" r="1.8"/>
		<circle class="st1" cx="48" cy="116.4" r="1.8"/>
		<circle class="st1" cx="52.3" cy="116.4" r="1.8"/>
		<circle class="st1" cx="56.7" cy="116.4" r="1.8"/>
		<circle class="st1" cx="61" cy="116.4" r="1.8"/>
		<circle class="st1" cx="65.3" cy="116.4" r="1.8"/>
		<circle class="st1" cx="69.7" cy="116.4" r="1.8"/>
		<circle class="st1" cx="74" cy="116.4" r="1.8"/>
		<circle class="st1" cx="78.3" cy="116.4" r="1.8"/>
		<circle class="st1" cx="82.6" cy="116.4" r="1.8"/>
		<circle class="st1" cx="87" cy="116.4" r="1.8"/>
		<circle class="st1" cx="91.3" cy="116.4" r="1.8"/>
		<circle class="st1" cx="95.6" cy="116.4" r="1.8"/>
		<circle class="st1" cx="100" cy="116.4" r="1.8"/>
		<circle class="st1" cx="104.3" cy="116.4" r="1.8"/>
		<circle class="st1" cx="108.6" cy="116.4" r="1.8"/>
		<circle class="st1" cx="112.9" cy="116.4" r="1.8"/>
		<circle class="st1" cx="117.3" cy="116.4" r="1.8"/>
		<text transform="matrix(1 0 0 1 120.3909 117.4598)" class="st1 st2 st3">00</text>
		<text transform="matrix(1 0 0 1 11.2607 117.4598)" class="st1 st2 st3">00</text>
	</g>
	<g>
		<circle class="st1" cx="17.8" cy="110.5" r="1.8"/>
		<circle class="st1" cx="22.1" cy="110.5" r="1.8"/>
		<circle class="st1" cx="26.4" cy="110.5" r="1.8"/>
		<circle class="st1" cx="30.7" cy="110.5" r="1.8"/>
		<circle class="st1" cx="35" cy="110.5" r="1.8"/>
		<circle class="st1" cx="39.4" cy="110.5" r="1.8"/>
		<circle class="st1" cx="43.7" cy="110.5" r="1.8"/>
		<circle class="st1" cx="48" cy="110.5" r="1.8"/>
		<circle class="st1" cx="52.3" cy="110.5" r="1.8"/>
		<circle class="st1" cx="56.7" cy="110.5" r="1.8"/>
		<circle class="st1" cx="61" cy="110.5" r="1.8"/>
		<circle class="st1" cx="65.3" cy="110.5" r="1.8"/>
		<circle class="st1" cx="69.7" cy="110.5" r="1.8"/>
		<circle class="st1" cx="74" cy="110.5" r="1.8"/>
		<circle class="st1" cx="78.3" cy="110.5" r="1.8"/>
		<circle class="st1" cx="82.6" cy="110.5" r="1.8"/>
		<circle class="st1" cx="87" cy="110.5" r="1.8"/>
		<circle class="st1" cx="91.3" cy="110.5" r="1.8"/>
		<circle class="st1" cx="95.6" cy="110.5" r="1.8"/>
		<circle class="st1" cx="100" cy="110.5" r="1.8"/>
		<circle class="st1" cx="104.3" cy="110.5" r="1.8"/>
		<circle class="st1" cx="108.6" cy="110.5" r="1.8"/>
		<circle class="st1" cx="112.9" cy="110.5" r="1.8"/>
		<circle class="st1" cx="117.3" cy="110.5" r="1.8"/>
		<text transform="matrix(1 0 0 1 120.3909 111.5293)" class="st1 st2 st3">00</text>
		<text transform="matrix(1 0 0 1 11.2607 111.5293)" class="st1 st2 st3">00</text>
	</g>
	<g>
		<circle class="st1" cx="17.8" cy="104.5" r="1.8"/>
		<circle class="st1" cx="22.1" cy="104.5" r="1.8"/>
		<circle class="st1" cx="26.4" cy="104.5" r="1.8"/>
		<circle class="st1" cx="30.7" cy="104.5" r="1.8"/>
		<circle class="st1" cx="35" cy="104.5" r="1.8"/>
		<circle class="st1" cx="39.4" cy="104.5" r="1.8"/>
		<circle class="st1" cx="43.7" cy="104.5" r="1.8"/>
		<circle class="st1" cx="48" cy="104.5" r="1.8"/>
		<circle class="st1" cx="52.3" cy="104.5" r="1.8"/>
		<circle class="st1" cx="56.7" cy="104.5" r="1.8"/>
		<circle class="st1" cx="61" cy="104.5" r="1.8"/>
		<circle class="st1" cx="65.3" cy="104.5" r="1.8"/>
		<circle class="st1" cx="69.7" cy="104.5" r="1.8"/>
		<circle class="st1" cx="74" cy="104.5" r="1.8"/>
		<circle class="st1" cx="78.3" cy="104.5" r="1.8"/>
		<circle class="st1" cx="82.6" cy="104.5" r="1.8"/>
		<circle class="st1" cx="87" cy="104.5" r="1.8"/>
		<circle class="st1" cx="91.3" cy="104.5" r="1.8"/>
		<circle class="st1" cx="95.6" cy="104.5" r="1.8"/>
		<circle class="st1" cx="100" cy="104.5" r="1.8"/>
		<circle class="st1" cx="104.3" cy="104.5" r="1.8"/>
		<circle class="st1" cx="108.6" cy="104.5" r="1.8"/>
		<circle class="st1" cx="112.9" cy="104.5" r="1.8"/>
		<circle class="st1" cx="117.3" cy="104.5" r="1.8"/>
		<text transform="matrix(1 0 0 1 120.3909 105.5989)" class="st1 st2 st3">00</text>
		<text transform="matrix(1 0 0 1 11.2607 105.5989)" class="st1 st2 st3">00</text>
	</g>
	<g>
		<circle class="st1" cx="17.8" cy="98.6" r="1.8"/>
		<circle class="st1" cx="22.1" cy="98.6" r="1.8"/>
		<circle class="st1" cx="26.4" cy="98.6" r="1.8"/>
		<circle class="st1" cx="30.7" cy="98.6" r="1.8"/>
		<circle class="st1" cx="35" cy="98.6" r="1.8"/>
		<circle class="st1" cx="39.4" cy="98.6" r="1.8"/>
		<circle class="st1" cx="43.7" cy="98.6" r="1.8"/>
		<circle class="st1" cx="48" cy="98.6" r="1.8"/>
		<circle class="st1" cx="52.3" cy="98.6" r="1.8"/>
		<circle class="st1" cx="56.7" cy="98.6" r="1.8"/>
		<circle class="st1" cx="61" cy="98.6" r="1.8"/>
		<circle class="st1" cx="65.3" cy="98.6" r="1.8"/>
		<circle class="st1" cx="69.7" cy="98.6" r="1.8"/>
		<circle class="st1" cx="74" cy="98.6" r="1.8"/>
		<circle class="st1" cx="78.3" cy="98.6" r="1.8"/>
		<circle class="st1" cx="82.6" cy="98.6" r="1.8"/>
		<circle class="st1" cx="87" cy="98.6" r="1.8"/>
		<circle class="st1" cx="91.3" cy="98.6" r="1.8"/>
		<circle class="st1" cx="95.6" cy="98.6" r="1.8"/>
		<circle class="st1" cx="100" cy="98.6" r="1.8"/>
		<circle class="st1" cx="104.3" cy="98.6" r="1.8"/>
		<circle class="st1" cx="108.6" cy="98.6" r="1.8"/>
		<circle class="st1" cx="112.9" cy="98.6" r="1.8"/>
		<circle class="st1" cx="117.3" cy="98.6" r="1.8"/>
		<text transform="matrix(1 0 0 1 120.3909 99.6686)" class="st1 st2 st3">00</text>
		<text transform="matrix(1 0 0 1 11.2607 99.6686)" class="st1 st2 st3">00</text>
	</g>
	<g>
		<circle class="st1" cx="17.8" cy="92.7" r="1.8"/>
		<circle class="st1" cx="22.1" cy="92.7" r="1.8"/>
		<circle class="st1" cx="26.4" cy="92.7" r="1.8"/>
		<circle class="st1" cx="30.7" cy="92.7" r="1.8"/>
		<circle class="st1" cx="35" cy="92.7" r="1.8"/>
		<circle class="st1" cx="39.4" cy="92.7" r="1.8"/>
		<circle class="st1" cx="43.7" cy="92.7" r="1.8"/>
		<circle class="st1" cx="48" cy="92.7" r="1.8"/>
		<circle class="st1" cx="52.3" cy="92.7" r="1.8"/>
		<circle class="st1" cx="56.7" cy="92.7" r="1.8"/>
		<circle class="st1" cx="61" cy="92.7" r="1.8"/>
		<circle class="st1" cx="65.3" cy="92.7" r="1.8"/>
		<circle class="st1" cx="69.7" cy="92.7" r="1.8"/>
		<circle class="st1" cx="74" cy="92.7" r="1.8"/>
		<circle class="st1" cx="78.3" cy="92.7" r="1.8"/>
		<circle class="st1" cx="82.6" cy="92.7" r="1.8"/>
		<circle class="st1" cx="87" cy="92.7" r="1.8"/>
		<circle class="st1" cx="91.3" cy="92.7" r="1.8"/>
		<circle class="st1" cx="95.6" cy="92.7" r="1.8"/>
		<circle class="st1" cx="100" cy="92.7" r="1.8"/>
		<circle class="st1" cx="104.3" cy="92.7" r="1.8"/>
		<circle class="st1" cx="108.6" cy="92.7" r="1.8"/>
		<circle class="st1" cx="112.9" cy="92.7" r="1.8"/>
		<circle class="st1" cx="117.3" cy="92.7" r="1.8"/>
		<text transform="matrix(1 0 0 1 120.3909 93.7375)" class="st1 st2 st3">00</text>
		<text transform="matrix(1 0 0 1 11.2607 93.7375)" class="st1 st2 st3">00</text>
	</g>
	<g>
		<circle class="st1" cx="17.8" cy="86.8" r="1.8"/>
		<circle class="st1" cx="22.1" cy="86.8" r="1.8"/>
		<circle class="st1" cx="26.4" cy="86.8" r="1.8"/>
		<circle class="st1" cx="30.7" cy="86.8" r="1.8"/>
		<circle class="st1" cx="35" cy="86.8" r="1.8"/>
		<circle class="st1" cx="39.4" cy="86.8" r="1.8"/>
		<circle class="st1" cx="43.7" cy="86.8" r="1.8"/>
		<circle class="st1" cx="48" cy="86.8" r="1.8"/>
		<circle class="st1" cx="52.3" cy="86.8" r="1.8"/>
		<circle class="st1" cx="56.7" cy="86.8" r="1.8"/>
		<circle class="st1" cx="61" cy="86.8" r="1.8"/>
		<circle class="st1" cx="65.3" cy="86.8" r="1.8"/>
		<circle class="st1" cx="69.7" cy="86.8" r="1.8"/>
		<circle class="st1" cx="74" cy="86.8" r="1.8"/>
		<circle class="st1" cx="78.3" cy="86.8" r="1.8"/>
		<circle class="st1" cx="82.6" cy="86.8" r="1.8"/>
		<circle class="st1" cx="87" cy="86.8" r="1.8"/>
		<circle class="st1" cx="91.3" cy="86.8" r="1.8"/>
		<circle class="st1" cx="95.6" cy="86.8" r="1.8"/>
		<circle class="st1" cx="100" cy="86.8" r="1.8"/>
		<circle class="st1" cx="104.3" cy="86.8" r="1.8"/>
		<circle class="st1" cx="108.6" cy="86.8" r="1.8"/>
		<circle class="st1" cx="112.9" cy="86.8" r="1.8"/>
		<circle class="st1" cx="117.3" cy="86.8" r="1.8"/>
		<text transform="matrix(1 0 0 1 120.3909 87.8065)" class="st1 st2 st3">00</text>
		<text transform="matrix(1 0 0 1 11.2607 87.8065)" class="st1 st2 st3">00</text>
	</g>
	<g>
		<circle class="st1" cx="17.8" cy="80.8" r="1.8"/>
		<circle class="st1" cx="22.1" cy="80.8" r="1.8"/>
		<circle class="st1" cx="26.4" cy="80.8" r="1.8"/>
		<circle class="st1" cx="30.7" cy="80.8" r="1.8"/>
		<circle class="st1" cx="35" cy="80.8" r="1.8"/>
		<circle class="st1" cx="39.4" cy="80.8" r="1.8"/>
		<circle class="st1" cx="43.7" cy="80.8" r="1.8"/>
		<circle class="st1" cx="48" cy="80.8" r="1.8"/>
		<circle class="st1" cx="52.3" cy="80.8" r="1.8"/>
		<circle class="st1" cx="56.7" cy="80.8" r="1.8"/>
		<circle class="st1" cx="61" cy="80.8" r="1.8"/>
		<circle class="st1" cx="65.3" cy="80.8" r="1.8"/>
		<circle class="st1" cx="69.7" cy="80.8" r="1.8"/>
		<circle class="st1" cx="74" cy="80.8" r="1.8"/>
		<circle class="st1" cx="78.3" cy="80.8" r="1.8"/>
		<circle class="st1" cx="82.6" cy="80.8" r="1.8"/>
		<circle class="st1" cx="87" cy="80.8" r="1.8"/>
		<circle class="st1" cx="91.3" cy="80.8" r="1.8"/>
		<circle class="st1" cx="95.6" cy="80.8" r="1.8"/>
		<circle class="st1" cx="100" cy="80.8" r="1.8"/>
		<circle class="st1" cx="104.3" cy="80.8" r="1.8"/>
		<circle class="st1" cx="108.6" cy="80.8" r="1.8"/>
		<circle class="st1" cx="112.9" cy="80.8" r="1.8"/>
		<circle class="st1" cx="117.3" cy="80.8" r="1.8"/>
		<text transform="matrix(1 0 0 1 120.3909 81.8757)" class="st1 st2 st3">00</text>
		<text transform="matrix(1 0 0 1 11.2607 81.8757)" class="st1 st2 st3">00</text>
	</g>
	<g>
		<circle class="st1" cx="17.8" cy="74.9" r="1.8"/>
		<circle class="st1" cx="22.1" cy="74.9" r="1.8"/>
		<circle class="st1" cx="26.4" cy="74.9" r="1.8"/>
		<circle class="st1" cx="30.7" cy="74.9" r="1.8"/>
		<circle class="st1" cx="35" cy="74.9" r="1.8"/>
		<circle class="st1" cx="39.4" cy="74.9" r="1.8"/>
		<circle class="st1" cx="43.7" cy="74.9" r="1.8"/>
		<circle class="st1" cx="48" cy="74.9" r="1.8"/>
		<circle class="st1" cx="52.3" cy="74.9" r="1.8"/>
		<circle class="st1" cx="56.7" cy="74.9" r="1.8"/>
		<circle class="st1" cx="61" cy="74.9" r="1.8"/>
		<circle class="st1" cx="65.3" cy="74.9" r="1.8"/>
		<circle class="st1" cx="69.7" cy="74.9" r="1.8"/>
		<circle class="st1" cx="74" cy="74.9" r="1.8"/>
		<circle class="st1" cx="78.3" cy="74.9" r="1.8"/>
		<circle class="st1" cx="82.6" cy="74.9" r="1.8"/>
		<circle class="st1" cx="87" cy="74.9" r="1.8"/>
		<circle class="st1" cx="91.3" cy="74.9" r="1.8"/>
		<circle class="st1" cx="95.6" cy="74.9" r="1.8"/>
		<circle class="st1" cx="100" cy="74.9" r="1.8"/>
		<circle class="st1" cx="104.3" cy="74.9" r="1.8"/>
		<circle class="st1" cx="108.6" cy="74.9" r="1.8"/>
		<circle class="st1" cx="112.9" cy="74.9" r="1.8"/>
		<circle class="st1" cx="117.3" cy="74.9" r="1.8"/>
		<text transform="matrix(1 0 0 1 120.3909 75.9451)" class="st1 st2 st3">00</text>
		<text transform="matrix(1 0 0 1 11.2607 75.9451)" class="st1 st2 st3">00</text>
	</g>
	<g>
		<circle class="st1" cx="17.8" cy="69" r="1.8"/>
		<circle class="st1" cx="22.1" cy="69" r="1.8"/>
		<circle class="st1" cx="26.4" cy="69" r="1.8"/>
		<circle class="st1" cx="30.7" cy="69" r="1.8"/>
		<circle class="st1" cx="35" cy="69" r="1.8"/>
		<circle class="st1" cx="39.4" cy="69" r="1.8"/>
		<circle class="st1" cx="43.7" cy="69" r="1.8"/>
		<circle class="st1" cx="48" cy="69" r="1.8"/>
		<circle class="st1" cx="52.3" cy="69" r="1.8"/>
		<circle class="st1" cx="56.7" cy="69" r="1.8"/>
		<circle class="st1" cx="61" cy="69" r="1.8"/>
		<circle class="st1" cx="65.3" cy="69" r="1.8"/>
		<circle class="st1" cx="69.7" cy="69" r="1.8"/>
		<circle class="st1" cx="74" cy="69" r="1.8"/>
		<circle class="st1" cx="78.3" cy="69" r="1.8"/>
		<circle class="st1" cx="82.6" cy="69" r="1.8"/>
		<circle class="st1" cx="87" cy="69" r="1.8"/>
		<circle class="st1" cx="91.3" cy="69" r="1.8"/>
		<circle class="st1" cx="95.6" cy="69" r="1.8"/>
		<circle class="st1" cx="100" cy="69" r="1.8"/>
		<circle class="st1" cx="104.3" cy="69" r="1.8"/>
		<circle class="st1" cx="108.6" cy="69" r="1.8"/>
		<circle class="st1" cx="112.9" cy="69" r="1.8"/>
		<circle class="st1" cx="117.3" cy="69" r="1.8"/>
		<text transform="matrix(1 0 0 1 120.3909 70.0144)" class="st1 st2 st3">00</text>
		<text transform="matrix(1 0 0 1 11.2607 70.0144)" class="st1 st2 st3">00</text>
	</g>
	<g>
		<circle class="st1" cx="17.8" cy="63" r="1.8"/>
		<circle class="st1" cx="22.1" cy="63" r="1.8"/>
		<circle class="st1" cx="26.4" cy="63" r="1.8"/>
		<circle class="st1" cx="30.7" cy="63" r="1.8"/>
		<circle class="st1" cx="35" cy="63" r="1.8"/>
		<circle class="st1" cx="39.4" cy="63" r="1.8"/>
		<circle class="st1" cx="43.7" cy="63" r="1.8"/>
		<circle class="st1" cx="48" cy="63" r="1.8"/>
		<circle class="st1" cx="52.3" cy="63" r="1.8"/>
		<circle class="st1" cx="56.7" cy="63" r="1.8"/>
		<circle class="st1" cx="61" cy="63" r="1.8"/>
		<circle class="st1" cx="65.3" cy="63" r="1.8"/>
		<circle class="st1" cx="69.7" cy="63" r="1.8"/>
		<circle class="st1" cx="74" cy="63" r="1.8"/>
		<circle class="st1" cx="78.3" cy="63" r="1.8"/>
		<circle class="st1" cx="82.6" cy="63" r="1.8"/>
		<circle class="st1" cx="87" cy="63" r="1.8"/>
		<circle class="st1" cx="91.3" cy="63" r="1.8"/>
		<circle class="st1" cx="95.6" cy="63" r="1.8"/>
		<circle class="st1" cx="100" cy="63" r="1.8"/>
		<circle class="st1" cx="104.3" cy="63" r="1.8"/>
		<circle class="st1" cx="108.6" cy="63" r="1.8"/>
		<circle class="st1" cx="112.9" cy="63" r="1.8"/>
		<circle class="st1" cx="117.3" cy="63" r="1.8"/>
		<text transform="matrix(1 0 0 1 120.3909 64.0841)" class="st1 st2 st3">00</text>
		<text transform="matrix(1 0 0 1 11.2607 64.0841)" class="st1 st2 st3">00</text>
	</g>
	<g>
		<circle class="st1" cx="17.8" cy="57.1" r="1.8"/>
		<circle class="st1" cx="22.1" cy="57.1" r="1.8"/>
		<circle class="st1" cx="26.4" cy="57.1" r="1.8"/>
		<circle class="st1" cx="30.7" cy="57.1" r="1.8"/>
		<circle class="st1" cx="35" cy="57.1" r="1.8"/>
		<circle class="st1" cx="39.4" cy="57.1" r="1.8"/>
		<circle class="st1" cx="43.7" cy="57.1" r="1.8"/>
		<circle class="st1" cx="48" cy="57.1" r="1.8"/>
		<circle class="st1" cx="52.3" cy="57.1" r="1.8"/>
		<circle class="st1" cx="56.7" cy="57.1" r="1.8"/>
		<circle class="st1" cx="61" cy="57.1" r="1.8"/>
		<circle class="st1" cx="65.3" cy="57.1" r="1.8"/>
		<circle class="st1" cx="69.7" cy="57.1" r="1.8"/>
		<circle class="st1" cx="74" cy="57.1" r="1.8"/>
		<circle class="st1" cx="78.3" cy="57.1" r="1.8"/>
		<circle class="st1" cx="82.6" cy="57.1" r="1.8"/>
		<circle class="st1" cx="87" cy="57.1" r="1.8"/>
		<circle class="st1" cx="91.3" cy="57.1" r="1.8"/>
		<circle class="st1" cx="95.6" cy="57.1" r="1.8"/>
		<circle class="st1" cx="100" cy="57.1" r="1.8"/>
		<circle class="st1" cx="104.3" cy="57.1" r="1.8"/>
		<circle class="st1" cx="108.6" cy="57.1" r="1.8"/>
		<circle class="st1" cx="112.9" cy="57.1" r="1.8"/>
		<circle class="st1" cx="117.3" cy="57.1" r="1.8"/>
		<text transform="matrix(1 0 0 1 120.3909 58.1538)" class="st1 st2 st3">00</text>
		<text transform="matrix(1 0 0 1 11.2607 58.1538)" class="st1 st2 st3">00</text>
	</g>
	<g>
		<circle class="st1" cx="17.8" cy="51.2" r="1.8"/>
		<circle class="st1" cx="22.1" cy="51.2" r="1.8"/>
		<circle class="st1" cx="26.4" cy="51.2" r="1.8"/>
		<circle class="st1" cx="30.7" cy="51.2" r="1.8"/>
		<circle class="st1" cx="35" cy="51.2" r="1.8"/>
		<circle class="st1" cx="39.4" cy="51.2" r="1.8"/>
		<circle class="st1" cx="43.7" cy="51.2" r="1.8"/>
		<circle class="st1" cx="48" cy="51.2" r="1.8"/>
		<circle class="st1" cx="52.3" cy="51.2" r="1.8"/>
		<circle class="st1" cx="56.7" cy="51.2" r="1.8"/>
		<circle class="st1" cx="61" cy="51.2" r="1.8"/>
		<circle class="st1" cx="65.3" cy="51.2" r="1.8"/>
		<circle class="st1" cx="69.7" cy="51.2" r="1.8"/>
		<circle class="st1" cx="74" cy="51.2" r="1.8"/>
		<circle class="st1" cx="78.3" cy="51.2" r="1.8"/>
		<circle class="st1" cx="82.6" cy="51.2" r="1.8"/>
		<circle class="st1" cx="87" cy="51.2" r="1.8"/>
		<circle class="st1" cx="91.3" cy="51.2" r="1.8"/>
		<circle class="st1" cx="95.6" cy="51.2" r="1.8"/>
		<circle class="st1" cx="100" cy="51.2" r="1.8"/>
		<circle class="st1" cx="104.3" cy="51.2" r="1.8"/>
		<circle class="st1" cx="108.6" cy="51.2" r="1.8"/>
		<circle class="st1" cx="112.9" cy="51.2" r="1.8"/>
		<circle class="st1" cx="117.3" cy="51.2" r="1.8"/>
		<text transform="matrix(1 0 0 1 120.3909 52.2231)" class="st1 st2 st3">00</text>
		<text transform="matrix(1 0 0 1 11.2607 52.2231)" class="st1 st2 st3">00</text>
	</g>
	<g>
		<circle class="st1" cx="17.8" cy="45.2" r="1.8"/>
		<circle class="st1" cx="22.1" cy="45.2" r="1.8"/>
		<circle class="st1" cx="26.4" cy="45.2" r="1.8"/>
		<circle class="st1" cx="30.7" cy="45.2" r="1.8"/>
		<circle class="st1" cx="35" cy="45.2" r="1.8"/>
		<circle class="st1" cx="39.4" cy="45.2" r="1.8"/>
		<circle class="st1" cx="43.7" cy="45.2" r="1.8"/>
		<circle class="st1" cx="48" cy="45.2" r="1.8"/>
		<circle class="st1" cx="52.3" cy="45.2" r="1.8"/>
		<circle class="st1" cx="56.7" cy="45.2" r="1.8"/>
		<circle class="st1" cx="61" cy="45.2" r="1.8"/>
		<circle class="st1" cx="65.3" cy="45.2" r="1.8"/>
		<circle class="st1" cx="69.7" cy="45.2" r="1.8"/>
		<circle class="st1" cx="74" cy="45.2" r="1.8"/>
		<circle class="st1" cx="78.3" cy="45.2" r="1.8"/>
		<circle class="st1" cx="82.6" cy="45.2" r="1.8"/>
		<circle class="st1" cx="87" cy="45.2" r="1.8"/>
		<circle class="st1" cx="91.3" cy="45.2" r="1.8"/>
		<circle class="st1" cx="95.6" cy="45.2" r="1.8"/>
		<circle class="st1" cx="100" cy="45.2" r="1.8"/>
		<circle class="st1" cx="104.3" cy="45.2" r="1.8"/>
		<circle class="st1" cx="108.6" cy="45.2" r="1.8"/>
		<circle class="st1" cx="112.9" cy="45.2" r="1.8"/>
		<circle class="st1" cx="117.3" cy="45.2" r="1.8"/>
		<text transform="matrix(1 0 0 1 120.3909 46.2927)" class="st1 st2 st3">00</text>
		<text transform="matrix(1 0 0 1 11.2607 46.2927)" class="st1 st2 st3">00</text>
	</g>
	<g>
		<circle class="st1" cx="17.8" cy="39.3" r="1.8"/>
		<circle class="st1" cx="22.1" cy="39.3" r="1.8"/>
		<circle class="st1" cx="26.4" cy="39.3" r="1.8"/>
		<circle class="st1" cx="30.7" cy="39.3" r="1.8"/>
		<circle class="st1" cx="35" cy="39.3" r="1.8"/>
		<circle class="st1" cx="39.4" cy="39.3" r="1.8"/>
		<circle class="st1" cx="43.7" cy="39.3" r="1.8"/>
		<circle class="st1" cx="48" cy="39.3" r="1.8"/>
		<circle class="st1" cx="52.3" cy="39.3" r="1.8"/>
		<circle class="st1" cx="56.7" cy="39.3" r="1.8"/>
		<circle class="st1" cx="61" cy="39.3" r="1.8"/>
		<circle class="st1" cx="65.3" cy="39.3" r="1.8"/>
		<circle class="st1" cx="69.7" cy="39.3" r="1.8"/>
		<circle class="st1" cx="74" cy="39.3" r="1.8"/>
		<circle class="st1" cx="78.3" cy="39.3" r="1.8"/>
		<circle class="st1" cx="82.6" cy="39.3" r="1.8"/>
		<circle class="st1" cx="87" cy="39.3" r="1.8"/>
		<circle class="st1" cx="91.3" cy="39.3" r="1.8"/>
		<circle class="st1" cx="95.6" cy="39.3" r="1.8"/>
		<circle class="st1" cx="100" cy="39.3" r="1.8"/>
		<circle class="st1" cx="104.3" cy="39.3" r="1.8"/>
		<circle class="st1" cx="108.6" cy="39.3" r="1.8"/>
		<circle class="st1" cx="112.9" cy="39.3" r="1.8"/>
		<circle class="st1" cx="117.3" cy="39.3" r="1.8"/>
		<text transform="matrix(1 0 0 1 120.3909 40.3623)" class="st1 st2 st3">00</text>
		<text transform="matrix(1 0 0 1 11.2607 40.3623)" class="st1 st2 st3">00</text>
	</g>
	<g>
		<circle class="st1" cx="17.8" cy="33.4" r="1.8"/>
		<circle class="st1" cx="22.1" cy="33.4" r="1.8"/>
		<circle class="st1" cx="26.4" cy="33.4" r="1.8"/>
		<circle class="st1" cx="30.7" cy="33.4" r="1.8"/>
		<circle class="st1" cx="35" cy="33.4" r="1.8"/>
		<circle class="st1" cx="39.4" cy="33.4" r="1.8"/>
		<circle class="st1" cx="43.7" cy="33.4" r="1.8"/>
		<circle class="st1" cx="48" cy="33.4" r="1.8"/>
		<circle class="st1" cx="52.3" cy="33.4" r="1.8"/>
		<circle class="st1" cx="56.7" cy="33.4" r="1.8"/>
		<circle class="st1" cx="61" cy="33.4" r="1.8"/>
		<circle class="st1" cx="65.3" cy="33.4" r="1.8"/>
		<circle class="st1" cx="69.7" cy="33.4" r="1.8"/>
		<circle class="st1" cx="74" cy="33.4" r="1.8"/>
		<circle class="st1" cx="78.3" cy="33.4" r="1.8"/>
		<circle class="st1" cx="82.6" cy="33.4" r="1.8"/>
		<circle class="st1" cx="87" cy="33.4" r="1.8"/>
		<circle class="st1" cx="91.3" cy="33.4" r="1.8"/>
		<circle class="st1" cx="95.6" cy="33.4" r="1.8"/>
		<circle class="st1" cx="100" cy="33.4" r="1.8"/>
		<circle class="st1" cx="104.3" cy="33.4" r="1.8"/>
		<circle class="st1" cx="108.6" cy="33.4" r="1.8"/>
		<circle class="st1" cx="112.9" cy="33.4" r="1.8"/>
		<circle class="st1" cx="117.3" cy="33.4" r="1.8"/>
		<text transform="matrix(1 0 0 1 120.3909 34.4316)" class="st1 st2 st3">00</text>
		<text transform="matrix(1 0 0 1 11.2607 34.4316)" class="st1 st2 st3">00</text>
	</g>
	<g>
		<circle class="st1" cx="35.1" cy="27.5" r="1.8"/>
		<circle class="st1" cx="39.4" cy="27.5" r="1.8"/>
		<circle class="st1" cx="43.7" cy="27.5" r="1.8"/>
		<circle class="st1" cx="48" cy="27.5" r="1.8"/>
		<circle class="st1" cx="52.4" cy="27.5" r="1.8"/>
		<circle class="st1" cx="56.7" cy="27.5" r="1.8"/>
		<circle class="st1" cx="61" cy="27.5" r="1.8"/>
		<circle class="st1" cx="65.3" cy="27.5" r="1.8"/>
		<circle class="st1" cx="69.7" cy="27.5" r="1.8"/>
		<circle class="st1" cx="74" cy="27.5" r="1.8"/>
		<circle class="st1" cx="78.3" cy="27.5" r="1.8"/>
		<circle class="st1" cx="82.6" cy="27.5" r="1.8"/>
		<circle class="st1" cx="87" cy="27.5" r="1.8"/>
		<circle class="st1" cx="91.3" cy="27.5" r="1.8"/>
		<circle class="st1" cx="95.6" cy="27.5" r="1.8"/>
		<circle class="st1" cx="100" cy="27.5" r="1.8"/>
		<circle class="st1" cx="104.3" cy="27.5" r="1.8"/>
		<circle class="st1" cx="108.6" cy="27.5" r="1.8"/>
		<circle class="st1" cx="112.9" cy="27.5" r="1.8"/>
		<circle class="st1" cx="117.3" cy="27.5" r="1.8"/>
		<text transform="matrix(1 0 0 1 120.3909 28.5011)" class="st1 st2 st3">00</text>
		<text transform="matrix(1 0 0 1 28.5408 28.5011)" class="st1 st2 st3">00</text>
	</g>
	<g>
		<circle class="st1" cx="35.1" cy="21.5" r="1.8"/>
		<circle class="st1" cx="39.4" cy="21.5" r="1.8"/>
		<circle class="st1" cx="43.7" cy="21.5" r="1.8"/>
		<circle class="st1" cx="48" cy="21.5" r="1.8"/>
		<circle class="st1" cx="52.4" cy="21.5" r="1.8"/>
		<circle class="st1" cx="56.7" cy="21.5" r="1.8"/>
		<circle class="st1" cx="61" cy="21.5" r="1.8"/>
		<circle class="st1" cx="65.3" cy="21.5" r="1.8"/>
		<circle class="st1" cx="69.7" cy="21.5" r="1.8"/>
		<circle class="st1" cx="74" cy="21.5" r="1.8"/>
		<circle class="st1" cx="78.3" cy="21.5" r="1.8"/>
		<circle class="st1" cx="82.6" cy="21.5" r="1.8"/>
		<circle class="st1" cx="87" cy="21.5" r="1.8"/>
		<circle class="st1" cx="91.3" cy="21.5" r="1.8"/>
		<circle class="st1" cx="95.6" cy="21.5" r="1.8"/>
		<circle class="st1" cx="100" cy="21.5" r="1.8"/>
		<circle class="st1" cx="104.3" cy="21.5" r="1.8"/>
		<circle class="st1" cx="108.6" cy="21.5" r="1.8"/>
		<circle class="st1" cx="112.9" cy="21.5" r="1.8"/>
		<circle class="st1" cx="117.3" cy="21.5" r="1.8"/>
		<text transform="matrix(1 0 0 1 120.3909 22.5707)" class="st1 st2 st3">00</text>
		<text transform="matrix(1 0 0 1 28.5408 22.5707)" class="st1 st2 st3">00</text>
	</g>
	<g>
		<circle class="st1" cx="35.1" cy="15.6" r="1.8"/>
		<circle class="st1" cx="39.4" cy="15.6" r="1.8"/>
		<circle class="st1" cx="43.7" cy="15.6" r="1.8"/>
		<circle class="st1" cx="48" cy="15.6" r="1.8"/>
		<circle class="st1" cx="52.4" cy="15.6" r="1.8"/>
		<circle class="st1" cx="56.7" cy="15.6" r="1.8"/>
		<circle class="st1" cx="61" cy="15.6" r="1.8"/>
		<circle class="st1" cx="65.3" cy="15.6" r="1.8"/>
		<circle class="st1" cx="69.7" cy="15.6" r="1.8"/>
		<circle class="st1" cx="74" cy="15.6" r="1.8"/>
		<circle class="st1" cx="78.3" cy="15.6" r="1.8"/>
		<circle class="st1" cx="82.6" cy="15.6" r="1.8"/>
		<circle class="st1" cx="87" cy="15.6" r="1.8"/>
		<circle class="st1" cx="91.3" cy="15.6" r="1.8"/>
		<circle class="st1" cx="95.6" cy="15.6" r="1.8"/>
		<circle class="st1" cx="100" cy="15.6" r="1.8"/>
		<circle class="st1" cx="104.3" cy="15.6" r="1.8"/>
		<circle class="st1" cx="108.6" cy="15.6" r="1.8"/>
		<circle class="st1" cx="112.9" cy="15.6" r="1.8"/>
		<circle class="st1" cx="117.3" cy="15.6" r="1.8"/>
		<text transform="matrix(1 0 0 1 120.3909 16.6404)" class="st1 st2 st3">00</text>
		<text transform="matrix(1 0 0 1 28.5408 16.6404)" class="st1 st2 st3">00</text>
	</g>
	<g>
		<circle class="st1" cx="35.1" cy="9.7" r="1.8"/>
		<circle class="st1" cx="39.4" cy="9.7" r="1.8"/>
		<circle class="st1" cx="43.7" cy="9.7" r="1.8"/>
		<circle class="st1" cx="48" cy="9.7" r="1.8"/>
		<circle class="st1" cx="52.4" cy="9.7" r="1.8"/>
		<circle class="st1" cx="56.7" cy="9.7" r="1.8"/>
		<circle class="st1" cx="61" cy="9.7" r="1.8"/>
		<circle class="st1" cx="65.3" cy="9.7" r="1.8"/>
		<circle class="st1" cx="69.7" cy="9.7" r="1.8"/>
		<circle class="st1" cx="74" cy="9.7" r="1.8"/>
		<circle class="st1" cx="78.3" cy="9.7" r="1.8"/>
		<circle class="st1" cx="82.6" cy="9.7" r="1.8"/>
		<circle class="st1" cx="87" cy="9.7" r="1.8"/>
		<circle class="st1" cx="91.3" cy="9.7" r="1.8"/>
		<circle class="st1" cx="95.6" cy="9.7" r="1.8"/>
		<circle class="st1" cx="100" cy="9.7" r="1.8"/>
		<circle class="st1" cx="104.3" cy="9.7" r="1.8"/>
		<circle class="st1" cx="108.6" cy="9.7" r="1.8"/>
		<circle class="st1" cx="112.9" cy="9.7" r="1.8"/>
		<circle class="st1" cx="117.3" cy="9.7" r="1.8"/>
		<text transform="matrix(1 0 0 1 120.3909 10.7102)" class="st1 st2 st3">00</text>
		<text transform="matrix(1 0 0 1 28.5408 10.7102)" class="st1 st2 st3">00</text>
	</g>
</g>
</svg>
