<?xml version="1.0" encoding="utf-8"?>
<!-- Generator: Adobe Illustrator 23.0.1, SVG Export Plug-In . SVG Version: 6.00 Build 0)  -->
<svg version="1.1" id="Layer_1" xmlns="http://www.w3.org/2000/svg" xmlns:xlink="http://www.w3.org/1999/xlink" x="0px" y="0px"
	 viewBox="0 0 136 192" style="enable-background:new 0 0 136 192;" xml:space="preserve">
<style type="text/css">
	.st0{fill:#F1F3F4;stroke:#BCC8CE;stroke-width:0.4;stroke-linecap:round;stroke-miterlimit:10;}
	.st1{fill:#AEBDC4;}
	.st2{font-family:'Roboto-Medium';}
	.st3{font-size:3px;}
</style>
<polygon class="st0" points="0.9,191.3 0.9,52.5 135.1,0.8 135.1,191.3 "/>
<g>
	<g>
		<circle class="st1" cx="13.9" cy="182.2" r="1.9"/>
		<circle class="st1" cx="18.2" cy="182.2" r="1.9"/>
		<circle class="st1" cx="22.5" cy="182.2" r="1.9"/>
		<circle class="st1" cx="26.9" cy="182.2" r="1.9"/>
		<circle class="st1" cx="31.2" cy="182.2" r="1.9"/>
		<circle class="st1" cx="35.5" cy="182.2" r="1.9"/>
		<circle class="st1" cx="39.8" cy="182.2" r="1.9"/>
		<circle class="st1" cx="44.2" cy="182.2" r="1.9"/>
		<circle class="st1" cx="48.5" cy="182.2" r="1.9"/>
		<circle class="st1" cx="52.8" cy="182.2" r="1.9"/>
		<circle class="st1" cx="57.1" cy="182.2" r="1.9"/>
		<circle class="st1" cx="61.5" cy="182.2" r="1.9"/>
		<circle class="st1" cx="65.8" cy="182.2" r="1.9"/>
		<circle class="st1" cx="70.1" cy="182.2" r="1.9"/>
		<circle class="st1" cx="74.5" cy="182.2" r="1.9"/>
		<circle class="st1" cx="78.8" cy="182.2" r="1.9"/>
		<circle class="st1" cx="83.1" cy="182.2" r="1.9"/>
		<circle class="st1" cx="87.4" cy="182.2" r="1.9"/>
		<circle class="st1" cx="91.8" cy="182.2" r="1.9"/>
		<circle class="st1" cx="96.1" cy="182.2" r="1.9"/>
		<circle class="st1" cx="100.4" cy="182.2" r="1.9"/>
		<circle class="st1" cx="104.8" cy="182.2" r="1.9"/>
		<circle class="st1" cx="109.1" cy="182.2" r="1.9"/>
		<circle class="st1" cx="113.4" cy="182.2" r="1.9"/>
		<circle class="st1" cx="117.8" cy="182.2" r="1.9"/>
		<circle class="st1" cx="122.1" cy="182.2" r="1.9"/>
		<text transform="matrix(1 0 0 1 125.1909 183.3005)" class="st1 st2 st3">00</text>
		<text transform="matrix(1 0 0 1 7.4009 183.3005)" class="st1 st2 st3">00</text>
	</g>
	<g>
		<circle class="st1" cx="13.9" cy="176.3" r="1.9"/>
		<circle class="st1" cx="18.2" cy="176.3" r="1.9"/>
		<circle class="st1" cx="22.5" cy="176.3" r="1.9"/>
		<circle class="st1" cx="26.9" cy="176.3" r="1.9"/>
		<circle class="st1" cx="31.2" cy="176.3" r="1.9"/>
		<circle class="st1" cx="35.5" cy="176.3" r="1.9"/>
		<circle class="st1" cx="39.8" cy="176.3" r="1.9"/>
		<circle class="st1" cx="44.2" cy="176.3" r="1.9"/>
		<circle class="st1" cx="48.5" cy="176.3" r="1.9"/>
		<circle class="st1" cx="52.8" cy="176.3" r="1.9"/>
		<circle class="st1" cx="57.1" cy="176.3" r="1.9"/>
		<circle class="st1" cx="61.5" cy="176.3" r="1.9"/>
		<circle class="st1" cx="65.8" cy="176.3" r="1.9"/>
		<circle class="st1" cx="70.1" cy="176.3" r="1.9"/>
		<circle class="st1" cx="74.5" cy="176.3" r="1.9"/>
		<circle class="st1" cx="78.8" cy="176.3" r="1.9"/>
		<circle class="st1" cx="83.1" cy="176.3" r="1.9"/>
		<circle class="st1" cx="87.4" cy="176.3" r="1.9"/>
		<circle class="st1" cx="91.8" cy="176.3" r="1.9"/>
		<circle class="st1" cx="96.1" cy="176.3" r="1.9"/>
		<circle class="st1" cx="100.4" cy="176.3" r="1.9"/>
		<circle class="st1" cx="104.8" cy="176.3" r="1.9"/>
		<circle class="st1" cx="109.1" cy="176.3" r="1.9"/>
		<circle class="st1" cx="113.4" cy="176.3" r="1.9"/>
		<circle class="st1" cx="117.8" cy="176.3" r="1.9"/>
		<circle class="st1" cx="122.1" cy="176.3" r="1.9"/>
		<text transform="matrix(1 0 0 1 125.1909 177.3698)" class="st1 st2 st3">00</text>
		<text transform="matrix(1 0 0 1 7.4009 177.3698)" class="st1 st2 st3">00</text>
	</g>
	<g>
		<circle class="st1" cx="13.9" cy="170.4" r="1.9"/>
		<circle class="st1" cx="18.2" cy="170.4" r="1.9"/>
		<circle class="st1" cx="22.5" cy="170.4" r="1.9"/>
		<circle class="st1" cx="26.9" cy="170.4" r="1.9"/>
		<circle class="st1" cx="31.2" cy="170.4" r="1.9"/>
		<circle class="st1" cx="35.5" cy="170.4" r="1.9"/>
		<circle class="st1" cx="39.8" cy="170.4" r="1.9"/>
		<circle class="st1" cx="44.2" cy="170.4" r="1.9"/>
		<circle class="st1" cx="48.5" cy="170.4" r="1.9"/>
		<circle class="st1" cx="52.8" cy="170.4" r="1.9"/>
		<circle class="st1" cx="57.1" cy="170.4" r="1.9"/>
		<circle class="st1" cx="61.5" cy="170.4" r="1.9"/>
		<circle class="st1" cx="65.8" cy="170.4" r="1.9"/>
		<circle class="st1" cx="70.1" cy="170.4" r="1.9"/>
		<circle class="st1" cx="74.5" cy="170.4" r="1.9"/>
		<circle class="st1" cx="78.8" cy="170.4" r="1.9"/>
		<circle class="st1" cx="83.1" cy="170.4" r="1.9"/>
		<circle class="st1" cx="87.4" cy="170.4" r="1.9"/>
		<circle class="st1" cx="91.8" cy="170.4" r="1.9"/>
		<circle class="st1" cx="96.1" cy="170.4" r="1.9"/>
		<circle class="st1" cx="100.4" cy="170.4" r="1.9"/>
		<circle class="st1" cx="104.8" cy="170.4" r="1.9"/>
		<circle class="st1" cx="109.1" cy="170.4" r="1.9"/>
		<circle class="st1" cx="113.4" cy="170.4" r="1.9"/>
		<circle class="st1" cx="117.8" cy="170.4" r="1.9"/>
		<circle class="st1" cx="122.1" cy="170.4" r="1.9"/>
		<text transform="matrix(1 0 0 1 125.1909 171.4387)" class="st1 st2 st3">00</text>
		<text transform="matrix(1 0 0 1 7.4009 171.4387)" class="st1 st2 st3">00</text>
	</g>
	<g>
		<circle class="st1" cx="13.9" cy="164.5" r="1.9"/>
		<circle class="st1" cx="18.2" cy="164.5" r="1.9"/>
		<circle class="st1" cx="22.5" cy="164.5" r="1.9"/>
		<circle class="st1" cx="26.9" cy="164.5" r="1.9"/>
		<circle class="st1" cx="31.2" cy="164.5" r="1.9"/>
		<circle class="st1" cx="35.5" cy="164.5" r="1.9"/>
		<circle class="st1" cx="39.8" cy="164.5" r="1.9"/>
		<circle class="st1" cx="44.2" cy="164.5" r="1.9"/>
		<circle class="st1" cx="48.5" cy="164.5" r="1.9"/>
		<circle class="st1" cx="52.8" cy="164.5" r="1.9"/>
		<circle class="st1" cx="57.1" cy="164.5" r="1.9"/>
		<circle class="st1" cx="61.5" cy="164.5" r="1.9"/>
		<circle class="st1" cx="65.8" cy="164.5" r="1.9"/>
		<circle class="st1" cx="70.1" cy="164.5" r="1.9"/>
		<circle class="st1" cx="74.5" cy="164.5" r="1.9"/>
		<circle class="st1" cx="78.8" cy="164.5" r="1.9"/>
		<circle class="st1" cx="83.1" cy="164.5" r="1.9"/>
		<circle class="st1" cx="87.4" cy="164.5" r="1.9"/>
		<circle class="st1" cx="91.8" cy="164.5" r="1.9"/>
		<circle class="st1" cx="96.1" cy="164.5" r="1.9"/>
		<circle class="st1" cx="100.4" cy="164.5" r="1.9"/>
		<circle class="st1" cx="104.8" cy="164.5" r="1.9"/>
		<circle class="st1" cx="109.1" cy="164.5" r="1.9"/>
		<circle class="st1" cx="113.4" cy="164.5" r="1.9"/>
		<circle class="st1" cx="117.8" cy="164.5" r="1.9"/>
		<circle class="st1" cx="122.1" cy="164.5" r="1.9"/>
		<text transform="matrix(1 0 0 1 125.1909 165.5074)" class="st1 st2 st3">00</text>
		<text transform="matrix(1 0 0 1 7.4009 165.5074)" class="st1 st2 st3">00</text>
	</g>
	<g>
		<circle class="st1" cx="13.9" cy="158.5" r="1.9"/>
		<circle class="st1" cx="18.2" cy="158.5" r="1.9"/>
		<circle class="st1" cx="22.5" cy="158.5" r="1.9"/>
		<circle class="st1" cx="26.9" cy="158.5" r="1.9"/>
		<circle class="st1" cx="31.2" cy="158.5" r="1.9"/>
		<circle class="st1" cx="35.5" cy="158.5" r="1.9"/>
		<circle class="st1" cx="39.8" cy="158.5" r="1.9"/>
		<circle class="st1" cx="44.2" cy="158.5" r="1.9"/>
		<circle class="st1" cx="48.5" cy="158.5" r="1.9"/>
		<circle class="st1" cx="52.8" cy="158.5" r="1.9"/>
		<circle class="st1" cx="57.1" cy="158.5" r="1.9"/>
		<circle class="st1" cx="61.5" cy="158.5" r="1.9"/>
		<circle class="st1" cx="65.8" cy="158.5" r="1.9"/>
		<circle class="st1" cx="70.1" cy="158.5" r="1.9"/>
		<circle class="st1" cx="74.5" cy="158.5" r="1.9"/>
		<circle class="st1" cx="78.8" cy="158.5" r="1.9"/>
		<circle class="st1" cx="83.1" cy="158.5" r="1.9"/>
		<circle class="st1" cx="87.4" cy="158.5" r="1.9"/>
		<circle class="st1" cx="91.8" cy="158.5" r="1.9"/>
		<circle class="st1" cx="96.1" cy="158.5" r="1.9"/>
		<circle class="st1" cx="100.4" cy="158.5" r="1.9"/>
		<circle class="st1" cx="104.8" cy="158.5" r="1.9"/>
		<circle class="st1" cx="109.1" cy="158.5" r="1.9"/>
		<circle class="st1" cx="113.4" cy="158.5" r="1.9"/>
		<circle class="st1" cx="117.8" cy="158.5" r="1.9"/>
		<circle class="st1" cx="122.1" cy="158.5" r="1.9"/>
		<text transform="matrix(1 0 0 1 125.1909 159.5759)" class="st1 st2 st3">00</text>
		<text transform="matrix(1 0 0 1 7.4009 159.5759)" class="st1 st2 st3">00</text>
	</g>
	<g>
		<circle class="st1" cx="22.6" cy="152.6" r="1.9"/>
		<circle class="st1" cx="26.9" cy="152.6" r="1.9"/>
		<circle class="st1" cx="31.2" cy="152.6" r="1.9"/>
		<circle class="st1" cx="35.5" cy="152.6" r="1.9"/>
		<circle class="st1" cx="39.8" cy="152.6" r="1.9"/>
		<circle class="st1" cx="44.2" cy="152.6" r="1.9"/>
		<circle class="st1" cx="48.5" cy="152.6" r="1.9"/>
		<circle class="st1" cx="52.8" cy="152.6" r="1.9"/>
		<circle class="st1" cx="57.1" cy="152.6" r="1.9"/>
		<circle class="st1" cx="61.5" cy="152.6" r="1.9"/>
		<circle class="st1" cx="65.8" cy="152.6" r="1.9"/>
		<circle class="st1" cx="70.1" cy="152.6" r="1.9"/>
		<circle class="st1" cx="74.5" cy="152.6" r="1.9"/>
		<circle class="st1" cx="78.8" cy="152.6" r="1.9"/>
		<circle class="st1" cx="83.1" cy="152.6" r="1.9"/>
		<circle class="st1" cx="87.4" cy="152.6" r="1.9"/>
		<circle class="st1" cx="91.8" cy="152.6" r="1.9"/>
		<circle class="st1" cx="96.1" cy="152.6" r="1.9"/>
		<circle class="st1" cx="100.4" cy="152.6" r="1.9"/>
		<circle class="st1" cx="104.8" cy="152.6" r="1.9"/>
		<circle class="st1" cx="109.1" cy="152.6" r="1.9"/>
		<circle class="st1" cx="113.4" cy="152.6" r="1.9"/>
		<text transform="matrix(1 0 0 1 116.5309 153.6443)" class="st1 st2 st3">00</text>
		<text transform="matrix(1 0 0 1 16.0609 153.6443)" class="st1 st2 st3">00</text>
	</g>
	<g>
		<circle class="st1" cx="22.6" cy="146.7" r="1.9"/>
		<circle class="st1" cx="26.9" cy="146.7" r="1.9"/>
		<circle class="st1" cx="31.2" cy="146.7" r="1.9"/>
		<circle class="st1" cx="35.5" cy="146.7" r="1.9"/>
		<circle class="st1" cx="39.8" cy="146.7" r="1.9"/>
		<circle class="st1" cx="44.2" cy="146.7" r="1.9"/>
		<circle class="st1" cx="48.5" cy="146.7" r="1.9"/>
		<circle class="st1" cx="52.8" cy="146.7" r="1.9"/>
		<circle class="st1" cx="57.1" cy="146.7" r="1.9"/>
		<circle class="st1" cx="61.5" cy="146.7" r="1.9"/>
		<circle class="st1" cx="65.8" cy="146.7" r="1.9"/>
		<circle class="st1" cx="70.1" cy="146.7" r="1.9"/>
		<circle class="st1" cx="74.5" cy="146.7" r="1.9"/>
		<circle class="st1" cx="78.8" cy="146.7" r="1.9"/>
		<circle class="st1" cx="83.1" cy="146.7" r="1.9"/>
		<circle class="st1" cx="87.4" cy="146.7" r="1.9"/>
		<circle class="st1" cx="91.8" cy="146.7" r="1.9"/>
		<circle class="st1" cx="96.1" cy="146.7" r="1.9"/>
		<circle class="st1" cx="100.4" cy="146.7" r="1.9"/>
		<circle class="st1" cx="104.8" cy="146.7" r="1.9"/>
		<circle class="st1" cx="109.1" cy="146.7" r="1.9"/>
		<circle class="st1" cx="113.4" cy="146.7" r="1.9"/>
		<text transform="matrix(1 0 0 1 116.5309 147.7134)" class="st1 st2 st3">00</text>
		<text transform="matrix(1 0 0 1 16.0609 147.7134)" class="st1 st2 st3">00</text>
	</g>
	<g>
		<circle class="st1" cx="22.6" cy="140.7" r="1.9"/>
		<circle class="st1" cx="26.9" cy="140.7" r="1.9"/>
		<circle class="st1" cx="31.2" cy="140.7" r="1.9"/>
		<circle class="st1" cx="35.5" cy="140.7" r="1.9"/>
		<circle class="st1" cx="39.8" cy="140.7" r="1.9"/>
		<circle class="st1" cx="44.2" cy="140.7" r="1.9"/>
		<circle class="st1" cx="48.5" cy="140.7" r="1.9"/>
		<circle class="st1" cx="52.8" cy="140.7" r="1.9"/>
		<circle class="st1" cx="57.1" cy="140.7" r="1.9"/>
		<circle class="st1" cx="61.5" cy="140.7" r="1.9"/>
		<circle class="st1" cx="65.8" cy="140.7" r="1.9"/>
		<circle class="st1" cx="70.1" cy="140.7" r="1.9"/>
		<circle class="st1" cx="74.5" cy="140.7" r="1.9"/>
		<circle class="st1" cx="78.8" cy="140.7" r="1.9"/>
		<circle class="st1" cx="83.1" cy="140.7" r="1.9"/>
		<circle class="st1" cx="87.4" cy="140.7" r="1.9"/>
		<circle class="st1" cx="91.8" cy="140.7" r="1.9"/>
		<circle class="st1" cx="96.1" cy="140.7" r="1.9"/>
		<circle class="st1" cx="100.4" cy="140.7" r="1.9"/>
		<circle class="st1" cx="104.8" cy="140.7" r="1.9"/>
		<circle class="st1" cx="109.1" cy="140.7" r="1.9"/>
		<circle class="st1" cx="113.4" cy="140.7" r="1.9"/>
		<text transform="matrix(1 0 0 1 116.5309 141.7822)" class="st1 st2 st3">00</text>
		<text transform="matrix(1 0 0 1 16.0609 141.7822)" class="st1 st2 st3">00</text>
	</g>
	<g>
		<circle class="st1" cx="22.6" cy="134.8" r="1.9"/>
		<circle class="st1" cx="26.9" cy="134.8" r="1.9"/>
		<circle class="st1" cx="31.2" cy="134.8" r="1.9"/>
		<circle class="st1" cx="35.5" cy="134.8" r="1.9"/>
		<circle class="st1" cx="39.8" cy="134.8" r="1.9"/>
		<circle class="st1" cx="44.2" cy="134.8" r="1.9"/>
		<circle class="st1" cx="48.5" cy="134.8" r="1.9"/>
		<circle class="st1" cx="52.8" cy="134.8" r="1.9"/>
		<circle class="st1" cx="57.1" cy="134.8" r="1.9"/>
		<circle class="st1" cx="61.5" cy="134.8" r="1.9"/>
		<circle class="st1" cx="65.8" cy="134.8" r="1.9"/>
		<circle class="st1" cx="70.1" cy="134.8" r="1.9"/>
		<circle class="st1" cx="74.5" cy="134.8" r="1.9"/>
		<circle class="st1" cx="78.8" cy="134.8" r="1.9"/>
		<circle class="st1" cx="83.1" cy="134.8" r="1.9"/>
		<circle class="st1" cx="87.4" cy="134.8" r="1.9"/>
		<circle class="st1" cx="91.8" cy="134.8" r="1.9"/>
		<circle class="st1" cx="96.1" cy="134.8" r="1.9"/>
		<circle class="st1" cx="100.4" cy="134.8" r="1.9"/>
		<circle class="st1" cx="104.8" cy="134.8" r="1.9"/>
		<circle class="st1" cx="109.1" cy="134.8" r="1.9"/>
		<circle class="st1" cx="113.4" cy="134.8" r="1.9"/>
		<text transform="matrix(1 0 0 1 116.5309 135.851)" class="st1 st2 st3">00</text>
		<text transform="matrix(1 0 0 1 16.0609 135.851)" class="st1 st2 st3">00</text>
	</g>
	<g>
		<circle class="st1" cx="22.6" cy="128.9" r="1.9"/>
		<circle class="st1" cx="26.9" cy="128.9" r="1.9"/>
		<circle class="st1" cx="31.2" cy="128.9" r="1.9"/>
		<circle class="st1" cx="35.5" cy="128.9" r="1.9"/>
		<circle class="st1" cx="39.8" cy="128.9" r="1.9"/>
		<circle class="st1" cx="44.2" cy="128.9" r="1.9"/>
		<circle class="st1" cx="48.5" cy="128.9" r="1.9"/>
		<circle class="st1" cx="52.8" cy="128.9" r="1.9"/>
		<circle class="st1" cx="57.1" cy="128.9" r="1.9"/>
		<circle class="st1" cx="61.5" cy="128.9" r="1.9"/>
		<circle class="st1" cx="65.8" cy="128.9" r="1.9"/>
		<circle class="st1" cx="70.1" cy="128.9" r="1.9"/>
		<circle class="st1" cx="74.5" cy="128.9" r="1.9"/>
		<circle class="st1" cx="78.8" cy="128.9" r="1.9"/>
		<circle class="st1" cx="83.1" cy="128.9" r="1.9"/>
		<circle class="st1" cx="87.4" cy="128.9" r="1.9"/>
		<circle class="st1" cx="91.8" cy="128.9" r="1.9"/>
		<circle class="st1" cx="96.1" cy="128.9" r="1.9"/>
		<circle class="st1" cx="100.4" cy="128.9" r="1.9"/>
		<circle class="st1" cx="104.8" cy="128.9" r="1.9"/>
		<circle class="st1" cx="109.1" cy="128.9" r="1.9"/>
		<circle class="st1" cx="113.4" cy="128.9" r="1.9"/>
		<text transform="matrix(1 0 0 1 116.5309 129.9203)" class="st1 st2 st3">00</text>
		<text transform="matrix(1 0 0 1 16.0609 129.9203)" class="st1 st2 st3">00</text>
	</g>
	<g>
		<circle class="st1" cx="13.9" cy="122.9" r="1.8"/>
		<circle class="st1" cx="18.2" cy="122.9" r="1.8"/>
		<circle class="st1" cx="22.5" cy="122.9" r="1.8"/>
		<circle class="st1" cx="26.9" cy="122.9" r="1.8"/>
		<circle class="st1" cx="31.2" cy="122.9" r="1.8"/>
		<circle class="st1" cx="35.5" cy="122.9" r="1.8"/>
		<circle class="st1" cx="39.8" cy="122.9" r="1.8"/>
		<circle class="st1" cx="44.2" cy="122.9" r="1.8"/>
		<circle class="st1" cx="48.5" cy="122.9" r="1.8"/>
		<circle class="st1" cx="52.8" cy="122.9" r="1.8"/>
		<circle class="st1" cx="57.1" cy="122.9" r="1.8"/>
		<circle class="st1" cx="61.5" cy="122.9" r="1.8"/>
		<circle class="st1" cx="65.8" cy="122.9" r="1.8"/>
		<circle class="st1" cx="70.1" cy="122.9" r="1.8"/>
		<circle class="st1" cx="74.5" cy="122.9" r="1.8"/>
		<circle class="st1" cx="78.8" cy="122.9" r="1.8"/>
		<circle class="st1" cx="83.1" cy="122.9" r="1.8"/>
		<circle class="st1" cx="87.4" cy="122.9" r="1.8"/>
		<circle class="st1" cx="91.8" cy="122.9" r="1.8"/>
		<circle class="st1" cx="96.1" cy="122.9" r="1.8"/>
		<circle class="st1" cx="100.4" cy="122.9" r="1.8"/>
		<circle class="st1" cx="104.8" cy="122.9" r="1.8"/>
		<circle class="st1" cx="109.1" cy="122.9" r="1.8"/>
		<circle class="st1" cx="113.4" cy="122.9" r="1.8"/>
		<circle class="st1" cx="117.8" cy="122.9" r="1.8"/>
		<circle class="st1" cx="122.1" cy="122.9" r="1.8"/>
		<text transform="matrix(1 0 0 1 125.1909 123.9895)" class="st1 st2 st3">00</text>
		<text transform="matrix(1 0 0 1 7.4009 123.9895)" class="st1 st2 st3">00</text>
	</g>
	<g>
		<circle class="st1" cx="13.9" cy="117" r="1.8"/>
		<circle class="st1" cx="18.2" cy="117" r="1.8"/>
		<circle class="st1" cx="22.5" cy="117" r="1.8"/>
		<circle class="st1" cx="26.9" cy="117" r="1.8"/>
		<circle class="st1" cx="31.2" cy="117" r="1.8"/>
		<circle class="st1" cx="35.5" cy="117" r="1.8"/>
		<circle class="st1" cx="39.8" cy="117" r="1.8"/>
		<circle class="st1" cx="44.2" cy="117" r="1.8"/>
		<circle class="st1" cx="48.5" cy="117" r="1.8"/>
		<circle class="st1" cx="52.8" cy="117" r="1.8"/>
		<circle class="st1" cx="57.1" cy="117" r="1.8"/>
		<circle class="st1" cx="61.5" cy="117" r="1.8"/>
		<circle class="st1" cx="65.8" cy="117" r="1.8"/>
		<circle class="st1" cx="70.1" cy="117" r="1.8"/>
		<circle class="st1" cx="74.5" cy="117" r="1.8"/>
		<circle class="st1" cx="78.8" cy="117" r="1.8"/>
		<circle class="st1" cx="83.1" cy="117" r="1.8"/>
		<circle class="st1" cx="87.4" cy="117" r="1.8"/>
		<circle class="st1" cx="91.8" cy="117" r="1.8"/>
		<circle class="st1" cx="96.1" cy="117" r="1.8"/>
		<circle class="st1" cx="100.4" cy="117" r="1.8"/>
		<circle class="st1" cx="104.8" cy="117" r="1.8"/>
		<circle class="st1" cx="109.1" cy="117" r="1.8"/>
		<circle class="st1" cx="113.4" cy="117" r="1.8"/>
		<circle class="st1" cx="117.8" cy="117" r="1.8"/>
		<circle class="st1" cx="122.1" cy="117" r="1.8"/>
		<text transform="matrix(1 0 0 1 125.1909 118.0586)" class="st1 st2 st3">00</text>
		<text transform="matrix(1 0 0 1 7.4009 118.0586)" class="st1 st2 st3">00</text>
	</g>
	<g>
		<circle class="st1" cx="13.9" cy="111.1" r="1.8"/>
		<circle class="st1" cx="18.2" cy="111.1" r="1.8"/>
		<circle class="st1" cx="22.5" cy="111.1" r="1.8"/>
		<circle class="st1" cx="26.9" cy="111.1" r="1.8"/>
		<circle class="st1" cx="31.2" cy="111.1" r="1.8"/>
		<circle class="st1" cx="35.5" cy="111.1" r="1.8"/>
		<circle class="st1" cx="39.8" cy="111.1" r="1.8"/>
		<circle class="st1" cx="44.2" cy="111.1" r="1.8"/>
		<circle class="st1" cx="48.5" cy="111.1" r="1.8"/>
		<circle class="st1" cx="52.8" cy="111.1" r="1.8"/>
		<circle class="st1" cx="57.1" cy="111.1" r="1.8"/>
		<circle class="st1" cx="61.5" cy="111.1" r="1.8"/>
		<circle class="st1" cx="65.8" cy="111.1" r="1.8"/>
		<circle class="st1" cx="70.1" cy="111.1" r="1.8"/>
		<circle class="st1" cx="74.5" cy="111.1" r="1.8"/>
		<circle class="st1" cx="78.8" cy="111.1" r="1.8"/>
		<circle class="st1" cx="83.1" cy="111.1" r="1.8"/>
		<circle class="st1" cx="87.4" cy="111.1" r="1.8"/>
		<circle class="st1" cx="91.8" cy="111.1" r="1.8"/>
		<circle class="st1" cx="96.1" cy="111.1" r="1.8"/>
		<circle class="st1" cx="100.4" cy="111.1" r="1.8"/>
		<circle class="st1" cx="104.8" cy="111.1" r="1.8"/>
		<circle class="st1" cx="109.1" cy="111.1" r="1.8"/>
		<circle class="st1" cx="113.4" cy="111.1" r="1.8"/>
		<circle class="st1" cx="117.8" cy="111.1" r="1.8"/>
		<circle class="st1" cx="122.1" cy="111.1" r="1.8"/>
		<text transform="matrix(1 0 0 1 125.1909 112.1273)" class="st1 st2 st3">00</text>
		<text transform="matrix(1 0 0 1 7.4009 112.1273)" class="st1 st2 st3">00</text>
	</g>
	<g>
		<circle class="st1" cx="13.9" cy="105.1" r="1.8"/>
		<circle class="st1" cx="18.2" cy="105.1" r="1.8"/>
		<circle class="st1" cx="22.5" cy="105.1" r="1.8"/>
		<circle class="st1" cx="26.9" cy="105.1" r="1.8"/>
		<circle class="st1" cx="31.2" cy="105.1" r="1.8"/>
		<circle class="st1" cx="35.5" cy="105.1" r="1.8"/>
		<circle class="st1" cx="39.8" cy="105.1" r="1.8"/>
		<circle class="st1" cx="44.2" cy="105.1" r="1.8"/>
		<circle class="st1" cx="48.5" cy="105.1" r="1.8"/>
		<circle class="st1" cx="52.8" cy="105.1" r="1.8"/>
		<circle class="st1" cx="57.1" cy="105.1" r="1.8"/>
		<circle class="st1" cx="61.5" cy="105.1" r="1.8"/>
		<circle class="st1" cx="65.8" cy="105.1" r="1.8"/>
		<circle class="st1" cx="70.1" cy="105.1" r="1.8"/>
		<circle class="st1" cx="74.5" cy="105.1" r="1.8"/>
		<circle class="st1" cx="78.8" cy="105.1" r="1.8"/>
		<circle class="st1" cx="83.1" cy="105.1" r="1.8"/>
		<circle class="st1" cx="87.4" cy="105.1" r="1.8"/>
		<circle class="st1" cx="91.8" cy="105.1" r="1.8"/>
		<circle class="st1" cx="96.1" cy="105.1" r="1.8"/>
		<circle class="st1" cx="100.4" cy="105.1" r="1.8"/>
		<circle class="st1" cx="104.8" cy="105.1" r="1.8"/>
		<circle class="st1" cx="109.1" cy="105.1" r="1.8"/>
		<circle class="st1" cx="113.4" cy="105.1" r="1.8"/>
		<circle class="st1" cx="117.8" cy="105.1" r="1.8"/>
		<circle class="st1" cx="122.1" cy="105.1" r="1.8"/>
		<text transform="matrix(1 0 0 1 125.1909 106.1959)" class="st1 st2 st3">00</text>
		<text transform="matrix(1 0 0 1 7.4009 106.1959)" class="st1 st2 st3">00</text>
	</g>
	<g>
		<circle class="st1" cx="13.9" cy="99.2" r="1.8"/>
		<circle class="st1" cx="18.2" cy="99.2" r="1.8"/>
		<circle class="st1" cx="22.5" cy="99.2" r="1.8"/>
		<circle class="st1" cx="26.9" cy="99.2" r="1.8"/>
		<circle class="st1" cx="31.2" cy="99.2" r="1.8"/>
		<circle class="st1" cx="35.5" cy="99.2" r="1.8"/>
		<circle class="st1" cx="39.8" cy="99.2" r="1.8"/>
		<circle class="st1" cx="44.2" cy="99.2" r="1.8"/>
		<circle class="st1" cx="48.5" cy="99.2" r="1.8"/>
		<circle class="st1" cx="52.8" cy="99.2" r="1.8"/>
		<circle class="st1" cx="57.1" cy="99.2" r="1.8"/>
		<circle class="st1" cx="61.5" cy="99.2" r="1.8"/>
		<circle class="st1" cx="65.8" cy="99.2" r="1.8"/>
		<circle class="st1" cx="70.1" cy="99.2" r="1.8"/>
		<circle class="st1" cx="74.5" cy="99.2" r="1.8"/>
		<circle class="st1" cx="78.8" cy="99.2" r="1.8"/>
		<circle class="st1" cx="83.1" cy="99.2" r="1.8"/>
		<circle class="st1" cx="87.4" cy="99.2" r="1.8"/>
		<circle class="st1" cx="91.8" cy="99.2" r="1.8"/>
		<circle class="st1" cx="96.1" cy="99.2" r="1.8"/>
		<circle class="st1" cx="100.4" cy="99.2" r="1.8"/>
		<circle class="st1" cx="104.8" cy="99.2" r="1.8"/>
		<circle class="st1" cx="109.1" cy="99.2" r="1.8"/>
		<circle class="st1" cx="113.4" cy="99.2" r="1.8"/>
		<circle class="st1" cx="117.8" cy="99.2" r="1.8"/>
		<circle class="st1" cx="122.1" cy="99.2" r="1.8"/>
		<text transform="matrix(1 0 0 1 125.1909 100.2654)" class="st1 st2 st3">00</text>
		<text transform="matrix(1 0 0 1 7.4009 100.2654)" class="st1 st2 st3">00</text>
	</g>
	<g>
		<circle class="st1" cx="13.9" cy="93.3" r="1.8"/>
		<circle class="st1" cx="18.2" cy="93.3" r="1.8"/>
		<circle class="st1" cx="22.5" cy="93.3" r="1.8"/>
		<circle class="st1" cx="26.9" cy="93.3" r="1.8"/>
		<circle class="st1" cx="31.2" cy="93.3" r="1.8"/>
		<circle class="st1" cx="35.5" cy="93.3" r="1.8"/>
		<circle class="st1" cx="39.8" cy="93.3" r="1.8"/>
		<circle class="st1" cx="44.2" cy="93.3" r="1.8"/>
		<circle class="st1" cx="48.5" cy="93.3" r="1.8"/>
		<circle class="st1" cx="52.8" cy="93.3" r="1.8"/>
		<circle class="st1" cx="57.1" cy="93.3" r="1.8"/>
		<circle class="st1" cx="61.5" cy="93.3" r="1.8"/>
		<circle class="st1" cx="65.8" cy="93.3" r="1.8"/>
		<circle class="st1" cx="70.1" cy="93.3" r="1.8"/>
		<circle class="st1" cx="74.5" cy="93.3" r="1.8"/>
		<circle class="st1" cx="78.8" cy="93.3" r="1.8"/>
		<circle class="st1" cx="83.1" cy="93.3" r="1.8"/>
		<circle class="st1" cx="87.4" cy="93.3" r="1.8"/>
		<circle class="st1" cx="91.8" cy="93.3" r="1.8"/>
		<circle class="st1" cx="96.1" cy="93.3" r="1.8"/>
		<circle class="st1" cx="100.4" cy="93.3" r="1.8"/>
		<circle class="st1" cx="104.8" cy="93.3" r="1.8"/>
		<circle class="st1" cx="109.1" cy="93.3" r="1.8"/>
		<circle class="st1" cx="113.4" cy="93.3" r="1.8"/>
		<circle class="st1" cx="117.8" cy="93.3" r="1.8"/>
		<circle class="st1" cx="122.1" cy="93.3" r="1.8"/>
		<text transform="matrix(1 0 0 1 125.1909 94.3346)" class="st1 st2 st3">00</text>
		<text transform="matrix(1 0 0 1 7.4009 94.3346)" class="st1 st2 st3">00</text>
	</g>
	<g>
		<circle class="st1" cx="13.9" cy="87.4" r="1.8"/>
		<circle class="st1" cx="18.2" cy="87.4" r="1.8"/>
		<circle class="st1" cx="22.5" cy="87.4" r="1.8"/>
		<circle class="st1" cx="26.9" cy="87.4" r="1.8"/>
		<circle class="st1" cx="31.2" cy="87.4" r="1.8"/>
		<circle class="st1" cx="35.5" cy="87.4" r="1.8"/>
		<circle class="st1" cx="39.8" cy="87.4" r="1.8"/>
		<circle class="st1" cx="44.2" cy="87.4" r="1.8"/>
		<circle class="st1" cx="48.5" cy="87.4" r="1.8"/>
		<circle class="st1" cx="52.8" cy="87.4" r="1.8"/>
		<circle class="st1" cx="57.1" cy="87.4" r="1.8"/>
		<circle class="st1" cx="61.5" cy="87.4" r="1.8"/>
		<circle class="st1" cx="65.8" cy="87.4" r="1.8"/>
		<circle class="st1" cx="70.1" cy="87.4" r="1.8"/>
		<circle class="st1" cx="74.5" cy="87.4" r="1.8"/>
		<circle class="st1" cx="78.8" cy="87.4" r="1.8"/>
		<circle class="st1" cx="83.1" cy="87.4" r="1.8"/>
		<circle class="st1" cx="87.4" cy="87.4" r="1.8"/>
		<circle class="st1" cx="91.8" cy="87.4" r="1.8"/>
		<circle class="st1" cx="96.1" cy="87.4" r="1.8"/>
		<circle class="st1" cx="100.4" cy="87.4" r="1.8"/>
		<circle class="st1" cx="104.8" cy="87.4" r="1.8"/>
		<circle class="st1" cx="109.1" cy="87.4" r="1.8"/>
		<circle class="st1" cx="113.4" cy="87.4" r="1.8"/>
		<circle class="st1" cx="117.8" cy="87.4" r="1.8"/>
		<circle class="st1" cx="122.1" cy="87.4" r="1.8"/>
		<text transform="matrix(1 0 0 1 125.1909 88.4036)" class="st1 st2 st3">00</text>
		<text transform="matrix(1 0 0 1 7.4009 88.4036)" class="st1 st2 st3">00</text>
	</g>
	<g>
		<circle class="st1" cx="13.9" cy="81.4" r="1.8"/>
		<circle class="st1" cx="18.2" cy="81.4" r="1.8"/>
		<circle class="st1" cx="22.5" cy="81.4" r="1.8"/>
		<circle class="st1" cx="26.9" cy="81.4" r="1.8"/>
		<circle class="st1" cx="31.2" cy="81.4" r="1.8"/>
		<circle class="st1" cx="35.5" cy="81.4" r="1.8"/>
		<circle class="st1" cx="39.8" cy="81.4" r="1.8"/>
		<circle class="st1" cx="44.2" cy="81.4" r="1.8"/>
		<circle class="st1" cx="48.5" cy="81.4" r="1.8"/>
		<circle class="st1" cx="52.8" cy="81.4" r="1.8"/>
		<circle class="st1" cx="57.1" cy="81.4" r="1.8"/>
		<circle class="st1" cx="61.5" cy="81.4" r="1.8"/>
		<circle class="st1" cx="65.8" cy="81.4" r="1.8"/>
		<circle class="st1" cx="70.1" cy="81.4" r="1.8"/>
		<circle class="st1" cx="74.5" cy="81.4" r="1.8"/>
		<circle class="st1" cx="78.8" cy="81.4" r="1.8"/>
		<circle class="st1" cx="83.1" cy="81.4" r="1.8"/>
		<circle class="st1" cx="87.4" cy="81.4" r="1.8"/>
		<circle class="st1" cx="91.8" cy="81.4" r="1.8"/>
		<circle class="st1" cx="96.1" cy="81.4" r="1.8"/>
		<circle class="st1" cx="100.4" cy="81.4" r="1.8"/>
		<circle class="st1" cx="104.8" cy="81.4" r="1.8"/>
		<circle class="st1" cx="109.1" cy="81.4" r="1.8"/>
		<circle class="st1" cx="113.4" cy="81.4" r="1.8"/>
		<circle class="st1" cx="117.8" cy="81.4" r="1.8"/>
		<circle class="st1" cx="122.1" cy="81.4" r="1.8"/>
		<text transform="matrix(1 0 0 1 125.1909 82.4728)" class="st1 st2 st3">00</text>
		<text transform="matrix(1 0 0 1 7.4009 82.4728)" class="st1 st2 st3">00</text>
	</g>
	<g>
		<circle class="st1" cx="13.9" cy="75.5" r="1.8"/>
		<circle class="st1" cx="18.2" cy="75.5" r="1.8"/>
		<circle class="st1" cx="22.5" cy="75.5" r="1.8"/>
		<circle class="st1" cx="26.9" cy="75.5" r="1.8"/>
		<circle class="st1" cx="31.2" cy="75.5" r="1.8"/>
		<circle class="st1" cx="35.5" cy="75.5" r="1.8"/>
		<circle class="st1" cx="39.8" cy="75.5" r="1.8"/>
		<circle class="st1" cx="44.2" cy="75.5" r="1.8"/>
		<circle class="st1" cx="48.5" cy="75.5" r="1.8"/>
		<circle class="st1" cx="52.8" cy="75.5" r="1.8"/>
		<circle class="st1" cx="57.1" cy="75.5" r="1.8"/>
		<circle class="st1" cx="61.5" cy="75.5" r="1.8"/>
		<circle class="st1" cx="65.8" cy="75.5" r="1.8"/>
		<circle class="st1" cx="70.1" cy="75.5" r="1.8"/>
		<circle class="st1" cx="74.5" cy="75.5" r="1.8"/>
		<circle class="st1" cx="78.8" cy="75.5" r="1.8"/>
		<circle class="st1" cx="83.1" cy="75.5" r="1.8"/>
		<circle class="st1" cx="87.4" cy="75.5" r="1.8"/>
		<circle class="st1" cx="91.8" cy="75.5" r="1.8"/>
		<circle class="st1" cx="96.1" cy="75.5" r="1.8"/>
		<circle class="st1" cx="100.4" cy="75.5" r="1.8"/>
		<circle class="st1" cx="104.8" cy="75.5" r="1.8"/>
		<circle class="st1" cx="109.1" cy="75.5" r="1.8"/>
		<circle class="st1" cx="113.4" cy="75.5" r="1.8"/>
		<circle class="st1" cx="117.8" cy="75.5" r="1.8"/>
		<circle class="st1" cx="122.1" cy="75.5" r="1.8"/>
		<text transform="matrix(1 0 0 1 125.1909 76.5424)" class="st1 st2 st3">00</text>
		<text transform="matrix(1 0 0 1 7.4009 76.5424)" class="st1 st2 st3">00</text>
	</g>
	<g>
		<circle class="st1" cx="26.9" cy="69.6" r="1.8"/>
		<circle class="st1" cx="31.2" cy="69.6" r="1.8"/>
		<circle class="st1" cx="35.5" cy="69.6" r="1.8"/>
		<circle class="st1" cx="39.9" cy="69.6" r="1.8"/>
		<circle class="st1" cx="44.2" cy="69.6" r="1.8"/>
		<circle class="st1" cx="48.5" cy="69.6" r="1.8"/>
		<circle class="st1" cx="52.8" cy="69.6" r="1.8"/>
		<circle class="st1" cx="57.1" cy="69.6" r="1.8"/>
		<circle class="st1" cx="61.5" cy="69.6" r="1.8"/>
		<circle class="st1" cx="65.8" cy="69.6" r="1.8"/>
		<circle class="st1" cx="70.1" cy="69.6" r="1.8"/>
		<circle class="st1" cx="74.5" cy="69.6" r="1.8"/>
		<circle class="st1" cx="78.8" cy="69.6" r="1.8"/>
		<circle class="st1" cx="83.1" cy="69.6" r="1.8"/>
		<circle class="st1" cx="87.4" cy="69.6" r="1.8"/>
		<circle class="st1" cx="91.8" cy="69.6" r="1.8"/>
		<circle class="st1" cx="96.1" cy="69.6" r="1.8"/>
		<circle class="st1" cx="100.4" cy="69.6" r="1.8"/>
		<circle class="st1" cx="104.8" cy="69.6" r="1.8"/>
		<circle class="st1" cx="109.1" cy="69.6" r="1.8"/>
		<circle class="st1" cx="113.4" cy="69.6" r="1.8"/>
		<circle class="st1" cx="117.8" cy="69.6" r="1.8"/>
		<circle class="st1" cx="122.1" cy="69.6" r="1.8"/>
		<text transform="matrix(1 0 0 1 125.1909 70.6117)" class="st1 st2 st3">00</text>
		<text transform="matrix(1 0 0 1 20.4009 70.6117)" class="st1 st2 st3">00</text>
	</g>
	<g>
		<circle class="st1" cx="39.9" cy="63.6" r="1.8"/>
		<circle class="st1" cx="44.2" cy="63.6" r="1.8"/>
		<circle class="st1" cx="48.5" cy="63.6" r="1.8"/>
		<circle class="st1" cx="52.8" cy="63.6" r="1.8"/>
		<circle class="st1" cx="57.2" cy="63.6" r="1.8"/>
		<circle class="st1" cx="61.5" cy="63.6" r="1.8"/>
		<circle class="st1" cx="65.8" cy="63.6" r="1.8"/>
		<circle class="st1" cx="70.1" cy="63.6" r="1.8"/>
		<circle class="st1" cx="74.5" cy="63.6" r="1.8"/>
		<circle class="st1" cx="78.8" cy="63.6" r="1.8"/>
		<circle class="st1" cx="83.1" cy="63.6" r="1.8"/>
		<circle class="st1" cx="87.4" cy="63.6" r="1.8"/>
		<circle class="st1" cx="91.8" cy="63.6" r="1.8"/>
		<circle class="st1" cx="96.1" cy="63.6" r="1.8"/>
		<circle class="st1" cx="100.4" cy="63.6" r="1.8"/>
		<circle class="st1" cx="104.8" cy="63.6" r="1.8"/>
		<circle class="st1" cx="109.1" cy="63.6" r="1.8"/>
		<circle class="st1" cx="113.4" cy="63.6" r="1.8"/>
		<circle class="st1" cx="117.8" cy="63.6" r="1.8"/>
		<circle class="st1" cx="122.1" cy="63.6" r="1.8"/>
		<text transform="matrix(1 0 0 1 125.1909 64.6809)" class="st1 st2 st3">00</text>
		<text transform="matrix(1 0 0 1 33.3909 64.6809)" class="st1 st2 st3">00</text>
	</g>
	<g>
		<circle class="st1" cx="65.9" cy="57.7" r="1.8"/>
		<circle class="st1" cx="70.2" cy="57.7" r="1.8"/>
		<circle class="st1" cx="74.5" cy="57.7" r="1.8"/>
		<circle class="st1" cx="78.8" cy="57.7" r="1.8"/>
		<circle class="st1" cx="83.2" cy="57.7" r="1.8"/>
		<circle class="st1" cx="87.5" cy="57.7" r="1.8"/>
		<circle class="st1" cx="91.8" cy="57.7" r="1.8"/>
		<circle class="st1" cx="96.1" cy="57.7" r="1.8"/>
		<circle class="st1" cx="100.4" cy="57.7" r="1.8"/>
		<circle class="st1" cx="104.8" cy="57.7" r="1.8"/>
		<circle class="st1" cx="109.1" cy="57.7" r="1.8"/>
		<circle class="st1" cx="113.4" cy="57.7" r="1.8"/>
		<circle class="st1" cx="117.8" cy="57.7" r="1.8"/>
		<circle class="st1" cx="122.1" cy="57.7" r="1.8"/>
		<text transform="matrix(1 0 0 1 125.1909 58.7504)" class="st1 st2 st3">00</text>
		<text transform="matrix(1 0 0 1 59.3708 58.7504)" class="st1 st2 st3">00</text>
	</g>
	<g>
		<circle class="st1" cx="74.5" cy="51.8" r="1.8"/>
		<circle class="st1" cx="78.8" cy="51.8" r="1.8"/>
		<circle class="st1" cx="83.2" cy="51.8" r="1.8"/>
		<circle class="st1" cx="87.5" cy="51.8" r="1.8"/>
		<circle class="st1" cx="91.8" cy="51.8" r="1.8"/>
		<circle class="st1" cx="96.1" cy="51.8" r="1.8"/>
		<circle class="st1" cx="100.5" cy="51.8" r="1.8"/>
		<circle class="st1" cx="104.8" cy="51.8" r="1.8"/>
		<circle class="st1" cx="109.1" cy="51.8" r="1.8"/>
		<circle class="st1" cx="113.4" cy="51.8" r="1.8"/>
		<circle class="st1" cx="117.8" cy="51.8" r="1.8"/>
		<circle class="st1" cx="122.1" cy="51.8" r="1.8"/>
		<text transform="matrix(1 0 0 1 125.1909 52.8201)" class="st1 st2 st3">00</text>
		<text transform="matrix(1 0 0 1 68.0309 52.8201)" class="st1 st2 st3">00</text>
	</g>
	<g>
		<circle class="st1" cx="87.5" cy="45.8" r="1.8"/>
		<circle class="st1" cx="91.8" cy="45.8" r="1.8"/>
		<circle class="st1" cx="96.2" cy="45.8" r="1.8"/>
		<circle class="st1" cx="100.5" cy="45.8" r="1.8"/>
		<circle class="st1" cx="104.8" cy="45.8" r="1.8"/>
		<circle class="st1" cx="109.1" cy="45.8" r="1.8"/>
		<circle class="st1" cx="113.4" cy="45.8" r="1.8"/>
		<circle class="st1" cx="117.8" cy="45.8" r="1.8"/>
		<circle class="st1" cx="122.1" cy="45.8" r="1.8"/>
		<text transform="matrix(1 0 0 1 125.1909 46.8896)" class="st1 st2 st3">00</text>
		<text transform="matrix(1 0 0 1 81.0209 46.8896)" class="st1 st2 st3">00</text>
	</g>
</g>
</svg>
