<?xml version="1.0" encoding="utf-8"?>
<!-- Generator: Adobe Illustrator 23.0.1, SVG Export Plug-In . SVG Version: 6.00 Build 0)  -->
<svg version="1.1" id="Layer_1" xmlns="http://www.w3.org/2000/svg" xmlns:xlink="http://www.w3.org/1999/xlink" x="0px" y="0px"
	 viewBox="0 0 104 132" style="enable-background:new 0 0 104 132;" xml:space="preserve">
<style type="text/css">
	.st0{fill:#F1F3F4;stroke:#BCC8CE;stroke-width:0.4;stroke-linecap:round;stroke-miterlimit:10;}
	.st1{fill:#AEBDC4;}
	.st2{font-family:'Roboto-Medium';}
	.st3{font-size:3px;}
</style>
<polygon class="st0" points="43.8,131.4 0.6,0.6 103.5,0.6 103.5,131.4 "/>
<g>
	<g>
		<circle class="st1" cx="55.9" cy="122.3" r="1.8"/>
		<circle class="st1" cx="60.2" cy="122.3" r="1.8"/>
		<circle class="st1" cx="64.5" cy="122.3" r="1.8"/>
		<circle class="st1" cx="68.8" cy="122.3" r="1.8"/>
		<circle class="st1" cx="73.2" cy="122.3" r="1.8"/>
		<circle class="st1" cx="77.5" cy="122.3" r="1.8"/>
		<circle class="st1" cx="81.8" cy="122.3" r="1.8"/>
		<circle class="st1" cx="86.1" cy="122.3" r="1.8"/>
		<circle class="st1" cx="90.5" cy="122.3" r="1.8"/>
		<text transform="matrix(1 0 0 1 93.5609 123.3906)" class="st1 st2 st3">00</text>
		<text transform="matrix(1 0 0 1 49.5234 123.3906)" class="st1 st2 st3">00</text>
	</g>
	<g>
		<circle class="st1" cx="51.6" cy="116.4" r="1.8"/>
		<circle class="st1" cx="55.9" cy="116.4" r="1.8"/>
		<circle class="st1" cx="60.2" cy="116.4" r="1.8"/>
		<circle class="st1" cx="64.5" cy="116.4" r="1.8"/>
		<circle class="st1" cx="68.8" cy="116.4" r="1.8"/>
		<circle class="st1" cx="73.2" cy="116.4" r="1.8"/>
		<circle class="st1" cx="77.5" cy="116.4" r="1.8"/>
		<circle class="st1" cx="81.8" cy="116.4" r="1.8"/>
		<circle class="st1" cx="86.1" cy="116.4" r="1.8"/>
		<circle class="st1" cx="90.5" cy="116.4" r="1.8"/>
		<text transform="matrix(1 0 0 1 93.5609 117.4657)" class="st1 st2 st3">00</text>
		<text transform="matrix(1 0 0 1 45.0308 117.4657)" class="st1 st2 st3">00</text>
	</g>
	<g>
		<circle class="st1" cx="51.6" cy="110.5" r="1.8"/>
		<circle class="st1" cx="55.9" cy="110.5" r="1.8"/>
		<circle class="st1" cx="60.2" cy="110.5" r="1.8"/>
		<circle class="st1" cx="64.5" cy="110.5" r="1.8"/>
		<circle class="st1" cx="68.8" cy="110.5" r="1.8"/>
		<circle class="st1" cx="73.2" cy="110.5" r="1.8"/>
		<circle class="st1" cx="77.5" cy="110.5" r="1.8"/>
		<circle class="st1" cx="81.8" cy="110.5" r="1.8"/>
		<circle class="st1" cx="86.1" cy="110.5" r="1.8"/>
		<circle class="st1" cx="90.5" cy="110.5" r="1.8"/>
		<text transform="matrix(1 0 0 1 93.5609 111.5415)" class="st1 st2 st3">00</text>
		<text transform="matrix(1 0 0 1 45.0308 111.5415)" class="st1 st2 st3">00</text>
	</g>
	<g>
		<circle class="st1" cx="51.6" cy="104.6" r="1.8"/>
		<circle class="st1" cx="55.9" cy="104.6" r="1.8"/>
		<circle class="st1" cx="60.2" cy="104.6" r="1.8"/>
		<circle class="st1" cx="64.5" cy="104.6" r="1.8"/>
		<circle class="st1" cx="68.8" cy="104.6" r="1.8"/>
		<circle class="st1" cx="73.2" cy="104.6" r="1.8"/>
		<circle class="st1" cx="77.5" cy="104.6" r="1.8"/>
		<circle class="st1" cx="81.8" cy="104.6" r="1.8"/>
		<circle class="st1" cx="86.1" cy="104.6" r="1.8"/>
		<circle class="st1" cx="90.5" cy="104.6" r="1.8"/>
		<text transform="matrix(1 0 0 1 93.5609 105.6169)" class="st1 st2 st3">00</text>
		<text transform="matrix(1 0 0 1 45.0308 105.6169)" class="st1 st2 st3">00</text>
	</g>
	<g>
		<circle class="st1" cx="47.2" cy="98.6" r="1.8"/>
		<circle class="st1" cx="51.5" cy="98.6" r="1.8"/>
		<circle class="st1" cx="55.9" cy="98.6" r="1.8"/>
		<circle class="st1" cx="60.2" cy="98.6" r="1.8"/>
		<circle class="st1" cx="64.5" cy="98.6" r="1.8"/>
		<circle class="st1" cx="68.8" cy="98.6" r="1.8"/>
		<circle class="st1" cx="73.2" cy="98.6" r="1.8"/>
		<circle class="st1" cx="77.5" cy="98.6" r="1.8"/>
		<circle class="st1" cx="81.8" cy="98.6" r="1.8"/>
		<circle class="st1" cx="86.1" cy="98.6" r="1.8"/>
		<circle class="st1" cx="90.5" cy="98.6" r="1.8"/>
		<text transform="matrix(1 0 0 1 93.5609 99.692)" class="st1 st2 st3">00</text>
		<text transform="matrix(1 0 0 1 40.7307 99.692)" class="st1 st2 st3">00</text>
	</g>
	<g>
		<circle class="st1" cx="47.2" cy="92.7" r="1.8"/>
		<circle class="st1" cx="51.5" cy="92.7" r="1.8"/>
		<circle class="st1" cx="55.9" cy="92.7" r="1.8"/>
		<circle class="st1" cx="60.2" cy="92.7" r="1.8"/>
		<circle class="st1" cx="64.5" cy="92.7" r="1.8"/>
		<circle class="st1" cx="68.8" cy="92.7" r="1.8"/>
		<circle class="st1" cx="73.2" cy="92.7" r="1.8"/>
		<circle class="st1" cx="77.5" cy="92.7" r="1.8"/>
		<circle class="st1" cx="81.8" cy="92.7" r="1.8"/>
		<circle class="st1" cx="86.1" cy="92.7" r="1.8"/>
		<circle class="st1" cx="90.5" cy="92.7" r="1.8"/>
		<text transform="matrix(1 0 0 1 93.5609 93.7678)" class="st1 st2 st3">00</text>
		<text transform="matrix(1 0 0 1 40.7307 93.7678)" class="st1 st2 st3">00</text>
	</g>
	<g>
		<circle class="st1" cx="42.9" cy="86.8" r="1.8"/>
		<circle class="st1" cx="47.2" cy="86.8" r="1.8"/>
		<circle class="st1" cx="51.5" cy="86.8" r="1.8"/>
		<circle class="st1" cx="55.9" cy="86.8" r="1.8"/>
		<circle class="st1" cx="60.2" cy="86.8" r="1.8"/>
		<circle class="st1" cx="64.5" cy="86.8" r="1.8"/>
		<circle class="st1" cx="68.8" cy="86.8" r="1.8"/>
		<circle class="st1" cx="73.1" cy="86.8" r="1.8"/>
		<circle class="st1" cx="77.5" cy="86.8" r="1.8"/>
		<circle class="st1" cx="81.8" cy="86.8" r="1.8"/>
		<circle class="st1" cx="86.1" cy="86.8" r="1.8"/>
		<circle class="st1" cx="90.5" cy="86.8" r="1.8"/>
		<text transform="matrix(1 0 0 1 93.5609 87.8433)" class="st1 st2 st3">00</text>
		<text transform="matrix(1 0 0 1 36.3907 87.8433)" class="st1 st2 st3">00</text>
	</g>
	<g>
		<circle class="st1" cx="42.9" cy="80.9" r="1.8"/>
		<circle class="st1" cx="47.2" cy="80.9" r="1.8"/>
		<circle class="st1" cx="51.5" cy="80.9" r="1.8"/>
		<circle class="st1" cx="55.9" cy="80.9" r="1.8"/>
		<circle class="st1" cx="60.2" cy="80.9" r="1.8"/>
		<circle class="st1" cx="64.5" cy="80.9" r="1.8"/>
		<circle class="st1" cx="68.8" cy="80.9" r="1.8"/>
		<circle class="st1" cx="73.1" cy="80.9" r="1.8"/>
		<circle class="st1" cx="77.5" cy="80.9" r="1.8"/>
		<circle class="st1" cx="81.8" cy="80.9" r="1.8"/>
		<circle class="st1" cx="86.1" cy="80.9" r="1.8"/>
		<circle class="st1" cx="90.5" cy="80.9" r="1.8"/>
		<text transform="matrix(1 0 0 1 93.5609 81.9183)" class="st1 st2 st3">00</text>
		<text transform="matrix(1 0 0 1 36.3907 81.9183)" class="st1 st2 st3">00</text>
	</g>
	<g>
		<circle class="st1" cx="42.9" cy="74.9" r="1.8"/>
		<circle class="st1" cx="47.2" cy="74.9" r="1.8"/>
		<circle class="st1" cx="51.5" cy="74.9" r="1.8"/>
		<circle class="st1" cx="55.9" cy="74.9" r="1.8"/>
		<circle class="st1" cx="60.2" cy="74.9" r="1.8"/>
		<circle class="st1" cx="64.5" cy="74.9" r="1.8"/>
		<circle class="st1" cx="68.8" cy="74.9" r="1.8"/>
		<circle class="st1" cx="73.1" cy="74.9" r="1.8"/>
		<circle class="st1" cx="77.5" cy="74.9" r="1.8"/>
		<circle class="st1" cx="81.8" cy="74.9" r="1.8"/>
		<circle class="st1" cx="86.1" cy="74.9" r="1.8"/>
		<circle class="st1" cx="90.5" cy="74.9" r="1.8"/>
		<text transform="matrix(1 0 0 1 93.5609 75.9941)" class="st1 st2 st3">00</text>
		<text transform="matrix(1 0 0 1 36.3907 75.9941)" class="st1 st2 st3">00</text>
	</g>
	<g>
		<circle class="st1" cx="38.6" cy="69" r="1.8"/>
		<circle class="st1" cx="42.9" cy="69" r="1.8"/>
		<circle class="st1" cx="47.2" cy="69" r="1.8"/>
		<circle class="st1" cx="51.5" cy="69" r="1.8"/>
		<circle class="st1" cx="55.8" cy="69" r="1.8"/>
		<circle class="st1" cx="60.2" cy="69" r="1.8"/>
		<circle class="st1" cx="64.5" cy="69" r="1.8"/>
		<circle class="st1" cx="68.8" cy="69" r="1.8"/>
		<circle class="st1" cx="73.1" cy="69" r="1.8"/>
		<circle class="st1" cx="77.5" cy="69" r="1.8"/>
		<circle class="st1" cx="81.8" cy="69" r="1.8"/>
		<circle class="st1" cx="86.1" cy="69" r="1.8"/>
		<circle class="st1" cx="90.5" cy="69" r="1.8"/>
		<text transform="matrix(1 0 0 1 93.5609 70.0597)" class="st1 st2 st3">00</text>
		<text transform="matrix(1 0 0 1 32.0608 70.0597)" class="st1 st2 st3">00</text>
	</g>
	<g>
		<circle class="st1" cx="38.6" cy="63.1" r="1.8"/>
		<circle class="st1" cx="42.9" cy="63.1" r="1.8"/>
		<circle class="st1" cx="47.2" cy="63.1" r="1.8"/>
		<circle class="st1" cx="51.5" cy="63.1" r="1.8"/>
		<circle class="st1" cx="55.8" cy="63.1" r="1.8"/>
		<circle class="st1" cx="60.2" cy="63.1" r="1.8"/>
		<circle class="st1" cx="64.5" cy="63.1" r="1.8"/>
		<circle class="st1" cx="68.8" cy="63.1" r="1.8"/>
		<circle class="st1" cx="73.1" cy="63.1" r="1.8"/>
		<circle class="st1" cx="77.5" cy="63.1" r="1.8"/>
		<circle class="st1" cx="81.8" cy="63.1" r="1.8"/>
		<circle class="st1" cx="86.1" cy="63.1" r="1.8"/>
		<circle class="st1" cx="90.5" cy="63.1" r="1.8"/>
		<text transform="matrix(1 0 0 1 93.5609 64.1252)" class="st1 st2 st3">00</text>
		<text transform="matrix(1 0 0 1 32.0608 64.1252)" class="st1 st2 st3">00</text>
	</g>
	<g>
		<circle class="st1" cx="34.2" cy="57.1" r="1.8"/>
		<circle class="st1" cx="38.6" cy="57.1" r="1.8"/>
		<circle class="st1" cx="42.9" cy="57.1" r="1.8"/>
		<circle class="st1" cx="47.2" cy="57.1" r="1.8"/>
		<circle class="st1" cx="51.5" cy="57.1" r="1.8"/>
		<circle class="st1" cx="55.8" cy="57.1" r="1.8"/>
		<circle class="st1" cx="60.2" cy="57.1" r="1.8"/>
		<circle class="st1" cx="64.5" cy="57.1" r="1.8"/>
		<circle class="st1" cx="68.8" cy="57.1" r="1.8"/>
		<circle class="st1" cx="73.1" cy="57.1" r="1.8"/>
		<circle class="st1" cx="77.5" cy="57.1" r="1.8"/>
		<circle class="st1" cx="81.8" cy="57.1" r="1.8"/>
		<circle class="st1" cx="86.1" cy="57.1" r="1.8"/>
		<circle class="st1" cx="90.5" cy="57.1" r="1.8"/>
		<text transform="matrix(1 0 0 1 93.5609 58.1912)" class="st1 st2 st3">00</text>
		<text transform="matrix(1 0 0 1 27.7408 58.1912)" class="st1 st2 st3">00</text>
	</g>
	<g>
		<circle class="st1" cx="34.2" cy="51.2" r="1.8"/>
		<circle class="st1" cx="38.6" cy="51.2" r="1.8"/>
		<circle class="st1" cx="42.9" cy="51.2" r="1.8"/>
		<circle class="st1" cx="47.2" cy="51.2" r="1.8"/>
		<circle class="st1" cx="51.5" cy="51.2" r="1.8"/>
		<circle class="st1" cx="55.8" cy="51.2" r="1.8"/>
		<circle class="st1" cx="60.2" cy="51.2" r="1.8"/>
		<circle class="st1" cx="64.5" cy="51.2" r="1.8"/>
		<circle class="st1" cx="68.8" cy="51.2" r="1.8"/>
		<circle class="st1" cx="73.1" cy="51.2" r="1.8"/>
		<circle class="st1" cx="77.5" cy="51.2" r="1.8"/>
		<circle class="st1" cx="81.8" cy="51.2" r="1.8"/>
		<circle class="st1" cx="86.1" cy="51.2" r="1.8"/>
		<circle class="st1" cx="90.5" cy="51.2" r="1.8"/>
		<text transform="matrix(1 0 0 1 93.5609 52.2571)" class="st1 st2 st3">00</text>
		<text transform="matrix(1 0 0 1 27.7408 52.2571)" class="st1 st2 st3">00</text>
	</g>
	<g>
		<circle class="st1" cx="34.2" cy="45.3" r="1.8"/>
		<circle class="st1" cx="38.6" cy="45.3" r="1.8"/>
		<circle class="st1" cx="42.9" cy="45.3" r="1.8"/>
		<circle class="st1" cx="47.2" cy="45.3" r="1.8"/>
		<circle class="st1" cx="51.5" cy="45.3" r="1.8"/>
		<circle class="st1" cx="55.8" cy="45.3" r="1.8"/>
		<circle class="st1" cx="60.2" cy="45.3" r="1.8"/>
		<circle class="st1" cx="64.5" cy="45.3" r="1.8"/>
		<circle class="st1" cx="68.8" cy="45.3" r="1.8"/>
		<circle class="st1" cx="73.1" cy="45.3" r="1.8"/>
		<circle class="st1" cx="77.5" cy="45.3" r="1.8"/>
		<circle class="st1" cx="81.8" cy="45.3" r="1.8"/>
		<circle class="st1" cx="86.1" cy="45.3" r="1.8"/>
		<circle class="st1" cx="90.5" cy="45.3" r="1.8"/>
		<text transform="matrix(1 0 0 1 93.5609 46.3234)" class="st1 st2 st3">00</text>
		<text transform="matrix(1 0 0 1 27.7408 46.3234)" class="st1 st2 st3">00</text>
	</g>
	<g>
		<circle class="st1" cx="34.2" cy="39.3" r="1.8"/>
		<circle class="st1" cx="38.6" cy="39.3" r="1.8"/>
		<circle class="st1" cx="42.9" cy="39.3" r="1.8"/>
		<circle class="st1" cx="47.2" cy="39.3" r="1.8"/>
		<circle class="st1" cx="51.5" cy="39.3" r="1.8"/>
		<circle class="st1" cx="55.8" cy="39.3" r="1.8"/>
		<circle class="st1" cx="60.2" cy="39.3" r="1.8"/>
		<circle class="st1" cx="64.5" cy="39.3" r="1.8"/>
		<circle class="st1" cx="68.8" cy="39.3" r="1.8"/>
		<circle class="st1" cx="73.1" cy="39.3" r="1.8"/>
		<circle class="st1" cx="77.5" cy="39.3" r="1.8"/>
		<circle class="st1" cx="81.8" cy="39.3" r="1.8"/>
		<circle class="st1" cx="86.1" cy="39.3" r="1.8"/>
		<circle class="st1" cx="90.5" cy="39.3" r="1.8"/>
		<text transform="matrix(1 0 0 1 93.5609 40.3892)" class="st1 st2 st3">00</text>
		<text transform="matrix(1 0 0 1 27.7408 40.3892)" class="st1 st2 st3">00</text>
	</g>
	<g>
		<circle class="st1" cx="34.2" cy="33.4" r="1.8"/>
		<circle class="st1" cx="38.6" cy="33.4" r="1.8"/>
		<circle class="st1" cx="42.9" cy="33.4" r="1.8"/>
		<circle class="st1" cx="47.2" cy="33.4" r="1.8"/>
		<circle class="st1" cx="51.5" cy="33.4" r="1.8"/>
		<circle class="st1" cx="55.8" cy="33.4" r="1.8"/>
		<circle class="st1" cx="60.2" cy="33.4" r="1.8"/>
		<circle class="st1" cx="64.5" cy="33.4" r="1.8"/>
		<circle class="st1" cx="68.8" cy="33.4" r="1.8"/>
		<circle class="st1" cx="73.1" cy="33.4" r="1.8"/>
		<circle class="st1" cx="77.5" cy="33.4" r="1.8"/>
		<circle class="st1" cx="81.8" cy="33.4" r="1.8"/>
		<circle class="st1" cx="86.1" cy="33.4" r="1.8"/>
		<circle class="st1" cx="90.5" cy="33.4" r="1.8"/>
		<text transform="matrix(1 0 0 1 93.5609 34.4552)" class="st1 st2 st3">00</text>
		<text transform="matrix(1 0 0 1 27.7408 34.4552)" class="st1 st2 st3">00</text>
	</g>
	<g>
		<circle class="st1" cx="38.6" cy="27.5" r="1.8"/>
		<circle class="st1" cx="42.9" cy="27.5" r="1.8"/>
		<circle class="st1" cx="47.2" cy="27.5" r="1.8"/>
		<circle class="st1" cx="51.5" cy="27.5" r="1.8"/>
		<circle class="st1" cx="55.8" cy="27.5" r="1.8"/>
		<circle class="st1" cx="60.2" cy="27.5" r="1.8"/>
		<circle class="st1" cx="64.5" cy="27.5" r="1.8"/>
		<circle class="st1" cx="68.8" cy="27.5" r="1.8"/>
		<circle class="st1" cx="73.1" cy="27.5" r="1.8"/>
		<circle class="st1" cx="77.5" cy="27.5" r="1.8"/>
		<circle class="st1" cx="81.8" cy="27.5" r="1.8"/>
		<circle class="st1" cx="86.1" cy="27.5" r="1.8"/>
		<circle class="st1" cx="90.5" cy="27.5" r="1.8"/>
		<text transform="matrix(1 0 0 1 93.5609 28.5215)" class="st1 st2 st3">00</text>
		<text transform="matrix(1 0 0 1 32.0608 28.5215)" class="st1 st2 st3">00</text>
	</g>
	<g>
		<circle class="st1" cx="38.6" cy="21.5" r="1.8"/>
		<circle class="st1" cx="42.9" cy="21.5" r="1.8"/>
		<circle class="st1" cx="47.2" cy="21.5" r="1.8"/>
		<circle class="st1" cx="51.5" cy="21.5" r="1.8"/>
		<circle class="st1" cx="55.8" cy="21.5" r="1.8"/>
		<circle class="st1" cx="60.2" cy="21.5" r="1.8"/>
		<circle class="st1" cx="64.5" cy="21.5" r="1.8"/>
		<circle class="st1" cx="68.8" cy="21.5" r="1.8"/>
		<circle class="st1" cx="73.1" cy="21.5" r="1.8"/>
		<circle class="st1" cx="77.5" cy="21.5" r="1.8"/>
		<circle class="st1" cx="81.8" cy="21.5" r="1.8"/>
		<circle class="st1" cx="86.1" cy="21.5" r="1.8"/>
		<circle class="st1" cx="90.5" cy="21.5" r="1.8"/>
		<text transform="matrix(1 0 0 1 93.5609 22.5874)" class="st1 st2 st3">00</text>
		<text transform="matrix(1 0 0 1 32.0608 22.5874)" class="st1 st2 st3">00</text>
	</g>
	<g>
		<circle class="st1" cx="34.2" cy="15.6" r="1.8"/>
		<circle class="st1" cx="38.6" cy="15.6" r="1.8"/>
		<circle class="st1" cx="42.9" cy="15.6" r="1.8"/>
		<circle class="st1" cx="47.2" cy="15.6" r="1.8"/>
		<circle class="st1" cx="51.5" cy="15.6" r="1.8"/>
		<circle class="st1" cx="55.8" cy="15.6" r="1.8"/>
		<circle class="st1" cx="60.2" cy="15.6" r="1.8"/>
		<circle class="st1" cx="64.5" cy="15.6" r="1.8"/>
		<circle class="st1" cx="68.8" cy="15.6" r="1.8"/>
		<circle class="st1" cx="73.1" cy="15.6" r="1.8"/>
		<circle class="st1" cx="77.5" cy="15.6" r="1.8"/>
		<circle class="st1" cx="81.8" cy="15.6" r="1.8"/>
		<circle class="st1" cx="86.1" cy="15.6" r="1.8"/>
		<circle class="st1" cx="90.5" cy="15.6" r="1.8"/>
		<text transform="matrix(1 0 0 1 93.5609 16.6534)" class="st1 st2 st3">00</text>
		<text transform="matrix(1 0 0 1 27.7408 16.6534)" class="st1 st2 st3">00</text>
	</g>
	<g>
		<circle class="st1" cx="34.2" cy="9.7" r="1.8"/>
		<circle class="st1" cx="38.6" cy="9.7" r="1.8"/>
		<circle class="st1" cx="42.9" cy="9.7" r="1.8"/>
		<circle class="st1" cx="47.2" cy="9.7" r="1.8"/>
		<circle class="st1" cx="51.5" cy="9.7" r="1.8"/>
		<circle class="st1" cx="55.8" cy="9.7" r="1.8"/>
		<circle class="st1" cx="60.2" cy="9.7" r="1.8"/>
		<circle class="st1" cx="64.5" cy="9.7" r="1.8"/>
		<circle class="st1" cx="68.8" cy="9.7" r="1.8"/>
		<circle class="st1" cx="73.1" cy="9.7" r="1.8"/>
		<circle class="st1" cx="77.5" cy="9.7" r="1.8"/>
		<circle class="st1" cx="81.8" cy="9.7" r="1.8"/>
		<circle class="st1" cx="86.1" cy="9.7" r="1.8"/>
		<circle class="st1" cx="90.5" cy="9.7" r="1.8"/>
		<text transform="matrix(1 0 0 1 93.5609 10.7197)" class="st1 st2 st3">00</text>
		<text transform="matrix(1 0 0 1 27.7408 10.7197)" class="st1 st2 st3">00</text>
	</g>
</g>
</svg>
