<?xml version="1.0" encoding="utf-8"?>
<!-- Generator: Adobe Illustrator 23.0.1, SVG Export Plug-In . SVG Version: 6.00 Build 0)  -->
<svg version="1.1" id="Layer_1" xmlns="http://www.w3.org/2000/svg" xmlns:xlink="http://www.w3.org/1999/xlink" x="0px" y="0px"
	 width="61px" height="118px" viewBox="0 0 61 118" enable-background="new 0 0 61 118" xml:space="preserve">
<g onclick="this.parentNode.sekt.push(this);this.a_name=&quot;E 1 (верх)&quot;;">
	
		<polygon onclick="this.parentNode.a_fon=this;" fill="#F1F3F4" stroke="#BCC8CE" stroke-width="0.4" stroke-linecap="round" stroke-miterlimit="10" points="
		0.37,91.95 60.63,117.54 60.63,0.35 0.37,0.35 	"/>
	<g onclick="this.parentNode.a_row=this;">
		
			<line onclick="this.a_par={beg_namb:1,quant:10};" fill="none" stroke="#D3DBDF" stroke-width="0.4" stroke-miterlimit="10" x1="9.16" y1="9.42" x2="51.75" y2="9.42"/>
		
			<line onclick="this.a_par={beg_namb:1,quant:10};" fill="none" stroke="#D3DBDF" stroke-width="0.4" stroke-miterlimit="10" x1="9.16" y1="15.35" x2="51.75" y2="15.35"/>
		
			<line onclick="this.a_par={beg_namb:1,quant:10};" fill="none" stroke="#D3DBDF" stroke-width="0.4" stroke-miterlimit="10" x1="9.16" y1="21.28" x2="51.75" y2="21.28"/>
		
			<line onclick="this.a_par={beg_namb:1,quant:10};" fill="none" stroke="#D3DBDF" stroke-width="0.4" stroke-miterlimit="10" x1="9.16" y1="27.21" x2="51.75" y2="27.21"/>
		
			<line onclick="this.a_par={beg_namb:1,quant:10};" fill="none" stroke="#D3DBDF" stroke-width="0.4" stroke-miterlimit="10" x1="9.16" y1="33.14" x2="51.75" y2="33.14"/>
		
			<line onclick="this.a_par={beg_namb:1,quant:8};" fill="none" stroke="#D3DBDF" stroke-width="0.4" stroke-miterlimit="10" x1="9.16" y1="39.07" x2="43.1" y2="39.07"/>
		
			<line onclick="this.a_par={beg_namb:1,quant:8};" fill="none" stroke="#D3DBDF" stroke-width="0.4" stroke-miterlimit="10" x1="9.16" y1="45.01" x2="43.1" y2="45.01"/>
		
			<line onclick="this.a_par={beg_namb:1,quant:8};" fill="none" stroke="#D3DBDF" stroke-width="0.4" stroke-miterlimit="10" x1="9.16" y1="50.94" x2="43.1" y2="50.94"/>
		
			<line onclick="this.a_par={beg_namb:1,quant:8};" fill="none" stroke="#D3DBDF" stroke-width="0.4" stroke-miterlimit="10" x1="9.16" y1="56.87" x2="43.1" y2="56.87"/>
		
			<line onclick="this.a_par={beg_namb:1,quant:8};" fill="none" stroke="#D3DBDF" stroke-width="0.4" stroke-miterlimit="10" x1="9.16" y1="62.8" x2="43.1" y2="62.8"/>
		
			<line onclick="this.a_par={beg_namb:1,quant:10};" fill="none" stroke="#D3DBDF" stroke-width="0.4" stroke-miterlimit="10" x1="9.16" y1="68.73" x2="51.75" y2="68.73"/>
		
			<line onclick="this.a_par={beg_namb:1,quant:10};" fill="none" stroke="#D3DBDF" stroke-width="0.4" stroke-miterlimit="10" x1="9.16" y1="74.66" x2="51.75" y2="74.66"/>
		
			<line onclick="this.a_par={beg_namb:1,quant:10};" fill="none" stroke="#D3DBDF" stroke-width="0.4" stroke-miterlimit="10" x1="9.16" y1="80.59" x2="51.75" y2="80.59"/>
		
			<line onclick="this.a_par={beg_namb:1,quant:10};" fill="none" stroke="#D3DBDF" stroke-width="0.4" stroke-miterlimit="10" x1="9.16" y1="86.52" x2="51.75" y2="86.52"/>
		
			<line onclick="this.a_par={beg_namb:1,quant:6};" fill="none" stroke="#D3DBDF" stroke-width="0.4" stroke-miterlimit="10" x1="26.48" y1="92.45" x2="51.78" y2="92.45"/>
		
			<line onclick="this.a_par={beg_namb:1,quant:3};" fill="none" stroke="#D3DBDF" stroke-width="0.4" stroke-miterlimit="10" x1="39.47" y1="98.38" x2="51.81" y2="98.38"/>
	</g>
	<g>
		<g>
			<circle fill="#AEBDC4" cx="41.32" cy="98.38" r="1.85"/>
			<circle fill="#AEBDC4" cx="45.64" cy="98.38" r="1.85"/>
			<circle fill="#AEBDC4" cx="49.96" cy="98.38" r="1.85"/>
		</g>
		<g>
			<circle fill="#AEBDC4" cx="28.33" cy="92.45" r="1.85"/>
			<circle fill="#AEBDC4" cx="32.65" cy="92.45" r="1.85"/>
			<circle fill="#AEBDC4" cx="36.97" cy="92.45" r="1.85"/>
			<circle fill="#AEBDC4" cx="41.29" cy="92.45" r="1.85"/>
			<circle fill="#AEBDC4" cx="45.61" cy="92.45" r="1.85"/>
			<circle fill="#AEBDC4" cx="49.94" cy="92.45" r="1.85"/>
		</g>
		<g>
			<circle fill="#AEBDC4" cx="11.01" cy="39.07" r="1.85"/>
			<circle fill="#AEBDC4" cx="15.33" cy="39.07" r="1.85"/>
			<circle fill="#AEBDC4" cx="19.65" cy="39.07" r="1.85"/>
			<circle fill="#AEBDC4" cx="23.97" cy="39.07" r="1.85"/>
			<circle fill="#AEBDC4" cx="28.29" cy="39.07" r="1.85"/>
			<circle fill="#AEBDC4" cx="32.61" cy="39.07" r="1.85"/>
			<circle fill="#AEBDC4" cx="36.93" cy="39.07" r="1.85"/>
			<circle fill="#AEBDC4" cx="41.25" cy="39.07" r="1.85"/>
		</g>
		<g>
			<circle fill="#AEBDC4" cx="11.01" cy="45.01" r="1.85"/>
			<circle fill="#AEBDC4" cx="15.33" cy="45.01" r="1.85"/>
			<circle fill="#AEBDC4" cx="19.65" cy="45.01" r="1.85"/>
			<circle fill="#AEBDC4" cx="23.97" cy="45.01" r="1.85"/>
			<circle fill="#AEBDC4" cx="28.29" cy="45.01" r="1.85"/>
			<circle fill="#AEBDC4" cx="32.61" cy="45.01" r="1.85"/>
			<circle fill="#AEBDC4" cx="36.93" cy="45.01" r="1.85"/>
			<circle fill="#AEBDC4" cx="41.25" cy="45.01" r="1.85"/>
		</g>
		<g>
			<circle fill="#AEBDC4" cx="11.01" cy="50.94" r="1.85"/>
			<circle fill="#AEBDC4" cx="15.33" cy="50.94" r="1.85"/>
			<circle fill="#AEBDC4" cx="19.65" cy="50.94" r="1.85"/>
			<circle fill="#AEBDC4" cx="23.97" cy="50.94" r="1.85"/>
			<circle fill="#AEBDC4" cx="28.29" cy="50.94" r="1.85"/>
			<circle fill="#AEBDC4" cx="32.61" cy="50.94" r="1.85"/>
			<circle fill="#AEBDC4" cx="36.93" cy="50.94" r="1.85"/>
			<circle fill="#AEBDC4" cx="41.25" cy="50.94" r="1.85"/>
		</g>
		<g>
			<circle fill="#AEBDC4" cx="11.01" cy="62.8" r="1.85"/>
			<circle fill="#AEBDC4" cx="15.33" cy="62.8" r="1.85"/>
			<circle fill="#AEBDC4" cx="19.65" cy="62.8" r="1.85"/>
			<circle fill="#AEBDC4" cx="23.97" cy="62.8" r="1.85"/>
			<circle fill="#AEBDC4" cx="28.29" cy="62.8" r="1.85"/>
			<circle fill="#AEBDC4" cx="32.61" cy="62.8" r="1.85"/>
			<circle fill="#AEBDC4" cx="36.93" cy="62.8" r="1.85"/>
			<circle fill="#AEBDC4" cx="41.25" cy="62.8" r="1.85"/>
		</g>
		<g>
			<circle fill="#AEBDC4" cx="11.01" cy="56.87" r="1.85"/>
			<circle fill="#AEBDC4" cx="15.33" cy="56.87" r="1.85"/>
			<circle fill="#AEBDC4" cx="19.65" cy="56.87" r="1.85"/>
			<circle fill="#AEBDC4" cx="23.97" cy="56.87" r="1.85"/>
			<circle fill="#AEBDC4" cx="28.29" cy="56.87" r="1.85"/>
			<circle fill="#AEBDC4" cx="32.61" cy="56.87" r="1.85"/>
			<circle fill="#AEBDC4" cx="36.93" cy="56.87" r="1.85"/>
			<circle fill="#AEBDC4" cx="41.25" cy="56.87" r="1.85"/>
		</g>
		<g>
			<circle fill="#AEBDC4" cx="11.01" cy="9.42" r="1.85"/>
			<circle fill="#AEBDC4" cx="15.33" cy="9.42" r="1.85"/>
			<circle fill="#AEBDC4" cx="19.65" cy="9.42" r="1.85"/>
			<circle fill="#AEBDC4" cx="23.97" cy="9.42" r="1.85"/>
			<circle fill="#AEBDC4" cx="28.29" cy="9.42" r="1.85"/>
			<circle fill="#AEBDC4" cx="32.61" cy="9.42" r="1.85"/>
			<circle fill="#AEBDC4" cx="36.93" cy="9.42" r="1.85"/>
			<circle fill="#AEBDC4" cx="41.25" cy="9.42" r="1.85"/>
			<circle fill="#AEBDC4" cx="45.58" cy="9.42" r="1.85"/>
			<circle fill="#AEBDC4" cx="49.91" cy="9.42" r="1.85"/>
		</g>
		<g>
			<circle fill="#AEBDC4" cx="11.01" cy="15.35" r="1.85"/>
			<circle fill="#AEBDC4" cx="15.33" cy="15.35" r="1.85"/>
			<circle fill="#AEBDC4" cx="19.65" cy="15.35" r="1.85"/>
			<circle fill="#AEBDC4" cx="23.97" cy="15.35" r="1.85"/>
			<circle fill="#AEBDC4" cx="28.29" cy="15.35" r="1.85"/>
			<circle fill="#AEBDC4" cx="32.61" cy="15.35" r="1.85"/>
			<circle fill="#AEBDC4" cx="36.93" cy="15.35" r="1.85"/>
			<circle fill="#AEBDC4" cx="41.25" cy="15.35" r="1.85"/>
			<circle fill="#AEBDC4" cx="45.58" cy="15.35" r="1.85"/>
			<circle fill="#AEBDC4" cx="49.91" cy="15.35" r="1.85"/>
		</g>
		<g>
			<circle fill="#AEBDC4" cx="11.01" cy="21.28" r="1.85"/>
			<circle fill="#AEBDC4" cx="15.33" cy="21.28" r="1.85"/>
			<circle fill="#AEBDC4" cx="19.65" cy="21.28" r="1.85"/>
			<circle fill="#AEBDC4" cx="23.97" cy="21.28" r="1.85"/>
			<circle fill="#AEBDC4" cx="28.29" cy="21.28" r="1.85"/>
			<circle fill="#AEBDC4" cx="32.61" cy="21.28" r="1.85"/>
			<circle fill="#AEBDC4" cx="36.93" cy="21.28" r="1.85"/>
			<circle fill="#AEBDC4" cx="41.25" cy="21.28" r="1.85"/>
			<circle fill="#AEBDC4" cx="45.58" cy="21.28" r="1.85"/>
			<circle fill="#AEBDC4" cx="49.91" cy="21.28" r="1.85"/>
		</g>
		<g>
			<circle fill="#AEBDC4" cx="11.01" cy="27.21" r="1.85"/>
			<circle fill="#AEBDC4" cx="15.33" cy="27.21" r="1.85"/>
			<circle fill="#AEBDC4" cx="19.65" cy="27.21" r="1.85"/>
			<circle fill="#AEBDC4" cx="23.97" cy="27.21" r="1.85"/>
			<circle fill="#AEBDC4" cx="28.29" cy="27.21" r="1.85"/>
			<circle fill="#AEBDC4" cx="32.61" cy="27.21" r="1.85"/>
			<circle fill="#AEBDC4" cx="36.93" cy="27.21" r="1.85"/>
			<circle fill="#AEBDC4" cx="41.25" cy="27.21" r="1.85"/>
			<circle fill="#AEBDC4" cx="45.58" cy="27.21" r="1.85"/>
			<circle fill="#AEBDC4" cx="49.91" cy="27.21" r="1.85"/>
		</g>
		<g>
			<circle fill="#AEBDC4" cx="11.01" cy="33.14" r="1.85"/>
			<circle fill="#AEBDC4" cx="15.33" cy="33.14" r="1.85"/>
			<circle fill="#AEBDC4" cx="19.65" cy="33.14" r="1.85"/>
			<circle fill="#AEBDC4" cx="23.97" cy="33.14" r="1.85"/>
			<circle fill="#AEBDC4" cx="28.29" cy="33.14" r="1.85"/>
			<circle fill="#AEBDC4" cx="32.61" cy="33.14" r="1.85"/>
			<circle fill="#AEBDC4" cx="36.93" cy="33.14" r="1.85"/>
			<circle fill="#AEBDC4" cx="41.25" cy="33.14" r="1.85"/>
			<circle fill="#AEBDC4" cx="45.58" cy="33.14" r="1.85"/>
			<circle fill="#AEBDC4" cx="49.91" cy="33.14" r="1.85"/>
		</g>
		<g>
			<circle fill="#AEBDC4" cx="11.01" cy="80.59" r="1.85"/>
			<circle fill="#AEBDC4" cx="15.33" cy="80.59" r="1.85"/>
			<circle fill="#AEBDC4" cx="19.65" cy="80.59" r="1.85"/>
			<circle fill="#AEBDC4" cx="23.97" cy="80.59" r="1.85"/>
			<circle fill="#AEBDC4" cx="28.29" cy="80.59" r="1.85"/>
			<circle fill="#AEBDC4" cx="32.61" cy="80.59" r="1.85"/>
			<circle fill="#AEBDC4" cx="36.93" cy="80.59" r="1.85"/>
			<circle fill="#AEBDC4" cx="41.25" cy="80.59" r="1.85"/>
			<circle fill="#AEBDC4" cx="45.58" cy="80.59" r="1.85"/>
			<circle fill="#AEBDC4" cx="49.91" cy="80.59" r="1.85"/>
		</g>
		<g>
			<circle fill="#AEBDC4" cx="11.01" cy="74.66" r="1.85"/>
			<circle fill="#AEBDC4" cx="15.33" cy="74.66" r="1.85"/>
			<circle fill="#AEBDC4" cx="19.65" cy="74.66" r="1.85"/>
			<circle fill="#AEBDC4" cx="23.97" cy="74.66" r="1.85"/>
			<circle fill="#AEBDC4" cx="28.29" cy="74.66" r="1.85"/>
			<circle fill="#AEBDC4" cx="32.61" cy="74.66" r="1.85"/>
			<circle fill="#AEBDC4" cx="36.93" cy="74.66" r="1.85"/>
			<circle fill="#AEBDC4" cx="41.25" cy="74.66" r="1.85"/>
			<circle fill="#AEBDC4" cx="45.58" cy="74.66" r="1.85"/>
			<circle fill="#AEBDC4" cx="49.91" cy="74.66" r="1.85"/>
		</g>
		<g>
			<circle fill="#AEBDC4" cx="11.01" cy="68.73" r="1.85"/>
			<circle fill="#AEBDC4" cx="15.33" cy="68.73" r="1.85"/>
			<circle fill="#AEBDC4" cx="19.65" cy="68.73" r="1.85"/>
			<circle fill="#AEBDC4" cx="23.97" cy="68.73" r="1.85"/>
			<circle fill="#AEBDC4" cx="28.29" cy="68.73" r="1.85"/>
			<circle fill="#AEBDC4" cx="32.61" cy="68.73" r="1.85"/>
			<circle fill="#AEBDC4" cx="36.93" cy="68.73" r="1.85"/>
			<circle fill="#AEBDC4" cx="41.25" cy="68.73" r="1.85"/>
			<circle fill="#AEBDC4" cx="45.58" cy="68.73" r="1.85"/>
			<circle fill="#AEBDC4" cx="49.91" cy="68.73" r="1.85"/>
		</g>
		<g>
			<circle fill="#AEBDC4" cx="11.01" cy="86.52" r="1.85"/>
			<circle fill="#AEBDC4" cx="15.33" cy="86.52" r="1.85"/>
			<circle fill="#AEBDC4" cx="19.65" cy="86.52" r="1.85"/>
			<circle fill="#AEBDC4" cx="23.97" cy="86.52" r="1.85"/>
			<circle fill="#AEBDC4" cx="28.29" cy="86.52" r="1.85"/>
			<circle fill="#AEBDC4" cx="32.61" cy="86.52" r="1.85"/>
			<circle fill="#AEBDC4" cx="36.93" cy="86.52" r="1.85"/>
			<circle fill="#AEBDC4" cx="41.25" cy="86.52" r="1.85"/>
			<circle fill="#AEBDC4" cx="45.58" cy="86.52" r="1.85"/>
			<circle fill="#AEBDC4" cx="49.91" cy="86.52" r="1.85"/>
		</g>
	</g>
	<g onclick="this.parentNode.a_text=this;">
		<text transform="matrix(0.9999 0 0 1 22.0577 47.0333)"><tspan x="0" y="0" font-family="'OpenSans-Semibold'" font-size="6.3996px">E 1</tspan><tspan x="-5.52" y="7.2" font-family="'OpenSans-Semibold'" font-size="6.3996px">(</tspan><tspan x="-3.48" y="7.2" font-family="'OpenSans-Semibold'" font-size="6.3996px">в</tspan><tspan x="0.64" y="7.2" font-family="'OpenSans-Semibold'" font-size="6.3996px">е</tspan><tspan x="4.56" y="7.2" font-family="'OpenSans-Semibold'" font-size="6.3996px">рх</tspan><tspan x="12.38" y="7.2" font-family="'OpenSans-Semibold'" font-size="6.3996px">)</tspan></text>
	</g>
</g>
</svg>
