<?xml version="1.0" encoding="utf-8"?>
<!-- Generator: Adobe Illustrator 23.0.1, SVG Export Plug-In . SVG Version: 6.00 Build 0)  -->
<svg version="1.1" id="Layer_1" xmlns="http://www.w3.org/2000/svg" xmlns:xlink="http://www.w3.org/1999/xlink" x="0px" y="0px"
	 viewBox="0 0 113 167" enable-background="new 0 0 113 167" xml:space="preserve">
<g onclick="&quot;E 1 (низ)&quot;;">
	
		<polygon fill="#F1F3F4" stroke="#BCC8CE" stroke-width="0.4" stroke-linecap="round" stroke-miterlimit="10" points="
		0.4,166.7 52.3,0.3 112.7,0.3 112.7,166.7 	"/>
	<g>
		<circle fill="#AEBDC4" cx="60.8" cy="157.6" r="1.9"/>
		<circle fill="#AEBDC4" cx="65.1" cy="157.6" r="1.9"/>
		<circle fill="#AEBDC4" cx="69.4" cy="157.6" r="1.9"/>
		<circle fill="#AEBDC4" cx="73.7" cy="157.6" r="1.9"/>
		<circle fill="#AEBDC4" cx="78.1" cy="157.6" r="1.9"/>
		<circle fill="#AEBDC4" cx="82.4" cy="157.6" r="1.9"/>
		<circle fill="#AEBDC4" cx="86.7" cy="157.6" r="1.9"/>
		<circle fill="#AEBDC4" cx="91" cy="157.6" r="1.9"/>
		<circle fill="#AEBDC4" cx="95.3" cy="157.6" r="1.9"/>
		<circle fill="#AEBDC4" cx="99.7" cy="157.6" r="1.9"/>
	</g>
	<g>
		<circle fill="#AEBDC4" cx="60.8" cy="151.7" r="1.9"/>
		<circle fill="#AEBDC4" cx="65.1" cy="151.7" r="1.9"/>
		<circle fill="#AEBDC4" cx="69.4" cy="151.7" r="1.9"/>
		<circle fill="#AEBDC4" cx="73.7" cy="151.7" r="1.9"/>
		<circle fill="#AEBDC4" cx="78.1" cy="151.7" r="1.9"/>
		<circle fill="#AEBDC4" cx="82.4" cy="151.7" r="1.9"/>
		<circle fill="#AEBDC4" cx="86.7" cy="151.7" r="1.9"/>
		<circle fill="#AEBDC4" cx="91" cy="151.7" r="1.9"/>
		<circle fill="#AEBDC4" cx="95.3" cy="151.7" r="1.9"/>
		<circle fill="#AEBDC4" cx="99.7" cy="151.7" r="1.9"/>
	</g>
	<g>
		<circle fill="#AEBDC4" cx="60.8" cy="145.8" r="1.9"/>
		<circle fill="#AEBDC4" cx="65.1" cy="145.8" r="1.9"/>
		<circle fill="#AEBDC4" cx="69.4" cy="145.8" r="1.9"/>
		<circle fill="#AEBDC4" cx="73.7" cy="145.8" r="1.9"/>
		<circle fill="#AEBDC4" cx="78.1" cy="145.8" r="1.9"/>
		<circle fill="#AEBDC4" cx="82.4" cy="145.8" r="1.9"/>
		<circle fill="#AEBDC4" cx="86.7" cy="145.8" r="1.9"/>
		<circle fill="#AEBDC4" cx="91" cy="145.8" r="1.9"/>
		<circle fill="#AEBDC4" cx="95.3" cy="145.8" r="1.9"/>
		<circle fill="#AEBDC4" cx="99.7" cy="145.8" r="1.9"/>
	</g>
	<g>
		<circle fill="#AEBDC4" cx="60.8" cy="139.9" r="1.9"/>
		<circle fill="#AEBDC4" cx="65.1" cy="139.9" r="1.9"/>
		<circle fill="#AEBDC4" cx="69.4" cy="139.9" r="1.9"/>
		<circle fill="#AEBDC4" cx="73.7" cy="139.9" r="1.9"/>
		<circle fill="#AEBDC4" cx="78.1" cy="139.9" r="1.9"/>
		<circle fill="#AEBDC4" cx="82.4" cy="139.9" r="1.9"/>
		<circle fill="#AEBDC4" cx="86.7" cy="139.9" r="1.9"/>
		<circle fill="#AEBDC4" cx="91" cy="139.9" r="1.9"/>
	</g>
	<g>
		<circle fill="#AEBDC4" cx="60.8" cy="133.9" r="1.9"/>
		<circle fill="#AEBDC4" cx="65.1" cy="133.9" r="1.9"/>
		<circle fill="#AEBDC4" cx="69.4" cy="133.9" r="1.9"/>
		<circle fill="#AEBDC4" cx="73.7" cy="133.9" r="1.9"/>
		<circle fill="#AEBDC4" cx="78.1" cy="133.9" r="1.9"/>
		<circle fill="#AEBDC4" cx="82.4" cy="133.9" r="1.9"/>
		<circle fill="#AEBDC4" cx="86.7" cy="133.9" r="1.9"/>
		<circle fill="#AEBDC4" cx="91" cy="133.9" r="1.9"/>
	</g>
	<g>
		<circle fill="#AEBDC4" cx="60.8" cy="128" r="1.8"/>
		<circle fill="#AEBDC4" cx="65.1" cy="128" r="1.8"/>
		<circle fill="#AEBDC4" cx="69.4" cy="128" r="1.8"/>
		<circle fill="#AEBDC4" cx="73.7" cy="128" r="1.8"/>
		<circle fill="#AEBDC4" cx="78.1" cy="128" r="1.8"/>
		<circle fill="#AEBDC4" cx="82.4" cy="128" r="1.8"/>
		<circle fill="#AEBDC4" cx="86.7" cy="128" r="1.8"/>
		<circle fill="#AEBDC4" cx="91" cy="128" r="1.8"/>
	</g>
	<g>
		<circle fill="#AEBDC4" cx="34.8" cy="122.1" r="1.8"/>
		<circle fill="#AEBDC4" cx="39.1" cy="122.1" r="1.8"/>
		<circle fill="#AEBDC4" cx="43.5" cy="122.1" r="1.8"/>
		<circle fill="#AEBDC4" cx="47.8" cy="122.1" r="1.8"/>
		<circle fill="#AEBDC4" cx="52.1" cy="122.1" r="1.8"/>
		<circle fill="#AEBDC4" cx="56.4" cy="122.1" r="1.8"/>
		<circle fill="#AEBDC4" cx="60.7" cy="122.1" r="1.8"/>
		<circle fill="#AEBDC4" cx="65.1" cy="122.1" r="1.8"/>
		<circle fill="#AEBDC4" cx="69.4" cy="122.1" r="1.8"/>
		<circle fill="#AEBDC4" cx="73.7" cy="122.1" r="1.8"/>
		<circle fill="#AEBDC4" cx="78" cy="122.1" r="1.8"/>
		<circle fill="#AEBDC4" cx="82.4" cy="122.1" r="1.8"/>
		<circle fill="#AEBDC4" cx="86.7" cy="122.1" r="1.8"/>
		<circle fill="#AEBDC4" cx="91" cy="122.1" r="1.8"/>
	</g>
	<g>
		<circle fill="#AEBDC4" cx="39.1" cy="116.1" r="1.8"/>
		<circle fill="#AEBDC4" cx="43.5" cy="116.1" r="1.8"/>
		<circle fill="#AEBDC4" cx="47.8" cy="116.1" r="1.8"/>
		<circle fill="#AEBDC4" cx="52.1" cy="116.1" r="1.8"/>
		<circle fill="#AEBDC4" cx="56.4" cy="116.1" r="1.8"/>
		<circle fill="#AEBDC4" cx="60.7" cy="116.1" r="1.8"/>
		<circle fill="#AEBDC4" cx="65.1" cy="116.1" r="1.8"/>
		<circle fill="#AEBDC4" cx="69.4" cy="116.1" r="1.8"/>
		<circle fill="#AEBDC4" cx="73.7" cy="116.1" r="1.8"/>
		<circle fill="#AEBDC4" cx="78" cy="116.1" r="1.8"/>
		<circle fill="#AEBDC4" cx="82.4" cy="116.1" r="1.8"/>
		<circle fill="#AEBDC4" cx="86.7" cy="116.1" r="1.8"/>
		<circle fill="#AEBDC4" cx="91" cy="116.1" r="1.8"/>
	</g>
	<g>
		<circle fill="#AEBDC4" cx="39.1" cy="110.2" r="1.8"/>
		<circle fill="#AEBDC4" cx="43.4" cy="110.2" r="1.8"/>
		<circle fill="#AEBDC4" cx="47.8" cy="110.2" r="1.8"/>
		<circle fill="#AEBDC4" cx="52.1" cy="110.2" r="1.8"/>
		<circle fill="#AEBDC4" cx="56.4" cy="110.2" r="1.8"/>
		<circle fill="#AEBDC4" cx="60.7" cy="110.2" r="1.8"/>
		<circle fill="#AEBDC4" cx="65" cy="110.2" r="1.8"/>
		<circle fill="#AEBDC4" cx="69.4" cy="110.2" r="1.8"/>
		<circle fill="#AEBDC4" cx="73.7" cy="110.2" r="1.8"/>
		<circle fill="#AEBDC4" cx="78" cy="110.2" r="1.8"/>
		<circle fill="#AEBDC4" cx="82.3" cy="110.2" r="1.8"/>
		<circle fill="#AEBDC4" cx="86.7" cy="110.2" r="1.8"/>
		<circle fill="#AEBDC4" cx="91" cy="110.2" r="1.8"/>
		<circle fill="#AEBDC4" cx="95.3" cy="110.2" r="1.8"/>
		<circle fill="#AEBDC4" cx="99.7" cy="110.2" r="1.8"/>
	</g>
	<g>
		<circle fill="#AEBDC4" cx="39.1" cy="104.3" r="1.8"/>
		<circle fill="#AEBDC4" cx="43.4" cy="104.3" r="1.8"/>
		<circle fill="#AEBDC4" cx="47.8" cy="104.3" r="1.8"/>
		<circle fill="#AEBDC4" cx="52.1" cy="104.3" r="1.8"/>
		<circle fill="#AEBDC4" cx="56.4" cy="104.3" r="1.8"/>
		<circle fill="#AEBDC4" cx="60.7" cy="104.3" r="1.8"/>
		<circle fill="#AEBDC4" cx="65" cy="104.3" r="1.8"/>
		<circle fill="#AEBDC4" cx="69.4" cy="104.3" r="1.8"/>
		<circle fill="#AEBDC4" cx="73.7" cy="104.3" r="1.8"/>
		<circle fill="#AEBDC4" cx="78" cy="104.3" r="1.8"/>
		<circle fill="#AEBDC4" cx="82.3" cy="104.3" r="1.8"/>
		<circle fill="#AEBDC4" cx="86.7" cy="104.3" r="1.8"/>
		<circle fill="#AEBDC4" cx="91" cy="104.3" r="1.8"/>
		<circle fill="#AEBDC4" cx="95.3" cy="104.3" r="1.8"/>
		<circle fill="#AEBDC4" cx="99.7" cy="104.3" r="1.8"/>
	</g>
	<g>
		<circle fill="#AEBDC4" cx="43.5" cy="98.3" r="1.8"/>
		<circle fill="#AEBDC4" cx="47.8" cy="98.3" r="1.8"/>
		<circle fill="#AEBDC4" cx="52.1" cy="98.3" r="1.8"/>
		<circle fill="#AEBDC4" cx="56.4" cy="98.3" r="1.8"/>
		<circle fill="#AEBDC4" cx="60.7" cy="98.3" r="1.8"/>
		<circle fill="#AEBDC4" cx="65.1" cy="98.3" r="1.8"/>
		<circle fill="#AEBDC4" cx="69.4" cy="98.3" r="1.8"/>
		<circle fill="#AEBDC4" cx="73.7" cy="98.3" r="1.8"/>
		<circle fill="#AEBDC4" cx="78" cy="98.3" r="1.8"/>
		<circle fill="#AEBDC4" cx="82.3" cy="98.3" r="1.8"/>
		<circle fill="#AEBDC4" cx="86.7" cy="98.3" r="1.8"/>
		<circle fill="#AEBDC4" cx="91" cy="98.3" r="1.8"/>
		<circle fill="#AEBDC4" cx="95.3" cy="98.3" r="1.8"/>
		<circle fill="#AEBDC4" cx="99.7" cy="98.3" r="1.8"/>
	</g>
	<g>
		<circle fill="#AEBDC4" cx="43.5" cy="92.4" r="1.8"/>
		<circle fill="#AEBDC4" cx="47.8" cy="92.4" r="1.8"/>
		<circle fill="#AEBDC4" cx="52.1" cy="92.4" r="1.8"/>
		<circle fill="#AEBDC4" cx="56.4" cy="92.4" r="1.8"/>
		<circle fill="#AEBDC4" cx="60.7" cy="92.4" r="1.8"/>
		<circle fill="#AEBDC4" cx="65.1" cy="92.4" r="1.8"/>
		<circle fill="#AEBDC4" cx="69.4" cy="92.4" r="1.8"/>
		<circle fill="#AEBDC4" cx="73.7" cy="92.4" r="1.8"/>
		<circle fill="#AEBDC4" cx="78" cy="92.4" r="1.8"/>
		<circle fill="#AEBDC4" cx="82.3" cy="92.4" r="1.8"/>
		<circle fill="#AEBDC4" cx="86.7" cy="92.4" r="1.8"/>
		<circle fill="#AEBDC4" cx="91" cy="92.4" r="1.8"/>
		<circle fill="#AEBDC4" cx="95.3" cy="92.4" r="1.8"/>
		<circle fill="#AEBDC4" cx="99.7" cy="92.4" r="1.8"/>
	</g>
	<g>
		<circle fill="#AEBDC4" cx="43.5" cy="86.5" r="1.8"/>
		<circle fill="#AEBDC4" cx="47.8" cy="86.5" r="1.8"/>
		<circle fill="#AEBDC4" cx="52.1" cy="86.5" r="1.8"/>
		<circle fill="#AEBDC4" cx="56.4" cy="86.5" r="1.8"/>
		<circle fill="#AEBDC4" cx="60.7" cy="86.5" r="1.8"/>
		<circle fill="#AEBDC4" cx="65.1" cy="86.5" r="1.8"/>
		<circle fill="#AEBDC4" cx="69.4" cy="86.5" r="1.8"/>
		<circle fill="#AEBDC4" cx="73.7" cy="86.5" r="1.8"/>
		<circle fill="#AEBDC4" cx="78" cy="86.5" r="1.8"/>
		<circle fill="#AEBDC4" cx="82.3" cy="86.5" r="1.8"/>
		<circle fill="#AEBDC4" cx="86.7" cy="86.5" r="1.8"/>
		<circle fill="#AEBDC4" cx="91" cy="86.5" r="1.8"/>
		<circle fill="#AEBDC4" cx="95.3" cy="86.5" r="1.8"/>
		<circle fill="#AEBDC4" cx="99.7" cy="86.5" r="1.8"/>
	</g>
	<g>
		<circle fill="#AEBDC4" cx="47.8" cy="80.5" r="1.8"/>
		<circle fill="#AEBDC4" cx="52.1" cy="80.5" r="1.8"/>
		<circle fill="#AEBDC4" cx="56.4" cy="80.5" r="1.8"/>
		<circle fill="#AEBDC4" cx="60.7" cy="80.5" r="1.8"/>
		<circle fill="#AEBDC4" cx="65.1" cy="80.5" r="1.8"/>
		<circle fill="#AEBDC4" cx="69.4" cy="80.5" r="1.8"/>
		<circle fill="#AEBDC4" cx="73.7" cy="80.5" r="1.8"/>
		<circle fill="#AEBDC4" cx="78" cy="80.5" r="1.8"/>
		<circle fill="#AEBDC4" cx="82.3" cy="80.5" r="1.8"/>
		<circle fill="#AEBDC4" cx="86.7" cy="80.5" r="1.8"/>
		<circle fill="#AEBDC4" cx="91" cy="80.5" r="1.8"/>
		<circle fill="#AEBDC4" cx="95.3" cy="80.5" r="1.8"/>
		<circle fill="#AEBDC4" cx="99.7" cy="80.5" r="1.8"/>
	</g>
	<g>
		<circle fill="#AEBDC4" cx="47.8" cy="74.6" r="1.8"/>
		<circle fill="#AEBDC4" cx="52.1" cy="74.6" r="1.8"/>
		<circle fill="#AEBDC4" cx="56.4" cy="74.6" r="1.8"/>
		<circle fill="#AEBDC4" cx="60.7" cy="74.6" r="1.8"/>
		<circle fill="#AEBDC4" cx="65.1" cy="74.6" r="1.8"/>
		<circle fill="#AEBDC4" cx="69.4" cy="74.6" r="1.8"/>
		<circle fill="#AEBDC4" cx="73.7" cy="74.6" r="1.8"/>
		<circle fill="#AEBDC4" cx="78" cy="74.6" r="1.8"/>
		<circle fill="#AEBDC4" cx="82.3" cy="74.6" r="1.8"/>
		<circle fill="#AEBDC4" cx="86.7" cy="74.6" r="1.8"/>
		<circle fill="#AEBDC4" cx="91" cy="74.6" r="1.8"/>
		<circle fill="#AEBDC4" cx="95.3" cy="74.6" r="1.8"/>
		<circle fill="#AEBDC4" cx="99.7" cy="74.6" r="1.8"/>
	</g>
	<g>
		<circle fill="#AEBDC4" cx="52.1" cy="68.7" r="1.8"/>
		<circle fill="#AEBDC4" cx="56.4" cy="68.7" r="1.8"/>
		<circle fill="#AEBDC4" cx="60.8" cy="68.7" r="1.8"/>
		<circle fill="#AEBDC4" cx="65.1" cy="68.7" r="1.8"/>
		<circle fill="#AEBDC4" cx="69.4" cy="68.7" r="1.8"/>
		<circle fill="#AEBDC4" cx="73.7" cy="68.7" r="1.8"/>
		<circle fill="#AEBDC4" cx="78" cy="68.7" r="1.8"/>
		<circle fill="#AEBDC4" cx="82.4" cy="68.7" r="1.8"/>
		<circle fill="#AEBDC4" cx="86.7" cy="68.7" r="1.8"/>
		<circle fill="#AEBDC4" cx="91" cy="68.7" r="1.8"/>
		<circle fill="#AEBDC4" cx="95.3" cy="68.7" r="1.8"/>
		<circle fill="#AEBDC4" cx="99.7" cy="68.7" r="1.8"/>
	</g>
	<g>
		<circle fill="#AEBDC4" cx="52.1" cy="62.7" r="1.8"/>
		<circle fill="#AEBDC4" cx="56.4" cy="62.7" r="1.8"/>
		<circle fill="#AEBDC4" cx="60.8" cy="62.7" r="1.8"/>
		<circle fill="#AEBDC4" cx="65.1" cy="62.7" r="1.8"/>
		<circle fill="#AEBDC4" cx="69.4" cy="62.7" r="1.8"/>
		<circle fill="#AEBDC4" cx="73.7" cy="62.7" r="1.8"/>
		<circle fill="#AEBDC4" cx="78" cy="62.7" r="1.8"/>
		<circle fill="#AEBDC4" cx="82.4" cy="62.7" r="1.8"/>
		<circle fill="#AEBDC4" cx="86.7" cy="62.7" r="1.8"/>
		<circle fill="#AEBDC4" cx="91" cy="62.7" r="1.8"/>
		<circle fill="#AEBDC4" cx="95.3" cy="62.7" r="1.8"/>
		<circle fill="#AEBDC4" cx="99.7" cy="62.7" r="1.8"/>
	</g>
	<g>
		<circle fill="#AEBDC4" cx="52.1" cy="56.8" r="1.8"/>
		<circle fill="#AEBDC4" cx="56.4" cy="56.8" r="1.8"/>
		<circle fill="#AEBDC4" cx="60.8" cy="56.8" r="1.8"/>
		<circle fill="#AEBDC4" cx="65.1" cy="56.8" r="1.8"/>
		<circle fill="#AEBDC4" cx="69.4" cy="56.8" r="1.8"/>
		<circle fill="#AEBDC4" cx="73.7" cy="56.8" r="1.8"/>
		<circle fill="#AEBDC4" cx="78" cy="56.8" r="1.8"/>
		<circle fill="#AEBDC4" cx="82.4" cy="56.8" r="1.8"/>
		<circle fill="#AEBDC4" cx="86.7" cy="56.8" r="1.8"/>
		<circle fill="#AEBDC4" cx="91" cy="56.8" r="1.8"/>
		<circle fill="#AEBDC4" cx="95.3" cy="56.8" r="1.8"/>
		<circle fill="#AEBDC4" cx="99.7" cy="56.8" r="1.8"/>
	</g>
	<g>
		<circle fill="#AEBDC4" cx="56.4" cy="50.9" r="1.8"/>
		<circle fill="#AEBDC4" cx="60.8" cy="50.9" r="1.8"/>
		<circle fill="#AEBDC4" cx="65.1" cy="50.9" r="1.8"/>
		<circle fill="#AEBDC4" cx="69.4" cy="50.9" r="1.8"/>
		<circle fill="#AEBDC4" cx="73.7" cy="50.9" r="1.8"/>
		<circle fill="#AEBDC4" cx="78" cy="50.9" r="1.8"/>
		<circle fill="#AEBDC4" cx="82.4" cy="50.9" r="1.8"/>
		<circle fill="#AEBDC4" cx="86.7" cy="50.9" r="1.8"/>
		<circle fill="#AEBDC4" cx="91" cy="50.9" r="1.8"/>
		<circle fill="#AEBDC4" cx="95.3" cy="50.9" r="1.8"/>
		<circle fill="#AEBDC4" cx="99.7" cy="50.9" r="1.8"/>
	</g>
	<g>
		<circle fill="#AEBDC4" cx="56.4" cy="45" r="1.8"/>
		<circle fill="#AEBDC4" cx="60.8" cy="45" r="1.8"/>
		<circle fill="#AEBDC4" cx="65.1" cy="45" r="1.8"/>
		<circle fill="#AEBDC4" cx="69.4" cy="45" r="1.8"/>
		<circle fill="#AEBDC4" cx="73.7" cy="45" r="1.8"/>
		<circle fill="#AEBDC4" cx="78" cy="45" r="1.8"/>
		<circle fill="#AEBDC4" cx="82.4" cy="45" r="1.8"/>
		<circle fill="#AEBDC4" cx="86.7" cy="45" r="1.8"/>
		<circle fill="#AEBDC4" cx="91" cy="45" r="1.8"/>
		<circle fill="#AEBDC4" cx="95.3" cy="45" r="1.8"/>
		<circle fill="#AEBDC4" cx="99.7" cy="45" r="1.8"/>
	</g>
	<g>
		<circle fill="#AEBDC4" cx="56.4" cy="39" r="1.8"/>
		<circle fill="#AEBDC4" cx="60.8" cy="39" r="1.8"/>
		<circle fill="#AEBDC4" cx="65.1" cy="39" r="1.8"/>
		<circle fill="#AEBDC4" cx="69.4" cy="39" r="1.8"/>
		<circle fill="#AEBDC4" cx="73.7" cy="39" r="1.8"/>
		<circle fill="#AEBDC4" cx="78" cy="39" r="1.8"/>
		<circle fill="#AEBDC4" cx="82.4" cy="39" r="1.8"/>
		<circle fill="#AEBDC4" cx="86.7" cy="39" r="1.8"/>
		<circle fill="#AEBDC4" cx="91" cy="39" r="1.8"/>
		<circle fill="#AEBDC4" cx="95.3" cy="39" r="1.8"/>
		<circle fill="#AEBDC4" cx="99.7" cy="39" r="1.8"/>
	</g>
	<g>
		<circle fill="#AEBDC4" cx="60.8" cy="33.1" r="1.8"/>
		<circle fill="#AEBDC4" cx="65.1" cy="33.1" r="1.8"/>
		<circle fill="#AEBDC4" cx="69.4" cy="33.1" r="1.8"/>
		<circle fill="#AEBDC4" cx="73.7" cy="33.1" r="1.8"/>
		<circle fill="#AEBDC4" cx="78.1" cy="33.1" r="1.8"/>
		<circle fill="#AEBDC4" cx="82.4" cy="33.1" r="1.8"/>
		<circle fill="#AEBDC4" cx="86.7" cy="33.1" r="1.8"/>
		<circle fill="#AEBDC4" cx="91" cy="33.1" r="1.8"/>
		<circle fill="#AEBDC4" cx="95.3" cy="33.1" r="1.8"/>
		<circle fill="#AEBDC4" cx="99.7" cy="33.1" r="1.8"/>
	</g>
	<g>
		<circle fill="#AEBDC4" cx="65.1" cy="27.2" r="1.8"/>
		<circle fill="#AEBDC4" cx="69.4" cy="27.2" r="1.8"/>
		<circle fill="#AEBDC4" cx="73.7" cy="27.2" r="1.8"/>
		<circle fill="#AEBDC4" cx="78.1" cy="27.2" r="1.8"/>
		<circle fill="#AEBDC4" cx="82.4" cy="27.2" r="1.8"/>
		<circle fill="#AEBDC4" cx="86.7" cy="27.2" r="1.8"/>
		<circle fill="#AEBDC4" cx="91" cy="27.2" r="1.8"/>
		<circle fill="#AEBDC4" cx="95.3" cy="27.2" r="1.8"/>
		<circle fill="#AEBDC4" cx="99.7" cy="27.2" r="1.8"/>
	</g>
	<g>
		<circle fill="#AEBDC4" cx="65.1" cy="21.2" r="1.8"/>
		<circle fill="#AEBDC4" cx="69.4" cy="21.2" r="1.8"/>
		<circle fill="#AEBDC4" cx="73.7" cy="21.2" r="1.8"/>
		<circle fill="#AEBDC4" cx="78.1" cy="21.2" r="1.8"/>
		<circle fill="#AEBDC4" cx="82.4" cy="21.2" r="1.8"/>
		<circle fill="#AEBDC4" cx="86.7" cy="21.2" r="1.8"/>
		<circle fill="#AEBDC4" cx="91" cy="21.2" r="1.8"/>
		<circle fill="#AEBDC4" cx="95.3" cy="21.2" r="1.8"/>
		<circle fill="#AEBDC4" cx="99.7" cy="21.2" r="1.8"/>
	</g>
	<g>
		<circle fill="#AEBDC4" cx="65.1" cy="15.3" r="1.8"/>
		<circle fill="#AEBDC4" cx="69.4" cy="15.3" r="1.8"/>
		<circle fill="#AEBDC4" cx="73.7" cy="15.3" r="1.8"/>
		<circle fill="#AEBDC4" cx="78.1" cy="15.3" r="1.8"/>
		<circle fill="#AEBDC4" cx="82.4" cy="15.3" r="1.8"/>
		<circle fill="#AEBDC4" cx="86.7" cy="15.3" r="1.8"/>
		<circle fill="#AEBDC4" cx="91" cy="15.3" r="1.8"/>
		<circle fill="#AEBDC4" cx="95.3" cy="15.3" r="1.8"/>
		<circle fill="#AEBDC4" cx="99.7" cy="15.3" r="1.8"/>
	</g>
	<g>
		<circle fill="#AEBDC4" cx="65.1" cy="9.4" r="1.8"/>
		<circle fill="#AEBDC4" cx="69.4" cy="9.4" r="1.8"/>
		<circle fill="#AEBDC4" cx="73.7" cy="9.4" r="1.8"/>
		<circle fill="#AEBDC4" cx="78.1" cy="9.4" r="1.8"/>
		<circle fill="#AEBDC4" cx="82.4" cy="9.4" r="1.8"/>
		<circle fill="#AEBDC4" cx="86.7" cy="9.4" r="1.8"/>
		<circle fill="#AEBDC4" cx="91" cy="9.4" r="1.8"/>
		<circle fill="#AEBDC4" cx="95.3" cy="9.4" r="1.8"/>
		<circle fill="#AEBDC4" cx="99.7" cy="9.4" r="1.8"/>
	</g>
</g>
</svg>
