<?xml version="1.0" encoding="utf-8"?>
<!-- Generator: Adobe Illustrator 23.0.1, SVG Export Plug-In . SVG Version: 6.00 Build 0)  -->
<svg version="1.1" id="Layer_1" xmlns="http://www.w3.org/2000/svg" xmlns:xlink="http://www.w3.org/1999/xlink" x="0px" y="0px"
	 viewBox="0 0 136 167" style="enable-background:new 0 0 136 167;" xml:space="preserve">
<style type="text/css">
	.st0{fill:#F1F3F4;stroke:#BCC8CE;stroke-width:0.4;stroke-linecap:round;stroke-miterlimit:10;}
	.st1{fill:#AEBDC4;}
	.st2{font-family:'Roboto-Medium';}
	.st3{font-size:3px;}
</style>
<g>
    <rect x="0.86" y="0.31" fill="#F1F3F4" stroke="#BCC8CE" stroke-width="0.4" stroke-linecap="round" stroke-miterlimit="10" width="134.28" height="166.39"/>
    <g 
      data-sort-seat-direction="rtl" 
      data-sort-line-direction="ttb" 
      data-sort-seat-option="cx" 
      data-sort-line-option="cy" 
      data-line-start="1"
      >
		<g>
			<circle class="st1" cx="18.2" cy="157.6" r="1.9"/>
			<circle class="st1" cx="22.5" cy="157.6" r="1.9"/>
			<circle class="st1" cx="26.9" cy="157.6" r="1.9"/>
			<circle class="st1" cx="31.2" cy="157.6" r="1.9"/>
			<circle class="st1" cx="35.5" cy="157.6" r="1.9"/>
			<circle class="st1" cx="39.8" cy="157.6" r="1.9"/>
			<circle class="st1" cx="44.2" cy="157.6" r="1.9"/>
			<circle class="st1" cx="48.5" cy="157.6" r="1.9"/>
			<circle class="st1" cx="52.8" cy="157.6" r="1.9"/>
			<circle class="st1" cx="57.1" cy="157.6" r="1.9"/>
			<circle class="st1" cx="61.5" cy="157.6" r="1.9"/>
			<circle class="st1" cx="65.8" cy="157.6" r="1.9"/>
			<circle class="st1" cx="70.1" cy="157.6" r="1.9"/>
			<circle class="st1" cx="74.4" cy="157.6" r="1.9"/>
			<circle class="st1" cx="78.8" cy="157.6" r="1.9"/>
			<circle class="st1" cx="83.1" cy="157.6" r="1.9"/>
			<circle class="st1" cx="87.4" cy="157.6" r="1.9"/>
			<circle class="st1" cx="91.8" cy="157.6" r="1.9"/>
			<circle class="st1" cx="96.1" cy="157.6" r="1.9"/>
			<circle class="st1" cx="100.4" cy="157.6" r="1.9"/>
			<circle class="st1" cx="104.8" cy="157.6" r="1.9"/>
			<circle class="st1" cx="109.1" cy="157.6" r="1.9"/>
			<circle class="st1" cx="113.4" cy="157.6" r="1.9"/>
			<circle class="st1" cx="117.8" cy="157.6" r="1.9"/>
			<text transform="matrix(1 0 0 1 120.8607 158.6727)" class="st1 st2 st3">00</text>
			<text transform="matrix(1 0 0 1 11.7306 158.6727)" class="st1 st2 st3">00</text>
		</g>
		<g>
			<circle class="st1" cx="18.2" cy="151.7" r="1.9"/>
			<circle class="st1" cx="22.5" cy="151.7" r="1.9"/>
			<circle class="st1" cx="26.9" cy="151.7" r="1.9"/>
			<circle class="st1" cx="31.2" cy="151.7" r="1.9"/>
			<circle class="st1" cx="35.5" cy="151.7" r="1.9"/>
			<circle class="st1" cx="39.8" cy="151.7" r="1.9"/>
			<circle class="st1" cx="44.2" cy="151.7" r="1.9"/>
			<circle class="st1" cx="48.5" cy="151.7" r="1.9"/>
			<circle class="st1" cx="52.8" cy="151.7" r="1.9"/>
			<circle class="st1" cx="57.1" cy="151.7" r="1.9"/>
			<circle class="st1" cx="61.5" cy="151.7" r="1.9"/>
			<circle class="st1" cx="65.8" cy="151.7" r="1.9"/>
			<circle class="st1" cx="70.1" cy="151.7" r="1.9"/>
			<circle class="st1" cx="74.4" cy="151.7" r="1.9"/>
			<circle class="st1" cx="78.8" cy="151.7" r="1.9"/>
			<circle class="st1" cx="83.1" cy="151.7" r="1.9"/>
			<circle class="st1" cx="87.4" cy="151.7" r="1.9"/>
			<circle class="st1" cx="91.8" cy="151.7" r="1.9"/>
			<circle class="st1" cx="96.1" cy="151.7" r="1.9"/>
			<circle class="st1" cx="100.4" cy="151.7" r="1.9"/>
			<circle class="st1" cx="104.8" cy="151.7" r="1.9"/>
			<circle class="st1" cx="109.1" cy="151.7" r="1.9"/>
			<circle class="st1" cx="113.4" cy="151.7" r="1.9"/>
			<circle class="st1" cx="117.8" cy="151.7" r="1.9"/>
			<text transform="matrix(1 0 0 1 120.8607 152.7427)" class="st1 st2 st3">00</text>
			<text transform="matrix(1 0 0 1 11.7306 152.7427)" class="st1 st2 st3">00</text>
		</g>
		<g>
			<circle class="st1" cx="18.2" cy="145.8" r="1.9"/>
			<circle class="st1" cx="22.5" cy="145.8" r="1.9"/>
			<circle class="st1" cx="26.9" cy="145.8" r="1.9"/>
			<circle class="st1" cx="31.2" cy="145.8" r="1.9"/>
			<circle class="st1" cx="35.5" cy="145.8" r="1.9"/>
			<circle class="st1" cx="39.8" cy="145.8" r="1.9"/>
			<circle class="st1" cx="44.2" cy="145.8" r="1.9"/>
			<circle class="st1" cx="48.5" cy="145.8" r="1.9"/>
			<circle class="st1" cx="52.8" cy="145.8" r="1.9"/>
			<circle class="st1" cx="57.1" cy="145.8" r="1.9"/>
			<circle class="st1" cx="61.5" cy="145.8" r="1.9"/>
			<circle class="st1" cx="65.8" cy="145.8" r="1.9"/>
			<circle class="st1" cx="70.1" cy="145.8" r="1.9"/>
			<circle class="st1" cx="74.4" cy="145.8" r="1.9"/>
			<circle class="st1" cx="78.8" cy="145.8" r="1.9"/>
			<circle class="st1" cx="83.1" cy="145.8" r="1.9"/>
			<circle class="st1" cx="87.4" cy="145.8" r="1.9"/>
			<circle class="st1" cx="91.8" cy="145.8" r="1.9"/>
			<circle class="st1" cx="96.1" cy="145.8" r="1.9"/>
			<circle class="st1" cx="100.4" cy="145.8" r="1.9"/>
			<circle class="st1" cx="104.8" cy="145.8" r="1.9"/>
			<circle class="st1" cx="109.1" cy="145.8" r="1.9"/>
			<circle class="st1" cx="113.4" cy="145.8" r="1.9"/>
			<circle class="st1" cx="117.8" cy="145.8" r="1.9"/>
			<text transform="matrix(1 0 0 1 120.8607 146.8126)" class="st1 st2 st3">00</text>
			<text transform="matrix(1 0 0 1 11.7306 146.8126)" class="st1 st2 st3">00</text>
		</g>
		<g>
			<circle class="st1" cx="26.9" cy="139.9" r="1.9"/>
			<circle class="st1" cx="31.2" cy="139.9" r="1.9"/>
			<circle class="st1" cx="35.5" cy="139.9" r="1.9"/>
			<circle class="st1" cx="39.9" cy="139.9" r="1.9"/>
			<circle class="st1" cx="44.2" cy="139.9" r="1.9"/>
			<circle class="st1" cx="48.5" cy="139.9" r="1.9"/>
			<circle class="st1" cx="52.8" cy="139.9" r="1.9"/>
			<circle class="st1" cx="57.1" cy="139.9" r="1.9"/>
			<circle class="st1" cx="61.5" cy="139.9" r="1.9"/>
			<circle class="st1" cx="65.8" cy="139.9" r="1.9"/>
			<circle class="st1" cx="70.1" cy="139.9" r="1.9"/>
			<circle class="st1" cx="74.4" cy="139.9" r="1.9"/>
			<circle class="st1" cx="78.8" cy="139.9" r="1.9"/>
			<circle class="st1" cx="83.1" cy="139.9" r="1.9"/>
			<circle class="st1" cx="87.4" cy="139.9" r="1.9"/>
			<circle class="st1" cx="91.8" cy="139.9" r="1.9"/>
			<circle class="st1" cx="96.1" cy="139.9" r="1.9"/>
			<circle class="st1" cx="100.4" cy="139.9" r="1.9"/>
			<circle class="st1" cx="104.8" cy="139.9" r="1.9"/>
			<circle class="st1" cx="109.1" cy="139.9" r="1.9"/>
			<text transform="matrix(1 0 0 1 112.2007 140.8826)" class="st1 st2 st3">00</text>
			<text transform="matrix(1 0 0 1 20.3706 140.8826)" class="st1 st2 st3">00</text>
		</g>
		<g>
			<circle class="st1" cx="26.9" cy="133.9" r="1.9"/>
			<circle class="st1" cx="31.2" cy="133.9" r="1.9"/>
			<circle class="st1" cx="35.5" cy="133.9" r="1.9"/>
			<circle class="st1" cx="39.9" cy="133.9" r="1.9"/>
			<circle class="st1" cx="44.2" cy="133.9" r="1.9"/>
			<circle class="st1" cx="48.5" cy="133.9" r="1.9"/>
			<circle class="st1" cx="52.8" cy="133.9" r="1.9"/>
			<circle class="st1" cx="57.1" cy="133.9" r="1.9"/>
			<circle class="st1" cx="61.5" cy="133.9" r="1.9"/>
			<circle class="st1" cx="65.8" cy="133.9" r="1.9"/>
			<circle class="st1" cx="70.1" cy="133.9" r="1.9"/>
			<circle class="st1" cx="74.4" cy="133.9" r="1.9"/>
			<circle class="st1" cx="78.8" cy="133.9" r="1.9"/>
			<circle class="st1" cx="83.1" cy="133.9" r="1.9"/>
			<circle class="st1" cx="87.4" cy="133.9" r="1.9"/>
			<circle class="st1" cx="91.8" cy="133.9" r="1.9"/>
			<circle class="st1" cx="96.1" cy="133.9" r="1.9"/>
			<circle class="st1" cx="100.4" cy="133.9" r="1.9"/>
			<circle class="st1" cx="104.8" cy="133.9" r="1.9"/>
			<circle class="st1" cx="109.1" cy="133.9" r="1.9"/>
			<text transform="matrix(1 0 0 1 112.2007 134.9525)" class="st1 st2 st3">00</text>
			<text transform="matrix(1 0 0 1 20.3706 134.9525)" class="st1 st2 st3">00</text>
		</g>
		<g>
			<circle class="st1" cx="26.9" cy="128" r="1.8"/>
			<circle class="st1" cx="31.2" cy="128" r="1.8"/>
			<circle class="st1" cx="35.5" cy="128" r="1.8"/>
			<circle class="st1" cx="39.9" cy="128" r="1.8"/>
			<circle class="st1" cx="44.2" cy="128" r="1.8"/>
			<circle class="st1" cx="48.5" cy="128" r="1.8"/>
			<circle class="st1" cx="52.8" cy="128" r="1.8"/>
			<circle class="st1" cx="57.1" cy="128" r="1.8"/>
			<circle class="st1" cx="61.5" cy="128" r="1.8"/>
			<circle class="st1" cx="65.8" cy="128" r="1.8"/>
			<circle class="st1" cx="70.1" cy="128" r="1.8"/>
			<circle class="st1" cx="74.4" cy="128" r="1.8"/>
			<circle class="st1" cx="78.8" cy="128" r="1.8"/>
			<circle class="st1" cx="83.1" cy="128" r="1.8"/>
			<circle class="st1" cx="87.4" cy="128" r="1.8"/>
			<circle class="st1" cx="91.8" cy="128" r="1.8"/>
			<circle class="st1" cx="96.1" cy="128" r="1.8"/>
			<circle class="st1" cx="100.4" cy="128" r="1.8"/>
			<circle class="st1" cx="104.8" cy="128" r="1.8"/>
			<circle class="st1" cx="109.1" cy="128" r="1.8"/>
			<text transform="matrix(1 0 0 1 112.2007 129.0225)" class="st1 st2 st3">00</text>
			<text transform="matrix(1 0 0 1 20.3706 129.0225)" class="st1 st2 st3">00</text>
		</g>
		<g>
			<circle class="st1" cx="26.9" cy="122.1" r="1.8"/>
			<circle class="st1" cx="31.2" cy="122.1" r="1.8"/>
			<circle class="st1" cx="35.5" cy="122.1" r="1.8"/>
			<circle class="st1" cx="39.9" cy="122.1" r="1.8"/>
			<circle class="st1" cx="44.2" cy="122.1" r="1.8"/>
			<circle class="st1" cx="48.5" cy="122.1" r="1.8"/>
			<circle class="st1" cx="52.8" cy="122.1" r="1.8"/>
			<circle class="st1" cx="57.1" cy="122.1" r="1.8"/>
			<circle class="st1" cx="61.5" cy="122.1" r="1.8"/>
			<circle class="st1" cx="65.8" cy="122.1" r="1.8"/>
			<circle class="st1" cx="70.1" cy="122.1" r="1.8"/>
			<circle class="st1" cx="74.4" cy="122.1" r="1.8"/>
			<circle class="st1" cx="78.8" cy="122.1" r="1.8"/>
			<circle class="st1" cx="83.1" cy="122.1" r="1.8"/>
			<circle class="st1" cx="87.4" cy="122.1" r="1.8"/>
			<circle class="st1" cx="91.8" cy="122.1" r="1.8"/>
			<circle class="st1" cx="96.1" cy="122.1" r="1.8"/>
			<circle class="st1" cx="100.4" cy="122.1" r="1.8"/>
			<circle class="st1" cx="104.8" cy="122.1" r="1.8"/>
			<circle class="st1" cx="109.1" cy="122.1" r="1.8"/>
			<text transform="matrix(1 0 0 1 112.2007 123.0924)" class="st1 st2 st3">00</text>
			<text transform="matrix(1 0 0 1 20.3706 123.0924)" class="st1 st2 st3">00</text>
		</g>
		<g>
			<circle class="st1" cx="26.9" cy="116.1" r="1.8"/>
			<circle class="st1" cx="31.2" cy="116.1" r="1.8"/>
			<circle class="st1" cx="35.5" cy="116.1" r="1.8"/>
			<circle class="st1" cx="39.9" cy="116.1" r="1.8"/>
			<circle class="st1" cx="44.2" cy="116.1" r="1.8"/>
			<circle class="st1" cx="48.5" cy="116.1" r="1.8"/>
			<circle class="st1" cx="52.8" cy="116.1" r="1.8"/>
			<circle class="st1" cx="57.1" cy="116.1" r="1.8"/>
			<circle class="st1" cx="61.5" cy="116.1" r="1.8"/>
			<circle class="st1" cx="65.8" cy="116.1" r="1.8"/>
			<circle class="st1" cx="70.1" cy="116.1" r="1.8"/>
			<circle class="st1" cx="74.4" cy="116.1" r="1.8"/>
			<circle class="st1" cx="78.8" cy="116.1" r="1.8"/>
			<circle class="st1" cx="83.1" cy="116.1" r="1.8"/>
			<circle class="st1" cx="87.4" cy="116.1" r="1.8"/>
			<circle class="st1" cx="91.8" cy="116.1" r="1.8"/>
			<circle class="st1" cx="96.1" cy="116.1" r="1.8"/>
			<circle class="st1" cx="100.4" cy="116.1" r="1.8"/>
			<circle class="st1" cx="104.8" cy="116.1" r="1.8"/>
			<circle class="st1" cx="109.1" cy="116.1" r="1.8"/>
			<text transform="matrix(1 0 0 1 112.2007 117.1624)" class="st1 st2 st3">00</text>
			<text transform="matrix(1 0 0 1 20.3706 117.1624)" class="st1 st2 st3">00</text>
		</g>
		<g>
			<circle class="st1" cx="18.2" cy="110.2" r="1.8"/>
			<circle class="st1" cx="22.5" cy="110.2" r="1.8"/>
			<circle class="st1" cx="26.9" cy="110.2" r="1.8"/>
			<circle class="st1" cx="31.2" cy="110.2" r="1.8"/>
			<circle class="st1" cx="35.5" cy="110.2" r="1.8"/>
			<circle class="st1" cx="39.8" cy="110.2" r="1.8"/>
			<circle class="st1" cx="44.2" cy="110.2" r="1.8"/>
			<circle class="st1" cx="48.5" cy="110.2" r="1.8"/>
			<circle class="st1" cx="52.8" cy="110.2" r="1.8"/>
			<circle class="st1" cx="57.1" cy="110.2" r="1.8"/>
			<circle class="st1" cx="61.5" cy="110.2" r="1.8"/>
			<circle class="st1" cx="65.8" cy="110.2" r="1.8"/>
			<circle class="st1" cx="70.1" cy="110.2" r="1.8"/>
			<circle class="st1" cx="74.4" cy="110.2" r="1.8"/>
			<circle class="st1" cx="78.8" cy="110.2" r="1.8"/>
			<circle class="st1" cx="83.1" cy="110.2" r="1.8"/>
			<circle class="st1" cx="87.4" cy="110.2" r="1.8"/>
			<circle class="st1" cx="91.8" cy="110.2" r="1.8"/>
			<circle class="st1" cx="96.1" cy="110.2" r="1.8"/>
			<circle class="st1" cx="100.4" cy="110.2" r="1.8"/>
			<circle class="st1" cx="104.8" cy="110.2" r="1.8"/>
			<circle class="st1" cx="109.1" cy="110.2" r="1.8"/>
			<circle class="st1" cx="113.4" cy="110.2" r="1.8"/>
			<circle class="st1" cx="117.8" cy="110.2" r="1.8"/>
			<text transform="matrix(1 0 0 1 120.8607 111.2323)" class="st1 st2 st3">00</text>
			<text transform="matrix(1 0 0 1 11.7306 111.2323)" class="st1 st2 st3">00</text>
		</g>
		<g>
			<circle class="st1" cx="18.2" cy="104.3" r="1.8"/>
			<circle class="st1" cx="22.5" cy="104.3" r="1.8"/>
			<circle class="st1" cx="26.9" cy="104.3" r="1.8"/>
			<circle class="st1" cx="31.2" cy="104.3" r="1.8"/>
			<circle class="st1" cx="35.5" cy="104.3" r="1.8"/>
			<circle class="st1" cx="39.8" cy="104.3" r="1.8"/>
			<circle class="st1" cx="44.2" cy="104.3" r="1.8"/>
			<circle class="st1" cx="48.5" cy="104.3" r="1.8"/>
			<circle class="st1" cx="52.8" cy="104.3" r="1.8"/>
			<circle class="st1" cx="57.1" cy="104.3" r="1.8"/>
			<circle class="st1" cx="61.5" cy="104.3" r="1.8"/>
			<circle class="st1" cx="65.8" cy="104.3" r="1.8"/>
			<circle class="st1" cx="70.1" cy="104.3" r="1.8"/>
			<circle class="st1" cx="74.4" cy="104.3" r="1.8"/>
			<circle class="st1" cx="78.8" cy="104.3" r="1.8"/>
			<circle class="st1" cx="83.1" cy="104.3" r="1.8"/>
			<circle class="st1" cx="87.4" cy="104.3" r="1.8"/>
			<circle class="st1" cx="91.8" cy="104.3" r="1.8"/>
			<circle class="st1" cx="96.1" cy="104.3" r="1.8"/>
			<circle class="st1" cx="100.4" cy="104.3" r="1.8"/>
			<circle class="st1" cx="104.8" cy="104.3" r="1.8"/>
			<circle class="st1" cx="109.1" cy="104.3" r="1.8"/>
			<circle class="st1" cx="113.4" cy="104.3" r="1.8"/>
			<circle class="st1" cx="117.8" cy="104.3" r="1.8"/>
			<text transform="matrix(1 0 0 1 120.8607 105.3022)" class="st1 st2 st3">00</text>
			<text transform="matrix(1 0 0 1 11.7306 105.3022)" class="st1 st2 st3">00</text>
		</g>
		<g>
			<circle class="st1" cx="18.2" cy="98.3" r="1.8"/>
			<circle class="st1" cx="22.5" cy="98.3" r="1.8"/>
			<circle class="st1" cx="26.9" cy="98.3" r="1.8"/>
			<circle class="st1" cx="31.2" cy="98.3" r="1.8"/>
			<circle class="st1" cx="35.5" cy="98.3" r="1.8"/>
			<circle class="st1" cx="39.8" cy="98.3" r="1.8"/>
			<circle class="st1" cx="44.2" cy="98.3" r="1.8"/>
			<circle class="st1" cx="48.5" cy="98.3" r="1.8"/>
			<circle class="st1" cx="52.8" cy="98.3" r="1.8"/>
			<circle class="st1" cx="57.1" cy="98.3" r="1.8"/>
			<circle class="st1" cx="61.5" cy="98.3" r="1.8"/>
			<circle class="st1" cx="65.8" cy="98.3" r="1.8"/>
			<circle class="st1" cx="70.1" cy="98.3" r="1.8"/>
			<circle class="st1" cx="74.4" cy="98.3" r="1.8"/>
			<circle class="st1" cx="78.8" cy="98.3" r="1.8"/>
			<circle class="st1" cx="83.1" cy="98.3" r="1.8"/>
			<circle class="st1" cx="87.4" cy="98.3" r="1.8"/>
			<circle class="st1" cx="91.8" cy="98.3" r="1.8"/>
			<circle class="st1" cx="96.1" cy="98.3" r="1.8"/>
			<circle class="st1" cx="100.4" cy="98.3" r="1.8"/>
			<circle class="st1" cx="104.8" cy="98.3" r="1.8"/>
			<circle class="st1" cx="109.1" cy="98.3" r="1.8"/>
			<circle class="st1" cx="113.4" cy="98.3" r="1.8"/>
			<circle class="st1" cx="117.8" cy="98.3" r="1.8"/>
			<text transform="matrix(1 0 0 1 120.8607 99.3722)" class="st1 st2 st3">00</text>
			<text transform="matrix(1 0 0 1 11.7306 99.3722)" class="st1 st2 st3">00</text>
		</g>
		<g>
			<circle class="st1" cx="18.2" cy="92.4" r="1.8"/>
			<circle class="st1" cx="22.5" cy="92.4" r="1.8"/>
			<circle class="st1" cx="26.9" cy="92.4" r="1.8"/>
			<circle class="st1" cx="31.2" cy="92.4" r="1.8"/>
			<circle class="st1" cx="35.5" cy="92.4" r="1.8"/>
			<circle class="st1" cx="39.8" cy="92.4" r="1.8"/>
			<circle class="st1" cx="44.2" cy="92.4" r="1.8"/>
			<circle class="st1" cx="48.5" cy="92.4" r="1.8"/>
			<circle class="st1" cx="52.8" cy="92.4" r="1.8"/>
			<circle class="st1" cx="57.1" cy="92.4" r="1.8"/>
			<circle class="st1" cx="61.5" cy="92.4" r="1.8"/>
			<circle class="st1" cx="65.8" cy="92.4" r="1.8"/>
			<circle class="st1" cx="70.1" cy="92.4" r="1.8"/>
			<circle class="st1" cx="74.4" cy="92.4" r="1.8"/>
			<circle class="st1" cx="78.8" cy="92.4" r="1.8"/>
			<circle class="st1" cx="83.1" cy="92.4" r="1.8"/>
			<circle class="st1" cx="87.4" cy="92.4" r="1.8"/>
			<circle class="st1" cx="91.8" cy="92.4" r="1.8"/>
			<circle class="st1" cx="96.1" cy="92.4" r="1.8"/>
			<circle class="st1" cx="100.4" cy="92.4" r="1.8"/>
			<circle class="st1" cx="104.8" cy="92.4" r="1.8"/>
			<circle class="st1" cx="109.1" cy="92.4" r="1.8"/>
			<circle class="st1" cx="113.4" cy="92.4" r="1.8"/>
			<circle class="st1" cx="117.8" cy="92.4" r="1.8"/>
			<text transform="matrix(1 0 0 1 120.8607 93.4421)" class="st1 st2 st3">00</text>
			<text transform="matrix(1 0 0 1 11.7306 93.4421)" class="st1 st2 st3">00</text>
		</g>
		<g>
			<circle class="st1" cx="18.2" cy="86.5" r="1.8"/>
			<circle class="st1" cx="22.5" cy="86.5" r="1.8"/>
			<circle class="st1" cx="26.9" cy="86.5" r="1.8"/>
			<circle class="st1" cx="31.2" cy="86.5" r="1.8"/>
			<circle class="st1" cx="35.5" cy="86.5" r="1.8"/>
			<circle class="st1" cx="39.8" cy="86.5" r="1.8"/>
			<circle class="st1" cx="44.2" cy="86.5" r="1.8"/>
			<circle class="st1" cx="48.5" cy="86.5" r="1.8"/>
			<circle class="st1" cx="52.8" cy="86.5" r="1.8"/>
			<circle class="st1" cx="57.1" cy="86.5" r="1.8"/>
			<circle class="st1" cx="61.5" cy="86.5" r="1.8"/>
			<circle class="st1" cx="65.8" cy="86.5" r="1.8"/>
			<circle class="st1" cx="70.1" cy="86.5" r="1.8"/>
			<circle class="st1" cx="74.4" cy="86.5" r="1.8"/>
			<circle class="st1" cx="78.8" cy="86.5" r="1.8"/>
			<circle class="st1" cx="83.1" cy="86.5" r="1.8"/>
			<circle class="st1" cx="87.4" cy="86.5" r="1.8"/>
			<circle class="st1" cx="91.8" cy="86.5" r="1.8"/>
			<circle class="st1" cx="96.1" cy="86.5" r="1.8"/>
			<circle class="st1" cx="100.4" cy="86.5" r="1.8"/>
			<circle class="st1" cx="104.8" cy="86.5" r="1.8"/>
			<circle class="st1" cx="109.1" cy="86.5" r="1.8"/>
			<circle class="st1" cx="113.4" cy="86.5" r="1.8"/>
			<circle class="st1" cx="117.8" cy="86.5" r="1.8"/>
			<text transform="matrix(1 0 0 1 120.8607 87.5121)" class="st1 st2 st3">00</text>
			<text transform="matrix(1 0 0 1 11.7306 87.5121)" class="st1 st2 st3">00</text>
		</g>
		<g>
			<circle class="st1" cx="18.2" cy="80.5" r="1.8"/>
			<circle class="st1" cx="22.5" cy="80.5" r="1.8"/>
			<circle class="st1" cx="26.9" cy="80.5" r="1.8"/>
			<circle class="st1" cx="31.2" cy="80.5" r="1.8"/>
			<circle class="st1" cx="35.5" cy="80.5" r="1.8"/>
			<circle class="st1" cx="39.8" cy="80.5" r="1.8"/>
			<circle class="st1" cx="44.2" cy="80.5" r="1.8"/>
			<circle class="st1" cx="48.5" cy="80.5" r="1.8"/>
			<circle class="st1" cx="52.8" cy="80.5" r="1.8"/>
			<circle class="st1" cx="57.1" cy="80.5" r="1.8"/>
			<circle class="st1" cx="61.5" cy="80.5" r="1.8"/>
			<circle class="st1" cx="65.8" cy="80.5" r="1.8"/>
			<circle class="st1" cx="70.1" cy="80.5" r="1.8"/>
			<circle class="st1" cx="74.4" cy="80.5" r="1.8"/>
			<circle class="st1" cx="78.8" cy="80.5" r="1.8"/>
			<circle class="st1" cx="83.1" cy="80.5" r="1.8"/>
			<circle class="st1" cx="87.4" cy="80.5" r="1.8"/>
			<circle class="st1" cx="91.8" cy="80.5" r="1.8"/>
			<circle class="st1" cx="96.1" cy="80.5" r="1.8"/>
			<circle class="st1" cx="100.4" cy="80.5" r="1.8"/>
			<circle class="st1" cx="104.8" cy="80.5" r="1.8"/>
			<circle class="st1" cx="109.1" cy="80.5" r="1.8"/>
			<circle class="st1" cx="113.4" cy="80.5" r="1.8"/>
			<circle class="st1" cx="117.8" cy="80.5" r="1.8"/>
			<text transform="matrix(1 0 0 1 120.8607 81.582)" class="st1 st2 st3">00</text>
			<text transform="matrix(1 0 0 1 11.7306 81.582)" class="st1 st2 st3">00</text>
		</g>
		<g>
			<circle class="st1" cx="18.2" cy="74.6" r="1.8"/>
			<circle class="st1" cx="22.5" cy="74.6" r="1.8"/>
			<circle class="st1" cx="26.9" cy="74.6" r="1.8"/>
			<circle class="st1" cx="31.2" cy="74.6" r="1.8"/>
			<circle class="st1" cx="35.5" cy="74.6" r="1.8"/>
			<circle class="st1" cx="39.8" cy="74.6" r="1.8"/>
			<circle class="st1" cx="44.2" cy="74.6" r="1.8"/>
			<circle class="st1" cx="48.5" cy="74.6" r="1.8"/>
			<circle class="st1" cx="52.8" cy="74.6" r="1.8"/>
			<circle class="st1" cx="57.1" cy="74.6" r="1.8"/>
			<circle class="st1" cx="61.5" cy="74.6" r="1.8"/>
			<circle class="st1" cx="65.8" cy="74.6" r="1.8"/>
			<circle class="st1" cx="70.1" cy="74.6" r="1.8"/>
			<circle class="st1" cx="74.4" cy="74.6" r="1.8"/>
			<circle class="st1" cx="78.8" cy="74.6" r="1.8"/>
			<circle class="st1" cx="83.1" cy="74.6" r="1.8"/>
			<circle class="st1" cx="87.4" cy="74.6" r="1.8"/>
			<circle class="st1" cx="91.8" cy="74.6" r="1.8"/>
			<circle class="st1" cx="96.1" cy="74.6" r="1.8"/>
			<circle class="st1" cx="100.4" cy="74.6" r="1.8"/>
			<circle class="st1" cx="104.8" cy="74.6" r="1.8"/>
			<circle class="st1" cx="109.1" cy="74.6" r="1.8"/>
			<circle class="st1" cx="113.4" cy="74.6" r="1.8"/>
			<circle class="st1" cx="117.8" cy="74.6" r="1.8"/>
			<text transform="matrix(1 0 0 1 120.8607 75.652)" class="st1 st2 st3">00</text>
			<text transform="matrix(1 0 0 1 11.7306 75.652)" class="st1 st2 st3">00</text>
		</g>
		<g>
			<circle class="st1" cx="18.2" cy="68.7" r="1.8"/>
			<circle class="st1" cx="22.5" cy="68.7" r="1.8"/>
			<circle class="st1" cx="26.9" cy="68.7" r="1.8"/>
			<circle class="st1" cx="31.2" cy="68.7" r="1.8"/>
			<circle class="st1" cx="35.5" cy="68.7" r="1.8"/>
			<circle class="st1" cx="39.8" cy="68.7" r="1.8"/>
			<circle class="st1" cx="44.2" cy="68.7" r="1.8"/>
			<circle class="st1" cx="48.5" cy="68.7" r="1.8"/>
			<circle class="st1" cx="52.8" cy="68.7" r="1.8"/>
			<circle class="st1" cx="57.1" cy="68.7" r="1.8"/>
			<circle class="st1" cx="61.5" cy="68.7" r="1.8"/>
			<circle class="st1" cx="65.8" cy="68.7" r="1.8"/>
			<circle class="st1" cx="70.1" cy="68.7" r="1.8"/>
			<circle class="st1" cx="74.4" cy="68.7" r="1.8"/>
			<circle class="st1" cx="78.8" cy="68.7" r="1.8"/>
			<circle class="st1" cx="83.1" cy="68.7" r="1.8"/>
			<circle class="st1" cx="87.4" cy="68.7" r="1.8"/>
			<circle class="st1" cx="91.8" cy="68.7" r="1.8"/>
			<circle class="st1" cx="96.1" cy="68.7" r="1.8"/>
			<circle class="st1" cx="100.4" cy="68.7" r="1.8"/>
			<circle class="st1" cx="104.8" cy="68.7" r="1.8"/>
			<circle class="st1" cx="109.1" cy="68.7" r="1.8"/>
			<circle class="st1" cx="113.4" cy="68.7" r="1.8"/>
			<circle class="st1" cx="117.8" cy="68.7" r="1.8"/>
			<text transform="matrix(1 0 0 1 120.8607 69.7219)" class="st1 st2 st3">00</text>
			<text transform="matrix(1 0 0 1 11.7306 69.7219)" class="st1 st2 st3">00</text>
		</g>
		<g>
			<circle class="st1" cx="18.2" cy="62.7" r="1.9"/>
			<circle class="st1" cx="22.5" cy="62.7" r="1.9"/>
			<circle class="st1" cx="26.9" cy="62.7" r="1.9"/>
			<circle class="st1" cx="31.2" cy="62.7" r="1.9"/>
			<circle class="st1" cx="35.5" cy="62.7" r="1.8"/>
			<circle class="st1" cx="39.8" cy="62.7" r="1.8"/>
			<circle class="st1" cx="44.2" cy="62.7" r="1.8"/>
			<circle class="st1" cx="48.5" cy="62.7" r="1.8"/>
			<circle class="st1" cx="52.8" cy="62.7" r="1.8"/>
			<circle class="st1" cx="57.1" cy="62.7" r="1.8"/>
			<circle class="st1" cx="61.5" cy="62.7" r="1.8"/>
			<circle class="st1" cx="65.8" cy="62.7" r="1.8"/>
			<circle class="st1" cx="70.1" cy="62.7" r="1.8"/>
			<circle class="st1" cx="74.4" cy="62.7" r="1.8"/>
			<circle class="st1" cx="78.8" cy="62.7" r="1.8"/>
			<circle class="st1" cx="83.1" cy="62.7" r="1.8"/>
			<circle class="st1" cx="87.4" cy="62.7" r="1.8"/>
			<circle class="st1" cx="91.8" cy="62.7" r="1.8"/>
			<circle class="st1" cx="96.1" cy="62.7" r="1.8"/>
			<circle class="st1" cx="100.4" cy="62.7" r="1.8"/>
			<circle class="st1" cx="104.8" cy="62.7" r="1.8"/>
			<circle class="st1" cx="109.1" cy="62.7" r="1.8"/>
			<circle class="st1" cx="113.4" cy="62.7" r="1.8"/>
			<circle class="st1" cx="117.8" cy="62.7" r="1.8"/>
			<text transform="matrix(1 0 0 1 120.8607 63.7919)" class="st1 st2 st3">00</text>
			<text transform="matrix(1 0 0 1 11.7306 63.7919)" class="st1 st2 st3">00</text>
		</g>
		<g>
			<circle class="st1" cx="18.2" cy="56.8" r="1.8"/>
			<circle class="st1" cx="22.5" cy="56.8" r="1.8"/>
			<circle class="st1" cx="26.9" cy="56.8" r="1.8"/>
			<circle class="st1" cx="31.2" cy="56.8" r="1.8"/>
			<circle class="st1" cx="35.5" cy="56.8" r="1.8"/>
			<circle class="st1" cx="39.8" cy="56.8" r="1.8"/>
			<circle class="st1" cx="44.2" cy="56.8" r="1.8"/>
			<circle class="st1" cx="48.5" cy="56.8" r="1.8"/>
			<circle class="st1" cx="52.8" cy="56.8" r="1.8"/>
			<circle class="st1" cx="57.1" cy="56.8" r="1.8"/>
			<circle class="st1" cx="61.5" cy="56.8" r="1.8"/>
			<circle class="st1" cx="65.8" cy="56.8" r="1.8"/>
			<circle class="st1" cx="70.1" cy="56.8" r="1.8"/>
			<circle class="st1" cx="74.4" cy="56.8" r="1.8"/>
			<circle class="st1" cx="78.8" cy="56.8" r="1.8"/>
			<circle class="st1" cx="83.1" cy="56.8" r="1.8"/>
			<circle class="st1" cx="87.4" cy="56.8" r="1.8"/>
			<circle class="st1" cx="91.8" cy="56.8" r="1.8"/>
			<circle class="st1" cx="96.1" cy="56.8" r="1.8"/>
			<circle class="st1" cx="100.4" cy="56.8" r="1.8"/>
			<circle class="st1" cx="104.8" cy="56.8" r="1.8"/>
			<circle class="st1" cx="109.1" cy="56.8" r="1.8"/>
			<circle class="st1" cx="113.4" cy="56.8" r="1.8"/>
			<circle class="st1" cx="117.8" cy="56.8" r="1.8"/>
			<text transform="matrix(1 0 0 1 120.8607 57.8618)" class="st1 st2 st3">00</text>
			<text transform="matrix(1 0 0 1 11.7306 57.8618)" class="st1 st2 st3">00</text>
		</g>
		<g>
			<circle class="st1" cx="18.2" cy="50.9" r="1.8"/>
			<circle class="st1" cx="22.5" cy="50.9" r="1.8"/>
			<circle class="st1" cx="26.9" cy="50.9" r="1.8"/>
			<circle class="st1" cx="31.2" cy="50.9" r="1.8"/>
			<circle class="st1" cx="35.5" cy="50.9" r="1.8"/>
			<circle class="st1" cx="39.8" cy="50.9" r="1.8"/>
			<circle class="st1" cx="44.2" cy="50.9" r="1.8"/>
			<circle class="st1" cx="48.5" cy="50.9" r="1.8"/>
			<circle class="st1" cx="52.8" cy="50.9" r="1.8"/>
			<circle class="st1" cx="57.1" cy="50.9" r="1.8"/>
			<circle class="st1" cx="61.5" cy="50.9" r="1.8"/>
			<circle class="st1" cx="65.8" cy="50.9" r="1.8"/>
			<circle class="st1" cx="70.1" cy="50.9" r="1.8"/>
			<circle class="st1" cx="74.4" cy="50.9" r="1.8"/>
			<circle class="st1" cx="78.8" cy="50.9" r="1.8"/>
			<circle class="st1" cx="83.1" cy="50.9" r="1.8"/>
			<circle class="st1" cx="87.4" cy="50.9" r="1.8"/>
			<circle class="st1" cx="91.8" cy="50.9" r="1.8"/>
			<circle class="st1" cx="96.1" cy="50.9" r="1.8"/>
			<circle class="st1" cx="100.4" cy="50.9" r="1.8"/>
			<circle class="st1" cx="104.8" cy="50.9" r="1.8"/>
			<circle class="st1" cx="109.1" cy="50.9" r="1.8"/>
			<circle class="st1" cx="113.4" cy="50.9" r="1.8"/>
			<circle class="st1" cx="117.8" cy="50.9" r="1.8"/>
			<text transform="matrix(1 0 0 1 120.8607 51.9318)" class="st1 st2 st3">00</text>
			<text transform="matrix(1 0 0 1 11.7306 51.9318)" class="st1 st2 st3">00</text>
		</g>
		<g>
			<circle class="st1" cx="18.2" cy="45" r="1.8"/>
			<circle class="st1" cx="22.5" cy="45" r="1.8"/>
			<circle class="st1" cx="26.9" cy="45" r="1.8"/>
			<circle class="st1" cx="31.2" cy="45" r="1.8"/>
			<circle class="st1" cx="35.5" cy="45" r="1.8"/>
			<circle class="st1" cx="39.8" cy="45" r="1.8"/>
			<circle class="st1" cx="44.2" cy="45" r="1.8"/>
			<circle class="st1" cx="48.5" cy="45" r="1.8"/>
			<circle class="st1" cx="52.8" cy="45" r="1.8"/>
			<circle class="st1" cx="57.1" cy="45" r="1.8"/>
			<circle class="st1" cx="61.5" cy="45" r="1.8"/>
			<circle class="st1" cx="65.8" cy="45" r="1.8"/>
			<circle class="st1" cx="70.1" cy="45" r="1.8"/>
			<circle class="st1" cx="74.4" cy="45" r="1.8"/>
			<circle class="st1" cx="78.8" cy="45" r="1.8"/>
			<circle class="st1" cx="83.1" cy="45" r="1.8"/>
			<circle class="st1" cx="87.4" cy="45" r="1.8"/>
			<circle class="st1" cx="91.8" cy="45" r="1.8"/>
			<circle class="st1" cx="96.1" cy="45" r="1.8"/>
			<circle class="st1" cx="100.4" cy="45" r="1.8"/>
			<circle class="st1" cx="104.8" cy="45" r="1.8"/>
			<circle class="st1" cx="109.1" cy="45" r="1.8"/>
			<circle class="st1" cx="113.4" cy="45" r="1.8"/>
			<circle class="st1" cx="117.8" cy="45" r="1.8"/>
			<text transform="matrix(1 0 0 1 120.8607 46.0017)" class="st1 st2 st3">00</text>
			<text transform="matrix(1 0 0 1 11.7306 46.0017)" class="st1 st2 st3">00</text>
		</g>
		<g>
			<circle class="st1" cx="18.2" cy="39" r="1.8"/>
			<circle class="st1" cx="22.5" cy="39" r="1.8"/>
			<circle class="st1" cx="26.9" cy="39" r="1.8"/>
			<circle class="st1" cx="31.2" cy="39" r="1.8"/>
			<circle class="st1" cx="35.5" cy="39" r="1.8"/>
			<circle class="st1" cx="39.8" cy="39" r="1.8"/>
			<circle class="st1" cx="44.2" cy="39" r="1.8"/>
			<circle class="st1" cx="48.5" cy="39" r="1.8"/>
			<circle class="st1" cx="52.8" cy="39" r="1.8"/>
			<circle class="st1" cx="57.1" cy="39" r="1.8"/>
			<circle class="st1" cx="61.5" cy="39" r="1.8"/>
			<circle class="st1" cx="65.8" cy="39" r="1.8"/>
			<circle class="st1" cx="70.1" cy="39" r="1.8"/>
			<circle class="st1" cx="74.4" cy="39" r="1.8"/>
			<circle class="st1" cx="78.8" cy="39" r="1.8"/>
			<circle class="st1" cx="83.1" cy="39" r="1.8"/>
			<circle class="st1" cx="87.4" cy="39" r="1.8"/>
			<circle class="st1" cx="91.8" cy="39" r="1.8"/>
			<circle class="st1" cx="96.1" cy="39" r="1.8"/>
			<circle class="st1" cx="100.4" cy="39" r="1.8"/>
			<circle class="st1" cx="104.8" cy="39" r="1.8"/>
			<circle class="st1" cx="109.1" cy="39" r="1.8"/>
			<circle class="st1" cx="113.4" cy="39" r="1.8"/>
			<circle class="st1" cx="117.8" cy="39" r="1.8"/>
			<text transform="matrix(1 0 0 1 120.8607 40.0717)" class="st1 st2 st3">00</text>
			<text transform="matrix(1 0 0 1 11.7306 40.0717)" class="st1 st2 st3">00</text>
		</g>
		<g>
			<circle class="st1" cx="18.2" cy="33.1" r="1.8"/>
			<circle class="st1" cx="22.5" cy="33.1" r="1.8"/>
			<circle class="st1" cx="26.9" cy="33.1" r="1.8"/>
			<circle class="st1" cx="31.2" cy="33.1" r="1.8"/>
			<circle class="st1" cx="35.5" cy="33.1" r="1.8"/>
			<circle class="st1" cx="39.8" cy="33.1" r="1.8"/>
			<circle class="st1" cx="44.2" cy="33.1" r="1.8"/>
			<circle class="st1" cx="48.5" cy="33.1" r="1.8"/>
			<circle class="st1" cx="52.8" cy="33.1" r="1.8"/>
			<circle class="st1" cx="57.1" cy="33.1" r="1.8"/>
			<circle class="st1" cx="61.5" cy="33.1" r="1.8"/>
			<circle class="st1" cx="65.8" cy="33.1" r="1.8"/>
			<circle class="st1" cx="70.1" cy="33.1" r="1.8"/>
			<circle class="st1" cx="74.4" cy="33.1" r="1.8"/>
			<circle class="st1" cx="78.8" cy="33.1" r="1.8"/>
			<circle class="st1" cx="83.1" cy="33.1" r="1.8"/>
			<circle class="st1" cx="87.4" cy="33.1" r="1.8"/>
			<circle class="st1" cx="91.8" cy="33.1" r="1.8"/>
			<circle class="st1" cx="96.1" cy="33.1" r="1.8"/>
			<circle class="st1" cx="100.4" cy="33.1" r="1.8"/>
			<circle class="st1" cx="104.8" cy="33.1" r="1.8"/>
			<circle class="st1" cx="109.1" cy="33.1" r="1.8"/>
			<circle class="st1" cx="113.4" cy="33.1" r="1.8"/>
			<circle class="st1" cx="117.8" cy="33.1" r="1.8"/>
			<text transform="matrix(1 0 0 1 120.8607 34.1416)" class="st1 st2 st3">00</text>
			<text transform="matrix(1 0 0 1 11.7306 34.1416)" class="st1 st2 st3">00</text>
		</g>
		<g>
			<circle class="st1" cx="18.2" cy="27.2" r="1.9"/>
			<circle class="st1" cx="22.5" cy="27.2" r="1.9"/>
			<circle class="st1" cx="26.9" cy="27.2" r="1.9"/>
			<circle class="st1" cx="31.2" cy="27.2" r="1.9"/>
			<circle class="st1" cx="35.5" cy="27.2" r="1.8"/>
			<circle class="st1" cx="39.8" cy="27.2" r="1.8"/>
			<circle class="st1" cx="44.2" cy="27.2" r="1.8"/>
			<circle class="st1" cx="48.5" cy="27.2" r="1.8"/>
			<circle class="st1" cx="52.8" cy="27.2" r="1.8"/>
			<circle class="st1" cx="57.1" cy="27.2" r="1.8"/>
			<circle class="st1" cx="61.5" cy="27.2" r="1.8"/>
			<circle class="st1" cx="65.8" cy="27.2" r="1.8"/>
			<circle class="st1" cx="70.1" cy="27.2" r="1.8"/>
			<circle class="st1" cx="74.4" cy="27.2" r="1.8"/>
			<circle class="st1" cx="78.8" cy="27.2" r="1.8"/>
			<circle class="st1" cx="83.1" cy="27.2" r="1.8"/>
			<circle class="st1" cx="87.4" cy="27.2" r="1.8"/>
			<circle class="st1" cx="91.8" cy="27.2" r="1.8"/>
			<circle class="st1" cx="96.1" cy="27.2" r="1.8"/>
			<circle class="st1" cx="100.4" cy="27.2" r="1.8"/>
			<circle class="st1" cx="104.8" cy="27.2" r="1.8"/>
			<circle class="st1" cx="109.1" cy="27.2" r="1.8"/>
			<circle class="st1" cx="113.4" cy="27.2" r="1.8"/>
			<circle class="st1" cx="117.8" cy="27.2" r="1.8"/>
			<text transform="matrix(1 0 0 1 120.8607 28.2115)" class="st1 st2 st3">00</text>
			<text transform="matrix(1 0 0 1 11.7306 28.2115)" class="st1 st2 st3">00</text>
		</g>
		<g>
			<circle class="st1" cx="18.2" cy="21.2" r="1.9"/>
			<circle class="st1" cx="22.5" cy="21.2" r="1.9"/>
			<circle class="st1" cx="26.9" cy="21.2" r="1.9"/>
			<circle class="st1" cx="31.2" cy="21.2" r="1.9"/>
			<circle class="st1" cx="35.5" cy="21.2" r="1.8"/>
			<circle class="st1" cx="39.8" cy="21.2" r="1.8"/>
			<circle class="st1" cx="44.2" cy="21.2" r="1.8"/>
			<circle class="st1" cx="48.5" cy="21.2" r="1.8"/>
			<circle class="st1" cx="52.8" cy="21.2" r="1.8"/>
			<circle class="st1" cx="57.1" cy="21.2" r="1.8"/>
			<circle class="st1" cx="61.5" cy="21.2" r="1.8"/>
			<circle class="st1" cx="65.8" cy="21.2" r="1.8"/>
			<circle class="st1" cx="70.1" cy="21.2" r="1.8"/>
			<circle class="st1" cx="74.4" cy="21.2" r="1.8"/>
			<circle class="st1" cx="78.8" cy="21.2" r="1.8"/>
			<circle class="st1" cx="83.1" cy="21.2" r="1.8"/>
			<circle class="st1" cx="87.4" cy="21.2" r="1.8"/>
			<circle class="st1" cx="91.8" cy="21.2" r="1.8"/>
			<circle class="st1" cx="96.1" cy="21.2" r="1.8"/>
			<circle class="st1" cx="100.4" cy="21.2" r="1.8"/>
			<circle class="st1" cx="104.8" cy="21.2" r="1.8"/>
			<circle class="st1" cx="109.1" cy="21.2" r="1.8"/>
			<circle class="st1" cx="113.4" cy="21.2" r="1.8"/>
			<circle class="st1" cx="117.8" cy="21.2" r="1.8"/>
			<text transform="matrix(1 0 0 1 120.8607 22.2815)" class="st1 st2 st3">00</text>
			<text transform="matrix(1 0 0 1 11.7306 22.2815)" class="st1 st2 st3">00</text>
		</g>
		<g>
			<circle class="st1" cx="18.2" cy="15.3" r="1.9"/>
			<circle class="st1" cx="22.5" cy="15.3" r="1.9"/>
			<circle class="st1" cx="26.9" cy="15.3" r="1.9"/>
			<circle class="st1" cx="31.2" cy="15.3" r="1.9"/>
			<circle class="st1" cx="35.5" cy="15.3" r="1.8"/>
			<circle class="st1" cx="39.8" cy="15.3" r="1.8"/>
			<circle class="st1" cx="44.2" cy="15.3" r="1.8"/>
			<circle class="st1" cx="48.5" cy="15.3" r="1.8"/>
			<circle class="st1" cx="52.8" cy="15.3" r="1.8"/>
			<circle class="st1" cx="57.1" cy="15.3" r="1.8"/>
			<circle class="st1" cx="61.5" cy="15.3" r="1.8"/>
			<circle class="st1" cx="65.8" cy="15.3" r="1.8"/>
			<circle class="st1" cx="70.1" cy="15.3" r="1.8"/>
			<circle class="st1" cx="74.4" cy="15.3" r="1.8"/>
			<circle class="st1" cx="78.8" cy="15.3" r="1.8"/>
			<circle class="st1" cx="83.1" cy="15.3" r="1.8"/>
			<circle class="st1" cx="87.4" cy="15.3" r="1.8"/>
			<circle class="st1" cx="91.8" cy="15.3" r="1.8"/>
			<circle class="st1" cx="96.1" cy="15.3" r="1.8"/>
			<circle class="st1" cx="100.4" cy="15.3" r="1.8"/>
			<circle class="st1" cx="104.8" cy="15.3" r="1.8"/>
			<circle class="st1" cx="109.1" cy="15.3" r="1.8"/>
			<circle class="st1" cx="113.4" cy="15.3" r="1.8"/>
			<circle class="st1" cx="117.8" cy="15.3" r="1.8"/>
			<text transform="matrix(1 0 0 1 120.8607 16.3514)" class="st1 st2 st3">00</text>
			<text transform="matrix(1 0 0 1 11.7306 16.3514)" class="st1 st2 st3">00</text>
		</g>
		<g>
			<circle class="st1" cx="18.2" cy="9.4" r="1.9"/>
			<circle class="st1" cx="22.5" cy="9.4" r="1.9"/>
			<circle class="st1" cx="26.9" cy="9.4" r="1.9"/>
			<circle class="st1" cx="31.2" cy="9.4" r="1.9"/>
			<circle class="st1" cx="35.5" cy="9.4" r="1.8"/>
			<circle class="st1" cx="39.8" cy="9.4" r="1.8"/>
			<circle class="st1" cx="44.2" cy="9.4" r="1.8"/>
			<circle class="st1" cx="48.5" cy="9.4" r="1.8"/>
			<circle class="st1" cx="52.8" cy="9.4" r="1.8"/>
			<circle class="st1" cx="57.1" cy="9.4" r="1.8"/>
			<circle class="st1" cx="61.5" cy="9.4" r="1.8"/>
			<circle class="st1" cx="65.8" cy="9.4" r="1.8"/>
			<circle class="st1" cx="70.1" cy="9.4" r="1.8"/>
			<circle class="st1" cx="74.4" cy="9.4" r="1.8"/>
			<circle class="st1" cx="78.8" cy="9.4" r="1.8"/>
			<circle class="st1" cx="83.1" cy="9.4" r="1.8"/>
			<circle class="st1" cx="87.4" cy="9.4" r="1.8"/>
			<circle class="st1" cx="91.8" cy="9.4" r="1.8"/>
			<circle class="st1" cx="96.1" cy="9.4" r="1.8"/>
			<circle class="st1" cx="100.4" cy="9.4" r="1.8"/>
			<circle class="st1" cx="104.8" cy="9.4" r="1.8"/>
			<circle class="st1" cx="109.1" cy="9.4" r="1.8"/>
			<circle class="st1" cx="113.4" cy="9.4" r="1.8"/>
			<circle class="st1" cx="117.8" cy="9.4" r="1.8"/>
			<text transform="matrix(1 0 0 1 120.8607 10.4214)" class="st1 st2 st3">00</text>
			<text transform="matrix(1 0 0 1 11.7306 10.4214)" class="st1 st2 st3">00</text>
		</g>
	</g>
</g>
</svg>
