<svg xmlns="http://www.w3.org/2000/svg" viewBox="0 0 130 172">
    <path fill="#F1F3F4" stroke="#BCC8CE" stroke-width=".4" stroke-linecap="round" stroke-miterlimit="10" d="M134.64 171.35L.36 122.55V.56h134.28v170.79z"/>
    <g fill="#AEBDC4">
        <circle cx="99.99" cy="146.04" r="1.85"/>
        <circle cx="104.31" cy="146.04" r="1.85"/>
        <circle cx="108.63" cy="146.04" r="1.85"/>
        <circle cx="112.95" cy="146.04" r="1.85"/>
        <circle cx="117.27" cy="146.04" r="1.85"/>
        <circle cx="121.6" cy="146.04" r="1.85"/>
        <circle cx="87.03" cy="140.11" r="1.85"/>
        <circle cx="91.35" cy="140.11" r="1.85"/>
        <circle cx="95.67" cy="140.11" r="1.85"/>
        <circle cx="99.99" cy="140.11" r="1.85"/>
        <circle cx="104.31" cy="140.11" r="1.85"/>
        <circle cx="108.63" cy="140.11" r="1.85"/>
        <circle cx="112.95" cy="140.11" r="1.85"/>
        <circle cx="117.27" cy="140.11" r="1.85"/>
        <circle cx="121.6" cy="140.11" r="1.85"/>
        <circle cx="74.03" cy="134.18" r="1.85"/>
        <circle cx="78.36" cy="134.18" r="1.85"/>
        <circle cx="82.68" cy="134.18" r="1.85"/>
        <circle cx="87" cy="134.18" r="1.85"/>
        <circle cx="91.32" cy="134.18" r="1.85"/>
        <circle cx="95.64" cy="134.18" r="1.85"/>
        <circle cx="99.96" cy="134.18" r="1.85"/>
        <circle cx="104.28" cy="134.18" r="1.85"/>
        <circle cx="108.6" cy="134.18" r="1.85"/>
        <circle cx="112.93" cy="134.18" r="1.85"/>
        <circle cx="117.26" cy="134.18" r="1.85"/>
        <circle cx="121.6" cy="134.18" r="1.85"/>
        <circle cx="56.71" cy="128.25" r="1.85"/>
        <circle cx="61.03" cy="128.25" r="1.85"/>
        <circle cx="65.35" cy="128.25" r="1.85"/>
        <circle cx="69.67" cy="128.25" r="1.85"/>
        <circle cx="74" cy="128.25" r="1.85"/>
        <circle cx="78.32" cy="128.25" r="1.85"/>
        <circle cx="82.64" cy="128.25" r="1.85"/>
        <circle cx="86.96" cy="128.25" r="1.85"/>
        <circle cx="91.28" cy="128.25" r="1.85"/>
        <circle cx="95.61" cy="128.25" r="1.85"/>
        <circle cx="99.94" cy="128.25" r="1.85"/>
        <circle cx="104.27" cy="128.25" r="1.85"/>
        <circle cx="108.6" cy="128.25" r="1.85"/>
        <circle cx="112.93" cy="128.25" r="1.85"/>
        <circle cx="117.26" cy="128.25" r="1.85"/>
        <circle cx="121.6" cy="128.25" r="1.85"/>
        <circle cx="39.39" cy="122.32" r="1.85"/>
        <circle cx="43.71" cy="122.32" r="1.85"/>
        <circle cx="48.03" cy="122.32" r="1.85"/>
        <circle cx="52.35" cy="122.32" r="1.85"/>
        <circle cx="56.67" cy="122.32" r="1.85"/>
        <circle cx="60.99" cy="122.32" r="1.85"/>
        <circle cx="65.32" cy="122.32" r="1.85"/>
        <circle cx="69.64" cy="122.32" r="1.85"/>
        <circle cx="73.96" cy="122.32" r="1.85"/>
        <circle cx="78.29" cy="122.32" r="1.85"/>
        <circle cx="82.62" cy="122.32" r="1.85"/>
        <circle cx="86.95" cy="122.32" r="1.85"/>
        <circle cx="91.28" cy="122.32" r="1.85"/>
        <circle cx="95.61" cy="122.32" r="1.85"/>
        <circle cx="99.94" cy="122.32" r="1.85"/>
        <circle cx="104.27" cy="122.32" r="1.85"/>
        <circle cx="108.6" cy="122.32" r="1.85"/>
        <circle cx="112.93" cy="122.32" r="1.85"/>
        <circle cx="117.26" cy="122.32" r="1.85"/>
        <circle cx="121.6" cy="122.32" r="1.85"/>
        <circle cx="22.07" cy="63.01" r="1.85"/>
        <circle cx="26.39" cy="63.01" r="1.85"/>
        <circle cx="30.71" cy="63.01" r="1.85"/>
        <circle cx="35.03" cy="63.01" r="1.85"/>
        <circle cx="39.35" cy="63.01" r="1.85"/>
        <circle cx="43.67" cy="63.01" r="1.85"/>
        <circle cx="47.99" cy="63.01" r="1.85"/>
        <circle cx="52.31" cy="63.01" r="1.85"/>
        <circle cx="56.64" cy="63.01" r="1.85"/>
        <circle cx="60.97" cy="63.01" r="1.85"/>
        <circle cx="65.3" cy="63.01" r="1.85"/>
        <circle cx="69.63" cy="63.01" r="1.85"/>
        <circle cx="73.96" cy="63.01" r="1.85"/>
        <circle cx="78.29" cy="63.01" r="1.85"/>
        <circle cx="82.62" cy="63.01" r="1.85"/>
        <circle cx="86.95" cy="63.01" r="1.85"/>
        <circle cx="91.28" cy="63.01" r="1.85"/>
        <circle cx="95.61" cy="63.01" r="1.85"/>
        <circle cx="99.94" cy="63.01" r="1.85"/>
        <circle cx="104.27" cy="63.01" r="1.85"/>
        <circle cx="108.6" cy="63.01" r="1.85"/>
        <circle cx="112.93" cy="63.01" r="1.85"/>
        <g>
            <circle cx="22.07" cy="57.08" r="1.85"/>
            <circle cx="26.39" cy="57.08" r="1.85"/>
            <circle cx="30.71" cy="57.08" r="1.85"/>
            <circle cx="35.03" cy="57.08" r="1.85"/>
            <circle cx="39.35" cy="57.08" r="1.85"/>
            <circle cx="43.67" cy="57.08" r="1.85"/>
            <circle cx="47.99" cy="57.08" r="1.85"/>
            <circle cx="52.31" cy="57.08" r="1.85"/>
            <circle cx="56.64" cy="57.08" r="1.85"/>
            <circle cx="60.97" cy="57.08" r="1.85"/>
            <circle cx="65.3" cy="57.08" r="1.85"/>
            <circle cx="69.63" cy="57.08" r="1.85"/>
            <circle cx="73.96" cy="57.08" r="1.85"/>
            <circle cx="78.29" cy="57.08" r="1.85"/>
            <circle cx="82.62" cy="57.08" r="1.85"/>
            <circle cx="86.95" cy="57.08" r="1.85"/>
            <circle cx="91.28" cy="57.08" r="1.85"/>
            <circle cx="95.61" cy="57.08" r="1.85"/>
            <circle cx="99.94" cy="57.08" r="1.85"/>
            <circle cx="104.27" cy="57.08" r="1.85"/>
            <circle cx="108.6" cy="57.08" r="1.85"/>
            <circle cx="112.93" cy="57.08" r="1.85"/>
        </g>
        <g>
            <circle cx="22.07" cy="51.15" r="1.85"/>
            <circle cx="26.39" cy="51.15" r="1.85"/>
            <circle cx="30.71" cy="51.15" r="1.85"/>
            <circle cx="35.03" cy="51.15" r="1.85"/>
            <circle cx="39.35" cy="51.15" r="1.85"/>
            <circle cx="43.67" cy="51.15" r="1.85"/>
            <circle cx="47.99" cy="51.15" r="1.85"/>
            <circle cx="52.31" cy="51.15" r="1.85"/>
            <circle cx="56.64" cy="51.15" r="1.85"/>
            <circle cx="60.97" cy="51.15" r="1.85"/>
            <circle cx="65.3" cy="51.15" r="1.85"/>
            <circle cx="69.63" cy="51.15" r="1.85"/>
            <circle cx="73.96" cy="51.15" r="1.85"/>
            <circle cx="78.29" cy="51.15" r="1.85"/>
            <circle cx="82.62" cy="51.15" r="1.85"/>
            <circle cx="86.95" cy="51.15" r="1.85"/>
            <circle cx="91.28" cy="51.15" r="1.85"/>
            <circle cx="95.61" cy="51.15" r="1.85"/>
            <circle cx="99.94" cy="51.15" r="1.85"/>
            <circle cx="104.27" cy="51.15" r="1.85"/>
            <circle cx="108.6" cy="51.15" r="1.85"/>
            <circle cx="112.93" cy="51.15" r="1.85"/>
        </g>
        <g>
            <circle cx="22.07" cy="45.22" r="1.85"/>
            <circle cx="26.39" cy="45.22" r="1.85"/>
            <circle cx="30.71" cy="45.22" r="1.85"/>
            <circle cx="35.03" cy="45.22" r="1.85"/>
            <circle cx="39.35" cy="45.22" r="1.85"/>
            <circle cx="43.67" cy="45.22" r="1.85"/>
            <circle cx="47.99" cy="45.22" r="1.85"/>
            <circle cx="52.31" cy="45.22" r="1.85"/>
            <circle cx="56.64" cy="45.22" r="1.85"/>
            <circle cx="60.97" cy="45.22" r="1.85"/>
            <circle cx="65.3" cy="45.22" r="1.85"/>
            <circle cx="69.63" cy="45.22" r="1.85"/>
            <circle cx="73.96" cy="45.22" r="1.85"/>
            <circle cx="78.29" cy="45.22" r="1.85"/>
            <circle cx="82.62" cy="45.22" r="1.85"/>
            <circle cx="86.95" cy="45.22" r="1.85"/>
            <circle cx="91.28" cy="45.22" r="1.85"/>
            <circle cx="95.61" cy="45.22" r="1.85"/>
            <circle cx="99.94" cy="45.22" r="1.85"/>
            <circle cx="104.27" cy="45.22" r="1.85"/>
            <circle cx="108.6" cy="45.22" r="1.85"/>
            <circle cx="112.93" cy="45.22" r="1.85"/>
        </g>
        <g>
            <circle cx="22.07" cy="39.28" r="1.85"/>
            <circle cx="26.39" cy="39.28" r="1.85"/>
            <circle cx="30.71" cy="39.28" r="1.85"/>
            <circle cx="35.03" cy="39.28" r="1.85"/>
            <circle cx="39.35" cy="39.28" r="1.85"/>
            <circle cx="43.67" cy="39.28" r="1.85"/>
            <circle cx="47.99" cy="39.28" r="1.85"/>
            <circle cx="52.31" cy="39.28" r="1.85"/>
            <circle cx="56.64" cy="39.28" r="1.85"/>
            <circle cx="60.97" cy="39.28" r="1.85"/>
            <circle cx="65.3" cy="39.28" r="1.85"/>
            <circle cx="69.63" cy="39.28" r="1.85"/>
            <circle cx="73.96" cy="39.28" r="1.85"/>
            <circle cx="78.29" cy="39.28" r="1.85"/>
            <circle cx="82.62" cy="39.28" r="1.85"/>
            <circle cx="86.95" cy="39.28" r="1.85"/>
            <circle cx="91.28" cy="39.28" r="1.85"/>
            <circle cx="95.61" cy="39.28" r="1.85"/>
            <circle cx="99.94" cy="39.28" r="1.85"/>
            <circle cx="104.27" cy="39.28" r="1.85"/>
            <circle cx="108.6" cy="39.28" r="1.85"/>
            <circle cx="112.93" cy="39.28" r="1.85"/>
        </g>
        <g>
            <circle cx="26.4" cy="116.39" r="1.85"/>
            <circle cx="30.72" cy="116.39" r="1.85"/>
            <circle cx="35.04" cy="116.39" r="1.85"/>
            <circle cx="39.36" cy="116.39" r="1.85"/>
            <circle cx="43.68" cy="116.39" r="1.85"/>
            <circle cx="48" cy="116.39" r="1.85"/>
            <circle cx="52.32" cy="116.39" r="1.85"/>
            <circle cx="56.64" cy="116.39" r="1.85"/>
            <circle cx="60.97" cy="116.39" r="1.85"/>
            <circle cx="65.3" cy="116.39" r="1.85"/>
            <circle cx="69.63" cy="116.39" r="1.85"/>
            <circle cx="73.96" cy="116.39" r="1.85"/>
            <circle cx="78.29" cy="116.39" r="1.85"/>
            <circle cx="82.62" cy="116.39" r="1.85"/>
            <circle cx="86.95" cy="116.39" r="1.85"/>
            <circle cx="91.28" cy="116.39" r="1.85"/>
            <circle cx="95.61" cy="116.39" r="1.85"/>
            <circle cx="99.94" cy="116.39" r="1.85"/>
            <circle cx="104.27" cy="116.39" r="1.85"/>
            <circle cx="108.6" cy="116.39" r="1.85"/>
            <circle cx="112.93" cy="116.39" r="1.85"/>
            <circle cx="117.26" cy="116.39" r="1.85"/>
            <circle cx="121.6" cy="116.39" r="1.85"/>
        </g>
        <g>
            <circle cx="13.4" cy="33.35" r="1.85"/>
            <circle cx="17.73" cy="33.35" r="1.85"/>
            <circle cx="22.05" cy="33.35" r="1.85"/>
            <circle cx="26.37" cy="33.35" r="1.85"/>
            <circle cx="30.69" cy="33.35" r="1.85"/>
            <circle cx="35.01" cy="33.35" r="1.85"/>
            <circle cx="39.33" cy="33.35" r="1.85"/>
            <circle cx="43.65" cy="33.35" r="1.85"/>
            <circle cx="47.97" cy="33.35" r="1.85"/>
            <circle cx="52.3" cy="33.35" r="1.85"/>
            <circle cx="56.64" cy="33.35" r="1.85"/>
            <circle cx="60.97" cy="33.35" r="1.85"/>
            <circle cx="65.3" cy="33.35" r="1.85"/>
            <circle cx="69.63" cy="33.35" r="1.85"/>
            <circle cx="73.96" cy="33.35" r="1.85"/>
            <circle cx="78.29" cy="33.35" r="1.85"/>
            <circle cx="82.62" cy="33.35" r="1.85"/>
            <circle cx="86.95" cy="33.35" r="1.85"/>
            <circle cx="91.28" cy="33.35" r="1.85"/>
            <circle cx="95.61" cy="33.35" r="1.85"/>
            <circle cx="99.94" cy="33.35" r="1.85"/>
            <circle cx="104.27" cy="33.35" r="1.85"/>
            <circle cx="108.6" cy="33.35" r="1.85"/>
            <circle cx="112.93" cy="33.35" r="1.85"/>
            <circle cx="117.26" cy="33.35" r="1.85"/>
            <circle cx="121.6" cy="33.35" r="1.85"/>
        </g>
        <g>
            <circle cx="13.4" cy="68.94" r="1.85"/>
            <circle cx="17.73" cy="68.94" r="1.85"/>
            <circle cx="22.05" cy="68.94" r="1.85"/>
            <circle cx="26.37" cy="68.94" r="1.85"/>
            <circle cx="30.69" cy="68.94" r="1.85"/>
            <circle cx="35.01" cy="68.94" r="1.85"/>
            <circle cx="39.33" cy="68.94" r="1.85"/>
            <circle cx="43.65" cy="68.94" r="1.85"/>
            <circle cx="47.97" cy="68.94" r="1.85"/>
            <circle cx="52.3" cy="68.94" r="1.85"/>
            <circle cx="56.64" cy="68.94" r="1.85"/>
            <circle cx="60.97" cy="68.94" r="1.85"/>
            <circle cx="65.3" cy="68.94" r="1.85"/>
            <circle cx="69.63" cy="68.94" r="1.85"/>
            <circle cx="73.96" cy="68.94" r="1.85"/>
            <circle cx="78.29" cy="68.94" r="1.85"/>
            <circle cx="82.62" cy="68.94" r="1.85"/>
            <circle cx="86.95" cy="68.94" r="1.85"/>
            <circle cx="91.28" cy="68.94" r="1.85"/>
            <circle cx="95.61" cy="68.94" r="1.85"/>
            <circle cx="99.94" cy="68.94" r="1.85"/>
            <circle cx="104.27" cy="68.94" r="1.85"/>
            <circle cx="108.6" cy="68.94" r="1.85"/>
            <circle cx="112.93" cy="68.94" r="1.85"/>
            <circle cx="117.26" cy="68.94" r="1.85"/>
            <circle cx="121.6" cy="68.94" r="1.85"/>
        </g>
        <g>
            <circle cx="13.4" cy="74.87" r="1.85"/>
            <circle cx="17.73" cy="74.87" r="1.85"/>
            <circle cx="22.05" cy="74.87" r="1.85"/>
            <circle cx="26.37" cy="74.87" r="1.85"/>
            <circle cx="30.69" cy="74.87" r="1.85"/>
            <circle cx="35.01" cy="74.87" r="1.85"/>
            <circle cx="39.33" cy="74.87" r="1.85"/>
            <circle cx="43.65" cy="74.87" r="1.85"/>
            <circle cx="47.97" cy="74.87" r="1.85"/>
            <circle cx="52.3" cy="74.87" r="1.85"/>
            <circle cx="56.64" cy="74.87" r="1.85"/>
            <circle cx="60.97" cy="74.87" r="1.85"/>
            <circle cx="65.3" cy="74.87" r="1.85"/>
            <circle cx="69.63" cy="74.87" r="1.85"/>
            <circle cx="73.96" cy="74.87" r="1.85"/>
            <circle cx="78.29" cy="74.87" r="1.85"/>
            <circle cx="82.62" cy="74.87" r="1.85"/>
            <circle cx="86.95" cy="74.87" r="1.85"/>
            <circle cx="91.28" cy="74.87" r="1.85"/>
            <circle cx="95.61" cy="74.87" r="1.85"/>
            <circle cx="99.94" cy="74.87" r="1.85"/>
            <circle cx="104.27" cy="74.87" r="1.85"/>
            <circle cx="108.6" cy="74.87" r="1.85"/>
            <circle cx="112.93" cy="74.87" r="1.85"/>
            <circle cx="117.26" cy="74.87" r="1.85"/>
            <circle cx="121.6" cy="74.87" r="1.85"/>
        </g>
        <g>
            <circle cx="13.4" cy="80.8" r="1.85"/>
            <circle cx="17.73" cy="80.8" r="1.85"/>
            <circle cx="22.05" cy="80.8" r="1.85"/>
            <circle cx="26.37" cy="80.8" r="1.85"/>
            <circle cx="30.69" cy="80.8" r="1.85"/>
            <circle cx="35.01" cy="80.8" r="1.85"/>
            <circle cx="39.33" cy="80.8" r="1.85"/>
            <circle cx="43.65" cy="80.8" r="1.85"/>
            <circle cx="47.97" cy="80.8" r="1.85"/>
            <circle cx="52.3" cy="80.8" r="1.85"/>
            <circle cx="56.64" cy="80.8" r="1.85"/>
            <circle cx="60.97" cy="80.8" r="1.85"/>
            <circle cx="65.3" cy="80.8" r="1.85"/>
            <circle cx="69.63" cy="80.8" r="1.85"/>
            <circle cx="73.96" cy="80.8" r="1.85"/>
            <circle cx="78.29" cy="80.8" r="1.85"/>
            <circle cx="82.62" cy="80.8" r="1.85"/>
            <circle cx="86.95" cy="80.8" r="1.85"/>
            <circle cx="91.28" cy="80.8" r="1.85"/>
            <circle cx="95.61" cy="80.8" r="1.85"/>
            <circle cx="99.94" cy="80.8" r="1.85"/>
            <circle cx="104.27" cy="80.8" r="1.85"/>
            <circle cx="108.6" cy="80.8" r="1.85"/>
            <circle cx="112.93" cy="80.8" r="1.85"/>
            <circle cx="117.26" cy="80.8" r="1.85"/>
            <circle cx="121.6" cy="80.8" r="1.85"/>
        </g>
        <g>
            <circle cx="13.4" cy="86.73" r="1.85"/>
            <circle cx="17.73" cy="86.73" r="1.85"/>
            <circle cx="22.05" cy="86.73" r="1.85"/>
            <circle cx="26.37" cy="86.73" r="1.85"/>
            <circle cx="30.69" cy="86.73" r="1.85"/>
            <circle cx="35.01" cy="86.73" r="1.85"/>
            <circle cx="39.33" cy="86.73" r="1.85"/>
            <circle cx="43.65" cy="86.73" r="1.85"/>
            <circle cx="47.97" cy="86.73" r="1.85"/>
            <circle cx="52.3" cy="86.73" r="1.85"/>
            <circle cx="56.64" cy="86.73" r="1.85"/>
            <circle cx="60.97" cy="86.73" r="1.85"/>
            <circle cx="65.3" cy="86.73" r="1.85"/>
            <circle cx="69.63" cy="86.73" r="1.85"/>
            <circle cx="73.96" cy="86.73" r="1.85"/>
            <circle cx="78.29" cy="86.73" r="1.85"/>
            <circle cx="82.62" cy="86.73" r="1.85"/>
            <circle cx="86.95" cy="86.73" r="1.85"/>
            <circle cx="91.28" cy="86.73" r="1.85"/>
            <circle cx="95.61" cy="86.73" r="1.85"/>
            <circle cx="99.94" cy="86.73" r="1.85"/>
            <circle cx="104.27" cy="86.73" r="1.85"/>
            <circle cx="108.6" cy="86.73" r="1.85"/>
            <circle cx="112.93" cy="86.73" r="1.85"/>
            <circle cx="117.26" cy="86.73" r="1.85"/>
            <circle cx="121.6" cy="86.73" r="1.85"/>
        </g>
        <g>
            <circle cx="13.4" cy="92.66" r="1.85"/>
            <circle cx="17.73" cy="92.66" r="1.85"/>
            <circle cx="22.05" cy="92.66" r="1.85"/>
            <circle cx="26.37" cy="92.66" r="1.85"/>
            <circle cx="30.69" cy="92.66" r="1.85"/>
            <circle cx="35.01" cy="92.66" r="1.85"/>
            <circle cx="39.33" cy="92.66" r="1.85"/>
            <circle cx="43.65" cy="92.66" r="1.85"/>
            <circle cx="47.97" cy="92.66" r="1.85"/>
            <circle cx="52.3" cy="92.66" r="1.85"/>
            <circle cx="56.64" cy="92.66" r="1.85"/>
            <circle cx="60.97" cy="92.66" r="1.85"/>
            <circle cx="65.3" cy="92.66" r="1.85"/>
            <circle cx="69.63" cy="92.66" r="1.85"/>
            <circle cx="73.96" cy="92.66" r="1.85"/>
            <circle cx="78.29" cy="92.66" r="1.85"/>
            <circle cx="82.62" cy="92.66" r="1.85"/>
            <circle cx="86.95" cy="92.66" r="1.85"/>
            <circle cx="91.28" cy="92.66" r="1.85"/>
            <circle cx="95.61" cy="92.66" r="1.85"/>
            <circle cx="99.94" cy="92.66" r="1.85"/>
            <circle cx="104.27" cy="92.66" r="1.85"/>
            <circle cx="108.6" cy="92.66" r="1.85"/>
            <circle cx="112.93" cy="92.66" r="1.85"/>
            <circle cx="117.26" cy="92.66" r="1.85"/>
            <circle cx="121.6" cy="92.66" r="1.85"/>
        </g>
        <g>
            <circle cx="13.4" cy="98.59" r="1.85"/>
            <circle cx="17.73" cy="98.59" r="1.85"/>
            <circle cx="22.05" cy="98.59" r="1.85"/>
            <circle cx="26.37" cy="98.59" r="1.85"/>
            <circle cx="30.69" cy="98.59" r="1.85"/>
            <circle cx="35.01" cy="98.59" r="1.85"/>
            <circle cx="39.33" cy="98.59" r="1.85"/>
            <circle cx="43.65" cy="98.59" r="1.85"/>
            <circle cx="47.97" cy="98.59" r="1.85"/>
            <circle cx="52.3" cy="98.59" r="1.85"/>
            <circle cx="56.64" cy="98.59" r="1.85"/>
            <circle cx="60.97" cy="98.59" r="1.85"/>
            <circle cx="65.3" cy="98.59" r="1.85"/>
            <circle cx="69.63" cy="98.59" r="1.85"/>
            <circle cx="73.96" cy="98.59" r="1.85"/>
            <circle cx="78.29" cy="98.59" r="1.85"/>
            <circle cx="82.62" cy="98.59" r="1.85"/>
            <circle cx="86.95" cy="98.59" r="1.85"/>
            <circle cx="91.28" cy="98.59" r="1.85"/>
            <circle cx="95.61" cy="98.59" r="1.85"/>
            <circle cx="99.94" cy="98.59" r="1.85"/>
            <circle cx="104.27" cy="98.59" r="1.85"/>
            <circle cx="108.6" cy="98.59" r="1.85"/>
            <circle cx="112.93" cy="98.59" r="1.85"/>
            <circle cx="117.26" cy="98.59" r="1.85"/>
            <circle cx="121.6" cy="98.59" r="1.85"/>
        </g>
        <g>
            <circle cx="13.4" cy="104.52" r="1.85"/>
            <circle cx="17.73" cy="104.52" r="1.85"/>
            <circle cx="22.05" cy="104.52" r="1.85"/>
            <circle cx="26.37" cy="104.52" r="1.85"/>
            <circle cx="30.69" cy="104.52" r="1.85"/>
            <circle cx="35.01" cy="104.52" r="1.85"/>
            <circle cx="39.33" cy="104.52" r="1.85"/>
            <circle cx="43.65" cy="104.52" r="1.85"/>
            <circle cx="47.97" cy="104.52" r="1.85"/>
            <circle cx="52.3" cy="104.52" r="1.85"/>
            <circle cx="56.64" cy="104.52" r="1.85"/>
            <circle cx="60.97" cy="104.52" r="1.85"/>
            <circle cx="65.3" cy="104.52" r="1.85"/>
            <circle cx="69.63" cy="104.52" r="1.85"/>
            <circle cx="73.96" cy="104.52" r="1.85"/>
            <circle cx="78.29" cy="104.52" r="1.85"/>
            <circle cx="82.62" cy="104.52" r="1.85"/>
            <circle cx="86.95" cy="104.52" r="1.85"/>
            <circle cx="91.28" cy="104.52" r="1.85"/>
            <circle cx="95.61" cy="104.52" r="1.85"/>
            <circle cx="99.94" cy="104.52" r="1.85"/>
            <circle cx="104.27" cy="104.52" r="1.85"/>
            <circle cx="108.6" cy="104.52" r="1.85"/>
            <circle cx="112.93" cy="104.52" r="1.85"/>
            <circle cx="117.26" cy="104.52" r="1.85"/>
            <circle cx="121.6" cy="104.52" r="1.85"/>
        </g>
        <g>
            <circle cx="13.4" cy="110.45" r="1.85"/>
            <circle cx="17.73" cy="110.45" r="1.85"/>
            <circle cx="22.05" cy="110.45" r="1.85"/>
            <circle cx="26.37" cy="110.45" r="1.85"/>
            <circle cx="30.69" cy="110.45" r="1.85"/>
            <circle cx="35.01" cy="110.45" r="1.85"/>
            <circle cx="39.33" cy="110.45" r="1.85"/>
            <circle cx="43.65" cy="110.45" r="1.85"/>
            <circle cx="47.97" cy="110.45" r="1.85"/>
            <circle cx="52.3" cy="110.45" r="1.85"/>
            <circle cx="56.64" cy="110.45" r="1.85"/>
            <circle cx="60.97" cy="110.45" r="1.85"/>
            <circle cx="65.3" cy="110.45" r="1.85"/>
            <circle cx="69.63" cy="110.45" r="1.85"/>
            <circle cx="73.96" cy="110.45" r="1.85"/>
            <circle cx="78.29" cy="110.45" r="1.85"/>
            <circle cx="82.62" cy="110.45" r="1.85"/>
            <circle cx="86.95" cy="110.45" r="1.85"/>
            <circle cx="91.28" cy="110.45" r="1.85"/>
            <circle cx="95.61" cy="110.45" r="1.85"/>
            <circle cx="99.94" cy="110.45" r="1.85"/>
            <circle cx="104.27" cy="110.45" r="1.85"/>
            <circle cx="108.6" cy="110.45" r="1.85"/>
            <circle cx="112.93" cy="110.45" r="1.85"/>
            <circle cx="117.26" cy="110.45" r="1.85"/>
            <circle cx="121.6" cy="110.45" r="1.85"/>
        </g>
        <g>
            <circle cx="13.4" cy="27.42" r="1.85"/>
            <circle cx="17.73" cy="27.42" r="1.85"/>
            <circle cx="22.05" cy="27.42" r="1.85"/>
            <circle cx="26.37" cy="27.42" r="1.85"/>
            <circle cx="30.69" cy="27.42" r="1.85"/>
            <circle cx="35.01" cy="27.42" r="1.85"/>
            <circle cx="39.33" cy="27.42" r="1.85"/>
            <circle cx="43.65" cy="27.42" r="1.85"/>
            <circle cx="47.97" cy="27.42" r="1.85"/>
            <circle cx="52.3" cy="27.42" r="1.85"/>
            <circle cx="56.64" cy="27.42" r="1.85"/>
            <circle cx="60.97" cy="27.42" r="1.85"/>
            <circle cx="65.3" cy="27.42" r="1.85"/>
            <circle cx="69.63" cy="27.42" r="1.85"/>
            <circle cx="73.96" cy="27.42" r="1.85"/>
            <circle cx="78.29" cy="27.42" r="1.85"/>
            <circle cx="82.62" cy="27.42" r="1.85"/>
            <circle cx="86.95" cy="27.42" r="1.85"/>
            <circle cx="91.28" cy="27.42" r="1.85"/>
            <circle cx="95.61" cy="27.42" r="1.85"/>
            <circle cx="99.94" cy="27.42" r="1.85"/>
            <circle cx="104.27" cy="27.42" r="1.85"/>
            <circle cx="108.6" cy="27.42" r="1.85"/>
            <circle cx="112.93" cy="27.42" r="1.85"/>
            <circle cx="117.26" cy="27.42" r="1.85"/>
            <circle cx="121.6" cy="27.42" r="1.85"/>
        </g>
        <g>
            <circle cx="13.4" cy="21.49" r="1.85"/>
            <circle cx="17.73" cy="21.49" r="1.85"/>
            <circle cx="22.05" cy="21.49" r="1.85"/>
            <circle cx="26.37" cy="21.49" r="1.85"/>
            <circle cx="30.69" cy="21.49" r="1.85"/>
            <circle cx="35.01" cy="21.49" r="1.85"/>
            <circle cx="39.33" cy="21.49" r="1.85"/>
            <circle cx="43.65" cy="21.49" r="1.85"/>
            <circle cx="47.97" cy="21.49" r="1.85"/>
            <circle cx="52.3" cy="21.49" r="1.85"/>
            <circle cx="56.64" cy="21.49" r="1.85"/>
            <circle cx="60.97" cy="21.49" r="1.85"/>
            <circle cx="65.3" cy="21.49" r="1.85"/>
            <circle cx="69.63" cy="21.49" r="1.85"/>
            <circle cx="73.96" cy="21.49" r="1.85"/>
            <circle cx="78.29" cy="21.49" r="1.85"/>
            <circle cx="82.62" cy="21.49" r="1.85"/>
            <circle cx="86.95" cy="21.49" r="1.85"/>
            <circle cx="91.28" cy="21.49" r="1.85"/>
            <circle cx="95.61" cy="21.49" r="1.85"/>
            <circle cx="99.94" cy="21.49" r="1.85"/>
            <circle cx="104.27" cy="21.49" r="1.85"/>
            <circle cx="108.6" cy="21.49" r="1.85"/>
            <circle cx="112.93" cy="21.49" r="1.85"/>
            <circle cx="117.26" cy="21.49" r="1.85"/>
            <circle cx="121.6" cy="21.49" r="1.85"/>
        </g>
        <g>
            <circle cx="13.4" cy="15.56" r="1.85"/>
            <circle cx="17.73" cy="15.56" r="1.85"/>
            <circle cx="22.05" cy="15.56" r="1.85"/>
            <circle cx="26.37" cy="15.56" r="1.85"/>
            <circle cx="30.69" cy="15.56" r="1.85"/>
            <circle cx="35.01" cy="15.56" r="1.85"/>
            <circle cx="39.33" cy="15.56" r="1.85"/>
            <circle cx="43.65" cy="15.56" r="1.85"/>
            <circle cx="47.97" cy="15.56" r="1.85"/>
            <circle cx="52.3" cy="15.56" r="1.85"/>
            <circle cx="56.64" cy="15.56" r="1.85"/>
            <circle cx="60.97" cy="15.56" r="1.85"/>
            <circle cx="65.3" cy="15.56" r="1.85"/>
            <circle cx="69.63" cy="15.56" r="1.85"/>
            <circle cx="73.96" cy="15.56" r="1.85"/>
            <circle cx="78.29" cy="15.56" r="1.85"/>
            <circle cx="82.62" cy="15.56" r="1.85"/>
            <circle cx="86.95" cy="15.56" r="1.85"/>
            <circle cx="91.28" cy="15.56" r="1.85"/>
            <circle cx="95.61" cy="15.56" r="1.85"/>
            <circle cx="99.94" cy="15.56" r="1.85"/>
            <circle cx="104.27" cy="15.56" r="1.85"/>
            <circle cx="108.6" cy="15.56" r="1.85"/>
            <circle cx="112.93" cy="15.56" r="1.85"/>
            <circle cx="117.26" cy="15.56" r="1.85"/>
            <circle cx="121.6" cy="15.56" r="1.85"/>
        </g>
        <g>
            <circle cx="13.4" cy="9.63" r="1.85"/>
            <circle cx="17.73" cy="9.63" r="1.85"/>
            <circle cx="22.05" cy="9.63" r="1.85"/>
            <circle cx="26.37" cy="9.63" r="1.85"/>
            <circle cx="30.69" cy="9.63" r="1.85"/>
            <circle cx="35.01" cy="9.63" r="1.85"/>
            <circle cx="39.33" cy="9.63" r="1.85"/>
            <circle cx="43.65" cy="9.63" r="1.85"/>
            <circle cx="47.97" cy="9.63" r="1.85"/>
            <circle cx="52.3" cy="9.63" r="1.85"/>
            <circle cx="56.64" cy="9.63" r="1.85"/>
            <circle cx="60.97" cy="9.63" r="1.85"/>
            <circle cx="65.3" cy="9.63" r="1.85"/>
            <circle cx="69.63" cy="9.63" r="1.85"/>
            <circle cx="73.96" cy="9.63" r="1.85"/>
            <circle cx="78.29" cy="9.63" r="1.85"/>
            <circle cx="82.62" cy="9.63" r="1.85"/>
            <circle cx="86.95" cy="9.63" r="1.85"/>
            <circle cx="91.28" cy="9.63" r="1.85"/>
            <circle cx="95.61" cy="9.63" r="1.85"/>
            <circle cx="99.94" cy="9.63" r="1.85"/>
            <circle cx="104.27" cy="9.63" r="1.85"/>
            <circle cx="108.6" cy="9.63" r="1.85"/>
            <circle cx="112.93" cy="9.63" r="1.85"/>
            <circle cx="117.26" cy="9.63" r="1.85"/>
            <circle cx="121.6" cy="9.63" r="1.85"/>
        </g>
    </g>
</svg>
