<?xml version="1.0" encoding="utf-8"?>
<!-- Generator: Adobe Illustrator 23.0.1, SVG Export Plug-In . SVG Version: 6.00 Build 0)  -->
<svg version="1.1" id="Layer_1" xmlns="http://www.w3.org/2000/svg" xmlns:xlink="http://www.w3.org/1999/xlink" x="0px" y="0px"
	 viewBox="0 0 135 172" style="enable-background:new 0 0 135 172;" xml:space="preserve">
<style type="text/css">
	.st0{fill:#F1F3F4;stroke:#BCC8CE;stroke-width:0.4;stroke-linecap:round;stroke-miterlimit:10;}
	.st1{fill:#AEBDC4;}
	.st2{font-family:'Roboto-Medium';}
	.st3{font-size:3px;}
</style>
<polygon class="st0" points="134.6,171.4 0.4,122.6 0.4,0.6 134.6,0.6 "/>
	<g 
      data-sort-seat-direction="ltr" 
      data-sort-line-direction="ttb" 
      data-sort-seat-option="cx" 
      data-sort-line-option="cy" 
      data-line-start="28"
      >
	<g>
		<circle class="st1" cx="100" cy="146" r="1.9"/>
		<circle class="st1" cx="104.3" cy="146" r="1.9"/>
		<circle class="st1" cx="108.6" cy="146" r="1.9"/>
		<circle class="st1" cx="112.9" cy="146" r="1.9"/>
		<circle class="st1" cx="117.3" cy="146" r="1.9"/>
		<circle class="st1" cx="121.6" cy="146" r="1.9"/>
		<text transform="matrix(1 0 0 1 124.7007 147.0913)" class="st1 st2 st3">00</text>
		<text transform="matrix(1 0 0 1 93.4906 147.0913)" class="st1 st2 st3">00</text>
	</g>
	<g>
		<circle class="st1" cx="87" cy="140.1" r="1.9"/>
		<circle class="st1" cx="91.3" cy="140.1" r="1.9"/>
		<circle class="st1" cx="95.7" cy="140.1" r="1.9"/>
		<circle class="st1" cx="100" cy="140.1" r="1.9"/>
		<circle class="st1" cx="104.3" cy="140.1" r="1.9"/>
		<circle class="st1" cx="108.6" cy="140.1" r="1.9"/>
		<circle class="st1" cx="112.9" cy="140.1" r="1.9"/>
		<circle class="st1" cx="117.3" cy="140.1" r="1.9"/>
		<circle class="st1" cx="121.6" cy="140.1" r="1.9"/>
		<text transform="matrix(1 0 0 1 124.7007 141.1614)" class="st1 st2 st3">00</text>
		<text transform="matrix(1 0 0 1 80.5306 141.1614)" class="st1 st2 st3">00</text>
	</g>
	<g>
		<circle class="st1" cx="74" cy="134.2" r="1.9"/>
		<circle class="st1" cx="78.4" cy="134.2" r="1.9"/>
		<circle class="st1" cx="82.7" cy="134.2" r="1.9"/>
		<circle class="st1" cx="87" cy="134.2" r="1.9"/>
		<circle class="st1" cx="91.3" cy="134.2" r="1.9"/>
		<circle class="st1" cx="95.6" cy="134.2" r="1.9"/>
		<circle class="st1" cx="100" cy="134.2" r="1.9"/>
		<circle class="st1" cx="104.3" cy="134.2" r="1.9"/>
		<circle class="st1" cx="108.6" cy="134.2" r="1.9"/>
		<circle class="st1" cx="112.9" cy="134.2" r="1.9"/>
		<circle class="st1" cx="117.3" cy="134.2" r="1.9"/>
		<circle class="st1" cx="121.6" cy="134.2" r="1.9"/>
		<text transform="matrix(1 0 0 1 124.7007 135.2314)" class="st1 st2 st3">00</text>
		<text transform="matrix(1 0 0 1 67.5306 135.2314)" class="st1 st2 st3">00</text>
	</g>
	<g>
		<circle class="st1" cx="56.7" cy="128.2" r="1.9"/>
		<circle class="st1" cx="61" cy="128.2" r="1.9"/>
		<circle class="st1" cx="65.3" cy="128.2" r="1.9"/>
		<circle class="st1" cx="69.7" cy="128.2" r="1.9"/>
		<circle class="st1" cx="74" cy="128.2" r="1.9"/>
		<circle class="st1" cx="78.3" cy="128.2" r="1.9"/>
		<circle class="st1" cx="82.6" cy="128.2" r="1.9"/>
		<circle class="st1" cx="87" cy="128.2" r="1.9"/>
		<circle class="st1" cx="91.3" cy="128.2" r="1.9"/>
		<circle class="st1" cx="95.6" cy="128.2" r="1.9"/>
		<circle class="st1" cx="99.9" cy="128.2" r="1.9"/>
		<circle class="st1" cx="104.3" cy="128.2" r="1.9"/>
		<circle class="st1" cx="108.6" cy="128.2" r="1.9"/>
		<circle class="st1" cx="112.9" cy="128.2" r="1.9"/>
		<circle class="st1" cx="117.3" cy="128.2" r="1.9"/>
		<circle class="st1" cx="121.6" cy="128.2" r="1.9"/>
		<text transform="matrix(1 0 0 1 124.7007 129.3015)" class="st1 st2 st3">00</text>
		<text transform="matrix(1 0 0 1 50.2106 129.3015)" class="st1 st2 st3">00</text>
	</g>
	<g>
		<circle class="st1" cx="39.4" cy="122.3" r="1.8"/>
		<circle class="st1" cx="43.7" cy="122.3" r="1.8"/>
		<circle class="st1" cx="48" cy="122.3" r="1.8"/>
		<circle class="st1" cx="52.3" cy="122.3" r="1.8"/>
		<circle class="st1" cx="56.7" cy="122.3" r="1.8"/>
		<circle class="st1" cx="61" cy="122.3" r="1.8"/>
		<circle class="st1" cx="65.3" cy="122.3" r="1.8"/>
		<circle class="st1" cx="69.6" cy="122.3" r="1.8"/>
		<circle class="st1" cx="74" cy="122.3" r="1.8"/>
		<circle class="st1" cx="78.3" cy="122.3" r="1.8"/>
		<circle class="st1" cx="82.6" cy="122.3" r="1.8"/>
		<circle class="st1" cx="86.9" cy="122.3" r="1.8"/>
		<circle class="st1" cx="91.3" cy="122.3" r="1.8"/>
		<circle class="st1" cx="95.6" cy="122.3" r="1.8"/>
		<circle class="st1" cx="99.9" cy="122.3" r="1.8"/>
		<circle class="st1" cx="104.3" cy="122.3" r="1.8"/>
		<circle class="st1" cx="108.6" cy="122.3" r="1.8"/>
		<circle class="st1" cx="112.9" cy="122.3" r="1.8"/>
		<circle class="st1" cx="117.3" cy="122.3" r="1.8"/>
		<circle class="st1" cx="121.6" cy="122.3" r="1.8"/>
		<text transform="matrix(1 0 0 1 124.7007 123.3716)" class="st1 st2 st3">00</text>
		<text transform="matrix(1 0 0 1 32.8906 123.3716)" class="st1 st2 st3">00</text>
	</g>
	<g>
		<circle class="st1" cx="26.4" cy="116.4" r="1.8"/>
		<circle class="st1" cx="30.7" cy="116.4" r="1.8"/>
		<circle class="st1" cx="35" cy="116.4" r="1.8"/>
		<circle class="st1" cx="39.4" cy="116.4" r="1.8"/>
		<circle class="st1" cx="43.7" cy="116.4" r="1.8"/>
		<circle class="st1" cx="48" cy="116.4" r="1.8"/>
		<circle class="st1" cx="52.3" cy="116.4" r="1.8"/>
		<circle class="st1" cx="56.6" cy="116.4" r="1.8"/>
		<circle class="st1" cx="61" cy="116.4" r="1.8"/>
		<circle class="st1" cx="65.3" cy="116.4" r="1.8"/>
		<circle class="st1" cx="69.6" cy="116.4" r="1.8"/>
		<circle class="st1" cx="74" cy="116.4" r="1.8"/>
		<circle class="st1" cx="78.3" cy="116.4" r="1.8"/>
		<circle class="st1" cx="82.6" cy="116.4" r="1.8"/>
		<circle class="st1" cx="86.9" cy="116.4" r="1.8"/>
		<circle class="st1" cx="91.3" cy="116.4" r="1.8"/>
		<circle class="st1" cx="95.6" cy="116.4" r="1.8"/>
		<circle class="st1" cx="99.9" cy="116.4" r="1.8"/>
		<circle class="st1" cx="104.3" cy="116.4" r="1.8"/>
		<circle class="st1" cx="108.6" cy="116.4" r="1.8"/>
		<circle class="st1" cx="112.9" cy="116.4" r="1.8"/>
		<circle class="st1" cx="117.3" cy="116.4" r="1.8"/>
		<circle class="st1" cx="121.6" cy="116.4" r="1.8"/>
		<text transform="matrix(1 0 0 1 124.7007 117.4417)" class="st1 st2 st3">00</text>
		<text transform="matrix(1 0 0 1 19.8706 117.4417)" class="st1 st2 st3">00</text>
	</g>
	<g>
		<circle class="st1" cx="13.4" cy="110.4" r="1.8"/>
		<circle class="st1" cx="17.7" cy="110.4" r="1.8"/>
		<circle class="st1" cx="22" cy="110.4" r="1.8"/>
		<circle class="st1" cx="26.4" cy="110.4" r="1.8"/>
		<circle class="st1" cx="30.7" cy="110.4" r="1.8"/>
		<circle class="st1" cx="35" cy="110.4" r="1.8"/>
		<circle class="st1" cx="39.3" cy="110.4" r="1.8"/>
		<circle class="st1" cx="43.7" cy="110.4" r="1.8"/>
		<circle class="st1" cx="48" cy="110.4" r="1.8"/>
		<circle class="st1" cx="52.3" cy="110.4" r="1.8"/>
		<circle class="st1" cx="56.6" cy="110.4" r="1.8"/>
		<circle class="st1" cx="61" cy="110.4" r="1.8"/>
		<circle class="st1" cx="65.3" cy="110.4" r="1.8"/>
		<circle class="st1" cx="69.6" cy="110.4" r="1.8"/>
		<circle class="st1" cx="74" cy="110.4" r="1.8"/>
		<circle class="st1" cx="78.3" cy="110.4" r="1.8"/>
		<circle class="st1" cx="82.6" cy="110.4" r="1.8"/>
		<circle class="st1" cx="86.9" cy="110.4" r="1.8"/>
		<circle class="st1" cx="91.3" cy="110.4" r="1.8"/>
		<circle class="st1" cx="95.6" cy="110.4" r="1.8"/>
		<circle class="st1" cx="99.9" cy="110.4" r="1.8"/>
		<circle class="st1" cx="104.3" cy="110.4" r="1.8"/>
		<circle class="st1" cx="108.6" cy="110.4" r="1.8"/>
		<circle class="st1" cx="112.9" cy="110.4" r="1.8"/>
		<circle class="st1" cx="117.3" cy="110.4" r="1.8"/>
		<circle class="st1" cx="121.6" cy="110.4" r="1.8"/>
		<text transform="matrix(1 0 0 1 124.7007 111.5117)" class="st1 st2 st3">00</text>
		<text transform="matrix(1 0 0 1 6.9006 111.5117)" class="st1 st2 st3">00</text>
	</g>
	<g>
		<circle class="st1" cx="13.4" cy="104.5" r="1.8"/>
		<circle class="st1" cx="17.7" cy="104.5" r="1.8"/>
		<circle class="st1" cx="22" cy="104.5" r="1.8"/>
		<circle class="st1" cx="26.4" cy="104.5" r="1.8"/>
		<circle class="st1" cx="30.7" cy="104.5" r="1.8"/>
		<circle class="st1" cx="35" cy="104.5" r="1.8"/>
		<circle class="st1" cx="39.3" cy="104.5" r="1.8"/>
		<circle class="st1" cx="43.7" cy="104.5" r="1.8"/>
		<circle class="st1" cx="48" cy="104.5" r="1.8"/>
		<circle class="st1" cx="52.3" cy="104.5" r="1.8"/>
		<circle class="st1" cx="56.6" cy="104.5" r="1.8"/>
		<circle class="st1" cx="61" cy="104.5" r="1.8"/>
		<circle class="st1" cx="65.3" cy="104.5" r="1.8"/>
		<circle class="st1" cx="69.6" cy="104.5" r="1.8"/>
		<circle class="st1" cx="74" cy="104.5" r="1.8"/>
		<circle class="st1" cx="78.3" cy="104.5" r="1.8"/>
		<circle class="st1" cx="82.6" cy="104.5" r="1.8"/>
		<circle class="st1" cx="86.9" cy="104.5" r="1.8"/>
		<circle class="st1" cx="91.3" cy="104.5" r="1.8"/>
		<circle class="st1" cx="95.6" cy="104.5" r="1.8"/>
		<circle class="st1" cx="99.9" cy="104.5" r="1.8"/>
		<circle class="st1" cx="104.3" cy="104.5" r="1.8"/>
		<circle class="st1" cx="108.6" cy="104.5" r="1.8"/>
		<circle class="st1" cx="112.9" cy="104.5" r="1.8"/>
		<circle class="st1" cx="117.3" cy="104.5" r="1.8"/>
		<circle class="st1" cx="121.6" cy="104.5" r="1.8"/>
		<text transform="matrix(1 0 0 1 124.7007 105.5818)" class="st1 st2 st3">00</text>
		<text transform="matrix(1 0 0 1 6.9006 105.5818)" class="st1 st2 st3">00</text>
	</g>
	<g>
		<circle class="st1" cx="13.4" cy="98.6" r="1.8"/>
		<circle class="st1" cx="17.7" cy="98.6" r="1.8"/>
		<circle class="st1" cx="22" cy="98.6" r="1.8"/>
		<circle class="st1" cx="26.4" cy="98.6" r="1.8"/>
		<circle class="st1" cx="30.7" cy="98.6" r="1.8"/>
		<circle class="st1" cx="35" cy="98.6" r="1.8"/>
		<circle class="st1" cx="39.3" cy="98.6" r="1.8"/>
		<circle class="st1" cx="43.7" cy="98.6" r="1.8"/>
		<circle class="st1" cx="48" cy="98.6" r="1.8"/>
		<circle class="st1" cx="52.3" cy="98.6" r="1.8"/>
		<circle class="st1" cx="56.6" cy="98.6" r="1.8"/>
		<circle class="st1" cx="61" cy="98.6" r="1.8"/>
		<circle class="st1" cx="65.3" cy="98.6" r="1.8"/>
		<circle class="st1" cx="69.6" cy="98.6" r="1.8"/>
		<circle class="st1" cx="74" cy="98.6" r="1.8"/>
		<circle class="st1" cx="78.3" cy="98.6" r="1.8"/>
		<circle class="st1" cx="82.6" cy="98.6" r="1.8"/>
		<circle class="st1" cx="86.9" cy="98.6" r="1.8"/>
		<circle class="st1" cx="91.3" cy="98.6" r="1.8"/>
		<circle class="st1" cx="95.6" cy="98.6" r="1.8"/>
		<circle class="st1" cx="99.9" cy="98.6" r="1.8"/>
		<circle class="st1" cx="104.3" cy="98.6" r="1.8"/>
		<circle class="st1" cx="108.6" cy="98.6" r="1.8"/>
		<circle class="st1" cx="112.9" cy="98.6" r="1.8"/>
		<circle class="st1" cx="117.3" cy="98.6" r="1.8"/>
		<circle class="st1" cx="121.6" cy="98.6" r="1.8"/>
		<text transform="matrix(1 0 0 1 124.7007 99.6519)" class="st1 st2 st3">00</text>
		<text transform="matrix(1 0 0 1 6.9006 99.6519)" class="st1 st2 st3">00</text>
	</g>
	<g>
		<circle class="st1" cx="13.4" cy="92.7" r="1.8"/>
		<circle class="st1" cx="17.7" cy="92.7" r="1.8"/>
		<circle class="st1" cx="22" cy="92.7" r="1.8"/>
		<circle class="st1" cx="26.4" cy="92.7" r="1.8"/>
		<circle class="st1" cx="30.7" cy="92.7" r="1.8"/>
		<circle class="st1" cx="35" cy="92.7" r="1.8"/>
		<circle class="st1" cx="39.3" cy="92.7" r="1.8"/>
		<circle class="st1" cx="43.7" cy="92.7" r="1.8"/>
		<circle class="st1" cx="48" cy="92.7" r="1.8"/>
		<circle class="st1" cx="52.3" cy="92.7" r="1.8"/>
		<circle class="st1" cx="56.6" cy="92.7" r="1.8"/>
		<circle class="st1" cx="61" cy="92.7" r="1.8"/>
		<circle class="st1" cx="65.3" cy="92.7" r="1.8"/>
		<circle class="st1" cx="69.6" cy="92.7" r="1.8"/>
		<circle class="st1" cx="74" cy="92.7" r="1.8"/>
		<circle class="st1" cx="78.3" cy="92.7" r="1.8"/>
		<circle class="st1" cx="82.6" cy="92.7" r="1.8"/>
		<circle class="st1" cx="86.9" cy="92.7" r="1.8"/>
		<circle class="st1" cx="91.3" cy="92.7" r="1.8"/>
		<circle class="st1" cx="95.6" cy="92.7" r="1.8"/>
		<circle class="st1" cx="99.9" cy="92.7" r="1.8"/>
		<circle class="st1" cx="104.3" cy="92.7" r="1.8"/>
		<circle class="st1" cx="108.6" cy="92.7" r="1.8"/>
		<circle class="st1" cx="112.9" cy="92.7" r="1.8"/>
		<circle class="st1" cx="117.3" cy="92.7" r="1.8"/>
		<circle class="st1" cx="121.6" cy="92.7" r="1.8"/>
		<text transform="matrix(1 0 0 1 124.7007 93.7219)" class="st1 st2 st3">00</text>
		<text transform="matrix(1 0 0 1 6.9006 93.7219)" class="st1 st2 st3">00</text>
	</g>
	<g>
		<circle class="st1" cx="13.4" cy="86.7" r="1.8"/>
		<circle class="st1" cx="17.7" cy="86.7" r="1.8"/>
		<circle class="st1" cx="22" cy="86.7" r="1.8"/>
		<circle class="st1" cx="26.4" cy="86.7" r="1.8"/>
		<circle class="st1" cx="30.7" cy="86.7" r="1.8"/>
		<circle class="st1" cx="35" cy="86.7" r="1.8"/>
		<circle class="st1" cx="39.3" cy="86.7" r="1.8"/>
		<circle class="st1" cx="43.7" cy="86.7" r="1.8"/>
		<circle class="st1" cx="48" cy="86.7" r="1.8"/>
		<circle class="st1" cx="52.3" cy="86.7" r="1.8"/>
		<circle class="st1" cx="56.6" cy="86.7" r="1.8"/>
		<circle class="st1" cx="61" cy="86.7" r="1.8"/>
		<circle class="st1" cx="65.3" cy="86.7" r="1.8"/>
		<circle class="st1" cx="69.6" cy="86.7" r="1.8"/>
		<circle class="st1" cx="74" cy="86.7" r="1.8"/>
		<circle class="st1" cx="78.3" cy="86.7" r="1.8"/>
		<circle class="st1" cx="82.6" cy="86.7" r="1.8"/>
		<circle class="st1" cx="86.9" cy="86.7" r="1.8"/>
		<circle class="st1" cx="91.3" cy="86.7" r="1.8"/>
		<circle class="st1" cx="95.6" cy="86.7" r="1.8"/>
		<circle class="st1" cx="99.9" cy="86.7" r="1.8"/>
		<circle class="st1" cx="104.3" cy="86.7" r="1.8"/>
		<circle class="st1" cx="108.6" cy="86.7" r="1.8"/>
		<circle class="st1" cx="112.9" cy="86.7" r="1.8"/>
		<circle class="st1" cx="117.3" cy="86.7" r="1.8"/>
		<circle class="st1" cx="121.6" cy="86.7" r="1.8"/>
		<text transform="matrix(1 0 0 1 124.7007 87.792)" class="st1 st2 st3">00</text>
		<text transform="matrix(1 0 0 1 6.9006 87.792)" class="st1 st2 st3">00</text>
	</g>
	<g>
		<circle class="st1" cx="13.4" cy="80.8" r="1.8"/>
		<circle class="st1" cx="17.7" cy="80.8" r="1.8"/>
		<circle class="st1" cx="22" cy="80.8" r="1.8"/>
		<circle class="st1" cx="26.4" cy="80.8" r="1.8"/>
		<circle class="st1" cx="30.7" cy="80.8" r="1.8"/>
		<circle class="st1" cx="35" cy="80.8" r="1.8"/>
		<circle class="st1" cx="39.3" cy="80.8" r="1.8"/>
		<circle class="st1" cx="43.7" cy="80.8" r="1.8"/>
		<circle class="st1" cx="48" cy="80.8" r="1.8"/>
		<circle class="st1" cx="52.3" cy="80.8" r="1.8"/>
		<circle class="st1" cx="56.6" cy="80.8" r="1.8"/>
		<circle class="st1" cx="61" cy="80.8" r="1.8"/>
		<circle class="st1" cx="65.3" cy="80.8" r="1.8"/>
		<circle class="st1" cx="69.6" cy="80.8" r="1.8"/>
		<circle class="st1" cx="74" cy="80.8" r="1.8"/>
		<circle class="st1" cx="78.3" cy="80.8" r="1.8"/>
		<circle class="st1" cx="82.6" cy="80.8" r="1.8"/>
		<circle class="st1" cx="86.9" cy="80.8" r="1.8"/>
		<circle class="st1" cx="91.3" cy="80.8" r="1.8"/>
		<circle class="st1" cx="95.6" cy="80.8" r="1.8"/>
		<circle class="st1" cx="99.9" cy="80.8" r="1.8"/>
		<circle class="st1" cx="104.3" cy="80.8" r="1.8"/>
		<circle class="st1" cx="108.6" cy="80.8" r="1.8"/>
		<circle class="st1" cx="112.9" cy="80.8" r="1.8"/>
		<circle class="st1" cx="117.3" cy="80.8" r="1.8"/>
		<circle class="st1" cx="121.6" cy="80.8" r="1.8"/>
		<text transform="matrix(1 0 0 1 124.7007 81.8621)" class="st1 st2 st3">00</text>
		<text transform="matrix(1 0 0 1 6.9006 81.8621)" class="st1 st2 st3">00</text>
	</g>
	<g>
		<circle class="st1" cx="13.4" cy="74.9" r="1.8"/>
		<circle class="st1" cx="17.7" cy="74.9" r="1.8"/>
		<circle class="st1" cx="22" cy="74.9" r="1.8"/>
		<circle class="st1" cx="26.4" cy="74.9" r="1.8"/>
		<circle class="st1" cx="30.7" cy="74.9" r="1.8"/>
		<circle class="st1" cx="35" cy="74.9" r="1.8"/>
		<circle class="st1" cx="39.3" cy="74.9" r="1.8"/>
		<circle class="st1" cx="43.7" cy="74.9" r="1.8"/>
		<circle class="st1" cx="48" cy="74.9" r="1.8"/>
		<circle class="st1" cx="52.3" cy="74.9" r="1.8"/>
		<circle class="st1" cx="56.6" cy="74.9" r="1.8"/>
		<circle class="st1" cx="61" cy="74.9" r="1.8"/>
		<circle class="st1" cx="65.3" cy="74.9" r="1.8"/>
		<circle class="st1" cx="69.6" cy="74.9" r="1.8"/>
		<circle class="st1" cx="74" cy="74.9" r="1.8"/>
		<circle class="st1" cx="78.3" cy="74.9" r="1.8"/>
		<circle class="st1" cx="82.6" cy="74.9" r="1.8"/>
		<circle class="st1" cx="86.9" cy="74.9" r="1.8"/>
		<circle class="st1" cx="91.3" cy="74.9" r="1.8"/>
		<circle class="st1" cx="95.6" cy="74.9" r="1.8"/>
		<circle class="st1" cx="99.9" cy="74.9" r="1.8"/>
		<circle class="st1" cx="104.3" cy="74.9" r="1.8"/>
		<circle class="st1" cx="108.6" cy="74.9" r="1.8"/>
		<circle class="st1" cx="112.9" cy="74.9" r="1.8"/>
		<circle class="st1" cx="117.3" cy="74.9" r="1.8"/>
		<circle class="st1" cx="121.6" cy="74.9" r="1.8"/>
		<text transform="matrix(1 0 0 1 124.7007 75.9321)" class="st1 st2 st3">00</text>
		<text transform="matrix(1 0 0 1 6.9006 75.9321)" class="st1 st2 st3">00</text>
	</g>
	<g>
		<circle class="st1" cx="13.4" cy="68.9" r="1.8"/>
		<circle class="st1" cx="17.7" cy="68.9" r="1.8"/>
		<circle class="st1" cx="22" cy="68.9" r="1.8"/>
		<circle class="st1" cx="26.4" cy="68.9" r="1.8"/>
		<circle class="st1" cx="30.7" cy="68.9" r="1.8"/>
		<circle class="st1" cx="35" cy="68.9" r="1.8"/>
		<circle class="st1" cx="39.3" cy="68.9" r="1.8"/>
		<circle class="st1" cx="43.7" cy="68.9" r="1.8"/>
		<circle class="st1" cx="48" cy="68.9" r="1.8"/>
		<circle class="st1" cx="52.3" cy="68.9" r="1.8"/>
		<circle class="st1" cx="56.6" cy="68.9" r="1.8"/>
		<circle class="st1" cx="61" cy="68.9" r="1.8"/>
		<circle class="st1" cx="65.3" cy="68.9" r="1.8"/>
		<circle class="st1" cx="69.6" cy="68.9" r="1.8"/>
		<circle class="st1" cx="74" cy="68.9" r="1.8"/>
		<circle class="st1" cx="78.3" cy="68.9" r="1.8"/>
		<circle class="st1" cx="82.6" cy="68.9" r="1.8"/>
		<circle class="st1" cx="86.9" cy="68.9" r="1.8"/>
		<circle class="st1" cx="91.3" cy="68.9" r="1.8"/>
		<circle class="st1" cx="95.6" cy="68.9" r="1.8"/>
		<circle class="st1" cx="99.9" cy="68.9" r="1.8"/>
		<circle class="st1" cx="104.3" cy="68.9" r="1.8"/>
		<circle class="st1" cx="108.6" cy="68.9" r="1.8"/>
		<circle class="st1" cx="112.9" cy="68.9" r="1.8"/>
		<circle class="st1" cx="117.3" cy="68.9" r="1.8"/>
		<circle class="st1" cx="121.6" cy="68.9" r="1.8"/>
		<text transform="matrix(1 0 0 1 124.7007 70.0022)" class="st1 st2 st3">00</text>
		<text transform="matrix(1 0 0 1 6.9006 70.0022)" class="st1 st2 st3">00</text>
	</g>
	<g>
		<circle class="st1" cx="22.1" cy="63" r="1.9"/>
		<circle class="st1" cx="26.4" cy="63" r="1.9"/>
		<circle class="st1" cx="30.7" cy="63" r="1.9"/>
		<circle class="st1" cx="35" cy="63" r="1.8"/>
		<circle class="st1" cx="39.3" cy="63" r="1.8"/>
		<circle class="st1" cx="43.7" cy="63" r="1.8"/>
		<circle class="st1" cx="48" cy="63" r="1.8"/>
		<circle class="st1" cx="52.3" cy="63" r="1.8"/>
		<circle class="st1" cx="56.6" cy="63" r="1.8"/>
		<circle class="st1" cx="61" cy="63" r="1.8"/>
		<circle class="st1" cx="65.3" cy="63" r="1.8"/>
		<circle class="st1" cx="69.6" cy="63" r="1.8"/>
		<circle class="st1" cx="74" cy="63" r="1.8"/>
		<circle class="st1" cx="78.3" cy="63" r="1.8"/>
		<circle class="st1" cx="82.6" cy="63" r="1.8"/>
		<circle class="st1" cx="86.9" cy="63" r="1.8"/>
		<circle class="st1" cx="91.3" cy="63" r="1.8"/>
		<circle class="st1" cx="95.6" cy="63" r="1.8"/>
		<circle class="st1" cx="99.9" cy="63" r="1.8"/>
		<circle class="st1" cx="104.3" cy="63" r="1.8"/>
		<circle class="st1" cx="108.6" cy="63" r="1.8"/>
		<circle class="st1" cx="112.9" cy="63" r="1.8"/>
		<text transform="matrix(1 0 0 1 116.0306 64.0723)" class="st1 st2 st3">00</text>
		<text transform="matrix(1 0 0 1 15.5707 64.0723)" class="st1 st2 st3">00</text>
	</g>
	<g>
		<circle class="st1" cx="22.1" cy="57.1" r="1.8"/>
		<circle class="st1" cx="26.4" cy="57.1" r="1.8"/>
		<circle class="st1" cx="30.7" cy="57.1" r="1.8"/>
		<circle class="st1" cx="35" cy="57.1" r="1.8"/>
		<circle class="st1" cx="39.3" cy="57.1" r="1.8"/>
		<circle class="st1" cx="43.7" cy="57.1" r="1.8"/>
		<circle class="st1" cx="48" cy="57.1" r="1.8"/>
		<circle class="st1" cx="52.3" cy="57.1" r="1.8"/>
		<circle class="st1" cx="56.6" cy="57.1" r="1.8"/>
		<circle class="st1" cx="61" cy="57.1" r="1.8"/>
		<circle class="st1" cx="65.3" cy="57.1" r="1.8"/>
		<circle class="st1" cx="69.6" cy="57.1" r="1.8"/>
		<circle class="st1" cx="74" cy="57.1" r="1.8"/>
		<circle class="st1" cx="78.3" cy="57.1" r="1.8"/>
		<circle class="st1" cx="82.6" cy="57.1" r="1.8"/>
		<circle class="st1" cx="86.9" cy="57.1" r="1.8"/>
		<circle class="st1" cx="91.3" cy="57.1" r="1.8"/>
		<circle class="st1" cx="95.6" cy="57.1" r="1.8"/>
		<circle class="st1" cx="99.9" cy="57.1" r="1.8"/>
		<circle class="st1" cx="104.3" cy="57.1" r="1.8"/>
		<circle class="st1" cx="108.6" cy="57.1" r="1.8"/>
		<circle class="st1" cx="112.9" cy="57.1" r="1.8"/>
		<text transform="matrix(1 0 0 1 116.0306 58.1423)" class="st1 st2 st3">00</text>
		<text transform="matrix(1 0 0 1 15.5707 58.1423)" class="st1 st2 st3">00</text>
	</g>
	<g>
		<circle class="st1" cx="22.1" cy="51.2" r="1.8"/>
		<circle class="st1" cx="26.4" cy="51.2" r="1.8"/>
		<circle class="st1" cx="30.7" cy="51.2" r="1.8"/>
		<circle class="st1" cx="35" cy="51.2" r="1.8"/>
		<circle class="st1" cx="39.3" cy="51.2" r="1.8"/>
		<circle class="st1" cx="43.7" cy="51.2" r="1.8"/>
		<circle class="st1" cx="48" cy="51.2" r="1.8"/>
		<circle class="st1" cx="52.3" cy="51.2" r="1.8"/>
		<circle class="st1" cx="56.6" cy="51.2" r="1.8"/>
		<circle class="st1" cx="61" cy="51.2" r="1.8"/>
		<circle class="st1" cx="65.3" cy="51.2" r="1.8"/>
		<circle class="st1" cx="69.6" cy="51.2" r="1.8"/>
		<circle class="st1" cx="74" cy="51.2" r="1.8"/>
		<circle class="st1" cx="78.3" cy="51.2" r="1.8"/>
		<circle class="st1" cx="82.6" cy="51.2" r="1.8"/>
		<circle class="st1" cx="86.9" cy="51.2" r="1.8"/>
		<circle class="st1" cx="91.3" cy="51.2" r="1.8"/>
		<circle class="st1" cx="95.6" cy="51.2" r="1.8"/>
		<circle class="st1" cx="99.9" cy="51.2" r="1.8"/>
		<circle class="st1" cx="104.3" cy="51.2" r="1.8"/>
		<circle class="st1" cx="108.6" cy="51.2" r="1.8"/>
		<circle class="st1" cx="112.9" cy="51.2" r="1.8"/>
		<text transform="matrix(1 0 0 1 116.0306 52.2124)" class="st1 st2 st3">00</text>
		<text transform="matrix(1 0 0 1 15.5707 52.2124)" class="st1 st2 st3">00</text>
	</g>
	<g>
		<circle class="st1" cx="22.1" cy="45.2" r="1.8"/>
		<circle class="st1" cx="26.4" cy="45.2" r="1.8"/>
		<circle class="st1" cx="30.7" cy="45.2" r="1.8"/>
		<circle class="st1" cx="35" cy="45.2" r="1.8"/>
		<circle class="st1" cx="39.3" cy="45.2" r="1.8"/>
		<circle class="st1" cx="43.7" cy="45.2" r="1.8"/>
		<circle class="st1" cx="48" cy="45.2" r="1.8"/>
		<circle class="st1" cx="52.3" cy="45.2" r="1.8"/>
		<circle class="st1" cx="56.6" cy="45.2" r="1.8"/>
		<circle class="st1" cx="61" cy="45.2" r="1.8"/>
		<circle class="st1" cx="65.3" cy="45.2" r="1.8"/>
		<circle class="st1" cx="69.6" cy="45.2" r="1.8"/>
		<circle class="st1" cx="74" cy="45.2" r="1.8"/>
		<circle class="st1" cx="78.3" cy="45.2" r="1.8"/>
		<circle class="st1" cx="82.6" cy="45.2" r="1.8"/>
		<circle class="st1" cx="86.9" cy="45.2" r="1.8"/>
		<circle class="st1" cx="91.3" cy="45.2" r="1.8"/>
		<circle class="st1" cx="95.6" cy="45.2" r="1.8"/>
		<circle class="st1" cx="99.9" cy="45.2" r="1.8"/>
		<circle class="st1" cx="104.3" cy="45.2" r="1.8"/>
		<circle class="st1" cx="108.6" cy="45.2" r="1.8"/>
		<circle class="st1" cx="112.9" cy="45.2" r="1.8"/>
		<text transform="matrix(1 0 0 1 116.0306 46.2825)" class="st1 st2 st3">00</text>
		<text transform="matrix(1 0 0 1 15.5707 46.2825)" class="st1 st2 st3">00</text>
	</g>
	<g>
		<circle class="st1" cx="22.1" cy="39.3" r="1.8"/>
		<circle class="st1" cx="26.4" cy="39.3" r="1.8"/>
		<circle class="st1" cx="30.7" cy="39.3" r="1.8"/>
		<circle class="st1" cx="35" cy="39.3" r="1.8"/>
		<circle class="st1" cx="39.3" cy="39.3" r="1.8"/>
		<circle class="st1" cx="43.7" cy="39.3" r="1.8"/>
		<circle class="st1" cx="48" cy="39.3" r="1.8"/>
		<circle class="st1" cx="52.3" cy="39.3" r="1.8"/>
		<circle class="st1" cx="56.6" cy="39.3" r="1.8"/>
		<circle class="st1" cx="61" cy="39.3" r="1.8"/>
		<circle class="st1" cx="65.3" cy="39.3" r="1.8"/>
		<circle class="st1" cx="69.6" cy="39.3" r="1.8"/>
		<circle class="st1" cx="74" cy="39.3" r="1.8"/>
		<circle class="st1" cx="78.3" cy="39.3" r="1.8"/>
		<circle class="st1" cx="82.6" cy="39.3" r="1.8"/>
		<circle class="st1" cx="86.9" cy="39.3" r="1.8"/>
		<circle class="st1" cx="91.3" cy="39.3" r="1.8"/>
		<circle class="st1" cx="95.6" cy="39.3" r="1.8"/>
		<circle class="st1" cx="99.9" cy="39.3" r="1.8"/>
		<circle class="st1" cx="104.3" cy="39.3" r="1.8"/>
		<circle class="st1" cx="108.6" cy="39.3" r="1.8"/>
		<circle class="st1" cx="112.9" cy="39.3" r="1.8"/>
		<text transform="matrix(1 0 0 1 116.0306 40.3525)" class="st1 st2 st3">00</text>
		<text transform="matrix(1 0 0 1 15.5707 40.3525)" class="st1 st2 st3">00</text>
	</g>
	<g>
		<circle class="st1" cx="13.4" cy="33.3" r="1.8"/>
		<circle class="st1" cx="17.7" cy="33.3" r="1.8"/>
		<circle class="st1" cx="22" cy="33.3" r="1.8"/>
		<circle class="st1" cx="26.4" cy="33.3" r="1.8"/>
		<circle class="st1" cx="30.7" cy="33.3" r="1.8"/>
		<circle class="st1" cx="35" cy="33.3" r="1.8"/>
		<circle class="st1" cx="39.3" cy="33.3" r="1.8"/>
		<circle class="st1" cx="43.7" cy="33.3" r="1.8"/>
		<circle class="st1" cx="48" cy="33.3" r="1.8"/>
		<circle class="st1" cx="52.3" cy="33.3" r="1.8"/>
		<circle class="st1" cx="56.6" cy="33.3" r="1.8"/>
		<circle class="st1" cx="61" cy="33.3" r="1.8"/>
		<circle class="st1" cx="65.3" cy="33.3" r="1.8"/>
		<circle class="st1" cx="69.6" cy="33.3" r="1.8"/>
		<circle class="st1" cx="74" cy="33.3" r="1.8"/>
		<circle class="st1" cx="78.3" cy="33.3" r="1.8"/>
		<circle class="st1" cx="82.6" cy="33.3" r="1.8"/>
		<circle class="st1" cx="86.9" cy="33.3" r="1.8"/>
		<circle class="st1" cx="91.3" cy="33.3" r="1.8"/>
		<circle class="st1" cx="95.6" cy="33.3" r="1.8"/>
		<circle class="st1" cx="99.9" cy="33.3" r="1.8"/>
		<circle class="st1" cx="104.3" cy="33.3" r="1.8"/>
		<circle class="st1" cx="108.6" cy="33.3" r="1.8"/>
		<circle class="st1" cx="112.9" cy="33.3" r="1.8"/>
		<circle class="st1" cx="117.3" cy="33.3" r="1.8"/>
		<circle class="st1" cx="121.6" cy="33.3" r="1.8"/>
		<text transform="matrix(1 0 0 1 124.7007 34.4226)" class="st1 st2 st3">00</text>
		<text transform="matrix(1 0 0 1 6.9006 34.4226)" class="st1 st2 st3">00</text>
	</g>
	<g>
		<circle class="st1" cx="13.4" cy="27.4" r="1.9"/>
		<circle class="st1" cx="17.7" cy="27.4" r="1.9"/>
		<circle class="st1" cx="22" cy="27.4" r="1.9"/>
		<circle class="st1" cx="26.4" cy="27.4" r="1.9"/>
		<circle class="st1" cx="30.7" cy="27.4" r="1.9"/>
		<circle class="st1" cx="35" cy="27.4" r="1.8"/>
		<circle class="st1" cx="39.3" cy="27.4" r="1.8"/>
		<circle class="st1" cx="43.7" cy="27.4" r="1.8"/>
		<circle class="st1" cx="48" cy="27.4" r="1.8"/>
		<circle class="st1" cx="52.3" cy="27.4" r="1.8"/>
		<circle class="st1" cx="56.6" cy="27.4" r="1.8"/>
		<circle class="st1" cx="61" cy="27.4" r="1.8"/>
		<circle class="st1" cx="65.3" cy="27.4" r="1.8"/>
		<circle class="st1" cx="69.6" cy="27.4" r="1.8"/>
		<circle class="st1" cx="74" cy="27.4" r="1.8"/>
		<circle class="st1" cx="78.3" cy="27.4" r="1.8"/>
		<circle class="st1" cx="82.6" cy="27.4" r="1.8"/>
		<circle class="st1" cx="86.9" cy="27.4" r="1.8"/>
		<circle class="st1" cx="91.3" cy="27.4" r="1.8"/>
		<circle class="st1" cx="95.6" cy="27.4" r="1.8"/>
		<circle class="st1" cx="99.9" cy="27.4" r="1.8"/>
		<circle class="st1" cx="104.3" cy="27.4" r="1.8"/>
		<circle class="st1" cx="108.6" cy="27.4" r="1.8"/>
		<circle class="st1" cx="112.9" cy="27.4" r="1.8"/>
		<circle class="st1" cx="117.3" cy="27.4" r="1.8"/>
		<circle class="st1" cx="121.6" cy="27.4" r="1.8"/>
		<text transform="matrix(1 0 0 1 124.7007 28.4927)" class="st1 st2 st3">00</text>
		<text transform="matrix(1 0 0 1 6.9006 28.4927)" class="st1 st2 st3">00</text>
	</g>
	<g>
		<circle class="st1" cx="13.4" cy="21.5" r="1.9"/>
		<circle class="st1" cx="17.7" cy="21.5" r="1.9"/>
		<circle class="st1" cx="22" cy="21.5" r="1.9"/>
		<circle class="st1" cx="26.4" cy="21.5" r="1.9"/>
		<circle class="st1" cx="30.7" cy="21.5" r="1.9"/>
		<circle class="st1" cx="35" cy="21.5" r="1.8"/>
		<circle class="st1" cx="39.3" cy="21.5" r="1.8"/>
		<circle class="st1" cx="43.7" cy="21.5" r="1.8"/>
		<circle class="st1" cx="48" cy="21.5" r="1.8"/>
		<circle class="st1" cx="52.3" cy="21.5" r="1.8"/>
		<circle class="st1" cx="56.6" cy="21.5" r="1.8"/>
		<circle class="st1" cx="61" cy="21.5" r="1.8"/>
		<circle class="st1" cx="65.3" cy="21.5" r="1.8"/>
		<circle class="st1" cx="69.6" cy="21.5" r="1.8"/>
		<circle class="st1" cx="74" cy="21.5" r="1.8"/>
		<circle class="st1" cx="78.3" cy="21.5" r="1.8"/>
		<circle class="st1" cx="82.6" cy="21.5" r="1.8"/>
		<circle class="st1" cx="86.9" cy="21.5" r="1.8"/>
		<circle class="st1" cx="91.3" cy="21.5" r="1.8"/>
		<circle class="st1" cx="95.6" cy="21.5" r="1.8"/>
		<circle class="st1" cx="99.9" cy="21.5" r="1.8"/>
		<circle class="st1" cx="104.3" cy="21.5" r="1.8"/>
		<circle class="st1" cx="108.6" cy="21.5" r="1.8"/>
		<circle class="st1" cx="112.9" cy="21.5" r="1.8"/>
		<circle class="st1" cx="117.3" cy="21.5" r="1.8"/>
		<circle class="st1" cx="121.6" cy="21.5" r="1.8"/>
		<text transform="matrix(1 0 0 1 124.7007 22.5627)" class="st1 st2 st3">00</text>
		<text transform="matrix(1 0 0 1 6.9006 22.5627)" class="st1 st2 st3">00</text>
	</g>
	<g>
		<circle class="st1" cx="13.4" cy="15.6" r="1.9"/>
		<circle class="st1" cx="17.7" cy="15.6" r="1.9"/>
		<circle class="st1" cx="22" cy="15.6" r="1.9"/>
		<circle class="st1" cx="26.4" cy="15.6" r="1.9"/>
		<circle class="st1" cx="30.7" cy="15.6" r="1.9"/>
		<circle class="st1" cx="35" cy="15.6" r="1.8"/>
		<circle class="st1" cx="39.3" cy="15.6" r="1.8"/>
		<circle class="st1" cx="43.7" cy="15.6" r="1.8"/>
		<circle class="st1" cx="48" cy="15.6" r="1.8"/>
		<circle class="st1" cx="52.3" cy="15.6" r="1.8"/>
		<circle class="st1" cx="56.6" cy="15.6" r="1.8"/>
		<circle class="st1" cx="61" cy="15.6" r="1.8"/>
		<circle class="st1" cx="65.3" cy="15.6" r="1.8"/>
		<circle class="st1" cx="69.6" cy="15.6" r="1.8"/>
		<circle class="st1" cx="74" cy="15.6" r="1.8"/>
		<circle class="st1" cx="78.3" cy="15.6" r="1.8"/>
		<circle class="st1" cx="82.6" cy="15.6" r="1.8"/>
		<circle class="st1" cx="86.9" cy="15.6" r="1.8"/>
		<circle class="st1" cx="91.3" cy="15.6" r="1.8"/>
		<circle class="st1" cx="95.6" cy="15.6" r="1.8"/>
		<circle class="st1" cx="99.9" cy="15.6" r="1.8"/>
		<circle class="st1" cx="104.3" cy="15.6" r="1.8"/>
		<circle class="st1" cx="108.6" cy="15.6" r="1.8"/>
		<circle class="st1" cx="112.9" cy="15.6" r="1.8"/>
		<circle class="st1" cx="117.3" cy="15.6" r="1.8"/>
		<circle class="st1" cx="121.6" cy="15.6" r="1.8"/>
		<text transform="matrix(1 0 0 1 124.7007 16.6328)" class="st1 st2 st3">00</text>
		<text transform="matrix(1 0 0 1 6.9006 16.6328)" class="st1 st2 st3">00</text>
	</g>
	<g>
		<circle class="st1" cx="13.4" cy="9.6" r="1.9"/>
		<circle class="st1" cx="17.7" cy="9.6" r="1.9"/>
		<circle class="st1" cx="22" cy="9.6" r="1.9"/>
		<circle class="st1" cx="26.4" cy="9.6" r="1.9"/>
		<circle class="st1" cx="30.7" cy="9.6" r="1.9"/>
		<circle class="st1" cx="35" cy="9.6" r="1.8"/>
		<circle class="st1" cx="39.3" cy="9.6" r="1.8"/>
		<circle class="st1" cx="43.7" cy="9.6" r="1.8"/>
		<circle class="st1" cx="48" cy="9.6" r="1.8"/>
		<circle class="st1" cx="52.3" cy="9.6" r="1.8"/>
		<circle class="st1" cx="56.6" cy="9.6" r="1.8"/>
		<circle class="st1" cx="61" cy="9.6" r="1.8"/>
		<circle class="st1" cx="65.3" cy="9.6" r="1.8"/>
		<circle class="st1" cx="69.6" cy="9.6" r="1.8"/>
		<circle class="st1" cx="74" cy="9.6" r="1.8"/>
		<circle class="st1" cx="78.3" cy="9.6" r="1.8"/>
		<circle class="st1" cx="82.6" cy="9.6" r="1.8"/>
		<circle class="st1" cx="86.9" cy="9.6" r="1.8"/>
		<circle class="st1" cx="91.3" cy="9.6" r="1.8"/>
		<circle class="st1" cx="95.6" cy="9.6" r="1.8"/>
		<circle class="st1" cx="99.9" cy="9.6" r="1.8"/>
		<circle class="st1" cx="104.3" cy="9.6" r="1.8"/>
		<circle class="st1" cx="108.6" cy="9.6" r="1.8"/>
		<circle class="st1" cx="112.9" cy="9.6" r="1.8"/>
		<circle class="st1" cx="117.3" cy="9.6" r="1.8"/>
		<circle class="st1" cx="121.6" cy="9.6" r="1.8"/>
		<text transform="matrix(1 0 0 1 124.7007 10.7029)" class="st1 st2 st3">00</text>
		<text transform="matrix(1 0 0 1 6.9006 10.7029)" class="st1 st2 st3">00</text>
	</g>
</g>
</svg>
