<?xml version="1.0" encoding="utf-8"?>
<!-- Generator: Adobe Illustrator 23.0.1, SVG Export Plug-In . SVG Version: 6.00 Build 0)  -->
<svg version="1.1" id="Layer_1" xmlns="http://www.w3.org/2000/svg" xmlns:xlink="http://www.w3.org/1999/xlink" x="0px" y="0px"
	 width="135px" height="172px" viewBox="0 0 135 172" enable-background="new 0 0 135 172" xml:space="preserve">
<g onclick="this.parentNode.sekt.push(this);this.a_name=&quot;E 2 (верх)&quot;;">
	
		<polygon onclick="this.parentNode.a_fon=this;" fill="#F1F3F4" stroke="#BCC8CE" stroke-width="0.4" stroke-linecap="round" stroke-miterlimit="10" points="
		134.64,171.35 0.36,122.55 0.36,0.56 134.64,0.56 	"/>
	<g onclick="this.parentNode.a_row=this;">
		
			<line onclick="this.a_par={beg_namb:1,quant:26};" fill="none" stroke="#D3DBDF" stroke-width="0.4" stroke-miterlimit="10" x1="123.44" y1="9.63" x2="11.56" y2="9.63"/>
		
			<line onclick="this.a_par={beg_namb:1,quant:26};" fill="none" stroke="#D3DBDF" stroke-width="0.4" stroke-miterlimit="10" x1="123.44" y1="15.56" x2="11.56" y2="15.56"/>
		
			<line onclick="this.a_par={beg_namb:1,quant:26};" fill="none" stroke="#D3DBDF" stroke-width="0.4" stroke-miterlimit="10" x1="123.44" y1="21.49" x2="11.56" y2="21.49"/>
		
			<line onclick="this.a_par={beg_namb:1,quant:26};" fill="none" stroke="#D3DBDF" stroke-width="0.4" stroke-miterlimit="10" x1="123.44" y1="27.42" x2="11.56" y2="27.42"/>
		
			<line onclick="this.a_par={beg_namb:1,quant:26};" fill="none" stroke="#D3DBDF" stroke-width="0.4" stroke-miterlimit="10" x1="123.44" y1="33.35" x2="11.56" y2="33.35"/>
		
			<line onclick="this.a_par={beg_namb:1,quant:22};" fill="none" stroke="#D3DBDF" stroke-width="0.4" stroke-miterlimit="10" x1="114.78" y1="39.28" x2="20.22" y2="39.28"/>
		
			<line onclick="this.a_par={beg_namb:1,quant:22};" fill="none" stroke="#D3DBDF" stroke-width="0.4" stroke-miterlimit="10" x1="114.78" y1="45.22" x2="20.22" y2="45.22"/>
		
			<line onclick="this.a_par={beg_namb:1,quant:22};" fill="none" stroke="#D3DBDF" stroke-width="0.4" stroke-miterlimit="10" x1="114.78" y1="51.15" x2="20.22" y2="51.15"/>
		
			<line onclick="this.a_par={beg_namb:1,quant:22};" fill="none" stroke="#D3DBDF" stroke-width="0.4" stroke-miterlimit="10" x1="114.78" y1="57.08" x2="20.22" y2="57.08"/>
		
			<line onclick="this.a_par={beg_namb:1,quant:22};" fill="none" stroke="#D3DBDF" stroke-width="0.4" stroke-miterlimit="10" x1="114.78" y1="63.01" x2="20.22" y2="63.01"/>
		
			<line onclick="this.a_par={beg_namb:1,quant:26};" fill="none" stroke="#D3DBDF" stroke-width="0.4" stroke-miterlimit="10" x1="123.44" y1="68.94" x2="11.56" y2="68.94"/>
		
			<line onclick="this.a_par={beg_namb:1,quant:26};" fill="none" stroke="#D3DBDF" stroke-width="0.4" stroke-miterlimit="10" x1="123.44" y1="74.87" x2="11.56" y2="74.87"/>
		
			<line onclick="this.a_par={beg_namb:1,quant:26};" fill="none" stroke="#D3DBDF" stroke-width="0.4" stroke-miterlimit="10" x1="123.44" y1="80.8" x2="11.56" y2="80.8"/>
		
			<line onclick="this.a_par={beg_namb:1,quant:26};" fill="none" stroke="#D3DBDF" stroke-width="0.4" stroke-miterlimit="10" x1="123.44" y1="86.73" x2="11.56" y2="86.73"/>
		
			<line onclick="this.a_par={beg_namb:1,quant:26};" fill="none" stroke="#D3DBDF" stroke-width="0.4" stroke-miterlimit="10" x1="123.44" y1="92.66" x2="11.56" y2="92.66"/>
		
			<line onclick="this.a_par={beg_namb:1,quant:26};" fill="none" stroke="#D3DBDF" stroke-width="0.4" stroke-miterlimit="10" x1="123.44" y1="98.59" x2="11.56" y2="98.59"/>
		
			<line onclick="this.a_par={beg_namb:1,quant:26};" fill="none" stroke="#D3DBDF" stroke-width="0.4" stroke-miterlimit="10" x1="123.44" y1="104.52" x2="11.56" y2="104.52"/>
		
			<line onclick="this.a_par={beg_namb:1,quant:26};" fill="none" stroke="#D3DBDF" stroke-width="0.4" stroke-miterlimit="10" x1="123.44" y1="110.45" x2="11.56" y2="110.45"/>
		
			<line onclick="this.a_par={beg_namb:1,quant:23};" fill="none" stroke="#D3DBDF" stroke-width="0.4" stroke-miterlimit="10" x1="123.44" y1="116.39" x2="24.55" y2="116.39"/>
		
			<line onclick="this.a_par={beg_namb:1,quant:20};" fill="none" stroke="#D3DBDF" stroke-width="0.4" stroke-miterlimit="10" x1="123.44" y1="122.32" x2="37.54" y2="122.32"/>
		
			<line onclick="this.a_par={beg_namb:1,quant:16};" fill="none" stroke="#D3DBDF" stroke-width="0.4" stroke-miterlimit="10" x1="123.44" y1="128.25" x2="54.86" y2="128.25"/>
		
			<line onclick="this.a_par={beg_namb:1,quant:12};" fill="none" stroke="#D3DBDF" stroke-width="0.4" stroke-miterlimit="10" x1="123.44" y1="134.18" x2="72.19" y2="134.18"/>
		
			<line onclick="this.a_par={beg_namb:1,quant:9};" fill="none" stroke="#D3DBDF" stroke-width="0.4" stroke-miterlimit="10" x1="123.44" y1="140.11" x2="85.18" y2="140.11"/>
		
			<line onclick="this.a_par={beg_namb:1,quant:6};" fill="none" stroke="#D3DBDF" stroke-width="0.4" stroke-miterlimit="10" x1="123.44" y1="146.04" x2="98.14" y2="146.04"/>
	</g>
	<g>
		<g>
			<circle fill="#AEBDC4" cx="99.99" cy="146.04" r="1.85"/>
			<circle fill="#AEBDC4" cx="104.31" cy="146.04" r="1.85"/>
			<circle fill="#AEBDC4" cx="108.63" cy="146.04" r="1.85"/>
			<circle fill="#AEBDC4" cx="112.95" cy="146.04" r="1.85"/>
			<circle fill="#AEBDC4" cx="117.27" cy="146.04" r="1.85"/>
			<circle fill="#AEBDC4" cx="121.6" cy="146.04" r="1.85"/>
		</g>
		<g>
			<circle fill="#AEBDC4" cx="87.03" cy="140.11" r="1.85"/>
			<circle fill="#AEBDC4" cx="91.35" cy="140.11" r="1.85"/>
			<circle fill="#AEBDC4" cx="95.67" cy="140.11" r="1.85"/>
			<circle fill="#AEBDC4" cx="99.99" cy="140.11" r="1.85"/>
			<circle fill="#AEBDC4" cx="104.31" cy="140.11" r="1.85"/>
			<circle fill="#AEBDC4" cx="108.63" cy="140.11" r="1.85"/>
			<circle fill="#AEBDC4" cx="112.95" cy="140.11" r="1.85"/>
			<circle fill="#AEBDC4" cx="117.27" cy="140.11" r="1.85"/>
			<circle fill="#AEBDC4" cx="121.6" cy="140.11" r="1.85"/>
		</g>
		<g>
			<circle fill="#AEBDC4" cx="74.03" cy="134.18" r="1.85"/>
			<circle fill="#AEBDC4" cx="78.36" cy="134.18" r="1.85"/>
			<circle fill="#AEBDC4" cx="82.68" cy="134.18" r="1.85"/>
			<circle fill="#AEBDC4" cx="87" cy="134.18" r="1.85"/>
			<circle fill="#AEBDC4" cx="91.32" cy="134.18" r="1.85"/>
			<circle fill="#AEBDC4" cx="95.64" cy="134.18" r="1.85"/>
			<circle fill="#AEBDC4" cx="99.96" cy="134.18" r="1.85"/>
			<circle fill="#AEBDC4" cx="104.28" cy="134.18" r="1.85"/>
			<circle fill="#AEBDC4" cx="108.6" cy="134.18" r="1.85"/>
			<circle fill="#AEBDC4" cx="112.93" cy="134.18" r="1.85"/>
			<circle fill="#AEBDC4" cx="117.26" cy="134.18" r="1.85"/>
			<circle fill="#AEBDC4" cx="121.6" cy="134.18" r="1.85"/>
		</g>
		<g>
			<circle fill="#AEBDC4" cx="56.71" cy="128.25" r="1.85"/>
			<circle fill="#AEBDC4" cx="61.03" cy="128.25" r="1.85"/>
			<circle fill="#AEBDC4" cx="65.35" cy="128.25" r="1.85"/>
			<circle fill="#AEBDC4" cx="69.67" cy="128.25" r="1.85"/>
			<circle fill="#AEBDC4" cx="74" cy="128.25" r="1.85"/>
			<circle fill="#AEBDC4" cx="78.32" cy="128.25" r="1.85"/>
			<circle fill="#AEBDC4" cx="82.64" cy="128.25" r="1.85"/>
			<circle fill="#AEBDC4" cx="86.96" cy="128.25" r="1.85"/>
			<circle fill="#AEBDC4" cx="91.28" cy="128.25" r="1.85"/>
			<circle fill="#AEBDC4" cx="95.61" cy="128.25" r="1.85"/>
			<circle fill="#AEBDC4" cx="99.94" cy="128.25" r="1.85"/>
			<circle fill="#AEBDC4" cx="104.27" cy="128.25" r="1.85"/>
			<circle fill="#AEBDC4" cx="108.6" cy="128.25" r="1.85"/>
			<circle fill="#AEBDC4" cx="112.93" cy="128.25" r="1.85"/>
			<circle fill="#AEBDC4" cx="117.26" cy="128.25" r="1.85"/>
			<circle fill="#AEBDC4" cx="121.6" cy="128.25" r="1.85"/>
		</g>
		<g>
			<circle fill="#AEBDC4" cx="39.39" cy="122.32" r="1.85"/>
			<circle fill="#AEBDC4" cx="43.71" cy="122.32" r="1.85"/>
			<circle fill="#AEBDC4" cx="48.03" cy="122.32" r="1.85"/>
			<circle fill="#AEBDC4" cx="52.35" cy="122.32" r="1.85"/>
			<circle fill="#AEBDC4" cx="56.67" cy="122.32" r="1.85"/>
			<circle fill="#AEBDC4" cx="60.99" cy="122.32" r="1.85"/>
			<circle fill="#AEBDC4" cx="65.32" cy="122.32" r="1.85"/>
			<circle fill="#AEBDC4" cx="69.64" cy="122.32" r="1.85"/>
			<circle fill="#AEBDC4" cx="73.96" cy="122.32" r="1.85"/>
			<circle fill="#AEBDC4" cx="78.29" cy="122.32" r="1.85"/>
			<circle fill="#AEBDC4" cx="82.62" cy="122.32" r="1.85"/>
			<circle fill="#AEBDC4" cx="86.95" cy="122.32" r="1.85"/>
			<circle fill="#AEBDC4" cx="91.28" cy="122.32" r="1.85"/>
			<circle fill="#AEBDC4" cx="95.61" cy="122.32" r="1.85"/>
			<circle fill="#AEBDC4" cx="99.94" cy="122.32" r="1.85"/>
			<circle fill="#AEBDC4" cx="104.27" cy="122.32" r="1.85"/>
			<circle fill="#AEBDC4" cx="108.6" cy="122.32" r="1.85"/>
			<circle fill="#AEBDC4" cx="112.93" cy="122.32" r="1.85"/>
			<circle fill="#AEBDC4" cx="117.26" cy="122.32" r="1.85"/>
			<circle fill="#AEBDC4" cx="121.6" cy="122.32" r="1.85"/>
		</g>
		<g>
			<circle fill="#AEBDC4" cx="22.07" cy="63.01" r="1.85"/>
			<circle fill="#AEBDC4" cx="26.39" cy="63.01" r="1.85"/>
			<circle fill="#AEBDC4" cx="30.71" cy="63.01" r="1.85"/>
			<circle fill="#AEBDC4" cx="35.03" cy="63.01" r="1.85"/>
			<circle fill="#AEBDC4" cx="39.35" cy="63.01" r="1.85"/>
			<circle fill="#AEBDC4" cx="43.67" cy="63.01" r="1.85"/>
			<circle fill="#AEBDC4" cx="47.99" cy="63.01" r="1.85"/>
			<circle fill="#AEBDC4" cx="52.31" cy="63.01" r="1.85"/>
			<circle fill="#AEBDC4" cx="56.64" cy="63.01" r="1.85"/>
			<circle fill="#AEBDC4" cx="60.97" cy="63.01" r="1.85"/>
			<circle fill="#AEBDC4" cx="65.3" cy="63.01" r="1.85"/>
			<circle fill="#AEBDC4" cx="69.63" cy="63.01" r="1.85"/>
			<circle fill="#AEBDC4" cx="73.96" cy="63.01" r="1.85"/>
			<circle fill="#AEBDC4" cx="78.29" cy="63.01" r="1.85"/>
			<circle fill="#AEBDC4" cx="82.62" cy="63.01" r="1.85"/>
			<circle fill="#AEBDC4" cx="86.95" cy="63.01" r="1.85"/>
			<circle fill="#AEBDC4" cx="91.28" cy="63.01" r="1.85"/>
			<circle fill="#AEBDC4" cx="95.61" cy="63.01" r="1.85"/>
			<circle fill="#AEBDC4" cx="99.94" cy="63.01" r="1.85"/>
			<circle fill="#AEBDC4" cx="104.27" cy="63.01" r="1.85"/>
			<circle fill="#AEBDC4" cx="108.6" cy="63.01" r="1.85"/>
			<circle fill="#AEBDC4" cx="112.93" cy="63.01" r="1.85"/>
		</g>
		<g>
			<circle fill="#AEBDC4" cx="22.07" cy="57.08" r="1.85"/>
			<circle fill="#AEBDC4" cx="26.39" cy="57.08" r="1.85"/>
			<circle fill="#AEBDC4" cx="30.71" cy="57.08" r="1.85"/>
			<circle fill="#AEBDC4" cx="35.03" cy="57.08" r="1.85"/>
			<circle fill="#AEBDC4" cx="39.35" cy="57.08" r="1.85"/>
			<circle fill="#AEBDC4" cx="43.67" cy="57.08" r="1.85"/>
			<circle fill="#AEBDC4" cx="47.99" cy="57.08" r="1.85"/>
			<circle fill="#AEBDC4" cx="52.31" cy="57.08" r="1.85"/>
			<circle fill="#AEBDC4" cx="56.64" cy="57.08" r="1.85"/>
			<circle fill="#AEBDC4" cx="60.97" cy="57.08" r="1.85"/>
			<circle fill="#AEBDC4" cx="65.3" cy="57.08" r="1.85"/>
			<circle fill="#AEBDC4" cx="69.63" cy="57.08" r="1.85"/>
			<circle fill="#AEBDC4" cx="73.96" cy="57.08" r="1.85"/>
			<circle fill="#AEBDC4" cx="78.29" cy="57.08" r="1.85"/>
			<circle fill="#AEBDC4" cx="82.62" cy="57.08" r="1.85"/>
			<circle fill="#AEBDC4" cx="86.95" cy="57.08" r="1.85"/>
			<circle fill="#AEBDC4" cx="91.28" cy="57.08" r="1.85"/>
			<circle fill="#AEBDC4" cx="95.61" cy="57.08" r="1.85"/>
			<circle fill="#AEBDC4" cx="99.94" cy="57.08" r="1.85"/>
			<circle fill="#AEBDC4" cx="104.27" cy="57.08" r="1.85"/>
			<circle fill="#AEBDC4" cx="108.6" cy="57.08" r="1.85"/>
			<circle fill="#AEBDC4" cx="112.93" cy="57.08" r="1.85"/>
		</g>
		<g>
			<circle fill="#AEBDC4" cx="22.07" cy="51.15" r="1.85"/>
			<circle fill="#AEBDC4" cx="26.39" cy="51.15" r="1.85"/>
			<circle fill="#AEBDC4" cx="30.71" cy="51.15" r="1.85"/>
			<circle fill="#AEBDC4" cx="35.03" cy="51.15" r="1.85"/>
			<circle fill="#AEBDC4" cx="39.35" cy="51.15" r="1.85"/>
			<circle fill="#AEBDC4" cx="43.67" cy="51.15" r="1.85"/>
			<circle fill="#AEBDC4" cx="47.99" cy="51.15" r="1.85"/>
			<circle fill="#AEBDC4" cx="52.31" cy="51.15" r="1.85"/>
			<circle fill="#AEBDC4" cx="56.64" cy="51.15" r="1.85"/>
			<circle fill="#AEBDC4" cx="60.97" cy="51.15" r="1.85"/>
			<circle fill="#AEBDC4" cx="65.3" cy="51.15" r="1.85"/>
			<circle fill="#AEBDC4" cx="69.63" cy="51.15" r="1.85"/>
			<circle fill="#AEBDC4" cx="73.96" cy="51.15" r="1.85"/>
			<circle fill="#AEBDC4" cx="78.29" cy="51.15" r="1.85"/>
			<circle fill="#AEBDC4" cx="82.62" cy="51.15" r="1.85"/>
			<circle fill="#AEBDC4" cx="86.95" cy="51.15" r="1.85"/>
			<circle fill="#AEBDC4" cx="91.28" cy="51.15" r="1.85"/>
			<circle fill="#AEBDC4" cx="95.61" cy="51.15" r="1.85"/>
			<circle fill="#AEBDC4" cx="99.94" cy="51.15" r="1.85"/>
			<circle fill="#AEBDC4" cx="104.27" cy="51.15" r="1.85"/>
			<circle fill="#AEBDC4" cx="108.6" cy="51.15" r="1.85"/>
			<circle fill="#AEBDC4" cx="112.93" cy="51.15" r="1.85"/>
		</g>
		<g>
			<circle fill="#AEBDC4" cx="22.07" cy="45.22" r="1.85"/>
			<circle fill="#AEBDC4" cx="26.39" cy="45.22" r="1.85"/>
			<circle fill="#AEBDC4" cx="30.71" cy="45.22" r="1.85"/>
			<circle fill="#AEBDC4" cx="35.03" cy="45.22" r="1.85"/>
			<circle fill="#AEBDC4" cx="39.35" cy="45.22" r="1.85"/>
			<circle fill="#AEBDC4" cx="43.67" cy="45.22" r="1.85"/>
			<circle fill="#AEBDC4" cx="47.99" cy="45.22" r="1.85"/>
			<circle fill="#AEBDC4" cx="52.31" cy="45.22" r="1.85"/>
			<circle fill="#AEBDC4" cx="56.64" cy="45.22" r="1.85"/>
			<circle fill="#AEBDC4" cx="60.97" cy="45.22" r="1.85"/>
			<circle fill="#AEBDC4" cx="65.3" cy="45.22" r="1.85"/>
			<circle fill="#AEBDC4" cx="69.63" cy="45.22" r="1.85"/>
			<circle fill="#AEBDC4" cx="73.96" cy="45.22" r="1.85"/>
			<circle fill="#AEBDC4" cx="78.29" cy="45.22" r="1.85"/>
			<circle fill="#AEBDC4" cx="82.62" cy="45.22" r="1.85"/>
			<circle fill="#AEBDC4" cx="86.95" cy="45.22" r="1.85"/>
			<circle fill="#AEBDC4" cx="91.28" cy="45.22" r="1.85"/>
			<circle fill="#AEBDC4" cx="95.61" cy="45.22" r="1.85"/>
			<circle fill="#AEBDC4" cx="99.94" cy="45.22" r="1.85"/>
			<circle fill="#AEBDC4" cx="104.27" cy="45.22" r="1.85"/>
			<circle fill="#AEBDC4" cx="108.6" cy="45.22" r="1.85"/>
			<circle fill="#AEBDC4" cx="112.93" cy="45.22" r="1.85"/>
		</g>
		<g>
			<circle fill="#AEBDC4" cx="22.07" cy="39.28" r="1.85"/>
			<circle fill="#AEBDC4" cx="26.39" cy="39.28" r="1.85"/>
			<circle fill="#AEBDC4" cx="30.71" cy="39.28" r="1.85"/>
			<circle fill="#AEBDC4" cx="35.03" cy="39.28" r="1.85"/>
			<circle fill="#AEBDC4" cx="39.35" cy="39.28" r="1.85"/>
			<circle fill="#AEBDC4" cx="43.67" cy="39.28" r="1.85"/>
			<circle fill="#AEBDC4" cx="47.99" cy="39.28" r="1.85"/>
			<circle fill="#AEBDC4" cx="52.31" cy="39.28" r="1.85"/>
			<circle fill="#AEBDC4" cx="56.64" cy="39.28" r="1.85"/>
			<circle fill="#AEBDC4" cx="60.97" cy="39.28" r="1.85"/>
			<circle fill="#AEBDC4" cx="65.3" cy="39.28" r="1.85"/>
			<circle fill="#AEBDC4" cx="69.63" cy="39.28" r="1.85"/>
			<circle fill="#AEBDC4" cx="73.96" cy="39.28" r="1.85"/>
			<circle fill="#AEBDC4" cx="78.29" cy="39.28" r="1.85"/>
			<circle fill="#AEBDC4" cx="82.62" cy="39.28" r="1.85"/>
			<circle fill="#AEBDC4" cx="86.95" cy="39.28" r="1.85"/>
			<circle fill="#AEBDC4" cx="91.28" cy="39.28" r="1.85"/>
			<circle fill="#AEBDC4" cx="95.61" cy="39.28" r="1.85"/>
			<circle fill="#AEBDC4" cx="99.94" cy="39.28" r="1.85"/>
			<circle fill="#AEBDC4" cx="104.27" cy="39.28" r="1.85"/>
			<circle fill="#AEBDC4" cx="108.6" cy="39.28" r="1.85"/>
			<circle fill="#AEBDC4" cx="112.93" cy="39.28" r="1.85"/>
		</g>
		<g>
			<circle fill="#AEBDC4" cx="26.4" cy="116.39" r="1.85"/>
			<circle fill="#AEBDC4" cx="30.72" cy="116.39" r="1.85"/>
			<circle fill="#AEBDC4" cx="35.04" cy="116.39" r="1.85"/>
			<circle fill="#AEBDC4" cx="39.36" cy="116.39" r="1.85"/>
			<circle fill="#AEBDC4" cx="43.68" cy="116.39" r="1.85"/>
			<circle fill="#AEBDC4" cx="48" cy="116.39" r="1.85"/>
			<circle fill="#AEBDC4" cx="52.32" cy="116.39" r="1.85"/>
			<circle fill="#AEBDC4" cx="56.64" cy="116.39" r="1.85"/>
			<circle fill="#AEBDC4" cx="60.97" cy="116.39" r="1.85"/>
			<circle fill="#AEBDC4" cx="65.3" cy="116.39" r="1.85"/>
			<circle fill="#AEBDC4" cx="69.63" cy="116.39" r="1.85"/>
			<circle fill="#AEBDC4" cx="73.96" cy="116.39" r="1.85"/>
			<circle fill="#AEBDC4" cx="78.29" cy="116.39" r="1.85"/>
			<circle fill="#AEBDC4" cx="82.62" cy="116.39" r="1.85"/>
			<circle fill="#AEBDC4" cx="86.95" cy="116.39" r="1.85"/>
			<circle fill="#AEBDC4" cx="91.28" cy="116.39" r="1.85"/>
			<circle fill="#AEBDC4" cx="95.61" cy="116.39" r="1.85"/>
			<circle fill="#AEBDC4" cx="99.94" cy="116.39" r="1.85"/>
			<circle fill="#AEBDC4" cx="104.27" cy="116.39" r="1.85"/>
			<circle fill="#AEBDC4" cx="108.6" cy="116.39" r="1.85"/>
			<circle fill="#AEBDC4" cx="112.93" cy="116.39" r="1.85"/>
			<circle fill="#AEBDC4" cx="117.26" cy="116.39" r="1.85"/>
			<circle fill="#AEBDC4" cx="121.6" cy="116.39" r="1.85"/>
		</g>
		<g>
			<circle fill="#AEBDC4" cx="13.4" cy="33.35" r="1.85"/>
			<circle fill="#AEBDC4" cx="17.73" cy="33.35" r="1.85"/>
			<circle fill="#AEBDC4" cx="22.05" cy="33.35" r="1.85"/>
			<circle fill="#AEBDC4" cx="26.37" cy="33.35" r="1.85"/>
			<circle fill="#AEBDC4" cx="30.69" cy="33.35" r="1.85"/>
			<circle fill="#AEBDC4" cx="35.01" cy="33.35" r="1.85"/>
			<circle fill="#AEBDC4" cx="39.33" cy="33.35" r="1.85"/>
			<circle fill="#AEBDC4" cx="43.65" cy="33.35" r="1.85"/>
			<circle fill="#AEBDC4" cx="47.97" cy="33.35" r="1.85"/>
			<circle fill="#AEBDC4" cx="52.3" cy="33.35" r="1.85"/>
			<circle fill="#AEBDC4" cx="56.64" cy="33.35" r="1.85"/>
			<circle fill="#AEBDC4" cx="60.97" cy="33.35" r="1.85"/>
			<circle fill="#AEBDC4" cx="65.3" cy="33.35" r="1.85"/>
			<circle fill="#AEBDC4" cx="69.63" cy="33.35" r="1.85"/>
			<circle fill="#AEBDC4" cx="73.96" cy="33.35" r="1.85"/>
			<circle fill="#AEBDC4" cx="78.29" cy="33.35" r="1.85"/>
			<circle fill="#AEBDC4" cx="82.62" cy="33.35" r="1.85"/>
			<circle fill="#AEBDC4" cx="86.95" cy="33.35" r="1.85"/>
			<circle fill="#AEBDC4" cx="91.28" cy="33.35" r="1.85"/>
			<circle fill="#AEBDC4" cx="95.61" cy="33.35" r="1.85"/>
			<circle fill="#AEBDC4" cx="99.94" cy="33.35" r="1.85"/>
			<circle fill="#AEBDC4" cx="104.27" cy="33.35" r="1.85"/>
			<circle fill="#AEBDC4" cx="108.6" cy="33.35" r="1.85"/>
			<circle fill="#AEBDC4" cx="112.93" cy="33.35" r="1.85"/>
			<circle fill="#AEBDC4" cx="117.26" cy="33.35" r="1.85"/>
			<circle fill="#AEBDC4" cx="121.6" cy="33.35" r="1.85"/>
		</g>
		<g>
			<circle fill="#AEBDC4" cx="13.4" cy="68.94" r="1.85"/>
			<circle fill="#AEBDC4" cx="17.73" cy="68.94" r="1.85"/>
			<circle fill="#AEBDC4" cx="22.05" cy="68.94" r="1.85"/>
			<circle fill="#AEBDC4" cx="26.37" cy="68.94" r="1.85"/>
			<circle fill="#AEBDC4" cx="30.69" cy="68.94" r="1.85"/>
			<circle fill="#AEBDC4" cx="35.01" cy="68.94" r="1.85"/>
			<circle fill="#AEBDC4" cx="39.33" cy="68.94" r="1.85"/>
			<circle fill="#AEBDC4" cx="43.65" cy="68.94" r="1.85"/>
			<circle fill="#AEBDC4" cx="47.97" cy="68.94" r="1.85"/>
			<circle fill="#AEBDC4" cx="52.3" cy="68.94" r="1.85"/>
			<circle fill="#AEBDC4" cx="56.64" cy="68.94" r="1.85"/>
			<circle fill="#AEBDC4" cx="60.97" cy="68.94" r="1.85"/>
			<circle fill="#AEBDC4" cx="65.3" cy="68.94" r="1.85"/>
			<circle fill="#AEBDC4" cx="69.63" cy="68.94" r="1.85"/>
			<circle fill="#AEBDC4" cx="73.96" cy="68.94" r="1.85"/>
			<circle fill="#AEBDC4" cx="78.29" cy="68.94" r="1.85"/>
			<circle fill="#AEBDC4" cx="82.62" cy="68.94" r="1.85"/>
			<circle fill="#AEBDC4" cx="86.95" cy="68.94" r="1.85"/>
			<circle fill="#AEBDC4" cx="91.28" cy="68.94" r="1.85"/>
			<circle fill="#AEBDC4" cx="95.61" cy="68.94" r="1.85"/>
			<circle fill="#AEBDC4" cx="99.94" cy="68.94" r="1.85"/>
			<circle fill="#AEBDC4" cx="104.27" cy="68.94" r="1.85"/>
			<circle fill="#AEBDC4" cx="108.6" cy="68.94" r="1.85"/>
			<circle fill="#AEBDC4" cx="112.93" cy="68.94" r="1.85"/>
			<circle fill="#AEBDC4" cx="117.26" cy="68.94" r="1.85"/>
			<circle fill="#AEBDC4" cx="121.6" cy="68.94" r="1.85"/>
		</g>
		<g>
			<circle fill="#AEBDC4" cx="13.4" cy="74.87" r="1.85"/>
			<circle fill="#AEBDC4" cx="17.73" cy="74.87" r="1.85"/>
			<circle fill="#AEBDC4" cx="22.05" cy="74.87" r="1.85"/>
			<circle fill="#AEBDC4" cx="26.37" cy="74.87" r="1.85"/>
			<circle fill="#AEBDC4" cx="30.69" cy="74.87" r="1.85"/>
			<circle fill="#AEBDC4" cx="35.01" cy="74.87" r="1.85"/>
			<circle fill="#AEBDC4" cx="39.33" cy="74.87" r="1.85"/>
			<circle fill="#AEBDC4" cx="43.65" cy="74.87" r="1.85"/>
			<circle fill="#AEBDC4" cx="47.97" cy="74.87" r="1.85"/>
			<circle fill="#AEBDC4" cx="52.3" cy="74.87" r="1.85"/>
			<circle fill="#AEBDC4" cx="56.64" cy="74.87" r="1.85"/>
			<circle fill="#AEBDC4" cx="60.97" cy="74.87" r="1.85"/>
			<circle fill="#AEBDC4" cx="65.3" cy="74.87" r="1.85"/>
			<circle fill="#AEBDC4" cx="69.63" cy="74.87" r="1.85"/>
			<circle fill="#AEBDC4" cx="73.96" cy="74.87" r="1.85"/>
			<circle fill="#AEBDC4" cx="78.29" cy="74.87" r="1.85"/>
			<circle fill="#AEBDC4" cx="82.62" cy="74.87" r="1.85"/>
			<circle fill="#AEBDC4" cx="86.95" cy="74.87" r="1.85"/>
			<circle fill="#AEBDC4" cx="91.28" cy="74.87" r="1.85"/>
			<circle fill="#AEBDC4" cx="95.61" cy="74.87" r="1.85"/>
			<circle fill="#AEBDC4" cx="99.94" cy="74.87" r="1.85"/>
			<circle fill="#AEBDC4" cx="104.27" cy="74.87" r="1.85"/>
			<circle fill="#AEBDC4" cx="108.6" cy="74.87" r="1.85"/>
			<circle fill="#AEBDC4" cx="112.93" cy="74.87" r="1.85"/>
			<circle fill="#AEBDC4" cx="117.26" cy="74.87" r="1.85"/>
			<circle fill="#AEBDC4" cx="121.6" cy="74.87" r="1.85"/>
		</g>
		<g>
			<circle fill="#AEBDC4" cx="13.4" cy="80.8" r="1.85"/>
			<circle fill="#AEBDC4" cx="17.73" cy="80.8" r="1.85"/>
			<circle fill="#AEBDC4" cx="22.05" cy="80.8" r="1.85"/>
			<circle fill="#AEBDC4" cx="26.37" cy="80.8" r="1.85"/>
			<circle fill="#AEBDC4" cx="30.69" cy="80.8" r="1.85"/>
			<circle fill="#AEBDC4" cx="35.01" cy="80.8" r="1.85"/>
			<circle fill="#AEBDC4" cx="39.33" cy="80.8" r="1.85"/>
			<circle fill="#AEBDC4" cx="43.65" cy="80.8" r="1.85"/>
			<circle fill="#AEBDC4" cx="47.97" cy="80.8" r="1.85"/>
			<circle fill="#AEBDC4" cx="52.3" cy="80.8" r="1.85"/>
			<circle fill="#AEBDC4" cx="56.64" cy="80.8" r="1.85"/>
			<circle fill="#AEBDC4" cx="60.97" cy="80.8" r="1.85"/>
			<circle fill="#AEBDC4" cx="65.3" cy="80.8" r="1.85"/>
			<circle fill="#AEBDC4" cx="69.63" cy="80.8" r="1.85"/>
			<circle fill="#AEBDC4" cx="73.96" cy="80.8" r="1.85"/>
			<circle fill="#AEBDC4" cx="78.29" cy="80.8" r="1.85"/>
			<circle fill="#AEBDC4" cx="82.62" cy="80.8" r="1.85"/>
			<circle fill="#AEBDC4" cx="86.95" cy="80.8" r="1.85"/>
			<circle fill="#AEBDC4" cx="91.28" cy="80.8" r="1.85"/>
			<circle fill="#AEBDC4" cx="95.61" cy="80.8" r="1.85"/>
			<circle fill="#AEBDC4" cx="99.94" cy="80.8" r="1.85"/>
			<circle fill="#AEBDC4" cx="104.27" cy="80.8" r="1.85"/>
			<circle fill="#AEBDC4" cx="108.6" cy="80.8" r="1.85"/>
			<circle fill="#AEBDC4" cx="112.93" cy="80.8" r="1.85"/>
			<circle fill="#AEBDC4" cx="117.26" cy="80.8" r="1.85"/>
			<circle fill="#AEBDC4" cx="121.6" cy="80.8" r="1.85"/>
		</g>
		<g>
			<circle fill="#AEBDC4" cx="13.4" cy="86.73" r="1.85"/>
			<circle fill="#AEBDC4" cx="17.73" cy="86.73" r="1.85"/>
			<circle fill="#AEBDC4" cx="22.05" cy="86.73" r="1.85"/>
			<circle fill="#AEBDC4" cx="26.37" cy="86.73" r="1.85"/>
			<circle fill="#AEBDC4" cx="30.69" cy="86.73" r="1.85"/>
			<circle fill="#AEBDC4" cx="35.01" cy="86.73" r="1.85"/>
			<circle fill="#AEBDC4" cx="39.33" cy="86.73" r="1.85"/>
			<circle fill="#AEBDC4" cx="43.65" cy="86.73" r="1.85"/>
			<circle fill="#AEBDC4" cx="47.97" cy="86.73" r="1.85"/>
			<circle fill="#AEBDC4" cx="52.3" cy="86.73" r="1.85"/>
			<circle fill="#AEBDC4" cx="56.64" cy="86.73" r="1.85"/>
			<circle fill="#AEBDC4" cx="60.97" cy="86.73" r="1.85"/>
			<circle fill="#AEBDC4" cx="65.3" cy="86.73" r="1.85"/>
			<circle fill="#AEBDC4" cx="69.63" cy="86.73" r="1.85"/>
			<circle fill="#AEBDC4" cx="73.96" cy="86.73" r="1.85"/>
			<circle fill="#AEBDC4" cx="78.29" cy="86.73" r="1.85"/>
			<circle fill="#AEBDC4" cx="82.62" cy="86.73" r="1.85"/>
			<circle fill="#AEBDC4" cx="86.95" cy="86.73" r="1.85"/>
			<circle fill="#AEBDC4" cx="91.28" cy="86.73" r="1.85"/>
			<circle fill="#AEBDC4" cx="95.61" cy="86.73" r="1.85"/>
			<circle fill="#AEBDC4" cx="99.94" cy="86.73" r="1.85"/>
			<circle fill="#AEBDC4" cx="104.27" cy="86.73" r="1.85"/>
			<circle fill="#AEBDC4" cx="108.6" cy="86.73" r="1.85"/>
			<circle fill="#AEBDC4" cx="112.93" cy="86.73" r="1.85"/>
			<circle fill="#AEBDC4" cx="117.26" cy="86.73" r="1.85"/>
			<circle fill="#AEBDC4" cx="121.6" cy="86.73" r="1.85"/>
		</g>
		<g>
			<circle fill="#AEBDC4" cx="13.4" cy="92.66" r="1.85"/>
			<circle fill="#AEBDC4" cx="17.73" cy="92.66" r="1.85"/>
			<circle fill="#AEBDC4" cx="22.05" cy="92.66" r="1.85"/>
			<circle fill="#AEBDC4" cx="26.37" cy="92.66" r="1.85"/>
			<circle fill="#AEBDC4" cx="30.69" cy="92.66" r="1.85"/>
			<circle fill="#AEBDC4" cx="35.01" cy="92.66" r="1.85"/>
			<circle fill="#AEBDC4" cx="39.33" cy="92.66" r="1.85"/>
			<circle fill="#AEBDC4" cx="43.65" cy="92.66" r="1.85"/>
			<circle fill="#AEBDC4" cx="47.97" cy="92.66" r="1.85"/>
			<circle fill="#AEBDC4" cx="52.3" cy="92.66" r="1.85"/>
			<circle fill="#AEBDC4" cx="56.64" cy="92.66" r="1.85"/>
			<circle fill="#AEBDC4" cx="60.97" cy="92.66" r="1.85"/>
			<circle fill="#AEBDC4" cx="65.3" cy="92.66" r="1.85"/>
			<circle fill="#AEBDC4" cx="69.63" cy="92.66" r="1.85"/>
			<circle fill="#AEBDC4" cx="73.96" cy="92.66" r="1.85"/>
			<circle fill="#AEBDC4" cx="78.29" cy="92.66" r="1.85"/>
			<circle fill="#AEBDC4" cx="82.62" cy="92.66" r="1.85"/>
			<circle fill="#AEBDC4" cx="86.95" cy="92.66" r="1.85"/>
			<circle fill="#AEBDC4" cx="91.28" cy="92.66" r="1.85"/>
			<circle fill="#AEBDC4" cx="95.61" cy="92.66" r="1.85"/>
			<circle fill="#AEBDC4" cx="99.94" cy="92.66" r="1.85"/>
			<circle fill="#AEBDC4" cx="104.27" cy="92.66" r="1.85"/>
			<circle fill="#AEBDC4" cx="108.6" cy="92.66" r="1.85"/>
			<circle fill="#AEBDC4" cx="112.93" cy="92.66" r="1.85"/>
			<circle fill="#AEBDC4" cx="117.26" cy="92.66" r="1.85"/>
			<circle fill="#AEBDC4" cx="121.6" cy="92.66" r="1.85"/>
		</g>
		<g>
			<circle fill="#AEBDC4" cx="13.4" cy="98.59" r="1.85"/>
			<circle fill="#AEBDC4" cx="17.73" cy="98.59" r="1.85"/>
			<circle fill="#AEBDC4" cx="22.05" cy="98.59" r="1.85"/>
			<circle fill="#AEBDC4" cx="26.37" cy="98.59" r="1.85"/>
			<circle fill="#AEBDC4" cx="30.69" cy="98.59" r="1.85"/>
			<circle fill="#AEBDC4" cx="35.01" cy="98.59" r="1.85"/>
			<circle fill="#AEBDC4" cx="39.33" cy="98.59" r="1.85"/>
			<circle fill="#AEBDC4" cx="43.65" cy="98.59" r="1.85"/>
			<circle fill="#AEBDC4" cx="47.97" cy="98.59" r="1.85"/>
			<circle fill="#AEBDC4" cx="52.3" cy="98.59" r="1.85"/>
			<circle fill="#AEBDC4" cx="56.64" cy="98.59" r="1.85"/>
			<circle fill="#AEBDC4" cx="60.97" cy="98.59" r="1.85"/>
			<circle fill="#AEBDC4" cx="65.3" cy="98.59" r="1.85"/>
			<circle fill="#AEBDC4" cx="69.63" cy="98.59" r="1.85"/>
			<circle fill="#AEBDC4" cx="73.96" cy="98.59" r="1.85"/>
			<circle fill="#AEBDC4" cx="78.29" cy="98.59" r="1.85"/>
			<circle fill="#AEBDC4" cx="82.62" cy="98.59" r="1.85"/>
			<circle fill="#AEBDC4" cx="86.95" cy="98.59" r="1.85"/>
			<circle fill="#AEBDC4" cx="91.28" cy="98.59" r="1.85"/>
			<circle fill="#AEBDC4" cx="95.61" cy="98.59" r="1.85"/>
			<circle fill="#AEBDC4" cx="99.94" cy="98.59" r="1.85"/>
			<circle fill="#AEBDC4" cx="104.27" cy="98.59" r="1.85"/>
			<circle fill="#AEBDC4" cx="108.6" cy="98.59" r="1.85"/>
			<circle fill="#AEBDC4" cx="112.93" cy="98.59" r="1.85"/>
			<circle fill="#AEBDC4" cx="117.26" cy="98.59" r="1.85"/>
			<circle fill="#AEBDC4" cx="121.6" cy="98.59" r="1.85"/>
		</g>
		<g>
			<circle fill="#AEBDC4" cx="13.4" cy="104.52" r="1.85"/>
			<circle fill="#AEBDC4" cx="17.73" cy="104.52" r="1.85"/>
			<circle fill="#AEBDC4" cx="22.05" cy="104.52" r="1.85"/>
			<circle fill="#AEBDC4" cx="26.37" cy="104.52" r="1.85"/>
			<circle fill="#AEBDC4" cx="30.69" cy="104.52" r="1.85"/>
			<circle fill="#AEBDC4" cx="35.01" cy="104.52" r="1.85"/>
			<circle fill="#AEBDC4" cx="39.33" cy="104.52" r="1.85"/>
			<circle fill="#AEBDC4" cx="43.65" cy="104.52" r="1.85"/>
			<circle fill="#AEBDC4" cx="47.97" cy="104.52" r="1.85"/>
			<circle fill="#AEBDC4" cx="52.3" cy="104.52" r="1.85"/>
			<circle fill="#AEBDC4" cx="56.64" cy="104.52" r="1.85"/>
			<circle fill="#AEBDC4" cx="60.97" cy="104.52" r="1.85"/>
			<circle fill="#AEBDC4" cx="65.3" cy="104.52" r="1.85"/>
			<circle fill="#AEBDC4" cx="69.63" cy="104.52" r="1.85"/>
			<circle fill="#AEBDC4" cx="73.96" cy="104.52" r="1.85"/>
			<circle fill="#AEBDC4" cx="78.29" cy="104.52" r="1.85"/>
			<circle fill="#AEBDC4" cx="82.62" cy="104.52" r="1.85"/>
			<circle fill="#AEBDC4" cx="86.95" cy="104.52" r="1.85"/>
			<circle fill="#AEBDC4" cx="91.28" cy="104.52" r="1.85"/>
			<circle fill="#AEBDC4" cx="95.61" cy="104.52" r="1.85"/>
			<circle fill="#AEBDC4" cx="99.94" cy="104.52" r="1.85"/>
			<circle fill="#AEBDC4" cx="104.27" cy="104.52" r="1.85"/>
			<circle fill="#AEBDC4" cx="108.6" cy="104.52" r="1.85"/>
			<circle fill="#AEBDC4" cx="112.93" cy="104.52" r="1.85"/>
			<circle fill="#AEBDC4" cx="117.26" cy="104.52" r="1.85"/>
			<circle fill="#AEBDC4" cx="121.6" cy="104.52" r="1.85"/>
		</g>
		<g>
			<circle fill="#AEBDC4" cx="13.4" cy="110.45" r="1.85"/>
			<circle fill="#AEBDC4" cx="17.73" cy="110.45" r="1.85"/>
			<circle fill="#AEBDC4" cx="22.05" cy="110.45" r="1.85"/>
			<circle fill="#AEBDC4" cx="26.37" cy="110.45" r="1.85"/>
			<circle fill="#AEBDC4" cx="30.69" cy="110.45" r="1.85"/>
			<circle fill="#AEBDC4" cx="35.01" cy="110.45" r="1.85"/>
			<circle fill="#AEBDC4" cx="39.33" cy="110.45" r="1.85"/>
			<circle fill="#AEBDC4" cx="43.65" cy="110.45" r="1.85"/>
			<circle fill="#AEBDC4" cx="47.97" cy="110.45" r="1.85"/>
			<circle fill="#AEBDC4" cx="52.3" cy="110.45" r="1.85"/>
			<circle fill="#AEBDC4" cx="56.64" cy="110.45" r="1.85"/>
			<circle fill="#AEBDC4" cx="60.97" cy="110.45" r="1.85"/>
			<circle fill="#AEBDC4" cx="65.3" cy="110.45" r="1.85"/>
			<circle fill="#AEBDC4" cx="69.63" cy="110.45" r="1.85"/>
			<circle fill="#AEBDC4" cx="73.96" cy="110.45" r="1.85"/>
			<circle fill="#AEBDC4" cx="78.29" cy="110.45" r="1.85"/>
			<circle fill="#AEBDC4" cx="82.62" cy="110.45" r="1.85"/>
			<circle fill="#AEBDC4" cx="86.95" cy="110.45" r="1.85"/>
			<circle fill="#AEBDC4" cx="91.28" cy="110.45" r="1.85"/>
			<circle fill="#AEBDC4" cx="95.61" cy="110.45" r="1.85"/>
			<circle fill="#AEBDC4" cx="99.94" cy="110.45" r="1.85"/>
			<circle fill="#AEBDC4" cx="104.27" cy="110.45" r="1.85"/>
			<circle fill="#AEBDC4" cx="108.6" cy="110.45" r="1.85"/>
			<circle fill="#AEBDC4" cx="112.93" cy="110.45" r="1.85"/>
			<circle fill="#AEBDC4" cx="117.26" cy="110.45" r="1.85"/>
			<circle fill="#AEBDC4" cx="121.6" cy="110.45" r="1.85"/>
		</g>
		<g>
			<circle fill="#AEBDC4" cx="13.4" cy="27.42" r="1.85"/>
			<circle fill="#AEBDC4" cx="17.73" cy="27.42" r="1.85"/>
			<circle fill="#AEBDC4" cx="22.05" cy="27.42" r="1.85"/>
			<circle fill="#AEBDC4" cx="26.37" cy="27.42" r="1.85"/>
			<circle fill="#AEBDC4" cx="30.69" cy="27.42" r="1.85"/>
			<circle fill="#AEBDC4" cx="35.01" cy="27.42" r="1.85"/>
			<circle fill="#AEBDC4" cx="39.33" cy="27.42" r="1.85"/>
			<circle fill="#AEBDC4" cx="43.65" cy="27.42" r="1.85"/>
			<circle fill="#AEBDC4" cx="47.97" cy="27.42" r="1.85"/>
			<circle fill="#AEBDC4" cx="52.3" cy="27.42" r="1.85"/>
			<circle fill="#AEBDC4" cx="56.64" cy="27.42" r="1.85"/>
			<circle fill="#AEBDC4" cx="60.97" cy="27.42" r="1.85"/>
			<circle fill="#AEBDC4" cx="65.3" cy="27.42" r="1.85"/>
			<circle fill="#AEBDC4" cx="69.63" cy="27.42" r="1.85"/>
			<circle fill="#AEBDC4" cx="73.96" cy="27.42" r="1.85"/>
			<circle fill="#AEBDC4" cx="78.29" cy="27.42" r="1.85"/>
			<circle fill="#AEBDC4" cx="82.62" cy="27.42" r="1.85"/>
			<circle fill="#AEBDC4" cx="86.95" cy="27.42" r="1.85"/>
			<circle fill="#AEBDC4" cx="91.28" cy="27.42" r="1.85"/>
			<circle fill="#AEBDC4" cx="95.61" cy="27.42" r="1.85"/>
			<circle fill="#AEBDC4" cx="99.94" cy="27.42" r="1.85"/>
			<circle fill="#AEBDC4" cx="104.27" cy="27.42" r="1.85"/>
			<circle fill="#AEBDC4" cx="108.6" cy="27.42" r="1.85"/>
			<circle fill="#AEBDC4" cx="112.93" cy="27.42" r="1.85"/>
			<circle fill="#AEBDC4" cx="117.26" cy="27.42" r="1.85"/>
			<circle fill="#AEBDC4" cx="121.6" cy="27.42" r="1.85"/>
		</g>
		<g>
			<circle fill="#AEBDC4" cx="13.4" cy="21.49" r="1.85"/>
			<circle fill="#AEBDC4" cx="17.73" cy="21.49" r="1.85"/>
			<circle fill="#AEBDC4" cx="22.05" cy="21.49" r="1.85"/>
			<circle fill="#AEBDC4" cx="26.37" cy="21.49" r="1.85"/>
			<circle fill="#AEBDC4" cx="30.69" cy="21.49" r="1.85"/>
			<circle fill="#AEBDC4" cx="35.01" cy="21.49" r="1.85"/>
			<circle fill="#AEBDC4" cx="39.33" cy="21.49" r="1.85"/>
			<circle fill="#AEBDC4" cx="43.65" cy="21.49" r="1.85"/>
			<circle fill="#AEBDC4" cx="47.97" cy="21.49" r="1.85"/>
			<circle fill="#AEBDC4" cx="52.3" cy="21.49" r="1.85"/>
			<circle fill="#AEBDC4" cx="56.64" cy="21.49" r="1.85"/>
			<circle fill="#AEBDC4" cx="60.97" cy="21.49" r="1.85"/>
			<circle fill="#AEBDC4" cx="65.3" cy="21.49" r="1.85"/>
			<circle fill="#AEBDC4" cx="69.63" cy="21.49" r="1.85"/>
			<circle fill="#AEBDC4" cx="73.96" cy="21.49" r="1.85"/>
			<circle fill="#AEBDC4" cx="78.29" cy="21.49" r="1.85"/>
			<circle fill="#AEBDC4" cx="82.62" cy="21.49" r="1.85"/>
			<circle fill="#AEBDC4" cx="86.95" cy="21.49" r="1.85"/>
			<circle fill="#AEBDC4" cx="91.28" cy="21.49" r="1.85"/>
			<circle fill="#AEBDC4" cx="95.61" cy="21.49" r="1.85"/>
			<circle fill="#AEBDC4" cx="99.94" cy="21.49" r="1.85"/>
			<circle fill="#AEBDC4" cx="104.27" cy="21.49" r="1.85"/>
			<circle fill="#AEBDC4" cx="108.6" cy="21.49" r="1.85"/>
			<circle fill="#AEBDC4" cx="112.93" cy="21.49" r="1.85"/>
			<circle fill="#AEBDC4" cx="117.26" cy="21.49" r="1.85"/>
			<circle fill="#AEBDC4" cx="121.6" cy="21.49" r="1.85"/>
		</g>
		<g>
			<circle fill="#AEBDC4" cx="13.4" cy="15.56" r="1.85"/>
			<circle fill="#AEBDC4" cx="17.73" cy="15.56" r="1.85"/>
			<circle fill="#AEBDC4" cx="22.05" cy="15.56" r="1.85"/>
			<circle fill="#AEBDC4" cx="26.37" cy="15.56" r="1.85"/>
			<circle fill="#AEBDC4" cx="30.69" cy="15.56" r="1.85"/>
			<circle fill="#AEBDC4" cx="35.01" cy="15.56" r="1.85"/>
			<circle fill="#AEBDC4" cx="39.33" cy="15.56" r="1.85"/>
			<circle fill="#AEBDC4" cx="43.65" cy="15.56" r="1.85"/>
			<circle fill="#AEBDC4" cx="47.97" cy="15.56" r="1.85"/>
			<circle fill="#AEBDC4" cx="52.3" cy="15.56" r="1.85"/>
			<circle fill="#AEBDC4" cx="56.64" cy="15.56" r="1.85"/>
			<circle fill="#AEBDC4" cx="60.97" cy="15.56" r="1.85"/>
			<circle fill="#AEBDC4" cx="65.3" cy="15.56" r="1.85"/>
			<circle fill="#AEBDC4" cx="69.63" cy="15.56" r="1.85"/>
			<circle fill="#AEBDC4" cx="73.96" cy="15.56" r="1.85"/>
			<circle fill="#AEBDC4" cx="78.29" cy="15.56" r="1.85"/>
			<circle fill="#AEBDC4" cx="82.62" cy="15.56" r="1.85"/>
			<circle fill="#AEBDC4" cx="86.95" cy="15.56" r="1.85"/>
			<circle fill="#AEBDC4" cx="91.28" cy="15.56" r="1.85"/>
			<circle fill="#AEBDC4" cx="95.61" cy="15.56" r="1.85"/>
			<circle fill="#AEBDC4" cx="99.94" cy="15.56" r="1.85"/>
			<circle fill="#AEBDC4" cx="104.27" cy="15.56" r="1.85"/>
			<circle fill="#AEBDC4" cx="108.6" cy="15.56" r="1.85"/>
			<circle fill="#AEBDC4" cx="112.93" cy="15.56" r="1.85"/>
			<circle fill="#AEBDC4" cx="117.26" cy="15.56" r="1.85"/>
			<circle fill="#AEBDC4" cx="121.6" cy="15.56" r="1.85"/>
		</g>
		<g>
			<circle fill="#AEBDC4" cx="13.4" cy="9.63" r="1.85"/>
			<circle fill="#AEBDC4" cx="17.73" cy="9.63" r="1.85"/>
			<circle fill="#AEBDC4" cx="22.05" cy="9.63" r="1.85"/>
			<circle fill="#AEBDC4" cx="26.37" cy="9.63" r="1.85"/>
			<circle fill="#AEBDC4" cx="30.69" cy="9.63" r="1.85"/>
			<circle fill="#AEBDC4" cx="35.01" cy="9.63" r="1.85"/>
			<circle fill="#AEBDC4" cx="39.33" cy="9.63" r="1.85"/>
			<circle fill="#AEBDC4" cx="43.65" cy="9.63" r="1.85"/>
			<circle fill="#AEBDC4" cx="47.97" cy="9.63" r="1.85"/>
			<circle fill="#AEBDC4" cx="52.3" cy="9.63" r="1.85"/>
			<circle fill="#AEBDC4" cx="56.64" cy="9.63" r="1.85"/>
			<circle fill="#AEBDC4" cx="60.97" cy="9.63" r="1.85"/>
			<circle fill="#AEBDC4" cx="65.3" cy="9.63" r="1.85"/>
			<circle fill="#AEBDC4" cx="69.63" cy="9.63" r="1.85"/>
			<circle fill="#AEBDC4" cx="73.96" cy="9.63" r="1.85"/>
			<circle fill="#AEBDC4" cx="78.29" cy="9.63" r="1.85"/>
			<circle fill="#AEBDC4" cx="82.62" cy="9.63" r="1.85"/>
			<circle fill="#AEBDC4" cx="86.95" cy="9.63" r="1.85"/>
			<circle fill="#AEBDC4" cx="91.28" cy="9.63" r="1.85"/>
			<circle fill="#AEBDC4" cx="95.61" cy="9.63" r="1.85"/>
			<circle fill="#AEBDC4" cx="99.94" cy="9.63" r="1.85"/>
			<circle fill="#AEBDC4" cx="104.27" cy="9.63" r="1.85"/>
			<circle fill="#AEBDC4" cx="108.6" cy="9.63" r="1.85"/>
			<circle fill="#AEBDC4" cx="112.93" cy="9.63" r="1.85"/>
			<circle fill="#AEBDC4" cx="117.26" cy="9.63" r="1.85"/>
			<circle fill="#AEBDC4" cx="121.6" cy="9.63" r="1.85"/>
		</g>
	</g>
	<g onclick="this.parentNode.a_text=this;">
		<text transform="matrix(0.9999 0 0 1 63.0578 47.2434)"><tspan x="0" y="0" font-family="'OpenSans-Semibold'" font-size="6.3996px">E 2</tspan><tspan x="-5.52" y="7.2" font-family="'OpenSans-Semibold'" font-size="6.3996px">(</tspan><tspan x="-3.48" y="7.2" font-family="'OpenSans-Semibold'" font-size="6.3996px">в</tspan><tspan x="0.64" y="7.2" font-family="'OpenSans-Semibold'" font-size="6.3996px">е</tspan><tspan x="4.56" y="7.2" font-family="'OpenSans-Semibold'" font-size="6.3996px">рх</tspan><tspan x="12.38" y="7.2" font-family="'OpenSans-Semibold'" font-size="6.3996px">)</tspan></text>
	</g>
</g>
</svg>
