<?xml version="1.0" encoding="utf-8"?>
<!-- Generator: Adobe Illustrator 23.0.1, SVG Export Plug-In . SVG Version: 6.00 Build 0)  -->
<svg version="1.1" id="Layer_1" xmlns="http://www.w3.org/2000/svg" xmlns:xlink="http://www.w3.org/1999/xlink" x="0px" y="0px"
	 width="131px" height="167px" viewBox="0 0 131 167" enable-background="new 0 0 131 167" xml:space="preserve">
<g onclick="this.parentNode.sekt.push(this);this.a_name=&quot;E 3 (низ)&quot;;">
	
		<rect x="-17.69" y="18.53" onclick="this.parentNode.a_fon=this;" transform="matrix(-1.836970e-16 1 -1 -1.836970e-16 149 18)" fill="#F1F3F4" stroke="#BCC8CE" stroke-width="0.4" stroke-linecap="round" stroke-miterlimit="10" width="166.39" height="129.95"/>
	<g onclick="this.parentNode.a_row=this;">
		
			<line onclick="this.a_par={beg_namb:1,quant:18};" fill="none" stroke="#D3DBDF" stroke-width="0.4" stroke-miterlimit="10" x1="39.87" y1="9.37" x2="117.11" y2="9.37"/>
		
			<line onclick="this.a_par={beg_namb:1,quant:18};" fill="none" stroke="#D3DBDF" stroke-width="0.4" stroke-miterlimit="10" x1="39.87" y1="15.3" x2="117.11" y2="15.3"/>
		
			<line onclick="this.a_par={beg_namb:1,quant:24};" fill="none" stroke="#D3DBDF" stroke-width="0.4" stroke-miterlimit="10" x1="13.89" y1="21.23" x2="117.11" y2="21.23"/>
		
			<line onclick="this.a_par={beg_namb:1,quant:24};" fill="none" stroke="#D3DBDF" stroke-width="0.4" stroke-miterlimit="10" x1="13.89" y1="27.16" x2="117.11" y2="27.16"/>
		
			<line onclick="this.a_par={beg_namb:1,quant:24};" fill="none" stroke="#D3DBDF" stroke-width="0.4" stroke-miterlimit="10" x1="13.89" y1="33.09" x2="117.11" y2="33.09"/>
		
			<line onclick="this.a_par={beg_namb:1,quant:24};" fill="none" stroke="#D3DBDF" stroke-width="0.4" stroke-miterlimit="10" x1="13.89" y1="39.02" x2="117.11" y2="39.02"/>
		
			<line onclick="this.a_par={beg_namb:1,quant:24};" fill="none" stroke="#D3DBDF" stroke-width="0.4" stroke-miterlimit="10" x1="13.89" y1="44.95" x2="117.11" y2="44.95"/>
		
			<line onclick="this.a_par={beg_namb:1,quant:24};" fill="none" stroke="#D3DBDF" stroke-width="0.4" stroke-miterlimit="10" x1="13.89" y1="50.88" x2="117.11" y2="50.88"/>
		
			<line onclick="this.a_par={beg_namb:1,quant:24};" fill="none" stroke="#D3DBDF" stroke-width="0.4" stroke-miterlimit="10" x1="13.89" y1="56.81" x2="117.11" y2="56.81"/>
		
			<line onclick="this.a_par={beg_namb:1,quant:24};" fill="none" stroke="#D3DBDF" stroke-width="0.4" stroke-miterlimit="10" x1="13.89" y1="62.74" x2="117.11" y2="62.74"/>
		
			<line onclick="this.a_par={beg_namb:1,quant:24};" fill="none" stroke="#D3DBDF" stroke-width="0.4" stroke-miterlimit="10" x1="13.89" y1="68.68" x2="117.11" y2="68.68"/>
		
			<line onclick="this.a_par={beg_namb:1,quant:24};" fill="none" stroke="#D3DBDF" stroke-width="0.4" stroke-miterlimit="10" x1="13.89" y1="74.61" x2="117.11" y2="74.61"/>
		
			<line onclick="this.a_par={beg_namb:1,quant:24};" fill="none" stroke="#D3DBDF" stroke-width="0.4" stroke-miterlimit="10" x1="13.89" y1="80.54" x2="117.11" y2="80.54"/>
		
			<line onclick="this.a_par={beg_namb:1,quant:24};" fill="none" stroke="#D3DBDF" stroke-width="0.4" stroke-miterlimit="10" x1="13.89" y1="86.47" x2="117.11" y2="86.47"/>
		
			<line onclick="this.a_par={beg_namb:1,quant:24};" fill="none" stroke="#D3DBDF" stroke-width="0.4" stroke-miterlimit="10" x1="13.89" y1="92.4" x2="117.11" y2="92.4"/>
		
			<line onclick="this.a_par={beg_namb:1,quant:24};" fill="none" stroke="#D3DBDF" stroke-width="0.4" stroke-miterlimit="10" x1="13.89" y1="98.33" x2="117.11" y2="98.33"/>
		
			<line onclick="this.a_par={beg_namb:1,quant:24};" fill="none" stroke="#D3DBDF" stroke-width="0.4" stroke-miterlimit="10" x1="13.89" y1="104.26" x2="117.11" y2="104.26"/>
		
			<line onclick="this.a_par={beg_namb:1,quant:24};" fill="none" stroke="#D3DBDF" stroke-width="0.4" stroke-miterlimit="10" x1="13.89" y1="110.19" x2="117.11" y2="110.19"/>
		
			<line onclick="this.a_par={beg_namb:1,quant:20};" fill="none" stroke="#D3DBDF" stroke-width="0.4" stroke-miterlimit="10" x1="22.55" y1="116.12" x2="108.45" y2="116.12"/>
		
			<line onclick="this.a_par={beg_namb:1,quant:20};" fill="none" stroke="#D3DBDF" stroke-width="0.4" stroke-miterlimit="10" x1="22.55" y1="122.05" x2="108.45" y2="122.05"/>
		
			<line onclick="this.a_par={beg_namb:1,quant:20};" fill="none" stroke="#D3DBDF" stroke-width="0.4" stroke-miterlimit="10" x1="22.55" y1="127.98" x2="108.45" y2="127.98"/>
		
			<line onclick="this.a_par={beg_namb:1,quant:20};" fill="none" stroke="#D3DBDF" stroke-width="0.4" stroke-miterlimit="10" x1="22.55" y1="133.91" x2="108.45" y2="133.91"/>
		
			<line onclick="this.a_par={beg_namb:1,quant:20};" fill="none" stroke="#D3DBDF" stroke-width="0.4" stroke-miterlimit="10" x1="22.55" y1="139.85" x2="108.45" y2="139.85"/>
		
			<line onclick="this.a_par={beg_namb:1,quant:24};" fill="none" stroke="#D3DBDF" stroke-width="0.4" stroke-miterlimit="10" x1="13.89" y1="145.78" x2="117.11" y2="145.78"/>
		
			<line onclick="this.a_par={beg_namb:1,quant:24};" fill="none" stroke="#D3DBDF" stroke-width="0.4" stroke-miterlimit="10" x1="13.89" y1="151.71" x2="117.11" y2="151.71"/>
		
			<line onclick="this.a_par={beg_namb:1,quant:24};" fill="none" stroke="#D3DBDF" stroke-width="0.4" stroke-miterlimit="10" x1="13.89" y1="157.64" x2="117.11" y2="157.64"/>
	</g>
	<g>
		<g>
			<circle fill="#AEBDC4" cx="41.72" cy="15.3" r="1.85"/>
			<circle fill="#AEBDC4" cx="46.04" cy="15.3" r="1.85"/>
			<circle fill="#AEBDC4" cx="50.36" cy="15.3" r="1.85"/>
			<circle fill="#AEBDC4" cx="54.68" cy="15.3" r="1.85"/>
			<circle fill="#AEBDC4" cx="59" cy="15.3" r="1.85"/>
			<circle fill="#AEBDC4" cx="63.33" cy="15.3" r="1.85"/>
			<circle fill="#AEBDC4" cx="67.65" cy="15.3" r="1.85"/>
			<circle fill="#AEBDC4" cx="71.97" cy="15.3" r="1.85"/>
			<circle fill="#AEBDC4" cx="76.29" cy="15.3" r="1.85"/>
			<circle fill="#AEBDC4" cx="80.62" cy="15.3" r="1.85"/>
			<circle fill="#AEBDC4" cx="84.95" cy="15.3" r="1.85"/>
			<circle fill="#AEBDC4" cx="89.28" cy="15.3" r="1.85"/>
			<circle fill="#AEBDC4" cx="93.61" cy="15.3" r="1.85"/>
			<circle fill="#AEBDC4" cx="97.94" cy="15.3" r="1.85"/>
			<circle fill="#AEBDC4" cx="102.27" cy="15.3" r="1.85"/>
			<circle fill="#AEBDC4" cx="106.6" cy="15.3" r="1.85"/>
			<circle fill="#AEBDC4" cx="110.93" cy="15.3" r="1.85"/>
			<circle fill="#AEBDC4" cx="115.26" cy="15.3" r="1.85"/>
		</g>
		<g>
			<circle fill="#AEBDC4" cx="41.72" cy="9.37" r="1.85"/>
			<circle fill="#AEBDC4" cx="46.04" cy="9.37" r="1.85"/>
			<circle fill="#AEBDC4" cx="50.36" cy="9.37" r="1.85"/>
			<circle fill="#AEBDC4" cx="54.68" cy="9.37" r="1.85"/>
			<circle fill="#AEBDC4" cx="59" cy="9.37" r="1.85"/>
			<circle fill="#AEBDC4" cx="63.33" cy="9.37" r="1.85"/>
			<circle fill="#AEBDC4" cx="67.65" cy="9.37" r="1.85"/>
			<circle fill="#AEBDC4" cx="71.97" cy="9.37" r="1.85"/>
			<circle fill="#AEBDC4" cx="76.29" cy="9.37" r="1.85"/>
			<circle fill="#AEBDC4" cx="80.62" cy="9.37" r="1.85"/>
			<circle fill="#AEBDC4" cx="84.95" cy="9.37" r="1.85"/>
			<circle fill="#AEBDC4" cx="89.28" cy="9.37" r="1.85"/>
			<circle fill="#AEBDC4" cx="93.61" cy="9.37" r="1.85"/>
			<circle fill="#AEBDC4" cx="97.94" cy="9.37" r="1.85"/>
			<circle fill="#AEBDC4" cx="102.27" cy="9.37" r="1.85"/>
			<circle fill="#AEBDC4" cx="106.6" cy="9.37" r="1.85"/>
			<circle fill="#AEBDC4" cx="110.93" cy="9.37" r="1.85"/>
			<circle fill="#AEBDC4" cx="115.26" cy="9.37" r="1.85"/>
		</g>
		<g>
			<circle fill="#AEBDC4" cx="24.4" cy="139.85" r="1.85"/>
			<circle fill="#AEBDC4" cx="28.72" cy="139.85" r="1.85"/>
			<circle fill="#AEBDC4" cx="33.04" cy="139.85" r="1.85"/>
			<circle fill="#AEBDC4" cx="37.36" cy="139.85" r="1.85"/>
			<circle fill="#AEBDC4" cx="41.68" cy="139.85" r="1.85"/>
			<circle fill="#AEBDC4" cx="46" cy="139.85" r="1.85"/>
			<circle fill="#AEBDC4" cx="50.32" cy="139.85" r="1.85"/>
			<circle fill="#AEBDC4" cx="54.64" cy="139.85" r="1.85"/>
			<circle fill="#AEBDC4" cx="58.97" cy="139.85" r="1.85"/>
			<circle fill="#AEBDC4" cx="63.3" cy="139.85" r="1.85"/>
			<circle fill="#AEBDC4" cx="67.63" cy="139.85" r="1.85"/>
			<circle fill="#AEBDC4" cx="71.96" cy="139.85" r="1.85"/>
			<circle fill="#AEBDC4" cx="76.29" cy="139.85" r="1.85"/>
			<circle fill="#AEBDC4" cx="80.62" cy="139.85" r="1.85"/>
			<circle fill="#AEBDC4" cx="84.95" cy="139.85" r="1.85"/>
			<circle fill="#AEBDC4" cx="89.28" cy="139.85" r="1.85"/>
			<circle fill="#AEBDC4" cx="93.61" cy="139.85" r="1.85"/>
			<circle fill="#AEBDC4" cx="97.94" cy="139.85" r="1.85"/>
			<circle fill="#AEBDC4" cx="102.27" cy="139.85" r="1.85"/>
			<circle fill="#AEBDC4" cx="106.6" cy="139.85" r="1.85"/>
		</g>
		<g>
			<circle fill="#AEBDC4" cx="24.4" cy="133.91" r="1.85"/>
			<circle fill="#AEBDC4" cx="28.72" cy="133.91" r="1.85"/>
			<circle fill="#AEBDC4" cx="33.04" cy="133.91" r="1.85"/>
			<circle fill="#AEBDC4" cx="37.36" cy="133.91" r="1.85"/>
			<circle fill="#AEBDC4" cx="41.68" cy="133.91" r="1.85"/>
			<circle fill="#AEBDC4" cx="46" cy="133.91" r="1.85"/>
			<circle fill="#AEBDC4" cx="50.32" cy="133.91" r="1.85"/>
			<circle fill="#AEBDC4" cx="54.64" cy="133.91" r="1.85"/>
			<circle fill="#AEBDC4" cx="58.97" cy="133.91" r="1.85"/>
			<circle fill="#AEBDC4" cx="63.3" cy="133.91" r="1.85"/>
			<circle fill="#AEBDC4" cx="67.63" cy="133.91" r="1.85"/>
			<circle fill="#AEBDC4" cx="71.96" cy="133.91" r="1.85"/>
			<circle fill="#AEBDC4" cx="76.29" cy="133.91" r="1.85"/>
			<circle fill="#AEBDC4" cx="80.62" cy="133.91" r="1.85"/>
			<circle fill="#AEBDC4" cx="84.95" cy="133.91" r="1.85"/>
			<circle fill="#AEBDC4" cx="89.28" cy="133.91" r="1.85"/>
			<circle fill="#AEBDC4" cx="93.61" cy="133.91" r="1.85"/>
			<circle fill="#AEBDC4" cx="97.94" cy="133.91" r="1.85"/>
			<circle fill="#AEBDC4" cx="102.27" cy="133.91" r="1.85"/>
			<circle fill="#AEBDC4" cx="106.6" cy="133.91" r="1.85"/>
		</g>
		<g>
			<circle fill="#AEBDC4" cx="24.4" cy="127.98" r="1.85"/>
			<circle fill="#AEBDC4" cx="28.72" cy="127.98" r="1.85"/>
			<circle fill="#AEBDC4" cx="33.04" cy="127.98" r="1.85"/>
			<circle fill="#AEBDC4" cx="37.36" cy="127.98" r="1.85"/>
			<circle fill="#AEBDC4" cx="41.68" cy="127.98" r="1.85"/>
			<circle fill="#AEBDC4" cx="46" cy="127.98" r="1.85"/>
			<circle fill="#AEBDC4" cx="50.32" cy="127.98" r="1.85"/>
			<circle fill="#AEBDC4" cx="54.64" cy="127.98" r="1.85"/>
			<circle fill="#AEBDC4" cx="58.97" cy="127.98" r="1.85"/>
			<circle fill="#AEBDC4" cx="63.3" cy="127.98" r="1.85"/>
			<circle fill="#AEBDC4" cx="67.63" cy="127.98" r="1.85"/>
			<circle fill="#AEBDC4" cx="71.96" cy="127.98" r="1.85"/>
			<circle fill="#AEBDC4" cx="76.29" cy="127.98" r="1.85"/>
			<circle fill="#AEBDC4" cx="80.62" cy="127.98" r="1.85"/>
			<circle fill="#AEBDC4" cx="84.95" cy="127.98" r="1.85"/>
			<circle fill="#AEBDC4" cx="89.28" cy="127.98" r="1.85"/>
			<circle fill="#AEBDC4" cx="93.61" cy="127.98" r="1.85"/>
			<circle fill="#AEBDC4" cx="97.94" cy="127.98" r="1.85"/>
			<circle fill="#AEBDC4" cx="102.27" cy="127.98" r="1.85"/>
			<circle fill="#AEBDC4" cx="106.6" cy="127.98" r="1.85"/>
		</g>
		<g>
			<circle fill="#AEBDC4" cx="24.4" cy="122.05" r="1.85"/>
			<circle fill="#AEBDC4" cx="28.72" cy="122.05" r="1.85"/>
			<circle fill="#AEBDC4" cx="33.04" cy="122.05" r="1.85"/>
			<circle fill="#AEBDC4" cx="37.36" cy="122.05" r="1.85"/>
			<circle fill="#AEBDC4" cx="41.68" cy="122.05" r="1.85"/>
			<circle fill="#AEBDC4" cx="46" cy="122.05" r="1.85"/>
			<circle fill="#AEBDC4" cx="50.32" cy="122.05" r="1.85"/>
			<circle fill="#AEBDC4" cx="54.64" cy="122.05" r="1.85"/>
			<circle fill="#AEBDC4" cx="58.97" cy="122.05" r="1.85"/>
			<circle fill="#AEBDC4" cx="63.3" cy="122.05" r="1.85"/>
			<circle fill="#AEBDC4" cx="67.63" cy="122.05" r="1.85"/>
			<circle fill="#AEBDC4" cx="71.96" cy="122.05" r="1.85"/>
			<circle fill="#AEBDC4" cx="76.29" cy="122.05" r="1.85"/>
			<circle fill="#AEBDC4" cx="80.62" cy="122.05" r="1.85"/>
			<circle fill="#AEBDC4" cx="84.95" cy="122.05" r="1.85"/>
			<circle fill="#AEBDC4" cx="89.28" cy="122.05" r="1.85"/>
			<circle fill="#AEBDC4" cx="93.61" cy="122.05" r="1.85"/>
			<circle fill="#AEBDC4" cx="97.94" cy="122.05" r="1.85"/>
			<circle fill="#AEBDC4" cx="102.27" cy="122.05" r="1.85"/>
			<circle fill="#AEBDC4" cx="106.6" cy="122.05" r="1.85"/>
		</g>
		<g>
			<circle fill="#AEBDC4" cx="24.4" cy="116.12" r="1.85"/>
			<circle fill="#AEBDC4" cx="28.72" cy="116.12" r="1.85"/>
			<circle fill="#AEBDC4" cx="33.04" cy="116.12" r="1.85"/>
			<circle fill="#AEBDC4" cx="37.36" cy="116.12" r="1.85"/>
			<circle fill="#AEBDC4" cx="41.68" cy="116.12" r="1.85"/>
			<circle fill="#AEBDC4" cx="46" cy="116.12" r="1.85"/>
			<circle fill="#AEBDC4" cx="50.32" cy="116.12" r="1.85"/>
			<circle fill="#AEBDC4" cx="54.64" cy="116.12" r="1.85"/>
			<circle fill="#AEBDC4" cx="58.97" cy="116.12" r="1.85"/>
			<circle fill="#AEBDC4" cx="63.3" cy="116.12" r="1.85"/>
			<circle fill="#AEBDC4" cx="67.63" cy="116.12" r="1.85"/>
			<circle fill="#AEBDC4" cx="71.96" cy="116.12" r="1.85"/>
			<circle fill="#AEBDC4" cx="76.29" cy="116.12" r="1.85"/>
			<circle fill="#AEBDC4" cx="80.62" cy="116.12" r="1.85"/>
			<circle fill="#AEBDC4" cx="84.95" cy="116.12" r="1.85"/>
			<circle fill="#AEBDC4" cx="89.28" cy="116.12" r="1.85"/>
			<circle fill="#AEBDC4" cx="93.61" cy="116.12" r="1.85"/>
			<circle fill="#AEBDC4" cx="97.94" cy="116.12" r="1.85"/>
			<circle fill="#AEBDC4" cx="102.27" cy="116.12" r="1.85"/>
			<circle fill="#AEBDC4" cx="106.6" cy="116.12" r="1.85"/>
		</g>
		<g>
			<circle fill="#AEBDC4" cx="15.74" cy="157.64" r="1.85"/>
			<circle fill="#AEBDC4" cx="20.06" cy="157.64" r="1.85"/>
			<circle fill="#AEBDC4" cx="24.38" cy="157.64" r="1.85"/>
			<circle fill="#AEBDC4" cx="28.7" cy="157.64" r="1.85"/>
			<circle fill="#AEBDC4" cx="33.02" cy="157.64" r="1.85"/>
			<circle fill="#AEBDC4" cx="37.34" cy="157.64" r="1.85"/>
			<circle fill="#AEBDC4" cx="41.66" cy="157.64" r="1.85"/>
			<circle fill="#AEBDC4" cx="45.98" cy="157.64" r="1.85"/>
			<circle fill="#AEBDC4" cx="50.3" cy="157.64" r="1.85"/>
			<circle fill="#AEBDC4" cx="54.64" cy="157.64" r="1.85"/>
			<circle fill="#AEBDC4" cx="58.97" cy="157.64" r="1.85"/>
			<circle fill="#AEBDC4" cx="63.3" cy="157.64" r="1.85"/>
			<circle fill="#AEBDC4" cx="67.63" cy="157.64" r="1.85"/>
			<circle fill="#AEBDC4" cx="71.96" cy="157.64" r="1.85"/>
			<circle fill="#AEBDC4" cx="76.29" cy="157.64" r="1.85"/>
			<circle fill="#AEBDC4" cx="80.62" cy="157.64" r="1.85"/>
			<circle fill="#AEBDC4" cx="84.95" cy="157.64" r="1.85"/>
			<circle fill="#AEBDC4" cx="89.28" cy="157.64" r="1.85"/>
			<circle fill="#AEBDC4" cx="93.61" cy="157.64" r="1.85"/>
			<circle fill="#AEBDC4" cx="97.94" cy="157.64" r="1.85"/>
			<circle fill="#AEBDC4" cx="102.27" cy="157.64" r="1.85"/>
			<circle fill="#AEBDC4" cx="106.6" cy="157.64" r="1.85"/>
			<circle fill="#AEBDC4" cx="110.93" cy="157.64" r="1.85"/>
			<circle fill="#AEBDC4" cx="115.26" cy="157.64" r="1.85"/>
		</g>
		<g>
			<circle fill="#AEBDC4" cx="15.74" cy="151.71" r="1.85"/>
			<circle fill="#AEBDC4" cx="20.06" cy="151.71" r="1.85"/>
			<circle fill="#AEBDC4" cx="24.38" cy="151.71" r="1.85"/>
			<circle fill="#AEBDC4" cx="28.7" cy="151.71" r="1.85"/>
			<circle fill="#AEBDC4" cx="33.02" cy="151.71" r="1.85"/>
			<circle fill="#AEBDC4" cx="37.34" cy="151.71" r="1.85"/>
			<circle fill="#AEBDC4" cx="41.66" cy="151.71" r="1.85"/>
			<circle fill="#AEBDC4" cx="45.98" cy="151.71" r="1.85"/>
			<circle fill="#AEBDC4" cx="50.3" cy="151.71" r="1.85"/>
			<circle fill="#AEBDC4" cx="54.64" cy="151.71" r="1.85"/>
			<circle fill="#AEBDC4" cx="58.97" cy="151.71" r="1.85"/>
			<circle fill="#AEBDC4" cx="63.3" cy="151.71" r="1.85"/>
			<circle fill="#AEBDC4" cx="67.63" cy="151.71" r="1.85"/>
			<circle fill="#AEBDC4" cx="71.96" cy="151.71" r="1.85"/>
			<circle fill="#AEBDC4" cx="76.29" cy="151.71" r="1.85"/>
			<circle fill="#AEBDC4" cx="80.62" cy="151.71" r="1.85"/>
			<circle fill="#AEBDC4" cx="84.95" cy="151.71" r="1.85"/>
			<circle fill="#AEBDC4" cx="89.28" cy="151.71" r="1.85"/>
			<circle fill="#AEBDC4" cx="93.61" cy="151.71" r="1.85"/>
			<circle fill="#AEBDC4" cx="97.94" cy="151.71" r="1.85"/>
			<circle fill="#AEBDC4" cx="102.27" cy="151.71" r="1.85"/>
			<circle fill="#AEBDC4" cx="106.6" cy="151.71" r="1.85"/>
			<circle fill="#AEBDC4" cx="110.93" cy="151.71" r="1.85"/>
			<circle fill="#AEBDC4" cx="115.26" cy="151.71" r="1.85"/>
		</g>
		<g>
			<circle fill="#AEBDC4" cx="15.74" cy="145.78" r="1.85"/>
			<circle fill="#AEBDC4" cx="20.06" cy="145.78" r="1.85"/>
			<circle fill="#AEBDC4" cx="24.38" cy="145.78" r="1.85"/>
			<circle fill="#AEBDC4" cx="28.7" cy="145.78" r="1.85"/>
			<circle fill="#AEBDC4" cx="33.02" cy="145.78" r="1.85"/>
			<circle fill="#AEBDC4" cx="37.34" cy="145.78" r="1.85"/>
			<circle fill="#AEBDC4" cx="41.66" cy="145.78" r="1.85"/>
			<circle fill="#AEBDC4" cx="45.98" cy="145.78" r="1.85"/>
			<circle fill="#AEBDC4" cx="50.3" cy="145.78" r="1.85"/>
			<circle fill="#AEBDC4" cx="54.64" cy="145.78" r="1.85"/>
			<circle fill="#AEBDC4" cx="58.97" cy="145.78" r="1.85"/>
			<circle fill="#AEBDC4" cx="63.3" cy="145.78" r="1.85"/>
			<circle fill="#AEBDC4" cx="67.63" cy="145.78" r="1.85"/>
			<circle fill="#AEBDC4" cx="71.96" cy="145.78" r="1.85"/>
			<circle fill="#AEBDC4" cx="76.29" cy="145.78" r="1.85"/>
			<circle fill="#AEBDC4" cx="80.62" cy="145.78" r="1.85"/>
			<circle fill="#AEBDC4" cx="84.95" cy="145.78" r="1.85"/>
			<circle fill="#AEBDC4" cx="89.28" cy="145.78" r="1.85"/>
			<circle fill="#AEBDC4" cx="93.61" cy="145.78" r="1.85"/>
			<circle fill="#AEBDC4" cx="97.94" cy="145.78" r="1.85"/>
			<circle fill="#AEBDC4" cx="102.27" cy="145.78" r="1.85"/>
			<circle fill="#AEBDC4" cx="106.6" cy="145.78" r="1.85"/>
			<circle fill="#AEBDC4" cx="110.93" cy="145.78" r="1.85"/>
			<circle fill="#AEBDC4" cx="115.26" cy="145.78" r="1.85"/>
		</g>
		<g>
			<circle fill="#AEBDC4" cx="15.74" cy="110.19" r="1.85"/>
			<circle fill="#AEBDC4" cx="20.06" cy="110.19" r="1.85"/>
			<circle fill="#AEBDC4" cx="24.38" cy="110.19" r="1.85"/>
			<circle fill="#AEBDC4" cx="28.7" cy="110.19" r="1.85"/>
			<circle fill="#AEBDC4" cx="33.02" cy="110.19" r="1.85"/>
			<circle fill="#AEBDC4" cx="37.34" cy="110.19" r="1.85"/>
			<circle fill="#AEBDC4" cx="41.66" cy="110.19" r="1.85"/>
			<circle fill="#AEBDC4" cx="45.98" cy="110.19" r="1.85"/>
			<circle fill="#AEBDC4" cx="50.3" cy="110.19" r="1.85"/>
			<circle fill="#AEBDC4" cx="54.64" cy="110.19" r="1.85"/>
			<circle fill="#AEBDC4" cx="58.97" cy="110.19" r="1.85"/>
			<circle fill="#AEBDC4" cx="63.3" cy="110.19" r="1.85"/>
			<circle fill="#AEBDC4" cx="67.63" cy="110.19" r="1.85"/>
			<circle fill="#AEBDC4" cx="71.96" cy="110.19" r="1.85"/>
			<circle fill="#AEBDC4" cx="76.29" cy="110.19" r="1.85"/>
			<circle fill="#AEBDC4" cx="80.62" cy="110.19" r="1.85"/>
			<circle fill="#AEBDC4" cx="84.95" cy="110.19" r="1.85"/>
			<circle fill="#AEBDC4" cx="89.28" cy="110.19" r="1.85"/>
			<circle fill="#AEBDC4" cx="93.61" cy="110.19" r="1.85"/>
			<circle fill="#AEBDC4" cx="97.94" cy="110.19" r="1.85"/>
			<circle fill="#AEBDC4" cx="102.27" cy="110.19" r="1.85"/>
			<circle fill="#AEBDC4" cx="106.6" cy="110.19" r="1.85"/>
			<circle fill="#AEBDC4" cx="110.93" cy="110.19" r="1.85"/>
			<circle fill="#AEBDC4" cx="115.26" cy="110.19" r="1.85"/>
		</g>
		<g>
			<circle fill="#AEBDC4" cx="15.74" cy="104.26" r="1.85"/>
			<circle fill="#AEBDC4" cx="20.06" cy="104.26" r="1.85"/>
			<circle fill="#AEBDC4" cx="24.38" cy="104.26" r="1.85"/>
			<circle fill="#AEBDC4" cx="28.7" cy="104.26" r="1.85"/>
			<circle fill="#AEBDC4" cx="33.02" cy="104.26" r="1.85"/>
			<circle fill="#AEBDC4" cx="37.34" cy="104.26" r="1.85"/>
			<circle fill="#AEBDC4" cx="41.66" cy="104.26" r="1.85"/>
			<circle fill="#AEBDC4" cx="45.98" cy="104.26" r="1.85"/>
			<circle fill="#AEBDC4" cx="50.3" cy="104.26" r="1.85"/>
			<circle fill="#AEBDC4" cx="54.64" cy="104.26" r="1.85"/>
			<circle fill="#AEBDC4" cx="58.97" cy="104.26" r="1.85"/>
			<circle fill="#AEBDC4" cx="63.3" cy="104.26" r="1.85"/>
			<circle fill="#AEBDC4" cx="67.63" cy="104.26" r="1.85"/>
			<circle fill="#AEBDC4" cx="71.96" cy="104.26" r="1.85"/>
			<circle fill="#AEBDC4" cx="76.29" cy="104.26" r="1.85"/>
			<circle fill="#AEBDC4" cx="80.62" cy="104.26" r="1.85"/>
			<circle fill="#AEBDC4" cx="84.95" cy="104.26" r="1.85"/>
			<circle fill="#AEBDC4" cx="89.28" cy="104.26" r="1.85"/>
			<circle fill="#AEBDC4" cx="93.61" cy="104.26" r="1.85"/>
			<circle fill="#AEBDC4" cx="97.94" cy="104.26" r="1.85"/>
			<circle fill="#AEBDC4" cx="102.27" cy="104.26" r="1.85"/>
			<circle fill="#AEBDC4" cx="106.6" cy="104.26" r="1.85"/>
			<circle fill="#AEBDC4" cx="110.93" cy="104.26" r="1.85"/>
			<circle fill="#AEBDC4" cx="115.26" cy="104.26" r="1.85"/>
		</g>
		<g>
			<circle fill="#AEBDC4" cx="15.74" cy="98.33" r="1.85"/>
			<circle fill="#AEBDC4" cx="20.06" cy="98.33" r="1.85"/>
			<circle fill="#AEBDC4" cx="24.38" cy="98.33" r="1.85"/>
			<circle fill="#AEBDC4" cx="28.7" cy="98.33" r="1.85"/>
			<circle fill="#AEBDC4" cx="33.02" cy="98.33" r="1.85"/>
			<circle fill="#AEBDC4" cx="37.34" cy="98.33" r="1.85"/>
			<circle fill="#AEBDC4" cx="41.66" cy="98.33" r="1.85"/>
			<circle fill="#AEBDC4" cx="45.98" cy="98.33" r="1.85"/>
			<circle fill="#AEBDC4" cx="50.3" cy="98.33" r="1.85"/>
			<circle fill="#AEBDC4" cx="54.64" cy="98.33" r="1.85"/>
			<circle fill="#AEBDC4" cx="58.97" cy="98.33" r="1.85"/>
			<circle fill="#AEBDC4" cx="63.3" cy="98.33" r="1.85"/>
			<circle fill="#AEBDC4" cx="67.63" cy="98.33" r="1.85"/>
			<circle fill="#AEBDC4" cx="71.96" cy="98.33" r="1.85"/>
			<circle fill="#AEBDC4" cx="76.29" cy="98.33" r="1.85"/>
			<circle fill="#AEBDC4" cx="80.62" cy="98.33" r="1.85"/>
			<circle fill="#AEBDC4" cx="84.95" cy="98.33" r="1.85"/>
			<circle fill="#AEBDC4" cx="89.28" cy="98.33" r="1.85"/>
			<circle fill="#AEBDC4" cx="93.61" cy="98.33" r="1.85"/>
			<circle fill="#AEBDC4" cx="97.94" cy="98.33" r="1.85"/>
			<circle fill="#AEBDC4" cx="102.27" cy="98.33" r="1.85"/>
			<circle fill="#AEBDC4" cx="106.6" cy="98.33" r="1.85"/>
			<circle fill="#AEBDC4" cx="110.93" cy="98.33" r="1.85"/>
			<circle fill="#AEBDC4" cx="115.26" cy="98.33" r="1.85"/>
		</g>
		<g>
			<circle fill="#AEBDC4" cx="15.74" cy="92.4" r="1.85"/>
			<circle fill="#AEBDC4" cx="20.06" cy="92.4" r="1.85"/>
			<circle fill="#AEBDC4" cx="24.38" cy="92.4" r="1.85"/>
			<circle fill="#AEBDC4" cx="28.7" cy="92.4" r="1.85"/>
			<circle fill="#AEBDC4" cx="33.02" cy="92.4" r="1.85"/>
			<circle fill="#AEBDC4" cx="37.34" cy="92.4" r="1.85"/>
			<circle fill="#AEBDC4" cx="41.66" cy="92.4" r="1.85"/>
			<circle fill="#AEBDC4" cx="45.98" cy="92.4" r="1.85"/>
			<circle fill="#AEBDC4" cx="50.3" cy="92.4" r="1.85"/>
			<circle fill="#AEBDC4" cx="54.64" cy="92.4" r="1.85"/>
			<circle fill="#AEBDC4" cx="58.97" cy="92.4" r="1.85"/>
			<circle fill="#AEBDC4" cx="63.3" cy="92.4" r="1.85"/>
			<circle fill="#AEBDC4" cx="67.63" cy="92.4" r="1.85"/>
			<circle fill="#AEBDC4" cx="71.96" cy="92.4" r="1.85"/>
			<circle fill="#AEBDC4" cx="76.29" cy="92.4" r="1.85"/>
			<circle fill="#AEBDC4" cx="80.62" cy="92.4" r="1.85"/>
			<circle fill="#AEBDC4" cx="84.95" cy="92.4" r="1.85"/>
			<circle fill="#AEBDC4" cx="89.28" cy="92.4" r="1.85"/>
			<circle fill="#AEBDC4" cx="93.61" cy="92.4" r="1.85"/>
			<circle fill="#AEBDC4" cx="97.94" cy="92.4" r="1.85"/>
			<circle fill="#AEBDC4" cx="102.27" cy="92.4" r="1.85"/>
			<circle fill="#AEBDC4" cx="106.6" cy="92.4" r="1.85"/>
			<circle fill="#AEBDC4" cx="110.93" cy="92.4" r="1.85"/>
			<circle fill="#AEBDC4" cx="115.26" cy="92.4" r="1.85"/>
		</g>
		<g>
			<circle fill="#AEBDC4" cx="15.74" cy="86.47" r="1.85"/>
			<circle fill="#AEBDC4" cx="20.06" cy="86.47" r="1.85"/>
			<circle fill="#AEBDC4" cx="24.38" cy="86.47" r="1.85"/>
			<circle fill="#AEBDC4" cx="28.7" cy="86.47" r="1.85"/>
			<circle fill="#AEBDC4" cx="33.02" cy="86.47" r="1.85"/>
			<circle fill="#AEBDC4" cx="37.34" cy="86.47" r="1.85"/>
			<circle fill="#AEBDC4" cx="41.66" cy="86.47" r="1.85"/>
			<circle fill="#AEBDC4" cx="45.98" cy="86.47" r="1.85"/>
			<circle fill="#AEBDC4" cx="50.3" cy="86.47" r="1.85"/>
			<circle fill="#AEBDC4" cx="54.64" cy="86.47" r="1.85"/>
			<circle fill="#AEBDC4" cx="58.97" cy="86.47" r="1.85"/>
			<circle fill="#AEBDC4" cx="63.3" cy="86.47" r="1.85"/>
			<circle fill="#AEBDC4" cx="67.63" cy="86.47" r="1.85"/>
			<circle fill="#AEBDC4" cx="71.96" cy="86.47" r="1.85"/>
			<circle fill="#AEBDC4" cx="76.29" cy="86.47" r="1.85"/>
			<circle fill="#AEBDC4" cx="80.62" cy="86.47" r="1.85"/>
			<circle fill="#AEBDC4" cx="84.95" cy="86.47" r="1.85"/>
			<circle fill="#AEBDC4" cx="89.28" cy="86.47" r="1.85"/>
			<circle fill="#AEBDC4" cx="93.61" cy="86.47" r="1.85"/>
			<circle fill="#AEBDC4" cx="97.94" cy="86.47" r="1.85"/>
			<circle fill="#AEBDC4" cx="102.27" cy="86.47" r="1.85"/>
			<circle fill="#AEBDC4" cx="106.6" cy="86.47" r="1.85"/>
			<circle fill="#AEBDC4" cx="110.93" cy="86.47" r="1.85"/>
			<circle fill="#AEBDC4" cx="115.26" cy="86.47" r="1.85"/>
		</g>
		<g>
			<circle fill="#AEBDC4" cx="15.74" cy="80.54" r="1.85"/>
			<circle fill="#AEBDC4" cx="20.06" cy="80.54" r="1.85"/>
			<circle fill="#AEBDC4" cx="24.38" cy="80.54" r="1.85"/>
			<circle fill="#AEBDC4" cx="28.7" cy="80.54" r="1.85"/>
			<circle fill="#AEBDC4" cx="33.02" cy="80.54" r="1.85"/>
			<circle fill="#AEBDC4" cx="37.34" cy="80.54" r="1.85"/>
			<circle fill="#AEBDC4" cx="41.66" cy="80.54" r="1.85"/>
			<circle fill="#AEBDC4" cx="45.98" cy="80.54" r="1.85"/>
			<circle fill="#AEBDC4" cx="50.3" cy="80.54" r="1.85"/>
			<circle fill="#AEBDC4" cx="54.64" cy="80.54" r="1.85"/>
			<circle fill="#AEBDC4" cx="58.97" cy="80.54" r="1.85"/>
			<circle fill="#AEBDC4" cx="63.3" cy="80.54" r="1.85"/>
			<circle fill="#AEBDC4" cx="67.63" cy="80.54" r="1.85"/>
			<circle fill="#AEBDC4" cx="71.96" cy="80.54" r="1.85"/>
			<circle fill="#AEBDC4" cx="76.29" cy="80.54" r="1.85"/>
			<circle fill="#AEBDC4" cx="80.62" cy="80.54" r="1.85"/>
			<circle fill="#AEBDC4" cx="84.95" cy="80.54" r="1.85"/>
			<circle fill="#AEBDC4" cx="89.28" cy="80.54" r="1.85"/>
			<circle fill="#AEBDC4" cx="93.61" cy="80.54" r="1.85"/>
			<circle fill="#AEBDC4" cx="97.94" cy="80.54" r="1.85"/>
			<circle fill="#AEBDC4" cx="102.27" cy="80.54" r="1.85"/>
			<circle fill="#AEBDC4" cx="106.6" cy="80.54" r="1.85"/>
			<circle fill="#AEBDC4" cx="110.93" cy="80.54" r="1.85"/>
			<circle fill="#AEBDC4" cx="115.26" cy="80.54" r="1.85"/>
		</g>
		<g>
			<circle fill="#AEBDC4" cx="15.74" cy="74.61" r="1.85"/>
			<circle fill="#AEBDC4" cx="20.06" cy="74.61" r="1.85"/>
			<circle fill="#AEBDC4" cx="24.38" cy="74.61" r="1.85"/>
			<circle fill="#AEBDC4" cx="28.7" cy="74.61" r="1.85"/>
			<circle fill="#AEBDC4" cx="33.02" cy="74.61" r="1.85"/>
			<circle fill="#AEBDC4" cx="37.34" cy="74.61" r="1.85"/>
			<circle fill="#AEBDC4" cx="41.66" cy="74.61" r="1.85"/>
			<circle fill="#AEBDC4" cx="45.98" cy="74.61" r="1.85"/>
			<circle fill="#AEBDC4" cx="50.3" cy="74.61" r="1.85"/>
			<circle fill="#AEBDC4" cx="54.64" cy="74.61" r="1.85"/>
			<circle fill="#AEBDC4" cx="58.97" cy="74.61" r="1.85"/>
			<circle fill="#AEBDC4" cx="63.3" cy="74.61" r="1.85"/>
			<circle fill="#AEBDC4" cx="67.63" cy="74.61" r="1.85"/>
			<circle fill="#AEBDC4" cx="71.96" cy="74.61" r="1.85"/>
			<circle fill="#AEBDC4" cx="76.29" cy="74.61" r="1.85"/>
			<circle fill="#AEBDC4" cx="80.62" cy="74.61" r="1.85"/>
			<circle fill="#AEBDC4" cx="84.95" cy="74.61" r="1.85"/>
			<circle fill="#AEBDC4" cx="89.28" cy="74.61" r="1.85"/>
			<circle fill="#AEBDC4" cx="93.61" cy="74.61" r="1.85"/>
			<circle fill="#AEBDC4" cx="97.94" cy="74.61" r="1.85"/>
			<circle fill="#AEBDC4" cx="102.27" cy="74.61" r="1.85"/>
			<circle fill="#AEBDC4" cx="106.6" cy="74.61" r="1.85"/>
			<circle fill="#AEBDC4" cx="110.93" cy="74.61" r="1.85"/>
			<circle fill="#AEBDC4" cx="115.26" cy="74.61" r="1.85"/>
		</g>
		<g>
			<circle fill="#AEBDC4" cx="15.74" cy="68.68" r="1.85"/>
			<circle fill="#AEBDC4" cx="20.06" cy="68.68" r="1.85"/>
			<circle fill="#AEBDC4" cx="24.38" cy="68.68" r="1.85"/>
			<circle fill="#AEBDC4" cx="28.7" cy="68.68" r="1.85"/>
			<circle fill="#AEBDC4" cx="33.02" cy="68.68" r="1.85"/>
			<circle fill="#AEBDC4" cx="37.34" cy="68.68" r="1.85"/>
			<circle fill="#AEBDC4" cx="41.66" cy="68.68" r="1.85"/>
			<circle fill="#AEBDC4" cx="45.98" cy="68.68" r="1.85"/>
			<circle fill="#AEBDC4" cx="50.3" cy="68.68" r="1.85"/>
			<circle fill="#AEBDC4" cx="54.64" cy="68.68" r="1.85"/>
			<circle fill="#AEBDC4" cx="58.97" cy="68.68" r="1.85"/>
			<circle fill="#AEBDC4" cx="63.3" cy="68.68" r="1.85"/>
			<circle fill="#AEBDC4" cx="67.63" cy="68.68" r="1.85"/>
			<circle fill="#AEBDC4" cx="71.96" cy="68.68" r="1.85"/>
			<circle fill="#AEBDC4" cx="76.29" cy="68.68" r="1.85"/>
			<circle fill="#AEBDC4" cx="80.62" cy="68.68" r="1.85"/>
			<circle fill="#AEBDC4" cx="84.95" cy="68.68" r="1.85"/>
			<circle fill="#AEBDC4" cx="89.28" cy="68.68" r="1.85"/>
			<circle fill="#AEBDC4" cx="93.61" cy="68.68" r="1.85"/>
			<circle fill="#AEBDC4" cx="97.94" cy="68.68" r="1.85"/>
			<circle fill="#AEBDC4" cx="102.27" cy="68.68" r="1.85"/>
			<circle fill="#AEBDC4" cx="106.6" cy="68.68" r="1.85"/>
			<circle fill="#AEBDC4" cx="110.93" cy="68.68" r="1.85"/>
			<circle fill="#AEBDC4" cx="115.26" cy="68.68" r="1.85"/>
		</g>
		<g>
			<circle fill="#AEBDC4" cx="15.74" cy="62.74" r="1.85"/>
			<circle fill="#AEBDC4" cx="20.06" cy="62.74" r="1.85"/>
			<circle fill="#AEBDC4" cx="24.38" cy="62.74" r="1.85"/>
			<circle fill="#AEBDC4" cx="28.7" cy="62.74" r="1.85"/>
			<circle fill="#AEBDC4" cx="33.02" cy="62.74" r="1.85"/>
			<circle fill="#AEBDC4" cx="37.34" cy="62.74" r="1.85"/>
			<circle fill="#AEBDC4" cx="41.66" cy="62.74" r="1.85"/>
			<circle fill="#AEBDC4" cx="45.98" cy="62.74" r="1.85"/>
			<circle fill="#AEBDC4" cx="50.3" cy="62.74" r="1.85"/>
			<circle fill="#AEBDC4" cx="54.64" cy="62.74" r="1.85"/>
			<circle fill="#AEBDC4" cx="58.97" cy="62.74" r="1.85"/>
			<circle fill="#AEBDC4" cx="63.3" cy="62.74" r="1.85"/>
			<circle fill="#AEBDC4" cx="67.63" cy="62.74" r="1.85"/>
			<circle fill="#AEBDC4" cx="71.96" cy="62.74" r="1.85"/>
			<circle fill="#AEBDC4" cx="76.29" cy="62.74" r="1.85"/>
			<circle fill="#AEBDC4" cx="80.62" cy="62.74" r="1.85"/>
			<circle fill="#AEBDC4" cx="84.95" cy="62.74" r="1.85"/>
			<circle fill="#AEBDC4" cx="89.28" cy="62.74" r="1.85"/>
			<circle fill="#AEBDC4" cx="93.61" cy="62.74" r="1.85"/>
			<circle fill="#AEBDC4" cx="97.94" cy="62.74" r="1.85"/>
			<circle fill="#AEBDC4" cx="102.27" cy="62.74" r="1.85"/>
			<circle fill="#AEBDC4" cx="106.6" cy="62.74" r="1.85"/>
			<circle fill="#AEBDC4" cx="110.93" cy="62.74" r="1.85"/>
			<circle fill="#AEBDC4" cx="115.26" cy="62.74" r="1.85"/>
		</g>
		<g>
			<circle fill="#AEBDC4" cx="15.74" cy="56.81" r="1.85"/>
			<circle fill="#AEBDC4" cx="20.06" cy="56.81" r="1.85"/>
			<circle fill="#AEBDC4" cx="24.38" cy="56.81" r="1.85"/>
			<circle fill="#AEBDC4" cx="28.7" cy="56.81" r="1.85"/>
			<circle fill="#AEBDC4" cx="33.02" cy="56.81" r="1.85"/>
			<circle fill="#AEBDC4" cx="37.34" cy="56.81" r="1.85"/>
			<circle fill="#AEBDC4" cx="41.66" cy="56.81" r="1.85"/>
			<circle fill="#AEBDC4" cx="45.98" cy="56.81" r="1.85"/>
			<circle fill="#AEBDC4" cx="50.3" cy="56.81" r="1.85"/>
			<circle fill="#AEBDC4" cx="54.64" cy="56.81" r="1.85"/>
			<circle fill="#AEBDC4" cx="58.97" cy="56.81" r="1.85"/>
			<circle fill="#AEBDC4" cx="63.3" cy="56.81" r="1.85"/>
			<circle fill="#AEBDC4" cx="67.63" cy="56.81" r="1.85"/>
			<circle fill="#AEBDC4" cx="71.96" cy="56.81" r="1.85"/>
			<circle fill="#AEBDC4" cx="76.29" cy="56.81" r="1.85"/>
			<circle fill="#AEBDC4" cx="80.62" cy="56.81" r="1.85"/>
			<circle fill="#AEBDC4" cx="84.95" cy="56.81" r="1.85"/>
			<circle fill="#AEBDC4" cx="89.28" cy="56.81" r="1.85"/>
			<circle fill="#AEBDC4" cx="93.61" cy="56.81" r="1.85"/>
			<circle fill="#AEBDC4" cx="97.94" cy="56.81" r="1.85"/>
			<circle fill="#AEBDC4" cx="102.27" cy="56.81" r="1.85"/>
			<circle fill="#AEBDC4" cx="106.6" cy="56.81" r="1.85"/>
			<circle fill="#AEBDC4" cx="110.93" cy="56.81" r="1.85"/>
			<circle fill="#AEBDC4" cx="115.26" cy="56.81" r="1.85"/>
		</g>
		<g>
			<circle fill="#AEBDC4" cx="15.74" cy="50.88" r="1.85"/>
			<circle fill="#AEBDC4" cx="20.06" cy="50.88" r="1.85"/>
			<circle fill="#AEBDC4" cx="24.38" cy="50.88" r="1.85"/>
			<circle fill="#AEBDC4" cx="28.7" cy="50.88" r="1.85"/>
			<circle fill="#AEBDC4" cx="33.02" cy="50.88" r="1.85"/>
			<circle fill="#AEBDC4" cx="37.34" cy="50.88" r="1.85"/>
			<circle fill="#AEBDC4" cx="41.66" cy="50.88" r="1.85"/>
			<circle fill="#AEBDC4" cx="45.98" cy="50.88" r="1.85"/>
			<circle fill="#AEBDC4" cx="50.3" cy="50.88" r="1.85"/>
			<circle fill="#AEBDC4" cx="54.64" cy="50.88" r="1.85"/>
			<circle fill="#AEBDC4" cx="58.97" cy="50.88" r="1.85"/>
			<circle fill="#AEBDC4" cx="63.3" cy="50.88" r="1.85"/>
			<circle fill="#AEBDC4" cx="67.63" cy="50.88" r="1.85"/>
			<circle fill="#AEBDC4" cx="71.96" cy="50.88" r="1.85"/>
			<circle fill="#AEBDC4" cx="76.29" cy="50.88" r="1.85"/>
			<circle fill="#AEBDC4" cx="80.62" cy="50.88" r="1.85"/>
			<circle fill="#AEBDC4" cx="84.95" cy="50.88" r="1.85"/>
			<circle fill="#AEBDC4" cx="89.28" cy="50.88" r="1.85"/>
			<circle fill="#AEBDC4" cx="93.61" cy="50.88" r="1.85"/>
			<circle fill="#AEBDC4" cx="97.94" cy="50.88" r="1.85"/>
			<circle fill="#AEBDC4" cx="102.27" cy="50.88" r="1.85"/>
			<circle fill="#AEBDC4" cx="106.6" cy="50.88" r="1.85"/>
			<circle fill="#AEBDC4" cx="110.93" cy="50.88" r="1.85"/>
			<circle fill="#AEBDC4" cx="115.26" cy="50.88" r="1.85"/>
		</g>
		<g>
			<circle fill="#AEBDC4" cx="15.74" cy="44.95" r="1.85"/>
			<circle fill="#AEBDC4" cx="20.06" cy="44.95" r="1.85"/>
			<circle fill="#AEBDC4" cx="24.38" cy="44.95" r="1.85"/>
			<circle fill="#AEBDC4" cx="28.7" cy="44.95" r="1.85"/>
			<circle fill="#AEBDC4" cx="33.02" cy="44.95" r="1.85"/>
			<circle fill="#AEBDC4" cx="37.34" cy="44.95" r="1.85"/>
			<circle fill="#AEBDC4" cx="41.66" cy="44.95" r="1.85"/>
			<circle fill="#AEBDC4" cx="45.98" cy="44.95" r="1.85"/>
			<circle fill="#AEBDC4" cx="50.3" cy="44.95" r="1.85"/>
			<circle fill="#AEBDC4" cx="54.64" cy="44.95" r="1.85"/>
			<circle fill="#AEBDC4" cx="58.97" cy="44.95" r="1.85"/>
			<circle fill="#AEBDC4" cx="63.3" cy="44.95" r="1.85"/>
			<circle fill="#AEBDC4" cx="67.63" cy="44.95" r="1.85"/>
			<circle fill="#AEBDC4" cx="71.96" cy="44.95" r="1.85"/>
			<circle fill="#AEBDC4" cx="76.29" cy="44.95" r="1.85"/>
			<circle fill="#AEBDC4" cx="80.62" cy="44.95" r="1.85"/>
			<circle fill="#AEBDC4" cx="84.95" cy="44.95" r="1.85"/>
			<circle fill="#AEBDC4" cx="89.28" cy="44.95" r="1.85"/>
			<circle fill="#AEBDC4" cx="93.61" cy="44.95" r="1.85"/>
			<circle fill="#AEBDC4" cx="97.94" cy="44.95" r="1.85"/>
			<circle fill="#AEBDC4" cx="102.27" cy="44.95" r="1.85"/>
			<circle fill="#AEBDC4" cx="106.6" cy="44.95" r="1.85"/>
			<circle fill="#AEBDC4" cx="110.93" cy="44.95" r="1.85"/>
			<circle fill="#AEBDC4" cx="115.26" cy="44.95" r="1.85"/>
		</g>
		<g>
			<circle fill="#AEBDC4" cx="15.74" cy="39.02" r="1.85"/>
			<circle fill="#AEBDC4" cx="20.06" cy="39.02" r="1.85"/>
			<circle fill="#AEBDC4" cx="24.38" cy="39.02" r="1.85"/>
			<circle fill="#AEBDC4" cx="28.7" cy="39.02" r="1.85"/>
			<circle fill="#AEBDC4" cx="33.02" cy="39.02" r="1.85"/>
			<circle fill="#AEBDC4" cx="37.34" cy="39.02" r="1.85"/>
			<circle fill="#AEBDC4" cx="41.66" cy="39.02" r="1.85"/>
			<circle fill="#AEBDC4" cx="45.98" cy="39.02" r="1.85"/>
			<circle fill="#AEBDC4" cx="50.3" cy="39.02" r="1.85"/>
			<circle fill="#AEBDC4" cx="54.64" cy="39.02" r="1.85"/>
			<circle fill="#AEBDC4" cx="58.97" cy="39.02" r="1.85"/>
			<circle fill="#AEBDC4" cx="63.3" cy="39.02" r="1.85"/>
			<circle fill="#AEBDC4" cx="67.63" cy="39.02" r="1.85"/>
			<circle fill="#AEBDC4" cx="71.96" cy="39.02" r="1.85"/>
			<circle fill="#AEBDC4" cx="76.29" cy="39.02" r="1.85"/>
			<circle fill="#AEBDC4" cx="80.62" cy="39.02" r="1.85"/>
			<circle fill="#AEBDC4" cx="84.95" cy="39.02" r="1.85"/>
			<circle fill="#AEBDC4" cx="89.28" cy="39.02" r="1.85"/>
			<circle fill="#AEBDC4" cx="93.61" cy="39.02" r="1.85"/>
			<circle fill="#AEBDC4" cx="97.94" cy="39.02" r="1.85"/>
			<circle fill="#AEBDC4" cx="102.27" cy="39.02" r="1.85"/>
			<circle fill="#AEBDC4" cx="106.6" cy="39.02" r="1.85"/>
			<circle fill="#AEBDC4" cx="110.93" cy="39.02" r="1.85"/>
			<circle fill="#AEBDC4" cx="115.26" cy="39.02" r="1.85"/>
		</g>
		<g>
			<circle fill="#AEBDC4" cx="15.74" cy="33.09" r="1.85"/>
			<circle fill="#AEBDC4" cx="20.06" cy="33.09" r="1.85"/>
			<circle fill="#AEBDC4" cx="24.38" cy="33.09" r="1.85"/>
			<circle fill="#AEBDC4" cx="28.7" cy="33.09" r="1.85"/>
			<circle fill="#AEBDC4" cx="33.02" cy="33.09" r="1.85"/>
			<circle fill="#AEBDC4" cx="37.34" cy="33.09" r="1.85"/>
			<circle fill="#AEBDC4" cx="41.66" cy="33.09" r="1.85"/>
			<circle fill="#AEBDC4" cx="45.98" cy="33.09" r="1.85"/>
			<circle fill="#AEBDC4" cx="50.3" cy="33.09" r="1.85"/>
			<circle fill="#AEBDC4" cx="54.64" cy="33.09" r="1.85"/>
			<circle fill="#AEBDC4" cx="58.97" cy="33.09" r="1.85"/>
			<circle fill="#AEBDC4" cx="63.3" cy="33.09" r="1.85"/>
			<circle fill="#AEBDC4" cx="67.63" cy="33.09" r="1.85"/>
			<circle fill="#AEBDC4" cx="71.96" cy="33.09" r="1.85"/>
			<circle fill="#AEBDC4" cx="76.29" cy="33.09" r="1.85"/>
			<circle fill="#AEBDC4" cx="80.62" cy="33.09" r="1.85"/>
			<circle fill="#AEBDC4" cx="84.95" cy="33.09" r="1.85"/>
			<circle fill="#AEBDC4" cx="89.28" cy="33.09" r="1.85"/>
			<circle fill="#AEBDC4" cx="93.61" cy="33.09" r="1.85"/>
			<circle fill="#AEBDC4" cx="97.94" cy="33.09" r="1.85"/>
			<circle fill="#AEBDC4" cx="102.27" cy="33.09" r="1.85"/>
			<circle fill="#AEBDC4" cx="106.6" cy="33.09" r="1.85"/>
			<circle fill="#AEBDC4" cx="110.93" cy="33.09" r="1.85"/>
			<circle fill="#AEBDC4" cx="115.26" cy="33.09" r="1.85"/>
		</g>
		<g>
			<circle fill="#AEBDC4" cx="15.74" cy="27.16" r="1.85"/>
			<circle fill="#AEBDC4" cx="20.06" cy="27.16" r="1.85"/>
			<circle fill="#AEBDC4" cx="24.38" cy="27.16" r="1.85"/>
			<circle fill="#AEBDC4" cx="28.7" cy="27.16" r="1.85"/>
			<circle fill="#AEBDC4" cx="33.02" cy="27.16" r="1.85"/>
			<circle fill="#AEBDC4" cx="37.34" cy="27.16" r="1.85"/>
			<circle fill="#AEBDC4" cx="41.66" cy="27.16" r="1.85"/>
			<circle fill="#AEBDC4" cx="45.98" cy="27.16" r="1.85"/>
			<circle fill="#AEBDC4" cx="50.3" cy="27.16" r="1.85"/>
			<circle fill="#AEBDC4" cx="54.64" cy="27.16" r="1.85"/>
			<circle fill="#AEBDC4" cx="58.97" cy="27.16" r="1.85"/>
			<circle fill="#AEBDC4" cx="63.3" cy="27.16" r="1.85"/>
			<circle fill="#AEBDC4" cx="67.63" cy="27.16" r="1.85"/>
			<circle fill="#AEBDC4" cx="71.96" cy="27.16" r="1.85"/>
			<circle fill="#AEBDC4" cx="76.29" cy="27.16" r="1.85"/>
			<circle fill="#AEBDC4" cx="80.62" cy="27.16" r="1.85"/>
			<circle fill="#AEBDC4" cx="84.95" cy="27.16" r="1.85"/>
			<circle fill="#AEBDC4" cx="89.28" cy="27.16" r="1.85"/>
			<circle fill="#AEBDC4" cx="93.61" cy="27.16" r="1.85"/>
			<circle fill="#AEBDC4" cx="97.94" cy="27.16" r="1.85"/>
			<circle fill="#AEBDC4" cx="102.27" cy="27.16" r="1.85"/>
			<circle fill="#AEBDC4" cx="106.6" cy="27.16" r="1.85"/>
			<circle fill="#AEBDC4" cx="110.93" cy="27.16" r="1.85"/>
			<circle fill="#AEBDC4" cx="115.26" cy="27.16" r="1.85"/>
		</g>
		<g>
			<circle fill="#AEBDC4" cx="15.74" cy="21.23" r="1.85"/>
			<circle fill="#AEBDC4" cx="20.06" cy="21.23" r="1.85"/>
			<circle fill="#AEBDC4" cx="24.38" cy="21.23" r="1.85"/>
			<circle fill="#AEBDC4" cx="28.7" cy="21.23" r="1.85"/>
			<circle fill="#AEBDC4" cx="33.02" cy="21.23" r="1.85"/>
			<circle fill="#AEBDC4" cx="37.34" cy="21.23" r="1.85"/>
			<circle fill="#AEBDC4" cx="41.66" cy="21.23" r="1.85"/>
			<circle fill="#AEBDC4" cx="45.98" cy="21.23" r="1.85"/>
			<circle fill="#AEBDC4" cx="50.3" cy="21.23" r="1.85"/>
			<circle fill="#AEBDC4" cx="54.64" cy="21.23" r="1.85"/>
			<circle fill="#AEBDC4" cx="58.97" cy="21.23" r="1.85"/>
			<circle fill="#AEBDC4" cx="63.3" cy="21.23" r="1.85"/>
			<circle fill="#AEBDC4" cx="67.63" cy="21.23" r="1.85"/>
			<circle fill="#AEBDC4" cx="71.96" cy="21.23" r="1.85"/>
			<circle fill="#AEBDC4" cx="76.29" cy="21.23" r="1.85"/>
			<circle fill="#AEBDC4" cx="80.62" cy="21.23" r="1.85"/>
			<circle fill="#AEBDC4" cx="84.95" cy="21.23" r="1.85"/>
			<circle fill="#AEBDC4" cx="89.28" cy="21.23" r="1.85"/>
			<circle fill="#AEBDC4" cx="93.61" cy="21.23" r="1.85"/>
			<circle fill="#AEBDC4" cx="97.94" cy="21.23" r="1.85"/>
			<circle fill="#AEBDC4" cx="102.27" cy="21.23" r="1.85"/>
			<circle fill="#AEBDC4" cx="106.6" cy="21.23" r="1.85"/>
			<circle fill="#AEBDC4" cx="110.93" cy="21.23" r="1.85"/>
			<circle fill="#AEBDC4" cx="115.26" cy="21.23" r="1.85"/>
		</g>
	</g>
	<g onclick="this.parentNode.a_text=this;">
		<text transform="matrix(0.9999 0 0 1 61.0596 66.9784)"><tspan x="0" y="0" font-family="'OpenSans-Semibold'" font-size="6.3996px">E 3</tspan><tspan x="-3.72" y="7.2" font-family="'OpenSans-Semibold'" font-size="6.3996px">(</tspan><tspan x="-1.68" y="7.2" font-family="'OpenSans-Semibold'" font-size="6.3996px">н</tspan><tspan x="2.67" y="7.2" font-family="'OpenSans-Semibold'" font-size="6.3996px">и</tspan><tspan x="7.23" y="7.2" font-family="'OpenSans-Semibold'" font-size="6.3996px">з</tspan><tspan x="10.58" y="7.2" font-family="'OpenSans-Semibold'" font-size="6.3996px">)</tspan></text>
	</g>
</g>
</svg>
