<?xml version="1.0" encoding="utf-8"?>
<!-- Generator: Adobe Illustrator 23.0.1, SVG Export Plug-In . SVG Version: 6.00 Build 0)  -->
<svg version="1.1" id="Layer_1" xmlns="http://www.w3.org/2000/svg" xmlns:xlink="http://www.w3.org/1999/xlink" x="0px" y="0px"
	 viewBox="0 0 131 202" style="enable-background:new 0 0 131 202;" xml:space="preserve">
<style type="text/css">
	.st0{fill:#F1F3F4;stroke:#BCC8CE;stroke-width:0.4;stroke-linecap:round;stroke-miterlimit:10;}
	.st1{fill:#AEBDC4;}
	.st2{font-family:'Roboto-Medium';}
	.st3{font-size:3px;}
</style>
<polygon class="st0" points="0.5,174.4 0.5,0.4 130.5,0.4 130.5,201.6 "/>
 <g 
  data-sort-seat-direction="rtl" 
  data-sort-line-direction="ttb" 
  data-sort-seat-option="cx" 
  data-sort-line-option="cy" 
  data-line-start="28">
	<g>
		<circle class="st1" cx="98" cy="181.4" r="1.9"/>
		<circle class="st1" cx="102.3" cy="181.4" r="1.9"/>
		<circle class="st1" cx="106.6" cy="181.4" r="1.9"/>
		<circle class="st1" cx="110.9" cy="181.4" r="1.9"/>
		<circle class="st1" cx="115.3" cy="181.4" r="1.9"/>
		<circle class="st1" cx="119.6" cy="181.4" r="1.9"/>
		<text transform="matrix(1 0 0 1 122.7007 182.4928)" class="st1 st2 st3">00</text>
		<text transform="matrix(1 0 0 1 91.4907 182.4928)" class="st1 st2 st3">00</text>
	</g>
	<g>
		<circle class="st1" cx="67.7" cy="175.5" r="1.9"/>
		<circle class="st1" cx="72" cy="175.5" r="1.9"/>
		<circle class="st1" cx="76.3" cy="175.5" r="1.9"/>
		<circle class="st1" cx="80.7" cy="175.5" r="1.9"/>
		<circle class="st1" cx="85" cy="175.5" r="1.9"/>
		<circle class="st1" cx="89.3" cy="175.5" r="1.9"/>
		<circle class="st1" cx="93.6" cy="175.5" r="1.9"/>
		<circle class="st1" cx="97.9" cy="175.5" r="1.9"/>
		<circle class="st1" cx="102.3" cy="175.5" r="1.9"/>
		<circle class="st1" cx="106.6" cy="175.5" r="1.9"/>
		<circle class="st1" cx="110.9" cy="175.5" r="1.9"/>
		<circle class="st1" cx="115.3" cy="175.5" r="1.9"/>
		<circle class="st1" cx="119.6" cy="175.5" r="1.9"/>
		<text transform="matrix(1 0 0 1 122.7007 176.5627)" class="st1 st2 st3">00</text>
		<text transform="matrix(1 0 0 1 61.2007 176.5627)" class="st1 st2 st3">00</text>
	</g>
	<g>
		<circle class="st1" cx="37.4" cy="169.6" r="1.9"/>
		<circle class="st1" cx="41.7" cy="169.6" r="1.9"/>
		<circle class="st1" cx="46" cy="169.6" r="1.9"/>
		<circle class="st1" cx="50.3" cy="169.6" r="1.9"/>
		<circle class="st1" cx="54.7" cy="169.6" r="1.9"/>
		<circle class="st1" cx="59" cy="169.6" r="1.9"/>
		<circle class="st1" cx="63.3" cy="169.6" r="1.9"/>
		<circle class="st1" cx="67.6" cy="169.6" r="1.9"/>
		<circle class="st1" cx="72" cy="169.6" r="1.9"/>
		<circle class="st1" cx="76.3" cy="169.6" r="1.9"/>
		<circle class="st1" cx="80.6" cy="169.6" r="1.9"/>
		<circle class="st1" cx="84.9" cy="169.6" r="1.9"/>
		<circle class="st1" cx="89.3" cy="169.6" r="1.9"/>
		<circle class="st1" cx="93.6" cy="169.6" r="1.9"/>
		<circle class="st1" cx="97.9" cy="169.6" r="1.9"/>
		<circle class="st1" cx="102.3" cy="169.6" r="1.9"/>
		<circle class="st1" cx="106.6" cy="169.6" r="1.9"/>
		<circle class="st1" cx="110.9" cy="169.6" r="1.9"/>
		<circle class="st1" cx="115.3" cy="169.6" r="1.9"/>
		<circle class="st1" cx="119.6" cy="169.6" r="1.9"/>
		<text transform="matrix(1 0 0 1 122.7007 170.6327)" class="st1 st2 st3">00</text>
		<text transform="matrix(1 0 0 1 30.8906 170.6327)" class="st1 st2 st3">00</text>
	</g>
	<g>
		<circle class="st1" cx="20.1" cy="163.6" r="1.9"/>
		<circle class="st1" cx="24.4" cy="163.6" r="1.9"/>
		<circle class="st1" cx="28.7" cy="163.6" r="1.9"/>
		<circle class="st1" cx="33" cy="163.6" r="1.9"/>
		<circle class="st1" cx="37.3" cy="163.6" r="1.9"/>
		<circle class="st1" cx="41.7" cy="163.6" r="1.9"/>
		<circle class="st1" cx="46" cy="163.6" r="1.9"/>
		<circle class="st1" cx="50.3" cy="163.6" r="1.9"/>
		<circle class="st1" cx="54.6" cy="163.6" r="1.9"/>
		<circle class="st1" cx="59" cy="163.6" r="1.9"/>
		<circle class="st1" cx="63.3" cy="163.6" r="1.9"/>
		<circle class="st1" cx="67.6" cy="163.6" r="1.9"/>
		<circle class="st1" cx="72" cy="163.6" r="1.9"/>
		<circle class="st1" cx="76.3" cy="163.6" r="1.9"/>
		<circle class="st1" cx="80.6" cy="163.6" r="1.9"/>
		<circle class="st1" cx="84.9" cy="163.6" r="1.9"/>
		<circle class="st1" cx="89.3" cy="163.6" r="1.9"/>
		<circle class="st1" cx="93.6" cy="163.6" r="1.9"/>
		<circle class="st1" cx="97.9" cy="163.6" r="1.9"/>
		<circle class="st1" cx="102.3" cy="163.6" r="1.9"/>
		<circle class="st1" cx="106.6" cy="163.6" r="1.9"/>
		<circle class="st1" cx="110.9" cy="163.6" r="1.9"/>
		<circle class="st1" cx="115.3" cy="163.6" r="1.9"/>
		<circle class="st1" cx="119.6" cy="163.6" r="1.9"/>
		<text transform="matrix(1 0 0 1 122.7007 164.7026)" class="st1 st2 st3">00</text>
		<text transform="matrix(1 0 0 1 13.5507 164.7026)" class="st1 st2 st3">00</text>
	</g>
	<g>
		<circle class="st1" cx="11.4" cy="157.7" r="1.9"/>
		<circle class="st1" cx="15.7" cy="157.7" r="1.9"/>
		<circle class="st1" cx="20" cy="157.7" r="1.9"/>
		<circle class="st1" cx="24.4" cy="157.7" r="1.9"/>
		<circle class="st1" cx="28.7" cy="157.7" r="1.9"/>
		<circle class="st1" cx="33" cy="157.7" r="1.9"/>
		<circle class="st1" cx="37.3" cy="157.7" r="1.9"/>
		<circle class="st1" cx="41.7" cy="157.7" r="1.9"/>
		<circle class="st1" cx="46" cy="157.7" r="1.9"/>
		<circle class="st1" cx="50.3" cy="157.7" r="1.9"/>
		<circle class="st1" cx="54.6" cy="157.7" r="1.9"/>
		<circle class="st1" cx="59" cy="157.7" r="1.9"/>
		<circle class="st1" cx="63.3" cy="157.7" r="1.9"/>
		<circle class="st1" cx="67.6" cy="157.7" r="1.9"/>
		<circle class="st1" cx="72" cy="157.7" r="1.9"/>
		<circle class="st1" cx="76.3" cy="157.7" r="1.9"/>
		<circle class="st1" cx="80.6" cy="157.7" r="1.9"/>
		<circle class="st1" cx="84.9" cy="157.7" r="1.9"/>
		<circle class="st1" cx="89.3" cy="157.7" r="1.9"/>
		<circle class="st1" cx="93.6" cy="157.7" r="1.9"/>
		<circle class="st1" cx="97.9" cy="157.7" r="1.9"/>
		<circle class="st1" cx="102.3" cy="157.7" r="1.9"/>
		<circle class="st1" cx="106.6" cy="157.7" r="1.9"/>
		<circle class="st1" cx="110.9" cy="157.7" r="1.9"/>
		<circle class="st1" cx="115.3" cy="157.7" r="1.9"/>
		<circle class="st1" cx="119.6" cy="157.7" r="1.9"/>
		<text transform="matrix(1 0 0 1 122.7007 158.7726)" class="st1 st2 st3">00</text>
		<text transform="matrix(1 0 0 1 4.9006 158.7726)" class="st1 st2 st3">00</text>
	</g>
	<g>
		<circle class="st1" cx="11.4" cy="151.8" r="1.9"/>
		<circle class="st1" cx="15.7" cy="151.8" r="1.9"/>
		<circle class="st1" cx="20" cy="151.8" r="1.9"/>
		<circle class="st1" cx="24.4" cy="151.8" r="1.9"/>
		<circle class="st1" cx="28.7" cy="151.8" r="1.9"/>
		<circle class="st1" cx="33" cy="151.8" r="1.9"/>
		<circle class="st1" cx="37.3" cy="151.8" r="1.9"/>
		<circle class="st1" cx="41.7" cy="151.8" r="1.9"/>
		<circle class="st1" cx="46" cy="151.8" r="1.9"/>
		<circle class="st1" cx="50.3" cy="151.8" r="1.9"/>
		<circle class="st1" cx="54.6" cy="151.8" r="1.9"/>
		<circle class="st1" cx="59" cy="151.8" r="1.9"/>
		<circle class="st1" cx="63.3" cy="151.8" r="1.9"/>
		<circle class="st1" cx="67.6" cy="151.8" r="1.9"/>
		<circle class="st1" cx="72" cy="151.8" r="1.9"/>
		<circle class="st1" cx="76.3" cy="151.8" r="1.9"/>
		<circle class="st1" cx="80.6" cy="151.8" r="1.9"/>
		<circle class="st1" cx="84.9" cy="151.8" r="1.9"/>
		<circle class="st1" cx="89.3" cy="151.8" r="1.9"/>
		<circle class="st1" cx="93.6" cy="151.8" r="1.9"/>
		<circle class="st1" cx="97.9" cy="151.8" r="1.9"/>
		<circle class="st1" cx="102.3" cy="151.8" r="1.9"/>
		<circle class="st1" cx="106.6" cy="151.8" r="1.9"/>
		<circle class="st1" cx="110.9" cy="151.8" r="1.9"/>
		<circle class="st1" cx="115.3" cy="151.8" r="1.9"/>
		<circle class="st1" cx="119.6" cy="151.8" r="1.9"/>
		<text transform="matrix(1 0 0 1 122.7007 152.8425)" class="st1 st2 st3">00</text>
		<text transform="matrix(1 0 0 1 4.9006 152.8425)" class="st1 st2 st3">00</text>
	</g>
	<g>
		<circle class="st1" cx="11.4" cy="145.9" r="1.9"/>
		<circle class="st1" cx="15.7" cy="145.9" r="1.9"/>
		<circle class="st1" cx="20" cy="145.9" r="1.9"/>
		<circle class="st1" cx="24.4" cy="145.9" r="1.9"/>
		<circle class="st1" cx="28.7" cy="145.9" r="1.9"/>
		<circle class="st1" cx="33" cy="145.9" r="1.9"/>
		<circle class="st1" cx="37.3" cy="145.9" r="1.9"/>
		<circle class="st1" cx="41.7" cy="145.9" r="1.9"/>
		<circle class="st1" cx="46" cy="145.9" r="1.9"/>
		<circle class="st1" cx="50.3" cy="145.9" r="1.9"/>
		<circle class="st1" cx="54.6" cy="145.9" r="1.9"/>
		<circle class="st1" cx="59" cy="145.9" r="1.9"/>
		<circle class="st1" cx="63.3" cy="145.9" r="1.9"/>
		<circle class="st1" cx="67.6" cy="145.9" r="1.9"/>
		<circle class="st1" cx="72" cy="145.9" r="1.9"/>
		<circle class="st1" cx="76.3" cy="145.9" r="1.9"/>
		<circle class="st1" cx="80.6" cy="145.9" r="1.9"/>
		<circle class="st1" cx="84.9" cy="145.9" r="1.9"/>
		<circle class="st1" cx="89.3" cy="145.9" r="1.9"/>
		<circle class="st1" cx="93.6" cy="145.9" r="1.9"/>
		<circle class="st1" cx="97.9" cy="145.9" r="1.9"/>
		<circle class="st1" cx="102.3" cy="145.9" r="1.9"/>
		<circle class="st1" cx="106.6" cy="145.9" r="1.9"/>
		<circle class="st1" cx="110.9" cy="145.9" r="1.9"/>
		<circle class="st1" cx="115.3" cy="145.9" r="1.9"/>
		<circle class="st1" cx="119.6" cy="145.9" r="1.9"/>
		<text transform="matrix(1 0 0 1 122.7007 146.9125)" class="st1 st2 st3">00</text>
		<text transform="matrix(1 0 0 1 4.9006 146.9125)" class="st1 st2 st3">00</text>
	</g>
	<g>
		<circle class="st1" cx="11.4" cy="139.9" r="1.9"/>
		<circle class="st1" cx="15.7" cy="139.9" r="1.9"/>
		<circle class="st1" cx="20" cy="139.9" r="1.9"/>
		<circle class="st1" cx="24.4" cy="139.9" r="1.9"/>
		<circle class="st1" cx="28.7" cy="139.9" r="1.9"/>
		<circle class="st1" cx="33" cy="139.9" r="1.9"/>
		<circle class="st1" cx="37.3" cy="139.9" r="1.9"/>
		<circle class="st1" cx="41.7" cy="139.9" r="1.9"/>
		<circle class="st1" cx="46" cy="139.9" r="1.9"/>
		<circle class="st1" cx="50.3" cy="139.9" r="1.9"/>
		<circle class="st1" cx="54.6" cy="139.9" r="1.9"/>
		<circle class="st1" cx="59" cy="139.9" r="1.9"/>
		<circle class="st1" cx="63.3" cy="139.9" r="1.9"/>
		<circle class="st1" cx="67.6" cy="139.9" r="1.9"/>
		<circle class="st1" cx="72" cy="139.9" r="1.9"/>
		<circle class="st1" cx="76.3" cy="139.9" r="1.9"/>
		<circle class="st1" cx="80.6" cy="139.9" r="1.9"/>
		<circle class="st1" cx="84.9" cy="139.9" r="1.9"/>
		<circle class="st1" cx="89.3" cy="139.9" r="1.9"/>
		<circle class="st1" cx="93.6" cy="139.9" r="1.9"/>
		<circle class="st1" cx="97.9" cy="139.9" r="1.9"/>
		<circle class="st1" cx="102.3" cy="139.9" r="1.9"/>
		<circle class="st1" cx="106.6" cy="139.9" r="1.9"/>
		<circle class="st1" cx="110.9" cy="139.9" r="1.9"/>
		<circle class="st1" cx="115.3" cy="139.9" r="1.9"/>
		<circle class="st1" cx="119.6" cy="139.9" r="1.9"/>
		<text transform="matrix(1 0 0 1 122.7007 140.9824)" class="st1 st2 st3">00</text>
		<text transform="matrix(1 0 0 1 4.9006 140.9824)" class="st1 st2 st3">00</text>
	</g>
	<g>
		<circle class="st1" cx="11.4" cy="134" r="1.9"/>
		<circle class="st1" cx="15.7" cy="134" r="1.9"/>
		<circle class="st1" cx="20" cy="134" r="1.9"/>
		<circle class="st1" cx="24.4" cy="134" r="1.9"/>
		<circle class="st1" cx="28.7" cy="134" r="1.9"/>
		<circle class="st1" cx="33" cy="134" r="1.9"/>
		<circle class="st1" cx="37.3" cy="134" r="1.9"/>
		<circle class="st1" cx="41.7" cy="134" r="1.9"/>
		<circle class="st1" cx="46" cy="134" r="1.9"/>
		<circle class="st1" cx="50.3" cy="134" r="1.9"/>
		<circle class="st1" cx="54.6" cy="134" r="1.9"/>
		<circle class="st1" cx="59" cy="134" r="1.9"/>
		<circle class="st1" cx="63.3" cy="134" r="1.9"/>
		<circle class="st1" cx="67.6" cy="134" r="1.9"/>
		<circle class="st1" cx="72" cy="134" r="1.9"/>
		<circle class="st1" cx="76.3" cy="134" r="1.9"/>
		<circle class="st1" cx="80.6" cy="134" r="1.9"/>
		<circle class="st1" cx="84.9" cy="134" r="1.9"/>
		<circle class="st1" cx="89.3" cy="134" r="1.9"/>
		<circle class="st1" cx="93.6" cy="134" r="1.9"/>
		<circle class="st1" cx="97.9" cy="134" r="1.9"/>
		<circle class="st1" cx="102.3" cy="134" r="1.9"/>
		<circle class="st1" cx="106.6" cy="134" r="1.9"/>
		<circle class="st1" cx="110.9" cy="134" r="1.9"/>
		<circle class="st1" cx="115.3" cy="134" r="1.9"/>
		<circle class="st1" cx="119.6" cy="134" r="1.9"/>
		<text transform="matrix(1 0 0 1 122.7007 135.0524)" class="st1 st2 st3">00</text>
		<text transform="matrix(1 0 0 1 4.9006 135.0524)" class="st1 st2 st3">00</text>
	</g>
	<g>
		<circle class="st1" cx="11.4" cy="128.1" r="1.9"/>
		<circle class="st1" cx="15.7" cy="128.1" r="1.9"/>
		<circle class="st1" cx="20" cy="128.1" r="1.9"/>
		<circle class="st1" cx="24.4" cy="128.1" r="1.9"/>
		<circle class="st1" cx="28.7" cy="128.1" r="1.9"/>
		<circle class="st1" cx="33" cy="128.1" r="1.9"/>
		<circle class="st1" cx="37.3" cy="128.1" r="1.9"/>
		<circle class="st1" cx="41.7" cy="128.1" r="1.9"/>
		<circle class="st1" cx="46" cy="128.1" r="1.9"/>
		<circle class="st1" cx="50.3" cy="128.1" r="1.9"/>
		<circle class="st1" cx="54.6" cy="128.1" r="1.9"/>
		<circle class="st1" cx="59" cy="128.1" r="1.9"/>
		<circle class="st1" cx="63.3" cy="128.1" r="1.9"/>
		<circle class="st1" cx="67.6" cy="128.1" r="1.9"/>
		<circle class="st1" cx="72" cy="128.1" r="1.9"/>
		<circle class="st1" cx="76.3" cy="128.1" r="1.9"/>
		<circle class="st1" cx="80.6" cy="128.1" r="1.9"/>
		<circle class="st1" cx="84.9" cy="128.1" r="1.9"/>
		<circle class="st1" cx="89.3" cy="128.1" r="1.9"/>
		<circle class="st1" cx="93.6" cy="128.1" r="1.9"/>
		<circle class="st1" cx="97.9" cy="128.1" r="1.9"/>
		<circle class="st1" cx="102.3" cy="128.1" r="1.9"/>
		<circle class="st1" cx="106.6" cy="128.1" r="1.9"/>
		<circle class="st1" cx="110.9" cy="128.1" r="1.9"/>
		<circle class="st1" cx="115.3" cy="128.1" r="1.9"/>
		<circle class="st1" cx="119.6" cy="128.1" r="1.9"/>
		<text transform="matrix(1 0 0 1 122.7007 129.1223)" class="st1 st2 st3">00</text>
		<text transform="matrix(1 0 0 1 4.9006 129.1223)" class="st1 st2 st3">00</text>
	</g>
	<g>
		<circle class="st1" cx="11.4" cy="122.1" r="1.8"/>
		<circle class="st1" cx="15.7" cy="122.1" r="1.8"/>
		<circle class="st1" cx="20" cy="122.1" r="1.8"/>
		<circle class="st1" cx="24.4" cy="122.1" r="1.8"/>
		<circle class="st1" cx="28.7" cy="122.1" r="1.8"/>
		<circle class="st1" cx="33" cy="122.1" r="1.8"/>
		<circle class="st1" cx="37.3" cy="122.1" r="1.8"/>
		<circle class="st1" cx="41.7" cy="122.1" r="1.8"/>
		<circle class="st1" cx="46" cy="122.1" r="1.8"/>
		<circle class="st1" cx="50.3" cy="122.1" r="1.8"/>
		<circle class="st1" cx="54.6" cy="122.1" r="1.8"/>
		<circle class="st1" cx="59" cy="122.1" r="1.8"/>
		<circle class="st1" cx="63.3" cy="122.1" r="1.8"/>
		<circle class="st1" cx="67.6" cy="122.1" r="1.8"/>
		<circle class="st1" cx="72" cy="122.1" r="1.8"/>
		<circle class="st1" cx="76.3" cy="122.1" r="1.8"/>
		<circle class="st1" cx="80.6" cy="122.1" r="1.8"/>
		<circle class="st1" cx="84.9" cy="122.1" r="1.8"/>
		<circle class="st1" cx="89.3" cy="122.1" r="1.8"/>
		<circle class="st1" cx="93.6" cy="122.1" r="1.8"/>
		<circle class="st1" cx="97.9" cy="122.1" r="1.8"/>
		<circle class="st1" cx="102.3" cy="122.1" r="1.8"/>
		<circle class="st1" cx="106.6" cy="122.1" r="1.8"/>
		<circle class="st1" cx="110.9" cy="122.1" r="1.8"/>
		<circle class="st1" cx="115.3" cy="122.1" r="1.8"/>
		<circle class="st1" cx="119.6" cy="122.1" r="1.8"/>
		<text transform="matrix(1 0 0 1 122.7007 123.1923)" class="st1 st2 st3">00</text>
		<text transform="matrix(1 0 0 1 4.9006 123.1923)" class="st1 st2 st3">00</text>
	</g>
	<g>
		<circle class="st1" cx="11.4" cy="116.1" r="1.8"/>
		<circle class="st1" cx="15.7" cy="116.1" r="1.8"/>
		<circle class="st1" cx="20" cy="116.1" r="1.8"/>
		<circle class="st1" cx="24.4" cy="116.1" r="1.8"/>
		<circle class="st1" cx="28.7" cy="116.1" r="1.8"/>
		<circle class="st1" cx="33" cy="116.1" r="1.8"/>
		<circle class="st1" cx="37.3" cy="116.1" r="1.8"/>
		<circle class="st1" cx="41.7" cy="116.1" r="1.8"/>
		<circle class="st1" cx="46" cy="116.1" r="1.8"/>
		<circle class="st1" cx="50.3" cy="116.1" r="1.8"/>
		<circle class="st1" cx="54.6" cy="116.1" r="1.8"/>
		<circle class="st1" cx="59" cy="116.1" r="1.8"/>
		<circle class="st1" cx="63.3" cy="116.1" r="1.8"/>
		<circle class="st1" cx="67.6" cy="116.1" r="1.8"/>
		<circle class="st1" cx="72" cy="116.1" r="1.8"/>
		<circle class="st1" cx="76.3" cy="116.1" r="1.8"/>
		<circle class="st1" cx="80.6" cy="116.1" r="1.8"/>
		<circle class="st1" cx="84.9" cy="116.1" r="1.8"/>
		<circle class="st1" cx="89.3" cy="116.1" r="1.8"/>
		<circle class="st1" cx="93.6" cy="116.1" r="1.8"/>
		<circle class="st1" cx="97.9" cy="116.1" r="1.8"/>
		<circle class="st1" cx="102.3" cy="116.1" r="1.8"/>
		<circle class="st1" cx="106.6" cy="116.1" r="1.8"/>
		<circle class="st1" cx="110.9" cy="116.1" r="1.8"/>
		<circle class="st1" cx="115.3" cy="116.1" r="1.8"/>
		<circle class="st1" cx="119.6" cy="116.1" r="1.8"/>
		<text transform="matrix(1 0 0 1 122.7007 117.1123)" class="st1 st2 st3">00</text>
		<text transform="matrix(1 0 0 1 4.9006 117.1123)" class="st1 st2 st3">00</text>
	</g>
	<g>
		<circle class="st1" cx="11.4" cy="110.3" r="1.8"/>
		<circle class="st1" cx="15.7" cy="110.3" r="1.8"/>
		<circle class="st1" cx="20" cy="110.3" r="1.8"/>
		<circle class="st1" cx="24.4" cy="110.3" r="1.8"/>
		<circle class="st1" cx="28.7" cy="110.3" r="1.8"/>
		<circle class="st1" cx="33" cy="110.3" r="1.8"/>
		<circle class="st1" cx="37.3" cy="110.3" r="1.8"/>
		<circle class="st1" cx="41.7" cy="110.3" r="1.8"/>
		<circle class="st1" cx="46" cy="110.3" r="1.8"/>
		<circle class="st1" cx="50.3" cy="110.3" r="1.8"/>
		<circle class="st1" cx="54.6" cy="110.3" r="1.8"/>
		<circle class="st1" cx="59" cy="110.3" r="1.8"/>
		<circle class="st1" cx="63.3" cy="110.3" r="1.8"/>
		<circle class="st1" cx="67.6" cy="110.3" r="1.8"/>
		<circle class="st1" cx="72" cy="110.3" r="1.8"/>
		<circle class="st1" cx="76.3" cy="110.3" r="1.8"/>
		<circle class="st1" cx="80.6" cy="110.3" r="1.8"/>
		<circle class="st1" cx="84.9" cy="110.3" r="1.8"/>
		<circle class="st1" cx="89.3" cy="110.3" r="1.8"/>
		<circle class="st1" cx="93.6" cy="110.3" r="1.8"/>
		<circle class="st1" cx="97.9" cy="110.3" r="1.8"/>
		<circle class="st1" cx="102.3" cy="110.3" r="1.8"/>
		<circle class="st1" cx="106.6" cy="110.3" r="1.8"/>
		<circle class="st1" cx="110.9" cy="110.3" r="1.8"/>
		<circle class="st1" cx="115.3" cy="110.3" r="1.8"/>
		<circle class="st1" cx="119.6" cy="110.3" r="1.8"/>
		<text transform="matrix(1 0 0 1 122.7007 111.3223)" class="st1 st2 st3">00</text>
		<text transform="matrix(1 0 0 1 4.9006 111.3223)" class="st1 st2 st3">00</text>
	</g>
	<g>
		<circle class="st1" cx="11.4" cy="104.3" r="1.8"/>
		<circle class="st1" cx="15.7" cy="104.3" r="1.8"/>
		<circle class="st1" cx="20" cy="104.3" r="1.8"/>
		<circle class="st1" cx="24.4" cy="104.3" r="1.8"/>
		<circle class="st1" cx="28.7" cy="104.3" r="1.8"/>
		<circle class="st1" cx="33" cy="104.3" r="1.8"/>
		<circle class="st1" cx="37.3" cy="104.3" r="1.8"/>
		<circle class="st1" cx="41.7" cy="104.3" r="1.8"/>
		<circle class="st1" cx="46" cy="104.3" r="1.8"/>
		<circle class="st1" cx="50.3" cy="104.3" r="1.8"/>
		<circle class="st1" cx="54.6" cy="104.3" r="1.8"/>
		<circle class="st1" cx="59" cy="104.3" r="1.8"/>
		<circle class="st1" cx="63.3" cy="104.3" r="1.8"/>
		<circle class="st1" cx="67.6" cy="104.3" r="1.8"/>
		<circle class="st1" cx="72" cy="104.3" r="1.8"/>
		<circle class="st1" cx="76.3" cy="104.3" r="1.8"/>
		<circle class="st1" cx="80.6" cy="104.3" r="1.8"/>
		<circle class="st1" cx="84.9" cy="104.3" r="1.8"/>
		<circle class="st1" cx="89.3" cy="104.3" r="1.8"/>
		<circle class="st1" cx="93.6" cy="104.3" r="1.8"/>
		<circle class="st1" cx="97.9" cy="104.3" r="1.8"/>
		<circle class="st1" cx="102.3" cy="104.3" r="1.8"/>
		<circle class="st1" cx="106.6" cy="104.3" r="1.8"/>
		<circle class="st1" cx="110.9" cy="104.3" r="1.8"/>
		<circle class="st1" cx="115.3" cy="104.3" r="1.8"/>
		<circle class="st1" cx="119.6" cy="104.3" r="1.8"/>
		<text transform="matrix(1 0 0 1 122.7007 105.3922)" class="st1 st2 st3">00</text>
		<text transform="matrix(1 0 0 1 4.9006 105.3922)" class="st1 st2 st3">00</text>
	</g>
	<g>
		<circle class="st1" cx="11.4" cy="98.4" r="1.8"/>
		<circle class="st1" cx="15.7" cy="98.4" r="1.8"/>
		<circle class="st1" cx="20" cy="98.4" r="1.8"/>
		<circle class="st1" cx="24.4" cy="98.4" r="1.8"/>
		<circle class="st1" cx="28.7" cy="98.4" r="1.8"/>
		<circle class="st1" cx="33" cy="98.4" r="1.8"/>
		<circle class="st1" cx="37.3" cy="98.4" r="1.8"/>
		<circle class="st1" cx="41.7" cy="98.4" r="1.8"/>
		<circle class="st1" cx="46" cy="98.4" r="1.8"/>
		<circle class="st1" cx="50.3" cy="98.4" r="1.8"/>
		<circle class="st1" cx="54.6" cy="98.4" r="1.8"/>
		<circle class="st1" cx="59" cy="98.4" r="1.8"/>
		<circle class="st1" cx="63.3" cy="98.4" r="1.8"/>
		<circle class="st1" cx="67.6" cy="98.4" r="1.8"/>
		<circle class="st1" cx="72" cy="98.4" r="1.8"/>
		<circle class="st1" cx="76.3" cy="98.4" r="1.8"/>
		<circle class="st1" cx="80.6" cy="98.4" r="1.8"/>
		<circle class="st1" cx="84.9" cy="98.4" r="1.8"/>
		<circle class="st1" cx="89.3" cy="98.4" r="1.8"/>
		<circle class="st1" cx="93.6" cy="98.4" r="1.8"/>
		<circle class="st1" cx="97.9" cy="98.4" r="1.8"/>
		<circle class="st1" cx="102.3" cy="98.4" r="1.8"/>
		<circle class="st1" cx="106.6" cy="98.4" r="1.8"/>
		<circle class="st1" cx="110.9" cy="98.4" r="1.8"/>
		<circle class="st1" cx="115.3" cy="98.4" r="1.8"/>
		<circle class="st1" cx="119.6" cy="98.4" r="1.8"/>
		<text transform="matrix(1 0 0 1 122.7007 99.4622)" class="st1 st2 st3">00</text>
		<text transform="matrix(1 0 0 1 4.9006 99.4622)" class="st1 st2 st3">00</text>
	</g>
	<g>
		<circle class="st1" cx="11.4" cy="92.5" r="1.8"/>
		<circle class="st1" cx="15.7" cy="92.5" r="1.8"/>
		<circle class="st1" cx="20" cy="92.5" r="1.8"/>
		<circle class="st1" cx="24.4" cy="92.5" r="1.8"/>
		<circle class="st1" cx="28.7" cy="92.5" r="1.8"/>
		<circle class="st1" cx="33" cy="92.5" r="1.8"/>
		<circle class="st1" cx="37.3" cy="92.5" r="1.8"/>
		<circle class="st1" cx="41.7" cy="92.5" r="1.8"/>
		<circle class="st1" cx="46" cy="92.5" r="1.8"/>
		<circle class="st1" cx="50.3" cy="92.5" r="1.8"/>
		<circle class="st1" cx="54.6" cy="92.5" r="1.8"/>
		<circle class="st1" cx="59" cy="92.5" r="1.8"/>
		<circle class="st1" cx="63.3" cy="92.5" r="1.8"/>
		<circle class="st1" cx="67.6" cy="92.5" r="1.8"/>
		<circle class="st1" cx="72" cy="92.5" r="1.8"/>
		<circle class="st1" cx="76.3" cy="92.5" r="1.8"/>
		<circle class="st1" cx="80.6" cy="92.5" r="1.8"/>
		<circle class="st1" cx="84.9" cy="92.5" r="1.8"/>
		<circle class="st1" cx="89.3" cy="92.5" r="1.8"/>
		<circle class="st1" cx="93.6" cy="92.5" r="1.8"/>
		<circle class="st1" cx="97.9" cy="92.5" r="1.8"/>
		<circle class="st1" cx="102.3" cy="92.5" r="1.8"/>
		<circle class="st1" cx="106.6" cy="92.5" r="1.8"/>
		<circle class="st1" cx="110.9" cy="92.5" r="1.8"/>
		<circle class="st1" cx="115.3" cy="92.5" r="1.8"/>
		<circle class="st1" cx="119.6" cy="92.5" r="1.8"/>
		<text transform="matrix(1 0 0 1 122.7007 93.5321)" class="st1 st2 st3">00</text>
		<text transform="matrix(1 0 0 1 4.9006 93.5321)" class="st1 st2 st3">00</text>
	</g>
	<g>
		<circle class="st1" cx="11.4" cy="86.6" r="1.8"/>
		<circle class="st1" cx="15.7" cy="86.6" r="1.8"/>
		<circle class="st1" cx="20" cy="86.6" r="1.8"/>
		<circle class="st1" cx="24.4" cy="86.6" r="1.8"/>
		<circle class="st1" cx="28.7" cy="86.6" r="1.8"/>
		<circle class="st1" cx="33" cy="86.6" r="1.8"/>
		<circle class="st1" cx="37.3" cy="86.6" r="1.8"/>
		<circle class="st1" cx="41.7" cy="86.6" r="1.8"/>
		<circle class="st1" cx="46" cy="86.6" r="1.8"/>
		<circle class="st1" cx="50.3" cy="86.6" r="1.8"/>
		<circle class="st1" cx="54.6" cy="86.6" r="1.8"/>
		<circle class="st1" cx="59" cy="86.6" r="1.8"/>
		<circle class="st1" cx="63.3" cy="86.6" r="1.8"/>
		<circle class="st1" cx="67.6" cy="86.6" r="1.8"/>
		<circle class="st1" cx="72" cy="86.6" r="1.8"/>
		<circle class="st1" cx="76.3" cy="86.6" r="1.8"/>
		<circle class="st1" cx="80.6" cy="86.6" r="1.8"/>
		<circle class="st1" cx="84.9" cy="86.6" r="1.8"/>
		<circle class="st1" cx="89.3" cy="86.6" r="1.8"/>
		<circle class="st1" cx="93.6" cy="86.6" r="1.8"/>
		<circle class="st1" cx="97.9" cy="86.6" r="1.8"/>
		<circle class="st1" cx="102.3" cy="86.6" r="1.8"/>
		<circle class="st1" cx="106.6" cy="86.6" r="1.8"/>
		<circle class="st1" cx="110.9" cy="86.6" r="1.8"/>
		<circle class="st1" cx="115.3" cy="86.6" r="1.8"/>
		<circle class="st1" cx="119.6" cy="86.6" r="1.8"/>
		<text transform="matrix(1 0 0 1 122.7007 87.6021)" class="st1 st2 st3">00</text>
		<text transform="matrix(1 0 0 1 4.9006 87.6021)" class="st1 st2 st3">00</text>
	</g>
	<g>
		<circle class="st1" cx="11.4" cy="80.6" r="1.8"/>
		<circle class="st1" cx="15.7" cy="80.6" r="1.8"/>
		<circle class="st1" cx="20" cy="80.6" r="1.8"/>
		<circle class="st1" cx="24.4" cy="80.6" r="1.8"/>
		<circle class="st1" cx="28.7" cy="80.6" r="1.8"/>
		<circle class="st1" cx="33" cy="80.6" r="1.8"/>
		<circle class="st1" cx="37.3" cy="80.6" r="1.8"/>
		<circle class="st1" cx="41.7" cy="80.6" r="1.8"/>
		<circle class="st1" cx="46" cy="80.6" r="1.8"/>
		<circle class="st1" cx="50.3" cy="80.6" r="1.8"/>
		<circle class="st1" cx="54.6" cy="80.6" r="1.8"/>
		<circle class="st1" cx="59" cy="80.6" r="1.8"/>
		<circle class="st1" cx="63.3" cy="80.6" r="1.8"/>
		<circle class="st1" cx="67.6" cy="80.6" r="1.8"/>
		<circle class="st1" cx="72" cy="80.6" r="1.8"/>
		<circle class="st1" cx="76.3" cy="80.6" r="1.8"/>
		<circle class="st1" cx="80.6" cy="80.6" r="1.8"/>
		<circle class="st1" cx="84.9" cy="80.6" r="1.8"/>
		<circle class="st1" cx="89.3" cy="80.6" r="1.8"/>
		<circle class="st1" cx="93.6" cy="80.6" r="1.8"/>
		<circle class="st1" cx="97.9" cy="80.6" r="1.8"/>
		<circle class="st1" cx="102.3" cy="80.6" r="1.8"/>
		<circle class="st1" cx="106.6" cy="80.6" r="1.8"/>
		<circle class="st1" cx="110.9" cy="80.6" r="1.8"/>
		<circle class="st1" cx="115.3" cy="80.6" r="1.8"/>
		<circle class="st1" cx="119.6" cy="80.6" r="1.8"/>
		<text transform="matrix(1 0 0 1 122.7007 81.672)" class="st1 st2 st3">00</text>
		<text transform="matrix(1 0 0 1 4.9006 81.672)" class="st1 st2 st3">00</text>
	</g>
	<g>
		<circle class="st1" cx="11.4" cy="74.7" r="1.8"/>
		<circle class="st1" cx="15.7" cy="74.7" r="1.8"/>
		<circle class="st1" cx="20" cy="74.7" r="1.8"/>
		<circle class="st1" cx="24.4" cy="74.7" r="1.8"/>
		<circle class="st1" cx="28.7" cy="74.7" r="1.8"/>
		<circle class="st1" cx="33" cy="74.7" r="1.8"/>
		<circle class="st1" cx="37.3" cy="74.7" r="1.8"/>
		<circle class="st1" cx="41.7" cy="74.7" r="1.8"/>
		<circle class="st1" cx="46" cy="74.7" r="1.8"/>
		<circle class="st1" cx="50.3" cy="74.7" r="1.8"/>
		<circle class="st1" cx="54.6" cy="74.7" r="1.8"/>
		<circle class="st1" cx="59" cy="74.7" r="1.8"/>
		<circle class="st1" cx="63.3" cy="74.7" r="1.8"/>
		<circle class="st1" cx="67.6" cy="74.7" r="1.8"/>
		<circle class="st1" cx="72" cy="74.7" r="1.8"/>
		<circle class="st1" cx="76.3" cy="74.7" r="1.8"/>
		<circle class="st1" cx="80.6" cy="74.7" r="1.8"/>
		<circle class="st1" cx="84.9" cy="74.7" r="1.8"/>
		<circle class="st1" cx="89.3" cy="74.7" r="1.8"/>
		<circle class="st1" cx="93.6" cy="74.7" r="1.8"/>
		<circle class="st1" cx="97.9" cy="74.7" r="1.8"/>
		<circle class="st1" cx="102.3" cy="74.7" r="1.8"/>
		<circle class="st1" cx="106.6" cy="74.7" r="1.8"/>
		<circle class="st1" cx="110.9" cy="74.7" r="1.8"/>
		<circle class="st1" cx="115.3" cy="74.7" r="1.8"/>
		<circle class="st1" cx="119.6" cy="74.7" r="1.8"/>
		<text transform="matrix(1 0 0 1 122.7007 75.7419)" class="st1 st2 st3">00</text>
		<text transform="matrix(1 0 0 1 4.9006 75.7419)" class="st1 st2 st3">00</text>
	</g>
	<g>
		<circle class="st1" cx="11.4" cy="68.8" r="1.8"/>
		<circle class="st1" cx="15.7" cy="68.8" r="1.8"/>
		<circle class="st1" cx="20" cy="68.8" r="1.8"/>
		<circle class="st1" cx="24.4" cy="68.8" r="1.8"/>
		<circle class="st1" cx="28.7" cy="68.8" r="1.8"/>
		<circle class="st1" cx="33" cy="68.8" r="1.8"/>
		<circle class="st1" cx="37.3" cy="68.8" r="1.8"/>
		<circle class="st1" cx="41.7" cy="68.8" r="1.8"/>
		<circle class="st1" cx="46" cy="68.8" r="1.8"/>
		<circle class="st1" cx="50.3" cy="68.8" r="1.8"/>
		<circle class="st1" cx="54.6" cy="68.8" r="1.8"/>
		<circle class="st1" cx="59" cy="68.8" r="1.8"/>
		<circle class="st1" cx="63.3" cy="68.8" r="1.8"/>
		<circle class="st1" cx="67.6" cy="68.8" r="1.8"/>
		<circle class="st1" cx="72" cy="68.8" r="1.8"/>
		<circle class="st1" cx="76.3" cy="68.8" r="1.8"/>
		<circle class="st1" cx="80.6" cy="68.8" r="1.8"/>
		<circle class="st1" cx="84.9" cy="68.8" r="1.8"/>
		<circle class="st1" cx="89.3" cy="68.8" r="1.8"/>
		<circle class="st1" cx="93.6" cy="68.8" r="1.8"/>
		<circle class="st1" cx="97.9" cy="68.8" r="1.8"/>
		<circle class="st1" cx="102.3" cy="68.8" r="1.8"/>
		<circle class="st1" cx="106.6" cy="68.8" r="1.8"/>
		<circle class="st1" cx="110.9" cy="68.8" r="1.8"/>
		<circle class="st1" cx="115.3" cy="68.8" r="1.8"/>
		<circle class="st1" cx="119.6" cy="68.8" r="1.8"/>
		<text transform="matrix(1 0 0 1 122.7007 69.8119)" class="st1 st2 st3">00</text>
		<text transform="matrix(1 0 0 1 4.9006 69.8119)" class="st1 st2 st3">00</text>
	</g>
	<g>
		<circle class="st1" cx="20.1" cy="62.8" r="1.8"/>
		<circle class="st1" cx="24.4" cy="62.8" r="1.8"/>
		<circle class="st1" cx="28.7" cy="62.8" r="1.8"/>
		<circle class="st1" cx="33" cy="62.8" r="1.8"/>
		<circle class="st1" cx="37.3" cy="62.8" r="1.8"/>
		<circle class="st1" cx="41.7" cy="62.8" r="1.8"/>
		<circle class="st1" cx="46" cy="62.8" r="1.8"/>
		<circle class="st1" cx="50.3" cy="62.8" r="1.8"/>
		<circle class="st1" cx="54.6" cy="62.8" r="1.8"/>
		<circle class="st1" cx="59" cy="62.8" r="1.8"/>
		<circle class="st1" cx="63.3" cy="62.8" r="1.8"/>
		<circle class="st1" cx="67.6" cy="62.8" r="1.8"/>
		<circle class="st1" cx="72" cy="62.8" r="1.8"/>
		<circle class="st1" cx="76.3" cy="62.8" r="1.8"/>
		<circle class="st1" cx="80.6" cy="62.8" r="1.8"/>
		<circle class="st1" cx="84.9" cy="62.8" r="1.8"/>
		<circle class="st1" cx="89.3" cy="62.8" r="1.8"/>
		<circle class="st1" cx="93.6" cy="62.8" r="1.8"/>
		<circle class="st1" cx="97.9" cy="62.8" r="1.8"/>
		<circle class="st1" cx="102.3" cy="62.8" r="1.8"/>
		<circle class="st1" cx="106.6" cy="62.8" r="1.8"/>
		<circle class="st1" cx="110.9" cy="62.8" r="1.8"/>
		<text transform="matrix(1 0 0 1 114.0306 63.8818)" class="st1 st2 st3">00</text>
		<text transform="matrix(1 0 0 1 13.5706 63.8818)" class="st1 st2 st3">00</text>
	</g>
	<g>
		<circle class="st1" cx="20.1" cy="56.9" r="1.8"/>
		<circle class="st1" cx="24.4" cy="56.9" r="1.8"/>
		<circle class="st1" cx="28.7" cy="56.9" r="1.8"/>
		<circle class="st1" cx="33" cy="56.9" r="1.8"/>
		<circle class="st1" cx="37.3" cy="56.9" r="1.8"/>
		<circle class="st1" cx="41.7" cy="56.9" r="1.8"/>
		<circle class="st1" cx="46" cy="56.9" r="1.8"/>
		<circle class="st1" cx="50.3" cy="56.9" r="1.8"/>
		<circle class="st1" cx="54.6" cy="56.9" r="1.8"/>
		<circle class="st1" cx="59" cy="56.9" r="1.8"/>
		<circle class="st1" cx="63.3" cy="56.9" r="1.8"/>
		<circle class="st1" cx="67.6" cy="56.9" r="1.8"/>
		<circle class="st1" cx="72" cy="56.9" r="1.8"/>
		<circle class="st1" cx="76.3" cy="56.9" r="1.8"/>
		<circle class="st1" cx="80.6" cy="56.9" r="1.8"/>
		<circle class="st1" cx="84.9" cy="56.9" r="1.8"/>
		<circle class="st1" cx="89.3" cy="56.9" r="1.8"/>
		<circle class="st1" cx="93.6" cy="56.9" r="1.8"/>
		<circle class="st1" cx="97.9" cy="56.9" r="1.8"/>
		<circle class="st1" cx="102.3" cy="56.9" r="1.8"/>
		<circle class="st1" cx="106.6" cy="56.9" r="1.8"/>
		<circle class="st1" cx="110.9" cy="56.9" r="1.8"/>
		<text transform="matrix(1 0 0 1 114.0306 57.9518)" class="st1 st2 st3">00</text>
		<text transform="matrix(1 0 0 1 13.5706 57.9518)" class="st1 st2 st3">00</text>
	</g>
	<g>
		<circle class="st1" cx="20.1" cy="51" r="1.8"/>
		<circle class="st1" cx="24.4" cy="51" r="1.8"/>
		<circle class="st1" cx="28.7" cy="51" r="1.8"/>
		<circle class="st1" cx="33" cy="51" r="1.8"/>
		<circle class="st1" cx="37.3" cy="51" r="1.8"/>
		<circle class="st1" cx="41.7" cy="51" r="1.8"/>
		<circle class="st1" cx="46" cy="51" r="1.8"/>
		<circle class="st1" cx="50.3" cy="51" r="1.8"/>
		<circle class="st1" cx="54.6" cy="51" r="1.8"/>
		<circle class="st1" cx="59" cy="51" r="1.8"/>
		<circle class="st1" cx="63.3" cy="51" r="1.8"/>
		<circle class="st1" cx="67.6" cy="51" r="1.8"/>
		<circle class="st1" cx="72" cy="51" r="1.8"/>
		<circle class="st1" cx="76.3" cy="51" r="1.8"/>
		<circle class="st1" cx="80.6" cy="51" r="1.8"/>
		<circle class="st1" cx="84.9" cy="51" r="1.8"/>
		<circle class="st1" cx="89.3" cy="51" r="1.8"/>
		<circle class="st1" cx="93.6" cy="51" r="1.8"/>
		<circle class="st1" cx="97.9" cy="51" r="1.8"/>
		<circle class="st1" cx="102.3" cy="51" r="1.8"/>
		<circle class="st1" cx="106.6" cy="51" r="1.8"/>
		<circle class="st1" cx="110.9" cy="51" r="1.8"/>
		<text transform="matrix(1 0 0 1 114.0306 52.0217)" class="st1 st2 st3">00</text>
		<text transform="matrix(1 0 0 1 13.5706 52.0217)" class="st1 st2 st3">00</text>
	</g>
	<g>
		<circle class="st1" cx="20.1" cy="45" r="1.8"/>
		<circle class="st1" cx="24.4" cy="45" r="1.8"/>
		<circle class="st1" cx="28.7" cy="45" r="1.8"/>
		<circle class="st1" cx="33" cy="45" r="1.8"/>
		<circle class="st1" cx="37.3" cy="45" r="1.8"/>
		<circle class="st1" cx="41.7" cy="45" r="1.8"/>
		<circle class="st1" cx="46" cy="45" r="1.8"/>
		<circle class="st1" cx="50.3" cy="45" r="1.8"/>
		<circle class="st1" cx="54.6" cy="45" r="1.8"/>
		<circle class="st1" cx="59" cy="45" r="1.8"/>
		<circle class="st1" cx="63.3" cy="45" r="1.8"/>
		<circle class="st1" cx="67.6" cy="45" r="1.8"/>
		<circle class="st1" cx="72" cy="45" r="1.8"/>
		<circle class="st1" cx="76.3" cy="45" r="1.8"/>
		<circle class="st1" cx="80.6" cy="45" r="1.8"/>
		<circle class="st1" cx="84.9" cy="45" r="1.8"/>
		<circle class="st1" cx="89.3" cy="45" r="1.8"/>
		<circle class="st1" cx="93.6" cy="45" r="1.8"/>
		<circle class="st1" cx="97.9" cy="45" r="1.8"/>
		<circle class="st1" cx="102.3" cy="45" r="1.8"/>
		<circle class="st1" cx="106.6" cy="45" r="1.8"/>
		<circle class="st1" cx="110.9" cy="45" r="1.8"/>
		<text transform="matrix(1 0 0 1 114.0306 46.0917)" class="st1 st2 st3">00</text>
		<text transform="matrix(1 0 0 1 13.5706 46.0917)" class="st1 st2 st3">00</text>
	</g>
	<g>
		<circle class="st1" cx="20.1" cy="39.1" r="1.8"/>
		<circle class="st1" cx="24.4" cy="39.1" r="1.8"/>
		<circle class="st1" cx="28.7" cy="39.1" r="1.8"/>
		<circle class="st1" cx="33" cy="39.1" r="1.8"/>
		<circle class="st1" cx="37.3" cy="39.1" r="1.8"/>
		<circle class="st1" cx="41.7" cy="39.1" r="1.8"/>
		<circle class="st1" cx="46" cy="39.1" r="1.8"/>
		<circle class="st1" cx="50.3" cy="39.1" r="1.8"/>
		<circle class="st1" cx="54.6" cy="39.1" r="1.8"/>
		<circle class="st1" cx="59" cy="39.1" r="1.8"/>
		<circle class="st1" cx="63.3" cy="39.1" r="1.8"/>
		<circle class="st1" cx="67.6" cy="39.1" r="1.8"/>
		<circle class="st1" cx="72" cy="39.1" r="1.8"/>
		<circle class="st1" cx="76.3" cy="39.1" r="1.8"/>
		<circle class="st1" cx="80.6" cy="39.1" r="1.8"/>
		<circle class="st1" cx="84.9" cy="39.1" r="1.8"/>
		<circle class="st1" cx="89.3" cy="39.1" r="1.8"/>
		<circle class="st1" cx="93.6" cy="39.1" r="1.8"/>
		<circle class="st1" cx="97.9" cy="39.1" r="1.8"/>
		<circle class="st1" cx="102.3" cy="39.1" r="1.8"/>
		<circle class="st1" cx="106.6" cy="39.1" r="1.8"/>
		<circle class="st1" cx="110.9" cy="39.1" r="1.8"/>
		<text transform="matrix(1 0 0 1 114.0306 40.1616)" class="st1 st2 st3">00</text>
		<text transform="matrix(1 0 0 1 13.5706 40.1616)" class="st1 st2 st3">00</text>
	</g>
	<g>
		<circle class="st1" cx="11.4" cy="33.2" r="1.8"/>
		<circle class="st1" cx="15.7" cy="33.2" r="1.8"/>
		<circle class="st1" cx="20" cy="33.2" r="1.8"/>
		<circle class="st1" cx="24.4" cy="33.2" r="1.8"/>
		<circle class="st1" cx="28.7" cy="33.2" r="1.8"/>
		<circle class="st1" cx="33" cy="33.2" r="1.8"/>
		<circle class="st1" cx="37.3" cy="33.2" r="1.8"/>
		<circle class="st1" cx="41.7" cy="33.2" r="1.8"/>
		<circle class="st1" cx="46" cy="33.2" r="1.8"/>
		<circle class="st1" cx="50.3" cy="33.2" r="1.8"/>
		<circle class="st1" cx="54.6" cy="33.2" r="1.8"/>
		<circle class="st1" cx="59" cy="33.2" r="1.8"/>
		<circle class="st1" cx="63.3" cy="33.2" r="1.9"/>
		<circle class="st1" cx="67.6" cy="33.2" r="1.8"/>
		<circle class="st1" cx="72" cy="33.2" r="1.8"/>
		<circle class="st1" cx="76.3" cy="33.2" r="1.8"/>
		<circle class="st1" cx="80.6" cy="33.2" r="1.8"/>
		<circle class="st1" cx="84.9" cy="33.2" r="1.8"/>
		<circle class="st1" cx="89.3" cy="33.2" r="1.8"/>
		<circle class="st1" cx="93.6" cy="33.2" r="1.8"/>
		<circle class="st1" cx="97.9" cy="33.2" r="1.8"/>
		<circle class="st1" cx="102.3" cy="33.2" r="1.8"/>
		<circle class="st1" cx="106.6" cy="33.2" r="1.8"/>
		<circle class="st1" cx="110.9" cy="33.2" r="1.8"/>
		<circle class="st1" cx="115.3" cy="33.2" r="1.8"/>
		<circle class="st1" cx="119.6" cy="33.2" r="1.8"/>
		<text transform="matrix(1 0 0 1 122.7007 34.1915)" class="st1 st2 st3">00</text>
		<text transform="matrix(1 0 0 1 4.9006 34.1915)" class="st1 st2 st3">00</text>
	</g>
	<g>
		<circle class="st1" cx="11.4" cy="27.2" r="1.9"/>
		<circle class="st1" cx="15.7" cy="27.2" r="1.9"/>
		<circle class="st1" cx="20" cy="27.2" r="1.9"/>
		<circle class="st1" cx="24.4" cy="27.2" r="1.9"/>
		<circle class="st1" cx="28.7" cy="27.2" r="1.9"/>
		<circle class="st1" cx="33" cy="27.2" r="1.8"/>
		<circle class="st1" cx="37.3" cy="27.2" r="1.8"/>
		<circle class="st1" cx="41.7" cy="27.2" r="1.8"/>
		<circle class="st1" cx="46" cy="27.2" r="1.8"/>
		<circle class="st1" cx="50.3" cy="27.2" r="1.8"/>
		<circle class="st1" cx="54.6" cy="27.2" r="1.8"/>
		<circle class="st1" cx="59" cy="27.2" r="1.8"/>
		<circle class="st1" cx="63.3" cy="27.2" r="1.9"/>
		<circle class="st1" cx="67.6" cy="27.2" r="1.8"/>
		<circle class="st1" cx="72" cy="27.2" r="1.8"/>
		<circle class="st1" cx="76.3" cy="27.2" r="1.8"/>
		<circle class="st1" cx="80.6" cy="27.2" r="1.8"/>
		<circle class="st1" cx="84.9" cy="27.2" r="1.8"/>
		<circle class="st1" cx="89.3" cy="27.2" r="1.8"/>
		<circle class="st1" cx="93.6" cy="27.2" r="1.8"/>
		<circle class="st1" cx="97.9" cy="27.2" r="1.8"/>
		<circle class="st1" cx="102.3" cy="27.2" r="1.8"/>
		<circle class="st1" cx="106.6" cy="27.2" r="1.8"/>
		<circle class="st1" cx="110.9" cy="27.2" r="1.8"/>
		<circle class="st1" cx="115.3" cy="27.2" r="1.8"/>
		<circle class="st1" cx="119.6" cy="27.2" r="1.8"/>
		<text transform="matrix(1 0 0 1 122.7007 28.2715)" class="st1 st2 st3">00</text>
		<text transform="matrix(1 0 0 1 4.9006 28.2715)" class="st1 st2 st3">00</text>
	</g>
	<g>
		<circle class="st1" cx="11.4" cy="21.3" r="1.9"/>
		<circle class="st1" cx="15.7" cy="21.3" r="1.9"/>
		<circle class="st1" cx="20" cy="21.3" r="1.9"/>
		<circle class="st1" cx="24.4" cy="21.3" r="1.9"/>
		<circle class="st1" cx="28.7" cy="21.3" r="1.9"/>
		<circle class="st1" cx="33" cy="21.3" r="1.8"/>
		<circle class="st1" cx="37.3" cy="21.3" r="1.8"/>
		<circle class="st1" cx="41.7" cy="21.3" r="1.8"/>
		<circle class="st1" cx="46" cy="21.3" r="1.8"/>
		<circle class="st1" cx="50.3" cy="21.3" r="1.8"/>
		<circle class="st1" cx="54.6" cy="21.3" r="1.8"/>
		<circle class="st1" cx="59" cy="21.3" r="1.8"/>
		<circle class="st1" cx="63.3" cy="21.3" r="1.9"/>
		<circle class="st1" cx="67.6" cy="21.3" r="1.8"/>
		<circle class="st1" cx="72" cy="21.3" r="1.8"/>
		<circle class="st1" cx="76.3" cy="21.3" r="1.8"/>
		<circle class="st1" cx="80.6" cy="21.3" r="1.8"/>
		<circle class="st1" cx="84.9" cy="21.3" r="1.8"/>
		<circle class="st1" cx="89.3" cy="21.3" r="1.8"/>
		<circle class="st1" cx="93.6" cy="21.3" r="1.8"/>
		<circle class="st1" cx="97.9" cy="21.3" r="1.8"/>
		<circle class="st1" cx="102.3" cy="21.3" r="1.8"/>
		<circle class="st1" cx="106.6" cy="21.3" r="1.8"/>
		<circle class="st1" cx="110.9" cy="21.3" r="1.8"/>
		<circle class="st1" cx="115.3" cy="21.3" r="1.8"/>
		<circle class="st1" cx="119.6" cy="21.3" r="1.8"/>
		<text transform="matrix(1 0 0 1 122.7007 22.3514)" class="st1 st2 st3">00</text>
		<text transform="matrix(1 0 0 1 4.9006 22.3514)" class="st1 st2 st3">00</text>
	</g>
	<g>
		<circle class="st1" cx="11.4" cy="15.4" r="1.9"/>
		<circle class="st1" cx="15.7" cy="15.4" r="1.9"/>
		<circle class="st1" cx="20" cy="15.4" r="1.9"/>
		<circle class="st1" cx="24.4" cy="15.4" r="1.9"/>
		<circle class="st1" cx="28.7" cy="15.4" r="1.9"/>
		<circle class="st1" cx="33" cy="15.4" r="1.8"/>
		<circle class="st1" cx="37.3" cy="15.4" r="1.8"/>
		<circle class="st1" cx="41.7" cy="15.4" r="1.8"/>
		<circle class="st1" cx="46" cy="15.4" r="1.8"/>
		<circle class="st1" cx="50.3" cy="15.4" r="1.8"/>
		<circle class="st1" cx="54.6" cy="15.4" r="1.8"/>
		<circle class="st1" cx="59" cy="15.4" r="1.8"/>
		<circle class="st1" cx="63.3" cy="15.4" r="1.9"/>
		<circle class="st1" cx="67.6" cy="15.4" r="1.8"/>
		<circle class="st1" cx="72" cy="15.4" r="1.8"/>
		<circle class="st1" cx="76.3" cy="15.4" r="1.8"/>
		<circle class="st1" cx="80.6" cy="15.4" r="1.8"/>
		<circle class="st1" cx="84.9" cy="15.4" r="1.8"/>
		<circle class="st1" cx="89.3" cy="15.4" r="1.8"/>
		<circle class="st1" cx="93.6" cy="15.4" r="1.8"/>
		<circle class="st1" cx="97.9" cy="15.4" r="1.8"/>
		<circle class="st1" cx="102.3" cy="15.4" r="1.8"/>
		<circle class="st1" cx="106.6" cy="15.4" r="1.8"/>
		<circle class="st1" cx="110.9" cy="15.4" r="1.8"/>
		<circle class="st1" cx="115.3" cy="15.4" r="1.8"/>
		<circle class="st1" cx="119.6" cy="15.4" r="1.8"/>
		<text transform="matrix(1 0 0 1 122.7007 16.4314)" class="st1 st2 st3">00</text>
		<text transform="matrix(1 0 0 1 4.9006 16.4314)" class="st1 st2 st3">00</text>
	</g>
	<g>
		<circle class="st1" cx="11.4" cy="9.4" r="1.9"/>
		<circle class="st1" cx="15.7" cy="9.4" r="1.9"/>
		<circle class="st1" cx="20" cy="9.4" r="1.9"/>
		<circle class="st1" cx="24.4" cy="9.4" r="1.9"/>
		<circle class="st1" cx="28.7" cy="9.4" r="1.9"/>
		<circle class="st1" cx="33" cy="9.4" r="1.8"/>
		<circle class="st1" cx="37.3" cy="9.4" r="1.8"/>
		<circle class="st1" cx="41.7" cy="9.4" r="1.8"/>
		<circle class="st1" cx="46" cy="9.4" r="1.8"/>
		<circle class="st1" cx="50.3" cy="9.4" r="1.8"/>
		<circle class="st1" cx="54.6" cy="9.4" r="1.8"/>
		<circle class="st1" cx="59" cy="9.4" r="1.8"/>
		<circle class="st1" cx="63.3" cy="9.4" r="1.9"/>
		<circle class="st1" cx="67.6" cy="9.4" r="1.8"/>
		<circle class="st1" cx="72" cy="9.4" r="1.8"/>
		<circle class="st1" cx="76.3" cy="9.4" r="1.8"/>
		<circle class="st1" cx="80.6" cy="9.4" r="1.8"/>
		<circle class="st1" cx="84.9" cy="9.4" r="1.8"/>
		<circle class="st1" cx="89.3" cy="9.4" r="1.8"/>
		<circle class="st1" cx="93.6" cy="9.4" r="1.8"/>
		<circle class="st1" cx="97.9" cy="9.4" r="1.8"/>
		<circle class="st1" cx="102.3" cy="9.4" r="1.8"/>
		<circle class="st1" cx="106.6" cy="9.4" r="1.8"/>
		<circle class="st1" cx="110.9" cy="9.4" r="1.8"/>
		<circle class="st1" cx="115.3" cy="9.4" r="1.8"/>
		<circle class="st1" cx="119.6" cy="9.4" r="1.8"/>
		<text transform="matrix(1 0 0 1 122.7007 10.5114)" class="st1 st2 st3">00</text>
		<text transform="matrix(1 0 0 1 4.9006 10.5114)" class="st1 st2 st3">00</text>
	</g>
</g>
</svg>
