<?xml version="1.0" encoding="utf-8"?>
<!-- Generator: Adobe Illustrator 23.0.1, SVG Export Plug-In . SVG Version: 6.00 Build 0)  -->
<svg version="1.1" id="Layer_1" xmlns="http://www.w3.org/2000/svg" xmlns:xlink="http://www.w3.org/1999/xlink" x="0px" y="0px"
	 viewBox="0 0 131 202" enable-background="new 0 0 131 202" xml:space="preserve">
<rect x="0.53" y="0.21" onclick="this.parentNode.a_fon=this;" fill="#F1F3F4" stroke="#BCC8CE" stroke-width="0.4" stroke-linecap="round" stroke-miterlimit="10" width="129.95" height="201.59"/>
<g>
	<circle fill="#AEBDC4" cx="37.39" cy="193.13" r="1.85"/>
	<circle fill="#AEBDC4" cx="41.71" cy="193.13" r="1.85"/>
	<circle fill="#AEBDC4" cx="46.03" cy="193.13" r="1.85"/>
	<circle fill="#AEBDC4" cx="50.35" cy="193.13" r="1.85"/>
	<circle fill="#AEBDC4" cx="54.67" cy="193.13" r="1.85"/>
	<circle fill="#AEBDC4" cx="58.99" cy="193.13" r="1.85"/>
	<circle fill="#AEBDC4" cx="63.32" cy="193.13" r="1.85"/>
	<circle fill="#AEBDC4" cx="67.64" cy="193.13" r="1.85"/>
	<circle fill="#AEBDC4" cx="71.96" cy="193.13" r="1.85"/>
	<circle fill="#AEBDC4" cx="76.29" cy="193.13" r="1.85"/>
	<circle fill="#AEBDC4" cx="80.62" cy="193.13" r="1.85"/>
	<circle fill="#AEBDC4" cx="84.95" cy="193.13" r="1.85"/>
	<circle fill="#AEBDC4" cx="89.28" cy="193.13" r="1.85"/>
	<circle fill="#AEBDC4" cx="93.61" cy="193.13" r="1.85"/>
	<circle fill="#AEBDC4" cx="97.94" cy="193.13" r="1.85"/>
	<circle fill="#AEBDC4" cx="102.27" cy="193.13" r="1.85"/>
	<circle fill="#AEBDC4" cx="106.6" cy="193.13" r="1.85"/>
	<circle fill="#AEBDC4" cx="110.93" cy="193.13" r="1.85"/>
	<circle fill="#AEBDC4" cx="115.26" cy="193.13" r="1.85"/>
	<circle fill="#AEBDC4" cx="119.6" cy="193.13" r="1.85"/>
</g>
<g>
	<circle fill="#AEBDC4" cx="11.4" cy="187.2" r="1.85"/>
	<circle fill="#AEBDC4" cx="15.73" cy="187.2" r="1.85"/>
	<circle fill="#AEBDC4" cx="20.05" cy="187.2" r="1.85"/>
	<circle fill="#AEBDC4" cx="24.37" cy="187.2" r="1.85"/>
	<circle fill="#AEBDC4" cx="28.69" cy="187.2" r="1.85"/>
	<circle fill="#AEBDC4" cx="33.01" cy="187.2" r="1.85"/>
	<circle fill="#AEBDC4" cx="37.33" cy="187.2" r="1.85"/>
	<circle fill="#AEBDC4" cx="41.65" cy="187.2" r="1.85"/>
	<circle fill="#AEBDC4" cx="45.97" cy="187.2" r="1.85"/>
	<circle fill="#AEBDC4" cx="50.3" cy="187.2" r="1.85"/>
	<circle fill="#AEBDC4" cx="54.64" cy="187.2" r="1.85"/>
	<circle fill="#AEBDC4" cx="58.97" cy="187.2" r="1.85"/>
	<circle fill="#AEBDC4" cx="63.3" cy="187.2" r="1.85"/>
	<circle fill="#AEBDC4" cx="67.63" cy="187.2" r="1.85"/>
	<circle fill="#AEBDC4" cx="71.96" cy="187.2" r="1.85"/>
	<circle fill="#AEBDC4" cx="76.29" cy="187.2" r="1.85"/>
	<circle fill="#AEBDC4" cx="80.62" cy="187.2" r="1.85"/>
	<circle fill="#AEBDC4" cx="84.95" cy="187.2" r="1.85"/>
	<circle fill="#AEBDC4" cx="89.28" cy="187.2" r="1.85"/>
	<circle fill="#AEBDC4" cx="93.61" cy="187.2" r="1.85"/>
	<circle fill="#AEBDC4" cx="97.94" cy="187.2" r="1.85"/>
	<circle fill="#AEBDC4" cx="102.27" cy="187.2" r="1.85"/>
	<circle fill="#AEBDC4" cx="106.6" cy="187.2" r="1.85"/>
	<circle fill="#AEBDC4" cx="110.93" cy="187.2" r="1.85"/>
	<circle fill="#AEBDC4" cx="115.26" cy="187.2" r="1.85"/>
	<circle fill="#AEBDC4" cx="119.6" cy="187.2" r="1.85"/>
</g>
<g>
	<circle fill="#AEBDC4" cx="11.4" cy="181.27" r="1.85"/>
	<circle fill="#AEBDC4" cx="15.73" cy="181.27" r="1.85"/>
	<circle fill="#AEBDC4" cx="20.05" cy="181.27" r="1.85"/>
	<circle fill="#AEBDC4" cx="24.37" cy="181.27" r="1.85"/>
	<circle fill="#AEBDC4" cx="28.69" cy="181.27" r="1.85"/>
	<circle fill="#AEBDC4" cx="33.01" cy="181.27" r="1.85"/>
	<circle fill="#AEBDC4" cx="37.33" cy="181.27" r="1.85"/>
	<circle fill="#AEBDC4" cx="41.65" cy="181.27" r="1.85"/>
	<circle fill="#AEBDC4" cx="45.97" cy="181.27" r="1.85"/>
	<circle fill="#AEBDC4" cx="50.3" cy="181.27" r="1.85"/>
	<circle fill="#AEBDC4" cx="54.64" cy="181.27" r="1.85"/>
	<circle fill="#AEBDC4" cx="58.97" cy="181.27" r="1.85"/>
	<circle fill="#AEBDC4" cx="63.3" cy="181.27" r="1.85"/>
	<circle fill="#AEBDC4" cx="67.63" cy="181.27" r="1.85"/>
	<circle fill="#AEBDC4" cx="71.96" cy="181.27" r="1.85"/>
	<circle fill="#AEBDC4" cx="76.29" cy="181.27" r="1.85"/>
	<circle fill="#AEBDC4" cx="80.62" cy="181.27" r="1.85"/>
	<circle fill="#AEBDC4" cx="84.95" cy="181.27" r="1.85"/>
	<circle fill="#AEBDC4" cx="89.28" cy="181.27" r="1.85"/>
	<circle fill="#AEBDC4" cx="93.61" cy="181.27" r="1.85"/>
	<circle fill="#AEBDC4" cx="97.94" cy="181.27" r="1.85"/>
	<circle fill="#AEBDC4" cx="102.27" cy="181.27" r="1.85"/>
	<circle fill="#AEBDC4" cx="106.6" cy="181.27" r="1.85"/>
	<circle fill="#AEBDC4" cx="110.93" cy="181.27" r="1.85"/>
	<circle fill="#AEBDC4" cx="115.26" cy="181.27" r="1.85"/>
	<circle fill="#AEBDC4" cx="119.6" cy="181.27" r="1.85"/>
</g>
<g>
	<circle fill="#AEBDC4" cx="11.4" cy="175.34" r="1.85"/>
	<circle fill="#AEBDC4" cx="15.73" cy="175.34" r="1.85"/>
	<circle fill="#AEBDC4" cx="20.05" cy="175.34" r="1.85"/>
	<circle fill="#AEBDC4" cx="24.37" cy="175.34" r="1.85"/>
	<circle fill="#AEBDC4" cx="28.69" cy="175.34" r="1.85"/>
	<circle fill="#AEBDC4" cx="33.01" cy="175.34" r="1.85"/>
	<circle fill="#AEBDC4" cx="37.33" cy="175.34" r="1.85"/>
	<circle fill="#AEBDC4" cx="41.65" cy="175.34" r="1.85"/>
	<circle fill="#AEBDC4" cx="45.97" cy="175.34" r="1.85"/>
	<circle fill="#AEBDC4" cx="50.3" cy="175.34" r="1.85"/>
	<circle fill="#AEBDC4" cx="54.64" cy="175.34" r="1.85"/>
	<circle fill="#AEBDC4" cx="58.97" cy="175.34" r="1.85"/>
	<circle fill="#AEBDC4" cx="63.3" cy="175.34" r="1.85"/>
	<circle fill="#AEBDC4" cx="67.63" cy="175.34" r="1.85"/>
	<circle fill="#AEBDC4" cx="71.96" cy="175.34" r="1.85"/>
	<circle fill="#AEBDC4" cx="76.29" cy="175.34" r="1.85"/>
	<circle fill="#AEBDC4" cx="80.62" cy="175.34" r="1.85"/>
	<circle fill="#AEBDC4" cx="84.95" cy="175.34" r="1.85"/>
	<circle fill="#AEBDC4" cx="89.28" cy="175.34" r="1.85"/>
	<circle fill="#AEBDC4" cx="93.61" cy="175.34" r="1.85"/>
	<circle fill="#AEBDC4" cx="97.94" cy="175.34" r="1.85"/>
	<circle fill="#AEBDC4" cx="102.27" cy="175.34" r="1.85"/>
	<circle fill="#AEBDC4" cx="106.6" cy="175.34" r="1.85"/>
	<circle fill="#AEBDC4" cx="110.93" cy="175.34" r="1.85"/>
	<circle fill="#AEBDC4" cx="115.26" cy="175.34" r="1.85"/>
	<circle fill="#AEBDC4" cx="119.6" cy="175.34" r="1.85"/>
</g>
<g>
	<circle fill="#AEBDC4" cx="11.4" cy="169.41" r="1.85"/>
	<circle fill="#AEBDC4" cx="15.73" cy="169.41" r="1.85"/>
	<circle fill="#AEBDC4" cx="20.05" cy="169.41" r="1.85"/>
	<circle fill="#AEBDC4" cx="24.37" cy="169.41" r="1.85"/>
	<circle fill="#AEBDC4" cx="28.69" cy="169.41" r="1.85"/>
	<circle fill="#AEBDC4" cx="33.01" cy="169.41" r="1.85"/>
	<circle fill="#AEBDC4" cx="37.33" cy="169.41" r="1.85"/>
	<circle fill="#AEBDC4" cx="41.65" cy="169.41" r="1.85"/>
	<circle fill="#AEBDC4" cx="45.97" cy="169.41" r="1.85"/>
	<circle fill="#AEBDC4" cx="50.3" cy="169.41" r="1.85"/>
	<circle fill="#AEBDC4" cx="54.64" cy="169.41" r="1.85"/>
	<circle fill="#AEBDC4" cx="58.97" cy="169.41" r="1.85"/>
	<circle fill="#AEBDC4" cx="63.3" cy="169.41" r="1.85"/>
	<circle fill="#AEBDC4" cx="67.63" cy="169.41" r="1.85"/>
	<circle fill="#AEBDC4" cx="71.96" cy="169.41" r="1.85"/>
	<circle fill="#AEBDC4" cx="76.29" cy="169.41" r="1.85"/>
	<circle fill="#AEBDC4" cx="80.62" cy="169.41" r="1.85"/>
	<circle fill="#AEBDC4" cx="84.95" cy="169.41" r="1.85"/>
	<circle fill="#AEBDC4" cx="89.28" cy="169.41" r="1.85"/>
	<circle fill="#AEBDC4" cx="93.61" cy="169.41" r="1.85"/>
	<circle fill="#AEBDC4" cx="97.94" cy="169.41" r="1.85"/>
	<circle fill="#AEBDC4" cx="102.27" cy="169.41" r="1.85"/>
	<circle fill="#AEBDC4" cx="106.6" cy="169.41" r="1.85"/>
	<circle fill="#AEBDC4" cx="110.93" cy="169.41" r="1.85"/>
	<circle fill="#AEBDC4" cx="115.26" cy="169.41" r="1.85"/>
	<circle fill="#AEBDC4" cx="119.6" cy="169.41" r="1.85"/>
</g>
<g>
	<circle fill="#AEBDC4" cx="11.4" cy="163.47" r="1.85"/>
	<circle fill="#AEBDC4" cx="15.73" cy="163.47" r="1.85"/>
	<circle fill="#AEBDC4" cx="20.05" cy="163.47" r="1.85"/>
	<circle fill="#AEBDC4" cx="24.37" cy="163.47" r="1.85"/>
	<circle fill="#AEBDC4" cx="28.69" cy="163.47" r="1.85"/>
	<circle fill="#AEBDC4" cx="33.01" cy="163.47" r="1.85"/>
	<circle fill="#AEBDC4" cx="37.33" cy="163.47" r="1.85"/>
	<circle fill="#AEBDC4" cx="41.65" cy="163.47" r="1.85"/>
	<circle fill="#AEBDC4" cx="45.97" cy="163.47" r="1.85"/>
	<circle fill="#AEBDC4" cx="50.3" cy="163.47" r="1.85"/>
	<circle fill="#AEBDC4" cx="54.64" cy="163.47" r="1.85"/>
	<circle fill="#AEBDC4" cx="58.97" cy="163.47" r="1.85"/>
	<circle fill="#AEBDC4" cx="63.3" cy="163.47" r="1.85"/>
	<circle fill="#AEBDC4" cx="67.63" cy="163.47" r="1.85"/>
	<circle fill="#AEBDC4" cx="71.96" cy="163.47" r="1.85"/>
	<circle fill="#AEBDC4" cx="76.29" cy="163.47" r="1.85"/>
	<circle fill="#AEBDC4" cx="80.62" cy="163.47" r="1.85"/>
	<circle fill="#AEBDC4" cx="84.95" cy="163.47" r="1.85"/>
	<circle fill="#AEBDC4" cx="89.28" cy="163.47" r="1.85"/>
	<circle fill="#AEBDC4" cx="93.61" cy="163.47" r="1.85"/>
	<circle fill="#AEBDC4" cx="97.94" cy="163.47" r="1.85"/>
	<circle fill="#AEBDC4" cx="102.27" cy="163.47" r="1.85"/>
	<circle fill="#AEBDC4" cx="106.6" cy="163.47" r="1.85"/>
	<circle fill="#AEBDC4" cx="110.93" cy="163.47" r="1.85"/>
	<circle fill="#AEBDC4" cx="115.26" cy="163.47" r="1.85"/>
	<circle fill="#AEBDC4" cx="119.6" cy="163.47" r="1.85"/>
</g>
<g>
	<circle fill="#AEBDC4" cx="11.4" cy="157.54" r="1.85"/>
	<circle fill="#AEBDC4" cx="15.73" cy="157.54" r="1.85"/>
	<circle fill="#AEBDC4" cx="20.05" cy="157.54" r="1.85"/>
	<circle fill="#AEBDC4" cx="24.37" cy="157.54" r="1.85"/>
	<circle fill="#AEBDC4" cx="28.69" cy="157.54" r="1.85"/>
	<circle fill="#AEBDC4" cx="33.01" cy="157.54" r="1.85"/>
	<circle fill="#AEBDC4" cx="37.33" cy="157.54" r="1.85"/>
	<circle fill="#AEBDC4" cx="41.65" cy="157.54" r="1.85"/>
	<circle fill="#AEBDC4" cx="45.97" cy="157.54" r="1.85"/>
	<circle fill="#AEBDC4" cx="50.3" cy="157.54" r="1.85"/>
	<circle fill="#AEBDC4" cx="54.64" cy="157.54" r="1.85"/>
	<circle fill="#AEBDC4" cx="58.97" cy="157.54" r="1.85"/>
	<circle fill="#AEBDC4" cx="63.3" cy="157.54" r="1.85"/>
	<circle fill="#AEBDC4" cx="67.63" cy="157.54" r="1.85"/>
	<circle fill="#AEBDC4" cx="71.96" cy="157.54" r="1.85"/>
	<circle fill="#AEBDC4" cx="76.29" cy="157.54" r="1.85"/>
	<circle fill="#AEBDC4" cx="80.62" cy="157.54" r="1.85"/>
	<circle fill="#AEBDC4" cx="84.95" cy="157.54" r="1.85"/>
	<circle fill="#AEBDC4" cx="89.28" cy="157.54" r="1.85"/>
	<circle fill="#AEBDC4" cx="93.61" cy="157.54" r="1.85"/>
	<circle fill="#AEBDC4" cx="97.94" cy="157.54" r="1.85"/>
	<circle fill="#AEBDC4" cx="102.27" cy="157.54" r="1.85"/>
	<circle fill="#AEBDC4" cx="106.6" cy="157.54" r="1.85"/>
	<circle fill="#AEBDC4" cx="110.93" cy="157.54" r="1.85"/>
	<circle fill="#AEBDC4" cx="115.26" cy="157.54" r="1.85"/>
	<circle fill="#AEBDC4" cx="119.6" cy="157.54" r="1.85"/>
</g>
<g>
	<circle fill="#AEBDC4" cx="11.4" cy="151.61" r="1.85"/>
	<circle fill="#AEBDC4" cx="15.73" cy="151.61" r="1.85"/>
	<circle fill="#AEBDC4" cx="20.05" cy="151.61" r="1.85"/>
	<circle fill="#AEBDC4" cx="24.37" cy="151.61" r="1.85"/>
	<circle fill="#AEBDC4" cx="28.69" cy="151.61" r="1.85"/>
	<circle fill="#AEBDC4" cx="33.01" cy="151.61" r="1.85"/>
	<circle fill="#AEBDC4" cx="37.33" cy="151.61" r="1.85"/>
	<circle fill="#AEBDC4" cx="41.65" cy="151.61" r="1.85"/>
	<circle fill="#AEBDC4" cx="45.97" cy="151.61" r="1.85"/>
	<circle fill="#AEBDC4" cx="50.3" cy="151.61" r="1.85"/>
	<circle fill="#AEBDC4" cx="54.64" cy="151.61" r="1.85"/>
	<circle fill="#AEBDC4" cx="58.97" cy="151.61" r="1.85"/>
	<circle fill="#AEBDC4" cx="63.3" cy="151.61" r="1.85"/>
	<circle fill="#AEBDC4" cx="67.63" cy="151.61" r="1.85"/>
	<circle fill="#AEBDC4" cx="71.96" cy="151.61" r="1.85"/>
	<circle fill="#AEBDC4" cx="76.29" cy="151.61" r="1.85"/>
	<circle fill="#AEBDC4" cx="80.62" cy="151.61" r="1.85"/>
	<circle fill="#AEBDC4" cx="84.95" cy="151.61" r="1.85"/>
	<circle fill="#AEBDC4" cx="89.28" cy="151.61" r="1.85"/>
	<circle fill="#AEBDC4" cx="93.61" cy="151.61" r="1.85"/>
	<circle fill="#AEBDC4" cx="97.94" cy="151.61" r="1.85"/>
	<circle fill="#AEBDC4" cx="102.27" cy="151.61" r="1.85"/>
	<circle fill="#AEBDC4" cx="106.6" cy="151.61" r="1.85"/>
	<circle fill="#AEBDC4" cx="110.93" cy="151.61" r="1.85"/>
	<circle fill="#AEBDC4" cx="115.26" cy="151.61" r="1.85"/>
	<circle fill="#AEBDC4" cx="119.6" cy="151.61" r="1.85"/>
</g>
<g>
	<circle fill="#AEBDC4" cx="11.4" cy="145.68" r="1.85"/>
	<circle fill="#AEBDC4" cx="15.73" cy="145.68" r="1.85"/>
	<circle fill="#AEBDC4" cx="20.05" cy="145.68" r="1.85"/>
	<circle fill="#AEBDC4" cx="24.37" cy="145.68" r="1.85"/>
	<circle fill="#AEBDC4" cx="28.69" cy="145.68" r="1.85"/>
	<circle fill="#AEBDC4" cx="33.01" cy="145.68" r="1.85"/>
	<circle fill="#AEBDC4" cx="37.33" cy="145.68" r="1.85"/>
	<circle fill="#AEBDC4" cx="41.65" cy="145.68" r="1.85"/>
	<circle fill="#AEBDC4" cx="45.97" cy="145.68" r="1.85"/>
	<circle fill="#AEBDC4" cx="50.3" cy="145.68" r="1.85"/>
	<circle fill="#AEBDC4" cx="54.64" cy="145.68" r="1.85"/>
	<circle fill="#AEBDC4" cx="58.97" cy="145.68" r="1.85"/>
	<circle fill="#AEBDC4" cx="63.3" cy="145.68" r="1.85"/>
	<circle fill="#AEBDC4" cx="67.63" cy="145.68" r="1.85"/>
	<circle fill="#AEBDC4" cx="71.96" cy="145.68" r="1.85"/>
	<circle fill="#AEBDC4" cx="76.29" cy="145.68" r="1.85"/>
	<circle fill="#AEBDC4" cx="80.62" cy="145.68" r="1.85"/>
	<circle fill="#AEBDC4" cx="84.95" cy="145.68" r="1.85"/>
	<circle fill="#AEBDC4" cx="89.28" cy="145.68" r="1.85"/>
	<circle fill="#AEBDC4" cx="93.61" cy="145.68" r="1.85"/>
	<circle fill="#AEBDC4" cx="97.94" cy="145.68" r="1.85"/>
	<circle fill="#AEBDC4" cx="102.27" cy="145.68" r="1.85"/>
	<circle fill="#AEBDC4" cx="106.6" cy="145.68" r="1.85"/>
	<circle fill="#AEBDC4" cx="110.93" cy="145.68" r="1.85"/>
	<circle fill="#AEBDC4" cx="115.26" cy="145.68" r="1.85"/>
	<circle fill="#AEBDC4" cx="119.6" cy="145.68" r="1.85"/>
</g>
<g>
	<circle fill="#AEBDC4" cx="11.4" cy="139.75" r="1.85"/>
	<circle fill="#AEBDC4" cx="15.73" cy="139.75" r="1.85"/>
	<circle fill="#AEBDC4" cx="20.05" cy="139.75" r="1.85"/>
	<circle fill="#AEBDC4" cx="24.37" cy="139.75" r="1.85"/>
	<circle fill="#AEBDC4" cx="28.69" cy="139.75" r="1.85"/>
	<circle fill="#AEBDC4" cx="33.01" cy="139.75" r="1.85"/>
	<circle fill="#AEBDC4" cx="37.33" cy="139.75" r="1.85"/>
	<circle fill="#AEBDC4" cx="41.65" cy="139.75" r="1.85"/>
	<circle fill="#AEBDC4" cx="45.97" cy="139.75" r="1.85"/>
	<circle fill="#AEBDC4" cx="50.3" cy="139.75" r="1.85"/>
	<circle fill="#AEBDC4" cx="54.64" cy="139.75" r="1.85"/>
	<circle fill="#AEBDC4" cx="58.97" cy="139.75" r="1.85"/>
	<circle fill="#AEBDC4" cx="63.3" cy="139.75" r="1.85"/>
	<circle fill="#AEBDC4" cx="67.63" cy="139.75" r="1.85"/>
	<circle fill="#AEBDC4" cx="71.96" cy="139.75" r="1.85"/>
	<circle fill="#AEBDC4" cx="76.29" cy="139.75" r="1.85"/>
	<circle fill="#AEBDC4" cx="80.62" cy="139.75" r="1.85"/>
	<circle fill="#AEBDC4" cx="84.95" cy="139.75" r="1.85"/>
	<circle fill="#AEBDC4" cx="89.28" cy="139.75" r="1.85"/>
	<circle fill="#AEBDC4" cx="93.61" cy="139.75" r="1.85"/>
	<circle fill="#AEBDC4" cx="97.94" cy="139.75" r="1.85"/>
	<circle fill="#AEBDC4" cx="102.27" cy="139.75" r="1.85"/>
	<circle fill="#AEBDC4" cx="106.6" cy="139.75" r="1.85"/>
	<circle fill="#AEBDC4" cx="110.93" cy="139.75" r="1.85"/>
	<circle fill="#AEBDC4" cx="115.26" cy="139.75" r="1.85"/>
	<circle fill="#AEBDC4" cx="119.6" cy="139.75" r="1.85"/>
</g>
<g>
	<circle fill="#AEBDC4" cx="11.4" cy="133.82" r="1.85"/>
	<circle fill="#AEBDC4" cx="15.73" cy="133.82" r="1.85"/>
	<circle fill="#AEBDC4" cx="20.05" cy="133.82" r="1.85"/>
	<circle fill="#AEBDC4" cx="24.37" cy="133.82" r="1.85"/>
	<circle fill="#AEBDC4" cx="28.69" cy="133.82" r="1.85"/>
	<circle fill="#AEBDC4" cx="33.01" cy="133.82" r="1.85"/>
	<circle fill="#AEBDC4" cx="37.33" cy="133.82" r="1.85"/>
	<circle fill="#AEBDC4" cx="41.65" cy="133.82" r="1.85"/>
	<circle fill="#AEBDC4" cx="45.97" cy="133.82" r="1.85"/>
	<circle fill="#AEBDC4" cx="50.3" cy="133.82" r="1.85"/>
	<circle fill="#AEBDC4" cx="54.64" cy="133.82" r="1.85"/>
	<circle fill="#AEBDC4" cx="58.97" cy="133.82" r="1.85"/>
	<circle fill="#AEBDC4" cx="63.3" cy="133.82" r="1.85"/>
	<circle fill="#AEBDC4" cx="67.63" cy="133.82" r="1.85"/>
	<circle fill="#AEBDC4" cx="71.96" cy="133.82" r="1.85"/>
	<circle fill="#AEBDC4" cx="76.29" cy="133.82" r="1.85"/>
	<circle fill="#AEBDC4" cx="80.62" cy="133.82" r="1.85"/>
	<circle fill="#AEBDC4" cx="84.95" cy="133.82" r="1.85"/>
	<circle fill="#AEBDC4" cx="89.28" cy="133.82" r="1.85"/>
	<circle fill="#AEBDC4" cx="93.61" cy="133.82" r="1.85"/>
	<circle fill="#AEBDC4" cx="97.94" cy="133.82" r="1.85"/>
	<circle fill="#AEBDC4" cx="102.27" cy="133.82" r="1.85"/>
	<circle fill="#AEBDC4" cx="106.6" cy="133.82" r="1.85"/>
	<circle fill="#AEBDC4" cx="110.93" cy="133.82" r="1.85"/>
	<circle fill="#AEBDC4" cx="115.26" cy="133.82" r="1.85"/>
	<circle fill="#AEBDC4" cx="119.6" cy="133.82" r="1.85"/>
</g>
<g>
	<circle fill="#AEBDC4" cx="11.4" cy="127.89" r="1.85"/>
	<circle fill="#AEBDC4" cx="15.73" cy="127.89" r="1.85"/>
	<circle fill="#AEBDC4" cx="20.05" cy="127.89" r="1.85"/>
	<circle fill="#AEBDC4" cx="24.37" cy="127.89" r="1.85"/>
	<circle fill="#AEBDC4" cx="28.69" cy="127.89" r="1.85"/>
	<circle fill="#AEBDC4" cx="33.01" cy="127.89" r="1.85"/>
	<circle fill="#AEBDC4" cx="37.33" cy="127.89" r="1.85"/>
	<circle fill="#AEBDC4" cx="41.65" cy="127.89" r="1.85"/>
	<circle fill="#AEBDC4" cx="45.97" cy="127.89" r="1.85"/>
	<circle fill="#AEBDC4" cx="50.3" cy="127.89" r="1.85"/>
	<circle fill="#AEBDC4" cx="54.64" cy="127.89" r="1.85"/>
	<circle fill="#AEBDC4" cx="58.97" cy="127.89" r="1.85"/>
	<circle fill="#AEBDC4" cx="63.3" cy="127.89" r="1.85"/>
	<circle fill="#AEBDC4" cx="67.63" cy="127.89" r="1.85"/>
	<circle fill="#AEBDC4" cx="71.96" cy="127.89" r="1.85"/>
	<circle fill="#AEBDC4" cx="76.29" cy="127.89" r="1.85"/>
	<circle fill="#AEBDC4" cx="80.62" cy="127.89" r="1.85"/>
	<circle fill="#AEBDC4" cx="84.95" cy="127.89" r="1.85"/>
	<circle fill="#AEBDC4" cx="89.28" cy="127.89" r="1.85"/>
	<circle fill="#AEBDC4" cx="93.61" cy="127.89" r="1.85"/>
	<circle fill="#AEBDC4" cx="97.94" cy="127.89" r="1.85"/>
	<circle fill="#AEBDC4" cx="102.27" cy="127.89" r="1.85"/>
	<circle fill="#AEBDC4" cx="106.6" cy="127.89" r="1.85"/>
	<circle fill="#AEBDC4" cx="110.93" cy="127.89" r="1.85"/>
	<circle fill="#AEBDC4" cx="115.26" cy="127.89" r="1.85"/>
	<circle fill="#AEBDC4" cx="119.6" cy="127.89" r="1.85"/>
</g>
<g>
	<circle fill="#AEBDC4" cx="11.4" cy="121.96" r="1.85"/>
	<circle fill="#AEBDC4" cx="15.73" cy="121.96" r="1.85"/>
	<circle fill="#AEBDC4" cx="20.05" cy="121.96" r="1.85"/>
	<circle fill="#AEBDC4" cx="24.37" cy="121.96" r="1.85"/>
	<circle fill="#AEBDC4" cx="28.69" cy="121.96" r="1.85"/>
	<circle fill="#AEBDC4" cx="33.01" cy="121.96" r="1.85"/>
	<circle fill="#AEBDC4" cx="37.33" cy="121.96" r="1.85"/>
	<circle fill="#AEBDC4" cx="41.65" cy="121.96" r="1.85"/>
	<circle fill="#AEBDC4" cx="45.97" cy="121.96" r="1.85"/>
	<circle fill="#AEBDC4" cx="50.3" cy="121.96" r="1.85"/>
	<circle fill="#AEBDC4" cx="54.64" cy="121.96" r="1.85"/>
	<circle fill="#AEBDC4" cx="58.97" cy="121.96" r="1.85"/>
	<circle fill="#AEBDC4" cx="63.3" cy="121.96" r="1.85"/>
	<circle fill="#AEBDC4" cx="67.63" cy="121.96" r="1.85"/>
	<circle fill="#AEBDC4" cx="71.96" cy="121.96" r="1.85"/>
	<circle fill="#AEBDC4" cx="76.29" cy="121.96" r="1.85"/>
	<circle fill="#AEBDC4" cx="80.62" cy="121.96" r="1.85"/>
	<circle fill="#AEBDC4" cx="84.95" cy="121.96" r="1.85"/>
	<circle fill="#AEBDC4" cx="89.28" cy="121.96" r="1.85"/>
	<circle fill="#AEBDC4" cx="93.61" cy="121.96" r="1.85"/>
	<circle fill="#AEBDC4" cx="97.94" cy="121.96" r="1.85"/>
	<circle fill="#AEBDC4" cx="102.27" cy="121.96" r="1.85"/>
	<circle fill="#AEBDC4" cx="106.6" cy="121.96" r="1.85"/>
	<circle fill="#AEBDC4" cx="110.93" cy="121.96" r="1.85"/>
	<circle fill="#AEBDC4" cx="115.26" cy="121.96" r="1.85"/>
	<circle fill="#AEBDC4" cx="119.6" cy="121.96" r="1.85"/>
</g>
<g>
	<circle fill="#AEBDC4" cx="11.4" cy="116.03" r="1.85"/>
	<circle fill="#AEBDC4" cx="15.73" cy="116.03" r="1.85"/>
	<circle fill="#AEBDC4" cx="20.05" cy="116.03" r="1.85"/>
	<circle fill="#AEBDC4" cx="24.37" cy="116.03" r="1.85"/>
	<circle fill="#AEBDC4" cx="28.69" cy="116.03" r="1.85"/>
	<circle fill="#AEBDC4" cx="33.01" cy="116.03" r="1.85"/>
	<circle fill="#AEBDC4" cx="37.33" cy="116.03" r="1.85"/>
	<circle fill="#AEBDC4" cx="41.65" cy="116.03" r="1.85"/>
	<circle fill="#AEBDC4" cx="45.97" cy="116.03" r="1.85"/>
	<circle fill="#AEBDC4" cx="50.3" cy="116.03" r="1.85"/>
	<circle fill="#AEBDC4" cx="54.64" cy="116.03" r="1.85"/>
	<circle fill="#AEBDC4" cx="58.97" cy="116.03" r="1.85"/>
	<circle fill="#AEBDC4" cx="63.3" cy="116.03" r="1.85"/>
	<circle fill="#AEBDC4" cx="67.63" cy="116.03" r="1.85"/>
	<circle fill="#AEBDC4" cx="71.96" cy="116.03" r="1.85"/>
	<circle fill="#AEBDC4" cx="76.29" cy="116.03" r="1.85"/>
	<circle fill="#AEBDC4" cx="80.62" cy="116.03" r="1.85"/>
	<circle fill="#AEBDC4" cx="84.95" cy="116.03" r="1.85"/>
	<circle fill="#AEBDC4" cx="89.28" cy="116.03" r="1.85"/>
	<circle fill="#AEBDC4" cx="93.61" cy="116.03" r="1.85"/>
	<circle fill="#AEBDC4" cx="97.94" cy="116.03" r="1.85"/>
	<circle fill="#AEBDC4" cx="102.27" cy="116.03" r="1.85"/>
	<circle fill="#AEBDC4" cx="106.6" cy="116.03" r="1.85"/>
	<circle fill="#AEBDC4" cx="110.93" cy="116.03" r="1.85"/>
	<circle fill="#AEBDC4" cx="115.26" cy="116.03" r="1.85"/>
	<circle fill="#AEBDC4" cx="119.6" cy="116.03" r="1.85"/>
</g>
<g>
	<circle fill="#AEBDC4" cx="11.4" cy="110.1" r="1.85"/>
	<circle fill="#AEBDC4" cx="15.73" cy="110.1" r="1.85"/>
	<circle fill="#AEBDC4" cx="20.05" cy="110.1" r="1.85"/>
	<circle fill="#AEBDC4" cx="24.37" cy="110.1" r="1.85"/>
	<circle fill="#AEBDC4" cx="28.69" cy="110.1" r="1.85"/>
	<circle fill="#AEBDC4" cx="33.01" cy="110.1" r="1.85"/>
	<circle fill="#AEBDC4" cx="37.33" cy="110.1" r="1.85"/>
	<circle fill="#AEBDC4" cx="41.65" cy="110.1" r="1.85"/>
	<circle fill="#AEBDC4" cx="45.97" cy="110.1" r="1.85"/>
	<circle fill="#AEBDC4" cx="50.3" cy="110.1" r="1.85"/>
	<circle fill="#AEBDC4" cx="54.64" cy="110.1" r="1.85"/>
	<circle fill="#AEBDC4" cx="58.97" cy="110.1" r="1.85"/>
	<circle fill="#AEBDC4" cx="63.3" cy="110.1" r="1.85"/>
	<circle fill="#AEBDC4" cx="67.63" cy="110.1" r="1.85"/>
	<circle fill="#AEBDC4" cx="71.96" cy="110.1" r="1.85"/>
	<circle fill="#AEBDC4" cx="76.29" cy="110.1" r="1.85"/>
	<circle fill="#AEBDC4" cx="80.62" cy="110.1" r="1.85"/>
	<circle fill="#AEBDC4" cx="84.95" cy="110.1" r="1.85"/>
	<circle fill="#AEBDC4" cx="89.28" cy="110.1" r="1.85"/>
	<circle fill="#AEBDC4" cx="93.61" cy="110.1" r="1.85"/>
	<circle fill="#AEBDC4" cx="97.94" cy="110.1" r="1.85"/>
	<circle fill="#AEBDC4" cx="102.27" cy="110.1" r="1.85"/>
	<circle fill="#AEBDC4" cx="106.6" cy="110.1" r="1.85"/>
	<circle fill="#AEBDC4" cx="110.93" cy="110.1" r="1.85"/>
	<circle fill="#AEBDC4" cx="115.26" cy="110.1" r="1.85"/>
	<circle fill="#AEBDC4" cx="119.6" cy="110.1" r="1.85"/>
</g>
<g>
	<circle fill="#AEBDC4" cx="11.4" cy="104.17" r="1.85"/>
	<circle fill="#AEBDC4" cx="15.73" cy="104.17" r="1.85"/>
	<circle fill="#AEBDC4" cx="20.05" cy="104.17" r="1.85"/>
	<circle fill="#AEBDC4" cx="24.37" cy="104.17" r="1.85"/>
	<circle fill="#AEBDC4" cx="28.69" cy="104.17" r="1.85"/>
	<circle fill="#AEBDC4" cx="33.01" cy="104.17" r="1.85"/>
	<circle fill="#AEBDC4" cx="37.33" cy="104.17" r="1.85"/>
	<circle fill="#AEBDC4" cx="41.65" cy="104.17" r="1.85"/>
	<circle fill="#AEBDC4" cx="45.97" cy="104.17" r="1.85"/>
	<circle fill="#AEBDC4" cx="50.3" cy="104.17" r="1.85"/>
	<circle fill="#AEBDC4" cx="54.64" cy="104.17" r="1.85"/>
	<circle fill="#AEBDC4" cx="58.97" cy="104.17" r="1.85"/>
	<circle fill="#AEBDC4" cx="63.3" cy="104.17" r="1.85"/>
	<circle fill="#AEBDC4" cx="67.63" cy="104.17" r="1.85"/>
	<circle fill="#AEBDC4" cx="71.96" cy="104.17" r="1.85"/>
	<circle fill="#AEBDC4" cx="76.29" cy="104.17" r="1.85"/>
	<circle fill="#AEBDC4" cx="80.62" cy="104.17" r="1.85"/>
	<circle fill="#AEBDC4" cx="84.95" cy="104.17" r="1.85"/>
	<circle fill="#AEBDC4" cx="89.28" cy="104.17" r="1.85"/>
	<circle fill="#AEBDC4" cx="93.61" cy="104.17" r="1.85"/>
	<circle fill="#AEBDC4" cx="97.94" cy="104.17" r="1.85"/>
	<circle fill="#AEBDC4" cx="102.27" cy="104.17" r="1.85"/>
</g>
<g>
	<circle fill="#AEBDC4" cx="11.4" cy="98.24" r="1.85"/>
	<circle fill="#AEBDC4" cx="15.73" cy="98.24" r="1.85"/>
	<circle fill="#AEBDC4" cx="20.05" cy="98.24" r="1.85"/>
	<circle fill="#AEBDC4" cx="24.37" cy="98.24" r="1.85"/>
	<circle fill="#AEBDC4" cx="28.69" cy="98.24" r="1.85"/>
	<circle fill="#AEBDC4" cx="33.01" cy="98.24" r="1.85"/>
	<circle fill="#AEBDC4" cx="37.33" cy="98.24" r="1.85"/>
	<circle fill="#AEBDC4" cx="41.65" cy="98.24" r="1.85"/>
	<circle fill="#AEBDC4" cx="45.97" cy="98.24" r="1.85"/>
	<circle fill="#AEBDC4" cx="50.3" cy="98.24" r="1.85"/>
	<circle fill="#AEBDC4" cx="54.64" cy="98.24" r="1.85"/>
	<circle fill="#AEBDC4" cx="58.97" cy="98.24" r="1.85"/>
	<circle fill="#AEBDC4" cx="63.3" cy="98.24" r="1.85"/>
	<circle fill="#AEBDC4" cx="67.63" cy="98.24" r="1.85"/>
	<circle fill="#AEBDC4" cx="71.96" cy="98.24" r="1.85"/>
	<circle fill="#AEBDC4" cx="76.29" cy="98.24" r="1.85"/>
	<circle fill="#AEBDC4" cx="80.62" cy="98.24" r="1.85"/>
	<circle fill="#AEBDC4" cx="84.95" cy="98.24" r="1.85"/>
	<circle fill="#AEBDC4" cx="89.28" cy="98.24" r="1.85"/>
	<circle fill="#AEBDC4" cx="93.61" cy="98.24" r="1.85"/>
	<circle fill="#AEBDC4" cx="97.94" cy="98.24" r="1.85"/>
	<circle fill="#AEBDC4" cx="102.27" cy="98.24" r="1.85"/>
</g>
<g>
	<circle fill="#AEBDC4" cx="11.4" cy="92.31" r="1.85"/>
	<circle fill="#AEBDC4" cx="15.73" cy="92.31" r="1.85"/>
	<circle fill="#AEBDC4" cx="20.05" cy="92.31" r="1.85"/>
	<circle fill="#AEBDC4" cx="24.37" cy="92.31" r="1.85"/>
	<circle fill="#AEBDC4" cx="28.69" cy="92.31" r="1.85"/>
	<circle fill="#AEBDC4" cx="33.01" cy="92.31" r="1.85"/>
	<circle fill="#AEBDC4" cx="37.33" cy="92.31" r="1.85"/>
	<circle fill="#AEBDC4" cx="41.65" cy="92.31" r="1.85"/>
	<circle fill="#AEBDC4" cx="45.97" cy="92.31" r="1.85"/>
	<circle fill="#AEBDC4" cx="50.3" cy="92.31" r="1.85"/>
	<circle fill="#AEBDC4" cx="54.64" cy="92.31" r="1.85"/>
	<circle fill="#AEBDC4" cx="58.97" cy="92.31" r="1.85"/>
	<circle fill="#AEBDC4" cx="63.3" cy="92.31" r="1.85"/>
	<circle fill="#AEBDC4" cx="67.63" cy="92.31" r="1.85"/>
	<circle fill="#AEBDC4" cx="71.96" cy="92.31" r="1.85"/>
	<circle fill="#AEBDC4" cx="76.29" cy="92.31" r="1.85"/>
	<circle fill="#AEBDC4" cx="80.62" cy="92.31" r="1.85"/>
	<circle fill="#AEBDC4" cx="84.95" cy="92.31" r="1.85"/>
	<circle fill="#AEBDC4" cx="89.28" cy="92.31" r="1.85"/>
	<circle fill="#AEBDC4" cx="93.61" cy="92.31" r="1.85"/>
	<circle fill="#AEBDC4" cx="97.94" cy="92.31" r="1.85"/>
	<circle fill="#AEBDC4" cx="102.27" cy="92.31" r="1.85"/>
</g>
<g>
	<circle fill="#AEBDC4" cx="11.4" cy="86.37" r="1.85"/>
	<circle fill="#AEBDC4" cx="15.73" cy="86.37" r="1.85"/>
	<circle fill="#AEBDC4" cx="20.05" cy="86.37" r="1.85"/>
	<circle fill="#AEBDC4" cx="24.37" cy="86.37" r="1.85"/>
	<circle fill="#AEBDC4" cx="28.69" cy="86.37" r="1.85"/>
	<circle fill="#AEBDC4" cx="33.01" cy="86.37" r="1.85"/>
	<circle fill="#AEBDC4" cx="37.33" cy="86.37" r="1.85"/>
	<circle fill="#AEBDC4" cx="41.65" cy="86.37" r="1.85"/>
	<circle fill="#AEBDC4" cx="45.97" cy="86.37" r="1.85"/>
	<circle fill="#AEBDC4" cx="50.3" cy="86.37" r="1.85"/>
	<circle fill="#AEBDC4" cx="54.64" cy="86.37" r="1.85"/>
	<circle fill="#AEBDC4" cx="58.97" cy="86.37" r="1.85"/>
	<circle fill="#AEBDC4" cx="63.3" cy="86.37" r="1.85"/>
	<circle fill="#AEBDC4" cx="67.63" cy="86.37" r="1.85"/>
	<circle fill="#AEBDC4" cx="71.96" cy="86.37" r="1.85"/>
	<circle fill="#AEBDC4" cx="76.29" cy="86.37" r="1.85"/>
	<circle fill="#AEBDC4" cx="80.62" cy="86.37" r="1.85"/>
	<circle fill="#AEBDC4" cx="84.95" cy="86.37" r="1.85"/>
	<circle fill="#AEBDC4" cx="89.28" cy="86.37" r="1.85"/>
	<circle fill="#AEBDC4" cx="93.61" cy="86.37" r="1.85"/>
	<circle fill="#AEBDC4" cx="97.94" cy="86.37" r="1.85"/>
	<circle fill="#AEBDC4" cx="102.27" cy="86.37" r="1.85"/>
</g>
<g>
	<circle fill="#AEBDC4" cx="11.4" cy="80.44" r="1.85"/>
	<circle fill="#AEBDC4" cx="15.73" cy="80.44" r="1.85"/>
	<circle fill="#AEBDC4" cx="20.05" cy="80.44" r="1.85"/>
	<circle fill="#AEBDC4" cx="24.37" cy="80.44" r="1.85"/>
	<circle fill="#AEBDC4" cx="28.69" cy="80.44" r="1.85"/>
	<circle fill="#AEBDC4" cx="33.01" cy="80.44" r="1.85"/>
	<circle fill="#AEBDC4" cx="37.33" cy="80.44" r="1.85"/>
	<circle fill="#AEBDC4" cx="41.65" cy="80.44" r="1.85"/>
	<circle fill="#AEBDC4" cx="45.97" cy="80.44" r="1.85"/>
	<circle fill="#AEBDC4" cx="50.3" cy="80.44" r="1.85"/>
	<circle fill="#AEBDC4" cx="54.64" cy="80.44" r="1.85"/>
	<circle fill="#AEBDC4" cx="58.97" cy="80.44" r="1.85"/>
	<circle fill="#AEBDC4" cx="63.3" cy="80.44" r="1.85"/>
	<circle fill="#AEBDC4" cx="67.63" cy="80.44" r="1.85"/>
	<circle fill="#AEBDC4" cx="71.96" cy="80.44" r="1.85"/>
	<circle fill="#AEBDC4" cx="76.29" cy="80.44" r="1.85"/>
	<circle fill="#AEBDC4" cx="80.62" cy="80.44" r="1.85"/>
	<circle fill="#AEBDC4" cx="84.95" cy="80.44" r="1.85"/>
	<circle fill="#AEBDC4" cx="89.28" cy="80.44" r="1.85"/>
	<circle fill="#AEBDC4" cx="93.61" cy="80.44" r="1.85"/>
	<circle fill="#AEBDC4" cx="97.94" cy="80.44" r="1.85"/>
	<circle fill="#AEBDC4" cx="102.27" cy="80.44" r="1.85"/>
</g>
<g>
	<circle fill="#AEBDC4" cx="11.4" cy="74.51" r="1.85"/>
	<circle fill="#AEBDC4" cx="15.73" cy="74.51" r="1.85"/>
	<circle fill="#AEBDC4" cx="20.05" cy="74.51" r="1.85"/>
	<circle fill="#AEBDC4" cx="24.37" cy="74.51" r="1.85"/>
	<circle fill="#AEBDC4" cx="28.69" cy="74.51" r="1.85"/>
	<circle fill="#AEBDC4" cx="33.01" cy="74.51" r="1.85"/>
	<circle fill="#AEBDC4" cx="37.33" cy="74.51" r="1.85"/>
	<circle fill="#AEBDC4" cx="41.65" cy="74.51" r="1.85"/>
	<circle fill="#AEBDC4" cx="45.97" cy="74.51" r="1.85"/>
	<circle fill="#AEBDC4" cx="50.3" cy="74.51" r="1.85"/>
	<circle fill="#AEBDC4" cx="54.64" cy="74.51" r="1.85"/>
	<circle fill="#AEBDC4" cx="58.97" cy="74.51" r="1.85"/>
	<circle fill="#AEBDC4" cx="63.3" cy="74.51" r="1.85"/>
	<circle fill="#AEBDC4" cx="67.63" cy="74.51" r="1.85"/>
	<circle fill="#AEBDC4" cx="71.96" cy="74.51" r="1.85"/>
	<circle fill="#AEBDC4" cx="76.29" cy="74.51" r="1.85"/>
	<circle fill="#AEBDC4" cx="80.62" cy="74.51" r="1.85"/>
	<circle fill="#AEBDC4" cx="84.95" cy="74.51" r="1.85"/>
	<circle fill="#AEBDC4" cx="89.28" cy="74.51" r="1.85"/>
	<circle fill="#AEBDC4" cx="93.61" cy="74.51" r="1.85"/>
	<circle fill="#AEBDC4" cx="97.94" cy="74.51" r="1.85"/>
	<circle fill="#AEBDC4" cx="102.27" cy="74.51" r="1.85"/>
	<circle fill="#AEBDC4" cx="106.6" cy="74.51" r="1.85"/>
	<circle fill="#AEBDC4" cx="110.93" cy="74.51" r="1.85"/>
	<circle fill="#AEBDC4" cx="115.26" cy="74.51" r="1.85"/>
	<circle fill="#AEBDC4" cx="119.6" cy="74.51" r="1.85"/>
</g>
<g>
	<circle fill="#AEBDC4" cx="11.4" cy="68.58" r="1.85"/>
	<circle fill="#AEBDC4" cx="15.73" cy="68.58" r="1.85"/>
	<circle fill="#AEBDC4" cx="20.05" cy="68.58" r="1.85"/>
	<circle fill="#AEBDC4" cx="24.37" cy="68.58" r="1.85"/>
	<circle fill="#AEBDC4" cx="28.69" cy="68.58" r="1.85"/>
	<circle fill="#AEBDC4" cx="33.01" cy="68.58" r="1.85"/>
	<circle fill="#AEBDC4" cx="37.33" cy="68.58" r="1.85"/>
	<circle fill="#AEBDC4" cx="41.65" cy="68.58" r="1.85"/>
	<circle fill="#AEBDC4" cx="45.97" cy="68.58" r="1.85"/>
	<circle fill="#AEBDC4" cx="50.3" cy="68.58" r="1.85"/>
	<circle fill="#AEBDC4" cx="54.64" cy="68.58" r="1.85"/>
	<circle fill="#AEBDC4" cx="58.97" cy="68.58" r="1.85"/>
	<circle fill="#AEBDC4" cx="63.3" cy="68.58" r="1.85"/>
	<circle fill="#AEBDC4" cx="67.63" cy="68.58" r="1.85"/>
	<circle fill="#AEBDC4" cx="71.96" cy="68.58" r="1.85"/>
	<circle fill="#AEBDC4" cx="76.29" cy="68.58" r="1.85"/>
	<circle fill="#AEBDC4" cx="80.62" cy="68.58" r="1.85"/>
	<circle fill="#AEBDC4" cx="84.95" cy="68.58" r="1.85"/>
	<circle fill="#AEBDC4" cx="89.28" cy="68.58" r="1.85"/>
	<circle fill="#AEBDC4" cx="93.61" cy="68.58" r="1.85"/>
	<circle fill="#AEBDC4" cx="97.94" cy="68.58" r="1.85"/>
	<circle fill="#AEBDC4" cx="102.27" cy="68.58" r="1.85"/>
	<circle fill="#AEBDC4" cx="106.6" cy="68.58" r="1.85"/>
	<circle fill="#AEBDC4" cx="110.93" cy="68.58" r="1.85"/>
	<circle fill="#AEBDC4" cx="115.26" cy="68.58" r="1.85"/>
	<circle fill="#AEBDC4" cx="119.6" cy="68.58" r="1.85"/>
</g>
<g>
	<circle fill="#AEBDC4" cx="20.07" cy="62.65" r="1.85"/>
	<circle fill="#AEBDC4" cx="24.39" cy="62.65" r="1.85"/>
	<circle fill="#AEBDC4" cx="28.71" cy="62.65" r="1.85"/>
	<circle fill="#AEBDC4" cx="33.03" cy="62.65" r="1.85"/>
	<circle fill="#AEBDC4" cx="37.35" cy="62.65" r="1.85"/>
	<circle fill="#AEBDC4" cx="41.67" cy="62.65" r="1.85"/>
	<circle fill="#AEBDC4" cx="45.99" cy="62.65" r="1.85"/>
	<circle fill="#AEBDC4" cx="50.31" cy="62.65" r="1.85"/>
	<circle fill="#AEBDC4" cx="54.64" cy="62.65" r="1.85"/>
	<circle fill="#AEBDC4" cx="58.97" cy="62.65" r="1.85"/>
	<circle fill="#AEBDC4" cx="63.3" cy="62.65" r="1.85"/>
	<circle fill="#AEBDC4" cx="67.63" cy="62.65" r="1.85"/>
	<circle fill="#AEBDC4" cx="71.96" cy="62.65" r="1.85"/>
	<circle fill="#AEBDC4" cx="76.29" cy="62.65" r="1.85"/>
	<circle fill="#AEBDC4" cx="80.62" cy="62.65" r="1.85"/>
	<circle fill="#AEBDC4" cx="84.95" cy="62.65" r="1.85"/>
	<circle fill="#AEBDC4" cx="89.28" cy="62.65" r="1.85"/>
	<circle fill="#AEBDC4" cx="93.61" cy="62.65" r="1.85"/>
	<circle fill="#AEBDC4" cx="97.94" cy="62.65" r="1.85"/>
	<circle fill="#AEBDC4" cx="102.27" cy="62.65" r="1.85"/>
	<circle fill="#AEBDC4" cx="106.6" cy="62.65" r="1.85"/>
	<circle fill="#AEBDC4" cx="110.93" cy="62.65" r="1.85"/>
	<circle fill="#AEBDC4" cx="115.26" cy="62.65" r="1.85"/>
	<circle fill="#AEBDC4" cx="119.6" cy="62.65" r="1.85"/>
</g>
<g>
	<circle fill="#AEBDC4" cx="20.07" cy="56.72" r="1.85"/>
	<circle fill="#AEBDC4" cx="24.39" cy="56.72" r="1.85"/>
	<circle fill="#AEBDC4" cx="28.71" cy="56.72" r="1.85"/>
	<circle fill="#AEBDC4" cx="33.03" cy="56.72" r="1.85"/>
	<circle fill="#AEBDC4" cx="37.35" cy="56.72" r="1.85"/>
	<circle fill="#AEBDC4" cx="41.67" cy="56.72" r="1.85"/>
	<circle fill="#AEBDC4" cx="45.99" cy="56.72" r="1.85"/>
	<circle fill="#AEBDC4" cx="50.31" cy="56.72" r="1.85"/>
	<circle fill="#AEBDC4" cx="54.64" cy="56.72" r="1.85"/>
	<circle fill="#AEBDC4" cx="58.97" cy="56.72" r="1.85"/>
	<circle fill="#AEBDC4" cx="63.3" cy="56.72" r="1.85"/>
	<circle fill="#AEBDC4" cx="67.63" cy="56.72" r="1.85"/>
	<circle fill="#AEBDC4" cx="71.96" cy="56.72" r="1.85"/>
	<circle fill="#AEBDC4" cx="76.29" cy="56.72" r="1.85"/>
	<circle fill="#AEBDC4" cx="80.62" cy="56.72" r="1.85"/>
	<circle fill="#AEBDC4" cx="84.95" cy="56.72" r="1.85"/>
	<circle fill="#AEBDC4" cx="89.28" cy="56.72" r="1.85"/>
	<circle fill="#AEBDC4" cx="93.61" cy="56.72" r="1.85"/>
	<circle fill="#AEBDC4" cx="97.94" cy="56.72" r="1.85"/>
	<circle fill="#AEBDC4" cx="102.27" cy="56.72" r="1.85"/>
	<circle fill="#AEBDC4" cx="106.6" cy="56.72" r="1.85"/>
	<circle fill="#AEBDC4" cx="110.93" cy="56.72" r="1.85"/>
	<circle fill="#AEBDC4" cx="115.26" cy="56.72" r="1.85"/>
	<circle fill="#AEBDC4" cx="119.6" cy="56.72" r="1.85"/>
</g>
<g>
	<circle fill="#AEBDC4" cx="20.07" cy="50.79" r="1.85"/>
	<circle fill="#AEBDC4" cx="24.39" cy="50.79" r="1.85"/>
	<circle fill="#AEBDC4" cx="28.71" cy="50.79" r="1.85"/>
	<circle fill="#AEBDC4" cx="33.03" cy="50.79" r="1.85"/>
	<circle fill="#AEBDC4" cx="37.35" cy="50.79" r="1.85"/>
	<circle fill="#AEBDC4" cx="41.67" cy="50.79" r="1.85"/>
	<circle fill="#AEBDC4" cx="45.99" cy="50.79" r="1.85"/>
	<circle fill="#AEBDC4" cx="50.31" cy="50.79" r="1.85"/>
	<circle fill="#AEBDC4" cx="54.64" cy="50.79" r="1.85"/>
	<circle fill="#AEBDC4" cx="58.97" cy="50.79" r="1.85"/>
	<circle fill="#AEBDC4" cx="63.3" cy="50.79" r="1.85"/>
	<circle fill="#AEBDC4" cx="67.63" cy="50.79" r="1.85"/>
	<circle fill="#AEBDC4" cx="71.96" cy="50.79" r="1.85"/>
	<circle fill="#AEBDC4" cx="76.29" cy="50.79" r="1.85"/>
	<circle fill="#AEBDC4" cx="80.62" cy="50.79" r="1.85"/>
	<circle fill="#AEBDC4" cx="84.95" cy="50.79" r="1.85"/>
	<circle fill="#AEBDC4" cx="89.28" cy="50.79" r="1.85"/>
	<circle fill="#AEBDC4" cx="93.61" cy="50.79" r="1.85"/>
	<circle fill="#AEBDC4" cx="97.94" cy="50.79" r="1.85"/>
	<circle fill="#AEBDC4" cx="102.27" cy="50.79" r="1.85"/>
	<circle fill="#AEBDC4" cx="106.6" cy="50.79" r="1.85"/>
	<circle fill="#AEBDC4" cx="110.93" cy="50.79" r="1.85"/>
	<circle fill="#AEBDC4" cx="115.26" cy="50.79" r="1.85"/>
	<circle fill="#AEBDC4" cx="119.6" cy="50.79" r="1.85"/>
</g>
<g>
	<circle fill="#AEBDC4" cx="20.07" cy="44.86" r="1.85"/>
	<circle fill="#AEBDC4" cx="24.39" cy="44.86" r="1.85"/>
	<circle fill="#AEBDC4" cx="28.71" cy="44.86" r="1.85"/>
	<circle fill="#AEBDC4" cx="33.03" cy="44.86" r="1.85"/>
	<circle fill="#AEBDC4" cx="37.35" cy="44.86" r="1.85"/>
	<circle fill="#AEBDC4" cx="41.67" cy="44.86" r="1.85"/>
	<circle fill="#AEBDC4" cx="45.99" cy="44.86" r="1.85"/>
	<circle fill="#AEBDC4" cx="50.31" cy="44.86" r="1.85"/>
	<circle fill="#AEBDC4" cx="54.64" cy="44.86" r="1.85"/>
	<circle fill="#AEBDC4" cx="58.97" cy="44.86" r="1.85"/>
	<circle fill="#AEBDC4" cx="63.3" cy="44.86" r="1.85"/>
	<circle fill="#AEBDC4" cx="67.63" cy="44.86" r="1.85"/>
	<circle fill="#AEBDC4" cx="71.96" cy="44.86" r="1.85"/>
	<circle fill="#AEBDC4" cx="76.29" cy="44.86" r="1.85"/>
	<circle fill="#AEBDC4" cx="80.62" cy="44.86" r="1.85"/>
	<circle fill="#AEBDC4" cx="84.95" cy="44.86" r="1.85"/>
	<circle fill="#AEBDC4" cx="89.28" cy="44.86" r="1.85"/>
	<circle fill="#AEBDC4" cx="93.61" cy="44.86" r="1.85"/>
	<circle fill="#AEBDC4" cx="97.94" cy="44.86" r="1.85"/>
	<circle fill="#AEBDC4" cx="102.27" cy="44.86" r="1.85"/>
	<circle fill="#AEBDC4" cx="106.6" cy="44.86" r="1.85"/>
	<circle fill="#AEBDC4" cx="110.93" cy="44.86" r="1.85"/>
	<circle fill="#AEBDC4" cx="115.26" cy="44.86" r="1.85"/>
	<circle fill="#AEBDC4" cx="119.6" cy="44.86" r="1.85"/>
</g>
<g>
	<circle fill="#AEBDC4" cx="20.07" cy="38.93" r="1.85"/>
	<circle fill="#AEBDC4" cx="24.39" cy="38.93" r="1.85"/>
	<circle fill="#AEBDC4" cx="28.71" cy="38.93" r="1.85"/>
	<circle fill="#AEBDC4" cx="33.03" cy="38.93" r="1.85"/>
	<circle fill="#AEBDC4" cx="37.35" cy="38.93" r="1.85"/>
	<circle fill="#AEBDC4" cx="41.67" cy="38.93" r="1.85"/>
	<circle fill="#AEBDC4" cx="45.99" cy="38.93" r="1.85"/>
	<circle fill="#AEBDC4" cx="50.31" cy="38.93" r="1.85"/>
	<circle fill="#AEBDC4" cx="54.64" cy="38.93" r="1.85"/>
	<circle fill="#AEBDC4" cx="58.97" cy="38.93" r="1.85"/>
	<circle fill="#AEBDC4" cx="63.3" cy="38.93" r="1.85"/>
	<circle fill="#AEBDC4" cx="67.63" cy="38.93" r="1.85"/>
	<circle fill="#AEBDC4" cx="71.96" cy="38.93" r="1.85"/>
	<circle fill="#AEBDC4" cx="76.29" cy="38.93" r="1.85"/>
	<circle fill="#AEBDC4" cx="80.62" cy="38.93" r="1.85"/>
	<circle fill="#AEBDC4" cx="84.95" cy="38.93" r="1.85"/>
	<circle fill="#AEBDC4" cx="89.28" cy="38.93" r="1.85"/>
	<circle fill="#AEBDC4" cx="93.61" cy="38.93" r="1.85"/>
	<circle fill="#AEBDC4" cx="97.94" cy="38.93" r="1.85"/>
	<circle fill="#AEBDC4" cx="102.27" cy="38.93" r="1.85"/>
	<circle fill="#AEBDC4" cx="106.6" cy="38.93" r="1.85"/>
	<circle fill="#AEBDC4" cx="110.93" cy="38.93" r="1.85"/>
	<circle fill="#AEBDC4" cx="115.26" cy="38.93" r="1.85"/>
	<circle fill="#AEBDC4" cx="119.6" cy="38.93" r="1.85"/>
</g>
<g>
	<circle fill="#AEBDC4" cx="11.4" cy="33" r="1.85"/>
	<circle fill="#AEBDC4" cx="15.73" cy="33" r="1.85"/>
	<circle fill="#AEBDC4" cx="20.05" cy="33" r="1.85"/>
	<circle fill="#AEBDC4" cx="24.37" cy="33" r="1.85"/>
	<circle fill="#AEBDC4" cx="28.69" cy="33" r="1.85"/>
	<circle fill="#AEBDC4" cx="33.01" cy="33" r="1.85"/>
	<circle fill="#AEBDC4" cx="37.33" cy="33" r="1.85"/>
	<circle fill="#AEBDC4" cx="41.65" cy="33" r="1.85"/>
	<circle fill="#AEBDC4" cx="45.97" cy="33" r="1.85"/>
	<circle fill="#AEBDC4" cx="50.3" cy="33" r="1.85"/>
	<circle fill="#AEBDC4" cx="54.64" cy="33" r="1.85"/>
	<circle fill="#AEBDC4" cx="58.97" cy="33" r="1.85"/>
	<circle fill="#AEBDC4" cx="63.3" cy="33" r="1.85"/>
	<circle fill="#AEBDC4" cx="67.63" cy="33" r="1.85"/>
	<circle fill="#AEBDC4" cx="71.96" cy="33" r="1.85"/>
	<circle fill="#AEBDC4" cx="76.29" cy="33" r="1.85"/>
	<circle fill="#AEBDC4" cx="80.62" cy="33" r="1.85"/>
	<circle fill="#AEBDC4" cx="84.95" cy="33" r="1.85"/>
	<circle fill="#AEBDC4" cx="89.28" cy="33" r="1.85"/>
	<circle fill="#AEBDC4" cx="93.61" cy="33" r="1.85"/>
	<circle fill="#AEBDC4" cx="97.94" cy="33" r="1.85"/>
	<circle fill="#AEBDC4" cx="102.27" cy="33" r="1.85"/>
	<circle fill="#AEBDC4" cx="106.6" cy="33" r="1.85"/>
	<circle fill="#AEBDC4" cx="110.93" cy="33" r="1.85"/>
	<circle fill="#AEBDC4" cx="115.26" cy="33" r="1.85"/>
	<circle fill="#AEBDC4" cx="119.6" cy="33" r="1.85"/>
</g>
<g>
	<circle fill="#AEBDC4" cx="11.4" cy="27.07" r="1.85"/>
	<circle fill="#AEBDC4" cx="15.73" cy="27.07" r="1.85"/>
	<circle fill="#AEBDC4" cx="20.05" cy="27.07" r="1.85"/>
	<circle fill="#AEBDC4" cx="24.37" cy="27.07" r="1.85"/>
	<circle fill="#AEBDC4" cx="28.69" cy="27.07" r="1.85"/>
	<circle fill="#AEBDC4" cx="33.01" cy="27.07" r="1.85"/>
	<circle fill="#AEBDC4" cx="37.33" cy="27.07" r="1.85"/>
	<circle fill="#AEBDC4" cx="41.65" cy="27.07" r="1.85"/>
	<circle fill="#AEBDC4" cx="45.97" cy="27.07" r="1.85"/>
	<circle fill="#AEBDC4" cx="50.3" cy="27.07" r="1.85"/>
	<circle fill="#AEBDC4" cx="54.64" cy="27.07" r="1.85"/>
	<circle fill="#AEBDC4" cx="58.97" cy="27.07" r="1.85"/>
	<circle fill="#AEBDC4" cx="63.3" cy="27.07" r="1.85"/>
	<circle fill="#AEBDC4" cx="67.63" cy="27.07" r="1.85"/>
	<circle fill="#AEBDC4" cx="71.96" cy="27.07" r="1.85"/>
	<circle fill="#AEBDC4" cx="76.29" cy="27.07" r="1.85"/>
	<circle fill="#AEBDC4" cx="80.62" cy="27.07" r="1.85"/>
	<circle fill="#AEBDC4" cx="84.95" cy="27.07" r="1.85"/>
	<circle fill="#AEBDC4" cx="89.28" cy="27.07" r="1.85"/>
	<circle fill="#AEBDC4" cx="93.61" cy="27.07" r="1.85"/>
	<circle fill="#AEBDC4" cx="97.94" cy="27.07" r="1.85"/>
	<circle fill="#AEBDC4" cx="102.27" cy="27.07" r="1.85"/>
	<circle fill="#AEBDC4" cx="106.6" cy="27.07" r="1.85"/>
	<circle fill="#AEBDC4" cx="110.93" cy="27.07" r="1.85"/>
	<circle fill="#AEBDC4" cx="115.26" cy="27.07" r="1.85"/>
	<circle fill="#AEBDC4" cx="119.6" cy="27.07" r="1.85"/>
</g>
<g>
	<circle fill="#AEBDC4" cx="11.4" cy="21.14" r="1.85"/>
	<circle fill="#AEBDC4" cx="15.73" cy="21.14" r="1.85"/>
	<circle fill="#AEBDC4" cx="20.05" cy="21.14" r="1.85"/>
	<circle fill="#AEBDC4" cx="24.37" cy="21.14" r="1.85"/>
	<circle fill="#AEBDC4" cx="28.69" cy="21.14" r="1.85"/>
	<circle fill="#AEBDC4" cx="33.01" cy="21.14" r="1.85"/>
	<circle fill="#AEBDC4" cx="37.33" cy="21.14" r="1.85"/>
	<circle fill="#AEBDC4" cx="41.65" cy="21.14" r="1.85"/>
	<circle fill="#AEBDC4" cx="45.97" cy="21.14" r="1.85"/>
	<circle fill="#AEBDC4" cx="50.3" cy="21.14" r="1.85"/>
	<circle fill="#AEBDC4" cx="54.64" cy="21.14" r="1.85"/>
	<circle fill="#AEBDC4" cx="58.97" cy="21.14" r="1.85"/>
	<circle fill="#AEBDC4" cx="63.3" cy="21.14" r="1.85"/>
	<circle fill="#AEBDC4" cx="67.63" cy="21.14" r="1.85"/>
	<circle fill="#AEBDC4" cx="71.96" cy="21.14" r="1.85"/>
	<circle fill="#AEBDC4" cx="76.29" cy="21.14" r="1.85"/>
	<circle fill="#AEBDC4" cx="80.62" cy="21.14" r="1.85"/>
	<circle fill="#AEBDC4" cx="84.95" cy="21.14" r="1.85"/>
	<circle fill="#AEBDC4" cx="89.28" cy="21.14" r="1.85"/>
	<circle fill="#AEBDC4" cx="93.61" cy="21.14" r="1.85"/>
	<circle fill="#AEBDC4" cx="97.94" cy="21.14" r="1.85"/>
	<circle fill="#AEBDC4" cx="102.27" cy="21.14" r="1.85"/>
	<circle fill="#AEBDC4" cx="106.6" cy="21.14" r="1.85"/>
	<circle fill="#AEBDC4" cx="110.93" cy="21.14" r="1.85"/>
	<circle fill="#AEBDC4" cx="115.26" cy="21.14" r="1.85"/>
	<circle fill="#AEBDC4" cx="119.6" cy="21.14" r="1.85"/>
</g>
<g>
	<circle fill="#AEBDC4" cx="11.4" cy="15.2" r="1.85"/>
	<circle fill="#AEBDC4" cx="15.73" cy="15.2" r="1.85"/>
	<circle fill="#AEBDC4" cx="20.05" cy="15.2" r="1.85"/>
	<circle fill="#AEBDC4" cx="24.37" cy="15.2" r="1.85"/>
	<circle fill="#AEBDC4" cx="28.69" cy="15.2" r="1.85"/>
	<circle fill="#AEBDC4" cx="33.01" cy="15.2" r="1.85"/>
	<circle fill="#AEBDC4" cx="37.33" cy="15.2" r="1.85"/>
	<circle fill="#AEBDC4" cx="41.65" cy="15.2" r="1.85"/>
	<circle fill="#AEBDC4" cx="45.97" cy="15.2" r="1.85"/>
	<circle fill="#AEBDC4" cx="50.3" cy="15.2" r="1.85"/>
	<circle fill="#AEBDC4" cx="54.64" cy="15.2" r="1.85"/>
	<circle fill="#AEBDC4" cx="58.97" cy="15.2" r="1.85"/>
	<circle fill="#AEBDC4" cx="63.3" cy="15.2" r="1.85"/>
	<circle fill="#AEBDC4" cx="67.63" cy="15.2" r="1.85"/>
	<circle fill="#AEBDC4" cx="71.96" cy="15.2" r="1.85"/>
	<circle fill="#AEBDC4" cx="76.29" cy="15.2" r="1.85"/>
	<circle fill="#AEBDC4" cx="80.62" cy="15.2" r="1.85"/>
	<circle fill="#AEBDC4" cx="84.95" cy="15.2" r="1.85"/>
	<circle fill="#AEBDC4" cx="89.28" cy="15.2" r="1.85"/>
	<circle fill="#AEBDC4" cx="93.61" cy="15.2" r="1.85"/>
	<circle fill="#AEBDC4" cx="97.94" cy="15.2" r="1.85"/>
	<circle fill="#AEBDC4" cx="102.27" cy="15.2" r="1.85"/>
	<circle fill="#AEBDC4" cx="106.6" cy="15.2" r="1.85"/>
	<circle fill="#AEBDC4" cx="110.93" cy="15.2" r="1.85"/>
	<circle fill="#AEBDC4" cx="115.26" cy="15.2" r="1.85"/>
	<circle fill="#AEBDC4" cx="119.6" cy="15.2" r="1.85"/>
</g>
<g>
	<circle fill="#AEBDC4" cx="11.4" cy="9.27" r="1.85"/>
	<circle fill="#AEBDC4" cx="15.73" cy="9.27" r="1.85"/>
	<circle fill="#AEBDC4" cx="20.05" cy="9.27" r="1.85"/>
	<circle fill="#AEBDC4" cx="24.37" cy="9.27" r="1.85"/>
	<circle fill="#AEBDC4" cx="28.69" cy="9.27" r="1.85"/>
	<circle fill="#AEBDC4" cx="33.01" cy="9.27" r="1.85"/>
	<circle fill="#AEBDC4" cx="37.33" cy="9.27" r="1.85"/>
	<circle fill="#AEBDC4" cx="41.65" cy="9.27" r="1.85"/>
	<circle fill="#AEBDC4" cx="45.97" cy="9.27" r="1.85"/>
	<circle fill="#AEBDC4" cx="50.3" cy="9.27" r="1.85"/>
	<circle fill="#AEBDC4" cx="54.64" cy="9.27" r="1.85"/>
	<circle fill="#AEBDC4" cx="58.97" cy="9.27" r="1.85"/>
	<circle fill="#AEBDC4" cx="63.3" cy="9.27" r="1.85"/>
	<circle fill="#AEBDC4" cx="67.63" cy="9.27" r="1.85"/>
	<circle fill="#AEBDC4" cx="71.96" cy="9.27" r="1.85"/>
	<circle fill="#AEBDC4" cx="76.29" cy="9.27" r="1.85"/>
	<circle fill="#AEBDC4" cx="80.62" cy="9.27" r="1.85"/>
	<circle fill="#AEBDC4" cx="84.95" cy="9.27" r="1.85"/>
	<circle fill="#AEBDC4" cx="89.28" cy="9.27" r="1.85"/>
	<circle fill="#AEBDC4" cx="93.61" cy="9.27" r="1.85"/>
	<circle fill="#AEBDC4" cx="97.94" cy="9.27" r="1.85"/>
	<circle fill="#AEBDC4" cx="102.27" cy="9.27" r="1.85"/>
	<circle fill="#AEBDC4" cx="106.6" cy="9.27" r="1.85"/>
	<circle fill="#AEBDC4" cx="110.93" cy="9.27" r="1.85"/>
	<circle fill="#AEBDC4" cx="115.26" cy="9.27" r="1.85"/>
	<circle fill="#AEBDC4" cx="119.6" cy="9.27" r="1.85"/>
</g>
</svg>
