<?xml version="1.0" encoding="utf-8"?>
<!-- Generator: Adobe Illustrator 23.0.1, SVG Export Plug-In . SVG Version: 6.00 Build 0)  -->
<svg version="1.1" id="Layer_1" xmlns="http://www.w3.org/2000/svg" xmlns:xlink="http://www.w3.org/1999/xlink" x="0px" y="0px"
	 viewBox="0 0 131 167" enable-background="new 0 0 131 167" xml:space="preserve">
<g onclick="&quot;E 5 (низ)&quot;;">
	
		<rect x="0.52" y="0.31" fill="#F1F3F4" stroke="#BCC8CE" stroke-width="0.4" stroke-linecap="round" stroke-miterlimit="10" width="129.95" height="166.39"/>
	<g>
		<circle fill="#AEBDC4" cx="80.7" cy="157.64" r="1.85"/>
		<circle fill="#AEBDC4" cx="85.02" cy="157.64" r="1.85"/>
		<circle fill="#AEBDC4" cx="89.34" cy="157.64" r="1.85"/>
		<circle fill="#AEBDC4" cx="93.66" cy="157.64" r="1.85"/>
		<circle fill="#AEBDC4" cx="97.98" cy="157.64" r="1.85"/>
		<circle fill="#AEBDC4" cx="102.3" cy="157.64" r="1.85"/>
		<circle fill="#AEBDC4" cx="106.62" cy="157.64" r="1.85"/>
		<circle fill="#AEBDC4" cx="110.94" cy="157.64" r="1.85"/>
		<circle fill="#AEBDC4" cx="115.26" cy="157.64" r="1.85"/>
		<circle fill="#AEBDC4" cx="15.73" cy="157.64" r="1.85"/>
		<circle fill="#AEBDC4" cx="20.06" cy="157.64" r="1.85"/>
		<circle fill="#AEBDC4" cx="24.38" cy="157.64" r="1.85"/>
		<circle fill="#AEBDC4" cx="28.7" cy="157.64" r="1.85"/>
		<circle fill="#AEBDC4" cx="33.02" cy="157.64" r="1.85"/>
		<circle fill="#AEBDC4" cx="37.34" cy="157.64" r="1.85"/>
		<circle fill="#AEBDC4" cx="41.66" cy="157.64" r="1.85"/>
		<circle fill="#AEBDC4" cx="45.98" cy="157.64" r="1.85"/>
		<circle fill="#AEBDC4" cx="50.3" cy="157.64" r="1.85"/>
	</g>
	<g>
		<circle fill="#AEBDC4" cx="80.7" cy="151.71" r="1.85"/>
		<circle fill="#AEBDC4" cx="85.02" cy="151.71" r="1.85"/>
		<circle fill="#AEBDC4" cx="89.34" cy="151.71" r="1.85"/>
		<circle fill="#AEBDC4" cx="93.66" cy="151.71" r="1.85"/>
		<circle fill="#AEBDC4" cx="97.98" cy="151.71" r="1.85"/>
		<circle fill="#AEBDC4" cx="102.3" cy="151.71" r="1.85"/>
		<circle fill="#AEBDC4" cx="106.62" cy="151.71" r="1.85"/>
		<circle fill="#AEBDC4" cx="110.94" cy="151.71" r="1.85"/>
		<circle fill="#AEBDC4" cx="115.26" cy="151.71" r="1.85"/>
		<circle fill="#AEBDC4" cx="15.73" cy="151.71" r="1.85"/>
		<circle fill="#AEBDC4" cx="20.06" cy="151.71" r="1.85"/>
		<circle fill="#AEBDC4" cx="24.38" cy="151.71" r="1.85"/>
		<circle fill="#AEBDC4" cx="28.7" cy="151.71" r="1.85"/>
		<circle fill="#AEBDC4" cx="33.02" cy="151.71" r="1.85"/>
		<circle fill="#AEBDC4" cx="37.34" cy="151.71" r="1.85"/>
		<circle fill="#AEBDC4" cx="41.66" cy="151.71" r="1.85"/>
		<circle fill="#AEBDC4" cx="45.98" cy="151.71" r="1.85"/>
		<circle fill="#AEBDC4" cx="50.3" cy="151.71" r="1.85"/>
	</g>
	<g>
		<circle fill="#AEBDC4" cx="15.74" cy="145.78" r="1.85"/>
		<circle fill="#AEBDC4" cx="20.06" cy="145.78" r="1.85"/>
		<circle fill="#AEBDC4" cx="24.38" cy="145.78" r="1.85"/>
		<circle fill="#AEBDC4" cx="28.7" cy="145.78" r="1.85"/>
		<circle fill="#AEBDC4" cx="33.02" cy="145.78" r="1.85"/>
		<circle fill="#AEBDC4" cx="37.34" cy="145.78" r="1.85"/>
		<circle fill="#AEBDC4" cx="41.66" cy="145.78" r="1.85"/>
		<circle fill="#AEBDC4" cx="45.98" cy="145.78" r="1.85"/>
		<circle fill="#AEBDC4" cx="50.3" cy="145.78" r="1.85"/>
		<circle fill="#AEBDC4" cx="54.64" cy="145.78" r="1.85"/>
		<circle fill="#AEBDC4" cx="58.97" cy="145.78" r="1.85"/>
		<circle fill="#AEBDC4" cx="63.3" cy="145.78" r="1.85"/>
		<circle fill="#AEBDC4" cx="67.63" cy="145.78" r="1.85"/>
		<circle fill="#AEBDC4" cx="71.96" cy="145.78" r="1.85"/>
		<circle fill="#AEBDC4" cx="76.29" cy="145.78" r="1.85"/>
		<circle fill="#AEBDC4" cx="80.62" cy="145.78" r="1.85"/>
		<circle fill="#AEBDC4" cx="84.95" cy="145.78" r="1.85"/>
		<circle fill="#AEBDC4" cx="89.28" cy="145.78" r="1.85"/>
		<circle fill="#AEBDC4" cx="93.61" cy="145.78" r="1.85"/>
		<circle fill="#AEBDC4" cx="97.94" cy="145.78" r="1.85"/>
		<circle fill="#AEBDC4" cx="102.27" cy="145.78" r="1.85"/>
		<circle fill="#AEBDC4" cx="106.6" cy="145.78" r="1.85"/>
		<circle fill="#AEBDC4" cx="110.93" cy="145.78" r="1.85"/>
		<circle fill="#AEBDC4" cx="115.26" cy="145.78" r="1.85"/>
	</g>
	<g>
		<circle fill="#AEBDC4" cx="24.4" cy="139.85" r="1.85"/>
		<circle fill="#AEBDC4" cx="28.72" cy="139.85" r="1.85"/>
		<circle fill="#AEBDC4" cx="33.04" cy="139.85" r="1.85"/>
		<circle fill="#AEBDC4" cx="37.36" cy="139.85" r="1.85"/>
		<circle fill="#AEBDC4" cx="41.68" cy="139.85" r="1.85"/>
		<circle fill="#AEBDC4" cx="46" cy="139.85" r="1.85"/>
		<circle fill="#AEBDC4" cx="50.32" cy="139.85" r="1.85"/>
		<circle fill="#AEBDC4" cx="54.64" cy="139.85" r="1.85"/>
		<circle fill="#AEBDC4" cx="58.97" cy="139.85" r="1.85"/>
		<circle fill="#AEBDC4" cx="63.3" cy="139.85" r="1.85"/>
		<circle fill="#AEBDC4" cx="67.63" cy="139.85" r="1.85"/>
		<circle fill="#AEBDC4" cx="71.96" cy="139.85" r="1.85"/>
		<circle fill="#AEBDC4" cx="76.29" cy="139.85" r="1.85"/>
		<circle fill="#AEBDC4" cx="80.62" cy="139.85" r="1.85"/>
		<circle fill="#AEBDC4" cx="84.95" cy="139.85" r="1.85"/>
		<circle fill="#AEBDC4" cx="89.28" cy="139.85" r="1.85"/>
		<circle fill="#AEBDC4" cx="93.61" cy="139.85" r="1.85"/>
		<circle fill="#AEBDC4" cx="97.94" cy="139.85" r="1.85"/>
		<circle fill="#AEBDC4" cx="102.27" cy="139.85" r="1.85"/>
		<circle fill="#AEBDC4" cx="106.6" cy="139.85" r="1.85"/>
	</g>
	<g>
		<circle fill="#AEBDC4" cx="24.4" cy="133.91" r="1.85"/>
		<circle fill="#AEBDC4" cx="28.72" cy="133.91" r="1.85"/>
		<circle fill="#AEBDC4" cx="33.04" cy="133.91" r="1.85"/>
		<circle fill="#AEBDC4" cx="37.36" cy="133.91" r="1.85"/>
		<circle fill="#AEBDC4" cx="41.68" cy="133.91" r="1.85"/>
		<circle fill="#AEBDC4" cx="46" cy="133.91" r="1.85"/>
		<circle fill="#AEBDC4" cx="50.32" cy="133.91" r="1.85"/>
		<circle fill="#AEBDC4" cx="54.64" cy="133.91" r="1.85"/>
		<circle fill="#AEBDC4" cx="58.97" cy="133.91" r="1.85"/>
		<circle fill="#AEBDC4" cx="63.3" cy="133.91" r="1.85"/>
		<circle fill="#AEBDC4" cx="67.63" cy="133.91" r="1.85"/>
		<circle fill="#AEBDC4" cx="71.96" cy="133.91" r="1.85"/>
		<circle fill="#AEBDC4" cx="76.29" cy="133.91" r="1.85"/>
		<circle fill="#AEBDC4" cx="80.62" cy="133.91" r="1.85"/>
		<circle fill="#AEBDC4" cx="84.95" cy="133.91" r="1.85"/>
		<circle fill="#AEBDC4" cx="89.28" cy="133.91" r="1.85"/>
		<circle fill="#AEBDC4" cx="93.61" cy="133.91" r="1.85"/>
		<circle fill="#AEBDC4" cx="97.94" cy="133.91" r="1.85"/>
		<circle fill="#AEBDC4" cx="102.27" cy="133.91" r="1.85"/>
		<circle fill="#AEBDC4" cx="106.6" cy="133.91" r="1.85"/>
	</g>
	<g>
		<circle fill="#AEBDC4" cx="24.4" cy="127.98" r="1.85"/>
		<circle fill="#AEBDC4" cx="28.72" cy="127.98" r="1.85"/>
		<circle fill="#AEBDC4" cx="33.04" cy="127.98" r="1.85"/>
		<circle fill="#AEBDC4" cx="37.36" cy="127.98" r="1.85"/>
		<circle fill="#AEBDC4" cx="41.68" cy="127.98" r="1.85"/>
		<circle fill="#AEBDC4" cx="46" cy="127.98" r="1.85"/>
		<circle fill="#AEBDC4" cx="50.32" cy="127.98" r="1.85"/>
		<circle fill="#AEBDC4" cx="54.64" cy="127.98" r="1.85"/>
		<circle fill="#AEBDC4" cx="58.97" cy="127.98" r="1.85"/>
		<circle fill="#AEBDC4" cx="63.3" cy="127.98" r="1.85"/>
		<circle fill="#AEBDC4" cx="67.63" cy="127.98" r="1.85"/>
		<circle fill="#AEBDC4" cx="71.96" cy="127.98" r="1.85"/>
		<circle fill="#AEBDC4" cx="76.29" cy="127.98" r="1.85"/>
		<circle fill="#AEBDC4" cx="80.62" cy="127.98" r="1.85"/>
		<circle fill="#AEBDC4" cx="84.95" cy="127.98" r="1.85"/>
		<circle fill="#AEBDC4" cx="89.28" cy="127.98" r="1.85"/>
		<circle fill="#AEBDC4" cx="93.61" cy="127.98" r="1.85"/>
		<circle fill="#AEBDC4" cx="97.94" cy="127.98" r="1.85"/>
		<circle fill="#AEBDC4" cx="102.27" cy="127.98" r="1.85"/>
		<circle fill="#AEBDC4" cx="106.6" cy="127.98" r="1.85"/>
	</g>
	<g>
		<circle fill="#AEBDC4" cx="24.4" cy="122.05" r="1.85"/>
		<circle fill="#AEBDC4" cx="28.72" cy="122.05" r="1.85"/>
		<circle fill="#AEBDC4" cx="33.04" cy="122.05" r="1.85"/>
		<circle fill="#AEBDC4" cx="37.36" cy="122.05" r="1.85"/>
		<circle fill="#AEBDC4" cx="41.68" cy="122.05" r="1.85"/>
		<circle fill="#AEBDC4" cx="46" cy="122.05" r="1.85"/>
		<circle fill="#AEBDC4" cx="50.32" cy="122.05" r="1.85"/>
		<circle fill="#AEBDC4" cx="54.64" cy="122.05" r="1.85"/>
		<circle fill="#AEBDC4" cx="58.97" cy="122.05" r="1.85"/>
		<circle fill="#AEBDC4" cx="63.3" cy="122.05" r="1.85"/>
		<circle fill="#AEBDC4" cx="67.63" cy="122.05" r="1.85"/>
		<circle fill="#AEBDC4" cx="71.96" cy="122.05" r="1.85"/>
		<circle fill="#AEBDC4" cx="76.29" cy="122.05" r="1.85"/>
		<circle fill="#AEBDC4" cx="80.62" cy="122.05" r="1.85"/>
		<circle fill="#AEBDC4" cx="84.95" cy="122.05" r="1.85"/>
		<circle fill="#AEBDC4" cx="89.28" cy="122.05" r="1.85"/>
		<circle fill="#AEBDC4" cx="93.61" cy="122.05" r="1.85"/>
		<circle fill="#AEBDC4" cx="97.94" cy="122.05" r="1.85"/>
		<circle fill="#AEBDC4" cx="102.27" cy="122.05" r="1.85"/>
		<circle fill="#AEBDC4" cx="106.6" cy="122.05" r="1.85"/>
	</g>
	<g>
		<circle fill="#AEBDC4" cx="24.4" cy="116.12" r="1.85"/>
		<circle fill="#AEBDC4" cx="28.72" cy="116.12" r="1.85"/>
		<circle fill="#AEBDC4" cx="33.04" cy="116.12" r="1.85"/>
		<circle fill="#AEBDC4" cx="37.36" cy="116.12" r="1.85"/>
		<circle fill="#AEBDC4" cx="41.68" cy="116.12" r="1.85"/>
		<circle fill="#AEBDC4" cx="46" cy="116.12" r="1.85"/>
		<circle fill="#AEBDC4" cx="50.32" cy="116.12" r="1.85"/>
		<circle fill="#AEBDC4" cx="54.64" cy="116.12" r="1.85"/>
		<circle fill="#AEBDC4" cx="58.97" cy="116.12" r="1.85"/>
		<circle fill="#AEBDC4" cx="63.3" cy="116.12" r="1.85"/>
		<circle fill="#AEBDC4" cx="67.63" cy="116.12" r="1.85"/>
		<circle fill="#AEBDC4" cx="71.96" cy="116.12" r="1.85"/>
		<circle fill="#AEBDC4" cx="76.29" cy="116.12" r="1.85"/>
		<circle fill="#AEBDC4" cx="80.62" cy="116.12" r="1.85"/>
		<circle fill="#AEBDC4" cx="84.95" cy="116.12" r="1.85"/>
		<circle fill="#AEBDC4" cx="89.28" cy="116.12" r="1.85"/>
		<circle fill="#AEBDC4" cx="93.61" cy="116.12" r="1.85"/>
		<circle fill="#AEBDC4" cx="97.94" cy="116.12" r="1.85"/>
		<circle fill="#AEBDC4" cx="102.27" cy="116.12" r="1.85"/>
		<circle fill="#AEBDC4" cx="106.6" cy="116.12" r="1.85"/>
	</g>
	<g>
		<circle fill="#AEBDC4" cx="15.74" cy="110.19" r="1.85"/>
		<circle fill="#AEBDC4" cx="20.06" cy="110.19" r="1.85"/>
		<circle fill="#AEBDC4" cx="24.38" cy="110.19" r="1.85"/>
		<circle fill="#AEBDC4" cx="28.7" cy="110.19" r="1.85"/>
		<circle fill="#AEBDC4" cx="33.02" cy="110.19" r="1.85"/>
		<circle fill="#AEBDC4" cx="37.34" cy="110.19" r="1.85"/>
		<circle fill="#AEBDC4" cx="41.66" cy="110.19" r="1.85"/>
		<circle fill="#AEBDC4" cx="45.98" cy="110.19" r="1.85"/>
		<circle fill="#AEBDC4" cx="50.3" cy="110.19" r="1.85"/>
		<circle fill="#AEBDC4" cx="54.64" cy="110.19" r="1.85"/>
		<circle fill="#AEBDC4" cx="58.97" cy="110.19" r="1.85"/>
		<circle fill="#AEBDC4" cx="63.3" cy="110.19" r="1.85"/>
		<circle fill="#AEBDC4" cx="67.63" cy="110.19" r="1.85"/>
		<circle fill="#AEBDC4" cx="71.96" cy="110.19" r="1.85"/>
		<circle fill="#AEBDC4" cx="76.29" cy="110.19" r="1.85"/>
		<circle fill="#AEBDC4" cx="80.62" cy="110.19" r="1.85"/>
		<circle fill="#AEBDC4" cx="84.95" cy="110.19" r="1.85"/>
		<circle fill="#AEBDC4" cx="89.28" cy="110.19" r="1.85"/>
		<circle fill="#AEBDC4" cx="93.61" cy="110.19" r="1.85"/>
		<circle fill="#AEBDC4" cx="97.94" cy="110.19" r="1.85"/>
		<circle fill="#AEBDC4" cx="102.27" cy="110.19" r="1.85"/>
		<circle fill="#AEBDC4" cx="106.6" cy="110.19" r="1.85"/>
		<circle fill="#AEBDC4" cx="110.93" cy="110.19" r="1.85"/>
		<circle fill="#AEBDC4" cx="115.26" cy="110.19" r="1.85"/>
	</g>
	<g>
		<circle fill="#AEBDC4" cx="15.74" cy="104.26" r="1.85"/>
		<circle fill="#AEBDC4" cx="20.06" cy="104.26" r="1.85"/>
		<circle fill="#AEBDC4" cx="24.38" cy="104.26" r="1.85"/>
		<circle fill="#AEBDC4" cx="28.7" cy="104.26" r="1.85"/>
		<circle fill="#AEBDC4" cx="33.02" cy="104.26" r="1.85"/>
		<circle fill="#AEBDC4" cx="37.34" cy="104.26" r="1.85"/>
		<circle fill="#AEBDC4" cx="41.66" cy="104.26" r="1.85"/>
		<circle fill="#AEBDC4" cx="45.98" cy="104.26" r="1.85"/>
		<circle fill="#AEBDC4" cx="50.3" cy="104.26" r="1.85"/>
		<circle fill="#AEBDC4" cx="54.64" cy="104.26" r="1.85"/>
		<circle fill="#AEBDC4" cx="58.97" cy="104.26" r="1.85"/>
		<circle fill="#AEBDC4" cx="63.3" cy="104.26" r="1.85"/>
		<circle fill="#AEBDC4" cx="67.63" cy="104.26" r="1.85"/>
		<circle fill="#AEBDC4" cx="71.96" cy="104.26" r="1.85"/>
		<circle fill="#AEBDC4" cx="76.29" cy="104.26" r="1.85"/>
		<circle fill="#AEBDC4" cx="80.62" cy="104.26" r="1.85"/>
		<circle fill="#AEBDC4" cx="84.95" cy="104.26" r="1.85"/>
		<circle fill="#AEBDC4" cx="89.28" cy="104.26" r="1.85"/>
		<circle fill="#AEBDC4" cx="93.61" cy="104.26" r="1.85"/>
		<circle fill="#AEBDC4" cx="97.94" cy="104.26" r="1.85"/>
		<circle fill="#AEBDC4" cx="102.27" cy="104.26" r="1.85"/>
		<circle fill="#AEBDC4" cx="106.6" cy="104.26" r="1.85"/>
		<circle fill="#AEBDC4" cx="110.93" cy="104.26" r="1.85"/>
		<circle fill="#AEBDC4" cx="115.26" cy="104.26" r="1.85"/>
	</g>
	<g>
		<circle fill="#AEBDC4" cx="15.74" cy="98.33" r="1.85"/>
		<circle fill="#AEBDC4" cx="20.06" cy="98.33" r="1.85"/>
		<circle fill="#AEBDC4" cx="24.38" cy="98.33" r="1.85"/>
		<circle fill="#AEBDC4" cx="28.7" cy="98.33" r="1.85"/>
		<circle fill="#AEBDC4" cx="33.02" cy="98.33" r="1.85"/>
		<circle fill="#AEBDC4" cx="37.34" cy="98.33" r="1.85"/>
		<circle fill="#AEBDC4" cx="41.66" cy="98.33" r="1.85"/>
		<circle fill="#AEBDC4" cx="45.98" cy="98.33" r="1.85"/>
		<circle fill="#AEBDC4" cx="50.3" cy="98.33" r="1.85"/>
		<circle fill="#AEBDC4" cx="54.64" cy="98.33" r="1.85"/>
		<circle fill="#AEBDC4" cx="58.97" cy="98.33" r="1.85"/>
		<circle fill="#AEBDC4" cx="63.3" cy="98.33" r="1.85"/>
		<circle fill="#AEBDC4" cx="67.63" cy="98.33" r="1.85"/>
		<circle fill="#AEBDC4" cx="71.96" cy="98.33" r="1.85"/>
		<circle fill="#AEBDC4" cx="76.29" cy="98.33" r="1.85"/>
		<circle fill="#AEBDC4" cx="80.62" cy="98.33" r="1.85"/>
		<circle fill="#AEBDC4" cx="84.95" cy="98.33" r="1.85"/>
		<circle fill="#AEBDC4" cx="89.28" cy="98.33" r="1.85"/>
		<circle fill="#AEBDC4" cx="93.61" cy="98.33" r="1.85"/>
		<circle fill="#AEBDC4" cx="97.94" cy="98.33" r="1.85"/>
		<circle fill="#AEBDC4" cx="102.27" cy="98.33" r="1.85"/>
		<circle fill="#AEBDC4" cx="106.6" cy="98.33" r="1.85"/>
		<circle fill="#AEBDC4" cx="110.93" cy="98.33" r="1.85"/>
		<circle fill="#AEBDC4" cx="115.26" cy="98.33" r="1.85"/>
	</g>
	<g>
		<circle fill="#AEBDC4" cx="15.74" cy="92.4" r="1.85"/>
		<circle fill="#AEBDC4" cx="20.06" cy="92.4" r="1.85"/>
		<circle fill="#AEBDC4" cx="24.38" cy="92.4" r="1.85"/>
		<circle fill="#AEBDC4" cx="28.7" cy="92.4" r="1.85"/>
		<circle fill="#AEBDC4" cx="33.02" cy="92.4" r="1.85"/>
		<circle fill="#AEBDC4" cx="37.34" cy="92.4" r="1.85"/>
		<circle fill="#AEBDC4" cx="41.66" cy="92.4" r="1.85"/>
		<circle fill="#AEBDC4" cx="45.98" cy="92.4" r="1.85"/>
		<circle fill="#AEBDC4" cx="50.3" cy="92.4" r="1.85"/>
		<circle fill="#AEBDC4" cx="54.64" cy="92.4" r="1.85"/>
		<circle fill="#AEBDC4" cx="58.97" cy="92.4" r="1.85"/>
		<circle fill="#AEBDC4" cx="63.3" cy="92.4" r="1.85"/>
		<circle fill="#AEBDC4" cx="67.63" cy="92.4" r="1.85"/>
		<circle fill="#AEBDC4" cx="71.96" cy="92.4" r="1.85"/>
		<circle fill="#AEBDC4" cx="76.29" cy="92.4" r="1.85"/>
		<circle fill="#AEBDC4" cx="80.62" cy="92.4" r="1.85"/>
		<circle fill="#AEBDC4" cx="84.95" cy="92.4" r="1.85"/>
		<circle fill="#AEBDC4" cx="89.28" cy="92.4" r="1.85"/>
		<circle fill="#AEBDC4" cx="93.61" cy="92.4" r="1.85"/>
		<circle fill="#AEBDC4" cx="97.94" cy="92.4" r="1.85"/>
		<circle fill="#AEBDC4" cx="102.27" cy="92.4" r="1.85"/>
		<circle fill="#AEBDC4" cx="106.6" cy="92.4" r="1.85"/>
		<circle fill="#AEBDC4" cx="110.93" cy="92.4" r="1.85"/>
		<circle fill="#AEBDC4" cx="115.26" cy="92.4" r="1.85"/>
	</g>
	<g>
		<circle fill="#AEBDC4" cx="15.74" cy="86.47" r="1.85"/>
		<circle fill="#AEBDC4" cx="20.06" cy="86.47" r="1.85"/>
		<circle fill="#AEBDC4" cx="24.38" cy="86.47" r="1.85"/>
		<circle fill="#AEBDC4" cx="28.7" cy="86.47" r="1.85"/>
		<circle fill="#AEBDC4" cx="33.02" cy="86.47" r="1.85"/>
		<circle fill="#AEBDC4" cx="37.34" cy="86.47" r="1.85"/>
		<circle fill="#AEBDC4" cx="41.66" cy="86.47" r="1.85"/>
		<circle fill="#AEBDC4" cx="45.98" cy="86.47" r="1.85"/>
		<circle fill="#AEBDC4" cx="50.3" cy="86.47" r="1.85"/>
		<circle fill="#AEBDC4" cx="54.64" cy="86.47" r="1.85"/>
		<circle fill="#AEBDC4" cx="58.97" cy="86.47" r="1.85"/>
		<circle fill="#AEBDC4" cx="63.3" cy="86.47" r="1.85"/>
		<circle fill="#AEBDC4" cx="67.63" cy="86.47" r="1.85"/>
		<circle fill="#AEBDC4" cx="71.96" cy="86.47" r="1.85"/>
		<circle fill="#AEBDC4" cx="76.29" cy="86.47" r="1.85"/>
		<circle fill="#AEBDC4" cx="80.62" cy="86.47" r="1.85"/>
		<circle fill="#AEBDC4" cx="84.95" cy="86.47" r="1.85"/>
		<circle fill="#AEBDC4" cx="89.28" cy="86.47" r="1.85"/>
		<circle fill="#AEBDC4" cx="93.61" cy="86.47" r="1.85"/>
		<circle fill="#AEBDC4" cx="97.94" cy="86.47" r="1.85"/>
		<circle fill="#AEBDC4" cx="102.27" cy="86.47" r="1.85"/>
		<circle fill="#AEBDC4" cx="106.6" cy="86.47" r="1.85"/>
		<circle fill="#AEBDC4" cx="110.93" cy="86.47" r="1.85"/>
		<circle fill="#AEBDC4" cx="115.26" cy="86.47" r="1.85"/>
	</g>
	<g>
		<circle fill="#AEBDC4" cx="15.74" cy="80.54" r="1.85"/>
		<circle fill="#AEBDC4" cx="20.06" cy="80.54" r="1.85"/>
		<circle fill="#AEBDC4" cx="24.38" cy="80.54" r="1.85"/>
		<circle fill="#AEBDC4" cx="28.7" cy="80.54" r="1.85"/>
		<circle fill="#AEBDC4" cx="33.02" cy="80.54" r="1.85"/>
		<circle fill="#AEBDC4" cx="37.34" cy="80.54" r="1.85"/>
		<circle fill="#AEBDC4" cx="41.66" cy="80.54" r="1.85"/>
		<circle fill="#AEBDC4" cx="45.98" cy="80.54" r="1.85"/>
		<circle fill="#AEBDC4" cx="50.3" cy="80.54" r="1.85"/>
		<circle fill="#AEBDC4" cx="54.64" cy="80.54" r="1.85"/>
		<circle fill="#AEBDC4" cx="58.97" cy="80.54" r="1.85"/>
		<circle fill="#AEBDC4" cx="63.3" cy="80.54" r="1.85"/>
		<circle fill="#AEBDC4" cx="67.63" cy="80.54" r="1.85"/>
		<circle fill="#AEBDC4" cx="71.96" cy="80.54" r="1.85"/>
		<circle fill="#AEBDC4" cx="76.29" cy="80.54" r="1.85"/>
		<circle fill="#AEBDC4" cx="80.62" cy="80.54" r="1.85"/>
		<circle fill="#AEBDC4" cx="84.95" cy="80.54" r="1.85"/>
		<circle fill="#AEBDC4" cx="89.28" cy="80.54" r="1.85"/>
		<circle fill="#AEBDC4" cx="93.61" cy="80.54" r="1.85"/>
		<circle fill="#AEBDC4" cx="97.94" cy="80.54" r="1.85"/>
		<circle fill="#AEBDC4" cx="102.27" cy="80.54" r="1.85"/>
		<circle fill="#AEBDC4" cx="106.6" cy="80.54" r="1.85"/>
		<circle fill="#AEBDC4" cx="110.93" cy="80.54" r="1.85"/>
		<circle fill="#AEBDC4" cx="115.26" cy="80.54" r="1.85"/>
	</g>
	<g>
		<circle fill="#AEBDC4" cx="15.74" cy="74.61" r="1.85"/>
		<circle fill="#AEBDC4" cx="20.06" cy="74.61" r="1.85"/>
		<circle fill="#AEBDC4" cx="24.38" cy="74.61" r="1.85"/>
		<circle fill="#AEBDC4" cx="28.7" cy="74.61" r="1.85"/>
		<circle fill="#AEBDC4" cx="33.02" cy="74.61" r="1.85"/>
		<circle fill="#AEBDC4" cx="37.34" cy="74.61" r="1.85"/>
		<circle fill="#AEBDC4" cx="41.66" cy="74.61" r="1.85"/>
		<circle fill="#AEBDC4" cx="45.98" cy="74.61" r="1.85"/>
		<circle fill="#AEBDC4" cx="50.3" cy="74.61" r="1.85"/>
		<circle fill="#AEBDC4" cx="54.64" cy="74.61" r="1.85"/>
		<circle fill="#AEBDC4" cx="58.97" cy="74.61" r="1.85"/>
		<circle fill="#AEBDC4" cx="63.3" cy="74.61" r="1.85"/>
		<circle fill="#AEBDC4" cx="67.63" cy="74.61" r="1.85"/>
		<circle fill="#AEBDC4" cx="71.96" cy="74.61" r="1.85"/>
		<circle fill="#AEBDC4" cx="76.29" cy="74.61" r="1.85"/>
		<circle fill="#AEBDC4" cx="80.62" cy="74.61" r="1.85"/>
		<circle fill="#AEBDC4" cx="84.95" cy="74.61" r="1.85"/>
		<circle fill="#AEBDC4" cx="89.28" cy="74.61" r="1.85"/>
		<circle fill="#AEBDC4" cx="93.61" cy="74.61" r="1.85"/>
		<circle fill="#AEBDC4" cx="97.94" cy="74.61" r="1.85"/>
		<circle fill="#AEBDC4" cx="102.27" cy="74.61" r="1.85"/>
		<circle fill="#AEBDC4" cx="106.6" cy="74.61" r="1.85"/>
		<circle fill="#AEBDC4" cx="110.93" cy="74.61" r="1.85"/>
		<circle fill="#AEBDC4" cx="115.26" cy="74.61" r="1.85"/>
	</g>
	<g>
		<circle fill="#AEBDC4" cx="15.74" cy="68.68" r="1.85"/>
		<circle fill="#AEBDC4" cx="20.06" cy="68.68" r="1.85"/>
		<circle fill="#AEBDC4" cx="24.38" cy="68.68" r="1.85"/>
		<circle fill="#AEBDC4" cx="28.7" cy="68.68" r="1.85"/>
		<circle fill="#AEBDC4" cx="33.02" cy="68.68" r="1.85"/>
		<circle fill="#AEBDC4" cx="37.34" cy="68.68" r="1.85"/>
		<circle fill="#AEBDC4" cx="41.66" cy="68.68" r="1.85"/>
		<circle fill="#AEBDC4" cx="45.98" cy="68.68" r="1.85"/>
		<circle fill="#AEBDC4" cx="50.3" cy="68.68" r="1.85"/>
		<circle fill="#AEBDC4" cx="54.64" cy="68.68" r="1.85"/>
		<circle fill="#AEBDC4" cx="58.97" cy="68.68" r="1.85"/>
		<circle fill="#AEBDC4" cx="63.3" cy="68.68" r="1.85"/>
		<circle fill="#AEBDC4" cx="67.63" cy="68.68" r="1.85"/>
		<circle fill="#AEBDC4" cx="71.96" cy="68.68" r="1.85"/>
		<circle fill="#AEBDC4" cx="76.29" cy="68.68" r="1.85"/>
		<circle fill="#AEBDC4" cx="80.62" cy="68.68" r="1.85"/>
		<circle fill="#AEBDC4" cx="84.95" cy="68.68" r="1.85"/>
		<circle fill="#AEBDC4" cx="89.28" cy="68.68" r="1.85"/>
		<circle fill="#AEBDC4" cx="93.61" cy="68.68" r="1.85"/>
		<circle fill="#AEBDC4" cx="97.94" cy="68.68" r="1.85"/>
		<circle fill="#AEBDC4" cx="102.27" cy="68.68" r="1.85"/>
		<circle fill="#AEBDC4" cx="106.6" cy="68.68" r="1.85"/>
		<circle fill="#AEBDC4" cx="110.93" cy="68.68" r="1.85"/>
		<circle fill="#AEBDC4" cx="115.26" cy="68.68" r="1.85"/>
	</g>
	<g>
		<circle fill="#AEBDC4" cx="15.74" cy="62.74" r="1.85"/>
		<circle fill="#AEBDC4" cx="20.06" cy="62.74" r="1.85"/>
		<circle fill="#AEBDC4" cx="24.38" cy="62.74" r="1.85"/>
		<circle fill="#AEBDC4" cx="28.7" cy="62.74" r="1.85"/>
		<circle fill="#AEBDC4" cx="33.02" cy="62.74" r="1.85"/>
		<circle fill="#AEBDC4" cx="37.34" cy="62.74" r="1.85"/>
		<circle fill="#AEBDC4" cx="41.66" cy="62.74" r="1.85"/>
		<circle fill="#AEBDC4" cx="45.98" cy="62.74" r="1.85"/>
		<circle fill="#AEBDC4" cx="50.3" cy="62.74" r="1.85"/>
		<circle fill="#AEBDC4" cx="54.64" cy="62.74" r="1.85"/>
		<circle fill="#AEBDC4" cx="58.97" cy="62.74" r="1.85"/>
		<circle fill="#AEBDC4" cx="63.3" cy="62.74" r="1.85"/>
		<circle fill="#AEBDC4" cx="67.63" cy="62.74" r="1.85"/>
		<circle fill="#AEBDC4" cx="71.96" cy="62.74" r="1.85"/>
		<circle fill="#AEBDC4" cx="76.29" cy="62.74" r="1.85"/>
		<circle fill="#AEBDC4" cx="80.62" cy="62.74" r="1.85"/>
		<circle fill="#AEBDC4" cx="84.95" cy="62.74" r="1.85"/>
		<circle fill="#AEBDC4" cx="89.28" cy="62.74" r="1.85"/>
		<circle fill="#AEBDC4" cx="93.61" cy="62.74" r="1.85"/>
		<circle fill="#AEBDC4" cx="97.94" cy="62.74" r="1.85"/>
		<circle fill="#AEBDC4" cx="102.27" cy="62.74" r="1.85"/>
		<circle fill="#AEBDC4" cx="106.6" cy="62.74" r="1.85"/>
		<circle fill="#AEBDC4" cx="110.93" cy="62.74" r="1.85"/>
		<circle fill="#AEBDC4" cx="115.26" cy="62.74" r="1.85"/>
	</g>
	<g>
		<circle fill="#AEBDC4" cx="15.74" cy="56.81" r="1.85"/>
		<circle fill="#AEBDC4" cx="20.06" cy="56.81" r="1.85"/>
		<circle fill="#AEBDC4" cx="24.38" cy="56.81" r="1.85"/>
		<circle fill="#AEBDC4" cx="28.7" cy="56.81" r="1.85"/>
		<circle fill="#AEBDC4" cx="33.02" cy="56.81" r="1.85"/>
		<circle fill="#AEBDC4" cx="37.34" cy="56.81" r="1.85"/>
		<circle fill="#AEBDC4" cx="41.66" cy="56.81" r="1.85"/>
		<circle fill="#AEBDC4" cx="45.98" cy="56.81" r="1.85"/>
		<circle fill="#AEBDC4" cx="50.3" cy="56.81" r="1.85"/>
		<circle fill="#AEBDC4" cx="54.64" cy="56.81" r="1.85"/>
		<circle fill="#AEBDC4" cx="58.97" cy="56.81" r="1.85"/>
		<circle fill="#AEBDC4" cx="63.3" cy="56.81" r="1.85"/>
		<circle fill="#AEBDC4" cx="67.63" cy="56.81" r="1.85"/>
		<circle fill="#AEBDC4" cx="71.96" cy="56.81" r="1.85"/>
		<circle fill="#AEBDC4" cx="76.29" cy="56.81" r="1.85"/>
		<circle fill="#AEBDC4" cx="80.62" cy="56.81" r="1.85"/>
		<circle fill="#AEBDC4" cx="84.95" cy="56.81" r="1.85"/>
		<circle fill="#AEBDC4" cx="89.28" cy="56.81" r="1.85"/>
		<circle fill="#AEBDC4" cx="93.61" cy="56.81" r="1.85"/>
		<circle fill="#AEBDC4" cx="97.94" cy="56.81" r="1.85"/>
		<circle fill="#AEBDC4" cx="102.27" cy="56.81" r="1.85"/>
		<circle fill="#AEBDC4" cx="106.6" cy="56.81" r="1.85"/>
		<circle fill="#AEBDC4" cx="110.93" cy="56.81" r="1.85"/>
		<circle fill="#AEBDC4" cx="115.26" cy="56.81" r="1.85"/>
	</g>
	<g>
		<circle fill="#AEBDC4" cx="15.74" cy="50.88" r="1.85"/>
		<circle fill="#AEBDC4" cx="20.06" cy="50.88" r="1.85"/>
		<circle fill="#AEBDC4" cx="24.38" cy="50.88" r="1.85"/>
		<circle fill="#AEBDC4" cx="28.7" cy="50.88" r="1.85"/>
		<circle fill="#AEBDC4" cx="33.02" cy="50.88" r="1.85"/>
		<circle fill="#AEBDC4" cx="37.34" cy="50.88" r="1.85"/>
		<circle fill="#AEBDC4" cx="41.66" cy="50.88" r="1.85"/>
		<circle fill="#AEBDC4" cx="45.98" cy="50.88" r="1.85"/>
		<circle fill="#AEBDC4" cx="50.3" cy="50.88" r="1.85"/>
		<circle fill="#AEBDC4" cx="54.64" cy="50.88" r="1.85"/>
		<circle fill="#AEBDC4" cx="58.97" cy="50.88" r="1.85"/>
		<circle fill="#AEBDC4" cx="63.3" cy="50.88" r="1.85"/>
		<circle fill="#AEBDC4" cx="67.63" cy="50.88" r="1.85"/>
		<circle fill="#AEBDC4" cx="71.96" cy="50.88" r="1.85"/>
		<circle fill="#AEBDC4" cx="76.29" cy="50.88" r="1.85"/>
		<circle fill="#AEBDC4" cx="80.62" cy="50.88" r="1.85"/>
		<circle fill="#AEBDC4" cx="84.95" cy="50.88" r="1.85"/>
		<circle fill="#AEBDC4" cx="89.28" cy="50.88" r="1.85"/>
		<circle fill="#AEBDC4" cx="93.61" cy="50.88" r="1.85"/>
		<circle fill="#AEBDC4" cx="97.94" cy="50.88" r="1.85"/>
		<circle fill="#AEBDC4" cx="102.27" cy="50.88" r="1.85"/>
		<circle fill="#AEBDC4" cx="106.6" cy="50.88" r="1.85"/>
		<circle fill="#AEBDC4" cx="110.93" cy="50.88" r="1.85"/>
		<circle fill="#AEBDC4" cx="115.26" cy="50.88" r="1.85"/>
	</g>
	<g>
		<circle fill="#AEBDC4" cx="15.74" cy="44.95" r="1.85"/>
		<circle fill="#AEBDC4" cx="20.06" cy="44.95" r="1.85"/>
		<circle fill="#AEBDC4" cx="24.38" cy="44.95" r="1.85"/>
		<circle fill="#AEBDC4" cx="28.7" cy="44.95" r="1.85"/>
		<circle fill="#AEBDC4" cx="33.02" cy="44.95" r="1.85"/>
		<circle fill="#AEBDC4" cx="37.34" cy="44.95" r="1.85"/>
		<circle fill="#AEBDC4" cx="41.66" cy="44.95" r="1.85"/>
		<circle fill="#AEBDC4" cx="45.98" cy="44.95" r="1.85"/>
		<circle fill="#AEBDC4" cx="50.3" cy="44.95" r="1.85"/>
		<circle fill="#AEBDC4" cx="54.64" cy="44.95" r="1.85"/>
		<circle fill="#AEBDC4" cx="58.97" cy="44.95" r="1.85"/>
		<circle fill="#AEBDC4" cx="63.3" cy="44.95" r="1.85"/>
		<circle fill="#AEBDC4" cx="67.63" cy="44.95" r="1.85"/>
		<circle fill="#AEBDC4" cx="71.96" cy="44.95" r="1.85"/>
		<circle fill="#AEBDC4" cx="76.29" cy="44.95" r="1.85"/>
		<circle fill="#AEBDC4" cx="80.62" cy="44.95" r="1.85"/>
		<circle fill="#AEBDC4" cx="84.95" cy="44.95" r="1.85"/>
		<circle fill="#AEBDC4" cx="89.28" cy="44.95" r="1.85"/>
		<circle fill="#AEBDC4" cx="93.61" cy="44.95" r="1.85"/>
		<circle fill="#AEBDC4" cx="97.94" cy="44.95" r="1.85"/>
		<circle fill="#AEBDC4" cx="102.27" cy="44.95" r="1.85"/>
		<circle fill="#AEBDC4" cx="106.6" cy="44.95" r="1.85"/>
		<circle fill="#AEBDC4" cx="110.93" cy="44.95" r="1.85"/>
		<circle fill="#AEBDC4" cx="115.26" cy="44.95" r="1.85"/>
	</g>
	<g>
		<circle fill="#AEBDC4" cx="15.74" cy="39.02" r="1.85"/>
		<circle fill="#AEBDC4" cx="20.06" cy="39.02" r="1.85"/>
		<circle fill="#AEBDC4" cx="24.38" cy="39.02" r="1.85"/>
		<circle fill="#AEBDC4" cx="28.7" cy="39.02" r="1.85"/>
		<circle fill="#AEBDC4" cx="33.02" cy="39.02" r="1.85"/>
		<circle fill="#AEBDC4" cx="37.34" cy="39.02" r="1.85"/>
		<circle fill="#AEBDC4" cx="41.66" cy="39.02" r="1.85"/>
		<circle fill="#AEBDC4" cx="45.98" cy="39.02" r="1.85"/>
		<circle fill="#AEBDC4" cx="50.3" cy="39.02" r="1.85"/>
		<circle fill="#AEBDC4" cx="54.64" cy="39.02" r="1.85"/>
		<circle fill="#AEBDC4" cx="58.97" cy="39.02" r="1.85"/>
		<circle fill="#AEBDC4" cx="63.3" cy="39.02" r="1.85"/>
		<circle fill="#AEBDC4" cx="67.63" cy="39.02" r="1.85"/>
		<circle fill="#AEBDC4" cx="71.96" cy="39.02" r="1.85"/>
		<circle fill="#AEBDC4" cx="76.29" cy="39.02" r="1.85"/>
		<circle fill="#AEBDC4" cx="80.62" cy="39.02" r="1.85"/>
		<circle fill="#AEBDC4" cx="84.95" cy="39.02" r="1.85"/>
		<circle fill="#AEBDC4" cx="89.28" cy="39.02" r="1.85"/>
		<circle fill="#AEBDC4" cx="93.61" cy="39.02" r="1.85"/>
		<circle fill="#AEBDC4" cx="97.94" cy="39.02" r="1.85"/>
		<circle fill="#AEBDC4" cx="102.27" cy="39.02" r="1.85"/>
		<circle fill="#AEBDC4" cx="106.6" cy="39.02" r="1.85"/>
		<circle fill="#AEBDC4" cx="110.93" cy="39.02" r="1.85"/>
		<circle fill="#AEBDC4" cx="115.26" cy="39.02" r="1.85"/>
	</g>
	<g>
		<circle fill="#AEBDC4" cx="15.74" cy="33.09" r="1.85"/>
		<circle fill="#AEBDC4" cx="20.06" cy="33.09" r="1.85"/>
		<circle fill="#AEBDC4" cx="24.38" cy="33.09" r="1.85"/>
		<circle fill="#AEBDC4" cx="28.7" cy="33.09" r="1.85"/>
		<circle fill="#AEBDC4" cx="33.02" cy="33.09" r="1.85"/>
		<circle fill="#AEBDC4" cx="37.34" cy="33.09" r="1.85"/>
		<circle fill="#AEBDC4" cx="41.66" cy="33.09" r="1.85"/>
		<circle fill="#AEBDC4" cx="45.98" cy="33.09" r="1.85"/>
		<circle fill="#AEBDC4" cx="50.3" cy="33.09" r="1.85"/>
		<circle fill="#AEBDC4" cx="54.64" cy="33.09" r="1.85"/>
		<circle fill="#AEBDC4" cx="58.97" cy="33.09" r="1.85"/>
		<circle fill="#AEBDC4" cx="63.3" cy="33.09" r="1.85"/>
		<circle fill="#AEBDC4" cx="67.63" cy="33.09" r="1.85"/>
		<circle fill="#AEBDC4" cx="71.96" cy="33.09" r="1.85"/>
		<circle fill="#AEBDC4" cx="76.29" cy="33.09" r="1.85"/>
		<circle fill="#AEBDC4" cx="80.62" cy="33.09" r="1.85"/>
		<circle fill="#AEBDC4" cx="84.95" cy="33.09" r="1.85"/>
		<circle fill="#AEBDC4" cx="89.28" cy="33.09" r="1.85"/>
		<circle fill="#AEBDC4" cx="93.61" cy="33.09" r="1.85"/>
		<circle fill="#AEBDC4" cx="97.94" cy="33.09" r="1.85"/>
		<circle fill="#AEBDC4" cx="102.27" cy="33.09" r="1.85"/>
		<circle fill="#AEBDC4" cx="106.6" cy="33.09" r="1.85"/>
		<circle fill="#AEBDC4" cx="110.93" cy="33.09" r="1.85"/>
		<circle fill="#AEBDC4" cx="115.26" cy="33.09" r="1.85"/>
	</g>
	<g>
		<circle fill="#AEBDC4" cx="15.74" cy="27.16" r="1.85"/>
		<circle fill="#AEBDC4" cx="20.06" cy="27.16" r="1.85"/>
		<circle fill="#AEBDC4" cx="24.38" cy="27.16" r="1.85"/>
		<circle fill="#AEBDC4" cx="28.7" cy="27.16" r="1.85"/>
		<circle fill="#AEBDC4" cx="33.02" cy="27.16" r="1.85"/>
		<circle fill="#AEBDC4" cx="37.34" cy="27.16" r="1.85"/>
		<circle fill="#AEBDC4" cx="41.66" cy="27.16" r="1.85"/>
		<circle fill="#AEBDC4" cx="45.98" cy="27.16" r="1.85"/>
		<circle fill="#AEBDC4" cx="50.3" cy="27.16" r="1.85"/>
		<circle fill="#AEBDC4" cx="54.64" cy="27.16" r="1.85"/>
		<circle fill="#AEBDC4" cx="58.97" cy="27.16" r="1.85"/>
		<circle fill="#AEBDC4" cx="63.3" cy="27.16" r="1.85"/>
		<circle fill="#AEBDC4" cx="67.63" cy="27.16" r="1.85"/>
		<circle fill="#AEBDC4" cx="71.96" cy="27.16" r="1.85"/>
		<circle fill="#AEBDC4" cx="76.29" cy="27.16" r="1.85"/>
		<circle fill="#AEBDC4" cx="80.62" cy="27.16" r="1.85"/>
		<circle fill="#AEBDC4" cx="84.95" cy="27.16" r="1.85"/>
		<circle fill="#AEBDC4" cx="89.28" cy="27.16" r="1.85"/>
		<circle fill="#AEBDC4" cx="93.61" cy="27.16" r="1.85"/>
		<circle fill="#AEBDC4" cx="97.94" cy="27.16" r="1.85"/>
		<circle fill="#AEBDC4" cx="102.27" cy="27.16" r="1.85"/>
		<circle fill="#AEBDC4" cx="106.6" cy="27.16" r="1.85"/>
		<circle fill="#AEBDC4" cx="110.93" cy="27.16" r="1.85"/>
		<circle fill="#AEBDC4" cx="115.26" cy="27.16" r="1.85"/>
	</g>
	<g>
		<circle fill="#AEBDC4" cx="15.74" cy="21.23" r="1.85"/>
		<circle fill="#AEBDC4" cx="20.06" cy="21.23" r="1.85"/>
		<circle fill="#AEBDC4" cx="24.38" cy="21.23" r="1.85"/>
		<circle fill="#AEBDC4" cx="28.7" cy="21.23" r="1.85"/>
		<circle fill="#AEBDC4" cx="33.02" cy="21.23" r="1.85"/>
		<circle fill="#AEBDC4" cx="37.34" cy="21.23" r="1.85"/>
		<circle fill="#AEBDC4" cx="41.66" cy="21.23" r="1.85"/>
		<circle fill="#AEBDC4" cx="45.98" cy="21.23" r="1.85"/>
		<circle fill="#AEBDC4" cx="50.3" cy="21.23" r="1.85"/>
		<circle fill="#AEBDC4" cx="54.64" cy="21.23" r="1.85"/>
		<circle fill="#AEBDC4" cx="58.97" cy="21.23" r="1.85"/>
		<circle fill="#AEBDC4" cx="63.3" cy="21.23" r="1.85"/>
		<circle fill="#AEBDC4" cx="67.63" cy="21.23" r="1.85"/>
		<circle fill="#AEBDC4" cx="71.96" cy="21.23" r="1.85"/>
		<circle fill="#AEBDC4" cx="76.29" cy="21.23" r="1.85"/>
		<circle fill="#AEBDC4" cx="80.62" cy="21.23" r="1.85"/>
		<circle fill="#AEBDC4" cx="84.95" cy="21.23" r="1.85"/>
		<circle fill="#AEBDC4" cx="89.28" cy="21.23" r="1.85"/>
		<circle fill="#AEBDC4" cx="93.61" cy="21.23" r="1.85"/>
		<circle fill="#AEBDC4" cx="97.94" cy="21.23" r="1.85"/>
		<circle fill="#AEBDC4" cx="102.27" cy="21.23" r="1.85"/>
		<circle fill="#AEBDC4" cx="106.6" cy="21.23" r="1.85"/>
		<circle fill="#AEBDC4" cx="110.93" cy="21.23" r="1.85"/>
		<circle fill="#AEBDC4" cx="115.26" cy="21.23" r="1.85"/>
	</g>
	<g>
		<circle fill="#AEBDC4" cx="15.74" cy="15.3" r="1.85"/>
		<circle fill="#AEBDC4" cx="20.06" cy="15.3" r="1.85"/>
		<circle fill="#AEBDC4" cx="24.38" cy="15.3" r="1.85"/>
		<circle fill="#AEBDC4" cx="28.7" cy="15.3" r="1.85"/>
		<circle fill="#AEBDC4" cx="33.02" cy="15.3" r="1.85"/>
		<circle fill="#AEBDC4" cx="37.34" cy="15.3" r="1.85"/>
		<circle fill="#AEBDC4" cx="41.66" cy="15.3" r="1.85"/>
		<circle fill="#AEBDC4" cx="45.98" cy="15.3" r="1.85"/>
		<circle fill="#AEBDC4" cx="50.3" cy="15.3" r="1.85"/>
		<circle fill="#AEBDC4" cx="54.64" cy="15.3" r="1.85"/>
		<circle fill="#AEBDC4" cx="58.97" cy="15.3" r="1.85"/>
		<circle fill="#AEBDC4" cx="63.3" cy="15.3" r="1.85"/>
		<circle fill="#AEBDC4" cx="67.63" cy="15.3" r="1.85"/>
		<circle fill="#AEBDC4" cx="71.96" cy="15.3" r="1.85"/>
		<circle fill="#AEBDC4" cx="76.29" cy="15.3" r="1.85"/>
		<circle fill="#AEBDC4" cx="80.62" cy="15.3" r="1.85"/>
		<circle fill="#AEBDC4" cx="84.95" cy="15.3" r="1.85"/>
		<circle fill="#AEBDC4" cx="89.28" cy="15.3" r="1.85"/>
		<circle fill="#AEBDC4" cx="93.61" cy="15.3" r="1.85"/>
		<circle fill="#AEBDC4" cx="97.94" cy="15.3" r="1.85"/>
		<circle fill="#AEBDC4" cx="102.27" cy="15.3" r="1.85"/>
		<circle fill="#AEBDC4" cx="106.6" cy="15.3" r="1.85"/>
		<circle fill="#AEBDC4" cx="110.93" cy="15.3" r="1.85"/>
		<circle fill="#AEBDC4" cx="115.26" cy="15.3" r="1.85"/>
	</g>
	<g>
		<circle fill="#AEBDC4" cx="15.74" cy="9.37" r="1.85"/>
		<circle fill="#AEBDC4" cx="20.06" cy="9.37" r="1.85"/>
		<circle fill="#AEBDC4" cx="24.38" cy="9.37" r="1.85"/>
		<circle fill="#AEBDC4" cx="28.7" cy="9.37" r="1.85"/>
		<circle fill="#AEBDC4" cx="33.02" cy="9.37" r="1.85"/>
		<circle fill="#AEBDC4" cx="37.34" cy="9.37" r="1.85"/>
		<circle fill="#AEBDC4" cx="41.66" cy="9.37" r="1.85"/>
		<circle fill="#AEBDC4" cx="45.98" cy="9.37" r="1.85"/>
		<circle fill="#AEBDC4" cx="50.3" cy="9.37" r="1.85"/>
		<circle fill="#AEBDC4" cx="54.64" cy="9.37" r="1.85"/>
		<circle fill="#AEBDC4" cx="58.97" cy="9.37" r="1.85"/>
		<circle fill="#AEBDC4" cx="63.3" cy="9.37" r="1.85"/>
		<circle fill="#AEBDC4" cx="67.63" cy="9.37" r="1.85"/>
		<circle fill="#AEBDC4" cx="71.96" cy="9.37" r="1.85"/>
		<circle fill="#AEBDC4" cx="76.29" cy="9.37" r="1.85"/>
		<circle fill="#AEBDC4" cx="80.62" cy="9.37" r="1.85"/>
		<circle fill="#AEBDC4" cx="84.95" cy="9.37" r="1.85"/>
		<circle fill="#AEBDC4" cx="89.28" cy="9.37" r="1.85"/>
		<circle fill="#AEBDC4" cx="93.61" cy="9.37" r="1.85"/>
		<circle fill="#AEBDC4" cx="97.94" cy="9.37" r="1.85"/>
		<circle fill="#AEBDC4" cx="102.27" cy="9.37" r="1.85"/>
		<circle fill="#AEBDC4" cx="106.6" cy="9.37" r="1.85"/>
		<circle fill="#AEBDC4" cx="110.93" cy="9.37" r="1.85"/>
		<circle fill="#AEBDC4" cx="115.26" cy="9.37" r="1.85"/>
	</g>
</g>
</svg>
