<svg xmlns="http://www.w3.org/2000/svg" viewBox="0 0 130 172">
    <path fill="#F1F3F4" stroke="#BCC8CE" stroke-width=".4" stroke-linecap="round" stroke-miterlimit="10" d="M.53.38l129.94.01v173.98L.53 201.57V.38z"/>
    <g fill="#AEBDC4">
        <circle cx="11.4" cy="181.45" r="1.85"/>
        <circle cx="15.73" cy="181.45" r="1.85"/>
        <circle cx="20.05" cy="181.45" r="1.85"/>
        <circle cx="24.37" cy="181.45" r="1.85"/>
        <circle cx="28.69" cy="181.45" r="1.85"/>
        <circle cx="33.01" cy="181.45" r="1.85"/>
        <circle cx="11.4" cy="175.52" r="1.85"/>
        <circle cx="15.73" cy="175.52" r="1.85"/>
        <circle cx="20.05" cy="175.52" r="1.85"/>
        <circle cx="24.37" cy="175.52" r="1.85"/>
        <circle cx="28.69" cy="175.52" r="1.85"/>
        <circle cx="33.01" cy="175.52" r="1.85"/>
        <circle cx="37.33" cy="175.52" r="1.85"/>
        <circle cx="41.65" cy="175.52" r="1.85"/>
        <circle cx="45.97" cy="175.52" r="1.85"/>
        <circle cx="50.3" cy="175.52" r="1.85"/>
        <circle cx="54.64" cy="175.52" r="1.85"/>
        <circle cx="58.97" cy="175.52" r="1.85"/>
        <circle cx="63.3" cy="175.52" r="1.85"/>
        <circle cx="11.4" cy="169.59" r="1.85"/>
        <circle cx="15.73" cy="169.59" r="1.85"/>
        <circle cx="20.05" cy="169.59" r="1.85"/>
        <circle cx="24.37" cy="169.59" r="1.85"/>
        <circle cx="28.69" cy="169.59" r="1.85"/>
        <circle cx="33.01" cy="169.59" r="1.85"/>
        <circle cx="37.33" cy="169.59" r="1.85"/>
        <circle cx="41.65" cy="169.59" r="1.85"/>
        <circle cx="45.97" cy="169.59" r="1.85"/>
        <circle cx="50.3" cy="169.59" r="1.85"/>
        <circle cx="54.64" cy="169.59" r="1.85"/>
        <circle cx="58.97" cy="169.59" r="1.85"/>
        <circle cx="63.3" cy="169.59" r="1.85"/>
        <circle cx="67.63" cy="169.59" r="1.85"/>
        <circle cx="71.96" cy="169.59" r="1.85"/>
        <circle cx="76.29" cy="169.59" r="1.85"/>
        <circle cx="80.62" cy="169.59" r="1.85"/>
        <circle cx="84.95" cy="169.59" r="1.85"/>
        <circle cx="89.28" cy="169.59" r="1.85"/>
        <circle cx="93.61" cy="169.59" r="1.85"/>
        <circle cx="20.07" cy="39.11" r="1.85"/>
        <circle cx="24.39" cy="39.11" r="1.85"/>
        <circle cx="28.71" cy="39.11" r="1.85"/>
        <circle cx="33.03" cy="39.11" r="1.85"/>
        <circle cx="37.35" cy="39.11" r="1.85"/>
        <circle cx="41.67" cy="39.11" r="1.85"/>
        <circle cx="45.99" cy="39.11" r="1.85"/>
        <circle cx="50.31" cy="39.11" r="1.85"/>
        <circle cx="54.64" cy="39.11" r="1.85"/>
        <circle cx="58.97" cy="39.11" r="1.85"/>
        <circle cx="63.3" cy="39.11" r="1.85"/>
        <circle cx="67.63" cy="39.11" r="1.85"/>
        <circle cx="71.96" cy="39.11" r="1.85"/>
        <circle cx="76.29" cy="39.11" r="1.85"/>
        <circle cx="80.62" cy="39.11" r="1.85"/>
        <circle cx="84.95" cy="39.11" r="1.85"/>
        <circle cx="89.28" cy="39.11" r="1.85"/>
        <circle cx="93.61" cy="39.11" r="1.85"/>
        <circle cx="97.94" cy="39.11" r="1.85"/>
        <circle cx="102.27" cy="39.11" r="1.85"/>
        <circle cx="106.6" cy="39.11" r="1.85"/>
        <circle cx="110.93" cy="39.11" r="1.85"/>
        <circle cx="20.07" cy="45.04" r="1.85"/>
        <circle cx="24.39" cy="45.04" r="1.85"/>
        <circle cx="28.71" cy="45.04" r="1.85"/>
        <circle cx="33.03" cy="45.04" r="1.85"/>
        <circle cx="37.35" cy="45.04" r="1.85"/>
        <circle cx="41.67" cy="45.04" r="1.85"/>
        <circle cx="45.99" cy="45.04" r="1.85"/>
        <circle cx="50.31" cy="45.04" r="1.85"/>
        <circle cx="54.64" cy="45.04" r="1.85"/>
        <circle cx="58.97" cy="45.04" r="1.85"/>
        <circle cx="63.3" cy="45.04" r="1.85"/>
        <circle cx="67.63" cy="45.04" r="1.85"/>
        <circle cx="71.96" cy="45.04" r="1.85"/>
        <circle cx="76.29" cy="45.04" r="1.85"/>
        <circle cx="80.62" cy="45.04" r="1.85"/>
        <circle cx="84.95" cy="45.04" r="1.85"/>
        <circle cx="89.28" cy="45.04" r="1.85"/>
        <circle cx="93.61" cy="45.04" r="1.85"/>
        <circle cx="97.94" cy="45.04" r="1.85"/>
        <circle cx="102.27" cy="45.04" r="1.85"/>
        <circle cx="106.6" cy="45.04" r="1.85"/>
        <circle cx="110.93" cy="45.04" r="1.85"/>
        <circle cx="20.07" cy="50.97" r="1.85"/>
        <circle cx="24.39" cy="50.97" r="1.85"/>
        <circle cx="28.71" cy="50.97" r="1.85"/>
        <circle cx="33.03" cy="50.97" r="1.85"/>
        <circle cx="37.35" cy="50.97" r="1.85"/>
        <circle cx="41.67" cy="50.97" r="1.85"/>
        <circle cx="45.99" cy="50.97" r="1.85"/>
        <circle cx="50.31" cy="50.97" r="1.85"/>
        <circle cx="54.64" cy="50.97" r="1.85"/>
        <circle cx="58.97" cy="50.97" r="1.85"/>
        <circle cx="63.3" cy="50.97" r="1.85"/>
        <circle cx="67.63" cy="50.97" r="1.85"/>
        <circle cx="71.96" cy="50.97" r="1.85"/>
        <circle cx="76.29" cy="50.97" r="1.85"/>
        <circle cx="80.62" cy="50.97" r="1.85"/>
        <circle cx="84.95" cy="50.97" r="1.85"/>
        <circle cx="89.28" cy="50.97" r="1.85"/>
        <circle cx="93.61" cy="50.97" r="1.85"/>
        <circle cx="97.94" cy="50.97" r="1.85"/>
        <circle cx="102.27" cy="50.97" r="1.85"/>
        <circle cx="106.6" cy="50.97" r="1.85"/>
        <circle cx="110.93" cy="50.97" r="1.85"/>
        <circle cx="20.07" cy="56.9" r="1.85"/>
        <circle cx="24.39" cy="56.9" r="1.85"/>
        <circle cx="28.71" cy="56.9" r="1.85"/>
        <circle cx="33.03" cy="56.9" r="1.85"/>
        <circle cx="37.35" cy="56.9" r="1.85"/>
        <circle cx="41.67" cy="56.9" r="1.85"/>
        <circle cx="45.99" cy="56.9" r="1.85"/>
        <circle cx="50.31" cy="56.9" r="1.85"/>
        <circle cx="54.64" cy="56.9" r="1.85"/>
        <circle cx="58.97" cy="56.9" r="1.85"/>
        <circle cx="63.3" cy="56.9" r="1.85"/>
        <circle cx="67.63" cy="56.9" r="1.85"/>
        <circle cx="71.96" cy="56.9" r="1.85"/>
        <circle cx="76.29" cy="56.9" r="1.85"/>
        <circle cx="80.62" cy="56.9" r="1.85"/>
        <circle cx="84.95" cy="56.9" r="1.85"/>
        <circle cx="89.28" cy="56.9" r="1.85"/>
        <circle cx="93.61" cy="56.9" r="1.85"/>
        <circle cx="97.94" cy="56.9" r="1.85"/>
        <circle cx="102.27" cy="56.9" r="1.85"/>
        <circle cx="106.6" cy="56.9" r="1.85"/>
        <circle cx="110.93" cy="56.9" r="1.85"/>
        <g>
            <circle cx="20.07" cy="62.83" r="1.85"/>
            <circle cx="24.39" cy="62.83" r="1.85"/>
            <circle cx="28.71" cy="62.83" r="1.85"/>
            <circle cx="33.03" cy="62.83" r="1.85"/>
            <circle cx="37.35" cy="62.83" r="1.85"/>
            <circle cx="41.67" cy="62.83" r="1.85"/>
            <circle cx="45.99" cy="62.83" r="1.85"/>
            <circle cx="50.31" cy="62.83" r="1.85"/>
            <circle cx="54.64" cy="62.83" r="1.85"/>
            <circle cx="58.97" cy="62.83" r="1.85"/>
            <circle cx="63.3" cy="62.83" r="1.85"/>
            <circle cx="67.63" cy="62.83" r="1.85"/>
            <circle cx="71.96" cy="62.83" r="1.85"/>
            <circle cx="76.29" cy="62.83" r="1.85"/>
            <circle cx="80.62" cy="62.83" r="1.85"/>
            <circle cx="84.95" cy="62.83" r="1.85"/>
            <circle cx="89.28" cy="62.83" r="1.85"/>
            <circle cx="93.61" cy="62.83" r="1.85"/>
            <circle cx="97.94" cy="62.83" r="1.85"/>
            <circle cx="102.27" cy="62.83" r="1.85"/>
            <circle cx="106.6" cy="62.83" r="1.85"/>
            <circle cx="110.93" cy="62.83" r="1.85"/>
        </g>
        <g>
            <circle cx="11.4" cy="163.66" r="1.85"/>
            <circle cx="15.73" cy="163.66" r="1.85"/>
            <circle cx="20.05" cy="163.66" r="1.85"/>
            <circle cx="24.37" cy="163.66" r="1.85"/>
            <circle cx="28.69" cy="163.66" r="1.85"/>
            <circle cx="33.01" cy="163.66" r="1.85"/>
            <circle cx="37.33" cy="163.66" r="1.85"/>
            <circle cx="41.65" cy="163.66" r="1.85"/>
            <circle cx="45.97" cy="163.66" r="1.85"/>
            <circle cx="50.3" cy="163.66" r="1.85"/>
            <circle cx="54.64" cy="163.66" r="1.85"/>
            <circle cx="58.97" cy="163.66" r="1.85"/>
            <circle cx="63.3" cy="163.66" r="1.85"/>
            <circle cx="67.63" cy="163.66" r="1.85"/>
            <circle cx="71.96" cy="163.66" r="1.85"/>
            <circle cx="76.29" cy="163.66" r="1.85"/>
            <circle cx="80.62" cy="163.66" r="1.85"/>
            <circle cx="84.95" cy="163.66" r="1.85"/>
            <circle cx="89.28" cy="163.66" r="1.85"/>
            <circle cx="93.61" cy="163.66" r="1.85"/>
            <circle cx="97.94" cy="163.66" r="1.85"/>
            <circle cx="102.27" cy="163.66" r="1.85"/>
            <circle cx="106.6" cy="163.66" r="1.85"/>
            <circle cx="110.93" cy="163.66" r="1.85"/>
        </g>
        <g>
            <circle cx="11.4" cy="9.45" r="1.85"/>
            <circle cx="15.73" cy="9.45" r="1.85"/>
            <circle cx="20.05" cy="9.45" r="1.85"/>
            <circle cx="24.37" cy="9.45" r="1.85"/>
            <circle cx="28.69" cy="9.45" r="1.85"/>
            <circle cx="33.01" cy="9.45" r="1.85"/>
            <circle cx="37.33" cy="9.45" r="1.85"/>
            <circle cx="41.65" cy="9.45" r="1.85"/>
            <circle cx="45.97" cy="9.45" r="1.85"/>
            <circle cx="50.3" cy="9.45" r="1.85"/>
            <circle cx="54.64" cy="9.45" r="1.85"/>
            <circle cx="58.97" cy="9.45" r="1.85"/>
            <circle cx="63.3" cy="9.45" r="1.85"/>
            <circle cx="67.63" cy="9.45" r="1.85"/>
            <circle cx="71.96" cy="9.45" r="1.85"/>
            <circle cx="76.29" cy="9.45" r="1.85"/>
            <circle cx="80.62" cy="9.45" r="1.85"/>
            <circle cx="84.95" cy="9.45" r="1.85"/>
            <circle cx="89.28" cy="9.45" r="1.85"/>
            <circle cx="93.61" cy="9.45" r="1.85"/>
            <circle cx="97.94" cy="9.45" r="1.85"/>
            <circle cx="102.27" cy="9.45" r="1.85"/>
            <circle cx="106.6" cy="9.45" r="1.85"/>
            <circle cx="110.93" cy="9.45" r="1.85"/>
            <circle cx="115.27" cy="9.45" r="1.85"/>
            <circle cx="119.6" cy="9.45" r="1.85"/>
        </g>
        <g>
            <circle cx="11.4" cy="15.38" r="1.85"/>
            <circle cx="15.73" cy="15.38" r="1.85"/>
            <circle cx="20.05" cy="15.38" r="1.85"/>
            <circle cx="24.37" cy="15.38" r="1.85"/>
            <circle cx="28.69" cy="15.38" r="1.85"/>
            <circle cx="33.01" cy="15.38" r="1.85"/>
            <circle cx="37.33" cy="15.38" r="1.85"/>
            <circle cx="41.65" cy="15.38" r="1.85"/>
            <circle cx="45.97" cy="15.38" r="1.85"/>
            <circle cx="50.3" cy="15.38" r="1.85"/>
            <circle cx="54.64" cy="15.38" r="1.85"/>
            <circle cx="58.97" cy="15.38" r="1.85"/>
            <circle cx="63.3" cy="15.38" r="1.85"/>
            <circle cx="67.63" cy="15.38" r="1.85"/>
            <circle cx="71.96" cy="15.38" r="1.85"/>
            <circle cx="76.29" cy="15.38" r="1.85"/>
            <circle cx="80.62" cy="15.38" r="1.85"/>
            <circle cx="84.95" cy="15.38" r="1.85"/>
            <circle cx="89.28" cy="15.38" r="1.85"/>
            <circle cx="93.61" cy="15.38" r="1.85"/>
            <circle cx="97.94" cy="15.38" r="1.85"/>
            <circle cx="102.27" cy="15.38" r="1.85"/>
            <circle cx="106.6" cy="15.38" r="1.85"/>
            <circle cx="110.93" cy="15.38" r="1.85"/>
            <circle cx="115.27" cy="15.38" r="1.85"/>
            <circle cx="119.6" cy="15.38" r="1.85"/>
        </g>
        <g>
            <circle cx="11.4" cy="21.32" r="1.85"/>
            <circle cx="15.73" cy="21.32" r="1.85"/>
            <circle cx="20.05" cy="21.32" r="1.85"/>
            <circle cx="24.37" cy="21.32" r="1.85"/>
            <circle cx="28.69" cy="21.32" r="1.85"/>
            <circle cx="33.01" cy="21.32" r="1.85"/>
            <circle cx="37.33" cy="21.32" r="1.85"/>
            <circle cx="41.65" cy="21.32" r="1.85"/>
            <circle cx="45.97" cy="21.32" r="1.85"/>
            <circle cx="50.3" cy="21.32" r="1.85"/>
            <circle cx="54.64" cy="21.32" r="1.85"/>
            <circle cx="58.97" cy="21.32" r="1.85"/>
            <circle cx="63.3" cy="21.32" r="1.85"/>
            <circle cx="67.63" cy="21.32" r="1.85"/>
            <circle cx="71.96" cy="21.32" r="1.85"/>
            <circle cx="76.29" cy="21.32" r="1.85"/>
            <circle cx="80.62" cy="21.32" r="1.85"/>
            <circle cx="84.95" cy="21.32" r="1.85"/>
            <circle cx="89.28" cy="21.32" r="1.85"/>
            <circle cx="93.61" cy="21.32" r="1.85"/>
            <circle cx="97.94" cy="21.32" r="1.85"/>
            <circle cx="102.27" cy="21.32" r="1.85"/>
            <circle cx="106.6" cy="21.32" r="1.85"/>
            <circle cx="110.93" cy="21.32" r="1.85"/>
            <circle cx="115.27" cy="21.32" r="1.85"/>
            <circle cx="119.6" cy="21.32" r="1.85"/>
        </g>
        <g>
            <circle cx="11.4" cy="27.25" r="1.85"/>
            <circle cx="15.73" cy="27.25" r="1.85"/>
            <circle cx="20.05" cy="27.25" r="1.85"/>
            <circle cx="24.37" cy="27.25" r="1.85"/>
            <circle cx="28.69" cy="27.25" r="1.85"/>
            <circle cx="33.01" cy="27.25" r="1.85"/>
            <circle cx="37.33" cy="27.25" r="1.85"/>
            <circle cx="41.65" cy="27.25" r="1.85"/>
            <circle cx="45.97" cy="27.25" r="1.85"/>
            <circle cx="50.3" cy="27.25" r="1.85"/>
            <circle cx="54.64" cy="27.25" r="1.85"/>
            <circle cx="58.97" cy="27.25" r="1.85"/>
            <circle cx="63.3" cy="27.25" r="1.85"/>
            <circle cx="67.63" cy="27.25" r="1.85"/>
            <circle cx="71.96" cy="27.25" r="1.85"/>
            <circle cx="76.29" cy="27.25" r="1.85"/>
            <circle cx="80.62" cy="27.25" r="1.85"/>
            <circle cx="84.95" cy="27.25" r="1.85"/>
            <circle cx="89.28" cy="27.25" r="1.85"/>
            <circle cx="93.61" cy="27.25" r="1.85"/>
            <circle cx="97.94" cy="27.25" r="1.85"/>
            <circle cx="102.27" cy="27.25" r="1.85"/>
            <circle cx="106.6" cy="27.25" r="1.85"/>
            <circle cx="110.93" cy="27.25" r="1.85"/>
            <circle cx="115.27" cy="27.25" r="1.85"/>
            <circle cx="119.6" cy="27.25" r="1.85"/>
        </g>
        <g>
            <circle cx="11.4" cy="33.18" r="1.85"/>
            <circle cx="15.73" cy="33.18" r="1.85"/>
            <circle cx="20.05" cy="33.18" r="1.85"/>
            <circle cx="24.37" cy="33.18" r="1.85"/>
            <circle cx="28.69" cy="33.18" r="1.85"/>
            <circle cx="33.01" cy="33.18" r="1.85"/>
            <circle cx="37.33" cy="33.18" r="1.85"/>
            <circle cx="41.65" cy="33.18" r="1.85"/>
            <circle cx="45.97" cy="33.18" r="1.85"/>
            <circle cx="50.3" cy="33.18" r="1.85"/>
            <circle cx="54.64" cy="33.18" r="1.85"/>
            <circle cx="58.97" cy="33.18" r="1.85"/>
            <circle cx="63.3" cy="33.18" r="1.85"/>
            <circle cx="67.63" cy="33.18" r="1.85"/>
            <circle cx="71.96" cy="33.18" r="1.85"/>
            <circle cx="76.29" cy="33.18" r="1.85"/>
            <circle cx="80.62" cy="33.18" r="1.85"/>
            <circle cx="84.95" cy="33.18" r="1.85"/>
            <circle cx="89.28" cy="33.18" r="1.85"/>
            <circle cx="93.61" cy="33.18" r="1.85"/>
            <circle cx="97.94" cy="33.18" r="1.85"/>
            <circle cx="102.27" cy="33.18" r="1.85"/>
            <circle cx="106.6" cy="33.18" r="1.85"/>
            <circle cx="110.93" cy="33.18" r="1.85"/>
            <circle cx="115.27" cy="33.18" r="1.85"/>
            <circle cx="119.6" cy="33.18" r="1.85"/>
        </g>
        <g>
            <circle cx="11.4" cy="68.76" r="1.85"/>
            <circle cx="15.73" cy="68.76" r="1.85"/>
            <circle cx="20.05" cy="68.76" r="1.85"/>
            <circle cx="24.37" cy="68.76" r="1.85"/>
            <circle cx="28.69" cy="68.76" r="1.85"/>
            <circle cx="33.01" cy="68.76" r="1.85"/>
            <circle cx="37.33" cy="68.76" r="1.85"/>
            <circle cx="41.65" cy="68.76" r="1.85"/>
            <circle cx="45.97" cy="68.76" r="1.85"/>
            <circle cx="50.3" cy="68.76" r="1.85"/>
            <circle cx="54.64" cy="68.76" r="1.85"/>
            <circle cx="58.97" cy="68.76" r="1.85"/>
            <circle cx="63.3" cy="68.76" r="1.85"/>
            <circle cx="67.63" cy="68.76" r="1.85"/>
            <circle cx="71.96" cy="68.76" r="1.85"/>
            <circle cx="76.29" cy="68.76" r="1.85"/>
            <circle cx="80.62" cy="68.76" r="1.85"/>
            <circle cx="84.95" cy="68.76" r="1.85"/>
            <circle cx="89.28" cy="68.76" r="1.85"/>
            <circle cx="93.61" cy="68.76" r="1.85"/>
            <circle cx="97.94" cy="68.76" r="1.85"/>
            <circle cx="102.27" cy="68.76" r="1.85"/>
            <circle cx="106.6" cy="68.76" r="1.85"/>
            <circle cx="110.93" cy="68.76" r="1.85"/>
            <circle cx="115.27" cy="68.76" r="1.85"/>
            <circle cx="119.6" cy="68.76" r="1.85"/>
        </g>
        <g>
            <circle cx="11.4" cy="74.69" r="1.85"/>
            <circle cx="15.73" cy="74.69" r="1.85"/>
            <circle cx="20.05" cy="74.69" r="1.85"/>
            <circle cx="24.37" cy="74.69" r="1.85"/>
            <circle cx="28.69" cy="74.69" r="1.85"/>
            <circle cx="33.01" cy="74.69" r="1.85"/>
            <circle cx="37.33" cy="74.69" r="1.85"/>
            <circle cx="41.65" cy="74.69" r="1.85"/>
            <circle cx="45.97" cy="74.69" r="1.85"/>
            <circle cx="50.3" cy="74.69" r="1.85"/>
            <circle cx="54.64" cy="74.69" r="1.85"/>
            <circle cx="58.97" cy="74.69" r="1.85"/>
            <circle cx="63.3" cy="74.69" r="1.85"/>
            <circle cx="67.63" cy="74.69" r="1.85"/>
            <circle cx="71.96" cy="74.69" r="1.85"/>
            <circle cx="76.29" cy="74.69" r="1.85"/>
            <circle cx="80.62" cy="74.69" r="1.85"/>
            <circle cx="84.95" cy="74.69" r="1.85"/>
            <circle cx="89.28" cy="74.69" r="1.85"/>
            <circle cx="93.61" cy="74.69" r="1.85"/>
            <circle cx="97.94" cy="74.69" r="1.85"/>
            <circle cx="102.27" cy="74.69" r="1.85"/>
            <circle cx="106.6" cy="74.69" r="1.85"/>
            <circle cx="110.93" cy="74.69" r="1.85"/>
            <circle cx="115.27" cy="74.69" r="1.85"/>
            <circle cx="119.6" cy="74.69" r="1.85"/>
        </g>
        <g>
            <circle cx="11.4" cy="80.62" r="1.85"/>
            <circle cx="15.73" cy="80.62" r="1.85"/>
            <circle cx="20.05" cy="80.62" r="1.85"/>
            <circle cx="24.37" cy="80.62" r="1.85"/>
            <circle cx="28.69" cy="80.62" r="1.85"/>
            <circle cx="33.01" cy="80.62" r="1.85"/>
            <circle cx="37.33" cy="80.62" r="1.85"/>
            <circle cx="41.65" cy="80.62" r="1.85"/>
            <circle cx="45.97" cy="80.62" r="1.85"/>
            <circle cx="50.3" cy="80.62" r="1.85"/>
            <circle cx="54.64" cy="80.62" r="1.85"/>
            <circle cx="58.97" cy="80.62" r="1.85"/>
            <circle cx="63.3" cy="80.62" r="1.85"/>
            <circle cx="67.63" cy="80.62" r="1.85"/>
            <circle cx="71.96" cy="80.62" r="1.85"/>
            <circle cx="76.29" cy="80.62" r="1.85"/>
            <circle cx="80.62" cy="80.62" r="1.85"/>
            <circle cx="84.95" cy="80.62" r="1.85"/>
            <circle cx="89.28" cy="80.62" r="1.85"/>
            <circle cx="93.61" cy="80.62" r="1.85"/>
            <circle cx="97.94" cy="80.62" r="1.85"/>
            <circle cx="102.27" cy="80.62" r="1.85"/>
            <circle cx="106.6" cy="80.62" r="1.85"/>
            <circle cx="110.93" cy="80.62" r="1.85"/>
            <circle cx="115.27" cy="80.62" r="1.85"/>
            <circle cx="119.6" cy="80.62" r="1.85"/>
        </g>
        <g>
            <circle cx="11.4" cy="86.55" r="1.85"/>
            <circle cx="15.73" cy="86.55" r="1.85"/>
            <circle cx="20.05" cy="86.55" r="1.85"/>
            <circle cx="24.37" cy="86.55" r="1.85"/>
            <circle cx="28.69" cy="86.55" r="1.85"/>
            <circle cx="33.01" cy="86.55" r="1.85"/>
            <circle cx="37.33" cy="86.55" r="1.85"/>
            <circle cx="41.65" cy="86.55" r="1.85"/>
            <circle cx="45.97" cy="86.55" r="1.85"/>
            <circle cx="50.3" cy="86.55" r="1.85"/>
            <circle cx="54.64" cy="86.55" r="1.85"/>
            <circle cx="58.97" cy="86.55" r="1.85"/>
            <circle cx="63.3" cy="86.55" r="1.85"/>
            <circle cx="67.63" cy="86.55" r="1.85"/>
            <circle cx="71.96" cy="86.55" r="1.85"/>
            <circle cx="76.29" cy="86.55" r="1.85"/>
            <circle cx="80.62" cy="86.55" r="1.85"/>
            <circle cx="84.95" cy="86.55" r="1.85"/>
            <circle cx="89.28" cy="86.55" r="1.85"/>
            <circle cx="93.61" cy="86.55" r="1.85"/>
            <circle cx="97.94" cy="86.55" r="1.85"/>
            <circle cx="102.27" cy="86.55" r="1.85"/>
            <circle cx="106.6" cy="86.55" r="1.85"/>
            <circle cx="110.93" cy="86.55" r="1.85"/>
            <circle cx="115.27" cy="86.55" r="1.85"/>
            <circle cx="119.6" cy="86.55" r="1.85"/>
        </g>
        <g>
            <circle cx="11.4" cy="92.49" r="1.85"/>
            <circle cx="15.73" cy="92.49" r="1.85"/>
            <circle cx="20.05" cy="92.49" r="1.85"/>
            <circle cx="24.37" cy="92.49" r="1.85"/>
            <circle cx="28.69" cy="92.49" r="1.85"/>
            <circle cx="33.01" cy="92.49" r="1.85"/>
            <circle cx="37.33" cy="92.49" r="1.85"/>
            <circle cx="41.65" cy="92.49" r="1.85"/>
            <circle cx="45.97" cy="92.49" r="1.85"/>
            <circle cx="50.3" cy="92.49" r="1.85"/>
            <circle cx="54.64" cy="92.49" r="1.85"/>
            <circle cx="58.97" cy="92.49" r="1.85"/>
            <circle cx="63.3" cy="92.49" r="1.85"/>
            <circle cx="67.63" cy="92.49" r="1.85"/>
            <circle cx="71.96" cy="92.49" r="1.85"/>
            <circle cx="76.29" cy="92.49" r="1.85"/>
            <circle cx="80.62" cy="92.49" r="1.85"/>
            <circle cx="84.95" cy="92.49" r="1.85"/>
            <circle cx="89.28" cy="92.49" r="1.85"/>
            <circle cx="93.61" cy="92.49" r="1.85"/>
            <circle cx="97.94" cy="92.49" r="1.85"/>
            <circle cx="102.27" cy="92.49" r="1.85"/>
            <circle cx="106.6" cy="92.49" r="1.85"/>
            <circle cx="110.93" cy="92.49" r="1.85"/>
            <circle cx="115.27" cy="92.49" r="1.85"/>
            <circle cx="119.6" cy="92.49" r="1.85"/>
        </g>
        <g>
            <circle cx="11.4" cy="98.42" r="1.85"/>
            <circle cx="15.73" cy="98.42" r="1.85"/>
            <circle cx="20.05" cy="98.42" r="1.85"/>
            <circle cx="24.37" cy="98.42" r="1.85"/>
            <circle cx="28.69" cy="98.42" r="1.85"/>
            <circle cx="33.01" cy="98.42" r="1.85"/>
            <circle cx="37.33" cy="98.42" r="1.85"/>
            <circle cx="41.65" cy="98.42" r="1.85"/>
            <circle cx="45.97" cy="98.42" r="1.85"/>
            <circle cx="50.3" cy="98.42" r="1.85"/>
            <circle cx="54.64" cy="98.42" r="1.85"/>
            <circle cx="58.97" cy="98.42" r="1.85"/>
            <circle cx="63.3" cy="98.42" r="1.85"/>
            <circle cx="67.63" cy="98.42" r="1.85"/>
            <circle cx="71.96" cy="98.42" r="1.85"/>
            <circle cx="76.29" cy="98.42" r="1.85"/>
            <circle cx="80.62" cy="98.42" r="1.85"/>
            <circle cx="84.95" cy="98.42" r="1.85"/>
            <circle cx="89.28" cy="98.42" r="1.85"/>
            <circle cx="93.61" cy="98.42" r="1.85"/>
            <circle cx="97.94" cy="98.42" r="1.85"/>
            <circle cx="102.27" cy="98.42" r="1.85"/>
            <circle cx="106.6" cy="98.42" r="1.85"/>
            <circle cx="110.93" cy="98.42" r="1.85"/>
            <circle cx="115.27" cy="98.42" r="1.85"/>
            <circle cx="119.6" cy="98.42" r="1.85"/>
        </g>
        <g>
            <circle cx="11.4" cy="104.35" r="1.85"/>
            <circle cx="15.73" cy="104.35" r="1.85"/>
            <circle cx="20.05" cy="104.35" r="1.85"/>
            <circle cx="24.37" cy="104.35" r="1.85"/>
            <circle cx="28.69" cy="104.35" r="1.85"/>
            <circle cx="33.01" cy="104.35" r="1.85"/>
            <circle cx="37.33" cy="104.35" r="1.85"/>
            <circle cx="41.65" cy="104.35" r="1.85"/>
            <circle cx="45.97" cy="104.35" r="1.85"/>
            <circle cx="50.3" cy="104.35" r="1.85"/>
            <circle cx="54.64" cy="104.35" r="1.85"/>
            <circle cx="58.97" cy="104.35" r="1.85"/>
            <circle cx="63.3" cy="104.35" r="1.85"/>
            <circle cx="67.63" cy="104.35" r="1.85"/>
            <circle cx="71.96" cy="104.35" r="1.85"/>
            <circle cx="76.29" cy="104.35" r="1.85"/>
            <circle cx="80.62" cy="104.35" r="1.85"/>
            <circle cx="84.95" cy="104.35" r="1.85"/>
            <circle cx="89.28" cy="104.35" r="1.85"/>
            <circle cx="93.61" cy="104.35" r="1.85"/>
            <circle cx="97.94" cy="104.35" r="1.85"/>
            <circle cx="102.27" cy="104.35" r="1.85"/>
            <circle cx="106.6" cy="104.35" r="1.85"/>
            <circle cx="110.93" cy="104.35" r="1.85"/>
            <circle cx="115.27" cy="104.35" r="1.85"/>
            <circle cx="119.6" cy="104.35" r="1.85"/>
        </g>
        <g>
            <circle cx="11.4" cy="110.28" r="1.85"/>
            <circle cx="15.73" cy="110.28" r="1.85"/>
            <circle cx="20.05" cy="110.28" r="1.85"/>
            <circle cx="24.37" cy="110.28" r="1.85"/>
            <circle cx="28.69" cy="110.28" r="1.85"/>
            <circle cx="33.01" cy="110.28" r="1.85"/>
            <circle cx="37.33" cy="110.28" r="1.85"/>
            <circle cx="41.65" cy="110.28" r="1.85"/>
            <circle cx="45.97" cy="110.28" r="1.85"/>
            <circle cx="50.3" cy="110.28" r="1.85"/>
            <circle cx="54.64" cy="110.28" r="1.85"/>
            <circle cx="58.97" cy="110.28" r="1.85"/>
            <circle cx="63.3" cy="110.28" r="1.85"/>
            <circle cx="67.63" cy="110.28" r="1.85"/>
            <circle cx="71.96" cy="110.28" r="1.85"/>
            <circle cx="76.29" cy="110.28" r="1.85"/>
            <circle cx="80.62" cy="110.28" r="1.85"/>
            <circle cx="84.95" cy="110.28" r="1.85"/>
            <circle cx="89.28" cy="110.28" r="1.85"/>
            <circle cx="93.61" cy="110.28" r="1.85"/>
            <circle cx="97.94" cy="110.28" r="1.85"/>
            <circle cx="102.27" cy="110.28" r="1.85"/>
            <circle cx="106.6" cy="110.28" r="1.85"/>
            <circle cx="110.93" cy="110.28" r="1.85"/>
            <circle cx="115.27" cy="110.28" r="1.85"/>
            <circle cx="119.6" cy="110.28" r="1.85"/>
        </g>
        <g>
            <circle cx="11.4" cy="116.21" r="1.85"/>
            <circle cx="15.73" cy="116.21" r="1.85"/>
            <circle cx="20.05" cy="116.21" r="1.85"/>
            <circle cx="24.37" cy="116.21" r="1.85"/>
            <circle cx="28.69" cy="116.21" r="1.85"/>
            <circle cx="33.01" cy="116.21" r="1.85"/>
            <circle cx="37.33" cy="116.21" r="1.85"/>
            <circle cx="41.65" cy="116.21" r="1.85"/>
            <circle cx="45.97" cy="116.21" r="1.85"/>
            <circle cx="50.3" cy="116.21" r="1.85"/>
            <circle cx="54.64" cy="116.21" r="1.85"/>
            <circle cx="58.97" cy="116.21" r="1.85"/>
            <circle cx="63.3" cy="116.21" r="1.85"/>
            <circle cx="67.63" cy="116.21" r="1.85"/>
            <circle cx="71.96" cy="116.21" r="1.85"/>
            <circle cx="76.29" cy="116.21" r="1.85"/>
            <circle cx="80.62" cy="116.21" r="1.85"/>
            <circle cx="84.95" cy="116.21" r="1.85"/>
            <circle cx="89.28" cy="116.21" r="1.85"/>
            <circle cx="93.61" cy="116.21" r="1.85"/>
            <circle cx="97.94" cy="116.21" r="1.85"/>
            <circle cx="102.27" cy="116.21" r="1.85"/>
            <circle cx="106.6" cy="116.21" r="1.85"/>
            <circle cx="110.93" cy="116.21" r="1.85"/>
            <circle cx="115.27" cy="116.21" r="1.85"/>
            <circle cx="119.6" cy="116.21" r="1.85"/>
        </g>
        <g>
            <circle cx="11.4" cy="122.14" r="1.85"/>
            <circle cx="15.73" cy="122.14" r="1.85"/>
            <circle cx="20.05" cy="122.14" r="1.85"/>
            <circle cx="24.37" cy="122.14" r="1.85"/>
            <circle cx="28.69" cy="122.14" r="1.85"/>
            <circle cx="33.01" cy="122.14" r="1.85"/>
            <circle cx="37.33" cy="122.14" r="1.85"/>
            <circle cx="41.65" cy="122.14" r="1.85"/>
            <circle cx="45.97" cy="122.14" r="1.85"/>
            <circle cx="50.3" cy="122.14" r="1.85"/>
            <circle cx="54.64" cy="122.14" r="1.85"/>
            <circle cx="58.97" cy="122.14" r="1.85"/>
            <circle cx="63.3" cy="122.14" r="1.85"/>
            <circle cx="67.63" cy="122.14" r="1.85"/>
            <circle cx="71.96" cy="122.14" r="1.85"/>
            <circle cx="76.29" cy="122.14" r="1.85"/>
            <circle cx="80.62" cy="122.14" r="1.85"/>
            <circle cx="84.95" cy="122.14" r="1.85"/>
            <circle cx="89.28" cy="122.14" r="1.85"/>
            <circle cx="93.61" cy="122.14" r="1.85"/>
            <circle cx="97.94" cy="122.14" r="1.85"/>
            <circle cx="102.27" cy="122.14" r="1.85"/>
            <circle cx="106.6" cy="122.14" r="1.85"/>
            <circle cx="110.93" cy="122.14" r="1.85"/>
            <circle cx="115.27" cy="122.14" r="1.85"/>
            <circle cx="119.6" cy="122.14" r="1.85"/>
        </g>
        <g>
            <circle cx="11.4" cy="128.07" r="1.85"/>
            <circle cx="15.73" cy="128.07" r="1.85"/>
            <circle cx="20.05" cy="128.07" r="1.85"/>
            <circle cx="24.37" cy="128.07" r="1.85"/>
            <circle cx="28.69" cy="128.07" r="1.85"/>
            <circle cx="33.01" cy="128.07" r="1.85"/>
            <circle cx="37.33" cy="128.07" r="1.85"/>
            <circle cx="41.65" cy="128.07" r="1.85"/>
            <circle cx="45.97" cy="128.07" r="1.85"/>
            <circle cx="50.3" cy="128.07" r="1.85"/>
            <circle cx="54.64" cy="128.07" r="1.85"/>
            <circle cx="58.97" cy="128.07" r="1.85"/>
            <circle cx="63.3" cy="128.07" r="1.85"/>
            <circle cx="67.63" cy="128.07" r="1.85"/>
            <circle cx="71.96" cy="128.07" r="1.85"/>
            <circle cx="76.29" cy="128.07" r="1.85"/>
            <circle cx="80.62" cy="128.07" r="1.85"/>
            <circle cx="84.95" cy="128.07" r="1.85"/>
            <circle cx="89.28" cy="128.07" r="1.85"/>
            <circle cx="93.61" cy="128.07" r="1.85"/>
            <circle cx="97.94" cy="128.07" r="1.85"/>
            <circle cx="102.27" cy="128.07" r="1.85"/>
            <circle cx="106.6" cy="128.07" r="1.85"/>
            <circle cx="110.93" cy="128.07" r="1.85"/>
            <circle cx="115.27" cy="128.07" r="1.85"/>
            <circle cx="119.6" cy="128.07" r="1.85"/>
        </g>
        <g>
            <circle cx="11.4" cy="134" r="1.85"/>
            <circle cx="15.73" cy="134" r="1.85"/>
            <circle cx="20.05" cy="134" r="1.85"/>
            <circle cx="24.37" cy="134" r="1.85"/>
            <circle cx="28.69" cy="134" r="1.85"/>
            <circle cx="33.01" cy="134" r="1.85"/>
            <circle cx="37.33" cy="134" r="1.85"/>
            <circle cx="41.65" cy="134" r="1.85"/>
            <circle cx="45.97" cy="134" r="1.85"/>
            <circle cx="50.3" cy="134" r="1.85"/>
            <circle cx="54.64" cy="134" r="1.85"/>
            <circle cx="58.97" cy="134" r="1.85"/>
            <circle cx="63.3" cy="134" r="1.85"/>
            <circle cx="67.63" cy="134" r="1.85"/>
            <circle cx="71.96" cy="134" r="1.85"/>
            <circle cx="76.29" cy="134" r="1.85"/>
            <circle cx="80.62" cy="134" r="1.85"/>
            <circle cx="84.95" cy="134" r="1.85"/>
            <circle cx="89.28" cy="134" r="1.85"/>
            <circle cx="93.61" cy="134" r="1.85"/>
            <circle cx="97.94" cy="134" r="1.85"/>
            <circle cx="102.27" cy="134" r="1.85"/>
            <circle cx="106.6" cy="134" r="1.85"/>
            <circle cx="110.93" cy="134" r="1.85"/>
            <circle cx="115.27" cy="134" r="1.85"/>
            <circle cx="119.6" cy="134" r="1.85"/>
        </g>
        <g>
            <circle cx="11.4" cy="139.93" r="1.85"/>
            <circle cx="15.73" cy="139.93" r="1.85"/>
            <circle cx="20.05" cy="139.93" r="1.85"/>
            <circle cx="24.37" cy="139.93" r="1.85"/>
            <circle cx="28.69" cy="139.93" r="1.85"/>
            <circle cx="33.01" cy="139.93" r="1.85"/>
            <circle cx="37.33" cy="139.93" r="1.85"/>
            <circle cx="41.65" cy="139.93" r="1.85"/>
            <circle cx="45.97" cy="139.93" r="1.85"/>
            <circle cx="50.3" cy="139.93" r="1.85"/>
            <circle cx="54.64" cy="139.93" r="1.85"/>
            <circle cx="58.97" cy="139.93" r="1.85"/>
            <circle cx="63.3" cy="139.93" r="1.85"/>
            <circle cx="67.63" cy="139.93" r="1.85"/>
            <circle cx="71.96" cy="139.93" r="1.85"/>
            <circle cx="76.29" cy="139.93" r="1.85"/>
            <circle cx="80.62" cy="139.93" r="1.85"/>
            <circle cx="84.95" cy="139.93" r="1.85"/>
            <circle cx="89.28" cy="139.93" r="1.85"/>
            <circle cx="93.61" cy="139.93" r="1.85"/>
            <circle cx="97.94" cy="139.93" r="1.85"/>
            <circle cx="102.27" cy="139.93" r="1.85"/>
            <circle cx="106.6" cy="139.93" r="1.85"/>
            <circle cx="110.93" cy="139.93" r="1.85"/>
            <circle cx="115.27" cy="139.93" r="1.85"/>
            <circle cx="119.6" cy="139.93" r="1.85"/>
        </g>
        <g>
            <circle cx="11.4" cy="145.86" r="1.85"/>
            <circle cx="15.73" cy="145.86" r="1.85"/>
            <circle cx="20.05" cy="145.86" r="1.85"/>
            <circle cx="24.37" cy="145.86" r="1.85"/>
            <circle cx="28.69" cy="145.86" r="1.85"/>
            <circle cx="33.01" cy="145.86" r="1.85"/>
            <circle cx="37.33" cy="145.86" r="1.85"/>
            <circle cx="41.65" cy="145.86" r="1.85"/>
            <circle cx="45.97" cy="145.86" r="1.85"/>
            <circle cx="50.3" cy="145.86" r="1.85"/>
            <circle cx="54.64" cy="145.86" r="1.85"/>
            <circle cx="58.97" cy="145.86" r="1.85"/>
            <circle cx="63.3" cy="145.86" r="1.85"/>
            <circle cx="67.63" cy="145.86" r="1.85"/>
            <circle cx="71.96" cy="145.86" r="1.85"/>
            <circle cx="76.29" cy="145.86" r="1.85"/>
            <circle cx="80.62" cy="145.86" r="1.85"/>
            <circle cx="84.95" cy="145.86" r="1.85"/>
            <circle cx="89.28" cy="145.86" r="1.85"/>
            <circle cx="93.61" cy="145.86" r="1.85"/>
            <circle cx="97.94" cy="145.86" r="1.85"/>
            <circle cx="102.27" cy="145.86" r="1.85"/>
            <circle cx="106.6" cy="145.86" r="1.85"/>
            <circle cx="110.93" cy="145.86" r="1.85"/>
            <circle cx="115.27" cy="145.86" r="1.85"/>
            <circle cx="119.6" cy="145.86" r="1.85"/>
        </g>
        <g>
            <circle cx="11.4" cy="151.79" r="1.85"/>
            <circle cx="15.73" cy="151.79" r="1.85"/>
            <circle cx="20.05" cy="151.79" r="1.85"/>
            <circle cx="24.37" cy="151.79" r="1.85"/>
            <circle cx="28.69" cy="151.79" r="1.85"/>
            <circle cx="33.01" cy="151.79" r="1.85"/>
            <circle cx="37.33" cy="151.79" r="1.85"/>
            <circle cx="41.65" cy="151.79" r="1.85"/>
            <circle cx="45.97" cy="151.79" r="1.85"/>
            <circle cx="50.3" cy="151.79" r="1.85"/>
            <circle cx="54.64" cy="151.79" r="1.85"/>
            <circle cx="58.97" cy="151.79" r="1.85"/>
            <circle cx="63.3" cy="151.79" r="1.85"/>
            <circle cx="67.63" cy="151.79" r="1.85"/>
            <circle cx="71.96" cy="151.79" r="1.85"/>
            <circle cx="76.29" cy="151.79" r="1.85"/>
            <circle cx="80.62" cy="151.79" r="1.85"/>
            <circle cx="84.95" cy="151.79" r="1.85"/>
            <circle cx="89.28" cy="151.79" r="1.85"/>
            <circle cx="93.61" cy="151.79" r="1.85"/>
            <circle cx="97.94" cy="151.79" r="1.85"/>
            <circle cx="102.27" cy="151.79" r="1.85"/>
            <circle cx="106.6" cy="151.79" r="1.85"/>
            <circle cx="110.93" cy="151.79" r="1.85"/>
            <circle cx="115.27" cy="151.79" r="1.85"/>
            <circle cx="119.6" cy="151.79" r="1.85"/>
        </g>
        <g>
            <circle cx="11.4" cy="157.72" r="1.85"/>
            <circle cx="15.73" cy="157.72" r="1.85"/>
            <circle cx="20.05" cy="157.72" r="1.85"/>
            <circle cx="24.37" cy="157.72" r="1.85"/>
            <circle cx="28.69" cy="157.72" r="1.85"/>
            <circle cx="33.01" cy="157.72" r="1.85"/>
            <circle cx="37.33" cy="157.72" r="1.85"/>
            <circle cx="41.65" cy="157.72" r="1.85"/>
            <circle cx="45.97" cy="157.72" r="1.85"/>
            <circle cx="50.3" cy="157.72" r="1.85"/>
            <circle cx="54.64" cy="157.72" r="1.85"/>
            <circle cx="58.97" cy="157.72" r="1.85"/>
            <circle cx="63.3" cy="157.72" r="1.85"/>
            <circle cx="67.63" cy="157.72" r="1.85"/>
            <circle cx="71.96" cy="157.72" r="1.85"/>
            <circle cx="76.29" cy="157.72" r="1.85"/>
            <circle cx="80.62" cy="157.72" r="1.85"/>
            <circle cx="84.95" cy="157.72" r="1.85"/>
            <circle cx="89.28" cy="157.72" r="1.85"/>
            <circle cx="93.61" cy="157.72" r="1.85"/>
            <circle cx="97.94" cy="157.72" r="1.85"/>
            <circle cx="102.27" cy="157.72" r="1.85"/>
            <circle cx="106.6" cy="157.72" r="1.85"/>
            <circle cx="110.93" cy="157.72" r="1.85"/>
            <circle cx="115.27" cy="157.72" r="1.85"/>
            <circle cx="119.6" cy="157.72" r="1.85"/>
        </g>
    </g>
</svg>
