<?xml version="1.0" encoding="utf-8"?>
<!-- Generator: Adobe Illustrator 23.0.1, SVG Export Plug-In . SVG Version: 6.00 Build 0)  -->
<svg version="1.1" id="Layer_1" xmlns="http://www.w3.org/2000/svg" xmlns:xlink="http://www.w3.org/1999/xlink" x="0px" y="0px"
	 width="131px" height="202px" viewBox="0 0 131 202" enable-background="new 0 0 131 202" xml:space="preserve">
<g onclick="this.parentNode.sekt.push(this);this.a_name=&quot;E 7 (верх)&quot;;">
	
		<polygon onclick="this.parentNode.a_fon=this;" fill="#F1F3F4" stroke="#BCC8CE" stroke-width="0.4" stroke-linecap="round" stroke-miterlimit="10" points="
		0.53,0.38 130.47,0.39 130.47,174.37 0.53,201.57 	"/>
	<g onclick="this.parentNode.a_row=this;">
		
			<line onclick="this.a_par={beg_namb:1,quant:26};" fill="none" stroke="#D3DBDF" stroke-width="0.4" stroke-miterlimit="10" x1="9.56" y1="9.45" x2="121.44" y2="9.45"/>
		
			<line onclick="this.a_par={beg_namb:1,quant:26};" fill="none" stroke="#D3DBDF" stroke-width="0.4" stroke-miterlimit="10" x1="9.56" y1="15.38" x2="121.44" y2="15.38"/>
		
			<line onclick="this.a_par={beg_namb:1,quant:26};" fill="none" stroke="#D3DBDF" stroke-width="0.4" stroke-miterlimit="10" x1="9.56" y1="21.32" x2="121.44" y2="21.32"/>
		
			<line onclick="this.a_par={beg_namb:1,quant:26};" fill="none" stroke="#D3DBDF" stroke-width="0.4" stroke-miterlimit="10" x1="9.56" y1="27.25" x2="121.44" y2="27.25"/>
		
			<line onclick="this.a_par={beg_namb:1,quant:26};" fill="none" stroke="#D3DBDF" stroke-width="0.4" stroke-miterlimit="10" x1="9.56" y1="33.18" x2="121.44" y2="33.18"/>
		
			<line onclick="this.a_par={beg_namb:1,quant:22};" fill="none" stroke="#D3DBDF" stroke-width="0.4" stroke-miterlimit="10" x1="18.22" y1="39.11" x2="112.78" y2="39.11"/>
		
			<line onclick="this.a_par={beg_namb:1,quant:22};" fill="none" stroke="#D3DBDF" stroke-width="0.4" stroke-miterlimit="10" x1="18.22" y1="45.04" x2="112.78" y2="45.04"/>
		
			<line onclick="this.a_par={beg_namb:1,quant:22};" fill="none" stroke="#D3DBDF" stroke-width="0.4" stroke-miterlimit="10" x1="18.22" y1="50.97" x2="112.78" y2="50.97"/>
		
			<line onclick="this.a_par={beg_namb:1,quant:22};" fill="none" stroke="#D3DBDF" stroke-width="0.4" stroke-miterlimit="10" x1="18.22" y1="56.9" x2="112.78" y2="56.9"/>
		
			<line onclick="this.a_par={beg_namb:1,quant:22};" fill="none" stroke="#D3DBDF" stroke-width="0.4" stroke-miterlimit="10" x1="18.22" y1="62.83" x2="112.78" y2="62.83"/>
		
			<line onclick="this.a_par={beg_namb:1,quant:26};" fill="none" stroke="#D3DBDF" stroke-width="0.4" stroke-miterlimit="10" x1="9.56" y1="68.76" x2="121.44" y2="68.76"/>
		
			<line onclick="this.a_par={beg_namb:1,quant:26};" fill="none" stroke="#D3DBDF" stroke-width="0.4" stroke-miterlimit="10" x1="9.56" y1="74.69" x2="121.44" y2="74.69"/>
		
			<line onclick="this.a_par={beg_namb:1,quant:26};" fill="none" stroke="#D3DBDF" stroke-width="0.4" stroke-miterlimit="10" x1="9.56" y1="80.62" x2="121.44" y2="80.62"/>
		
			<line onclick="this.a_par={beg_namb:1,quant:26};" fill="none" stroke="#D3DBDF" stroke-width="0.4" stroke-miterlimit="10" x1="9.56" y1="86.55" x2="121.44" y2="86.55"/>
		
			<line onclick="this.a_par={beg_namb:1,quant:26};" fill="none" stroke="#D3DBDF" stroke-width="0.4" stroke-miterlimit="10" x1="9.56" y1="92.49" x2="121.44" y2="92.49"/>
		
			<line onclick="this.a_par={beg_namb:1,quant:26};" fill="none" stroke="#D3DBDF" stroke-width="0.4" stroke-miterlimit="10" x1="9.56" y1="98.42" x2="121.44" y2="98.42"/>
		
			<line onclick="this.a_par={beg_namb:1,quant:26};" fill="none" stroke="#D3DBDF" stroke-width="0.4" stroke-miterlimit="10" x1="9.56" y1="104.35" x2="121.44" y2="104.35"/>
		
			<line onclick="this.a_par={beg_namb:1,quant:26};" fill="none" stroke="#D3DBDF" stroke-width="0.4" stroke-miterlimit="10" x1="9.56" y1="110.28" x2="121.44" y2="110.28"/>
		
			<line onclick="this.a_par={beg_namb:1,quant:26};" fill="none" stroke="#D3DBDF" stroke-width="0.4" stroke-miterlimit="10" x1="9.56" y1="116.21" x2="121.44" y2="116.21"/>
		
			<line onclick="this.a_par={beg_namb:1,quant:26};" fill="none" stroke="#D3DBDF" stroke-width="0.4" stroke-miterlimit="10" x1="9.56" y1="122.14" x2="121.44" y2="122.14"/>
		
			<line onclick="this.a_par={beg_namb:1,quant:26};" fill="none" stroke="#D3DBDF" stroke-width="0.4" stroke-miterlimit="10" x1="9.56" y1="128.07" x2="121.44" y2="128.07"/>
		
			<line onclick="this.a_par={beg_namb:1,quant:26};" fill="none" stroke="#D3DBDF" stroke-width="0.4" stroke-miterlimit="10" x1="9.56" y1="134" x2="121.44" y2="134"/>
		
			<line onclick="this.a_par={beg_namb:1,quant:26};" fill="none" stroke="#D3DBDF" stroke-width="0.4" stroke-miterlimit="10" x1="9.56" y1="139.93" x2="121.44" y2="139.93"/>
		
			<line onclick="this.a_par={beg_namb:1,quant:26};" fill="none" stroke="#D3DBDF" stroke-width="0.4" stroke-miterlimit="10" x1="9.56" y1="145.86" x2="121.44" y2="145.86"/>
		
			<line onclick="this.a_par={beg_namb:1,quant:26};" fill="none" stroke="#D3DBDF" stroke-width="0.4" stroke-miterlimit="10" x1="9.56" y1="151.79" x2="121.44" y2="151.79"/>
		
			<line onclick="this.a_par={beg_namb:1,quant:26};" fill="none" stroke="#D3DBDF" stroke-width="0.4" stroke-miterlimit="10" x1="9.56" y1="157.72" x2="121.44" y2="157.72"/>
		
			<line onclick="this.a_par={beg_namb:1,quant:24};" fill="none" stroke="#D3DBDF" stroke-width="0.4" stroke-miterlimit="10" x1="9.56" y1="163.66" x2="112.78" y2="163.66"/>
		
			<line onclick="this.a_par={beg_namb:1,quant:20};" fill="none" stroke="#D3DBDF" stroke-width="0.4" stroke-miterlimit="10" x1="9.56" y1="169.59" x2="95.46" y2="169.59"/>
		
			<line onclick="this.a_par={beg_namb:1,quant:13};" fill="none" stroke="#D3DBDF" stroke-width="0.4" stroke-miterlimit="10" x1="9.56" y1="175.52" x2="65.14" y2="175.52"/>
		
			<line onclick="this.a_par={beg_namb:1,quant:6};" fill="none" stroke="#D3DBDF" stroke-width="0.4" stroke-miterlimit="10" x1="9.56" y1="181.45" x2="34.86" y2="181.45"/>
	</g>
	<g>
		<g>
			<circle fill="#AEBDC4" cx="11.4" cy="181.45" r="1.85"/>
			<circle fill="#AEBDC4" cx="15.73" cy="181.45" r="1.85"/>
			<circle fill="#AEBDC4" cx="20.05" cy="181.45" r="1.85"/>
			<circle fill="#AEBDC4" cx="24.37" cy="181.45" r="1.85"/>
			<circle fill="#AEBDC4" cx="28.69" cy="181.45" r="1.85"/>
			<circle fill="#AEBDC4" cx="33.01" cy="181.45" r="1.85"/>
		</g>
		<g>
			<circle fill="#AEBDC4" cx="11.4" cy="175.52" r="1.85"/>
			<circle fill="#AEBDC4" cx="15.73" cy="175.52" r="1.85"/>
			<circle fill="#AEBDC4" cx="20.05" cy="175.52" r="1.85"/>
			<circle fill="#AEBDC4" cx="24.37" cy="175.52" r="1.85"/>
			<circle fill="#AEBDC4" cx="28.69" cy="175.52" r="1.85"/>
			<circle fill="#AEBDC4" cx="33.01" cy="175.52" r="1.85"/>
			<circle fill="#AEBDC4" cx="37.33" cy="175.52" r="1.85"/>
			<circle fill="#AEBDC4" cx="41.65" cy="175.52" r="1.85"/>
			<circle fill="#AEBDC4" cx="45.97" cy="175.52" r="1.85"/>
			<circle fill="#AEBDC4" cx="50.3" cy="175.52" r="1.85"/>
			<circle fill="#AEBDC4" cx="54.64" cy="175.52" r="1.85"/>
			<circle fill="#AEBDC4" cx="58.97" cy="175.52" r="1.85"/>
			<circle fill="#AEBDC4" cx="63.3" cy="175.52" r="1.85"/>
		</g>
		<g>
			<circle fill="#AEBDC4" cx="11.4" cy="169.59" r="1.85"/>
			<circle fill="#AEBDC4" cx="15.73" cy="169.59" r="1.85"/>
			<circle fill="#AEBDC4" cx="20.05" cy="169.59" r="1.85"/>
			<circle fill="#AEBDC4" cx="24.37" cy="169.59" r="1.85"/>
			<circle fill="#AEBDC4" cx="28.69" cy="169.59" r="1.85"/>
			<circle fill="#AEBDC4" cx="33.01" cy="169.59" r="1.85"/>
			<circle fill="#AEBDC4" cx="37.33" cy="169.59" r="1.85"/>
			<circle fill="#AEBDC4" cx="41.65" cy="169.59" r="1.85"/>
			<circle fill="#AEBDC4" cx="45.97" cy="169.59" r="1.85"/>
			<circle fill="#AEBDC4" cx="50.3" cy="169.59" r="1.85"/>
			<circle fill="#AEBDC4" cx="54.64" cy="169.59" r="1.85"/>
			<circle fill="#AEBDC4" cx="58.97" cy="169.59" r="1.85"/>
			<circle fill="#AEBDC4" cx="63.3" cy="169.59" r="1.85"/>
			<circle fill="#AEBDC4" cx="67.63" cy="169.59" r="1.85"/>
			<circle fill="#AEBDC4" cx="71.96" cy="169.59" r="1.85"/>
			<circle fill="#AEBDC4" cx="76.29" cy="169.59" r="1.85"/>
			<circle fill="#AEBDC4" cx="80.62" cy="169.59" r="1.85"/>
			<circle fill="#AEBDC4" cx="84.95" cy="169.59" r="1.85"/>
			<circle fill="#AEBDC4" cx="89.28" cy="169.59" r="1.85"/>
			<circle fill="#AEBDC4" cx="93.61" cy="169.59" r="1.85"/>
		</g>
		<g>
			<circle fill="#AEBDC4" cx="20.07" cy="39.11" r="1.85"/>
			<circle fill="#AEBDC4" cx="24.39" cy="39.11" r="1.85"/>
			<circle fill="#AEBDC4" cx="28.71" cy="39.11" r="1.85"/>
			<circle fill="#AEBDC4" cx="33.03" cy="39.11" r="1.85"/>
			<circle fill="#AEBDC4" cx="37.35" cy="39.11" r="1.85"/>
			<circle fill="#AEBDC4" cx="41.67" cy="39.11" r="1.85"/>
			<circle fill="#AEBDC4" cx="45.99" cy="39.11" r="1.85"/>
			<circle fill="#AEBDC4" cx="50.31" cy="39.11" r="1.85"/>
			<circle fill="#AEBDC4" cx="54.64" cy="39.11" r="1.85"/>
			<circle fill="#AEBDC4" cx="58.97" cy="39.11" r="1.85"/>
			<circle fill="#AEBDC4" cx="63.3" cy="39.11" r="1.85"/>
			<circle fill="#AEBDC4" cx="67.63" cy="39.11" r="1.85"/>
			<circle fill="#AEBDC4" cx="71.96" cy="39.11" r="1.85"/>
			<circle fill="#AEBDC4" cx="76.29" cy="39.11" r="1.85"/>
			<circle fill="#AEBDC4" cx="80.62" cy="39.11" r="1.85"/>
			<circle fill="#AEBDC4" cx="84.95" cy="39.11" r="1.85"/>
			<circle fill="#AEBDC4" cx="89.28" cy="39.11" r="1.85"/>
			<circle fill="#AEBDC4" cx="93.61" cy="39.11" r="1.85"/>
			<circle fill="#AEBDC4" cx="97.94" cy="39.11" r="1.85"/>
			<circle fill="#AEBDC4" cx="102.27" cy="39.11" r="1.85"/>
			<circle fill="#AEBDC4" cx="106.6" cy="39.11" r="1.85"/>
			<circle fill="#AEBDC4" cx="110.93" cy="39.11" r="1.85"/>
		</g>
		<g>
			<circle fill="#AEBDC4" cx="20.07" cy="45.04" r="1.85"/>
			<circle fill="#AEBDC4" cx="24.39" cy="45.04" r="1.85"/>
			<circle fill="#AEBDC4" cx="28.71" cy="45.04" r="1.85"/>
			<circle fill="#AEBDC4" cx="33.03" cy="45.04" r="1.85"/>
			<circle fill="#AEBDC4" cx="37.35" cy="45.04" r="1.85"/>
			<circle fill="#AEBDC4" cx="41.67" cy="45.04" r="1.85"/>
			<circle fill="#AEBDC4" cx="45.99" cy="45.04" r="1.85"/>
			<circle fill="#AEBDC4" cx="50.31" cy="45.04" r="1.85"/>
			<circle fill="#AEBDC4" cx="54.64" cy="45.04" r="1.85"/>
			<circle fill="#AEBDC4" cx="58.97" cy="45.04" r="1.85"/>
			<circle fill="#AEBDC4" cx="63.3" cy="45.04" r="1.85"/>
			<circle fill="#AEBDC4" cx="67.63" cy="45.04" r="1.85"/>
			<circle fill="#AEBDC4" cx="71.96" cy="45.04" r="1.85"/>
			<circle fill="#AEBDC4" cx="76.29" cy="45.04" r="1.85"/>
			<circle fill="#AEBDC4" cx="80.62" cy="45.04" r="1.85"/>
			<circle fill="#AEBDC4" cx="84.95" cy="45.04" r="1.85"/>
			<circle fill="#AEBDC4" cx="89.28" cy="45.04" r="1.85"/>
			<circle fill="#AEBDC4" cx="93.61" cy="45.04" r="1.85"/>
			<circle fill="#AEBDC4" cx="97.94" cy="45.04" r="1.85"/>
			<circle fill="#AEBDC4" cx="102.27" cy="45.04" r="1.85"/>
			<circle fill="#AEBDC4" cx="106.6" cy="45.04" r="1.85"/>
			<circle fill="#AEBDC4" cx="110.93" cy="45.04" r="1.85"/>
		</g>
		<g>
			<circle fill="#AEBDC4" cx="20.07" cy="50.97" r="1.85"/>
			<circle fill="#AEBDC4" cx="24.39" cy="50.97" r="1.85"/>
			<circle fill="#AEBDC4" cx="28.71" cy="50.97" r="1.85"/>
			<circle fill="#AEBDC4" cx="33.03" cy="50.97" r="1.85"/>
			<circle fill="#AEBDC4" cx="37.35" cy="50.97" r="1.85"/>
			<circle fill="#AEBDC4" cx="41.67" cy="50.97" r="1.85"/>
			<circle fill="#AEBDC4" cx="45.99" cy="50.97" r="1.85"/>
			<circle fill="#AEBDC4" cx="50.31" cy="50.97" r="1.85"/>
			<circle fill="#AEBDC4" cx="54.64" cy="50.97" r="1.85"/>
			<circle fill="#AEBDC4" cx="58.97" cy="50.97" r="1.85"/>
			<circle fill="#AEBDC4" cx="63.3" cy="50.97" r="1.85"/>
			<circle fill="#AEBDC4" cx="67.63" cy="50.97" r="1.85"/>
			<circle fill="#AEBDC4" cx="71.96" cy="50.97" r="1.85"/>
			<circle fill="#AEBDC4" cx="76.29" cy="50.97" r="1.85"/>
			<circle fill="#AEBDC4" cx="80.62" cy="50.97" r="1.85"/>
			<circle fill="#AEBDC4" cx="84.95" cy="50.97" r="1.85"/>
			<circle fill="#AEBDC4" cx="89.28" cy="50.97" r="1.85"/>
			<circle fill="#AEBDC4" cx="93.61" cy="50.97" r="1.85"/>
			<circle fill="#AEBDC4" cx="97.94" cy="50.97" r="1.85"/>
			<circle fill="#AEBDC4" cx="102.27" cy="50.97" r="1.85"/>
			<circle fill="#AEBDC4" cx="106.6" cy="50.97" r="1.85"/>
			<circle fill="#AEBDC4" cx="110.93" cy="50.97" r="1.85"/>
		</g>
		<g>
			<circle fill="#AEBDC4" cx="20.07" cy="56.9" r="1.85"/>
			<circle fill="#AEBDC4" cx="24.39" cy="56.9" r="1.85"/>
			<circle fill="#AEBDC4" cx="28.71" cy="56.9" r="1.85"/>
			<circle fill="#AEBDC4" cx="33.03" cy="56.9" r="1.85"/>
			<circle fill="#AEBDC4" cx="37.35" cy="56.9" r="1.85"/>
			<circle fill="#AEBDC4" cx="41.67" cy="56.9" r="1.85"/>
			<circle fill="#AEBDC4" cx="45.99" cy="56.9" r="1.85"/>
			<circle fill="#AEBDC4" cx="50.31" cy="56.9" r="1.85"/>
			<circle fill="#AEBDC4" cx="54.64" cy="56.9" r="1.85"/>
			<circle fill="#AEBDC4" cx="58.97" cy="56.9" r="1.85"/>
			<circle fill="#AEBDC4" cx="63.3" cy="56.9" r="1.85"/>
			<circle fill="#AEBDC4" cx="67.63" cy="56.9" r="1.85"/>
			<circle fill="#AEBDC4" cx="71.96" cy="56.9" r="1.85"/>
			<circle fill="#AEBDC4" cx="76.29" cy="56.9" r="1.85"/>
			<circle fill="#AEBDC4" cx="80.62" cy="56.9" r="1.85"/>
			<circle fill="#AEBDC4" cx="84.95" cy="56.9" r="1.85"/>
			<circle fill="#AEBDC4" cx="89.28" cy="56.9" r="1.85"/>
			<circle fill="#AEBDC4" cx="93.61" cy="56.9" r="1.85"/>
			<circle fill="#AEBDC4" cx="97.94" cy="56.9" r="1.85"/>
			<circle fill="#AEBDC4" cx="102.27" cy="56.9" r="1.85"/>
			<circle fill="#AEBDC4" cx="106.6" cy="56.9" r="1.85"/>
			<circle fill="#AEBDC4" cx="110.93" cy="56.9" r="1.85"/>
		</g>
		<g>
			<circle fill="#AEBDC4" cx="20.07" cy="62.83" r="1.85"/>
			<circle fill="#AEBDC4" cx="24.39" cy="62.83" r="1.85"/>
			<circle fill="#AEBDC4" cx="28.71" cy="62.83" r="1.85"/>
			<circle fill="#AEBDC4" cx="33.03" cy="62.83" r="1.85"/>
			<circle fill="#AEBDC4" cx="37.35" cy="62.83" r="1.85"/>
			<circle fill="#AEBDC4" cx="41.67" cy="62.83" r="1.85"/>
			<circle fill="#AEBDC4" cx="45.99" cy="62.83" r="1.85"/>
			<circle fill="#AEBDC4" cx="50.31" cy="62.83" r="1.85"/>
			<circle fill="#AEBDC4" cx="54.64" cy="62.83" r="1.85"/>
			<circle fill="#AEBDC4" cx="58.97" cy="62.83" r="1.85"/>
			<circle fill="#AEBDC4" cx="63.3" cy="62.83" r="1.85"/>
			<circle fill="#AEBDC4" cx="67.63" cy="62.83" r="1.85"/>
			<circle fill="#AEBDC4" cx="71.96" cy="62.83" r="1.85"/>
			<circle fill="#AEBDC4" cx="76.29" cy="62.83" r="1.85"/>
			<circle fill="#AEBDC4" cx="80.62" cy="62.83" r="1.85"/>
			<circle fill="#AEBDC4" cx="84.95" cy="62.83" r="1.85"/>
			<circle fill="#AEBDC4" cx="89.28" cy="62.83" r="1.85"/>
			<circle fill="#AEBDC4" cx="93.61" cy="62.83" r="1.85"/>
			<circle fill="#AEBDC4" cx="97.94" cy="62.83" r="1.85"/>
			<circle fill="#AEBDC4" cx="102.27" cy="62.83" r="1.85"/>
			<circle fill="#AEBDC4" cx="106.6" cy="62.83" r="1.85"/>
			<circle fill="#AEBDC4" cx="110.93" cy="62.83" r="1.85"/>
		</g>
		<g>
			<circle fill="#AEBDC4" cx="11.4" cy="163.66" r="1.85"/>
			<circle fill="#AEBDC4" cx="15.73" cy="163.66" r="1.85"/>
			<circle fill="#AEBDC4" cx="20.05" cy="163.66" r="1.85"/>
			<circle fill="#AEBDC4" cx="24.37" cy="163.66" r="1.85"/>
			<circle fill="#AEBDC4" cx="28.69" cy="163.66" r="1.85"/>
			<circle fill="#AEBDC4" cx="33.01" cy="163.66" r="1.85"/>
			<circle fill="#AEBDC4" cx="37.33" cy="163.66" r="1.85"/>
			<circle fill="#AEBDC4" cx="41.65" cy="163.66" r="1.85"/>
			<circle fill="#AEBDC4" cx="45.97" cy="163.66" r="1.85"/>
			<circle fill="#AEBDC4" cx="50.3" cy="163.66" r="1.85"/>
			<circle fill="#AEBDC4" cx="54.64" cy="163.66" r="1.85"/>
			<circle fill="#AEBDC4" cx="58.97" cy="163.66" r="1.85"/>
			<circle fill="#AEBDC4" cx="63.3" cy="163.66" r="1.85"/>
			<circle fill="#AEBDC4" cx="67.63" cy="163.66" r="1.85"/>
			<circle fill="#AEBDC4" cx="71.96" cy="163.66" r="1.85"/>
			<circle fill="#AEBDC4" cx="76.29" cy="163.66" r="1.85"/>
			<circle fill="#AEBDC4" cx="80.62" cy="163.66" r="1.85"/>
			<circle fill="#AEBDC4" cx="84.95" cy="163.66" r="1.85"/>
			<circle fill="#AEBDC4" cx="89.28" cy="163.66" r="1.85"/>
			<circle fill="#AEBDC4" cx="93.61" cy="163.66" r="1.85"/>
			<circle fill="#AEBDC4" cx="97.94" cy="163.66" r="1.85"/>
			<circle fill="#AEBDC4" cx="102.27" cy="163.66" r="1.85"/>
			<circle fill="#AEBDC4" cx="106.6" cy="163.66" r="1.85"/>
			<circle fill="#AEBDC4" cx="110.93" cy="163.66" r="1.85"/>
		</g>
		<g>
			<circle fill="#AEBDC4" cx="11.4" cy="9.45" r="1.85"/>
			<circle fill="#AEBDC4" cx="15.73" cy="9.45" r="1.85"/>
			<circle fill="#AEBDC4" cx="20.05" cy="9.45" r="1.85"/>
			<circle fill="#AEBDC4" cx="24.37" cy="9.45" r="1.85"/>
			<circle fill="#AEBDC4" cx="28.69" cy="9.45" r="1.85"/>
			<circle fill="#AEBDC4" cx="33.01" cy="9.45" r="1.85"/>
			<circle fill="#AEBDC4" cx="37.33" cy="9.45" r="1.85"/>
			<circle fill="#AEBDC4" cx="41.65" cy="9.45" r="1.85"/>
			<circle fill="#AEBDC4" cx="45.97" cy="9.45" r="1.85"/>
			<circle fill="#AEBDC4" cx="50.3" cy="9.45" r="1.85"/>
			<circle fill="#AEBDC4" cx="54.64" cy="9.45" r="1.85"/>
			<circle fill="#AEBDC4" cx="58.97" cy="9.45" r="1.85"/>
			<circle fill="#AEBDC4" cx="63.3" cy="9.45" r="1.85"/>
			<circle fill="#AEBDC4" cx="67.63" cy="9.45" r="1.85"/>
			<circle fill="#AEBDC4" cx="71.96" cy="9.45" r="1.85"/>
			<circle fill="#AEBDC4" cx="76.29" cy="9.45" r="1.85"/>
			<circle fill="#AEBDC4" cx="80.62" cy="9.45" r="1.85"/>
			<circle fill="#AEBDC4" cx="84.95" cy="9.45" r="1.85"/>
			<circle fill="#AEBDC4" cx="89.28" cy="9.45" r="1.85"/>
			<circle fill="#AEBDC4" cx="93.61" cy="9.45" r="1.85"/>
			<circle fill="#AEBDC4" cx="97.94" cy="9.45" r="1.85"/>
			<circle fill="#AEBDC4" cx="102.27" cy="9.45" r="1.85"/>
			<circle fill="#AEBDC4" cx="106.6" cy="9.45" r="1.85"/>
			<circle fill="#AEBDC4" cx="110.93" cy="9.45" r="1.85"/>
			<circle fill="#AEBDC4" cx="115.27" cy="9.45" r="1.85"/>
			<circle fill="#AEBDC4" cx="119.6" cy="9.45" r="1.85"/>
		</g>
		<g>
			<circle fill="#AEBDC4" cx="11.4" cy="15.38" r="1.85"/>
			<circle fill="#AEBDC4" cx="15.73" cy="15.38" r="1.85"/>
			<circle fill="#AEBDC4" cx="20.05" cy="15.38" r="1.85"/>
			<circle fill="#AEBDC4" cx="24.37" cy="15.38" r="1.85"/>
			<circle fill="#AEBDC4" cx="28.69" cy="15.38" r="1.85"/>
			<circle fill="#AEBDC4" cx="33.01" cy="15.38" r="1.85"/>
			<circle fill="#AEBDC4" cx="37.33" cy="15.38" r="1.85"/>
			<circle fill="#AEBDC4" cx="41.65" cy="15.38" r="1.85"/>
			<circle fill="#AEBDC4" cx="45.97" cy="15.38" r="1.85"/>
			<circle fill="#AEBDC4" cx="50.3" cy="15.38" r="1.85"/>
			<circle fill="#AEBDC4" cx="54.64" cy="15.38" r="1.85"/>
			<circle fill="#AEBDC4" cx="58.97" cy="15.38" r="1.85"/>
			<circle fill="#AEBDC4" cx="63.3" cy="15.38" r="1.85"/>
			<circle fill="#AEBDC4" cx="67.63" cy="15.38" r="1.85"/>
			<circle fill="#AEBDC4" cx="71.96" cy="15.38" r="1.85"/>
			<circle fill="#AEBDC4" cx="76.29" cy="15.38" r="1.85"/>
			<circle fill="#AEBDC4" cx="80.62" cy="15.38" r="1.85"/>
			<circle fill="#AEBDC4" cx="84.95" cy="15.38" r="1.85"/>
			<circle fill="#AEBDC4" cx="89.28" cy="15.38" r="1.85"/>
			<circle fill="#AEBDC4" cx="93.61" cy="15.38" r="1.85"/>
			<circle fill="#AEBDC4" cx="97.94" cy="15.38" r="1.85"/>
			<circle fill="#AEBDC4" cx="102.27" cy="15.38" r="1.85"/>
			<circle fill="#AEBDC4" cx="106.6" cy="15.38" r="1.85"/>
			<circle fill="#AEBDC4" cx="110.93" cy="15.38" r="1.85"/>
			<circle fill="#AEBDC4" cx="115.27" cy="15.38" r="1.85"/>
			<circle fill="#AEBDC4" cx="119.6" cy="15.38" r="1.85"/>
		</g>
		<g>
			<circle fill="#AEBDC4" cx="11.4" cy="21.32" r="1.85"/>
			<circle fill="#AEBDC4" cx="15.73" cy="21.32" r="1.85"/>
			<circle fill="#AEBDC4" cx="20.05" cy="21.32" r="1.85"/>
			<circle fill="#AEBDC4" cx="24.37" cy="21.32" r="1.85"/>
			<circle fill="#AEBDC4" cx="28.69" cy="21.32" r="1.85"/>
			<circle fill="#AEBDC4" cx="33.01" cy="21.32" r="1.85"/>
			<circle fill="#AEBDC4" cx="37.33" cy="21.32" r="1.85"/>
			<circle fill="#AEBDC4" cx="41.65" cy="21.32" r="1.85"/>
			<circle fill="#AEBDC4" cx="45.97" cy="21.32" r="1.85"/>
			<circle fill="#AEBDC4" cx="50.3" cy="21.32" r="1.85"/>
			<circle fill="#AEBDC4" cx="54.64" cy="21.32" r="1.85"/>
			<circle fill="#AEBDC4" cx="58.97" cy="21.32" r="1.85"/>
			<circle fill="#AEBDC4" cx="63.3" cy="21.32" r="1.85"/>
			<circle fill="#AEBDC4" cx="67.63" cy="21.32" r="1.85"/>
			<circle fill="#AEBDC4" cx="71.96" cy="21.32" r="1.85"/>
			<circle fill="#AEBDC4" cx="76.29" cy="21.32" r="1.85"/>
			<circle fill="#AEBDC4" cx="80.62" cy="21.32" r="1.85"/>
			<circle fill="#AEBDC4" cx="84.95" cy="21.32" r="1.85"/>
			<circle fill="#AEBDC4" cx="89.28" cy="21.32" r="1.85"/>
			<circle fill="#AEBDC4" cx="93.61" cy="21.32" r="1.85"/>
			<circle fill="#AEBDC4" cx="97.94" cy="21.32" r="1.85"/>
			<circle fill="#AEBDC4" cx="102.27" cy="21.32" r="1.85"/>
			<circle fill="#AEBDC4" cx="106.6" cy="21.32" r="1.85"/>
			<circle fill="#AEBDC4" cx="110.93" cy="21.32" r="1.85"/>
			<circle fill="#AEBDC4" cx="115.27" cy="21.32" r="1.85"/>
			<circle fill="#AEBDC4" cx="119.6" cy="21.32" r="1.85"/>
		</g>
		<g>
			<circle fill="#AEBDC4" cx="11.4" cy="27.25" r="1.85"/>
			<circle fill="#AEBDC4" cx="15.73" cy="27.25" r="1.85"/>
			<circle fill="#AEBDC4" cx="20.05" cy="27.25" r="1.85"/>
			<circle fill="#AEBDC4" cx="24.37" cy="27.25" r="1.85"/>
			<circle fill="#AEBDC4" cx="28.69" cy="27.25" r="1.85"/>
			<circle fill="#AEBDC4" cx="33.01" cy="27.25" r="1.85"/>
			<circle fill="#AEBDC4" cx="37.33" cy="27.25" r="1.85"/>
			<circle fill="#AEBDC4" cx="41.65" cy="27.25" r="1.85"/>
			<circle fill="#AEBDC4" cx="45.97" cy="27.25" r="1.85"/>
			<circle fill="#AEBDC4" cx="50.3" cy="27.25" r="1.85"/>
			<circle fill="#AEBDC4" cx="54.64" cy="27.25" r="1.85"/>
			<circle fill="#AEBDC4" cx="58.97" cy="27.25" r="1.85"/>
			<circle fill="#AEBDC4" cx="63.3" cy="27.25" r="1.85"/>
			<circle fill="#AEBDC4" cx="67.63" cy="27.25" r="1.85"/>
			<circle fill="#AEBDC4" cx="71.96" cy="27.25" r="1.85"/>
			<circle fill="#AEBDC4" cx="76.29" cy="27.25" r="1.85"/>
			<circle fill="#AEBDC4" cx="80.62" cy="27.25" r="1.85"/>
			<circle fill="#AEBDC4" cx="84.95" cy="27.25" r="1.85"/>
			<circle fill="#AEBDC4" cx="89.28" cy="27.25" r="1.85"/>
			<circle fill="#AEBDC4" cx="93.61" cy="27.25" r="1.85"/>
			<circle fill="#AEBDC4" cx="97.94" cy="27.25" r="1.85"/>
			<circle fill="#AEBDC4" cx="102.27" cy="27.25" r="1.85"/>
			<circle fill="#AEBDC4" cx="106.6" cy="27.25" r="1.85"/>
			<circle fill="#AEBDC4" cx="110.93" cy="27.25" r="1.85"/>
			<circle fill="#AEBDC4" cx="115.27" cy="27.25" r="1.85"/>
			<circle fill="#AEBDC4" cx="119.6" cy="27.25" r="1.85"/>
		</g>
		<g>
			<circle fill="#AEBDC4" cx="11.4" cy="33.18" r="1.85"/>
			<circle fill="#AEBDC4" cx="15.73" cy="33.18" r="1.85"/>
			<circle fill="#AEBDC4" cx="20.05" cy="33.18" r="1.85"/>
			<circle fill="#AEBDC4" cx="24.37" cy="33.18" r="1.85"/>
			<circle fill="#AEBDC4" cx="28.69" cy="33.18" r="1.85"/>
			<circle fill="#AEBDC4" cx="33.01" cy="33.18" r="1.85"/>
			<circle fill="#AEBDC4" cx="37.33" cy="33.18" r="1.85"/>
			<circle fill="#AEBDC4" cx="41.65" cy="33.18" r="1.85"/>
			<circle fill="#AEBDC4" cx="45.97" cy="33.18" r="1.85"/>
			<circle fill="#AEBDC4" cx="50.3" cy="33.18" r="1.85"/>
			<circle fill="#AEBDC4" cx="54.64" cy="33.18" r="1.85"/>
			<circle fill="#AEBDC4" cx="58.97" cy="33.18" r="1.85"/>
			<circle fill="#AEBDC4" cx="63.3" cy="33.18" r="1.85"/>
			<circle fill="#AEBDC4" cx="67.63" cy="33.18" r="1.85"/>
			<circle fill="#AEBDC4" cx="71.96" cy="33.18" r="1.85"/>
			<circle fill="#AEBDC4" cx="76.29" cy="33.18" r="1.85"/>
			<circle fill="#AEBDC4" cx="80.62" cy="33.18" r="1.85"/>
			<circle fill="#AEBDC4" cx="84.95" cy="33.18" r="1.85"/>
			<circle fill="#AEBDC4" cx="89.28" cy="33.18" r="1.85"/>
			<circle fill="#AEBDC4" cx="93.61" cy="33.18" r="1.85"/>
			<circle fill="#AEBDC4" cx="97.94" cy="33.18" r="1.85"/>
			<circle fill="#AEBDC4" cx="102.27" cy="33.18" r="1.85"/>
			<circle fill="#AEBDC4" cx="106.6" cy="33.18" r="1.85"/>
			<circle fill="#AEBDC4" cx="110.93" cy="33.18" r="1.85"/>
			<circle fill="#AEBDC4" cx="115.27" cy="33.18" r="1.85"/>
			<circle fill="#AEBDC4" cx="119.6" cy="33.18" r="1.85"/>
		</g>
		<g>
			<circle fill="#AEBDC4" cx="11.4" cy="68.76" r="1.85"/>
			<circle fill="#AEBDC4" cx="15.73" cy="68.76" r="1.85"/>
			<circle fill="#AEBDC4" cx="20.05" cy="68.76" r="1.85"/>
			<circle fill="#AEBDC4" cx="24.37" cy="68.76" r="1.85"/>
			<circle fill="#AEBDC4" cx="28.69" cy="68.76" r="1.85"/>
			<circle fill="#AEBDC4" cx="33.01" cy="68.76" r="1.85"/>
			<circle fill="#AEBDC4" cx="37.33" cy="68.76" r="1.85"/>
			<circle fill="#AEBDC4" cx="41.65" cy="68.76" r="1.85"/>
			<circle fill="#AEBDC4" cx="45.97" cy="68.76" r="1.85"/>
			<circle fill="#AEBDC4" cx="50.3" cy="68.76" r="1.85"/>
			<circle fill="#AEBDC4" cx="54.64" cy="68.76" r="1.85"/>
			<circle fill="#AEBDC4" cx="58.97" cy="68.76" r="1.85"/>
			<circle fill="#AEBDC4" cx="63.3" cy="68.76" r="1.85"/>
			<circle fill="#AEBDC4" cx="67.63" cy="68.76" r="1.85"/>
			<circle fill="#AEBDC4" cx="71.96" cy="68.76" r="1.85"/>
			<circle fill="#AEBDC4" cx="76.29" cy="68.76" r="1.85"/>
			<circle fill="#AEBDC4" cx="80.62" cy="68.76" r="1.85"/>
			<circle fill="#AEBDC4" cx="84.95" cy="68.76" r="1.85"/>
			<circle fill="#AEBDC4" cx="89.28" cy="68.76" r="1.85"/>
			<circle fill="#AEBDC4" cx="93.61" cy="68.76" r="1.85"/>
			<circle fill="#AEBDC4" cx="97.94" cy="68.76" r="1.85"/>
			<circle fill="#AEBDC4" cx="102.27" cy="68.76" r="1.85"/>
			<circle fill="#AEBDC4" cx="106.6" cy="68.76" r="1.85"/>
			<circle fill="#AEBDC4" cx="110.93" cy="68.76" r="1.85"/>
			<circle fill="#AEBDC4" cx="115.27" cy="68.76" r="1.85"/>
			<circle fill="#AEBDC4" cx="119.6" cy="68.76" r="1.85"/>
		</g>
		<g>
			<circle fill="#AEBDC4" cx="11.4" cy="74.69" r="1.85"/>
			<circle fill="#AEBDC4" cx="15.73" cy="74.69" r="1.85"/>
			<circle fill="#AEBDC4" cx="20.05" cy="74.69" r="1.85"/>
			<circle fill="#AEBDC4" cx="24.37" cy="74.69" r="1.85"/>
			<circle fill="#AEBDC4" cx="28.69" cy="74.69" r="1.85"/>
			<circle fill="#AEBDC4" cx="33.01" cy="74.69" r="1.85"/>
			<circle fill="#AEBDC4" cx="37.33" cy="74.69" r="1.85"/>
			<circle fill="#AEBDC4" cx="41.65" cy="74.69" r="1.85"/>
			<circle fill="#AEBDC4" cx="45.97" cy="74.69" r="1.85"/>
			<circle fill="#AEBDC4" cx="50.3" cy="74.69" r="1.85"/>
			<circle fill="#AEBDC4" cx="54.64" cy="74.69" r="1.85"/>
			<circle fill="#AEBDC4" cx="58.97" cy="74.69" r="1.85"/>
			<circle fill="#AEBDC4" cx="63.3" cy="74.69" r="1.85"/>
			<circle fill="#AEBDC4" cx="67.63" cy="74.69" r="1.85"/>
			<circle fill="#AEBDC4" cx="71.96" cy="74.69" r="1.85"/>
			<circle fill="#AEBDC4" cx="76.29" cy="74.69" r="1.85"/>
			<circle fill="#AEBDC4" cx="80.62" cy="74.69" r="1.85"/>
			<circle fill="#AEBDC4" cx="84.95" cy="74.69" r="1.85"/>
			<circle fill="#AEBDC4" cx="89.28" cy="74.69" r="1.85"/>
			<circle fill="#AEBDC4" cx="93.61" cy="74.69" r="1.85"/>
			<circle fill="#AEBDC4" cx="97.94" cy="74.69" r="1.85"/>
			<circle fill="#AEBDC4" cx="102.27" cy="74.69" r="1.85"/>
			<circle fill="#AEBDC4" cx="106.6" cy="74.69" r="1.85"/>
			<circle fill="#AEBDC4" cx="110.93" cy="74.69" r="1.85"/>
			<circle fill="#AEBDC4" cx="115.27" cy="74.69" r="1.85"/>
			<circle fill="#AEBDC4" cx="119.6" cy="74.69" r="1.85"/>
		</g>
		<g>
			<circle fill="#AEBDC4" cx="11.4" cy="80.62" r="1.85"/>
			<circle fill="#AEBDC4" cx="15.73" cy="80.62" r="1.85"/>
			<circle fill="#AEBDC4" cx="20.05" cy="80.62" r="1.85"/>
			<circle fill="#AEBDC4" cx="24.37" cy="80.62" r="1.85"/>
			<circle fill="#AEBDC4" cx="28.69" cy="80.62" r="1.85"/>
			<circle fill="#AEBDC4" cx="33.01" cy="80.62" r="1.85"/>
			<circle fill="#AEBDC4" cx="37.33" cy="80.62" r="1.85"/>
			<circle fill="#AEBDC4" cx="41.65" cy="80.62" r="1.85"/>
			<circle fill="#AEBDC4" cx="45.97" cy="80.62" r="1.85"/>
			<circle fill="#AEBDC4" cx="50.3" cy="80.62" r="1.85"/>
			<circle fill="#AEBDC4" cx="54.64" cy="80.62" r="1.85"/>
			<circle fill="#AEBDC4" cx="58.97" cy="80.62" r="1.85"/>
			<circle fill="#AEBDC4" cx="63.3" cy="80.62" r="1.85"/>
			<circle fill="#AEBDC4" cx="67.63" cy="80.62" r="1.85"/>
			<circle fill="#AEBDC4" cx="71.96" cy="80.62" r="1.85"/>
			<circle fill="#AEBDC4" cx="76.29" cy="80.62" r="1.85"/>
			<circle fill="#AEBDC4" cx="80.62" cy="80.62" r="1.85"/>
			<circle fill="#AEBDC4" cx="84.95" cy="80.62" r="1.85"/>
			<circle fill="#AEBDC4" cx="89.28" cy="80.62" r="1.85"/>
			<circle fill="#AEBDC4" cx="93.61" cy="80.62" r="1.85"/>
			<circle fill="#AEBDC4" cx="97.94" cy="80.62" r="1.85"/>
			<circle fill="#AEBDC4" cx="102.27" cy="80.62" r="1.85"/>
			<circle fill="#AEBDC4" cx="106.6" cy="80.62" r="1.85"/>
			<circle fill="#AEBDC4" cx="110.93" cy="80.62" r="1.85"/>
			<circle fill="#AEBDC4" cx="115.27" cy="80.62" r="1.85"/>
			<circle fill="#AEBDC4" cx="119.6" cy="80.62" r="1.85"/>
		</g>
		<g>
			<circle fill="#AEBDC4" cx="11.4" cy="86.55" r="1.85"/>
			<circle fill="#AEBDC4" cx="15.73" cy="86.55" r="1.85"/>
			<circle fill="#AEBDC4" cx="20.05" cy="86.55" r="1.85"/>
			<circle fill="#AEBDC4" cx="24.37" cy="86.55" r="1.85"/>
			<circle fill="#AEBDC4" cx="28.69" cy="86.55" r="1.85"/>
			<circle fill="#AEBDC4" cx="33.01" cy="86.55" r="1.85"/>
			<circle fill="#AEBDC4" cx="37.33" cy="86.55" r="1.85"/>
			<circle fill="#AEBDC4" cx="41.65" cy="86.55" r="1.85"/>
			<circle fill="#AEBDC4" cx="45.97" cy="86.55" r="1.85"/>
			<circle fill="#AEBDC4" cx="50.3" cy="86.55" r="1.85"/>
			<circle fill="#AEBDC4" cx="54.64" cy="86.55" r="1.85"/>
			<circle fill="#AEBDC4" cx="58.97" cy="86.55" r="1.85"/>
			<circle fill="#AEBDC4" cx="63.3" cy="86.55" r="1.85"/>
			<circle fill="#AEBDC4" cx="67.63" cy="86.55" r="1.85"/>
			<circle fill="#AEBDC4" cx="71.96" cy="86.55" r="1.85"/>
			<circle fill="#AEBDC4" cx="76.29" cy="86.55" r="1.85"/>
			<circle fill="#AEBDC4" cx="80.62" cy="86.55" r="1.85"/>
			<circle fill="#AEBDC4" cx="84.95" cy="86.55" r="1.85"/>
			<circle fill="#AEBDC4" cx="89.28" cy="86.55" r="1.85"/>
			<circle fill="#AEBDC4" cx="93.61" cy="86.55" r="1.85"/>
			<circle fill="#AEBDC4" cx="97.94" cy="86.55" r="1.85"/>
			<circle fill="#AEBDC4" cx="102.27" cy="86.55" r="1.85"/>
			<circle fill="#AEBDC4" cx="106.6" cy="86.55" r="1.85"/>
			<circle fill="#AEBDC4" cx="110.93" cy="86.55" r="1.85"/>
			<circle fill="#AEBDC4" cx="115.27" cy="86.55" r="1.85"/>
			<circle fill="#AEBDC4" cx="119.6" cy="86.55" r="1.85"/>
		</g>
		<g>
			<circle fill="#AEBDC4" cx="11.4" cy="92.49" r="1.85"/>
			<circle fill="#AEBDC4" cx="15.73" cy="92.49" r="1.85"/>
			<circle fill="#AEBDC4" cx="20.05" cy="92.49" r="1.85"/>
			<circle fill="#AEBDC4" cx="24.37" cy="92.49" r="1.85"/>
			<circle fill="#AEBDC4" cx="28.69" cy="92.49" r="1.85"/>
			<circle fill="#AEBDC4" cx="33.01" cy="92.49" r="1.85"/>
			<circle fill="#AEBDC4" cx="37.33" cy="92.49" r="1.85"/>
			<circle fill="#AEBDC4" cx="41.65" cy="92.49" r="1.85"/>
			<circle fill="#AEBDC4" cx="45.97" cy="92.49" r="1.85"/>
			<circle fill="#AEBDC4" cx="50.3" cy="92.49" r="1.85"/>
			<circle fill="#AEBDC4" cx="54.64" cy="92.49" r="1.85"/>
			<circle fill="#AEBDC4" cx="58.97" cy="92.49" r="1.85"/>
			<circle fill="#AEBDC4" cx="63.3" cy="92.49" r="1.85"/>
			<circle fill="#AEBDC4" cx="67.63" cy="92.49" r="1.85"/>
			<circle fill="#AEBDC4" cx="71.96" cy="92.49" r="1.85"/>
			<circle fill="#AEBDC4" cx="76.29" cy="92.49" r="1.85"/>
			<circle fill="#AEBDC4" cx="80.62" cy="92.49" r="1.85"/>
			<circle fill="#AEBDC4" cx="84.95" cy="92.49" r="1.85"/>
			<circle fill="#AEBDC4" cx="89.28" cy="92.49" r="1.85"/>
			<circle fill="#AEBDC4" cx="93.61" cy="92.49" r="1.85"/>
			<circle fill="#AEBDC4" cx="97.94" cy="92.49" r="1.85"/>
			<circle fill="#AEBDC4" cx="102.27" cy="92.49" r="1.85"/>
			<circle fill="#AEBDC4" cx="106.6" cy="92.49" r="1.85"/>
			<circle fill="#AEBDC4" cx="110.93" cy="92.49" r="1.85"/>
			<circle fill="#AEBDC4" cx="115.27" cy="92.49" r="1.85"/>
			<circle fill="#AEBDC4" cx="119.6" cy="92.49" r="1.85"/>
		</g>
		<g>
			<circle fill="#AEBDC4" cx="11.4" cy="98.42" r="1.85"/>
			<circle fill="#AEBDC4" cx="15.73" cy="98.42" r="1.85"/>
			<circle fill="#AEBDC4" cx="20.05" cy="98.42" r="1.85"/>
			<circle fill="#AEBDC4" cx="24.37" cy="98.42" r="1.85"/>
			<circle fill="#AEBDC4" cx="28.69" cy="98.42" r="1.85"/>
			<circle fill="#AEBDC4" cx="33.01" cy="98.42" r="1.85"/>
			<circle fill="#AEBDC4" cx="37.33" cy="98.42" r="1.85"/>
			<circle fill="#AEBDC4" cx="41.65" cy="98.42" r="1.85"/>
			<circle fill="#AEBDC4" cx="45.97" cy="98.42" r="1.85"/>
			<circle fill="#AEBDC4" cx="50.3" cy="98.42" r="1.85"/>
			<circle fill="#AEBDC4" cx="54.64" cy="98.42" r="1.85"/>
			<circle fill="#AEBDC4" cx="58.97" cy="98.42" r="1.85"/>
			<circle fill="#AEBDC4" cx="63.3" cy="98.42" r="1.85"/>
			<circle fill="#AEBDC4" cx="67.63" cy="98.42" r="1.85"/>
			<circle fill="#AEBDC4" cx="71.96" cy="98.42" r="1.85"/>
			<circle fill="#AEBDC4" cx="76.29" cy="98.42" r="1.85"/>
			<circle fill="#AEBDC4" cx="80.62" cy="98.42" r="1.85"/>
			<circle fill="#AEBDC4" cx="84.95" cy="98.42" r="1.85"/>
			<circle fill="#AEBDC4" cx="89.28" cy="98.42" r="1.85"/>
			<circle fill="#AEBDC4" cx="93.61" cy="98.42" r="1.85"/>
			<circle fill="#AEBDC4" cx="97.94" cy="98.42" r="1.85"/>
			<circle fill="#AEBDC4" cx="102.27" cy="98.42" r="1.85"/>
			<circle fill="#AEBDC4" cx="106.6" cy="98.42" r="1.85"/>
			<circle fill="#AEBDC4" cx="110.93" cy="98.42" r="1.85"/>
			<circle fill="#AEBDC4" cx="115.27" cy="98.42" r="1.85"/>
			<circle fill="#AEBDC4" cx="119.6" cy="98.42" r="1.85"/>
		</g>
		<g>
			<circle fill="#AEBDC4" cx="11.4" cy="104.35" r="1.85"/>
			<circle fill="#AEBDC4" cx="15.73" cy="104.35" r="1.85"/>
			<circle fill="#AEBDC4" cx="20.05" cy="104.35" r="1.85"/>
			<circle fill="#AEBDC4" cx="24.37" cy="104.35" r="1.85"/>
			<circle fill="#AEBDC4" cx="28.69" cy="104.35" r="1.85"/>
			<circle fill="#AEBDC4" cx="33.01" cy="104.35" r="1.85"/>
			<circle fill="#AEBDC4" cx="37.33" cy="104.35" r="1.85"/>
			<circle fill="#AEBDC4" cx="41.65" cy="104.35" r="1.85"/>
			<circle fill="#AEBDC4" cx="45.97" cy="104.35" r="1.85"/>
			<circle fill="#AEBDC4" cx="50.3" cy="104.35" r="1.85"/>
			<circle fill="#AEBDC4" cx="54.64" cy="104.35" r="1.85"/>
			<circle fill="#AEBDC4" cx="58.97" cy="104.35" r="1.85"/>
			<circle fill="#AEBDC4" cx="63.3" cy="104.35" r="1.85"/>
			<circle fill="#AEBDC4" cx="67.63" cy="104.35" r="1.85"/>
			<circle fill="#AEBDC4" cx="71.96" cy="104.35" r="1.85"/>
			<circle fill="#AEBDC4" cx="76.29" cy="104.35" r="1.85"/>
			<circle fill="#AEBDC4" cx="80.62" cy="104.35" r="1.85"/>
			<circle fill="#AEBDC4" cx="84.95" cy="104.35" r="1.85"/>
			<circle fill="#AEBDC4" cx="89.28" cy="104.35" r="1.85"/>
			<circle fill="#AEBDC4" cx="93.61" cy="104.35" r="1.85"/>
			<circle fill="#AEBDC4" cx="97.94" cy="104.35" r="1.85"/>
			<circle fill="#AEBDC4" cx="102.27" cy="104.35" r="1.85"/>
			<circle fill="#AEBDC4" cx="106.6" cy="104.35" r="1.85"/>
			<circle fill="#AEBDC4" cx="110.93" cy="104.35" r="1.85"/>
			<circle fill="#AEBDC4" cx="115.27" cy="104.35" r="1.85"/>
			<circle fill="#AEBDC4" cx="119.6" cy="104.35" r="1.85"/>
		</g>
		<g>
			<circle fill="#AEBDC4" cx="11.4" cy="110.28" r="1.85"/>
			<circle fill="#AEBDC4" cx="15.73" cy="110.28" r="1.85"/>
			<circle fill="#AEBDC4" cx="20.05" cy="110.28" r="1.85"/>
			<circle fill="#AEBDC4" cx="24.37" cy="110.28" r="1.85"/>
			<circle fill="#AEBDC4" cx="28.69" cy="110.28" r="1.85"/>
			<circle fill="#AEBDC4" cx="33.01" cy="110.28" r="1.85"/>
			<circle fill="#AEBDC4" cx="37.33" cy="110.28" r="1.85"/>
			<circle fill="#AEBDC4" cx="41.65" cy="110.28" r="1.85"/>
			<circle fill="#AEBDC4" cx="45.97" cy="110.28" r="1.85"/>
			<circle fill="#AEBDC4" cx="50.3" cy="110.28" r="1.85"/>
			<circle fill="#AEBDC4" cx="54.64" cy="110.28" r="1.85"/>
			<circle fill="#AEBDC4" cx="58.97" cy="110.28" r="1.85"/>
			<circle fill="#AEBDC4" cx="63.3" cy="110.28" r="1.85"/>
			<circle fill="#AEBDC4" cx="67.63" cy="110.28" r="1.85"/>
			<circle fill="#AEBDC4" cx="71.96" cy="110.28" r="1.85"/>
			<circle fill="#AEBDC4" cx="76.29" cy="110.28" r="1.85"/>
			<circle fill="#AEBDC4" cx="80.62" cy="110.28" r="1.85"/>
			<circle fill="#AEBDC4" cx="84.95" cy="110.28" r="1.85"/>
			<circle fill="#AEBDC4" cx="89.28" cy="110.28" r="1.85"/>
			<circle fill="#AEBDC4" cx="93.61" cy="110.28" r="1.85"/>
			<circle fill="#AEBDC4" cx="97.94" cy="110.28" r="1.85"/>
			<circle fill="#AEBDC4" cx="102.27" cy="110.28" r="1.85"/>
			<circle fill="#AEBDC4" cx="106.6" cy="110.28" r="1.85"/>
			<circle fill="#AEBDC4" cx="110.93" cy="110.28" r="1.85"/>
			<circle fill="#AEBDC4" cx="115.27" cy="110.28" r="1.85"/>
			<circle fill="#AEBDC4" cx="119.6" cy="110.28" r="1.85"/>
		</g>
		<g>
			<circle fill="#AEBDC4" cx="11.4" cy="116.21" r="1.85"/>
			<circle fill="#AEBDC4" cx="15.73" cy="116.21" r="1.85"/>
			<circle fill="#AEBDC4" cx="20.05" cy="116.21" r="1.85"/>
			<circle fill="#AEBDC4" cx="24.37" cy="116.21" r="1.85"/>
			<circle fill="#AEBDC4" cx="28.69" cy="116.21" r="1.85"/>
			<circle fill="#AEBDC4" cx="33.01" cy="116.21" r="1.85"/>
			<circle fill="#AEBDC4" cx="37.33" cy="116.21" r="1.85"/>
			<circle fill="#AEBDC4" cx="41.65" cy="116.21" r="1.85"/>
			<circle fill="#AEBDC4" cx="45.97" cy="116.21" r="1.85"/>
			<circle fill="#AEBDC4" cx="50.3" cy="116.21" r="1.85"/>
			<circle fill="#AEBDC4" cx="54.64" cy="116.21" r="1.85"/>
			<circle fill="#AEBDC4" cx="58.97" cy="116.21" r="1.85"/>
			<circle fill="#AEBDC4" cx="63.3" cy="116.21" r="1.85"/>
			<circle fill="#AEBDC4" cx="67.63" cy="116.21" r="1.85"/>
			<circle fill="#AEBDC4" cx="71.96" cy="116.21" r="1.85"/>
			<circle fill="#AEBDC4" cx="76.29" cy="116.21" r="1.85"/>
			<circle fill="#AEBDC4" cx="80.62" cy="116.21" r="1.85"/>
			<circle fill="#AEBDC4" cx="84.95" cy="116.21" r="1.85"/>
			<circle fill="#AEBDC4" cx="89.28" cy="116.21" r="1.85"/>
			<circle fill="#AEBDC4" cx="93.61" cy="116.21" r="1.85"/>
			<circle fill="#AEBDC4" cx="97.94" cy="116.21" r="1.85"/>
			<circle fill="#AEBDC4" cx="102.27" cy="116.21" r="1.85"/>
			<circle fill="#AEBDC4" cx="106.6" cy="116.21" r="1.85"/>
			<circle fill="#AEBDC4" cx="110.93" cy="116.21" r="1.85"/>
			<circle fill="#AEBDC4" cx="115.27" cy="116.21" r="1.85"/>
			<circle fill="#AEBDC4" cx="119.6" cy="116.21" r="1.85"/>
		</g>
		<g>
			<circle fill="#AEBDC4" cx="11.4" cy="122.14" r="1.85"/>
			<circle fill="#AEBDC4" cx="15.73" cy="122.14" r="1.85"/>
			<circle fill="#AEBDC4" cx="20.05" cy="122.14" r="1.85"/>
			<circle fill="#AEBDC4" cx="24.37" cy="122.14" r="1.85"/>
			<circle fill="#AEBDC4" cx="28.69" cy="122.14" r="1.85"/>
			<circle fill="#AEBDC4" cx="33.01" cy="122.14" r="1.85"/>
			<circle fill="#AEBDC4" cx="37.33" cy="122.14" r="1.85"/>
			<circle fill="#AEBDC4" cx="41.65" cy="122.14" r="1.85"/>
			<circle fill="#AEBDC4" cx="45.97" cy="122.14" r="1.85"/>
			<circle fill="#AEBDC4" cx="50.3" cy="122.14" r="1.85"/>
			<circle fill="#AEBDC4" cx="54.64" cy="122.14" r="1.85"/>
			<circle fill="#AEBDC4" cx="58.97" cy="122.14" r="1.85"/>
			<circle fill="#AEBDC4" cx="63.3" cy="122.14" r="1.85"/>
			<circle fill="#AEBDC4" cx="67.63" cy="122.14" r="1.85"/>
			<circle fill="#AEBDC4" cx="71.96" cy="122.14" r="1.85"/>
			<circle fill="#AEBDC4" cx="76.29" cy="122.14" r="1.85"/>
			<circle fill="#AEBDC4" cx="80.62" cy="122.14" r="1.85"/>
			<circle fill="#AEBDC4" cx="84.95" cy="122.14" r="1.85"/>
			<circle fill="#AEBDC4" cx="89.28" cy="122.14" r="1.85"/>
			<circle fill="#AEBDC4" cx="93.61" cy="122.14" r="1.85"/>
			<circle fill="#AEBDC4" cx="97.94" cy="122.14" r="1.85"/>
			<circle fill="#AEBDC4" cx="102.27" cy="122.14" r="1.85"/>
			<circle fill="#AEBDC4" cx="106.6" cy="122.14" r="1.85"/>
			<circle fill="#AEBDC4" cx="110.93" cy="122.14" r="1.85"/>
			<circle fill="#AEBDC4" cx="115.27" cy="122.14" r="1.85"/>
			<circle fill="#AEBDC4" cx="119.6" cy="122.14" r="1.85"/>
		</g>
		<g>
			<circle fill="#AEBDC4" cx="11.4" cy="128.07" r="1.85"/>
			<circle fill="#AEBDC4" cx="15.73" cy="128.07" r="1.85"/>
			<circle fill="#AEBDC4" cx="20.05" cy="128.07" r="1.85"/>
			<circle fill="#AEBDC4" cx="24.37" cy="128.07" r="1.85"/>
			<circle fill="#AEBDC4" cx="28.69" cy="128.07" r="1.85"/>
			<circle fill="#AEBDC4" cx="33.01" cy="128.07" r="1.85"/>
			<circle fill="#AEBDC4" cx="37.33" cy="128.07" r="1.85"/>
			<circle fill="#AEBDC4" cx="41.65" cy="128.07" r="1.85"/>
			<circle fill="#AEBDC4" cx="45.97" cy="128.07" r="1.85"/>
			<circle fill="#AEBDC4" cx="50.3" cy="128.07" r="1.85"/>
			<circle fill="#AEBDC4" cx="54.64" cy="128.07" r="1.85"/>
			<circle fill="#AEBDC4" cx="58.97" cy="128.07" r="1.85"/>
			<circle fill="#AEBDC4" cx="63.3" cy="128.07" r="1.85"/>
			<circle fill="#AEBDC4" cx="67.63" cy="128.07" r="1.85"/>
			<circle fill="#AEBDC4" cx="71.96" cy="128.07" r="1.85"/>
			<circle fill="#AEBDC4" cx="76.29" cy="128.07" r="1.85"/>
			<circle fill="#AEBDC4" cx="80.62" cy="128.07" r="1.85"/>
			<circle fill="#AEBDC4" cx="84.95" cy="128.07" r="1.85"/>
			<circle fill="#AEBDC4" cx="89.28" cy="128.07" r="1.85"/>
			<circle fill="#AEBDC4" cx="93.61" cy="128.07" r="1.85"/>
			<circle fill="#AEBDC4" cx="97.94" cy="128.07" r="1.85"/>
			<circle fill="#AEBDC4" cx="102.27" cy="128.07" r="1.85"/>
			<circle fill="#AEBDC4" cx="106.6" cy="128.07" r="1.85"/>
			<circle fill="#AEBDC4" cx="110.93" cy="128.07" r="1.85"/>
			<circle fill="#AEBDC4" cx="115.27" cy="128.07" r="1.85"/>
			<circle fill="#AEBDC4" cx="119.6" cy="128.07" r="1.85"/>
		</g>
		<g>
			<circle fill="#AEBDC4" cx="11.4" cy="134" r="1.85"/>
			<circle fill="#AEBDC4" cx="15.73" cy="134" r="1.85"/>
			<circle fill="#AEBDC4" cx="20.05" cy="134" r="1.85"/>
			<circle fill="#AEBDC4" cx="24.37" cy="134" r="1.85"/>
			<circle fill="#AEBDC4" cx="28.69" cy="134" r="1.85"/>
			<circle fill="#AEBDC4" cx="33.01" cy="134" r="1.85"/>
			<circle fill="#AEBDC4" cx="37.33" cy="134" r="1.85"/>
			<circle fill="#AEBDC4" cx="41.65" cy="134" r="1.85"/>
			<circle fill="#AEBDC4" cx="45.97" cy="134" r="1.85"/>
			<circle fill="#AEBDC4" cx="50.3" cy="134" r="1.85"/>
			<circle fill="#AEBDC4" cx="54.64" cy="134" r="1.85"/>
			<circle fill="#AEBDC4" cx="58.97" cy="134" r="1.85"/>
			<circle fill="#AEBDC4" cx="63.3" cy="134" r="1.85"/>
			<circle fill="#AEBDC4" cx="67.63" cy="134" r="1.85"/>
			<circle fill="#AEBDC4" cx="71.96" cy="134" r="1.85"/>
			<circle fill="#AEBDC4" cx="76.29" cy="134" r="1.85"/>
			<circle fill="#AEBDC4" cx="80.62" cy="134" r="1.85"/>
			<circle fill="#AEBDC4" cx="84.95" cy="134" r="1.85"/>
			<circle fill="#AEBDC4" cx="89.28" cy="134" r="1.85"/>
			<circle fill="#AEBDC4" cx="93.61" cy="134" r="1.85"/>
			<circle fill="#AEBDC4" cx="97.94" cy="134" r="1.85"/>
			<circle fill="#AEBDC4" cx="102.27" cy="134" r="1.85"/>
			<circle fill="#AEBDC4" cx="106.6" cy="134" r="1.85"/>
			<circle fill="#AEBDC4" cx="110.93" cy="134" r="1.85"/>
			<circle fill="#AEBDC4" cx="115.27" cy="134" r="1.85"/>
			<circle fill="#AEBDC4" cx="119.6" cy="134" r="1.85"/>
		</g>
		<g>
			<circle fill="#AEBDC4" cx="11.4" cy="139.93" r="1.85"/>
			<circle fill="#AEBDC4" cx="15.73" cy="139.93" r="1.85"/>
			<circle fill="#AEBDC4" cx="20.05" cy="139.93" r="1.85"/>
			<circle fill="#AEBDC4" cx="24.37" cy="139.93" r="1.85"/>
			<circle fill="#AEBDC4" cx="28.69" cy="139.93" r="1.85"/>
			<circle fill="#AEBDC4" cx="33.01" cy="139.93" r="1.85"/>
			<circle fill="#AEBDC4" cx="37.33" cy="139.93" r="1.85"/>
			<circle fill="#AEBDC4" cx="41.65" cy="139.93" r="1.85"/>
			<circle fill="#AEBDC4" cx="45.97" cy="139.93" r="1.85"/>
			<circle fill="#AEBDC4" cx="50.3" cy="139.93" r="1.85"/>
			<circle fill="#AEBDC4" cx="54.64" cy="139.93" r="1.85"/>
			<circle fill="#AEBDC4" cx="58.97" cy="139.93" r="1.85"/>
			<circle fill="#AEBDC4" cx="63.3" cy="139.93" r="1.85"/>
			<circle fill="#AEBDC4" cx="67.63" cy="139.93" r="1.85"/>
			<circle fill="#AEBDC4" cx="71.96" cy="139.93" r="1.85"/>
			<circle fill="#AEBDC4" cx="76.29" cy="139.93" r="1.85"/>
			<circle fill="#AEBDC4" cx="80.62" cy="139.93" r="1.85"/>
			<circle fill="#AEBDC4" cx="84.95" cy="139.93" r="1.85"/>
			<circle fill="#AEBDC4" cx="89.28" cy="139.93" r="1.85"/>
			<circle fill="#AEBDC4" cx="93.61" cy="139.93" r="1.85"/>
			<circle fill="#AEBDC4" cx="97.94" cy="139.93" r="1.85"/>
			<circle fill="#AEBDC4" cx="102.27" cy="139.93" r="1.85"/>
			<circle fill="#AEBDC4" cx="106.6" cy="139.93" r="1.85"/>
			<circle fill="#AEBDC4" cx="110.93" cy="139.93" r="1.85"/>
			<circle fill="#AEBDC4" cx="115.27" cy="139.93" r="1.85"/>
			<circle fill="#AEBDC4" cx="119.6" cy="139.93" r="1.85"/>
		</g>
		<g>
			<circle fill="#AEBDC4" cx="11.4" cy="145.86" r="1.85"/>
			<circle fill="#AEBDC4" cx="15.73" cy="145.86" r="1.85"/>
			<circle fill="#AEBDC4" cx="20.05" cy="145.86" r="1.85"/>
			<circle fill="#AEBDC4" cx="24.37" cy="145.86" r="1.85"/>
			<circle fill="#AEBDC4" cx="28.69" cy="145.86" r="1.85"/>
			<circle fill="#AEBDC4" cx="33.01" cy="145.86" r="1.85"/>
			<circle fill="#AEBDC4" cx="37.33" cy="145.86" r="1.85"/>
			<circle fill="#AEBDC4" cx="41.65" cy="145.86" r="1.85"/>
			<circle fill="#AEBDC4" cx="45.97" cy="145.86" r="1.85"/>
			<circle fill="#AEBDC4" cx="50.3" cy="145.86" r="1.85"/>
			<circle fill="#AEBDC4" cx="54.64" cy="145.86" r="1.85"/>
			<circle fill="#AEBDC4" cx="58.97" cy="145.86" r="1.85"/>
			<circle fill="#AEBDC4" cx="63.3" cy="145.86" r="1.85"/>
			<circle fill="#AEBDC4" cx="67.63" cy="145.86" r="1.85"/>
			<circle fill="#AEBDC4" cx="71.96" cy="145.86" r="1.85"/>
			<circle fill="#AEBDC4" cx="76.29" cy="145.86" r="1.85"/>
			<circle fill="#AEBDC4" cx="80.62" cy="145.86" r="1.85"/>
			<circle fill="#AEBDC4" cx="84.95" cy="145.86" r="1.85"/>
			<circle fill="#AEBDC4" cx="89.28" cy="145.86" r="1.85"/>
			<circle fill="#AEBDC4" cx="93.61" cy="145.86" r="1.85"/>
			<circle fill="#AEBDC4" cx="97.94" cy="145.86" r="1.85"/>
			<circle fill="#AEBDC4" cx="102.27" cy="145.86" r="1.85"/>
			<circle fill="#AEBDC4" cx="106.6" cy="145.86" r="1.85"/>
			<circle fill="#AEBDC4" cx="110.93" cy="145.86" r="1.85"/>
			<circle fill="#AEBDC4" cx="115.27" cy="145.86" r="1.85"/>
			<circle fill="#AEBDC4" cx="119.6" cy="145.86" r="1.85"/>
		</g>
		<g>
			<circle fill="#AEBDC4" cx="11.4" cy="151.79" r="1.85"/>
			<circle fill="#AEBDC4" cx="15.73" cy="151.79" r="1.85"/>
			<circle fill="#AEBDC4" cx="20.05" cy="151.79" r="1.85"/>
			<circle fill="#AEBDC4" cx="24.37" cy="151.79" r="1.85"/>
			<circle fill="#AEBDC4" cx="28.69" cy="151.79" r="1.85"/>
			<circle fill="#AEBDC4" cx="33.01" cy="151.79" r="1.85"/>
			<circle fill="#AEBDC4" cx="37.33" cy="151.79" r="1.85"/>
			<circle fill="#AEBDC4" cx="41.65" cy="151.79" r="1.85"/>
			<circle fill="#AEBDC4" cx="45.97" cy="151.79" r="1.85"/>
			<circle fill="#AEBDC4" cx="50.3" cy="151.79" r="1.85"/>
			<circle fill="#AEBDC4" cx="54.64" cy="151.79" r="1.85"/>
			<circle fill="#AEBDC4" cx="58.97" cy="151.79" r="1.85"/>
			<circle fill="#AEBDC4" cx="63.3" cy="151.79" r="1.85"/>
			<circle fill="#AEBDC4" cx="67.63" cy="151.79" r="1.85"/>
			<circle fill="#AEBDC4" cx="71.96" cy="151.79" r="1.85"/>
			<circle fill="#AEBDC4" cx="76.29" cy="151.79" r="1.85"/>
			<circle fill="#AEBDC4" cx="80.62" cy="151.79" r="1.85"/>
			<circle fill="#AEBDC4" cx="84.95" cy="151.79" r="1.85"/>
			<circle fill="#AEBDC4" cx="89.28" cy="151.79" r="1.85"/>
			<circle fill="#AEBDC4" cx="93.61" cy="151.79" r="1.85"/>
			<circle fill="#AEBDC4" cx="97.94" cy="151.79" r="1.85"/>
			<circle fill="#AEBDC4" cx="102.27" cy="151.79" r="1.85"/>
			<circle fill="#AEBDC4" cx="106.6" cy="151.79" r="1.85"/>
			<circle fill="#AEBDC4" cx="110.93" cy="151.79" r="1.85"/>
			<circle fill="#AEBDC4" cx="115.27" cy="151.79" r="1.85"/>
			<circle fill="#AEBDC4" cx="119.6" cy="151.79" r="1.85"/>
		</g>
		<g>
			<circle fill="#AEBDC4" cx="11.4" cy="157.72" r="1.85"/>
			<circle fill="#AEBDC4" cx="15.73" cy="157.72" r="1.85"/>
			<circle fill="#AEBDC4" cx="20.05" cy="157.72" r="1.85"/>
			<circle fill="#AEBDC4" cx="24.37" cy="157.72" r="1.85"/>
			<circle fill="#AEBDC4" cx="28.69" cy="157.72" r="1.85"/>
			<circle fill="#AEBDC4" cx="33.01" cy="157.72" r="1.85"/>
			<circle fill="#AEBDC4" cx="37.33" cy="157.72" r="1.85"/>
			<circle fill="#AEBDC4" cx="41.65" cy="157.72" r="1.85"/>
			<circle fill="#AEBDC4" cx="45.97" cy="157.72" r="1.85"/>
			<circle fill="#AEBDC4" cx="50.3" cy="157.72" r="1.85"/>
			<circle fill="#AEBDC4" cx="54.64" cy="157.72" r="1.85"/>
			<circle fill="#AEBDC4" cx="58.97" cy="157.72" r="1.85"/>
			<circle fill="#AEBDC4" cx="63.3" cy="157.72" r="1.85"/>
			<circle fill="#AEBDC4" cx="67.63" cy="157.72" r="1.85"/>
			<circle fill="#AEBDC4" cx="71.96" cy="157.72" r="1.85"/>
			<circle fill="#AEBDC4" cx="76.29" cy="157.72" r="1.85"/>
			<circle fill="#AEBDC4" cx="80.62" cy="157.72" r="1.85"/>
			<circle fill="#AEBDC4" cx="84.95" cy="157.72" r="1.85"/>
			<circle fill="#AEBDC4" cx="89.28" cy="157.72" r="1.85"/>
			<circle fill="#AEBDC4" cx="93.61" cy="157.72" r="1.85"/>
			<circle fill="#AEBDC4" cx="97.94" cy="157.72" r="1.85"/>
			<circle fill="#AEBDC4" cx="102.27" cy="157.72" r="1.85"/>
			<circle fill="#AEBDC4" cx="106.6" cy="157.72" r="1.85"/>
			<circle fill="#AEBDC4" cx="110.93" cy="157.72" r="1.85"/>
			<circle fill="#AEBDC4" cx="115.27" cy="157.72" r="1.85"/>
			<circle fill="#AEBDC4" cx="119.6" cy="157.72" r="1.85"/>
		</g>
	</g>
	<g onclick="this.parentNode.a_text=this;">
		<text transform="matrix(0.9999 0 0 1 61.057 47.0642)"><tspan x="0" y="0" font-family="'OpenSans-Semibold'" font-size="6.3996px">E 7</tspan><tspan x="-5.52" y="7.2" font-family="'OpenSans-Semibold'" font-size="6.3996px">(</tspan><tspan x="-3.47" y="7.2" font-family="'OpenSans-Semibold'" font-size="6.3996px">в</tspan><tspan x="0.64" y="7.2" font-family="'OpenSans-Semibold'" font-size="6.3996px">е</tspan><tspan x="4.56" y="7.2" font-family="'OpenSans-Semibold'" font-size="6.3996px">рх</tspan><tspan x="12.38" y="7.2" font-family="'OpenSans-Semibold'" font-size="6.3996px">)</tspan></text>
	</g>
</g>
</svg>
