<?xml version="1.0" encoding="utf-8"?>
<!-- Generator: Adobe Illustrator 23.0.1, SVG Export Plug-In . SVG Version: 6.00 Build 0)  -->
<svg version="1.1" id="Layer_1" xmlns="http://www.w3.org/2000/svg" xmlns:xlink="http://www.w3.org/1999/xlink" x="0px" y="0px"
	 viewBox="0 0 131 202" style="enable-background:new 0 0 131 202;" xml:space="preserve">
<style type="text/css">
	.st0{fill:#F1F3F4;stroke:#BCC8CE;stroke-width:0.4;stroke-linecap:round;stroke-miterlimit:10;}
	.st1{fill:#AEBDC4;}
	.st2{font-family:'Roboto-Medium';}
	.st3{font-size:3px;}
</style>
<polygon class="st0" points="0.5,0.4 130.5,0.4 130.5,174.4 0.5,201.6 "/>
<g 
  data-sort-seat-direction="ltr" 
  data-sort-line-direction="ttb" 
  data-sort-seat-option="cx" 
  data-sort-line-option="cy" 
  data-line-start="28"
  >
	<g>
		<circle class="st1" cx="11.4" cy="181.4" r="1.9"/>
		<circle class="st1" cx="15.7" cy="181.4" r="1.9"/>
		<circle class="st1" cx="20" cy="181.4" r="1.9"/>
		<circle class="st1" cx="24.4" cy="181.4" r="1.9"/>
		<circle class="st1" cx="28.7" cy="181.4" r="1.9"/>
		<circle class="st1" cx="33" cy="181.4" r="1.9"/>
		<text transform="matrix(1 0 0 1 4.8829 182.5184)" class="st1 st2 st3">00</text>
		<text transform="matrix(1 0 0 1 36.093 182.5184)" class="st1 st2 st3">00</text>
	</g>
	<g>
		<circle class="st1" cx="11.4" cy="175.5" r="1.9"/>
		<circle class="st1" cx="15.7" cy="175.5" r="1.9"/>
		<circle class="st1" cx="20" cy="175.5" r="1.9"/>
		<circle class="st1" cx="24.4" cy="175.5" r="1.9"/>
		<circle class="st1" cx="28.7" cy="175.5" r="1.9"/>
		<circle class="st1" cx="33" cy="175.5" r="1.9"/>
		<circle class="st1" cx="37.3" cy="175.5" r="1.9"/>
		<circle class="st1" cx="41.7" cy="175.5" r="1.9"/>
		<circle class="st1" cx="46" cy="175.5" r="1.9"/>
		<circle class="st1" cx="50.3" cy="175.5" r="1.9"/>
		<circle class="st1" cx="54.6" cy="175.5" r="1.9"/>
		<circle class="st1" cx="59" cy="175.5" r="1.9"/>
		<circle class="st1" cx="63.3" cy="175.5" r="1.9"/>
		<text transform="matrix(1 0 0 1 4.8829 176.5884)" class="st1 st2 st3">00</text>
		<text transform="matrix(1 0 0 1 66.3829 176.5884)" class="st1 st2 st3">00</text>
	</g>
	<g>
		<circle class="st1" cx="11.4" cy="169.6" r="1.9"/>
		<circle class="st1" cx="15.7" cy="169.6" r="1.9"/>
		<circle class="st1" cx="20" cy="169.6" r="1.9"/>
		<circle class="st1" cx="24.4" cy="169.6" r="1.9"/>
		<circle class="st1" cx="28.7" cy="169.6" r="1.9"/>
		<circle class="st1" cx="33" cy="169.6" r="1.9"/>
		<circle class="st1" cx="37.3" cy="169.6" r="1.9"/>
		<circle class="st1" cx="41.7" cy="169.6" r="1.9"/>
		<circle class="st1" cx="46" cy="169.6" r="1.9"/>
		<circle class="st1" cx="50.3" cy="169.6" r="1.9"/>
		<circle class="st1" cx="54.6" cy="169.6" r="1.9"/>
		<circle class="st1" cx="59" cy="169.6" r="1.9"/>
		<circle class="st1" cx="63.3" cy="169.6" r="1.9"/>
		<circle class="st1" cx="67.6" cy="169.6" r="1.9"/>
		<circle class="st1" cx="72" cy="169.6" r="1.9"/>
		<circle class="st1" cx="76.3" cy="169.6" r="1.9"/>
		<circle class="st1" cx="80.6" cy="169.6" r="1.9"/>
		<circle class="st1" cx="84.9" cy="169.6" r="1.9"/>
		<circle class="st1" cx="89.3" cy="169.6" r="1.9"/>
		<circle class="st1" cx="93.6" cy="169.6" r="1.9"/>
		<text transform="matrix(1 0 0 1 4.8829 170.6584)" class="st1 st2 st3">00</text>
		<text transform="matrix(1 0 0 1 96.693 170.6584)" class="st1 st2 st3">00</text>
	</g>
	<g>
		<circle class="st1" cx="11.4" cy="163.7" r="1.9"/>
		<circle class="st1" cx="15.7" cy="163.7" r="1.9"/>
		<circle class="st1" cx="20" cy="163.7" r="1.9"/>
		<circle class="st1" cx="24.4" cy="163.7" r="1.9"/>
		<circle class="st1" cx="28.7" cy="163.7" r="1.9"/>
		<circle class="st1" cx="33" cy="163.7" r="1.9"/>
		<circle class="st1" cx="37.3" cy="163.7" r="1.9"/>
		<circle class="st1" cx="41.7" cy="163.7" r="1.9"/>
		<circle class="st1" cx="46" cy="163.7" r="1.9"/>
		<circle class="st1" cx="50.3" cy="163.7" r="1.9"/>
		<circle class="st1" cx="54.6" cy="163.7" r="1.9"/>
		<circle class="st1" cx="59" cy="163.7" r="1.9"/>
		<circle class="st1" cx="63.3" cy="163.7" r="1.9"/>
		<circle class="st1" cx="67.6" cy="163.7" r="1.9"/>
		<circle class="st1" cx="72" cy="163.7" r="1.9"/>
		<circle class="st1" cx="76.3" cy="163.7" r="1.9"/>
		<circle class="st1" cx="80.6" cy="163.7" r="1.9"/>
		<circle class="st1" cx="84.9" cy="163.7" r="1.9"/>
		<circle class="st1" cx="89.3" cy="163.7" r="1.9"/>
		<circle class="st1" cx="93.6" cy="163.7" r="1.9"/>
		<circle class="st1" cx="97.9" cy="163.7" r="1.9"/>
		<circle class="st1" cx="102.3" cy="163.7" r="1.9"/>
		<circle class="st1" cx="106.6" cy="163.7" r="1.9"/>
		<circle class="st1" cx="110.9" cy="163.7" r="1.9"/>
		<text transform="matrix(1 0 0 1 4.8829 164.7285)" class="st1 st2 st3">00</text>
		<text transform="matrix(1 0 0 1 114.0129 164.7285)" class="st1 st2 st3">00</text>
	</g>
	<g>
		<circle class="st1" cx="11.4" cy="157.7" r="1.9"/>
		<circle class="st1" cx="15.7" cy="157.7" r="1.9"/>
		<circle class="st1" cx="20" cy="157.7" r="1.9"/>
		<circle class="st1" cx="24.4" cy="157.7" r="1.9"/>
		<circle class="st1" cx="28.7" cy="157.7" r="1.9"/>
		<circle class="st1" cx="33" cy="157.7" r="1.9"/>
		<circle class="st1" cx="37.3" cy="157.7" r="1.9"/>
		<circle class="st1" cx="41.7" cy="157.7" r="1.9"/>
		<circle class="st1" cx="46" cy="157.7" r="1.9"/>
		<circle class="st1" cx="50.3" cy="157.7" r="1.9"/>
		<circle class="st1" cx="54.6" cy="157.7" r="1.9"/>
		<circle class="st1" cx="59" cy="157.7" r="1.9"/>
		<circle class="st1" cx="63.3" cy="157.7" r="1.9"/>
		<circle class="st1" cx="67.6" cy="157.7" r="1.9"/>
		<circle class="st1" cx="72" cy="157.7" r="1.9"/>
		<circle class="st1" cx="76.3" cy="157.7" r="1.9"/>
		<circle class="st1" cx="80.6" cy="157.7" r="1.9"/>
		<circle class="st1" cx="84.9" cy="157.7" r="1.9"/>
		<circle class="st1" cx="89.3" cy="157.7" r="1.9"/>
		<circle class="st1" cx="93.6" cy="157.7" r="1.9"/>
		<circle class="st1" cx="97.9" cy="157.7" r="1.9"/>
		<circle class="st1" cx="102.3" cy="157.7" r="1.9"/>
		<circle class="st1" cx="106.6" cy="157.7" r="1.9"/>
		<circle class="st1" cx="110.9" cy="157.7" r="1.9"/>
		<circle class="st1" cx="115.3" cy="157.7" r="1.9"/>
		<circle class="st1" cx="119.6" cy="157.7" r="1.9"/>
		<text transform="matrix(1 0 0 1 4.8829 158.7986)" class="st1 st2 st3">00</text>
		<text transform="matrix(1 0 0 1 122.683 158.7986)" class="st1 st2 st3">00</text>
	</g>
	<g>
		<circle class="st1" cx="11.4" cy="151.8" r="1.9"/>
		<circle class="st1" cx="15.7" cy="151.8" r="1.9"/>
		<circle class="st1" cx="20" cy="151.8" r="1.9"/>
		<circle class="st1" cx="24.4" cy="151.8" r="1.9"/>
		<circle class="st1" cx="28.7" cy="151.8" r="1.9"/>
		<circle class="st1" cx="33" cy="151.8" r="1.9"/>
		<circle class="st1" cx="37.3" cy="151.8" r="1.9"/>
		<circle class="st1" cx="41.7" cy="151.8" r="1.9"/>
		<circle class="st1" cx="46" cy="151.8" r="1.9"/>
		<circle class="st1" cx="50.3" cy="151.8" r="1.9"/>
		<circle class="st1" cx="54.6" cy="151.8" r="1.9"/>
		<circle class="st1" cx="59" cy="151.8" r="1.9"/>
		<circle class="st1" cx="63.3" cy="151.8" r="1.9"/>
		<circle class="st1" cx="67.6" cy="151.8" r="1.9"/>
		<circle class="st1" cx="72" cy="151.8" r="1.9"/>
		<circle class="st1" cx="76.3" cy="151.8" r="1.9"/>
		<circle class="st1" cx="80.6" cy="151.8" r="1.9"/>
		<circle class="st1" cx="84.9" cy="151.8" r="1.9"/>
		<circle class="st1" cx="89.3" cy="151.8" r="1.9"/>
		<circle class="st1" cx="93.6" cy="151.8" r="1.9"/>
		<circle class="st1" cx="97.9" cy="151.8" r="1.9"/>
		<circle class="st1" cx="102.3" cy="151.8" r="1.9"/>
		<circle class="st1" cx="106.6" cy="151.8" r="1.9"/>
		<circle class="st1" cx="110.9" cy="151.8" r="1.9"/>
		<circle class="st1" cx="115.3" cy="151.8" r="1.9"/>
		<circle class="st1" cx="119.6" cy="151.8" r="1.9"/>
		<text transform="matrix(1 0 0 1 4.8829 152.8687)" class="st1 st2 st3">00</text>
		<text transform="matrix(1 0 0 1 122.683 152.8687)" class="st1 st2 st3">00</text>
	</g>
	<g>
		<circle class="st1" cx="11.4" cy="145.9" r="1.9"/>
		<circle class="st1" cx="15.7" cy="145.9" r="1.9"/>
		<circle class="st1" cx="20" cy="145.9" r="1.9"/>
		<circle class="st1" cx="24.4" cy="145.9" r="1.9"/>
		<circle class="st1" cx="28.7" cy="145.9" r="1.9"/>
		<circle class="st1" cx="33" cy="145.9" r="1.9"/>
		<circle class="st1" cx="37.3" cy="145.9" r="1.9"/>
		<circle class="st1" cx="41.7" cy="145.9" r="1.9"/>
		<circle class="st1" cx="46" cy="145.9" r="1.9"/>
		<circle class="st1" cx="50.3" cy="145.9" r="1.9"/>
		<circle class="st1" cx="54.6" cy="145.9" r="1.9"/>
		<circle class="st1" cx="59" cy="145.9" r="1.9"/>
		<circle class="st1" cx="63.3" cy="145.9" r="1.9"/>
		<circle class="st1" cx="67.6" cy="145.9" r="1.9"/>
		<circle class="st1" cx="72" cy="145.9" r="1.9"/>
		<circle class="st1" cx="76.3" cy="145.9" r="1.9"/>
		<circle class="st1" cx="80.6" cy="145.9" r="1.9"/>
		<circle class="st1" cx="84.9" cy="145.9" r="1.9"/>
		<circle class="st1" cx="89.3" cy="145.9" r="1.9"/>
		<circle class="st1" cx="93.6" cy="145.9" r="1.9"/>
		<circle class="st1" cx="97.9" cy="145.9" r="1.9"/>
		<circle class="st1" cx="102.3" cy="145.9" r="1.9"/>
		<circle class="st1" cx="106.6" cy="145.9" r="1.9"/>
		<circle class="st1" cx="110.9" cy="145.9" r="1.9"/>
		<circle class="st1" cx="115.3" cy="145.9" r="1.9"/>
		<circle class="st1" cx="119.6" cy="145.9" r="1.9"/>
		<text transform="matrix(1 0 0 1 4.8829 146.9387)" class="st1 st2 st3">00</text>
		<text transform="matrix(1 0 0 1 122.683 146.9387)" class="st1 st2 st3">00</text>
	</g>
	<g>
		<circle class="st1" cx="11.4" cy="139.9" r="1.9"/>
		<circle class="st1" cx="15.7" cy="139.9" r="1.9"/>
		<circle class="st1" cx="20" cy="139.9" r="1.9"/>
		<circle class="st1" cx="24.4" cy="139.9" r="1.9"/>
		<circle class="st1" cx="28.7" cy="139.9" r="1.9"/>
		<circle class="st1" cx="33" cy="139.9" r="1.9"/>
		<circle class="st1" cx="37.3" cy="139.9" r="1.9"/>
		<circle class="st1" cx="41.7" cy="139.9" r="1.9"/>
		<circle class="st1" cx="46" cy="139.9" r="1.9"/>
		<circle class="st1" cx="50.3" cy="139.9" r="1.9"/>
		<circle class="st1" cx="54.6" cy="139.9" r="1.9"/>
		<circle class="st1" cx="59" cy="139.9" r="1.9"/>
		<circle class="st1" cx="63.3" cy="139.9" r="1.9"/>
		<circle class="st1" cx="67.6" cy="139.9" r="1.9"/>
		<circle class="st1" cx="72" cy="139.9" r="1.9"/>
		<circle class="st1" cx="76.3" cy="139.9" r="1.9"/>
		<circle class="st1" cx="80.6" cy="139.9" r="1.9"/>
		<circle class="st1" cx="84.9" cy="139.9" r="1.9"/>
		<circle class="st1" cx="89.3" cy="139.9" r="1.9"/>
		<circle class="st1" cx="93.6" cy="139.9" r="1.9"/>
		<circle class="st1" cx="97.9" cy="139.9" r="1.9"/>
		<circle class="st1" cx="102.3" cy="139.9" r="1.9"/>
		<circle class="st1" cx="106.6" cy="139.9" r="1.9"/>
		<circle class="st1" cx="110.9" cy="139.9" r="1.9"/>
		<circle class="st1" cx="115.3" cy="139.9" r="1.9"/>
		<circle class="st1" cx="119.6" cy="139.9" r="1.9"/>
		<text transform="matrix(1 0 0 1 4.8829 141.0088)" class="st1 st2 st3">00</text>
		<text transform="matrix(1 0 0 1 122.683 141.0088)" class="st1 st2 st3">00</text>
	</g>
	<g>
		<circle class="st1" cx="11.4" cy="134" r="1.9"/>
		<circle class="st1" cx="15.7" cy="134" r="1.9"/>
		<circle class="st1" cx="20" cy="134" r="1.9"/>
		<circle class="st1" cx="24.4" cy="134" r="1.9"/>
		<circle class="st1" cx="28.7" cy="134" r="1.9"/>
		<circle class="st1" cx="33" cy="134" r="1.9"/>
		<circle class="st1" cx="37.3" cy="134" r="1.9"/>
		<circle class="st1" cx="41.7" cy="134" r="1.9"/>
		<circle class="st1" cx="46" cy="134" r="1.9"/>
		<circle class="st1" cx="50.3" cy="134" r="1.9"/>
		<circle class="st1" cx="54.6" cy="134" r="1.9"/>
		<circle class="st1" cx="59" cy="134" r="1.9"/>
		<circle class="st1" cx="63.3" cy="134" r="1.9"/>
		<circle class="st1" cx="67.6" cy="134" r="1.9"/>
		<circle class="st1" cx="72" cy="134" r="1.9"/>
		<circle class="st1" cx="76.3" cy="134" r="1.9"/>
		<circle class="st1" cx="80.6" cy="134" r="1.9"/>
		<circle class="st1" cx="84.9" cy="134" r="1.9"/>
		<circle class="st1" cx="89.3" cy="134" r="1.9"/>
		<circle class="st1" cx="93.6" cy="134" r="1.9"/>
		<circle class="st1" cx="97.9" cy="134" r="1.9"/>
		<circle class="st1" cx="102.3" cy="134" r="1.9"/>
		<circle class="st1" cx="106.6" cy="134" r="1.9"/>
		<circle class="st1" cx="110.9" cy="134" r="1.9"/>
		<circle class="st1" cx="115.3" cy="134" r="1.9"/>
		<circle class="st1" cx="119.6" cy="134" r="1.9"/>
		<text transform="matrix(1 0 0 1 4.8829 135.0789)" class="st1 st2 st3">00</text>
		<text transform="matrix(1 0 0 1 122.683 135.0789)" class="st1 st2 st3">00</text>
	</g>
	<g>
		<circle class="st1" cx="11.4" cy="128.1" r="1.9"/>
		<circle class="st1" cx="15.7" cy="128.1" r="1.9"/>
		<circle class="st1" cx="20" cy="128.1" r="1.9"/>
		<circle class="st1" cx="24.4" cy="128.1" r="1.9"/>
		<circle class="st1" cx="28.7" cy="128.1" r="1.9"/>
		<circle class="st1" cx="33" cy="128.1" r="1.9"/>
		<circle class="st1" cx="37.3" cy="128.1" r="1.9"/>
		<circle class="st1" cx="41.7" cy="128.1" r="1.9"/>
		<circle class="st1" cx="46" cy="128.1" r="1.9"/>
		<circle class="st1" cx="50.3" cy="128.1" r="1.9"/>
		<circle class="st1" cx="54.6" cy="128.1" r="1.9"/>
		<circle class="st1" cx="59" cy="128.1" r="1.9"/>
		<circle class="st1" cx="63.3" cy="128.1" r="1.9"/>
		<circle class="st1" cx="67.6" cy="128.1" r="1.9"/>
		<circle class="st1" cx="72" cy="128.1" r="1.9"/>
		<circle class="st1" cx="76.3" cy="128.1" r="1.9"/>
		<circle class="st1" cx="80.6" cy="128.1" r="1.9"/>
		<circle class="st1" cx="84.9" cy="128.1" r="1.9"/>
		<circle class="st1" cx="89.3" cy="128.1" r="1.9"/>
		<circle class="st1" cx="93.6" cy="128.1" r="1.9"/>
		<circle class="st1" cx="97.9" cy="128.1" r="1.9"/>
		<circle class="st1" cx="102.3" cy="128.1" r="1.9"/>
		<circle class="st1" cx="106.6" cy="128.1" r="1.9"/>
		<circle class="st1" cx="110.9" cy="128.1" r="1.9"/>
		<circle class="st1" cx="115.3" cy="128.1" r="1.9"/>
		<circle class="st1" cx="119.6" cy="128.1" r="1.9"/>
		<text transform="matrix(1 0 0 1 4.8829 129.1489)" class="st1 st2 st3">00</text>
		<text transform="matrix(1 0 0 1 122.683 129.1489)" class="st1 st2 st3">00</text>
	</g>
	<g>
		<circle class="st1" cx="11.4" cy="122.1" r="1.8"/>
		<circle class="st1" cx="15.7" cy="122.1" r="1.8"/>
		<circle class="st1" cx="20" cy="122.1" r="1.8"/>
		<circle class="st1" cx="24.4" cy="122.1" r="1.8"/>
		<circle class="st1" cx="28.7" cy="122.1" r="1.8"/>
		<circle class="st1" cx="33" cy="122.1" r="1.8"/>
		<circle class="st1" cx="37.3" cy="122.1" r="1.8"/>
		<circle class="st1" cx="41.7" cy="122.1" r="1.8"/>
		<circle class="st1" cx="46" cy="122.1" r="1.8"/>
		<circle class="st1" cx="50.3" cy="122.1" r="1.8"/>
		<circle class="st1" cx="54.6" cy="122.1" r="1.8"/>
		<circle class="st1" cx="59" cy="122.1" r="1.8"/>
		<circle class="st1" cx="63.3" cy="122.1" r="1.8"/>
		<circle class="st1" cx="67.6" cy="122.1" r="1.8"/>
		<circle class="st1" cx="72" cy="122.1" r="1.8"/>
		<circle class="st1" cx="76.3" cy="122.1" r="1.8"/>
		<circle class="st1" cx="80.6" cy="122.1" r="1.8"/>
		<circle class="st1" cx="84.9" cy="122.1" r="1.8"/>
		<circle class="st1" cx="89.3" cy="122.1" r="1.8"/>
		<circle class="st1" cx="93.6" cy="122.1" r="1.8"/>
		<circle class="st1" cx="97.9" cy="122.1" r="1.8"/>
		<circle class="st1" cx="102.3" cy="122.1" r="1.8"/>
		<circle class="st1" cx="106.6" cy="122.1" r="1.8"/>
		<circle class="st1" cx="110.9" cy="122.1" r="1.8"/>
		<circle class="st1" cx="115.3" cy="122.1" r="1.8"/>
		<circle class="st1" cx="119.6" cy="122.1" r="1.8"/>
		<text transform="matrix(1 0 0 1 4.8829 123.219)" class="st1 st2 st3">00</text>
		<text transform="matrix(1 0 0 1 122.683 123.219)" class="st1 st2 st3">00</text>
	</g>
	<g>
		<circle class="st1" cx="11.4" cy="116.2" r="1.8"/>
		<circle class="st1" cx="15.7" cy="116.2" r="1.8"/>
		<circle class="st1" cx="20" cy="116.2" r="1.8"/>
		<circle class="st1" cx="24.4" cy="116.2" r="1.8"/>
		<circle class="st1" cx="28.7" cy="116.2" r="1.8"/>
		<circle class="st1" cx="33" cy="116.2" r="1.8"/>
		<circle class="st1" cx="37.3" cy="116.2" r="1.8"/>
		<circle class="st1" cx="41.7" cy="116.2" r="1.8"/>
		<circle class="st1" cx="46" cy="116.2" r="1.8"/>
		<circle class="st1" cx="50.3" cy="116.2" r="1.8"/>
		<circle class="st1" cx="54.6" cy="116.2" r="1.8"/>
		<circle class="st1" cx="59" cy="116.2" r="1.8"/>
		<circle class="st1" cx="63.3" cy="116.2" r="1.8"/>
		<circle class="st1" cx="67.6" cy="116.2" r="1.8"/>
		<circle class="st1" cx="72" cy="116.2" r="1.8"/>
		<circle class="st1" cx="76.3" cy="116.2" r="1.8"/>
		<circle class="st1" cx="80.6" cy="116.2" r="1.8"/>
		<circle class="st1" cx="84.9" cy="116.2" r="1.8"/>
		<circle class="st1" cx="89.3" cy="116.2" r="1.8"/>
		<circle class="st1" cx="93.6" cy="116.2" r="1.8"/>
		<circle class="st1" cx="97.9" cy="116.2" r="1.8"/>
		<circle class="st1" cx="102.3" cy="116.2" r="1.8"/>
		<circle class="st1" cx="106.6" cy="116.2" r="1.8"/>
		<circle class="st1" cx="110.9" cy="116.2" r="1.8"/>
		<circle class="st1" cx="115.3" cy="116.2" r="1.8"/>
		<circle class="st1" cx="119.6" cy="116.2" r="1.8"/>
		<text transform="matrix(1 0 0 1 4.8829 117.2891)" class="st1 st2 st3">00</text>
		<text transform="matrix(1 0 0 1 122.683 117.2891)" class="st1 st2 st3">00</text>
	</g>
	<g>
		<circle class="st1" cx="11.4" cy="110.3" r="1.8"/>
		<circle class="st1" cx="15.7" cy="110.3" r="1.8"/>
		<circle class="st1" cx="20" cy="110.3" r="1.8"/>
		<circle class="st1" cx="24.4" cy="110.3" r="1.8"/>
		<circle class="st1" cx="28.7" cy="110.3" r="1.8"/>
		<circle class="st1" cx="33" cy="110.3" r="1.8"/>
		<circle class="st1" cx="37.3" cy="110.3" r="1.8"/>
		<circle class="st1" cx="41.7" cy="110.3" r="1.8"/>
		<circle class="st1" cx="46" cy="110.3" r="1.8"/>
		<circle class="st1" cx="50.3" cy="110.3" r="1.8"/>
		<circle class="st1" cx="54.6" cy="110.3" r="1.8"/>
		<circle class="st1" cx="59" cy="110.3" r="1.8"/>
		<circle class="st1" cx="63.3" cy="110.3" r="1.8"/>
		<circle class="st1" cx="67.6" cy="110.3" r="1.8"/>
		<circle class="st1" cx="72" cy="110.3" r="1.8"/>
		<circle class="st1" cx="76.3" cy="110.3" r="1.8"/>
		<circle class="st1" cx="80.6" cy="110.3" r="1.8"/>
		<circle class="st1" cx="84.9" cy="110.3" r="1.8"/>
		<circle class="st1" cx="89.3" cy="110.3" r="1.8"/>
		<circle class="st1" cx="93.6" cy="110.3" r="1.8"/>
		<circle class="st1" cx="97.9" cy="110.3" r="1.8"/>
		<circle class="st1" cx="102.3" cy="110.3" r="1.8"/>
		<circle class="st1" cx="106.6" cy="110.3" r="1.8"/>
		<circle class="st1" cx="110.9" cy="110.3" r="1.8"/>
		<circle class="st1" cx="115.3" cy="110.3" r="1.8"/>
		<circle class="st1" cx="119.6" cy="110.3" r="1.8"/>
		<text transform="matrix(1 0 0 1 4.8829 111.3591)" class="st1 st2 st3">00</text>
		<text transform="matrix(1 0 0 1 122.683 111.3591)" class="st1 st2 st3">00</text>
	</g>
	<g>
		<circle class="st1" cx="11.4" cy="104.3" r="1.8"/>
		<circle class="st1" cx="15.7" cy="104.3" r="1.8"/>
		<circle class="st1" cx="20" cy="104.3" r="1.8"/>
		<circle class="st1" cx="24.4" cy="104.3" r="1.8"/>
		<circle class="st1" cx="28.7" cy="104.3" r="1.8"/>
		<circle class="st1" cx="33" cy="104.3" r="1.8"/>
		<circle class="st1" cx="37.3" cy="104.3" r="1.8"/>
		<circle class="st1" cx="41.7" cy="104.3" r="1.8"/>
		<circle class="st1" cx="46" cy="104.3" r="1.8"/>
		<circle class="st1" cx="50.3" cy="104.3" r="1.8"/>
		<circle class="st1" cx="54.6" cy="104.3" r="1.8"/>
		<circle class="st1" cx="59" cy="104.3" r="1.8"/>
		<circle class="st1" cx="63.3" cy="104.3" r="1.8"/>
		<circle class="st1" cx="67.6" cy="104.3" r="1.8"/>
		<circle class="st1" cx="72" cy="104.3" r="1.8"/>
		<circle class="st1" cx="76.3" cy="104.3" r="1.8"/>
		<circle class="st1" cx="80.6" cy="104.3" r="1.8"/>
		<circle class="st1" cx="84.9" cy="104.3" r="1.8"/>
		<circle class="st1" cx="89.3" cy="104.3" r="1.8"/>
		<circle class="st1" cx="93.6" cy="104.3" r="1.8"/>
		<circle class="st1" cx="97.9" cy="104.3" r="1.8"/>
		<circle class="st1" cx="102.3" cy="104.3" r="1.8"/>
		<circle class="st1" cx="106.6" cy="104.3" r="1.8"/>
		<circle class="st1" cx="110.9" cy="104.3" r="1.8"/>
		<circle class="st1" cx="115.3" cy="104.3" r="1.8"/>
		<circle class="st1" cx="119.6" cy="104.3" r="1.8"/>
		<text transform="matrix(1 0 0 1 4.8829 105.4292)" class="st1 st2 st3">00</text>
		<text transform="matrix(1 0 0 1 122.683 105.4292)" class="st1 st2 st3">00</text>
	</g>
	<g>
		<circle class="st1" cx="11.4" cy="98.4" r="1.8"/>
		<circle class="st1" cx="15.7" cy="98.4" r="1.8"/>
		<circle class="st1" cx="20" cy="98.4" r="1.8"/>
		<circle class="st1" cx="24.4" cy="98.4" r="1.8"/>
		<circle class="st1" cx="28.7" cy="98.4" r="1.8"/>
		<circle class="st1" cx="33" cy="98.4" r="1.8"/>
		<circle class="st1" cx="37.3" cy="98.4" r="1.8"/>
		<circle class="st1" cx="41.7" cy="98.4" r="1.8"/>
		<circle class="st1" cx="46" cy="98.4" r="1.8"/>
		<circle class="st1" cx="50.3" cy="98.4" r="1.8"/>
		<circle class="st1" cx="54.6" cy="98.4" r="1.8"/>
		<circle class="st1" cx="59" cy="98.4" r="1.8"/>
		<circle class="st1" cx="63.3" cy="98.4" r="1.8"/>
		<circle class="st1" cx="67.6" cy="98.4" r="1.8"/>
		<circle class="st1" cx="72" cy="98.4" r="1.8"/>
		<circle class="st1" cx="76.3" cy="98.4" r="1.8"/>
		<circle class="st1" cx="80.6" cy="98.4" r="1.8"/>
		<circle class="st1" cx="84.9" cy="98.4" r="1.8"/>
		<circle class="st1" cx="89.3" cy="98.4" r="1.8"/>
		<circle class="st1" cx="93.6" cy="98.4" r="1.8"/>
		<circle class="st1" cx="97.9" cy="98.4" r="1.8"/>
		<circle class="st1" cx="102.3" cy="98.4" r="1.8"/>
		<circle class="st1" cx="106.6" cy="98.4" r="1.8"/>
		<circle class="st1" cx="110.9" cy="98.4" r="1.8"/>
		<circle class="st1" cx="115.3" cy="98.4" r="1.8"/>
		<circle class="st1" cx="119.6" cy="98.4" r="1.8"/>
		<text transform="matrix(1 0 0 1 4.8829 99.4993)" class="st1 st2 st3">00</text>
		<text transform="matrix(1 0 0 1 122.683 99.4993)" class="st1 st2 st3">00</text>
	</g>
	<g>
		<circle class="st1" cx="11.4" cy="92.5" r="1.8"/>
		<circle class="st1" cx="15.7" cy="92.5" r="1.8"/>
		<circle class="st1" cx="20" cy="92.5" r="1.8"/>
		<circle class="st1" cx="24.4" cy="92.5" r="1.8"/>
		<circle class="st1" cx="28.7" cy="92.5" r="1.8"/>
		<circle class="st1" cx="33" cy="92.5" r="1.8"/>
		<circle class="st1" cx="37.3" cy="92.5" r="1.8"/>
		<circle class="st1" cx="41.7" cy="92.5" r="1.8"/>
		<circle class="st1" cx="46" cy="92.5" r="1.8"/>
		<circle class="st1" cx="50.3" cy="92.5" r="1.8"/>
		<circle class="st1" cx="54.6" cy="92.5" r="1.8"/>
		<circle class="st1" cx="59" cy="92.5" r="1.8"/>
		<circle class="st1" cx="63.3" cy="92.5" r="1.8"/>
		<circle class="st1" cx="67.6" cy="92.5" r="1.8"/>
		<circle class="st1" cx="72" cy="92.5" r="1.8"/>
		<circle class="st1" cx="76.3" cy="92.5" r="1.8"/>
		<circle class="st1" cx="80.6" cy="92.5" r="1.8"/>
		<circle class="st1" cx="84.9" cy="92.5" r="1.8"/>
		<circle class="st1" cx="89.3" cy="92.5" r="1.8"/>
		<circle class="st1" cx="93.6" cy="92.5" r="1.8"/>
		<circle class="st1" cx="97.9" cy="92.5" r="1.8"/>
		<circle class="st1" cx="102.3" cy="92.5" r="1.8"/>
		<circle class="st1" cx="106.6" cy="92.5" r="1.8"/>
		<circle class="st1" cx="110.9" cy="92.5" r="1.8"/>
		<circle class="st1" cx="115.3" cy="92.5" r="1.8"/>
		<circle class="st1" cx="119.6" cy="92.5" r="1.8"/>
		<text transform="matrix(1 0 0 1 4.8829 93.5693)" class="st1 st2 st3">00</text>
		<text transform="matrix(1 0 0 1 122.683 93.5693)" class="st1 st2 st3">00</text>
	</g>
	<g>
		<circle class="st1" cx="11.4" cy="86.6" r="1.8"/>
		<circle class="st1" cx="15.7" cy="86.6" r="1.8"/>
		<circle class="st1" cx="20" cy="86.6" r="1.8"/>
		<circle class="st1" cx="24.4" cy="86.6" r="1.8"/>
		<circle class="st1" cx="28.7" cy="86.6" r="1.8"/>
		<circle class="st1" cx="33" cy="86.6" r="1.8"/>
		<circle class="st1" cx="37.3" cy="86.6" r="1.8"/>
		<circle class="st1" cx="41.7" cy="86.6" r="1.8"/>
		<circle class="st1" cx="46" cy="86.6" r="1.8"/>
		<circle class="st1" cx="50.3" cy="86.6" r="1.8"/>
		<circle class="st1" cx="54.6" cy="86.6" r="1.8"/>
		<circle class="st1" cx="59" cy="86.6" r="1.8"/>
		<circle class="st1" cx="63.3" cy="86.6" r="1.8"/>
		<circle class="st1" cx="67.6" cy="86.6" r="1.8"/>
		<circle class="st1" cx="72" cy="86.6" r="1.8"/>
		<circle class="st1" cx="76.3" cy="86.6" r="1.8"/>
		<circle class="st1" cx="80.6" cy="86.6" r="1.8"/>
		<circle class="st1" cx="84.9" cy="86.6" r="1.8"/>
		<circle class="st1" cx="89.3" cy="86.6" r="1.8"/>
		<circle class="st1" cx="93.6" cy="86.6" r="1.8"/>
		<circle class="st1" cx="97.9" cy="86.6" r="1.8"/>
		<circle class="st1" cx="102.3" cy="86.6" r="1.8"/>
		<circle class="st1" cx="106.6" cy="86.6" r="1.8"/>
		<circle class="st1" cx="110.9" cy="86.6" r="1.8"/>
		<circle class="st1" cx="115.3" cy="86.6" r="1.8"/>
		<circle class="st1" cx="119.6" cy="86.6" r="1.8"/>
		<text transform="matrix(1 0 0 1 4.8829 87.6394)" class="st1 st2 st3">00</text>
		<text transform="matrix(1 0 0 1 122.683 87.6394)" class="st1 st2 st3">00</text>
	</g>
	<g>
		<circle class="st1" cx="11.4" cy="80.6" r="1.8"/>
		<circle class="st1" cx="15.7" cy="80.6" r="1.8"/>
		<circle class="st1" cx="20" cy="80.6" r="1.8"/>
		<circle class="st1" cx="24.4" cy="80.6" r="1.8"/>
		<circle class="st1" cx="28.7" cy="80.6" r="1.8"/>
		<circle class="st1" cx="33" cy="80.6" r="1.8"/>
		<circle class="st1" cx="37.3" cy="80.6" r="1.8"/>
		<circle class="st1" cx="41.7" cy="80.6" r="1.8"/>
		<circle class="st1" cx="46" cy="80.6" r="1.8"/>
		<circle class="st1" cx="50.3" cy="80.6" r="1.8"/>
		<circle class="st1" cx="54.6" cy="80.6" r="1.8"/>
		<circle class="st1" cx="59" cy="80.6" r="1.8"/>
		<circle class="st1" cx="63.3" cy="80.6" r="1.8"/>
		<circle class="st1" cx="67.6" cy="80.6" r="1.8"/>
		<circle class="st1" cx="72" cy="80.6" r="1.8"/>
		<circle class="st1" cx="76.3" cy="80.6" r="1.8"/>
		<circle class="st1" cx="80.6" cy="80.6" r="1.8"/>
		<circle class="st1" cx="84.9" cy="80.6" r="1.8"/>
		<circle class="st1" cx="89.3" cy="80.6" r="1.8"/>
		<circle class="st1" cx="93.6" cy="80.6" r="1.8"/>
		<circle class="st1" cx="97.9" cy="80.6" r="1.8"/>
		<circle class="st1" cx="102.3" cy="80.6" r="1.8"/>
		<circle class="st1" cx="106.6" cy="80.6" r="1.8"/>
		<circle class="st1" cx="110.9" cy="80.6" r="1.8"/>
		<circle class="st1" cx="115.3" cy="80.6" r="1.8"/>
		<circle class="st1" cx="119.6" cy="80.6" r="1.8"/>
		<text transform="matrix(1 0 0 1 4.8829 81.7095)" class="st1 st2 st3">00</text>
		<text transform="matrix(1 0 0 1 122.683 81.7095)" class="st1 st2 st3">00</text>
	</g>
	<g>
		<circle class="st1" cx="11.4" cy="74.7" r="1.8"/>
		<circle class="st1" cx="15.7" cy="74.7" r="1.8"/>
		<circle class="st1" cx="20" cy="74.7" r="1.8"/>
		<circle class="st1" cx="24.4" cy="74.7" r="1.8"/>
		<circle class="st1" cx="28.7" cy="74.7" r="1.8"/>
		<circle class="st1" cx="33" cy="74.7" r="1.8"/>
		<circle class="st1" cx="37.3" cy="74.7" r="1.8"/>
		<circle class="st1" cx="41.7" cy="74.7" r="1.8"/>
		<circle class="st1" cx="46" cy="74.7" r="1.8"/>
		<circle class="st1" cx="50.3" cy="74.7" r="1.8"/>
		<circle class="st1" cx="54.6" cy="74.7" r="1.8"/>
		<circle class="st1" cx="59" cy="74.7" r="1.8"/>
		<circle class="st1" cx="63.3" cy="74.7" r="1.8"/>
		<circle class="st1" cx="67.6" cy="74.7" r="1.8"/>
		<circle class="st1" cx="72" cy="74.7" r="1.8"/>
		<circle class="st1" cx="76.3" cy="74.7" r="1.8"/>
		<circle class="st1" cx="80.6" cy="74.7" r="1.8"/>
		<circle class="st1" cx="84.9" cy="74.7" r="1.8"/>
		<circle class="st1" cx="89.3" cy="74.7" r="1.8"/>
		<circle class="st1" cx="93.6" cy="74.7" r="1.8"/>
		<circle class="st1" cx="97.9" cy="74.7" r="1.8"/>
		<circle class="st1" cx="102.3" cy="74.7" r="1.8"/>
		<circle class="st1" cx="106.6" cy="74.7" r="1.8"/>
		<circle class="st1" cx="110.9" cy="74.7" r="1.8"/>
		<circle class="st1" cx="115.3" cy="74.7" r="1.8"/>
		<circle class="st1" cx="119.6" cy="74.7" r="1.8"/>
		<text transform="matrix(1 0 0 1 4.8829 75.7795)" class="st1 st2 st3">00</text>
		<text transform="matrix(1 0 0 1 122.683 75.7795)" class="st1 st2 st3">00</text>
	</g>
	<g>
		<circle class="st1" cx="11.4" cy="68.8" r="1.8"/>
		<circle class="st1" cx="15.7" cy="68.8" r="1.8"/>
		<circle class="st1" cx="20" cy="68.8" r="1.8"/>
		<circle class="st1" cx="24.4" cy="68.8" r="1.8"/>
		<circle class="st1" cx="28.7" cy="68.8" r="1.8"/>
		<circle class="st1" cx="33" cy="68.8" r="1.8"/>
		<circle class="st1" cx="37.3" cy="68.8" r="1.8"/>
		<circle class="st1" cx="41.7" cy="68.8" r="1.8"/>
		<circle class="st1" cx="46" cy="68.8" r="1.8"/>
		<circle class="st1" cx="50.3" cy="68.8" r="1.8"/>
		<circle class="st1" cx="54.6" cy="68.8" r="1.8"/>
		<circle class="st1" cx="59" cy="68.8" r="1.8"/>
		<circle class="st1" cx="63.3" cy="68.8" r="1.8"/>
		<circle class="st1" cx="67.6" cy="68.8" r="1.8"/>
		<circle class="st1" cx="72" cy="68.8" r="1.8"/>
		<circle class="st1" cx="76.3" cy="68.8" r="1.8"/>
		<circle class="st1" cx="80.6" cy="68.8" r="1.8"/>
		<circle class="st1" cx="84.9" cy="68.8" r="1.8"/>
		<circle class="st1" cx="89.3" cy="68.8" r="1.8"/>
		<circle class="st1" cx="93.6" cy="68.8" r="1.8"/>
		<circle class="st1" cx="97.9" cy="68.8" r="1.8"/>
		<circle class="st1" cx="102.3" cy="68.8" r="1.8"/>
		<circle class="st1" cx="106.6" cy="68.8" r="1.8"/>
		<circle class="st1" cx="110.9" cy="68.8" r="1.8"/>
		<circle class="st1" cx="115.3" cy="68.8" r="1.8"/>
		<circle class="st1" cx="119.6" cy="68.8" r="1.8"/>
		<text transform="matrix(1 0 0 1 4.8829 69.8496)" class="st1 st2 st3">00</text>
		<text transform="matrix(1 0 0 1 122.683 69.8496)" class="st1 st2 st3">00</text>
	</g>
	<g>
		<circle class="st1" cx="20.1" cy="62.8" r="1.8"/>
		<circle class="st1" cx="24.4" cy="62.8" r="1.8"/>
		<circle class="st1" cx="28.7" cy="62.8" r="1.8"/>
		<circle class="st1" cx="33" cy="62.8" r="1.8"/>
		<circle class="st1" cx="37.3" cy="62.8" r="1.8"/>
		<circle class="st1" cx="41.7" cy="62.8" r="1.8"/>
		<circle class="st1" cx="46" cy="62.8" r="1.8"/>
		<circle class="st1" cx="50.3" cy="62.8" r="1.8"/>
		<circle class="st1" cx="54.6" cy="62.8" r="1.8"/>
		<circle class="st1" cx="59" cy="62.8" r="1.8"/>
		<circle class="st1" cx="63.3" cy="62.8" r="1.8"/>
		<circle class="st1" cx="67.6" cy="62.8" r="1.8"/>
		<circle class="st1" cx="72" cy="62.8" r="1.8"/>
		<circle class="st1" cx="76.3" cy="62.8" r="1.8"/>
		<circle class="st1" cx="80.6" cy="62.8" r="1.8"/>
		<circle class="st1" cx="84.9" cy="62.8" r="1.8"/>
		<circle class="st1" cx="89.3" cy="62.8" r="1.8"/>
		<circle class="st1" cx="93.6" cy="62.8" r="1.8"/>
		<circle class="st1" cx="97.9" cy="62.8" r="1.8"/>
		<circle class="st1" cx="102.3" cy="62.8" r="1.8"/>
		<circle class="st1" cx="106.6" cy="62.8" r="1.8"/>
		<circle class="st1" cx="110.9" cy="62.8" r="1.8"/>
		<text transform="matrix(1 0 0 1 13.553 63.9197)" class="st1 st2 st3">00</text>
		<text transform="matrix(1 0 0 1 114.0129 63.9197)" class="st1 st2 st3">00</text>
	</g>
	<g>
		<circle class="st1" cx="20.1" cy="56.9" r="1.8"/>
		<circle class="st1" cx="24.4" cy="56.9" r="1.8"/>
		<circle class="st1" cx="28.7" cy="56.9" r="1.8"/>
		<circle class="st1" cx="33" cy="56.9" r="1.8"/>
		<circle class="st1" cx="37.3" cy="56.9" r="1.8"/>
		<circle class="st1" cx="41.7" cy="56.9" r="1.8"/>
		<circle class="st1" cx="46" cy="56.9" r="1.8"/>
		<circle class="st1" cx="50.3" cy="56.9" r="1.8"/>
		<circle class="st1" cx="54.6" cy="56.9" r="1.8"/>
		<circle class="st1" cx="59" cy="56.9" r="1.8"/>
		<circle class="st1" cx="63.3" cy="56.9" r="1.8"/>
		<circle class="st1" cx="67.6" cy="56.9" r="1.8"/>
		<circle class="st1" cx="72" cy="56.9" r="1.8"/>
		<circle class="st1" cx="76.3" cy="56.9" r="1.8"/>
		<circle class="st1" cx="80.6" cy="56.9" r="1.8"/>
		<circle class="st1" cx="84.9" cy="56.9" r="1.8"/>
		<circle class="st1" cx="89.3" cy="56.9" r="1.8"/>
		<circle class="st1" cx="93.6" cy="56.9" r="1.8"/>
		<circle class="st1" cx="97.9" cy="56.9" r="1.8"/>
		<circle class="st1" cx="102.3" cy="56.9" r="1.8"/>
		<circle class="st1" cx="106.6" cy="56.9" r="1.8"/>
		<circle class="st1" cx="110.9" cy="56.9" r="1.8"/>
		<text transform="matrix(1 0 0 1 13.553 57.9897)" class="st1 st2 st3">00</text>
		<text transform="matrix(1 0 0 1 114.0129 57.9897)" class="st1 st2 st3">00</text>
	</g>
	<g>
		<circle class="st1" cx="20.1" cy="51" r="1.8"/>
		<circle class="st1" cx="24.4" cy="51" r="1.8"/>
		<circle class="st1" cx="28.7" cy="51" r="1.8"/>
		<circle class="st1" cx="33" cy="51" r="1.8"/>
		<circle class="st1" cx="37.3" cy="51" r="1.8"/>
		<circle class="st1" cx="41.7" cy="51" r="1.8"/>
		<circle class="st1" cx="46" cy="51" r="1.8"/>
		<circle class="st1" cx="50.3" cy="51" r="1.8"/>
		<circle class="st1" cx="54.6" cy="51" r="1.8"/>
		<circle class="st1" cx="59" cy="51" r="1.8"/>
		<circle class="st1" cx="63.3" cy="51" r="1.8"/>
		<circle class="st1" cx="67.6" cy="51" r="1.8"/>
		<circle class="st1" cx="72" cy="51" r="1.8"/>
		<circle class="st1" cx="76.3" cy="51" r="1.8"/>
		<circle class="st1" cx="80.6" cy="51" r="1.8"/>
		<circle class="st1" cx="84.9" cy="51" r="1.8"/>
		<circle class="st1" cx="89.3" cy="51" r="1.8"/>
		<circle class="st1" cx="93.6" cy="51" r="1.8"/>
		<circle class="st1" cx="97.9" cy="51" r="1.8"/>
		<circle class="st1" cx="102.3" cy="51" r="1.8"/>
		<circle class="st1" cx="106.6" cy="51" r="1.8"/>
		<circle class="st1" cx="110.9" cy="51" r="1.8"/>
		<text transform="matrix(1 0 0 1 13.553 52.0598)" class="st1 st2 st3">00</text>
		<text transform="matrix(1 0 0 1 114.0129 52.0598)" class="st1 st2 st3">00</text>
	</g>
	<g>
		<circle class="st1" cx="20.1" cy="45" r="1.8"/>
		<circle class="st1" cx="24.4" cy="45" r="1.8"/>
		<circle class="st1" cx="28.7" cy="45" r="1.8"/>
		<circle class="st1" cx="33" cy="45" r="1.8"/>
		<circle class="st1" cx="37.3" cy="45" r="1.8"/>
		<circle class="st1" cx="41.7" cy="45" r="1.8"/>
		<circle class="st1" cx="46" cy="45" r="1.8"/>
		<circle class="st1" cx="50.3" cy="45" r="1.8"/>
		<circle class="st1" cx="54.6" cy="45" r="1.8"/>
		<circle class="st1" cx="59" cy="45" r="1.8"/>
		<circle class="st1" cx="63.3" cy="45" r="1.8"/>
		<circle class="st1" cx="67.6" cy="45" r="1.8"/>
		<circle class="st1" cx="72" cy="45" r="1.8"/>
		<circle class="st1" cx="76.3" cy="45" r="1.8"/>
		<circle class="st1" cx="80.6" cy="45" r="1.8"/>
		<circle class="st1" cx="84.9" cy="45" r="1.8"/>
		<circle class="st1" cx="89.3" cy="45" r="1.8"/>
		<circle class="st1" cx="93.6" cy="45" r="1.8"/>
		<circle class="st1" cx="97.9" cy="45" r="1.8"/>
		<circle class="st1" cx="102.3" cy="45" r="1.8"/>
		<circle class="st1" cx="106.6" cy="45" r="1.8"/>
		<circle class="st1" cx="110.9" cy="45" r="1.8"/>
		<text transform="matrix(1 0 0 1 13.553 46.1299)" class="st1 st2 st3">00</text>
		<text transform="matrix(1 0 0 1 114.0129 46.1299)" class="st1 st2 st3">00</text>
	</g>
	<g>
		<circle class="st1" cx="20.1" cy="39.1" r="1.8"/>
		<circle class="st1" cx="24.4" cy="39.1" r="1.8"/>
		<circle class="st1" cx="28.7" cy="39.1" r="1.8"/>
		<circle class="st1" cx="33" cy="39.1" r="1.8"/>
		<circle class="st1" cx="37.3" cy="39.1" r="1.8"/>
		<circle class="st1" cx="41.7" cy="39.1" r="1.8"/>
		<circle class="st1" cx="46" cy="39.1" r="1.8"/>
		<circle class="st1" cx="50.3" cy="39.1" r="1.8"/>
		<circle class="st1" cx="54.6" cy="39.1" r="1.8"/>
		<circle class="st1" cx="59" cy="39.1" r="1.8"/>
		<circle class="st1" cx="63.3" cy="39.1" r="1.8"/>
		<circle class="st1" cx="67.6" cy="39.1" r="1.8"/>
		<circle class="st1" cx="72" cy="39.1" r="1.8"/>
		<circle class="st1" cx="76.3" cy="39.1" r="1.8"/>
		<circle class="st1" cx="80.6" cy="39.1" r="1.8"/>
		<circle class="st1" cx="84.9" cy="39.1" r="1.8"/>
		<circle class="st1" cx="89.3" cy="39.1" r="1.8"/>
		<circle class="st1" cx="93.6" cy="39.1" r="1.8"/>
		<circle class="st1" cx="97.9" cy="39.1" r="1.8"/>
		<circle class="st1" cx="102.3" cy="39.1" r="1.8"/>
		<circle class="st1" cx="106.6" cy="39.1" r="1.8"/>
		<circle class="st1" cx="110.9" cy="39.1" r="1.8"/>
		<text transform="matrix(1 0 0 1 13.553 40.2)" class="st1 st2 st3">00</text>
		<text transform="matrix(1 0 0 1 114.0129 40.2)" class="st1 st2 st3">00</text>
	</g>
	<g>
		<circle class="st1" cx="11.4" cy="33.2" r="1.8"/>
		<circle class="st1" cx="15.7" cy="33.2" r="1.8"/>
		<circle class="st1" cx="20" cy="33.2" r="1.8"/>
		<circle class="st1" cx="24.4" cy="33.2" r="1.8"/>
		<circle class="st1" cx="28.7" cy="33.2" r="1.8"/>
		<circle class="st1" cx="33" cy="33.2" r="1.8"/>
		<circle class="st1" cx="37.3" cy="33.2" r="1.8"/>
		<circle class="st1" cx="41.7" cy="33.2" r="1.8"/>
		<circle class="st1" cx="46" cy="33.2" r="1.8"/>
		<circle class="st1" cx="50.3" cy="33.2" r="1.8"/>
		<circle class="st1" cx="54.6" cy="33.2" r="1.8"/>
		<circle class="st1" cx="59" cy="33.2" r="1.8"/>
		<circle class="st1" cx="63.3" cy="33.2" r="1.9"/>
		<circle class="st1" cx="67.6" cy="33.2" r="1.8"/>
		<circle class="st1" cx="72" cy="33.2" r="1.8"/>
		<circle class="st1" cx="76.3" cy="33.2" r="1.8"/>
		<circle class="st1" cx="80.6" cy="33.2" r="1.8"/>
		<circle class="st1" cx="84.9" cy="33.2" r="1.8"/>
		<circle class="st1" cx="89.3" cy="33.2" r="1.8"/>
		<circle class="st1" cx="93.6" cy="33.2" r="1.8"/>
		<circle class="st1" cx="97.9" cy="33.2" r="1.8"/>
		<circle class="st1" cx="102.3" cy="33.2" r="1.8"/>
		<circle class="st1" cx="106.6" cy="33.2" r="1.8"/>
		<circle class="st1" cx="110.9" cy="33.2" r="1.8"/>
		<circle class="st1" cx="115.3" cy="33.2" r="1.8"/>
		<circle class="st1" cx="119.6" cy="33.2" r="1.8"/>
		<text transform="matrix(1 0 0 1 4.8829 34.27)" class="st1 st2 st3">00</text>
		<text transform="matrix(1 0 0 1 122.683 34.27)" class="st1 st2 st3">00</text>
	</g>
	<g>
		<circle class="st1" cx="11.4" cy="27.2" r="1.9"/>
		<circle class="st1" cx="15.7" cy="27.2" r="1.9"/>
		<circle class="st1" cx="20" cy="27.2" r="1.9"/>
		<circle class="st1" cx="24.4" cy="27.2" r="1.9"/>
		<circle class="st1" cx="28.7" cy="27.2" r="1.9"/>
		<circle class="st1" cx="33" cy="27.2" r="1.8"/>
		<circle class="st1" cx="37.3" cy="27.2" r="1.8"/>
		<circle class="st1" cx="41.7" cy="27.2" r="1.8"/>
		<circle class="st1" cx="46" cy="27.2" r="1.8"/>
		<circle class="st1" cx="50.3" cy="27.2" r="1.8"/>
		<circle class="st1" cx="54.6" cy="27.2" r="1.8"/>
		<circle class="st1" cx="59" cy="27.2" r="1.8"/>
		<circle class="st1" cx="63.3" cy="27.2" r="1.9"/>
		<circle class="st1" cx="67.6" cy="27.2" r="1.8"/>
		<circle class="st1" cx="72" cy="27.2" r="1.8"/>
		<circle class="st1" cx="76.3" cy="27.2" r="1.8"/>
		<circle class="st1" cx="80.6" cy="27.2" r="1.8"/>
		<circle class="st1" cx="84.9" cy="27.2" r="1.8"/>
		<circle class="st1" cx="89.3" cy="27.2" r="1.8"/>
		<circle class="st1" cx="93.6" cy="27.2" r="1.8"/>
		<circle class="st1" cx="97.9" cy="27.2" r="1.8"/>
		<circle class="st1" cx="102.3" cy="27.2" r="1.8"/>
		<circle class="st1" cx="106.6" cy="27.2" r="1.8"/>
		<circle class="st1" cx="110.9" cy="27.2" r="1.8"/>
		<circle class="st1" cx="115.3" cy="27.2" r="1.8"/>
		<circle class="st1" cx="119.6" cy="27.2" r="1.8"/>
		<text transform="matrix(1 0 0 1 4.8829 28.3401)" class="st1 st2 st3">00</text>
		<text transform="matrix(1 0 0 1 122.683 28.3401)" class="st1 st2 st3">00</text>
	</g>
	<g>
		<circle class="st1" cx="11.4" cy="21.3" r="1.9"/>
		<circle class="st1" cx="15.7" cy="21.3" r="1.9"/>
		<circle class="st1" cx="20" cy="21.3" r="1.9"/>
		<circle class="st1" cx="24.4" cy="21.3" r="1.9"/>
		<circle class="st1" cx="28.7" cy="21.3" r="1.9"/>
		<circle class="st1" cx="33" cy="21.3" r="1.8"/>
		<circle class="st1" cx="37.3" cy="21.3" r="1.8"/>
		<circle class="st1" cx="41.7" cy="21.3" r="1.8"/>
		<circle class="st1" cx="46" cy="21.3" r="1.8"/>
		<circle class="st1" cx="50.3" cy="21.3" r="1.8"/>
		<circle class="st1" cx="54.6" cy="21.3" r="1.8"/>
		<circle class="st1" cx="59" cy="21.3" r="1.8"/>
		<circle class="st1" cx="63.3" cy="21.3" r="1.9"/>
		<circle class="st1" cx="67.6" cy="21.3" r="1.8"/>
		<circle class="st1" cx="72" cy="21.3" r="1.8"/>
		<circle class="st1" cx="76.3" cy="21.3" r="1.8"/>
		<circle class="st1" cx="80.6" cy="21.3" r="1.8"/>
		<circle class="st1" cx="84.9" cy="21.3" r="1.8"/>
		<circle class="st1" cx="89.3" cy="21.3" r="1.8"/>
		<circle class="st1" cx="93.6" cy="21.3" r="1.8"/>
		<circle class="st1" cx="97.9" cy="21.3" r="1.8"/>
		<circle class="st1" cx="102.3" cy="21.3" r="1.8"/>
		<circle class="st1" cx="106.6" cy="21.3" r="1.8"/>
		<circle class="st1" cx="110.9" cy="21.3" r="1.8"/>
		<circle class="st1" cx="115.3" cy="21.3" r="1.8"/>
		<circle class="st1" cx="119.6" cy="21.3" r="1.8"/>
		<text transform="matrix(1 0 0 1 4.8829 22.4102)" class="st1 st2 st3">00</text>
		<text transform="matrix(1 0 0 1 122.683 22.4102)" class="st1 st2 st3">00</text>
	</g>
	<g>
		<circle class="st1" cx="11.4" cy="15.4" r="1.9"/>
		<circle class="st1" cx="15.7" cy="15.4" r="1.9"/>
		<circle class="st1" cx="20" cy="15.4" r="1.9"/>
		<circle class="st1" cx="24.4" cy="15.4" r="1.9"/>
		<circle class="st1" cx="28.7" cy="15.4" r="1.9"/>
		<circle class="st1" cx="33" cy="15.4" r="1.8"/>
		<circle class="st1" cx="37.3" cy="15.4" r="1.8"/>
		<circle class="st1" cx="41.7" cy="15.4" r="1.8"/>
		<circle class="st1" cx="46" cy="15.4" r="1.8"/>
		<circle class="st1" cx="50.3" cy="15.4" r="1.8"/>
		<circle class="st1" cx="54.6" cy="15.4" r="1.8"/>
		<circle class="st1" cx="59" cy="15.4" r="1.8"/>
		<circle class="st1" cx="63.3" cy="15.4" r="1.9"/>
		<circle class="st1" cx="67.6" cy="15.4" r="1.8"/>
		<circle class="st1" cx="72" cy="15.4" r="1.8"/>
		<circle class="st1" cx="76.3" cy="15.4" r="1.8"/>
		<circle class="st1" cx="80.6" cy="15.4" r="1.8"/>
		<circle class="st1" cx="84.9" cy="15.4" r="1.8"/>
		<circle class="st1" cx="89.3" cy="15.4" r="1.8"/>
		<circle class="st1" cx="93.6" cy="15.4" r="1.8"/>
		<circle class="st1" cx="97.9" cy="15.4" r="1.8"/>
		<circle class="st1" cx="102.3" cy="15.4" r="1.8"/>
		<circle class="st1" cx="106.6" cy="15.4" r="1.8"/>
		<circle class="st1" cx="110.9" cy="15.4" r="1.8"/>
		<circle class="st1" cx="115.3" cy="15.4" r="1.8"/>
		<circle class="st1" cx="119.6" cy="15.4" r="1.8"/>
		<text transform="matrix(1 0 0 1 4.8829 16.4802)" class="st1 st2 st3">00</text>
		<text transform="matrix(1 0 0 1 122.683 16.4802)" class="st1 st2 st3">00</text>
	</g>
	<g>
		<circle class="st1" cx="11.4" cy="9.4" r="1.9"/>
		<circle class="st1" cx="15.7" cy="9.4" r="1.9"/>
		<circle class="st1" cx="20" cy="9.4" r="1.9"/>
		<circle class="st1" cx="24.4" cy="9.4" r="1.9"/>
		<circle class="st1" cx="28.7" cy="9.4" r="1.9"/>
		<circle class="st1" cx="33" cy="9.4" r="1.8"/>
		<circle class="st1" cx="37.3" cy="9.4" r="1.8"/>
		<circle class="st1" cx="41.7" cy="9.4" r="1.8"/>
		<circle class="st1" cx="46" cy="9.4" r="1.8"/>
		<circle class="st1" cx="50.3" cy="9.4" r="1.8"/>
		<circle class="st1" cx="54.6" cy="9.4" r="1.8"/>
		<circle class="st1" cx="59" cy="9.4" r="1.8"/>
		<circle class="st1" cx="63.3" cy="9.4" r="1.9"/>
		<circle class="st1" cx="67.6" cy="9.4" r="1.8"/>
		<circle class="st1" cx="72" cy="9.4" r="1.8"/>
		<circle class="st1" cx="76.3" cy="9.4" r="1.8"/>
		<circle class="st1" cx="80.6" cy="9.4" r="1.8"/>
		<circle class="st1" cx="84.9" cy="9.4" r="1.8"/>
		<circle class="st1" cx="89.3" cy="9.4" r="1.8"/>
		<circle class="st1" cx="93.6" cy="9.4" r="1.8"/>
		<circle class="st1" cx="97.9" cy="9.4" r="1.8"/>
		<circle class="st1" cx="102.3" cy="9.4" r="1.8"/>
		<circle class="st1" cx="106.6" cy="9.4" r="1.8"/>
		<circle class="st1" cx="110.9" cy="9.4" r="1.8"/>
		<circle class="st1" cx="115.3" cy="9.4" r="1.8"/>
		<circle class="st1" cx="119.6" cy="9.4" r="1.8"/>
		<text transform="matrix(1 0 0 1 4.8829 10.5503)" class="st1 st2 st3">00</text>
		<text transform="matrix(1 0 0 1 122.683 10.5503)" class="st1 st2 st3">00</text>
	</g>
</g>
</svg>
