<?xml version="1.0" encoding="utf-8"?>
<!-- Generator: Adobe Illustrator 23.0.1, SVG Export Plug-In . SVG Version: 6.00 Build 0)  -->
<svg version="1.1" id="Layer_1" xmlns="http://www.w3.org/2000/svg" xmlns:xlink="http://www.w3.org/1999/xlink" x="0px" y="0px"
	 width="130px" height="167px" viewBox="0 0 130 167" enable-background="new 0 0 130 167" xml:space="preserve">
<g onclick="this.parentNode.sekt.push(this);this.a_name=&quot;E 8 (низ)&quot;;">
	
		<rect x="-18.19" y="18.76" onclick="this.parentNode.a_fon=this;" transform="matrix(-1.836970e-16 1 -1 -1.836970e-16 148.5 18.5)" fill="#F1F3F4" stroke="#BCC8CE" stroke-width="0.4" stroke-linecap="round" stroke-miterlimit="10" width="166.39" height="129.48"/>
	<g onclick="this.parentNode.a_row=this;">
		
			<line onclick="this.a_par={beg_namb:1,quant:24};" fill="none" stroke="#D3DBDF" stroke-width="0.4" stroke-miterlimit="10" x1="13.39" y1="9.37" x2="116.61" y2="9.37"/>
		
			<line onclick="this.a_par={beg_namb:1,quant:24};" fill="none" stroke="#D3DBDF" stroke-width="0.4" stroke-miterlimit="10" x1="13.39" y1="15.3" x2="116.61" y2="15.3"/>
		
			<line onclick="this.a_par={beg_namb:1,quant:24};" fill="none" stroke="#D3DBDF" stroke-width="0.4" stroke-miterlimit="10" x1="13.39" y1="21.23" x2="116.61" y2="21.23"/>
		
			<line onclick="this.a_par={beg_namb:1,quant:24};" fill="none" stroke="#D3DBDF" stroke-width="0.4" stroke-miterlimit="10" x1="13.39" y1="27.16" x2="116.61" y2="27.16"/>
		
			<line onclick="this.a_par={beg_namb:1,quant:24};" fill="none" stroke="#D3DBDF" stroke-width="0.4" stroke-miterlimit="10" x1="13.39" y1="33.09" x2="116.61" y2="33.09"/>
		
			<line onclick="this.a_par={beg_namb:1,quant:24};" fill="none" stroke="#D3DBDF" stroke-width="0.4" stroke-miterlimit="10" x1="13.39" y1="39.02" x2="116.61" y2="39.02"/>
		
			<line onclick="this.a_par={beg_namb:1,quant:24};" fill="none" stroke="#D3DBDF" stroke-width="0.4" stroke-miterlimit="10" x1="13.39" y1="44.95" x2="116.61" y2="44.95"/>
		
			<line onclick="this.a_par={beg_namb:1,quant:24};" fill="none" stroke="#D3DBDF" stroke-width="0.4" stroke-miterlimit="10" x1="13.39" y1="50.88" x2="116.61" y2="50.88"/>
		
			<line onclick="this.a_par={beg_namb:1,quant:24};" fill="none" stroke="#D3DBDF" stroke-width="0.4" stroke-miterlimit="10" x1="13.39" y1="56.81" x2="116.61" y2="56.81"/>
		
			<line onclick="this.a_par={beg_namb:1,quant:24};" fill="none" stroke="#D3DBDF" stroke-width="0.4" stroke-miterlimit="10" x1="13.39" y1="62.74" x2="116.61" y2="62.74"/>
		
			<line onclick="this.a_par={beg_namb:1,quant:24};" fill="none" stroke="#D3DBDF" stroke-width="0.4" stroke-miterlimit="10" x1="13.39" y1="68.68" x2="116.61" y2="68.68"/>
		
			<line onclick="this.a_par={beg_namb:1,quant:24};" fill="none" stroke="#D3DBDF" stroke-width="0.4" stroke-miterlimit="10" x1="13.39" y1="74.61" x2="116.61" y2="74.61"/>
		
			<line onclick="this.a_par={beg_namb:1,quant:24};" fill="none" stroke="#D3DBDF" stroke-width="0.4" stroke-miterlimit="10" x1="13.39" y1="80.54" x2="116.61" y2="80.54"/>
		
			<line onclick="this.a_par={beg_namb:1,quant:24};" fill="none" stroke="#D3DBDF" stroke-width="0.4" stroke-miterlimit="10" x1="13.39" y1="86.47" x2="116.61" y2="86.47"/>
		
			<line onclick="this.a_par={beg_namb:1,quant:24};" fill="none" stroke="#D3DBDF" stroke-width="0.4" stroke-miterlimit="10" x1="13.39" y1="92.4" x2="116.61" y2="92.4"/>
		
			<line onclick="this.a_par={beg_namb:1,quant:24};" fill="none" stroke="#D3DBDF" stroke-width="0.4" stroke-miterlimit="10" x1="13.39" y1="98.33" x2="116.61" y2="98.33"/>
		
			<line onclick="this.a_par={beg_namb:1,quant:24};" fill="none" stroke="#D3DBDF" stroke-width="0.4" stroke-miterlimit="10" x1="13.39" y1="104.26" x2="116.61" y2="104.26"/>
		
			<line onclick="this.a_par={beg_namb:1,quant:24};" fill="none" stroke="#D3DBDF" stroke-width="0.4" stroke-miterlimit="10" x1="13.39" y1="110.19" x2="116.61" y2="110.19"/>
		
			<line onclick="this.a_par={beg_namb:1,quant:20};" fill="none" stroke="#D3DBDF" stroke-width="0.4" stroke-miterlimit="10" x1="22.05" y1="116.12" x2="107.95" y2="116.12"/>
		
			<line onclick="this.a_par={beg_namb:1,quant:20};" fill="none" stroke="#D3DBDF" stroke-width="0.4" stroke-miterlimit="10" x1="22.05" y1="122.05" x2="107.95" y2="122.05"/>
		
			<line onclick="this.a_par={beg_namb:1,quant:20};" fill="none" stroke="#D3DBDF" stroke-width="0.4" stroke-miterlimit="10" x1="22.05" y1="127.98" x2="107.95" y2="127.98"/>
		
			<line onclick="this.a_par={beg_namb:1,quant:20};" fill="none" stroke="#D3DBDF" stroke-width="0.4" stroke-miterlimit="10" x1="22.05" y1="133.91" x2="107.95" y2="133.91"/>
		
			<line onclick="this.a_par={beg_namb:1,quant:20};" fill="none" stroke="#D3DBDF" stroke-width="0.4" stroke-miterlimit="10" x1="22.05" y1="139.85" x2="107.95" y2="139.85"/>
		
			<line onclick="this.a_par={beg_namb:1,quant:24};" fill="none" stroke="#D3DBDF" stroke-width="0.4" stroke-miterlimit="10" x1="13.39" y1="145.78" x2="116.61" y2="145.78"/>
		
			<line onclick="this.a_par={beg_namb:1,quant:24};" fill="none" stroke="#D3DBDF" stroke-width="0.4" stroke-miterlimit="10" x1="13.39" y1="151.71" x2="116.61" y2="151.71"/>
		
			<line onclick="this.a_par={beg_namb:1,quant:24};" fill="none" stroke="#D3DBDF" stroke-width="0.4" stroke-miterlimit="10" x1="13.39" y1="157.64" x2="116.61" y2="157.64"/>
	</g>
	<g>
		<g>
			<circle fill="#AEBDC4" cx="23.9" cy="139.85" r="1.85"/>
			<circle fill="#AEBDC4" cx="28.22" cy="139.85" r="1.85"/>
			<circle fill="#AEBDC4" cx="32.54" cy="139.85" r="1.85"/>
			<circle fill="#AEBDC4" cx="36.86" cy="139.85" r="1.85"/>
			<circle fill="#AEBDC4" cx="41.18" cy="139.85" r="1.85"/>
			<circle fill="#AEBDC4" cx="45.5" cy="139.85" r="1.85"/>
			<circle fill="#AEBDC4" cx="49.82" cy="139.85" r="1.85"/>
			<circle fill="#AEBDC4" cx="54.14" cy="139.85" r="1.85"/>
			<circle fill="#AEBDC4" cx="58.47" cy="139.85" r="1.85"/>
			<circle fill="#AEBDC4" cx="62.8" cy="139.85" r="1.85"/>
			<circle fill="#AEBDC4" cx="67.13" cy="139.85" r="1.85"/>
			<circle fill="#AEBDC4" cx="71.46" cy="139.85" r="1.85"/>
			<circle fill="#AEBDC4" cx="75.79" cy="139.85" r="1.85"/>
			<circle fill="#AEBDC4" cx="80.12" cy="139.85" r="1.85"/>
			<circle fill="#AEBDC4" cx="84.45" cy="139.85" r="1.85"/>
			<circle fill="#AEBDC4" cx="88.78" cy="139.85" r="1.85"/>
			<circle fill="#AEBDC4" cx="93.11" cy="139.85" r="1.85"/>
			<circle fill="#AEBDC4" cx="97.44" cy="139.85" r="1.85"/>
			<circle fill="#AEBDC4" cx="101.77" cy="139.85" r="1.85"/>
			<circle fill="#AEBDC4" cx="106.1" cy="139.85" r="1.85"/>
		</g>
		<g>
			<circle fill="#AEBDC4" cx="23.9" cy="133.91" r="1.85"/>
			<circle fill="#AEBDC4" cx="28.22" cy="133.91" r="1.85"/>
			<circle fill="#AEBDC4" cx="32.54" cy="133.91" r="1.85"/>
			<circle fill="#AEBDC4" cx="36.86" cy="133.91" r="1.85"/>
			<circle fill="#AEBDC4" cx="41.18" cy="133.91" r="1.85"/>
			<circle fill="#AEBDC4" cx="45.5" cy="133.91" r="1.85"/>
			<circle fill="#AEBDC4" cx="49.82" cy="133.91" r="1.85"/>
			<circle fill="#AEBDC4" cx="54.14" cy="133.91" r="1.85"/>
			<circle fill="#AEBDC4" cx="58.47" cy="133.91" r="1.85"/>
			<circle fill="#AEBDC4" cx="62.8" cy="133.91" r="1.85"/>
			<circle fill="#AEBDC4" cx="67.13" cy="133.91" r="1.85"/>
			<circle fill="#AEBDC4" cx="71.46" cy="133.91" r="1.85"/>
			<circle fill="#AEBDC4" cx="75.79" cy="133.91" r="1.85"/>
			<circle fill="#AEBDC4" cx="80.12" cy="133.91" r="1.85"/>
			<circle fill="#AEBDC4" cx="84.45" cy="133.91" r="1.85"/>
			<circle fill="#AEBDC4" cx="88.78" cy="133.91" r="1.85"/>
			<circle fill="#AEBDC4" cx="93.11" cy="133.91" r="1.85"/>
			<circle fill="#AEBDC4" cx="97.44" cy="133.91" r="1.85"/>
			<circle fill="#AEBDC4" cx="101.77" cy="133.91" r="1.85"/>
			<circle fill="#AEBDC4" cx="106.1" cy="133.91" r="1.85"/>
		</g>
		<g>
			<circle fill="#AEBDC4" cx="23.9" cy="127.98" r="1.85"/>
			<circle fill="#AEBDC4" cx="28.22" cy="127.98" r="1.85"/>
			<circle fill="#AEBDC4" cx="32.54" cy="127.98" r="1.85"/>
			<circle fill="#AEBDC4" cx="36.86" cy="127.98" r="1.85"/>
			<circle fill="#AEBDC4" cx="41.18" cy="127.98" r="1.85"/>
			<circle fill="#AEBDC4" cx="45.5" cy="127.98" r="1.85"/>
			<circle fill="#AEBDC4" cx="49.82" cy="127.98" r="1.85"/>
			<circle fill="#AEBDC4" cx="54.14" cy="127.98" r="1.85"/>
			<circle fill="#AEBDC4" cx="58.47" cy="127.98" r="1.85"/>
			<circle fill="#AEBDC4" cx="62.8" cy="127.98" r="1.85"/>
			<circle fill="#AEBDC4" cx="67.13" cy="127.98" r="1.85"/>
			<circle fill="#AEBDC4" cx="71.46" cy="127.98" r="1.85"/>
			<circle fill="#AEBDC4" cx="75.79" cy="127.98" r="1.85"/>
			<circle fill="#AEBDC4" cx="80.12" cy="127.98" r="1.85"/>
			<circle fill="#AEBDC4" cx="84.45" cy="127.98" r="1.85"/>
			<circle fill="#AEBDC4" cx="88.78" cy="127.98" r="1.85"/>
			<circle fill="#AEBDC4" cx="93.11" cy="127.98" r="1.85"/>
			<circle fill="#AEBDC4" cx="97.44" cy="127.98" r="1.85"/>
			<circle fill="#AEBDC4" cx="101.77" cy="127.98" r="1.85"/>
			<circle fill="#AEBDC4" cx="106.1" cy="127.98" r="1.85"/>
		</g>
		<g>
			<circle fill="#AEBDC4" cx="23.9" cy="122.05" r="1.85"/>
			<circle fill="#AEBDC4" cx="28.22" cy="122.05" r="1.85"/>
			<circle fill="#AEBDC4" cx="32.54" cy="122.05" r="1.85"/>
			<circle fill="#AEBDC4" cx="36.86" cy="122.05" r="1.85"/>
			<circle fill="#AEBDC4" cx="41.18" cy="122.05" r="1.85"/>
			<circle fill="#AEBDC4" cx="45.5" cy="122.05" r="1.85"/>
			<circle fill="#AEBDC4" cx="49.82" cy="122.05" r="1.85"/>
			<circle fill="#AEBDC4" cx="54.14" cy="122.05" r="1.85"/>
			<circle fill="#AEBDC4" cx="58.47" cy="122.05" r="1.85"/>
			<circle fill="#AEBDC4" cx="62.8" cy="122.05" r="1.85"/>
			<circle fill="#AEBDC4" cx="67.13" cy="122.05" r="1.85"/>
			<circle fill="#AEBDC4" cx="71.46" cy="122.05" r="1.85"/>
			<circle fill="#AEBDC4" cx="75.79" cy="122.05" r="1.85"/>
			<circle fill="#AEBDC4" cx="80.12" cy="122.05" r="1.85"/>
			<circle fill="#AEBDC4" cx="84.45" cy="122.05" r="1.85"/>
			<circle fill="#AEBDC4" cx="88.78" cy="122.05" r="1.85"/>
			<circle fill="#AEBDC4" cx="93.11" cy="122.05" r="1.85"/>
			<circle fill="#AEBDC4" cx="97.44" cy="122.05" r="1.85"/>
			<circle fill="#AEBDC4" cx="101.77" cy="122.05" r="1.85"/>
			<circle fill="#AEBDC4" cx="106.1" cy="122.05" r="1.85"/>
		</g>
		<g>
			<circle fill="#AEBDC4" cx="23.9" cy="116.12" r="1.85"/>
			<circle fill="#AEBDC4" cx="28.22" cy="116.12" r="1.85"/>
			<circle fill="#AEBDC4" cx="32.54" cy="116.12" r="1.85"/>
			<circle fill="#AEBDC4" cx="36.86" cy="116.12" r="1.85"/>
			<circle fill="#AEBDC4" cx="41.18" cy="116.12" r="1.85"/>
			<circle fill="#AEBDC4" cx="45.5" cy="116.12" r="1.85"/>
			<circle fill="#AEBDC4" cx="49.82" cy="116.12" r="1.85"/>
			<circle fill="#AEBDC4" cx="54.14" cy="116.12" r="1.85"/>
			<circle fill="#AEBDC4" cx="58.47" cy="116.12" r="1.85"/>
			<circle fill="#AEBDC4" cx="62.8" cy="116.12" r="1.85"/>
			<circle fill="#AEBDC4" cx="67.13" cy="116.12" r="1.85"/>
			<circle fill="#AEBDC4" cx="71.46" cy="116.12" r="1.85"/>
			<circle fill="#AEBDC4" cx="75.79" cy="116.12" r="1.85"/>
			<circle fill="#AEBDC4" cx="80.12" cy="116.12" r="1.85"/>
			<circle fill="#AEBDC4" cx="84.45" cy="116.12" r="1.85"/>
			<circle fill="#AEBDC4" cx="88.78" cy="116.12" r="1.85"/>
			<circle fill="#AEBDC4" cx="93.11" cy="116.12" r="1.85"/>
			<circle fill="#AEBDC4" cx="97.44" cy="116.12" r="1.85"/>
			<circle fill="#AEBDC4" cx="101.77" cy="116.12" r="1.85"/>
			<circle fill="#AEBDC4" cx="106.1" cy="116.12" r="1.85"/>
		</g>
		<g>
			<circle fill="#AEBDC4" cx="15.24" cy="157.64" r="1.85"/>
			<circle fill="#AEBDC4" cx="19.56" cy="157.64" r="1.85"/>
			<circle fill="#AEBDC4" cx="23.88" cy="157.64" r="1.85"/>
			<circle fill="#AEBDC4" cx="28.2" cy="157.64" r="1.85"/>
			<circle fill="#AEBDC4" cx="32.52" cy="157.64" r="1.85"/>
			<circle fill="#AEBDC4" cx="36.84" cy="157.64" r="1.85"/>
			<circle fill="#AEBDC4" cx="41.16" cy="157.64" r="1.85"/>
			<circle fill="#AEBDC4" cx="45.48" cy="157.64" r="1.85"/>
			<circle fill="#AEBDC4" cx="49.8" cy="157.64" r="1.85"/>
			<circle fill="#AEBDC4" cx="54.14" cy="157.64" r="1.85"/>
			<circle fill="#AEBDC4" cx="58.47" cy="157.64" r="1.85"/>
			<circle fill="#AEBDC4" cx="62.8" cy="157.64" r="1.85"/>
			<circle fill="#AEBDC4" cx="67.13" cy="157.64" r="1.85"/>
			<circle fill="#AEBDC4" cx="71.46" cy="157.64" r="1.85"/>
			<circle fill="#AEBDC4" cx="75.79" cy="157.64" r="1.85"/>
			<circle fill="#AEBDC4" cx="80.12" cy="157.64" r="1.85"/>
			<circle fill="#AEBDC4" cx="84.45" cy="157.64" r="1.85"/>
			<circle fill="#AEBDC4" cx="88.78" cy="157.64" r="1.85"/>
			<circle fill="#AEBDC4" cx="93.11" cy="157.64" r="1.85"/>
			<circle fill="#AEBDC4" cx="97.44" cy="157.64" r="1.85"/>
			<circle fill="#AEBDC4" cx="101.77" cy="157.64" r="1.85"/>
			<circle fill="#AEBDC4" cx="106.1" cy="157.64" r="1.85"/>
			<circle fill="#AEBDC4" cx="110.43" cy="157.64" r="1.85"/>
			<circle fill="#AEBDC4" cx="114.76" cy="157.64" r="1.85"/>
		</g>
		<g>
			<circle fill="#AEBDC4" cx="15.24" cy="151.71" r="1.85"/>
			<circle fill="#AEBDC4" cx="19.56" cy="151.71" r="1.85"/>
			<circle fill="#AEBDC4" cx="23.88" cy="151.71" r="1.85"/>
			<circle fill="#AEBDC4" cx="28.2" cy="151.71" r="1.85"/>
			<circle fill="#AEBDC4" cx="32.52" cy="151.71" r="1.85"/>
			<circle fill="#AEBDC4" cx="36.84" cy="151.71" r="1.85"/>
			<circle fill="#AEBDC4" cx="41.16" cy="151.71" r="1.85"/>
			<circle fill="#AEBDC4" cx="45.48" cy="151.71" r="1.85"/>
			<circle fill="#AEBDC4" cx="49.8" cy="151.71" r="1.85"/>
			<circle fill="#AEBDC4" cx="54.14" cy="151.71" r="1.85"/>
			<circle fill="#AEBDC4" cx="58.47" cy="151.71" r="1.85"/>
			<circle fill="#AEBDC4" cx="62.8" cy="151.71" r="1.85"/>
			<circle fill="#AEBDC4" cx="67.13" cy="151.71" r="1.85"/>
			<circle fill="#AEBDC4" cx="71.46" cy="151.71" r="1.85"/>
			<circle fill="#AEBDC4" cx="75.79" cy="151.71" r="1.85"/>
			<circle fill="#AEBDC4" cx="80.12" cy="151.71" r="1.85"/>
			<circle fill="#AEBDC4" cx="84.45" cy="151.71" r="1.85"/>
			<circle fill="#AEBDC4" cx="88.78" cy="151.71" r="1.85"/>
			<circle fill="#AEBDC4" cx="93.11" cy="151.71" r="1.85"/>
			<circle fill="#AEBDC4" cx="97.44" cy="151.71" r="1.85"/>
			<circle fill="#AEBDC4" cx="101.77" cy="151.71" r="1.85"/>
			<circle fill="#AEBDC4" cx="106.1" cy="151.71" r="1.85"/>
			<circle fill="#AEBDC4" cx="110.43" cy="151.71" r="1.85"/>
			<circle fill="#AEBDC4" cx="114.76" cy="151.71" r="1.85"/>
		</g>
		<g>
			<circle fill="#AEBDC4" cx="15.24" cy="145.78" r="1.85"/>
			<circle fill="#AEBDC4" cx="19.56" cy="145.78" r="1.85"/>
			<circle fill="#AEBDC4" cx="23.88" cy="145.78" r="1.85"/>
			<circle fill="#AEBDC4" cx="28.2" cy="145.78" r="1.85"/>
			<circle fill="#AEBDC4" cx="32.52" cy="145.78" r="1.85"/>
			<circle fill="#AEBDC4" cx="36.84" cy="145.78" r="1.85"/>
			<circle fill="#AEBDC4" cx="41.16" cy="145.78" r="1.85"/>
			<circle fill="#AEBDC4" cx="45.48" cy="145.78" r="1.85"/>
			<circle fill="#AEBDC4" cx="49.8" cy="145.78" r="1.85"/>
			<circle fill="#AEBDC4" cx="54.14" cy="145.78" r="1.85"/>
			<circle fill="#AEBDC4" cx="58.47" cy="145.78" r="1.85"/>
			<circle fill="#AEBDC4" cx="62.8" cy="145.78" r="1.85"/>
			<circle fill="#AEBDC4" cx="67.13" cy="145.78" r="1.85"/>
			<circle fill="#AEBDC4" cx="71.46" cy="145.78" r="1.85"/>
			<circle fill="#AEBDC4" cx="75.79" cy="145.78" r="1.85"/>
			<circle fill="#AEBDC4" cx="80.12" cy="145.78" r="1.85"/>
			<circle fill="#AEBDC4" cx="84.45" cy="145.78" r="1.85"/>
			<circle fill="#AEBDC4" cx="88.78" cy="145.78" r="1.85"/>
			<circle fill="#AEBDC4" cx="93.11" cy="145.78" r="1.85"/>
			<circle fill="#AEBDC4" cx="97.44" cy="145.78" r="1.85"/>
			<circle fill="#AEBDC4" cx="101.77" cy="145.78" r="1.85"/>
			<circle fill="#AEBDC4" cx="106.1" cy="145.78" r="1.85"/>
			<circle fill="#AEBDC4" cx="110.43" cy="145.78" r="1.85"/>
			<circle fill="#AEBDC4" cx="114.76" cy="145.78" r="1.85"/>
		</g>
		<g>
			<circle fill="#AEBDC4" cx="15.24" cy="110.19" r="1.85"/>
			<circle fill="#AEBDC4" cx="19.56" cy="110.19" r="1.85"/>
			<circle fill="#AEBDC4" cx="23.88" cy="110.19" r="1.85"/>
			<circle fill="#AEBDC4" cx="28.2" cy="110.19" r="1.85"/>
			<circle fill="#AEBDC4" cx="32.52" cy="110.19" r="1.85"/>
			<circle fill="#AEBDC4" cx="36.84" cy="110.19" r="1.85"/>
			<circle fill="#AEBDC4" cx="41.16" cy="110.19" r="1.85"/>
			<circle fill="#AEBDC4" cx="45.48" cy="110.19" r="1.85"/>
			<circle fill="#AEBDC4" cx="49.8" cy="110.19" r="1.85"/>
			<circle fill="#AEBDC4" cx="54.14" cy="110.19" r="1.85"/>
			<circle fill="#AEBDC4" cx="58.47" cy="110.19" r="1.85"/>
			<circle fill="#AEBDC4" cx="62.8" cy="110.19" r="1.85"/>
			<circle fill="#AEBDC4" cx="67.13" cy="110.19" r="1.85"/>
			<circle fill="#AEBDC4" cx="71.46" cy="110.19" r="1.85"/>
			<circle fill="#AEBDC4" cx="75.79" cy="110.19" r="1.85"/>
			<circle fill="#AEBDC4" cx="80.12" cy="110.19" r="1.85"/>
			<circle fill="#AEBDC4" cx="84.45" cy="110.19" r="1.85"/>
			<circle fill="#AEBDC4" cx="88.78" cy="110.19" r="1.85"/>
			<circle fill="#AEBDC4" cx="93.11" cy="110.19" r="1.85"/>
			<circle fill="#AEBDC4" cx="97.44" cy="110.19" r="1.85"/>
			<circle fill="#AEBDC4" cx="101.77" cy="110.19" r="1.85"/>
			<circle fill="#AEBDC4" cx="106.1" cy="110.19" r="1.85"/>
			<circle fill="#AEBDC4" cx="110.43" cy="110.19" r="1.85"/>
			<circle fill="#AEBDC4" cx="114.76" cy="110.19" r="1.85"/>
		</g>
		<g>
			<circle fill="#AEBDC4" cx="15.24" cy="104.26" r="1.85"/>
			<circle fill="#AEBDC4" cx="19.56" cy="104.26" r="1.85"/>
			<circle fill="#AEBDC4" cx="23.88" cy="104.26" r="1.85"/>
			<circle fill="#AEBDC4" cx="28.2" cy="104.26" r="1.85"/>
			<circle fill="#AEBDC4" cx="32.52" cy="104.26" r="1.85"/>
			<circle fill="#AEBDC4" cx="36.84" cy="104.26" r="1.85"/>
			<circle fill="#AEBDC4" cx="41.16" cy="104.26" r="1.85"/>
			<circle fill="#AEBDC4" cx="45.48" cy="104.26" r="1.85"/>
			<circle fill="#AEBDC4" cx="49.8" cy="104.26" r="1.85"/>
			<circle fill="#AEBDC4" cx="54.14" cy="104.26" r="1.85"/>
			<circle fill="#AEBDC4" cx="58.47" cy="104.26" r="1.85"/>
			<circle fill="#AEBDC4" cx="62.8" cy="104.26" r="1.85"/>
			<circle fill="#AEBDC4" cx="67.13" cy="104.26" r="1.85"/>
			<circle fill="#AEBDC4" cx="71.46" cy="104.26" r="1.85"/>
			<circle fill="#AEBDC4" cx="75.79" cy="104.26" r="1.85"/>
			<circle fill="#AEBDC4" cx="80.12" cy="104.26" r="1.85"/>
			<circle fill="#AEBDC4" cx="84.45" cy="104.26" r="1.85"/>
			<circle fill="#AEBDC4" cx="88.78" cy="104.26" r="1.85"/>
			<circle fill="#AEBDC4" cx="93.11" cy="104.26" r="1.85"/>
			<circle fill="#AEBDC4" cx="97.44" cy="104.26" r="1.85"/>
			<circle fill="#AEBDC4" cx="101.77" cy="104.26" r="1.85"/>
			<circle fill="#AEBDC4" cx="106.1" cy="104.26" r="1.85"/>
			<circle fill="#AEBDC4" cx="110.43" cy="104.26" r="1.85"/>
			<circle fill="#AEBDC4" cx="114.76" cy="104.26" r="1.85"/>
		</g>
		<g>
			<circle fill="#AEBDC4" cx="15.24" cy="98.33" r="1.85"/>
			<circle fill="#AEBDC4" cx="19.56" cy="98.33" r="1.85"/>
			<circle fill="#AEBDC4" cx="23.88" cy="98.33" r="1.85"/>
			<circle fill="#AEBDC4" cx="28.2" cy="98.33" r="1.85"/>
			<circle fill="#AEBDC4" cx="32.52" cy="98.33" r="1.85"/>
			<circle fill="#AEBDC4" cx="36.84" cy="98.33" r="1.85"/>
			<circle fill="#AEBDC4" cx="41.16" cy="98.33" r="1.85"/>
			<circle fill="#AEBDC4" cx="45.48" cy="98.33" r="1.85"/>
			<circle fill="#AEBDC4" cx="49.8" cy="98.33" r="1.85"/>
			<circle fill="#AEBDC4" cx="54.14" cy="98.33" r="1.85"/>
			<circle fill="#AEBDC4" cx="58.47" cy="98.33" r="1.85"/>
			<circle fill="#AEBDC4" cx="62.8" cy="98.33" r="1.85"/>
			<circle fill="#AEBDC4" cx="67.13" cy="98.33" r="1.85"/>
			<circle fill="#AEBDC4" cx="71.46" cy="98.33" r="1.85"/>
			<circle fill="#AEBDC4" cx="75.79" cy="98.33" r="1.85"/>
			<circle fill="#AEBDC4" cx="80.12" cy="98.33" r="1.85"/>
			<circle fill="#AEBDC4" cx="84.45" cy="98.33" r="1.85"/>
			<circle fill="#AEBDC4" cx="88.78" cy="98.33" r="1.85"/>
			<circle fill="#AEBDC4" cx="93.11" cy="98.33" r="1.85"/>
			<circle fill="#AEBDC4" cx="97.44" cy="98.33" r="1.85"/>
			<circle fill="#AEBDC4" cx="101.77" cy="98.33" r="1.85"/>
			<circle fill="#AEBDC4" cx="106.1" cy="98.33" r="1.85"/>
			<circle fill="#AEBDC4" cx="110.43" cy="98.33" r="1.85"/>
			<circle fill="#AEBDC4" cx="114.76" cy="98.33" r="1.85"/>
		</g>
		<g>
			<circle fill="#AEBDC4" cx="15.24" cy="92.4" r="1.85"/>
			<circle fill="#AEBDC4" cx="19.56" cy="92.4" r="1.85"/>
			<circle fill="#AEBDC4" cx="23.88" cy="92.4" r="1.85"/>
			<circle fill="#AEBDC4" cx="28.2" cy="92.4" r="1.85"/>
			<circle fill="#AEBDC4" cx="32.52" cy="92.4" r="1.85"/>
			<circle fill="#AEBDC4" cx="36.84" cy="92.4" r="1.85"/>
			<circle fill="#AEBDC4" cx="41.16" cy="92.4" r="1.85"/>
			<circle fill="#AEBDC4" cx="45.48" cy="92.4" r="1.85"/>
			<circle fill="#AEBDC4" cx="49.8" cy="92.4" r="1.85"/>
			<circle fill="#AEBDC4" cx="54.14" cy="92.4" r="1.85"/>
			<circle fill="#AEBDC4" cx="58.47" cy="92.4" r="1.85"/>
			<circle fill="#AEBDC4" cx="62.8" cy="92.4" r="1.85"/>
			<circle fill="#AEBDC4" cx="67.13" cy="92.4" r="1.85"/>
			<circle fill="#AEBDC4" cx="71.46" cy="92.4" r="1.85"/>
			<circle fill="#AEBDC4" cx="75.79" cy="92.4" r="1.85"/>
			<circle fill="#AEBDC4" cx="80.12" cy="92.4" r="1.85"/>
			<circle fill="#AEBDC4" cx="84.45" cy="92.4" r="1.85"/>
			<circle fill="#AEBDC4" cx="88.78" cy="92.4" r="1.85"/>
			<circle fill="#AEBDC4" cx="93.11" cy="92.4" r="1.85"/>
			<circle fill="#AEBDC4" cx="97.44" cy="92.4" r="1.85"/>
			<circle fill="#AEBDC4" cx="101.77" cy="92.4" r="1.85"/>
			<circle fill="#AEBDC4" cx="106.1" cy="92.4" r="1.85"/>
			<circle fill="#AEBDC4" cx="110.43" cy="92.4" r="1.85"/>
			<circle fill="#AEBDC4" cx="114.76" cy="92.4" r="1.85"/>
		</g>
		<g>
			<circle fill="#AEBDC4" cx="15.24" cy="86.47" r="1.85"/>
			<circle fill="#AEBDC4" cx="19.56" cy="86.47" r="1.85"/>
			<circle fill="#AEBDC4" cx="23.88" cy="86.47" r="1.85"/>
			<circle fill="#AEBDC4" cx="28.2" cy="86.47" r="1.85"/>
			<circle fill="#AEBDC4" cx="32.52" cy="86.47" r="1.85"/>
			<circle fill="#AEBDC4" cx="36.84" cy="86.47" r="1.85"/>
			<circle fill="#AEBDC4" cx="41.16" cy="86.47" r="1.85"/>
			<circle fill="#AEBDC4" cx="45.48" cy="86.47" r="1.85"/>
			<circle fill="#AEBDC4" cx="49.8" cy="86.47" r="1.85"/>
			<circle fill="#AEBDC4" cx="54.14" cy="86.47" r="1.85"/>
			<circle fill="#AEBDC4" cx="58.47" cy="86.47" r="1.85"/>
			<circle fill="#AEBDC4" cx="62.8" cy="86.47" r="1.85"/>
			<circle fill="#AEBDC4" cx="67.13" cy="86.47" r="1.85"/>
			<circle fill="#AEBDC4" cx="71.46" cy="86.47" r="1.85"/>
			<circle fill="#AEBDC4" cx="75.79" cy="86.47" r="1.85"/>
			<circle fill="#AEBDC4" cx="80.12" cy="86.47" r="1.85"/>
			<circle fill="#AEBDC4" cx="84.45" cy="86.47" r="1.85"/>
			<circle fill="#AEBDC4" cx="88.78" cy="86.47" r="1.85"/>
			<circle fill="#AEBDC4" cx="93.11" cy="86.47" r="1.85"/>
			<circle fill="#AEBDC4" cx="97.44" cy="86.47" r="1.85"/>
			<circle fill="#AEBDC4" cx="101.77" cy="86.47" r="1.85"/>
			<circle fill="#AEBDC4" cx="106.1" cy="86.47" r="1.85"/>
			<circle fill="#AEBDC4" cx="110.43" cy="86.47" r="1.85"/>
			<circle fill="#AEBDC4" cx="114.76" cy="86.47" r="1.85"/>
		</g>
		<g>
			<circle fill="#AEBDC4" cx="15.24" cy="80.54" r="1.85"/>
			<circle fill="#AEBDC4" cx="19.56" cy="80.54" r="1.85"/>
			<circle fill="#AEBDC4" cx="23.88" cy="80.54" r="1.85"/>
			<circle fill="#AEBDC4" cx="28.2" cy="80.54" r="1.85"/>
			<circle fill="#AEBDC4" cx="32.52" cy="80.54" r="1.85"/>
			<circle fill="#AEBDC4" cx="36.84" cy="80.54" r="1.85"/>
			<circle fill="#AEBDC4" cx="41.16" cy="80.54" r="1.85"/>
			<circle fill="#AEBDC4" cx="45.48" cy="80.54" r="1.85"/>
			<circle fill="#AEBDC4" cx="49.8" cy="80.54" r="1.85"/>
			<circle fill="#AEBDC4" cx="54.14" cy="80.54" r="1.85"/>
			<circle fill="#AEBDC4" cx="58.47" cy="80.54" r="1.85"/>
			<circle fill="#AEBDC4" cx="62.8" cy="80.54" r="1.85"/>
			<circle fill="#AEBDC4" cx="67.13" cy="80.54" r="1.85"/>
			<circle fill="#AEBDC4" cx="71.46" cy="80.54" r="1.85"/>
			<circle fill="#AEBDC4" cx="75.79" cy="80.54" r="1.85"/>
			<circle fill="#AEBDC4" cx="80.12" cy="80.54" r="1.85"/>
			<circle fill="#AEBDC4" cx="84.45" cy="80.54" r="1.85"/>
			<circle fill="#AEBDC4" cx="88.78" cy="80.54" r="1.85"/>
			<circle fill="#AEBDC4" cx="93.11" cy="80.54" r="1.85"/>
			<circle fill="#AEBDC4" cx="97.44" cy="80.54" r="1.85"/>
			<circle fill="#AEBDC4" cx="101.77" cy="80.54" r="1.85"/>
			<circle fill="#AEBDC4" cx="106.1" cy="80.54" r="1.85"/>
			<circle fill="#AEBDC4" cx="110.43" cy="80.54" r="1.85"/>
			<circle fill="#AEBDC4" cx="114.76" cy="80.54" r="1.85"/>
		</g>
		<g>
			<circle fill="#AEBDC4" cx="15.24" cy="74.61" r="1.85"/>
			<circle fill="#AEBDC4" cx="19.56" cy="74.61" r="1.85"/>
			<circle fill="#AEBDC4" cx="23.88" cy="74.61" r="1.85"/>
			<circle fill="#AEBDC4" cx="28.2" cy="74.61" r="1.85"/>
			<circle fill="#AEBDC4" cx="32.52" cy="74.61" r="1.85"/>
			<circle fill="#AEBDC4" cx="36.84" cy="74.61" r="1.85"/>
			<circle fill="#AEBDC4" cx="41.16" cy="74.61" r="1.85"/>
			<circle fill="#AEBDC4" cx="45.48" cy="74.61" r="1.85"/>
			<circle fill="#AEBDC4" cx="49.8" cy="74.61" r="1.85"/>
			<circle fill="#AEBDC4" cx="54.14" cy="74.61" r="1.85"/>
			<circle fill="#AEBDC4" cx="58.47" cy="74.61" r="1.85"/>
			<circle fill="#AEBDC4" cx="62.8" cy="74.61" r="1.85"/>
			<circle fill="#AEBDC4" cx="67.13" cy="74.61" r="1.85"/>
			<circle fill="#AEBDC4" cx="71.46" cy="74.61" r="1.85"/>
			<circle fill="#AEBDC4" cx="75.79" cy="74.61" r="1.85"/>
			<circle fill="#AEBDC4" cx="80.12" cy="74.61" r="1.85"/>
			<circle fill="#AEBDC4" cx="84.45" cy="74.61" r="1.85"/>
			<circle fill="#AEBDC4" cx="88.78" cy="74.61" r="1.85"/>
			<circle fill="#AEBDC4" cx="93.11" cy="74.61" r="1.85"/>
			<circle fill="#AEBDC4" cx="97.44" cy="74.61" r="1.85"/>
			<circle fill="#AEBDC4" cx="101.77" cy="74.61" r="1.85"/>
			<circle fill="#AEBDC4" cx="106.1" cy="74.61" r="1.85"/>
			<circle fill="#AEBDC4" cx="110.43" cy="74.61" r="1.85"/>
			<circle fill="#AEBDC4" cx="114.76" cy="74.61" r="1.85"/>
		</g>
		<g>
			<circle fill="#AEBDC4" cx="15.24" cy="68.68" r="1.85"/>
			<circle fill="#AEBDC4" cx="19.56" cy="68.68" r="1.85"/>
			<circle fill="#AEBDC4" cx="23.88" cy="68.68" r="1.85"/>
			<circle fill="#AEBDC4" cx="28.2" cy="68.68" r="1.85"/>
			<circle fill="#AEBDC4" cx="32.52" cy="68.68" r="1.85"/>
			<circle fill="#AEBDC4" cx="36.84" cy="68.68" r="1.85"/>
			<circle fill="#AEBDC4" cx="41.16" cy="68.68" r="1.85"/>
			<circle fill="#AEBDC4" cx="45.48" cy="68.68" r="1.85"/>
			<circle fill="#AEBDC4" cx="49.8" cy="68.68" r="1.85"/>
			<circle fill="#AEBDC4" cx="54.14" cy="68.68" r="1.85"/>
			<circle fill="#AEBDC4" cx="58.47" cy="68.68" r="1.85"/>
			<circle fill="#AEBDC4" cx="62.8" cy="68.68" r="1.85"/>
			<circle fill="#AEBDC4" cx="67.13" cy="68.68" r="1.85"/>
			<circle fill="#AEBDC4" cx="71.46" cy="68.68" r="1.85"/>
			<circle fill="#AEBDC4" cx="75.79" cy="68.68" r="1.85"/>
			<circle fill="#AEBDC4" cx="80.12" cy="68.68" r="1.85"/>
			<circle fill="#AEBDC4" cx="84.45" cy="68.68" r="1.85"/>
			<circle fill="#AEBDC4" cx="88.78" cy="68.68" r="1.85"/>
			<circle fill="#AEBDC4" cx="93.11" cy="68.68" r="1.85"/>
			<circle fill="#AEBDC4" cx="97.44" cy="68.68" r="1.85"/>
			<circle fill="#AEBDC4" cx="101.77" cy="68.68" r="1.85"/>
			<circle fill="#AEBDC4" cx="106.1" cy="68.68" r="1.85"/>
			<circle fill="#AEBDC4" cx="110.43" cy="68.68" r="1.85"/>
			<circle fill="#AEBDC4" cx="114.76" cy="68.68" r="1.85"/>
		</g>
		<g>
			<circle fill="#AEBDC4" cx="15.24" cy="62.74" r="1.85"/>
			<circle fill="#AEBDC4" cx="19.56" cy="62.74" r="1.85"/>
			<circle fill="#AEBDC4" cx="23.88" cy="62.74" r="1.85"/>
			<circle fill="#AEBDC4" cx="28.2" cy="62.74" r="1.85"/>
			<circle fill="#AEBDC4" cx="32.52" cy="62.74" r="1.85"/>
			<circle fill="#AEBDC4" cx="36.84" cy="62.74" r="1.85"/>
			<circle fill="#AEBDC4" cx="41.16" cy="62.74" r="1.85"/>
			<circle fill="#AEBDC4" cx="45.48" cy="62.74" r="1.85"/>
			<circle fill="#AEBDC4" cx="49.8" cy="62.74" r="1.85"/>
			<circle fill="#AEBDC4" cx="54.14" cy="62.74" r="1.85"/>
			<circle fill="#AEBDC4" cx="58.47" cy="62.74" r="1.85"/>
			<circle fill="#AEBDC4" cx="62.8" cy="62.74" r="1.85"/>
			<circle fill="#AEBDC4" cx="67.13" cy="62.74" r="1.85"/>
			<circle fill="#AEBDC4" cx="71.46" cy="62.74" r="1.85"/>
			<circle fill="#AEBDC4" cx="75.79" cy="62.74" r="1.85"/>
			<circle fill="#AEBDC4" cx="80.12" cy="62.74" r="1.85"/>
			<circle fill="#AEBDC4" cx="84.45" cy="62.74" r="1.85"/>
			<circle fill="#AEBDC4" cx="88.78" cy="62.74" r="1.85"/>
			<circle fill="#AEBDC4" cx="93.11" cy="62.74" r="1.85"/>
			<circle fill="#AEBDC4" cx="97.44" cy="62.74" r="1.85"/>
			<circle fill="#AEBDC4" cx="101.77" cy="62.74" r="1.85"/>
			<circle fill="#AEBDC4" cx="106.1" cy="62.74" r="1.85"/>
			<circle fill="#AEBDC4" cx="110.43" cy="62.74" r="1.85"/>
			<circle fill="#AEBDC4" cx="114.76" cy="62.74" r="1.85"/>
		</g>
		<g>
			<circle fill="#AEBDC4" cx="15.24" cy="56.81" r="1.85"/>
			<circle fill="#AEBDC4" cx="19.56" cy="56.81" r="1.85"/>
			<circle fill="#AEBDC4" cx="23.88" cy="56.81" r="1.85"/>
			<circle fill="#AEBDC4" cx="28.2" cy="56.81" r="1.85"/>
			<circle fill="#AEBDC4" cx="32.52" cy="56.81" r="1.85"/>
			<circle fill="#AEBDC4" cx="36.84" cy="56.81" r="1.85"/>
			<circle fill="#AEBDC4" cx="41.16" cy="56.81" r="1.85"/>
			<circle fill="#AEBDC4" cx="45.48" cy="56.81" r="1.85"/>
			<circle fill="#AEBDC4" cx="49.8" cy="56.81" r="1.85"/>
			<circle fill="#AEBDC4" cx="54.14" cy="56.81" r="1.85"/>
			<circle fill="#AEBDC4" cx="58.47" cy="56.81" r="1.85"/>
			<circle fill="#AEBDC4" cx="62.8" cy="56.81" r="1.85"/>
			<circle fill="#AEBDC4" cx="67.13" cy="56.81" r="1.85"/>
			<circle fill="#AEBDC4" cx="71.46" cy="56.81" r="1.85"/>
			<circle fill="#AEBDC4" cx="75.79" cy="56.81" r="1.85"/>
			<circle fill="#AEBDC4" cx="80.12" cy="56.81" r="1.85"/>
			<circle fill="#AEBDC4" cx="84.45" cy="56.81" r="1.85"/>
			<circle fill="#AEBDC4" cx="88.78" cy="56.81" r="1.85"/>
			<circle fill="#AEBDC4" cx="93.11" cy="56.81" r="1.85"/>
			<circle fill="#AEBDC4" cx="97.44" cy="56.81" r="1.85"/>
			<circle fill="#AEBDC4" cx="101.77" cy="56.81" r="1.85"/>
			<circle fill="#AEBDC4" cx="106.1" cy="56.81" r="1.85"/>
			<circle fill="#AEBDC4" cx="110.43" cy="56.81" r="1.85"/>
			<circle fill="#AEBDC4" cx="114.76" cy="56.81" r="1.85"/>
		</g>
		<g>
			<circle fill="#AEBDC4" cx="15.24" cy="50.88" r="1.85"/>
			<circle fill="#AEBDC4" cx="19.56" cy="50.88" r="1.85"/>
			<circle fill="#AEBDC4" cx="23.88" cy="50.88" r="1.85"/>
			<circle fill="#AEBDC4" cx="28.2" cy="50.88" r="1.85"/>
			<circle fill="#AEBDC4" cx="32.52" cy="50.88" r="1.85"/>
			<circle fill="#AEBDC4" cx="36.84" cy="50.88" r="1.85"/>
			<circle fill="#AEBDC4" cx="41.16" cy="50.88" r="1.85"/>
			<circle fill="#AEBDC4" cx="45.48" cy="50.88" r="1.85"/>
			<circle fill="#AEBDC4" cx="49.8" cy="50.88" r="1.85"/>
			<circle fill="#AEBDC4" cx="54.14" cy="50.88" r="1.85"/>
			<circle fill="#AEBDC4" cx="58.47" cy="50.88" r="1.85"/>
			<circle fill="#AEBDC4" cx="62.8" cy="50.88" r="1.85"/>
			<circle fill="#AEBDC4" cx="67.13" cy="50.88" r="1.85"/>
			<circle fill="#AEBDC4" cx="71.46" cy="50.88" r="1.85"/>
			<circle fill="#AEBDC4" cx="75.79" cy="50.88" r="1.85"/>
			<circle fill="#AEBDC4" cx="80.12" cy="50.88" r="1.85"/>
			<circle fill="#AEBDC4" cx="84.45" cy="50.88" r="1.85"/>
			<circle fill="#AEBDC4" cx="88.78" cy="50.88" r="1.85"/>
			<circle fill="#AEBDC4" cx="93.11" cy="50.88" r="1.85"/>
			<circle fill="#AEBDC4" cx="97.44" cy="50.88" r="1.85"/>
			<circle fill="#AEBDC4" cx="101.77" cy="50.88" r="1.85"/>
			<circle fill="#AEBDC4" cx="106.1" cy="50.88" r="1.85"/>
			<circle fill="#AEBDC4" cx="110.43" cy="50.88" r="1.85"/>
			<circle fill="#AEBDC4" cx="114.76" cy="50.88" r="1.85"/>
		</g>
		<g>
			<circle fill="#AEBDC4" cx="15.24" cy="44.95" r="1.85"/>
			<circle fill="#AEBDC4" cx="19.56" cy="44.95" r="1.85"/>
			<circle fill="#AEBDC4" cx="23.88" cy="44.95" r="1.85"/>
			<circle fill="#AEBDC4" cx="28.2" cy="44.95" r="1.85"/>
			<circle fill="#AEBDC4" cx="32.52" cy="44.95" r="1.85"/>
			<circle fill="#AEBDC4" cx="36.84" cy="44.95" r="1.85"/>
			<circle fill="#AEBDC4" cx="41.16" cy="44.95" r="1.85"/>
			<circle fill="#AEBDC4" cx="45.48" cy="44.95" r="1.85"/>
			<circle fill="#AEBDC4" cx="49.8" cy="44.95" r="1.85"/>
			<circle fill="#AEBDC4" cx="54.14" cy="44.95" r="1.85"/>
			<circle fill="#AEBDC4" cx="58.47" cy="44.95" r="1.85"/>
			<circle fill="#AEBDC4" cx="62.8" cy="44.95" r="1.85"/>
			<circle fill="#AEBDC4" cx="67.13" cy="44.95" r="1.85"/>
			<circle fill="#AEBDC4" cx="71.46" cy="44.95" r="1.85"/>
			<circle fill="#AEBDC4" cx="75.79" cy="44.95" r="1.85"/>
			<circle fill="#AEBDC4" cx="80.12" cy="44.95" r="1.85"/>
			<circle fill="#AEBDC4" cx="84.45" cy="44.95" r="1.85"/>
			<circle fill="#AEBDC4" cx="88.78" cy="44.95" r="1.85"/>
			<circle fill="#AEBDC4" cx="93.11" cy="44.95" r="1.85"/>
			<circle fill="#AEBDC4" cx="97.44" cy="44.95" r="1.85"/>
			<circle fill="#AEBDC4" cx="101.77" cy="44.95" r="1.85"/>
			<circle fill="#AEBDC4" cx="106.1" cy="44.95" r="1.85"/>
			<circle fill="#AEBDC4" cx="110.43" cy="44.95" r="1.85"/>
			<circle fill="#AEBDC4" cx="114.76" cy="44.95" r="1.85"/>
		</g>
		<g>
			<circle fill="#AEBDC4" cx="15.24" cy="39.02" r="1.85"/>
			<circle fill="#AEBDC4" cx="19.56" cy="39.02" r="1.85"/>
			<circle fill="#AEBDC4" cx="23.88" cy="39.02" r="1.85"/>
			<circle fill="#AEBDC4" cx="28.2" cy="39.02" r="1.85"/>
			<circle fill="#AEBDC4" cx="32.52" cy="39.02" r="1.85"/>
			<circle fill="#AEBDC4" cx="36.84" cy="39.02" r="1.85"/>
			<circle fill="#AEBDC4" cx="41.16" cy="39.02" r="1.85"/>
			<circle fill="#AEBDC4" cx="45.48" cy="39.02" r="1.85"/>
			<circle fill="#AEBDC4" cx="49.8" cy="39.02" r="1.85"/>
			<circle fill="#AEBDC4" cx="54.14" cy="39.02" r="1.85"/>
			<circle fill="#AEBDC4" cx="58.47" cy="39.02" r="1.85"/>
			<circle fill="#AEBDC4" cx="62.8" cy="39.02" r="1.85"/>
			<circle fill="#AEBDC4" cx="67.13" cy="39.02" r="1.85"/>
			<circle fill="#AEBDC4" cx="71.46" cy="39.02" r="1.85"/>
			<circle fill="#AEBDC4" cx="75.79" cy="39.02" r="1.85"/>
			<circle fill="#AEBDC4" cx="80.12" cy="39.02" r="1.85"/>
			<circle fill="#AEBDC4" cx="84.45" cy="39.02" r="1.85"/>
			<circle fill="#AEBDC4" cx="88.78" cy="39.02" r="1.85"/>
			<circle fill="#AEBDC4" cx="93.11" cy="39.02" r="1.85"/>
			<circle fill="#AEBDC4" cx="97.44" cy="39.02" r="1.85"/>
			<circle fill="#AEBDC4" cx="101.77" cy="39.02" r="1.85"/>
			<circle fill="#AEBDC4" cx="106.1" cy="39.02" r="1.85"/>
			<circle fill="#AEBDC4" cx="110.43" cy="39.02" r="1.85"/>
			<circle fill="#AEBDC4" cx="114.76" cy="39.02" r="1.85"/>
		</g>
		<g>
			<circle fill="#AEBDC4" cx="15.24" cy="33.09" r="1.85"/>
			<circle fill="#AEBDC4" cx="19.56" cy="33.09" r="1.85"/>
			<circle fill="#AEBDC4" cx="23.88" cy="33.09" r="1.85"/>
			<circle fill="#AEBDC4" cx="28.2" cy="33.09" r="1.85"/>
			<circle fill="#AEBDC4" cx="32.52" cy="33.09" r="1.85"/>
			<circle fill="#AEBDC4" cx="36.84" cy="33.09" r="1.85"/>
			<circle fill="#AEBDC4" cx="41.16" cy="33.09" r="1.85"/>
			<circle fill="#AEBDC4" cx="45.48" cy="33.09" r="1.85"/>
			<circle fill="#AEBDC4" cx="49.8" cy="33.09" r="1.85"/>
			<circle fill="#AEBDC4" cx="54.14" cy="33.09" r="1.85"/>
			<circle fill="#AEBDC4" cx="58.47" cy="33.09" r="1.85"/>
			<circle fill="#AEBDC4" cx="62.8" cy="33.09" r="1.85"/>
			<circle fill="#AEBDC4" cx="67.13" cy="33.09" r="1.85"/>
			<circle fill="#AEBDC4" cx="71.46" cy="33.09" r="1.85"/>
			<circle fill="#AEBDC4" cx="75.79" cy="33.09" r="1.85"/>
			<circle fill="#AEBDC4" cx="80.12" cy="33.09" r="1.85"/>
			<circle fill="#AEBDC4" cx="84.45" cy="33.09" r="1.85"/>
			<circle fill="#AEBDC4" cx="88.78" cy="33.09" r="1.85"/>
			<circle fill="#AEBDC4" cx="93.11" cy="33.09" r="1.85"/>
			<circle fill="#AEBDC4" cx="97.44" cy="33.09" r="1.85"/>
			<circle fill="#AEBDC4" cx="101.77" cy="33.09" r="1.85"/>
			<circle fill="#AEBDC4" cx="106.1" cy="33.09" r="1.85"/>
			<circle fill="#AEBDC4" cx="110.43" cy="33.09" r="1.85"/>
			<circle fill="#AEBDC4" cx="114.76" cy="33.09" r="1.85"/>
		</g>
		<g>
			<circle fill="#AEBDC4" cx="15.24" cy="27.16" r="1.85"/>
			<circle fill="#AEBDC4" cx="19.56" cy="27.16" r="1.85"/>
			<circle fill="#AEBDC4" cx="23.88" cy="27.16" r="1.85"/>
			<circle fill="#AEBDC4" cx="28.2" cy="27.16" r="1.85"/>
			<circle fill="#AEBDC4" cx="32.52" cy="27.16" r="1.85"/>
			<circle fill="#AEBDC4" cx="36.84" cy="27.16" r="1.85"/>
			<circle fill="#AEBDC4" cx="41.16" cy="27.16" r="1.85"/>
			<circle fill="#AEBDC4" cx="45.48" cy="27.16" r="1.85"/>
			<circle fill="#AEBDC4" cx="49.8" cy="27.16" r="1.85"/>
			<circle fill="#AEBDC4" cx="54.14" cy="27.16" r="1.85"/>
			<circle fill="#AEBDC4" cx="58.47" cy="27.16" r="1.85"/>
			<circle fill="#AEBDC4" cx="62.8" cy="27.16" r="1.85"/>
			<circle fill="#AEBDC4" cx="67.13" cy="27.16" r="1.85"/>
			<circle fill="#AEBDC4" cx="71.46" cy="27.16" r="1.85"/>
			<circle fill="#AEBDC4" cx="75.79" cy="27.16" r="1.85"/>
			<circle fill="#AEBDC4" cx="80.12" cy="27.16" r="1.85"/>
			<circle fill="#AEBDC4" cx="84.45" cy="27.16" r="1.85"/>
			<circle fill="#AEBDC4" cx="88.78" cy="27.16" r="1.85"/>
			<circle fill="#AEBDC4" cx="93.11" cy="27.16" r="1.85"/>
			<circle fill="#AEBDC4" cx="97.44" cy="27.16" r="1.85"/>
			<circle fill="#AEBDC4" cx="101.77" cy="27.16" r="1.85"/>
			<circle fill="#AEBDC4" cx="106.1" cy="27.16" r="1.85"/>
			<circle fill="#AEBDC4" cx="110.43" cy="27.16" r="1.85"/>
			<circle fill="#AEBDC4" cx="114.76" cy="27.16" r="1.85"/>
		</g>
		<g>
			<circle fill="#AEBDC4" cx="15.24" cy="21.23" r="1.85"/>
			<circle fill="#AEBDC4" cx="19.56" cy="21.23" r="1.85"/>
			<circle fill="#AEBDC4" cx="23.88" cy="21.23" r="1.85"/>
			<circle fill="#AEBDC4" cx="28.2" cy="21.23" r="1.85"/>
			<circle fill="#AEBDC4" cx="32.52" cy="21.23" r="1.85"/>
			<circle fill="#AEBDC4" cx="36.84" cy="21.23" r="1.85"/>
			<circle fill="#AEBDC4" cx="41.16" cy="21.23" r="1.85"/>
			<circle fill="#AEBDC4" cx="45.48" cy="21.23" r="1.85"/>
			<circle fill="#AEBDC4" cx="49.8" cy="21.23" r="1.85"/>
			<circle fill="#AEBDC4" cx="54.14" cy="21.23" r="1.85"/>
			<circle fill="#AEBDC4" cx="58.47" cy="21.23" r="1.85"/>
			<circle fill="#AEBDC4" cx="62.8" cy="21.23" r="1.85"/>
			<circle fill="#AEBDC4" cx="67.13" cy="21.23" r="1.85"/>
			<circle fill="#AEBDC4" cx="71.46" cy="21.23" r="1.85"/>
			<circle fill="#AEBDC4" cx="75.79" cy="21.23" r="1.85"/>
			<circle fill="#AEBDC4" cx="80.12" cy="21.23" r="1.85"/>
			<circle fill="#AEBDC4" cx="84.45" cy="21.23" r="1.85"/>
			<circle fill="#AEBDC4" cx="88.78" cy="21.23" r="1.85"/>
			<circle fill="#AEBDC4" cx="93.11" cy="21.23" r="1.85"/>
			<circle fill="#AEBDC4" cx="97.44" cy="21.23" r="1.85"/>
			<circle fill="#AEBDC4" cx="101.77" cy="21.23" r="1.85"/>
			<circle fill="#AEBDC4" cx="106.1" cy="21.23" r="1.85"/>
			<circle fill="#AEBDC4" cx="110.43" cy="21.23" r="1.85"/>
			<circle fill="#AEBDC4" cx="114.76" cy="21.23" r="1.85"/>
		</g>
		<g>
			<circle fill="#AEBDC4" cx="15.24" cy="15.3" r="1.85"/>
			<circle fill="#AEBDC4" cx="19.56" cy="15.3" r="1.85"/>
			<circle fill="#AEBDC4" cx="23.88" cy="15.3" r="1.85"/>
			<circle fill="#AEBDC4" cx="28.2" cy="15.3" r="1.85"/>
			<circle fill="#AEBDC4" cx="32.52" cy="15.3" r="1.85"/>
			<circle fill="#AEBDC4" cx="36.84" cy="15.3" r="1.85"/>
			<circle fill="#AEBDC4" cx="41.16" cy="15.3" r="1.85"/>
			<circle fill="#AEBDC4" cx="45.48" cy="15.3" r="1.85"/>
			<circle fill="#AEBDC4" cx="49.8" cy="15.3" r="1.85"/>
			<circle fill="#AEBDC4" cx="54.14" cy="15.3" r="1.85"/>
			<circle fill="#AEBDC4" cx="58.47" cy="15.3" r="1.85"/>
			<circle fill="#AEBDC4" cx="62.8" cy="15.3" r="1.85"/>
			<circle fill="#AEBDC4" cx="67.13" cy="15.3" r="1.85"/>
			<circle fill="#AEBDC4" cx="71.46" cy="15.3" r="1.85"/>
			<circle fill="#AEBDC4" cx="75.79" cy="15.3" r="1.85"/>
			<circle fill="#AEBDC4" cx="80.12" cy="15.3" r="1.85"/>
			<circle fill="#AEBDC4" cx="84.45" cy="15.3" r="1.85"/>
			<circle fill="#AEBDC4" cx="88.78" cy="15.3" r="1.85"/>
			<circle fill="#AEBDC4" cx="93.11" cy="15.3" r="1.85"/>
			<circle fill="#AEBDC4" cx="97.44" cy="15.3" r="1.85"/>
			<circle fill="#AEBDC4" cx="101.77" cy="15.3" r="1.85"/>
			<circle fill="#AEBDC4" cx="106.1" cy="15.3" r="1.85"/>
			<circle fill="#AEBDC4" cx="110.43" cy="15.3" r="1.85"/>
			<circle fill="#AEBDC4" cx="114.76" cy="15.3" r="1.85"/>
		</g>
		<g>
			<circle fill="#AEBDC4" cx="15.24" cy="9.37" r="1.85"/>
			<circle fill="#AEBDC4" cx="19.56" cy="9.37" r="1.85"/>
			<circle fill="#AEBDC4" cx="23.88" cy="9.37" r="1.85"/>
			<circle fill="#AEBDC4" cx="28.2" cy="9.37" r="1.85"/>
			<circle fill="#AEBDC4" cx="32.52" cy="9.37" r="1.85"/>
			<circle fill="#AEBDC4" cx="36.84" cy="9.37" r="1.85"/>
			<circle fill="#AEBDC4" cx="41.16" cy="9.37" r="1.85"/>
			<circle fill="#AEBDC4" cx="45.48" cy="9.37" r="1.85"/>
			<circle fill="#AEBDC4" cx="49.8" cy="9.37" r="1.85"/>
			<circle fill="#AEBDC4" cx="54.14" cy="9.37" r="1.85"/>
			<circle fill="#AEBDC4" cx="58.47" cy="9.37" r="1.85"/>
			<circle fill="#AEBDC4" cx="62.8" cy="9.37" r="1.85"/>
			<circle fill="#AEBDC4" cx="67.13" cy="9.37" r="1.85"/>
			<circle fill="#AEBDC4" cx="71.46" cy="9.37" r="1.85"/>
			<circle fill="#AEBDC4" cx="75.79" cy="9.37" r="1.85"/>
			<circle fill="#AEBDC4" cx="80.12" cy="9.37" r="1.85"/>
			<circle fill="#AEBDC4" cx="84.45" cy="9.37" r="1.85"/>
			<circle fill="#AEBDC4" cx="88.78" cy="9.37" r="1.85"/>
			<circle fill="#AEBDC4" cx="93.11" cy="9.37" r="1.85"/>
			<circle fill="#AEBDC4" cx="97.44" cy="9.37" r="1.85"/>
			<circle fill="#AEBDC4" cx="101.77" cy="9.37" r="1.85"/>
			<circle fill="#AEBDC4" cx="106.1" cy="9.37" r="1.85"/>
			<circle fill="#AEBDC4" cx="110.43" cy="9.37" r="1.85"/>
			<circle fill="#AEBDC4" cx="114.76" cy="9.37" r="1.85"/>
		</g>
	</g>
	<g onclick="this.parentNode.a_text=this;">
		<text transform="matrix(0.9999 0 0 1 60.5589 66.9784)"><tspan x="0" y="0" font-family="'OpenSans-Semibold'" font-size="6.3996px">E 8</tspan><tspan x="-3.72" y="7.2" font-family="'OpenSans-Semibold'" font-size="6.3996px">(</tspan><tspan x="-1.68" y="7.2" font-family="'OpenSans-Semibold'" font-size="6.3996px">н</tspan><tspan x="2.67" y="7.2" font-family="'OpenSans-Semibold'" font-size="6.3996px">и</tspan><tspan x="7.23" y="7.2" font-family="'OpenSans-Semibold'" font-size="6.3996px">з</tspan><tspan x="10.58" y="7.2" font-family="'OpenSans-Semibold'" font-size="6.3996px">)</tspan></text>
	</g>
</g>
</svg>
