<?xml version="1.0" encoding="utf-8"?>
<!-- Generator: Adobe Illustrator 23.0.1, SVG Export Plug-In . SVG Version: 6.00 Build 0)  -->
<svg version="1.1" id="Layer_1" xmlns="http://www.w3.org/2000/svg" xmlns:xlink="http://www.w3.org/1999/xlink" x="0px" y="0px"
  viewBox="0 0 130 167" enable-background="new 0 0 130 167" xml:space="preserve">
  <rect x="0.26" y="0.31" fill="#F1F3F4" stroke="#BCC8CE" stroke-width="0.4" stroke-linecap="round" stroke-miterlimit="10" width="129.48" height="166.39"/>
  <g 
    data-sort-seat-direction="ltr" 
    data-sort-line-direction="ttb" 
    data-sort-seat-option="cx" 
    data-sort-line-option="cy" 
    data-line-start="1"
    >
    <g>
      <circle fill="#AEBDC4" cx="15.24" cy="157.64" r="1.85"/>
      <circle fill="#AEBDC4" cx="19.56" cy="157.64" r="1.85"/>
      <circle fill="#AEBDC4" cx="23.88" cy="157.64" r="1.85"/>
      <circle fill="#AEBDC4" cx="28.2" cy="157.64" r="1.85"/>
      <circle fill="#AEBDC4" cx="32.52" cy="157.64" r="1.85"/>
      <circle fill="#AEBDC4" cx="36.84" cy="157.64" r="1.85"/>
      <circle fill="#AEBDC4" cx="41.16" cy="157.64" r="1.85"/>
      <circle fill="#AEBDC4" cx="45.48" cy="157.64" r="1.85"/>
      <circle fill="#AEBDC4" cx="49.8" cy="157.64" r="1.85"/>
      <circle fill="#AEBDC4" cx="54.14" cy="157.64" r="1.85"/>
      <circle fill="#AEBDC4" cx="58.47" cy="157.64" r="1.85"/>
      <circle fill="#AEBDC4" cx="62.8" cy="157.64" r="1.85"/>
      <circle fill="#AEBDC4" cx="67.13" cy="157.64" r="1.85"/>
      <circle fill="#AEBDC4" cx="71.46" cy="157.64" r="1.85"/>
      <circle fill="#AEBDC4" cx="75.79" cy="157.64" r="1.85"/>
      <circle fill="#AEBDC4" cx="80.12" cy="157.64" r="1.85"/>
      <circle fill="#AEBDC4" cx="84.45" cy="157.64" r="1.85"/>
      <circle fill="#AEBDC4" cx="88.78" cy="157.64" r="1.85"/>
      <circle fill="#AEBDC4" cx="93.11" cy="157.64" r="1.85"/>
      <circle fill="#AEBDC4" cx="97.44" cy="157.64" r="1.85"/>
      <circle fill="#AEBDC4" cx="101.77" cy="157.64" r="1.85"/>
      <circle fill="#AEBDC4" cx="106.1" cy="157.64" r="1.85"/>
      <circle fill="#AEBDC4" cx="110.43" cy="157.64" r="1.85"/>
      <circle fill="#AEBDC4" cx="114.76" cy="157.64" r="1.85"/>
    </g>
    <g>
      <circle fill="#AEBDC4" cx="15.24" cy="151.71" r="1.85"/>
      <circle fill="#AEBDC4" cx="19.56" cy="151.71" r="1.85"/>
      <circle fill="#AEBDC4" cx="23.88" cy="151.71" r="1.85"/>
      <circle fill="#AEBDC4" cx="28.2" cy="151.71" r="1.85"/>
      <circle fill="#AEBDC4" cx="32.52" cy="151.71" r="1.85"/>
      <circle fill="#AEBDC4" cx="36.84" cy="151.71" r="1.85"/>
      <circle fill="#AEBDC4" cx="41.16" cy="151.71" r="1.85"/>
      <circle fill="#AEBDC4" cx="45.48" cy="151.71" r="1.85"/>
      <circle fill="#AEBDC4" cx="49.8" cy="151.71" r="1.85"/>
      <circle fill="#AEBDC4" cx="54.14" cy="151.71" r="1.85"/>
      <circle fill="#AEBDC4" cx="58.47" cy="151.71" r="1.85"/>
      <circle fill="#AEBDC4" cx="62.8" cy="151.71" r="1.85"/>
      <circle fill="#AEBDC4" cx="67.13" cy="151.71" r="1.85"/>
      <circle fill="#AEBDC4" cx="71.46" cy="151.71" r="1.85"/>
      <circle fill="#AEBDC4" cx="75.79" cy="151.71" r="1.85"/>
      <circle fill="#AEBDC4" cx="80.12" cy="151.71" r="1.85"/>
      <circle fill="#AEBDC4" cx="84.45" cy="151.71" r="1.85"/>
      <circle fill="#AEBDC4" cx="88.78" cy="151.71" r="1.85"/>
      <circle fill="#AEBDC4" cx="93.11" cy="151.71" r="1.85"/>
      <circle fill="#AEBDC4" cx="97.44" cy="151.71" r="1.85"/>
      <circle fill="#AEBDC4" cx="101.77" cy="151.71" r="1.85"/>
      <circle fill="#AEBDC4" cx="106.1" cy="151.71" r="1.85"/>
      <circle fill="#AEBDC4" cx="110.43" cy="151.71" r="1.85"/>
      <circle fill="#AEBDC4" cx="114.76" cy="151.71" r="1.85"/>
    </g>
    <g>
      <circle fill="#AEBDC4" cx="15.24" cy="145.78" r="1.85"/>
      <circle fill="#AEBDC4" cx="19.56" cy="145.78" r="1.85"/>
      <circle fill="#AEBDC4" cx="23.88" cy="145.78" r="1.85"/>
      <circle fill="#AEBDC4" cx="28.2" cy="145.78" r="1.85"/>
      <circle fill="#AEBDC4" cx="32.52" cy="145.78" r="1.85"/>
      <circle fill="#AEBDC4" cx="36.84" cy="145.78" r="1.85"/>
      <circle fill="#AEBDC4" cx="41.16" cy="145.78" r="1.85"/>
      <circle fill="#AEBDC4" cx="45.48" cy="145.78" r="1.85"/>
      <circle fill="#AEBDC4" cx="49.8" cy="145.78" r="1.85"/>
      <circle fill="#AEBDC4" cx="54.14" cy="145.78" r="1.85"/>
      <circle fill="#AEBDC4" cx="58.47" cy="145.78" r="1.85"/>
      <circle fill="#AEBDC4" cx="62.8" cy="145.78" r="1.85"/>
      <circle fill="#AEBDC4" cx="67.13" cy="145.78" r="1.85"/>
      <circle fill="#AEBDC4" cx="71.46" cy="145.78" r="1.85"/>
      <circle fill="#AEBDC4" cx="75.79" cy="145.78" r="1.85"/>
      <circle fill="#AEBDC4" cx="80.12" cy="145.78" r="1.85"/>
      <circle fill="#AEBDC4" cx="84.45" cy="145.78" r="1.85"/>
      <circle fill="#AEBDC4" cx="88.78" cy="145.78" r="1.85"/>
      <circle fill="#AEBDC4" cx="93.11" cy="145.78" r="1.85"/>
      <circle fill="#AEBDC4" cx="97.44" cy="145.78" r="1.85"/>
      <circle fill="#AEBDC4" cx="101.77" cy="145.78" r="1.85"/>
      <circle fill="#AEBDC4" cx="106.1" cy="145.78" r="1.85"/>
      <circle fill="#AEBDC4" cx="110.43" cy="145.78" r="1.85"/>
      <circle fill="#AEBDC4" cx="114.76" cy="145.78" r="1.85"/>
    </g>
    <g>
      <circle fill="#AEBDC4" cx="23.9" cy="139.85" r="1.85"/>
      <circle fill="#AEBDC4" cx="28.22" cy="139.85" r="1.85"/>
      <circle fill="#AEBDC4" cx="32.54" cy="139.85" r="1.85"/>
      <circle fill="#AEBDC4" cx="36.86" cy="139.85" r="1.85"/>
      <circle fill="#AEBDC4" cx="41.18" cy="139.85" r="1.85"/>
      <circle fill="#AEBDC4" cx="45.5" cy="139.85" r="1.85"/>
      <circle fill="#AEBDC4" cx="49.82" cy="139.85" r="1.85"/>
      <circle fill="#AEBDC4" cx="54.14" cy="139.85" r="1.85"/>
      <circle fill="#AEBDC4" cx="58.47" cy="139.85" r="1.85"/>
      <circle fill="#AEBDC4" cx="62.8" cy="139.85" r="1.85"/>
      <circle fill="#AEBDC4" cx="67.13" cy="139.85" r="1.85"/>
      <circle fill="#AEBDC4" cx="71.46" cy="139.85" r="1.85"/>
      <circle fill="#AEBDC4" cx="75.79" cy="139.85" r="1.85"/>
      <circle fill="#AEBDC4" cx="80.12" cy="139.85" r="1.85"/>
      <circle fill="#AEBDC4" cx="84.45" cy="139.85" r="1.85"/>
      <circle fill="#AEBDC4" cx="88.78" cy="139.85" r="1.85"/>
      <circle fill="#AEBDC4" cx="93.11" cy="139.85" r="1.85"/>
      <circle fill="#AEBDC4" cx="97.44" cy="139.85" r="1.85"/>
      <circle fill="#AEBDC4" cx="101.77" cy="139.85" r="1.85"/>
      <circle fill="#AEBDC4" cx="106.1" cy="139.85" r="1.85"/>
    </g>
    <g>
      <circle fill="#AEBDC4" cx="23.9" cy="133.91" r="1.85"/>
      <circle fill="#AEBDC4" cx="28.22" cy="133.91" r="1.85"/>
      <circle fill="#AEBDC4" cx="32.54" cy="133.91" r="1.85"/>
      <circle fill="#AEBDC4" cx="36.86" cy="133.91" r="1.85"/>
      <circle fill="#AEBDC4" cx="41.18" cy="133.91" r="1.85"/>
      <circle fill="#AEBDC4" cx="45.5" cy="133.91" r="1.85"/>
      <circle fill="#AEBDC4" cx="49.82" cy="133.91" r="1.85"/>
      <circle fill="#AEBDC4" cx="54.14" cy="133.91" r="1.85"/>
      <circle fill="#AEBDC4" cx="58.47" cy="133.91" r="1.85"/>
      <circle fill="#AEBDC4" cx="62.8" cy="133.91" r="1.85"/>
      <circle fill="#AEBDC4" cx="67.13" cy="133.91" r="1.85"/>
      <circle fill="#AEBDC4" cx="71.46" cy="133.91" r="1.85"/>
      <circle fill="#AEBDC4" cx="75.79" cy="133.91" r="1.85"/>
      <circle fill="#AEBDC4" cx="80.12" cy="133.91" r="1.85"/>
      <circle fill="#AEBDC4" cx="84.45" cy="133.91" r="1.85"/>
      <circle fill="#AEBDC4" cx="88.78" cy="133.91" r="1.85"/>
      <circle fill="#AEBDC4" cx="93.11" cy="133.91" r="1.85"/>
      <circle fill="#AEBDC4" cx="97.44" cy="133.91" r="1.85"/>
      <circle fill="#AEBDC4" cx="101.77" cy="133.91" r="1.85"/>
      <circle fill="#AEBDC4" cx="106.1" cy="133.91" r="1.85"/>
    </g>
    <g>
      <circle fill="#AEBDC4" cx="23.9" cy="127.98" r="1.85"/>
      <circle fill="#AEBDC4" cx="28.22" cy="127.98" r="1.85"/>
      <circle fill="#AEBDC4" cx="32.54" cy="127.98" r="1.85"/>
      <circle fill="#AEBDC4" cx="36.86" cy="127.98" r="1.85"/>
      <circle fill="#AEBDC4" cx="41.18" cy="127.98" r="1.85"/>
      <circle fill="#AEBDC4" cx="45.5" cy="127.98" r="1.85"/>
      <circle fill="#AEBDC4" cx="49.82" cy="127.98" r="1.85"/>
      <circle fill="#AEBDC4" cx="54.14" cy="127.98" r="1.85"/>
      <circle fill="#AEBDC4" cx="58.47" cy="127.98" r="1.85"/>
      <circle fill="#AEBDC4" cx="62.8" cy="127.98" r="1.85"/>
      <circle fill="#AEBDC4" cx="67.13" cy="127.98" r="1.85"/>
      <circle fill="#AEBDC4" cx="71.46" cy="127.98" r="1.85"/>
      <circle fill="#AEBDC4" cx="75.79" cy="127.98" r="1.85"/>
      <circle fill="#AEBDC4" cx="80.12" cy="127.98" r="1.85"/>
      <circle fill="#AEBDC4" cx="84.45" cy="127.98" r="1.85"/>
      <circle fill="#AEBDC4" cx="88.78" cy="127.98" r="1.85"/>
      <circle fill="#AEBDC4" cx="93.11" cy="127.98" r="1.85"/>
      <circle fill="#AEBDC4" cx="97.44" cy="127.98" r="1.85"/>
      <circle fill="#AEBDC4" cx="101.77" cy="127.98" r="1.85"/>
      <circle fill="#AEBDC4" cx="106.1" cy="127.98" r="1.85"/>
    </g>
    <g>
      <circle fill="#AEBDC4" cx="23.9" cy="122.05" r="1.85"/>
      <circle fill="#AEBDC4" cx="28.22" cy="122.05" r="1.85"/>
      <circle fill="#AEBDC4" cx="32.54" cy="122.05" r="1.85"/>
      <circle fill="#AEBDC4" cx="36.86" cy="122.05" r="1.85"/>
      <circle fill="#AEBDC4" cx="41.18" cy="122.05" r="1.85"/>
      <circle fill="#AEBDC4" cx="45.5" cy="122.05" r="1.85"/>
      <circle fill="#AEBDC4" cx="49.82" cy="122.05" r="1.85"/>
      <circle fill="#AEBDC4" cx="54.14" cy="122.05" r="1.85"/>
      <circle fill="#AEBDC4" cx="58.47" cy="122.05" r="1.85"/>
      <circle fill="#AEBDC4" cx="62.8" cy="122.05" r="1.85"/>
      <circle fill="#AEBDC4" cx="67.13" cy="122.05" r="1.85"/>
      <circle fill="#AEBDC4" cx="71.46" cy="122.05" r="1.85"/>
      <circle fill="#AEBDC4" cx="75.79" cy="122.05" r="1.85"/>
      <circle fill="#AEBDC4" cx="80.12" cy="122.05" r="1.85"/>
      <circle fill="#AEBDC4" cx="84.45" cy="122.05" r="1.85"/>
      <circle fill="#AEBDC4" cx="88.78" cy="122.05" r="1.85"/>
      <circle fill="#AEBDC4" cx="93.11" cy="122.05" r="1.85"/>
      <circle fill="#AEBDC4" cx="97.44" cy="122.05" r="1.85"/>
      <circle fill="#AEBDC4" cx="101.77" cy="122.05" r="1.85"/>
      <circle fill="#AEBDC4" cx="106.1" cy="122.05" r="1.85"/>
    </g>
    <g>
      <circle fill="#AEBDC4" cx="23.9" cy="116.12" r="1.85"/>
      <circle fill="#AEBDC4" cx="28.22" cy="116.12" r="1.85"/>
      <circle fill="#AEBDC4" cx="32.54" cy="116.12" r="1.85"/>
      <circle fill="#AEBDC4" cx="36.86" cy="116.12" r="1.85"/>
      <circle fill="#AEBDC4" cx="41.18" cy="116.12" r="1.85"/>
      <circle fill="#AEBDC4" cx="45.5" cy="116.12" r="1.85"/>
      <circle fill="#AEBDC4" cx="49.82" cy="116.12" r="1.85"/>
      <circle fill="#AEBDC4" cx="54.14" cy="116.12" r="1.85"/>
      <circle fill="#AEBDC4" cx="58.47" cy="116.12" r="1.85"/>
      <circle fill="#AEBDC4" cx="62.8" cy="116.12" r="1.85"/>
      <circle fill="#AEBDC4" cx="67.13" cy="116.12" r="1.85"/>
      <circle fill="#AEBDC4" cx="71.46" cy="116.12" r="1.85"/>
      <circle fill="#AEBDC4" cx="75.79" cy="116.12" r="1.85"/>
      <circle fill="#AEBDC4" cx="80.12" cy="116.12" r="1.85"/>
      <circle fill="#AEBDC4" cx="84.45" cy="116.12" r="1.85"/>
      <circle fill="#AEBDC4" cx="88.78" cy="116.12" r="1.85"/>
      <circle fill="#AEBDC4" cx="93.11" cy="116.12" r="1.85"/>
      <circle fill="#AEBDC4" cx="97.44" cy="116.12" r="1.85"/>
      <circle fill="#AEBDC4" cx="101.77" cy="116.12" r="1.85"/>
      <circle fill="#AEBDC4" cx="106.1" cy="116.12" r="1.85"/>
    </g>
    <g>
      <circle fill="#AEBDC4" cx="15.24" cy="110.19" r="1.85"/>
      <circle fill="#AEBDC4" cx="19.56" cy="110.19" r="1.85"/>
      <circle fill="#AEBDC4" cx="23.88" cy="110.19" r="1.85"/>
      <circle fill="#AEBDC4" cx="28.2" cy="110.19" r="1.85"/>
      <circle fill="#AEBDC4" cx="32.52" cy="110.19" r="1.85"/>
      <circle fill="#AEBDC4" cx="36.84" cy="110.19" r="1.85"/>
      <circle fill="#AEBDC4" cx="41.16" cy="110.19" r="1.85"/>
      <circle fill="#AEBDC4" cx="45.48" cy="110.19" r="1.85"/>
      <circle fill="#AEBDC4" cx="49.8" cy="110.19" r="1.85"/>
      <circle fill="#AEBDC4" cx="54.14" cy="110.19" r="1.85"/>
      <circle fill="#AEBDC4" cx="58.47" cy="110.19" r="1.85"/>
      <circle fill="#AEBDC4" cx="62.8" cy="110.19" r="1.85"/>
      <circle fill="#AEBDC4" cx="67.13" cy="110.19" r="1.85"/>
      <circle fill="#AEBDC4" cx="71.46" cy="110.19" r="1.85"/>
      <circle fill="#AEBDC4" cx="75.79" cy="110.19" r="1.85"/>
      <circle fill="#AEBDC4" cx="80.12" cy="110.19" r="1.85"/>
      <circle fill="#AEBDC4" cx="84.45" cy="110.19" r="1.85"/>
      <circle fill="#AEBDC4" cx="88.78" cy="110.19" r="1.85"/>
      <circle fill="#AEBDC4" cx="93.11" cy="110.19" r="1.85"/>
      <circle fill="#AEBDC4" cx="97.44" cy="110.19" r="1.85"/>
      <circle fill="#AEBDC4" cx="101.77" cy="110.19" r="1.85"/>
      <circle fill="#AEBDC4" cx="106.1" cy="110.19" r="1.85"/>
      <circle fill="#AEBDC4" cx="110.43" cy="110.19" r="1.85"/>
      <circle fill="#AEBDC4" cx="114.76" cy="110.19" r="1.85"/>
    </g>
    <g>
      <circle fill="#AEBDC4" cx="15.24" cy="104.26" r="1.85"/>
      <circle fill="#AEBDC4" cx="19.56" cy="104.26" r="1.85"/>
      <circle fill="#AEBDC4" cx="23.88" cy="104.26" r="1.85"/>
      <circle fill="#AEBDC4" cx="28.2" cy="104.26" r="1.85"/>
      <circle fill="#AEBDC4" cx="32.52" cy="104.26" r="1.85"/>
      <circle fill="#AEBDC4" cx="36.84" cy="104.26" r="1.85"/>
      <circle fill="#AEBDC4" cx="41.16" cy="104.26" r="1.85"/>
      <circle fill="#AEBDC4" cx="45.48" cy="104.26" r="1.85"/>
      <circle fill="#AEBDC4" cx="49.8" cy="104.26" r="1.85"/>
      <circle fill="#AEBDC4" cx="54.14" cy="104.26" r="1.85"/>
      <circle fill="#AEBDC4" cx="58.47" cy="104.26" r="1.85"/>
      <circle fill="#AEBDC4" cx="62.8" cy="104.26" r="1.85"/>
      <circle fill="#AEBDC4" cx="67.13" cy="104.26" r="1.85"/>
      <circle fill="#AEBDC4" cx="71.46" cy="104.26" r="1.85"/>
      <circle fill="#AEBDC4" cx="75.79" cy="104.26" r="1.85"/>
      <circle fill="#AEBDC4" cx="80.12" cy="104.26" r="1.85"/>
      <circle fill="#AEBDC4" cx="84.45" cy="104.26" r="1.85"/>
      <circle fill="#AEBDC4" cx="88.78" cy="104.26" r="1.85"/>
      <circle fill="#AEBDC4" cx="93.11" cy="104.26" r="1.85"/>
      <circle fill="#AEBDC4" cx="97.44" cy="104.26" r="1.85"/>
      <circle fill="#AEBDC4" cx="101.77" cy="104.26" r="1.85"/>
      <circle fill="#AEBDC4" cx="106.1" cy="104.26" r="1.85"/>
      <circle fill="#AEBDC4" cx="110.43" cy="104.26" r="1.85"/>
      <circle fill="#AEBDC4" cx="114.76" cy="104.26" r="1.85"/>
    </g>
    <g>
      <circle fill="#AEBDC4" cx="15.24" cy="98.33" r="1.85"/>
      <circle fill="#AEBDC4" cx="19.56" cy="98.33" r="1.85"/>
      <circle fill="#AEBDC4" cx="23.88" cy="98.33" r="1.85"/>
      <circle fill="#AEBDC4" cx="28.2" cy="98.33" r="1.85"/>
      <circle fill="#AEBDC4" cx="32.52" cy="98.33" r="1.85"/>
      <circle fill="#AEBDC4" cx="36.84" cy="98.33" r="1.85"/>
      <circle fill="#AEBDC4" cx="41.16" cy="98.33" r="1.85"/>
      <circle fill="#AEBDC4" cx="45.48" cy="98.33" r="1.85"/>
      <circle fill="#AEBDC4" cx="49.8" cy="98.33" r="1.85"/>
      <circle fill="#AEBDC4" cx="54.14" cy="98.33" r="1.85"/>
      <circle fill="#AEBDC4" cx="58.47" cy="98.33" r="1.85"/>
      <circle fill="#AEBDC4" cx="62.8" cy="98.33" r="1.85"/>
      <circle fill="#AEBDC4" cx="67.13" cy="98.33" r="1.85"/>
      <circle fill="#AEBDC4" cx="71.46" cy="98.33" r="1.85"/>
      <circle fill="#AEBDC4" cx="75.79" cy="98.33" r="1.85"/>
      <circle fill="#AEBDC4" cx="80.12" cy="98.33" r="1.85"/>
      <circle fill="#AEBDC4" cx="84.45" cy="98.33" r="1.85"/>
      <circle fill="#AEBDC4" cx="88.78" cy="98.33" r="1.85"/>
      <circle fill="#AEBDC4" cx="93.11" cy="98.33" r="1.85"/>
      <circle fill="#AEBDC4" cx="97.44" cy="98.33" r="1.85"/>
      <circle fill="#AEBDC4" cx="101.77" cy="98.33" r="1.85"/>
      <circle fill="#AEBDC4" cx="106.1" cy="98.33" r="1.85"/>
      <circle fill="#AEBDC4" cx="110.43" cy="98.33" r="1.85"/>
      <circle fill="#AEBDC4" cx="114.76" cy="98.33" r="1.85"/>
    </g>
    <g>
      <circle fill="#AEBDC4" cx="15.24" cy="92.4" r="1.85"/>
      <circle fill="#AEBDC4" cx="19.56" cy="92.4" r="1.85"/>
      <circle fill="#AEBDC4" cx="23.88" cy="92.4" r="1.85"/>
      <circle fill="#AEBDC4" cx="28.2" cy="92.4" r="1.85"/>
      <circle fill="#AEBDC4" cx="32.52" cy="92.4" r="1.85"/>
      <circle fill="#AEBDC4" cx="36.84" cy="92.4" r="1.85"/>
      <circle fill="#AEBDC4" cx="41.16" cy="92.4" r="1.85"/>
      <circle fill="#AEBDC4" cx="45.48" cy="92.4" r="1.85"/>
      <circle fill="#AEBDC4" cx="49.8" cy="92.4" r="1.85"/>
      <circle fill="#AEBDC4" cx="54.14" cy="92.4" r="1.85"/>
      <circle fill="#AEBDC4" cx="58.47" cy="92.4" r="1.85"/>
      <circle fill="#AEBDC4" cx="62.8" cy="92.4" r="1.85"/>
      <circle fill="#AEBDC4" cx="67.13" cy="92.4" r="1.85"/>
      <circle fill="#AEBDC4" cx="71.46" cy="92.4" r="1.85"/>
      <circle fill="#AEBDC4" cx="75.79" cy="92.4" r="1.85"/>
      <circle fill="#AEBDC4" cx="80.12" cy="92.4" r="1.85"/>
      <circle fill="#AEBDC4" cx="84.45" cy="92.4" r="1.85"/>
      <circle fill="#AEBDC4" cx="88.78" cy="92.4" r="1.85"/>
      <circle fill="#AEBDC4" cx="93.11" cy="92.4" r="1.85"/>
      <circle fill="#AEBDC4" cx="97.44" cy="92.4" r="1.85"/>
      <circle fill="#AEBDC4" cx="101.77" cy="92.4" r="1.85"/>
      <circle fill="#AEBDC4" cx="106.1" cy="92.4" r="1.85"/>
      <circle fill="#AEBDC4" cx="110.43" cy="92.4" r="1.85"/>
      <circle fill="#AEBDC4" cx="114.76" cy="92.4" r="1.85"/>
    </g>
    <g>
      <circle fill="#AEBDC4" cx="15.24" cy="86.47" r="1.85"/>
      <circle fill="#AEBDC4" cx="19.56" cy="86.47" r="1.85"/>
      <circle fill="#AEBDC4" cx="23.88" cy="86.47" r="1.85"/>
      <circle fill="#AEBDC4" cx="28.2" cy="86.47" r="1.85"/>
      <circle fill="#AEBDC4" cx="32.52" cy="86.47" r="1.85"/>
      <circle fill="#AEBDC4" cx="36.84" cy="86.47" r="1.85"/>
      <circle fill="#AEBDC4" cx="41.16" cy="86.47" r="1.85"/>
      <circle fill="#AEBDC4" cx="45.48" cy="86.47" r="1.85"/>
      <circle fill="#AEBDC4" cx="49.8" cy="86.47" r="1.85"/>
      <circle fill="#AEBDC4" cx="54.14" cy="86.47" r="1.85"/>
      <circle fill="#AEBDC4" cx="58.47" cy="86.47" r="1.85"/>
      <circle fill="#AEBDC4" cx="62.8" cy="86.47" r="1.85"/>
      <circle fill="#AEBDC4" cx="67.13" cy="86.47" r="1.85"/>
      <circle fill="#AEBDC4" cx="71.46" cy="86.47" r="1.85"/>
      <circle fill="#AEBDC4" cx="75.79" cy="86.47" r="1.85"/>
      <circle fill="#AEBDC4" cx="80.12" cy="86.47" r="1.85"/>
      <circle fill="#AEBDC4" cx="84.45" cy="86.47" r="1.85"/>
      <circle fill="#AEBDC4" cx="88.78" cy="86.47" r="1.85"/>
      <circle fill="#AEBDC4" cx="93.11" cy="86.47" r="1.85"/>
      <circle fill="#AEBDC4" cx="97.44" cy="86.47" r="1.85"/>
      <circle fill="#AEBDC4" cx="101.77" cy="86.47" r="1.85"/>
      <circle fill="#AEBDC4" cx="106.1" cy="86.47" r="1.85"/>
      <circle fill="#AEBDC4" cx="110.43" cy="86.47" r="1.85"/>
      <circle fill="#AEBDC4" cx="114.76" cy="86.47" r="1.85"/>
    </g>
    <g>
      <circle fill="#AEBDC4" cx="15.24" cy="80.54" r="1.85"/>
      <circle fill="#AEBDC4" cx="19.56" cy="80.54" r="1.85"/>
      <circle fill="#AEBDC4" cx="23.88" cy="80.54" r="1.85"/>
      <circle fill="#AEBDC4" cx="28.2" cy="80.54" r="1.85"/>
      <circle fill="#AEBDC4" cx="32.52" cy="80.54" r="1.85"/>
      <circle fill="#AEBDC4" cx="36.84" cy="80.54" r="1.85"/>
      <circle fill="#AEBDC4" cx="41.16" cy="80.54" r="1.85"/>
      <circle fill="#AEBDC4" cx="45.48" cy="80.54" r="1.85"/>
      <circle fill="#AEBDC4" cx="49.8" cy="80.54" r="1.85"/>
      <circle fill="#AEBDC4" cx="54.14" cy="80.54" r="1.85"/>
      <circle fill="#AEBDC4" cx="58.47" cy="80.54" r="1.85"/>
      <circle fill="#AEBDC4" cx="62.8" cy="80.54" r="1.85"/>
      <circle fill="#AEBDC4" cx="67.13" cy="80.54" r="1.85"/>
      <circle fill="#AEBDC4" cx="71.46" cy="80.54" r="1.85"/>
      <circle fill="#AEBDC4" cx="75.79" cy="80.54" r="1.85"/>
      <circle fill="#AEBDC4" cx="80.12" cy="80.54" r="1.85"/>
      <circle fill="#AEBDC4" cx="84.45" cy="80.54" r="1.85"/>
      <circle fill="#AEBDC4" cx="88.78" cy="80.54" r="1.85"/>
      <circle fill="#AEBDC4" cx="93.11" cy="80.54" r="1.85"/>
      <circle fill="#AEBDC4" cx="97.44" cy="80.54" r="1.85"/>
      <circle fill="#AEBDC4" cx="101.77" cy="80.54" r="1.85"/>
      <circle fill="#AEBDC4" cx="106.1" cy="80.54" r="1.85"/>
      <circle fill="#AEBDC4" cx="110.43" cy="80.54" r="1.85"/>
      <circle fill="#AEBDC4" cx="114.76" cy="80.54" r="1.85"/>
    </g>
    <g>
      <circle fill="#AEBDC4" cx="15.24" cy="74.61" r="1.85"/>
      <circle fill="#AEBDC4" cx="19.56" cy="74.61" r="1.85"/>
      <circle fill="#AEBDC4" cx="23.88" cy="74.61" r="1.85"/>
      <circle fill="#AEBDC4" cx="28.2" cy="74.61" r="1.85"/>
      <circle fill="#AEBDC4" cx="32.52" cy="74.61" r="1.85"/>
      <circle fill="#AEBDC4" cx="36.84" cy="74.61" r="1.85"/>
      <circle fill="#AEBDC4" cx="41.16" cy="74.61" r="1.85"/>
      <circle fill="#AEBDC4" cx="45.48" cy="74.61" r="1.85"/>
      <circle fill="#AEBDC4" cx="49.8" cy="74.61" r="1.85"/>
      <circle fill="#AEBDC4" cx="54.14" cy="74.61" r="1.85"/>
      <circle fill="#AEBDC4" cx="58.47" cy="74.61" r="1.85"/>
      <circle fill="#AEBDC4" cx="62.8" cy="74.61" r="1.85"/>
      <circle fill="#AEBDC4" cx="67.13" cy="74.61" r="1.85"/>
      <circle fill="#AEBDC4" cx="71.46" cy="74.61" r="1.85"/>
      <circle fill="#AEBDC4" cx="75.79" cy="74.61" r="1.85"/>
      <circle fill="#AEBDC4" cx="80.12" cy="74.61" r="1.85"/>
      <circle fill="#AEBDC4" cx="84.45" cy="74.61" r="1.85"/>
      <circle fill="#AEBDC4" cx="88.78" cy="74.61" r="1.85"/>
      <circle fill="#AEBDC4" cx="93.11" cy="74.61" r="1.85"/>
      <circle fill="#AEBDC4" cx="97.44" cy="74.61" r="1.85"/>
      <circle fill="#AEBDC4" cx="101.77" cy="74.61" r="1.85"/>
      <circle fill="#AEBDC4" cx="106.1" cy="74.61" r="1.85"/>
      <circle fill="#AEBDC4" cx="110.43" cy="74.61" r="1.85"/>
      <circle fill="#AEBDC4" cx="114.76" cy="74.61" r="1.85"/>
    </g>
    <g>
      <circle fill="#AEBDC4" cx="15.24" cy="68.68" r="1.85"/>
      <circle fill="#AEBDC4" cx="19.56" cy="68.68" r="1.85"/>
      <circle fill="#AEBDC4" cx="23.88" cy="68.68" r="1.85"/>
      <circle fill="#AEBDC4" cx="28.2" cy="68.68" r="1.85"/>
      <circle fill="#AEBDC4" cx="32.52" cy="68.68" r="1.85"/>
      <circle fill="#AEBDC4" cx="36.84" cy="68.68" r="1.85"/>
      <circle fill="#AEBDC4" cx="41.16" cy="68.68" r="1.85"/>
      <circle fill="#AEBDC4" cx="45.48" cy="68.68" r="1.85"/>
      <circle fill="#AEBDC4" cx="49.8" cy="68.68" r="1.85"/>
      <circle fill="#AEBDC4" cx="54.14" cy="68.68" r="1.85"/>
      <circle fill="#AEBDC4" cx="58.47" cy="68.68" r="1.85"/>
      <circle fill="#AEBDC4" cx="62.8" cy="68.68" r="1.85"/>
      <circle fill="#AEBDC4" cx="67.13" cy="68.68" r="1.85"/>
      <circle fill="#AEBDC4" cx="71.46" cy="68.68" r="1.85"/>
      <circle fill="#AEBDC4" cx="75.79" cy="68.68" r="1.85"/>
      <circle fill="#AEBDC4" cx="80.12" cy="68.68" r="1.85"/>
      <circle fill="#AEBDC4" cx="84.45" cy="68.68" r="1.85"/>
      <circle fill="#AEBDC4" cx="88.78" cy="68.68" r="1.85"/>
      <circle fill="#AEBDC4" cx="93.11" cy="68.68" r="1.85"/>
      <circle fill="#AEBDC4" cx="97.44" cy="68.68" r="1.85"/>
      <circle fill="#AEBDC4" cx="101.77" cy="68.68" r="1.85"/>
      <circle fill="#AEBDC4" cx="106.1" cy="68.68" r="1.85"/>
      <circle fill="#AEBDC4" cx="110.43" cy="68.68" r="1.85"/>
      <circle fill="#AEBDC4" cx="114.76" cy="68.68" r="1.85"/>
    </g>
    <g>
      <circle fill="#AEBDC4" cx="15.24" cy="62.74" r="1.85"/>
      <circle fill="#AEBDC4" cx="19.56" cy="62.74" r="1.85"/>
      <circle fill="#AEBDC4" cx="23.88" cy="62.74" r="1.85"/>
      <circle fill="#AEBDC4" cx="28.2" cy="62.74" r="1.85"/>
      <circle fill="#AEBDC4" cx="32.52" cy="62.74" r="1.85"/>
      <circle fill="#AEBDC4" cx="36.84" cy="62.74" r="1.85"/>
      <circle fill="#AEBDC4" cx="41.16" cy="62.74" r="1.85"/>
      <circle fill="#AEBDC4" cx="45.48" cy="62.74" r="1.85"/>
      <circle fill="#AEBDC4" cx="49.8" cy="62.74" r="1.85"/>
      <circle fill="#AEBDC4" cx="54.14" cy="62.74" r="1.85"/>
      <circle fill="#AEBDC4" cx="58.47" cy="62.74" r="1.85"/>
      <circle fill="#AEBDC4" cx="62.8" cy="62.74" r="1.85"/>
      <circle fill="#AEBDC4" cx="67.13" cy="62.74" r="1.85"/>
      <circle fill="#AEBDC4" cx="71.46" cy="62.74" r="1.85"/>
      <circle fill="#AEBDC4" cx="75.79" cy="62.74" r="1.85"/>
      <circle fill="#AEBDC4" cx="80.12" cy="62.74" r="1.85"/>
      <circle fill="#AEBDC4" cx="84.45" cy="62.74" r="1.85"/>
      <circle fill="#AEBDC4" cx="88.78" cy="62.74" r="1.85"/>
      <circle fill="#AEBDC4" cx="93.11" cy="62.74" r="1.85"/>
      <circle fill="#AEBDC4" cx="97.44" cy="62.74" r="1.85"/>
      <circle fill="#AEBDC4" cx="101.77" cy="62.74" r="1.85"/>
      <circle fill="#AEBDC4" cx="106.1" cy="62.74" r="1.85"/>
      <circle fill="#AEBDC4" cx="110.43" cy="62.74" r="1.85"/>
      <circle fill="#AEBDC4" cx="114.76" cy="62.74" r="1.85"/>
    </g>
    <g>
      <circle fill="#AEBDC4" cx="15.24" cy="56.81" r="1.85"/>
      <circle fill="#AEBDC4" cx="19.56" cy="56.81" r="1.85"/>
      <circle fill="#AEBDC4" cx="23.88" cy="56.81" r="1.85"/>
      <circle fill="#AEBDC4" cx="28.2" cy="56.81" r="1.85"/>
      <circle fill="#AEBDC4" cx="32.52" cy="56.81" r="1.85"/>
      <circle fill="#AEBDC4" cx="36.84" cy="56.81" r="1.85"/>
      <circle fill="#AEBDC4" cx="41.16" cy="56.81" r="1.85"/>
      <circle fill="#AEBDC4" cx="45.48" cy="56.81" r="1.85"/>
      <circle fill="#AEBDC4" cx="49.8" cy="56.81" r="1.85"/>
      <circle fill="#AEBDC4" cx="54.14" cy="56.81" r="1.85"/>
      <circle fill="#AEBDC4" cx="58.47" cy="56.81" r="1.85"/>
      <circle fill="#AEBDC4" cx="62.8" cy="56.81" r="1.85"/>
      <circle fill="#AEBDC4" cx="67.13" cy="56.81" r="1.85"/>
      <circle fill="#AEBDC4" cx="71.46" cy="56.81" r="1.85"/>
      <circle fill="#AEBDC4" cx="75.79" cy="56.81" r="1.85"/>
      <circle fill="#AEBDC4" cx="80.12" cy="56.81" r="1.85"/>
      <circle fill="#AEBDC4" cx="84.45" cy="56.81" r="1.85"/>
      <circle fill="#AEBDC4" cx="88.78" cy="56.81" r="1.85"/>
      <circle fill="#AEBDC4" cx="93.11" cy="56.81" r="1.85"/>
      <circle fill="#AEBDC4" cx="97.44" cy="56.81" r="1.85"/>
      <circle fill="#AEBDC4" cx="101.77" cy="56.81" r="1.85"/>
      <circle fill="#AEBDC4" cx="106.1" cy="56.81" r="1.85"/>
      <circle fill="#AEBDC4" cx="110.43" cy="56.81" r="1.85"/>
      <circle fill="#AEBDC4" cx="114.76" cy="56.81" r="1.85"/>
    </g>
    <g>
      <circle fill="#AEBDC4" cx="15.24" cy="50.88" r="1.85"/>
      <circle fill="#AEBDC4" cx="19.56" cy="50.88" r="1.85"/>
      <circle fill="#AEBDC4" cx="23.88" cy="50.88" r="1.85"/>
      <circle fill="#AEBDC4" cx="28.2" cy="50.88" r="1.85"/>
      <circle fill="#AEBDC4" cx="32.52" cy="50.88" r="1.85"/>
      <circle fill="#AEBDC4" cx="36.84" cy="50.88" r="1.85"/>
      <circle fill="#AEBDC4" cx="41.16" cy="50.88" r="1.85"/>
      <circle fill="#AEBDC4" cx="45.48" cy="50.88" r="1.85"/>
      <circle fill="#AEBDC4" cx="49.8" cy="50.88" r="1.85"/>
      <circle fill="#AEBDC4" cx="54.14" cy="50.88" r="1.85"/>
      <circle fill="#AEBDC4" cx="58.47" cy="50.88" r="1.85"/>
      <circle fill="#AEBDC4" cx="62.8" cy="50.88" r="1.85"/>
      <circle fill="#AEBDC4" cx="67.13" cy="50.88" r="1.85"/>
      <circle fill="#AEBDC4" cx="71.46" cy="50.88" r="1.85"/>
      <circle fill="#AEBDC4" cx="75.79" cy="50.88" r="1.85"/>
      <circle fill="#AEBDC4" cx="80.12" cy="50.88" r="1.85"/>
      <circle fill="#AEBDC4" cx="84.45" cy="50.88" r="1.85"/>
      <circle fill="#AEBDC4" cx="88.78" cy="50.88" r="1.85"/>
      <circle fill="#AEBDC4" cx="93.11" cy="50.88" r="1.85"/>
      <circle fill="#AEBDC4" cx="97.44" cy="50.88" r="1.85"/>
      <circle fill="#AEBDC4" cx="101.77" cy="50.88" r="1.85"/>
      <circle fill="#AEBDC4" cx="106.1" cy="50.88" r="1.85"/>
      <circle fill="#AEBDC4" cx="110.43" cy="50.88" r="1.85"/>
      <circle fill="#AEBDC4" cx="114.76" cy="50.88" r="1.85"/>
    </g>
    <g>
      <circle fill="#AEBDC4" cx="15.24" cy="44.95" r="1.85"/>
      <circle fill="#AEBDC4" cx="19.56" cy="44.95" r="1.85"/>
      <circle fill="#AEBDC4" cx="23.88" cy="44.95" r="1.85"/>
      <circle fill="#AEBDC4" cx="28.2" cy="44.95" r="1.85"/>
      <circle fill="#AEBDC4" cx="32.52" cy="44.95" r="1.85"/>
      <circle fill="#AEBDC4" cx="36.84" cy="44.95" r="1.85"/>
      <circle fill="#AEBDC4" cx="41.16" cy="44.95" r="1.85"/>
      <circle fill="#AEBDC4" cx="45.48" cy="44.95" r="1.85"/>
      <circle fill="#AEBDC4" cx="49.8" cy="44.95" r="1.85"/>
      <circle fill="#AEBDC4" cx="54.14" cy="44.95" r="1.85"/>
      <circle fill="#AEBDC4" cx="58.47" cy="44.95" r="1.85"/>
      <circle fill="#AEBDC4" cx="62.8" cy="44.95" r="1.85"/>
      <circle fill="#AEBDC4" cx="67.13" cy="44.95" r="1.85"/>
      <circle fill="#AEBDC4" cx="71.46" cy="44.95" r="1.85"/>
      <circle fill="#AEBDC4" cx="75.79" cy="44.95" r="1.85"/>
      <circle fill="#AEBDC4" cx="80.12" cy="44.95" r="1.85"/>
      <circle fill="#AEBDC4" cx="84.45" cy="44.95" r="1.85"/>
      <circle fill="#AEBDC4" cx="88.78" cy="44.95" r="1.85"/>
      <circle fill="#AEBDC4" cx="93.11" cy="44.95" r="1.85"/>
      <circle fill="#AEBDC4" cx="97.44" cy="44.95" r="1.85"/>
      <circle fill="#AEBDC4" cx="101.77" cy="44.95" r="1.85"/>
      <circle fill="#AEBDC4" cx="106.1" cy="44.95" r="1.85"/>
      <circle fill="#AEBDC4" cx="110.43" cy="44.95" r="1.85"/>
      <circle fill="#AEBDC4" cx="114.76" cy="44.95" r="1.85"/>
    </g>
    <g>
      <circle fill="#AEBDC4" cx="15.24" cy="39.02" r="1.85"/>
      <circle fill="#AEBDC4" cx="19.56" cy="39.02" r="1.85"/>
      <circle fill="#AEBDC4" cx="23.88" cy="39.02" r="1.85"/>
      <circle fill="#AEBDC4" cx="28.2" cy="39.02" r="1.85"/>
      <circle fill="#AEBDC4" cx="32.52" cy="39.02" r="1.85"/>
      <circle fill="#AEBDC4" cx="36.84" cy="39.02" r="1.85"/>
      <circle fill="#AEBDC4" cx="41.16" cy="39.02" r="1.85"/>
      <circle fill="#AEBDC4" cx="45.48" cy="39.02" r="1.85"/>
      <circle fill="#AEBDC4" cx="49.8" cy="39.02" r="1.85"/>
      <circle fill="#AEBDC4" cx="54.14" cy="39.02" r="1.85"/>
      <circle fill="#AEBDC4" cx="58.47" cy="39.02" r="1.85"/>
      <circle fill="#AEBDC4" cx="62.8" cy="39.02" r="1.85"/>
      <circle fill="#AEBDC4" cx="67.13" cy="39.02" r="1.85"/>
      <circle fill="#AEBDC4" cx="71.46" cy="39.02" r="1.85"/>
      <circle fill="#AEBDC4" cx="75.79" cy="39.02" r="1.85"/>
      <circle fill="#AEBDC4" cx="80.12" cy="39.02" r="1.85"/>
      <circle fill="#AEBDC4" cx="84.45" cy="39.02" r="1.85"/>
      <circle fill="#AEBDC4" cx="88.78" cy="39.02" r="1.85"/>
      <circle fill="#AEBDC4" cx="93.11" cy="39.02" r="1.85"/>
      <circle fill="#AEBDC4" cx="97.44" cy="39.02" r="1.85"/>
      <circle fill="#AEBDC4" cx="101.77" cy="39.02" r="1.85"/>
      <circle fill="#AEBDC4" cx="106.1" cy="39.02" r="1.85"/>
      <circle fill="#AEBDC4" cx="110.43" cy="39.02" r="1.85"/>
      <circle fill="#AEBDC4" cx="114.76" cy="39.02" r="1.85"/>
    </g>
    <g>
      <circle fill="#AEBDC4" cx="15.24" cy="33.09" r="1.85"/>
      <circle fill="#AEBDC4" cx="19.56" cy="33.09" r="1.85"/>
      <circle fill="#AEBDC4" cx="23.88" cy="33.09" r="1.85"/>
      <circle fill="#AEBDC4" cx="28.2" cy="33.09" r="1.85"/>
      <circle fill="#AEBDC4" cx="32.52" cy="33.09" r="1.85"/>
      <circle fill="#AEBDC4" cx="36.84" cy="33.09" r="1.85"/>
      <circle fill="#AEBDC4" cx="41.16" cy="33.09" r="1.85"/>
      <circle fill="#AEBDC4" cx="45.48" cy="33.09" r="1.85"/>
      <circle fill="#AEBDC4" cx="49.8" cy="33.09" r="1.85"/>
      <circle fill="#AEBDC4" cx="54.14" cy="33.09" r="1.85"/>
      <circle fill="#AEBDC4" cx="58.47" cy="33.09" r="1.85"/>
      <circle fill="#AEBDC4" cx="62.8" cy="33.09" r="1.85"/>
      <circle fill="#AEBDC4" cx="67.13" cy="33.09" r="1.85"/>
      <circle fill="#AEBDC4" cx="71.46" cy="33.09" r="1.85"/>
      <circle fill="#AEBDC4" cx="75.79" cy="33.09" r="1.85"/>
      <circle fill="#AEBDC4" cx="80.12" cy="33.09" r="1.85"/>
      <circle fill="#AEBDC4" cx="84.45" cy="33.09" r="1.85"/>
      <circle fill="#AEBDC4" cx="88.78" cy="33.09" r="1.85"/>
      <circle fill="#AEBDC4" cx="93.11" cy="33.09" r="1.85"/>
      <circle fill="#AEBDC4" cx="97.44" cy="33.09" r="1.85"/>
      <circle fill="#AEBDC4" cx="101.77" cy="33.09" r="1.85"/>
      <circle fill="#AEBDC4" cx="106.1" cy="33.09" r="1.85"/>
      <circle fill="#AEBDC4" cx="110.43" cy="33.09" r="1.85"/>
      <circle fill="#AEBDC4" cx="114.76" cy="33.09" r="1.85"/>
    </g>
    <g>
      <circle fill="#AEBDC4" cx="15.24" cy="27.16" r="1.85"/>
      <circle fill="#AEBDC4" cx="19.56" cy="27.16" r="1.85"/>
      <circle fill="#AEBDC4" cx="23.88" cy="27.16" r="1.85"/>
      <circle fill="#AEBDC4" cx="28.2" cy="27.16" r="1.85"/>
      <circle fill="#AEBDC4" cx="32.52" cy="27.16" r="1.85"/>
      <circle fill="#AEBDC4" cx="36.84" cy="27.16" r="1.85"/>
      <circle fill="#AEBDC4" cx="41.16" cy="27.16" r="1.85"/>
      <circle fill="#AEBDC4" cx="45.48" cy="27.16" r="1.85"/>
      <circle fill="#AEBDC4" cx="49.8" cy="27.16" r="1.85"/>
      <circle fill="#AEBDC4" cx="54.14" cy="27.16" r="1.85"/>
      <circle fill="#AEBDC4" cx="58.47" cy="27.16" r="1.85"/>
      <circle fill="#AEBDC4" cx="62.8" cy="27.16" r="1.85"/>
      <circle fill="#AEBDC4" cx="67.13" cy="27.16" r="1.85"/>
      <circle fill="#AEBDC4" cx="71.46" cy="27.16" r="1.85"/>
      <circle fill="#AEBDC4" cx="75.79" cy="27.16" r="1.85"/>
      <circle fill="#AEBDC4" cx="80.12" cy="27.16" r="1.85"/>
      <circle fill="#AEBDC4" cx="84.45" cy="27.16" r="1.85"/>
      <circle fill="#AEBDC4" cx="88.78" cy="27.16" r="1.85"/>
      <circle fill="#AEBDC4" cx="93.11" cy="27.16" r="1.85"/>
      <circle fill="#AEBDC4" cx="97.44" cy="27.16" r="1.85"/>
      <circle fill="#AEBDC4" cx="101.77" cy="27.16" r="1.85"/>
      <circle fill="#AEBDC4" cx="106.1" cy="27.16" r="1.85"/>
      <circle fill="#AEBDC4" cx="110.43" cy="27.16" r="1.85"/>
      <circle fill="#AEBDC4" cx="114.76" cy="27.16" r="1.85"/>
    </g>
    <g>
      <circle fill="#AEBDC4" cx="15.24" cy="21.23" r="1.85"/>
      <circle fill="#AEBDC4" cx="19.56" cy="21.23" r="1.85"/>
      <circle fill="#AEBDC4" cx="23.88" cy="21.23" r="1.85"/>
      <circle fill="#AEBDC4" cx="28.2" cy="21.23" r="1.85"/>
      <circle fill="#AEBDC4" cx="32.52" cy="21.23" r="1.85"/>
      <circle fill="#AEBDC4" cx="36.84" cy="21.23" r="1.85"/>
      <circle fill="#AEBDC4" cx="41.16" cy="21.23" r="1.85"/>
      <circle fill="#AEBDC4" cx="45.48" cy="21.23" r="1.85"/>
      <circle fill="#AEBDC4" cx="49.8" cy="21.23" r="1.85"/>
      <circle fill="#AEBDC4" cx="54.14" cy="21.23" r="1.85"/>
      <circle fill="#AEBDC4" cx="58.47" cy="21.23" r="1.85"/>
      <circle fill="#AEBDC4" cx="62.8" cy="21.23" r="1.85"/>
      <circle fill="#AEBDC4" cx="67.13" cy="21.23" r="1.85"/>
      <circle fill="#AEBDC4" cx="71.46" cy="21.23" r="1.85"/>
      <circle fill="#AEBDC4" cx="75.79" cy="21.23" r="1.85"/>
      <circle fill="#AEBDC4" cx="80.12" cy="21.23" r="1.85"/>
      <circle fill="#AEBDC4" cx="84.45" cy="21.23" r="1.85"/>
      <circle fill="#AEBDC4" cx="88.78" cy="21.23" r="1.85"/>
      <circle fill="#AEBDC4" cx="93.11" cy="21.23" r="1.85"/>
      <circle fill="#AEBDC4" cx="97.44" cy="21.23" r="1.85"/>
      <circle fill="#AEBDC4" cx="101.77" cy="21.23" r="1.85"/>
      <circle fill="#AEBDC4" cx="106.1" cy="21.23" r="1.85"/>
      <circle fill="#AEBDC4" cx="110.43" cy="21.23" r="1.85"/>
      <circle fill="#AEBDC4" cx="114.76" cy="21.23" r="1.85"/>
    </g>
    <g>
      <circle fill="#AEBDC4" cx="15.24" cy="15.3" r="1.85"/>
      <circle fill="#AEBDC4" cx="19.56" cy="15.3" r="1.85"/>
      <circle fill="#AEBDC4" cx="23.88" cy="15.3" r="1.85"/>
      <circle fill="#AEBDC4" cx="28.2" cy="15.3" r="1.85"/>
      <circle fill="#AEBDC4" cx="32.52" cy="15.3" r="1.85"/>
      <circle fill="#AEBDC4" cx="36.84" cy="15.3" r="1.85"/>
      <circle fill="#AEBDC4" cx="41.16" cy="15.3" r="1.85"/>
      <circle fill="#AEBDC4" cx="45.48" cy="15.3" r="1.85"/>
      <circle fill="#AEBDC4" cx="49.8" cy="15.3" r="1.85"/>
      <circle fill="#AEBDC4" cx="54.14" cy="15.3" r="1.85"/>
      <circle fill="#AEBDC4" cx="58.47" cy="15.3" r="1.85"/>
      <circle fill="#AEBDC4" cx="62.8" cy="15.3" r="1.85"/>
      <circle fill="#AEBDC4" cx="67.13" cy="15.3" r="1.85"/>
      <circle fill="#AEBDC4" cx="71.46" cy="15.3" r="1.85"/>
      <circle fill="#AEBDC4" cx="75.79" cy="15.3" r="1.85"/>
      <circle fill="#AEBDC4" cx="80.12" cy="15.3" r="1.85"/>
      <circle fill="#AEBDC4" cx="84.45" cy="15.3" r="1.85"/>
      <circle fill="#AEBDC4" cx="88.78" cy="15.3" r="1.85"/>
      <circle fill="#AEBDC4" cx="93.11" cy="15.3" r="1.85"/>
      <circle fill="#AEBDC4" cx="97.44" cy="15.3" r="1.85"/>
      <circle fill="#AEBDC4" cx="101.77" cy="15.3" r="1.85"/>
      <circle fill="#AEBDC4" cx="106.1" cy="15.3" r="1.85"/>
      <circle fill="#AEBDC4" cx="110.43" cy="15.3" r="1.85"/>
      <circle fill="#AEBDC4" cx="114.76" cy="15.3" r="1.85"/>
    </g>
    <g>
      <circle fill="#AEBDC4" cx="15.24" cy="9.37" r="1.85"/>
      <circle fill="#AEBDC4" cx="19.56" cy="9.37" r="1.85"/>
      <circle fill="#AEBDC4" cx="23.88" cy="9.37" r="1.85"/>
      <circle fill="#AEBDC4" cx="28.2" cy="9.37" r="1.85"/>
      <circle fill="#AEBDC4" cx="32.52" cy="9.37" r="1.85"/>
      <circle fill="#AEBDC4" cx="36.84" cy="9.37" r="1.85"/>
      <circle fill="#AEBDC4" cx="41.16" cy="9.37" r="1.85"/>
      <circle fill="#AEBDC4" cx="45.48" cy="9.37" r="1.85"/>
      <circle fill="#AEBDC4" cx="49.8" cy="9.37" r="1.85"/>
      <circle fill="#AEBDC4" cx="54.14" cy="9.37" r="1.85"/>
      <circle fill="#AEBDC4" cx="58.47" cy="9.37" r="1.85"/>
      <circle fill="#AEBDC4" cx="62.8" cy="9.37" r="1.85"/>
      <circle fill="#AEBDC4" cx="67.13" cy="9.37" r="1.85"/>
      <circle fill="#AEBDC4" cx="71.46" cy="9.37" r="1.85"/>
      <circle fill="#AEBDC4" cx="75.79" cy="9.37" r="1.85"/>
      <circle fill="#AEBDC4" cx="80.12" cy="9.37" r="1.85"/>
      <circle fill="#AEBDC4" cx="84.45" cy="9.37" r="1.85"/>
      <circle fill="#AEBDC4" cx="88.78" cy="9.37" r="1.85"/>
      <circle fill="#AEBDC4" cx="93.11" cy="9.37" r="1.85"/>
      <circle fill="#AEBDC4" cx="97.44" cy="9.37" r="1.85"/>
      <circle fill="#AEBDC4" cx="101.77" cy="9.37" r="1.85"/>
      <circle fill="#AEBDC4" cx="106.1" cy="9.37" r="1.85"/>
      <circle fill="#AEBDC4" cx="110.43" cy="9.37" r="1.85"/>
      <circle fill="#AEBDC4" cx="114.76" cy="9.37" r="1.85"/>
    </g>
  </g>
</svg>
