<?xml version="1.0" encoding="utf-8"?>
<!-- Generator: Adobe Illustrator 23.0.1, SVG Export Plug-In . SVG Version: 6.00 Build 0)  -->
<svg version="1.1" id="Layer_1" xmlns="http://www.w3.org/2000/svg" xmlns:xlink="http://www.w3.org/1999/xlink" x="0px" y="0px"
	 width="130px" height="172px" viewBox="0 0 130 172" enable-background="new 0 0 130 172" xml:space="preserve">
<g onclick="this.parentNode.sekt.push(this);this.a_name=&quot;E 8 (верх)&quot;;">
	
		<polygon onclick="this.parentNode.a_fon=this;" fill="#F1F3F4" stroke="#BCC8CE" stroke-width="0.4" stroke-linecap="round" stroke-miterlimit="10" points="
		0.26,0.56 129.74,0.56 129.74,122.55 0.26,171.35 	"/>
	<g onclick="this.parentNode.a_row=this;">
		
			<line onclick="this.a_par={beg_namb:1,quant:26};" fill="none" stroke="#D3DBDF" stroke-width="0.4" stroke-miterlimit="10" x1="9.06" y1="9.63" x2="120.94" y2="9.63"/>
		
			<line onclick="this.a_par={beg_namb:1,quant:26};" fill="none" stroke="#D3DBDF" stroke-width="0.4" stroke-miterlimit="10" x1="9.06" y1="15.56" x2="120.94" y2="15.56"/>
		
			<line onclick="this.a_par={beg_namb:1,quant:26};" fill="none" stroke="#D3DBDF" stroke-width="0.4" stroke-miterlimit="10" x1="9.06" y1="21.49" x2="120.94" y2="21.49"/>
		
			<line onclick="this.a_par={beg_namb:1,quant:26};" fill="none" stroke="#D3DBDF" stroke-width="0.4" stroke-miterlimit="10" x1="9.06" y1="27.42" x2="120.94" y2="27.42"/>
		
			<line onclick="this.a_par={beg_namb:1,quant:26};" fill="none" stroke="#D3DBDF" stroke-width="0.4" stroke-miterlimit="10" x1="9.06" y1="33.35" x2="120.94" y2="33.35"/>
		
			<line onclick="this.a_par={beg_namb:1,quant:22};" fill="none" stroke="#D3DBDF" stroke-width="0.4" stroke-miterlimit="10" x1="17.72" y1="39.28" x2="112.28" y2="39.28"/>
		
			<line onclick="this.a_par={beg_namb:1,quant:22};" fill="none" stroke="#D3DBDF" stroke-width="0.4" stroke-miterlimit="10" x1="17.72" y1="45.21" x2="112.28" y2="45.21"/>
		
			<line onclick="this.a_par={beg_namb:1,quant:22};" fill="none" stroke="#D3DBDF" stroke-width="0.4" stroke-miterlimit="10" x1="17.72" y1="51.14" x2="112.28" y2="51.14"/>
		
			<line onclick="this.a_par={beg_namb:1,quant:22};" fill="none" stroke="#D3DBDF" stroke-width="0.4" stroke-miterlimit="10" x1="17.72" y1="57.08" x2="112.28" y2="57.08"/>
		
			<line onclick="this.a_par={beg_namb:1,quant:22};" fill="none" stroke="#D3DBDF" stroke-width="0.4" stroke-miterlimit="10" x1="17.72" y1="63.01" x2="112.28" y2="63.01"/>
		
			<line onclick="this.a_par={beg_namb:1,quant:26};" fill="none" stroke="#D3DBDF" stroke-width="0.4" stroke-miterlimit="10" x1="9.06" y1="68.94" x2="120.94" y2="68.94"/>
		
			<line onclick="this.a_par={beg_namb:1,quant:26};" fill="none" stroke="#D3DBDF" stroke-width="0.4" stroke-miterlimit="10" x1="9.06" y1="74.87" x2="120.94" y2="74.87"/>
		
			<line onclick="this.a_par={beg_namb:1,quant:26};" fill="none" stroke="#D3DBDF" stroke-width="0.4" stroke-miterlimit="10" x1="9.06" y1="80.8" x2="120.94" y2="80.8"/>
		
			<line onclick="this.a_par={beg_namb:1,quant:26};" fill="none" stroke="#D3DBDF" stroke-width="0.4" stroke-miterlimit="10" x1="9.06" y1="86.73" x2="120.94" y2="86.73"/>
		
			<line onclick="this.a_par={beg_namb:1,quant:26};" fill="none" stroke="#D3DBDF" stroke-width="0.4" stroke-miterlimit="10" x1="9.06" y1="92.66" x2="120.94" y2="92.66"/>
		
			<line onclick="this.a_par={beg_namb:1,quant:26};" fill="none" stroke="#D3DBDF" stroke-width="0.4" stroke-miterlimit="10" x1="9.06" y1="98.59" x2="120.94" y2="98.59"/>
		
			<line onclick="this.a_par={beg_namb:1,quant:26};" fill="none" stroke="#D3DBDF" stroke-width="0.4" stroke-miterlimit="10" x1="9.06" y1="104.52" x2="120.94" y2="104.52"/>
		
			<line onclick="this.a_par={beg_namb:1,quant:26};" fill="none" stroke="#D3DBDF" stroke-width="0.4" stroke-miterlimit="10" x1="9.06" y1="110.45" x2="120.94" y2="110.45"/>
		
			<line onclick="this.a_par={beg_namb:1,quant:23};" fill="none" stroke="#D3DBDF" stroke-width="0.4" stroke-miterlimit="10" x1="9.06" y1="116.38" x2="107.95" y2="116.38"/>
		
			<line onclick="this.a_par={beg_namb:1,quant:20};" fill="none" stroke="#D3DBDF" stroke-width="0.4" stroke-miterlimit="10" x1="9.06" y1="122.31" x2="94.96" y2="122.31"/>
		
			<line onclick="this.a_par={beg_namb:1,quant:16};" fill="none" stroke="#D3DBDF" stroke-width="0.4" stroke-miterlimit="10" x1="9.06" y1="128.25" x2="77.63" y2="128.25"/>
		
			<line onclick="this.a_par={beg_namb:1,quant:12};" fill="none" stroke="#D3DBDF" stroke-width="0.4" stroke-miterlimit="10" x1="9.06" y1="134.18" x2="60.31" y2="134.18"/>
		
			<line onclick="this.a_par={beg_namb:1,quant:9};" fill="none" stroke="#D3DBDF" stroke-width="0.4" stroke-miterlimit="10" x1="9.06" y1="140.11" x2="47.32" y2="140.11"/>
		
			<line onclick="this.a_par={beg_namb:1,quant:6};" fill="none" stroke="#D3DBDF" stroke-width="0.4" stroke-miterlimit="10" x1="9.06" y1="146.04" x2="34.36" y2="146.04"/>
	</g>
	<g>
		<g>
			<circle fill="#AEBDC4" cx="10.9" cy="146.04" r="1.85"/>
			<circle fill="#AEBDC4" cx="15.23" cy="146.04" r="1.85"/>
			<circle fill="#AEBDC4" cx="19.55" cy="146.04" r="1.85"/>
			<circle fill="#AEBDC4" cx="23.87" cy="146.04" r="1.85"/>
			<circle fill="#AEBDC4" cx="28.19" cy="146.04" r="1.85"/>
			<circle fill="#AEBDC4" cx="32.51" cy="146.04" r="1.85"/>
		</g>
		<g>
			<circle fill="#AEBDC4" cx="10.9" cy="140.11" r="1.85"/>
			<circle fill="#AEBDC4" cx="15.23" cy="140.11" r="1.85"/>
			<circle fill="#AEBDC4" cx="19.55" cy="140.11" r="1.85"/>
			<circle fill="#AEBDC4" cx="23.87" cy="140.11" r="1.85"/>
			<circle fill="#AEBDC4" cx="28.19" cy="140.11" r="1.85"/>
			<circle fill="#AEBDC4" cx="32.51" cy="140.11" r="1.85"/>
			<circle fill="#AEBDC4" cx="36.83" cy="140.11" r="1.85"/>
			<circle fill="#AEBDC4" cx="41.15" cy="140.11" r="1.85"/>
			<circle fill="#AEBDC4" cx="45.47" cy="140.11" r="1.85"/>
		</g>
		<g>
			<circle fill="#AEBDC4" cx="10.9" cy="134.18" r="1.85"/>
			<circle fill="#AEBDC4" cx="15.23" cy="134.18" r="1.85"/>
			<circle fill="#AEBDC4" cx="19.55" cy="134.18" r="1.85"/>
			<circle fill="#AEBDC4" cx="23.87" cy="134.18" r="1.85"/>
			<circle fill="#AEBDC4" cx="28.19" cy="134.18" r="1.85"/>
			<circle fill="#AEBDC4" cx="32.51" cy="134.18" r="1.85"/>
			<circle fill="#AEBDC4" cx="36.83" cy="134.18" r="1.85"/>
			<circle fill="#AEBDC4" cx="41.15" cy="134.18" r="1.85"/>
			<circle fill="#AEBDC4" cx="45.47" cy="134.18" r="1.85"/>
			<circle fill="#AEBDC4" cx="49.8" cy="134.18" r="1.85"/>
			<circle fill="#AEBDC4" cx="54.13" cy="134.18" r="1.85"/>
			<circle fill="#AEBDC4" cx="58.47" cy="134.18" r="1.85"/>
		</g>
		<g>
			<circle fill="#AEBDC4" cx="10.9" cy="128.25" r="1.85"/>
			<circle fill="#AEBDC4" cx="15.23" cy="128.25" r="1.85"/>
			<circle fill="#AEBDC4" cx="19.55" cy="128.25" r="1.85"/>
			<circle fill="#AEBDC4" cx="23.87" cy="128.25" r="1.85"/>
			<circle fill="#AEBDC4" cx="28.19" cy="128.25" r="1.85"/>
			<circle fill="#AEBDC4" cx="32.51" cy="128.25" r="1.85"/>
			<circle fill="#AEBDC4" cx="36.83" cy="128.25" r="1.85"/>
			<circle fill="#AEBDC4" cx="41.15" cy="128.25" r="1.85"/>
			<circle fill="#AEBDC4" cx="45.47" cy="128.25" r="1.85"/>
			<circle fill="#AEBDC4" cx="49.8" cy="128.25" r="1.85"/>
			<circle fill="#AEBDC4" cx="54.13" cy="128.25" r="1.85"/>
			<circle fill="#AEBDC4" cx="58.47" cy="128.25" r="1.85"/>
			<circle fill="#AEBDC4" cx="62.8" cy="128.25" r="1.85"/>
			<circle fill="#AEBDC4" cx="67.13" cy="128.25" r="1.85"/>
			<circle fill="#AEBDC4" cx="71.46" cy="128.25" r="1.85"/>
			<circle fill="#AEBDC4" cx="75.79" cy="128.25" r="1.85"/>
		</g>
		<g>
			<circle fill="#AEBDC4" cx="10.9" cy="122.31" r="1.85"/>
			<circle fill="#AEBDC4" cx="15.23" cy="122.31" r="1.85"/>
			<circle fill="#AEBDC4" cx="19.55" cy="122.31" r="1.85"/>
			<circle fill="#AEBDC4" cx="23.87" cy="122.31" r="1.85"/>
			<circle fill="#AEBDC4" cx="28.19" cy="122.31" r="1.85"/>
			<circle fill="#AEBDC4" cx="32.51" cy="122.31" r="1.85"/>
			<circle fill="#AEBDC4" cx="36.83" cy="122.31" r="1.85"/>
			<circle fill="#AEBDC4" cx="41.15" cy="122.31" r="1.85"/>
			<circle fill="#AEBDC4" cx="45.47" cy="122.31" r="1.85"/>
			<circle fill="#AEBDC4" cx="49.8" cy="122.31" r="1.85"/>
			<circle fill="#AEBDC4" cx="54.13" cy="122.31" r="1.85"/>
			<circle fill="#AEBDC4" cx="58.47" cy="122.31" r="1.85"/>
			<circle fill="#AEBDC4" cx="62.8" cy="122.31" r="1.85"/>
			<circle fill="#AEBDC4" cx="67.13" cy="122.31" r="1.85"/>
			<circle fill="#AEBDC4" cx="71.46" cy="122.31" r="1.85"/>
			<circle fill="#AEBDC4" cx="75.79" cy="122.31" r="1.85"/>
			<circle fill="#AEBDC4" cx="80.12" cy="122.31" r="1.85"/>
			<circle fill="#AEBDC4" cx="84.45" cy="122.31" r="1.85"/>
			<circle fill="#AEBDC4" cx="88.78" cy="122.31" r="1.85"/>
			<circle fill="#AEBDC4" cx="93.11" cy="122.31" r="1.85"/>
		</g>
		<g>
			<circle fill="#AEBDC4" cx="19.57" cy="63.01" r="1.85"/>
			<circle fill="#AEBDC4" cx="23.89" cy="63.01" r="1.85"/>
			<circle fill="#AEBDC4" cx="28.21" cy="63.01" r="1.85"/>
			<circle fill="#AEBDC4" cx="32.53" cy="63.01" r="1.85"/>
			<circle fill="#AEBDC4" cx="36.85" cy="63.01" r="1.85"/>
			<circle fill="#AEBDC4" cx="41.17" cy="63.01" r="1.85"/>
			<circle fill="#AEBDC4" cx="45.49" cy="63.01" r="1.85"/>
			<circle fill="#AEBDC4" cx="49.81" cy="63.01" r="1.85"/>
			<circle fill="#AEBDC4" cx="54.13" cy="63.01" r="1.85"/>
			<circle fill="#AEBDC4" cx="58.47" cy="63.01" r="1.85"/>
			<circle fill="#AEBDC4" cx="62.8" cy="63.01" r="1.85"/>
			<circle fill="#AEBDC4" cx="67.13" cy="63.01" r="1.85"/>
			<circle fill="#AEBDC4" cx="71.46" cy="63.01" r="1.85"/>
			<circle fill="#AEBDC4" cx="75.79" cy="63.01" r="1.85"/>
			<circle fill="#AEBDC4" cx="80.12" cy="63.01" r="1.85"/>
			<circle fill="#AEBDC4" cx="84.45" cy="63.01" r="1.85"/>
			<circle fill="#AEBDC4" cx="88.78" cy="63.01" r="1.85"/>
			<circle fill="#AEBDC4" cx="93.11" cy="63.01" r="1.85"/>
			<circle fill="#AEBDC4" cx="97.44" cy="63.01" r="1.85"/>
			<circle fill="#AEBDC4" cx="101.77" cy="63.01" r="1.85"/>
			<circle fill="#AEBDC4" cx="106.1" cy="63.01" r="1.85"/>
			<circle fill="#AEBDC4" cx="110.43" cy="63.01" r="1.85"/>
		</g>
		<g>
			<circle fill="#AEBDC4" cx="19.57" cy="57.08" r="1.85"/>
			<circle fill="#AEBDC4" cx="23.89" cy="57.08" r="1.85"/>
			<circle fill="#AEBDC4" cx="28.21" cy="57.08" r="1.85"/>
			<circle fill="#AEBDC4" cx="32.53" cy="57.08" r="1.85"/>
			<circle fill="#AEBDC4" cx="36.85" cy="57.08" r="1.85"/>
			<circle fill="#AEBDC4" cx="41.17" cy="57.08" r="1.85"/>
			<circle fill="#AEBDC4" cx="45.49" cy="57.08" r="1.85"/>
			<circle fill="#AEBDC4" cx="49.81" cy="57.08" r="1.85"/>
			<circle fill="#AEBDC4" cx="54.13" cy="57.08" r="1.85"/>
			<circle fill="#AEBDC4" cx="58.47" cy="57.08" r="1.85"/>
			<circle fill="#AEBDC4" cx="62.8" cy="57.08" r="1.85"/>
			<circle fill="#AEBDC4" cx="67.13" cy="57.08" r="1.85"/>
			<circle fill="#AEBDC4" cx="71.46" cy="57.08" r="1.85"/>
			<circle fill="#AEBDC4" cx="75.79" cy="57.08" r="1.85"/>
			<circle fill="#AEBDC4" cx="80.12" cy="57.08" r="1.85"/>
			<circle fill="#AEBDC4" cx="84.45" cy="57.08" r="1.85"/>
			<circle fill="#AEBDC4" cx="88.78" cy="57.08" r="1.85"/>
			<circle fill="#AEBDC4" cx="93.11" cy="57.08" r="1.85"/>
			<circle fill="#AEBDC4" cx="97.44" cy="57.08" r="1.85"/>
			<circle fill="#AEBDC4" cx="101.77" cy="57.08" r="1.85"/>
			<circle fill="#AEBDC4" cx="106.1" cy="57.08" r="1.85"/>
			<circle fill="#AEBDC4" cx="110.43" cy="57.08" r="1.85"/>
		</g>
		<g>
			<circle fill="#AEBDC4" cx="19.57" cy="51.14" r="1.85"/>
			<circle fill="#AEBDC4" cx="23.89" cy="51.14" r="1.85"/>
			<circle fill="#AEBDC4" cx="28.21" cy="51.14" r="1.85"/>
			<circle fill="#AEBDC4" cx="32.53" cy="51.14" r="1.85"/>
			<circle fill="#AEBDC4" cx="36.85" cy="51.14" r="1.85"/>
			<circle fill="#AEBDC4" cx="41.17" cy="51.14" r="1.85"/>
			<circle fill="#AEBDC4" cx="45.49" cy="51.14" r="1.85"/>
			<circle fill="#AEBDC4" cx="49.81" cy="51.14" r="1.85"/>
			<circle fill="#AEBDC4" cx="54.13" cy="51.14" r="1.85"/>
			<circle fill="#AEBDC4" cx="58.47" cy="51.14" r="1.85"/>
			<circle fill="#AEBDC4" cx="62.8" cy="51.14" r="1.85"/>
			<circle fill="#AEBDC4" cx="67.13" cy="51.14" r="1.85"/>
			<circle fill="#AEBDC4" cx="71.46" cy="51.14" r="1.85"/>
			<circle fill="#AEBDC4" cx="75.79" cy="51.14" r="1.85"/>
			<circle fill="#AEBDC4" cx="80.12" cy="51.14" r="1.85"/>
			<circle fill="#AEBDC4" cx="84.45" cy="51.14" r="1.85"/>
			<circle fill="#AEBDC4" cx="88.78" cy="51.14" r="1.85"/>
			<circle fill="#AEBDC4" cx="93.11" cy="51.14" r="1.85"/>
			<circle fill="#AEBDC4" cx="97.44" cy="51.14" r="1.85"/>
			<circle fill="#AEBDC4" cx="101.77" cy="51.14" r="1.85"/>
			<circle fill="#AEBDC4" cx="106.1" cy="51.14" r="1.85"/>
			<circle fill="#AEBDC4" cx="110.43" cy="51.14" r="1.85"/>
		</g>
		<g>
			<circle fill="#AEBDC4" cx="19.57" cy="45.21" r="1.85"/>
			<circle fill="#AEBDC4" cx="23.89" cy="45.21" r="1.85"/>
			<circle fill="#AEBDC4" cx="28.21" cy="45.21" r="1.85"/>
			<circle fill="#AEBDC4" cx="32.53" cy="45.21" r="1.85"/>
			<circle fill="#AEBDC4" cx="36.85" cy="45.21" r="1.85"/>
			<circle fill="#AEBDC4" cx="41.17" cy="45.21" r="1.85"/>
			<circle fill="#AEBDC4" cx="45.49" cy="45.21" r="1.85"/>
			<circle fill="#AEBDC4" cx="49.81" cy="45.21" r="1.85"/>
			<circle fill="#AEBDC4" cx="54.13" cy="45.21" r="1.85"/>
			<circle fill="#AEBDC4" cx="58.47" cy="45.21" r="1.85"/>
			<circle fill="#AEBDC4" cx="62.8" cy="45.21" r="1.85"/>
			<circle fill="#AEBDC4" cx="67.13" cy="45.21" r="1.85"/>
			<circle fill="#AEBDC4" cx="71.46" cy="45.21" r="1.85"/>
			<circle fill="#AEBDC4" cx="75.79" cy="45.21" r="1.85"/>
			<circle fill="#AEBDC4" cx="80.12" cy="45.21" r="1.85"/>
			<circle fill="#AEBDC4" cx="84.45" cy="45.21" r="1.85"/>
			<circle fill="#AEBDC4" cx="88.78" cy="45.21" r="1.85"/>
			<circle fill="#AEBDC4" cx="93.11" cy="45.21" r="1.85"/>
			<circle fill="#AEBDC4" cx="97.44" cy="45.21" r="1.85"/>
			<circle fill="#AEBDC4" cx="101.77" cy="45.21" r="1.85"/>
			<circle fill="#AEBDC4" cx="106.1" cy="45.21" r="1.85"/>
			<circle fill="#AEBDC4" cx="110.43" cy="45.21" r="1.85"/>
		</g>
		<g>
			<circle fill="#AEBDC4" cx="19.57" cy="39.28" r="1.85"/>
			<circle fill="#AEBDC4" cx="23.89" cy="39.28" r="1.85"/>
			<circle fill="#AEBDC4" cx="28.21" cy="39.28" r="1.85"/>
			<circle fill="#AEBDC4" cx="32.53" cy="39.28" r="1.85"/>
			<circle fill="#AEBDC4" cx="36.85" cy="39.28" r="1.85"/>
			<circle fill="#AEBDC4" cx="41.17" cy="39.28" r="1.85"/>
			<circle fill="#AEBDC4" cx="45.49" cy="39.28" r="1.85"/>
			<circle fill="#AEBDC4" cx="49.81" cy="39.28" r="1.85"/>
			<circle fill="#AEBDC4" cx="54.13" cy="39.28" r="1.85"/>
			<circle fill="#AEBDC4" cx="58.47" cy="39.28" r="1.85"/>
			<circle fill="#AEBDC4" cx="62.8" cy="39.28" r="1.85"/>
			<circle fill="#AEBDC4" cx="67.13" cy="39.28" r="1.85"/>
			<circle fill="#AEBDC4" cx="71.46" cy="39.28" r="1.85"/>
			<circle fill="#AEBDC4" cx="75.79" cy="39.28" r="1.85"/>
			<circle fill="#AEBDC4" cx="80.12" cy="39.28" r="1.85"/>
			<circle fill="#AEBDC4" cx="84.45" cy="39.28" r="1.85"/>
			<circle fill="#AEBDC4" cx="88.78" cy="39.28" r="1.85"/>
			<circle fill="#AEBDC4" cx="93.11" cy="39.28" r="1.85"/>
			<circle fill="#AEBDC4" cx="97.44" cy="39.28" r="1.85"/>
			<circle fill="#AEBDC4" cx="101.77" cy="39.28" r="1.85"/>
			<circle fill="#AEBDC4" cx="106.1" cy="39.28" r="1.85"/>
			<circle fill="#AEBDC4" cx="110.43" cy="39.28" r="1.85"/>
		</g>
		<g>
			<circle fill="#AEBDC4" cx="10.9" cy="116.38" r="1.85"/>
			<circle fill="#AEBDC4" cx="15.23" cy="116.38" r="1.85"/>
			<circle fill="#AEBDC4" cx="19.55" cy="116.38" r="1.85"/>
			<circle fill="#AEBDC4" cx="23.87" cy="116.38" r="1.85"/>
			<circle fill="#AEBDC4" cx="28.19" cy="116.38" r="1.85"/>
			<circle fill="#AEBDC4" cx="32.51" cy="116.38" r="1.85"/>
			<circle fill="#AEBDC4" cx="36.83" cy="116.38" r="1.85"/>
			<circle fill="#AEBDC4" cx="41.15" cy="116.38" r="1.85"/>
			<circle fill="#AEBDC4" cx="45.47" cy="116.38" r="1.85"/>
			<circle fill="#AEBDC4" cx="49.8" cy="116.38" r="1.85"/>
			<circle fill="#AEBDC4" cx="54.13" cy="116.38" r="1.85"/>
			<circle fill="#AEBDC4" cx="58.47" cy="116.38" r="1.85"/>
			<circle fill="#AEBDC4" cx="62.8" cy="116.38" r="1.85"/>
			<circle fill="#AEBDC4" cx="67.13" cy="116.38" r="1.85"/>
			<circle fill="#AEBDC4" cx="71.46" cy="116.38" r="1.85"/>
			<circle fill="#AEBDC4" cx="75.79" cy="116.38" r="1.85"/>
			<circle fill="#AEBDC4" cx="80.12" cy="116.38" r="1.85"/>
			<circle fill="#AEBDC4" cx="84.45" cy="116.38" r="1.85"/>
			<circle fill="#AEBDC4" cx="88.78" cy="116.38" r="1.85"/>
			<circle fill="#AEBDC4" cx="93.11" cy="116.38" r="1.85"/>
			<circle fill="#AEBDC4" cx="97.44" cy="116.38" r="1.85"/>
			<circle fill="#AEBDC4" cx="101.77" cy="116.38" r="1.85"/>
			<circle fill="#AEBDC4" cx="106.1" cy="116.38" r="1.85"/>
		</g>
		<g>
			<circle fill="#AEBDC4" cx="10.9" cy="110.45" r="1.85"/>
			<circle fill="#AEBDC4" cx="15.23" cy="110.45" r="1.85"/>
			<circle fill="#AEBDC4" cx="19.55" cy="110.45" r="1.85"/>
			<circle fill="#AEBDC4" cx="23.87" cy="110.45" r="1.85"/>
			<circle fill="#AEBDC4" cx="28.19" cy="110.45" r="1.85"/>
			<circle fill="#AEBDC4" cx="32.51" cy="110.45" r="1.85"/>
			<circle fill="#AEBDC4" cx="36.83" cy="110.45" r="1.85"/>
			<circle fill="#AEBDC4" cx="41.15" cy="110.45" r="1.85"/>
			<circle fill="#AEBDC4" cx="45.47" cy="110.45" r="1.85"/>
			<circle fill="#AEBDC4" cx="49.8" cy="110.45" r="1.85"/>
			<circle fill="#AEBDC4" cx="54.13" cy="110.45" r="1.85"/>
			<circle fill="#AEBDC4" cx="58.47" cy="110.45" r="1.85"/>
			<circle fill="#AEBDC4" cx="62.8" cy="110.45" r="1.85"/>
			<circle fill="#AEBDC4" cx="67.13" cy="110.45" r="1.85"/>
			<circle fill="#AEBDC4" cx="71.46" cy="110.45" r="1.85"/>
			<circle fill="#AEBDC4" cx="75.79" cy="110.45" r="1.85"/>
			<circle fill="#AEBDC4" cx="80.12" cy="110.45" r="1.85"/>
			<circle fill="#AEBDC4" cx="84.45" cy="110.45" r="1.85"/>
			<circle fill="#AEBDC4" cx="88.78" cy="110.45" r="1.85"/>
			<circle fill="#AEBDC4" cx="93.11" cy="110.45" r="1.85"/>
			<circle fill="#AEBDC4" cx="97.44" cy="110.45" r="1.85"/>
			<circle fill="#AEBDC4" cx="101.77" cy="110.45" r="1.85"/>
			<circle fill="#AEBDC4" cx="106.1" cy="110.45" r="1.85"/>
			<circle fill="#AEBDC4" cx="110.43" cy="110.45" r="1.85"/>
			<circle fill="#AEBDC4" cx="114.76" cy="110.45" r="1.85"/>
			<circle fill="#AEBDC4" cx="119.1" cy="110.45" r="1.85"/>
		</g>
		<g>
			<circle fill="#AEBDC4" cx="10.9" cy="104.52" r="1.85"/>
			<circle fill="#AEBDC4" cx="15.23" cy="104.52" r="1.85"/>
			<circle fill="#AEBDC4" cx="19.55" cy="104.52" r="1.85"/>
			<circle fill="#AEBDC4" cx="23.87" cy="104.52" r="1.85"/>
			<circle fill="#AEBDC4" cx="28.19" cy="104.52" r="1.85"/>
			<circle fill="#AEBDC4" cx="32.51" cy="104.52" r="1.85"/>
			<circle fill="#AEBDC4" cx="36.83" cy="104.52" r="1.85"/>
			<circle fill="#AEBDC4" cx="41.15" cy="104.52" r="1.85"/>
			<circle fill="#AEBDC4" cx="45.47" cy="104.52" r="1.85"/>
			<circle fill="#AEBDC4" cx="49.8" cy="104.52" r="1.85"/>
			<circle fill="#AEBDC4" cx="54.13" cy="104.52" r="1.85"/>
			<circle fill="#AEBDC4" cx="58.47" cy="104.52" r="1.85"/>
			<circle fill="#AEBDC4" cx="62.8" cy="104.52" r="1.85"/>
			<circle fill="#AEBDC4" cx="67.13" cy="104.52" r="1.85"/>
			<circle fill="#AEBDC4" cx="71.46" cy="104.52" r="1.85"/>
			<circle fill="#AEBDC4" cx="75.79" cy="104.52" r="1.85"/>
			<circle fill="#AEBDC4" cx="80.12" cy="104.52" r="1.85"/>
			<circle fill="#AEBDC4" cx="84.45" cy="104.52" r="1.85"/>
			<circle fill="#AEBDC4" cx="88.78" cy="104.52" r="1.85"/>
			<circle fill="#AEBDC4" cx="93.11" cy="104.52" r="1.85"/>
			<circle fill="#AEBDC4" cx="97.44" cy="104.52" r="1.85"/>
			<circle fill="#AEBDC4" cx="101.77" cy="104.52" r="1.85"/>
			<circle fill="#AEBDC4" cx="106.1" cy="104.52" r="1.85"/>
			<circle fill="#AEBDC4" cx="110.43" cy="104.52" r="1.85"/>
			<circle fill="#AEBDC4" cx="114.76" cy="104.52" r="1.85"/>
			<circle fill="#AEBDC4" cx="119.1" cy="104.52" r="1.85"/>
		</g>
		<g>
			<circle fill="#AEBDC4" cx="10.9" cy="98.59" r="1.85"/>
			<circle fill="#AEBDC4" cx="15.23" cy="98.59" r="1.85"/>
			<circle fill="#AEBDC4" cx="19.55" cy="98.59" r="1.85"/>
			<circle fill="#AEBDC4" cx="23.87" cy="98.59" r="1.85"/>
			<circle fill="#AEBDC4" cx="28.19" cy="98.59" r="1.85"/>
			<circle fill="#AEBDC4" cx="32.51" cy="98.59" r="1.85"/>
			<circle fill="#AEBDC4" cx="36.83" cy="98.59" r="1.85"/>
			<circle fill="#AEBDC4" cx="41.15" cy="98.59" r="1.85"/>
			<circle fill="#AEBDC4" cx="45.47" cy="98.59" r="1.85"/>
			<circle fill="#AEBDC4" cx="49.8" cy="98.59" r="1.85"/>
			<circle fill="#AEBDC4" cx="54.13" cy="98.59" r="1.85"/>
			<circle fill="#AEBDC4" cx="58.47" cy="98.59" r="1.85"/>
			<circle fill="#AEBDC4" cx="62.8" cy="98.59" r="1.85"/>
			<circle fill="#AEBDC4" cx="67.13" cy="98.59" r="1.85"/>
			<circle fill="#AEBDC4" cx="71.46" cy="98.59" r="1.85"/>
			<circle fill="#AEBDC4" cx="75.79" cy="98.59" r="1.85"/>
			<circle fill="#AEBDC4" cx="80.12" cy="98.59" r="1.85"/>
			<circle fill="#AEBDC4" cx="84.45" cy="98.59" r="1.85"/>
			<circle fill="#AEBDC4" cx="88.78" cy="98.59" r="1.85"/>
			<circle fill="#AEBDC4" cx="93.11" cy="98.59" r="1.85"/>
			<circle fill="#AEBDC4" cx="97.44" cy="98.59" r="1.85"/>
			<circle fill="#AEBDC4" cx="101.77" cy="98.59" r="1.85"/>
			<circle fill="#AEBDC4" cx="106.1" cy="98.59" r="1.85"/>
			<circle fill="#AEBDC4" cx="110.43" cy="98.59" r="1.85"/>
			<circle fill="#AEBDC4" cx="114.76" cy="98.59" r="1.85"/>
			<circle fill="#AEBDC4" cx="119.1" cy="98.59" r="1.85"/>
		</g>
		<g>
			<circle fill="#AEBDC4" cx="10.9" cy="92.66" r="1.85"/>
			<circle fill="#AEBDC4" cx="15.23" cy="92.66" r="1.85"/>
			<circle fill="#AEBDC4" cx="19.55" cy="92.66" r="1.85"/>
			<circle fill="#AEBDC4" cx="23.87" cy="92.66" r="1.85"/>
			<circle fill="#AEBDC4" cx="28.19" cy="92.66" r="1.85"/>
			<circle fill="#AEBDC4" cx="32.51" cy="92.66" r="1.85"/>
			<circle fill="#AEBDC4" cx="36.83" cy="92.66" r="1.85"/>
			<circle fill="#AEBDC4" cx="41.15" cy="92.66" r="1.85"/>
			<circle fill="#AEBDC4" cx="45.47" cy="92.66" r="1.85"/>
			<circle fill="#AEBDC4" cx="49.8" cy="92.66" r="1.85"/>
			<circle fill="#AEBDC4" cx="54.13" cy="92.66" r="1.85"/>
			<circle fill="#AEBDC4" cx="58.47" cy="92.66" r="1.85"/>
			<circle fill="#AEBDC4" cx="62.8" cy="92.66" r="1.85"/>
			<circle fill="#AEBDC4" cx="67.13" cy="92.66" r="1.85"/>
			<circle fill="#AEBDC4" cx="71.46" cy="92.66" r="1.85"/>
			<circle fill="#AEBDC4" cx="75.79" cy="92.66" r="1.85"/>
			<circle fill="#AEBDC4" cx="80.12" cy="92.66" r="1.85"/>
			<circle fill="#AEBDC4" cx="84.45" cy="92.66" r="1.85"/>
			<circle fill="#AEBDC4" cx="88.78" cy="92.66" r="1.85"/>
			<circle fill="#AEBDC4" cx="93.11" cy="92.66" r="1.85"/>
			<circle fill="#AEBDC4" cx="97.44" cy="92.66" r="1.85"/>
			<circle fill="#AEBDC4" cx="101.77" cy="92.66" r="1.85"/>
			<circle fill="#AEBDC4" cx="106.1" cy="92.66" r="1.85"/>
			<circle fill="#AEBDC4" cx="110.43" cy="92.66" r="1.85"/>
			<circle fill="#AEBDC4" cx="114.76" cy="92.66" r="1.85"/>
			<circle fill="#AEBDC4" cx="119.1" cy="92.66" r="1.85"/>
		</g>
		<g>
			<circle fill="#AEBDC4" cx="10.9" cy="86.73" r="1.85"/>
			<circle fill="#AEBDC4" cx="15.23" cy="86.73" r="1.85"/>
			<circle fill="#AEBDC4" cx="19.55" cy="86.73" r="1.85"/>
			<circle fill="#AEBDC4" cx="23.87" cy="86.73" r="1.85"/>
			<circle fill="#AEBDC4" cx="28.19" cy="86.73" r="1.85"/>
			<circle fill="#AEBDC4" cx="32.51" cy="86.73" r="1.85"/>
			<circle fill="#AEBDC4" cx="36.83" cy="86.73" r="1.85"/>
			<circle fill="#AEBDC4" cx="41.15" cy="86.73" r="1.85"/>
			<circle fill="#AEBDC4" cx="45.47" cy="86.73" r="1.85"/>
			<circle fill="#AEBDC4" cx="49.8" cy="86.73" r="1.85"/>
			<circle fill="#AEBDC4" cx="54.13" cy="86.73" r="1.85"/>
			<circle fill="#AEBDC4" cx="58.47" cy="86.73" r="1.85"/>
			<circle fill="#AEBDC4" cx="62.8" cy="86.73" r="1.85"/>
			<circle fill="#AEBDC4" cx="67.13" cy="86.73" r="1.85"/>
			<circle fill="#AEBDC4" cx="71.46" cy="86.73" r="1.85"/>
			<circle fill="#AEBDC4" cx="75.79" cy="86.73" r="1.85"/>
			<circle fill="#AEBDC4" cx="80.12" cy="86.73" r="1.85"/>
			<circle fill="#AEBDC4" cx="84.45" cy="86.73" r="1.85"/>
			<circle fill="#AEBDC4" cx="88.78" cy="86.73" r="1.85"/>
			<circle fill="#AEBDC4" cx="93.11" cy="86.73" r="1.85"/>
			<circle fill="#AEBDC4" cx="97.44" cy="86.73" r="1.85"/>
			<circle fill="#AEBDC4" cx="101.77" cy="86.73" r="1.85"/>
			<circle fill="#AEBDC4" cx="106.1" cy="86.73" r="1.85"/>
			<circle fill="#AEBDC4" cx="110.43" cy="86.73" r="1.85"/>
			<circle fill="#AEBDC4" cx="114.76" cy="86.73" r="1.85"/>
			<circle fill="#AEBDC4" cx="119.1" cy="86.73" r="1.85"/>
		</g>
		<g>
			<circle fill="#AEBDC4" cx="10.9" cy="80.8" r="1.85"/>
			<circle fill="#AEBDC4" cx="15.23" cy="80.8" r="1.85"/>
			<circle fill="#AEBDC4" cx="19.55" cy="80.8" r="1.85"/>
			<circle fill="#AEBDC4" cx="23.87" cy="80.8" r="1.85"/>
			<circle fill="#AEBDC4" cx="28.19" cy="80.8" r="1.85"/>
			<circle fill="#AEBDC4" cx="32.51" cy="80.8" r="1.85"/>
			<circle fill="#AEBDC4" cx="36.83" cy="80.8" r="1.85"/>
			<circle fill="#AEBDC4" cx="41.15" cy="80.8" r="1.85"/>
			<circle fill="#AEBDC4" cx="45.47" cy="80.8" r="1.85"/>
			<circle fill="#AEBDC4" cx="49.8" cy="80.8" r="1.85"/>
			<circle fill="#AEBDC4" cx="54.13" cy="80.8" r="1.85"/>
			<circle fill="#AEBDC4" cx="58.47" cy="80.8" r="1.85"/>
			<circle fill="#AEBDC4" cx="62.8" cy="80.8" r="1.85"/>
			<circle fill="#AEBDC4" cx="67.13" cy="80.8" r="1.85"/>
			<circle fill="#AEBDC4" cx="71.46" cy="80.8" r="1.85"/>
			<circle fill="#AEBDC4" cx="75.79" cy="80.8" r="1.85"/>
			<circle fill="#AEBDC4" cx="80.12" cy="80.8" r="1.85"/>
			<circle fill="#AEBDC4" cx="84.45" cy="80.8" r="1.85"/>
			<circle fill="#AEBDC4" cx="88.78" cy="80.8" r="1.85"/>
			<circle fill="#AEBDC4" cx="93.11" cy="80.8" r="1.85"/>
			<circle fill="#AEBDC4" cx="97.44" cy="80.8" r="1.85"/>
			<circle fill="#AEBDC4" cx="101.77" cy="80.8" r="1.85"/>
			<circle fill="#AEBDC4" cx="106.1" cy="80.8" r="1.85"/>
			<circle fill="#AEBDC4" cx="110.43" cy="80.8" r="1.85"/>
			<circle fill="#AEBDC4" cx="114.76" cy="80.8" r="1.85"/>
			<circle fill="#AEBDC4" cx="119.1" cy="80.8" r="1.85"/>
		</g>
		<g>
			<circle fill="#AEBDC4" cx="10.9" cy="74.87" r="1.85"/>
			<circle fill="#AEBDC4" cx="15.23" cy="74.87" r="1.85"/>
			<circle fill="#AEBDC4" cx="19.55" cy="74.87" r="1.85"/>
			<circle fill="#AEBDC4" cx="23.87" cy="74.87" r="1.85"/>
			<circle fill="#AEBDC4" cx="28.19" cy="74.87" r="1.85"/>
			<circle fill="#AEBDC4" cx="32.51" cy="74.87" r="1.85"/>
			<circle fill="#AEBDC4" cx="36.83" cy="74.87" r="1.85"/>
			<circle fill="#AEBDC4" cx="41.15" cy="74.87" r="1.85"/>
			<circle fill="#AEBDC4" cx="45.47" cy="74.87" r="1.85"/>
			<circle fill="#AEBDC4" cx="49.8" cy="74.87" r="1.85"/>
			<circle fill="#AEBDC4" cx="54.13" cy="74.87" r="1.85"/>
			<circle fill="#AEBDC4" cx="58.47" cy="74.87" r="1.85"/>
			<circle fill="#AEBDC4" cx="62.8" cy="74.87" r="1.85"/>
			<circle fill="#AEBDC4" cx="67.13" cy="74.87" r="1.85"/>
			<circle fill="#AEBDC4" cx="71.46" cy="74.87" r="1.85"/>
			<circle fill="#AEBDC4" cx="75.79" cy="74.87" r="1.85"/>
			<circle fill="#AEBDC4" cx="80.12" cy="74.87" r="1.85"/>
			<circle fill="#AEBDC4" cx="84.45" cy="74.87" r="1.85"/>
			<circle fill="#AEBDC4" cx="88.78" cy="74.87" r="1.85"/>
			<circle fill="#AEBDC4" cx="93.11" cy="74.87" r="1.85"/>
			<circle fill="#AEBDC4" cx="97.44" cy="74.87" r="1.85"/>
			<circle fill="#AEBDC4" cx="101.77" cy="74.87" r="1.85"/>
			<circle fill="#AEBDC4" cx="106.1" cy="74.87" r="1.85"/>
			<circle fill="#AEBDC4" cx="110.43" cy="74.87" r="1.85"/>
			<circle fill="#AEBDC4" cx="114.76" cy="74.87" r="1.85"/>
			<circle fill="#AEBDC4" cx="119.1" cy="74.87" r="1.85"/>
		</g>
		<g>
			<circle fill="#AEBDC4" cx="10.9" cy="68.94" r="1.85"/>
			<circle fill="#AEBDC4" cx="15.23" cy="68.94" r="1.85"/>
			<circle fill="#AEBDC4" cx="19.55" cy="68.94" r="1.85"/>
			<circle fill="#AEBDC4" cx="23.87" cy="68.94" r="1.85"/>
			<circle fill="#AEBDC4" cx="28.19" cy="68.94" r="1.85"/>
			<circle fill="#AEBDC4" cx="32.51" cy="68.94" r="1.85"/>
			<circle fill="#AEBDC4" cx="36.83" cy="68.94" r="1.85"/>
			<circle fill="#AEBDC4" cx="41.15" cy="68.94" r="1.85"/>
			<circle fill="#AEBDC4" cx="45.47" cy="68.94" r="1.85"/>
			<circle fill="#AEBDC4" cx="49.8" cy="68.94" r="1.85"/>
			<circle fill="#AEBDC4" cx="54.13" cy="68.94" r="1.85"/>
			<circle fill="#AEBDC4" cx="58.47" cy="68.94" r="1.85"/>
			<circle fill="#AEBDC4" cx="62.8" cy="68.94" r="1.85"/>
			<circle fill="#AEBDC4" cx="67.13" cy="68.94" r="1.85"/>
			<circle fill="#AEBDC4" cx="71.46" cy="68.94" r="1.85"/>
			<circle fill="#AEBDC4" cx="75.79" cy="68.94" r="1.85"/>
			<circle fill="#AEBDC4" cx="80.12" cy="68.94" r="1.85"/>
			<circle fill="#AEBDC4" cx="84.45" cy="68.94" r="1.85"/>
			<circle fill="#AEBDC4" cx="88.78" cy="68.94" r="1.85"/>
			<circle fill="#AEBDC4" cx="93.11" cy="68.94" r="1.85"/>
			<circle fill="#AEBDC4" cx="97.44" cy="68.94" r="1.85"/>
			<circle fill="#AEBDC4" cx="101.77" cy="68.94" r="1.85"/>
			<circle fill="#AEBDC4" cx="106.1" cy="68.94" r="1.85"/>
			<circle fill="#AEBDC4" cx="110.43" cy="68.94" r="1.85"/>
			<circle fill="#AEBDC4" cx="114.76" cy="68.94" r="1.85"/>
			<circle fill="#AEBDC4" cx="119.1" cy="68.94" r="1.85"/>
		</g>
		<g>
			<circle fill="#AEBDC4" cx="10.9" cy="33.35" r="1.85"/>
			<circle fill="#AEBDC4" cx="15.23" cy="33.35" r="1.85"/>
			<circle fill="#AEBDC4" cx="19.55" cy="33.35" r="1.85"/>
			<circle fill="#AEBDC4" cx="23.87" cy="33.35" r="1.85"/>
			<circle fill="#AEBDC4" cx="28.19" cy="33.35" r="1.85"/>
			<circle fill="#AEBDC4" cx="32.51" cy="33.35" r="1.85"/>
			<circle fill="#AEBDC4" cx="36.83" cy="33.35" r="1.85"/>
			<circle fill="#AEBDC4" cx="41.15" cy="33.35" r="1.85"/>
			<circle fill="#AEBDC4" cx="45.47" cy="33.35" r="1.85"/>
			<circle fill="#AEBDC4" cx="49.8" cy="33.35" r="1.85"/>
			<circle fill="#AEBDC4" cx="54.13" cy="33.35" r="1.85"/>
			<circle fill="#AEBDC4" cx="58.47" cy="33.35" r="1.85"/>
			<circle fill="#AEBDC4" cx="62.8" cy="33.35" r="1.85"/>
			<circle fill="#AEBDC4" cx="67.13" cy="33.35" r="1.85"/>
			<circle fill="#AEBDC4" cx="71.46" cy="33.35" r="1.85"/>
			<circle fill="#AEBDC4" cx="75.79" cy="33.35" r="1.85"/>
			<circle fill="#AEBDC4" cx="80.12" cy="33.35" r="1.85"/>
			<circle fill="#AEBDC4" cx="84.45" cy="33.35" r="1.85"/>
			<circle fill="#AEBDC4" cx="88.78" cy="33.35" r="1.85"/>
			<circle fill="#AEBDC4" cx="93.11" cy="33.35" r="1.85"/>
			<circle fill="#AEBDC4" cx="97.44" cy="33.35" r="1.85"/>
			<circle fill="#AEBDC4" cx="101.77" cy="33.35" r="1.85"/>
			<circle fill="#AEBDC4" cx="106.1" cy="33.35" r="1.85"/>
			<circle fill="#AEBDC4" cx="110.43" cy="33.35" r="1.85"/>
			<circle fill="#AEBDC4" cx="114.76" cy="33.35" r="1.85"/>
			<circle fill="#AEBDC4" cx="119.1" cy="33.35" r="1.85"/>
		</g>
		<g>
			<circle fill="#AEBDC4" cx="10.9" cy="27.42" r="1.85"/>
			<circle fill="#AEBDC4" cx="15.23" cy="27.42" r="1.85"/>
			<circle fill="#AEBDC4" cx="19.55" cy="27.42" r="1.85"/>
			<circle fill="#AEBDC4" cx="23.87" cy="27.42" r="1.85"/>
			<circle fill="#AEBDC4" cx="28.19" cy="27.42" r="1.85"/>
			<circle fill="#AEBDC4" cx="32.51" cy="27.42" r="1.85"/>
			<circle fill="#AEBDC4" cx="36.83" cy="27.42" r="1.85"/>
			<circle fill="#AEBDC4" cx="41.15" cy="27.42" r="1.85"/>
			<circle fill="#AEBDC4" cx="45.47" cy="27.42" r="1.85"/>
			<circle fill="#AEBDC4" cx="49.8" cy="27.42" r="1.85"/>
			<circle fill="#AEBDC4" cx="54.13" cy="27.42" r="1.85"/>
			<circle fill="#AEBDC4" cx="58.47" cy="27.42" r="1.85"/>
			<circle fill="#AEBDC4" cx="62.8" cy="27.42" r="1.85"/>
			<circle fill="#AEBDC4" cx="67.13" cy="27.42" r="1.85"/>
			<circle fill="#AEBDC4" cx="71.46" cy="27.42" r="1.85"/>
			<circle fill="#AEBDC4" cx="75.79" cy="27.42" r="1.85"/>
			<circle fill="#AEBDC4" cx="80.12" cy="27.42" r="1.85"/>
			<circle fill="#AEBDC4" cx="84.45" cy="27.42" r="1.85"/>
			<circle fill="#AEBDC4" cx="88.78" cy="27.42" r="1.85"/>
			<circle fill="#AEBDC4" cx="93.11" cy="27.42" r="1.85"/>
			<circle fill="#AEBDC4" cx="97.44" cy="27.42" r="1.85"/>
			<circle fill="#AEBDC4" cx="101.77" cy="27.42" r="1.85"/>
			<circle fill="#AEBDC4" cx="106.1" cy="27.42" r="1.85"/>
			<circle fill="#AEBDC4" cx="110.43" cy="27.42" r="1.85"/>
			<circle fill="#AEBDC4" cx="114.76" cy="27.42" r="1.85"/>
			<circle fill="#AEBDC4" cx="119.1" cy="27.42" r="1.85"/>
		</g>
		<g>
			<circle fill="#AEBDC4" cx="10.9" cy="21.49" r="1.85"/>
			<circle fill="#AEBDC4" cx="15.23" cy="21.49" r="1.85"/>
			<circle fill="#AEBDC4" cx="19.55" cy="21.49" r="1.85"/>
			<circle fill="#AEBDC4" cx="23.87" cy="21.49" r="1.85"/>
			<circle fill="#AEBDC4" cx="28.19" cy="21.49" r="1.85"/>
			<circle fill="#AEBDC4" cx="32.51" cy="21.49" r="1.85"/>
			<circle fill="#AEBDC4" cx="36.83" cy="21.49" r="1.85"/>
			<circle fill="#AEBDC4" cx="41.15" cy="21.49" r="1.85"/>
			<circle fill="#AEBDC4" cx="45.47" cy="21.49" r="1.85"/>
			<circle fill="#AEBDC4" cx="49.8" cy="21.49" r="1.85"/>
			<circle fill="#AEBDC4" cx="54.13" cy="21.49" r="1.85"/>
			<circle fill="#AEBDC4" cx="58.47" cy="21.49" r="1.85"/>
			<circle fill="#AEBDC4" cx="62.8" cy="21.49" r="1.85"/>
			<circle fill="#AEBDC4" cx="67.13" cy="21.49" r="1.85"/>
			<circle fill="#AEBDC4" cx="71.46" cy="21.49" r="1.85"/>
			<circle fill="#AEBDC4" cx="75.79" cy="21.49" r="1.85"/>
			<circle fill="#AEBDC4" cx="80.12" cy="21.49" r="1.85"/>
			<circle fill="#AEBDC4" cx="84.45" cy="21.49" r="1.85"/>
			<circle fill="#AEBDC4" cx="88.78" cy="21.49" r="1.85"/>
			<circle fill="#AEBDC4" cx="93.11" cy="21.49" r="1.85"/>
			<circle fill="#AEBDC4" cx="97.44" cy="21.49" r="1.85"/>
			<circle fill="#AEBDC4" cx="101.77" cy="21.49" r="1.85"/>
			<circle fill="#AEBDC4" cx="106.1" cy="21.49" r="1.85"/>
			<circle fill="#AEBDC4" cx="110.43" cy="21.49" r="1.85"/>
			<circle fill="#AEBDC4" cx="114.76" cy="21.49" r="1.85"/>
			<circle fill="#AEBDC4" cx="119.1" cy="21.49" r="1.85"/>
		</g>
		<g>
			<circle fill="#AEBDC4" cx="10.9" cy="15.56" r="1.85"/>
			<circle fill="#AEBDC4" cx="15.23" cy="15.56" r="1.85"/>
			<circle fill="#AEBDC4" cx="19.55" cy="15.56" r="1.85"/>
			<circle fill="#AEBDC4" cx="23.87" cy="15.56" r="1.85"/>
			<circle fill="#AEBDC4" cx="28.19" cy="15.56" r="1.85"/>
			<circle fill="#AEBDC4" cx="32.51" cy="15.56" r="1.85"/>
			<circle fill="#AEBDC4" cx="36.83" cy="15.56" r="1.85"/>
			<circle fill="#AEBDC4" cx="41.15" cy="15.56" r="1.85"/>
			<circle fill="#AEBDC4" cx="45.47" cy="15.56" r="1.85"/>
			<circle fill="#AEBDC4" cx="49.8" cy="15.56" r="1.85"/>
			<circle fill="#AEBDC4" cx="54.13" cy="15.56" r="1.85"/>
			<circle fill="#AEBDC4" cx="58.47" cy="15.56" r="1.85"/>
			<circle fill="#AEBDC4" cx="62.8" cy="15.56" r="1.85"/>
			<circle fill="#AEBDC4" cx="67.13" cy="15.56" r="1.85"/>
			<circle fill="#AEBDC4" cx="71.46" cy="15.56" r="1.85"/>
			<circle fill="#AEBDC4" cx="75.79" cy="15.56" r="1.85"/>
			<circle fill="#AEBDC4" cx="80.12" cy="15.56" r="1.85"/>
			<circle fill="#AEBDC4" cx="84.45" cy="15.56" r="1.85"/>
			<circle fill="#AEBDC4" cx="88.78" cy="15.56" r="1.85"/>
			<circle fill="#AEBDC4" cx="93.11" cy="15.56" r="1.85"/>
			<circle fill="#AEBDC4" cx="97.44" cy="15.56" r="1.85"/>
			<circle fill="#AEBDC4" cx="101.77" cy="15.56" r="1.85"/>
			<circle fill="#AEBDC4" cx="106.1" cy="15.56" r="1.85"/>
			<circle fill="#AEBDC4" cx="110.43" cy="15.56" r="1.85"/>
			<circle fill="#AEBDC4" cx="114.76" cy="15.56" r="1.85"/>
			<circle fill="#AEBDC4" cx="119.1" cy="15.56" r="1.85"/>
		</g>
		<g>
			<circle fill="#AEBDC4" cx="10.9" cy="9.63" r="1.85"/>
			<circle fill="#AEBDC4" cx="15.23" cy="9.63" r="1.85"/>
			<circle fill="#AEBDC4" cx="19.55" cy="9.63" r="1.85"/>
			<circle fill="#AEBDC4" cx="23.87" cy="9.63" r="1.85"/>
			<circle fill="#AEBDC4" cx="28.19" cy="9.63" r="1.85"/>
			<circle fill="#AEBDC4" cx="32.51" cy="9.63" r="1.85"/>
			<circle fill="#AEBDC4" cx="36.83" cy="9.63" r="1.85"/>
			<circle fill="#AEBDC4" cx="41.15" cy="9.63" r="1.85"/>
			<circle fill="#AEBDC4" cx="45.47" cy="9.63" r="1.85"/>
			<circle fill="#AEBDC4" cx="49.8" cy="9.63" r="1.85"/>
			<circle fill="#AEBDC4" cx="54.13" cy="9.63" r="1.85"/>
			<circle fill="#AEBDC4" cx="58.47" cy="9.63" r="1.85"/>
			<circle fill="#AEBDC4" cx="62.8" cy="9.63" r="1.85"/>
			<circle fill="#AEBDC4" cx="67.13" cy="9.63" r="1.85"/>
			<circle fill="#AEBDC4" cx="71.46" cy="9.63" r="1.85"/>
			<circle fill="#AEBDC4" cx="75.79" cy="9.63" r="1.85"/>
			<circle fill="#AEBDC4" cx="80.12" cy="9.63" r="1.85"/>
			<circle fill="#AEBDC4" cx="84.45" cy="9.63" r="1.85"/>
			<circle fill="#AEBDC4" cx="88.78" cy="9.63" r="1.85"/>
			<circle fill="#AEBDC4" cx="93.11" cy="9.63" r="1.85"/>
			<circle fill="#AEBDC4" cx="97.44" cy="9.63" r="1.85"/>
			<circle fill="#AEBDC4" cx="101.77" cy="9.63" r="1.85"/>
			<circle fill="#AEBDC4" cx="106.1" cy="9.63" r="1.85"/>
			<circle fill="#AEBDC4" cx="110.43" cy="9.63" r="1.85"/>
			<circle fill="#AEBDC4" cx="114.76" cy="9.63" r="1.85"/>
			<circle fill="#AEBDC4" cx="119.1" cy="9.63" r="1.85"/>
		</g>
	</g>
	<g onclick="this.parentNode.a_text=this;">
		<text transform="matrix(0.9999 0 0 1 60.5569 47.2416)"><tspan x="0" y="0" font-family="'OpenSans-Semibold'" font-size="6.3996px">E 8</tspan><tspan x="-5.52" y="7.2" font-family="'OpenSans-Semibold'" font-size="6.3996px">(</tspan><tspan x="-3.47" y="7.2" font-family="'OpenSans-Semibold'" font-size="6.3996px">в</tspan><tspan x="0.64" y="7.2" font-family="'OpenSans-Semibold'" font-size="6.3996px">е</tspan><tspan x="4.56" y="7.2" font-family="'OpenSans-Semibold'" font-size="6.3996px">рх</tspan><tspan x="12.38" y="7.2" font-family="'OpenSans-Semibold'" font-size="6.3996px">)</tspan></text>
	</g>
</g>
</svg>
