<?xml version="1.0" encoding="utf-8"?>
<!-- Generator: Adobe Illustrator 23.0.1, SVG Export Plug-In . SVG Version: 6.00 Build 0)  -->
<svg version="1.1" id="Layer_1" xmlns="http://www.w3.org/2000/svg" xmlns:xlink="http://www.w3.org/1999/xlink" x="0px" y="0px"
	 width="64px" height="118px" viewBox="0 0 64 118" enable-background="new 0 0 64 118" xml:space="preserve">
<g onclick="this.parentNode.sekt.push(this);this.a_name=&quot;E 9 (верх)&quot;;">
	
		<polygon onclick="this.parentNode.a_fon=this;" fill="#F1F3F4" stroke="#BCC8CE" stroke-width="0.4" stroke-linecap="round" stroke-miterlimit="10" points="
		0.5,0.36 63.5,0.36 63.5,91.95 0.5,117.55 	"/>
	<g onclick="this.parentNode.a_row=this;">
		
			<line onclick="this.a_par={beg_namb:1,quant:10};" fill="none" stroke="#D3DBDF" stroke-width="0.4" stroke-miterlimit="10" x1="52.29" y1="9.42" x2="9.7" y2="9.42"/>
		
			<line onclick="this.a_par={beg_namb:1,quant:10};" fill="none" stroke="#D3DBDF" stroke-width="0.4" stroke-miterlimit="10" x1="52.29" y1="15.35" x2="9.7" y2="15.35"/>
		
			<line onclick="this.a_par={beg_namb:1,quant:10};" fill="none" stroke="#D3DBDF" stroke-width="0.4" stroke-miterlimit="10" x1="52.29" y1="21.28" x2="9.7" y2="21.28"/>
		
			<line onclick="this.a_par={beg_namb:1,quant:10};" fill="none" stroke="#D3DBDF" stroke-width="0.4" stroke-miterlimit="10" x1="52.29" y1="27.22" x2="9.7" y2="27.22"/>
		
			<line onclick="this.a_par={beg_namb:1,quant:10};" fill="none" stroke="#D3DBDF" stroke-width="0.4" stroke-miterlimit="10" x1="52.29" y1="33.15" x2="9.7" y2="33.15"/>
		
			<line onclick="this.a_par={beg_namb:1,quant:8};" fill="none" stroke="#D3DBDF" stroke-width="0.4" stroke-miterlimit="10" x1="52.29" y1="39.08" x2="18.35" y2="39.08"/>
		
			<line onclick="this.a_par={beg_namb:1,quant:8};" fill="none" stroke="#D3DBDF" stroke-width="0.4" stroke-miterlimit="10" x1="52.29" y1="45.01" x2="18.35" y2="45.01"/>
		
			<line onclick="this.a_par={beg_namb:1,quant:8};" fill="none" stroke="#D3DBDF" stroke-width="0.4" stroke-miterlimit="10" x1="52.29" y1="50.94" x2="18.35" y2="50.94"/>
		
			<line onclick="this.a_par={beg_namb:1,quant:8};" fill="none" stroke="#D3DBDF" stroke-width="0.4" stroke-miterlimit="10" x1="52.29" y1="56.87" x2="18.35" y2="56.87"/>
		
			<line onclick="this.a_par={beg_namb:1,quant:8};" fill="none" stroke="#D3DBDF" stroke-width="0.4" stroke-miterlimit="10" x1="52.29" y1="62.8" x2="18.35" y2="62.8"/>
		
			<line onclick="this.a_par={beg_namb:1,quant:10};" fill="none" stroke="#D3DBDF" stroke-width="0.4" stroke-miterlimit="10" x1="52.29" y1="68.73" x2="9.7" y2="68.73"/>
		
			<line onclick="this.a_par={beg_namb:1,quant:10};" fill="none" stroke="#D3DBDF" stroke-width="0.4" stroke-miterlimit="10" x1="52.29" y1="74.66" x2="9.7" y2="74.66"/>
		
			<line onclick="this.a_par={beg_namb:1,quant:10};" fill="none" stroke="#D3DBDF" stroke-width="0.4" stroke-miterlimit="10" x1="52.29" y1="80.59" x2="9.7" y2="80.59"/>
		
			<line onclick="this.a_par={beg_namb:1,quant:10};" fill="none" stroke="#D3DBDF" stroke-width="0.4" stroke-miterlimit="10" x1="52.29" y1="86.52" x2="9.7" y2="86.52"/>
		
			<line onclick="this.a_par={beg_namb:1,quant:6};" fill="none" stroke="#D3DBDF" stroke-width="0.4" stroke-miterlimit="10" x1="35" y1="92.45" x2="9.7" y2="92.45"/>
		
			<line onclick="this.a_par={beg_namb:1,quant:3};" fill="none" stroke="#D3DBDF" stroke-width="0.4" stroke-miterlimit="10" x1="22.03" y1="98.39" x2="9.7" y2="98.39"/>
	</g>
	<g>
		<g>
			<circle fill="#AEBDC4" cx="11.55" cy="98.39" r="1.85"/>
			<circle fill="#AEBDC4" cx="15.87" cy="98.39" r="1.85"/>
			<circle fill="#AEBDC4" cx="20.19" cy="98.39" r="1.85"/>
		</g>
		<g>
			<circle fill="#AEBDC4" cx="11.55" cy="92.45" r="1.85"/>
			<circle fill="#AEBDC4" cx="15.87" cy="92.45" r="1.85"/>
			<circle fill="#AEBDC4" cx="20.19" cy="92.45" r="1.85"/>
			<circle fill="#AEBDC4" cx="24.51" cy="92.45" r="1.85"/>
			<circle fill="#AEBDC4" cx="28.83" cy="92.45" r="1.85"/>
			<circle fill="#AEBDC4" cx="33.15" cy="92.45" r="1.85"/>
		</g>
		<g>
			<circle fill="#AEBDC4" cx="20.2" cy="39.08" r="1.85"/>
			<circle fill="#AEBDC4" cx="24.52" cy="39.08" r="1.85"/>
			<circle fill="#AEBDC4" cx="28.84" cy="39.08" r="1.85"/>
			<circle fill="#AEBDC4" cx="33.16" cy="39.08" r="1.85"/>
			<circle fill="#AEBDC4" cx="37.48" cy="39.08" r="1.85"/>
			<circle fill="#AEBDC4" cx="41.8" cy="39.08" r="1.85"/>
			<circle fill="#AEBDC4" cx="46.12" cy="39.08" r="1.85"/>
			<circle fill="#AEBDC4" cx="50.45" cy="39.08" r="1.85"/>
		</g>
		<g>
			<circle fill="#AEBDC4" cx="20.2" cy="45.01" r="1.85"/>
			<circle fill="#AEBDC4" cx="24.52" cy="45.01" r="1.85"/>
			<circle fill="#AEBDC4" cx="28.84" cy="45.01" r="1.85"/>
			<circle fill="#AEBDC4" cx="33.16" cy="45.01" r="1.85"/>
			<circle fill="#AEBDC4" cx="37.48" cy="45.01" r="1.85"/>
			<circle fill="#AEBDC4" cx="41.8" cy="45.01" r="1.85"/>
			<circle fill="#AEBDC4" cx="46.12" cy="45.01" r="1.85"/>
			<circle fill="#AEBDC4" cx="50.45" cy="45.01" r="1.85"/>
		</g>
		<g>
			<circle fill="#AEBDC4" cx="20.2" cy="50.94" r="1.85"/>
			<circle fill="#AEBDC4" cx="24.52" cy="50.94" r="1.85"/>
			<circle fill="#AEBDC4" cx="28.84" cy="50.94" r="1.85"/>
			<circle fill="#AEBDC4" cx="33.16" cy="50.94" r="1.85"/>
			<circle fill="#AEBDC4" cx="37.48" cy="50.94" r="1.85"/>
			<circle fill="#AEBDC4" cx="41.8" cy="50.94" r="1.85"/>
			<circle fill="#AEBDC4" cx="46.12" cy="50.94" r="1.85"/>
			<circle fill="#AEBDC4" cx="50.45" cy="50.94" r="1.85"/>
		</g>
		<g>
			<circle fill="#AEBDC4" cx="20.2" cy="56.87" r="1.85"/>
			<circle fill="#AEBDC4" cx="24.52" cy="56.87" r="1.85"/>
			<circle fill="#AEBDC4" cx="28.84" cy="56.87" r="1.85"/>
			<circle fill="#AEBDC4" cx="33.16" cy="56.87" r="1.85"/>
			<circle fill="#AEBDC4" cx="37.48" cy="56.87" r="1.85"/>
			<circle fill="#AEBDC4" cx="41.8" cy="56.87" r="1.85"/>
			<circle fill="#AEBDC4" cx="46.12" cy="56.87" r="1.85"/>
			<circle fill="#AEBDC4" cx="50.45" cy="56.87" r="1.85"/>
		</g>
		<g>
			<circle fill="#AEBDC4" cx="20.2" cy="62.8" r="1.85"/>
			<circle fill="#AEBDC4" cx="24.52" cy="62.8" r="1.85"/>
			<circle fill="#AEBDC4" cx="28.84" cy="62.8" r="1.85"/>
			<circle fill="#AEBDC4" cx="33.16" cy="62.8" r="1.85"/>
			<circle fill="#AEBDC4" cx="37.48" cy="62.8" r="1.85"/>
			<circle fill="#AEBDC4" cx="41.8" cy="62.8" r="1.85"/>
			<circle fill="#AEBDC4" cx="46.12" cy="62.8" r="1.85"/>
			<circle fill="#AEBDC4" cx="50.45" cy="62.8" r="1.85"/>
		</g>
		<g>
			<circle fill="#AEBDC4" cx="11.55" cy="86.52" r="1.85"/>
			<circle fill="#AEBDC4" cx="15.87" cy="86.52" r="1.85"/>
			<circle fill="#AEBDC4" cx="20.19" cy="86.52" r="1.85"/>
			<circle fill="#AEBDC4" cx="24.51" cy="86.52" r="1.85"/>
			<circle fill="#AEBDC4" cx="28.83" cy="86.52" r="1.85"/>
			<circle fill="#AEBDC4" cx="33.15" cy="86.52" r="1.85"/>
			<circle fill="#AEBDC4" cx="37.47" cy="86.52" r="1.85"/>
			<circle fill="#AEBDC4" cx="41.79" cy="86.52" r="1.85"/>
			<circle fill="#AEBDC4" cx="46.11" cy="86.52" r="1.85"/>
			<circle fill="#AEBDC4" cx="50.45" cy="86.52" r="1.85"/>
		</g>
		<g>
			<circle fill="#AEBDC4" cx="11.55" cy="80.59" r="1.85"/>
			<circle fill="#AEBDC4" cx="15.87" cy="80.59" r="1.85"/>
			<circle fill="#AEBDC4" cx="20.19" cy="80.59" r="1.85"/>
			<circle fill="#AEBDC4" cx="24.51" cy="80.59" r="1.85"/>
			<circle fill="#AEBDC4" cx="28.83" cy="80.59" r="1.85"/>
			<circle fill="#AEBDC4" cx="33.15" cy="80.59" r="1.85"/>
			<circle fill="#AEBDC4" cx="37.47" cy="80.59" r="1.85"/>
			<circle fill="#AEBDC4" cx="41.79" cy="80.59" r="1.85"/>
			<circle fill="#AEBDC4" cx="46.11" cy="80.59" r="1.85"/>
			<circle fill="#AEBDC4" cx="50.45" cy="80.59" r="1.85"/>
		</g>
		<g>
			<circle fill="#AEBDC4" cx="11.55" cy="74.66" r="1.85"/>
			<circle fill="#AEBDC4" cx="15.87" cy="74.66" r="1.85"/>
			<circle fill="#AEBDC4" cx="20.19" cy="74.66" r="1.85"/>
			<circle fill="#AEBDC4" cx="24.51" cy="74.66" r="1.85"/>
			<circle fill="#AEBDC4" cx="28.83" cy="74.66" r="1.85"/>
			<circle fill="#AEBDC4" cx="33.15" cy="74.66" r="1.85"/>
			<circle fill="#AEBDC4" cx="37.47" cy="74.66" r="1.85"/>
			<circle fill="#AEBDC4" cx="41.79" cy="74.66" r="1.85"/>
			<circle fill="#AEBDC4" cx="46.11" cy="74.66" r="1.85"/>
			<circle fill="#AEBDC4" cx="50.45" cy="74.66" r="1.85"/>
		</g>
		<g>
			<circle fill="#AEBDC4" cx="11.55" cy="68.73" r="1.85"/>
			<circle fill="#AEBDC4" cx="15.87" cy="68.73" r="1.85"/>
			<circle fill="#AEBDC4" cx="20.19" cy="68.73" r="1.85"/>
			<circle fill="#AEBDC4" cx="24.51" cy="68.73" r="1.85"/>
			<circle fill="#AEBDC4" cx="28.83" cy="68.73" r="1.85"/>
			<circle fill="#AEBDC4" cx="33.15" cy="68.73" r="1.85"/>
			<circle fill="#AEBDC4" cx="37.47" cy="68.73" r="1.85"/>
			<circle fill="#AEBDC4" cx="41.79" cy="68.73" r="1.85"/>
			<circle fill="#AEBDC4" cx="46.11" cy="68.73" r="1.85"/>
			<circle fill="#AEBDC4" cx="50.45" cy="68.73" r="1.85"/>
		</g>
		<g>
			<circle fill="#AEBDC4" cx="11.55" cy="33.15" r="1.85"/>
			<circle fill="#AEBDC4" cx="15.87" cy="33.15" r="1.85"/>
			<circle fill="#AEBDC4" cx="20.19" cy="33.15" r="1.85"/>
			<circle fill="#AEBDC4" cx="24.51" cy="33.15" r="1.85"/>
			<circle fill="#AEBDC4" cx="28.83" cy="33.15" r="1.85"/>
			<circle fill="#AEBDC4" cx="33.15" cy="33.15" r="1.85"/>
			<circle fill="#AEBDC4" cx="37.47" cy="33.15" r="1.85"/>
			<circle fill="#AEBDC4" cx="41.79" cy="33.15" r="1.85"/>
			<circle fill="#AEBDC4" cx="46.11" cy="33.15" r="1.85"/>
			<circle fill="#AEBDC4" cx="50.45" cy="33.15" r="1.85"/>
		</g>
		<g>
			<circle fill="#AEBDC4" cx="11.55" cy="27.22" r="1.85"/>
			<circle fill="#AEBDC4" cx="15.87" cy="27.22" r="1.85"/>
			<circle fill="#AEBDC4" cx="20.19" cy="27.22" r="1.85"/>
			<circle fill="#AEBDC4" cx="24.51" cy="27.22" r="1.85"/>
			<circle fill="#AEBDC4" cx="28.83" cy="27.22" r="1.85"/>
			<circle fill="#AEBDC4" cx="33.15" cy="27.22" r="1.85"/>
			<circle fill="#AEBDC4" cx="37.47" cy="27.22" r="1.85"/>
			<circle fill="#AEBDC4" cx="41.79" cy="27.22" r="1.85"/>
			<circle fill="#AEBDC4" cx="46.11" cy="27.22" r="1.85"/>
			<circle fill="#AEBDC4" cx="50.45" cy="27.22" r="1.85"/>
		</g>
		<g>
			<circle fill="#AEBDC4" cx="11.55" cy="21.28" r="1.85"/>
			<circle fill="#AEBDC4" cx="15.87" cy="21.28" r="1.85"/>
			<circle fill="#AEBDC4" cx="20.19" cy="21.28" r="1.85"/>
			<circle fill="#AEBDC4" cx="24.51" cy="21.28" r="1.85"/>
			<circle fill="#AEBDC4" cx="28.83" cy="21.28" r="1.85"/>
			<circle fill="#AEBDC4" cx="33.15" cy="21.28" r="1.85"/>
			<circle fill="#AEBDC4" cx="37.47" cy="21.28" r="1.85"/>
			<circle fill="#AEBDC4" cx="41.79" cy="21.28" r="1.85"/>
			<circle fill="#AEBDC4" cx="46.11" cy="21.28" r="1.85"/>
			<circle fill="#AEBDC4" cx="50.45" cy="21.28" r="1.85"/>
		</g>
		<g>
			<circle fill="#AEBDC4" cx="11.55" cy="15.35" r="1.85"/>
			<circle fill="#AEBDC4" cx="15.87" cy="15.35" r="1.85"/>
			<circle fill="#AEBDC4" cx="20.19" cy="15.35" r="1.85"/>
			<circle fill="#AEBDC4" cx="24.51" cy="15.35" r="1.85"/>
			<circle fill="#AEBDC4" cx="28.83" cy="15.35" r="1.85"/>
			<circle fill="#AEBDC4" cx="33.15" cy="15.35" r="1.85"/>
			<circle fill="#AEBDC4" cx="37.47" cy="15.35" r="1.85"/>
			<circle fill="#AEBDC4" cx="41.79" cy="15.35" r="1.85"/>
			<circle fill="#AEBDC4" cx="46.11" cy="15.35" r="1.85"/>
			<circle fill="#AEBDC4" cx="50.45" cy="15.35" r="1.85"/>
		</g>
		<g>
			<circle fill="#AEBDC4" cx="11.55" cy="9.42" r="1.85"/>
			<circle fill="#AEBDC4" cx="15.87" cy="9.42" r="1.85"/>
			<circle fill="#AEBDC4" cx="20.19" cy="9.42" r="1.85"/>
			<circle fill="#AEBDC4" cx="24.51" cy="9.42" r="1.85"/>
			<circle fill="#AEBDC4" cx="28.83" cy="9.42" r="1.85"/>
			<circle fill="#AEBDC4" cx="33.15" cy="9.42" r="1.85"/>
			<circle fill="#AEBDC4" cx="37.47" cy="9.42" r="1.85"/>
			<circle fill="#AEBDC4" cx="41.79" cy="9.42" r="1.85"/>
			<circle fill="#AEBDC4" cx="46.11" cy="9.42" r="1.85"/>
			<circle fill="#AEBDC4" cx="50.45" cy="9.42" r="1.85"/>
		</g>
	</g>
	<g onclick="this.parentNode.a_text=this;">
		<text transform="matrix(0.9999 0 0 1 27.5562 47.0359)"><tspan x="0" y="0" font-family="'OpenSans-Semibold'" font-size="6.3996px">E 9</tspan><tspan x="-5.52" y="7.2" font-family="'OpenSans-Semibold'" font-size="6.3996px">(</tspan><tspan x="-3.47" y="7.2" font-family="'OpenSans-Semibold'" font-size="6.3996px">в</tspan><tspan x="0.64" y="7.2" font-family="'OpenSans-Semibold'" font-size="6.3996px">е</tspan><tspan x="4.56" y="7.2" font-family="'OpenSans-Semibold'" font-size="6.3996px">рх</tspan><tspan x="12.38" y="7.2" font-family="'OpenSans-Semibold'" font-size="6.3996px">)</tspan></text>
	</g>
</g>
</svg>
