<?xml version="1.0" encoding="utf-8"?>
<!-- Generator: Adobe Illustrator 23.0.1, SVG Export Plug-In . SVG Version: 6.00 Build 0)  -->
<svg version="1.1" id="Layer_1" xmlns="http://www.w3.org/2000/svg" xmlns:xlink="http://www.w3.org/1999/xlink" x="0px" y="0px"
	 viewBox="0 0 109 166" style="enable-background:new 0 0 109 166;" xml:space="preserve">
<style type="text/css">
	.st0{fill:#F1F3F4;stroke:#BCC8CE;stroke-width:0.4;stroke-linecap:round;stroke-miterlimit:10;}
	.st1{fill:#AEBDC4;}
	.st2{font-family:'Roboto-Medium';}
	.st3{font-size:3px;}
</style>
<polygon class="st0" points="0.7,165.8 0.7,0.2 59.6,0.2 108.2,165.8 "/>
<g 
  data-sort-seat-direction="ltr" 
  data-sort-line-direction="ttb" 
  data-sort-seat-option="cx" 
  data-sort-line-option="cy" 
  data-line-start="1"
  >
	<g>
		<circle class="st1" cx="13.7" cy="157.5" r="1.9"/>
		<circle class="st1" cx="18" cy="157.5" r="1.9"/>
		<circle class="st1" cx="22.4" cy="157.5" r="1.9"/>
		<circle class="st1" cx="26.7" cy="157.5" r="1.9"/>
		<circle class="st1" cx="31" cy="157.5" r="1.9"/>
		<circle class="st1" cx="35.3" cy="157.5" r="1.9"/>
		<circle class="st1" cx="39.7" cy="157.5" r="1.9"/>
		<circle class="st1" cx="44" cy="157.5" r="1.9"/>
		<circle class="st1" cx="48.3" cy="157.5" r="1.9"/>
		<circle class="st1" cx="52.6" cy="157.5" r="1.9"/>
		<text transform="matrix(1 0 0 1 7.213 158.6082)" class="st1 st2 st3">00</text>
		<text transform="matrix(1 0 0 1 55.7131 158.6082)" class="st1 st2 st3">00</text>
	</g>
	<g>
		<circle class="st1" cx="13.7" cy="151.6" r="1.9"/>
		<circle class="st1" cx="18" cy="151.6" r="1.9"/>
		<circle class="st1" cx="22.4" cy="151.6" r="1.9"/>
		<circle class="st1" cx="26.7" cy="151.6" r="1.9"/>
		<circle class="st1" cx="31" cy="151.6" r="1.9"/>
		<circle class="st1" cx="35.3" cy="151.6" r="1.9"/>
		<circle class="st1" cx="39.7" cy="151.6" r="1.9"/>
		<circle class="st1" cx="44" cy="151.6" r="1.9"/>
		<circle class="st1" cx="48.3" cy="151.6" r="1.9"/>
		<circle class="st1" cx="52.6" cy="151.6" r="1.9"/>
		<text transform="matrix(1 0 0 1 7.213 152.6782)" class="st1 st2 st3">00</text>
		<text transform="matrix(1 0 0 1 55.7131 152.6782)" class="st1 st2 st3">00</text>
	</g>
	<g>
		<circle class="st1" cx="13.7" cy="145.7" r="1.9"/>
		<circle class="st1" cx="18" cy="145.7" r="1.9"/>
		<circle class="st1" cx="22.4" cy="145.7" r="1.9"/>
		<circle class="st1" cx="26.7" cy="145.7" r="1.9"/>
		<circle class="st1" cx="31" cy="145.7" r="1.9"/>
		<circle class="st1" cx="35.3" cy="145.7" r="1.9"/>
		<circle class="st1" cx="39.7" cy="145.7" r="1.9"/>
		<circle class="st1" cx="44" cy="145.7" r="1.9"/>
		<circle class="st1" cx="48.3" cy="145.7" r="1.9"/>
		<circle class="st1" cx="52.6" cy="145.7" r="1.9"/>
		<text transform="matrix(1 0 0 1 7.213 146.7483)" class="st1 st2 st3">00</text>
		<text transform="matrix(1 0 0 1 55.7131 146.7483)" class="st1 st2 st3">00</text>
	</g>
	<g>
		<circle class="st1" cx="22.4" cy="139.7" r="1.9"/>
		<circle class="st1" cx="26.7" cy="139.7" r="1.9"/>
		<circle class="st1" cx="31" cy="139.7" r="1.9"/>
		<circle class="st1" cx="35.3" cy="139.7" r="1.9"/>
		<circle class="st1" cx="39.7" cy="139.7" r="1.9"/>
		<circle class="st1" cx="44" cy="139.7" r="1.9"/>
		<circle class="st1" cx="48.3" cy="139.7" r="1.9"/>
		<circle class="st1" cx="52.6" cy="139.7" r="1.9"/>
		<text transform="matrix(1 0 0 1 15.873 140.8083)" class="st1 st2 st3">00</text>
		<text transform="matrix(1 0 0 1 55.7131 140.8184)" class="st1 st2 st3">00</text>
	</g>
	<g>
		<circle class="st1" cx="22.4" cy="133.8" r="1.9"/>
		<circle class="st1" cx="26.7" cy="133.8" r="1.9"/>
		<circle class="st1" cx="31" cy="133.8" r="1.9"/>
		<circle class="st1" cx="35.3" cy="133.8" r="1.9"/>
		<circle class="st1" cx="39.7" cy="133.8" r="1.9"/>
		<circle class="st1" cx="44" cy="133.8" r="1.9"/>
		<circle class="st1" cx="48.3" cy="133.8" r="1.9"/>
		<circle class="st1" cx="52.6" cy="133.8" r="1.9"/>
		<text transform="matrix(1 0 0 1 15.873 134.8783)" class="st1 st2 st3">00</text>
		<text transform="matrix(1 0 0 1 55.7131 134.8884)" class="st1 st2 st3">00</text>
	</g>
	<g>
		<circle class="st1" cx="22.4" cy="127.9" r="1.8"/>
		<circle class="st1" cx="26.7" cy="127.9" r="1.8"/>
		<circle class="st1" cx="31" cy="127.9" r="1.8"/>
		<circle class="st1" cx="35.3" cy="127.9" r="1.8"/>
		<circle class="st1" cx="39.7" cy="127.9" r="1.8"/>
		<circle class="st1" cx="44" cy="127.9" r="1.8"/>
		<circle class="st1" cx="48.3" cy="127.9" r="1.8"/>
		<circle class="st1" cx="52.6" cy="127.9" r="1.8"/>
		<text transform="matrix(1 0 0 1 15.873 128.9482)" class="st1 st2 st3">00</text>
		<text transform="matrix(1 0 0 1 55.7131 128.9585)" class="st1 st2 st3">00</text>
	</g>
	<g>
		<circle class="st1" cx="22.4" cy="121.9" r="1.8"/>
		<circle class="st1" cx="26.7" cy="121.9" r="1.8"/>
		<circle class="st1" cx="31" cy="121.9" r="1.8"/>
		<circle class="st1" cx="35.3" cy="121.9" r="1.8"/>
		<circle class="st1" cx="39.7" cy="121.9" r="1.8"/>
		<circle class="st1" cx="44" cy="121.9" r="1.8"/>
		<circle class="st1" cx="48.3" cy="121.9" r="1.8"/>
		<circle class="st1" cx="52.6" cy="121.9" r="1.8"/>
		<circle class="st1" cx="57" cy="121.9" r="1.8"/>
		<circle class="st1" cx="61.3" cy="121.9" r="1.8"/>
		<circle class="st1" cx="65.6" cy="121.9" r="1.8"/>
		<circle class="st1" cx="69.9" cy="121.9" r="1.8"/>
		<circle class="st1" cx="74.3" cy="121.9" r="1.8"/>
		<circle class="st1" cx="78.6" cy="121.9" r="1.8"/>
		<text transform="matrix(1 0 0 1 15.873 123.0182)" class="st1 st2 st3">00</text>
		<text transform="matrix(1 0 0 1 81.6931 123.0184)" class="st1 st2 st3">00</text>
	</g>
	<g>
		<circle class="st1" cx="22.4" cy="116" r="1.8"/>
		<circle class="st1" cx="26.7" cy="116" r="1.8"/>
		<circle class="st1" cx="31" cy="116" r="1.8"/>
		<circle class="st1" cx="35.3" cy="116" r="1.8"/>
		<circle class="st1" cx="39.7" cy="116" r="1.8"/>
		<circle class="st1" cx="44" cy="116" r="1.8"/>
		<circle class="st1" cx="48.3" cy="116" r="1.8"/>
		<circle class="st1" cx="52.6" cy="116" r="1.8"/>
		<circle class="st1" cx="57" cy="116" r="1.8"/>
		<circle class="st1" cx="61.3" cy="116" r="1.8"/>
		<circle class="st1" cx="65.6" cy="116" r="1.8"/>
		<circle class="st1" cx="69.9" cy="116" r="1.8"/>
		<circle class="st1" cx="74.3" cy="116" r="1.8"/>
		<circle class="st1" cx="78.6" cy="116" r="1.8"/>
		<text transform="matrix(1 0 0 1 15.873 117.0881)" class="st1 st2 st3">00</text>
		<text transform="matrix(1 0 0 1 81.6931 117.0884)" class="st1 st2 st3">00</text>
	</g>
	<g>
		<circle class="st1" cx="13.7" cy="110.1" r="1.8"/>
		<circle class="st1" cx="18" cy="110.1" r="1.8"/>
		<circle class="st1" cx="22.4" cy="110.1" r="1.8"/>
		<circle class="st1" cx="26.7" cy="110.1" r="1.8"/>
		<circle class="st1" cx="31" cy="110.1" r="1.8"/>
		<circle class="st1" cx="35.3" cy="110.1" r="1.8"/>
		<circle class="st1" cx="39.7" cy="110.1" r="1.8"/>
		<circle class="st1" cx="44" cy="110.1" r="1.8"/>
		<circle class="st1" cx="48.3" cy="110.1" r="1.8"/>
		<circle class="st1" cx="52.6" cy="110.1" r="1.8"/>
		<circle class="st1" cx="57" cy="110.1" r="1.8"/>
		<circle class="st1" cx="61.3" cy="110.1" r="1.8"/>
		<circle class="st1" cx="65.6" cy="110.1" r="1.8"/>
		<circle class="st1" cx="70" cy="110.1" r="1.8"/>
		<circle class="st1" cx="74.3" cy="110.1" r="1.8"/>
		<text transform="matrix(1 0 0 1 7.213 111.1581)" class="st1 st2 st3">00</text>
		<text transform="matrix(1 0 0 1 77.3732 111.1583)" class="st1 st2 st3">00</text>
	</g>
	<g>
		<circle class="st1" cx="13.7" cy="104.2" r="1.8"/>
		<circle class="st1" cx="18" cy="104.2" r="1.8"/>
		<circle class="st1" cx="22.4" cy="104.2" r="1.8"/>
		<circle class="st1" cx="26.7" cy="104.2" r="1.8"/>
		<circle class="st1" cx="31" cy="104.2" r="1.8"/>
		<circle class="st1" cx="35.3" cy="104.2" r="1.8"/>
		<circle class="st1" cx="39.7" cy="104.2" r="1.8"/>
		<circle class="st1" cx="44" cy="104.2" r="1.8"/>
		<circle class="st1" cx="48.3" cy="104.2" r="1.8"/>
		<circle class="st1" cx="52.6" cy="104.2" r="1.8"/>
		<circle class="st1" cx="57" cy="104.2" r="1.8"/>
		<circle class="st1" cx="61.3" cy="104.2" r="1.8"/>
		<circle class="st1" cx="65.6" cy="104.2" r="1.8"/>
		<circle class="st1" cx="70" cy="104.2" r="1.8"/>
		<circle class="st1" cx="74.3" cy="104.2" r="1.8"/>
		<text transform="matrix(1 0 0 1 7.213 105.2281)" class="st1 st2 st3">00</text>
		<text transform="matrix(1 0 0 1 77.3732 105.2284)" class="st1 st2 st3">00</text>
	</g>
	<g>
		<circle class="st1" cx="13.7" cy="98.2" r="1.8"/>
		<circle class="st1" cx="18" cy="98.2" r="1.8"/>
		<circle class="st1" cx="22.4" cy="98.2" r="1.8"/>
		<circle class="st1" cx="26.7" cy="98.2" r="1.8"/>
		<circle class="st1" cx="31" cy="98.2" r="1.8"/>
		<circle class="st1" cx="35.3" cy="98.2" r="1.8"/>
		<circle class="st1" cx="39.7" cy="98.2" r="1.8"/>
		<circle class="st1" cx="44" cy="98.2" r="1.8"/>
		<circle class="st1" cx="48.3" cy="98.2" r="1.8"/>
		<circle class="st1" cx="52.6" cy="98.2" r="1.8"/>
		<circle class="st1" cx="57" cy="98.2" r="1.8"/>
		<circle class="st1" cx="61.3" cy="98.2" r="1.8"/>
		<circle class="st1" cx="65.6" cy="98.2" r="1.8"/>
		<circle class="st1" cx="70" cy="98.2" r="1.8"/>
		<text transform="matrix(1 0 0 1 7.213 99.2982)" class="st1 st2 st3">00</text>
		<text transform="matrix(1 0 0 1 73.0432 99.2983)" class="st1 st2 st3">00</text>
	</g>
	<g>
		<circle class="st1" cx="13.7" cy="92.3" r="1.8"/>
		<circle class="st1" cx="18" cy="92.3" r="1.8"/>
		<circle class="st1" cx="22.4" cy="92.3" r="1.8"/>
		<circle class="st1" cx="26.7" cy="92.3" r="1.8"/>
		<circle class="st1" cx="31" cy="92.3" r="1.8"/>
		<circle class="st1" cx="35.3" cy="92.3" r="1.8"/>
		<circle class="st1" cx="39.7" cy="92.3" r="1.8"/>
		<circle class="st1" cx="44" cy="92.3" r="1.8"/>
		<circle class="st1" cx="48.3" cy="92.3" r="1.8"/>
		<circle class="st1" cx="52.6" cy="92.3" r="1.8"/>
		<circle class="st1" cx="57" cy="92.3" r="1.8"/>
		<circle class="st1" cx="61.3" cy="92.3" r="1.8"/>
		<circle class="st1" cx="65.6" cy="92.3" r="1.8"/>
		<circle class="st1" cx="70" cy="92.3" r="1.8"/>
		<text transform="matrix(1 0 0 1 7.213 93.3683)" class="st1 st2 st3">00</text>
		<text transform="matrix(1 0 0 1 73.0432 93.3683)" class="st1 st2 st3">00</text>
	</g>
	<g>
		<circle class="st1" cx="13.7" cy="86.4" r="1.8"/>
		<circle class="st1" cx="18" cy="86.4" r="1.8"/>
		<circle class="st1" cx="22.4" cy="86.4" r="1.8"/>
		<circle class="st1" cx="26.7" cy="86.4" r="1.8"/>
		<circle class="st1" cx="31" cy="86.4" r="1.8"/>
		<circle class="st1" cx="35.3" cy="86.4" r="1.8"/>
		<circle class="st1" cx="39.7" cy="86.4" r="1.8"/>
		<circle class="st1" cx="44" cy="86.4" r="1.8"/>
		<circle class="st1" cx="48.3" cy="86.4" r="1.8"/>
		<circle class="st1" cx="52.6" cy="86.4" r="1.8"/>
		<circle class="st1" cx="57" cy="86.4" r="1.8"/>
		<circle class="st1" cx="61.3" cy="86.4" r="1.8"/>
		<circle class="st1" cx="65.6" cy="86.4" r="1.8"/>
		<circle class="st1" cx="70" cy="86.4" r="1.8"/>
		<text transform="matrix(1 0 0 1 7.213 87.4384)" class="st1 st2 st3">00</text>
		<text transform="matrix(1 0 0 1 73.0432 87.4382)" class="st1 st2 st3">00</text>
	</g>
	<g>
		<circle class="st1" cx="13.7" cy="80.4" r="1.8"/>
		<circle class="st1" cx="18" cy="80.4" r="1.8"/>
		<circle class="st1" cx="22.4" cy="80.4" r="1.8"/>
		<circle class="st1" cx="26.7" cy="80.4" r="1.8"/>
		<circle class="st1" cx="31" cy="80.4" r="1.8"/>
		<circle class="st1" cx="35.3" cy="80.4" r="1.8"/>
		<circle class="st1" cx="39.7" cy="80.4" r="1.8"/>
		<circle class="st1" cx="44" cy="80.4" r="1.8"/>
		<circle class="st1" cx="48.3" cy="80.4" r="1.8"/>
		<circle class="st1" cx="52.6" cy="80.4" r="1.8"/>
		<circle class="st1" cx="57" cy="80.4" r="1.8"/>
		<circle class="st1" cx="61.3" cy="80.4" r="1.8"/>
		<circle class="st1" cx="65.6" cy="80.4" r="1.8"/>
		<circle class="st1" cx="70" cy="80.4" r="1.8"/>
		<text transform="matrix(1 0 0 1 7.213 81.5084)" class="st1 st2 st3">00</text>
		<text transform="matrix(1 0 0 1 73.0432 81.5082)" class="st1 st2 st3">00</text>
	</g>
	<g>
		<circle class="st1" cx="13.7" cy="74.5" r="1.8"/>
		<circle class="st1" cx="18" cy="74.5" r="1.8"/>
		<circle class="st1" cx="22.4" cy="74.5" r="1.8"/>
		<circle class="st1" cx="26.7" cy="74.5" r="1.8"/>
		<circle class="st1" cx="31" cy="74.5" r="1.8"/>
		<circle class="st1" cx="35.3" cy="74.5" r="1.8"/>
		<circle class="st1" cx="39.7" cy="74.5" r="1.8"/>
		<circle class="st1" cx="44" cy="74.5" r="1.8"/>
		<circle class="st1" cx="48.3" cy="74.5" r="1.8"/>
		<circle class="st1" cx="52.6" cy="74.5" r="1.8"/>
		<circle class="st1" cx="57" cy="74.5" r="1.8"/>
		<circle class="st1" cx="61.3" cy="74.5" r="1.8"/>
		<circle class="st1" cx="65.6" cy="74.5" r="1.8"/>
		<circle class="st1" cx="70" cy="74.5" r="1.8"/>
		<text transform="matrix(1 0 0 1 7.213 75.5785)" class="st1 st2 st3">00</text>
		<text transform="matrix(1 0 0 1 73.0432 75.5781)" class="st1 st2 st3">00</text>
	</g>
	<g>
		<circle class="st1" cx="13.7" cy="68.6" r="1.8"/>
		<circle class="st1" cx="18" cy="68.6" r="1.8"/>
		<circle class="st1" cx="22.4" cy="68.6" r="1.8"/>
		<circle class="st1" cx="26.7" cy="68.6" r="1.8"/>
		<circle class="st1" cx="31" cy="68.6" r="1.8"/>
		<circle class="st1" cx="35.3" cy="68.6" r="1.8"/>
		<circle class="st1" cx="39.7" cy="68.6" r="1.8"/>
		<circle class="st1" cx="44" cy="68.6" r="1.8"/>
		<circle class="st1" cx="48.3" cy="68.6" r="1.8"/>
		<circle class="st1" cx="52.6" cy="68.6" r="1.8"/>
		<circle class="st1" cx="57" cy="68.6" r="1.8"/>
		<circle class="st1" cx="61.3" cy="68.6" r="1.8"/>
		<circle class="st1" cx="65.6" cy="68.6" r="1.8"/>
		<text transform="matrix(1 0 0 1 7.213 69.6486)" class="st1 st2 st3">00</text>
		<text transform="matrix(1 0 0 1 68.7133 69.6382)" class="st1 st2 st3">00</text>
	</g>
	<g>
		<circle class="st1" cx="13.7" cy="62.6" r="1.8"/>
		<circle class="st1" cx="18" cy="62.6" r="1.8"/>
		<circle class="st1" cx="22.4" cy="62.6" r="1.8"/>
		<circle class="st1" cx="26.7" cy="62.6" r="1.8"/>
		<circle class="st1" cx="31" cy="62.6" r="1.8"/>
		<circle class="st1" cx="35.3" cy="62.6" r="1.8"/>
		<circle class="st1" cx="39.7" cy="62.6" r="1.8"/>
		<circle class="st1" cx="44" cy="62.6" r="1.8"/>
		<circle class="st1" cx="48.3" cy="62.6" r="1.8"/>
		<circle class="st1" cx="52.6" cy="62.6" r="1.8"/>
		<circle class="st1" cx="57" cy="62.6" r="1.8"/>
		<circle class="st1" cx="61.3" cy="62.6" r="1.8"/>
		<circle class="st1" cx="65.6" cy="62.6" r="1.8"/>
		<text transform="matrix(1 0 0 1 7.213 63.7186)" class="st1 st2 st3">00</text>
		<text transform="matrix(1 0 0 1 68.7133 63.7081)" class="st1 st2 st3">00</text>
	</g>
	<g>
		<circle class="st1" cx="13.7" cy="56.7" r="1.8"/>
		<circle class="st1" cx="18" cy="56.7" r="1.8"/>
		<circle class="st1" cx="22.4" cy="56.7" r="1.8"/>
		<circle class="st1" cx="26.7" cy="56.7" r="1.8"/>
		<circle class="st1" cx="31" cy="56.7" r="1.8"/>
		<circle class="st1" cx="35.3" cy="56.7" r="1.8"/>
		<circle class="st1" cx="39.7" cy="56.7" r="1.8"/>
		<circle class="st1" cx="44" cy="56.7" r="1.8"/>
		<circle class="st1" cx="48.3" cy="56.7" r="1.8"/>
		<circle class="st1" cx="52.6" cy="56.7" r="1.8"/>
		<circle class="st1" cx="57" cy="56.7" r="1.8"/>
		<circle class="st1" cx="61.3" cy="56.7" r="1.8"/>
		<text transform="matrix(1 0 0 1 7.213 57.7887)" class="st1 st2 st3">00</text>
		<text transform="matrix(1 0 0 1 64.3733 57.7781)" class="st1 st2 st3">00</text>
	</g>
	<g>
		<circle class="st1" cx="13.7" cy="50.8" r="1.8"/>
		<circle class="st1" cx="18" cy="50.8" r="1.8"/>
		<circle class="st1" cx="22.4" cy="50.8" r="1.8"/>
		<circle class="st1" cx="26.7" cy="50.8" r="1.8"/>
		<circle class="st1" cx="31" cy="50.8" r="1.8"/>
		<circle class="st1" cx="35.3" cy="50.8" r="1.8"/>
		<circle class="st1" cx="39.7" cy="50.8" r="1.8"/>
		<circle class="st1" cx="44" cy="50.8" r="1.8"/>
		<circle class="st1" cx="48.3" cy="50.8" r="1.8"/>
		<circle class="st1" cx="52.6" cy="50.8" r="1.8"/>
		<circle class="st1" cx="57" cy="50.8" r="1.8"/>
		<circle class="st1" cx="61.3" cy="50.8" r="1.8"/>
		<text transform="matrix(1 0 0 1 7.213 51.8588)" class="st1 st2 st3">00</text>
		<text transform="matrix(1 0 0 1 64.3733 51.8583)" class="st1 st2 st3">00</text>
	</g>
	<g>
		<circle class="st1" cx="13.7" cy="44.8" r="1.8"/>
		<circle class="st1" cx="18" cy="44.8" r="1.8"/>
		<circle class="st1" cx="22.4" cy="44.8" r="1.8"/>
		<circle class="st1" cx="26.7" cy="44.8" r="1.8"/>
		<circle class="st1" cx="31" cy="44.8" r="1.8"/>
		<circle class="st1" cx="35.3" cy="44.8" r="1.8"/>
		<circle class="st1" cx="39.7" cy="44.8" r="1.8"/>
		<circle class="st1" cx="44" cy="44.8" r="1.8"/>
		<circle class="st1" cx="48.3" cy="44.8" r="1.8"/>
		<circle class="st1" cx="52.6" cy="44.8" r="1.8"/>
		<circle class="st1" cx="57" cy="44.8" r="1.8"/>
		<text transform="matrix(1 0 0 1 7.213 45.9288)" class="st1 st2 st3">00</text>
		<text transform="matrix(1 0 0 1 60.0433 45.9078)" class="st1 st2 st3">00</text>
	</g>
	<g>
		<circle class="st1" cx="13.7" cy="38.9" r="1.8"/>
		<circle class="st1" cx="18" cy="38.9" r="1.8"/>
		<circle class="st1" cx="22.4" cy="38.9" r="1.8"/>
		<circle class="st1" cx="26.7" cy="38.9" r="1.8"/>
		<circle class="st1" cx="31" cy="38.9" r="1.8"/>
		<circle class="st1" cx="35.3" cy="38.9" r="1.8"/>
		<circle class="st1" cx="39.7" cy="38.9" r="1.8"/>
		<circle class="st1" cx="44" cy="38.9" r="1.8"/>
		<circle class="st1" cx="48.3" cy="38.9" r="1.8"/>
		<circle class="st1" cx="52.6" cy="38.9" r="1.8"/>
		<circle class="st1" cx="57" cy="38.9" r="1.8"/>
		<text transform="matrix(1 0 0 1 7.213 39.9989)" class="st1 st2 st3">00</text>
		<text transform="matrix(1 0 0 1 60.0433 39.988)" class="st1 st2 st3">00</text>
	</g>
	<g>
		<circle class="st1" cx="13.7" cy="33" r="1.8"/>
		<circle class="st1" cx="18" cy="33" r="1.8"/>
		<circle class="st1" cx="22.4" cy="33" r="1.8"/>
		<circle class="st1" cx="26.7" cy="33" r="1.8"/>
		<circle class="st1" cx="31" cy="33" r="1.8"/>
		<circle class="st1" cx="35.3" cy="33" r="1.8"/>
		<circle class="st1" cx="39.7" cy="33" r="1.8"/>
		<circle class="st1" cx="44" cy="33" r="1.8"/>
		<circle class="st1" cx="48.3" cy="33" r="1.8"/>
		<circle class="st1" cx="52.6" cy="33" r="1.8"/>
		<text transform="matrix(1 0 0 1 7.213 34.069)" class="st1 st2 st3">00</text>
		<text transform="matrix(1 0 0 1 55.7134 34.0479)" class="st1 st2 st3">00</text>
	</g>
	<g>
		<circle class="st1" cx="13.7" cy="27.1" r="1.9"/>
		<circle class="st1" cx="18" cy="27.1" r="1.9"/>
		<circle class="st1" cx="22.4" cy="27.1" r="1.9"/>
		<circle class="st1" cx="26.7" cy="27.1" r="1.9"/>
		<circle class="st1" cx="31" cy="27.1" r="1.8"/>
		<circle class="st1" cx="35.3" cy="27.1" r="1.8"/>
		<circle class="st1" cx="39.7" cy="27.1" r="1.8"/>
		<circle class="st1" cx="44" cy="27.1" r="1.8"/>
		<circle class="st1" cx="48.3" cy="27.1" r="1.8"/>
		<circle class="st1" cx="52.6" cy="27.1" r="1.8"/>
		<text transform="matrix(1 0 0 1 7.213 28.139)" class="st1 st2 st3">00</text>
		<text transform="matrix(1 0 0 1 55.7134 28.1281)" class="st1 st2 st3">00</text>
	</g>
	<g>
		<circle class="st1" cx="13.7" cy="21.1" r="1.9"/>
		<circle class="st1" cx="18" cy="21.1" r="1.9"/>
		<circle class="st1" cx="22.4" cy="21.1" r="1.9"/>
		<circle class="st1" cx="26.7" cy="21.1" r="1.9"/>
		<circle class="st1" cx="31" cy="21.1" r="1.8"/>
		<circle class="st1" cx="35.3" cy="21.1" r="1.8"/>
		<circle class="st1" cx="39.7" cy="21.1" r="1.8"/>
		<circle class="st1" cx="44" cy="21.1" r="1.8"/>
		<circle class="st1" cx="48.3" cy="21.1" r="1.8"/>
		<text transform="matrix(1 0 0 1 7.213 22.2091)" class="st1 st2 st3">00</text>
		<text transform="matrix(1 0 0 1 51.3834 22.1879)" class="st1 st2 st3">00</text>
	</g>
	<g>
		<circle class="st1" cx="13.7" cy="15.2" r="1.9"/>
		<circle class="st1" cx="18" cy="15.2" r="1.9"/>
		<circle class="st1" cx="22.4" cy="15.2" r="1.9"/>
		<circle class="st1" cx="26.7" cy="15.2" r="1.9"/>
		<circle class="st1" cx="31" cy="15.2" r="1.8"/>
		<circle class="st1" cx="35.3" cy="15.2" r="1.8"/>
		<circle class="st1" cx="39.7" cy="15.2" r="1.8"/>
		<circle class="st1" cx="44" cy="15.2" r="1.8"/>
		<circle class="st1" cx="48.3" cy="15.2" r="1.8"/>
		<text transform="matrix(1 0 0 1 7.213 16.2792)" class="st1 st2 st3">00</text>
		<text transform="matrix(1 0 0 1 51.3834 16.2681)" class="st1 st2 st3">00</text>
	</g>
	<g>
		<circle class="st1" cx="13.7" cy="9.3" r="1.9"/>
		<circle class="st1" cx="18" cy="9.3" r="1.9"/>
		<circle class="st1" cx="22.4" cy="9.3" r="1.9"/>
		<circle class="st1" cx="26.7" cy="9.3" r="1.9"/>
		<circle class="st1" cx="31" cy="9.3" r="1.8"/>
		<circle class="st1" cx="35.3" cy="9.3" r="1.8"/>
		<circle class="st1" cx="39.7" cy="9.3" r="1.8"/>
		<circle class="st1" cx="44" cy="9.3" r="1.8"/>
		<circle class="st1" cx="48.3" cy="9.3" r="1.8"/>
		<text transform="matrix(1 0 0 1 7.213 10.3492)" class="st1 st2 st3">00</text>
		<text transform="matrix(1 0 0 1 51.3834 10.3485)" class="st1 st2 st3">00</text>
	</g>
</g>
</svg>
