<?xml version="1.0" encoding="utf-8"?>
<!-- Generator: Adobe Illustrator 23.0.1, SVG Export Plug-In . SVG Version: 6.00 Build 0)  -->
<svg version="1.1" id="Layer_1" xmlns="http://www.w3.org/2000/svg" xmlns:xlink="http://www.w3.org/1999/xlink" x="0px" y="0px"
	 viewBox="0 0 109 166" enable-background="new 0 0 109 166" xml:space="preserve">
<g onclick="&quot;E 9 (низ)&quot;;">
	
		<polygon fill="#F1F3F4" stroke="#BCC8CE" stroke-width="0.4" stroke-linecap="round" stroke-miterlimit="10" points="
		0.7,165.79 0.7,0.2 59.58,0.21 108.24,165.8 	"/>
	<g>
		<circle fill="#AEBDC4" cx="13.73" cy="157.54" r="1.85"/>
		<circle fill="#AEBDC4" cx="18.05" cy="157.54" r="1.85"/>
		<circle fill="#AEBDC4" cx="22.38" cy="157.54" r="1.85"/>
		<circle fill="#AEBDC4" cx="26.7" cy="157.54" r="1.85"/>
		<circle fill="#AEBDC4" cx="31.02" cy="157.54" r="1.85"/>
		<circle fill="#AEBDC4" cx="35.34" cy="157.54" r="1.85"/>
		<circle fill="#AEBDC4" cx="39.66" cy="157.54" r="1.85"/>
		<circle fill="#AEBDC4" cx="43.98" cy="157.54" r="1.85"/>
		<circle fill="#AEBDC4" cx="48.3" cy="157.54" r="1.85"/>
		<circle fill="#AEBDC4" cx="52.63" cy="157.54" r="1.85"/>
	</g>
	<g>
		<circle fill="#AEBDC4" cx="13.73" cy="151.61" r="1.85"/>
		<circle fill="#AEBDC4" cx="18.05" cy="151.61" r="1.85"/>
		<circle fill="#AEBDC4" cx="22.38" cy="151.61" r="1.85"/>
		<circle fill="#AEBDC4" cx="26.7" cy="151.61" r="1.85"/>
		<circle fill="#AEBDC4" cx="31.02" cy="151.61" r="1.85"/>
		<circle fill="#AEBDC4" cx="35.34" cy="151.61" r="1.85"/>
		<circle fill="#AEBDC4" cx="39.66" cy="151.61" r="1.85"/>
		<circle fill="#AEBDC4" cx="43.98" cy="151.61" r="1.85"/>
		<circle fill="#AEBDC4" cx="48.3" cy="151.61" r="1.85"/>
		<circle fill="#AEBDC4" cx="52.63" cy="151.61" r="1.85"/>
	</g>
	<g>
		<circle fill="#AEBDC4" cx="13.73" cy="145.68" r="1.85"/>
		<circle fill="#AEBDC4" cx="18.05" cy="145.68" r="1.85"/>
		<circle fill="#AEBDC4" cx="22.38" cy="145.68" r="1.85"/>
		<circle fill="#AEBDC4" cx="26.7" cy="145.68" r="1.85"/>
		<circle fill="#AEBDC4" cx="31.02" cy="145.68" r="1.85"/>
		<circle fill="#AEBDC4" cx="35.34" cy="145.68" r="1.85"/>
		<circle fill="#AEBDC4" cx="39.66" cy="145.68" r="1.85"/>
		<circle fill="#AEBDC4" cx="43.98" cy="145.68" r="1.85"/>
		<circle fill="#AEBDC4" cx="48.3" cy="145.68" r="1.85"/>
		<circle fill="#AEBDC4" cx="52.63" cy="145.68" r="1.85"/>
	</g>
	<g>
		<circle fill="#AEBDC4" cx="22.39" cy="139.74" r="1.85"/>
		<circle fill="#AEBDC4" cx="26.71" cy="139.74" r="1.85"/>
		<circle fill="#AEBDC4" cx="31.03" cy="139.74" r="1.85"/>
		<circle fill="#AEBDC4" cx="35.35" cy="139.74" r="1.85"/>
		<circle fill="#AEBDC4" cx="39.67" cy="139.74" r="1.85"/>
		<circle fill="#AEBDC4" cx="43.99" cy="139.74" r="1.85"/>
		<circle fill="#AEBDC4" cx="48.31" cy="139.74" r="1.85"/>
		<circle fill="#AEBDC4" cx="52.63" cy="139.74" r="1.85"/>
	</g>
	<g>
		<circle fill="#AEBDC4" cx="22.39" cy="133.81" r="1.85"/>
		<circle fill="#AEBDC4" cx="26.71" cy="133.81" r="1.85"/>
		<circle fill="#AEBDC4" cx="31.03" cy="133.81" r="1.85"/>
		<circle fill="#AEBDC4" cx="35.35" cy="133.81" r="1.85"/>
		<circle fill="#AEBDC4" cx="39.67" cy="133.81" r="1.85"/>
		<circle fill="#AEBDC4" cx="43.99" cy="133.81" r="1.85"/>
		<circle fill="#AEBDC4" cx="48.31" cy="133.81" r="1.85"/>
		<circle fill="#AEBDC4" cx="52.63" cy="133.81" r="1.85"/>
	</g>
	<g>
		<circle fill="#AEBDC4" cx="22.39" cy="127.88" r="1.85"/>
		<circle fill="#AEBDC4" cx="26.71" cy="127.88" r="1.85"/>
		<circle fill="#AEBDC4" cx="31.03" cy="127.88" r="1.85"/>
		<circle fill="#AEBDC4" cx="35.35" cy="127.88" r="1.85"/>
		<circle fill="#AEBDC4" cx="39.67" cy="127.88" r="1.85"/>
		<circle fill="#AEBDC4" cx="43.99" cy="127.88" r="1.85"/>
		<circle fill="#AEBDC4" cx="48.31" cy="127.88" r="1.85"/>
		<circle fill="#AEBDC4" cx="52.63" cy="127.88" r="1.85"/>
	</g>
	<g>
		<circle fill="#AEBDC4" cx="22.39" cy="121.95" r="1.85"/>
		<circle fill="#AEBDC4" cx="26.71" cy="121.95" r="1.85"/>
		<circle fill="#AEBDC4" cx="31.03" cy="121.95" r="1.85"/>
		<circle fill="#AEBDC4" cx="35.35" cy="121.95" r="1.85"/>
		<circle fill="#AEBDC4" cx="39.67" cy="121.95" r="1.85"/>
		<circle fill="#AEBDC4" cx="43.99" cy="121.95" r="1.85"/>
		<circle fill="#AEBDC4" cx="48.31" cy="121.95" r="1.85"/>
		<circle fill="#AEBDC4" cx="52.63" cy="121.95" r="1.85"/>
		<circle fill="#AEBDC4" cx="56.95" cy="121.95" r="1.85"/>
		<circle fill="#AEBDC4" cx="61.29" cy="121.95" r="1.85"/>
		<circle fill="#AEBDC4" cx="65.62" cy="121.95" r="1.85"/>
		<circle fill="#AEBDC4" cx="69.95" cy="121.95" r="1.85"/>
		<circle fill="#AEBDC4" cx="74.28" cy="121.95" r="1.85"/>
		<circle fill="#AEBDC4" cx="78.61" cy="121.95" r="1.85"/>
	</g>
	<g>
		<circle fill="#AEBDC4" cx="22.39" cy="116.02" r="1.85"/>
		<circle fill="#AEBDC4" cx="26.71" cy="116.02" r="1.85"/>
		<circle fill="#AEBDC4" cx="31.03" cy="116.02" r="1.85"/>
		<circle fill="#AEBDC4" cx="35.35" cy="116.02" r="1.85"/>
		<circle fill="#AEBDC4" cx="39.67" cy="116.02" r="1.85"/>
		<circle fill="#AEBDC4" cx="43.99" cy="116.02" r="1.85"/>
		<circle fill="#AEBDC4" cx="48.31" cy="116.02" r="1.85"/>
		<circle fill="#AEBDC4" cx="52.63" cy="116.02" r="1.85"/>
		<circle fill="#AEBDC4" cx="56.95" cy="116.02" r="1.85"/>
		<circle fill="#AEBDC4" cx="61.29" cy="116.02" r="1.85"/>
		<circle fill="#AEBDC4" cx="65.62" cy="116.02" r="1.85"/>
		<circle fill="#AEBDC4" cx="69.95" cy="116.02" r="1.85"/>
		<circle fill="#AEBDC4" cx="74.28" cy="116.02" r="1.85"/>
		<circle fill="#AEBDC4" cx="78.61" cy="116.02" r="1.85"/>
	</g>
	<g>
		<circle fill="#AEBDC4" cx="13.73" cy="110.09" r="1.85"/>
		<circle fill="#AEBDC4" cx="18.05" cy="110.09" r="1.85"/>
		<circle fill="#AEBDC4" cx="22.38" cy="110.09" r="1.85"/>
		<circle fill="#AEBDC4" cx="26.7" cy="110.09" r="1.85"/>
		<circle fill="#AEBDC4" cx="31.02" cy="110.09" r="1.85"/>
		<circle fill="#AEBDC4" cx="35.34" cy="110.09" r="1.85"/>
		<circle fill="#AEBDC4" cx="39.66" cy="110.09" r="1.85"/>
		<circle fill="#AEBDC4" cx="43.98" cy="110.09" r="1.85"/>
		<circle fill="#AEBDC4" cx="48.3" cy="110.09" r="1.85"/>
		<circle fill="#AEBDC4" cx="52.63" cy="110.09" r="1.85"/>
		<circle fill="#AEBDC4" cx="56.96" cy="110.09" r="1.85"/>
		<circle fill="#AEBDC4" cx="61.29" cy="110.09" r="1.85"/>
		<circle fill="#AEBDC4" cx="65.63" cy="110.09" r="1.85"/>
		<circle fill="#AEBDC4" cx="69.96" cy="110.09" r="1.85"/>
		<circle fill="#AEBDC4" cx="74.29" cy="110.09" r="1.85"/>
	</g>
	<g>
		<circle fill="#AEBDC4" cx="13.73" cy="104.16" r="1.85"/>
		<circle fill="#AEBDC4" cx="18.05" cy="104.16" r="1.85"/>
		<circle fill="#AEBDC4" cx="22.38" cy="104.16" r="1.85"/>
		<circle fill="#AEBDC4" cx="26.7" cy="104.16" r="1.85"/>
		<circle fill="#AEBDC4" cx="31.02" cy="104.16" r="1.85"/>
		<circle fill="#AEBDC4" cx="35.34" cy="104.16" r="1.85"/>
		<circle fill="#AEBDC4" cx="39.66" cy="104.16" r="1.85"/>
		<circle fill="#AEBDC4" cx="43.98" cy="104.16" r="1.85"/>
		<circle fill="#AEBDC4" cx="48.3" cy="104.16" r="1.85"/>
		<circle fill="#AEBDC4" cx="52.63" cy="104.16" r="1.85"/>
		<circle fill="#AEBDC4" cx="56.96" cy="104.16" r="1.85"/>
		<circle fill="#AEBDC4" cx="61.29" cy="104.16" r="1.85"/>
		<circle fill="#AEBDC4" cx="65.63" cy="104.16" r="1.85"/>
		<circle fill="#AEBDC4" cx="69.96" cy="104.16" r="1.85"/>
		<circle fill="#AEBDC4" cx="74.29" cy="104.16" r="1.85"/>
	</g>
	<g>
		<circle fill="#AEBDC4" cx="13.73" cy="98.23" r="1.85"/>
		<circle fill="#AEBDC4" cx="18.05" cy="98.23" r="1.85"/>
		<circle fill="#AEBDC4" cx="22.38" cy="98.23" r="1.85"/>
		<circle fill="#AEBDC4" cx="26.7" cy="98.23" r="1.85"/>
		<circle fill="#AEBDC4" cx="31.02" cy="98.23" r="1.85"/>
		<circle fill="#AEBDC4" cx="35.34" cy="98.23" r="1.85"/>
		<circle fill="#AEBDC4" cx="39.66" cy="98.23" r="1.85"/>
		<circle fill="#AEBDC4" cx="43.98" cy="98.23" r="1.85"/>
		<circle fill="#AEBDC4" cx="48.3" cy="98.23" r="1.85"/>
		<circle fill="#AEBDC4" cx="52.63" cy="98.23" r="1.85"/>
		<circle fill="#AEBDC4" cx="56.96" cy="98.23" r="1.85"/>
		<circle fill="#AEBDC4" cx="61.29" cy="98.23" r="1.85"/>
		<circle fill="#AEBDC4" cx="65.63" cy="98.23" r="1.85"/>
		<circle fill="#AEBDC4" cx="69.96" cy="98.23" r="1.85"/>
	</g>
	<g>
		<circle fill="#AEBDC4" cx="13.73" cy="92.3" r="1.85"/>
		<circle fill="#AEBDC4" cx="18.05" cy="92.3" r="1.85"/>
		<circle fill="#AEBDC4" cx="22.38" cy="92.3" r="1.85"/>
		<circle fill="#AEBDC4" cx="26.7" cy="92.3" r="1.85"/>
		<circle fill="#AEBDC4" cx="31.02" cy="92.3" r="1.85"/>
		<circle fill="#AEBDC4" cx="35.34" cy="92.3" r="1.85"/>
		<circle fill="#AEBDC4" cx="39.66" cy="92.3" r="1.85"/>
		<circle fill="#AEBDC4" cx="43.98" cy="92.3" r="1.85"/>
		<circle fill="#AEBDC4" cx="48.3" cy="92.3" r="1.85"/>
		<circle fill="#AEBDC4" cx="52.63" cy="92.3" r="1.85"/>
		<circle fill="#AEBDC4" cx="56.96" cy="92.3" r="1.85"/>
		<circle fill="#AEBDC4" cx="61.29" cy="92.3" r="1.85"/>
		<circle fill="#AEBDC4" cx="65.63" cy="92.3" r="1.85"/>
		<circle fill="#AEBDC4" cx="69.96" cy="92.3" r="1.85"/>
	</g>
	<g>
		<circle fill="#AEBDC4" cx="13.73" cy="86.37" r="1.85"/>
		<circle fill="#AEBDC4" cx="18.05" cy="86.37" r="1.85"/>
		<circle fill="#AEBDC4" cx="22.38" cy="86.37" r="1.85"/>
		<circle fill="#AEBDC4" cx="26.7" cy="86.37" r="1.85"/>
		<circle fill="#AEBDC4" cx="31.02" cy="86.37" r="1.85"/>
		<circle fill="#AEBDC4" cx="35.34" cy="86.37" r="1.85"/>
		<circle fill="#AEBDC4" cx="39.66" cy="86.37" r="1.85"/>
		<circle fill="#AEBDC4" cx="43.98" cy="86.37" r="1.85"/>
		<circle fill="#AEBDC4" cx="48.3" cy="86.37" r="1.85"/>
		<circle fill="#AEBDC4" cx="52.63" cy="86.37" r="1.85"/>
		<circle fill="#AEBDC4" cx="56.96" cy="86.37" r="1.85"/>
		<circle fill="#AEBDC4" cx="61.29" cy="86.37" r="1.85"/>
		<circle fill="#AEBDC4" cx="65.63" cy="86.37" r="1.85"/>
		<circle fill="#AEBDC4" cx="69.96" cy="86.37" r="1.85"/>
	</g>
	<g>
		<circle fill="#AEBDC4" cx="13.73" cy="80.44" r="1.85"/>
		<circle fill="#AEBDC4" cx="18.05" cy="80.44" r="1.85"/>
		<circle fill="#AEBDC4" cx="22.38" cy="80.44" r="1.85"/>
		<circle fill="#AEBDC4" cx="26.7" cy="80.44" r="1.85"/>
		<circle fill="#AEBDC4" cx="31.02" cy="80.44" r="1.85"/>
		<circle fill="#AEBDC4" cx="35.34" cy="80.44" r="1.85"/>
		<circle fill="#AEBDC4" cx="39.66" cy="80.44" r="1.85"/>
		<circle fill="#AEBDC4" cx="43.98" cy="80.44" r="1.85"/>
		<circle fill="#AEBDC4" cx="48.3" cy="80.44" r="1.85"/>
		<circle fill="#AEBDC4" cx="52.63" cy="80.44" r="1.85"/>
		<circle fill="#AEBDC4" cx="56.96" cy="80.44" r="1.85"/>
		<circle fill="#AEBDC4" cx="61.29" cy="80.44" r="1.85"/>
		<circle fill="#AEBDC4" cx="65.63" cy="80.44" r="1.85"/>
		<circle fill="#AEBDC4" cx="69.96" cy="80.44" r="1.85"/>
	</g>
	<g>
		<circle fill="#AEBDC4" cx="13.73" cy="74.51" r="1.85"/>
		<circle fill="#AEBDC4" cx="18.05" cy="74.51" r="1.85"/>
		<circle fill="#AEBDC4" cx="22.38" cy="74.51" r="1.85"/>
		<circle fill="#AEBDC4" cx="26.7" cy="74.51" r="1.85"/>
		<circle fill="#AEBDC4" cx="31.02" cy="74.51" r="1.85"/>
		<circle fill="#AEBDC4" cx="35.34" cy="74.51" r="1.85"/>
		<circle fill="#AEBDC4" cx="39.66" cy="74.51" r="1.85"/>
		<circle fill="#AEBDC4" cx="43.98" cy="74.51" r="1.85"/>
		<circle fill="#AEBDC4" cx="48.3" cy="74.51" r="1.85"/>
		<circle fill="#AEBDC4" cx="52.63" cy="74.51" r="1.85"/>
		<circle fill="#AEBDC4" cx="56.96" cy="74.51" r="1.85"/>
		<circle fill="#AEBDC4" cx="61.29" cy="74.51" r="1.85"/>
		<circle fill="#AEBDC4" cx="65.63" cy="74.51" r="1.85"/>
		<circle fill="#AEBDC4" cx="69.96" cy="74.51" r="1.85"/>
	</g>
	<g>
		<circle fill="#AEBDC4" cx="13.73" cy="68.57" r="1.85"/>
		<circle fill="#AEBDC4" cx="18.05" cy="68.57" r="1.85"/>
		<circle fill="#AEBDC4" cx="22.38" cy="68.57" r="1.85"/>
		<circle fill="#AEBDC4" cx="26.7" cy="68.57" r="1.85"/>
		<circle fill="#AEBDC4" cx="31.02" cy="68.57" r="1.85"/>
		<circle fill="#AEBDC4" cx="35.34" cy="68.57" r="1.85"/>
		<circle fill="#AEBDC4" cx="39.66" cy="68.57" r="1.85"/>
		<circle fill="#AEBDC4" cx="43.98" cy="68.57" r="1.85"/>
		<circle fill="#AEBDC4" cx="48.3" cy="68.57" r="1.85"/>
		<circle fill="#AEBDC4" cx="52.63" cy="68.57" r="1.85"/>
		<circle fill="#AEBDC4" cx="56.96" cy="68.57" r="1.85"/>
		<circle fill="#AEBDC4" cx="61.29" cy="68.57" r="1.85"/>
		<circle fill="#AEBDC4" cx="65.63" cy="68.57" r="1.85"/>
	</g>
	<g>
		<circle fill="#AEBDC4" cx="13.73" cy="62.64" r="1.85"/>
		<circle fill="#AEBDC4" cx="18.05" cy="62.64" r="1.85"/>
		<circle fill="#AEBDC4" cx="22.38" cy="62.64" r="1.85"/>
		<circle fill="#AEBDC4" cx="26.7" cy="62.64" r="1.85"/>
		<circle fill="#AEBDC4" cx="31.02" cy="62.64" r="1.85"/>
		<circle fill="#AEBDC4" cx="35.34" cy="62.64" r="1.85"/>
		<circle fill="#AEBDC4" cx="39.66" cy="62.64" r="1.85"/>
		<circle fill="#AEBDC4" cx="43.98" cy="62.64" r="1.85"/>
		<circle fill="#AEBDC4" cx="48.3" cy="62.64" r="1.85"/>
		<circle fill="#AEBDC4" cx="52.63" cy="62.64" r="1.85"/>
		<circle fill="#AEBDC4" cx="56.96" cy="62.64" r="1.85"/>
		<circle fill="#AEBDC4" cx="61.29" cy="62.64" r="1.85"/>
		<circle fill="#AEBDC4" cx="65.63" cy="62.64" r="1.85"/>
	</g>
	<g>
		<circle fill="#AEBDC4" cx="13.73" cy="56.71" r="1.85"/>
		<circle fill="#AEBDC4" cx="18.05" cy="56.71" r="1.85"/>
		<circle fill="#AEBDC4" cx="22.38" cy="56.71" r="1.85"/>
		<circle fill="#AEBDC4" cx="26.7" cy="56.71" r="1.85"/>
		<circle fill="#AEBDC4" cx="31.02" cy="56.71" r="1.85"/>
		<circle fill="#AEBDC4" cx="35.34" cy="56.71" r="1.85"/>
		<circle fill="#AEBDC4" cx="39.66" cy="56.71" r="1.85"/>
		<circle fill="#AEBDC4" cx="43.98" cy="56.71" r="1.85"/>
		<circle fill="#AEBDC4" cx="48.3" cy="56.71" r="1.85"/>
		<circle fill="#AEBDC4" cx="52.63" cy="56.71" r="1.85"/>
		<circle fill="#AEBDC4" cx="56.96" cy="56.71" r="1.85"/>
		<circle fill="#AEBDC4" cx="61.29" cy="56.71" r="1.85"/>
	</g>
	<g>
		<circle fill="#AEBDC4" cx="13.73" cy="50.78" r="1.85"/>
		<circle fill="#AEBDC4" cx="18.05" cy="50.78" r="1.85"/>
		<circle fill="#AEBDC4" cx="22.38" cy="50.78" r="1.85"/>
		<circle fill="#AEBDC4" cx="26.7" cy="50.78" r="1.85"/>
		<circle fill="#AEBDC4" cx="31.02" cy="50.78" r="1.85"/>
		<circle fill="#AEBDC4" cx="35.34" cy="50.78" r="1.85"/>
		<circle fill="#AEBDC4" cx="39.66" cy="50.78" r="1.85"/>
		<circle fill="#AEBDC4" cx="43.98" cy="50.78" r="1.85"/>
		<circle fill="#AEBDC4" cx="48.3" cy="50.78" r="1.85"/>
		<circle fill="#AEBDC4" cx="52.63" cy="50.78" r="1.85"/>
		<circle fill="#AEBDC4" cx="56.96" cy="50.78" r="1.85"/>
		<circle fill="#AEBDC4" cx="61.29" cy="50.78" r="1.85"/>
	</g>
	<g>
		<circle fill="#AEBDC4" cx="13.73" cy="44.85" r="1.85"/>
		<circle fill="#AEBDC4" cx="18.05" cy="44.85" r="1.85"/>
		<circle fill="#AEBDC4" cx="22.38" cy="44.85" r="1.85"/>
		<circle fill="#AEBDC4" cx="26.7" cy="44.85" r="1.85"/>
		<circle fill="#AEBDC4" cx="31.02" cy="44.85" r="1.85"/>
		<circle fill="#AEBDC4" cx="35.34" cy="44.85" r="1.85"/>
		<circle fill="#AEBDC4" cx="39.66" cy="44.85" r="1.85"/>
		<circle fill="#AEBDC4" cx="43.98" cy="44.85" r="1.85"/>
		<circle fill="#AEBDC4" cx="48.3" cy="44.85" r="1.85"/>
		<circle fill="#AEBDC4" cx="52.63" cy="44.85" r="1.85"/>
		<circle fill="#AEBDC4" cx="56.96" cy="44.85" r="1.85"/>
	</g>
	<g>
		<circle fill="#AEBDC4" cx="13.73" cy="38.92" r="1.85"/>
		<circle fill="#AEBDC4" cx="18.05" cy="38.92" r="1.85"/>
		<circle fill="#AEBDC4" cx="22.38" cy="38.92" r="1.85"/>
		<circle fill="#AEBDC4" cx="26.7" cy="38.92" r="1.85"/>
		<circle fill="#AEBDC4" cx="31.02" cy="38.92" r="1.85"/>
		<circle fill="#AEBDC4" cx="35.34" cy="38.92" r="1.85"/>
		<circle fill="#AEBDC4" cx="39.66" cy="38.92" r="1.85"/>
		<circle fill="#AEBDC4" cx="43.98" cy="38.92" r="1.85"/>
		<circle fill="#AEBDC4" cx="48.3" cy="38.92" r="1.85"/>
		<circle fill="#AEBDC4" cx="52.63" cy="38.92" r="1.85"/>
		<circle fill="#AEBDC4" cx="56.96" cy="38.92" r="1.85"/>
	</g>
	<g>
		<circle fill="#AEBDC4" cx="13.73" cy="32.99" r="1.85"/>
		<circle fill="#AEBDC4" cx="18.05" cy="32.99" r="1.85"/>
		<circle fill="#AEBDC4" cx="22.38" cy="32.99" r="1.85"/>
		<circle fill="#AEBDC4" cx="26.7" cy="32.99" r="1.85"/>
		<circle fill="#AEBDC4" cx="31.02" cy="32.99" r="1.85"/>
		<circle fill="#AEBDC4" cx="35.34" cy="32.99" r="1.85"/>
		<circle fill="#AEBDC4" cx="39.66" cy="32.99" r="1.85"/>
		<circle fill="#AEBDC4" cx="43.98" cy="32.99" r="1.85"/>
		<circle fill="#AEBDC4" cx="48.3" cy="32.99" r="1.85"/>
		<circle fill="#AEBDC4" cx="52.63" cy="32.99" r="1.85"/>
	</g>
	<g>
		<circle fill="#AEBDC4" cx="13.73" cy="27.06" r="1.85"/>
		<circle fill="#AEBDC4" cx="18.05" cy="27.06" r="1.85"/>
		<circle fill="#AEBDC4" cx="22.38" cy="27.06" r="1.85"/>
		<circle fill="#AEBDC4" cx="26.7" cy="27.06" r="1.85"/>
		<circle fill="#AEBDC4" cx="31.02" cy="27.06" r="1.85"/>
		<circle fill="#AEBDC4" cx="35.34" cy="27.06" r="1.85"/>
		<circle fill="#AEBDC4" cx="39.66" cy="27.06" r="1.85"/>
		<circle fill="#AEBDC4" cx="43.98" cy="27.06" r="1.85"/>
		<circle fill="#AEBDC4" cx="48.3" cy="27.06" r="1.85"/>
		<circle fill="#AEBDC4" cx="52.63" cy="27.06" r="1.85"/>
	</g>
	<g>
		<circle fill="#AEBDC4" cx="13.73" cy="21.13" r="1.85"/>
		<circle fill="#AEBDC4" cx="18.05" cy="21.13" r="1.85"/>
		<circle fill="#AEBDC4" cx="22.38" cy="21.13" r="1.85"/>
		<circle fill="#AEBDC4" cx="26.7" cy="21.13" r="1.85"/>
		<circle fill="#AEBDC4" cx="31.02" cy="21.13" r="1.85"/>
		<circle fill="#AEBDC4" cx="35.34" cy="21.13" r="1.85"/>
		<circle fill="#AEBDC4" cx="39.66" cy="21.13" r="1.85"/>
		<circle fill="#AEBDC4" cx="43.98" cy="21.13" r="1.85"/>
		<circle fill="#AEBDC4" cx="48.3" cy="21.13" r="1.85"/>
	</g>
	<g>
		<circle fill="#AEBDC4" cx="13.73" cy="15.2" r="1.85"/>
		<circle fill="#AEBDC4" cx="18.05" cy="15.2" r="1.85"/>
		<circle fill="#AEBDC4" cx="22.38" cy="15.2" r="1.85"/>
		<circle fill="#AEBDC4" cx="26.7" cy="15.2" r="1.85"/>
		<circle fill="#AEBDC4" cx="31.02" cy="15.2" r="1.85"/>
		<circle fill="#AEBDC4" cx="35.34" cy="15.2" r="1.85"/>
		<circle fill="#AEBDC4" cx="39.66" cy="15.2" r="1.85"/>
		<circle fill="#AEBDC4" cx="43.98" cy="15.2" r="1.85"/>
		<circle fill="#AEBDC4" cx="48.3" cy="15.2" r="1.85"/>
	</g>
	<g>
		<circle fill="#AEBDC4" cx="13.73" cy="9.27" r="1.85"/>
		<circle fill="#AEBDC4" cx="18.05" cy="9.27" r="1.85"/>
		<circle fill="#AEBDC4" cx="22.38" cy="9.27" r="1.85"/>
		<circle fill="#AEBDC4" cx="26.7" cy="9.27" r="1.85"/>
		<circle fill="#AEBDC4" cx="31.02" cy="9.27" r="1.85"/>
		<circle fill="#AEBDC4" cx="35.34" cy="9.27" r="1.85"/>
		<circle fill="#AEBDC4" cx="39.66" cy="9.27" r="1.85"/>
		<circle fill="#AEBDC4" cx="43.98" cy="9.27" r="1.85"/>
		<circle fill="#AEBDC4" cx="48.3" cy="9.27" r="1.85"/>
	</g>
</g>
</svg>
