<?xml version="1.0" encoding="utf-8"?>
<!-- Generator: Adobe Illustrator 23.0.1, SVG Export Plug-In . SVG Version: 6.00 Build 0)  -->
<svg version="1.1" id="Layer_1" xmlns="http://www.w3.org/2000/svg" xmlns:xlink="http://www.w3.org/1999/xlink" x="0px" y="0px"
	 width="109px" height="166px" viewBox="0 0 109 166" enable-background="new 0 0 109 166" xml:space="preserve">
<g onclick="this.parentNode.sekt.push(this);this.a_name=&quot;E 9 (низ)&quot;;">
	
		<polygon onclick="this.parentNode.a_fon=this;" fill="#F1F3F4" stroke="#BCC8CE" stroke-width="0.4" stroke-linecap="round" stroke-miterlimit="10" points="
		0.7,165.79 0.7,0.2 59.58,0.21 108.24,165.8 	"/>
	<g onclick="this.parentNode.a_row=this;">
		
			<line onclick="this.a_par={beg_namb:1,quant:9};" fill="none" stroke="#D3DBDF" stroke-width="0.4" stroke-miterlimit="10" x1="11.89" y1="9.27" x2="50.15" y2="9.27"/>
		
			<line onclick="this.a_par={beg_namb:1,quant:9};" fill="none" stroke="#D3DBDF" stroke-width="0.4" stroke-miterlimit="10" x1="11.89" y1="15.2" x2="50.15" y2="15.2"/>
		
			<line onclick="this.a_par={beg_namb:1,quant:9};" fill="none" stroke="#D3DBDF" stroke-width="0.4" stroke-miterlimit="10" x1="11.89" y1="21.13" x2="50.15" y2="21.13"/>
		
			<line onclick="this.a_par={beg_namb:1,quant:10};" fill="none" stroke="#D3DBDF" stroke-width="0.4" stroke-miterlimit="10" x1="11.89" y1="27.06" x2="54.48" y2="27.06"/>
		
			<line onclick="this.a_par={beg_namb:1,quant:10};" fill="none" stroke="#D3DBDF" stroke-width="0.4" stroke-miterlimit="10" x1="11.89" y1="32.99" x2="54.48" y2="32.99"/>
		
			<line onclick="this.a_par={beg_namb:1,quant:11};" fill="none" stroke="#D3DBDF" stroke-width="0.4" stroke-miterlimit="10" x1="11.89" y1="38.92" x2="58.81" y2="38.92"/>
		
			<line onclick="this.a_par={beg_namb:1,quant:11};" fill="none" stroke="#D3DBDF" stroke-width="0.4" stroke-miterlimit="10" x1="11.89" y1="44.85" x2="58.81" y2="44.85"/>
		
			<line onclick="this.a_par={beg_namb:1,quant:12};" fill="none" stroke="#D3DBDF" stroke-width="0.4" stroke-miterlimit="10" x1="11.89" y1="50.78" x2="63.14" y2="50.78"/>
		
			<line onclick="this.a_par={beg_namb:1,quant:12};" fill="none" stroke="#D3DBDF" stroke-width="0.4" stroke-miterlimit="10" x1="11.89" y1="56.71" x2="63.14" y2="56.71"/>
		
			<line onclick="this.a_par={beg_namb:1,quant:13};" fill="none" stroke="#D3DBDF" stroke-width="0.4" stroke-miterlimit="10" x1="11.89" y1="62.64" x2="67.47" y2="62.64"/>
		
			<line onclick="this.a_par={beg_namb:1,quant:13};" fill="none" stroke="#D3DBDF" stroke-width="0.4" stroke-miterlimit="10" x1="11.89" y1="68.57" x2="67.47" y2="68.57"/>
		
			<line onclick="this.a_par={beg_namb:1,quant:14};" fill="none" stroke="#D3DBDF" stroke-width="0.4" stroke-miterlimit="10" x1="11.89" y1="74.51" x2="71.8" y2="74.51"/>
		
			<line onclick="this.a_par={beg_namb:1,quant:14};" fill="none" stroke="#D3DBDF" stroke-width="0.4" stroke-miterlimit="10" x1="11.89" y1="80.44" x2="71.8" y2="80.44"/>
		
			<line onclick="this.a_par={beg_namb:1,quant:14};" fill="none" stroke="#D3DBDF" stroke-width="0.4" stroke-miterlimit="10" x1="11.89" y1="86.37" x2="71.8" y2="86.37"/>
		
			<line onclick="this.a_par={beg_namb:1,quant:14};" fill="none" stroke="#D3DBDF" stroke-width="0.4" stroke-miterlimit="10" x1="11.89" y1="92.3" x2="71.8" y2="92.3"/>
		
			<line onclick="this.a_par={beg_namb:1,quant:14};" fill="none" stroke="#D3DBDF" stroke-width="0.4" stroke-miterlimit="10" x1="11.89" y1="98.23" x2="71.8" y2="98.23"/>
		
			<line onclick="this.a_par={beg_namb:1,quant:15};" fill="none" stroke="#D3DBDF" stroke-width="0.4" stroke-miterlimit="10" x1="11.89" y1="104.16" x2="76.13" y2="104.16"/>
		
			<line onclick="this.a_par={beg_namb:1,quant:15};" fill="none" stroke="#D3DBDF" stroke-width="0.4" stroke-miterlimit="10" x1="11.89" y1="110.09" x2="76.13" y2="110.09"/>
		
			<line onclick="this.a_par={beg_namb:1,quant:14};" fill="none" stroke="#D3DBDF" stroke-width="0.4" stroke-miterlimit="10" x1="20.54" y1="116.02" x2="80.45" y2="116.02"/>
		
			<line onclick="this.a_par={beg_namb:1,quant:14};" fill="none" stroke="#D3DBDF" stroke-width="0.4" stroke-miterlimit="10" x1="20.54" y1="121.95" x2="80.45" y2="121.95"/>
		
			<line onclick="this.a_par={beg_namb:1,quant:8};" fill="none" stroke="#D3DBDF" stroke-width="0.4" stroke-miterlimit="10" x1="20.54" y1="127.88" x2="54.48" y2="127.88"/>
		
			<line onclick="this.a_par={beg_namb:1,quant:8};" fill="none" stroke="#D3DBDF" stroke-width="0.4" stroke-miterlimit="10" x1="20.54" y1="133.81" x2="54.48" y2="133.81"/>
		
			<line onclick="this.a_par={beg_namb:1,quant:8};" fill="none" stroke="#D3DBDF" stroke-width="0.4" stroke-miterlimit="10" x1="20.54" y1="139.74" x2="54.48" y2="139.74"/>
		
			<line onclick="this.a_par={beg_namb:1,quant:10};" fill="none" stroke="#D3DBDF" stroke-width="0.4" stroke-miterlimit="10" x1="11.89" y1="145.68" x2="54.48" y2="145.68"/>
		
			<line onclick="this.a_par={beg_namb:1,quant:10};" fill="none" stroke="#D3DBDF" stroke-width="0.4" stroke-miterlimit="10" x1="11.89" y1="151.61" x2="54.48" y2="151.61"/>
		
			<line onclick="this.a_par={beg_namb:1,quant:10};" fill="none" stroke="#D3DBDF" stroke-width="0.4" stroke-miterlimit="10" x1="11.89" y1="157.54" x2="54.48" y2="157.54"/>
	</g>
	<g>
		<g>
			<circle fill="#AEBDC4" cx="22.39" cy="127.88" r="1.85"/>
			<circle fill="#AEBDC4" cx="26.71" cy="127.88" r="1.85"/>
			<circle fill="#AEBDC4" cx="31.03" cy="127.88" r="1.85"/>
			<circle fill="#AEBDC4" cx="35.35" cy="127.88" r="1.85"/>
			<circle fill="#AEBDC4" cx="39.67" cy="127.88" r="1.85"/>
			<circle fill="#AEBDC4" cx="43.99" cy="127.88" r="1.85"/>
			<circle fill="#AEBDC4" cx="48.31" cy="127.88" r="1.85"/>
			<circle fill="#AEBDC4" cx="52.63" cy="127.88" r="1.85"/>
		</g>
		<g>
			<circle fill="#AEBDC4" cx="22.39" cy="133.81" r="1.85"/>
			<circle fill="#AEBDC4" cx="26.71" cy="133.81" r="1.85"/>
			<circle fill="#AEBDC4" cx="31.03" cy="133.81" r="1.85"/>
			<circle fill="#AEBDC4" cx="35.35" cy="133.81" r="1.85"/>
			<circle fill="#AEBDC4" cx="39.67" cy="133.81" r="1.85"/>
			<circle fill="#AEBDC4" cx="43.99" cy="133.81" r="1.85"/>
			<circle fill="#AEBDC4" cx="48.31" cy="133.81" r="1.85"/>
			<circle fill="#AEBDC4" cx="52.63" cy="133.81" r="1.85"/>
		</g>
		<g>
			<circle fill="#AEBDC4" cx="22.39" cy="139.74" r="1.85"/>
			<circle fill="#AEBDC4" cx="26.71" cy="139.74" r="1.85"/>
			<circle fill="#AEBDC4" cx="31.03" cy="139.74" r="1.85"/>
			<circle fill="#AEBDC4" cx="35.35" cy="139.74" r="1.85"/>
			<circle fill="#AEBDC4" cx="39.67" cy="139.74" r="1.85"/>
			<circle fill="#AEBDC4" cx="43.99" cy="139.74" r="1.85"/>
			<circle fill="#AEBDC4" cx="48.31" cy="139.74" r="1.85"/>
			<circle fill="#AEBDC4" cx="52.63" cy="139.74" r="1.85"/>
		</g>
		<g>
			<circle fill="#AEBDC4" cx="13.73" cy="9.27" r="1.85"/>
			<circle fill="#AEBDC4" cx="18.05" cy="9.27" r="1.85"/>
			<circle fill="#AEBDC4" cx="22.38" cy="9.27" r="1.85"/>
			<circle fill="#AEBDC4" cx="26.7" cy="9.27" r="1.85"/>
			<circle fill="#AEBDC4" cx="31.02" cy="9.27" r="1.85"/>
			<circle fill="#AEBDC4" cx="35.34" cy="9.27" r="1.85"/>
			<circle fill="#AEBDC4" cx="39.66" cy="9.27" r="1.85"/>
			<circle fill="#AEBDC4" cx="43.98" cy="9.27" r="1.85"/>
			<circle fill="#AEBDC4" cx="48.3" cy="9.27" r="1.85"/>
		</g>
		<g>
			<circle fill="#AEBDC4" cx="13.73" cy="15.2" r="1.85"/>
			<circle fill="#AEBDC4" cx="18.05" cy="15.2" r="1.85"/>
			<circle fill="#AEBDC4" cx="22.38" cy="15.2" r="1.85"/>
			<circle fill="#AEBDC4" cx="26.7" cy="15.2" r="1.85"/>
			<circle fill="#AEBDC4" cx="31.02" cy="15.2" r="1.85"/>
			<circle fill="#AEBDC4" cx="35.34" cy="15.2" r="1.85"/>
			<circle fill="#AEBDC4" cx="39.66" cy="15.2" r="1.85"/>
			<circle fill="#AEBDC4" cx="43.98" cy="15.2" r="1.85"/>
			<circle fill="#AEBDC4" cx="48.3" cy="15.2" r="1.85"/>
		</g>
		<g>
			<circle fill="#AEBDC4" cx="13.73" cy="21.13" r="1.85"/>
			<circle fill="#AEBDC4" cx="18.05" cy="21.13" r="1.85"/>
			<circle fill="#AEBDC4" cx="22.38" cy="21.13" r="1.85"/>
			<circle fill="#AEBDC4" cx="26.7" cy="21.13" r="1.85"/>
			<circle fill="#AEBDC4" cx="31.02" cy="21.13" r="1.85"/>
			<circle fill="#AEBDC4" cx="35.34" cy="21.13" r="1.85"/>
			<circle fill="#AEBDC4" cx="39.66" cy="21.13" r="1.85"/>
			<circle fill="#AEBDC4" cx="43.98" cy="21.13" r="1.85"/>
			<circle fill="#AEBDC4" cx="48.3" cy="21.13" r="1.85"/>
		</g>
		<g>
			<circle fill="#AEBDC4" cx="13.73" cy="157.54" r="1.85"/>
			<circle fill="#AEBDC4" cx="18.05" cy="157.54" r="1.85"/>
			<circle fill="#AEBDC4" cx="22.38" cy="157.54" r="1.85"/>
			<circle fill="#AEBDC4" cx="26.7" cy="157.54" r="1.85"/>
			<circle fill="#AEBDC4" cx="31.02" cy="157.54" r="1.85"/>
			<circle fill="#AEBDC4" cx="35.34" cy="157.54" r="1.85"/>
			<circle fill="#AEBDC4" cx="39.66" cy="157.54" r="1.85"/>
			<circle fill="#AEBDC4" cx="43.98" cy="157.54" r="1.85"/>
			<circle fill="#AEBDC4" cx="48.3" cy="157.54" r="1.85"/>
			<circle fill="#AEBDC4" cx="52.63" cy="157.54" r="1.85"/>
		</g>
		<g>
			<circle fill="#AEBDC4" cx="13.73" cy="151.61" r="1.85"/>
			<circle fill="#AEBDC4" cx="18.05" cy="151.61" r="1.85"/>
			<circle fill="#AEBDC4" cx="22.38" cy="151.61" r="1.85"/>
			<circle fill="#AEBDC4" cx="26.7" cy="151.61" r="1.85"/>
			<circle fill="#AEBDC4" cx="31.02" cy="151.61" r="1.85"/>
			<circle fill="#AEBDC4" cx="35.34" cy="151.61" r="1.85"/>
			<circle fill="#AEBDC4" cx="39.66" cy="151.61" r="1.85"/>
			<circle fill="#AEBDC4" cx="43.98" cy="151.61" r="1.85"/>
			<circle fill="#AEBDC4" cx="48.3" cy="151.61" r="1.85"/>
			<circle fill="#AEBDC4" cx="52.63" cy="151.61" r="1.85"/>
		</g>
		<g>
			<circle fill="#AEBDC4" cx="13.73" cy="145.68" r="1.85"/>
			<circle fill="#AEBDC4" cx="18.05" cy="145.68" r="1.85"/>
			<circle fill="#AEBDC4" cx="22.38" cy="145.68" r="1.85"/>
			<circle fill="#AEBDC4" cx="26.7" cy="145.68" r="1.85"/>
			<circle fill="#AEBDC4" cx="31.02" cy="145.68" r="1.85"/>
			<circle fill="#AEBDC4" cx="35.34" cy="145.68" r="1.85"/>
			<circle fill="#AEBDC4" cx="39.66" cy="145.68" r="1.85"/>
			<circle fill="#AEBDC4" cx="43.98" cy="145.68" r="1.85"/>
			<circle fill="#AEBDC4" cx="48.3" cy="145.68" r="1.85"/>
			<circle fill="#AEBDC4" cx="52.63" cy="145.68" r="1.85"/>
		</g>
		<g>
			<circle fill="#AEBDC4" cx="13.73" cy="32.99" r="1.85"/>
			<circle fill="#AEBDC4" cx="18.05" cy="32.99" r="1.85"/>
			<circle fill="#AEBDC4" cx="22.38" cy="32.99" r="1.85"/>
			<circle fill="#AEBDC4" cx="26.7" cy="32.99" r="1.85"/>
			<circle fill="#AEBDC4" cx="31.02" cy="32.99" r="1.85"/>
			<circle fill="#AEBDC4" cx="35.34" cy="32.99" r="1.85"/>
			<circle fill="#AEBDC4" cx="39.66" cy="32.99" r="1.85"/>
			<circle fill="#AEBDC4" cx="43.98" cy="32.99" r="1.85"/>
			<circle fill="#AEBDC4" cx="48.3" cy="32.99" r="1.85"/>
			<circle fill="#AEBDC4" cx="52.63" cy="32.99" r="1.85"/>
		</g>
		<g>
			<circle fill="#AEBDC4" cx="13.73" cy="27.06" r="1.85"/>
			<circle fill="#AEBDC4" cx="18.05" cy="27.06" r="1.85"/>
			<circle fill="#AEBDC4" cx="22.38" cy="27.06" r="1.85"/>
			<circle fill="#AEBDC4" cx="26.7" cy="27.06" r="1.85"/>
			<circle fill="#AEBDC4" cx="31.02" cy="27.06" r="1.85"/>
			<circle fill="#AEBDC4" cx="35.34" cy="27.06" r="1.85"/>
			<circle fill="#AEBDC4" cx="39.66" cy="27.06" r="1.85"/>
			<circle fill="#AEBDC4" cx="43.98" cy="27.06" r="1.85"/>
			<circle fill="#AEBDC4" cx="48.3" cy="27.06" r="1.85"/>
			<circle fill="#AEBDC4" cx="52.63" cy="27.06" r="1.85"/>
		</g>
		<g>
			<circle fill="#AEBDC4" cx="13.73" cy="38.92" r="1.85"/>
			<circle fill="#AEBDC4" cx="18.05" cy="38.92" r="1.85"/>
			<circle fill="#AEBDC4" cx="22.38" cy="38.92" r="1.85"/>
			<circle fill="#AEBDC4" cx="26.7" cy="38.92" r="1.85"/>
			<circle fill="#AEBDC4" cx="31.02" cy="38.92" r="1.85"/>
			<circle fill="#AEBDC4" cx="35.34" cy="38.92" r="1.85"/>
			<circle fill="#AEBDC4" cx="39.66" cy="38.92" r="1.85"/>
			<circle fill="#AEBDC4" cx="43.98" cy="38.92" r="1.85"/>
			<circle fill="#AEBDC4" cx="48.3" cy="38.92" r="1.85"/>
			<circle fill="#AEBDC4" cx="52.63" cy="38.92" r="1.85"/>
			<circle fill="#AEBDC4" cx="56.96" cy="38.92" r="1.85"/>
		</g>
		<g>
			<circle fill="#AEBDC4" cx="13.73" cy="44.85" r="1.85"/>
			<circle fill="#AEBDC4" cx="18.05" cy="44.85" r="1.85"/>
			<circle fill="#AEBDC4" cx="22.38" cy="44.85" r="1.85"/>
			<circle fill="#AEBDC4" cx="26.7" cy="44.85" r="1.85"/>
			<circle fill="#AEBDC4" cx="31.02" cy="44.85" r="1.85"/>
			<circle fill="#AEBDC4" cx="35.34" cy="44.85" r="1.85"/>
			<circle fill="#AEBDC4" cx="39.66" cy="44.85" r="1.85"/>
			<circle fill="#AEBDC4" cx="43.98" cy="44.85" r="1.85"/>
			<circle fill="#AEBDC4" cx="48.3" cy="44.85" r="1.85"/>
			<circle fill="#AEBDC4" cx="52.63" cy="44.85" r="1.85"/>
			<circle fill="#AEBDC4" cx="56.96" cy="44.85" r="1.85"/>
		</g>
		<g>
			<circle fill="#AEBDC4" cx="13.73" cy="50.78" r="1.85"/>
			<circle fill="#AEBDC4" cx="18.05" cy="50.78" r="1.85"/>
			<circle fill="#AEBDC4" cx="22.38" cy="50.78" r="1.85"/>
			<circle fill="#AEBDC4" cx="26.7" cy="50.78" r="1.85"/>
			<circle fill="#AEBDC4" cx="31.02" cy="50.78" r="1.85"/>
			<circle fill="#AEBDC4" cx="35.34" cy="50.78" r="1.85"/>
			<circle fill="#AEBDC4" cx="39.66" cy="50.78" r="1.85"/>
			<circle fill="#AEBDC4" cx="43.98" cy="50.78" r="1.85"/>
			<circle fill="#AEBDC4" cx="48.3" cy="50.78" r="1.85"/>
			<circle fill="#AEBDC4" cx="52.63" cy="50.78" r="1.85"/>
			<circle fill="#AEBDC4" cx="56.96" cy="50.78" r="1.85"/>
			<circle fill="#AEBDC4" cx="61.29" cy="50.78" r="1.85"/>
		</g>
		<g>
			<circle fill="#AEBDC4" cx="13.73" cy="56.71" r="1.85"/>
			<circle fill="#AEBDC4" cx="18.05" cy="56.71" r="1.85"/>
			<circle fill="#AEBDC4" cx="22.38" cy="56.71" r="1.85"/>
			<circle fill="#AEBDC4" cx="26.7" cy="56.71" r="1.85"/>
			<circle fill="#AEBDC4" cx="31.02" cy="56.71" r="1.85"/>
			<circle fill="#AEBDC4" cx="35.34" cy="56.71" r="1.85"/>
			<circle fill="#AEBDC4" cx="39.66" cy="56.71" r="1.85"/>
			<circle fill="#AEBDC4" cx="43.98" cy="56.71" r="1.85"/>
			<circle fill="#AEBDC4" cx="48.3" cy="56.71" r="1.85"/>
			<circle fill="#AEBDC4" cx="52.63" cy="56.71" r="1.85"/>
			<circle fill="#AEBDC4" cx="56.96" cy="56.71" r="1.85"/>
			<circle fill="#AEBDC4" cx="61.29" cy="56.71" r="1.85"/>
		</g>
		<g>
			<circle fill="#AEBDC4" cx="13.73" cy="62.64" r="1.85"/>
			<circle fill="#AEBDC4" cx="18.05" cy="62.64" r="1.85"/>
			<circle fill="#AEBDC4" cx="22.38" cy="62.64" r="1.85"/>
			<circle fill="#AEBDC4" cx="26.7" cy="62.64" r="1.85"/>
			<circle fill="#AEBDC4" cx="31.02" cy="62.64" r="1.85"/>
			<circle fill="#AEBDC4" cx="35.34" cy="62.64" r="1.85"/>
			<circle fill="#AEBDC4" cx="39.66" cy="62.64" r="1.85"/>
			<circle fill="#AEBDC4" cx="43.98" cy="62.64" r="1.85"/>
			<circle fill="#AEBDC4" cx="48.3" cy="62.64" r="1.85"/>
			<circle fill="#AEBDC4" cx="52.63" cy="62.64" r="1.85"/>
			<circle fill="#AEBDC4" cx="56.96" cy="62.64" r="1.85"/>
			<circle fill="#AEBDC4" cx="61.29" cy="62.64" r="1.85"/>
			<circle fill="#AEBDC4" cx="65.63" cy="62.64" r="1.85"/>
		</g>
		<g>
			<circle fill="#AEBDC4" cx="13.73" cy="68.57" r="1.85"/>
			<circle fill="#AEBDC4" cx="18.05" cy="68.57" r="1.85"/>
			<circle fill="#AEBDC4" cx="22.38" cy="68.57" r="1.85"/>
			<circle fill="#AEBDC4" cx="26.7" cy="68.57" r="1.85"/>
			<circle fill="#AEBDC4" cx="31.02" cy="68.57" r="1.85"/>
			<circle fill="#AEBDC4" cx="35.34" cy="68.57" r="1.85"/>
			<circle fill="#AEBDC4" cx="39.66" cy="68.57" r="1.85"/>
			<circle fill="#AEBDC4" cx="43.98" cy="68.57" r="1.85"/>
			<circle fill="#AEBDC4" cx="48.3" cy="68.57" r="1.85"/>
			<circle fill="#AEBDC4" cx="52.63" cy="68.57" r="1.85"/>
			<circle fill="#AEBDC4" cx="56.96" cy="68.57" r="1.85"/>
			<circle fill="#AEBDC4" cx="61.29" cy="68.57" r="1.85"/>
			<circle fill="#AEBDC4" cx="65.63" cy="68.57" r="1.85"/>
		</g>
		<g>
			<circle fill="#AEBDC4" cx="13.73" cy="74.51" r="1.85"/>
			<circle fill="#AEBDC4" cx="18.05" cy="74.51" r="1.85"/>
			<circle fill="#AEBDC4" cx="22.38" cy="74.51" r="1.85"/>
			<circle fill="#AEBDC4" cx="26.7" cy="74.51" r="1.85"/>
			<circle fill="#AEBDC4" cx="31.02" cy="74.51" r="1.85"/>
			<circle fill="#AEBDC4" cx="35.34" cy="74.51" r="1.85"/>
			<circle fill="#AEBDC4" cx="39.66" cy="74.51" r="1.85"/>
			<circle fill="#AEBDC4" cx="43.98" cy="74.51" r="1.85"/>
			<circle fill="#AEBDC4" cx="48.3" cy="74.51" r="1.85"/>
			<circle fill="#AEBDC4" cx="52.63" cy="74.51" r="1.85"/>
			<circle fill="#AEBDC4" cx="56.96" cy="74.51" r="1.85"/>
			<circle fill="#AEBDC4" cx="61.29" cy="74.51" r="1.85"/>
			<circle fill="#AEBDC4" cx="65.63" cy="74.51" r="1.85"/>
			<circle fill="#AEBDC4" cx="69.96" cy="74.51" r="1.85"/>
		</g>
		<g>
			<circle fill="#AEBDC4" cx="22.39" cy="121.95" r="1.85"/>
			<circle fill="#AEBDC4" cx="26.71" cy="121.95" r="1.85"/>
			<circle fill="#AEBDC4" cx="31.03" cy="121.95" r="1.85"/>
			<circle fill="#AEBDC4" cx="35.35" cy="121.95" r="1.85"/>
			<circle fill="#AEBDC4" cx="39.67" cy="121.95" r="1.85"/>
			<circle fill="#AEBDC4" cx="43.99" cy="121.95" r="1.85"/>
			<circle fill="#AEBDC4" cx="48.31" cy="121.95" r="1.85"/>
			<circle fill="#AEBDC4" cx="52.63" cy="121.95" r="1.85"/>
			<circle fill="#AEBDC4" cx="56.95" cy="121.95" r="1.85"/>
			<circle fill="#AEBDC4" cx="61.29" cy="121.95" r="1.85"/>
			<circle fill="#AEBDC4" cx="65.62" cy="121.95" r="1.85"/>
			<circle fill="#AEBDC4" cx="69.95" cy="121.95" r="1.85"/>
			<circle fill="#AEBDC4" cx="74.28" cy="121.95" r="1.85"/>
			<circle fill="#AEBDC4" cx="78.61" cy="121.95" r="1.85"/>
		</g>
		<g>
			<circle fill="#AEBDC4" cx="22.39" cy="116.02" r="1.85"/>
			<circle fill="#AEBDC4" cx="26.71" cy="116.02" r="1.85"/>
			<circle fill="#AEBDC4" cx="31.03" cy="116.02" r="1.85"/>
			<circle fill="#AEBDC4" cx="35.35" cy="116.02" r="1.85"/>
			<circle fill="#AEBDC4" cx="39.67" cy="116.02" r="1.85"/>
			<circle fill="#AEBDC4" cx="43.99" cy="116.02" r="1.85"/>
			<circle fill="#AEBDC4" cx="48.31" cy="116.02" r="1.85"/>
			<circle fill="#AEBDC4" cx="52.63" cy="116.02" r="1.85"/>
			<circle fill="#AEBDC4" cx="56.95" cy="116.02" r="1.85"/>
			<circle fill="#AEBDC4" cx="61.29" cy="116.02" r="1.85"/>
			<circle fill="#AEBDC4" cx="65.62" cy="116.02" r="1.85"/>
			<circle fill="#AEBDC4" cx="69.95" cy="116.02" r="1.85"/>
			<circle fill="#AEBDC4" cx="74.28" cy="116.02" r="1.85"/>
			<circle fill="#AEBDC4" cx="78.61" cy="116.02" r="1.85"/>
		</g>
		<g>
			<circle fill="#AEBDC4" cx="13.73" cy="80.44" r="1.85"/>
			<circle fill="#AEBDC4" cx="18.05" cy="80.44" r="1.85"/>
			<circle fill="#AEBDC4" cx="22.38" cy="80.44" r="1.85"/>
			<circle fill="#AEBDC4" cx="26.7" cy="80.44" r="1.85"/>
			<circle fill="#AEBDC4" cx="31.02" cy="80.44" r="1.85"/>
			<circle fill="#AEBDC4" cx="35.34" cy="80.44" r="1.85"/>
			<circle fill="#AEBDC4" cx="39.66" cy="80.44" r="1.85"/>
			<circle fill="#AEBDC4" cx="43.98" cy="80.44" r="1.85"/>
			<circle fill="#AEBDC4" cx="48.3" cy="80.44" r="1.85"/>
			<circle fill="#AEBDC4" cx="52.63" cy="80.44" r="1.85"/>
			<circle fill="#AEBDC4" cx="56.96" cy="80.44" r="1.85"/>
			<circle fill="#AEBDC4" cx="61.29" cy="80.44" r="1.85"/>
			<circle fill="#AEBDC4" cx="65.63" cy="80.44" r="1.85"/>
			<circle fill="#AEBDC4" cx="69.96" cy="80.44" r="1.85"/>
		</g>
		<g>
			<circle fill="#AEBDC4" cx="13.73" cy="86.37" r="1.85"/>
			<circle fill="#AEBDC4" cx="18.05" cy="86.37" r="1.85"/>
			<circle fill="#AEBDC4" cx="22.38" cy="86.37" r="1.85"/>
			<circle fill="#AEBDC4" cx="26.7" cy="86.37" r="1.85"/>
			<circle fill="#AEBDC4" cx="31.02" cy="86.37" r="1.85"/>
			<circle fill="#AEBDC4" cx="35.34" cy="86.37" r="1.85"/>
			<circle fill="#AEBDC4" cx="39.66" cy="86.37" r="1.85"/>
			<circle fill="#AEBDC4" cx="43.98" cy="86.37" r="1.85"/>
			<circle fill="#AEBDC4" cx="48.3" cy="86.37" r="1.85"/>
			<circle fill="#AEBDC4" cx="52.63" cy="86.37" r="1.85"/>
			<circle fill="#AEBDC4" cx="56.96" cy="86.37" r="1.85"/>
			<circle fill="#AEBDC4" cx="61.29" cy="86.37" r="1.85"/>
			<circle fill="#AEBDC4" cx="65.63" cy="86.37" r="1.85"/>
			<circle fill="#AEBDC4" cx="69.96" cy="86.37" r="1.85"/>
		</g>
		<g>
			<circle fill="#AEBDC4" cx="13.73" cy="92.3" r="1.85"/>
			<circle fill="#AEBDC4" cx="18.05" cy="92.3" r="1.85"/>
			<circle fill="#AEBDC4" cx="22.38" cy="92.3" r="1.85"/>
			<circle fill="#AEBDC4" cx="26.7" cy="92.3" r="1.85"/>
			<circle fill="#AEBDC4" cx="31.02" cy="92.3" r="1.85"/>
			<circle fill="#AEBDC4" cx="35.34" cy="92.3" r="1.85"/>
			<circle fill="#AEBDC4" cx="39.66" cy="92.3" r="1.85"/>
			<circle fill="#AEBDC4" cx="43.98" cy="92.3" r="1.85"/>
			<circle fill="#AEBDC4" cx="48.3" cy="92.3" r="1.85"/>
			<circle fill="#AEBDC4" cx="52.63" cy="92.3" r="1.85"/>
			<circle fill="#AEBDC4" cx="56.96" cy="92.3" r="1.85"/>
			<circle fill="#AEBDC4" cx="61.29" cy="92.3" r="1.85"/>
			<circle fill="#AEBDC4" cx="65.63" cy="92.3" r="1.85"/>
			<circle fill="#AEBDC4" cx="69.96" cy="92.3" r="1.85"/>
		</g>
		<g>
			<circle fill="#AEBDC4" cx="13.73" cy="98.23" r="1.85"/>
			<circle fill="#AEBDC4" cx="18.05" cy="98.23" r="1.85"/>
			<circle fill="#AEBDC4" cx="22.38" cy="98.23" r="1.85"/>
			<circle fill="#AEBDC4" cx="26.7" cy="98.23" r="1.85"/>
			<circle fill="#AEBDC4" cx="31.02" cy="98.23" r="1.85"/>
			<circle fill="#AEBDC4" cx="35.34" cy="98.23" r="1.85"/>
			<circle fill="#AEBDC4" cx="39.66" cy="98.23" r="1.85"/>
			<circle fill="#AEBDC4" cx="43.98" cy="98.23" r="1.85"/>
			<circle fill="#AEBDC4" cx="48.3" cy="98.23" r="1.85"/>
			<circle fill="#AEBDC4" cx="52.63" cy="98.23" r="1.85"/>
			<circle fill="#AEBDC4" cx="56.96" cy="98.23" r="1.85"/>
			<circle fill="#AEBDC4" cx="61.29" cy="98.23" r="1.85"/>
			<circle fill="#AEBDC4" cx="65.63" cy="98.23" r="1.85"/>
			<circle fill="#AEBDC4" cx="69.96" cy="98.23" r="1.85"/>
		</g>
		<g>
			<circle fill="#AEBDC4" cx="13.73" cy="104.16" r="1.85"/>
			<circle fill="#AEBDC4" cx="18.05" cy="104.16" r="1.85"/>
			<circle fill="#AEBDC4" cx="22.38" cy="104.16" r="1.85"/>
			<circle fill="#AEBDC4" cx="26.7" cy="104.16" r="1.85"/>
			<circle fill="#AEBDC4" cx="31.02" cy="104.16" r="1.85"/>
			<circle fill="#AEBDC4" cx="35.34" cy="104.16" r="1.85"/>
			<circle fill="#AEBDC4" cx="39.66" cy="104.16" r="1.85"/>
			<circle fill="#AEBDC4" cx="43.98" cy="104.16" r="1.85"/>
			<circle fill="#AEBDC4" cx="48.3" cy="104.16" r="1.85"/>
			<circle fill="#AEBDC4" cx="52.63" cy="104.16" r="1.85"/>
			<circle fill="#AEBDC4" cx="56.96" cy="104.16" r="1.85"/>
			<circle fill="#AEBDC4" cx="61.29" cy="104.16" r="1.85"/>
			<circle fill="#AEBDC4" cx="65.63" cy="104.16" r="1.85"/>
			<circle fill="#AEBDC4" cx="69.96" cy="104.16" r="1.85"/>
			<circle fill="#AEBDC4" cx="74.29" cy="104.16" r="1.85"/>
		</g>
		<g>
			<circle fill="#AEBDC4" cx="13.73" cy="110.09" r="1.85"/>
			<circle fill="#AEBDC4" cx="18.05" cy="110.09" r="1.85"/>
			<circle fill="#AEBDC4" cx="22.38" cy="110.09" r="1.85"/>
			<circle fill="#AEBDC4" cx="26.7" cy="110.09" r="1.85"/>
			<circle fill="#AEBDC4" cx="31.02" cy="110.09" r="1.85"/>
			<circle fill="#AEBDC4" cx="35.34" cy="110.09" r="1.85"/>
			<circle fill="#AEBDC4" cx="39.66" cy="110.09" r="1.85"/>
			<circle fill="#AEBDC4" cx="43.98" cy="110.09" r="1.85"/>
			<circle fill="#AEBDC4" cx="48.3" cy="110.09" r="1.85"/>
			<circle fill="#AEBDC4" cx="52.63" cy="110.09" r="1.85"/>
			<circle fill="#AEBDC4" cx="56.96" cy="110.09" r="1.85"/>
			<circle fill="#AEBDC4" cx="61.29" cy="110.09" r="1.85"/>
			<circle fill="#AEBDC4" cx="65.63" cy="110.09" r="1.85"/>
			<circle fill="#AEBDC4" cx="69.96" cy="110.09" r="1.85"/>
			<circle fill="#AEBDC4" cx="74.29" cy="110.09" r="1.85"/>
		</g>
	</g>
	<g onclick="this.parentNode.a_text=this;">
		<text transform="matrix(0.9999 0 0 1 39.0925 66.8781)"><tspan x="0" y="0" font-family="'OpenSans-Semibold'" font-size="6.3996px">E 9</tspan><tspan x="-3.72" y="7.2" font-family="'OpenSans-Semibold'" font-size="6.3996px">(</tspan><tspan x="-1.68" y="7.2" font-family="'OpenSans-Semibold'" font-size="6.3996px">н</tspan><tspan x="2.67" y="7.2" font-family="'OpenSans-Semibold'" font-size="6.3996px">и</tspan><tspan x="7.23" y="7.2" font-family="'OpenSans-Semibold'" font-size="6.3996px">з</tspan><tspan x="10.58" y="7.2" font-family="'OpenSans-Semibold'" font-size="6.3996px">)</tspan></text>
	</g>
</g>
</svg>
