<svg xmlns="http://www.w3.org/2000/svg" viewBox="0 0 130 172">
    <path fill="#F1F3F4" stroke="#BCC8CE" stroke-width=".4" stroke-linecap="round" stroke-miterlimit="10" d="M.5.36h63v91.59l-63 25.6V.36z"/>
    <g fill="#AEBDC4">
        <circle cx="11.55" cy="98.39" r="1.85"/>
        <circle cx="15.87" cy="98.39" r="1.85"/>
        <circle cx="20.19" cy="98.39" r="1.85"/>
        <circle cx="11.55" cy="92.45" r="1.85"/>
        <circle cx="15.87" cy="92.45" r="1.85"/>
        <circle cx="20.19" cy="92.45" r="1.85"/>
        <circle cx="24.51" cy="92.45" r="1.85"/>
        <circle cx="28.83" cy="92.45" r="1.85"/>
        <circle cx="33.15" cy="92.45" r="1.85"/>
        <circle cx="20.2" cy="39.08" r="1.85"/>
        <circle cx="24.52" cy="39.08" r="1.85"/>
        <circle cx="28.84" cy="39.08" r="1.85"/>
        <circle cx="33.16" cy="39.08" r="1.85"/>
        <circle cx="37.48" cy="39.08" r="1.85"/>
        <circle cx="41.8" cy="39.08" r="1.85"/>
        <circle cx="46.12" cy="39.08" r="1.85"/>
        <circle cx="50.45" cy="39.08" r="1.85"/>
        <circle cx="20.2" cy="45.01" r="1.85"/>
        <circle cx="24.52" cy="45.01" r="1.85"/>
        <circle cx="28.84" cy="45.01" r="1.85"/>
        <circle cx="33.16" cy="45.01" r="1.85"/>
        <circle cx="37.48" cy="45.01" r="1.85"/>
        <circle cx="41.8" cy="45.01" r="1.85"/>
        <circle cx="46.12" cy="45.01" r="1.85"/>
        <circle cx="50.45" cy="45.01" r="1.85"/>
        <circle cx="20.2" cy="50.94" r="1.85"/>
        <circle cx="24.52" cy="50.94" r="1.85"/>
        <circle cx="28.84" cy="50.94" r="1.85"/>
        <circle cx="33.16" cy="50.94" r="1.85"/>
        <circle cx="37.48" cy="50.94" r="1.85"/>
        <circle cx="41.8" cy="50.94" r="1.85"/>
        <circle cx="46.12" cy="50.94" r="1.85"/>
        <circle cx="50.45" cy="50.94" r="1.85"/>
        <circle cx="20.2" cy="56.87" r="1.85"/>
        <circle cx="24.52" cy="56.87" r="1.85"/>
        <circle cx="28.84" cy="56.87" r="1.85"/>
        <circle cx="33.16" cy="56.87" r="1.85"/>
        <circle cx="37.48" cy="56.87" r="1.85"/>
        <circle cx="41.8" cy="56.87" r="1.85"/>
        <circle cx="46.12" cy="56.87" r="1.85"/>
        <circle cx="50.45" cy="56.87" r="1.85"/>
        <circle cx="20.2" cy="62.8" r="1.85"/>
        <circle cx="24.52" cy="62.8" r="1.85"/>
        <circle cx="28.84" cy="62.8" r="1.85"/>
        <circle cx="33.16" cy="62.8" r="1.85"/>
        <circle cx="37.48" cy="62.8" r="1.85"/>
        <circle cx="41.8" cy="62.8" r="1.85"/>
        <circle cx="46.12" cy="62.8" r="1.85"/>
        <circle cx="50.45" cy="62.8" r="1.85"/>
        <g>
            <circle cx="11.55" cy="86.52" r="1.85"/>
            <circle cx="15.87" cy="86.52" r="1.85"/>
            <circle cx="20.19" cy="86.52" r="1.85"/>
            <circle cx="24.51" cy="86.52" r="1.85"/>
            <circle cx="28.83" cy="86.52" r="1.85"/>
            <circle cx="33.15" cy="86.52" r="1.85"/>
            <circle cx="37.47" cy="86.52" r="1.85"/>
            <circle cx="41.79" cy="86.52" r="1.85"/>
            <circle cx="46.11" cy="86.52" r="1.85"/>
            <circle cx="50.45" cy="86.52" r="1.85"/>
        </g>
        <g>
            <circle cx="11.55" cy="80.59" r="1.85"/>
            <circle cx="15.87" cy="80.59" r="1.85"/>
            <circle cx="20.19" cy="80.59" r="1.85"/>
            <circle cx="24.51" cy="80.59" r="1.85"/>
            <circle cx="28.83" cy="80.59" r="1.85"/>
            <circle cx="33.15" cy="80.59" r="1.85"/>
            <circle cx="37.47" cy="80.59" r="1.85"/>
            <circle cx="41.79" cy="80.59" r="1.85"/>
            <circle cx="46.11" cy="80.59" r="1.85"/>
            <circle cx="50.45" cy="80.59" r="1.85"/>
        </g>
        <g>
            <circle cx="11.55" cy="74.66" r="1.85"/>
            <circle cx="15.87" cy="74.66" r="1.85"/>
            <circle cx="20.19" cy="74.66" r="1.85"/>
            <circle cx="24.51" cy="74.66" r="1.85"/>
            <circle cx="28.83" cy="74.66" r="1.85"/>
            <circle cx="33.15" cy="74.66" r="1.85"/>
            <circle cx="37.47" cy="74.66" r="1.85"/>
            <circle cx="41.79" cy="74.66" r="1.85"/>
            <circle cx="46.11" cy="74.66" r="1.85"/>
            <circle cx="50.45" cy="74.66" r="1.85"/>
        </g>
        <g>
            <circle cx="11.55" cy="68.73" r="1.85"/>
            <circle cx="15.87" cy="68.73" r="1.85"/>
            <circle cx="20.19" cy="68.73" r="1.85"/>
            <circle cx="24.51" cy="68.73" r="1.85"/>
            <circle cx="28.83" cy="68.73" r="1.85"/>
            <circle cx="33.15" cy="68.73" r="1.85"/>
            <circle cx="37.47" cy="68.73" r="1.85"/>
            <circle cx="41.79" cy="68.73" r="1.85"/>
            <circle cx="46.11" cy="68.73" r="1.85"/>
            <circle cx="50.45" cy="68.73" r="1.85"/>
        </g>
        <g>
            <circle cx="11.55" cy="33.15" r="1.85"/>
            <circle cx="15.87" cy="33.15" r="1.85"/>
            <circle cx="20.19" cy="33.15" r="1.85"/>
            <circle cx="24.51" cy="33.15" r="1.85"/>
            <circle cx="28.83" cy="33.15" r="1.85"/>
            <circle cx="33.15" cy="33.15" r="1.85"/>
            <circle cx="37.47" cy="33.15" r="1.85"/>
            <circle cx="41.79" cy="33.15" r="1.85"/>
            <circle cx="46.11" cy="33.15" r="1.85"/>
            <circle cx="50.45" cy="33.15" r="1.85"/>
        </g>
        <g>
            <circle cx="11.55" cy="27.22" r="1.85"/>
            <circle cx="15.87" cy="27.22" r="1.85"/>
            <circle cx="20.19" cy="27.22" r="1.85"/>
            <circle cx="24.51" cy="27.22" r="1.85"/>
            <circle cx="28.83" cy="27.22" r="1.85"/>
            <circle cx="33.15" cy="27.22" r="1.85"/>
            <circle cx="37.47" cy="27.22" r="1.85"/>
            <circle cx="41.79" cy="27.22" r="1.85"/>
            <circle cx="46.11" cy="27.22" r="1.85"/>
            <circle cx="50.45" cy="27.22" r="1.85"/>
        </g>
        <g>
            <circle cx="11.55" cy="21.28" r="1.85"/>
            <circle cx="15.87" cy="21.28" r="1.85"/>
            <circle cx="20.19" cy="21.28" r="1.85"/>
            <circle cx="24.51" cy="21.28" r="1.85"/>
            <circle cx="28.83" cy="21.28" r="1.85"/>
            <circle cx="33.15" cy="21.28" r="1.85"/>
            <circle cx="37.47" cy="21.28" r="1.85"/>
            <circle cx="41.79" cy="21.28" r="1.85"/>
            <circle cx="46.11" cy="21.28" r="1.85"/>
            <circle cx="50.45" cy="21.28" r="1.85"/>
        </g>
        <g>
            <circle cx="11.55" cy="15.35" r="1.85"/>
            <circle cx="15.87" cy="15.35" r="1.85"/>
            <circle cx="20.19" cy="15.35" r="1.85"/>
            <circle cx="24.51" cy="15.35" r="1.85"/>
            <circle cx="28.83" cy="15.35" r="1.85"/>
            <circle cx="33.15" cy="15.35" r="1.85"/>
            <circle cx="37.47" cy="15.35" r="1.85"/>
            <circle cx="41.79" cy="15.35" r="1.85"/>
            <circle cx="46.11" cy="15.35" r="1.85"/>
            <circle cx="50.45" cy="15.35" r="1.85"/>
        </g>
        <g>
            <circle cx="11.55" cy="9.42" r="1.85"/>
            <circle cx="15.87" cy="9.42" r="1.85"/>
            <circle cx="20.19" cy="9.42" r="1.85"/>
            <circle cx="24.51" cy="9.42" r="1.85"/>
            <circle cx="28.83" cy="9.42" r="1.85"/>
            <circle cx="33.15" cy="9.42" r="1.85"/>
            <circle cx="37.47" cy="9.42" r="1.85"/>
            <circle cx="41.79" cy="9.42" r="1.85"/>
            <circle cx="46.11" cy="9.42" r="1.85"/>
            <circle cx="50.45" cy="9.42" r="1.85"/>
        </g>
    </g>
</svg>
