<svg xmlns="http://www.w3.org/2000/svg" viewBox="0 0 130 172">
    <path fill="#F1F3F4" stroke="#BCC8CE" stroke-width=".4" stroke-linecap="round" stroke-miterlimit="10" d="M191.58 65.49L1.22.45H214.7l-23.12 65.04z"/>
    <g fill="#AEBDC4">
        <circle cx="189.97" cy="12.23" r="1.85"/>
        <circle cx="189.97" cy="7.9" r="1.85"/>
        <circle cx="53.57" cy="12.23" r="1.85"/>
        <circle cx="53.57" cy="7.9" r="1.85"/>
        <circle cx="59.5" cy="12.23" r="1.85"/>
        <circle cx="59.5" cy="7.9" r="1.85"/>
        <circle cx="65.43" cy="12.23" r="1.85"/>
        <circle cx="65.43" cy="7.9" r="1.85"/>
        <circle cx="71.36" cy="16.55" r="1.85"/>
        <circle cx="71.36" cy="12.23" r="1.85"/>
        <circle cx="71.36" cy="7.9" r="1.85"/>
        <circle cx="77.29" cy="16.55" r="1.85"/>
        <circle cx="77.29" cy="12.23" r="1.85"/>
        <circle cx="77.29" cy="7.9" r="1.85"/>
        <circle cx="83.22" cy="20.87" r="1.85"/>
        <circle cx="83.22" cy="16.55" r="1.85"/>
        <circle cx="83.22" cy="12.23" r="1.85"/>
        <circle cx="83.22" cy="7.9" r="1.85"/>
        <circle cx="89.16" cy="20.87" r="1.85"/>
        <circle cx="89.16" cy="16.55" r="1.85"/>
        <circle cx="89.16" cy="12.23" r="1.85"/>
        <circle cx="89.16" cy="7.9" r="1.85"/>
        <circle cx="95.09" cy="20.87" r="1.85"/>
        <circle cx="95.09" cy="16.55" r="1.85"/>
        <circle cx="95.09" cy="12.23" r="1.85"/>
        <circle cx="95.09" cy="7.9" r="1.85"/>
        <circle cx="112.88" cy="20.87" r="1.85"/>
        <circle cx="112.88" cy="16.55" r="1.85"/>
        <circle cx="112.88" cy="12.23" r="1.85"/>
        <circle cx="112.88" cy="7.9" r="1.85"/>
        <circle cx="118.81" cy="20.87" r="1.85"/>
        <circle cx="118.81" cy="16.55" r="1.85"/>
        <circle cx="118.81" cy="12.23" r="1.85"/>
        <circle cx="118.81" cy="7.9" r="1.85"/>
        <circle cx="106.95" cy="25.19" r="1.85"/>
        <circle cx="106.95" cy="20.87" r="1.85"/>
        <circle cx="106.95" cy="16.55" r="1.85"/>
        <circle cx="106.95" cy="12.22" r="1.85"/>
        <circle cx="106.95" cy="7.9" r="1.85"/>
        <circle cx="124.74" cy="25.19" r="1.85"/>
        <circle cx="124.74" cy="20.87" r="1.85"/>
        <circle cx="124.74" cy="16.55" r="1.85"/>
        <circle cx="124.74" cy="12.23" r="1.85"/>
        <circle cx="124.74" cy="7.9" r="1.85"/>
        <circle cx="130.67" cy="25.19" r="1.85"/>
        <circle cx="130.67" cy="20.87" r="1.85"/>
        <circle cx="130.67" cy="16.55" r="1.85"/>
        <circle cx="130.67" cy="12.23" r="1.85"/>
        <circle cx="130.67" cy="7.9" r="1.85"/>
        <circle cx="136.6" cy="25.19" r="1.85"/>
        <circle cx="136.6" cy="20.87" r="1.85"/>
        <circle cx="136.6" cy="16.55" r="1.85"/>
        <circle cx="136.6" cy="12.23" r="1.85"/>
        <circle cx="136.6" cy="7.9" r="1.85"/>
        <circle cx="101.02" cy="25.19" r="1.85"/>
        <circle cx="101.02" cy="20.87" r="1.85"/>
        <circle cx="101.02" cy="16.55" r="1.85"/>
        <circle cx="101.02" cy="12.22" r="1.85"/>
        <circle cx="101.02" cy="7.9" r="1.85"/>
        <g>
            <circle cx="184.04" cy="29.51" r="1.85"/>
            <circle cx="184.04" cy="25.19" r="1.85"/>
            <circle cx="184.04" cy="20.87" r="1.85"/>
            <circle cx="184.04" cy="16.55" r="1.85"/>
            <circle cx="184.04" cy="12.23" r="1.85"/>
            <circle cx="184.04" cy="7.9" r="1.85"/>
        </g>
        <g>
            <circle cx="142.53" cy="38.15" r="1.85"/>
            <circle cx="142.53" cy="33.83" r="1.85"/>
            <circle cx="142.53" cy="29.51" r="1.85"/>
            <circle cx="142.53" cy="25.19" r="1.85"/>
            <circle cx="142.53" cy="20.87" r="1.85"/>
            <circle cx="142.53" cy="16.55" r="1.85"/>
            <circle cx="142.53" cy="12.23" r="1.85"/>
            <circle cx="142.53" cy="7.9" r="1.85"/>
        </g>
        <g>
            <circle cx="148.46" cy="38.15" r="1.85"/>
            <circle cx="148.46" cy="33.83" r="1.85"/>
            <circle cx="148.46" cy="29.51" r="1.85"/>
            <circle cx="148.46" cy="25.19" r="1.85"/>
            <circle cx="148.46" cy="20.87" r="1.85"/>
            <circle cx="148.46" cy="16.55" r="1.85"/>
            <circle cx="148.46" cy="12.23" r="1.85"/>
            <circle cx="148.46" cy="7.9" r="1.85"/>
        </g>
        <g>
            <circle cx="154.39" cy="42.48" r="1.85"/>
            <circle cx="154.39" cy="38.15" r="1.85"/>
            <circle cx="154.39" cy="33.83" r="1.85"/>
            <circle cx="154.39" cy="29.51" r="1.85"/>
            <circle cx="154.39" cy="25.19" r="1.85"/>
            <circle cx="154.39" cy="20.87" r="1.85"/>
            <circle cx="154.39" cy="16.55" r="1.85"/>
            <circle cx="154.39" cy="12.23" r="1.85"/>
            <circle cx="154.39" cy="7.9" r="1.85"/>
        </g>
        <g>
            <circle cx="160.32" cy="42.48" r="1.85"/>
            <circle cx="160.32" cy="38.15" r="1.85"/>
            <circle cx="160.32" cy="33.83" r="1.85"/>
            <circle cx="160.32" cy="29.51" r="1.85"/>
            <circle cx="160.32" cy="25.19" r="1.85"/>
            <circle cx="160.32" cy="20.87" r="1.85"/>
            <circle cx="160.32" cy="16.55" r="1.85"/>
            <circle cx="160.32" cy="12.23" r="1.85"/>
            <circle cx="160.32" cy="7.9" r="1.85"/>
        </g>
        <g>
            <circle cx="178.11" cy="46.81" r="1.85"/>
            <circle cx="178.11" cy="42.48" r="1.85"/>
            <circle cx="178.11" cy="38.16" r="1.85"/>
            <circle cx="178.11" cy="33.84" r="1.85"/>
            <circle cx="178.11" cy="29.52" r="1.85"/>
            <circle cx="178.11" cy="25.2" r="1.85"/>
            <circle cx="178.11" cy="20.88" r="1.85"/>
            <circle cx="178.11" cy="16.56" r="1.85"/>
            <circle cx="178.11" cy="12.23" r="1.85"/>
            <circle cx="178.11" cy="7.9" r="1.85"/>
        </g>
        <g>
            <circle cx="172.18" cy="46.81" r="1.85"/>
            <circle cx="172.18" cy="42.48" r="1.85"/>
            <circle cx="172.18" cy="38.16" r="1.85"/>
            <circle cx="172.18" cy="33.84" r="1.85"/>
            <circle cx="172.18" cy="29.52" r="1.85"/>
            <circle cx="172.18" cy="25.2" r="1.85"/>
            <circle cx="172.18" cy="20.88" r="1.85"/>
            <circle cx="172.18" cy="16.56" r="1.85"/>
            <circle cx="172.18" cy="12.23" r="1.85"/>
            <circle cx="172.18" cy="7.9" r="1.85"/>
        </g>
        <g>
            <circle cx="166.25" cy="46.81" r="1.85"/>
            <circle cx="166.25" cy="42.48" r="1.85"/>
            <circle cx="166.25" cy="38.16" r="1.85"/>
            <circle cx="166.25" cy="33.84" r="1.85"/>
            <circle cx="166.25" cy="29.52" r="1.85"/>
            <circle cx="166.25" cy="25.2" r="1.85"/>
            <circle cx="166.25" cy="20.88" r="1.85"/>
            <circle cx="166.25" cy="16.56" r="1.85"/>
            <circle cx="166.25" cy="12.23" r="1.85"/>
            <circle cx="166.25" cy="7.9" r="1.85"/>
        </g>
    </g>
</svg>
