<svg xmlns="http://www.w3.org/2000/svg" viewBox="0 0 130 172">
    <path fill="#F1F3F4" stroke="#BCC8CE" stroke-width=".4" stroke-linecap="round" stroke-miterlimit="10" d="M.63 131.43V.57h232.71l-17.6 130.86H.63z"/>
    <g fill="#AEBDC4">
        <circle cx="217.24" cy="33.65" r="1.85"/>
        <circle cx="217.24" cy="29.33" r="1.85"/>
        <circle cx="217.24" cy="25.01" r="1.85"/>
        <circle cx="217.24" cy="20.69" r="1.85"/>
        <circle cx="217.24" cy="16.36" r="1.85"/>
        <circle cx="217.24" cy="12.04" r="1.85"/>
        <circle cx="211.31" cy="59.61" r="1.85"/>
        <circle cx="211.31" cy="55.29" r="1.85"/>
        <circle cx="211.31" cy="50.96" r="1.85"/>
        <circle cx="211.31" cy="46.64" r="1.85"/>
        <circle cx="211.31" cy="42.32" r="1.85"/>
        <circle cx="211.31" cy="38" r="1.85"/>
        <circle cx="211.31" cy="33.68" r="1.85"/>
        <circle cx="211.31" cy="29.36" r="1.85"/>
        <circle cx="211.31" cy="25.04" r="1.85"/>
        <circle cx="211.31" cy="20.7" r="1.85"/>
        <circle cx="211.31" cy="16.37" r="1.85"/>
        <circle cx="211.31" cy="12.04" r="1.85"/>
        <circle cx="205.38" cy="94.25" r="1.85"/>
        <circle cx="205.38" cy="89.93" r="1.85"/>
        <circle cx="205.38" cy="85.61" r="1.85"/>
        <circle cx="205.38" cy="81.29" r="1.85"/>
        <circle cx="205.38" cy="76.97" r="1.85"/>
        <circle cx="205.38" cy="72.65" r="1.85"/>
        <circle cx="205.38" cy="68.33" r="1.85"/>
        <circle cx="205.38" cy="64" r="1.85"/>
        <circle cx="205.38" cy="59.68" r="1.85"/>
        <circle cx="205.38" cy="55.35" r="1.85"/>
        <circle cx="205.38" cy="51.02" r="1.85"/>
        <circle cx="205.38" cy="46.69" r="1.85"/>
        <circle cx="205.38" cy="42.36" r="1.85"/>
        <circle cx="205.38" cy="38.03" r="1.85"/>
        <circle cx="205.38" cy="33.7" r="1.85"/>
        <circle cx="205.38" cy="29.37" r="1.85"/>
        <circle cx="205.38" cy="25.04" r="1.85"/>
        <circle cx="205.38" cy="20.7" r="1.85"/>
        <circle cx="205.38" cy="16.37" r="1.85"/>
        <circle cx="205.38" cy="12.04" r="1.85"/>
        <circle cx="116.43" cy="111.58" r="1.85"/>
        <circle cx="116.43" cy="107.26" r="1.85"/>
        <circle cx="116.43" cy="102.93" r="1.85"/>
        <circle cx="116.43" cy="98.61" r="1.85"/>
        <circle cx="116.43" cy="94.29" r="1.85"/>
        <circle cx="116.43" cy="89.97" r="1.85"/>
        <circle cx="116.43" cy="85.65" r="1.85"/>
        <circle cx="116.43" cy="81.33" r="1.85"/>
        <circle cx="116.43" cy="77.01" r="1.85"/>
        <circle cx="116.43" cy="72.68" r="1.85"/>
        <circle cx="116.43" cy="68.34" r="1.85"/>
        <circle cx="116.43" cy="64.01" r="1.85"/>
        <circle cx="116.43" cy="59.68" r="1.85"/>
        <circle cx="116.43" cy="55.35" r="1.85"/>
        <circle cx="116.43" cy="51.02" r="1.85"/>
        <circle cx="116.43" cy="46.69" r="1.85"/>
        <circle cx="116.43" cy="42.36" r="1.85"/>
        <circle cx="116.43" cy="38.03" r="1.85"/>
        <circle cx="116.43" cy="33.7" r="1.85"/>
        <circle cx="116.43" cy="29.37" r="1.85"/>
        <circle cx="116.43" cy="25.04" r="1.85"/>
        <circle cx="116.43" cy="20.7" r="1.85"/>
        <circle cx="122.36" cy="111.58" r="1.85"/>
        <circle cx="122.36" cy="107.26" r="1.85"/>
        <circle cx="122.36" cy="102.93" r="1.85"/>
        <circle cx="122.36" cy="98.61" r="1.85"/>
        <circle cx="122.36" cy="94.29" r="1.85"/>
        <circle cx="122.36" cy="89.97" r="1.85"/>
        <circle cx="122.36" cy="85.65" r="1.85"/>
        <circle cx="122.36" cy="81.33" r="1.85"/>
        <circle cx="122.36" cy="77.01" r="1.85"/>
        <circle cx="122.36" cy="72.68" r="1.85"/>
        <circle cx="122.36" cy="68.34" r="1.85"/>
        <circle cx="122.36" cy="64.01" r="1.85"/>
        <circle cx="122.36" cy="59.68" r="1.85"/>
        <circle cx="122.36" cy="55.35" r="1.85"/>
        <circle cx="122.36" cy="51.02" r="1.85"/>
        <circle cx="122.36" cy="46.69" r="1.85"/>
        <circle cx="122.36" cy="42.36" r="1.85"/>
        <circle cx="122.36" cy="38.03" r="1.85"/>
        <circle cx="122.36" cy="33.7" r="1.85"/>
        <circle cx="122.36" cy="29.37" r="1.85"/>
        <circle cx="122.36" cy="25.04" r="1.85"/>
        <circle cx="122.36" cy="20.7" r="1.85"/>
        <circle cx="128.29" cy="111.58" r="1.85"/>
        <circle cx="128.29" cy="107.26" r="1.85"/>
        <circle cx="128.29" cy="102.93" r="1.85"/>
        <circle cx="128.29" cy="98.61" r="1.85"/>
        <circle cx="128.29" cy="94.29" r="1.85"/>
        <circle cx="128.29" cy="89.97" r="1.85"/>
        <circle cx="128.29" cy="85.65" r="1.85"/>
        <circle cx="128.29" cy="81.33" r="1.85"/>
        <circle cx="128.29" cy="77.01" r="1.85"/>
        <circle cx="128.29" cy="72.68" r="1.85"/>
        <circle cx="128.29" cy="68.34" r="1.85"/>
        <circle cx="128.29" cy="64.01" r="1.85"/>
        <circle cx="128.29" cy="59.68" r="1.85"/>
        <circle cx="128.29" cy="55.35" r="1.85"/>
        <circle cx="128.29" cy="51.02" r="1.85"/>
        <circle cx="128.29" cy="46.69" r="1.85"/>
        <circle cx="128.29" cy="42.36" r="1.85"/>
        <circle cx="128.29" cy="38.03" r="1.85"/>
        <circle cx="128.29" cy="33.7" r="1.85"/>
        <circle cx="128.29" cy="29.37" r="1.85"/>
        <circle cx="128.29" cy="25.04" r="1.85"/>
        <circle cx="128.29" cy="20.7" r="1.85"/>
        <circle cx="134.22" cy="111.58" r="1.85"/>
        <circle cx="134.22" cy="107.26" r="1.85"/>
        <circle cx="134.22" cy="102.93" r="1.85"/>
        <circle cx="134.22" cy="98.61" r="1.85"/>
        <circle cx="134.22" cy="94.29" r="1.85"/>
        <circle cx="134.22" cy="89.97" r="1.85"/>
        <circle cx="134.22" cy="85.65" r="1.85"/>
        <circle cx="134.22" cy="81.33" r="1.85"/>
        <circle cx="134.22" cy="77.01" r="1.85"/>
        <circle cx="134.22" cy="72.68" r="1.85"/>
        <circle cx="134.22" cy="68.34" r="1.85"/>
        <circle cx="134.22" cy="64.01" r="1.85"/>
        <circle cx="134.22" cy="59.68" r="1.85"/>
        <circle cx="134.22" cy="55.35" r="1.85"/>
        <circle cx="134.22" cy="51.02" r="1.85"/>
        <circle cx="134.22" cy="46.69" r="1.85"/>
        <circle cx="134.22" cy="42.36" r="1.85"/>
        <circle cx="134.22" cy="38.03" r="1.85"/>
        <circle cx="134.22" cy="33.7" r="1.85"/>
        <circle cx="134.22" cy="29.37" r="1.85"/>
        <circle cx="134.22" cy="25.04" r="1.85"/>
        <circle cx="134.22" cy="20.7" r="1.85"/>
        <g>
            <circle cx="140.15" cy="111.58" r="1.85"/>
            <circle cx="140.15" cy="107.26" r="1.85"/>
            <circle cx="140.15" cy="102.93" r="1.85"/>
            <circle cx="140.15" cy="98.61" r="1.85"/>
            <circle cx="140.15" cy="94.29" r="1.85"/>
            <circle cx="140.15" cy="89.97" r="1.85"/>
            <circle cx="140.15" cy="85.65" r="1.85"/>
            <circle cx="140.15" cy="81.33" r="1.85"/>
            <circle cx="140.15" cy="77.01" r="1.85"/>
            <circle cx="140.15" cy="72.68" r="1.85"/>
            <circle cx="140.15" cy="68.34" r="1.85"/>
            <circle cx="140.15" cy="64.01" r="1.85"/>
            <circle cx="140.15" cy="59.68" r="1.85"/>
            <circle cx="140.15" cy="55.35" r="1.85"/>
            <circle cx="140.15" cy="51.02" r="1.85"/>
            <circle cx="140.15" cy="46.69" r="1.85"/>
            <circle cx="140.15" cy="42.36" r="1.85"/>
            <circle cx="140.15" cy="38.03" r="1.85"/>
            <circle cx="140.15" cy="33.7" r="1.85"/>
            <circle cx="140.15" cy="29.37" r="1.85"/>
            <circle cx="140.15" cy="25.04" r="1.85"/>
            <circle cx="140.15" cy="20.7" r="1.85"/>
        </g>
        <g>
            <circle cx="9.68" cy="120.24" r="1.85"/>
            <circle cx="9.68" cy="115.92" r="1.85"/>
            <circle cx="9.68" cy="111.6" r="1.85"/>
            <circle cx="9.68" cy="107.28" r="1.85"/>
            <circle cx="9.68" cy="102.95" r="1.85"/>
            <circle cx="9.68" cy="98.63" r="1.85"/>
            <circle cx="9.68" cy="94.31" r="1.85"/>
            <circle cx="9.68" cy="89.99" r="1.85"/>
            <circle cx="9.68" cy="85.67" r="1.85"/>
            <circle cx="9.68" cy="81.34" r="1.85"/>
            <circle cx="9.68" cy="77.01" r="1.85"/>
            <circle cx="9.68" cy="72.68" r="1.85"/>
            <circle cx="9.68" cy="68.34" r="1.85"/>
            <circle cx="9.68" cy="64.01" r="1.85"/>
            <circle cx="9.68" cy="59.68" r="1.85"/>
            <circle cx="9.68" cy="55.35" r="1.85"/>
            <circle cx="9.68" cy="51.02" r="1.85"/>
            <circle cx="9.68" cy="46.69" r="1.85"/>
            <circle cx="9.68" cy="42.36" r="1.85"/>
            <circle cx="9.68" cy="38.03" r="1.85"/>
            <circle cx="9.68" cy="33.7" r="1.85"/>
            <circle cx="9.68" cy="29.37" r="1.85"/>
            <circle cx="9.68" cy="25.04" r="1.85"/>
            <circle cx="9.68" cy="20.7" r="1.85"/>
            <circle cx="9.68" cy="16.37" r="1.85"/>
            <circle cx="9.68" cy="12.04" r="1.85"/>
        </g>
        <g>
            <circle cx="15.61" cy="120.24" r="1.85"/>
            <circle cx="15.61" cy="115.92" r="1.85"/>
            <circle cx="15.61" cy="111.6" r="1.85"/>
            <circle cx="15.61" cy="107.28" r="1.85"/>
            <circle cx="15.61" cy="102.95" r="1.85"/>
            <circle cx="15.61" cy="98.63" r="1.85"/>
            <circle cx="15.61" cy="94.31" r="1.85"/>
            <circle cx="15.61" cy="89.99" r="1.85"/>
            <circle cx="15.61" cy="85.67" r="1.85"/>
            <circle cx="15.61" cy="81.34" r="1.85"/>
            <circle cx="15.61" cy="77.01" r="1.85"/>
            <circle cx="15.61" cy="72.68" r="1.85"/>
            <circle cx="15.61" cy="68.34" r="1.85"/>
            <circle cx="15.61" cy="64.01" r="1.85"/>
            <circle cx="15.61" cy="59.68" r="1.85"/>
            <circle cx="15.61" cy="55.35" r="1.85"/>
            <circle cx="15.61" cy="51.02" r="1.85"/>
            <circle cx="15.61" cy="46.69" r="1.85"/>
            <circle cx="15.61" cy="42.36" r="1.85"/>
            <circle cx="15.61" cy="38.03" r="1.85"/>
            <circle cx="15.61" cy="33.7" r="1.85"/>
            <circle cx="15.61" cy="29.37" r="1.85"/>
            <circle cx="15.61" cy="25.04" r="1.85"/>
            <circle cx="15.61" cy="20.7" r="1.85"/>
            <circle cx="15.61" cy="16.37" r="1.85"/>
            <circle cx="15.61" cy="12.04" r="1.85"/>
        </g>
        <g>
            <circle cx="21.54" cy="120.24" r="1.85"/>
            <circle cx="21.54" cy="115.92" r="1.85"/>
            <circle cx="21.54" cy="111.6" r="1.85"/>
            <circle cx="21.54" cy="107.28" r="1.85"/>
            <circle cx="21.54" cy="102.95" r="1.85"/>
            <circle cx="21.54" cy="98.63" r="1.85"/>
            <circle cx="21.54" cy="94.31" r="1.85"/>
            <circle cx="21.54" cy="89.99" r="1.85"/>
            <circle cx="21.54" cy="85.67" r="1.85"/>
            <circle cx="21.54" cy="81.34" r="1.85"/>
            <circle cx="21.54" cy="77.01" r="1.85"/>
            <circle cx="21.54" cy="72.68" r="1.85"/>
            <circle cx="21.54" cy="68.34" r="1.85"/>
            <circle cx="21.54" cy="64.01" r="1.85"/>
            <circle cx="21.54" cy="59.68" r="1.85"/>
            <circle cx="21.54" cy="55.35" r="1.85"/>
            <circle cx="21.54" cy="51.02" r="1.85"/>
            <circle cx="21.54" cy="46.69" r="1.85"/>
            <circle cx="21.54" cy="42.36" r="1.85"/>
            <circle cx="21.54" cy="38.03" r="1.85"/>
            <circle cx="21.54" cy="33.7" r="1.85"/>
            <circle cx="21.54" cy="29.37" r="1.85"/>
            <circle cx="21.54" cy="25.04" r="1.85"/>
            <circle cx="21.54" cy="20.7" r="1.85"/>
            <circle cx="21.54" cy="16.37" r="1.85"/>
            <circle cx="21.54" cy="12.04" r="1.85"/>
        </g>
        <g>
            <circle cx="27.47" cy="120.24" r="1.85"/>
            <circle cx="27.47" cy="115.92" r="1.85"/>
            <circle cx="27.47" cy="111.6" r="1.85"/>
            <circle cx="27.47" cy="107.28" r="1.85"/>
            <circle cx="27.47" cy="102.95" r="1.85"/>
            <circle cx="27.47" cy="98.63" r="1.85"/>
            <circle cx="27.47" cy="94.31" r="1.85"/>
            <circle cx="27.47" cy="89.99" r="1.85"/>
            <circle cx="27.47" cy="85.67" r="1.85"/>
            <circle cx="27.47" cy="81.34" r="1.85"/>
            <circle cx="27.47" cy="77.01" r="1.85"/>
            <circle cx="27.47" cy="72.68" r="1.85"/>
            <circle cx="27.47" cy="68.34" r="1.85"/>
            <circle cx="27.47" cy="64.01" r="1.85"/>
            <circle cx="27.47" cy="59.68" r="1.85"/>
            <circle cx="27.47" cy="55.35" r="1.85"/>
            <circle cx="27.47" cy="51.02" r="1.85"/>
            <circle cx="27.47" cy="46.69" r="1.85"/>
            <circle cx="27.47" cy="42.36" r="1.85"/>
            <circle cx="27.47" cy="38.03" r="1.85"/>
            <circle cx="27.47" cy="33.7" r="1.85"/>
            <circle cx="27.47" cy="29.37" r="1.85"/>
            <circle cx="27.47" cy="25.04" r="1.85"/>
            <circle cx="27.47" cy="20.7" r="1.85"/>
            <circle cx="27.47" cy="16.37" r="1.85"/>
            <circle cx="27.47" cy="12.04" r="1.85"/>
        </g>
        <g>
            <circle cx="33.4" cy="120.24" r="1.85"/>
            <circle cx="33.4" cy="115.92" r="1.85"/>
            <circle cx="33.4" cy="111.6" r="1.85"/>
            <circle cx="33.4" cy="107.28" r="1.85"/>
            <circle cx="33.4" cy="102.95" r="1.85"/>
            <circle cx="33.4" cy="98.63" r="1.85"/>
            <circle cx="33.4" cy="94.31" r="1.85"/>
            <circle cx="33.4" cy="89.99" r="1.85"/>
            <circle cx="33.4" cy="85.67" r="1.85"/>
            <circle cx="33.4" cy="81.34" r="1.85"/>
            <circle cx="33.4" cy="77.01" r="1.85"/>
            <circle cx="33.4" cy="72.68" r="1.85"/>
            <circle cx="33.4" cy="68.34" r="1.85"/>
            <circle cx="33.4" cy="64.01" r="1.85"/>
            <circle cx="33.4" cy="59.68" r="1.85"/>
            <circle cx="33.4" cy="55.35" r="1.85"/>
            <circle cx="33.4" cy="51.02" r="1.85"/>
            <circle cx="33.4" cy="46.69" r="1.85"/>
            <circle cx="33.4" cy="42.36" r="1.85"/>
            <circle cx="33.4" cy="38.03" r="1.85"/>
            <circle cx="33.4" cy="33.7" r="1.85"/>
            <circle cx="33.4" cy="29.37" r="1.85"/>
            <circle cx="33.4" cy="25.04" r="1.85"/>
            <circle cx="33.4" cy="20.7" r="1.85"/>
            <circle cx="33.4" cy="16.37" r="1.85"/>
            <circle cx="33.4" cy="12.04" r="1.85"/>
        </g>
        <g>
            <circle cx="39.33" cy="120.24" r="1.85"/>
            <circle cx="39.33" cy="115.92" r="1.85"/>
            <circle cx="39.33" cy="111.6" r="1.85"/>
            <circle cx="39.33" cy="107.28" r="1.85"/>
            <circle cx="39.33" cy="102.95" r="1.85"/>
            <circle cx="39.33" cy="98.63" r="1.85"/>
            <circle cx="39.33" cy="94.31" r="1.85"/>
            <circle cx="39.33" cy="89.99" r="1.85"/>
            <circle cx="39.33" cy="85.67" r="1.85"/>
            <circle cx="39.33" cy="81.34" r="1.85"/>
            <circle cx="39.33" cy="77.01" r="1.85"/>
            <circle cx="39.33" cy="72.68" r="1.85"/>
            <circle cx="39.33" cy="68.34" r="1.85"/>
            <circle cx="39.33" cy="64.01" r="1.85"/>
            <circle cx="39.33" cy="59.68" r="1.85"/>
            <circle cx="39.33" cy="55.35" r="1.85"/>
            <circle cx="39.33" cy="51.02" r="1.85"/>
            <circle cx="39.33" cy="46.69" r="1.85"/>
            <circle cx="39.33" cy="42.36" r="1.85"/>
            <circle cx="39.33" cy="38.03" r="1.85"/>
            <circle cx="39.33" cy="33.7" r="1.85"/>
            <circle cx="39.33" cy="29.37" r="1.85"/>
            <circle cx="39.33" cy="25.04" r="1.85"/>
            <circle cx="39.33" cy="20.7" r="1.85"/>
            <circle cx="39.33" cy="16.37" r="1.85"/>
            <circle cx="39.33" cy="12.04" r="1.85"/>
        </g>
        <g>
            <circle cx="45.26" cy="120.24" r="1.85"/>
            <circle cx="45.26" cy="115.92" r="1.85"/>
            <circle cx="45.26" cy="111.6" r="1.85"/>
            <circle cx="45.26" cy="107.28" r="1.85"/>
            <circle cx="45.26" cy="102.95" r="1.85"/>
            <circle cx="45.26" cy="98.63" r="1.85"/>
            <circle cx="45.26" cy="94.31" r="1.85"/>
            <circle cx="45.26" cy="89.99" r="1.85"/>
            <circle cx="45.26" cy="85.67" r="1.85"/>
            <circle cx="45.26" cy="81.34" r="1.85"/>
            <circle cx="45.26" cy="77.01" r="1.85"/>
            <circle cx="45.26" cy="72.68" r="1.85"/>
            <circle cx="45.26" cy="68.34" r="1.85"/>
            <circle cx="45.26" cy="64.01" r="1.85"/>
            <circle cx="45.26" cy="59.68" r="1.85"/>
            <circle cx="45.26" cy="55.35" r="1.85"/>
            <circle cx="45.26" cy="51.02" r="1.85"/>
            <circle cx="45.26" cy="46.69" r="1.85"/>
            <circle cx="45.26" cy="42.36" r="1.85"/>
            <circle cx="45.26" cy="38.03" r="1.85"/>
            <circle cx="45.26" cy="33.7" r="1.85"/>
            <circle cx="45.26" cy="29.37" r="1.85"/>
            <circle cx="45.26" cy="25.04" r="1.85"/>
            <circle cx="45.26" cy="20.7" r="1.85"/>
            <circle cx="45.26" cy="16.37" r="1.85"/>
            <circle cx="45.26" cy="12.04" r="1.85"/>
        </g>
        <g>
            <circle cx="51.19" cy="120.24" r="1.85"/>
            <circle cx="51.19" cy="115.92" r="1.85"/>
            <circle cx="51.19" cy="111.6" r="1.85"/>
            <circle cx="51.19" cy="107.28" r="1.85"/>
            <circle cx="51.19" cy="102.95" r="1.85"/>
            <circle cx="51.19" cy="98.63" r="1.85"/>
            <circle cx="51.19" cy="94.31" r="1.85"/>
            <circle cx="51.19" cy="89.99" r="1.85"/>
            <circle cx="51.19" cy="85.67" r="1.85"/>
            <circle cx="51.19" cy="81.34" r="1.85"/>
            <circle cx="51.19" cy="77.01" r="1.85"/>
            <circle cx="51.19" cy="72.68" r="1.85"/>
            <circle cx="51.19" cy="68.34" r="1.85"/>
            <circle cx="51.19" cy="64.01" r="1.85"/>
            <circle cx="51.19" cy="59.68" r="1.85"/>
            <circle cx="51.19" cy="55.35" r="1.85"/>
            <circle cx="51.19" cy="51.02" r="1.85"/>
            <circle cx="51.19" cy="46.69" r="1.85"/>
            <circle cx="51.19" cy="42.36" r="1.85"/>
            <circle cx="51.19" cy="38.03" r="1.85"/>
            <circle cx="51.19" cy="33.7" r="1.85"/>
            <circle cx="51.19" cy="29.37" r="1.85"/>
            <circle cx="51.19" cy="25.04" r="1.85"/>
            <circle cx="51.19" cy="20.7" r="1.85"/>
            <circle cx="51.19" cy="16.37" r="1.85"/>
            <circle cx="51.19" cy="12.04" r="1.85"/>
        </g>
        <g>
            <circle cx="57.12" cy="120.24" r="1.85"/>
            <circle cx="57.12" cy="115.92" r="1.85"/>
            <circle cx="57.12" cy="111.6" r="1.85"/>
            <circle cx="57.12" cy="107.28" r="1.85"/>
            <circle cx="57.12" cy="102.95" r="1.85"/>
            <circle cx="57.12" cy="98.63" r="1.85"/>
            <circle cx="57.12" cy="94.31" r="1.85"/>
            <circle cx="57.12" cy="89.99" r="1.85"/>
            <circle cx="57.12" cy="85.67" r="1.85"/>
            <circle cx="57.12" cy="81.34" r="1.85"/>
            <circle cx="57.12" cy="77.01" r="1.85"/>
            <circle cx="57.12" cy="72.68" r="1.85"/>
            <circle cx="57.12" cy="68.34" r="1.85"/>
            <circle cx="57.12" cy="64.01" r="1.85"/>
            <circle cx="57.12" cy="59.68" r="1.85"/>
            <circle cx="57.12" cy="55.35" r="1.85"/>
            <circle cx="57.12" cy="51.02" r="1.85"/>
            <circle cx="57.12" cy="46.69" r="1.85"/>
            <circle cx="57.12" cy="42.36" r="1.85"/>
            <circle cx="57.12" cy="38.03" r="1.85"/>
            <circle cx="57.12" cy="33.7" r="1.85"/>
            <circle cx="57.12" cy="29.37" r="1.85"/>
            <circle cx="57.12" cy="25.04" r="1.85"/>
            <circle cx="57.12" cy="20.7" r="1.85"/>
            <circle cx="57.12" cy="16.37" r="1.85"/>
            <circle cx="57.12" cy="12.04" r="1.85"/>
        </g>
        <g>
            <circle cx="63.05" cy="120.24" r="1.85"/>
            <circle cx="63.05" cy="115.92" r="1.85"/>
            <circle cx="63.05" cy="111.6" r="1.85"/>
            <circle cx="63.05" cy="107.28" r="1.85"/>
            <circle cx="63.05" cy="102.95" r="1.85"/>
            <circle cx="63.05" cy="98.63" r="1.85"/>
            <circle cx="63.05" cy="94.31" r="1.85"/>
            <circle cx="63.05" cy="89.99" r="1.85"/>
            <circle cx="63.05" cy="85.67" r="1.85"/>
            <circle cx="63.05" cy="81.34" r="1.85"/>
            <circle cx="63.05" cy="77.01" r="1.85"/>
            <circle cx="63.05" cy="72.68" r="1.85"/>
            <circle cx="63.05" cy="68.34" r="1.85"/>
            <circle cx="63.05" cy="64.01" r="1.85"/>
            <circle cx="63.05" cy="59.68" r="1.85"/>
            <circle cx="63.05" cy="55.35" r="1.85"/>
            <circle cx="63.05" cy="51.02" r="1.85"/>
            <circle cx="63.05" cy="46.69" r="1.85"/>
            <circle cx="63.05" cy="42.36" r="1.85"/>
            <circle cx="63.05" cy="38.03" r="1.85"/>
            <circle cx="63.05" cy="33.7" r="1.85"/>
            <circle cx="63.05" cy="29.37" r="1.85"/>
            <circle cx="63.05" cy="25.04" r="1.85"/>
            <circle cx="63.05" cy="20.7" r="1.85"/>
            <circle cx="63.05" cy="16.37" r="1.85"/>
            <circle cx="63.05" cy="12.04" r="1.85"/>
        </g>
        <g>
            <circle cx="68.98" cy="120.24" r="1.85"/>
            <circle cx="68.98" cy="115.92" r="1.85"/>
            <circle cx="68.98" cy="111.6" r="1.85"/>
            <circle cx="68.98" cy="107.28" r="1.85"/>
            <circle cx="68.98" cy="102.95" r="1.85"/>
            <circle cx="68.98" cy="98.63" r="1.85"/>
            <circle cx="68.98" cy="94.31" r="1.85"/>
            <circle cx="68.98" cy="89.99" r="1.85"/>
            <circle cx="68.98" cy="85.67" r="1.85"/>
            <circle cx="68.98" cy="81.34" r="1.85"/>
            <circle cx="68.98" cy="77.01" r="1.85"/>
            <circle cx="68.98" cy="72.68" r="1.85"/>
            <circle cx="68.98" cy="68.34" r="1.85"/>
            <circle cx="68.98" cy="64.01" r="1.85"/>
            <circle cx="68.98" cy="59.68" r="1.85"/>
            <circle cx="68.98" cy="55.35" r="1.85"/>
            <circle cx="68.98" cy="51.02" r="1.85"/>
            <circle cx="68.98" cy="46.69" r="1.85"/>
            <circle cx="68.98" cy="42.36" r="1.85"/>
            <circle cx="68.98" cy="38.03" r="1.85"/>
            <circle cx="68.98" cy="33.7" r="1.85"/>
            <circle cx="68.98" cy="29.37" r="1.85"/>
            <circle cx="68.98" cy="25.04" r="1.85"/>
            <circle cx="68.98" cy="20.7" r="1.85"/>
            <circle cx="68.98" cy="16.37" r="1.85"/>
            <circle cx="68.98" cy="12.04" r="1.85"/>
        </g>
        <g>
            <circle cx="74.91" cy="120.24" r="1.85"/>
            <circle cx="74.91" cy="115.92" r="1.85"/>
            <circle cx="74.91" cy="111.6" r="1.85"/>
            <circle cx="74.91" cy="107.28" r="1.85"/>
            <circle cx="74.91" cy="102.95" r="1.85"/>
            <circle cx="74.91" cy="98.63" r="1.85"/>
            <circle cx="74.91" cy="94.31" r="1.85"/>
            <circle cx="74.91" cy="89.99" r="1.85"/>
            <circle cx="74.91" cy="85.67" r="1.85"/>
            <circle cx="74.91" cy="81.34" r="1.85"/>
            <circle cx="74.91" cy="77.01" r="1.85"/>
            <circle cx="74.91" cy="72.68" r="1.85"/>
            <circle cx="74.91" cy="68.34" r="1.85"/>
            <circle cx="74.91" cy="64.01" r="1.85"/>
            <circle cx="74.91" cy="59.68" r="1.85"/>
            <circle cx="74.91" cy="55.35" r="1.85"/>
            <circle cx="74.91" cy="51.02" r="1.85"/>
            <circle cx="74.91" cy="46.69" r="1.85"/>
            <circle cx="74.91" cy="42.36" r="1.85"/>
            <circle cx="74.91" cy="38.03" r="1.85"/>
            <circle cx="74.91" cy="33.7" r="1.85"/>
            <circle cx="74.91" cy="29.37" r="1.85"/>
            <circle cx="74.91" cy="25.04" r="1.85"/>
            <circle cx="74.91" cy="20.7" r="1.85"/>
            <circle cx="74.91" cy="16.37" r="1.85"/>
            <circle cx="74.91" cy="12.04" r="1.85"/>
        </g>
        <g>
            <circle cx="80.84" cy="120.24" r="1.85"/>
            <circle cx="80.84" cy="115.92" r="1.85"/>
            <circle cx="80.84" cy="111.6" r="1.85"/>
            <circle cx="80.84" cy="107.28" r="1.85"/>
            <circle cx="80.84" cy="102.95" r="1.85"/>
            <circle cx="80.84" cy="98.63" r="1.85"/>
            <circle cx="80.84" cy="94.31" r="1.85"/>
            <circle cx="80.84" cy="89.99" r="1.85"/>
            <circle cx="80.84" cy="85.67" r="1.85"/>
            <circle cx="80.84" cy="81.34" r="1.85"/>
            <circle cx="80.84" cy="77.01" r="1.85"/>
            <circle cx="80.84" cy="72.68" r="1.85"/>
            <circle cx="80.84" cy="68.34" r="1.85"/>
            <circle cx="80.84" cy="64.01" r="1.85"/>
            <circle cx="80.84" cy="59.68" r="1.85"/>
            <circle cx="80.84" cy="55.35" r="1.85"/>
            <circle cx="80.84" cy="51.02" r="1.85"/>
            <circle cx="80.84" cy="46.69" r="1.85"/>
            <circle cx="80.84" cy="42.36" r="1.85"/>
            <circle cx="80.84" cy="38.03" r="1.85"/>
            <circle cx="80.84" cy="33.7" r="1.85"/>
            <circle cx="80.84" cy="29.37" r="1.85"/>
            <circle cx="80.84" cy="25.04" r="1.85"/>
            <circle cx="80.84" cy="20.7" r="1.85"/>
            <circle cx="80.84" cy="16.37" r="1.85"/>
            <circle cx="80.84" cy="12.04" r="1.85"/>
        </g>
        <g>
            <circle cx="86.77" cy="120.24" r="1.85"/>
            <circle cx="86.77" cy="115.92" r="1.85"/>
            <circle cx="86.77" cy="111.6" r="1.85"/>
            <circle cx="86.77" cy="107.28" r="1.85"/>
            <circle cx="86.77" cy="102.95" r="1.85"/>
            <circle cx="86.77" cy="98.63" r="1.85"/>
            <circle cx="86.77" cy="94.31" r="1.85"/>
            <circle cx="86.77" cy="89.99" r="1.85"/>
            <circle cx="86.77" cy="85.67" r="1.85"/>
            <circle cx="86.77" cy="81.34" r="1.85"/>
            <circle cx="86.77" cy="77.01" r="1.85"/>
            <circle cx="86.77" cy="72.68" r="1.85"/>
            <circle cx="86.77" cy="68.34" r="1.85"/>
            <circle cx="86.77" cy="64.01" r="1.85"/>
            <circle cx="86.77" cy="59.68" r="1.85"/>
            <circle cx="86.77" cy="55.35" r="1.85"/>
            <circle cx="86.77" cy="51.02" r="1.85"/>
            <circle cx="86.77" cy="46.69" r="1.85"/>
            <circle cx="86.77" cy="42.36" r="1.85"/>
            <circle cx="86.77" cy="38.03" r="1.85"/>
            <circle cx="86.77" cy="33.7" r="1.85"/>
            <circle cx="86.77" cy="29.37" r="1.85"/>
            <circle cx="86.77" cy="25.04" r="1.85"/>
            <circle cx="86.77" cy="20.7" r="1.85"/>
            <circle cx="86.77" cy="16.37" r="1.85"/>
            <circle cx="86.77" cy="12.04" r="1.85"/>
        </g>
        <g>
            <circle cx="92.7" cy="120.24" r="1.85"/>
            <circle cx="92.7" cy="115.92" r="1.85"/>
            <circle cx="92.7" cy="111.6" r="1.85"/>
            <circle cx="92.7" cy="107.28" r="1.85"/>
            <circle cx="92.7" cy="102.95" r="1.85"/>
            <circle cx="92.7" cy="98.63" r="1.85"/>
            <circle cx="92.7" cy="94.31" r="1.85"/>
            <circle cx="92.7" cy="89.99" r="1.85"/>
            <circle cx="92.7" cy="85.67" r="1.85"/>
            <circle cx="92.7" cy="81.34" r="1.85"/>
            <circle cx="92.7" cy="77.01" r="1.85"/>
            <circle cx="92.7" cy="72.68" r="1.85"/>
            <circle cx="92.7" cy="68.34" r="1.85"/>
            <circle cx="92.7" cy="64.01" r="1.85"/>
            <circle cx="92.7" cy="59.68" r="1.85"/>
            <circle cx="92.7" cy="55.35" r="1.85"/>
            <circle cx="92.7" cy="51.02" r="1.85"/>
            <circle cx="92.7" cy="46.69" r="1.85"/>
            <circle cx="92.7" cy="42.36" r="1.85"/>
            <circle cx="92.7" cy="38.03" r="1.85"/>
            <circle cx="92.7" cy="33.7" r="1.85"/>
            <circle cx="92.7" cy="29.37" r="1.85"/>
            <circle cx="92.7" cy="25.04" r="1.85"/>
            <circle cx="92.7" cy="20.7" r="1.85"/>
            <circle cx="92.7" cy="16.37" r="1.85"/>
            <circle cx="92.7" cy="12.04" r="1.85"/>
        </g>
        <g>
            <circle cx="98.63" cy="120.24" r="1.85"/>
            <circle cx="98.63" cy="115.92" r="1.85"/>
            <circle cx="98.63" cy="111.6" r="1.85"/>
            <circle cx="98.63" cy="107.28" r="1.85"/>
            <circle cx="98.63" cy="102.95" r="1.85"/>
            <circle cx="98.63" cy="98.63" r="1.85"/>
            <circle cx="98.63" cy="94.31" r="1.85"/>
            <circle cx="98.63" cy="89.99" r="1.85"/>
            <circle cx="98.63" cy="85.67" r="1.85"/>
            <circle cx="98.63" cy="81.34" r="1.85"/>
            <circle cx="98.63" cy="77.01" r="1.85"/>
            <circle cx="98.63" cy="72.68" r="1.85"/>
            <circle cx="98.63" cy="68.34" r="1.85"/>
            <circle cx="98.63" cy="64.01" r="1.85"/>
            <circle cx="98.63" cy="59.68" r="1.85"/>
            <circle cx="98.63" cy="55.35" r="1.85"/>
            <circle cx="98.63" cy="51.02" r="1.85"/>
            <circle cx="98.63" cy="46.69" r="1.85"/>
            <circle cx="98.63" cy="42.36" r="1.85"/>
            <circle cx="98.63" cy="38.03" r="1.85"/>
            <circle cx="98.63" cy="33.7" r="1.85"/>
            <circle cx="98.63" cy="29.37" r="1.85"/>
            <circle cx="98.63" cy="25.04" r="1.85"/>
            <circle cx="98.63" cy="20.7" r="1.85"/>
            <circle cx="98.63" cy="16.37" r="1.85"/>
            <circle cx="98.63" cy="12.04" r="1.85"/>
        </g>
        <g>
            <circle cx="104.56" cy="120.24" r="1.85"/>
            <circle cx="104.56" cy="115.92" r="1.85"/>
            <circle cx="104.56" cy="111.6" r="1.85"/>
            <circle cx="104.56" cy="107.28" r="1.85"/>
            <circle cx="104.56" cy="102.95" r="1.85"/>
            <circle cx="104.56" cy="98.63" r="1.85"/>
            <circle cx="104.56" cy="94.31" r="1.85"/>
            <circle cx="104.56" cy="89.99" r="1.85"/>
            <circle cx="104.56" cy="85.67" r="1.85"/>
            <circle cx="104.56" cy="81.34" r="1.85"/>
            <circle cx="104.56" cy="77.01" r="1.85"/>
            <circle cx="104.56" cy="72.68" r="1.85"/>
            <circle cx="104.56" cy="68.34" r="1.85"/>
            <circle cx="104.56" cy="64.01" r="1.85"/>
            <circle cx="104.56" cy="59.68" r="1.85"/>
            <circle cx="104.56" cy="55.35" r="1.85"/>
            <circle cx="104.56" cy="51.02" r="1.85"/>
            <circle cx="104.56" cy="46.69" r="1.85"/>
            <circle cx="104.56" cy="42.36" r="1.85"/>
            <circle cx="104.56" cy="38.03" r="1.85"/>
            <circle cx="104.56" cy="33.7" r="1.85"/>
            <circle cx="104.56" cy="29.37" r="1.85"/>
            <circle cx="104.56" cy="25.04" r="1.85"/>
            <circle cx="104.56" cy="20.7" r="1.85"/>
            <circle cx="104.56" cy="16.37" r="1.85"/>
            <circle cx="104.56" cy="12.04" r="1.85"/>
        </g>
        <g>
            <circle cx="110.5" cy="120.24" r="1.85"/>
            <circle cx="110.5" cy="115.92" r="1.85"/>
            <circle cx="110.5" cy="111.6" r="1.85"/>
            <circle cx="110.5" cy="107.28" r="1.85"/>
            <circle cx="110.5" cy="102.95" r="1.85"/>
            <circle cx="110.5" cy="98.63" r="1.85"/>
            <circle cx="110.5" cy="94.31" r="1.85"/>
            <circle cx="110.5" cy="89.99" r="1.85"/>
            <circle cx="110.5" cy="85.67" r="1.85"/>
            <circle cx="110.5" cy="81.34" r="1.85"/>
            <circle cx="110.5" cy="77.01" r="1.85"/>
            <circle cx="110.5" cy="72.68" r="1.85"/>
            <circle cx="110.5" cy="68.34" r="1.85"/>
            <circle cx="110.5" cy="64.01" r="1.85"/>
            <circle cx="110.5" cy="59.68" r="1.85"/>
            <circle cx="110.5" cy="55.35" r="1.85"/>
            <circle cx="110.5" cy="51.02" r="1.85"/>
            <circle cx="110.5" cy="46.69" r="1.85"/>
            <circle cx="110.5" cy="42.36" r="1.85"/>
            <circle cx="110.5" cy="38.03" r="1.85"/>
            <circle cx="110.5" cy="33.7" r="1.85"/>
            <circle cx="110.5" cy="29.37" r="1.85"/>
            <circle cx="110.5" cy="25.04" r="1.85"/>
            <circle cx="110.5" cy="20.7" r="1.85"/>
            <circle cx="110.5" cy="16.37" r="1.85"/>
            <circle cx="110.5" cy="12.04" r="1.85"/>
        </g>
        <g>
            <circle cx="146.08" cy="120.24" r="1.85"/>
            <circle cx="146.08" cy="115.92" r="1.85"/>
            <circle cx="146.08" cy="111.6" r="1.85"/>
            <circle cx="146.08" cy="107.28" r="1.85"/>
            <circle cx="146.08" cy="102.95" r="1.85"/>
            <circle cx="146.08" cy="98.63" r="1.85"/>
            <circle cx="146.08" cy="94.31" r="1.85"/>
            <circle cx="146.08" cy="89.99" r="1.85"/>
            <circle cx="146.08" cy="85.67" r="1.85"/>
            <circle cx="146.08" cy="81.34" r="1.85"/>
            <circle cx="146.08" cy="77.01" r="1.85"/>
            <circle cx="146.08" cy="72.68" r="1.85"/>
            <circle cx="146.08" cy="68.34" r="1.85"/>
            <circle cx="146.08" cy="64.01" r="1.85"/>
            <circle cx="146.08" cy="59.68" r="1.85"/>
            <circle cx="146.08" cy="55.35" r="1.85"/>
            <circle cx="146.08" cy="51.02" r="1.85"/>
            <circle cx="146.08" cy="46.69" r="1.85"/>
            <circle cx="146.08" cy="42.36" r="1.85"/>
            <circle cx="146.08" cy="38.03" r="1.85"/>
            <circle cx="146.08" cy="33.7" r="1.85"/>
            <circle cx="146.08" cy="29.37" r="1.85"/>
            <circle cx="146.08" cy="25.04" r="1.85"/>
            <circle cx="146.08" cy="20.7" r="1.85"/>
            <circle cx="146.08" cy="16.37" r="1.85"/>
            <circle cx="146.08" cy="12.04" r="1.85"/>
        </g>
        <g>
            <circle cx="152.01" cy="120.24" r="1.85"/>
            <circle cx="152.01" cy="115.92" r="1.85"/>
            <circle cx="152.01" cy="111.6" r="1.85"/>
            <circle cx="152.01" cy="107.28" r="1.85"/>
            <circle cx="152.01" cy="102.95" r="1.85"/>
            <circle cx="152.01" cy="98.63" r="1.85"/>
            <circle cx="152.01" cy="94.31" r="1.85"/>
            <circle cx="152.01" cy="89.99" r="1.85"/>
            <circle cx="152.01" cy="85.67" r="1.85"/>
            <circle cx="152.01" cy="81.34" r="1.85"/>
            <circle cx="152.01" cy="77.01" r="1.85"/>
            <circle cx="152.01" cy="72.68" r="1.85"/>
            <circle cx="152.01" cy="68.34" r="1.85"/>
            <circle cx="152.01" cy="64.01" r="1.85"/>
            <circle cx="152.01" cy="59.68" r="1.85"/>
            <circle cx="152.01" cy="55.35" r="1.85"/>
            <circle cx="152.01" cy="51.02" r="1.85"/>
            <circle cx="152.01" cy="46.69" r="1.85"/>
            <circle cx="152.01" cy="42.36" r="1.85"/>
            <circle cx="152.01" cy="38.03" r="1.85"/>
            <circle cx="152.01" cy="33.7" r="1.85"/>
            <circle cx="152.01" cy="29.37" r="1.85"/>
            <circle cx="152.01" cy="25.04" r="1.85"/>
            <circle cx="152.01" cy="20.7" r="1.85"/>
            <circle cx="152.01" cy="16.37" r="1.85"/>
            <circle cx="152.01" cy="12.04" r="1.85"/>
        </g>
        <g>
            <circle cx="157.94" cy="120.24" r="1.85"/>
            <circle cx="157.94" cy="115.92" r="1.85"/>
            <circle cx="157.94" cy="111.6" r="1.85"/>
            <circle cx="157.94" cy="107.28" r="1.85"/>
            <circle cx="157.94" cy="102.95" r="1.85"/>
            <circle cx="157.94" cy="98.63" r="1.85"/>
            <circle cx="157.94" cy="94.31" r="1.85"/>
            <circle cx="157.94" cy="89.99" r="1.85"/>
            <circle cx="157.94" cy="85.67" r="1.85"/>
            <circle cx="157.94" cy="81.34" r="1.85"/>
            <circle cx="157.94" cy="77.01" r="1.85"/>
            <circle cx="157.94" cy="72.68" r="1.85"/>
            <circle cx="157.94" cy="68.34" r="1.85"/>
            <circle cx="157.94" cy="64.01" r="1.85"/>
            <circle cx="157.94" cy="59.68" r="1.85"/>
            <circle cx="157.94" cy="55.35" r="1.85"/>
            <circle cx="157.94" cy="51.02" r="1.85"/>
            <circle cx="157.94" cy="46.69" r="1.85"/>
            <circle cx="157.94" cy="42.36" r="1.85"/>
            <circle cx="157.94" cy="38.03" r="1.85"/>
            <circle cx="157.94" cy="33.7" r="1.85"/>
            <circle cx="157.94" cy="29.37" r="1.85"/>
            <circle cx="157.94" cy="25.04" r="1.85"/>
            <circle cx="157.94" cy="20.7" r="1.85"/>
            <circle cx="157.94" cy="16.37" r="1.85"/>
            <circle cx="157.94" cy="12.04" r="1.85"/>
        </g>
        <g>
            <circle cx="163.87" cy="120.24" r="1.85"/>
            <circle cx="163.87" cy="115.92" r="1.85"/>
            <circle cx="163.87" cy="111.6" r="1.85"/>
            <circle cx="163.87" cy="107.28" r="1.85"/>
            <circle cx="163.87" cy="102.95" r="1.85"/>
            <circle cx="163.87" cy="98.63" r="1.85"/>
            <circle cx="163.87" cy="94.31" r="1.85"/>
            <circle cx="163.87" cy="89.99" r="1.85"/>
            <circle cx="163.87" cy="85.67" r="1.85"/>
            <circle cx="163.87" cy="81.34" r="1.85"/>
            <circle cx="163.87" cy="77.01" r="1.85"/>
            <circle cx="163.87" cy="72.68" r="1.85"/>
            <circle cx="163.87" cy="68.34" r="1.85"/>
            <circle cx="163.87" cy="64.01" r="1.85"/>
            <circle cx="163.87" cy="59.68" r="1.85"/>
            <circle cx="163.87" cy="55.35" r="1.85"/>
            <circle cx="163.87" cy="51.02" r="1.85"/>
            <circle cx="163.87" cy="46.69" r="1.85"/>
            <circle cx="163.87" cy="42.36" r="1.85"/>
            <circle cx="163.87" cy="38.03" r="1.85"/>
            <circle cx="163.87" cy="33.7" r="1.85"/>
            <circle cx="163.87" cy="29.37" r="1.85"/>
            <circle cx="163.87" cy="25.04" r="1.85"/>
            <circle cx="163.87" cy="20.7" r="1.85"/>
            <circle cx="163.87" cy="16.37" r="1.85"/>
            <circle cx="163.87" cy="12.04" r="1.85"/>
        </g>
        <g>
            <circle cx="169.8" cy="120.24" r="1.85"/>
            <circle cx="169.8" cy="115.92" r="1.85"/>
            <circle cx="169.8" cy="111.6" r="1.85"/>
            <circle cx="169.8" cy="107.28" r="1.85"/>
            <circle cx="169.8" cy="102.95" r="1.85"/>
            <circle cx="169.8" cy="98.63" r="1.85"/>
            <circle cx="169.8" cy="94.31" r="1.85"/>
            <circle cx="169.8" cy="89.99" r="1.85"/>
            <circle cx="169.8" cy="85.67" r="1.85"/>
            <circle cx="169.8" cy="81.34" r="1.85"/>
            <circle cx="169.8" cy="77.01" r="1.85"/>
            <circle cx="169.8" cy="72.68" r="1.85"/>
            <circle cx="169.8" cy="68.34" r="1.85"/>
            <circle cx="169.8" cy="64.01" r="1.85"/>
            <circle cx="169.8" cy="59.68" r="1.85"/>
            <circle cx="169.8" cy="55.35" r="1.85"/>
            <circle cx="169.8" cy="51.02" r="1.85"/>
            <circle cx="169.8" cy="46.69" r="1.85"/>
            <circle cx="169.8" cy="42.36" r="1.85"/>
            <circle cx="169.8" cy="38.03" r="1.85"/>
            <circle cx="169.8" cy="33.7" r="1.85"/>
            <circle cx="169.8" cy="29.37" r="1.85"/>
            <circle cx="169.8" cy="25.04" r="1.85"/>
            <circle cx="169.8" cy="20.7" r="1.85"/>
            <circle cx="169.8" cy="16.37" r="1.85"/>
            <circle cx="169.8" cy="12.04" r="1.85"/>
        </g>
        <g>
            <circle cx="175.73" cy="120.24" r="1.85"/>
            <circle cx="175.73" cy="115.92" r="1.85"/>
            <circle cx="175.73" cy="111.6" r="1.85"/>
            <circle cx="175.73" cy="107.28" r="1.85"/>
            <circle cx="175.73" cy="102.95" r="1.85"/>
            <circle cx="175.73" cy="98.63" r="1.85"/>
            <circle cx="175.73" cy="94.31" r="1.85"/>
            <circle cx="175.73" cy="89.99" r="1.85"/>
            <circle cx="175.73" cy="85.67" r="1.85"/>
            <circle cx="175.73" cy="81.34" r="1.85"/>
            <circle cx="175.73" cy="77.01" r="1.85"/>
            <circle cx="175.73" cy="72.68" r="1.85"/>
            <circle cx="175.73" cy="68.34" r="1.85"/>
            <circle cx="175.73" cy="64.01" r="1.85"/>
            <circle cx="175.73" cy="59.68" r="1.85"/>
            <circle cx="175.73" cy="55.35" r="1.85"/>
            <circle cx="175.73" cy="51.02" r="1.85"/>
            <circle cx="175.73" cy="46.69" r="1.85"/>
            <circle cx="175.73" cy="42.36" r="1.85"/>
            <circle cx="175.73" cy="38.03" r="1.85"/>
            <circle cx="175.73" cy="33.7" r="1.85"/>
            <circle cx="175.73" cy="29.37" r="1.85"/>
            <circle cx="175.73" cy="25.04" r="1.85"/>
            <circle cx="175.73" cy="20.7" r="1.85"/>
            <circle cx="175.73" cy="16.37" r="1.85"/>
            <circle cx="175.73" cy="12.04" r="1.85"/>
        </g>
        <g>
            <circle cx="181.66" cy="120.24" r="1.85"/>
            <circle cx="181.66" cy="115.92" r="1.85"/>
            <circle cx="181.66" cy="111.6" r="1.85"/>
            <circle cx="181.66" cy="107.28" r="1.85"/>
            <circle cx="181.66" cy="102.95" r="1.85"/>
            <circle cx="181.66" cy="98.63" r="1.85"/>
            <circle cx="181.66" cy="94.31" r="1.85"/>
            <circle cx="181.66" cy="89.99" r="1.85"/>
            <circle cx="181.66" cy="85.67" r="1.85"/>
            <circle cx="181.66" cy="81.34" r="1.85"/>
            <circle cx="181.66" cy="77.01" r="1.85"/>
            <circle cx="181.66" cy="72.68" r="1.85"/>
            <circle cx="181.66" cy="68.34" r="1.85"/>
            <circle cx="181.66" cy="64.01" r="1.85"/>
            <circle cx="181.66" cy="59.68" r="1.85"/>
            <circle cx="181.66" cy="55.35" r="1.85"/>
            <circle cx="181.66" cy="51.02" r="1.85"/>
            <circle cx="181.66" cy="46.69" r="1.85"/>
            <circle cx="181.66" cy="42.36" r="1.85"/>
            <circle cx="181.66" cy="38.03" r="1.85"/>
            <circle cx="181.66" cy="33.7" r="1.85"/>
            <circle cx="181.66" cy="29.37" r="1.85"/>
            <circle cx="181.66" cy="25.04" r="1.85"/>
            <circle cx="181.66" cy="20.7" r="1.85"/>
            <circle cx="181.66" cy="16.37" r="1.85"/>
            <circle cx="181.66" cy="12.04" r="1.85"/>
        </g>
        <g>
            <circle cx="187.59" cy="120.24" r="1.85"/>
            <circle cx="187.59" cy="115.92" r="1.85"/>
            <circle cx="187.59" cy="111.6" r="1.85"/>
            <circle cx="187.59" cy="107.28" r="1.85"/>
            <circle cx="187.59" cy="102.95" r="1.85"/>
            <circle cx="187.59" cy="98.63" r="1.85"/>
            <circle cx="187.59" cy="94.31" r="1.85"/>
            <circle cx="187.59" cy="89.99" r="1.85"/>
            <circle cx="187.59" cy="85.67" r="1.85"/>
            <circle cx="187.59" cy="81.34" r="1.85"/>
            <circle cx="187.59" cy="77.01" r="1.85"/>
            <circle cx="187.59" cy="72.68" r="1.85"/>
            <circle cx="187.59" cy="68.34" r="1.85"/>
            <circle cx="187.59" cy="64.01" r="1.85"/>
            <circle cx="187.59" cy="59.68" r="1.85"/>
            <circle cx="187.59" cy="55.35" r="1.85"/>
            <circle cx="187.59" cy="51.02" r="1.85"/>
            <circle cx="187.59" cy="46.69" r="1.85"/>
            <circle cx="187.59" cy="42.36" r="1.85"/>
            <circle cx="187.59" cy="38.03" r="1.85"/>
            <circle cx="187.59" cy="33.7" r="1.85"/>
            <circle cx="187.59" cy="29.37" r="1.85"/>
            <circle cx="187.59" cy="25.04" r="1.85"/>
            <circle cx="187.59" cy="20.7" r="1.85"/>
            <circle cx="187.59" cy="16.37" r="1.85"/>
            <circle cx="187.59" cy="12.04" r="1.85"/>
        </g>
        <g>
            <circle cx="193.52" cy="120.24" r="1.85"/>
            <circle cx="193.52" cy="115.92" r="1.85"/>
            <circle cx="193.52" cy="111.6" r="1.85"/>
            <circle cx="193.52" cy="107.28" r="1.85"/>
            <circle cx="193.52" cy="102.95" r="1.85"/>
            <circle cx="193.52" cy="98.63" r="1.85"/>
            <circle cx="193.52" cy="94.31" r="1.85"/>
            <circle cx="193.52" cy="89.99" r="1.85"/>
            <circle cx="193.52" cy="85.67" r="1.85"/>
            <circle cx="193.52" cy="81.34" r="1.85"/>
            <circle cx="193.52" cy="77.01" r="1.85"/>
            <circle cx="193.52" cy="72.68" r="1.85"/>
            <circle cx="193.52" cy="68.34" r="1.85"/>
            <circle cx="193.52" cy="64.01" r="1.85"/>
            <circle cx="193.52" cy="59.68" r="1.85"/>
            <circle cx="193.52" cy="55.35" r="1.85"/>
            <circle cx="193.52" cy="51.02" r="1.85"/>
            <circle cx="193.52" cy="46.69" r="1.85"/>
            <circle cx="193.52" cy="42.36" r="1.85"/>
            <circle cx="193.52" cy="38.03" r="1.85"/>
            <circle cx="193.52" cy="33.7" r="1.85"/>
            <circle cx="193.52" cy="29.37" r="1.85"/>
            <circle cx="193.52" cy="25.04" r="1.85"/>
            <circle cx="193.52" cy="20.7" r="1.85"/>
            <circle cx="193.52" cy="16.37" r="1.85"/>
            <circle cx="193.52" cy="12.04" r="1.85"/>
        </g>
        <g>
            <circle cx="199.45" cy="120.24" r="1.85"/>
            <circle cx="199.45" cy="115.92" r="1.85"/>
            <circle cx="199.45" cy="111.6" r="1.85"/>
            <circle cx="199.45" cy="107.28" r="1.85"/>
            <circle cx="199.45" cy="102.95" r="1.85"/>
            <circle cx="199.45" cy="98.63" r="1.85"/>
            <circle cx="199.45" cy="94.31" r="1.85"/>
            <circle cx="199.45" cy="89.99" r="1.85"/>
            <circle cx="199.45" cy="85.67" r="1.85"/>
            <circle cx="199.45" cy="81.34" r="1.85"/>
            <circle cx="199.45" cy="77.01" r="1.85"/>
            <circle cx="199.45" cy="72.68" r="1.85"/>
            <circle cx="199.45" cy="68.34" r="1.85"/>
            <circle cx="199.45" cy="64.01" r="1.85"/>
            <circle cx="199.45" cy="59.68" r="1.85"/>
            <circle cx="199.45" cy="55.35" r="1.85"/>
            <circle cx="199.45" cy="51.02" r="1.85"/>
            <circle cx="199.45" cy="46.69" r="1.85"/>
            <circle cx="199.45" cy="42.36" r="1.85"/>
            <circle cx="199.45" cy="38.03" r="1.85"/>
            <circle cx="199.45" cy="33.7" r="1.85"/>
            <circle cx="199.45" cy="29.37" r="1.85"/>
            <circle cx="199.45" cy="25.04" r="1.85"/>
            <circle cx="199.45" cy="20.7" r="1.85"/>
            <circle cx="199.45" cy="16.37" r="1.85"/>
            <circle cx="199.45" cy="12.04" r="1.85"/>
        </g>
    </g>
</svg>
