<?xml version="1.0" encoding="utf-8"?>
<!-- Generator: Adobe Illustrator 23.0.1, SVG Export Plug-In . SVG Version: 6.00 Build 0)  -->
<svg version="1.1" id="Layer_1" xmlns="http://www.w3.org/2000/svg" xmlns:xlink="http://www.w3.org/1999/xlink" x="0px" y="0px"
	 width="216px" height="66px" viewBox="0 0 216 66" enable-background="new 0 0 216 66" xml:space="preserve">
<g onclick="this.parentNode.sekt.push(this);this.a_name=&quot;N 7&quot;;">
	<g onclick="this.parentNode.a_fon=this;">
		
			<polygon onclick="this.a_par={beg_namb:33,quant:44};" fill="#F1F3F4" stroke="#BCC8CE" stroke-width="0.4" stroke-linecap="round" stroke-miterlimit="10" points="
			192.05,0.51 1.69,65.55 215.23,65.55 		"/>
	</g>
	<g onclick="this.parentNode.a_row=this;">
		<g onclick="this.a_par={beg_namb:1,quant:8};">
			<line fill="none" stroke="#D3DBDF" stroke-width="0.4" stroke-miterlimit="10" x1="188.84" y1="61.31" x2="188.84" y2="27.36"/>
		</g>
		<g onclick="this.a_par={beg_namb:1,quant:11};">
			<line fill="none" stroke="#D3DBDF" stroke-width="0.4" stroke-miterlimit="10" x1="182.91" y1="61.31" x2="182.91" y2="14.38"/>
		</g>
		<g onclick="this.a_par={beg_namb:1,quant:11};">
			<line fill="none" stroke="#D3DBDF" stroke-width="0.4" stroke-miterlimit="10" x1="176.98" y1="61.31" x2="176.98" y2="14.38"/>
		</g>
		<g onclick="this.a_par={beg_namb:1,quant:10};">
			<line fill="none" stroke="#D3DBDF" stroke-width="0.4" stroke-miterlimit="10" x1="171.05" y1="61.31" x2="171.05" y2="18.71"/>
		</g>
		<g onclick="this.a_par={beg_namb:1,quant:10};">
			<line fill="none" stroke="#D3DBDF" stroke-width="0.4" stroke-miterlimit="10" x1="165.12" y1="61.31" x2="165.12" y2="18.71"/>
		</g>
		<g onclick="this.a_par={beg_namb:1,quant:9};">
			<line fill="none" stroke="#D3DBDF" stroke-width="0.4" stroke-miterlimit="10" x1="159.19" y1="61.31" x2="159.19" y2="23.04"/>
		</g>
		<g onclick="this.a_par={beg_namb:1,quant:9};">
			<line fill="none" stroke="#D3DBDF" stroke-width="0.4" stroke-miterlimit="10" x1="153.26" y1="61.31" x2="153.26" y2="23.04"/>
		</g>
		<g onclick="this.a_par={beg_namb:1,quant:8};">
			<line fill="none" stroke="#D3DBDF" stroke-width="0.4" stroke-miterlimit="10" x1="147.33" y1="61.31" x2="147.33" y2="27.36"/>
		</g>
		<g onclick="this.a_par={beg_namb:1,quant:6};">
			<line fill="none" stroke="#D3DBDF" stroke-width="0.4" stroke-miterlimit="10" x1="141.4" y1="61.31" x2="141.4" y2="35.96"/>
		</g>
		<g onclick="this.a_par={beg_namb:1,quant:5};">
			<line fill="none" stroke="#D3DBDF" stroke-width="0.4" stroke-miterlimit="10" x1="135.47" y1="61.31" x2="135.47" y2="40.33"/>
		</g>
		<g onclick="this.a_par={beg_namb:1,quant:5};">
			<line fill="none" stroke="#D3DBDF" stroke-width="0.4" stroke-miterlimit="10" x1="129.54" y1="61.31" x2="129.54" y2="40.33"/>
		</g>
		<g onclick="this.a_par={beg_namb:1,quant:4};">
			<line fill="none" stroke="#D3DBDF" stroke-width="0.4" stroke-miterlimit="10" x1="123.61" y1="61.31" x2="123.61" y2="44.62"/>
		</g>
		<g onclick="this.a_par={beg_namb:1,quant:4};">
			<line fill="none" stroke="#D3DBDF" stroke-width="0.4" stroke-miterlimit="10" x1="117.67" y1="61.31" x2="117.67" y2="44.62"/>
		</g>
		<g onclick="this.a_par={beg_namb:1,quant:5};">
			<line fill="none" stroke="#D3DBDF" stroke-width="0.4" stroke-miterlimit="10" x1="111.74" y1="61.31" x2="111.74" y2="40.33"/>
		</g>
		<g onclick="this.a_par={beg_namb:1,quant:5};">
			<line fill="none" stroke="#D3DBDF" stroke-width="0.4" stroke-miterlimit="10" x1="105.81" y1="61.31" x2="105.81" y2="40.33"/>
		</g>
		<g onclick="this.a_par={beg_namb:1,quant:5};">
			<line fill="none" stroke="#D3DBDF" stroke-width="0.4" stroke-miterlimit="10" x1="99.88" y1="61.31" x2="99.88" y2="40.33"/>
		</g>
		<g onclick="this.a_par={beg_namb:1,quant:4};">
			<line fill="none" stroke="#D3DBDF" stroke-width="0.4" stroke-miterlimit="10" x1="93.95" y1="61.31" x2="93.95" y2="44.65"/>
		</g>
		<g onclick="this.a_par={beg_namb:1,quant:4};">
			<line fill="none" stroke="#D3DBDF" stroke-width="0.4" stroke-miterlimit="10" x1="88.02" y1="61.31" x2="88.02" y2="44.65"/>
		</g>
		<g onclick="this.a_par={beg_namb:1,quant:4};">
			<line fill="none" stroke="#D3DBDF" stroke-width="0.4" stroke-miterlimit="10" x1="82.09" y1="61.31" x2="82.09" y2="44.65"/>
		</g>
		<g onclick="this.a_par={beg_namb:1,quant:4};">
			<line fill="none" stroke="#D3DBDF" stroke-width="0.4" stroke-miterlimit="10" x1="76.16" y1="61.31" x2="76.16" y2="44.65"/>
		</g>
		<g onclick="this.a_par={beg_namb:1,quant:2};">
			<line fill="none" stroke="#D3DBDF" stroke-width="0.4" stroke-miterlimit="10" x1="70.23" y1="61.31" x2="70.23" y2="53.29"/>
		</g>
		<g onclick="this.a_par={beg_namb:1,quant:2};">
			<line fill="none" stroke="#D3DBDF" stroke-width="0.4" stroke-miterlimit="10" x1="64.3" y1="61.31" x2="64.3" y2="53.29"/>
		</g>
		<g onclick="this.a_par={beg_namb:1,quant:2};">
			<line fill="none" stroke="#D3DBDF" stroke-width="0.4" stroke-miterlimit="10" x1="58.37" y1="61.31" x2="58.37" y2="53.29"/>
		</g>
	</g>
	<g>
		<g>
			<circle fill="#AEBDC4" cx="58.37" cy="59.46" r="1.85"/>
			<circle fill="#AEBDC4" cx="58.37" cy="55.14" r="1.85"/>
		</g>
		<g>
			<circle fill="#AEBDC4" cx="64.3" cy="59.46" r="1.85"/>
			<circle fill="#AEBDC4" cx="64.3" cy="55.14" r="1.85"/>
		</g>
		<g>
			<circle fill="#AEBDC4" cx="70.23" cy="59.46" r="1.85"/>
			<circle fill="#AEBDC4" cx="70.23" cy="55.14" r="1.85"/>
		</g>
		<g>
			<circle fill="#AEBDC4" cx="76.16" cy="59.46" r="1.85"/>
			<circle fill="#AEBDC4" cx="76.16" cy="55.14" r="1.85"/>
			<circle fill="#AEBDC4" cx="76.16" cy="50.82" r="1.85"/>
			<circle fill="#AEBDC4" cx="76.16" cy="46.5" r="1.85"/>
		</g>
		<g>
			<circle fill="#AEBDC4" cx="82.09" cy="59.46" r="1.85"/>
			<circle fill="#AEBDC4" cx="82.09" cy="55.14" r="1.85"/>
			<circle fill="#AEBDC4" cx="82.09" cy="50.82" r="1.85"/>
			<circle fill="#AEBDC4" cx="82.09" cy="46.5" r="1.85"/>
		</g>
		<g>
			<circle fill="#AEBDC4" cx="88.02" cy="59.46" r="1.85"/>
			<circle fill="#AEBDC4" cx="88.02" cy="55.14" r="1.85"/>
			<circle fill="#AEBDC4" cx="88.02" cy="50.82" r="1.85"/>
			<circle fill="#AEBDC4" cx="88.02" cy="46.5" r="1.85"/>
		</g>
		<g>
			<circle fill="#AEBDC4" cx="93.95" cy="59.46" r="1.85"/>
			<circle fill="#AEBDC4" cx="93.95" cy="55.14" r="1.85"/>
			<circle fill="#AEBDC4" cx="93.95" cy="50.82" r="1.85"/>
			<circle fill="#AEBDC4" cx="93.95" cy="46.5" r="1.85"/>
		</g>
		<g>
			<circle fill="#AEBDC4" cx="117.67" cy="59.46" r="1.85"/>
			<circle fill="#AEBDC4" cx="117.67" cy="55.14" r="1.85"/>
			<circle fill="#AEBDC4" cx="117.67" cy="50.82" r="1.85"/>
			<circle fill="#AEBDC4" cx="117.67" cy="46.5" r="1.85"/>
		</g>
		<g>
			<circle fill="#AEBDC4" cx="123.61" cy="59.46" r="1.85"/>
			<circle fill="#AEBDC4" cx="123.61" cy="55.14" r="1.85"/>
			<circle fill="#AEBDC4" cx="123.61" cy="50.82" r="1.85"/>
			<circle fill="#AEBDC4" cx="123.61" cy="46.5" r="1.85"/>
		</g>
		<g>
			<circle fill="#AEBDC4" cx="99.88" cy="59.46" r="1.85"/>
			<circle fill="#AEBDC4" cx="99.88" cy="55.14" r="1.85"/>
			<circle fill="#AEBDC4" cx="99.88" cy="50.82" r="1.85"/>
			<circle fill="#AEBDC4" cx="99.88" cy="46.5" r="1.85"/>
			<circle fill="#AEBDC4" cx="99.88" cy="42.18" r="1.85"/>
		</g>
		<g>
			<circle fill="#AEBDC4" cx="105.81" cy="59.46" r="1.85"/>
			<circle fill="#AEBDC4" cx="105.81" cy="55.14" r="1.85"/>
			<circle fill="#AEBDC4" cx="105.81" cy="50.82" r="1.85"/>
			<circle fill="#AEBDC4" cx="105.81" cy="46.5" r="1.85"/>
			<circle fill="#AEBDC4" cx="105.81" cy="42.18" r="1.85"/>
		</g>
		<g>
			<circle fill="#AEBDC4" cx="111.74" cy="59.46" r="1.85"/>
			<circle fill="#AEBDC4" cx="111.74" cy="55.14" r="1.85"/>
			<circle fill="#AEBDC4" cx="111.74" cy="50.82" r="1.85"/>
			<circle fill="#AEBDC4" cx="111.74" cy="46.5" r="1.85"/>
			<circle fill="#AEBDC4" cx="111.74" cy="42.18" r="1.85"/>
		</g>
		<g>
			<circle fill="#AEBDC4" cx="129.54" cy="59.46" r="1.85"/>
			<circle fill="#AEBDC4" cx="129.54" cy="55.14" r="1.85"/>
			<circle fill="#AEBDC4" cx="129.54" cy="50.82" r="1.85"/>
			<circle fill="#AEBDC4" cx="129.54" cy="46.5" r="1.85"/>
			<circle fill="#AEBDC4" cx="129.54" cy="42.18" r="1.85"/>
		</g>
		<g>
			<circle fill="#AEBDC4" cx="135.47" cy="59.46" r="1.85"/>
			<circle fill="#AEBDC4" cx="135.47" cy="55.14" r="1.85"/>
			<circle fill="#AEBDC4" cx="135.47" cy="50.82" r="1.85"/>
			<circle fill="#AEBDC4" cx="135.47" cy="46.5" r="1.85"/>
			<circle fill="#AEBDC4" cx="135.47" cy="42.18" r="1.85"/>
		</g>
		<g>
			<circle fill="#AEBDC4" cx="141.4" cy="59.46" r="1.85"/>
			<circle fill="#AEBDC4" cx="141.4" cy="55.14" r="1.85"/>
			<circle fill="#AEBDC4" cx="141.4" cy="50.82" r="1.85"/>
			<circle fill="#AEBDC4" cx="141.4" cy="46.5" r="1.85"/>
			<circle fill="#AEBDC4" cx="141.4" cy="42.18" r="1.85"/>
			<circle fill="#AEBDC4" cx="141.4" cy="37.85" r="1.85"/>
		</g>
		<g>
			<circle fill="#AEBDC4" cx="147.33" cy="59.46" r="1.85"/>
			<circle fill="#AEBDC4" cx="147.33" cy="55.14" r="1.85"/>
			<circle fill="#AEBDC4" cx="147.33" cy="50.82" r="1.85"/>
			<circle fill="#AEBDC4" cx="147.33" cy="46.5" r="1.85"/>
			<circle fill="#AEBDC4" cx="147.33" cy="42.18" r="1.85"/>
			<circle fill="#AEBDC4" cx="147.33" cy="37.85" r="1.85"/>
			<circle fill="#AEBDC4" cx="147.33" cy="33.53" r="1.85"/>
			<circle fill="#AEBDC4" cx="147.33" cy="29.21" r="1.85"/>
		</g>
		<g>
			<circle fill="#AEBDC4" cx="188.84" cy="59.46" r="1.85"/>
			<circle fill="#AEBDC4" cx="188.84" cy="55.14" r="1.85"/>
			<circle fill="#AEBDC4" cx="188.84" cy="50.82" r="1.85"/>
			<circle fill="#AEBDC4" cx="188.84" cy="46.5" r="1.85"/>
			<circle fill="#AEBDC4" cx="188.84" cy="42.18" r="1.85"/>
			<circle fill="#AEBDC4" cx="188.84" cy="37.85" r="1.85"/>
			<circle fill="#AEBDC4" cx="188.84" cy="33.53" r="1.85"/>
			<circle fill="#AEBDC4" cx="188.84" cy="29.21" r="1.85"/>
		</g>
		<g>
			<circle fill="#AEBDC4" cx="159.19" cy="59.46" r="1.85"/>
			<circle fill="#AEBDC4" cx="159.19" cy="55.14" r="1.85"/>
			<circle fill="#AEBDC4" cx="159.19" cy="50.82" r="1.85"/>
			<circle fill="#AEBDC4" cx="159.19" cy="46.5" r="1.85"/>
			<circle fill="#AEBDC4" cx="159.19" cy="42.18" r="1.85"/>
			<circle fill="#AEBDC4" cx="159.19" cy="37.85" r="1.85"/>
			<circle fill="#AEBDC4" cx="159.19" cy="33.53" r="1.85"/>
			<circle fill="#AEBDC4" cx="159.19" cy="29.21" r="1.85"/>
			<circle fill="#AEBDC4" cx="159.19" cy="24.89" r="1.85"/>
		</g>
		<g>
			<circle fill="#AEBDC4" cx="153.26" cy="59.46" r="1.85"/>
			<circle fill="#AEBDC4" cx="153.26" cy="55.14" r="1.85"/>
			<circle fill="#AEBDC4" cx="153.26" cy="50.82" r="1.85"/>
			<circle fill="#AEBDC4" cx="153.26" cy="46.5" r="1.85"/>
			<circle fill="#AEBDC4" cx="153.26" cy="42.18" r="1.85"/>
			<circle fill="#AEBDC4" cx="153.26" cy="37.85" r="1.85"/>
			<circle fill="#AEBDC4" cx="153.26" cy="33.53" r="1.85"/>
			<circle fill="#AEBDC4" cx="153.26" cy="29.21" r="1.85"/>
			<circle fill="#AEBDC4" cx="153.26" cy="24.89" r="1.85"/>
		</g>
		<g>
			<circle fill="#AEBDC4" cx="171.05" cy="59.46" r="1.85"/>
			<circle fill="#AEBDC4" cx="171.05" cy="55.14" r="1.85"/>
			<circle fill="#AEBDC4" cx="171.05" cy="50.82" r="1.85"/>
			<circle fill="#AEBDC4" cx="171.05" cy="46.5" r="1.85"/>
			<circle fill="#AEBDC4" cx="171.05" cy="42.18" r="1.85"/>
			<circle fill="#AEBDC4" cx="171.05" cy="37.85" r="1.85"/>
			<circle fill="#AEBDC4" cx="171.05" cy="33.53" r="1.85"/>
			<circle fill="#AEBDC4" cx="171.05" cy="29.21" r="1.85"/>
			<circle fill="#AEBDC4" cx="171.05" cy="24.89" r="1.85"/>
			<circle fill="#AEBDC4" cx="171.05" cy="20.56" r="1.85"/>
		</g>
		<g>
			<circle fill="#AEBDC4" cx="165.12" cy="59.46" r="1.85"/>
			<circle fill="#AEBDC4" cx="165.12" cy="55.14" r="1.85"/>
			<circle fill="#AEBDC4" cx="165.12" cy="50.82" r="1.85"/>
			<circle fill="#AEBDC4" cx="165.12" cy="46.5" r="1.85"/>
			<circle fill="#AEBDC4" cx="165.12" cy="42.18" r="1.85"/>
			<circle fill="#AEBDC4" cx="165.12" cy="37.85" r="1.85"/>
			<circle fill="#AEBDC4" cx="165.12" cy="33.53" r="1.85"/>
			<circle fill="#AEBDC4" cx="165.12" cy="29.21" r="1.85"/>
			<circle fill="#AEBDC4" cx="165.12" cy="24.89" r="1.85"/>
			<circle fill="#AEBDC4" cx="165.12" cy="20.56" r="1.85"/>
		</g>
		<g>
			<circle fill="#AEBDC4" cx="182.91" cy="59.46" r="1.85"/>
			<circle fill="#AEBDC4" cx="182.91" cy="55.14" r="1.85"/>
			<circle fill="#AEBDC4" cx="182.91" cy="50.82" r="1.85"/>
			<circle fill="#AEBDC4" cx="182.91" cy="46.5" r="1.85"/>
			<circle fill="#AEBDC4" cx="182.91" cy="42.18" r="1.85"/>
			<circle fill="#AEBDC4" cx="182.91" cy="37.85" r="1.85"/>
			<circle fill="#AEBDC4" cx="182.91" cy="33.53" r="1.85"/>
			<circle fill="#AEBDC4" cx="182.91" cy="29.21" r="1.85"/>
			<circle fill="#AEBDC4" cx="182.91" cy="24.89" r="1.85"/>
			<circle fill="#AEBDC4" cx="182.91" cy="20.56" r="1.85"/>
			<circle fill="#AEBDC4" cx="182.91" cy="16.23" r="1.85"/>
		</g>
		<g>
			<circle fill="#AEBDC4" cx="176.98" cy="59.46" r="1.85"/>
			<circle fill="#AEBDC4" cx="176.98" cy="55.14" r="1.85"/>
			<circle fill="#AEBDC4" cx="176.98" cy="50.82" r="1.85"/>
			<circle fill="#AEBDC4" cx="176.98" cy="46.5" r="1.85"/>
			<circle fill="#AEBDC4" cx="176.98" cy="42.18" r="1.85"/>
			<circle fill="#AEBDC4" cx="176.98" cy="37.85" r="1.85"/>
			<circle fill="#AEBDC4" cx="176.98" cy="33.53" r="1.85"/>
			<circle fill="#AEBDC4" cx="176.98" cy="29.21" r="1.85"/>
			<circle fill="#AEBDC4" cx="176.98" cy="24.89" r="1.85"/>
			<circle fill="#AEBDC4" cx="176.98" cy="20.56" r="1.85"/>
			<circle fill="#AEBDC4" cx="176.98" cy="16.23" r="1.85"/>
		</g>
	</g>
	<g onclick="this.parentNode.a_text=this;">
		<text transform="matrix(0 -1.0001 1 0 131.128 51.4728)" font-family="'OpenSans-Semibold'" font-size="6.3992px">N 7</text>
	</g>
</g>
</svg>
