<?xml version="1.0" encoding="utf-8"?>
<!-- Generator: Adobe Illustrator 23.0.1, SVG Export Plug-In . SVG Version: 6.00 Build 0)  -->
<svg version="1.1" id="Layer_1" xmlns="http://www.w3.org/2000/svg" xmlns:xlink="http://www.w3.org/1999/xlink" x="0px" y="0px"
  viewBox="0 0 216 66" enable-background="new 0 0 216 66" xml:space="preserve">
  <polygon fill="#F1F3F4" stroke="#BCC8CE" stroke-width="0.4" stroke-linecap="round" stroke-miterlimit="10" points="
    192.05,0.51 1.69,65.55 215.23,65.55 	"/>
    <g 
      data-sort-seat-direction="ltr" 
      data-sort-line-direction="ttb" 
      data-sort-seat-option="cy" 
      data-sort-line-option="cx" 
      data-line-start="9"
      >
      <g>
        <circle fill="#AEBDC4" cx="188.84" cy="59.46" r="1.85"/>
        <circle fill="#AEBDC4" cx="188.84" cy="55.14" r="1.85"/>
        <circle fill="#AEBDC4" cx="188.84" cy="50.82" r="1.85"/>
        <circle fill="#AEBDC4" cx="188.84" cy="46.5" r="1.85"/>
        <circle fill="#AEBDC4" cx="188.84" cy="42.18" r="1.85"/>
        <circle fill="#AEBDC4" cx="188.84" cy="37.85" r="1.85"/>
        <circle fill="#AEBDC4" cx="188.84" cy="33.53" r="1.85"/>
        <circle fill="#AEBDC4" cx="188.84" cy="29.21" r="1.85"/>
      </g>
      <g>
        <circle fill="#AEBDC4" cx="182.91" cy="59.46" r="1.85"/>
        <circle fill="#AEBDC4" cx="182.91" cy="55.14" r="1.85"/>
        <circle fill="#AEBDC4" cx="182.91" cy="50.82" r="1.85"/>
        <circle fill="#AEBDC4" cx="182.91" cy="46.5" r="1.85"/>
        <circle fill="#AEBDC4" cx="182.91" cy="42.18" r="1.85"/>
        <circle fill="#AEBDC4" cx="182.91" cy="37.85" r="1.85"/>
        <circle fill="#AEBDC4" cx="182.91" cy="33.53" r="1.85"/>
        <circle fill="#AEBDC4" cx="182.91" cy="29.21" r="1.85"/>
        <circle fill="#AEBDC4" cx="182.91" cy="24.89" r="1.85"/>
        <circle fill="#AEBDC4" cx="182.91" cy="20.56" r="1.85"/>
        <circle fill="#AEBDC4" cx="182.91" cy="16.23" r="1.85"/>
      </g>
      <g>
        <circle fill="#AEBDC4" cx="176.98" cy="59.46" r="1.85"/>
        <circle fill="#AEBDC4" cx="176.98" cy="55.14" r="1.85"/>
        <circle fill="#AEBDC4" cx="176.98" cy="50.82" r="1.85"/>
        <circle fill="#AEBDC4" cx="176.98" cy="46.5" r="1.85"/>
        <circle fill="#AEBDC4" cx="176.98" cy="42.18" r="1.85"/>
        <circle fill="#AEBDC4" cx="176.98" cy="37.85" r="1.85"/>
        <circle fill="#AEBDC4" cx="176.98" cy="33.53" r="1.85"/>
        <circle fill="#AEBDC4" cx="176.98" cy="29.21" r="1.85"/>
        <circle fill="#AEBDC4" cx="176.98" cy="24.89" r="1.85"/>
        <circle fill="#AEBDC4" cx="176.98" cy="20.56" r="1.85"/>
        <circle fill="#AEBDC4" cx="176.98" cy="16.23" r="1.85"/>
      </g>
      <g>
        <circle fill="#AEBDC4" cx="171.05" cy="59.46" r="1.85"/>
        <circle fill="#AEBDC4" cx="171.05" cy="55.14" r="1.85"/>
        <circle fill="#AEBDC4" cx="171.05" cy="50.82" r="1.85"/>
        <circle fill="#AEBDC4" cx="171.05" cy="46.5" r="1.85"/>
        <circle fill="#AEBDC4" cx="171.05" cy="42.18" r="1.85"/>
        <circle fill="#AEBDC4" cx="171.05" cy="37.85" r="1.85"/>
        <circle fill="#AEBDC4" cx="171.05" cy="33.53" r="1.85"/>
        <circle fill="#AEBDC4" cx="171.05" cy="29.21" r="1.85"/>
        <circle fill="#AEBDC4" cx="171.05" cy="24.89" r="1.85"/>
        <circle fill="#AEBDC4" cx="171.05" cy="20.56" r="1.85"/>
      </g>
      <g>
        <circle fill="#AEBDC4" cx="165.12" cy="59.46" r="1.85"/>
        <circle fill="#AEBDC4" cx="165.12" cy="55.14" r="1.85"/>
        <circle fill="#AEBDC4" cx="165.12" cy="50.82" r="1.85"/>
        <circle fill="#AEBDC4" cx="165.12" cy="46.5" r="1.85"/>
        <circle fill="#AEBDC4" cx="165.12" cy="42.18" r="1.85"/>
        <circle fill="#AEBDC4" cx="165.12" cy="37.85" r="1.85"/>
        <circle fill="#AEBDC4" cx="165.12" cy="33.53" r="1.85"/>
        <circle fill="#AEBDC4" cx="165.12" cy="29.21" r="1.85"/>
        <circle fill="#AEBDC4" cx="165.12" cy="24.89" r="1.85"/>
        <circle fill="#AEBDC4" cx="165.12" cy="20.56" r="1.85"/>
      </g>
      <g>
        <circle fill="#AEBDC4" cx="159.19" cy="59.46" r="1.85"/>
        <circle fill="#AEBDC4" cx="159.19" cy="55.14" r="1.85"/>
        <circle fill="#AEBDC4" cx="159.19" cy="50.82" r="1.85"/>
        <circle fill="#AEBDC4" cx="159.19" cy="46.5" r="1.85"/>
        <circle fill="#AEBDC4" cx="159.19" cy="42.18" r="1.85"/>
        <circle fill="#AEBDC4" cx="159.19" cy="37.85" r="1.85"/>
        <circle fill="#AEBDC4" cx="159.19" cy="33.53" r="1.85"/>
        <circle fill="#AEBDC4" cx="159.19" cy="29.21" r="1.85"/>
        <circle fill="#AEBDC4" cx="159.19" cy="24.89" r="1.85"/>
      </g>
      <g>
        <circle fill="#AEBDC4" cx="153.26" cy="59.46" r="1.85"/>
        <circle fill="#AEBDC4" cx="153.26" cy="55.14" r="1.85"/>
        <circle fill="#AEBDC4" cx="153.26" cy="50.82" r="1.85"/>
        <circle fill="#AEBDC4" cx="153.26" cy="46.5" r="1.85"/>
        <circle fill="#AEBDC4" cx="153.26" cy="42.18" r="1.85"/>
        <circle fill="#AEBDC4" cx="153.26" cy="37.85" r="1.85"/>
        <circle fill="#AEBDC4" cx="153.26" cy="33.53" r="1.85"/>
        <circle fill="#AEBDC4" cx="153.26" cy="29.21" r="1.85"/>
        <circle fill="#AEBDC4" cx="153.26" cy="24.89" r="1.85"/>
      </g>
      <g>
        <circle fill="#AEBDC4" cx="147.33" cy="59.46" r="1.85"/>
        <circle fill="#AEBDC4" cx="147.33" cy="55.14" r="1.85"/>
        <circle fill="#AEBDC4" cx="147.33" cy="50.82" r="1.85"/>
        <circle fill="#AEBDC4" cx="147.33" cy="46.5" r="1.85"/>
        <circle fill="#AEBDC4" cx="147.33" cy="42.18" r="1.85"/>
        <circle fill="#AEBDC4" cx="147.33" cy="37.85" r="1.85"/>
        <circle fill="#AEBDC4" cx="147.33" cy="33.53" r="1.85"/>
        <circle fill="#AEBDC4" cx="147.33" cy="29.21" r="1.85"/>
      </g>
      <g>
        <circle fill="#AEBDC4" cx="141.4" cy="59.46" r="1.85"/>
        <circle fill="#AEBDC4" cx="141.4" cy="55.14" r="1.85"/>
        <circle fill="#AEBDC4" cx="141.4" cy="50.82" r="1.85"/>
        <circle fill="#AEBDC4" cx="141.4" cy="46.5" r="1.85"/>
        <circle fill="#AEBDC4" cx="141.4" cy="42.18" r="1.85"/>
        <circle fill="#AEBDC4" cx="141.4" cy="37.85" r="1.85"/>
      </g>
      <g>
        <circle fill="#AEBDC4" cx="135.47" cy="59.46" r="1.85"/>
        <circle fill="#AEBDC4" cx="135.47" cy="55.14" r="1.85"/>
        <circle fill="#AEBDC4" cx="135.47" cy="50.82" r="1.85"/>
        <circle fill="#AEBDC4" cx="135.47" cy="46.5" r="1.85"/>
        <circle fill="#AEBDC4" cx="135.47" cy="42.18" r="1.85"/>
      </g>
      <g>
        <circle fill="#AEBDC4" cx="129.54" cy="59.46" r="1.85"/>
        <circle fill="#AEBDC4" cx="129.54" cy="55.14" r="1.85"/>
        <circle fill="#AEBDC4" cx="129.54" cy="50.82" r="1.85"/>
        <circle fill="#AEBDC4" cx="129.54" cy="46.5" r="1.85"/>
        <circle fill="#AEBDC4" cx="129.54" cy="42.18" r="1.85"/>
      </g>
      <g>
        <circle fill="#AEBDC4" cx="123.61" cy="59.46" r="1.85"/>
        <circle fill="#AEBDC4" cx="123.61" cy="55.14" r="1.85"/>
        <circle fill="#AEBDC4" cx="123.61" cy="50.82" r="1.85"/>
        <circle fill="#AEBDC4" cx="123.61" cy="46.5" r="1.85"/>
      </g>
      <g>
        <circle fill="#AEBDC4" cx="117.67" cy="59.46" r="1.85"/>
        <circle fill="#AEBDC4" cx="117.67" cy="55.14" r="1.85"/>
        <circle fill="#AEBDC4" cx="117.67" cy="50.82" r="1.85"/>
        <circle fill="#AEBDC4" cx="117.67" cy="46.5" r="1.85"/>
      </g>
      <g>
        <circle fill="#AEBDC4" cx="111.74" cy="59.46" r="1.85"/>
        <circle fill="#AEBDC4" cx="111.74" cy="55.14" r="1.85"/>
        <circle fill="#AEBDC4" cx="111.74" cy="50.82" r="1.85"/>
        <circle fill="#AEBDC4" cx="111.74" cy="46.5" r="1.85"/>
        <circle fill="#AEBDC4" cx="111.74" cy="42.18" r="1.85"/>
      </g>
      <g>
        <circle fill="#AEBDC4" cx="105.81" cy="59.46" r="1.85"/>
        <circle fill="#AEBDC4" cx="105.81" cy="55.14" r="1.85"/>
        <circle fill="#AEBDC4" cx="105.81" cy="50.82" r="1.85"/>
        <circle fill="#AEBDC4" cx="105.81" cy="46.5" r="1.85"/>
        <circle fill="#AEBDC4" cx="105.81" cy="42.18" r="1.85"/>
      </g>
      <g>
        <circle fill="#AEBDC4" cx="99.88" cy="59.46" r="1.85"/>
        <circle fill="#AEBDC4" cx="99.88" cy="55.14" r="1.85"/>
        <circle fill="#AEBDC4" cx="99.88" cy="50.82" r="1.85"/>
        <circle fill="#AEBDC4" cx="99.88" cy="46.5" r="1.85"/>
        <circle fill="#AEBDC4" cx="99.88" cy="42.18" r="1.85"/>
      </g>
      <g>
        <circle fill="#AEBDC4" cx="93.95" cy="59.46" r="1.85"/>
        <circle fill="#AEBDC4" cx="93.95" cy="55.14" r="1.85"/>
        <circle fill="#AEBDC4" cx="93.95" cy="50.82" r="1.85"/>
        <circle fill="#AEBDC4" cx="93.95" cy="46.5" r="1.85"/>
      </g>
      <g>
        <circle fill="#AEBDC4" cx="88.02" cy="59.46" r="1.85"/>
        <circle fill="#AEBDC4" cx="88.02" cy="55.14" r="1.85"/>
        <circle fill="#AEBDC4" cx="88.02" cy="50.82" r="1.85"/>
        <circle fill="#AEBDC4" cx="88.02" cy="46.5" r="1.85"/>
      </g>
      <g>
        <circle fill="#AEBDC4" cx="82.09" cy="59.46" r="1.85"/>
        <circle fill="#AEBDC4" cx="82.09" cy="55.14" r="1.85"/>
        <circle fill="#AEBDC4" cx="82.09" cy="50.82" r="1.85"/>
        <circle fill="#AEBDC4" cx="82.09" cy="46.5" r="1.85"/>
      </g>
      <g>
        <circle fill="#AEBDC4" cx="76.16" cy="59.46" r="1.85"/>
        <circle fill="#AEBDC4" cx="76.16" cy="55.14" r="1.85"/>
        <circle fill="#AEBDC4" cx="76.16" cy="50.82" r="1.85"/>
        <circle fill="#AEBDC4" cx="76.16" cy="46.5" r="1.85"/>
      </g>
      <g>
        <circle fill="#AEBDC4" cx="70.23" cy="59.46" r="1.85"/>
        <circle fill="#AEBDC4" cx="70.23" cy="55.14" r="1.85"/>
      </g>
      <g>
        <circle fill="#AEBDC4" cx="64.3" cy="59.46" r="1.85"/>
        <circle fill="#AEBDC4" cx="64.3" cy="55.14" r="1.85"/>
      </g>
      <g>
        <circle fill="#AEBDC4" cx="58.37" cy="59.46" r="1.85"/>
        <circle fill="#AEBDC4" cx="58.37" cy="55.14" r="1.85"/>
      </g>
    </g>
  </svg>
