<svg xmlns="http://www.w3.org/2000/svg" viewBox="0 0 130 172">
    <path fill="#F1F3F4" stroke="#BCC8CE" stroke-width=".4" stroke-linecap="round" stroke-miterlimit="10" d="M192.05.51L1.69 65.55h213.54L192.05.51z"/>
    <g fill="#AEBDC4">
        <circle cx="58.37" cy="59.46" r="1.85"/>
        <circle cx="58.37" cy="55.14" r="1.85"/>
        <circle cx="64.3" cy="59.46" r="1.85"/>
        <circle cx="64.3" cy="55.14" r="1.85"/>
        <circle cx="70.23" cy="59.46" r="1.85"/>
        <circle cx="70.23" cy="55.14" r="1.85"/>
        <circle cx="76.16" cy="59.46" r="1.85"/>
        <circle cx="76.16" cy="55.14" r="1.85"/>
        <circle cx="76.16" cy="50.82" r="1.85"/>
        <circle cx="76.16" cy="46.5" r="1.85"/>
        <circle cx="82.09" cy="59.46" r="1.85"/>
        <circle cx="82.09" cy="55.14" r="1.85"/>
        <circle cx="82.09" cy="50.82" r="1.85"/>
        <circle cx="82.09" cy="46.5" r="1.85"/>
        <circle cx="88.02" cy="59.46" r="1.85"/>
        <circle cx="88.02" cy="55.14" r="1.85"/>
        <circle cx="88.02" cy="50.82" r="1.85"/>
        <circle cx="88.02" cy="46.5" r="1.85"/>
        <circle cx="93.95" cy="59.46" r="1.85"/>
        <circle cx="93.95" cy="55.14" r="1.85"/>
        <circle cx="93.95" cy="50.82" r="1.85"/>
        <circle cx="93.95" cy="46.5" r="1.85"/>
        <circle cx="117.67" cy="59.46" r="1.85"/>
        <circle cx="117.67" cy="55.14" r="1.85"/>
        <circle cx="117.67" cy="50.82" r="1.85"/>
        <circle cx="117.67" cy="46.5" r="1.85"/>
        <circle cx="123.61" cy="59.46" r="1.85"/>
        <circle cx="123.61" cy="55.14" r="1.85"/>
        <circle cx="123.61" cy="50.82" r="1.85"/>
        <circle cx="123.61" cy="46.5" r="1.85"/>
        <circle cx="99.88" cy="59.46" r="1.85"/>
        <circle cx="99.88" cy="55.14" r="1.85"/>
        <circle cx="99.88" cy="50.82" r="1.85"/>
        <circle cx="99.88" cy="46.5" r="1.85"/>
        <circle cx="99.88" cy="42.18" r="1.85"/>
        <circle cx="105.81" cy="59.46" r="1.85"/>
        <circle cx="105.81" cy="55.14" r="1.85"/>
        <circle cx="105.81" cy="50.82" r="1.85"/>
        <circle cx="105.81" cy="46.5" r="1.85"/>
        <circle cx="105.81" cy="42.18" r="1.85"/>
        <circle cx="111.74" cy="59.46" r="1.85"/>
        <circle cx="111.74" cy="55.14" r="1.85"/>
        <circle cx="111.74" cy="50.82" r="1.85"/>
        <circle cx="111.74" cy="46.5" r="1.85"/>
        <circle cx="111.74" cy="42.18" r="1.85"/>
        <circle cx="129.54" cy="59.46" r="1.85"/>
        <circle cx="129.54" cy="55.14" r="1.85"/>
        <circle cx="129.54" cy="50.82" r="1.85"/>
        <circle cx="129.54" cy="46.5" r="1.85"/>
        <circle cx="129.54" cy="42.18" r="1.85"/>
        <circle cx="135.47" cy="59.46" r="1.85"/>
        <circle cx="135.47" cy="55.14" r="1.85"/>
        <circle cx="135.47" cy="50.82" r="1.85"/>
        <circle cx="135.47" cy="46.5" r="1.85"/>
        <circle cx="135.47" cy="42.18" r="1.85"/>
        <circle cx="141.4" cy="59.46" r="1.85"/>
        <circle cx="141.4" cy="55.14" r="1.85"/>
        <circle cx="141.4" cy="50.82" r="1.85"/>
        <circle cx="141.4" cy="46.5" r="1.85"/>
        <circle cx="141.4" cy="42.18" r="1.85"/>
        <circle cx="141.4" cy="37.85" r="1.85"/>
        <g>
            <circle cx="147.33" cy="59.46" r="1.85"/>
            <circle cx="147.33" cy="55.14" r="1.85"/>
            <circle cx="147.33" cy="50.82" r="1.85"/>
            <circle cx="147.33" cy="46.5" r="1.85"/>
            <circle cx="147.33" cy="42.18" r="1.85"/>
            <circle cx="147.33" cy="37.85" r="1.85"/>
            <circle cx="147.33" cy="33.53" r="1.85"/>
            <circle cx="147.33" cy="29.21" r="1.85"/>
        </g>
        <g>
            <circle cx="188.84" cy="59.46" r="1.85"/>
            <circle cx="188.84" cy="55.14" r="1.85"/>
            <circle cx="188.84" cy="50.82" r="1.85"/>
            <circle cx="188.84" cy="46.5" r="1.85"/>
            <circle cx="188.84" cy="42.18" r="1.85"/>
            <circle cx="188.84" cy="37.85" r="1.85"/>
            <circle cx="188.84" cy="33.53" r="1.85"/>
            <circle cx="188.84" cy="29.21" r="1.85"/>
        </g>
        <g>
            <circle cx="159.19" cy="59.46" r="1.85"/>
            <circle cx="159.19" cy="55.14" r="1.85"/>
            <circle cx="159.19" cy="50.82" r="1.85"/>
            <circle cx="159.19" cy="46.5" r="1.85"/>
            <circle cx="159.19" cy="42.18" r="1.85"/>
            <circle cx="159.19" cy="37.85" r="1.85"/>
            <circle cx="159.19" cy="33.53" r="1.85"/>
            <circle cx="159.19" cy="29.21" r="1.85"/>
            <circle cx="159.19" cy="24.89" r="1.85"/>
        </g>
        <g>
            <circle cx="153.26" cy="59.46" r="1.85"/>
            <circle cx="153.26" cy="55.14" r="1.85"/>
            <circle cx="153.26" cy="50.82" r="1.85"/>
            <circle cx="153.26" cy="46.5" r="1.85"/>
            <circle cx="153.26" cy="42.18" r="1.85"/>
            <circle cx="153.26" cy="37.85" r="1.85"/>
            <circle cx="153.26" cy="33.53" r="1.85"/>
            <circle cx="153.26" cy="29.21" r="1.85"/>
            <circle cx="153.26" cy="24.89" r="1.85"/>
        </g>
        <g>
            <circle cx="171.05" cy="59.46" r="1.85"/>
            <circle cx="171.05" cy="55.14" r="1.85"/>
            <circle cx="171.05" cy="50.82" r="1.85"/>
            <circle cx="171.05" cy="46.5" r="1.85"/>
            <circle cx="171.05" cy="42.18" r="1.85"/>
            <circle cx="171.05" cy="37.85" r="1.85"/>
            <circle cx="171.05" cy="33.53" r="1.85"/>
            <circle cx="171.05" cy="29.21" r="1.85"/>
            <circle cx="171.05" cy="24.89" r="1.85"/>
            <circle cx="171.05" cy="20.56" r="1.85"/>
        </g>
        <g>
            <circle cx="165.12" cy="59.46" r="1.85"/>
            <circle cx="165.12" cy="55.14" r="1.85"/>
            <circle cx="165.12" cy="50.82" r="1.85"/>
            <circle cx="165.12" cy="46.5" r="1.85"/>
            <circle cx="165.12" cy="42.18" r="1.85"/>
            <circle cx="165.12" cy="37.85" r="1.85"/>
            <circle cx="165.12" cy="33.53" r="1.85"/>
            <circle cx="165.12" cy="29.21" r="1.85"/>
            <circle cx="165.12" cy="24.89" r="1.85"/>
            <circle cx="165.12" cy="20.56" r="1.85"/>
        </g>
        <g>
            <circle cx="182.91" cy="59.46" r="1.85"/>
            <circle cx="182.91" cy="55.14" r="1.85"/>
            <circle cx="182.91" cy="50.82" r="1.85"/>
            <circle cx="182.91" cy="46.5" r="1.85"/>
            <circle cx="182.91" cy="42.18" r="1.85"/>
            <circle cx="182.91" cy="37.85" r="1.85"/>
            <circle cx="182.91" cy="33.53" r="1.85"/>
            <circle cx="182.91" cy="29.21" r="1.85"/>
            <circle cx="182.91" cy="24.89" r="1.85"/>
            <circle cx="182.91" cy="20.56" r="1.85"/>
            <circle cx="182.91" cy="16.23" r="1.85"/>
        </g>
        <g>
            <circle cx="176.98" cy="59.46" r="1.85"/>
            <circle cx="176.98" cy="55.14" r="1.85"/>
            <circle cx="176.98" cy="50.82" r="1.85"/>
            <circle cx="176.98" cy="46.5" r="1.85"/>
            <circle cx="176.98" cy="42.18" r="1.85"/>
            <circle cx="176.98" cy="37.85" r="1.85"/>
            <circle cx="176.98" cy="33.53" r="1.85"/>
            <circle cx="176.98" cy="29.21" r="1.85"/>
            <circle cx="176.98" cy="24.89" r="1.85"/>
            <circle cx="176.98" cy="20.56" r="1.85"/>
            <circle cx="176.98" cy="16.23" r="1.85"/>
        </g>
    </g>
</svg>
