<?xml version="1.0" encoding="utf-8"?>
<!-- Generator: Adobe Illustrator 23.0.1, SVG Export Plug-In . SVG Version: 6.00 Build 0)  -->
<svg version="1.1" id="Layer_1" xmlns="http://www.w3.org/2000/svg" xmlns:xlink="http://www.w3.org/1999/xlink" x="0px" y="0px"
	 width="157px" height="157px" viewBox="0 0 157 157" enable-background="new 0 0 157 157" xml:space="preserve">
<g onclick="this.parentNode.sekt.push(this);this.a_name=&quot;NE (низ)&quot;;">
	
		<polygon onclick="this.parentNode.a_fon=this;" fill="#F1F3F4" stroke="#BCC8CE" stroke-width="0.4" stroke-linecap="round" stroke-miterlimit="10" points="
		156.4,39.02 65.8,0.49 0.48,65.81 39.03,156.4 	"/>
	<g onclick="this.parentNode.a_row=this;">
		<g onclick="this.a_par={beg_namb:22,quant:10};">
			<line fill="none" stroke="#D3DBDF" stroke-width="0.4" stroke-miterlimit="10" x1="114.14" y1="68.63" x2="144.26" y2="38.51"/>
		</g>
		<g onclick="this.a_par={beg_namb:1,quant:9};">
			<line fill="none" stroke="#D3DBDF" stroke-width="0.4" stroke-miterlimit="10" x1="38.53" y1="144.25" x2="65.59" y2="117.19"/>
		</g>
		<g onclick="this.a_par={beg_namb:10,quant:12};">
			<line fill="none" stroke="#D3DBDF" stroke-width="0.4" stroke-miterlimit="10" x1="71.91" y1="110.87" x2="108.15" y2="74.63"/>
		</g>
		<g onclick="this.a_par={beg_namb:21,quant:8};">
			<line fill="none" stroke="#D3DBDF" stroke-width="0.4" stroke-miterlimit="10" x1="109.95" y1="64.44" x2="133.95" y2="40.43"/>
		</g>
		<g onclick="this.a_par={beg_namb:1,quant:8};">
			<line fill="none" stroke="#D3DBDF" stroke-width="0.4" stroke-miterlimit="10" x1="39.07" y1="135.32" x2="63.08" y2="111.31"/>
		</g>
		<g onclick="this.a_par={beg_namb:9,quant:12};">
			<line fill="none" stroke="#D3DBDF" stroke-width="0.4" stroke-miterlimit="10" x1="67.71" y1="106.68" x2="103.95" y2="70.43"/>
		</g>
		<g onclick="this.a_par={beg_namb:20,quant:7};">
			<line fill="none" stroke="#D3DBDF" stroke-width="0.4" stroke-miterlimit="10" x1="105.76" y1="60.24" x2="126.7" y2="39.3"/>
		</g>
		<g onclick="this.a_par={beg_namb:1,quant:7};">
			<line fill="none" stroke="#D3DBDF" stroke-width="0.4" stroke-miterlimit="10" x1="37.94" y1="128.07" x2="58.88" y2="107.12"/>
		</g>
		<g onclick="this.a_par={beg_namb:8,quant:12};">
			<line fill="none" stroke="#D3DBDF" stroke-width="0.4" stroke-miterlimit="10" x1="63.52" y1="102.48" x2="99.76" y2="66.24"/>
		</g>
		<g onclick="this.a_par={beg_namb:8,quant:7};">
			<line fill="none" stroke="#D3DBDF" stroke-width="0.4" stroke-miterlimit="10" x1="101.56" y1="56.05" x2="122.51" y2="35.1"/>
		</g>
		<g onclick="this.a_par={beg_namb:1,quant:7};">
			<line fill="none" stroke="#D3DBDF" stroke-width="0.4" stroke-miterlimit="10" x1="33.74" y1="123.87" x2="54.69" y2="102.93"/>
		</g>
		<g onclick="this.a_par={beg_namb:7,quant:6};">
			<line fill="none" stroke="#D3DBDF" stroke-width="0.4" stroke-miterlimit="10" x1="97.37" y1="51.86" x2="115.26" y2="33.97"/>
		</g>
		<g onclick="this.a_par={beg_namb:7,quant:6};">
			<line fill="none" stroke="#D3DBDF" stroke-width="0.4" stroke-miterlimit="10" x1="93.18" y1="47.66" x2="111.07" y2="29.77"/>
		</g>
		<g onclick="this.a_par={beg_namb:1,quant:6};">
			<line fill="none" stroke="#D3DBDF" stroke-width="0.4" stroke-miterlimit="10" x1="32.61" y1="116.62" x2="50.49" y2="98.73"/>
		</g>
		<g onclick="this.a_par={beg_namb:1,quant:6};">
			<line fill="none" stroke="#D3DBDF" stroke-width="0.4" stroke-miterlimit="10" x1="28.41" y1="112.43" x2="46.3" y2="94.54"/>
		</g>
		<g onclick="this.a_par={beg_namb:6,quant:5};">
			<line fill="none" stroke="#D3DBDF" stroke-width="0.4" stroke-miterlimit="10" x1="88.98" y1="43.47" x2="103.82" y2="28.63"/>
		</g>
		<g onclick="this.a_par={beg_namb:1,quant:5};">
			<line fill="none" stroke="#D3DBDF" stroke-width="0.4" stroke-miterlimit="10" x1="27.25" y1="105.21" x2="42.11" y2="90.35"/>
		</g>
		<g onclick="this.a_par={beg_namb:5,quant:4};">
			<line fill="none" stroke="#D3DBDF" stroke-width="0.4" stroke-miterlimit="10" x1="84.79" y1="39.27" x2="96.57" y2="27.5"/>
		</g>
		<g onclick="this.a_par={beg_namb:5,quant:4};">
			<line fill="none" stroke="#D3DBDF" stroke-width="0.4" stroke-miterlimit="10" x1="80.6" y1="35.08" x2="92.37" y2="23.3"/>
		</g>
		<g onclick="this.a_par={beg_namb:4,quant:3};">
			<line fill="none" stroke="#D3DBDF" stroke-width="0.4" stroke-miterlimit="10" x1="76.4" y1="30.89" x2="85.13" y2="22.16"/>
		</g>
		<g onclick="this.a_par={beg_namb:3,quant:2};">
			<line fill="none" stroke="#D3DBDF" stroke-width="0.4" stroke-miterlimit="10" x1="72.21" y1="26.69" x2="77.88" y2="21.03"/>
		</g>
		<g onclick="this.a_par={beg_namb:3,quant:2};">
			<line fill="none" stroke="#D3DBDF" stroke-width="0.4" stroke-miterlimit="10" x1="68.02" y1="22.5" x2="73.68" y2="16.83"/>
		</g>
		<g onclick="this.a_par={beg_namb:3,quant:2};">
			<line fill="none" stroke="#D3DBDF" stroke-width="0.4" stroke-miterlimit="10" x1="63.82" y1="18.31" x2="69.49" y2="12.64"/>
		</g>
		<g onclick="this.a_par={beg_namb:1,quant:4};">
			<line fill="none" stroke="#D3DBDF" stroke-width="0.4" stroke-miterlimit="10" x1="26.14" y1="97.93" x2="37.91" y2="86.15"/>
		</g>
		<g onclick="this.a_par={beg_namb:1,quant:4};">
			<line fill="none" stroke="#D3DBDF" stroke-width="0.4" stroke-miterlimit="10" x1="21.94" y1="93.74" x2="33.72" y2="81.96"/>
		</g>
		<g onclick="this.a_par={beg_namb:1,quant:3};">
			<line fill="none" stroke="#D3DBDF" stroke-width="0.4" stroke-miterlimit="10" x1="20.8" y1="86.49" x2="29.53" y2="77.77"/>
		</g>
		<g onclick="this.a_par={beg_namb:1,quant:2};">
			<line fill="none" stroke="#D3DBDF" stroke-width="0.4" stroke-miterlimit="10" x1="19.67" y1="79.24" x2="25.33" y2="73.57"/>
		</g>
		<g onclick="this.a_par={beg_namb:1,quant:2};">
			<line fill="none" stroke="#D3DBDF" stroke-width="0.4" stroke-miterlimit="10" x1="15.47" y1="75.04" x2="21.14" y2="69.38"/>
		</g>
		<g onclick="this.a_par={beg_namb:1,quant:2};">
			<line fill="none" stroke="#D3DBDF" stroke-width="0.4" stroke-miterlimit="10" x1="11.28" y1="70.85" x2="16.95" y2="65.18"/>
		</g>
	</g>
	<g>
		<g>
			<circle fill="#AEBDC4" cx="15.64" cy="66.49" r="1.85"/>
			<circle fill="#AEBDC4" cx="12.59" cy="69.55" r="1.85"/>
		</g>
		<g>
			<circle fill="#AEBDC4" cx="19.83" cy="70.68" r="1.85"/>
			<circle fill="#AEBDC4" cx="16.78" cy="73.74" r="1.85"/>
		</g>
		<g>
			<circle fill="#AEBDC4" cx="24.03" cy="74.88" r="1.85"/>
			<circle fill="#AEBDC4" cx="20.97" cy="77.93" r="1.85"/>
		</g>
		<g>
			<circle fill="#AEBDC4" cx="68.18" cy="13.94" r="1.85"/>
			<circle fill="#AEBDC4" cx="65.13" cy="17" r="1.85"/>
		</g>
		<g>
			<circle fill="#AEBDC4" cx="72.38" cy="18.14" r="1.85"/>
			<circle fill="#AEBDC4" cx="69.32" cy="21.19" r="1.85"/>
		</g>
		<g>
			<circle fill="#AEBDC4" cx="76.57" cy="22.33" r="1.85"/>
			<circle fill="#AEBDC4" cx="73.52" cy="25.39" r="1.85"/>
		</g>
		<g>
			<circle fill="#AEBDC4" cx="28.22" cy="79.07" r="1.85"/>
			<circle fill="#AEBDC4" cx="25.17" cy="82.13" r="1.85"/>
			<circle fill="#AEBDC4" cx="22.11" cy="85.18" r="1.85"/>
		</g>
		<g>
			<circle fill="#AEBDC4" cx="83.82" cy="23.47" r="1.85"/>
			<circle fill="#AEBDC4" cx="80.76" cy="26.53" r="1.85"/>
			<circle fill="#AEBDC4" cx="77.71" cy="29.58" r="1.85"/>
		</g>
		<g>
			<circle fill="#AEBDC4" cx="91.07" cy="24.61" r="1.85"/>
			<circle fill="#AEBDC4" cx="88.01" cy="27.66" r="1.85"/>
			<circle fill="#AEBDC4" cx="84.96" cy="30.72" r="1.85"/>
			<circle fill="#AEBDC4" cx="81.9" cy="33.77" r="1.85"/>
		</g>
		<g>
			<circle fill="#AEBDC4" cx="95.26" cy="28.8" r="1.85"/>
			<circle fill="#AEBDC4" cx="92.21" cy="31.86" r="1.85"/>
			<circle fill="#AEBDC4" cx="89.15" cy="34.91" r="1.85"/>
			<circle fill="#AEBDC4" cx="86.1" cy="37.97" r="1.85"/>
		</g>
		<g>
			<circle fill="#AEBDC4" cx="32.41" cy="83.26" r="1.85"/>
			<circle fill="#AEBDC4" cx="29.36" cy="86.32" r="1.85"/>
			<circle fill="#AEBDC4" cx="26.3" cy="89.38" r="1.85"/>
			<circle fill="#AEBDC4" cx="23.25" cy="92.43" r="1.85"/>
		</g>
		<g>
			<circle fill="#AEBDC4" cx="36.61" cy="87.46" r="1.85"/>
			<circle fill="#AEBDC4" cx="33.55" cy="90.51" r="1.85"/>
			<circle fill="#AEBDC4" cx="30.5" cy="93.57" r="1.85"/>
			<circle fill="#AEBDC4" cx="27.44" cy="96.63" r="1.85"/>
		</g>
		<g>
			<circle fill="#AEBDC4" cx="102.51" cy="29.94" r="1.85"/>
			<circle fill="#AEBDC4" cx="99.46" cy="33" r="1.85"/>
			<circle fill="#AEBDC4" cx="96.4" cy="36.05" r="1.85"/>
			<circle fill="#AEBDC4" cx="93.34" cy="39.11" r="1.85"/>
			<circle fill="#AEBDC4" cx="90.29" cy="42.16" r="1.85"/>
		</g>
		<g>
			<circle fill="#AEBDC4" cx="40.8" cy="91.65" r="1.85"/>
			<circle fill="#AEBDC4" cx="37.75" cy="94.71" r="1.85"/>
			<circle fill="#AEBDC4" cx="34.69" cy="97.76" r="1.85"/>
			<circle fill="#AEBDC4" cx="31.64" cy="100.82" r="1.85"/>
			<circle fill="#AEBDC4" cx="28.58" cy="103.87" r="1.85"/>
		</g>
		<g>
			<circle fill="#AEBDC4" cx="45" cy="95.85" r="1.85"/>
			<circle fill="#AEBDC4" cx="41.94" cy="98.9" r="1.85"/>
			<circle fill="#AEBDC4" cx="38.88" cy="101.96" r="1.85"/>
			<circle fill="#AEBDC4" cx="35.83" cy="105.01" r="1.85"/>
			<circle fill="#AEBDC4" cx="32.77" cy="108.07" r="1.85"/>
			<circle fill="#AEBDC4" cx="29.72" cy="111.12" r="1.85"/>
		</g>
		<g>
			<circle fill="#AEBDC4" cx="49.19" cy="100.04" r="1.85"/>
			<circle fill="#AEBDC4" cx="46.13" cy="103.1" r="1.85"/>
			<circle fill="#AEBDC4" cx="43.08" cy="106.15" r="1.85"/>
			<circle fill="#AEBDC4" cx="40.02" cy="109.21" r="1.85"/>
			<circle fill="#AEBDC4" cx="36.97" cy="112.26" r="1.85"/>
			<circle fill="#AEBDC4" cx="33.91" cy="115.32" r="1.85"/>
		</g>
		<g>
			<circle fill="#AEBDC4" cx="109.76" cy="31.08" r="1.85"/>
			<circle fill="#AEBDC4" cx="106.7" cy="34.13" r="1.85"/>
			<circle fill="#AEBDC4" cx="103.65" cy="37.19" r="1.85"/>
			<circle fill="#AEBDC4" cx="100.59" cy="40.24" r="1.85"/>
			<circle fill="#AEBDC4" cx="97.54" cy="43.3" r="1.85"/>
			<circle fill="#AEBDC4" cx="94.48" cy="46.36" r="1.85"/>
		</g>
		<g>
			<circle fill="#AEBDC4" cx="113.95" cy="35.27" r="1.85"/>
			<circle fill="#AEBDC4" cx="110.9" cy="38.33" r="1.85"/>
			<circle fill="#AEBDC4" cx="107.84" cy="41.38" r="1.85"/>
			<circle fill="#AEBDC4" cx="104.79" cy="44.44" r="1.85"/>
			<circle fill="#AEBDC4" cx="101.73" cy="47.49" r="1.85"/>
			<circle fill="#AEBDC4" cx="98.68" cy="50.55" r="1.85"/>
		</g>
		<g>
			<circle fill="#AEBDC4" cx="121.2" cy="36.41" r="1.85"/>
			<circle fill="#AEBDC4" cx="118.15" cy="39.46" r="1.85"/>
			<circle fill="#AEBDC4" cx="115.09" cy="42.52" r="1.85"/>
			<circle fill="#AEBDC4" cx="112.04" cy="45.58" r="1.85"/>
			<circle fill="#AEBDC4" cx="108.98" cy="48.63" r="1.85"/>
			<circle fill="#AEBDC4" cx="105.93" cy="51.69" r="1.85"/>
			<circle fill="#AEBDC4" cx="102.87" cy="54.74" r="1.85"/>
		</g>
		<g>
			<circle fill="#AEBDC4" cx="125.4" cy="40.6" r="1.85"/>
			<circle fill="#AEBDC4" cx="122.34" cy="43.66" r="1.85"/>
			<circle fill="#AEBDC4" cx="119.29" cy="46.71" r="1.85"/>
			<circle fill="#AEBDC4" cx="116.23" cy="49.77" r="1.85"/>
			<circle fill="#AEBDC4" cx="113.17" cy="52.83" r="1.85"/>
			<circle fill="#AEBDC4" cx="110.12" cy="55.88" r="1.85"/>
			<circle fill="#AEBDC4" cx="107.06" cy="58.94" r="1.85"/>
		</g>
		<g>
			<circle fill="#AEBDC4" cx="53.38" cy="104.23" r="1.85"/>
			<circle fill="#AEBDC4" cx="50.33" cy="107.29" r="1.85"/>
			<circle fill="#AEBDC4" cx="47.27" cy="110.34" r="1.85"/>
			<circle fill="#AEBDC4" cx="44.22" cy="113.4" r="1.85"/>
			<circle fill="#AEBDC4" cx="41.16" cy="116.46" r="1.85"/>
			<circle fill="#AEBDC4" cx="38.1" cy="119.51" r="1.85"/>
			<circle fill="#AEBDC4" cx="35.05" cy="122.57" r="1.85"/>
		</g>
		<g>
			<circle fill="#AEBDC4" cx="57.58" cy="108.43" r="1.85"/>
			<circle fill="#AEBDC4" cx="54.52" cy="111.48" r="1.85"/>
			<circle fill="#AEBDC4" cx="51.46" cy="114.54" r="1.85"/>
			<circle fill="#AEBDC4" cx="48.41" cy="117.59" r="1.85"/>
			<circle fill="#AEBDC4" cx="45.35" cy="120.65" r="1.85"/>
			<circle fill="#AEBDC4" cx="42.3" cy="123.71" r="1.85"/>
			<circle fill="#AEBDC4" cx="39.24" cy="126.76" r="1.85"/>
		</g>
		<g>
			<circle fill="#AEBDC4" cx="132.65" cy="41.74" r="1.85"/>
			<circle fill="#AEBDC4" cx="129.59" cy="44.8" r="1.85"/>
			<circle fill="#AEBDC4" cx="126.53" cy="47.85" r="1.85"/>
			<circle fill="#AEBDC4" cx="123.48" cy="50.91" r="1.85"/>
			<circle fill="#AEBDC4" cx="120.42" cy="53.96" r="1.85"/>
			<circle fill="#AEBDC4" cx="117.37" cy="57.02" r="1.85"/>
			<circle fill="#AEBDC4" cx="114.31" cy="60.08" r="1.85"/>
			<circle fill="#AEBDC4" cx="111.26" cy="63.13" r="1.85"/>
		</g>
		<g>
			<circle fill="#AEBDC4" cx="61.77" cy="112.62" r="1.85"/>
			<circle fill="#AEBDC4" cx="58.71" cy="115.68" r="1.85"/>
			<circle fill="#AEBDC4" cx="55.66" cy="118.73" r="1.85"/>
			<circle fill="#AEBDC4" cx="52.6" cy="121.79" r="1.85"/>
			<circle fill="#AEBDC4" cx="49.55" cy="124.84" r="1.85"/>
			<circle fill="#AEBDC4" cx="46.49" cy="127.9" r="1.85"/>
			<circle fill="#AEBDC4" cx="43.44" cy="130.96" r="1.85"/>
			<circle fill="#AEBDC4" cx="40.38" cy="134.01" r="1.85"/>
		</g>
		<g>
			<circle fill="#AEBDC4" cx="64.28" cy="118.5" r="1.85"/>
			<circle fill="#AEBDC4" cx="61.22" cy="121.55" r="1.85"/>
			<circle fill="#AEBDC4" cx="58.17" cy="124.61" r="1.85"/>
			<circle fill="#AEBDC4" cx="55.11" cy="127.66" r="1.85"/>
			<circle fill="#AEBDC4" cx="52.06" cy="130.72" r="1.85"/>
			<circle fill="#AEBDC4" cx="49" cy="133.78" r="1.85"/>
			<circle fill="#AEBDC4" cx="45.95" cy="136.83" r="1.85"/>
			<circle fill="#AEBDC4" cx="42.89" cy="139.89" r="1.85"/>
			<circle fill="#AEBDC4" cx="39.84" cy="142.94" r="1.85"/>
		</g>
		<g>
			<circle fill="#AEBDC4" cx="142.96" cy="39.82" r="1.85"/>
			<circle fill="#AEBDC4" cx="139.9" cy="42.87" r="1.85"/>
			<circle fill="#AEBDC4" cx="136.85" cy="45.93" r="1.85"/>
			<circle fill="#AEBDC4" cx="133.79" cy="48.98" r="1.85"/>
			<circle fill="#AEBDC4" cx="130.73" cy="52.04" r="1.85"/>
			<circle fill="#AEBDC4" cx="127.68" cy="55.09" r="1.85"/>
			<circle fill="#AEBDC4" cx="124.62" cy="58.15" r="1.85"/>
			<circle fill="#AEBDC4" cx="121.57" cy="61.21" r="1.85"/>
			<circle fill="#AEBDC4" cx="118.51" cy="64.26" r="1.85"/>
			<circle fill="#AEBDC4" cx="115.45" cy="67.32" r="1.85"/>
		</g>
		<g>
			<circle fill="#AEBDC4" cx="98.46" cy="67.55" r="1.85"/>
			<circle fill="#AEBDC4" cx="95.4" cy="70.6" r="1.85"/>
			<circle fill="#AEBDC4" cx="92.34" cy="73.66" r="1.85"/>
			<circle fill="#AEBDC4" cx="89.29" cy="76.71" r="1.85"/>
			<circle fill="#AEBDC4" cx="86.23" cy="79.77" r="1.85"/>
			<circle fill="#AEBDC4" cx="83.18" cy="82.82" r="1.85"/>
			<circle fill="#AEBDC4" cx="80.12" cy="85.88" r="1.85"/>
			<circle fill="#AEBDC4" cx="77.07" cy="88.93" r="1.85"/>
			<circle fill="#AEBDC4" cx="74.01" cy="91.99" r="1.85"/>
			<circle fill="#AEBDC4" cx="70.95" cy="95.05" r="1.85"/>
			<circle fill="#AEBDC4" cx="67.89" cy="98.12" r="1.85"/>
			<circle fill="#AEBDC4" cx="64.82" cy="101.18" r="1.85"/>
		</g>
		<g>
			<circle fill="#AEBDC4" cx="102.65" cy="71.74" r="1.85"/>
			<circle fill="#AEBDC4" cx="99.59" cy="74.79" r="1.85"/>
			<circle fill="#AEBDC4" cx="96.54" cy="77.85" r="1.85"/>
			<circle fill="#AEBDC4" cx="93.48" cy="80.91" r="1.85"/>
			<circle fill="#AEBDC4" cx="90.43" cy="83.96" r="1.85"/>
			<circle fill="#AEBDC4" cx="87.37" cy="87.02" r="1.85"/>
			<circle fill="#AEBDC4" cx="84.32" cy="90.07" r="1.85"/>
			<circle fill="#AEBDC4" cx="81.26" cy="93.13" r="1.85"/>
			<circle fill="#AEBDC4" cx="78.2" cy="96.18" r="1.85"/>
			<circle fill="#AEBDC4" cx="75.14" cy="99.25" r="1.85"/>
			<circle fill="#AEBDC4" cx="72.08" cy="102.31" r="1.85"/>
			<circle fill="#AEBDC4" cx="69.02" cy="105.37" r="1.85"/>
		</g>
		<g>
			<circle fill="#AEBDC4" cx="106.84" cy="75.93" r="1.85"/>
			<circle fill="#AEBDC4" cx="103.79" cy="78.99" r="1.85"/>
			<circle fill="#AEBDC4" cx="100.73" cy="82.04" r="1.85"/>
			<circle fill="#AEBDC4" cx="97.68" cy="85.1" r="1.85"/>
			<circle fill="#AEBDC4" cx="94.62" cy="88.16" r="1.85"/>
			<circle fill="#AEBDC4" cx="91.56" cy="91.21" r="1.85"/>
			<circle fill="#AEBDC4" cx="88.51" cy="94.27" r="1.85"/>
			<circle fill="#AEBDC4" cx="85.45" cy="97.32" r="1.85"/>
			<circle fill="#AEBDC4" cx="82.4" cy="100.38" r="1.85"/>
			<circle fill="#AEBDC4" cx="79.34" cy="103.44" r="1.85"/>
			<circle fill="#AEBDC4" cx="76.27" cy="106.5" r="1.85"/>
			<circle fill="#AEBDC4" cx="73.21" cy="109.57" r="1.85"/>
		</g>
	</g>
	<g onclick="this.parentNode.a_text=this;">
		<text transform="matrix(0.7071 -0.7071 0.7071 0.7071 59.1553 66.3993)"><tspan x="0" y="0" font-family="'OpenSans-Semibold'" font-size="6.3994px">N E</tspan><tspan x="-3.04" y="7.2" font-family="'OpenSans-Semibold'" font-size="6.3994px">(</tspan><tspan x="-1" y="7.2" font-family="'OpenSans-Semibold'" font-size="6.3994px">н</tspan><tspan x="3.35" y="7.2" font-family="'OpenSans-Semibold'" font-size="6.3994px">и</tspan><tspan x="7.91" y="7.2" font-family="'OpenSans-Semibold'" font-size="6.3994px">з</tspan><tspan x="11.26" y="7.2" font-family="'OpenSans-Semibold'" font-size="6.3994px">)</tspan></text>
	</g>
</g>
</svg>
