<svg xmlns="http://www.w3.org/2000/svg" viewBox="0 0 130 172">
    <path fill="#F1F3F4" stroke="#BCC8CE" stroke-width=".4" stroke-linecap="round" stroke-miterlimit="10" d="M156.4 39.02L65.8.49.48 65.81l38.55 90.59L156.4 39.02z"/>
    <g fill="#AEBDC4">
        <circle cx="15.64" cy="66.49" r="1.85"/>
        <circle cx="12.59" cy="69.55" r="1.85"/>
        <circle cx="19.83" cy="70.68" r="1.85"/>
        <circle cx="16.78" cy="73.74" r="1.85"/>
        <circle cx="24.03" cy="74.88" r="1.85"/>
        <circle cx="20.97" cy="77.93" r="1.85"/>
        <circle cx="68.18" cy="13.94" r="1.85"/>
        <circle cx="65.13" cy="17" r="1.85"/>
        <circle cx="72.38" cy="18.14" r="1.85"/>
        <circle cx="69.32" cy="21.19" r="1.85"/>
        <circle cx="76.57" cy="22.33" r="1.85"/>
        <circle cx="73.52" cy="25.39" r="1.85"/>
        <circle cx="28.22" cy="79.07" r="1.85"/>
        <circle cx="25.17" cy="82.13" r="1.85"/>
        <circle cx="22.11" cy="85.18" r="1.85"/>
        <circle cx="83.82" cy="23.47" r="1.85"/>
        <circle cx="80.76" cy="26.53" r="1.85"/>
        <circle cx="77.71" cy="29.58" r="1.85"/>
        <circle cx="91.07" cy="24.61" r="1.85"/>
        <circle cx="88.01" cy="27.66" r="1.85"/>
        <circle cx="84.96" cy="30.72" r="1.85"/>
        <circle cx="81.9" cy="33.77" r="1.85"/>
        <circle cx="95.26" cy="28.8" r="1.85"/>
        <circle cx="92.21" cy="31.86" r="1.85"/>
        <circle cx="89.15" cy="34.91" r="1.85"/>
        <circle cx="86.1" cy="37.97" r="1.85"/>
        <circle cx="32.41" cy="83.26" r="1.85"/>
        <circle cx="29.36" cy="86.32" r="1.85"/>
        <circle cx="26.3" cy="89.38" r="1.85"/>
        <circle cx="23.25" cy="92.43" r="1.85"/>
        <circle cx="36.61" cy="87.46" r="1.85"/>
        <circle cx="33.55" cy="90.51" r="1.85"/>
        <circle cx="30.5" cy="93.57" r="1.85"/>
        <circle cx="27.44" cy="96.63" r="1.85"/>
        <circle cx="102.51" cy="29.94" r="1.85"/>
        <circle cx="99.46" cy="33" r="1.85"/>
        <circle cx="96.4" cy="36.05" r="1.85"/>
        <circle cx="93.34" cy="39.11" r="1.85"/>
        <circle cx="90.29" cy="42.16" r="1.85"/>
        <circle cx="40.8" cy="91.65" r="1.85"/>
        <circle cx="37.75" cy="94.71" r="1.85"/>
        <circle cx="34.69" cy="97.76" r="1.85"/>
        <circle cx="31.64" cy="100.82" r="1.85"/>
        <circle cx="28.58" cy="103.87" r="1.85"/>
        <circle cx="45" cy="95.85" r="1.85"/>
        <circle cx="41.94" cy="98.9" r="1.85"/>
        <circle cx="38.88" cy="101.96" r="1.85"/>
        <circle cx="35.83" cy="105.01" r="1.85"/>
        <circle cx="32.77" cy="108.07" r="1.85"/>
        <circle cx="29.72" cy="111.12" r="1.85"/>
        <circle cx="49.19" cy="100.04" r="1.85"/>
        <circle cx="46.13" cy="103.1" r="1.85"/>
        <circle cx="43.08" cy="106.15" r="1.85"/>
        <circle cx="40.02" cy="109.21" r="1.85"/>
        <circle cx="36.97" cy="112.26" r="1.85"/>
        <circle cx="33.91" cy="115.32" r="1.85"/>
        <circle cx="109.76" cy="31.08" r="1.85"/>
        <circle cx="106.7" cy="34.13" r="1.85"/>
        <circle cx="103.65" cy="37.19" r="1.85"/>
        <circle cx="100.59" cy="40.24" r="1.85"/>
        <circle cx="97.54" cy="43.3" r="1.85"/>
        <circle cx="94.48" cy="46.36" r="1.85"/>
        <circle cx="113.95" cy="35.27" r="1.85"/>
        <circle cx="110.9" cy="38.33" r="1.85"/>
        <circle cx="107.84" cy="41.38" r="1.85"/>
        <circle cx="104.79" cy="44.44" r="1.85"/>
        <circle cx="101.73" cy="47.49" r="1.85"/>
        <circle cx="98.68" cy="50.55" r="1.85"/>
        <g>
            <circle cx="121.2" cy="36.41" r="1.85"/>
            <circle cx="118.15" cy="39.46" r="1.85"/>
            <circle cx="115.09" cy="42.52" r="1.85"/>
            <circle cx="112.04" cy="45.58" r="1.85"/>
            <circle cx="108.98" cy="48.63" r="1.85"/>
            <circle cx="105.93" cy="51.69" r="1.85"/>
            <circle cx="102.87" cy="54.74" r="1.85"/>
        </g>
        <g>
            <circle cx="125.4" cy="40.6" r="1.85"/>
            <circle cx="122.34" cy="43.66" r="1.85"/>
            <circle cx="119.29" cy="46.71" r="1.85"/>
            <circle cx="116.23" cy="49.77" r="1.85"/>
            <circle cx="113.17" cy="52.83" r="1.85"/>
            <circle cx="110.12" cy="55.88" r="1.85"/>
            <circle cx="107.06" cy="58.94" r="1.85"/>
        </g>
        <g>
            <circle cx="53.38" cy="104.23" r="1.85"/>
            <circle cx="50.33" cy="107.29" r="1.85"/>
            <circle cx="47.27" cy="110.34" r="1.85"/>
            <circle cx="44.22" cy="113.4" r="1.85"/>
            <circle cx="41.16" cy="116.46" r="1.85"/>
            <circle cx="38.1" cy="119.51" r="1.85"/>
            <circle cx="35.05" cy="122.57" r="1.85"/>
        </g>
        <g>
            <circle cx="57.58" cy="108.43" r="1.85"/>
            <circle cx="54.52" cy="111.48" r="1.85"/>
            <circle cx="51.46" cy="114.54" r="1.85"/>
            <circle cx="48.41" cy="117.59" r="1.85"/>
            <circle cx="45.35" cy="120.65" r="1.85"/>
            <circle cx="42.3" cy="123.71" r="1.85"/>
            <circle cx="39.24" cy="126.76" r="1.85"/>
        </g>
        <g>
            <circle cx="132.65" cy="41.74" r="1.85"/>
            <circle cx="129.59" cy="44.8" r="1.85"/>
            <circle cx="126.53" cy="47.85" r="1.85"/>
            <circle cx="123.48" cy="50.91" r="1.85"/>
            <circle cx="120.42" cy="53.96" r="1.85"/>
            <circle cx="117.37" cy="57.02" r="1.85"/>
            <circle cx="114.31" cy="60.08" r="1.85"/>
            <circle cx="111.26" cy="63.13" r="1.85"/>
        </g>
        <g>
            <circle cx="61.77" cy="112.62" r="1.85"/>
            <circle cx="58.71" cy="115.68" r="1.85"/>
            <circle cx="55.66" cy="118.73" r="1.85"/>
            <circle cx="52.6" cy="121.79" r="1.85"/>
            <circle cx="49.55" cy="124.84" r="1.85"/>
            <circle cx="46.49" cy="127.9" r="1.85"/>
            <circle cx="43.44" cy="130.96" r="1.85"/>
            <circle cx="40.38" cy="134.01" r="1.85"/>
        </g>
        <g>
            <circle cx="64.28" cy="118.5" r="1.85"/>
            <circle cx="61.22" cy="121.55" r="1.85"/>
            <circle cx="58.17" cy="124.61" r="1.85"/>
            <circle cx="55.11" cy="127.66" r="1.85"/>
            <circle cx="52.06" cy="130.72" r="1.85"/>
            <circle cx="49" cy="133.78" r="1.85"/>
            <circle cx="45.95" cy="136.83" r="1.85"/>
            <circle cx="42.89" cy="139.89" r="1.85"/>
            <circle cx="39.84" cy="142.94" r="1.85"/>
        </g>
        <g>
            <circle cx="142.96" cy="39.82" r="1.85"/>
            <circle cx="139.9" cy="42.87" r="1.85"/>
            <circle cx="136.85" cy="45.93" r="1.85"/>
            <circle cx="133.79" cy="48.98" r="1.85"/>
            <circle cx="130.73" cy="52.04" r="1.85"/>
            <circle cx="127.68" cy="55.09" r="1.85"/>
            <circle cx="124.62" cy="58.15" r="1.85"/>
            <circle cx="121.57" cy="61.21" r="1.85"/>
            <circle cx="118.51" cy="64.26" r="1.85"/>
            <circle cx="115.45" cy="67.32" r="1.85"/>
        </g>
        <g>
            <circle cx="98.46" cy="67.55" r="1.85"/>
            <circle cx="95.4" cy="70.6" r="1.85"/>
            <circle cx="92.34" cy="73.66" r="1.85"/>
            <circle cx="89.29" cy="76.71" r="1.85"/>
            <circle cx="86.23" cy="79.77" r="1.85"/>
            <circle cx="83.18" cy="82.82" r="1.85"/>
            <circle cx="80.12" cy="85.88" r="1.85"/>
            <circle cx="77.07" cy="88.93" r="1.85"/>
            <circle cx="74.01" cy="91.99" r="1.85"/>
            <circle cx="70.95" cy="95.05" r="1.85"/>
            <circle cx="67.89" cy="98.12" r="1.85"/>
            <circle cx="64.82" cy="101.18" r="1.85"/>
        </g>
        <g>
            <circle cx="102.65" cy="71.74" r="1.85"/>
            <circle cx="99.59" cy="74.79" r="1.85"/>
            <circle cx="96.54" cy="77.85" r="1.85"/>
            <circle cx="93.48" cy="80.91" r="1.85"/>
            <circle cx="90.43" cy="83.96" r="1.85"/>
            <circle cx="87.37" cy="87.02" r="1.85"/>
            <circle cx="84.32" cy="90.07" r="1.85"/>
            <circle cx="81.26" cy="93.13" r="1.85"/>
            <circle cx="78.2" cy="96.18" r="1.85"/>
            <circle cx="75.14" cy="99.25" r="1.85"/>
            <circle cx="72.08" cy="102.31" r="1.85"/>
            <circle cx="69.02" cy="105.37" r="1.85"/>
        </g>
        <g>
            <circle cx="106.84" cy="75.93" r="1.85"/>
            <circle cx="103.79" cy="78.99" r="1.85"/>
            <circle cx="100.73" cy="82.04" r="1.85"/>
            <circle cx="97.68" cy="85.1" r="1.85"/>
            <circle cx="94.62" cy="88.16" r="1.85"/>
            <circle cx="91.56" cy="91.21" r="1.85"/>
            <circle cx="88.51" cy="94.27" r="1.85"/>
            <circle cx="85.45" cy="97.32" r="1.85"/>
            <circle cx="82.4" cy="100.38" r="1.85"/>
            <circle cx="79.34" cy="103.44" r="1.85"/>
            <circle cx="76.27" cy="106.5" r="1.85"/>
            <circle cx="73.21" cy="109.57" r="1.85"/>
        </g>
    </g>
</svg>
