<?xml version="1.0" encoding="utf-8"?>
<!-- Generator: Adobe Illustrator 23.0.1, SVG Export Plug-In . SVG Version: 6.00 Build 0)  -->
<svg version="1.1" id="Layer_1" xmlns="http://www.w3.org/2000/svg" xmlns:xlink="http://www.w3.org/1999/xlink" x="0px" y="0px"
	 viewBox="0 0 157 157" style="enable-background:new 0 0 157 157;" xml:space="preserve">
<style type="text/css">
	.st0{fill:#F1F3F4;stroke:#BCC8CE;stroke-width:0.4;stroke-linecap:round;stroke-miterlimit:10;}
	.st1{fill:#AEBDC4;}
	.st2{font-family:'Roboto-Medium';}
	.st3{font-size:3px;}
</style>
<polygon class="st0" points="156.4,39 65.8,0.5 0.5,65.8 39,156.4 "/>
<g 
    data-sort-seat-direction="rtl" 
    data-sort-line-direction="ttb" 
    data-sort-seat-option="cy" 
    data-sort-line-option="order" 
    data-line-start="2"
    >
	<g>
		<circle class="st1" cx="141.5" cy="41.2" r="1.9"/>
		<circle class="st1" cx="138.5" cy="44.3" r="1.9"/>
		<circle class="st1" cx="135.4" cy="47.3" r="1.9"/>
		<circle class="st1" cx="132.4" cy="50.4" r="1.9"/>
		<circle class="st1" cx="129.3" cy="53.5" r="1.9"/>
		<circle class="st1" cx="126.3" cy="56.5" r="1.8"/>
		<circle class="st1" cx="123.2" cy="59.6" r="1.8"/>
		<circle class="st1" cx="120.2" cy="62.6" r="1.8"/>
		<circle class="st1" cx="117.1" cy="65.7" r="1.8"/>
		<circle class="st1" cx="114" cy="68.7" r="1.8"/>
		<circle class="st1" cx="106.8" cy="75.9" r="1.8"/>
		<circle class="st1" cx="103.8" cy="79" r="1.8"/>
		<circle class="st1" cx="100.7" cy="82" r="1.8"/>
		<circle class="st1" cx="97.7" cy="85.1" r="1.8"/>
		<circle class="st1" cx="94.6" cy="88.2" r="1.8"/>
		<circle class="st1" cx="91.6" cy="91.2" r="1.8"/>
		<circle class="st1" cx="88.5" cy="94.3" r="1.8"/>
		<circle class="st1" cx="85.4" cy="97.3" r="1.8"/>
		<circle class="st1" cx="82.4" cy="100.4" r="1.8"/>
		<circle class="st1" cx="79.3" cy="103.4" r="1.8"/>
		<circle class="st1" cx="76.3" cy="106.5" r="1.8"/>
		<circle class="st1" cx="73.2" cy="109.6" r="1.8"/>
		<circle class="st1" cx="65.7" cy="117.1" r="1.8"/>
		<circle class="st1" cx="62.6" cy="120.1" r="1.8"/>
		<circle class="st1" cx="59.6" cy="123.2" r="1.8"/>
		<circle class="st1" cx="56.5" cy="126.2" r="1.9"/>
		<circle class="st1" cx="53.5" cy="129.3" r="1.9"/>
		<circle class="st1" cx="50.4" cy="132.4" r="1.9"/>
		<circle class="st1" cx="47.4" cy="135.4" r="1.9"/>
		<circle class="st1" cx="44.3" cy="138.5" r="1.9"/>
		<circle class="st1" cx="41.3" cy="141.5" r="1.9"/>
		<text transform="matrix(-0.7071 0.7071 -0.7071 -0.7071 145.3975 35.8945)" class="st1 st2 st3">00</text>
		<text transform="matrix(-0.7071 0.7071 -0.7071 -0.7071 38.3174 142.9746)" class="st1 st2 st3">00</text>
	</g>
	<g>
		<circle class="st1" cx="131.2" cy="43.2" r="1.9"/>
		<circle class="st1" cx="128.2" cy="46.2" r="1.9"/>
		<circle class="st1" cx="125.1" cy="49.3" r="1.9"/>
		<circle class="st1" cx="122.1" cy="52.3" r="1.8"/>
		<circle class="st1" cx="119" cy="55.4" r="1.8"/>
		<circle class="st1" cx="116" cy="58.4" r="1.8"/>
		<circle class="st1" cx="112.9" cy="61.5" r="1.8"/>
		<circle class="st1" cx="109.8" cy="64.5" r="1.8"/>
		<circle class="st1" cx="102.7" cy="71.7" r="1.8"/>
		<circle class="st1" cx="99.6" cy="74.8" r="1.8"/>
		<circle class="st1" cx="96.5" cy="77.8" r="1.8"/>
		<circle class="st1" cx="93.5" cy="80.9" r="1.8"/>
		<circle class="st1" cx="90.4" cy="84" r="1.8"/>
		<circle class="st1" cx="87.4" cy="87" r="1.8"/>
		<circle class="st1" cx="84.3" cy="90.1" r="1.8"/>
		<circle class="st1" cx="81.3" cy="93.1" r="1.8"/>
		<circle class="st1" cx="78.2" cy="96.2" r="1.8"/>
		<circle class="st1" cx="75.1" cy="99.2" r="1.8"/>
		<circle class="st1" cx="72.1" cy="102.3" r="1.8"/>
		<circle class="st1" cx="69" cy="105.4" r="1.8"/>
		<circle class="st1" cx="63.2" cy="111.2" r="1.8"/>
		<circle class="st1" cx="60.1" cy="114.3" r="1.8"/>
		<circle class="st1" cx="57.1" cy="117.3" r="1.8"/>
		<circle class="st1" cx="54" cy="120.4" r="1.8"/>
		<circle class="st1" cx="51" cy="123.4" r="1.8"/>
		<circle class="st1" cx="47.9" cy="126.5" r="1.8"/>
		<circle class="st1" cx="44.9" cy="129.5" r="1.9"/>
		<circle class="st1" cx="41.8" cy="132.6" r="1.9"/>
		<text transform="matrix(-0.7071 0.7071 -0.7071 -0.7071 135.0869 37.8154)" class="st1 st2 st3">00</text>
		<text transform="matrix(-0.7071 0.7071 -0.7071 -0.7071 38.8584 134.0449)" class="st1 st2 st3">00</text>
	</g>
	<g>
		<circle class="st1" cx="124" cy="42" r="1.8"/>
		<circle class="st1" cx="120.9" cy="45.1" r="1.8"/>
		<circle class="st1" cx="117.9" cy="48.1" r="1.8"/>
		<circle class="st1" cx="114.8" cy="51.2" r="1.8"/>
		<circle class="st1" cx="111.8" cy="54.2" r="1.8"/>
		<circle class="st1" cx="108.7" cy="57.3" r="1.8"/>
		<circle class="st1" cx="105.6" cy="60.4" r="1.8"/>
		<circle class="st1" cx="98.5" cy="67.6" r="1.8"/>
		<circle class="st1" cx="95.4" cy="70.6" r="1.8"/>
		<circle class="st1" cx="92.3" cy="73.7" r="1.8"/>
		<circle class="st1" cx="89.3" cy="76.7" r="1.8"/>
		<circle class="st1" cx="86.2" cy="79.8" r="1.8"/>
		<circle class="st1" cx="83.2" cy="82.8" r="1.8"/>
		<circle class="st1" cx="80.1" cy="85.9" r="1.8"/>
		<circle class="st1" cx="77.1" cy="88.9" r="1.8"/>
		<circle class="st1" cx="74" cy="92" r="1.8"/>
		<circle class="st1" cx="70.9" cy="95.1" r="1.8"/>
		<circle class="st1" cx="67.9" cy="98.1" r="1.8"/>
		<circle class="st1" cx="64.8" cy="101.2" r="1.8"/>
		<circle class="st1" cx="59" cy="107" r="1.8"/>
		<circle class="st1" cx="55.9" cy="110.1" r="1.8"/>
		<circle class="st1" cx="52.9" cy="113.1" r="1.8"/>
		<circle class="st1" cx="49.8" cy="116.2" r="1.8"/>
		<circle class="st1" cx="46.8" cy="119.2" r="1.8"/>
		<circle class="st1" cx="43.7" cy="122.3" r="1.8"/>
		<circle class="st1" cx="40.7" cy="125.3" r="1.8"/>
		<text transform="matrix(-0.7071 0.7071 -0.7071 -0.7071 127.833 36.6797)" class="st1 st2 st3">00</text>
		<text transform="matrix(-0.7071 0.7071 -0.7071 -0.7071 37.7178 126.7949)" class="st1 st2 st3">00</text>
	</g>
	<g>
		<circle class="st1" cx="119.8" cy="37.8" r="1.8"/>
		<circle class="st1" cx="116.7" cy="40.9" r="1.8"/>
		<circle class="st1" cx="113.7" cy="43.9" r="1.8"/>
		<circle class="st1" cx="110.6" cy="47" r="1.8"/>
		<circle class="st1" cx="107.6" cy="50" r="1.8"/>
		<circle class="st1" cx="104.5" cy="53.1" r="1.8"/>
		<circle class="st1" cx="101.5" cy="56.2" r="1.8"/>
		<circle class="st1" cx="54.8" cy="102.8" r="1.8"/>
		<circle class="st1" cx="51.7" cy="105.9" r="1.8"/>
		<circle class="st1" cx="48.7" cy="108.9" r="1.8"/>
		<circle class="st1" cx="45.6" cy="112" r="1.8"/>
		<circle class="st1" cx="42.6" cy="115" r="1.8"/>
		<circle class="st1" cx="39.5" cy="118.1" r="1.8"/>
		<circle class="st1" cx="36.5" cy="121.2" r="1.8"/>
		<text transform="matrix(-0.7071 0.7071 -0.7071 -0.7071 123.6377 32.4854)" class="st1 st2 st3">00</text>
		<text transform="matrix(-0.7071 0.7071 -0.7071 -0.7071 33.5225 122.5996)" class="st1 st2 st3">00</text>
	</g>
	<g>
		<circle class="st1" cx="112.5" cy="36.7" r="1.8"/>
		<circle class="st1" cx="109.5" cy="39.7" r="1.8"/>
		<circle class="st1" cx="106.4" cy="42.8" r="1.8"/>
		<circle class="st1" cx="103.4" cy="45.9" r="1.8"/>
		<circle class="st1" cx="100.3" cy="48.9" r="1.8"/>
		<circle class="st1" cx="97.3" cy="52" r="1.8"/>
		<circle class="st1" cx="50.6" cy="98.6" r="1.8"/>
		<circle class="st1" cx="47.5" cy="101.7" r="1.8"/>
		<circle class="st1" cx="44.5" cy="104.7" r="1.8"/>
		<circle class="st1" cx="41.4" cy="107.8" r="1.8"/>
		<circle class="st1" cx="38.4" cy="110.8" r="1.8"/>
		<circle class="st1" cx="35.3" cy="113.9" r="1.8"/>
		<text transform="matrix(-0.7071 0.7071 -0.7071 -0.7071 116.3877 31.3447)" class="st1 st2 st3">00</text>
		<text transform="matrix(-0.7071 0.7071 -0.7071 -0.7071 32.3877 115.3447)" class="st1 st2 st3">00</text>
	</g>
	<g>
		<circle class="st1" cx="108.3" cy="32.5" r="1.8"/>
		<circle class="st1" cx="105.3" cy="35.5" r="1.8"/>
		<circle class="st1" cx="102.2" cy="38.6" r="1.8"/>
		<circle class="st1" cx="99.2" cy="41.7" r="1.8"/>
		<circle class="st1" cx="96.1" cy="44.7" r="1.8"/>
		<circle class="st1" cx="93.1" cy="47.8" r="1.8"/>
		<circle class="st1" cx="46.4" cy="94.4" r="1.8"/>
		<circle class="st1" cx="43.4" cy="97.5" r="1.8"/>
		<circle class="st1" cx="40.3" cy="100.5" r="1.8"/>
		<circle class="st1" cx="37.2" cy="103.6" r="1.8"/>
		<circle class="st1" cx="34.2" cy="106.7" r="1.8"/>
		<circle class="st1" cx="31.1" cy="109.7" r="1.8"/>
		<text transform="matrix(-0.7071 0.7071 -0.7071 -0.7071 112.1982 27.1553)" class="st1 st2 st3">00</text>
		<text transform="matrix(-0.7071 0.7071 -0.7071 -0.7071 28.1982 111.1553)" class="st1 st2 st3">00</text>
	</g>
	<g>
		<circle class="st1" cx="101.1" cy="31.4" r="1.8"/>
		<circle class="st1" cx="98" cy="34.4" r="1.8"/>
		<circle class="st1" cx="95" cy="37.5" r="1.8"/>
		<circle class="st1" cx="91.9" cy="40.5" r="1.8"/>
		<circle class="st1" cx="88.9" cy="43.6" r="1.8"/>
		<circle class="st1" cx="42.2" cy="90.2" r="1.8"/>
		<circle class="st1" cx="39.2" cy="93.3" r="1.8"/>
		<circle class="st1" cx="36.1" cy="96.3" r="1.8"/>
		<circle class="st1" cx="33.1" cy="99.4" r="1.8"/>
		<circle class="st1" cx="30" cy="102.5" r="1.8"/>
		<text transform="matrix(-0.7071 0.7071 -0.7071 -0.7071 104.9482 26.0147)" class="st1 st2 st3">00</text>
		<text transform="matrix(-0.7071 0.7071 -0.7071 -0.7071 27.0576 103.9053)" class="st1 st2 st3">00</text>
	</g>
	<g>
		<circle class="st1" cx="93.8" cy="30.2" r="1.8"/>
		<circle class="st1" cx="90.8" cy="33.3" r="1.8"/>
		<circle class="st1" cx="87.7" cy="36.3" r="1.8"/>
		<circle class="st1" cx="84.7" cy="39.4" r="1.8"/>
		<circle class="st1" cx="38" cy="86" r="1.8"/>
		<circle class="st1" cx="35" cy="89.1" r="1.8"/>
		<circle class="st1" cx="31.9" cy="92.2" r="1.8"/>
		<circle class="st1" cx="28.9" cy="95.2" r="1.8"/>
		<text transform="matrix(-0.7071 0.7071 -0.7071 -0.7071 97.7021 24.8799)" class="st1 st2 st3">00</text>
		<text transform="matrix(-0.7071 0.7071 -0.7071 -0.7071 25.9229 96.6602)" class="st1 st2 st3">00</text>
	</g>
	<g>
		<circle class="st1" cx="89.7" cy="26" r="1.8"/>
		<circle class="st1" cx="86.6" cy="29.1" r="1.8"/>
		<circle class="st1" cx="83.5" cy="32.1" r="1.8"/>
		<circle class="st1" cx="80.5" cy="35.2" r="1.8"/>
		<circle class="st1" cx="33.8" cy="81.8" r="1.8"/>
		<circle class="st1" cx="30.8" cy="84.9" r="1.8"/>
		<circle class="st1" cx="27.7" cy="88" r="1.8"/>
		<circle class="st1" cx="24.7" cy="91" r="1.8"/>
		<text transform="matrix(-0.7071 0.7071 -0.7071 -0.7071 93.5029 20.6797)" class="st1 st2 st3">00</text>
		<text transform="matrix(-0.7071 0.7071 -0.7071 -0.7071 21.7217 92.46)" class="st1 st2 st3">00</text>
	</g>
	<g>
		<circle class="st1" cx="82.4" cy="24.9" r="1.8"/>
		<circle class="st1" cx="79.3" cy="27.9" r="1.8"/>
		<circle class="st1" cx="76.3" cy="31" r="1.8"/>
		<circle class="st1" cx="29.6" cy="77.7" r="1.8"/>
		<circle class="st1" cx="26.6" cy="80.7" r="1.8"/>
		<circle class="st1" cx="23.5" cy="83.8" r="1.8"/>
		<text transform="matrix(-0.7071 0.7071 -0.7071 -0.7071 86.2568 19.5449)" class="st1 st2 st3">00</text>
		<text transform="matrix(-0.7071 0.7071 -0.7071 -0.7071 20.5869 85.2149)" class="st1 st2 st3">00</text>
	</g>
	<g>
		<circle class="st1" cx="75.2" cy="23.7" r="1.8"/>
		<circle class="st1" cx="72.1" cy="26.8" r="1.8"/>
		<circle class="st1" cx="25.4" cy="73.5" r="1.8"/>
		<circle class="st1" cx="22.4" cy="76.5" r="1.8"/>
		<text transform="matrix(-0.7071 0.7071 -0.7071 -0.7071 79.0068 18.4053)" class="st1 st2 st3">00</text>
		<text transform="matrix(-0.7071 0.7071 -0.7071 -0.7071 19.4482 77.9649)" class="st1 st2 st3">00</text>
	</g>
	<g>
		<circle class="st1" cx="71" cy="19.6" r="1.8"/>
		<circle class="st1" cx="67.9" cy="22.6" r="1.8"/>
		<circle class="st1" cx="21.2" cy="69.3" r="1.8"/>
		<circle class="st1" cx="18.2" cy="72.3" r="1.8"/>
		<text transform="matrix(-0.7071 0.7071 -0.7071 -0.7071 74.8115 14.21)" class="st1 st2 st3">00</text>
		<text transform="matrix(-0.7071 0.7071 -0.7071 -0.7071 15.2529 73.7695)" class="st1 st2 st3">00</text>
	</g>
	<g>
		<circle class="st1" cx="66.8" cy="15.4" r="1.8"/>
		<circle class="st1" cx="63.7" cy="18.4" r="1.8"/>
		<circle class="st1" cx="17.1" cy="65.1" r="1.8"/>
		<circle class="st1" cx="14" cy="68.1" r="1.8"/>
		<text transform="matrix(-0.7071 0.7071 -0.7071 -0.7071 70.6182 10.0147)" class="st1 st2 st3">00</text>
		<text transform="matrix(-0.7071 0.7071 -0.7071 -0.7071 11.0576 69.5752)" class="st1 st2 st3">00</text>
	</g>
</g>
</svg>
