<svg xmlns="http://www.w3.org/2000/svg" viewBox="0 0 130 172">
    <path fill="#F1F3F4" stroke="#BCC8CE" stroke-width=".4" stroke-linecap="round" stroke-miterlimit="10" d="M.37 123.65l16.39 43.85L167.5 16.75 123.64.37.37 123.65z"/>
    <g fill="#AEBDC4">
        <circle cx="126.72" cy="17.1" r="1.85"/>
        <circle cx="123.67" cy="20.15" r="1.85"/>
        <circle cx="120.61" cy="23.21" r="1.85"/>
        <circle cx="117.55" cy="26.26" r="1.85"/>
        <circle cx="114.5" cy="29.32" r="1.85"/>
        <circle cx="111.44" cy="32.38" r="1.85"/>
        <circle cx="108.39" cy="35.43" r="1.85"/>
        <circle cx="105.33" cy="38.49" r="1.85"/>
        <circle cx="102.28" cy="41.54" r="1.85"/>
        <circle cx="99.21" cy="44.6" r="1.85"/>
        <circle cx="44.97" cy="98.86" r="1.85"/>
        <circle cx="41.91" cy="101.91" r="1.85"/>
        <circle cx="38.86" cy="104.97" r="1.85"/>
        <circle cx="35.8" cy="108.02" r="1.85"/>
        <circle cx="32.74" cy="111.08" r="1.85"/>
        <circle cx="29.69" cy="114.13" r="1.85"/>
        <circle cx="26.63" cy="117.19" r="1.85"/>
        <circle cx="23.58" cy="120.25" r="1.85"/>
        <circle cx="20.52" cy="123.3" r="1.85"/>
        <circle cx="17.46" cy="126.36" r="1.85"/>
        <circle cx="50.24" cy="110.36" r="1.85"/>
        <circle cx="47.18" cy="113.42" r="1.85"/>
        <circle cx="44.13" cy="116.47" r="1.85"/>
        <circle cx="41.07" cy="119.53" r="1.85"/>
        <circle cx="38.02" cy="122.58" r="1.85"/>
        <circle cx="34.96" cy="125.64" r="1.85"/>
        <circle cx="31.9" cy="128.69" r="1.85"/>
        <circle cx="28.85" cy="131.75" r="1.85"/>
        <circle cx="25.79" cy="134.81" r="1.85"/>
        <circle cx="22.73" cy="137.87" r="1.85"/>
        <circle cx="19.67" cy="140.93" r="1.85"/>
        <circle cx="50.49" cy="101.72" r="1.85"/>
        <circle cx="47.43" cy="104.78" r="1.85"/>
        <circle cx="44.37" cy="107.84" r="1.85"/>
        <circle cx="41.32" cy="110.89" r="1.85"/>
        <circle cx="38.26" cy="113.95" r="1.85"/>
        <circle cx="35.21" cy="117" r="1.85"/>
        <circle cx="32.15" cy="120.06" r="1.85"/>
        <circle cx="29.1" cy="123.11" r="1.85"/>
        <circle cx="26.04" cy="126.17" r="1.85"/>
        <circle cx="22.98" cy="129.23" r="1.85"/>
        <circle cx="19.92" cy="132.29" r="1.85"/>
        <g>
            <circle cx="141.23" cy="19.37" r="1.85"/>
            <circle cx="138.17" cy="22.42" r="1.85"/>
            <circle cx="135.12" cy="25.48" r="1.85"/>
            <circle cx="132.06" cy="28.53" r="1.85"/>
            <circle cx="129" cy="31.59" r="1.85"/>
            <circle cx="125.95" cy="34.64" r="1.85"/>
            <circle cx="122.89" cy="37.7" r="1.85"/>
            <circle cx="119.84" cy="40.76" r="1.85"/>
            <circle cx="116.78" cy="43.81" r="1.85"/>
            <circle cx="113.72" cy="46.87" r="1.85"/>
            <circle cx="110.66" cy="49.94" r="1.85"/>
        </g>
        <g>
            <circle cx="132.31" cy="19.9" r="1.85"/>
            <circle cx="129.25" cy="22.96" r="1.85"/>
            <circle cx="126.19" cy="26.01" r="1.85"/>
            <circle cx="123.14" cy="29.07" r="1.85"/>
            <circle cx="120.08" cy="32.12" r="1.85"/>
            <circle cx="117.03" cy="35.18" r="1.85"/>
            <circle cx="113.97" cy="38.23" r="1.85"/>
            <circle cx="110.92" cy="41.29" r="1.85"/>
            <circle cx="107.86" cy="44.35" r="1.85"/>
            <circle cx="104.8" cy="47.41" r="1.85"/>
            <circle cx="101.74" cy="50.47" r="1.85"/>
        </g>
        <g>
            <circle cx="149.86" cy="19.12" r="1.85"/>
            <circle cx="146.8" cy="22.18" r="1.85"/>
            <circle cx="143.75" cy="25.23" r="1.85"/>
            <circle cx="140.69" cy="28.29" r="1.85"/>
            <circle cx="137.64" cy="31.34" r="1.85"/>
            <circle cx="134.58" cy="34.4" r="1.85"/>
            <circle cx="131.53" cy="37.45" r="1.85"/>
            <circle cx="128.47" cy="40.51" r="1.85"/>
            <circle cx="125.41" cy="43.57" r="1.85"/>
            <circle cx="122.35" cy="46.63" r="1.85"/>
            <circle cx="119.29" cy="49.69" r="1.85"/>
            <circle cx="116.23" cy="52.75" r="1.85"/>
        </g>
        <g>
            <circle cx="94.48" cy="57.73" r="1.85"/>
            <circle cx="91.43" cy="60.78" r="1.85"/>
            <circle cx="88.37" cy="63.84" r="1.85"/>
            <circle cx="85.31" cy="66.89" r="1.85"/>
            <circle cx="82.26" cy="69.95" r="1.85"/>
            <circle cx="79.2" cy="73.01" r="1.85"/>
            <circle cx="76.15" cy="76.06" r="1.85"/>
            <circle cx="73.09" cy="79.12" r="1.85"/>
            <circle cx="70.04" cy="82.17" r="1.85"/>
            <circle cx="66.97" cy="85.23" r="1.85"/>
            <circle cx="63.91" cy="88.3" r="1.85"/>
            <circle cx="60.85" cy="91.36" r="1.85"/>
            <circle cx="57.79" cy="94.42" r="1.85"/>
        </g>
        <g>
            <circle cx="100.36" cy="60.24" r="1.85"/>
            <circle cx="97.3" cy="63.29" r="1.85"/>
            <circle cx="94.25" cy="66.35" r="1.85"/>
            <circle cx="91.19" cy="69.4" r="1.85"/>
            <circle cx="88.14" cy="72.46" r="1.85"/>
            <circle cx="85.08" cy="75.52" r="1.85"/>
            <circle cx="82.02" cy="78.57" r="1.85"/>
            <circle cx="78.97" cy="81.63" r="1.85"/>
            <circle cx="75.91" cy="84.68" r="1.85"/>
            <circle cx="72.85" cy="87.74" r="1.85"/>
            <circle cx="69.79" cy="90.81" r="1.85"/>
            <circle cx="66.73" cy="93.87" r="1.85"/>
            <circle cx="63.66" cy="96.93" r="1.85"/>
            <circle cx="60.6" cy="99.99" r="1.85"/>
        </g>
        <g>
            <circle cx="91.97" cy="51.85" r="1.85"/>
            <circle cx="88.92" cy="54.9" r="1.85"/>
            <circle cx="85.86" cy="57.96" r="1.85"/>
            <circle cx="82.8" cy="61.02" r="1.85"/>
            <circle cx="79.75" cy="64.07" r="1.85"/>
            <circle cx="76.69" cy="67.13" r="1.85"/>
            <circle cx="73.64" cy="70.18" r="1.85"/>
            <circle cx="70.58" cy="73.24" r="1.85"/>
            <circle cx="67.53" cy="76.29" r="1.85"/>
            <circle cx="64.46" cy="79.36" r="1.85"/>
            <circle cx="61.4" cy="82.42" r="1.85"/>
            <circle cx="58.34" cy="85.48" r="1.85"/>
            <circle cx="55.28" cy="88.54" r="1.85"/>
            <circle cx="52.22" cy="91.61" r="1.85"/>
        </g>
        <g>
            <circle cx="108.99" cy="59.99" r="1.85"/>
            <circle cx="105.94" cy="63.04" r="1.85"/>
            <circle cx="102.88" cy="66.1" r="1.85"/>
            <circle cx="99.83" cy="69.16" r="1.85"/>
            <circle cx="96.77" cy="72.21" r="1.85"/>
            <circle cx="93.71" cy="75.27" r="1.85"/>
            <circle cx="90.66" cy="78.32" r="1.85"/>
            <circle cx="87.6" cy="81.38" r="1.85"/>
            <circle cx="84.55" cy="84.43" r="1.85"/>
            <circle cx="81.49" cy="87.5" r="1.85"/>
            <circle cx="78.42" cy="90.56" r="1.85"/>
            <circle cx="75.36" cy="93.62" r="1.85"/>
            <circle cx="72.3" cy="96.68" r="1.85"/>
            <circle cx="69.24" cy="99.75" r="1.85"/>
            <circle cx="66.17" cy="102.81" r="1.85"/>
            <circle cx="63.11" cy="105.87" r="1.85"/>
            <circle cx="60.05" cy="108.93" r="1.85"/>
        </g>
        <g>
            <circle cx="52.77" cy="116.21" r="1.85"/>
            <circle cx="49.72" cy="119.27" r="1.85"/>
            <circle cx="46.66" cy="122.32" r="1.85"/>
            <circle cx="43.61" cy="125.38" r="1.85"/>
            <circle cx="40.55" cy="128.43" r="1.85"/>
            <circle cx="37.5" cy="131.49" r="1.85"/>
            <circle cx="34.44" cy="134.54" r="1.85"/>
            <circle cx="31.39" cy="137.6" r="1.85"/>
            <circle cx="28.33" cy="140.66" r="1.85"/>
            <circle cx="25.27" cy="143.72" r="1.85"/>
            <circle cx="22.21" cy="146.78" r="1.85"/>
            <circle cx="19.14" cy="149.84" r="1.85"/>
        </g>
    </g>
</svg>
