<?xml version="1.0" encoding="utf-8"?>
<!-- Generator: Adobe Illustrator 23.0.1, SVG Export Plug-In . SVG Version: 6.00 Build 0)  -->
<svg version="1.1" id="Layer_1" xmlns="http://www.w3.org/2000/svg" xmlns:xlink="http://www.w3.org/1999/xlink" x="0px" y="0px"
	 width="157px" height="157px" viewBox="0 0 157 157" enable-background="new 0 0 157 157" xml:space="preserve">
<g onclick="this.parentNode.sekt.push(this);this.a_name=&quot;NW (низ)&quot;;">
	
		<polygon onclick="this.parentNode.a_fon=this;" fill="#F1F3F4" stroke="#BCC8CE" stroke-width="0.4" stroke-linecap="round" stroke-miterlimit="10" points="
		39.02,0.6 0.49,91.19 65.81,156.52 156.39,117.97 	"/>
	<g onclick="this.parentNode.a_text=this;">
		<text transform="matrix(0.7071 0.7071 -0.7071 0.7071 60.1818 87.8934)"><tspan x="0" y="0" font-family="'OpenSans-Semibold'" font-size="6.3994px">N W</tspan><tspan x="-1.8" y="7.2" font-family="'OpenSans-Semibold'" font-size="6.3994px">(</tspan><tspan x="0.24" y="7.2" font-family="'OpenSans-Semibold'" font-size="6.3994px">н</tspan><tspan x="4.59" y="7.2" font-family="'OpenSans-Semibold'" font-size="6.3994px">и</tspan><tspan x="9.15" y="7.2" font-family="'OpenSans-Semibold'" font-size="6.3994px">з</tspan><tspan x="12.5" y="7.2" font-family="'OpenSans-Semibold'" font-size="6.3994px">)</tspan></text>
	</g>
	<g onclick="this.parentNode.a_row=this;">
		<g onclick="this.a_par={beg_namb:1,quant:30};">
			<line fill="none" stroke="#D3DBDF" stroke-width="0.4" stroke-miterlimit="10" x1="135.95" y1="112.44" x2="44.56" y2="21.04"/>
		</g>
		<g onclick="this.a_par={beg_namb:1,quant:28};">
			<line fill="none" stroke="#D3DBDF" stroke-width="0.4" stroke-miterlimit="10" x1="128.68" y1="113.55" x2="43.44" y2="28.31"/>
		</g>
		<g onclick="this.a_par={beg_namb:1,quant:27};">
			<line fill="none" stroke="#D3DBDF" stroke-width="0.4" stroke-miterlimit="10" x1="123.09" y1="116.35" x2="40.91" y2="34.17"/>
		</g>
		<g onclick="this.a_par={beg_namb:1,quant:7};">
			<line fill="none" stroke="#D3DBDF" stroke-width="0.4" stroke-miterlimit="10" x1="60.72" y1="62.36" x2="39.78" y2="41.42"/>
		</g>
		<g onclick="this.a_par={beg_namb:1,quant:6};">
			<line fill="none" stroke="#D3DBDF" stroke-width="0.4" stroke-miterlimit="10" x1="56.53" y1="66.56" x2="38.64" y2="48.67"/>
		</g>
		<g onclick="this.a_par={beg_namb:1,quant:6};">
			<line fill="none" stroke="#D3DBDF" stroke-width="0.4" stroke-miterlimit="10" x1="52.33" y1="70.75" x2="34.44" y2="52.86"/>
		</g>
		<g onclick="this.a_par={beg_namb:1,quant:5};">
			<line fill="none" stroke="#D3DBDF" stroke-width="0.4" stroke-miterlimit="10" x1="48.14" y1="74.94" x2="33.31" y2="60.11"/>
		</g>
		<g onclick="this.a_par={beg_namb:1,quant:4};">
			<line fill="none" stroke="#D3DBDF" stroke-width="0.4" stroke-miterlimit="10" x1="43.95" y1="79.14" x2="32.17" y2="67.36"/>
		</g>
		<g onclick="this.a_par={beg_namb:1,quant:3};">
			<line fill="none" stroke="#D3DBDF" stroke-width="0.4" stroke-miterlimit="10" x1="39.75" y1="83.33" x2="31.03" y2="74.61"/>
		</g>
		<g onclick="this.a_par={beg_namb:8,quant:8};">
			<line fill="none" stroke="#D3DBDF" stroke-width="0.4" stroke-miterlimit="10" x1="118.85" y1="120.5" x2="94.85" y2="96.49"/>
		</g>
		<g onclick="this.a_par={beg_namb:7,quant:7};">
			<line fill="none" stroke="#D3DBDF" stroke-width="0.4" stroke-miterlimit="10" x1="111.6" y1="121.63" x2="90.66" y2="100.69"/>
		</g>
		<g onclick="this.a_par={beg_namb:7,quant:6};">
			<line fill="none" stroke="#D3DBDF" stroke-width="0.4" stroke-miterlimit="10" x1="104.35" y1="122.77" x2="86.46" y2="104.88"/>
		</g>
		<g onclick="this.a_par={beg_namb:6,quant:6};">
			<line fill="none" stroke="#D3DBDF" stroke-width="0.4" stroke-miterlimit="10" x1="100.16" y1="126.97" x2="82.27" y2="109.08"/>
		</g>
		<g onclick="this.a_par={beg_namb:5,quant:5};">
			<line fill="none" stroke="#D3DBDF" stroke-width="0.4" stroke-miterlimit="10" x1="92.91" y1="128.1" x2="78.08" y2="113.27"/>
		</g>
		<g onclick="this.a_par={beg_namb:4,quant:5};">
			<line fill="none" stroke="#D3DBDF" stroke-width="0.4" stroke-miterlimit="10" x1="88.72" y1="132.3" x2="73.88" y2="117.46"/>
		</g>
		<g onclick="this.a_par={beg_namb:1,quant:3};">
			<line fill="none" stroke="#D3DBDF" stroke-width="0.4" stroke-miterlimit="10" x1="35.56" y1="87.53" x2="26.84" y2="78.8"/>
		</g>
		<g onclick="this.a_par={beg_namb:1,quant:3};">
			<line fill="none" stroke="#D3DBDF" stroke-width="0.4" stroke-miterlimit="10" x1="31.37" y1="91.72" x2="22.64" y2="83"/>
		</g>
		<g onclick="this.a_par={beg_namb:1,quant:2};">
			<line fill="none" stroke="#D3DBDF" stroke-width="0.4" stroke-miterlimit="10" x1="27.17" y1="95.91" x2="21.51" y2="90.25"/>
		</g>
		<g onclick="this.a_par={beg_namb:1,quant:2};">
			<line fill="none" stroke="#D3DBDF" stroke-width="0.4" stroke-miterlimit="10" x1="22.98" y1="100.11" x2="17.31" y2="94.44"/>
		</g>
		<g onclick="this.a_par={beg_namb:3,quant:2};">
			<line fill="none" stroke="#D3DBDF" stroke-width="0.4" stroke-miterlimit="10" x1="66.97" y1="135.71" x2="61.3" y2="130.04"/>
		</g>
		<g onclick="this.a_par={beg_namb:3,quant:2};">
			<line fill="none" stroke="#D3DBDF" stroke-width="0.4" stroke-miterlimit="10" x1="62.78" y1="139.91" x2="57.11" y2="134.24"/>
		</g>
		<g onclick="this.a_par={beg_namb:4,quant:3};">
			<line fill="none" stroke="#D3DBDF" stroke-width="0.4" stroke-miterlimit="10" x1="74.22" y1="134.57" x2="65.5" y2="125.85"/>
		</g>
		<g onclick="this.a_par={beg_namb:4,quant:4};">
			<line fill="none" stroke="#D3DBDF" stroke-width="0.4" stroke-miterlimit="10" x1="81.47" y1="133.44" x2="69.69" y2="121.66"/>
		</g>
	</g>
	<g>
		<g>
			<circle fill="#AEBDC4" cx="58.41" cy="135.54" r="1.85"/>
			<circle fill="#AEBDC4" cx="61.47" cy="138.6" r="1.85"/>
		</g>
		<g>
			<circle fill="#AEBDC4" cx="62.61" cy="131.35" r="1.85"/>
			<circle fill="#AEBDC4" cx="65.66" cy="134.41" r="1.85"/>
		</g>
		<g>
			<circle fill="#AEBDC4" cx="18.62" cy="95.75" r="1.85"/>
			<circle fill="#AEBDC4" cx="21.67" cy="98.8" r="1.85"/>
		</g>
		<g>
			<circle fill="#AEBDC4" cx="22.81" cy="91.55" r="1.85"/>
			<circle fill="#AEBDC4" cx="25.87" cy="94.61" r="1.85"/>
		</g>
		<g>
			<circle fill="#AEBDC4" cx="66.8" cy="127.16" r="1.85"/>
			<circle fill="#AEBDC4" cx="69.86" cy="130.21" r="1.85"/>
			<circle fill="#AEBDC4" cx="72.91" cy="133.27" r="1.85"/>
		</g>
		<g>
			<circle fill="#AEBDC4" cx="23.95" cy="84.3" r="1.85"/>
			<circle fill="#AEBDC4" cx="27.01" cy="87.36" r="1.85"/>
			<circle fill="#AEBDC4" cx="30.06" cy="90.41" r="1.85"/>
		</g>
		<g>
			<circle fill="#AEBDC4" cx="28.14" cy="80.11" r="1.85"/>
			<circle fill="#AEBDC4" cx="31.2" cy="83.16" r="1.85"/>
			<circle fill="#AEBDC4" cx="34.25" cy="86.22" r="1.85"/>
		</g>
		<g>
			<circle fill="#AEBDC4" cx="32.34" cy="75.92" r="1.85"/>
			<circle fill="#AEBDC4" cx="35.39" cy="78.97" r="1.85"/>
			<circle fill="#AEBDC4" cx="38.45" cy="82.03" r="1.85"/>
		</g>
		<g>
			<circle fill="#AEBDC4" cx="70.99" cy="122.96" r="1.85"/>
			<circle fill="#AEBDC4" cx="74.05" cy="126.02" r="1.85"/>
			<circle fill="#AEBDC4" cx="77.11" cy="129.07" r="1.85"/>
			<circle fill="#AEBDC4" cx="80.16" cy="132.13" r="1.85"/>
		</g>
		<g>
			<circle fill="#AEBDC4" cx="33.47" cy="68.67" r="1.85"/>
			<circle fill="#AEBDC4" cx="36.53" cy="71.72" r="1.85"/>
			<circle fill="#AEBDC4" cx="39.59" cy="74.78" r="1.85"/>
			<circle fill="#AEBDC4" cx="42.64" cy="77.83" r="1.85"/>
		</g>
		<g>
			<circle fill="#AEBDC4" cx="34.61" cy="61.42" r="1.85"/>
			<circle fill="#AEBDC4" cx="37.67" cy="64.47" r="1.85"/>
			<circle fill="#AEBDC4" cx="40.72" cy="67.53" r="1.85"/>
			<circle fill="#AEBDC4" cx="43.78" cy="70.58" r="1.85"/>
			<circle fill="#AEBDC4" cx="46.83" cy="73.64" r="1.85"/>
		</g>
		<g>
			<circle fill="#AEBDC4" cx="75.19" cy="118.77" r="1.85"/>
			<circle fill="#AEBDC4" cx="78.24" cy="121.82" r="1.85"/>
			<circle fill="#AEBDC4" cx="81.3" cy="124.88" r="1.85"/>
			<circle fill="#AEBDC4" cx="84.35" cy="127.94" r="1.85"/>
			<circle fill="#AEBDC4" cx="87.41" cy="130.99" r="1.85"/>
		</g>
		<g>
			<circle fill="#AEBDC4" cx="79.38" cy="114.58" r="1.85"/>
			<circle fill="#AEBDC4" cx="82.44" cy="117.63" r="1.85"/>
			<circle fill="#AEBDC4" cx="85.49" cy="120.69" r="1.85"/>
			<circle fill="#AEBDC4" cx="88.55" cy="123.74" r="1.85"/>
			<circle fill="#AEBDC4" cx="91.6" cy="126.8" r="1.85"/>
		</g>
		<g>
			<circle fill="#AEBDC4" cx="35.75" cy="54.17" r="1.85"/>
			<circle fill="#AEBDC4" cx="38.81" cy="57.22" r="1.85"/>
			<circle fill="#AEBDC4" cx="41.86" cy="60.28" r="1.85"/>
			<circle fill="#AEBDC4" cx="44.92" cy="63.33" r="1.85"/>
			<circle fill="#AEBDC4" cx="47.97" cy="66.39" r="1.85"/>
			<circle fill="#AEBDC4" cx="51.03" cy="69.45" r="1.85"/>
		</g>
		<g>
			<circle fill="#AEBDC4" cx="39.94" cy="49.97" r="1.85"/>
			<circle fill="#AEBDC4" cx="43" cy="53.03" r="1.85"/>
			<circle fill="#AEBDC4" cx="46.06" cy="56.08" r="1.85"/>
			<circle fill="#AEBDC4" cx="49.11" cy="59.14" r="1.85"/>
			<circle fill="#AEBDC4" cx="52.17" cy="62.2" r="1.85"/>
			<circle fill="#AEBDC4" cx="55.22" cy="65.25" r="1.85"/>
		</g>
		<g>
			<circle fill="#AEBDC4" cx="83.58" cy="110.38" r="1.85"/>
			<circle fill="#AEBDC4" cx="86.63" cy="113.44" r="1.85"/>
			<circle fill="#AEBDC4" cx="89.69" cy="116.49" r="1.85"/>
			<circle fill="#AEBDC4" cx="92.74" cy="119.55" r="1.85"/>
			<circle fill="#AEBDC4" cx="95.8" cy="122.6" r="1.85"/>
			<circle fill="#AEBDC4" cx="98.85" cy="125.66" r="1.85"/>
		</g>
		<g>
			<circle fill="#AEBDC4" cx="87.77" cy="106.19" r="1.85"/>
			<circle fill="#AEBDC4" cx="90.82" cy="109.24" r="1.85"/>
			<circle fill="#AEBDC4" cx="93.88" cy="112.3" r="1.85"/>
			<circle fill="#AEBDC4" cx="96.94" cy="115.35" r="1.85"/>
			<circle fill="#AEBDC4" cx="99.99" cy="118.41" r="1.85"/>
			<circle fill="#AEBDC4" cx="103.05" cy="121.47" r="1.85"/>
		</g>
		<g>
			<circle fill="#AEBDC4" cx="41.08" cy="42.72" r="1.85"/>
			<circle fill="#AEBDC4" cx="44.14" cy="45.78" r="1.85"/>
			<circle fill="#AEBDC4" cx="47.19" cy="48.83" r="1.85"/>
			<circle fill="#AEBDC4" cx="50.25" cy="51.89" r="1.85"/>
			<circle fill="#AEBDC4" cx="53.3" cy="54.95" r="1.85"/>
			<circle fill="#AEBDC4" cx="56.36" cy="58" r="1.85"/>
			<circle fill="#AEBDC4" cx="59.42" cy="61.06" r="1.85"/>
		</g>
		<g>
			<circle fill="#AEBDC4" cx="91.96" cy="101.99" r="1.85"/>
			<circle fill="#AEBDC4" cx="95.02" cy="105.05" r="1.85"/>
			<circle fill="#AEBDC4" cx="98.07" cy="108.11" r="1.85"/>
			<circle fill="#AEBDC4" cx="101.13" cy="111.16" r="1.85"/>
			<circle fill="#AEBDC4" cx="104.18" cy="114.22" r="1.85"/>
			<circle fill="#AEBDC4" cx="107.24" cy="117.27" r="1.85"/>
			<circle fill="#AEBDC4" cx="110.3" cy="120.33" r="1.85"/>
		</g>
		<g>
			<circle fill="#AEBDC4" cx="96.16" cy="97.8" r="1.85"/>
			<circle fill="#AEBDC4" cx="99.21" cy="100.86" r="1.85"/>
			<circle fill="#AEBDC4" cx="102.27" cy="103.91" r="1.85"/>
			<circle fill="#AEBDC4" cx="105.32" cy="106.97" r="1.85"/>
			<circle fill="#AEBDC4" cx="108.38" cy="110.02" r="1.85"/>
			<circle fill="#AEBDC4" cx="111.43" cy="113.08" r="1.85"/>
			<circle fill="#AEBDC4" cx="114.49" cy="116.13" r="1.85"/>
			<circle fill="#AEBDC4" cx="117.54" cy="119.19" r="1.85"/>
		</g>
		<g>
			<circle fill="#AEBDC4" cx="42.22" cy="35.47" r="1.85"/>
			<circle fill="#AEBDC4" cx="45.28" cy="38.53" r="1.85"/>
			<circle fill="#AEBDC4" cx="48.33" cy="41.59" r="1.85"/>
			<circle fill="#AEBDC4" cx="51.39" cy="44.64" r="1.85"/>
			<circle fill="#AEBDC4" cx="54.44" cy="47.7" r="1.85"/>
			<circle fill="#AEBDC4" cx="57.5" cy="50.75" r="1.85"/>
			<circle fill="#AEBDC4" cx="60.55" cy="53.81" r="1.85"/>
			<circle fill="#AEBDC4" cx="63.61" cy="56.86" r="1.85"/>
			<circle fill="#AEBDC4" cx="66.66" cy="59.92" r="1.85"/>
			<circle fill="#AEBDC4" cx="69.73" cy="62.98" r="1.85"/>
			<circle fill="#AEBDC4" cx="72.79" cy="66.04" r="1.85"/>
			<circle fill="#AEBDC4" cx="75.85" cy="69.11" r="1.85"/>
			<circle fill="#AEBDC4" cx="78.91" cy="72.17" r="1.85"/>
			<circle fill="#AEBDC4" cx="81.98" cy="75.23" r="1.85"/>
			<circle fill="#AEBDC4" cx="85.04" cy="78.29" r="1.85"/>
			<circle fill="#AEBDC4" cx="88.1" cy="81.36" r="1.85"/>
			<circle fill="#AEBDC4" cx="91.16" cy="84.42" r="1.85"/>
			<circle fill="#AEBDC4" cx="94.22" cy="87.48" r="1.85"/>
			<circle fill="#AEBDC4" cx="97.29" cy="90.54" r="1.85"/>
			<circle fill="#AEBDC4" cx="100.35" cy="93.61" r="1.85"/>
			<circle fill="#AEBDC4" cx="103.41" cy="96.67" r="1.85"/>
			<circle fill="#AEBDC4" cx="106.47" cy="99.73" r="1.85"/>
			<circle fill="#AEBDC4" cx="109.54" cy="102.79" r="1.85"/>
			<circle fill="#AEBDC4" cx="112.6" cy="105.86" r="1.85"/>
			<circle fill="#AEBDC4" cx="115.66" cy="108.92" r="1.85"/>
			<circle fill="#AEBDC4" cx="118.72" cy="111.98" r="1.85"/>
			<circle fill="#AEBDC4" cx="121.78" cy="115.04" r="1.85"/>
		</g>
		<g>
			<circle fill="#AEBDC4" cx="44.74" cy="29.61" r="1.85"/>
			<circle fill="#AEBDC4" cx="47.8" cy="32.67" r="1.85"/>
			<circle fill="#AEBDC4" cx="50.86" cy="35.72" r="1.85"/>
			<circle fill="#AEBDC4" cx="53.91" cy="38.78" r="1.85"/>
			<circle fill="#AEBDC4" cx="56.97" cy="41.83" r="1.85"/>
			<circle fill="#AEBDC4" cx="60.02" cy="44.89" r="1.85"/>
			<circle fill="#AEBDC4" cx="63.08" cy="47.95" r="1.85"/>
			<circle fill="#AEBDC4" cx="66.13" cy="51" r="1.85"/>
			<circle fill="#AEBDC4" cx="69.19" cy="54.06" r="1.85"/>
			<circle fill="#AEBDC4" cx="72.25" cy="57.12" r="1.85"/>
			<circle fill="#AEBDC4" cx="75.31" cy="60.18" r="1.85"/>
			<circle fill="#AEBDC4" cx="78.38" cy="63.24" r="1.85"/>
			<circle fill="#AEBDC4" cx="81.44" cy="66.31" r="1.85"/>
			<circle fill="#AEBDC4" cx="84.5" cy="69.37" r="1.85"/>
			<circle fill="#AEBDC4" cx="87.56" cy="72.43" r="1.85"/>
			<circle fill="#AEBDC4" cx="90.62" cy="75.49" r="1.85"/>
			<circle fill="#AEBDC4" cx="93.69" cy="78.56" r="1.85"/>
			<circle fill="#AEBDC4" cx="96.75" cy="81.62" r="1.85"/>
			<circle fill="#AEBDC4" cx="99.81" cy="84.68" r="1.85"/>
			<circle fill="#AEBDC4" cx="102.87" cy="87.74" r="1.85"/>
			<circle fill="#AEBDC4" cx="105.94" cy="90.81" r="1.85"/>
			<circle fill="#AEBDC4" cx="109" cy="93.87" r="1.85"/>
			<circle fill="#AEBDC4" cx="112.06" cy="96.93" r="1.85"/>
			<circle fill="#AEBDC4" cx="115.12" cy="99.99" r="1.85"/>
			<circle fill="#AEBDC4" cx="118.19" cy="103.06" r="1.85"/>
			<circle fill="#AEBDC4" cx="121.25" cy="106.12" r="1.85"/>
			<circle fill="#AEBDC4" cx="124.31" cy="109.18" r="1.85"/>
			<circle fill="#AEBDC4" cx="127.37" cy="112.24" r="1.85"/>
		</g>
		<g>
			<circle fill="#AEBDC4" cx="45.88" cy="22.36" r="1.85"/>
			<circle fill="#AEBDC4" cx="48.94" cy="25.41" r="1.85"/>
			<circle fill="#AEBDC4" cx="51.99" cy="28.47" r="1.85"/>
			<circle fill="#AEBDC4" cx="55.05" cy="31.53" r="1.85"/>
			<circle fill="#AEBDC4" cx="58.1" cy="34.58" r="1.85"/>
			<circle fill="#AEBDC4" cx="61.16" cy="37.64" r="1.85"/>
			<circle fill="#AEBDC4" cx="64.21" cy="40.69" r="1.85"/>
			<circle fill="#AEBDC4" cx="67.27" cy="43.75" r="1.85"/>
			<circle fill="#AEBDC4" cx="70.32" cy="46.8" r="1.85"/>
			<circle fill="#AEBDC4" cx="73.39" cy="49.87" r="1.85"/>
			<circle fill="#AEBDC4" cx="76.45" cy="52.93" r="1.85"/>
			<circle fill="#AEBDC4" cx="79.51" cy="55.99" r="1.85"/>
			<circle fill="#AEBDC4" cx="82.57" cy="59.05" r="1.85"/>
			<circle fill="#AEBDC4" cx="85.64" cy="62.12" r="1.85"/>
			<circle fill="#AEBDC4" cx="88.7" cy="65.18" r="1.85"/>
			<circle fill="#AEBDC4" cx="91.76" cy="68.24" r="1.85"/>
			<circle fill="#AEBDC4" cx="94.82" cy="71.3" r="1.85"/>
			<circle fill="#AEBDC4" cx="97.88" cy="74.37" r="1.85"/>
			<circle fill="#AEBDC4" cx="100.95" cy="77.43" r="1.85"/>
			<circle fill="#AEBDC4" cx="104.01" cy="80.49" r="1.85"/>
			<circle fill="#AEBDC4" cx="107.07" cy="83.55" r="1.85"/>
			<circle fill="#AEBDC4" cx="110.13" cy="86.62" r="1.85"/>
			<circle fill="#AEBDC4" cx="113.2" cy="89.68" r="1.85"/>
			<circle fill="#AEBDC4" cx="116.26" cy="92.74" r="1.85"/>
			<circle fill="#AEBDC4" cx="119.32" cy="95.8" r="1.85"/>
			<circle fill="#AEBDC4" cx="122.38" cy="98.87" r="1.85"/>
			<circle fill="#AEBDC4" cx="125.44" cy="101.93" r="1.85"/>
			<circle fill="#AEBDC4" cx="128.51" cy="104.99" r="1.85"/>
			<circle fill="#AEBDC4" cx="131.57" cy="108.05" r="1.85"/>
			<circle fill="#AEBDC4" cx="134.63" cy="111.12" r="1.85"/>
		</g>
	</g>
</g>
</svg>
