<?xml version="1.0" encoding="utf-8"?>
<!-- Generator: Adobe Illustrator 23.0.1, SVG Export Plug-In . SVG Version: 6.00 Build 0)  -->
<svg version="1.1" id="Layer_1" xmlns="http://www.w3.org/2000/svg" xmlns:xlink="http://www.w3.org/1999/xlink" x="0px" y="0px"
	 viewBox="0 0 168 168" style="enable-background:new 0 0 168 168;" xml:space="preserve">
<style type="text/css">
	.st0{fill:#F1F3F4;stroke:#BCC8CE;stroke-width:0.4;stroke-linecap:round;stroke-miterlimit:10;}
	.st1{fill:#AEBDC4;}
	.st2{font-family:'Roboto-Medium';}
	.st3{font-size:3px;}
</style>
<polygon class="st0" points="123.7,167.6 167.5,151.2 16.8,0.5 0.4,44.4 "/>
<g 
  data-sort-seat-direction="rtl" 
  data-sort-line-direction="ttb" 
  data-sort-seat-option="cy" 
  data-sort-line-option="order" 
  data-line-start="15"
  >
	<g>
		<circle class="st1" cx="23.3" cy="22.3" r="1.9"/>
		<circle class="st1" cx="26.3" cy="25.4" r="1.9"/>
		<circle class="st1" cx="29.4" cy="28.4" r="1.9"/>
		<circle class="st1" cx="32.4" cy="31.5" r="1.8"/>
		<circle class="st1" cx="35.5" cy="34.5" r="1.8"/>
		<circle class="st1" cx="38.5" cy="37.6" r="1.8"/>
		<circle class="st1" cx="41.6" cy="40.6" r="1.8"/>
		<circle class="st1" cx="44.7" cy="43.7" r="1.8"/>
		<circle class="st1" cx="47.7" cy="46.7" r="1.8"/>
		<circle class="st1" cx="50.8" cy="49.8" r="1.8"/>
		<circle class="st1" cx="53.8" cy="52.9" r="1.8"/>
		<circle class="st1" cx="56.9" cy="55.9" r="1.8"/>
		<circle class="st1" cx="60" cy="59" r="1.8"/>
		<circle class="st1" cx="63" cy="62" r="1.8"/>
		<circle class="st1" cx="66.1" cy="65.1" r="1.8"/>
		<circle class="st1" cx="69.2" cy="68.2" r="1.8"/>
		<circle class="st1" cx="72.2" cy="71.2" r="1.8"/>
		<circle class="st1" cx="75.3" cy="74.3" r="1.8"/>
		<circle class="st1" cx="78.3" cy="77.4" r="1.8"/>
		<circle class="st1" cx="81.4" cy="80.4" r="1.8"/>
		<circle class="st1" cx="84.5" cy="83.5" r="1.8"/>
		<circle class="st1" cx="87.5" cy="86.6" r="1.8"/>
		<circle class="st1" cx="90.6" cy="89.6" r="1.8"/>
		<circle class="st1" cx="93.6" cy="92.7" r="1.8"/>
		<circle class="st1" cx="96.7" cy="95.7" r="1.8"/>
		<circle class="st1" cx="99.8" cy="98.8" r="1.8"/>
		<circle class="st1" cx="102.8" cy="101.9" r="1.8"/>
		<circle class="st1" cx="105.9" cy="104.9" r="1.8"/>
		<circle class="st1" cx="109" cy="108" r="1.8"/>
		<circle class="st1" cx="112" cy="111.1" r="1.8"/>
		<circle class="st1" cx="115.1" cy="114.1" r="1.8"/>
		<circle class="st1" cx="118.1" cy="117.2" r="1.8"/>
		<circle class="st1" cx="121.2" cy="120.2" r="1.8"/>
		<circle class="st1" cx="124.3" cy="123.3" r="1.8"/>
		<circle class="st1" cx="127.3" cy="126.4" r="1.9"/>
		<circle class="st1" cx="130.4" cy="129.4" r="1.9"/>
		<circle class="st1" cx="133.4" cy="132.5" r="1.9"/>
		<circle class="st1" cx="136.5" cy="135.6" r="1.9"/>
		<circle class="st1" cx="139.6" cy="138.6" r="1.9"/>
		<circle class="st1" cx="142.6" cy="141.7" r="1.9"/>
		<circle class="st1" cx="145.7" cy="144.7" r="1.9"/>
		<text transform="matrix(0.7071 0.7071 -0.7071 0.7071 17.9258 18.4426)" class="st1 st2 st3">00</text>
		<text transform="matrix(0.7071 0.7071 -0.7071 0.7071 147.1494 147.6658)" class="st1 st2 st3">00</text>
	</g>
	<g>
		<circle class="st1" cx="26.6" cy="34" r="1.8"/>
		<circle class="st1" cx="29.6" cy="37" r="1.8"/>
		<circle class="st1" cx="32.7" cy="40.1" r="1.8"/>
		<circle class="st1" cx="35.8" cy="43.2" r="1.8"/>
		<circle class="st1" cx="38.8" cy="46.2" r="1.8"/>
		<circle class="st1" cx="41.9" cy="49.3" r="1.8"/>
		<circle class="st1" cx="44.9" cy="52.3" r="1.8"/>
		<circle class="st1" cx="48" cy="55.4" r="1.8"/>
		<circle class="st1" cx="51" cy="58.4" r="1.8"/>
		<circle class="st1" cx="54.1" cy="61.5" r="1.8"/>
		<circle class="st1" cx="57.2" cy="64.6" r="1.8"/>
		<circle class="st1" cx="60.2" cy="67.6" r="1.8"/>
		<circle class="st1" cx="63.3" cy="70.7" r="1.8"/>
		<circle class="st1" cx="66.3" cy="73.8" r="1.8"/>
		<circle class="st1" cx="69.4" cy="76.8" r="1.8"/>
		<circle class="st1" cx="72.5" cy="79.9" r="1.8"/>
		<circle class="st1" cx="75.5" cy="82.9" r="1.8"/>
		<circle class="st1" cx="78.6" cy="86" r="1.8"/>
		<circle class="st1" cx="81.7" cy="89.1" r="1.8"/>
		<circle class="st1" cx="84.7" cy="92.1" r="1.8"/>
		<circle class="st1" cx="87.8" cy="95.2" r="1.8"/>
		<circle class="st1" cx="90.8" cy="98.2" r="1.8"/>
		<circle class="st1" cx="93.9" cy="101.3" r="1.8"/>
		<circle class="st1" cx="97" cy="104.4" r="1.8"/>
		<circle class="st1" cx="100" cy="107.4" r="1.8"/>
		<circle class="st1" cx="103.1" cy="110.5" r="1.8"/>
		<circle class="st1" cx="106.2" cy="113.6" r="1.8"/>
		<circle class="st1" cx="109.2" cy="116.6" r="1.8"/>
		<circle class="st1" cx="112.3" cy="119.7" r="1.8"/>
		<circle class="st1" cx="115.3" cy="122.8" r="1.8"/>
		<circle class="st1" cx="118.4" cy="125.8" r="1.8"/>
		<circle class="st1" cx="121.5" cy="128.9" r="1.9"/>
		<circle class="st1" cx="124.5" cy="131.9" r="1.9"/>
		<circle class="st1" cx="127.6" cy="135" r="1.9"/>
		<circle class="st1" cx="130.6" cy="138.1" r="1.9"/>
		<circle class="st1" cx="133.7" cy="141.1" r="1.9"/>
		<text transform="matrix(0.7071 0.7071 -0.7071 0.7071 21.2461 30.1426)" class="st1 st2 st3">00</text>
		<text transform="matrix(0.7071 0.7071 -0.7071 0.7071 135.1592 144.0559)" class="st1 st2 st3">00</text>
	</g>
	<g>
		<circle class="st1" cx="22.4" cy="38.2" r="1.8"/>
		<circle class="st1" cx="25.4" cy="41.2" r="1.8"/>
		<circle class="st1" cx="28.5" cy="44.3" r="1.8"/>
		<circle class="st1" cx="31.5" cy="47.3" r="1.8"/>
		<circle class="st1" cx="34.6" cy="50.4" r="1.8"/>
		<circle class="st1" cx="37.7" cy="53.5" r="1.8"/>
		<circle class="st1" cx="40.7" cy="56.5" r="1.8"/>
		<circle class="st1" cx="43.8" cy="59.6" r="1.8"/>
		<circle class="st1" cx="46.8" cy="62.6" r="1.8"/>
		<circle class="st1" cx="49.9" cy="65.7" r="1.8"/>
		<circle class="st1" cx="53" cy="68.8" r="1.8"/>
		<circle class="st1" cx="56" cy="71.8" r="1.8"/>
		<circle class="st1" cx="59.1" cy="74.9" r="1.8"/>
		<circle class="st1" cx="62.1" cy="77.9" r="1.8"/>
		<circle class="st1" cx="65.2" cy="81" r="1.8"/>
		<circle class="st1" cx="68.3" cy="84.1" r="1.8"/>
		<circle class="st1" cx="71.3" cy="87.1" r="1.8"/>
		<circle class="st1" cx="74.4" cy="90.2" r="1.8"/>
		<circle class="st1" cx="77.4" cy="93.3" r="1.8"/>
		<circle class="st1" cx="80.5" cy="96.3" r="1.8"/>
		<circle class="st1" cx="83.6" cy="99.4" r="1.8"/>
		<circle class="st1" cx="86.6" cy="102.4" r="1.8"/>
		<circle class="st1" cx="89.7" cy="105.5" r="1.8"/>
		<circle class="st1" cx="92.8" cy="108.6" r="1.8"/>
		<circle class="st1" cx="95.8" cy="111.6" r="1.8"/>
		<circle class="st1" cx="98.9" cy="114.7" r="1.8"/>
		<circle class="st1" cx="101.9" cy="117.8" r="1.8"/>
		<circle class="st1" cx="105" cy="120.8" r="1.8"/>
		<circle class="st1" cx="108.1" cy="123.9" r="1.8"/>
		<circle class="st1" cx="111.1" cy="126.9" r="1.9"/>
		<circle class="st1" cx="114.2" cy="130" r="1.9"/>
		<circle class="st1" cx="117.3" cy="133.1" r="1.9"/>
		<circle class="st1" cx="120.3" cy="136.1" r="1.9"/>
		<circle class="st1" cx="123.4" cy="139.2" r="1.9"/>
		<circle class="st1" cx="126.4" cy="142.2" r="1.9"/>
		<circle class="st1" cx="129.5" cy="145.3" r="1.9"/>
		<text transform="matrix(0.7071 0.7071 -0.7071 0.7071 17.0508 34.3374)" class="st1 st2 st3">00</text>
		<text transform="matrix(0.7071 0.7071 -0.7071 0.7071 130.9648 148.2507)" class="st1 st2 st3">00</text>
	</g>
	<g>
		<circle class="st1" cx="21.2" cy="45.4" r="1.8"/>
		<circle class="st1" cx="24.3" cy="48.5" r="1.8"/>
		<circle class="st1" cx="27.4" cy="51.5" r="1.8"/>
		<circle class="st1" cx="30.4" cy="54.6" r="1.8"/>
		<circle class="st1" cx="33.5" cy="57.7" r="1.8"/>
		<circle class="st1" cx="36.5" cy="60.7" r="1.8"/>
		<circle class="st1" cx="39.6" cy="63.8" r="1.8"/>
		<circle class="st1" cx="42.6" cy="66.8" r="1.8"/>
		<circle class="st1" cx="45.7" cy="69.9" r="1.8"/>
		<circle class="st1" cx="48.8" cy="72.9" r="1.8"/>
		<circle class="st1" cx="51.8" cy="76" r="1.8"/>
		<circle class="st1" cx="54.9" cy="79.1" r="1.8"/>
		<circle class="st1" cx="58" cy="82.1" r="1.8"/>
		<circle class="st1" cx="61" cy="85.2" r="1.8"/>
		<circle class="st1" cx="64.1" cy="88.3" r="1.8"/>
		<circle class="st1" cx="67.1" cy="91.3" r="1.8"/>
		<circle class="st1" cx="70.2" cy="94.4" r="1.8"/>
		<circle class="st1" cx="73.3" cy="97.4" r="1.8"/>
		<circle class="st1" cx="76.3" cy="100.5" r="1.8"/>
		<circle class="st1" cx="79.4" cy="103.6" r="1.8"/>
		<circle class="st1" cx="82.4" cy="106.6" r="1.8"/>
		<circle class="st1" cx="85.5" cy="109.7" r="1.8"/>
		<circle class="st1" cx="88.6" cy="112.8" r="1.8"/>
		<circle class="st1" cx="91.6" cy="115.8" r="1.8"/>
		<circle class="st1" cx="94.7" cy="118.9" r="1.8"/>
		<circle class="st1" cx="97.8" cy="121.9" r="1.8"/>
		<circle class="st1" cx="100.8" cy="125" r="1.8"/>
		<circle class="st1" cx="103.9" cy="128.1" r="1.9"/>
		<circle class="st1" cx="106.9" cy="131.1" r="1.9"/>
		<circle class="st1" cx="110" cy="134.2" r="1.9"/>
		<circle class="st1" cx="113.1" cy="137.3" r="1.9"/>
		<circle class="st1" cx="116.1" cy="140.3" r="1.9"/>
		<circle class="st1" cx="119.2" cy="143.4" r="1.9"/>
		<circle class="st1" cx="122.2" cy="146.4" r="1.9"/>
		<text transform="matrix(0.7071 0.7071 -0.7071 0.7071 15.916 41.5825)" class="st1 st2 st3">00</text>
		<text transform="matrix(0.7071 0.7071 -0.7071 0.7071 123.709 149.3757)" class="st1 st2 st3">00</text>
	</g>
</g>
</svg>
