<?xml version="1.0" encoding="utf-8"?>
<!-- Generator: Adobe Illustrator 23.0.1, SVG Export Plug-In . SVG Version: 6.00 Build 0)  -->
<svg version="1.1" id="Layer_1" xmlns="http://www.w3.org/2000/svg" xmlns:xlink="http://www.w3.org/1999/xlink" x="0px" y="0px"
	 width="41px" height="36px" viewBox="0 0 41 36" enable-background="new 0 0 41 36" xml:space="preserve">
<g onclick="this.parentNode.sekt.push(this);this.a_name=&quot;президент центр&quot;;">
	
		<rect x="2.9" y="-2.2" onclick="this.parentNode.a_fon=this;" transform="matrix(-1.836970e-16 1 -1 -1.836970e-16 38.5 -2.5)" fill="#F1F3F4" stroke="#BCC8CE" stroke-width="0.4" stroke-linecap="round" stroke-miterlimit="10" width="35.2" height="40.4"/>
	<g onclick="this.parentNode.a_row=this;">
		<g onclick="this.a_par={beg_namb:1,quant:3};">
			<line fill="none" stroke="#D3DBDF" stroke-width="0.4" stroke-miterlimit="10" x1="26.67" y1="29.76" x2="14.33" y2="29.76"/>
		</g>
		<g onclick="this.a_par={beg_namb:4,quant:3};">
			<line fill="none" stroke="#D3DBDF" stroke-width="0.4" stroke-miterlimit="10" x1="26.67" y1="23.83" x2="14.33" y2="23.83"/>
		</g>
	</g>
	<g onclick="this.parentNode.a_text=this;">
		<text transform="matrix(0.9999 0 0 1 2.3903 9.8208)"><tspan x="0" y="0" font-family="'OpenSans-Semibold'" font-size="6.3996px">п</tspan><tspan x="4.27" y="0" font-family="'OpenSans-Semibold'" font-size="6.3996px">р</tspan><tspan x="8.5" y="0" font-family="'OpenSans-Semibold'" font-size="6.3996px">е</tspan><tspan x="12.39" y="0" font-family="'OpenSans-Semibold'" font-size="6.3996px">з</tspan><tspan x="15.95" y="0" font-family="'OpenSans-Semibold'" font-size="6.3996px">и</tspan><tspan x="20.52" y="0" font-family="'OpenSans-Semibold'" font-size="6.3996px">д</tspan><tspan x="24.68" y="0" font-family="'OpenSans-Semibold'" font-size="6.3996px">е</tspan><tspan x="28.59" y="0" font-family="'OpenSans-Semibold'" font-size="6.3996px">н</tspan><tspan x="32.96" y="0" font-family="'OpenSans-Semibold'" font-size="6.3996px">т</tspan><tspan x="8.03" y="7.2" font-family="'OpenSans-Semibold'" font-size="6.3996px">ц</tspan><tspan x="12.44" y="7.2" font-family="'OpenSans-Semibold'" font-size="6.3996px">е</tspan><tspan x="16.36" y="7.2" font-family="'OpenSans-Semibold'" font-size="6.3996px">нт</tspan><tspan x="24.21" y="7.2" font-family="'OpenSans-Semibold'" font-size="6.3996px">р</tspan></text>
	</g>
	<g>
		<g>
			<circle fill="#AEBDC4" cx="16.18" cy="23.83" r="1.85"/>
			<circle fill="#AEBDC4" cx="20.5" cy="23.83" r="1.85"/>
			<circle fill="#AEBDC4" cx="24.82" cy="23.83" r="1.85"/>
		</g>
		<g>
			<circle fill="#AEBDC4" cx="16.18" cy="29.76" r="1.85"/>
			<circle fill="#AEBDC4" cx="20.5" cy="29.76" r="1.85"/>
			<circle fill="#AEBDC4" cx="24.82" cy="29.76" r="1.85"/>
		</g>
	</g>
</g>
</svg>
