<?xml version="1.0" encoding="utf-8"?>
<!-- Generator: Adobe Illustrator 23.0.1, SVG Export Plug-In . SVG Version: 6.00 Build 0)  -->
<svg version="1.1" id="Layer_1" xmlns="http://www.w3.org/2000/svg" xmlns:xlink="http://www.w3.org/1999/xlink" x="0px" y="0px"
	 width="56px" height="36px" viewBox="0 0 56 36" enable-background="new 0 0 56 36" xml:space="preserve">
<g onclick="this.parentNode.sekt.push(this);this.a_name=&quot;президент левый&quot;;">
	
		<rect x="10.4" y="-9.8" onclick="this.parentNode.a_fon=this;" transform="matrix(-1.836970e-16 1 -1 -1.836970e-16 46 -10)" fill="#F1F3F4" stroke="#BCC8CE" stroke-width="0.4" stroke-linecap="round" stroke-miterlimit="10" width="35.2" height="55.59"/>
	<g onclick="this.parentNode.a_row=this;">
		<g onclick="this.a_par={beg_namb:1,quant:12};">
			<line fill="none" stroke="#D3DBDF" stroke-width="0.4" stroke-miterlimit="10" x1="53.63" y1="29.76" x2="2.37" y2="29.76"/>
		</g>
		<g onclick="this.a_par={beg_namb:13,quant:12};">
			<line fill="none" stroke="#D3DBDF" stroke-width="0.4" stroke-miterlimit="10" x1="53.63" y1="23.83" x2="2.37" y2="23.83"/>
		</g>
	</g>
	<g onclick="this.parentNode.a_text=this;">
		<text transform="matrix(0.9999 0 0 1 9.8878 9.8169)"><tspan x="0" y="0" font-family="'OpenSans-Semibold'" font-size="6.3996px">п</tspan><tspan x="4.27" y="0" font-family="'OpenSans-Semibold'" font-size="6.3996px">р</tspan><tspan x="8.5" y="0" font-family="'OpenSans-Semibold'" font-size="6.3996px">е</tspan><tspan x="12.39" y="0" font-family="'OpenSans-Semibold'" font-size="6.3996px">з</tspan><tspan x="15.95" y="0" font-family="'OpenSans-Semibold'" font-size="6.3996px">и</tspan><tspan x="20.52" y="0" font-family="'OpenSans-Semibold'" font-size="6.3996px">д</tspan><tspan x="24.68" y="0" font-family="'OpenSans-Semibold'" font-size="6.3996px">е</tspan><tspan x="28.59" y="0" font-family="'OpenSans-Semibold'" font-size="6.3996px">н</tspan><tspan x="32.96" y="0" font-family="'OpenSans-Semibold'" font-size="6.3996px">т</tspan><tspan x="7.19" y="7.2" font-family="'OpenSans-Semibold'" font-size="6.3996px">л</tspan><tspan x="11.29" y="7.2" font-family="'OpenSans-Semibold'" font-size="6.3996px">е</tspan><tspan x="15.2" y="7.2" font-family="'OpenSans-Semibold'" font-size="6.3996px">в</tspan><tspan x="19.32" y="7.2" font-family="'OpenSans-Semibold'" font-size="6.3996px">ы</tspan><tspan x="24.71" y="7.2" font-family="'OpenSans-Semibold'" font-size="6.3996px">й</tspan></text>
	</g>
	<g>
		<g>
			<circle fill="#AEBDC4" cx="4.22" cy="23.83" r="1.85"/>
			<circle fill="#AEBDC4" cx="8.54" cy="23.83" r="1.85"/>
			<circle fill="#AEBDC4" cx="12.86" cy="23.83" r="1.85"/>
			<circle fill="#AEBDC4" cx="17.18" cy="23.83" r="1.85"/>
			<circle fill="#AEBDC4" cx="21.5" cy="23.83" r="1.85"/>
			<circle fill="#AEBDC4" cx="25.83" cy="23.83" r="1.85"/>
			<circle fill="#AEBDC4" cx="30.15" cy="23.83" r="1.85"/>
			<circle fill="#AEBDC4" cx="34.47" cy="23.83" r="1.85"/>
			<circle fill="#AEBDC4" cx="38.79" cy="23.83" r="1.85"/>
			<circle fill="#AEBDC4" cx="43.12" cy="23.83" r="1.85"/>
			<circle fill="#AEBDC4" cx="47.45" cy="23.83" r="1.85"/>
			<circle fill="#AEBDC4" cx="51.78" cy="23.83" r="1.85"/>
		</g>
		<g>
			<circle fill="#AEBDC4" cx="4.22" cy="29.76" r="1.85"/>
			<circle fill="#AEBDC4" cx="8.54" cy="29.76" r="1.85"/>
			<circle fill="#AEBDC4" cx="12.86" cy="29.76" r="1.85"/>
			<circle fill="#AEBDC4" cx="17.18" cy="29.76" r="1.85"/>
			<circle fill="#AEBDC4" cx="21.5" cy="29.76" r="1.85"/>
			<circle fill="#AEBDC4" cx="25.83" cy="29.76" r="1.85"/>
			<circle fill="#AEBDC4" cx="30.15" cy="29.76" r="1.85"/>
			<circle fill="#AEBDC4" cx="34.47" cy="29.76" r="1.85"/>
			<circle fill="#AEBDC4" cx="38.79" cy="29.76" r="1.85"/>
			<circle fill="#AEBDC4" cx="43.12" cy="29.76" r="1.85"/>
			<circle fill="#AEBDC4" cx="47.45" cy="29.76" r="1.85"/>
			<circle fill="#AEBDC4" cx="51.78" cy="29.76" r="1.85"/>
		</g>
	</g>
</g>
</svg>
