<?xml version="1.0" encoding="utf-8"?>
<!-- Generator: Adobe Illustrator 23.0.1, SVG Export Plug-In . SVG Version: 6.00 Build 0)  -->
<svg version="1.1" id="Layer_1" xmlns="http://www.w3.org/2000/svg" xmlns:xlink="http://www.w3.org/1999/xlink" x="0px" y="0px"
	 viewBox="0 0 56 36" enable-background="new 0 0 56 36" xml:space="preserve">
<g onclick="this.parentNode.sekt.push(this);this.a_name=&quot;президент  левый&quot;;">
	
		<rect x="0.21" y="0.4" onclick="this.parentNode.a_fon=this;" fill="#F1F3F4" stroke="#BCC8CE" stroke-width="0.4" stroke-linecap="round" stroke-miterlimit="10" width="55.59" height="35.2"/>
	<g>
		<circle fill="#AEBDC4" cx="4.22" cy="29.76" r="1.85"/>
		<circle fill="#AEBDC4" cx="8.54" cy="29.76" r="1.85"/>
		<circle fill="#AEBDC4" cx="12.86" cy="29.76" r="1.85"/>
		<circle fill="#AEBDC4" cx="17.18" cy="29.76" r="1.85"/>
		<circle fill="#AEBDC4" cx="21.5" cy="29.76" r="1.85"/>
		<circle fill="#AEBDC4" cx="25.83" cy="29.76" r="1.85"/>
		<circle fill="#AEBDC4" cx="30.15" cy="29.76" r="1.85"/>
		<circle fill="#AEBDC4" cx="34.47" cy="29.76" r="1.85"/>
		<circle fill="#AEBDC4" cx="38.79" cy="29.76" r="1.85"/>
		<circle fill="#AEBDC4" cx="43.12" cy="29.76" r="1.85"/>
		<circle fill="#AEBDC4" cx="47.45" cy="29.76" r="1.85"/>
		<circle fill="#AEBDC4" cx="51.78" cy="29.76" r="1.85"/>
	</g>
	<g>
		<circle fill="#AEBDC4" cx="4.22" cy="23.83" r="1.85"/>
		<circle fill="#AEBDC4" cx="8.54" cy="23.83" r="1.85"/>
		<circle fill="#AEBDC4" cx="12.86" cy="23.83" r="1.85"/>
		<circle fill="#AEBDC4" cx="17.18" cy="23.83" r="1.85"/>
		<circle fill="#AEBDC4" cx="21.5" cy="23.83" r="1.85"/>
		<circle fill="#AEBDC4" cx="25.83" cy="23.83" r="1.85"/>
		<circle fill="#AEBDC4" cx="30.15" cy="23.83" r="1.85"/>
		<circle fill="#AEBDC4" cx="34.47" cy="23.83" r="1.85"/>
		<circle fill="#AEBDC4" cx="38.79" cy="23.83" r="1.85"/>
		<circle fill="#AEBDC4" cx="43.12" cy="23.83" r="1.85"/>
		<circle fill="#AEBDC4" cx="47.45" cy="23.83" r="1.85"/>
		<circle fill="#AEBDC4" cx="51.78" cy="23.83" r="1.85"/>
	</g>
</g>
</svg>
