<svg xmlns="http://www.w3.org/2000/svg" viewBox="0 0 130 172">
    <path fill="#F1F3F4" stroke="#BCC8CE" stroke-width=".4" stroke-linecap="round" stroke-miterlimit="10" d="M58.5.4v35.2H.51V.4H58.5z"/>
    <g fill="#AEBDC4">
        <circle cx="5.72" cy="23.83" r="1.85"/>
        <circle cx="10.04" cy="23.83" r="1.85"/>
        <circle cx="14.36" cy="23.83" r="1.85"/>
        <circle cx="18.68" cy="23.83" r="1.85"/>
        <circle cx="23" cy="23.83" r="1.85"/>
        <circle cx="27.33" cy="23.83" r="1.85"/>
        <circle cx="31.65" cy="23.83" r="1.85"/>
        <circle cx="35.97" cy="23.83" r="1.85"/>
        <circle cx="40.29" cy="23.83" r="1.85"/>
        <circle cx="44.62" cy="23.83" r="1.85"/>
        <circle cx="48.95" cy="23.83" r="1.85"/>
        <circle cx="53.28" cy="23.83" r="1.85"/>
        <circle cx="3.55" cy="29.76" r="1.85"/>
        <circle cx="7.88" cy="29.76" r="1.85"/>
        <circle cx="12.2" cy="29.76" r="1.85"/>
        <circle cx="16.52" cy="29.76" r="1.85"/>
        <circle cx="20.84" cy="29.76" r="1.85"/>
        <circle cx="25.16" cy="29.76" r="1.85"/>
        <circle cx="29.48" cy="29.76" r="1.85"/>
        <circle cx="33.8" cy="29.76" r="1.85"/>
        <circle cx="38.12" cy="29.76" r="1.85"/>
        <circle cx="42.45" cy="29.76" r="1.85"/>
        <circle cx="46.78" cy="29.76" r="1.85"/>
        <circle cx="51.12" cy="29.76" r="1.85"/>
        <circle cx="55.45" cy="29.76" r="1.85"/>
    </g>
</svg>
