<?xml version="1.0" encoding="utf-8"?>
<!-- Generator: Adobe Illustrator 23.0.1, SVG Export Plug-In . SVG Version: 6.00 Build 0)  -->
<svg version="1.1" id="Layer_1" xmlns="http://www.w3.org/2000/svg" xmlns:xlink="http://www.w3.org/1999/xlink" x="0px" y="0px"
  viewBox="0 0 59 36" enable-background="new 0 0 59 36" xml:space="preserve">
  <rect x="0.51" y="0.4" fill="#F1F3F4" stroke="#BCC8CE" stroke-width="0.4" stroke-linecap="round" stroke-miterlimit="10" width="57.99" height="35.2"/>
  <g 
    data-sort-seat-direction="ltr" 
    data-sort-line-direction="ttb" 
    data-sort-seat-option="cx" 
    data-sort-line-option="cy" 
    data-line-start="1"
    >
    <g>
      <circle fill="#AEBDC4" cx="3.55" cy="29.76" r="1.85"/>
      <circle fill="#AEBDC4" cx="7.88" cy="29.76" r="1.85"/>
      <circle fill="#AEBDC4" cx="12.2" cy="29.76" r="1.85"/>
      <circle fill="#AEBDC4" cx="16.52" cy="29.76" r="1.85"/>
      <circle fill="#AEBDC4" cx="20.84" cy="29.76" r="1.85"/>
      <circle fill="#AEBDC4" cx="25.16" cy="29.76" r="1.85"/>
      <circle fill="#AEBDC4" cx="29.48" cy="29.76" r="1.85"/>
      <circle fill="#AEBDC4" cx="33.8" cy="29.76" r="1.85"/>
      <circle fill="#AEBDC4" cx="38.12" cy="29.76" r="1.85"/>
      <circle fill="#AEBDC4" cx="42.45" cy="29.76" r="1.85"/>
      <circle fill="#AEBDC4" cx="46.78" cy="29.76" r="1.85"/>
      <circle fill="#AEBDC4" cx="51.12" cy="29.76" r="1.85"/>
      <circle fill="#AEBDC4" cx="55.45" cy="29.76" r="1.85"/>
    </g>
    <g>
      <circle fill="#AEBDC4" cx="5.72" cy="23.83" r="1.85"/>
      <circle fill="#AEBDC4" cx="10.04" cy="23.83" r="1.85"/>
      <circle fill="#AEBDC4" cx="14.36" cy="23.83" r="1.85"/>
      <circle fill="#AEBDC4" cx="18.68" cy="23.83" r="1.85"/>
      <circle fill="#AEBDC4" cx="23" cy="23.83" r="1.85"/>
      <circle fill="#AEBDC4" cx="27.33" cy="23.83" r="1.85"/>
      <circle fill="#AEBDC4" cx="31.65" cy="23.83" r="1.85"/>
      <circle fill="#AEBDC4" cx="35.97" cy="23.83" r="1.85"/>
      <circle fill="#AEBDC4" cx="40.29" cy="23.83" r="1.85"/>
      <circle fill="#AEBDC4" cx="44.62" cy="23.83" r="1.85"/>
      <circle fill="#AEBDC4" cx="48.95" cy="23.83" r="1.85"/>
      <circle fill="#AEBDC4" cx="53.28" cy="23.83" r="1.85"/>
    </g>
  </g>
</svg>
