<?xml version="1.0" encoding="utf-8"?>
<!-- Generator: Adobe Illustrator 23.0.1, SVG Export Plug-In . SVG Version: 6.00 Build 0)  -->
<svg version="1.1" id="Layer_1" xmlns="http://www.w3.org/2000/svg" xmlns:xlink="http://www.w3.org/1999/xlink" x="0px" y="0px"
	 width="59px" height="36px" viewBox="0 0 59 36" enable-background="new 0 0 59 36" xml:space="preserve">
<g onclick="this.parentNode.sekt.push(this);this.a_name=&quot;президент правый&quot;;">
	
		<rect x="11.9" y="-11" onclick="this.parentNode.a_fon=this;" transform="matrix(-1.836970e-16 1 -1 -1.836970e-16 47.5 -11.5)" fill="#F1F3F4" stroke="#BCC8CE" stroke-width="0.4" stroke-linecap="round" stroke-miterlimit="10" width="35.2" height="57.99"/>
	<g onclick="this.parentNode.a_row=this;">
		<g onclick="this.a_par={beg_namb:1,quant:13};">
			<line fill="none" stroke="#D3DBDF" stroke-width="0.4" stroke-miterlimit="10" x1="57.33" y1="29.76" x2="1.67" y2="29.76"/>
		</g>
		<g onclick="this.a_par={beg_namb:14,quant:12};">
			<line fill="none" stroke="#D3DBDF" stroke-width="0.4" stroke-miterlimit="10" x1="55.13" y1="23.83" x2="3.87" y2="23.83"/>
		</g>
	</g>
	<g onclick="this.parentNode.a_text=this;">
		<text transform="matrix(0.9999 0 0 1 11.3922 9.8208)"><tspan x="0" y="0" font-family="'OpenSans-Semibold'" font-size="6.3996px">п</tspan><tspan x="4.27" y="0" font-family="'OpenSans-Semibold'" font-size="6.3996px">р</tspan><tspan x="8.5" y="0" font-family="'OpenSans-Semibold'" font-size="6.3996px">е</tspan><tspan x="12.39" y="0" font-family="'OpenSans-Semibold'" font-size="6.3996px">з</tspan><tspan x="15.95" y="0" font-family="'OpenSans-Semibold'" font-size="6.3996px">и</tspan><tspan x="20.52" y="0" font-family="'OpenSans-Semibold'" font-size="6.3996px">д</tspan><tspan x="24.68" y="0" font-family="'OpenSans-Semibold'" font-size="6.3996px">е</tspan><tspan x="28.59" y="0" font-family="'OpenSans-Semibold'" font-size="6.3996px">н</tspan><tspan x="32.96" y="0" font-family="'OpenSans-Semibold'" font-size="6.3996px">т</tspan><tspan x="4.99" y="7.2" font-family="'OpenSans-Semibold'" font-size="6.3996px">п</tspan><tspan x="9.27" y="7.2" font-family="'OpenSans-Semibold'" font-size="6.3996px">р</tspan><tspan x="13.48" y="7.2" font-family="'OpenSans-Semibold'" font-size="6.3996px">а</tspan><tspan x="17.4" y="7.2" font-family="'OpenSans-Semibold'" font-size="6.3996px">в</tspan><tspan x="21.52" y="7.2" font-family="'OpenSans-Semibold'" font-size="6.3996px">ы</tspan><tspan x="26.9" y="7.2" font-family="'OpenSans-Semibold'" font-size="6.3996px">й</tspan></text>
	</g>
	<g>
		<g>
			<circle fill="#AEBDC4" cx="5.72" cy="23.83" r="1.85"/>
			<circle fill="#AEBDC4" cx="10.04" cy="23.83" r="1.85"/>
			<circle fill="#AEBDC4" cx="14.36" cy="23.83" r="1.85"/>
			<circle fill="#AEBDC4" cx="18.68" cy="23.83" r="1.85"/>
			<circle fill="#AEBDC4" cx="23" cy="23.83" r="1.85"/>
			<circle fill="#AEBDC4" cx="27.33" cy="23.83" r="1.85"/>
			<circle fill="#AEBDC4" cx="31.65" cy="23.83" r="1.85"/>
			<circle fill="#AEBDC4" cx="35.97" cy="23.83" r="1.85"/>
			<circle fill="#AEBDC4" cx="40.29" cy="23.83" r="1.85"/>
			<circle fill="#AEBDC4" cx="44.62" cy="23.83" r="1.85"/>
			<circle fill="#AEBDC4" cx="48.95" cy="23.83" r="1.85"/>
			<circle fill="#AEBDC4" cx="53.28" cy="23.83" r="1.85"/>
		</g>
		<g>
			<circle fill="#AEBDC4" cx="3.55" cy="29.76" r="1.85"/>
			<circle fill="#AEBDC4" cx="7.88" cy="29.76" r="1.85"/>
			<circle fill="#AEBDC4" cx="12.2" cy="29.76" r="1.85"/>
			<circle fill="#AEBDC4" cx="16.52" cy="29.76" r="1.85"/>
			<circle fill="#AEBDC4" cx="20.84" cy="29.76" r="1.85"/>
			<circle fill="#AEBDC4" cx="25.16" cy="29.76" r="1.85"/>
			<circle fill="#AEBDC4" cx="29.48" cy="29.76" r="1.85"/>
			<circle fill="#AEBDC4" cx="33.8" cy="29.76" r="1.85"/>
			<circle fill="#AEBDC4" cx="38.12" cy="29.76" r="1.85"/>
			<circle fill="#AEBDC4" cx="42.45" cy="29.76" r="1.85"/>
			<circle fill="#AEBDC4" cx="46.78" cy="29.76" r="1.85"/>
			<circle fill="#AEBDC4" cx="51.12" cy="29.76" r="1.85"/>
			<circle fill="#AEBDC4" cx="55.45" cy="29.76" r="1.85"/>
		</g>
	</g>
</g>
</svg>
