<svg xmlns="http://www.w3.org/2000/svg" viewBox="0 0 130 172">
    <path fill="#F1F3F4" stroke="#BCC8CE" stroke-width=".4" stroke-linecap="round" stroke-miterlimit="10" d="M55.8.4v35.2H.21V.4H55.8z"/>
    <g fill="#AEBDC4">
        <circle cx="4.22" cy="23.83" r="1.85"/>
        <circle cx="8.54" cy="23.83" r="1.85"/>
        <circle cx="12.86" cy="23.83" r="1.85"/>
        <circle cx="17.18" cy="23.83" r="1.85"/>
        <circle cx="21.5" cy="23.83" r="1.85"/>
        <circle cx="25.83" cy="23.83" r="1.85"/>
        <circle cx="30.15" cy="23.83" r="1.85"/>
        <circle cx="34.47" cy="23.83" r="1.85"/>
        <circle cx="38.79" cy="23.83" r="1.85"/>
        <circle cx="43.12" cy="23.83" r="1.85"/>
        <circle cx="47.45" cy="23.83" r="1.85"/>
        <circle cx="51.78" cy="23.83" r="1.85"/>
        <circle cx="4.22" cy="29.76" r="1.85"/>
        <circle cx="8.54" cy="29.76" r="1.85"/>
        <circle cx="12.86" cy="29.76" r="1.85"/>
        <circle cx="17.18" cy="29.76" r="1.85"/>
        <circle cx="21.5" cy="29.76" r="1.85"/>
        <circle cx="25.83" cy="29.76" r="1.85"/>
        <circle cx="30.15" cy="29.76" r="1.85"/>
        <circle cx="34.47" cy="29.76" r="1.85"/>
        <circle cx="38.79" cy="29.76" r="1.85"/>
        <circle cx="43.12" cy="29.76" r="1.85"/>
        <circle cx="47.45" cy="29.76" r="1.85"/>
        <circle cx="51.78" cy="29.76" r="1.85"/>
    </g>
</svg>
