<?xml version="1.0" encoding="utf-8"?>
<!-- Generator: Adobe Illustrator 23.0.1, SVG Export Plug-In . SVG Version: 6.00 Build 0)  -->
<svg version="1.1" id="Layer_1" xmlns="http://www.w3.org/2000/svg" xmlns:xlink="http://www.w3.org/1999/xlink" x="0px" y="0px"
	 width="221px" height="66px" viewBox="0 0 221 66" enable-background="new 0 0 221 66" xml:space="preserve">
<g onclick="this.parentNode.sekt.push(this);this.a_name=&quot;S 1&quot;;">
	<g onclick="this.parentNode.a_fon=this;">
		
			<polygon onclick="this.parentNode.a_fon=this;" fill="#F1F3F4" stroke="#BCC8CE" stroke-width="0.4" stroke-linecap="round" stroke-miterlimit="10" points="
			29.28,0.76 219.64,65.8 0.31,65.8 		"/>
	</g>
	<g onclick="this.parentNode.a_row=this;">
		<g onclick="this.a_par={beg_namb:1,quant:2};">
			<line fill="none" stroke="#D3DBDF" stroke-width="0.4" stroke-miterlimit="10" x1="30.89" y1="60.76" x2="30.89" y2="52.75"/>
		</g>
		<g onclick="this.a_par={beg_namb:1,quant:6};">
			<line fill="none" stroke="#D3DBDF" stroke-width="0.4" stroke-miterlimit="10" x1="36.82" y1="60.76" x2="36.82" y2="35.46"/>
		</g>
		<g onclick="this.a_par={beg_namb:1,quant:10};">
			<line fill="none" stroke="#D3DBDF" stroke-width="0.4" stroke-miterlimit="10" x1="42.75" y1="60.76" x2="42.75" y2="18.17"/>
		</g>
		<g onclick="this.a_par={beg_namb:1,quant:10};">
			<line fill="none" stroke="#D3DBDF" stroke-width="0.4" stroke-miterlimit="10" x1="48.68" y1="60.76" x2="48.68" y2="18.17"/>
		</g>
		<g onclick="this.a_par={beg_namb:1,quant:10};">
			<line fill="none" stroke="#D3DBDF" stroke-width="0.4" stroke-miterlimit="10" x1="54.61" y1="60.76" x2="54.61" y2="18.17"/>
		</g>
		<g onclick="this.a_par={beg_namb:1,quant:9};">
			<line fill="none" stroke="#D3DBDF" stroke-width="0.4" stroke-miterlimit="10" x1="60.54" y1="60.76" x2="60.54" y2="22.5"/>
		</g>
		<g onclick="this.a_par={beg_namb:1,quant:9};">
			<line fill="none" stroke="#D3DBDF" stroke-width="0.4" stroke-miterlimit="10" x1="66.47" y1="60.76" x2="66.47" y2="22.5"/>
		</g>
		<g onclick="this.a_par={beg_namb:1,quant:8};">
			<line fill="none" stroke="#D3DBDF" stroke-width="0.4" stroke-miterlimit="10" x1="72.4" y1="60.76" x2="72.4" y2="26.82"/>
		</g>
		<g onclick="this.a_par={beg_namb:1,quant:8};">
			<line fill="none" stroke="#D3DBDF" stroke-width="0.4" stroke-miterlimit="10" x1="78.33" y1="60.76" x2="78.33" y2="26.82"/>
		</g>
		<g onclick="this.a_par={beg_namb:1,quant:5};">
			<line fill="none" stroke="#D3DBDF" stroke-width="0.4" stroke-miterlimit="10" x1="84.26" y1="60.76" x2="84.26" y2="39.78"/>
		</g>
		<g onclick="this.a_par={beg_namb:1,quant:5};">
			<line fill="none" stroke="#D3DBDF" stroke-width="0.4" stroke-miterlimit="10" x1="90.19" y1="60.76" x2="90.19" y2="39.78"/>
		</g>
		<g onclick="this.a_par={beg_namb:1,quant:5};">
			<line fill="none" stroke="#D3DBDF" stroke-width="0.4" stroke-miterlimit="10" x1="96.12" y1="60.76" x2="96.12" y2="39.78"/>
		</g>
		<g onclick="this.a_par={beg_namb:1,quant:4};">
			<line fill="none" stroke="#D3DBDF" stroke-width="0.4" stroke-miterlimit="10" x1="102.06" y1="60.76" x2="102.06" y2="44.11"/>
		</g>
		<g onclick="this.a_par={beg_namb:1,quant:4};">
			<line fill="none" stroke="#D3DBDF" stroke-width="0.4" stroke-miterlimit="10" x1="107.99" y1="60.76" x2="107.99" y2="44.11"/>
		</g>
		<g onclick="this.a_par={beg_namb:1,quant:5};">
			<line fill="none" stroke="#D3DBDF" stroke-width="0.4" stroke-miterlimit="10" x1="113.92" y1="60.76" x2="113.92" y2="39.78"/>
		</g>
		<g onclick="this.a_par={beg_namb:1,quant:5};">
			<line fill="none" stroke="#D3DBDF" stroke-width="0.4" stroke-miterlimit="10" x1="119.85" y1="60.76" x2="119.85" y2="39.78"/>
		</g>
		<g onclick="this.a_par={beg_namb:1,quant:4};">
			<line fill="none" stroke="#D3DBDF" stroke-width="0.4" stroke-miterlimit="10" x1="125.78" y1="60.76" x2="125.78" y2="44.11"/>
		</g>
		<g onclick="this.a_par={beg_namb:1,quant:4};">
			<line fill="none" stroke="#D3DBDF" stroke-width="0.4" stroke-miterlimit="10" x1="131.71" y1="60.76" x2="131.71" y2="44.11"/>
		</g>
		<g onclick="this.a_par={beg_namb:1,quant:4};">
			<line fill="none" stroke="#D3DBDF" stroke-width="0.4" stroke-miterlimit="10" x1="137.64" y1="60.76" x2="137.64" y2="44.11"/>
		</g>
		<g onclick="this.a_par={beg_namb:1,quant:4};">
			<line fill="none" stroke="#D3DBDF" stroke-width="0.4" stroke-miterlimit="10" x1="143.57" y1="60.76" x2="143.57" y2="44.11"/>
		</g>
		<g onclick="this.a_par={beg_namb:1,quant:3};">
			<line fill="none" stroke="#D3DBDF" stroke-width="0.4" stroke-miterlimit="10" x1="149.5" y1="60.76" x2="149.5" y2="48.43"/>
		</g>
		<g onclick="this.a_par={beg_namb:1,quant:3};">
			<line fill="none" stroke="#D3DBDF" stroke-width="0.4" stroke-miterlimit="10" x1="155.43" y1="60.76" x2="155.43" y2="48.43"/>
		</g>
		<g onclick="this.a_par={beg_namb:1,quant:2};">
			<line fill="none" stroke="#D3DBDF" stroke-width="0.4" stroke-miterlimit="10" x1="161.36" y1="60.76" x2="161.36" y2="52.75"/>
		</g>
		<g onclick="this.a_par={beg_namb:1,quant:2};">
			<line fill="none" stroke="#D3DBDF" stroke-width="0.4" stroke-miterlimit="10" x1="167.29" y1="60.76" x2="167.29" y2="52.75"/>
		</g>
	</g>
	<g>
		<g>
			<circle fill="#AEBDC4" cx="167.29" cy="58.92" r="1.85"/>
			<circle fill="#AEBDC4" cx="167.29" cy="54.6" r="1.85"/>
		</g>
		<g>
			<circle fill="#AEBDC4" cx="30.89" cy="58.92" r="1.85"/>
			<circle fill="#AEBDC4" cx="30.89" cy="54.6" r="1.85"/>
		</g>
		<g>
			<circle fill="#AEBDC4" cx="161.36" cy="58.92" r="1.85"/>
			<circle fill="#AEBDC4" cx="161.36" cy="54.6" r="1.85"/>
		</g>
		<g>
			<circle fill="#AEBDC4" cx="155.43" cy="58.92" r="1.85"/>
			<circle fill="#AEBDC4" cx="155.43" cy="54.6" r="1.85"/>
			<circle fill="#AEBDC4" cx="155.43" cy="50.27" r="1.85"/>
		</g>
		<g>
			<circle fill="#AEBDC4" cx="149.5" cy="58.92" r="1.85"/>
			<circle fill="#AEBDC4" cx="149.5" cy="54.6" r="1.85"/>
			<circle fill="#AEBDC4" cx="149.5" cy="50.27" r="1.85"/>
		</g>
		<g>
			<circle fill="#AEBDC4" cx="143.57" cy="58.92" r="1.85"/>
			<circle fill="#AEBDC4" cx="143.57" cy="54.6" r="1.85"/>
			<circle fill="#AEBDC4" cx="143.57" cy="50.27" r="1.85"/>
			<circle fill="#AEBDC4" cx="143.57" cy="45.95" r="1.85"/>
		</g>
		<g>
			<circle fill="#AEBDC4" cx="137.64" cy="58.92" r="1.85"/>
			<circle fill="#AEBDC4" cx="137.64" cy="54.6" r="1.85"/>
			<circle fill="#AEBDC4" cx="137.64" cy="50.27" r="1.85"/>
			<circle fill="#AEBDC4" cx="137.64" cy="45.95" r="1.85"/>
		</g>
		<g>
			<circle fill="#AEBDC4" cx="131.71" cy="58.92" r="1.85"/>
			<circle fill="#AEBDC4" cx="131.71" cy="54.6" r="1.85"/>
			<circle fill="#AEBDC4" cx="131.71" cy="50.27" r="1.85"/>
			<circle fill="#AEBDC4" cx="131.71" cy="45.95" r="1.85"/>
		</g>
		<g>
			<circle fill="#AEBDC4" cx="125.78" cy="58.92" r="1.85"/>
			<circle fill="#AEBDC4" cx="125.78" cy="54.6" r="1.85"/>
			<circle fill="#AEBDC4" cx="125.78" cy="50.27" r="1.85"/>
			<circle fill="#AEBDC4" cx="125.78" cy="45.95" r="1.85"/>
		</g>
		<g>
			<circle fill="#AEBDC4" cx="102.06" cy="58.92" r="1.85"/>
			<circle fill="#AEBDC4" cx="102.06" cy="54.6" r="1.85"/>
			<circle fill="#AEBDC4" cx="102.06" cy="50.27" r="1.85"/>
			<circle fill="#AEBDC4" cx="102.06" cy="45.95" r="1.85"/>
		</g>
		<g>
			<circle fill="#AEBDC4" cx="107.99" cy="58.92" r="1.85"/>
			<circle fill="#AEBDC4" cx="107.99" cy="54.6" r="1.85"/>
			<circle fill="#AEBDC4" cx="107.99" cy="50.27" r="1.85"/>
			<circle fill="#AEBDC4" cx="107.99" cy="45.95" r="1.85"/>
		</g>
		<g>
			<circle fill="#AEBDC4" cx="119.85" cy="58.92" r="1.85"/>
			<circle fill="#AEBDC4" cx="119.85" cy="54.6" r="1.85"/>
			<circle fill="#AEBDC4" cx="119.85" cy="50.27" r="1.85"/>
			<circle fill="#AEBDC4" cx="119.85" cy="45.95" r="1.85"/>
			<circle fill="#AEBDC4" cx="119.85" cy="41.63" r="1.85"/>
		</g>
		<g>
			<circle fill="#AEBDC4" cx="113.92" cy="58.92" r="1.85"/>
			<circle fill="#AEBDC4" cx="113.92" cy="54.6" r="1.85"/>
			<circle fill="#AEBDC4" cx="113.92" cy="50.27" r="1.85"/>
			<circle fill="#AEBDC4" cx="113.92" cy="45.95" r="1.85"/>
			<circle fill="#AEBDC4" cx="113.92" cy="41.63" r="1.85"/>
		</g>
		<g>
			<circle fill="#AEBDC4" cx="96.12" cy="58.92" r="1.85"/>
			<circle fill="#AEBDC4" cx="96.12" cy="54.6" r="1.85"/>
			<circle fill="#AEBDC4" cx="96.12" cy="50.27" r="1.85"/>
			<circle fill="#AEBDC4" cx="96.12" cy="45.95" r="1.85"/>
			<circle fill="#AEBDC4" cx="96.12" cy="41.63" r="1.85"/>
		</g>
		<g>
			<circle fill="#AEBDC4" cx="90.19" cy="58.92" r="1.85"/>
			<circle fill="#AEBDC4" cx="90.19" cy="54.6" r="1.85"/>
			<circle fill="#AEBDC4" cx="90.19" cy="50.27" r="1.85"/>
			<circle fill="#AEBDC4" cx="90.19" cy="45.95" r="1.85"/>
			<circle fill="#AEBDC4" cx="90.19" cy="41.63" r="1.85"/>
		</g>
		<g>
			<circle fill="#AEBDC4" cx="84.26" cy="58.92" r="1.85"/>
			<circle fill="#AEBDC4" cx="84.26" cy="54.6" r="1.85"/>
			<circle fill="#AEBDC4" cx="84.26" cy="50.27" r="1.85"/>
			<circle fill="#AEBDC4" cx="84.26" cy="45.95" r="1.85"/>
			<circle fill="#AEBDC4" cx="84.26" cy="41.63" r="1.85"/>
		</g>
		<g>
			<circle fill="#AEBDC4" cx="36.82" cy="58.92" r="1.85"/>
			<circle fill="#AEBDC4" cx="36.82" cy="54.6" r="1.85"/>
			<circle fill="#AEBDC4" cx="36.82" cy="50.27" r="1.85"/>
			<circle fill="#AEBDC4" cx="36.82" cy="45.95" r="1.85"/>
			<circle fill="#AEBDC4" cx="36.82" cy="41.63" r="1.85"/>
			<circle fill="#AEBDC4" cx="36.82" cy="37.31" r="1.85"/>
		</g>
		<g>
			<circle fill="#AEBDC4" cx="78.33" cy="58.92" r="1.85"/>
			<circle fill="#AEBDC4" cx="78.33" cy="54.6" r="1.85"/>
			<circle fill="#AEBDC4" cx="78.33" cy="50.27" r="1.85"/>
			<circle fill="#AEBDC4" cx="78.33" cy="45.95" r="1.85"/>
			<circle fill="#AEBDC4" cx="78.33" cy="41.63" r="1.85"/>
			<circle fill="#AEBDC4" cx="78.33" cy="37.31" r="1.85"/>
			<circle fill="#AEBDC4" cx="78.33" cy="32.99" r="1.85"/>
			<circle fill="#AEBDC4" cx="78.33" cy="28.67" r="1.85"/>
		</g>
		<g>
			<circle fill="#AEBDC4" cx="72.4" cy="58.92" r="1.85"/>
			<circle fill="#AEBDC4" cx="72.4" cy="54.6" r="1.85"/>
			<circle fill="#AEBDC4" cx="72.4" cy="50.27" r="1.85"/>
			<circle fill="#AEBDC4" cx="72.4" cy="45.95" r="1.85"/>
			<circle fill="#AEBDC4" cx="72.4" cy="41.63" r="1.85"/>
			<circle fill="#AEBDC4" cx="72.4" cy="37.31" r="1.85"/>
			<circle fill="#AEBDC4" cx="72.4" cy="32.99" r="1.85"/>
			<circle fill="#AEBDC4" cx="72.4" cy="28.67" r="1.85"/>
		</g>
		<g>
			<circle fill="#AEBDC4" cx="66.47" cy="58.92" r="1.85"/>
			<circle fill="#AEBDC4" cx="66.47" cy="54.6" r="1.85"/>
			<circle fill="#AEBDC4" cx="66.47" cy="50.27" r="1.85"/>
			<circle fill="#AEBDC4" cx="66.47" cy="45.95" r="1.85"/>
			<circle fill="#AEBDC4" cx="66.47" cy="41.63" r="1.85"/>
			<circle fill="#AEBDC4" cx="66.47" cy="37.31" r="1.85"/>
			<circle fill="#AEBDC4" cx="66.47" cy="32.99" r="1.85"/>
			<circle fill="#AEBDC4" cx="66.47" cy="28.67" r="1.85"/>
			<circle fill="#AEBDC4" cx="66.47" cy="24.35" r="1.85"/>
		</g>
		<g>
			<circle fill="#AEBDC4" cx="60.54" cy="58.92" r="1.85"/>
			<circle fill="#AEBDC4" cx="60.54" cy="54.6" r="1.85"/>
			<circle fill="#AEBDC4" cx="60.54" cy="50.27" r="1.85"/>
			<circle fill="#AEBDC4" cx="60.54" cy="45.95" r="1.85"/>
			<circle fill="#AEBDC4" cx="60.54" cy="41.63" r="1.85"/>
			<circle fill="#AEBDC4" cx="60.54" cy="37.31" r="1.85"/>
			<circle fill="#AEBDC4" cx="60.54" cy="32.99" r="1.85"/>
			<circle fill="#AEBDC4" cx="60.54" cy="28.67" r="1.85"/>
			<circle fill="#AEBDC4" cx="60.54" cy="24.35" r="1.85"/>
		</g>
		<g>
			<circle fill="#AEBDC4" cx="42.75" cy="58.92" r="1.85"/>
			<circle fill="#AEBDC4" cx="42.75" cy="54.6" r="1.85"/>
			<circle fill="#AEBDC4" cx="42.75" cy="50.27" r="1.85"/>
			<circle fill="#AEBDC4" cx="42.75" cy="45.95" r="1.85"/>
			<circle fill="#AEBDC4" cx="42.75" cy="41.63" r="1.85"/>
			<circle fill="#AEBDC4" cx="42.75" cy="37.31" r="1.85"/>
			<circle fill="#AEBDC4" cx="42.75" cy="32.99" r="1.85"/>
			<circle fill="#AEBDC4" cx="42.75" cy="28.67" r="1.85"/>
			<circle fill="#AEBDC4" cx="42.75" cy="24.35" r="1.85"/>
			<circle fill="#AEBDC4" cx="42.75" cy="20.01" r="1.85"/>
		</g>
		<g>
			<circle fill="#AEBDC4" cx="48.68" cy="58.92" r="1.85"/>
			<circle fill="#AEBDC4" cx="48.68" cy="54.6" r="1.85"/>
			<circle fill="#AEBDC4" cx="48.68" cy="50.27" r="1.85"/>
			<circle fill="#AEBDC4" cx="48.68" cy="45.95" r="1.85"/>
			<circle fill="#AEBDC4" cx="48.68" cy="41.63" r="1.85"/>
			<circle fill="#AEBDC4" cx="48.68" cy="37.31" r="1.85"/>
			<circle fill="#AEBDC4" cx="48.68" cy="32.99" r="1.85"/>
			<circle fill="#AEBDC4" cx="48.68" cy="28.67" r="1.85"/>
			<circle fill="#AEBDC4" cx="48.68" cy="24.35" r="1.85"/>
			<circle fill="#AEBDC4" cx="48.68" cy="20.01" r="1.85"/>
		</g>
		<g>
			<circle fill="#AEBDC4" cx="54.61" cy="58.92" r="1.85"/>
			<circle fill="#AEBDC4" cx="54.61" cy="54.6" r="1.85"/>
			<circle fill="#AEBDC4" cx="54.61" cy="50.27" r="1.85"/>
			<circle fill="#AEBDC4" cx="54.61" cy="45.95" r="1.85"/>
			<circle fill="#AEBDC4" cx="54.61" cy="41.63" r="1.85"/>
			<circle fill="#AEBDC4" cx="54.61" cy="37.31" r="1.85"/>
			<circle fill="#AEBDC4" cx="54.61" cy="32.99" r="1.85"/>
			<circle fill="#AEBDC4" cx="54.61" cy="28.67" r="1.85"/>
			<circle fill="#AEBDC4" cx="54.61" cy="24.35" r="1.85"/>
			<circle fill="#AEBDC4" cx="54.61" cy="20.01" r="1.85"/>
		</g>
	</g>
	<g onclick="this.parentNode.a_text=this;">
		<text transform="matrix(0 -1.0001 1 0 94.5818 55.2462)" font-family="'OpenSans-Semibold'" font-size="6.3992px">S 1</text>
	</g>
</g>
</svg>
