<?xml version="1.0" encoding="utf-8"?>
<!-- Generator: Adobe Illustrator 23.0.1, SVG Export Plug-In . SVG Version: 6.00 Build 0)  -->
<svg version="1.1" id="Layer_1" xmlns="http://www.w3.org/2000/svg" xmlns:xlink="http://www.w3.org/1999/xlink" x="0px" y="0px"
	 viewBox="0 0 221 66" enable-background="new 0 0 221 66" xml:space="preserve">
<g onclick="&quot;S 1&quot;;">
	
		<polygon fill="#F1F3F4" stroke="#BCC8CE" stroke-width="0.4" stroke-linecap="round" stroke-miterlimit="10" points="
		29.28,0.76 219.64,65.8 0.31,65.8 	"/>
	<g>
		<circle fill="#AEBDC4" cx="167.29" cy="58.92" r="1.85"/>
		<circle fill="#AEBDC4" cx="167.29" cy="54.6" r="1.85"/>
	</g>
	<g>
		<circle fill="#AEBDC4" cx="161.36" cy="58.92" r="1.85"/>
		<circle fill="#AEBDC4" cx="161.36" cy="54.6" r="1.85"/>
	</g>
	<g>
		<circle fill="#AEBDC4" cx="155.43" cy="58.92" r="1.85"/>
		<circle fill="#AEBDC4" cx="155.43" cy="54.6" r="1.85"/>
		<circle fill="#AEBDC4" cx="155.43" cy="50.27" r="1.85"/>
	</g>
	<g>
		<circle fill="#AEBDC4" cx="149.5" cy="58.92" r="1.85"/>
		<circle fill="#AEBDC4" cx="149.5" cy="54.6" r="1.85"/>
		<circle fill="#AEBDC4" cx="149.5" cy="50.27" r="1.85"/>
	</g>
	<g>
		<circle fill="#AEBDC4" cx="143.57" cy="58.92" r="1.85"/>
		<circle fill="#AEBDC4" cx="143.57" cy="54.6" r="1.85"/>
		<circle fill="#AEBDC4" cx="143.57" cy="50.27" r="1.85"/>
		<circle fill="#AEBDC4" cx="143.57" cy="45.95" r="1.85"/>
	</g>
	<g>
		<circle fill="#AEBDC4" cx="137.64" cy="58.92" r="1.85"/>
		<circle fill="#AEBDC4" cx="137.64" cy="54.6" r="1.85"/>
		<circle fill="#AEBDC4" cx="137.64" cy="50.27" r="1.85"/>
		<circle fill="#AEBDC4" cx="137.64" cy="45.95" r="1.85"/>
	</g>
	<g>
		<circle fill="#AEBDC4" cx="131.71" cy="58.92" r="1.85"/>
		<circle fill="#AEBDC4" cx="131.71" cy="54.6" r="1.85"/>
		<circle fill="#AEBDC4" cx="131.71" cy="50.27" r="1.85"/>
		<circle fill="#AEBDC4" cx="131.71" cy="45.95" r="1.85"/>
	</g>
	<g>
		<circle fill="#AEBDC4" cx="125.78" cy="58.92" r="1.85"/>
		<circle fill="#AEBDC4" cx="125.78" cy="54.6" r="1.85"/>
		<circle fill="#AEBDC4" cx="125.78" cy="50.27" r="1.85"/>
		<circle fill="#AEBDC4" cx="125.78" cy="45.95" r="1.85"/>
	</g>
	<g>
		<circle fill="#AEBDC4" cx="119.85" cy="58.92" r="1.85"/>
		<circle fill="#AEBDC4" cx="119.85" cy="54.6" r="1.85"/>
		<circle fill="#AEBDC4" cx="119.85" cy="50.27" r="1.85"/>
		<circle fill="#AEBDC4" cx="119.85" cy="45.95" r="1.85"/>
		<circle fill="#AEBDC4" cx="119.85" cy="41.63" r="1.85"/>
	</g>
	<g>
		<circle fill="#AEBDC4" cx="113.92" cy="58.92" r="1.85"/>
		<circle fill="#AEBDC4" cx="113.92" cy="54.6" r="1.85"/>
		<circle fill="#AEBDC4" cx="113.92" cy="50.27" r="1.85"/>
		<circle fill="#AEBDC4" cx="113.92" cy="45.95" r="1.85"/>
		<circle fill="#AEBDC4" cx="113.92" cy="41.63" r="1.85"/>
	</g>
	<g>
		<circle fill="#AEBDC4" cx="107.99" cy="58.92" r="1.85"/>
		<circle fill="#AEBDC4" cx="107.99" cy="54.6" r="1.85"/>
		<circle fill="#AEBDC4" cx="107.99" cy="50.27" r="1.85"/>
		<circle fill="#AEBDC4" cx="107.99" cy="45.95" r="1.85"/>
	</g>
	<g>
		<circle fill="#AEBDC4" cx="102.06" cy="58.92" r="1.85"/>
		<circle fill="#AEBDC4" cx="102.06" cy="54.6" r="1.85"/>
		<circle fill="#AEBDC4" cx="102.06" cy="50.27" r="1.85"/>
		<circle fill="#AEBDC4" cx="102.06" cy="45.95" r="1.85"/>
	</g>
	<g>
		<circle fill="#AEBDC4" cx="96.12" cy="58.92" r="1.85"/>
		<circle fill="#AEBDC4" cx="96.12" cy="54.6" r="1.85"/>
		<circle fill="#AEBDC4" cx="96.12" cy="50.27" r="1.85"/>
		<circle fill="#AEBDC4" cx="96.12" cy="45.95" r="1.85"/>
		<circle fill="#AEBDC4" cx="96.12" cy="41.63" r="1.85"/>
	</g>
	<g>
		<circle fill="#AEBDC4" cx="90.19" cy="58.92" r="1.85"/>
		<circle fill="#AEBDC4" cx="90.19" cy="54.6" r="1.85"/>
		<circle fill="#AEBDC4" cx="90.19" cy="50.27" r="1.85"/>
		<circle fill="#AEBDC4" cx="90.19" cy="45.95" r="1.85"/>
		<circle fill="#AEBDC4" cx="90.19" cy="41.63" r="1.85"/>
	</g>
	<g>
		<circle fill="#AEBDC4" cx="84.26" cy="58.92" r="1.85"/>
		<circle fill="#AEBDC4" cx="84.26" cy="54.6" r="1.85"/>
		<circle fill="#AEBDC4" cx="84.26" cy="50.27" r="1.85"/>
		<circle fill="#AEBDC4" cx="84.26" cy="45.95" r="1.85"/>
		<circle fill="#AEBDC4" cx="84.26" cy="41.63" r="1.85"/>
	</g>
	<g>
		<circle fill="#AEBDC4" cx="78.33" cy="58.92" r="1.85"/>
		<circle fill="#AEBDC4" cx="78.33" cy="54.6" r="1.85"/>
		<circle fill="#AEBDC4" cx="78.33" cy="50.27" r="1.85"/>
		<circle fill="#AEBDC4" cx="78.33" cy="45.95" r="1.85"/>
		<circle fill="#AEBDC4" cx="78.33" cy="41.63" r="1.85"/>
		<circle fill="#AEBDC4" cx="78.33" cy="37.31" r="1.85"/>
		<circle fill="#AEBDC4" cx="78.33" cy="32.99" r="1.85"/>
		<circle fill="#AEBDC4" cx="78.33" cy="28.67" r="1.85"/>
	</g>
	<g>
		<circle fill="#AEBDC4" cx="72.4" cy="58.92" r="1.85"/>
		<circle fill="#AEBDC4" cx="72.4" cy="54.6" r="1.85"/>
		<circle fill="#AEBDC4" cx="72.4" cy="50.27" r="1.85"/>
		<circle fill="#AEBDC4" cx="72.4" cy="45.95" r="1.85"/>
		<circle fill="#AEBDC4" cx="72.4" cy="41.63" r="1.85"/>
		<circle fill="#AEBDC4" cx="72.4" cy="37.31" r="1.85"/>
		<circle fill="#AEBDC4" cx="72.4" cy="32.99" r="1.85"/>
		<circle fill="#AEBDC4" cx="72.4" cy="28.67" r="1.85"/>
	</g>
	<g>
		<circle fill="#AEBDC4" cx="66.47" cy="58.92" r="1.85"/>
		<circle fill="#AEBDC4" cx="66.47" cy="54.6" r="1.85"/>
		<circle fill="#AEBDC4" cx="66.47" cy="50.27" r="1.85"/>
		<circle fill="#AEBDC4" cx="66.47" cy="45.95" r="1.85"/>
		<circle fill="#AEBDC4" cx="66.47" cy="41.63" r="1.85"/>
		<circle fill="#AEBDC4" cx="66.47" cy="37.31" r="1.85"/>
		<circle fill="#AEBDC4" cx="66.47" cy="32.99" r="1.85"/>
		<circle fill="#AEBDC4" cx="66.47" cy="28.67" r="1.85"/>
		<circle fill="#AEBDC4" cx="66.47" cy="24.35" r="1.85"/>
	</g>
	<g>
		<circle fill="#AEBDC4" cx="60.54" cy="58.92" r="1.85"/>
		<circle fill="#AEBDC4" cx="60.54" cy="54.6" r="1.85"/>
		<circle fill="#AEBDC4" cx="60.54" cy="50.27" r="1.85"/>
		<circle fill="#AEBDC4" cx="60.54" cy="45.95" r="1.85"/>
		<circle fill="#AEBDC4" cx="60.54" cy="41.63" r="1.85"/>
		<circle fill="#AEBDC4" cx="60.54" cy="37.31" r="1.85"/>
		<circle fill="#AEBDC4" cx="60.54" cy="32.99" r="1.85"/>
		<circle fill="#AEBDC4" cx="60.54" cy="28.67" r="1.85"/>
		<circle fill="#AEBDC4" cx="60.54" cy="24.35" r="1.85"/>
	</g>
	<g>
		<circle fill="#AEBDC4" cx="54.61" cy="58.92" r="1.85"/>
		<circle fill="#AEBDC4" cx="54.61" cy="54.6" r="1.85"/>
		<circle fill="#AEBDC4" cx="54.61" cy="50.27" r="1.85"/>
		<circle fill="#AEBDC4" cx="54.61" cy="45.95" r="1.85"/>
		<circle fill="#AEBDC4" cx="54.61" cy="41.63" r="1.85"/>
		<circle fill="#AEBDC4" cx="54.61" cy="37.31" r="1.85"/>
		<circle fill="#AEBDC4" cx="54.61" cy="32.99" r="1.85"/>
		<circle fill="#AEBDC4" cx="54.61" cy="28.67" r="1.85"/>
		<circle fill="#AEBDC4" cx="54.61" cy="24.35" r="1.85"/>
		<circle fill="#AEBDC4" cx="54.61" cy="20.01" r="1.85"/>
	</g>
	<g>
		<circle fill="#AEBDC4" cx="48.68" cy="58.92" r="1.85"/>
		<circle fill="#AEBDC4" cx="48.68" cy="54.6" r="1.85"/>
		<circle fill="#AEBDC4" cx="48.68" cy="50.27" r="1.85"/>
		<circle fill="#AEBDC4" cx="48.68" cy="45.95" r="1.85"/>
		<circle fill="#AEBDC4" cx="48.68" cy="41.63" r="1.85"/>
		<circle fill="#AEBDC4" cx="48.68" cy="37.31" r="1.85"/>
		<circle fill="#AEBDC4" cx="48.68" cy="32.99" r="1.85"/>
		<circle fill="#AEBDC4" cx="48.68" cy="28.67" r="1.85"/>
		<circle fill="#AEBDC4" cx="48.68" cy="24.35" r="1.85"/>
		<circle fill="#AEBDC4" cx="48.68" cy="20.01" r="1.85"/>
	</g>
	<g>
		<circle fill="#AEBDC4" cx="42.75" cy="58.92" r="1.85"/>
		<circle fill="#AEBDC4" cx="42.75" cy="54.6" r="1.85"/>
		<circle fill="#AEBDC4" cx="42.75" cy="50.27" r="1.85"/>
		<circle fill="#AEBDC4" cx="42.75" cy="45.95" r="1.85"/>
		<circle fill="#AEBDC4" cx="42.75" cy="41.63" r="1.85"/>
		<circle fill="#AEBDC4" cx="42.75" cy="37.31" r="1.85"/>
		<circle fill="#AEBDC4" cx="42.75" cy="32.99" r="1.85"/>
		<circle fill="#AEBDC4" cx="42.75" cy="28.67" r="1.85"/>
		<circle fill="#AEBDC4" cx="42.75" cy="24.35" r="1.85"/>
		<circle fill="#AEBDC4" cx="42.75" cy="20.01" r="1.85"/>
	</g>
	<g>
		<circle fill="#AEBDC4" cx="36.82" cy="58.92" r="1.85"/>
		<circle fill="#AEBDC4" cx="36.82" cy="54.6" r="1.85"/>
		<circle fill="#AEBDC4" cx="36.82" cy="50.27" r="1.85"/>
		<circle fill="#AEBDC4" cx="36.82" cy="45.95" r="1.85"/>
		<circle fill="#AEBDC4" cx="36.82" cy="41.63" r="1.85"/>
		<circle fill="#AEBDC4" cx="36.82" cy="37.31" r="1.85"/>
	</g>
	<g>
		<circle fill="#AEBDC4" cx="30.89" cy="58.92" r="1.85"/>
		<circle fill="#AEBDC4" cx="30.89" cy="54.6" r="1.85"/>
	</g>
</g>
</svg>
