<svg xmlns="http://www.w3.org/2000/svg" viewBox="0 0 130 172">
    <path fill="#F1F3F4" stroke="#BCC8CE" stroke-width=".4" stroke-linecap="round" stroke-miterlimit="10" d="M14.74 131.43L.34.57h236.34v130.86H14.74z"/>
    <g fill="#AEBDC4">
        <circle cx="20.07" cy="33.64" r="1.85"/>
        <circle cx="20.07" cy="29.32" r="1.85"/>
        <circle cx="20.07" cy="25" r="1.85"/>
        <circle cx="20.07" cy="20.68" r="1.85"/>
        <circle cx="20.07" cy="16.36" r="1.85"/>
        <circle cx="20.07" cy="12.04" r="1.85"/>
        <circle cx="26" cy="59.6" r="1.85"/>
        <circle cx="26" cy="55.28" r="1.85"/>
        <circle cx="26" cy="50.96" r="1.85"/>
        <circle cx="26" cy="46.64" r="1.85"/>
        <circle cx="26" cy="42.32" r="1.85"/>
        <circle cx="26" cy="37.99" r="1.85"/>
        <circle cx="26" cy="33.67" r="1.85"/>
        <circle cx="26" cy="29.35" r="1.85"/>
        <circle cx="26" cy="25.03" r="1.85"/>
        <circle cx="26" cy="20.7" r="1.85"/>
        <circle cx="26" cy="16.37" r="1.85"/>
        <circle cx="26" cy="12.04" r="1.85"/>
        <circle cx="31.93" cy="94.25" r="1.85"/>
        <circle cx="31.93" cy="89.93" r="1.85"/>
        <circle cx="31.93" cy="85.61" r="1.85"/>
        <circle cx="31.93" cy="81.28" r="1.85"/>
        <circle cx="31.93" cy="76.96" r="1.85"/>
        <circle cx="31.93" cy="72.64" r="1.85"/>
        <circle cx="31.93" cy="68.32" r="1.85"/>
        <circle cx="31.93" cy="64" r="1.85"/>
        <circle cx="31.93" cy="59.68" r="1.85"/>
        <circle cx="31.93" cy="55.35" r="1.85"/>
        <circle cx="31.93" cy="51.02" r="1.85"/>
        <circle cx="31.93" cy="46.68" r="1.85"/>
        <circle cx="31.93" cy="42.35" r="1.85"/>
        <circle cx="31.93" cy="38.02" r="1.85"/>
        <circle cx="31.93" cy="33.69" r="1.85"/>
        <circle cx="31.93" cy="29.36" r="1.85"/>
        <circle cx="31.93" cy="25.03" r="1.85"/>
        <circle cx="31.93" cy="20.7" r="1.85"/>
        <circle cx="31.93" cy="16.37" r="1.85"/>
        <circle cx="31.93" cy="12.04" r="1.85"/>
        <circle cx="97.16" cy="111.58" r="1.85"/>
        <circle cx="97.16" cy="107.26" r="1.85"/>
        <circle cx="97.16" cy="102.93" r="1.85"/>
        <circle cx="97.16" cy="98.61" r="1.85"/>
        <circle cx="97.16" cy="94.29" r="1.85"/>
        <circle cx="97.16" cy="89.97" r="1.85"/>
        <circle cx="97.16" cy="85.65" r="1.85"/>
        <circle cx="97.16" cy="81.33" r="1.85"/>
        <circle cx="97.16" cy="77.01" r="1.85"/>
        <circle cx="97.16" cy="72.68" r="1.85"/>
        <circle cx="97.16" cy="68.34" r="1.85"/>
        <circle cx="97.16" cy="64.01" r="1.85"/>
        <circle cx="97.16" cy="59.68" r="1.85"/>
        <circle cx="97.16" cy="55.35" r="1.85"/>
        <circle cx="97.16" cy="51.02" r="1.85"/>
        <circle cx="97.16" cy="46.69" r="1.85"/>
        <circle cx="97.16" cy="42.36" r="1.85"/>
        <circle cx="97.16" cy="38.03" r="1.85"/>
        <circle cx="97.16" cy="33.7" r="1.85"/>
        <circle cx="97.16" cy="29.37" r="1.85"/>
        <circle cx="97.16" cy="25.04" r="1.85"/>
        <circle cx="97.16" cy="20.7" r="1.85"/>
        <circle cx="103.09" cy="111.58" r="1.85"/>
        <circle cx="103.09" cy="107.26" r="1.85"/>
        <circle cx="103.09" cy="102.93" r="1.85"/>
        <circle cx="103.09" cy="98.61" r="1.85"/>
        <circle cx="103.09" cy="94.29" r="1.85"/>
        <circle cx="103.09" cy="89.97" r="1.85"/>
        <circle cx="103.09" cy="85.65" r="1.85"/>
        <circle cx="103.09" cy="81.33" r="1.85"/>
        <circle cx="103.09" cy="77.01" r="1.85"/>
        <circle cx="103.09" cy="72.68" r="1.85"/>
        <circle cx="103.09" cy="68.34" r="1.85"/>
        <circle cx="103.09" cy="64.01" r="1.85"/>
        <circle cx="103.09" cy="59.68" r="1.85"/>
        <circle cx="103.09" cy="55.35" r="1.85"/>
        <circle cx="103.09" cy="51.02" r="1.85"/>
        <circle cx="103.09" cy="46.69" r="1.85"/>
        <circle cx="103.09" cy="42.36" r="1.85"/>
        <circle cx="103.09" cy="38.03" r="1.85"/>
        <circle cx="103.09" cy="33.7" r="1.85"/>
        <circle cx="103.09" cy="29.37" r="1.85"/>
        <circle cx="103.09" cy="25.04" r="1.85"/>
        <circle cx="103.09" cy="20.7" r="1.85"/>
        <circle cx="109.03" cy="111.58" r="1.85"/>
        <circle cx="109.03" cy="107.26" r="1.85"/>
        <circle cx="109.03" cy="102.93" r="1.85"/>
        <circle cx="109.03" cy="98.61" r="1.85"/>
        <circle cx="109.03" cy="94.29" r="1.85"/>
        <circle cx="109.03" cy="89.97" r="1.85"/>
        <circle cx="109.03" cy="85.65" r="1.85"/>
        <circle cx="109.03" cy="81.33" r="1.85"/>
        <circle cx="109.03" cy="77.01" r="1.85"/>
        <circle cx="109.03" cy="72.68" r="1.85"/>
        <circle cx="109.03" cy="68.34" r="1.85"/>
        <circle cx="109.03" cy="64.01" r="1.85"/>
        <circle cx="109.03" cy="59.68" r="1.85"/>
        <circle cx="109.03" cy="55.35" r="1.85"/>
        <circle cx="109.03" cy="51.02" r="1.85"/>
        <circle cx="109.03" cy="46.69" r="1.85"/>
        <circle cx="109.03" cy="42.36" r="1.85"/>
        <circle cx="109.03" cy="38.03" r="1.85"/>
        <circle cx="109.03" cy="33.7" r="1.85"/>
        <circle cx="109.03" cy="29.37" r="1.85"/>
        <circle cx="109.03" cy="25.04" r="1.85"/>
        <circle cx="109.03" cy="20.7" r="1.85"/>
        <circle cx="114.96" cy="111.58" r="1.85"/>
        <circle cx="114.96" cy="107.26" r="1.85"/>
        <circle cx="114.96" cy="102.93" r="1.85"/>
        <circle cx="114.96" cy="98.61" r="1.85"/>
        <circle cx="114.96" cy="94.29" r="1.85"/>
        <circle cx="114.96" cy="89.97" r="1.85"/>
        <circle cx="114.96" cy="85.65" r="1.85"/>
        <circle cx="114.96" cy="81.33" r="1.85"/>
        <circle cx="114.96" cy="77.01" r="1.85"/>
        <circle cx="114.96" cy="72.68" r="1.85"/>
        <circle cx="114.96" cy="68.34" r="1.85"/>
        <circle cx="114.96" cy="64.01" r="1.85"/>
        <circle cx="114.96" cy="59.68" r="1.85"/>
        <circle cx="114.96" cy="55.35" r="1.85"/>
        <circle cx="114.96" cy="51.02" r="1.85"/>
        <circle cx="114.96" cy="46.69" r="1.85"/>
        <circle cx="114.96" cy="42.36" r="1.85"/>
        <circle cx="114.96" cy="38.03" r="1.85"/>
        <circle cx="114.96" cy="33.7" r="1.85"/>
        <circle cx="114.96" cy="29.37" r="1.85"/>
        <circle cx="114.96" cy="25.04" r="1.85"/>
        <circle cx="114.96" cy="20.7" r="1.85"/>
        <g>
            <circle cx="120.89" cy="111.58" r="1.85"/>
            <circle cx="120.89" cy="107.26" r="1.85"/>
            <circle cx="120.89" cy="102.93" r="1.85"/>
            <circle cx="120.89" cy="98.61" r="1.85"/>
            <circle cx="120.89" cy="94.29" r="1.85"/>
            <circle cx="120.89" cy="89.97" r="1.85"/>
            <circle cx="120.89" cy="85.65" r="1.85"/>
            <circle cx="120.89" cy="81.33" r="1.85"/>
            <circle cx="120.89" cy="77.01" r="1.85"/>
            <circle cx="120.89" cy="72.68" r="1.85"/>
            <circle cx="120.89" cy="68.34" r="1.85"/>
            <circle cx="120.89" cy="64.01" r="1.85"/>
            <circle cx="120.89" cy="59.68" r="1.85"/>
            <circle cx="120.89" cy="55.35" r="1.85"/>
            <circle cx="120.89" cy="51.02" r="1.85"/>
            <circle cx="120.89" cy="46.69" r="1.85"/>
            <circle cx="120.89" cy="42.36" r="1.85"/>
            <circle cx="120.89" cy="38.03" r="1.85"/>
            <circle cx="120.89" cy="33.7" r="1.85"/>
            <circle cx="120.89" cy="29.37" r="1.85"/>
            <circle cx="120.89" cy="25.04" r="1.85"/>
            <circle cx="120.89" cy="20.7" r="1.85"/>
        </g>
        <g>
            <circle cx="227.63" cy="120.24" r="1.85"/>
            <circle cx="227.63" cy="115.92" r="1.85"/>
            <circle cx="227.63" cy="111.6" r="1.85"/>
            <circle cx="227.63" cy="107.28" r="1.85"/>
            <circle cx="227.63" cy="102.96" r="1.85"/>
            <circle cx="227.63" cy="98.64" r="1.85"/>
            <circle cx="227.63" cy="94.32" r="1.85"/>
            <circle cx="227.63" cy="89.99" r="1.85"/>
            <circle cx="227.63" cy="85.67" r="1.85"/>
            <circle cx="227.63" cy="81.34" r="1.85"/>
            <circle cx="227.63" cy="77.01" r="1.85"/>
            <circle cx="227.63" cy="72.68" r="1.85"/>
            <circle cx="227.63" cy="68.35" r="1.85"/>
            <circle cx="227.63" cy="64.02" r="1.85"/>
            <circle cx="227.63" cy="59.69" r="1.85"/>
            <circle cx="227.63" cy="55.36" r="1.85"/>
            <circle cx="227.63" cy="51.03" r="1.85"/>
            <circle cx="227.63" cy="46.69" r="1.85"/>
            <circle cx="227.63" cy="42.36" r="1.85"/>
            <circle cx="227.63" cy="38.03" r="1.85"/>
            <circle cx="227.63" cy="33.7" r="1.85"/>
            <circle cx="227.63" cy="29.37" r="1.85"/>
            <circle cx="227.63" cy="25.04" r="1.85"/>
            <circle cx="227.63" cy="20.71" r="1.85"/>
            <circle cx="227.63" cy="16.38" r="1.85"/>
            <circle cx="227.63" cy="12.05" r="1.85"/>
        </g>
        <g>
            <circle cx="221.7" cy="120.24" r="1.85"/>
            <circle cx="221.7" cy="115.92" r="1.85"/>
            <circle cx="221.7" cy="111.6" r="1.85"/>
            <circle cx="221.7" cy="107.28" r="1.85"/>
            <circle cx="221.7" cy="102.96" r="1.85"/>
            <circle cx="221.7" cy="98.64" r="1.85"/>
            <circle cx="221.7" cy="94.32" r="1.85"/>
            <circle cx="221.7" cy="89.99" r="1.85"/>
            <circle cx="221.7" cy="85.67" r="1.85"/>
            <circle cx="221.7" cy="81.34" r="1.85"/>
            <circle cx="221.7" cy="77.01" r="1.85"/>
            <circle cx="221.7" cy="72.68" r="1.85"/>
            <circle cx="221.7" cy="68.35" r="1.85"/>
            <circle cx="221.7" cy="64.02" r="1.85"/>
            <circle cx="221.7" cy="59.69" r="1.85"/>
            <circle cx="221.7" cy="55.36" r="1.85"/>
            <circle cx="221.7" cy="51.03" r="1.85"/>
            <circle cx="221.7" cy="46.69" r="1.85"/>
            <circle cx="221.7" cy="42.36" r="1.85"/>
            <circle cx="221.7" cy="38.03" r="1.85"/>
            <circle cx="221.7" cy="33.7" r="1.85"/>
            <circle cx="221.7" cy="29.37" r="1.85"/>
            <circle cx="221.7" cy="25.04" r="1.85"/>
            <circle cx="221.7" cy="20.71" r="1.85"/>
            <circle cx="221.7" cy="16.38" r="1.85"/>
            <circle cx="221.7" cy="12.05" r="1.85"/>
        </g>
        <g>
            <circle cx="215.77" cy="120.24" r="1.85"/>
            <circle cx="215.77" cy="115.92" r="1.85"/>
            <circle cx="215.77" cy="111.6" r="1.85"/>
            <circle cx="215.77" cy="107.28" r="1.85"/>
            <circle cx="215.77" cy="102.96" r="1.85"/>
            <circle cx="215.77" cy="98.64" r="1.85"/>
            <circle cx="215.77" cy="94.32" r="1.85"/>
            <circle cx="215.77" cy="89.99" r="1.85"/>
            <circle cx="215.77" cy="85.67" r="1.85"/>
            <circle cx="215.77" cy="81.34" r="1.85"/>
            <circle cx="215.77" cy="77.01" r="1.85"/>
            <circle cx="215.77" cy="72.68" r="1.85"/>
            <circle cx="215.77" cy="68.35" r="1.85"/>
            <circle cx="215.77" cy="64.02" r="1.85"/>
            <circle cx="215.77" cy="59.69" r="1.85"/>
            <circle cx="215.77" cy="55.36" r="1.85"/>
            <circle cx="215.77" cy="51.03" r="1.85"/>
            <circle cx="215.77" cy="46.69" r="1.85"/>
            <circle cx="215.77" cy="42.36" r="1.85"/>
            <circle cx="215.77" cy="38.03" r="1.85"/>
            <circle cx="215.77" cy="33.7" r="1.85"/>
            <circle cx="215.77" cy="29.37" r="1.85"/>
            <circle cx="215.77" cy="25.04" r="1.85"/>
            <circle cx="215.77" cy="20.71" r="1.85"/>
            <circle cx="215.77" cy="16.38" r="1.85"/>
            <circle cx="215.77" cy="12.05" r="1.85"/>
        </g>
        <g>
            <circle cx="209.84" cy="120.24" r="1.85"/>
            <circle cx="209.84" cy="115.92" r="1.85"/>
            <circle cx="209.84" cy="111.6" r="1.85"/>
            <circle cx="209.84" cy="107.28" r="1.85"/>
            <circle cx="209.84" cy="102.96" r="1.85"/>
            <circle cx="209.84" cy="98.64" r="1.85"/>
            <circle cx="209.84" cy="94.32" r="1.85"/>
            <circle cx="209.84" cy="89.99" r="1.85"/>
            <circle cx="209.84" cy="85.67" r="1.85"/>
            <circle cx="209.84" cy="81.34" r="1.85"/>
            <circle cx="209.84" cy="77.01" r="1.85"/>
            <circle cx="209.84" cy="72.68" r="1.85"/>
            <circle cx="209.84" cy="68.35" r="1.85"/>
            <circle cx="209.84" cy="64.02" r="1.85"/>
            <circle cx="209.84" cy="59.69" r="1.85"/>
            <circle cx="209.84" cy="55.36" r="1.85"/>
            <circle cx="209.84" cy="51.03" r="1.85"/>
            <circle cx="209.84" cy="46.69" r="1.85"/>
            <circle cx="209.84" cy="42.36" r="1.85"/>
            <circle cx="209.84" cy="38.03" r="1.85"/>
            <circle cx="209.84" cy="33.7" r="1.85"/>
            <circle cx="209.84" cy="29.37" r="1.85"/>
            <circle cx="209.84" cy="25.04" r="1.85"/>
            <circle cx="209.84" cy="20.71" r="1.85"/>
            <circle cx="209.84" cy="16.38" r="1.85"/>
            <circle cx="209.84" cy="12.05" r="1.85"/>
        </g>
        <g>
            <circle cx="203.91" cy="120.24" r="1.85"/>
            <circle cx="203.91" cy="115.92" r="1.85"/>
            <circle cx="203.91" cy="111.6" r="1.85"/>
            <circle cx="203.91" cy="107.28" r="1.85"/>
            <circle cx="203.91" cy="102.96" r="1.85"/>
            <circle cx="203.91" cy="98.64" r="1.85"/>
            <circle cx="203.91" cy="94.32" r="1.85"/>
            <circle cx="203.91" cy="89.99" r="1.85"/>
            <circle cx="203.91" cy="85.67" r="1.85"/>
            <circle cx="203.91" cy="81.34" r="1.85"/>
            <circle cx="203.91" cy="77.01" r="1.85"/>
            <circle cx="203.91" cy="72.68" r="1.85"/>
            <circle cx="203.91" cy="68.35" r="1.85"/>
            <circle cx="203.91" cy="64.02" r="1.85"/>
            <circle cx="203.91" cy="59.69" r="1.85"/>
            <circle cx="203.91" cy="55.36" r="1.85"/>
            <circle cx="203.91" cy="51.03" r="1.85"/>
            <circle cx="203.91" cy="46.69" r="1.85"/>
            <circle cx="203.91" cy="42.36" r="1.85"/>
            <circle cx="203.91" cy="38.03" r="1.85"/>
            <circle cx="203.91" cy="33.7" r="1.85"/>
            <circle cx="203.91" cy="29.37" r="1.85"/>
            <circle cx="203.91" cy="25.04" r="1.85"/>
            <circle cx="203.91" cy="20.71" r="1.85"/>
            <circle cx="203.91" cy="16.38" r="1.85"/>
            <circle cx="203.91" cy="12.05" r="1.85"/>
        </g>
        <g>
            <circle cx="197.98" cy="120.24" r="1.85"/>
            <circle cx="197.98" cy="115.92" r="1.85"/>
            <circle cx="197.98" cy="111.6" r="1.85"/>
            <circle cx="197.98" cy="107.28" r="1.85"/>
            <circle cx="197.98" cy="102.96" r="1.85"/>
            <circle cx="197.98" cy="98.64" r="1.85"/>
            <circle cx="197.98" cy="94.32" r="1.85"/>
            <circle cx="197.98" cy="89.99" r="1.85"/>
            <circle cx="197.98" cy="85.67" r="1.85"/>
            <circle cx="197.98" cy="81.34" r="1.85"/>
            <circle cx="197.98" cy="77.01" r="1.85"/>
            <circle cx="197.98" cy="72.68" r="1.85"/>
            <circle cx="197.98" cy="68.35" r="1.85"/>
            <circle cx="197.98" cy="64.02" r="1.85"/>
            <circle cx="197.98" cy="59.69" r="1.85"/>
            <circle cx="197.98" cy="55.36" r="1.85"/>
            <circle cx="197.98" cy="51.03" r="1.85"/>
            <circle cx="197.98" cy="46.69" r="1.85"/>
            <circle cx="197.98" cy="42.36" r="1.85"/>
            <circle cx="197.98" cy="38.03" r="1.85"/>
            <circle cx="197.98" cy="33.7" r="1.85"/>
            <circle cx="197.98" cy="29.37" r="1.85"/>
            <circle cx="197.98" cy="25.04" r="1.85"/>
            <circle cx="197.98" cy="20.71" r="1.85"/>
            <circle cx="197.98" cy="16.38" r="1.85"/>
            <circle cx="197.98" cy="12.05" r="1.85"/>
        </g>
        <g>
            <circle cx="192.05" cy="120.24" r="1.85"/>
            <circle cx="192.05" cy="115.92" r="1.85"/>
            <circle cx="192.05" cy="111.6" r="1.85"/>
            <circle cx="192.05" cy="107.28" r="1.85"/>
            <circle cx="192.05" cy="102.96" r="1.85"/>
            <circle cx="192.05" cy="98.64" r="1.85"/>
            <circle cx="192.05" cy="94.32" r="1.85"/>
            <circle cx="192.05" cy="89.99" r="1.85"/>
            <circle cx="192.05" cy="85.67" r="1.85"/>
            <circle cx="192.05" cy="81.34" r="1.85"/>
            <circle cx="192.05" cy="77.01" r="1.85"/>
            <circle cx="192.05" cy="72.68" r="1.85"/>
            <circle cx="192.05" cy="68.35" r="1.85"/>
            <circle cx="192.05" cy="64.02" r="1.85"/>
            <circle cx="192.05" cy="59.69" r="1.85"/>
            <circle cx="192.05" cy="55.36" r="1.85"/>
            <circle cx="192.05" cy="51.03" r="1.85"/>
            <circle cx="192.05" cy="46.69" r="1.85"/>
            <circle cx="192.05" cy="42.36" r="1.85"/>
            <circle cx="192.05" cy="38.03" r="1.85"/>
            <circle cx="192.05" cy="33.7" r="1.85"/>
            <circle cx="192.05" cy="29.37" r="1.85"/>
            <circle cx="192.05" cy="25.04" r="1.85"/>
            <circle cx="192.05" cy="20.71" r="1.85"/>
            <circle cx="192.05" cy="16.38" r="1.85"/>
            <circle cx="192.05" cy="12.05" r="1.85"/>
        </g>
        <g>
            <circle cx="186.12" cy="120.24" r="1.85"/>
            <circle cx="186.12" cy="115.92" r="1.85"/>
            <circle cx="186.12" cy="111.6" r="1.85"/>
            <circle cx="186.12" cy="107.28" r="1.85"/>
            <circle cx="186.12" cy="102.96" r="1.85"/>
            <circle cx="186.12" cy="98.64" r="1.85"/>
            <circle cx="186.12" cy="94.32" r="1.85"/>
            <circle cx="186.12" cy="89.99" r="1.85"/>
            <circle cx="186.12" cy="85.67" r="1.85"/>
            <circle cx="186.12" cy="81.34" r="1.85"/>
            <circle cx="186.12" cy="77.01" r="1.85"/>
            <circle cx="186.12" cy="72.68" r="1.85"/>
            <circle cx="186.12" cy="68.35" r="1.85"/>
            <circle cx="186.12" cy="64.02" r="1.85"/>
            <circle cx="186.12" cy="59.69" r="1.85"/>
            <circle cx="186.12" cy="55.36" r="1.85"/>
            <circle cx="186.12" cy="51.03" r="1.85"/>
            <circle cx="186.12" cy="46.69" r="1.85"/>
            <circle cx="186.12" cy="42.36" r="1.85"/>
            <circle cx="186.12" cy="38.03" r="1.85"/>
            <circle cx="186.12" cy="33.7" r="1.85"/>
            <circle cx="186.12" cy="29.37" r="1.85"/>
            <circle cx="186.12" cy="25.04" r="1.85"/>
            <circle cx="186.12" cy="20.71" r="1.85"/>
            <circle cx="186.12" cy="16.38" r="1.85"/>
            <circle cx="186.12" cy="12.05" r="1.85"/>
        </g>
        <g>
            <circle cx="180.19" cy="120.24" r="1.85"/>
            <circle cx="180.19" cy="115.92" r="1.85"/>
            <circle cx="180.19" cy="111.6" r="1.85"/>
            <circle cx="180.19" cy="107.28" r="1.85"/>
            <circle cx="180.19" cy="102.96" r="1.85"/>
            <circle cx="180.19" cy="98.64" r="1.85"/>
            <circle cx="180.19" cy="94.32" r="1.85"/>
            <circle cx="180.19" cy="89.99" r="1.85"/>
            <circle cx="180.19" cy="85.67" r="1.85"/>
            <circle cx="180.19" cy="81.34" r="1.85"/>
            <circle cx="180.19" cy="77.01" r="1.85"/>
            <circle cx="180.19" cy="72.68" r="1.85"/>
            <circle cx="180.19" cy="68.35" r="1.85"/>
            <circle cx="180.19" cy="64.02" r="1.85"/>
            <circle cx="180.19" cy="59.69" r="1.85"/>
            <circle cx="180.19" cy="55.36" r="1.85"/>
            <circle cx="180.19" cy="51.03" r="1.85"/>
            <circle cx="180.19" cy="46.69" r="1.85"/>
            <circle cx="180.19" cy="42.36" r="1.85"/>
            <circle cx="180.19" cy="38.03" r="1.85"/>
            <circle cx="180.19" cy="33.7" r="1.85"/>
            <circle cx="180.19" cy="29.37" r="1.85"/>
            <circle cx="180.19" cy="25.04" r="1.85"/>
            <circle cx="180.19" cy="20.71" r="1.85"/>
            <circle cx="180.19" cy="16.38" r="1.85"/>
            <circle cx="180.19" cy="12.05" r="1.85"/>
        </g>
        <g>
            <circle cx="174.26" cy="120.24" r="1.85"/>
            <circle cx="174.26" cy="115.92" r="1.85"/>
            <circle cx="174.26" cy="111.6" r="1.85"/>
            <circle cx="174.26" cy="107.28" r="1.85"/>
            <circle cx="174.26" cy="102.96" r="1.85"/>
            <circle cx="174.26" cy="98.64" r="1.85"/>
            <circle cx="174.26" cy="94.32" r="1.85"/>
            <circle cx="174.26" cy="89.99" r="1.85"/>
            <circle cx="174.26" cy="85.67" r="1.85"/>
            <circle cx="174.26" cy="81.34" r="1.85"/>
            <circle cx="174.26" cy="77.01" r="1.85"/>
            <circle cx="174.26" cy="72.68" r="1.85"/>
            <circle cx="174.26" cy="68.35" r="1.85"/>
            <circle cx="174.26" cy="64.02" r="1.85"/>
            <circle cx="174.26" cy="59.69" r="1.85"/>
            <circle cx="174.26" cy="55.36" r="1.85"/>
            <circle cx="174.26" cy="51.03" r="1.85"/>
            <circle cx="174.26" cy="46.69" r="1.85"/>
            <circle cx="174.26" cy="42.36" r="1.85"/>
            <circle cx="174.26" cy="38.03" r="1.85"/>
            <circle cx="174.26" cy="33.7" r="1.85"/>
            <circle cx="174.26" cy="29.37" r="1.85"/>
            <circle cx="174.26" cy="25.04" r="1.85"/>
            <circle cx="174.26" cy="20.71" r="1.85"/>
            <circle cx="174.26" cy="16.38" r="1.85"/>
            <circle cx="174.26" cy="12.05" r="1.85"/>
        </g>
        <g>
            <circle cx="168.33" cy="120.24" r="1.85"/>
            <circle cx="168.33" cy="115.92" r="1.85"/>
            <circle cx="168.33" cy="111.6" r="1.85"/>
            <circle cx="168.33" cy="107.28" r="1.85"/>
            <circle cx="168.33" cy="102.96" r="1.85"/>
            <circle cx="168.33" cy="98.64" r="1.85"/>
            <circle cx="168.33" cy="94.32" r="1.85"/>
            <circle cx="168.33" cy="89.99" r="1.85"/>
            <circle cx="168.33" cy="85.67" r="1.85"/>
            <circle cx="168.33" cy="81.34" r="1.85"/>
            <circle cx="168.33" cy="77.01" r="1.85"/>
            <circle cx="168.33" cy="72.68" r="1.85"/>
            <circle cx="168.33" cy="68.35" r="1.85"/>
            <circle cx="168.33" cy="64.02" r="1.85"/>
            <circle cx="168.33" cy="59.69" r="1.85"/>
            <circle cx="168.33" cy="55.36" r="1.85"/>
            <circle cx="168.33" cy="51.03" r="1.85"/>
            <circle cx="168.33" cy="46.69" r="1.85"/>
            <circle cx="168.33" cy="42.36" r="1.85"/>
            <circle cx="168.33" cy="38.03" r="1.85"/>
            <circle cx="168.33" cy="33.7" r="1.85"/>
            <circle cx="168.33" cy="29.37" r="1.85"/>
            <circle cx="168.33" cy="25.04" r="1.85"/>
            <circle cx="168.33" cy="20.71" r="1.85"/>
            <circle cx="168.33" cy="16.38" r="1.85"/>
            <circle cx="168.33" cy="12.05" r="1.85"/>
        </g>
        <g>
            <circle cx="162.4" cy="120.24" r="1.85"/>
            <circle cx="162.4" cy="115.92" r="1.85"/>
            <circle cx="162.4" cy="111.6" r="1.85"/>
            <circle cx="162.4" cy="107.28" r="1.85"/>
            <circle cx="162.4" cy="102.96" r="1.85"/>
            <circle cx="162.4" cy="98.64" r="1.85"/>
            <circle cx="162.4" cy="94.32" r="1.85"/>
            <circle cx="162.4" cy="89.99" r="1.85"/>
            <circle cx="162.4" cy="85.67" r="1.85"/>
            <circle cx="162.4" cy="81.34" r="1.85"/>
            <circle cx="162.4" cy="77.01" r="1.85"/>
            <circle cx="162.4" cy="72.68" r="1.85"/>
            <circle cx="162.4" cy="68.35" r="1.85"/>
            <circle cx="162.4" cy="64.02" r="1.85"/>
            <circle cx="162.4" cy="59.69" r="1.85"/>
            <circle cx="162.4" cy="55.36" r="1.85"/>
            <circle cx="162.4" cy="51.03" r="1.85"/>
            <circle cx="162.4" cy="46.69" r="1.85"/>
            <circle cx="162.4" cy="42.36" r="1.85"/>
            <circle cx="162.4" cy="38.03" r="1.85"/>
            <circle cx="162.4" cy="33.7" r="1.85"/>
            <circle cx="162.4" cy="29.37" r="1.85"/>
            <circle cx="162.4" cy="25.04" r="1.85"/>
            <circle cx="162.4" cy="20.71" r="1.85"/>
            <circle cx="162.4" cy="16.38" r="1.85"/>
            <circle cx="162.4" cy="12.05" r="1.85"/>
        </g>
        <g>
            <circle cx="156.47" cy="120.24" r="1.85"/>
            <circle cx="156.47" cy="115.92" r="1.85"/>
            <circle cx="156.47" cy="111.6" r="1.85"/>
            <circle cx="156.47" cy="107.28" r="1.85"/>
            <circle cx="156.47" cy="102.96" r="1.85"/>
            <circle cx="156.47" cy="98.64" r="1.85"/>
            <circle cx="156.47" cy="94.32" r="1.85"/>
            <circle cx="156.47" cy="89.99" r="1.85"/>
            <circle cx="156.47" cy="85.67" r="1.85"/>
            <circle cx="156.47" cy="81.34" r="1.85"/>
            <circle cx="156.47" cy="77.01" r="1.85"/>
            <circle cx="156.47" cy="72.68" r="1.85"/>
            <circle cx="156.47" cy="68.35" r="1.85"/>
            <circle cx="156.47" cy="64.02" r="1.85"/>
            <circle cx="156.47" cy="59.69" r="1.85"/>
            <circle cx="156.47" cy="55.36" r="1.85"/>
            <circle cx="156.47" cy="51.03" r="1.85"/>
            <circle cx="156.47" cy="46.69" r="1.85"/>
            <circle cx="156.47" cy="42.36" r="1.85"/>
            <circle cx="156.47" cy="38.03" r="1.85"/>
            <circle cx="156.47" cy="33.7" r="1.85"/>
            <circle cx="156.47" cy="29.37" r="1.85"/>
            <circle cx="156.47" cy="25.04" r="1.85"/>
            <circle cx="156.47" cy="20.71" r="1.85"/>
            <circle cx="156.47" cy="16.38" r="1.85"/>
            <circle cx="156.47" cy="12.05" r="1.85"/>
        </g>
        <g>
            <circle cx="150.54" cy="120.24" r="1.85"/>
            <circle cx="150.54" cy="115.92" r="1.85"/>
            <circle cx="150.54" cy="111.6" r="1.85"/>
            <circle cx="150.54" cy="107.28" r="1.85"/>
            <circle cx="150.54" cy="102.96" r="1.85"/>
            <circle cx="150.54" cy="98.64" r="1.85"/>
            <circle cx="150.54" cy="94.32" r="1.85"/>
            <circle cx="150.54" cy="89.99" r="1.85"/>
            <circle cx="150.54" cy="85.67" r="1.85"/>
            <circle cx="150.54" cy="81.34" r="1.85"/>
            <circle cx="150.54" cy="77.01" r="1.85"/>
            <circle cx="150.54" cy="72.68" r="1.85"/>
            <circle cx="150.54" cy="68.35" r="1.85"/>
            <circle cx="150.54" cy="64.02" r="1.85"/>
            <circle cx="150.54" cy="59.69" r="1.85"/>
            <circle cx="150.54" cy="55.36" r="1.85"/>
            <circle cx="150.54" cy="51.03" r="1.85"/>
            <circle cx="150.54" cy="46.69" r="1.85"/>
            <circle cx="150.54" cy="42.36" r="1.85"/>
            <circle cx="150.54" cy="38.03" r="1.85"/>
            <circle cx="150.54" cy="33.7" r="1.85"/>
            <circle cx="150.54" cy="29.37" r="1.85"/>
            <circle cx="150.54" cy="25.04" r="1.85"/>
            <circle cx="150.54" cy="20.71" r="1.85"/>
            <circle cx="150.54" cy="16.38" r="1.85"/>
            <circle cx="150.54" cy="12.05" r="1.85"/>
        </g>
        <g>
            <circle cx="144.61" cy="120.24" r="1.85"/>
            <circle cx="144.61" cy="115.92" r="1.85"/>
            <circle cx="144.61" cy="111.6" r="1.85"/>
            <circle cx="144.61" cy="107.28" r="1.85"/>
            <circle cx="144.61" cy="102.96" r="1.85"/>
            <circle cx="144.61" cy="98.64" r="1.85"/>
            <circle cx="144.61" cy="94.32" r="1.85"/>
            <circle cx="144.61" cy="89.99" r="1.85"/>
            <circle cx="144.61" cy="85.67" r="1.85"/>
            <circle cx="144.61" cy="81.34" r="1.85"/>
            <circle cx="144.61" cy="77.01" r="1.85"/>
            <circle cx="144.61" cy="72.68" r="1.85"/>
            <circle cx="144.61" cy="68.35" r="1.85"/>
            <circle cx="144.61" cy="64.02" r="1.85"/>
            <circle cx="144.61" cy="59.69" r="1.85"/>
            <circle cx="144.61" cy="55.36" r="1.85"/>
            <circle cx="144.61" cy="51.03" r="1.85"/>
            <circle cx="144.61" cy="46.69" r="1.85"/>
            <circle cx="144.61" cy="42.36" r="1.85"/>
            <circle cx="144.61" cy="38.03" r="1.85"/>
            <circle cx="144.61" cy="33.7" r="1.85"/>
            <circle cx="144.61" cy="29.37" r="1.85"/>
            <circle cx="144.61" cy="25.04" r="1.85"/>
            <circle cx="144.61" cy="20.71" r="1.85"/>
            <circle cx="144.61" cy="16.38" r="1.85"/>
            <circle cx="144.61" cy="12.05" r="1.85"/>
        </g>
        <g>
            <circle cx="138.68" cy="120.24" r="1.85"/>
            <circle cx="138.68" cy="115.92" r="1.85"/>
            <circle cx="138.68" cy="111.6" r="1.85"/>
            <circle cx="138.68" cy="107.28" r="1.85"/>
            <circle cx="138.68" cy="102.96" r="1.85"/>
            <circle cx="138.68" cy="98.64" r="1.85"/>
            <circle cx="138.68" cy="94.32" r="1.85"/>
            <circle cx="138.68" cy="89.99" r="1.85"/>
            <circle cx="138.68" cy="85.67" r="1.85"/>
            <circle cx="138.68" cy="81.34" r="1.85"/>
            <circle cx="138.68" cy="77.01" r="1.85"/>
            <circle cx="138.68" cy="72.68" r="1.85"/>
            <circle cx="138.68" cy="68.35" r="1.85"/>
            <circle cx="138.68" cy="64.02" r="1.85"/>
            <circle cx="138.68" cy="59.69" r="1.85"/>
            <circle cx="138.68" cy="55.36" r="1.85"/>
            <circle cx="138.68" cy="51.03" r="1.85"/>
            <circle cx="138.68" cy="46.69" r="1.85"/>
            <circle cx="138.68" cy="42.36" r="1.85"/>
            <circle cx="138.68" cy="38.03" r="1.85"/>
            <circle cx="138.68" cy="33.7" r="1.85"/>
            <circle cx="138.68" cy="29.37" r="1.85"/>
            <circle cx="138.68" cy="25.04" r="1.85"/>
            <circle cx="138.68" cy="20.71" r="1.85"/>
            <circle cx="138.68" cy="16.38" r="1.85"/>
            <circle cx="138.68" cy="12.05" r="1.85"/>
        </g>
        <g>
            <circle cx="132.75" cy="120.24" r="1.85"/>
            <circle cx="132.75" cy="115.92" r="1.85"/>
            <circle cx="132.75" cy="111.6" r="1.85"/>
            <circle cx="132.75" cy="107.28" r="1.85"/>
            <circle cx="132.75" cy="102.96" r="1.85"/>
            <circle cx="132.75" cy="98.64" r="1.85"/>
            <circle cx="132.75" cy="94.32" r="1.85"/>
            <circle cx="132.75" cy="89.99" r="1.85"/>
            <circle cx="132.75" cy="85.67" r="1.85"/>
            <circle cx="132.75" cy="81.34" r="1.85"/>
            <circle cx="132.75" cy="77.01" r="1.85"/>
            <circle cx="132.75" cy="72.68" r="1.85"/>
            <circle cx="132.75" cy="68.35" r="1.85"/>
            <circle cx="132.75" cy="64.02" r="1.85"/>
            <circle cx="132.75" cy="59.69" r="1.85"/>
            <circle cx="132.75" cy="55.36" r="1.85"/>
            <circle cx="132.75" cy="51.03" r="1.85"/>
            <circle cx="132.75" cy="46.69" r="1.85"/>
            <circle cx="132.75" cy="42.36" r="1.85"/>
            <circle cx="132.75" cy="38.03" r="1.85"/>
            <circle cx="132.75" cy="33.7" r="1.85"/>
            <circle cx="132.75" cy="29.37" r="1.85"/>
            <circle cx="132.75" cy="25.04" r="1.85"/>
            <circle cx="132.75" cy="20.71" r="1.85"/>
            <circle cx="132.75" cy="16.38" r="1.85"/>
            <circle cx="132.75" cy="12.05" r="1.85"/>
        </g>
        <g>
            <circle cx="126.82" cy="120.24" r="1.85"/>
            <circle cx="126.82" cy="115.92" r="1.85"/>
            <circle cx="126.82" cy="111.6" r="1.85"/>
            <circle cx="126.82" cy="107.28" r="1.85"/>
            <circle cx="126.82" cy="102.96" r="1.85"/>
            <circle cx="126.82" cy="98.64" r="1.85"/>
            <circle cx="126.82" cy="94.32" r="1.85"/>
            <circle cx="126.82" cy="89.99" r="1.85"/>
            <circle cx="126.82" cy="85.67" r="1.85"/>
            <circle cx="126.82" cy="81.34" r="1.85"/>
            <circle cx="126.82" cy="77.01" r="1.85"/>
            <circle cx="126.82" cy="72.68" r="1.85"/>
            <circle cx="126.82" cy="68.35" r="1.85"/>
            <circle cx="126.82" cy="64.02" r="1.85"/>
            <circle cx="126.82" cy="59.69" r="1.85"/>
            <circle cx="126.82" cy="55.36" r="1.85"/>
            <circle cx="126.82" cy="51.03" r="1.85"/>
            <circle cx="126.82" cy="46.69" r="1.85"/>
            <circle cx="126.82" cy="42.36" r="1.85"/>
            <circle cx="126.82" cy="38.03" r="1.85"/>
            <circle cx="126.82" cy="33.7" r="1.85"/>
            <circle cx="126.82" cy="29.37" r="1.85"/>
            <circle cx="126.82" cy="25.04" r="1.85"/>
            <circle cx="126.82" cy="20.71" r="1.85"/>
            <circle cx="126.82" cy="16.38" r="1.85"/>
            <circle cx="126.82" cy="12.05" r="1.85"/>
        </g>
        <g>
            <circle cx="91.23" cy="120.24" r="1.85"/>
            <circle cx="91.23" cy="115.92" r="1.85"/>
            <circle cx="91.23" cy="111.6" r="1.85"/>
            <circle cx="91.23" cy="107.28" r="1.85"/>
            <circle cx="91.23" cy="102.96" r="1.85"/>
            <circle cx="91.23" cy="98.64" r="1.85"/>
            <circle cx="91.23" cy="94.32" r="1.85"/>
            <circle cx="91.23" cy="89.99" r="1.85"/>
            <circle cx="91.23" cy="85.67" r="1.85"/>
            <circle cx="91.23" cy="81.34" r="1.85"/>
            <circle cx="91.23" cy="77.01" r="1.85"/>
            <circle cx="91.23" cy="72.68" r="1.85"/>
            <circle cx="91.23" cy="68.35" r="1.85"/>
            <circle cx="91.23" cy="64.02" r="1.85"/>
            <circle cx="91.23" cy="59.69" r="1.85"/>
            <circle cx="91.23" cy="55.36" r="1.85"/>
            <circle cx="91.23" cy="51.03" r="1.85"/>
            <circle cx="91.23" cy="46.69" r="1.85"/>
            <circle cx="91.23" cy="42.36" r="1.85"/>
            <circle cx="91.23" cy="38.03" r="1.85"/>
            <circle cx="91.23" cy="33.7" r="1.85"/>
            <circle cx="91.23" cy="29.37" r="1.85"/>
            <circle cx="91.23" cy="25.04" r="1.85"/>
            <circle cx="91.23" cy="20.71" r="1.85"/>
            <circle cx="91.23" cy="16.38" r="1.85"/>
            <circle cx="91.23" cy="12.05" r="1.85"/>
        </g>
        <g>
            <circle cx="85.3" cy="120.24" r="1.85"/>
            <circle cx="85.3" cy="115.92" r="1.85"/>
            <circle cx="85.3" cy="111.6" r="1.85"/>
            <circle cx="85.3" cy="107.28" r="1.85"/>
            <circle cx="85.3" cy="102.96" r="1.85"/>
            <circle cx="85.3" cy="98.64" r="1.85"/>
            <circle cx="85.3" cy="94.32" r="1.85"/>
            <circle cx="85.3" cy="89.99" r="1.85"/>
            <circle cx="85.3" cy="85.67" r="1.85"/>
            <circle cx="85.3" cy="81.34" r="1.85"/>
            <circle cx="85.3" cy="77.01" r="1.85"/>
            <circle cx="85.3" cy="72.68" r="1.85"/>
            <circle cx="85.3" cy="68.35" r="1.85"/>
            <circle cx="85.3" cy="64.02" r="1.85"/>
            <circle cx="85.3" cy="59.69" r="1.85"/>
            <circle cx="85.3" cy="55.36" r="1.85"/>
            <circle cx="85.3" cy="51.03" r="1.85"/>
            <circle cx="85.3" cy="46.69" r="1.85"/>
            <circle cx="85.3" cy="42.36" r="1.85"/>
            <circle cx="85.3" cy="38.03" r="1.85"/>
            <circle cx="85.3" cy="33.7" r="1.85"/>
            <circle cx="85.3" cy="29.37" r="1.85"/>
            <circle cx="85.3" cy="25.04" r="1.85"/>
            <circle cx="85.3" cy="20.71" r="1.85"/>
            <circle cx="85.3" cy="16.38" r="1.85"/>
            <circle cx="85.3" cy="12.05" r="1.85"/>
        </g>
        <g>
            <circle cx="79.37" cy="120.24" r="1.85"/>
            <circle cx="79.37" cy="115.92" r="1.85"/>
            <circle cx="79.37" cy="111.6" r="1.85"/>
            <circle cx="79.37" cy="107.28" r="1.85"/>
            <circle cx="79.37" cy="102.96" r="1.85"/>
            <circle cx="79.37" cy="98.64" r="1.85"/>
            <circle cx="79.37" cy="94.32" r="1.85"/>
            <circle cx="79.37" cy="89.99" r="1.85"/>
            <circle cx="79.37" cy="85.67" r="1.85"/>
            <circle cx="79.37" cy="81.34" r="1.85"/>
            <circle cx="79.37" cy="77.01" r="1.85"/>
            <circle cx="79.37" cy="72.68" r="1.85"/>
            <circle cx="79.37" cy="68.35" r="1.85"/>
            <circle cx="79.37" cy="64.02" r="1.85"/>
            <circle cx="79.37" cy="59.69" r="1.85"/>
            <circle cx="79.37" cy="55.36" r="1.85"/>
            <circle cx="79.37" cy="51.03" r="1.85"/>
            <circle cx="79.37" cy="46.69" r="1.85"/>
            <circle cx="79.37" cy="42.36" r="1.85"/>
            <circle cx="79.37" cy="38.03" r="1.85"/>
            <circle cx="79.37" cy="33.7" r="1.85"/>
            <circle cx="79.37" cy="29.37" r="1.85"/>
            <circle cx="79.37" cy="25.04" r="1.85"/>
            <circle cx="79.37" cy="20.71" r="1.85"/>
            <circle cx="79.37" cy="16.38" r="1.85"/>
            <circle cx="79.37" cy="12.05" r="1.85"/>
        </g>
        <g>
            <circle cx="73.44" cy="120.24" r="1.85"/>
            <circle cx="73.44" cy="115.92" r="1.85"/>
            <circle cx="73.44" cy="111.6" r="1.85"/>
            <circle cx="73.44" cy="107.28" r="1.85"/>
            <circle cx="73.44" cy="102.96" r="1.85"/>
            <circle cx="73.44" cy="98.64" r="1.85"/>
            <circle cx="73.44" cy="94.32" r="1.85"/>
            <circle cx="73.44" cy="89.99" r="1.85"/>
            <circle cx="73.44" cy="85.67" r="1.85"/>
            <circle cx="73.44" cy="81.34" r="1.85"/>
            <circle cx="73.44" cy="77.01" r="1.85"/>
            <circle cx="73.44" cy="72.68" r="1.85"/>
            <circle cx="73.44" cy="68.35" r="1.85"/>
            <circle cx="73.44" cy="64.02" r="1.85"/>
            <circle cx="73.44" cy="59.69" r="1.85"/>
            <circle cx="73.44" cy="55.36" r="1.85"/>
            <circle cx="73.44" cy="51.03" r="1.85"/>
            <circle cx="73.44" cy="46.69" r="1.85"/>
            <path d="M75.29 42.36c0 1.02-.83 1.85-1.85 1.85s-1.85-.83-1.85-1.85.83-1.85 1.85-1.85 1.85.83 1.85 1.85"/>
            <circle cx="73.44" cy="38.03" r="1.85"/>
            <circle cx="73.44" cy="33.7" r="1.85"/>
            <circle cx="73.44" cy="29.37" r="1.85"/>
            <circle cx="73.44" cy="25.04" r="1.85"/>
            <circle cx="73.44" cy="20.71" r="1.85"/>
            <circle cx="73.44" cy="16.38" r="1.85"/>
            <circle cx="73.44" cy="12.05" r="1.85"/>
        </g>
        <g>
            <circle cx="67.51" cy="120.24" r="1.85"/>
            <circle cx="67.51" cy="115.92" r="1.85"/>
            <circle cx="67.51" cy="111.6" r="1.85"/>
            <circle cx="67.51" cy="107.28" r="1.85"/>
            <circle cx="67.51" cy="102.96" r="1.85"/>
            <circle cx="67.51" cy="98.64" r="1.85"/>
            <circle cx="67.51" cy="94.32" r="1.85"/>
            <circle cx="67.51" cy="89.99" r="1.85"/>
            <circle cx="67.51" cy="85.67" r="1.85"/>
            <circle cx="67.51" cy="81.34" r="1.85"/>
            <circle cx="67.51" cy="77.01" r="1.85"/>
            <circle cx="67.51" cy="72.68" r="1.85"/>
            <circle cx="67.51" cy="68.35" r="1.85"/>
            <circle cx="67.51" cy="64.02" r="1.85"/>
            <circle cx="67.51" cy="59.69" r="1.85"/>
            <circle cx="67.51" cy="55.36" r="1.85"/>
            <circle cx="67.51" cy="51.03" r="1.85"/>
            <circle cx="67.51" cy="46.69" r="1.85"/>
            <circle cx="67.51" cy="42.36" r="1.85"/>
            <circle cx="67.51" cy="38.03" r="1.85"/>
            <circle cx="67.51" cy="33.7" r="1.85"/>
            <circle cx="67.51" cy="29.37" r="1.85"/>
            <circle cx="67.51" cy="25.04" r="1.85"/>
            <circle cx="67.51" cy="20.71" r="1.85"/>
            <circle cx="67.51" cy="16.38" r="1.85"/>
            <circle cx="67.51" cy="12.05" r="1.85"/>
        </g>
        <g>
            <circle cx="61.58" cy="120.24" r="1.85"/>
            <circle cx="61.58" cy="115.92" r="1.85"/>
            <circle cx="61.58" cy="111.6" r="1.85"/>
            <circle cx="61.58" cy="107.28" r="1.85"/>
            <circle cx="61.58" cy="102.96" r="1.85"/>
            <circle cx="61.58" cy="98.64" r="1.85"/>
            <circle cx="61.58" cy="94.32" r="1.85"/>
            <circle cx="61.58" cy="89.99" r="1.85"/>
            <circle cx="61.58" cy="85.67" r="1.85"/>
            <circle cx="61.58" cy="81.34" r="1.85"/>
            <circle cx="61.58" cy="77.01" r="1.85"/>
            <circle cx="61.58" cy="72.68" r="1.85"/>
            <circle cx="61.58" cy="68.35" r="1.85"/>
            <circle cx="61.58" cy="64.02" r="1.85"/>
            <circle cx="61.58" cy="59.69" r="1.85"/>
            <circle cx="61.58" cy="55.36" r="1.85"/>
            <circle cx="61.58" cy="51.03" r="1.85"/>
            <circle cx="61.58" cy="46.69" r="1.85"/>
            <circle cx="61.58" cy="42.36" r="1.85"/>
            <circle cx="61.58" cy="38.03" r="1.85"/>
            <circle cx="61.58" cy="33.7" r="1.85"/>
            <circle cx="61.58" cy="29.37" r="1.85"/>
            <circle cx="61.58" cy="25.04" r="1.85"/>
            <circle cx="61.58" cy="20.71" r="1.85"/>
            <circle cx="61.58" cy="16.38" r="1.85"/>
            <circle cx="61.58" cy="12.05" r="1.85"/>
        </g>
        <g>
            <circle cx="55.65" cy="120.24" r="1.85"/>
            <circle cx="55.65" cy="115.92" r="1.85"/>
            <circle cx="55.65" cy="111.6" r="1.85"/>
            <circle cx="55.65" cy="107.28" r="1.85"/>
            <circle cx="55.65" cy="102.96" r="1.85"/>
            <circle cx="55.65" cy="98.64" r="1.85"/>
            <circle cx="55.65" cy="94.32" r="1.85"/>
            <circle cx="55.65" cy="89.99" r="1.85"/>
            <circle cx="55.65" cy="85.67" r="1.85"/>
            <circle cx="55.65" cy="81.34" r="1.85"/>
            <circle cx="55.65" cy="77.01" r="1.85"/>
            <circle cx="55.65" cy="72.68" r="1.85"/>
            <circle cx="55.65" cy="68.35" r="1.85"/>
            <circle cx="55.65" cy="64.02" r="1.85"/>
            <circle cx="55.65" cy="59.69" r="1.85"/>
            <circle cx="55.65" cy="55.36" r="1.85"/>
            <circle cx="55.65" cy="51.03" r="1.85"/>
            <circle cx="55.65" cy="46.69" r="1.85"/>
            <circle cx="55.65" cy="42.36" r="1.85"/>
            <circle cx="55.65" cy="38.03" r="1.85"/>
            <circle cx="55.65" cy="33.7" r="1.85"/>
            <circle cx="55.65" cy="29.37" r="1.85"/>
            <circle cx="55.65" cy="25.04" r="1.85"/>
            <circle cx="55.65" cy="20.71" r="1.85"/>
            <circle cx="55.65" cy="16.38" r="1.85"/>
            <circle cx="55.65" cy="12.05" r="1.85"/>
        </g>
        <g>
            <circle cx="49.72" cy="120.24" r="1.85"/>
            <circle cx="49.72" cy="115.92" r="1.85"/>
            <circle cx="49.72" cy="111.6" r="1.85"/>
            <circle cx="49.72" cy="107.28" r="1.85"/>
            <circle cx="49.72" cy="102.96" r="1.85"/>
            <circle cx="49.72" cy="98.64" r="1.85"/>
            <circle cx="49.72" cy="94.32" r="1.85"/>
            <circle cx="49.72" cy="89.99" r="1.85"/>
            <circle cx="49.72" cy="85.67" r="1.85"/>
            <circle cx="49.72" cy="81.34" r="1.85"/>
            <circle cx="49.72" cy="77.01" r="1.85"/>
            <circle cx="49.72" cy="72.68" r="1.85"/>
            <circle cx="49.72" cy="68.35" r="1.85"/>
            <circle cx="49.72" cy="64.02" r="1.85"/>
            <circle cx="49.72" cy="59.69" r="1.85"/>
            <circle cx="49.72" cy="55.36" r="1.85"/>
            <circle cx="49.72" cy="51.03" r="1.85"/>
            <circle cx="49.72" cy="46.69" r="1.85"/>
            <circle cx="49.72" cy="42.36" r="1.85"/>
            <circle cx="49.72" cy="38.03" r="1.85"/>
            <circle cx="49.72" cy="33.7" r="1.85"/>
            <circle cx="49.72" cy="29.37" r="1.85"/>
            <circle cx="49.72" cy="25.04" r="1.85"/>
            <circle cx="49.72" cy="20.71" r="1.85"/>
            <circle cx="49.72" cy="16.38" r="1.85"/>
            <circle cx="49.72" cy="12.05" r="1.85"/>
        </g>
        <g>
            <circle cx="43.79" cy="120.24" r="1.85"/>
            <circle cx="43.79" cy="115.92" r="1.85"/>
            <circle cx="43.79" cy="111.6" r="1.85"/>
            <circle cx="43.79" cy="107.28" r="1.85"/>
            <circle cx="43.79" cy="102.96" r="1.85"/>
            <circle cx="43.79" cy="98.64" r="1.85"/>
            <circle cx="43.79" cy="94.32" r="1.85"/>
            <circle cx="43.79" cy="89.99" r="1.85"/>
            <circle cx="43.79" cy="85.67" r="1.85"/>
            <circle cx="43.79" cy="81.34" r="1.85"/>
            <circle cx="43.79" cy="77.01" r="1.85"/>
            <circle cx="43.79" cy="72.68" r="1.85"/>
            <circle cx="43.79" cy="68.35" r="1.85"/>
            <circle cx="43.79" cy="64.02" r="1.85"/>
            <circle cx="43.79" cy="59.69" r="1.85"/>
            <circle cx="43.79" cy="55.36" r="1.85"/>
            <circle cx="43.79" cy="51.03" r="1.85"/>
            <circle cx="43.79" cy="46.69" r="1.85"/>
            <circle cx="43.79" cy="42.36" r="1.85"/>
            <circle cx="43.79" cy="38.03" r="1.85"/>
            <circle cx="43.79" cy="33.7" r="1.85"/>
            <circle cx="43.79" cy="29.37" r="1.85"/>
            <circle cx="43.79" cy="25.04" r="1.85"/>
            <circle cx="43.79" cy="20.71" r="1.85"/>
            <circle cx="43.79" cy="16.38" r="1.85"/>
            <circle cx="43.79" cy="12.05" r="1.85"/>
        </g>
        <g>
            <circle cx="37.86" cy="120.24" r="1.85"/>
            <circle cx="37.86" cy="115.92" r="1.85"/>
            <circle cx="37.86" cy="111.6" r="1.85"/>
            <circle cx="37.86" cy="107.28" r="1.85"/>
            <circle cx="37.86" cy="102.96" r="1.85"/>
            <circle cx="37.86" cy="98.64" r="1.85"/>
            <circle cx="37.86" cy="94.32" r="1.85"/>
            <circle cx="37.86" cy="89.99" r="1.85"/>
            <circle cx="37.86" cy="85.67" r="1.85"/>
            <circle cx="37.86" cy="81.34" r="1.85"/>
            <circle cx="37.86" cy="77.01" r="1.85"/>
            <circle cx="37.86" cy="72.68" r="1.85"/>
            <circle cx="37.86" cy="68.35" r="1.85"/>
            <circle cx="37.86" cy="64.02" r="1.85"/>
            <circle cx="37.86" cy="59.69" r="1.85"/>
            <circle cx="37.86" cy="55.36" r="1.85"/>
            <circle cx="37.86" cy="51.03" r="1.85"/>
            <circle cx="37.86" cy="46.69" r="1.85"/>
            <circle cx="37.86" cy="42.36" r="1.85"/>
            <circle cx="37.86" cy="38.03" r="1.85"/>
            <circle cx="37.86" cy="33.7" r="1.85"/>
            <circle cx="37.86" cy="29.37" r="1.85"/>
            <circle cx="37.86" cy="25.04" r="1.85"/>
            <circle cx="37.86" cy="20.71" r="1.85"/>
            <circle cx="37.86" cy="16.38" r="1.85"/>
            <circle cx="37.86" cy="12.05" r="1.85"/>
        </g>
    </g>
</svg>
