<?xml version="1.0" encoding="utf-8"?>
<!-- Generator: Adobe Illustrator 23.0.1, SVG Export Plug-In . SVG Version: 6.00 Build 0)  -->
<svg version="1.1" id="Layer_1" xmlns="http://www.w3.org/2000/svg" xmlns:xlink="http://www.w3.org/1999/xlink" x="0px" y="0px"
  viewBox="0 0 222 66" enable-background="new 0 0 222 66" xml:space="preserve">
  <polygon fill="#F1F3F4" stroke="#BCC8CE" stroke-width="0.4" stroke-linecap="round" stroke-miterlimit="10" points="
    32.38,65.37 220.35,0.58 0.78,0.58 	"/>
    <g 
      data-sort-seat-direction="ltr" 
      data-sort-line-direction="btt" 
      data-sort-seat-option="cy" 
      data-sort-line-option="cx" 
      data-line-start="9"
      >
      <g>
        <circle fill="#AEBDC4" cx="35.92" cy="16.55" r="1.85"/>
        <circle fill="#AEBDC4" cx="35.92" cy="12.23" r="1.85"/>
        <circle fill="#AEBDC4" cx="35.92" cy="7.91" r="1.85"/>
      </g>
      <g>
        <circle fill="#AEBDC4" cx="41.85" cy="38.16" r="1.85"/>
        <circle fill="#AEBDC4" cx="41.85" cy="33.84" r="1.85"/>
        <circle fill="#AEBDC4" cx="41.85" cy="29.51" r="1.85"/>
        <circle fill="#AEBDC4" cx="41.85" cy="25.19" r="1.85"/>
        <circle fill="#AEBDC4" cx="41.85" cy="20.87" r="1.85"/>
        <circle fill="#AEBDC4" cx="41.85" cy="16.55" r="1.85"/>
        <circle fill="#AEBDC4" cx="41.85" cy="12.23" r="1.85"/>
        <circle fill="#AEBDC4" cx="41.85" cy="7.91" r="1.85"/>
      </g>
      <g>
        <circle fill="#AEBDC4" cx="47.78" cy="51.14" r="1.85"/>
        <circle fill="#AEBDC4" cx="47.78" cy="46.82" r="1.85"/>
        <circle fill="#AEBDC4" cx="47.78" cy="42.5" r="1.85"/>
        <circle fill="#AEBDC4" cx="47.78" cy="38.18" r="1.85"/>
        <circle fill="#AEBDC4" cx="47.78" cy="33.85" r="1.85"/>
        <circle fill="#AEBDC4" cx="47.78" cy="29.53" r="1.85"/>
        <circle fill="#AEBDC4" cx="47.78" cy="25.21" r="1.85"/>
        <circle fill="#AEBDC4" cx="47.78" cy="20.89" r="1.85"/>
        <circle fill="#AEBDC4" cx="47.78" cy="16.57" r="1.85"/>
        <circle fill="#AEBDC4" cx="47.78" cy="12.24" r="1.85"/>
        <circle fill="#AEBDC4" cx="47.78" cy="7.91" r="1.85"/>
      </g>
      <g>
        <circle fill="#AEBDC4" cx="53.72" cy="46.81" r="1.85"/>
        <circle fill="#AEBDC4" cx="53.72" cy="42.49" r="1.85"/>
        <circle fill="#AEBDC4" cx="53.72" cy="38.17" r="1.85"/>
        <circle fill="#AEBDC4" cx="53.72" cy="33.85" r="1.85"/>
        <circle fill="#AEBDC4" cx="53.72" cy="29.52" r="1.85"/>
        <circle fill="#AEBDC4" cx="53.72" cy="25.2" r="1.85"/>
        <circle fill="#AEBDC4" cx="53.72" cy="20.88" r="1.85"/>
        <circle fill="#AEBDC4" cx="53.72" cy="16.56" r="1.85"/>
        <circle fill="#AEBDC4" cx="53.72" cy="12.24" r="1.85"/>
        <circle fill="#AEBDC4" cx="53.72" cy="7.91" r="1.85"/>
      </g>
      <g>
        <circle fill="#AEBDC4" cx="59.65" cy="46.81" r="1.85"/>
        <circle fill="#AEBDC4" cx="59.65" cy="42.49" r="1.85"/>
        <circle fill="#AEBDC4" cx="59.65" cy="38.17" r="1.85"/>
        <circle fill="#AEBDC4" cx="59.65" cy="33.85" r="1.85"/>
        <circle fill="#AEBDC4" cx="59.65" cy="29.52" r="1.85"/>
        <circle fill="#AEBDC4" cx="59.65" cy="25.2" r="1.85"/>
        <circle fill="#AEBDC4" cx="59.65" cy="20.88" r="1.85"/>
        <circle fill="#AEBDC4" cx="59.65" cy="16.56" r="1.85"/>
        <circle fill="#AEBDC4" cx="59.65" cy="12.24" r="1.85"/>
        <circle fill="#AEBDC4" cx="59.65" cy="7.91" r="1.85"/>
      </g>
      <g>
        <circle fill="#AEBDC4" cx="65.58" cy="42.48" r="1.85"/>
        <circle fill="#AEBDC4" cx="65.58" cy="38.16" r="1.85"/>
        <circle fill="#AEBDC4" cx="65.58" cy="33.84" r="1.85"/>
        <circle fill="#AEBDC4" cx="65.58" cy="29.51" r="1.85"/>
        <circle fill="#AEBDC4" cx="65.58" cy="25.19" r="1.85"/>
        <circle fill="#AEBDC4" cx="65.58" cy="20.87" r="1.85"/>
        <circle fill="#AEBDC4" cx="65.58" cy="16.55" r="1.85"/>
        <circle fill="#AEBDC4" cx="65.58" cy="12.23" r="1.85"/>
        <circle fill="#AEBDC4" cx="65.58" cy="7.91" r="1.85"/>
      </g>
      <g>
        <circle fill="#AEBDC4" cx="71.51" cy="42.48" r="1.85"/>
        <circle fill="#AEBDC4" cx="71.51" cy="38.16" r="1.85"/>
        <circle fill="#AEBDC4" cx="71.51" cy="33.84" r="1.85"/>
        <circle fill="#AEBDC4" cx="71.51" cy="29.51" r="1.85"/>
        <circle fill="#AEBDC4" cx="71.51" cy="25.19" r="1.85"/>
        <circle fill="#AEBDC4" cx="71.51" cy="20.87" r="1.85"/>
        <circle fill="#AEBDC4" cx="71.51" cy="16.55" r="1.85"/>
        <circle fill="#AEBDC4" cx="71.51" cy="12.23" r="1.85"/>
        <circle fill="#AEBDC4" cx="71.51" cy="7.91" r="1.85"/>
      </g>
      <g>
        <circle fill="#AEBDC4" cx="77.44" cy="38.16" r="1.85"/>
        <circle fill="#AEBDC4" cx="77.44" cy="33.84" r="1.85"/>
        <circle fill="#AEBDC4" cx="77.44" cy="29.51" r="1.85"/>
        <circle fill="#AEBDC4" cx="77.44" cy="25.19" r="1.85"/>
        <circle fill="#AEBDC4" cx="77.44" cy="20.87" r="1.85"/>
        <circle fill="#AEBDC4" cx="77.44" cy="16.55" r="1.85"/>
        <circle fill="#AEBDC4" cx="77.44" cy="12.23" r="1.85"/>
        <circle fill="#AEBDC4" cx="77.44" cy="7.91" r="1.85"/>
      </g>
      <g>
        <circle fill="#AEBDC4" cx="83.37" cy="38.16" r="1.85"/>
        <circle fill="#AEBDC4" cx="83.37" cy="33.84" r="1.85"/>
        <circle fill="#AEBDC4" cx="83.37" cy="29.51" r="1.85"/>
        <circle fill="#AEBDC4" cx="83.37" cy="25.19" r="1.85"/>
        <circle fill="#AEBDC4" cx="83.37" cy="20.87" r="1.85"/>
        <circle fill="#AEBDC4" cx="83.37" cy="16.55" r="1.85"/>
        <circle fill="#AEBDC4" cx="83.37" cy="12.23" r="1.85"/>
        <circle fill="#AEBDC4" cx="83.37" cy="7.91" r="1.85"/>
      </g>
      <g>
        <circle fill="#AEBDC4" cx="89.3" cy="25.19" r="1.85"/>
        <circle fill="#AEBDC4" cx="89.3" cy="20.87" r="1.85"/>
        <circle fill="#AEBDC4" cx="89.3" cy="16.55" r="1.85"/>
        <circle fill="#AEBDC4" cx="89.3" cy="12.23" r="1.85"/>
        <circle fill="#AEBDC4" cx="89.3" cy="7.91" r="1.85"/>
      </g>
      <g>
        <circle fill="#AEBDC4" cx="95.23" cy="25.19" r="1.85"/>
        <circle fill="#AEBDC4" cx="95.23" cy="20.87" r="1.85"/>
        <circle fill="#AEBDC4" cx="95.23" cy="16.55" r="1.85"/>
        <circle fill="#AEBDC4" cx="95.23" cy="12.23" r="1.85"/>
        <circle fill="#AEBDC4" cx="95.23" cy="7.91" r="1.85"/>
      </g>
      <g>
        <circle fill="#AEBDC4" cx="101.16" cy="25.19" r="1.85"/>
        <circle fill="#AEBDC4" cx="101.16" cy="20.87" r="1.85"/>
        <circle fill="#AEBDC4" cx="101.16" cy="16.55" r="1.85"/>
        <circle fill="#AEBDC4" cx="101.16" cy="12.23" r="1.85"/>
        <circle fill="#AEBDC4" cx="101.16" cy="7.91" r="1.85"/>
      </g>
      <g>
        <circle fill="#AEBDC4" cx="107.09" cy="20.87" r="1.85"/>
        <circle fill="#AEBDC4" cx="107.09" cy="16.55" r="1.85"/>
        <circle fill="#AEBDC4" cx="107.09" cy="12.23" r="1.85"/>
        <circle fill="#AEBDC4" cx="107.09" cy="7.91" r="1.85"/>
      </g>
      <g>
        <circle fill="#AEBDC4" cx="113.02" cy="20.87" r="1.85"/>
        <circle fill="#AEBDC4" cx="113.02" cy="16.55" r="1.85"/>
        <circle fill="#AEBDC4" cx="113.02" cy="12.23" r="1.85"/>
        <circle fill="#AEBDC4" cx="113.02" cy="7.91" r="1.85"/>
      </g>
      <g>
        <circle fill="#AEBDC4" cx="118.95" cy="25.19" r="1.85"/>
        <circle fill="#AEBDC4" cx="118.95" cy="20.87" r="1.85"/>
        <circle fill="#AEBDC4" cx="118.95" cy="16.55" r="1.85"/>
        <circle fill="#AEBDC4" cx="118.95" cy="12.23" r="1.85"/>
        <circle fill="#AEBDC4" cx="118.95" cy="7.91" r="1.85"/>
      </g>
      <g>
        <circle fill="#AEBDC4" cx="124.88" cy="25.19" r="1.85"/>
        <circle fill="#AEBDC4" cx="124.88" cy="20.87" r="1.85"/>
        <circle fill="#AEBDC4" cx="124.88" cy="16.55" r="1.85"/>
        <circle fill="#AEBDC4" cx="124.88" cy="12.23" r="1.85"/>
        <circle fill="#AEBDC4" cx="124.88" cy="7.91" r="1.85"/>
      </g>
      <g>
        <circle fill="#AEBDC4" cx="130.81" cy="20.87" r="1.85"/>
        <circle fill="#AEBDC4" cx="130.81" cy="16.55" r="1.85"/>
        <circle fill="#AEBDC4" cx="130.81" cy="12.23" r="1.85"/>
        <circle fill="#AEBDC4" cx="130.81" cy="7.91" r="1.85"/>
      </g>
      <g>
        <circle fill="#AEBDC4" cx="136.74" cy="20.87" r="1.85"/>
        <circle fill="#AEBDC4" cx="136.74" cy="16.55" r="1.85"/>
        <circle fill="#AEBDC4" cx="136.74" cy="12.23" r="1.85"/>
        <circle fill="#AEBDC4" cx="136.74" cy="7.91" r="1.85"/>
      </g>
      <g>
        <circle fill="#AEBDC4" cx="142.67" cy="20.87" r="1.85"/>
        <circle fill="#AEBDC4" cx="142.67" cy="16.55" r="1.85"/>
        <circle fill="#AEBDC4" cx="142.67" cy="12.23" r="1.85"/>
        <circle fill="#AEBDC4" cx="142.67" cy="7.91" r="1.85"/>
      </g>
      <g>
        <circle fill="#AEBDC4" cx="148.6" cy="16.55" r="1.85"/>
        <circle fill="#AEBDC4" cx="148.6" cy="12.23" r="1.85"/>
        <circle fill="#AEBDC4" cx="148.6" cy="7.91" r="1.85"/>
      </g>
      <g>
        <circle fill="#AEBDC4" cx="154.53" cy="16.55" r="1.85"/>
        <circle fill="#AEBDC4" cx="154.53" cy="12.23" r="1.85"/>
        <circle fill="#AEBDC4" cx="154.53" cy="7.91" r="1.85"/>
      </g>
      <g>
        <circle fill="#AEBDC4" cx="160.46" cy="12.23" r="1.85"/>
        <circle fill="#AEBDC4" cx="160.46" cy="7.91" r="1.85"/>
      </g>
      <g>
        <circle fill="#AEBDC4" cx="166.39" cy="12.23" r="1.85"/>
        <circle fill="#AEBDC4" cx="166.39" cy="7.91" r="1.85"/>
      </g>
      <g>
        <circle fill="#AEBDC4" cx="172.32" cy="12.23" r="1.85"/>
        <circle fill="#AEBDC4" cx="172.32" cy="7.91" r="1.85"/>
      </g>
    </g>
  </svg>
