<?xml version="1.0" encoding="utf-8"?>
<!-- Generator: Adobe Illustrator 23.0.1, SVG Export Plug-In . SVG Version: 6.00 Build 0)  -->
<svg version="1.1" id="Layer_1" xmlns="http://www.w3.org/2000/svg" xmlns:xlink="http://www.w3.org/1999/xlink" x="0px" y="0px"
	 width="222px" height="66px" viewBox="0 0 222 66" enable-background="new 0 0 222 66" xml:space="preserve">
<g onclick="this.parentNode.sekt.push(this);this.a_name=&quot;S 7&quot;;">
	
		<polygon onclick="this.parentNode.a_fon=this;" fill="#F1F3F4" stroke="#BCC8CE" stroke-width="0.4" stroke-linecap="round" stroke-miterlimit="10" points="
		32.38,65.37 220.35,0.58 0.78,0.58 	"/>
	<g onclick="this.parentNode.a_row=this;">
		<g onclick="this.a_par={beg_namb:1,quant:3};">
			<line fill="none" stroke="#D3DBDF" stroke-width="0.4" stroke-miterlimit="10" x1="35.92" y1="18.4" x2="35.92" y2="6.06"/>
		</g>
		<g onclick="this.a_par={beg_namb:1,quant:8};">
			<line fill="none" stroke="#D3DBDF" stroke-width="0.4" stroke-miterlimit="10" x1="41.85" y1="40" x2="41.85" y2="6.06"/>
		</g>
		<g onclick="this.a_par={beg_namb:1,quant:11};">
			<line fill="none" stroke="#D3DBDF" stroke-width="0.4" stroke-miterlimit="10" x1="47.78" y1="52.99" x2="47.78" y2="6.06"/>
		</g>
		<g onclick="this.a_par={beg_namb:1,quant:10};">
			<line fill="none" stroke="#D3DBDF" stroke-width="0.4" stroke-miterlimit="10" x1="53.72" y1="48.66" x2="53.72" y2="6.06"/>
		</g>
		<g onclick="this.a_par={beg_namb:1,quant:10};">
			<line fill="none" stroke="#D3DBDF" stroke-width="0.4" stroke-miterlimit="10" x1="59.65" y1="48.66" x2="59.65" y2="6.06"/>
		</g>
		<g onclick="this.a_par={beg_namb:1,quant:9};">
			<line fill="none" stroke="#D3DBDF" stroke-width="0.4" stroke-miterlimit="10" x1="65.58" y1="44.33" x2="65.58" y2="6.06"/>
		</g>
		<g onclick="this.a_par={beg_namb:1,quant:9};">
			<line fill="none" stroke="#D3DBDF" stroke-width="0.4" stroke-miterlimit="10" x1="71.51" y1="44.33" x2="71.51" y2="6.06"/>
		</g>
		<g onclick="this.a_par={beg_namb:1,quant:8};">
			<line fill="none" stroke="#D3DBDF" stroke-width="0.4" stroke-miterlimit="10" x1="77.44" y1="40" x2="77.44" y2="6.06"/>
		</g>
		<g onclick="this.a_par={beg_namb:1,quant:8};">
			<line fill="none" stroke="#D3DBDF" stroke-width="0.4" stroke-miterlimit="10" x1="83.37" y1="40" x2="83.37" y2="6.06"/>
		</g>
		<g onclick="this.a_par={beg_namb:1,quant:5};">
			<line fill="none" stroke="#D3DBDF" stroke-width="0.4" stroke-miterlimit="10" x1="89.3" y1="27.04" x2="89.3" y2="6.06"/>
		</g>
		<g onclick="this.a_par={beg_namb:1,quant:5};">
			<line fill="none" stroke="#D3DBDF" stroke-width="0.4" stroke-miterlimit="10" x1="95.23" y1="27.04" x2="95.23" y2="6.06"/>
		</g>
		<g onclick="this.a_par={beg_namb:1,quant:5};">
			<line fill="none" stroke="#D3DBDF" stroke-width="0.4" stroke-miterlimit="10" x1="101.16" y1="27.04" x2="101.16" y2="6.06"/>
		</g>
		<g onclick="this.a_par={beg_namb:1,quant:4};">
			<line fill="none" stroke="#D3DBDF" stroke-width="0.4" stroke-miterlimit="10" x1="107.09" y1="22.72" x2="107.09" y2="6.06"/>
		</g>
		<g onclick="this.a_par={beg_namb:1,quant:4};">
			<line fill="none" stroke="#D3DBDF" stroke-width="0.4" stroke-miterlimit="10" x1="113.02" y1="22.72" x2="113.02" y2="6.06"/>
		</g>
		<g onclick="this.a_par={beg_namb:1,quant:5};">
			<line fill="none" stroke="#D3DBDF" stroke-width="0.4" stroke-miterlimit="10" x1="118.95" y1="27.04" x2="118.95" y2="6.06"/>
		</g>
		<g onclick="this.a_par={beg_namb:1,quant:5};">
			<line fill="none" stroke="#D3DBDF" stroke-width="0.4" stroke-miterlimit="10" x1="124.88" y1="27.04" x2="124.88" y2="6.06"/>
		</g>
		<g onclick="this.a_par={beg_namb:1,quant:4};">
			<line fill="none" stroke="#D3DBDF" stroke-width="0.4" stroke-miterlimit="10" x1="136.74" y1="22.72" x2="136.74" y2="6.06"/>
		</g>
		<g onclick="this.a_par={beg_namb:1,quant:4};">
			<line fill="none" stroke="#D3DBDF" stroke-width="0.4" stroke-miterlimit="10" x1="130.81" y1="22.72" x2="130.81" y2="6.06"/>
		</g>
		<g onclick="this.a_par={beg_namb:1,quant:4};">
			<line fill="none" stroke="#D3DBDF" stroke-width="0.4" stroke-miterlimit="10" x1="142.67" y1="22.72" x2="142.67" y2="6.06"/>
		</g>
		<g onclick="this.a_par={beg_namb:1,quant:3};">
			<line fill="none" stroke="#D3DBDF" stroke-width="0.4" stroke-miterlimit="10" x1="148.6" y1="18.4" x2="148.6" y2="6.06"/>
		</g>
		<g onclick="this.a_par={beg_namb:1,quant:3};">
			<line fill="none" stroke="#D3DBDF" stroke-width="0.4" stroke-miterlimit="10" x1="154.53" y1="18.4" x2="154.53" y2="6.06"/>
		</g>
		<g onclick="this.a_par={beg_namb:1,quant:2};">
			<line fill="none" stroke="#D3DBDF" stroke-width="0.4" stroke-miterlimit="10" x1="160.46" y1="14.08" x2="160.46" y2="6.06"/>
		</g>
		<g onclick="this.a_par={beg_namb:1,quant:2};">
			<line fill="none" stroke="#D3DBDF" stroke-width="0.4" stroke-miterlimit="10" x1="166.39" y1="14.08" x2="166.39" y2="6.06"/>
		</g>
		<g onclick="this.a_par={beg_namb:1,quant:2};">
			<line fill="none" stroke="#D3DBDF" stroke-width="0.4" stroke-miterlimit="10" x1="172.32" y1="14.08" x2="172.32" y2="6.06"/>
		</g>
	</g>
	<g>
		<g>
			<circle fill="#AEBDC4" cx="172.32" cy="12.23" r="1.85"/>
			<circle fill="#AEBDC4" cx="172.32" cy="7.91" r="1.85"/>
		</g>
		<g>
			<circle fill="#AEBDC4" cx="166.39" cy="12.23" r="1.85"/>
			<circle fill="#AEBDC4" cx="166.39" cy="7.91" r="1.85"/>
		</g>
		<g>
			<circle fill="#AEBDC4" cx="160.46" cy="12.23" r="1.85"/>
			<circle fill="#AEBDC4" cx="160.46" cy="7.91" r="1.85"/>
		</g>
		<g>
			<circle fill="#AEBDC4" cx="154.53" cy="16.55" r="1.85"/>
			<circle fill="#AEBDC4" cx="154.53" cy="12.23" r="1.85"/>
			<circle fill="#AEBDC4" cx="154.53" cy="7.91" r="1.85"/>
		</g>
		<g>
			<circle fill="#AEBDC4" cx="35.92" cy="16.55" r="1.85"/>
			<circle fill="#AEBDC4" cx="35.92" cy="12.23" r="1.85"/>
			<circle fill="#AEBDC4" cx="35.92" cy="7.91" r="1.85"/>
		</g>
		<g>
			<circle fill="#AEBDC4" cx="148.6" cy="16.55" r="1.85"/>
			<circle fill="#AEBDC4" cx="148.6" cy="12.23" r="1.85"/>
			<circle fill="#AEBDC4" cx="148.6" cy="7.91" r="1.85"/>
		</g>
		<g>
			<circle fill="#AEBDC4" cx="142.67" cy="20.87" r="1.85"/>
			<circle fill="#AEBDC4" cx="142.67" cy="16.55" r="1.85"/>
			<circle fill="#AEBDC4" cx="142.67" cy="12.23" r="1.85"/>
			<circle fill="#AEBDC4" cx="142.67" cy="7.91" r="1.85"/>
		</g>
		<g>
			<circle fill="#AEBDC4" cx="136.74" cy="20.87" r="1.85"/>
			<circle fill="#AEBDC4" cx="136.74" cy="16.55" r="1.85"/>
			<circle fill="#AEBDC4" cx="136.74" cy="12.23" r="1.85"/>
			<circle fill="#AEBDC4" cx="136.74" cy="7.91" r="1.85"/>
		</g>
		<g>
			<circle fill="#AEBDC4" cx="130.81" cy="20.87" r="1.85"/>
			<circle fill="#AEBDC4" cx="130.81" cy="16.55" r="1.85"/>
			<circle fill="#AEBDC4" cx="130.81" cy="12.23" r="1.85"/>
			<circle fill="#AEBDC4" cx="130.81" cy="7.91" r="1.85"/>
		</g>
		<g>
			<circle fill="#AEBDC4" cx="113.02" cy="20.87" r="1.85"/>
			<circle fill="#AEBDC4" cx="113.02" cy="16.55" r="1.85"/>
			<circle fill="#AEBDC4" cx="113.02" cy="12.23" r="1.85"/>
			<circle fill="#AEBDC4" cx="113.02" cy="7.91" r="1.85"/>
		</g>
		<g>
			<circle fill="#AEBDC4" cx="107.09" cy="20.87" r="1.85"/>
			<circle fill="#AEBDC4" cx="107.09" cy="16.55" r="1.85"/>
			<circle fill="#AEBDC4" cx="107.09" cy="12.23" r="1.85"/>
			<circle fill="#AEBDC4" cx="107.09" cy="7.91" r="1.85"/>
		</g>
		<g>
			<circle fill="#AEBDC4" cx="124.88" cy="25.19" r="1.85"/>
			<circle fill="#AEBDC4" cx="124.88" cy="20.87" r="1.85"/>
			<circle fill="#AEBDC4" cx="124.88" cy="16.55" r="1.85"/>
			<circle fill="#AEBDC4" cx="124.88" cy="12.23" r="1.85"/>
			<circle fill="#AEBDC4" cx="124.88" cy="7.91" r="1.85"/>
		</g>
		<g>
			<circle fill="#AEBDC4" cx="118.95" cy="25.19" r="1.85"/>
			<circle fill="#AEBDC4" cx="118.95" cy="20.87" r="1.85"/>
			<circle fill="#AEBDC4" cx="118.95" cy="16.55" r="1.85"/>
			<circle fill="#AEBDC4" cx="118.95" cy="12.23" r="1.85"/>
			<circle fill="#AEBDC4" cx="118.95" cy="7.91" r="1.85"/>
		</g>
		<g>
			<circle fill="#AEBDC4" cx="101.16" cy="25.19" r="1.85"/>
			<circle fill="#AEBDC4" cx="101.16" cy="20.87" r="1.85"/>
			<circle fill="#AEBDC4" cx="101.16" cy="16.55" r="1.85"/>
			<circle fill="#AEBDC4" cx="101.16" cy="12.23" r="1.85"/>
			<circle fill="#AEBDC4" cx="101.16" cy="7.91" r="1.85"/>
		</g>
		<g>
			<circle fill="#AEBDC4" cx="95.23" cy="25.19" r="1.85"/>
			<circle fill="#AEBDC4" cx="95.23" cy="20.87" r="1.85"/>
			<circle fill="#AEBDC4" cx="95.23" cy="16.55" r="1.85"/>
			<circle fill="#AEBDC4" cx="95.23" cy="12.23" r="1.85"/>
			<circle fill="#AEBDC4" cx="95.23" cy="7.91" r="1.85"/>
		</g>
		<g>
			<circle fill="#AEBDC4" cx="89.3" cy="25.19" r="1.85"/>
			<circle fill="#AEBDC4" cx="89.3" cy="20.87" r="1.85"/>
			<circle fill="#AEBDC4" cx="89.3" cy="16.55" r="1.85"/>
			<circle fill="#AEBDC4" cx="89.3" cy="12.23" r="1.85"/>
			<circle fill="#AEBDC4" cx="89.3" cy="7.91" r="1.85"/>
		</g>
		<g>
			<circle fill="#AEBDC4" cx="83.37" cy="38.16" r="1.85"/>
			<circle fill="#AEBDC4" cx="83.37" cy="33.84" r="1.85"/>
			<circle fill="#AEBDC4" cx="83.37" cy="29.51" r="1.85"/>
			<circle fill="#AEBDC4" cx="83.37" cy="25.19" r="1.85"/>
			<circle fill="#AEBDC4" cx="83.37" cy="20.87" r="1.85"/>
			<circle fill="#AEBDC4" cx="83.37" cy="16.55" r="1.85"/>
			<circle fill="#AEBDC4" cx="83.37" cy="12.23" r="1.85"/>
			<circle fill="#AEBDC4" cx="83.37" cy="7.91" r="1.85"/>
		</g>
		<g>
			<circle fill="#AEBDC4" cx="77.44" cy="38.16" r="1.85"/>
			<circle fill="#AEBDC4" cx="77.44" cy="33.84" r="1.85"/>
			<circle fill="#AEBDC4" cx="77.44" cy="29.51" r="1.85"/>
			<circle fill="#AEBDC4" cx="77.44" cy="25.19" r="1.85"/>
			<circle fill="#AEBDC4" cx="77.44" cy="20.87" r="1.85"/>
			<circle fill="#AEBDC4" cx="77.44" cy="16.55" r="1.85"/>
			<circle fill="#AEBDC4" cx="77.44" cy="12.23" r="1.85"/>
			<circle fill="#AEBDC4" cx="77.44" cy="7.91" r="1.85"/>
		</g>
		<g>
			<circle fill="#AEBDC4" cx="41.85" cy="38.16" r="1.85"/>
			<circle fill="#AEBDC4" cx="41.85" cy="33.84" r="1.85"/>
			<circle fill="#AEBDC4" cx="41.85" cy="29.51" r="1.85"/>
			<circle fill="#AEBDC4" cx="41.85" cy="25.19" r="1.85"/>
			<circle fill="#AEBDC4" cx="41.85" cy="20.87" r="1.85"/>
			<circle fill="#AEBDC4" cx="41.85" cy="16.55" r="1.85"/>
			<circle fill="#AEBDC4" cx="41.85" cy="12.23" r="1.85"/>
			<circle fill="#AEBDC4" cx="41.85" cy="7.91" r="1.85"/>
		</g>
		<g>
			<circle fill="#AEBDC4" cx="71.51" cy="42.48" r="1.85"/>
			<circle fill="#AEBDC4" cx="71.51" cy="38.16" r="1.85"/>
			<circle fill="#AEBDC4" cx="71.51" cy="33.84" r="1.85"/>
			<circle fill="#AEBDC4" cx="71.51" cy="29.51" r="1.85"/>
			<circle fill="#AEBDC4" cx="71.51" cy="25.19" r="1.85"/>
			<circle fill="#AEBDC4" cx="71.51" cy="20.87" r="1.85"/>
			<circle fill="#AEBDC4" cx="71.51" cy="16.55" r="1.85"/>
			<circle fill="#AEBDC4" cx="71.51" cy="12.23" r="1.85"/>
			<circle fill="#AEBDC4" cx="71.51" cy="7.91" r="1.85"/>
		</g>
		<g>
			<circle fill="#AEBDC4" cx="65.58" cy="42.48" r="1.85"/>
			<circle fill="#AEBDC4" cx="65.58" cy="38.16" r="1.85"/>
			<circle fill="#AEBDC4" cx="65.58" cy="33.84" r="1.85"/>
			<circle fill="#AEBDC4" cx="65.58" cy="29.51" r="1.85"/>
			<circle fill="#AEBDC4" cx="65.58" cy="25.19" r="1.85"/>
			<circle fill="#AEBDC4" cx="65.58" cy="20.87" r="1.85"/>
			<circle fill="#AEBDC4" cx="65.58" cy="16.55" r="1.85"/>
			<circle fill="#AEBDC4" cx="65.58" cy="12.23" r="1.85"/>
			<circle fill="#AEBDC4" cx="65.58" cy="7.91" r="1.85"/>
		</g>
		<g>
			<circle fill="#AEBDC4" cx="59.65" cy="46.81" r="1.85"/>
			<circle fill="#AEBDC4" cx="59.65" cy="42.49" r="1.85"/>
			<circle fill="#AEBDC4" cx="59.65" cy="38.17" r="1.85"/>
			<circle fill="#AEBDC4" cx="59.65" cy="33.85" r="1.85"/>
			<circle fill="#AEBDC4" cx="59.65" cy="29.52" r="1.85"/>
			<circle fill="#AEBDC4" cx="59.65" cy="25.2" r="1.85"/>
			<circle fill="#AEBDC4" cx="59.65" cy="20.88" r="1.85"/>
			<circle fill="#AEBDC4" cx="59.65" cy="16.56" r="1.85"/>
			<circle fill="#AEBDC4" cx="59.65" cy="12.24" r="1.85"/>
			<circle fill="#AEBDC4" cx="59.65" cy="7.91" r="1.85"/>
		</g>
		<g>
			<circle fill="#AEBDC4" cx="53.72" cy="46.81" r="1.85"/>
			<circle fill="#AEBDC4" cx="53.72" cy="42.49" r="1.85"/>
			<circle fill="#AEBDC4" cx="53.72" cy="38.17" r="1.85"/>
			<circle fill="#AEBDC4" cx="53.72" cy="33.85" r="1.85"/>
			<circle fill="#AEBDC4" cx="53.72" cy="29.52" r="1.85"/>
			<circle fill="#AEBDC4" cx="53.72" cy="25.2" r="1.85"/>
			<circle fill="#AEBDC4" cx="53.72" cy="20.88" r="1.85"/>
			<circle fill="#AEBDC4" cx="53.72" cy="16.56" r="1.85"/>
			<circle fill="#AEBDC4" cx="53.72" cy="12.24" r="1.85"/>
			<circle fill="#AEBDC4" cx="53.72" cy="7.91" r="1.85"/>
		</g>
		<g>
			<circle fill="#AEBDC4" cx="47.78" cy="51.14" r="1.85"/>
			<circle fill="#AEBDC4" cx="47.78" cy="46.82" r="1.85"/>
			<circle fill="#AEBDC4" cx="47.78" cy="42.5" r="1.85"/>
			<circle fill="#AEBDC4" cx="47.78" cy="38.18" r="1.85"/>
			<circle fill="#AEBDC4" cx="47.78" cy="33.85" r="1.85"/>
			<circle fill="#AEBDC4" cx="47.78" cy="29.53" r="1.85"/>
			<circle fill="#AEBDC4" cx="47.78" cy="25.21" r="1.85"/>
			<circle fill="#AEBDC4" cx="47.78" cy="20.89" r="1.85"/>
			<circle fill="#AEBDC4" cx="47.78" cy="16.57" r="1.85"/>
			<circle fill="#AEBDC4" cx="47.78" cy="12.24" r="1.85"/>
			<circle fill="#AEBDC4" cx="47.78" cy="7.91" r="1.85"/>
		</g>
	</g>
	<g onclick="this.parentNode.a_text=this;">
		<text transform="matrix(0 -1.0001 1 0 95.0541 22.6447)" font-family="'OpenSans-Semibold'" font-size="6.3992px">S 7</text>
	</g>
</g>
</svg>
