<?xml version="1.0" encoding="utf-8"?>
<!-- Generator: Adobe Illustrator 23.0.1, SVG Export Plug-In . SVG Version: 6.00 Build 0)  -->
<svg version="1.1" id="Layer_1" xmlns="http://www.w3.org/2000/svg" xmlns:xlink="http://www.w3.org/1999/xlink" x="0px" y="0px"
	 viewBox="0 0 222 66" style="enable-background:new 0 0 222 66;" xml:space="preserve">
<style type="text/css">
	.st0{fill:#F1F3F4;stroke:#BCC8CE;stroke-width:0.4;stroke-linecap:round;stroke-miterlimit:10;}
	.st1{fill:#AEBDC4;}
	.st2{font-family:'Roboto-Medium';}
	.st3{font-size:3px;}
</style>
<polygon class="st0" points="32.5,65.7 220.4,0.9 0.9,0.9 "/>
<g 
  data-sort-seat-direction="ltr" 
  data-sort-line-direction="btt" 
  data-sort-seat-option="cy" 
  data-sort-line-option="cx" 
  data-line-start="9"
  >
	<g>
		<circle class="st1" cx="35.9" cy="16.5" r="1.8"/>
		<circle class="st1" cx="35.9" cy="12.2" r="1.8"/>
		<circle class="st1" cx="35.9" cy="7.9" r="1.8"/>
		<text transform="matrix(-1.836970e-16 -1 1 -1.836970e-16 36.9769 5.4092)" class="st1 st2 st3">00</text>
	</g>
	<g>
		<circle class="st1" cx="41.8" cy="38.2" r="1.8"/>
		<circle class="st1" cx="41.8" cy="33.8" r="1.8"/>
		<circle class="st1" cx="41.8" cy="29.5" r="1.8"/>
		<circle class="st1" cx="41.8" cy="25.2" r="1.8"/>
		<circle class="st1" cx="41.8" cy="20.9" r="1.8"/>
		<circle class="st1" cx="41.8" cy="16.5" r="1.8"/>
		<circle class="st1" cx="41.8" cy="12.2" r="1.8"/>
		<circle class="st1" cx="41.8" cy="7.9" r="1.8"/>
		<text transform="matrix(-1.836970e-16 -1 1 -1.836970e-16 42.907 5.4092)" class="st1 st2 st3">00</text>
		<text transform="matrix(-1.836970e-16 -1 1 -1.836970e-16 42.907 44.0596)" class="st1 st2 st3">00</text>
	</g>
	<g>
		<circle class="st1" cx="47.8" cy="51.1" r="1.8"/>
		<circle class="st1" cx="47.8" cy="46.8" r="1.8"/>
		<circle class="st1" cx="47.8" cy="42.5" r="1.8"/>
		<circle class="st1" cx="47.8" cy="38.2" r="1.8"/>
		<circle class="st1" cx="47.8" cy="33.8" r="1.8"/>
		<circle class="st1" cx="47.8" cy="29.5" r="1.8"/>
		<circle class="st1" cx="47.8" cy="25.2" r="1.8"/>
		<circle class="st1" cx="47.8" cy="20.9" r="1.8"/>
		<circle class="st1" cx="47.8" cy="16.6" r="1.8"/>
		<circle class="st1" cx="47.8" cy="12.2" r="1.8"/>
		<circle class="st1" cx="47.8" cy="7.9" r="1.8"/>
		<text transform="matrix(-1.836970e-16 -1 1 -1.836970e-16 48.837 5.4092)" class="st1 st2 st3">00</text>
		<text transform="matrix(-1.836970e-16 -1 1 -1.836970e-16 48.837 57.04)" class="st1 st2 st3">00</text>
	</g>
	<g>
		<circle class="st1" cx="53.7" cy="46.8" r="1.8"/>
		<circle class="st1" cx="53.7" cy="42.5" r="1.8"/>
		<circle class="st1" cx="53.7" cy="38.2" r="1.8"/>
		<circle class="st1" cx="53.7" cy="33.8" r="1.8"/>
		<circle class="st1" cx="53.7" cy="29.5" r="1.8"/>
		<circle class="st1" cx="53.7" cy="25.2" r="1.8"/>
		<circle class="st1" cx="53.7" cy="20.9" r="1.8"/>
		<circle class="st1" cx="53.7" cy="16.6" r="1.8"/>
		<circle class="st1" cx="53.7" cy="12.2" r="1.8"/>
		<circle class="st1" cx="53.7" cy="7.9" r="1.8"/>
		<text transform="matrix(-1.836970e-16 -1 1 -1.836970e-16 54.7671 5.4092)" class="st1 st2 st3">00</text>
		<text transform="matrix(-1.836970e-16 -1 1 -1.836970e-16 54.7671 52.7197)" class="st1 st2 st3">00</text>
	</g>
	<g>
		<circle class="st1" cx="59.7" cy="46.8" r="1.8"/>
		<circle class="st1" cx="59.7" cy="42.5" r="1.8"/>
		<circle class="st1" cx="59.7" cy="38.2" r="1.8"/>
		<circle class="st1" cx="59.7" cy="33.8" r="1.8"/>
		<circle class="st1" cx="59.7" cy="29.5" r="1.8"/>
		<circle class="st1" cx="59.7" cy="25.2" r="1.8"/>
		<circle class="st1" cx="59.7" cy="20.9" r="1.8"/>
		<circle class="st1" cx="59.7" cy="16.6" r="1.8"/>
		<circle class="st1" cx="59.7" cy="12.2" r="1.8"/>
		<circle class="st1" cx="59.7" cy="7.9" r="1.8"/>
		<text transform="matrix(-1.836970e-16 -1 1 -1.836970e-16 60.6971 5.4092)" class="st1 st2 st3">00</text>
		<text transform="matrix(-1.836970e-16 -1 1 -1.836970e-16 60.6971 52.7197)" class="st1 st2 st3">00</text>
	</g>
	<g>
		<circle class="st1" cx="65.6" cy="42.5" r="1.8"/>
		<circle class="st1" cx="65.6" cy="38.2" r="1.8"/>
		<circle class="st1" cx="65.6" cy="33.8" r="1.8"/>
		<circle class="st1" cx="65.6" cy="29.5" r="1.8"/>
		<circle class="st1" cx="65.6" cy="25.2" r="1.8"/>
		<circle class="st1" cx="65.6" cy="20.9" r="1.8"/>
		<circle class="st1" cx="65.6" cy="16.5" r="1.8"/>
		<circle class="st1" cx="65.6" cy="12.2" r="1.8"/>
		<circle class="st1" cx="65.6" cy="7.9" r="1.8"/>
		<text transform="matrix(-1.836970e-16 -1 1 -1.836970e-16 66.6272 5.4092)" class="st1 st2 st3">00</text>
		<text transform="matrix(-1.836970e-16 -1 1 -1.836970e-16 66.6272 48.3799)" class="st1 st2 st3">00</text>
	</g>
	<g>
		<circle class="st1" cx="71.5" cy="42.5" r="1.8"/>
		<circle class="st1" cx="71.5" cy="38.2" r="1.8"/>
		<circle class="st1" cx="71.5" cy="33.8" r="1.8"/>
		<circle class="st1" cx="71.5" cy="29.5" r="1.8"/>
		<circle class="st1" cx="71.5" cy="25.2" r="1.8"/>
		<circle class="st1" cx="71.5" cy="20.9" r="1.8"/>
		<circle class="st1" cx="71.5" cy="16.5" r="1.8"/>
		<circle class="st1" cx="71.5" cy="12.2" r="1.8"/>
		<circle class="st1" cx="71.5" cy="7.9" r="1.8"/>
		<text transform="matrix(-1.836970e-16 -1 1 -1.836970e-16 72.5573 5.4092)" class="st1 st2 st3">00</text>
		<text transform="matrix(-1.836970e-16 -1 1 -1.836970e-16 72.5573 48.3799)" class="st1 st2 st3">00</text>
	</g>
	<g>
		<circle class="st1" cx="77.4" cy="38.2" r="1.8"/>
		<circle class="st1" cx="77.4" cy="33.8" r="1.8"/>
		<circle class="st1" cx="77.4" cy="29.5" r="1.8"/>
		<circle class="st1" cx="77.4" cy="25.2" r="1.8"/>
		<circle class="st1" cx="77.4" cy="20.9" r="1.8"/>
		<circle class="st1" cx="77.4" cy="16.5" r="1.8"/>
		<circle class="st1" cx="77.4" cy="12.2" r="1.8"/>
		<circle class="st1" cx="77.4" cy="7.9" r="1.8"/>
		<text transform="matrix(-1.836970e-16 -1 1 -1.836970e-16 78.4873 5.4092)" class="st1 st2 st3">00</text>
		<text transform="matrix(-1.836970e-16 -1 1 -1.836970e-16 78.4873 44.0596)" class="st1 st2 st3">00</text>
	</g>
	<g>
		<circle class="st1" cx="83.4" cy="38.2" r="1.8"/>
		<circle class="st1" cx="83.4" cy="33.8" r="1.8"/>
		<circle class="st1" cx="83.4" cy="29.5" r="1.8"/>
		<circle class="st1" cx="83.4" cy="25.2" r="1.8"/>
		<circle class="st1" cx="83.4" cy="20.9" r="1.8"/>
		<circle class="st1" cx="83.4" cy="16.5" r="1.8"/>
		<circle class="st1" cx="83.4" cy="12.2" r="1.8"/>
		<circle class="st1" cx="83.4" cy="7.9" r="1.8"/>
		<text transform="matrix(-1.836970e-16 -1 1 -1.836970e-16 84.4174 5.4092)" class="st1 st2 st3">00</text>
		<text transform="matrix(-1.836970e-16 -1 1 -1.836970e-16 84.4174 44.0596)" class="st1 st2 st3">00</text>
	</g>
	<g>
		<circle class="st1" cx="89.3" cy="25.2" r="1.8"/>
		<circle class="st1" cx="89.3" cy="20.9" r="1.8"/>
		<circle class="st1" cx="89.3" cy="16.5" r="1.8"/>
		<circle class="st1" cx="89.3" cy="12.2" r="1.8"/>
		<circle class="st1" cx="89.3" cy="7.9" r="1.8"/>
		<text transform="matrix(-1.836970e-16 -1 1 -1.836970e-16 90.3474 5.4092)" class="st1 st2 st3">00</text>
		<text transform="matrix(-1.836970e-16 -1 1 -1.836970e-16 90.3474 31.0898)" class="st1 st2 st3">00</text>
	</g>
	<g>
		<circle class="st1" cx="95.2" cy="25.2" r="1.8"/>
		<circle class="st1" cx="95.2" cy="20.9" r="1.8"/>
		<circle class="st1" cx="95.2" cy="16.5" r="1.8"/>
		<circle class="st1" cx="95.2" cy="12.2" r="1.8"/>
		<circle class="st1" cx="95.2" cy="7.9" r="1.8"/>
		<text transform="matrix(-1.836970e-16 -1 1 -1.836970e-16 96.2775 5.4092)" class="st1 st2 st3">00</text>
		<text transform="matrix(-1.836970e-16 -1 1 -1.836970e-16 96.2775 31.0898)" class="st1 st2 st3">00</text>
	</g>
	<g>
		<circle class="st1" cx="101.2" cy="25.2" r="1.8"/>
		<circle class="st1" cx="101.2" cy="20.9" r="1.8"/>
		<circle class="st1" cx="101.2" cy="16.5" r="1.8"/>
		<circle class="st1" cx="101.2" cy="12.2" r="1.8"/>
		<circle class="st1" cx="101.2" cy="7.9" r="1.8"/>
		<text transform="matrix(-1.836970e-16 -1 1 -1.836970e-16 102.2075 5.4092)" class="st1 st2 st3">00</text>
		<text transform="matrix(-1.836970e-16 -1 1 -1.836970e-16 102.2075 31.0898)" class="st1 st2 st3">00</text>
	</g>
	<g>
		<circle class="st1" cx="107.1" cy="20.9" r="1.8"/>
		<circle class="st1" cx="107.1" cy="16.5" r="1.8"/>
		<circle class="st1" cx="107.1" cy="12.2" r="1.8"/>
		<circle class="st1" cx="107.1" cy="7.9" r="1.8"/>
		<text transform="matrix(-1.836970e-16 -1 1 -1.836970e-16 108.1376 5.4092)" class="st1 st2 st3">00</text>
		<text transform="matrix(-1.836970e-16 -1 1 -1.836970e-16 108.1376 26.7695)" class="st1 st2 st3">00</text>
	</g>
	<g>
		<circle class="st1" cx="113" cy="20.9" r="1.8"/>
		<circle class="st1" cx="113" cy="16.5" r="1.8"/>
		<circle class="st1" cx="113" cy="12.2" r="1.8"/>
		<circle class="st1" cx="113" cy="7.9" r="1.8"/>
		<text transform="matrix(-1.836970e-16 -1 1 -1.836970e-16 114.0676 5.4092)" class="st1 st2 st3">00</text>
		<text transform="matrix(-1.836970e-16 -1 1 -1.836970e-16 114.0676 26.7695)" class="st1 st2 st3">00</text>
	</g>
	<g>
		<circle class="st1" cx="118.9" cy="25.2" r="1.8"/>
		<circle class="st1" cx="118.9" cy="20.9" r="1.8"/>
		<circle class="st1" cx="118.9" cy="16.5" r="1.8"/>
		<circle class="st1" cx="118.9" cy="12.2" r="1.8"/>
		<circle class="st1" cx="118.9" cy="7.9" r="1.8"/>
		<text transform="matrix(-1.836970e-16 -1 1 -1.836970e-16 119.9977 5.4092)" class="st1 st2 st3">00</text>
		<text transform="matrix(-1.836970e-16 -1 1 -1.836970e-16 119.9977 31.0898)" class="st1 st2 st3">00</text>
	</g>
	<g>
		<circle class="st1" cx="124.9" cy="25.2" r="1.8"/>
		<circle class="st1" cx="124.9" cy="20.9" r="1.8"/>
		<circle class="st1" cx="124.9" cy="16.5" r="1.8"/>
		<circle class="st1" cx="124.9" cy="12.2" r="1.8"/>
		<circle class="st1" cx="124.9" cy="7.9" r="1.8"/>
		<text transform="matrix(-1.836970e-16 -1 1 -1.836970e-16 125.9277 5.4092)" class="st1 st2 st3">00</text>
		<text transform="matrix(-1.836970e-16 -1 1 -1.836970e-16 125.9277 31.0898)" class="st1 st2 st3">00</text>
	</g>
	<g>
		<circle class="st1" cx="130.8" cy="20.9" r="1.9"/>
		<circle class="st1" cx="130.8" cy="16.5" r="1.9"/>
		<circle class="st1" cx="130.8" cy="12.2" r="1.9"/>
		<circle class="st1" cx="130.8" cy="7.9" r="1.9"/>
		<text transform="matrix(-1.836970e-16 -1 1 -1.836970e-16 131.8578 5.4092)" class="st1 st2 st3">00</text>
		<text transform="matrix(-1.836970e-16 -1 1 -1.836970e-16 131.8578 26.7695)" class="st1 st2 st3">00</text>
	</g>
	<g>
		<circle class="st1" cx="136.7" cy="20.9" r="1.9"/>
		<circle class="st1" cx="136.7" cy="16.5" r="1.9"/>
		<circle class="st1" cx="136.7" cy="12.2" r="1.9"/>
		<circle class="st1" cx="136.7" cy="7.9" r="1.9"/>
		<text transform="matrix(-1.836970e-16 -1 1 -1.836970e-16 137.7878 5.4092)" class="st1 st2 st3">00</text>
		<text transform="matrix(-1.836970e-16 -1 1 -1.836970e-16 137.7878 26.7695)" class="st1 st2 st3">00</text>
	</g>
	<g>
		<circle class="st1" cx="142.7" cy="20.9" r="1.9"/>
		<circle class="st1" cx="142.7" cy="16.5" r="1.9"/>
		<circle class="st1" cx="142.7" cy="12.2" r="1.9"/>
		<circle class="st1" cx="142.7" cy="7.9" r="1.9"/>
		<text transform="matrix(-1.836970e-16 -1 1 -1.836970e-16 143.7179 5.4092)" class="st1 st2 st3">00</text>
		<text transform="matrix(-1.836970e-16 -1 1 -1.836970e-16 143.7179 26.7695)" class="st1 st2 st3">00</text>
	</g>
	<g>
		<circle class="st1" cx="148.6" cy="16.5" r="1.9"/>
		<circle class="st1" cx="148.6" cy="12.2" r="1.9"/>
		<circle class="st1" cx="148.6" cy="7.9" r="1.9"/>
		<text transform="matrix(-1.836970e-16 -1 1 -1.836970e-16 149.6479 5.4092)" class="st1 st2 st3">00</text>
	</g>
	<g>
		<circle class="st1" cx="154.5" cy="16.5" r="1.9"/>
		<circle class="st1" cx="154.5" cy="12.2" r="1.9"/>
		<circle class="st1" cx="154.5" cy="7.9" r="1.9"/>
		<text transform="matrix(-1.836970e-16 -1 1 -1.836970e-16 155.578 5.4092)" class="st1 st2 st3">00</text>
	</g>
	<g>
		<circle class="st1" cx="160.5" cy="12.2" r="1.9"/>
		<circle class="st1" cx="160.5" cy="7.9" r="1.9"/>
		<text transform="matrix(-1.836970e-16 -1 1 -1.836970e-16 161.5081 5.4092)" class="st1 st2 st3">00</text>
	</g>
	<g>
		<circle class="st1" cx="166.4" cy="12.2" r="1.9"/>
		<circle class="st1" cx="166.4" cy="7.9" r="1.9"/>
		<text transform="matrix(-1.836970e-16 -1 1 -1.836970e-16 167.4381 5.4092)" class="st1 st2 st3">00</text>
	</g>
	<g>
		<circle class="st1" cx="172.3" cy="12.2" r="1.9"/>
		<circle class="st1" cx="172.3" cy="7.9" r="1.9"/>
		<text transform="matrix(-1.836970e-16 -1 1 -1.836970e-16 173.3682 5.4092)" class="st1 st2 st3">00</text>
	</g>
</g>
</svg>
