<svg xmlns="http://www.w3.org/2000/svg" viewBox="0 0 130 172">
    <path fill="#F1F3F4" stroke="#BCC8CE" stroke-width=".4" stroke-linecap="round" stroke-miterlimit="10" d="M32.38 65.37L220.35.58H.78l31.6 64.79z"/>
    <g fill="#AEBDC4">
        <circle cx="172.32" cy="12.23" r="1.85"/>
        <circle cx="172.32" cy="7.91" r="1.85"/>
        <circle cx="166.39" cy="12.23" r="1.85"/>
        <circle cx="166.39" cy="7.91" r="1.85"/>
        <circle cx="160.46" cy="12.23" r="1.85"/>
        <circle cx="160.46" cy="7.91" r="1.85"/>
        <circle cx="154.53" cy="16.55" r="1.85"/>
        <circle cx="154.53" cy="12.23" r="1.85"/>
        <circle cx="154.53" cy="7.91" r="1.85"/>
        <circle cx="35.92" cy="16.55" r="1.85"/>
        <circle cx="35.92" cy="12.23" r="1.85"/>
        <circle cx="35.92" cy="7.91" r="1.85"/>
        <circle cx="148.6" cy="16.55" r="1.85"/>
        <circle cx="148.6" cy="12.23" r="1.85"/>
        <circle cx="148.6" cy="7.91" r="1.85"/>
        <circle cx="142.67" cy="20.87" r="1.85"/>
        <circle cx="142.67" cy="16.55" r="1.85"/>
        <circle cx="142.67" cy="12.23" r="1.85"/>
        <circle cx="142.67" cy="7.91" r="1.85"/>
        <circle cx="136.74" cy="20.87" r="1.85"/>
        <circle cx="136.74" cy="16.55" r="1.85"/>
        <circle cx="136.74" cy="12.23" r="1.85"/>
        <circle cx="136.74" cy="7.91" r="1.85"/>
        <circle cx="130.81" cy="20.87" r="1.85"/>
        <circle cx="130.81" cy="16.55" r="1.85"/>
        <circle cx="130.81" cy="12.23" r="1.85"/>
        <circle cx="130.81" cy="7.91" r="1.85"/>
        <circle cx="113.02" cy="20.87" r="1.85"/>
        <circle cx="113.02" cy="16.55" r="1.85"/>
        <circle cx="113.02" cy="12.23" r="1.85"/>
        <circle cx="113.02" cy="7.91" r="1.85"/>
        <circle cx="107.09" cy="20.87" r="1.85"/>
        <circle cx="107.09" cy="16.55" r="1.85"/>
        <circle cx="107.09" cy="12.23" r="1.85"/>
        <circle cx="107.09" cy="7.91" r="1.85"/>
        <circle cx="124.88" cy="25.19" r="1.85"/>
        <circle cx="124.88" cy="20.87" r="1.85"/>
        <circle cx="124.88" cy="16.55" r="1.85"/>
        <circle cx="124.88" cy="12.23" r="1.85"/>
        <circle cx="124.88" cy="7.91" r="1.85"/>
        <circle cx="118.95" cy="25.19" r="1.85"/>
        <circle cx="118.95" cy="20.87" r="1.85"/>
        <circle cx="118.95" cy="16.55" r="1.85"/>
        <circle cx="118.95" cy="12.23" r="1.85"/>
        <circle cx="118.95" cy="7.91" r="1.85"/>
        <circle cx="101.16" cy="25.19" r="1.85"/>
        <circle cx="101.16" cy="20.87" r="1.85"/>
        <circle cx="101.16" cy="16.55" r="1.85"/>
        <circle cx="101.16" cy="12.23" r="1.85"/>
        <circle cx="101.16" cy="7.91" r="1.85"/>
        <circle cx="95.23" cy="25.19" r="1.85"/>
        <circle cx="95.23" cy="20.87" r="1.85"/>
        <circle cx="95.23" cy="16.55" r="1.85"/>
        <circle cx="95.23" cy="12.23" r="1.85"/>
        <circle cx="95.23" cy="7.91" r="1.85"/>
        <circle cx="89.3" cy="25.19" r="1.85"/>
        <circle cx="89.3" cy="20.87" r="1.85"/>
        <circle cx="89.3" cy="16.55" r="1.85"/>
        <circle cx="89.3" cy="12.23" r="1.85"/>
        <circle cx="89.3" cy="7.91" r="1.85"/>
        <g>
            <circle cx="83.37" cy="38.16" r="1.85"/>
            <circle cx="83.37" cy="33.84" r="1.85"/>
            <circle cx="83.37" cy="29.51" r="1.85"/>
            <circle cx="83.37" cy="25.19" r="1.85"/>
            <circle cx="83.37" cy="20.87" r="1.85"/>
            <circle cx="83.37" cy="16.55" r="1.85"/>
            <circle cx="83.37" cy="12.23" r="1.85"/>
            <circle cx="83.37" cy="7.91" r="1.85"/>
        </g>
        <g>
            <circle cx="77.44" cy="38.16" r="1.85"/>
            <circle cx="77.44" cy="33.84" r="1.85"/>
            <circle cx="77.44" cy="29.51" r="1.85"/>
            <circle cx="77.44" cy="25.19" r="1.85"/>
            <circle cx="77.44" cy="20.87" r="1.85"/>
            <circle cx="77.44" cy="16.55" r="1.85"/>
            <circle cx="77.44" cy="12.23" r="1.85"/>
            <circle cx="77.44" cy="7.91" r="1.85"/>
        </g>
        <g>
            <circle cx="41.85" cy="38.16" r="1.85"/>
            <circle cx="41.85" cy="33.84" r="1.85"/>
            <circle cx="41.85" cy="29.51" r="1.85"/>
            <circle cx="41.85" cy="25.19" r="1.85"/>
            <circle cx="41.85" cy="20.87" r="1.85"/>
            <circle cx="41.85" cy="16.55" r="1.85"/>
            <circle cx="41.85" cy="12.23" r="1.85"/>
            <circle cx="41.85" cy="7.91" r="1.85"/>
        </g>
        <g>
            <circle cx="71.51" cy="42.48" r="1.85"/>
            <circle cx="71.51" cy="38.16" r="1.85"/>
            <circle cx="71.51" cy="33.84" r="1.85"/>
            <circle cx="71.51" cy="29.51" r="1.85"/>
            <circle cx="71.51" cy="25.19" r="1.85"/>
            <circle cx="71.51" cy="20.87" r="1.85"/>
            <circle cx="71.51" cy="16.55" r="1.85"/>
            <circle cx="71.51" cy="12.23" r="1.85"/>
            <circle cx="71.51" cy="7.91" r="1.85"/>
        </g>
        <g>
            <circle cx="65.58" cy="42.48" r="1.85"/>
            <circle cx="65.58" cy="38.16" r="1.85"/>
            <circle cx="65.58" cy="33.84" r="1.85"/>
            <circle cx="65.58" cy="29.51" r="1.85"/>
            <circle cx="65.58" cy="25.19" r="1.85"/>
            <circle cx="65.58" cy="20.87" r="1.85"/>
            <circle cx="65.58" cy="16.55" r="1.85"/>
            <circle cx="65.58" cy="12.23" r="1.85"/>
            <circle cx="65.58" cy="7.91" r="1.85"/>
        </g>
        <g>
            <circle cx="59.65" cy="46.81" r="1.85"/>
            <circle cx="59.65" cy="42.49" r="1.85"/>
            <circle cx="59.65" cy="38.17" r="1.85"/>
            <circle cx="59.65" cy="33.85" r="1.85"/>
            <circle cx="59.65" cy="29.52" r="1.85"/>
            <circle cx="59.65" cy="25.2" r="1.85"/>
            <circle cx="59.65" cy="20.88" r="1.85"/>
            <circle cx="59.65" cy="16.56" r="1.85"/>
            <circle cx="59.65" cy="12.24" r="1.85"/>
            <circle cx="59.65" cy="7.91" r="1.85"/>
        </g>
        <g>
            <circle cx="53.72" cy="46.81" r="1.85"/>
            <circle cx="53.72" cy="42.49" r="1.85"/>
            <circle cx="53.72" cy="38.17" r="1.85"/>
            <circle cx="53.72" cy="33.85" r="1.85"/>
            <circle cx="53.72" cy="29.52" r="1.85"/>
            <circle cx="53.72" cy="25.2" r="1.85"/>
            <circle cx="53.72" cy="20.88" r="1.85"/>
            <circle cx="53.72" cy="16.56" r="1.85"/>
            <circle cx="53.72" cy="12.24" r="1.85"/>
            <circle cx="53.72" cy="7.91" r="1.85"/>
        </g>
        <g>
            <circle cx="47.78" cy="51.14" r="1.85"/>
            <circle cx="47.78" cy="46.82" r="1.85"/>
            <circle cx="47.78" cy="42.5" r="1.85"/>
            <circle cx="47.78" cy="38.18" r="1.85"/>
            <circle cx="47.78" cy="33.85" r="1.85"/>
            <circle cx="47.78" cy="29.53" r="1.85"/>
            <circle cx="47.78" cy="25.21" r="1.85"/>
            <circle cx="47.78" cy="20.89" r="1.85"/>
            <circle cx="47.78" cy="16.57" r="1.85"/>
            <circle cx="47.78" cy="12.24" r="1.85"/>
            <circle cx="47.78" cy="7.91" r="1.85"/>
        </g>
    </g>
</svg>
