<?xml version="1.0" encoding="utf-8"?>
<!-- Generator: Adobe Illustrator 23.0.1, SVG Export Plug-In . SVG Version: 6.00 Build 0)  -->
<svg version="1.1" id="Layer_1" xmlns="http://www.w3.org/2000/svg" xmlns:xlink="http://www.w3.org/1999/xlink" x="0px" y="0px"
  viewBox="0 0 157 157" enable-background="new 0 0 157 157" xml:space="preserve">
  <polygon fill="#F1F3F4" stroke="#BCC8CE" stroke-width="0.4" stroke-linecap="round" stroke-miterlimit="10" points="
    117.97,156.41 156.51,65.82 91.17,0.48 0.6,39.03 	"/>
    <g 
      data-sort-seat-direction="ltr" 
      data-sort-line-direction="ttb" 
      data-sort-seat-option="cy" 
      data-sort-line-option="order" 
      data-line-start="1"
      >
      <g>
        <circle fill="#AEBDC4" order="14" cx="110.22" cy="138.61" r="1.85"/>
        <circle fill="#AEBDC4" cx="107.16" cy="135.55" r="1.85"/>
        <circle fill="#AEBDC4" cx="104.11" cy="132.49" r="1.85"/>
        <circle fill="#AEBDC4" cx="101.05" cy="129.44" r="1.85"/>
        <circle fill="#AEBDC4" cx="98" cy="126.38" r="1.85"/>
        <circle fill="#AEBDC4" cx="94.94" cy="123.33" r="1.85"/>
        <circle fill="#AEBDC4" cx="91.88" cy="120.27" r="1.85"/>
        <circle fill="#AEBDC4" cx="88.83" cy="117.22" r="1.85"/>
        <circle fill="#AEBDC4" cx="85.77" cy="114.16" r="1.85"/>
        <circle fill="#AEBDC4" cx="82.71" cy="111.1" r="1.85"/>
        <circle fill="#AEBDC4" cx="79.65" cy="108.03" r="1.85"/>
        <circle fill="#AEBDC4" cx="76.59" cy="104.97" r="1.85"/>
        <circle fill="#AEBDC4" cx="73.52" cy="101.91" r="1.85"/>
        <circle fill="#AEBDC4" cx="70.46" cy="98.85" r="1.85"/>
        <circle fill="#AEBDC4" cx="67.4" cy="95.78" r="1.85"/>
        <circle fill="#AEBDC4" cx="64.34" cy="92.72" r="1.85"/>
        <circle fill="#AEBDC4" cx="61.28" cy="89.66" r="1.85"/>
        <circle fill="#AEBDC4" cx="58.21" cy="86.6" r="1.85"/>
        <circle fill="#AEBDC4" cx="55.15" cy="83.54" r="1.85"/>
        <circle fill="#AEBDC4" cx="52.09" cy="80.47" r="1.85"/>
        <circle fill="#AEBDC4" cx="49.03" cy="77.41" r="1.85"/>
        <circle fill="#AEBDC4" cx="45.96" cy="74.35" r="1.85"/>
        <circle fill="#AEBDC4" cx="42.9" cy="71.29" r="1.85"/>
        <circle fill="#AEBDC4" cx="39.84" cy="68.22" r="1.85"/>
        <circle fill="#AEBDC4" cx="36.78" cy="65.16" r="1.85"/>
        <circle fill="#AEBDC4" cx="33.72" cy="62.1" r="1.85"/>
        <circle fill="#AEBDC4" cx="30.65" cy="59.04" r="1.85"/>
        <circle fill="#AEBDC4" cx="27.59" cy="55.97" r="1.85"/>
        <circle fill="#AEBDC4" cx="24.53" cy="52.91" r="1.85"/>
        <circle fill="#AEBDC4" cx="21.47" cy="49.85" r="1.85"/>
        <circle fill="#AEBDC4" cx="18.4" cy="46.79" r="1.85"/>
      </g>
      <g>
        <circle fill="#AEBDC4" order="13" cx="109.79" cy="129.79" r="1.85"/>
        <circle fill="#AEBDC4" cx="106.74" cy="126.74" r="1.85"/>
        <circle fill="#AEBDC4" cx="103.68" cy="123.68" r="1.85"/>
        <circle fill="#AEBDC4" cx="100.63" cy="120.63" r="1.85"/>
        <circle fill="#AEBDC4" cx="97.57" cy="117.57" r="1.85"/>
        <circle fill="#AEBDC4" cx="94.52" cy="114.51" r="1.85"/>
        <circle fill="#AEBDC4" cx="91.46" cy="111.46" r="1.85"/>
        <circle fill="#AEBDC4" cx="88.4" cy="108.4" r="1.85"/>
        <circle fill="#AEBDC4" cx="85.35" cy="105.35" r="1.85"/>
        <circle fill="#AEBDC4" cx="82.29" cy="102.28" r="1.85"/>
        <circle fill="#AEBDC4" cx="79.22" cy="99.22" r="1.85"/>
        <circle fill="#AEBDC4" cx="76.16" cy="96.16" r="1.85"/>
        <circle fill="#AEBDC4" cx="73.1" cy="93.1" r="1.85"/>
        <circle fill="#AEBDC4" cx="70.04" cy="90.03" r="1.85"/>
        <circle fill="#AEBDC4" cx="66.98" cy="86.97" r="1.85"/>
        <circle fill="#AEBDC4" cx="63.91" cy="83.91" r="1.85"/>
        <circle fill="#AEBDC4" cx="60.85" cy="80.85" r="1.85"/>
        <circle fill="#AEBDC4" cx="57.79" cy="77.79" r="1.85"/>
        <circle fill="#AEBDC4" cx="54.73" cy="74.72" r="1.85"/>
        <circle fill="#AEBDC4" cx="51.66" cy="71.66" r="1.85"/>
        <circle fill="#AEBDC4" cx="48.6" cy="68.6" r="1.85"/>
        <circle fill="#AEBDC4" cx="45.54" cy="65.54" r="1.85"/>
        <circle fill="#AEBDC4" cx="42.48" cy="62.47" r="1.85"/>
        <circle fill="#AEBDC4" cx="39.41" cy="59.41" r="1.85"/>
        <circle fill="#AEBDC4" cx="36.35" cy="56.35" r="1.85"/>
        <circle fill="#AEBDC4" cx="33.29" cy="53.29" r="1.85"/>
        <circle fill="#AEBDC4" cx="30.23" cy="50.22" r="1.85"/>
        <circle fill="#AEBDC4" cx="27.17" cy="47.16" r="1.85"/>
      </g>
      <g>
        <circle fill="#AEBDC4" order="12" cx="112.32" cy="123.93" r="1.85"/>
        <circle fill="#AEBDC4" cx="109.26" cy="120.87" r="1.85"/>
        <circle fill="#AEBDC4" cx="106.21" cy="117.82" r="1.85"/>
        <circle fill="#AEBDC4" cx="103.15" cy="114.76" r="1.85"/>
        <circle fill="#AEBDC4" cx="100.1" cy="111.71" r="1.85"/>
        <circle fill="#AEBDC4" cx="97.04" cy="108.65" r="1.85"/>
        <circle fill="#AEBDC4" cx="93.98" cy="105.6" r="1.85"/>
        <circle fill="#AEBDC4" cx="90.93" cy="102.54" r="1.85"/>
        <circle fill="#AEBDC4" cx="87.87" cy="99.48" r="1.85"/>
        <circle fill="#AEBDC4" cx="84.81" cy="96.42" r="1.85"/>
        <circle fill="#AEBDC4" cx="81.75" cy="93.36" r="1.85"/>
        <circle fill="#AEBDC4" cx="78.69" cy="90.3" r="1.85"/>
        <circle fill="#AEBDC4" cx="75.62" cy="87.24" r="1.85"/>
        <circle fill="#AEBDC4" cx="72.56" cy="84.17" r="1.85"/>
        <circle fill="#AEBDC4" cx="69.5" cy="81.11" r="1.85"/>
        <circle fill="#AEBDC4" cx="66.44" cy="78.05" r="1.85"/>
        <circle fill="#AEBDC4" cx="63.38" cy="74.99" r="1.85"/>
        <circle fill="#AEBDC4" cx="60.31" cy="71.92" r="1.85"/>
        <circle fill="#AEBDC4" cx="57.25" cy="68.86" r="1.85"/>
        <circle fill="#AEBDC4" cx="54.19" cy="65.8" r="1.85"/>
        <circle fill="#AEBDC4" cx="51.13" cy="62.74" r="1.85"/>
        <circle fill="#AEBDC4" cx="48.06" cy="59.67" r="1.85"/>
        <circle fill="#AEBDC4" cx="45" cy="56.61" r="1.85"/>
        <circle fill="#AEBDC4" cx="41.94" cy="53.55" r="1.85"/>
        <circle fill="#AEBDC4" cx="38.88" cy="50.49" r="1.85"/>
        <circle fill="#AEBDC4" cx="35.82" cy="47.42" r="1.85"/>
        <circle fill="#AEBDC4" cx="32.75" cy="44.36" r="1.85"/>
      </g>
      <g>
        <circle fill="#AEBDC4" order="11" cx="113.45" cy="116.68" r="1.85"/>
        <circle fill="#AEBDC4" cx="110.4" cy="113.62" r="1.85"/>
        <circle fill="#AEBDC4" cx="107.34" cy="110.57" r="1.85"/>
        <circle fill="#AEBDC4" cx="104.29" cy="107.51" r="1.85"/>
        <circle fill="#AEBDC4" cx="101.23" cy="104.45" r="1.85"/>
        <circle fill="#AEBDC4" cx="98.17" cy="101.4" r="1.85"/>
        <circle fill="#AEBDC4" cx="95.12" cy="98.34" r="1.85"/>
        <circle fill="#AEBDC4" cx="92.06" cy="95.29" r="1.85"/>
        <circle fill="#AEBDC4" cx="89.01" cy="92.23" r="1.85"/>
        <circle fill="#AEBDC4" cx="85.95" cy="89.17" r="1.85"/>
        <circle fill="#AEBDC4" cx="82.88" cy="86.11" r="1.85"/>
        <circle fill="#AEBDC4" cx="79.82" cy="83.04" r="1.85"/>
        <circle fill="#AEBDC4" cx="76.76" cy="79.98" r="1.85"/>
        <circle fill="#AEBDC4" cx="73.7" cy="76.92" r="1.85"/>
        <circle fill="#AEBDC4" cx="70.63" cy="73.86" r="1.85"/>
        <circle fill="#AEBDC4" cx="67.57" cy="70.8" r="1.85"/>
        <circle fill="#AEBDC4" cx="64.51" cy="67.73" r="1.85"/>
        <circle fill="#AEBDC4" cx="61.45" cy="64.67" r="1.85"/>
        <circle fill="#AEBDC4" cx="58.39" cy="61.61" r="1.85"/>
        <circle fill="#AEBDC4" cx="55.32" cy="58.55" r="1.85"/>
        <circle fill="#AEBDC4" cx="52.26" cy="55.48" r="1.85"/>
        <circle fill="#AEBDC4" cx="49.2" cy="52.42" r="1.85"/>
        <circle fill="#AEBDC4" cx="46.14" cy="49.36" r="1.85"/>
        <circle fill="#AEBDC4" cx="43.07" cy="46.3" r="1.85"/>
        <circle fill="#AEBDC4" cx="40.01" cy="43.23" r="1.85"/>
      </g>
      <g>
        <circle fill="#AEBDC4" order="10" cx="117.65" cy="112.48" r="1.85"/>
        <circle fill="#AEBDC4" cx="114.59" cy="109.43" r="1.85"/>
        <circle fill="#AEBDC4" cx="111.53" cy="106.37" r="1.85"/>
        <circle fill="#AEBDC4" cx="108.48" cy="103.32" r="1.85"/>
        <circle fill="#AEBDC4" cx="105.42" cy="100.26" r="1.85"/>
        <circle fill="#AEBDC4" cx="102.37" cy="97.21" r="1.85"/>
        <circle fill="#AEBDC4" cx="99.31" cy="94.15" r="1.85"/>
        <circle fill="#AEBDC4" cx="96.26" cy="91.09" r="1.85"/>
        <circle fill="#AEBDC4" cx="93.2" cy="88.04" r="1.85"/>
        <circle fill="#AEBDC4" cx="90.14" cy="84.98" r="1.85"/>
        <circle fill="#AEBDC4" cx="87.08" cy="81.91" r="1.85"/>
        <circle fill="#AEBDC4" cx="84.02" cy="78.85" r="1.85"/>
        <circle fill="#AEBDC4" cx="80.95" cy="75.79" r="1.85"/>
        <circle fill="#AEBDC4" cx="77.89" cy="72.73" r="1.85"/>
        <circle fill="#AEBDC4" cx="74.83" cy="69.66" r="1.85"/>
        <circle fill="#AEBDC4" cx="71.77" cy="66.6" r="1.85"/>
        <circle fill="#AEBDC4" cx="68.7" cy="63.54" r="1.85"/>
        <circle fill="#AEBDC4" cx="65.64" cy="60.48" r="1.85"/>
        <circle fill="#AEBDC4" cx="62.58" cy="57.41" r="1.85"/>
        <circle fill="#AEBDC4" cx="59.52" cy="54.35" r="1.85"/>
        <circle fill="#AEBDC4" cx="56.45" cy="51.29" r="1.85"/>
        <circle fill="#AEBDC4" cx="53.39" cy="48.23" r="1.85"/>
        <circle fill="#AEBDC4" cx="50.33" cy="45.16" r="1.85"/>
        <circle fill="#AEBDC4" cx="47.27" cy="42.1" r="1.85"/>
        <circle fill="#AEBDC4" cx="44.21" cy="39.04" r="1.85"/>
      </g>
      <g>
        <circle fill="#AEBDC4" order="9" cx="118.78" cy="105.23" r="1.85"/>
        <circle fill="#AEBDC4" cx="115.72" cy="102.17" r="1.85"/>
        <circle fill="#AEBDC4" cx="112.67" cy="99.12" r="1.85"/>
        <circle fill="#AEBDC4" cx="109.61" cy="96.06" r="1.85"/>
        <circle fill="#AEBDC4" cx="106.56" cy="93" r="1.85"/>
        <circle fill="#AEBDC4" cx="103.5" cy="89.95" r="1.85"/>
        <circle fill="#AEBDC4" cx="100.44" cy="86.89" r="1.85"/>
        <circle fill="#AEBDC4" cx="97.39" cy="83.84" r="1.85"/>
        <circle fill="#AEBDC4" cx="94.33" cy="80.78" r="1.85"/>
        <circle fill="#AEBDC4" cx="91.27" cy="77.72" r="1.85"/>
        <circle fill="#AEBDC4" cx="88.21" cy="74.66" r="1.85"/>
        <circle fill="#AEBDC4" cx="85.15" cy="71.59" r="1.85"/>
        <circle fill="#AEBDC4" cx="82.08" cy="68.53" r="1.85"/>
        <circle fill="#AEBDC4" cx="79.02" cy="65.47" r="1.85"/>
        <circle fill="#AEBDC4" cx="75.96" cy="62.41" r="1.85"/>
        <circle fill="#AEBDC4" cx="72.9" cy="59.35" r="1.85"/>
        <circle fill="#AEBDC4" cx="69.83" cy="56.28" r="1.85"/>
        <circle fill="#AEBDC4" cx="66.77" cy="53.22" r="1.85"/>
        <circle fill="#AEBDC4" cx="63.71" cy="50.16" r="1.85"/>
        <circle fill="#AEBDC4" cx="60.65" cy="47.1" r="1.85"/>
        <circle fill="#AEBDC4" cx="57.59" cy="44.03" r="1.85"/>
        <circle fill="#AEBDC4" cx="54.52" cy="40.97" r="1.85"/>
        <circle fill="#AEBDC4" cx="51.46" cy="37.91" r="1.85"/>
      </g>
      <g>
        <circle fill="#AEBDC4" order="8" cx="119.91" cy="97.97" r="1.85"/>
        <circle fill="#AEBDC4" cx="116.85" cy="94.92" r="1.85"/>
        <circle fill="#AEBDC4" cx="113.8" cy="91.86" r="1.85"/>
        <circle fill="#AEBDC4" cx="110.74" cy="88.8" r="1.85"/>
        <circle fill="#AEBDC4" cx="107.69" cy="85.75" r="1.85"/>
        <circle fill="#AEBDC4" cx="104.63" cy="82.69" r="1.85"/>
        <circle fill="#AEBDC4" cx="101.58" cy="79.64" r="1.85"/>
        <circle fill="#AEBDC4" cx="98.52" cy="76.58" r="1.85"/>
        <circle fill="#AEBDC4" cx="95.46" cy="73.53" r="1.85"/>
        <circle fill="#AEBDC4" cx="92.4" cy="70.46" r="1.85"/>
        <circle fill="#AEBDC4" cx="89.34" cy="67.4" r="1.85"/>
        <circle fill="#AEBDC4" cx="86.28" cy="64.34" r="1.85"/>
        <circle fill="#AEBDC4" cx="83.22" cy="61.28" r="1.85"/>
        <circle fill="#AEBDC4" cx="80.15" cy="58.21" r="1.85"/>
        <circle fill="#AEBDC4" cx="77.09" cy="55.15" r="1.85"/>
        <circle fill="#AEBDC4" cx="74.03" cy="52.09" r="1.85"/>
        <circle fill="#AEBDC4" cx="70.97" cy="49.03" r="1.85"/>
        <circle fill="#AEBDC4" cx="67.9" cy="45.96" r="1.85"/>
        <circle fill="#AEBDC4" cx="64.84" cy="42.9" r="1.85"/>
        <circle fill="#AEBDC4" cx="61.78" cy="39.84" r="1.85"/>
        <circle fill="#AEBDC4" cx="58.72" cy="36.78" r="1.85"/>
      </g>
      <g>
        <circle fill="#AEBDC4" order="7" cx="122.71" cy="92.39" r="1.85"/>
        <circle fill="#AEBDC4" cx="119.66" cy="89.33" r="1.85"/>
        <circle fill="#AEBDC4" cx="116.6" cy="86.28" r="1.85"/>
        <circle fill="#AEBDC4" cx="113.54" cy="83.22" r="1.85"/>
        <circle fill="#AEBDC4" cx="110.49" cy="80.16" r="1.85"/>
        <circle fill="#AEBDC4" cx="107.43" cy="77.11" r="1.85"/>
        <circle fill="#AEBDC4" cx="104.38" cy="74.05" r="1.85"/>
        <circle fill="#AEBDC4" cx="101.32" cy="71" r="1.85"/>
        <circle fill="#AEBDC4" cx="98.27" cy="67.94" r="1.85"/>
        <circle fill="#AEBDC4" cx="95.21" cy="64.88" r="1.85"/>
        <circle fill="#AEBDC4" cx="92.14" cy="61.82" r="1.85"/>
        <circle fill="#AEBDC4" cx="89.08" cy="58.75" r="1.85"/>
        <circle fill="#AEBDC4" cx="86.02" cy="55.69" r="1.85"/>
        <circle fill="#AEBDC4" cx="82.96" cy="52.63" r="1.85"/>
        <circle fill="#AEBDC4" cx="79.89" cy="49.57" r="1.85"/>
        <circle fill="#AEBDC4" cx="76.83" cy="46.5" r="1.85"/>
        <circle fill="#AEBDC4" cx="73.77" cy="43.44" r="1.85"/>
        <circle fill="#AEBDC4" cx="70.71" cy="40.38" r="1.85"/>
        <circle fill="#AEBDC4" cx="67.64" cy="37.32" r="1.85"/>
        <circle fill="#AEBDC4" cx="64.58" cy="34.25" r="1.85"/>
      </g>
      <g>
        <circle fill="#AEBDC4" order="6" cx="125.23" cy="86.52" r="1.85"/>
        <circle fill="#AEBDC4" cx="122.18" cy="83.47" r="1.85"/>
        <circle fill="#AEBDC4" cx="119.12" cy="80.41" r="1.85"/>
        <circle fill="#AEBDC4" cx="116.07" cy="77.35" r="1.85"/>
        <circle fill="#AEBDC4" cx="113.01" cy="74.3" r="1.85"/>
        <circle fill="#AEBDC4" cx="109.96" cy="71.24" r="1.85"/>
        <circle fill="#AEBDC4" cx="106.9" cy="68.19" r="1.85"/>
        <circle fill="#AEBDC4" cx="103.84" cy="65.13" r="1.85"/>
        <circle fill="#AEBDC4" cx="100.79" cy="62.08" r="1.85"/>
        <circle fill="#AEBDC4" cx="97.73" cy="59.01" r="1.85"/>
        <circle fill="#AEBDC4" cx="94.66" cy="55.95" r="1.85"/>
        <circle fill="#AEBDC4" cx="91.6" cy="52.89" r="1.85"/>
        <circle fill="#AEBDC4" cx="88.54" cy="49.83" r="1.85"/>
        <circle fill="#AEBDC4" cx="85.48" cy="46.76" r="1.85"/>
        <circle fill="#AEBDC4" cx="82.42" cy="43.7" r="1.85"/>
        <circle fill="#AEBDC4" cx="79.35" cy="40.64" r="1.85"/>
        <circle fill="#AEBDC4" cx="76.29" cy="37.58" r="1.85"/>
        <circle fill="#AEBDC4" cx="73.23" cy="34.51" r="1.85"/>
        <circle fill="#AEBDC4" cx="70.17" cy="31.45" r="1.85"/>
      </g>
      <g>
        <circle fill="#AEBDC4" order="5" cx="124.97" cy="77.88" r="1.85"/>
        <circle fill="#AEBDC4" cx="121.92" cy="74.82" r="1.85"/>
        <circle fill="#AEBDC4" cx="118.86" cy="71.76" r="1.85"/>
        <circle fill="#AEBDC4" cx="115.81" cy="68.71" r="1.85"/>
        <circle fill="#AEBDC4" cx="112.75" cy="65.65" r="1.85"/>
        <circle fill="#AEBDC4" cx="109.7" cy="62.6" r="1.85"/>
        <circle fill="#AEBDC4" cx="106.64" cy="59.54" r="1.85"/>
        <circle fill="#AEBDC4" cx="103.59" cy="56.49" r="1.85"/>
        <circle fill="#AEBDC4" cx="100.53" cy="53.43" r="1.85"/>
        <circle fill="#AEBDC4" cx="97.47" cy="50.37" r="1.85"/>
        <circle fill="#AEBDC4" cx="94.41" cy="47.3" r="1.85"/>
        <circle fill="#AEBDC4" cx="91.34" cy="44.24" r="1.85"/>
        <circle fill="#AEBDC4" cx="88.28" cy="41.18" r="1.85"/>
        <circle fill="#AEBDC4" cx="85.22" cy="38.12" r="1.85"/>
        <circle fill="#AEBDC4" cx="82.16" cy="35.05" r="1.85"/>
        <circle fill="#AEBDC4" cx="79.09" cy="31.99" r="1.85"/>
      </g>
      <g>
        <circle fill="#AEBDC4" order="4" cx="127.5" cy="72.01" r="1.85"/>
        <circle fill="#AEBDC4" cx="124.44" cy="68.95" r="1.85"/>
        <circle fill="#AEBDC4" cx="121.38" cy="65.9" r="1.85"/>
        <circle fill="#AEBDC4" cx="118.33" cy="62.84" r="1.85"/>
        <circle fill="#AEBDC4" cx="115.27" cy="59.79" r="1.85"/>
        <circle fill="#AEBDC4" cx="112.22" cy="56.73" r="1.85"/>
        <circle fill="#AEBDC4" cx="109.16" cy="53.68" r="1.85"/>
        <circle fill="#AEBDC4" cx="106.11" cy="50.62" r="1.85"/>
        <circle fill="#AEBDC4" cx="103.05" cy="47.56" r="1.85"/>
        <circle fill="#AEBDC4" cx="99.99" cy="44.5" r="1.85"/>
        <circle fill="#AEBDC4" cx="96.93" cy="41.44" r="1.85"/>
        <circle fill="#AEBDC4" cx="93.86" cy="38.38" r="1.85"/>
        <circle fill="#AEBDC4" cx="90.8" cy="35.31" r="1.85"/>
        <circle fill="#AEBDC4" cx="87.74" cy="32.25" r="1.85"/>
        <circle fill="#AEBDC4" cx="84.68" cy="29.19" r="1.85"/>
      </g>
      <g>
        <circle fill="#AEBDC4" order="3" cx="127.24" cy="63.36" r="1.85"/>
        <circle fill="#AEBDC4" cx="124.18" cy="60.31" r="1.85"/>
        <circle fill="#AEBDC4" cx="121.13" cy="57.25" r="1.85"/>
        <circle fill="#AEBDC4" cx="118.07" cy="54.2" r="1.85"/>
        <circle fill="#AEBDC4" cx="115.01" cy="51.14" r="1.85"/>
        <circle fill="#AEBDC4" cx="111.96" cy="48.08" r="1.85"/>
        <circle fill="#AEBDC4" cx="108.9" cy="45.03" r="1.85"/>
        <circle fill="#AEBDC4" cx="105.85" cy="41.97" r="1.85"/>
        <circle fill="#AEBDC4" cx="102.79" cy="38.92" r="1.85"/>
        <circle fill="#AEBDC4" cx="99.73" cy="35.85" r="1.85"/>
        <circle fill="#AEBDC4" cx="96.67" cy="32.79" r="1.85"/>
        <circle fill="#AEBDC4" cx="93.61" cy="29.73" r="1.85"/>
      </g>
      <g>
        <circle fill="#AEBDC4" order="2" cx="131.43" cy="59.17" r="1.85"/>
        <circle fill="#AEBDC4" cx="128.37" cy="56.11" r="1.85"/>
        <circle fill="#AEBDC4" cx="125.32" cy="53.06" r="1.85"/>
        <circle fill="#AEBDC4" cx="122.26" cy="50" r="1.85"/>
        <circle fill="#AEBDC4" cx="119.21" cy="46.95" r="1.85"/>
        <circle fill="#AEBDC4" cx="116.15" cy="43.89" r="1.85"/>
        <circle fill="#AEBDC4" cx="113.1" cy="40.83" r="1.85"/>
        <circle fill="#AEBDC4" cx="110.04" cy="37.78" r="1.85"/>
        <circle fill="#AEBDC4" cx="106.99" cy="34.72" r="1.85"/>
        <circle fill="#AEBDC4" cx="103.92" cy="31.66" r="1.85"/>
        <circle fill="#AEBDC4" cx="100.86" cy="28.6" r="1.85"/>
        <circle fill="#AEBDC4" cx="97.8" cy="25.54" r="1.85"/>
      </g>
      <g>
        <circle fill="#AEBDC4" order="1" cx="134.09" cy="53.44" r="1.85"/>
        <circle fill="#AEBDC4" cx="131.04" cy="50.39" r="1.85"/>
        <circle fill="#AEBDC4" cx="127.98" cy="47.33" r="1.85"/>
        <circle fill="#AEBDC4" cx="124.93" cy="44.28" r="1.85"/>
        <circle fill="#AEBDC4" cx="121.87" cy="41.22" r="1.85"/>
        <circle fill="#AEBDC4" cx="118.81" cy="38.17" r="1.85"/>
        <circle fill="#AEBDC4" cx="115.76" cy="35.11" r="1.85"/>
        <circle fill="#AEBDC4" cx="112.7" cy="32.05" r="1.85"/>
        <circle fill="#AEBDC4" cx="109.65" cy="29" r="1.85"/>
        <circle fill="#AEBDC4" cx="106.59" cy="25.94" r="1.85"/>
        <circle fill="#AEBDC4" cx="103.52" cy="22.87" r="1.85"/>
      </g>
    </g>
  </svg>
