<?xml version="1.0" encoding="utf-8"?>
<!-- Generator: Adobe Illustrator 23.0.1, SVG Export Plug-In . SVG Version: 6.00 Build 0)  -->
<svg version="1.1" id="Layer_1" xmlns="http://www.w3.org/2000/svg" xmlns:xlink="http://www.w3.org/1999/xlink" x="0px" y="0px"
	 width="168px" height="168px" viewBox="0 0 168 168" enable-background="new 0 0 168 168" xml:space="preserve">
<g onclick="this.parentNode.sekt.push(this);this.a_name=&quot;SW (низ)&quot;;">
	
		<polygon onclick="this.parentNode.a_fon=this;" fill="#F1F3F4" stroke="#BCC8CE" stroke-width="0.4" stroke-linecap="round" stroke-miterlimit="10" points="
		167.63,44.35 151.24,0.5 0.5,151.25 44.36,167.63 	"/>
	<g onclick="this.parentNode.a_row=this;">
		<g onclick="this.a_par={beg_namb:30,quant:12};">
			<line fill="none" stroke="#D3DBDF" stroke-width="0.4" stroke-miterlimit="10" x1="53.07" y1="113.95" x2="16.83" y2="150.19"/>
		</g>
		<g onclick="this.a_par={beg_namb:13,quant:17};">
			<line fill="none" stroke="#D3DBDF" stroke-width="0.4" stroke-miterlimit="10" x1="109.25" y1="57.77" x2="57.7" y2="109.32"/>
		</g>
		<g onclick="this.a_par={beg_namb:26,quant:11};">
			<line fill="none" stroke="#D3DBDF" stroke-width="0.4" stroke-miterlimit="10" x1="61.72" y1="113.69" x2="28.54" y2="146.87"/>
		</g>
		<g onclick="this.a_par={beg_namb:26,quant:11};">
			<line fill="none" stroke="#D3DBDF" stroke-width="0.4" stroke-miterlimit="10" x1="65.91" y1="117.88" x2="32.73" y2="151.06"/>
		</g>
		<g onclick="this.a_par={beg_namb:25,quant:10};">
			<line fill="none" stroke="#D3DBDF" stroke-width="0.4" stroke-miterlimit="10" x1="70.11" y1="122.08" x2="39.99" y2="152.2"/>
		</g>
		<g onclick="this.a_par={beg_namb:12,quant:14};">
			<line fill="none" stroke="#D3DBDF" stroke-width="0.4" stroke-miterlimit="10" x1="108.7" y1="66.71" x2="66.33" y2="109.08"/>
		</g>
		<g onclick="this.a_par={beg_namb:12,quant:14};">
			<line fill="none" stroke="#D3DBDF" stroke-width="0.4" stroke-miterlimit="10" x1="112.89" y1="70.9" x2="70.53" y2="113.27"/>
		</g>
		<g onclick="this.a_par={beg_namb:11,quant:14};">
			<line fill="none" stroke="#D3DBDF" stroke-width="0.4" stroke-miterlimit="10" x1="117.09" y1="75.09" x2="74.72" y2="117.46"/>
		</g>
		<g onclick="this.a_par={beg_namb:1,quant:11};">
			<line fill="none" stroke="#D3DBDF" stroke-width="0.4" stroke-miterlimit="10" x1="146.52" y1="28.89" x2="113.34" y2="62.07"/>
		</g>
		<g onclick="this.a_par={beg_namb:1,quant:11};">
			<line fill="none" stroke="#D3DBDF" stroke-width="0.4" stroke-miterlimit="10" x1="150.71" y1="33.08" x2="117.53" y2="66.26"/>
		</g>
		<g onclick="this.a_par={beg_namb:1,quant:10};">
			<line fill="none" stroke="#D3DBDF" stroke-width="0.4" stroke-miterlimit="10" x1="151.84" y1="40.34" x2="121.72" y2="70.46"/>
		</g>
		<g onclick="this.a_par={beg_namb:1,quant:12};">
			<line fill="none" stroke="#D3DBDF" stroke-width="0.4" stroke-miterlimit="10" x1="150.13" y1="16.89" x2="113.89" y2="53.13"/>
		</g>
	</g>
	<g>
		<g>
			<circle fill="#AEBDC4" cx="123.03" cy="69.15" r="1.85"/>
			<circle fill="#AEBDC4" cx="126.09" cy="66.09" r="1.85"/>
			<circle fill="#AEBDC4" cx="129.14" cy="63.04" r="1.85"/>
			<circle fill="#AEBDC4" cx="132.2" cy="59.98" r="1.85"/>
			<circle fill="#AEBDC4" cx="135.25" cy="56.93" r="1.85"/>
			<circle fill="#AEBDC4" cx="138.31" cy="53.87" r="1.85"/>
			<circle fill="#AEBDC4" cx="141.36" cy="50.82" r="1.85"/>
			<circle fill="#AEBDC4" cx="144.42" cy="47.76" r="1.85"/>
			<circle fill="#AEBDC4" cx="147.47" cy="44.7" r="1.85"/>
			<circle fill="#AEBDC4" cx="150.54" cy="41.64" r="1.85"/>
		</g>
		<g>
			<circle fill="#AEBDC4" cx="41.3" cy="150.89" r="1.85"/>
			<circle fill="#AEBDC4" cx="44.35" cy="147.83" r="1.85"/>
			<circle fill="#AEBDC4" cx="47.41" cy="144.78" r="1.85"/>
			<circle fill="#AEBDC4" cx="50.46" cy="141.72" r="1.85"/>
			<circle fill="#AEBDC4" cx="53.52" cy="138.67" r="1.85"/>
			<circle fill="#AEBDC4" cx="56.57" cy="135.61" r="1.85"/>
			<circle fill="#AEBDC4" cx="59.63" cy="132.56" r="1.85"/>
			<circle fill="#AEBDC4" cx="62.68" cy="129.5" r="1.85"/>
			<circle fill="#AEBDC4" cx="65.74" cy="126.44" r="1.85"/>
			<circle fill="#AEBDC4" cx="68.8" cy="123.38" r="1.85"/>
		</g>
		<g>
			<circle fill="#AEBDC4" cx="34.04" cy="149.76" r="1.85"/>
			<circle fill="#AEBDC4" cx="37.09" cy="146.7" r="1.85"/>
			<circle fill="#AEBDC4" cx="40.15" cy="143.65" r="1.85"/>
			<circle fill="#AEBDC4" cx="43.21" cy="140.59" r="1.85"/>
			<circle fill="#AEBDC4" cx="46.26" cy="137.54" r="1.85"/>
			<circle fill="#AEBDC4" cx="49.32" cy="134.48" r="1.85"/>
			<circle fill="#AEBDC4" cx="52.37" cy="131.42" r="1.85"/>
			<circle fill="#AEBDC4" cx="55.43" cy="128.37" r="1.85"/>
			<circle fill="#AEBDC4" cx="58.48" cy="125.31" r="1.85"/>
			<circle fill="#AEBDC4" cx="61.55" cy="122.25" r="1.85"/>
			<circle fill="#AEBDC4" cx="64.61" cy="119.19" r="1.85"/>
		</g>
		<g>
			<circle fill="#AEBDC4" cx="29.85" cy="145.56" r="1.85"/>
			<circle fill="#AEBDC4" cx="32.9" cy="142.51" r="1.85"/>
			<circle fill="#AEBDC4" cx="35.96" cy="139.45" r="1.85"/>
			<circle fill="#AEBDC4" cx="39.01" cy="136.4" r="1.85"/>
			<circle fill="#AEBDC4" cx="42.07" cy="133.34" r="1.85"/>
			<circle fill="#AEBDC4" cx="45.12" cy="130.29" r="1.85"/>
			<circle fill="#AEBDC4" cx="48.18" cy="127.23" r="1.85"/>
			<circle fill="#AEBDC4" cx="51.23" cy="124.17" r="1.85"/>
			<circle fill="#AEBDC4" cx="54.29" cy="121.12" r="1.85"/>
			<circle fill="#AEBDC4" cx="57.35" cy="118.06" r="1.85"/>
			<circle fill="#AEBDC4" cx="60.41" cy="114.99" r="1.85"/>
		</g>
		<g>
			<circle fill="#AEBDC4" cx="118.84" cy="64.96" r="1.85"/>
			<circle fill="#AEBDC4" cx="121.89" cy="61.9" r="1.85"/>
			<circle fill="#AEBDC4" cx="124.95" cy="58.85" r="1.85"/>
			<circle fill="#AEBDC4" cx="128" cy="55.79" r="1.85"/>
			<circle fill="#AEBDC4" cx="131.06" cy="52.73" r="1.85"/>
			<circle fill="#AEBDC4" cx="134.11" cy="49.68" r="1.85"/>
			<circle fill="#AEBDC4" cx="137.17" cy="46.62" r="1.85"/>
			<circle fill="#AEBDC4" cx="140.22" cy="43.57" r="1.85"/>
			<circle fill="#AEBDC4" cx="143.28" cy="40.51" r="1.85"/>
			<circle fill="#AEBDC4" cx="146.34" cy="37.45" r="1.85"/>
			<circle fill="#AEBDC4" cx="149.4" cy="34.39" r="1.85"/>
		</g>
		<g>
			<circle fill="#AEBDC4" cx="114.64" cy="60.76" r="1.85"/>
			<circle fill="#AEBDC4" cx="117.7" cy="57.71" r="1.85"/>
			<circle fill="#AEBDC4" cx="120.75" cy="54.65" r="1.85"/>
			<circle fill="#AEBDC4" cx="123.81" cy="51.6" r="1.85"/>
			<circle fill="#AEBDC4" cx="126.86" cy="48.54" r="1.85"/>
			<circle fill="#AEBDC4" cx="129.92" cy="45.48" r="1.85"/>
			<circle fill="#AEBDC4" cx="132.98" cy="42.43" r="1.85"/>
			<circle fill="#AEBDC4" cx="136.03" cy="39.37" r="1.85"/>
			<circle fill="#AEBDC4" cx="139.09" cy="36.32" r="1.85"/>
			<circle fill="#AEBDC4" cx="142.15" cy="33.26" r="1.85"/>
			<circle fill="#AEBDC4" cx="145.21" cy="30.19" r="1.85"/>
		</g>
		<g>
			<circle fill="#AEBDC4" cx="18.14" cy="148.89" r="1.85"/>
			<circle fill="#AEBDC4" cx="21.19" cy="145.83" r="1.85"/>
			<circle fill="#AEBDC4" cx="24.25" cy="142.77" r="1.85"/>
			<circle fill="#AEBDC4" cx="27.3" cy="139.72" r="1.85"/>
			<circle fill="#AEBDC4" cx="30.36" cy="136.66" r="1.85"/>
			<circle fill="#AEBDC4" cx="33.41" cy="133.61" r="1.85"/>
			<circle fill="#AEBDC4" cx="36.47" cy="130.55" r="1.85"/>
			<circle fill="#AEBDC4" cx="39.53" cy="127.5" r="1.85"/>
			<circle fill="#AEBDC4" cx="42.58" cy="124.44" r="1.85"/>
			<circle fill="#AEBDC4" cx="45.64" cy="121.38" r="1.85"/>
			<circle fill="#AEBDC4" cx="48.71" cy="118.32" r="1.85"/>
			<circle fill="#AEBDC4" cx="51.77" cy="115.25" r="1.85"/>
		</g>
		<g>
			<circle fill="#AEBDC4" cx="115.19" cy="51.82" r="1.85"/>
			<circle fill="#AEBDC4" cx="118.25" cy="48.77" r="1.85"/>
			<circle fill="#AEBDC4" cx="121.31" cy="45.71" r="1.85"/>
			<circle fill="#AEBDC4" cx="124.36" cy="42.66" r="1.85"/>
			<circle fill="#AEBDC4" cx="127.42" cy="39.6" r="1.85"/>
			<circle fill="#AEBDC4" cx="130.47" cy="36.55" r="1.85"/>
			<circle fill="#AEBDC4" cx="133.53" cy="33.49" r="1.85"/>
			<circle fill="#AEBDC4" cx="136.58" cy="30.43" r="1.85"/>
			<circle fill="#AEBDC4" cx="139.64" cy="27.38" r="1.85"/>
			<circle fill="#AEBDC4" cx="142.7" cy="24.32" r="1.85"/>
			<circle fill="#AEBDC4" cx="145.76" cy="21.25" r="1.85"/>
			<circle fill="#AEBDC4" cx="148.83" cy="18.19" r="1.85"/>
		</g>
		<g>
			<circle fill="#AEBDC4" cx="76.03" cy="116.16" r="1.85"/>
			<circle fill="#AEBDC4" cx="79.08" cy="113.1" r="1.85"/>
			<circle fill="#AEBDC4" cx="82.14" cy="110.05" r="1.85"/>
			<circle fill="#AEBDC4" cx="85.19" cy="106.99" r="1.85"/>
			<circle fill="#AEBDC4" cx="88.25" cy="103.93" r="1.85"/>
			<circle fill="#AEBDC4" cx="91.3" cy="100.88" r="1.85"/>
			<circle fill="#AEBDC4" cx="94.36" cy="97.82" r="1.85"/>
			<circle fill="#AEBDC4" cx="97.41" cy="94.77" r="1.85"/>
			<circle fill="#AEBDC4" cx="100.47" cy="91.71" r="1.85"/>
			<circle fill="#AEBDC4" cx="103.53" cy="88.65" r="1.85"/>
			<circle fill="#AEBDC4" cx="106.59" cy="85.59" r="1.85"/>
			<circle fill="#AEBDC4" cx="109.66" cy="82.52" r="1.85"/>
			<circle fill="#AEBDC4" cx="112.72" cy="79.46" r="1.85"/>
			<circle fill="#AEBDC4" cx="115.78" cy="76.4" r="1.85"/>
		</g>
		<g>
			<circle fill="#AEBDC4" cx="71.83" cy="111.96" r="1.85"/>
			<circle fill="#AEBDC4" cx="74.89" cy="108.91" r="1.85"/>
			<circle fill="#AEBDC4" cx="77.94" cy="105.85" r="1.85"/>
			<circle fill="#AEBDC4" cx="81" cy="102.8" r="1.85"/>
			<circle fill="#AEBDC4" cx="84.05" cy="99.74" r="1.85"/>
			<circle fill="#AEBDC4" cx="87.11" cy="96.69" r="1.85"/>
			<circle fill="#AEBDC4" cx="90.16" cy="93.63" r="1.85"/>
			<circle fill="#AEBDC4" cx="93.22" cy="90.57" r="1.85"/>
			<circle fill="#AEBDC4" cx="96.28" cy="87.52" r="1.85"/>
			<circle fill="#AEBDC4" cx="99.34" cy="84.46" r="1.85"/>
			<circle fill="#AEBDC4" cx="102.4" cy="81.39" r="1.85"/>
			<circle fill="#AEBDC4" cx="105.46" cy="78.33" r="1.85"/>
			<circle fill="#AEBDC4" cx="108.52" cy="75.27" r="1.85"/>
			<circle fill="#AEBDC4" cx="111.59" cy="72.21" r="1.85"/>
		</g>
		<g>
			<circle fill="#AEBDC4" cx="67.64" cy="107.77" r="1.85"/>
			<circle fill="#AEBDC4" cx="70.69" cy="104.71" r="1.85"/>
			<circle fill="#AEBDC4" cx="73.75" cy="101.66" r="1.85"/>
			<circle fill="#AEBDC4" cx="76.8" cy="98.6" r="1.85"/>
			<circle fill="#AEBDC4" cx="79.86" cy="95.55" r="1.85"/>
			<circle fill="#AEBDC4" cx="82.92" cy="92.49" r="1.85"/>
			<circle fill="#AEBDC4" cx="85.97" cy="89.44" r="1.85"/>
			<circle fill="#AEBDC4" cx="89.03" cy="86.38" r="1.85"/>
			<circle fill="#AEBDC4" cx="92.08" cy="83.32" r="1.85"/>
			<circle fill="#AEBDC4" cx="95.14" cy="80.26" r="1.85"/>
			<circle fill="#AEBDC4" cx="98.21" cy="77.2" r="1.85"/>
			<circle fill="#AEBDC4" cx="101.27" cy="74.14" r="1.85"/>
			<circle fill="#AEBDC4" cx="104.33" cy="71.07" r="1.85"/>
			<circle fill="#AEBDC4" cx="107.39" cy="68.01" r="1.85"/>
		</g>
		<g>
			<circle fill="#AEBDC4" cx="59" cy="108.02" r="1.85"/>
			<circle fill="#AEBDC4" cx="62.06" cy="104.96" r="1.85"/>
			<circle fill="#AEBDC4" cx="65.11" cy="101.91" r="1.85"/>
			<circle fill="#AEBDC4" cx="68.17" cy="98.85" r="1.85"/>
			<circle fill="#AEBDC4" cx="71.23" cy="95.79" r="1.85"/>
			<circle fill="#AEBDC4" cx="74.28" cy="92.74" r="1.85"/>
			<circle fill="#AEBDC4" cx="77.34" cy="89.68" r="1.85"/>
			<circle fill="#AEBDC4" cx="80.39" cy="86.63" r="1.85"/>
			<circle fill="#AEBDC4" cx="83.45" cy="83.57" r="1.85"/>
			<circle fill="#AEBDC4" cx="86.51" cy="80.51" r="1.85"/>
			<circle fill="#AEBDC4" cx="89.57" cy="77.45" r="1.85"/>
			<circle fill="#AEBDC4" cx="92.63" cy="74.38" r="1.85"/>
			<circle fill="#AEBDC4" cx="95.7" cy="71.32" r="1.85"/>
			<circle fill="#AEBDC4" cx="98.76" cy="68.26" r="1.85"/>
			<circle fill="#AEBDC4" cx="101.82" cy="65.2" r="1.85"/>
			<circle fill="#AEBDC4" cx="104.88" cy="62.13" r="1.85"/>
			<circle fill="#AEBDC4" cx="107.95" cy="59.07" r="1.85"/>
		</g>
	</g>
	<g onclick="this.parentNode.a_text=this;">
		<text transform="matrix(0.7071 -0.7071 0.7071 0.7071 85.8856 92.4307)"><tspan x="0" y="0" font-family="'OpenSans-Semibold'" font-size="6.3994px">S W</tspan><tspan x="-2.55" y="7.2" font-family="'OpenSans-Semibold'" font-size="6.3994px">(</tspan><tspan x="-0.5" y="7.2" font-family="'OpenSans-Semibold'" font-size="6.3994px">н</tspan><tspan x="3.84" y="7.2" font-family="'OpenSans-Semibold'" font-size="6.3994px">и</tspan><tspan x="8.4" y="7.2" font-family="'OpenSans-Semibold'" font-size="6.3994px">з</tspan><tspan x="11.75" y="7.2" font-family="'OpenSans-Semibold'" font-size="6.3994px">)</tspan></text>
	</g>
</g>
</svg>
