<svg xmlns="http://www.w3.org/2000/svg" viewBox="0 0 130 172">
    <path fill="#F1F3F4" stroke="#BCC8CE" stroke-width=".4" stroke-linecap="round" stroke-miterlimit="10" d="M167.63 44.35L151.24.5.5 151.25l43.86 16.38L167.63 44.35z"/>
    <g fill="#AEBDC4">
        <circle cx="123.03" cy="69.15" r="1.85"/>
        <circle cx="126.09" cy="66.09" r="1.85"/>
        <circle cx="129.14" cy="63.04" r="1.85"/>
        <circle cx="132.2" cy="59.98" r="1.85"/>
        <circle cx="135.25" cy="56.93" r="1.85"/>
        <circle cx="138.31" cy="53.87" r="1.85"/>
        <circle cx="141.36" cy="50.82" r="1.85"/>
        <circle cx="144.42" cy="47.76" r="1.85"/>
        <circle cx="147.47" cy="44.7" r="1.85"/>
        <circle cx="150.54" cy="41.64" r="1.85"/>
        <circle cx="41.3" cy="150.89" r="1.85"/>
        <circle cx="44.35" cy="147.83" r="1.85"/>
        <circle cx="47.41" cy="144.78" r="1.85"/>
        <circle cx="50.46" cy="141.72" r="1.85"/>
        <circle cx="53.52" cy="138.67" r="1.85"/>
        <circle cx="56.57" cy="135.61" r="1.85"/>
        <circle cx="59.63" cy="132.56" r="1.85"/>
        <circle cx="62.68" cy="129.5" r="1.85"/>
        <circle cx="65.74" cy="126.44" r="1.85"/>
        <circle cx="68.8" cy="123.38" r="1.85"/>
        <circle cx="34.04" cy="149.76" r="1.85"/>
        <circle cx="37.09" cy="146.7" r="1.85"/>
        <circle cx="40.15" cy="143.65" r="1.85"/>
        <circle cx="43.21" cy="140.59" r="1.85"/>
        <circle cx="46.26" cy="137.54" r="1.85"/>
        <circle cx="49.32" cy="134.48" r="1.85"/>
        <circle cx="52.37" cy="131.42" r="1.85"/>
        <circle cx="55.43" cy="128.37" r="1.85"/>
        <circle cx="58.48" cy="125.31" r="1.85"/>
        <circle cx="61.55" cy="122.25" r="1.85"/>
        <circle cx="64.61" cy="119.19" r="1.85"/>
        <circle cx="29.85" cy="145.56" r="1.85"/>
        <circle cx="32.9" cy="142.51" r="1.85"/>
        <circle cx="35.96" cy="139.45" r="1.85"/>
        <circle cx="39.01" cy="136.4" r="1.85"/>
        <circle cx="42.07" cy="133.34" r="1.85"/>
        <circle cx="45.12" cy="130.29" r="1.85"/>
        <circle cx="48.18" cy="127.23" r="1.85"/>
        <circle cx="51.23" cy="124.17" r="1.85"/>
        <circle cx="54.29" cy="121.12" r="1.85"/>
        <circle cx="57.35" cy="118.06" r="1.85"/>
        <circle cx="60.41" cy="114.99" r="1.85"/>
        <g>
            <circle cx="118.84" cy="64.96" r="1.85"/>
            <circle cx="121.89" cy="61.9" r="1.85"/>
            <circle cx="124.95" cy="58.85" r="1.85"/>
            <circle cx="128" cy="55.79" r="1.85"/>
            <circle cx="131.06" cy="52.73" r="1.85"/>
            <circle cx="134.11" cy="49.68" r="1.85"/>
            <circle cx="137.17" cy="46.62" r="1.85"/>
            <circle cx="140.22" cy="43.57" r="1.85"/>
            <circle cx="143.28" cy="40.51" r="1.85"/>
            <circle cx="146.34" cy="37.45" r="1.85"/>
            <circle cx="149.4" cy="34.39" r="1.85"/>
        </g>
        <g>
            <circle cx="114.64" cy="60.76" r="1.85"/>
            <circle cx="117.7" cy="57.71" r="1.85"/>
            <circle cx="120.75" cy="54.65" r="1.85"/>
            <circle cx="123.81" cy="51.6" r="1.85"/>
            <circle cx="126.86" cy="48.54" r="1.85"/>
            <circle cx="129.92" cy="45.48" r="1.85"/>
            <circle cx="132.98" cy="42.43" r="1.85"/>
            <circle cx="136.03" cy="39.37" r="1.85"/>
            <circle cx="139.09" cy="36.32" r="1.85"/>
            <circle cx="142.15" cy="33.26" r="1.85"/>
            <circle cx="145.21" cy="30.19" r="1.85"/>
        </g>
        <g>
            <circle cx="18.14" cy="148.89" r="1.85"/>
            <circle cx="21.19" cy="145.83" r="1.85"/>
            <circle cx="24.25" cy="142.77" r="1.85"/>
            <circle cx="27.3" cy="139.72" r="1.85"/>
            <circle cx="30.36" cy="136.66" r="1.85"/>
            <circle cx="33.41" cy="133.61" r="1.85"/>
            <circle cx="36.47" cy="130.55" r="1.85"/>
            <circle cx="39.53" cy="127.5" r="1.85"/>
            <circle cx="42.58" cy="124.44" r="1.85"/>
            <circle cx="45.64" cy="121.38" r="1.85"/>
            <circle cx="48.71" cy="118.32" r="1.85"/>
            <circle cx="51.77" cy="115.25" r="1.85"/>
        </g>
        <g>
            <circle cx="115.19" cy="51.82" r="1.85"/>
            <circle cx="118.25" cy="48.77" r="1.85"/>
            <circle cx="121.31" cy="45.71" r="1.85"/>
            <circle cx="124.36" cy="42.66" r="1.85"/>
            <circle cx="127.42" cy="39.6" r="1.85"/>
            <circle cx="130.47" cy="36.55" r="1.85"/>
            <circle cx="133.53" cy="33.49" r="1.85"/>
            <circle cx="136.58" cy="30.43" r="1.85"/>
            <circle cx="139.64" cy="27.38" r="1.85"/>
            <circle cx="142.7" cy="24.32" r="1.85"/>
            <circle cx="145.76" cy="21.25" r="1.85"/>
            <circle cx="148.83" cy="18.19" r="1.85"/>
        </g>
        <g>
            <circle cx="76.03" cy="116.16" r="1.85"/>
            <circle cx="79.08" cy="113.1" r="1.85"/>
            <circle cx="82.14" cy="110.05" r="1.85"/>
            <circle cx="85.19" cy="106.99" r="1.85"/>
            <circle cx="88.25" cy="103.93" r="1.85"/>
            <circle cx="91.3" cy="100.88" r="1.85"/>
            <circle cx="94.36" cy="97.82" r="1.85"/>
            <circle cx="97.41" cy="94.77" r="1.85"/>
            <circle cx="100.47" cy="91.71" r="1.85"/>
            <circle cx="103.53" cy="88.65" r="1.85"/>
            <circle cx="106.59" cy="85.59" r="1.85"/>
            <circle cx="109.66" cy="82.52" r="1.85"/>
            <circle cx="112.72" cy="79.46" r="1.85"/>
            <circle cx="115.78" cy="76.4" r="1.85"/>
        </g>
        <g>
            <circle cx="71.83" cy="111.96" r="1.85"/>
            <circle cx="74.89" cy="108.91" r="1.85"/>
            <circle cx="77.94" cy="105.85" r="1.85"/>
            <circle cx="81" cy="102.8" r="1.85"/>
            <circle cx="84.05" cy="99.74" r="1.85"/>
            <circle cx="87.11" cy="96.69" r="1.85"/>
            <circle cx="90.16" cy="93.63" r="1.85"/>
            <circle cx="93.22" cy="90.57" r="1.85"/>
            <circle cx="96.28" cy="87.52" r="1.85"/>
            <circle cx="99.34" cy="84.46" r="1.85"/>
            <circle cx="102.4" cy="81.39" r="1.85"/>
            <circle cx="105.46" cy="78.33" r="1.85"/>
            <circle cx="108.52" cy="75.27" r="1.85"/>
            <circle cx="111.59" cy="72.21" r="1.85"/>
        </g>
        <g>
            <circle cx="67.64" cy="107.77" r="1.85"/>
            <circle cx="70.69" cy="104.71" r="1.85"/>
            <circle cx="73.75" cy="101.66" r="1.85"/>
            <circle cx="76.8" cy="98.6" r="1.85"/>
            <circle cx="79.86" cy="95.55" r="1.85"/>
            <circle cx="82.92" cy="92.49" r="1.85"/>
            <circle cx="85.97" cy="89.44" r="1.85"/>
            <circle cx="89.03" cy="86.38" r="1.85"/>
            <circle cx="92.08" cy="83.32" r="1.85"/>
            <circle cx="95.14" cy="80.26" r="1.85"/>
            <circle cx="98.21" cy="77.2" r="1.85"/>
            <circle cx="101.27" cy="74.14" r="1.85"/>
            <circle cx="104.33" cy="71.07" r="1.85"/>
            <circle cx="107.39" cy="68.01" r="1.85"/>
        </g>
        <g>
            <circle cx="59" cy="108.02" r="1.85"/>
            <circle cx="62.06" cy="104.96" r="1.85"/>
            <circle cx="65.11" cy="101.91" r="1.85"/>
            <circle cx="68.17" cy="98.85" r="1.85"/>
            <circle cx="71.23" cy="95.79" r="1.85"/>
            <circle cx="74.28" cy="92.74" r="1.85"/>
            <circle cx="77.34" cy="89.68" r="1.85"/>
            <circle cx="80.39" cy="86.63" r="1.85"/>
            <circle cx="83.45" cy="83.57" r="1.85"/>
            <circle cx="86.51" cy="80.51" r="1.85"/>
            <circle cx="89.57" cy="77.45" r="1.85"/>
            <circle cx="92.63" cy="74.38" r="1.85"/>
            <circle cx="95.7" cy="71.32" r="1.85"/>
            <circle cx="98.76" cy="68.26" r="1.85"/>
            <circle cx="101.82" cy="65.2" r="1.85"/>
            <circle cx="104.88" cy="62.13" r="1.85"/>
            <circle cx="107.95" cy="59.07" r="1.85"/>
        </g>
    </g>
</svg>
