<svg xmlns="http://www.w3.org/2000/svg" viewBox="0 0 130 172">
    <path fill="#F1F3F4" stroke="#BCC8CE" stroke-width=".4" stroke-linecap="round" stroke-miterlimit="10" d="M56.7.4v35.2H.31V.4H56.7z"/>
    <g fill="#AEBDC4">
        <circle cx="5.52" cy="17.9" r="1.85"/>
        <circle cx="9.84" cy="17.9" r="1.85"/>
        <circle cx="14.16" cy="17.9" r="1.85"/>
        <circle cx="18.48" cy="17.9" r="1.85"/>
        <circle cx="22.8" cy="17.9" r="1.85"/>
        <circle cx="27.13" cy="17.9" r="1.85"/>
        <circle cx="31.45" cy="17.9" r="1.85"/>
        <circle cx="35.77" cy="17.9" r="1.85"/>
        <circle cx="40.09" cy="17.9" r="1.85"/>
        <circle cx="44.42" cy="17.9" r="1.85"/>
        <circle cx="48.75" cy="17.9" r="1.85"/>
        <circle cx="53.08" cy="17.9" r="1.85"/>
        <circle cx="5.52" cy="23.83" r="1.85"/>
        <circle cx="9.84" cy="23.83" r="1.85"/>
        <circle cx="14.16" cy="23.83" r="1.85"/>
        <circle cx="18.48" cy="23.83" r="1.85"/>
        <circle cx="22.8" cy="23.83" r="1.85"/>
        <circle cx="27.13" cy="23.83" r="1.85"/>
        <circle cx="31.45" cy="23.83" r="1.85"/>
        <circle cx="35.77" cy="23.83" r="1.85"/>
        <circle cx="40.09" cy="23.83" r="1.85"/>
        <circle cx="44.42" cy="23.83" r="1.85"/>
        <circle cx="48.75" cy="23.83" r="1.85"/>
        <circle cx="53.08" cy="23.83" r="1.85"/>
        <circle cx="5.52" cy="29.76" r="1.85"/>
        <circle cx="9.84" cy="29.76" r="1.85"/>
        <circle cx="14.16" cy="29.76" r="1.85"/>
        <circle cx="18.48" cy="29.76" r="1.85"/>
        <circle cx="22.8" cy="29.76" r="1.85"/>
        <circle cx="27.13" cy="29.76" r="1.85"/>
        <circle cx="31.45" cy="29.76" r="1.85"/>
        <circle cx="35.77" cy="29.76" r="1.85"/>
        <circle cx="40.09" cy="29.76" r="1.85"/>
        <circle cx="44.42" cy="29.76" r="1.85"/>
        <circle cx="48.75" cy="29.76" r="1.85"/>
        <circle cx="53.08" cy="29.76" r="1.85"/>
    </g>
</svg>
