<?xml version="1.0" encoding="utf-8"?>
<!-- Generator: Adobe Illustrator 23.0.1, SVG Export Plug-In . SVG Version: 6.00 Build 0)  -->
<svg version="1.1" id="Layer_1" xmlns="http://www.w3.org/2000/svg" xmlns:xlink="http://www.w3.org/1999/xlink" x="0px" y="0px"
	 width="22px" height="36px" viewBox="0 0 22 36" enable-background="new 0 0 22 36" xml:space="preserve">
<g onclick="this.parentNode.sekt.push(this);this.a_name=&quot;vip 12&quot;;">
	
		<rect x="-6.6" y="7.4" onclick="this.parentNode.a_fon=this;" transform="matrix(-1.836970e-16 1 -1 -1.836970e-16 29 7)" fill="#F1F3F4" stroke="#BCC8CE" stroke-width="0.4" stroke-linecap="round" stroke-miterlimit="10" width="35.2" height="21.2"/>
	<g onclick="this.parentNode.a_row=this;">
		<g onclick="this.a_par={beg_namb:1,quant:3};">
			<line fill="none" stroke="#D3DBDF" stroke-width="0.4" stroke-miterlimit="10" x1="15.01" y1="29.76" x2="2.67" y2="29.76"/>
		</g>
		<g onclick="this.a_par={beg_namb:4,quant:3};">
			<line fill="none" stroke="#D3DBDF" stroke-width="0.4" stroke-miterlimit="10" x1="15.01" y1="23.83" x2="2.67" y2="23.83"/>
		</g>
		<g onclick="this.a_par={beg_namb:7,quant:4};">
			<line fill="none" stroke="#D3DBDF" stroke-width="0.4" stroke-miterlimit="10" x1="19.33" y1="17.9" x2="2.67" y2="17.9"/>
		</g>
	</g>
	<g onclick="this.parentNode.a_text=this;">
		<text transform="matrix(0.9999 0 0 1 1.8248 10.2163)"><tspan x="0" y="0" font-family="'OpenSans-Semibold'" font-size="6.3996px">v</tspan><tspan x="3.64" y="0" font-family="'OpenSans-Semibold'" font-size="6.3996px">i</tspan><tspan x="5.56" y="0" font-family="'OpenSans-Semibold'" font-size="6.3996px">p </tspan><tspan x="11.21" y="0" font-family="'OpenSans-Semibold'" font-size="6.3996px">1</tspan><tspan x="14.7" y="0" font-family="'OpenSans-Semibold'" font-size="6.3996px">2</tspan></text>
	</g>
	<g>
		<g>
			<circle fill="#AEBDC4" cx="4.52" cy="29.76" r="1.85"/>
			<circle fill="#AEBDC4" cx="8.84" cy="29.76" r="1.85"/>
			<circle fill="#AEBDC4" cx="13.16" cy="29.76" r="1.85"/>
		</g>
		<g>
			<circle fill="#AEBDC4" cx="4.52" cy="23.83" r="1.85"/>
			<circle fill="#AEBDC4" cx="8.84" cy="23.83" r="1.85"/>
			<circle fill="#AEBDC4" cx="13.16" cy="23.83" r="1.85"/>
		</g>
		<g>
			<circle fill="#AEBDC4" cx="4.52" cy="17.9" r="1.85"/>
			<circle fill="#AEBDC4" cx="8.84" cy="17.9" r="1.85"/>
			<circle fill="#AEBDC4" cx="13.16" cy="17.9" r="1.85"/>
			<circle fill="#AEBDC4" cx="17.48" cy="17.9" r="1.85"/>
		</g>
	</g>
</g>
</svg>
