<?xml version="1.0" encoding="utf-8"?>
<!-- Generator: Adobe Illustrator 23.0.1, SVG Export Plug-In . SVG Version: 6.00 Build 0)  -->
<svg version="1.1" id="Layer_1" xmlns="http://www.w3.org/2000/svg" xmlns:xlink="http://www.w3.org/1999/xlink" x="0px" y="0px"
	 viewBox="0 0 57 36" enable-background="new 0 0 57 36" xml:space="preserve">
<g onclick="&quot;vip 1&quot;;">
	
		<rect x="0.31" y="0.4" fill="#F1F3F4" stroke="#BCC8CE" stroke-width="0.4" stroke-linecap="round" stroke-miterlimit="10" width="56.39" height="35.2"/>
	<g>
		<circle fill="#AEBDC4" cx="5.52" cy="29.76" r="1.85"/>
		<circle fill="#AEBDC4" cx="9.84" cy="29.76" r="1.85"/>
		<circle fill="#AEBDC4" cx="14.16" cy="29.76" r="1.85"/>
		<circle fill="#AEBDC4" cx="18.48" cy="29.76" r="1.85"/>
		<circle fill="#AEBDC4" cx="22.8" cy="29.76" r="1.85"/>
		<circle fill="#AEBDC4" cx="27.13" cy="29.76" r="1.85"/>
		<circle fill="#AEBDC4" cx="31.45" cy="29.76" r="1.85"/>
		<circle fill="#AEBDC4" cx="35.77" cy="29.76" r="1.85"/>
		<circle fill="#AEBDC4" cx="40.09" cy="29.76" r="1.85"/>
		<circle fill="#AEBDC4" cx="44.42" cy="29.76" r="1.85"/>
		<circle fill="#AEBDC4" cx="48.75" cy="29.76" r="1.85"/>
		<circle fill="#AEBDC4" cx="53.08" cy="29.76" r="1.85"/>
	</g>
	<g>
		<circle fill="#AEBDC4" cx="5.52" cy="23.83" r="1.85"/>
		<circle fill="#AEBDC4" cx="9.84" cy="23.83" r="1.85"/>
		<circle fill="#AEBDC4" cx="14.16" cy="23.83" r="1.85"/>
		<circle fill="#AEBDC4" cx="18.48" cy="23.83" r="1.85"/>
		<circle fill="#AEBDC4" cx="22.8" cy="23.83" r="1.85"/>
		<circle fill="#AEBDC4" cx="27.13" cy="23.83" r="1.85"/>
		<circle fill="#AEBDC4" cx="31.45" cy="23.83" r="1.85"/>
		<circle fill="#AEBDC4" cx="35.77" cy="23.83" r="1.85"/>
		<circle fill="#AEBDC4" cx="40.09" cy="23.83" r="1.85"/>
		<circle fill="#AEBDC4" cx="44.42" cy="23.83" r="1.85"/>
		<circle fill="#AEBDC4" cx="48.75" cy="23.83" r="1.85"/>
		<circle fill="#AEBDC4" cx="53.08" cy="23.83" r="1.85"/>
	</g>
	<g>
		<circle fill="#AEBDC4" cx="5.52" cy="17.9" r="1.85"/>
		<circle fill="#AEBDC4" cx="9.84" cy="17.9" r="1.85"/>
		<circle fill="#AEBDC4" cx="14.16" cy="17.9" r="1.85"/>
		<circle fill="#AEBDC4" cx="18.48" cy="17.9" r="1.85"/>
		<circle fill="#AEBDC4" cx="22.8" cy="17.9" r="1.85"/>
		<circle fill="#AEBDC4" cx="27.13" cy="17.9" r="1.85"/>
		<circle fill="#AEBDC4" cx="31.45" cy="17.9" r="1.85"/>
		<circle fill="#AEBDC4" cx="35.77" cy="17.9" r="1.85"/>
		<circle fill="#AEBDC4" cx="40.09" cy="17.9" r="1.85"/>
		<circle fill="#AEBDC4" cx="44.42" cy="17.9" r="1.85"/>
		<circle fill="#AEBDC4" cx="48.75" cy="17.9" r="1.85"/>
		<circle fill="#AEBDC4" cx="53.08" cy="17.9" r="1.85"/>
	</g>
</g>
</svg>
