<?xml version="1.0" encoding="utf-8"?>
<!-- Generator: Adobe Illustrator 23.0.1, SVG Export Plug-In . SVG Version: 6.00 Build 0)  -->
<svg version="1.1" id="Layer_1" xmlns="http://www.w3.org/2000/svg" xmlns:xlink="http://www.w3.org/1999/xlink" x="0px" y="0px"
	 viewBox="0 0 38 36" enable-background="new 0 0 38 36" xml:space="preserve">
<g onclick="&quot;vip 4&quot;;">
	
		<rect x="0.4" y="0.4" fill="#F1F3F4" stroke="#BCC8CE" stroke-width="0.4" stroke-linecap="round" stroke-miterlimit="10" width="37.2" height="35.2"/>
	<g>
		<circle fill="#AEBDC4" cx="3.7" cy="29.76" r="1.85"/>
		<circle fill="#AEBDC4" cx="8.02" cy="29.76" r="1.85"/>
		<circle fill="#AEBDC4" cx="12.34" cy="29.76" r="1.85"/>
		<circle fill="#AEBDC4" cx="16.66" cy="29.76" r="1.85"/>
		<circle fill="#AEBDC4" cx="20.98" cy="29.76" r="1.85"/>
		<circle fill="#AEBDC4" cx="25.3" cy="29.76" r="1.85"/>
		<circle fill="#AEBDC4" cx="29.62" cy="29.76" r="1.85"/>
		<circle fill="#AEBDC4" cx="33.94" cy="29.76" r="1.85"/>
	</g>
	<g>
		<circle fill="#AEBDC4" cx="3.7" cy="23.83" r="1.85"/>
		<circle fill="#AEBDC4" cx="8.02" cy="23.83" r="1.85"/>
		<circle fill="#AEBDC4" cx="12.34" cy="23.83" r="1.85"/>
		<circle fill="#AEBDC4" cx="16.66" cy="23.83" r="1.85"/>
		<circle fill="#AEBDC4" cx="20.98" cy="23.83" r="1.85"/>
		<circle fill="#AEBDC4" cx="25.3" cy="23.83" r="1.85"/>
		<circle fill="#AEBDC4" cx="29.62" cy="23.83" r="1.85"/>
		<circle fill="#AEBDC4" cx="33.94" cy="23.83" r="1.85"/>
	</g>
	<g>
		<circle fill="#AEBDC4" cx="3.7" cy="17.9" r="1.85"/>
		<circle fill="#AEBDC4" cx="8.02" cy="17.9" r="1.85"/>
		<circle fill="#AEBDC4" cx="12.34" cy="17.9" r="1.85"/>
		<circle fill="#AEBDC4" cx="16.66" cy="17.9" r="1.85"/>
		<circle fill="#AEBDC4" cx="20.98" cy="17.9" r="1.85"/>
		<circle fill="#AEBDC4" cx="25.3" cy="17.9" r="1.85"/>
		<circle fill="#AEBDC4" cx="29.62" cy="17.9" r="1.85"/>
		<circle fill="#AEBDC4" cx="33.94" cy="17.9" r="1.85"/>
	</g>
</g>
</svg>
