<svg xmlns="http://www.w3.org/2000/svg" viewBox="0 0 130 172">
    <path fill="#F1F3F4" stroke="#BCC8CE" stroke-width=".4" stroke-linecap="round" stroke-miterlimit="10" d="M37.6.4v35.2H.4V.4h37.2z"/>
    <g fill="#AEBDC4">
        <circle cx="3.7" cy="23.83" r="1.85"/>
        <circle cx="8.02" cy="23.83" r="1.85"/>
        <circle cx="12.34" cy="23.83" r="1.85"/>
        <circle cx="16.66" cy="23.83" r="1.85"/>
        <circle cx="20.98" cy="23.83" r="1.85"/>
        <circle cx="25.3" cy="23.83" r="1.85"/>
        <circle cx="29.62" cy="23.83" r="1.85"/>
        <circle cx="33.94" cy="23.83" r="1.85"/>
        <circle cx="3.7" cy="29.76" r="1.85"/>
        <circle cx="8.02" cy="29.76" r="1.85"/>
        <circle cx="12.34" cy="29.76" r="1.85"/>
        <circle cx="16.66" cy="29.76" r="1.85"/>
        <circle cx="20.98" cy="29.76" r="1.85"/>
        <circle cx="25.3" cy="29.76" r="1.85"/>
        <circle cx="29.62" cy="29.76" r="1.85"/>
        <circle cx="33.94" cy="29.76" r="1.85"/>
        <circle cx="3.7" cy="17.9" r="1.85"/>
        <circle cx="8.02" cy="17.9" r="1.85"/>
        <circle cx="12.34" cy="17.9" r="1.85"/>
        <circle cx="16.66" cy="17.9" r="1.85"/>
        <circle cx="20.98" cy="17.9" r="1.85"/>
        <circle cx="25.3" cy="17.9" r="1.85"/>
        <circle cx="29.62" cy="17.9" r="1.85"/>
        <circle cx="33.94" cy="17.9" r="1.85"/>
    </g>
</svg>
