<?xml version="1.0" encoding="utf-8"?>
<!-- Generator: Adobe Illustrator 23.0.1, SVG Export Plug-In . SVG Version: 6.00 Build 0)  -->
<svg version="1.1" id="Layer_1" xmlns="http://www.w3.org/2000/svg" xmlns:xlink="http://www.w3.org/1999/xlink" x="0px" y="0px"
	 width="61px" height="132px" viewBox="0 0 61 132" enable-background="new 0 0 61 132" xml:space="preserve">
<g onclick="this.parentNode.sekt.push(this);this.a_name=&quot;W 1 (верх)&quot;;">
	
		<polygon onclick="this.parentNode.a_fon=this;" fill="#F1F3F4" stroke="#BCC8CE" stroke-width="0.4" stroke-linecap="round" stroke-miterlimit="10" points="
		0.4,131.31 0.4,0.79 60.6,26.04 60.6,131.31 	"/>
	<g onclick="this.parentNode.a_row=this;">
		<g onclick="this.a_par={beg_namb:1,quant:4};">
			<line fill="none" stroke="#D3DBDF" stroke-width="0.4" stroke-miterlimit="10" x1="25.87" y1="122.27" x2="9.21" y2="122.27"/>
		</g>
		<g onclick="this.a_par={beg_namb:1,quant:4};">
			<line fill="none" stroke="#D3DBDF" stroke-width="0.4" stroke-miterlimit="10" x1="25.87" y1="116.34" x2="9.21" y2="116.34"/>
		</g>
		<g onclick="this.a_par={beg_namb:1,quant:10};">
			<line fill="none" stroke="#D3DBDF" stroke-width="0.4" stroke-miterlimit="10" x1="51.8" y1="110.41" x2="9.21" y2="110.41"/>
		</g>
		<g onclick="this.a_par={beg_namb:1,quant:10};">
			<line fill="none" stroke="#D3DBDF" stroke-width="0.4" stroke-miterlimit="10" x1="51.8" y1="104.48" x2="9.21" y2="104.48"/>
		</g>
		<g onclick="this.a_par={beg_namb:1,quant:10};">
			<line fill="none" stroke="#D3DBDF" stroke-width="0.4" stroke-miterlimit="10" x1="51.8" y1="98.55" x2="9.21" y2="98.55"/>
		</g>
		<g onclick="this.a_par={beg_namb:1,quant:8};">
			<line fill="none" stroke="#D3DBDF" stroke-width="0.4" stroke-miterlimit="10" x1="51.8" y1="92.62" x2="17.85" y2="92.62"/>
		</g>
		<g onclick="this.a_par={beg_namb:1,quant:8};">
			<line fill="none" stroke="#D3DBDF" stroke-width="0.4" stroke-miterlimit="10" x1="51.8" y1="86.68" x2="17.85" y2="86.68"/>
		</g>
		<g onclick="this.a_par={beg_namb:1,quant:8};">
			<line fill="none" stroke="#D3DBDF" stroke-width="0.4" stroke-miterlimit="10" x1="51.8" y1="80.75" x2="17.85" y2="80.75"/>
		</g>
		<g onclick="this.a_par={beg_namb:1,quant:8};">
			<line fill="none" stroke="#D3DBDF" stroke-width="0.4" stroke-miterlimit="10" x1="51.8" y1="74.82" x2="17.85" y2="74.82"/>
		</g>
		<g onclick="this.a_par={beg_namb:1,quant:8};">
			<line fill="none" stroke="#D3DBDF" stroke-width="0.4" stroke-miterlimit="10" x1="51.8" y1="68.89" x2="17.85" y2="68.89"/>
		</g>
		<g onclick="this.a_par={beg_namb:1,quant:8};">
			<line fill="none" stroke="#D3DBDF" stroke-width="0.4" stroke-miterlimit="10" x1="51.8" y1="62.96" x2="17.85" y2="62.96"/>
		</g>
		<g onclick="this.a_par={beg_namb:1,quant:8};">
			<line fill="none" stroke="#D3DBDF" stroke-width="0.4" stroke-miterlimit="10" x1="51.8" y1="57.03" x2="17.85" y2="57.03"/>
		</g>
		<g onclick="this.a_par={beg_namb:1,quant:8};">
			<line fill="none" stroke="#D3DBDF" stroke-width="0.4" stroke-miterlimit="10" x1="51.8" y1="51.1" x2="17.85" y2="51.1"/>
		</g>
		<g onclick="this.a_par={beg_namb:1,quant:8};">
			<line fill="none" stroke="#D3DBDF" stroke-width="0.4" stroke-miterlimit="10" x1="51.8" y1="45.17" x2="17.85" y2="45.17"/>
		</g>
		<g onclick="this.a_par={beg_namb:1,quant:8};">
			<line fill="none" stroke="#D3DBDF" stroke-width="0.4" stroke-miterlimit="10" x1="43.15" y1="39.24" x2="9.21" y2="39.24"/>
		</g>
		<g onclick="this.a_par={beg_namb:1,quant:6};">
			<line fill="none" stroke="#D3DBDF" stroke-width="0.4" stroke-miterlimit="10" x1="34.51" y1="33.31" x2="9.21" y2="33.31"/>
		</g>
		<g onclick="this.a_par={beg_namb:1,quant:3};">
			<line fill="none" stroke="#D3DBDF" stroke-width="0.4" stroke-miterlimit="10" x1="21.55" y1="27.38" x2="9.21" y2="27.38"/>
		</g>
	</g>
	<g>
		<g>
			<circle fill="#AEBDC4" cx="11.06" cy="27.38" r="1.85"/>
			<circle fill="#AEBDC4" cx="15.38" cy="27.38" r="1.85"/>
			<circle fill="#AEBDC4" cx="19.7" cy="27.38" r="1.85"/>
		</g>
		<g>
			<circle fill="#AEBDC4" cx="11.06" cy="116.34" r="1.85"/>
			<circle fill="#AEBDC4" cx="15.38" cy="116.34" r="1.85"/>
			<circle fill="#AEBDC4" cx="19.7" cy="116.34" r="1.85"/>
			<circle fill="#AEBDC4" cx="24.02" cy="116.34" r="1.85"/>
		</g>
		<g>
			<circle fill="#AEBDC4" cx="11.06" cy="122.27" r="1.85"/>
			<circle fill="#AEBDC4" cx="15.38" cy="122.27" r="1.85"/>
			<circle fill="#AEBDC4" cx="19.7" cy="122.27" r="1.85"/>
			<circle fill="#AEBDC4" cx="24.02" cy="122.27" r="1.85"/>
		</g>
		<g>
			<circle fill="#AEBDC4" cx="11.06" cy="33.31" r="1.85"/>
			<circle fill="#AEBDC4" cx="15.38" cy="33.31" r="1.85"/>
			<circle fill="#AEBDC4" cx="19.7" cy="33.31" r="1.85"/>
			<circle fill="#AEBDC4" cx="24.02" cy="33.31" r="1.85"/>
			<circle fill="#AEBDC4" cx="28.34" cy="33.31" r="1.85"/>
			<circle fill="#AEBDC4" cx="32.66" cy="33.31" r="1.85"/>
		</g>
		<g>
			<circle fill="#AEBDC4" cx="11.06" cy="39.24" r="1.85"/>
			<circle fill="#AEBDC4" cx="15.38" cy="39.24" r="1.85"/>
			<circle fill="#AEBDC4" cx="19.7" cy="39.24" r="1.85"/>
			<circle fill="#AEBDC4" cx="24.02" cy="39.24" r="1.85"/>
			<circle fill="#AEBDC4" cx="28.34" cy="39.24" r="1.85"/>
			<circle fill="#AEBDC4" cx="32.66" cy="39.24" r="1.85"/>
			<circle fill="#AEBDC4" cx="36.98" cy="39.24" r="1.85"/>
			<circle fill="#AEBDC4" cx="41.31" cy="39.24" r="1.85"/>
		</g>
		<g>
			<circle fill="#AEBDC4" cx="11.06" cy="98.55" r="1.85"/>
			<circle fill="#AEBDC4" cx="15.38" cy="98.55" r="1.85"/>
			<circle fill="#AEBDC4" cx="19.7" cy="98.55" r="1.85"/>
			<circle fill="#AEBDC4" cx="24.02" cy="98.55" r="1.85"/>
			<circle fill="#AEBDC4" cx="28.34" cy="98.55" r="1.85"/>
			<circle fill="#AEBDC4" cx="32.66" cy="98.55" r="1.85"/>
			<circle fill="#AEBDC4" cx="36.98" cy="98.55" r="1.85"/>
			<circle fill="#AEBDC4" cx="41.31" cy="98.55" r="1.85"/>
			<circle fill="#AEBDC4" cx="45.63" cy="98.55" r="1.85"/>
			<circle fill="#AEBDC4" cx="49.96" cy="98.55" r="1.85"/>
		</g>
		<g>
			<circle fill="#AEBDC4" cx="11.06" cy="104.48" r="1.85"/>
			<circle fill="#AEBDC4" cx="15.38" cy="104.48" r="1.85"/>
			<circle fill="#AEBDC4" cx="19.7" cy="104.48" r="1.85"/>
			<circle fill="#AEBDC4" cx="24.02" cy="104.48" r="1.85"/>
			<circle fill="#AEBDC4" cx="28.34" cy="104.48" r="1.85"/>
			<circle fill="#AEBDC4" cx="32.66" cy="104.48" r="1.85"/>
			<circle fill="#AEBDC4" cx="36.98" cy="104.48" r="1.85"/>
			<circle fill="#AEBDC4" cx="41.31" cy="104.48" r="1.85"/>
			<circle fill="#AEBDC4" cx="45.63" cy="104.48" r="1.85"/>
			<circle fill="#AEBDC4" cx="49.96" cy="104.48" r="1.85"/>
		</g>
		<g>
			<circle fill="#AEBDC4" cx="11.06" cy="110.41" r="1.85"/>
			<circle fill="#AEBDC4" cx="15.38" cy="110.41" r="1.85"/>
			<circle fill="#AEBDC4" cx="19.7" cy="110.41" r="1.85"/>
			<circle fill="#AEBDC4" cx="24.02" cy="110.41" r="1.85"/>
			<circle fill="#AEBDC4" cx="28.34" cy="110.41" r="1.85"/>
			<circle fill="#AEBDC4" cx="32.66" cy="110.41" r="1.85"/>
			<circle fill="#AEBDC4" cx="36.98" cy="110.41" r="1.85"/>
			<circle fill="#AEBDC4" cx="41.31" cy="110.41" r="1.85"/>
			<circle fill="#AEBDC4" cx="45.63" cy="110.41" r="1.85"/>
			<circle fill="#AEBDC4" cx="49.96" cy="110.41" r="1.85"/>
		</g>
		<g>
			<circle fill="#AEBDC4" cx="19.71" cy="45.17" r="1.85"/>
			<circle fill="#AEBDC4" cx="24.03" cy="45.17" r="1.85"/>
			<circle fill="#AEBDC4" cx="28.35" cy="45.17" r="1.85"/>
			<circle fill="#AEBDC4" cx="32.67" cy="45.17" r="1.85"/>
			<circle fill="#AEBDC4" cx="36.99" cy="45.17" r="1.85"/>
			<circle fill="#AEBDC4" cx="41.32" cy="45.17" r="1.85"/>
			<circle fill="#AEBDC4" cx="45.64" cy="45.17" r="1.85"/>
			<circle fill="#AEBDC4" cx="49.96" cy="45.17" r="1.85"/>
		</g>
		<g>
			<circle fill="#AEBDC4" cx="19.7" cy="51.1" r="1.85"/>
			<circle fill="#AEBDC4" cx="24.03" cy="51.1" r="1.85"/>
			<circle fill="#AEBDC4" cx="28.35" cy="51.1" r="1.85"/>
			<circle fill="#AEBDC4" cx="32.67" cy="51.1" r="1.85"/>
			<circle fill="#AEBDC4" cx="36.99" cy="51.1" r="1.85"/>
			<circle fill="#AEBDC4" cx="41.31" cy="51.1" r="1.85"/>
			<circle fill="#AEBDC4" cx="45.63" cy="51.1" r="1.85"/>
			<circle fill="#AEBDC4" cx="49.95" cy="51.1" r="1.85"/>
		</g>
		<g>
			<circle fill="#AEBDC4" cx="19.7" cy="57.03" r="1.85"/>
			<circle fill="#AEBDC4" cx="24.03" cy="57.03" r="1.85"/>
			<circle fill="#AEBDC4" cx="28.35" cy="57.03" r="1.85"/>
			<circle fill="#AEBDC4" cx="32.67" cy="57.03" r="1.85"/>
			<circle fill="#AEBDC4" cx="36.99" cy="57.03" r="1.85"/>
			<circle fill="#AEBDC4" cx="41.31" cy="57.03" r="1.85"/>
			<circle fill="#AEBDC4" cx="45.63" cy="57.03" r="1.85"/>
			<circle fill="#AEBDC4" cx="49.95" cy="57.03" r="1.85"/>
		</g>
		<g>
			<circle fill="#AEBDC4" cx="19.7" cy="62.96" r="1.85"/>
			<circle fill="#AEBDC4" cx="24.03" cy="62.96" r="1.85"/>
			<circle fill="#AEBDC4" cx="28.35" cy="62.96" r="1.85"/>
			<circle fill="#AEBDC4" cx="32.67" cy="62.96" r="1.85"/>
			<circle fill="#AEBDC4" cx="36.99" cy="62.96" r="1.85"/>
			<circle fill="#AEBDC4" cx="41.31" cy="62.96" r="1.85"/>
			<circle fill="#AEBDC4" cx="45.63" cy="62.96" r="1.85"/>
			<circle fill="#AEBDC4" cx="49.95" cy="62.96" r="1.85"/>
		</g>
		<g>
			<circle fill="#AEBDC4" cx="19.7" cy="68.89" r="1.85"/>
			<circle fill="#AEBDC4" cx="24.03" cy="68.89" r="1.85"/>
			<circle fill="#AEBDC4" cx="28.35" cy="68.89" r="1.85"/>
			<circle fill="#AEBDC4" cx="32.67" cy="68.89" r="1.85"/>
			<circle fill="#AEBDC4" cx="36.99" cy="68.89" r="1.85"/>
			<circle fill="#AEBDC4" cx="41.31" cy="68.89" r="1.85"/>
			<circle fill="#AEBDC4" cx="45.63" cy="68.89" r="1.85"/>
			<circle fill="#AEBDC4" cx="49.95" cy="68.89" r="1.85"/>
		</g>
		<g>
			<circle fill="#AEBDC4" cx="19.7" cy="74.82" r="1.85"/>
			<circle fill="#AEBDC4" cx="24.03" cy="74.82" r="1.85"/>
			<circle fill="#AEBDC4" cx="28.35" cy="74.82" r="1.85"/>
			<circle fill="#AEBDC4" cx="32.67" cy="74.82" r="1.85"/>
			<circle fill="#AEBDC4" cx="36.99" cy="74.82" r="1.85"/>
			<circle fill="#AEBDC4" cx="41.31" cy="74.82" r="1.85"/>
			<circle fill="#AEBDC4" cx="45.63" cy="74.82" r="1.85"/>
			<circle fill="#AEBDC4" cx="49.95" cy="74.82" r="1.85"/>
		</g>
		<g>
			<circle fill="#AEBDC4" cx="19.7" cy="80.75" r="1.85"/>
			<circle fill="#AEBDC4" cx="24.03" cy="80.75" r="1.85"/>
			<circle fill="#AEBDC4" cx="28.35" cy="80.75" r="1.85"/>
			<circle fill="#AEBDC4" cx="32.67" cy="80.75" r="1.85"/>
			<circle fill="#AEBDC4" cx="36.99" cy="80.75" r="1.85"/>
			<circle fill="#AEBDC4" cx="41.31" cy="80.75" r="1.85"/>
			<circle fill="#AEBDC4" cx="45.63" cy="80.75" r="1.85"/>
			<circle fill="#AEBDC4" cx="49.95" cy="80.75" r="1.85"/>
		</g>
		<g>
			<circle fill="#AEBDC4" cx="19.7" cy="86.68" r="1.85"/>
			<circle fill="#AEBDC4" cx="24.03" cy="86.68" r="1.85"/>
			<circle fill="#AEBDC4" cx="28.35" cy="86.68" r="1.85"/>
			<circle fill="#AEBDC4" cx="32.67" cy="86.68" r="1.85"/>
			<circle fill="#AEBDC4" cx="36.99" cy="86.68" r="1.85"/>
			<circle fill="#AEBDC4" cx="41.31" cy="86.68" r="1.85"/>
			<circle fill="#AEBDC4" cx="45.63" cy="86.68" r="1.85"/>
			<circle fill="#AEBDC4" cx="49.95" cy="86.68" r="1.85"/>
		</g>
		<g>
			<circle fill="#AEBDC4" cx="19.7" cy="92.62" r="1.85"/>
			<circle fill="#AEBDC4" cx="24.03" cy="92.62" r="1.85"/>
			<circle fill="#AEBDC4" cx="28.35" cy="92.62" r="1.85"/>
			<circle fill="#AEBDC4" cx="32.67" cy="92.62" r="1.85"/>
			<circle fill="#AEBDC4" cx="36.99" cy="92.62" r="1.85"/>
			<circle fill="#AEBDC4" cx="41.31" cy="92.62" r="1.85"/>
			<circle fill="#AEBDC4" cx="45.63" cy="92.62" r="1.85"/>
			<circle fill="#AEBDC4" cx="49.95" cy="92.62" r="1.85"/>
		</g>
	</g>
	<g onclick="this.parentNode.a_text=this;">
		<text transform="matrix(0.9999 0 0 1 24.8156 86.273)"><tspan x="0" y="0" font-family="'OpenSans-Semibold'" font-size="6.3996px">W 1</tspan><tspan x="-4.28" y="7.2" font-family="'OpenSans-Semibold'" font-size="6.3996px">(</tspan><tspan x="-2.23" y="7.2" font-family="'OpenSans-Semibold'" font-size="6.3996px">в</tspan><tspan x="1.88" y="7.2" font-family="'OpenSans-Semibold'" font-size="6.3996px">е</tspan><tspan x="5.8" y="7.2" font-family="'OpenSans-Semibold'" font-size="6.3996px">рх</tspan><tspan x="13.62" y="7.2" font-family="'OpenSans-Semibold'" font-size="6.3996px">)</tspan></text>
	</g>
</g>
</svg>
