<?xml version="1.0" encoding="utf-8"?>
<!-- Generator: Adobe Illustrator 23.0.1, SVG Export Plug-In . SVG Version: 6.00 Build 0)  -->
<svg version="1.1" id="Layer_1" xmlns="http://www.w3.org/2000/svg" xmlns:xlink="http://www.w3.org/1999/xlink" x="0px" y="0px"
	 width="102px" height="132px" viewBox="0 0 102 132" enable-background="new 0 0 102 132" xml:space="preserve">
<g onclick="this.parentNode.sekt.push(this);this.a_name=&quot;W 1 (низ)&quot;;">
	
		<polygon onclick="this.parentNode.a_fon=this;" fill="#F1F3F4" stroke="#BCC8CE" stroke-width="0.4" stroke-linecap="round" stroke-miterlimit="10" points="
		0.23,131.4 0.23,0.6 101.7,0.6 63.01,131.4 	"/>
	<g onclick="this.parentNode.a_row=this;">
		<g onclick="this.a_par={beg_namb:1,quant:9};">
			<line fill="none" stroke="#D3DBDF" stroke-width="0.4" stroke-miterlimit="10" x1="47.31" y1="122.36" x2="9.05" y2="122.36"/>
		</g>
		<g onclick="this.a_par={beg_namb:1,quant:10};">
			<line fill="none" stroke="#D3DBDF" stroke-width="0.4" stroke-miterlimit="10" x1="51.64" y1="116.43" x2="9.05" y2="116.43"/>
		</g>
		<g onclick="this.a_par={beg_namb:1,quant:10};">
			<line fill="none" stroke="#D3DBDF" stroke-width="0.4" stroke-miterlimit="10" x1="51.64" y1="110.49" x2="9.05" y2="110.49"/>
		</g>
		<g onclick="this.a_par={beg_namb:1,quant:11};">
			<line fill="none" stroke="#D3DBDF" stroke-width="0.4" stroke-miterlimit="10" x1="55.97" y1="104.56" x2="9.05" y2="104.56"/>
		</g>
		<g onclick="this.a_par={beg_namb:1,quant:11};">
			<line fill="none" stroke="#D3DBDF" stroke-width="0.4" stroke-miterlimit="10" x1="55.97" y1="98.63" x2="9.05" y2="98.63"/>
		</g>
		<g onclick="this.a_par={beg_namb:1,quant:12};">
			<line fill="none" stroke="#D3DBDF" stroke-width="0.4" stroke-miterlimit="10" x1="60.3" y1="92.7" x2="9.05" y2="92.7"/>
		</g>
		<g onclick="this.a_par={beg_namb:1,quant:12};">
			<line fill="none" stroke="#D3DBDF" stroke-width="0.4" stroke-miterlimit="10" x1="60.3" y1="86.77" x2="9.05" y2="86.77"/>
		</g>
		<g onclick="this.a_par={beg_namb:1,quant:12};">
			<line fill="none" stroke="#D3DBDF" stroke-width="0.4" stroke-miterlimit="10" x1="60.3" y1="80.84" x2="9.05" y2="80.84"/>
		</g>
		<g onclick="this.a_par={beg_namb:1,quant:13};">
			<line fill="none" stroke="#D3DBDF" stroke-width="0.4" stroke-miterlimit="10" x1="64.63" y1="74.91" x2="9.05" y2="74.91"/>
		</g>
		<g onclick="this.a_par={beg_namb:1,quant:13};">
			<line fill="none" stroke="#D3DBDF" stroke-width="0.4" stroke-miterlimit="10" x1="64.63" y1="68.98" x2="9.05" y2="68.98"/>
		</g>
		<g onclick="this.a_par={beg_namb:1,quant:14};">
			<line fill="none" stroke="#D3DBDF" stroke-width="0.4" stroke-miterlimit="10" x1="68.96" y1="63.05" x2="9.05" y2="63.05"/>
		</g>
		<g onclick="this.a_par={beg_namb:1,quant:14};">
			<line fill="none" stroke="#D3DBDF" stroke-width="0.4" stroke-miterlimit="10" x1="68.96" y1="57.12" x2="9.05" y2="57.12"/>
		</g>
		<g onclick="this.a_par={beg_namb:1,quant:14};">
			<line fill="none" stroke="#D3DBDF" stroke-width="0.4" stroke-miterlimit="10" x1="68.96" y1="51.19" x2="9.05" y2="51.19"/>
		</g>
		<g onclick="this.a_par={beg_namb:1,quant:15};">
			<line fill="none" stroke="#D3DBDF" stroke-width="0.4" stroke-miterlimit="10" x1="73.29" y1="45.26" x2="9.05" y2="45.26"/>
		</g>
		<g onclick="this.a_par={beg_namb:1,quant:16};">
			<line fill="none" stroke="#D3DBDF" stroke-width="0.4" stroke-miterlimit="10" x1="77.62" y1="33.39" x2="9.05" y2="33.39"/>
		</g>
		<g onclick="this.a_par={beg_namb:1,quant:14};">
			<line fill="none" stroke="#D3DBDF" stroke-width="0.4" stroke-miterlimit="10" x1="77.6" y1="27.46" x2="17.69" y2="27.46"/>
		</g>
		<g onclick="this.a_par={beg_namb:1,quant:15};">
			<line fill="none" stroke="#D3DBDF" stroke-width="0.4" stroke-miterlimit="10" x1="81.94" y1="21.53" x2="17.69" y2="21.53"/>
		</g>
		<g onclick="this.a_par={beg_namb:1,quant:15};">
			<line fill="none" stroke="#D3DBDF" stroke-width="0.4" stroke-miterlimit="10" x1="81.94" y1="15.6" x2="17.69" y2="15.6"/>
		</g>
		<g onclick="this.a_par={beg_namb:1,quant:15};">
			<line fill="none" stroke="#D3DBDF" stroke-width="0.4" stroke-miterlimit="10" x1="81.94" y1="9.67" x2="17.69" y2="9.67"/>
		</g>
		<g onclick="this.a_par={beg_namb:1,quant:15};">
			<line fill="none" stroke="#D3DBDF" stroke-width="0.4" stroke-miterlimit="10" x1="73.29" y1="39.32" x2="9.05" y2="39.32"/>
		</g>
	</g>
	<g>
		<g>
			<circle fill="#AEBDC4" cx="10.89" cy="122.36" r="1.85"/>
			<circle fill="#AEBDC4" cx="15.21" cy="122.36" r="1.85"/>
			<circle fill="#AEBDC4" cx="19.54" cy="122.36" r="1.85"/>
			<circle fill="#AEBDC4" cx="23.86" cy="122.36" r="1.85"/>
			<circle fill="#AEBDC4" cx="28.18" cy="122.36" r="1.85"/>
			<circle fill="#AEBDC4" cx="32.5" cy="122.36" r="1.85"/>
			<circle fill="#AEBDC4" cx="36.82" cy="122.36" r="1.85"/>
			<circle fill="#AEBDC4" cx="41.14" cy="122.36" r="1.85"/>
			<circle fill="#AEBDC4" cx="45.46" cy="122.36" r="1.85"/>
		</g>
		<g>
			<circle fill="#AEBDC4" cx="10.89" cy="110.49" r="1.85"/>
			<circle fill="#AEBDC4" cx="15.21" cy="110.49" r="1.85"/>
			<circle fill="#AEBDC4" cx="19.54" cy="110.49" r="1.85"/>
			<circle fill="#AEBDC4" cx="23.86" cy="110.49" r="1.85"/>
			<circle fill="#AEBDC4" cx="28.18" cy="110.49" r="1.85"/>
			<circle fill="#AEBDC4" cx="32.5" cy="110.49" r="1.85"/>
			<circle fill="#AEBDC4" cx="36.82" cy="110.49" r="1.85"/>
			<circle fill="#AEBDC4" cx="41.14" cy="110.49" r="1.85"/>
			<circle fill="#AEBDC4" cx="45.46" cy="110.49" r="1.85"/>
			<circle fill="#AEBDC4" cx="49.79" cy="110.49" r="1.85"/>
		</g>
		<g>
			<circle fill="#AEBDC4" cx="10.89" cy="116.43" r="1.85"/>
			<circle fill="#AEBDC4" cx="15.21" cy="116.43" r="1.85"/>
			<circle fill="#AEBDC4" cx="19.54" cy="116.43" r="1.85"/>
			<circle fill="#AEBDC4" cx="23.86" cy="116.43" r="1.85"/>
			<circle fill="#AEBDC4" cx="28.18" cy="116.43" r="1.85"/>
			<circle fill="#AEBDC4" cx="32.5" cy="116.43" r="1.85"/>
			<circle fill="#AEBDC4" cx="36.82" cy="116.43" r="1.85"/>
			<circle fill="#AEBDC4" cx="41.14" cy="116.43" r="1.85"/>
			<circle fill="#AEBDC4" cx="45.46" cy="116.43" r="1.85"/>
			<circle fill="#AEBDC4" cx="49.79" cy="116.43" r="1.85"/>
		</g>
		<g>
			<circle fill="#AEBDC4" cx="10.89" cy="104.56" r="1.85"/>
			<circle fill="#AEBDC4" cx="15.21" cy="104.56" r="1.85"/>
			<circle fill="#AEBDC4" cx="19.54" cy="104.56" r="1.85"/>
			<circle fill="#AEBDC4" cx="23.86" cy="104.56" r="1.85"/>
			<circle fill="#AEBDC4" cx="28.18" cy="104.56" r="1.85"/>
			<circle fill="#AEBDC4" cx="32.5" cy="104.56" r="1.85"/>
			<circle fill="#AEBDC4" cx="36.82" cy="104.56" r="1.85"/>
			<circle fill="#AEBDC4" cx="41.14" cy="104.56" r="1.85"/>
			<circle fill="#AEBDC4" cx="45.46" cy="104.56" r="1.85"/>
			<circle fill="#AEBDC4" cx="49.79" cy="104.56" r="1.85"/>
			<circle fill="#AEBDC4" cx="54.12" cy="104.56" r="1.85"/>
		</g>
		<g>
			<circle fill="#AEBDC4" cx="10.89" cy="98.63" r="1.85"/>
			<circle fill="#AEBDC4" cx="15.21" cy="98.63" r="1.85"/>
			<circle fill="#AEBDC4" cx="19.54" cy="98.63" r="1.85"/>
			<circle fill="#AEBDC4" cx="23.86" cy="98.63" r="1.85"/>
			<circle fill="#AEBDC4" cx="28.18" cy="98.63" r="1.85"/>
			<circle fill="#AEBDC4" cx="32.5" cy="98.63" r="1.85"/>
			<circle fill="#AEBDC4" cx="36.82" cy="98.63" r="1.85"/>
			<circle fill="#AEBDC4" cx="41.14" cy="98.63" r="1.85"/>
			<circle fill="#AEBDC4" cx="45.46" cy="98.63" r="1.85"/>
			<circle fill="#AEBDC4" cx="49.79" cy="98.63" r="1.85"/>
			<circle fill="#AEBDC4" cx="54.12" cy="98.63" r="1.85"/>
		</g>
		<g>
			<circle fill="#AEBDC4" cx="10.89" cy="80.84" r="1.85"/>
			<circle fill="#AEBDC4" cx="15.21" cy="80.84" r="1.85"/>
			<circle fill="#AEBDC4" cx="19.54" cy="80.84" r="1.85"/>
			<circle fill="#AEBDC4" cx="23.86" cy="80.84" r="1.85"/>
			<circle fill="#AEBDC4" cx="28.18" cy="80.84" r="1.85"/>
			<circle fill="#AEBDC4" cx="32.5" cy="80.84" r="1.85"/>
			<circle fill="#AEBDC4" cx="36.82" cy="80.84" r="1.85"/>
			<circle fill="#AEBDC4" cx="41.14" cy="80.84" r="1.85"/>
			<circle fill="#AEBDC4" cx="45.46" cy="80.84" r="1.85"/>
			<circle fill="#AEBDC4" cx="49.79" cy="80.84" r="1.85"/>
			<circle fill="#AEBDC4" cx="54.12" cy="80.84" r="1.85"/>
			<circle fill="#AEBDC4" cx="58.45" cy="80.84" r="1.85"/>
		</g>
		<g>
			<circle fill="#AEBDC4" cx="10.89" cy="86.77" r="1.85"/>
			<circle fill="#AEBDC4" cx="15.21" cy="86.77" r="1.85"/>
			<circle fill="#AEBDC4" cx="19.54" cy="86.77" r="1.85"/>
			<circle fill="#AEBDC4" cx="23.86" cy="86.77" r="1.85"/>
			<circle fill="#AEBDC4" cx="28.18" cy="86.77" r="1.85"/>
			<circle fill="#AEBDC4" cx="32.5" cy="86.77" r="1.85"/>
			<circle fill="#AEBDC4" cx="36.82" cy="86.77" r="1.85"/>
			<circle fill="#AEBDC4" cx="41.14" cy="86.77" r="1.85"/>
			<circle fill="#AEBDC4" cx="45.46" cy="86.77" r="1.85"/>
			<circle fill="#AEBDC4" cx="49.79" cy="86.77" r="1.85"/>
			<circle fill="#AEBDC4" cx="54.12" cy="86.77" r="1.85"/>
			<circle fill="#AEBDC4" cx="58.45" cy="86.77" r="1.85"/>
		</g>
		<g>
			<circle fill="#AEBDC4" cx="10.89" cy="92.7" r="1.85"/>
			<circle fill="#AEBDC4" cx="15.21" cy="92.7" r="1.85"/>
			<circle fill="#AEBDC4" cx="19.54" cy="92.7" r="1.85"/>
			<circle fill="#AEBDC4" cx="23.86" cy="92.7" r="1.85"/>
			<circle fill="#AEBDC4" cx="28.18" cy="92.7" r="1.85"/>
			<circle fill="#AEBDC4" cx="32.5" cy="92.7" r="1.85"/>
			<circle fill="#AEBDC4" cx="36.82" cy="92.7" r="1.85"/>
			<circle fill="#AEBDC4" cx="41.14" cy="92.7" r="1.85"/>
			<circle fill="#AEBDC4" cx="45.46" cy="92.7" r="1.85"/>
			<circle fill="#AEBDC4" cx="49.79" cy="92.7" r="1.85"/>
			<circle fill="#AEBDC4" cx="54.12" cy="92.7" r="1.85"/>
			<circle fill="#AEBDC4" cx="58.45" cy="92.7" r="1.85"/>
		</g>
		<g>
			<circle fill="#AEBDC4" cx="10.89" cy="68.98" r="1.85"/>
			<circle fill="#AEBDC4" cx="15.21" cy="68.98" r="1.85"/>
			<circle fill="#AEBDC4" cx="19.54" cy="68.98" r="1.85"/>
			<circle fill="#AEBDC4" cx="23.86" cy="68.98" r="1.85"/>
			<circle fill="#AEBDC4" cx="28.18" cy="68.98" r="1.85"/>
			<circle fill="#AEBDC4" cx="32.5" cy="68.98" r="1.85"/>
			<circle fill="#AEBDC4" cx="36.82" cy="68.98" r="1.85"/>
			<circle fill="#AEBDC4" cx="41.14" cy="68.98" r="1.85"/>
			<circle fill="#AEBDC4" cx="45.46" cy="68.98" r="1.85"/>
			<circle fill="#AEBDC4" cx="49.79" cy="68.98" r="1.85"/>
			<circle fill="#AEBDC4" cx="54.12" cy="68.98" r="1.85"/>
			<circle fill="#AEBDC4" cx="58.45" cy="68.98" r="1.85"/>
			<circle fill="#AEBDC4" cx="62.79" cy="68.98" r="1.85"/>
		</g>
		<g>
			<circle fill="#AEBDC4" cx="10.89" cy="74.91" r="1.85"/>
			<circle fill="#AEBDC4" cx="15.21" cy="74.91" r="1.85"/>
			<circle fill="#AEBDC4" cx="19.54" cy="74.91" r="1.85"/>
			<circle fill="#AEBDC4" cx="23.86" cy="74.91" r="1.85"/>
			<circle fill="#AEBDC4" cx="28.18" cy="74.91" r="1.85"/>
			<circle fill="#AEBDC4" cx="32.5" cy="74.91" r="1.85"/>
			<circle fill="#AEBDC4" cx="36.82" cy="74.91" r="1.85"/>
			<circle fill="#AEBDC4" cx="41.14" cy="74.91" r="1.85"/>
			<circle fill="#AEBDC4" cx="45.46" cy="74.91" r="1.85"/>
			<circle fill="#AEBDC4" cx="49.79" cy="74.91" r="1.85"/>
			<circle fill="#AEBDC4" cx="54.12" cy="74.91" r="1.85"/>
			<circle fill="#AEBDC4" cx="58.45" cy="74.91" r="1.85"/>
			<circle fill="#AEBDC4" cx="62.79" cy="74.91" r="1.85"/>
		</g>
		<g>
			<circle fill="#AEBDC4" cx="10.89" cy="51.19" r="1.85"/>
			<circle fill="#AEBDC4" cx="15.21" cy="51.19" r="1.85"/>
			<circle fill="#AEBDC4" cx="19.54" cy="51.19" r="1.85"/>
			<circle fill="#AEBDC4" cx="23.86" cy="51.19" r="1.85"/>
			<circle fill="#AEBDC4" cx="28.18" cy="51.19" r="1.85"/>
			<circle fill="#AEBDC4" cx="32.5" cy="51.19" r="1.85"/>
			<circle fill="#AEBDC4" cx="36.82" cy="51.19" r="1.85"/>
			<circle fill="#AEBDC4" cx="41.14" cy="51.19" r="1.85"/>
			<circle fill="#AEBDC4" cx="45.46" cy="51.19" r="1.85"/>
			<circle fill="#AEBDC4" cx="49.79" cy="51.19" r="1.85"/>
			<circle fill="#AEBDC4" cx="54.12" cy="51.19" r="1.85"/>
			<circle fill="#AEBDC4" cx="58.45" cy="51.19" r="1.85"/>
			<circle fill="#AEBDC4" cx="62.79" cy="51.19" r="1.85"/>
			<circle fill="#AEBDC4" cx="67.12" cy="51.19" r="1.85"/>
		</g>
		<g>
			<circle fill="#AEBDC4" cx="10.89" cy="57.12" r="1.85"/>
			<circle fill="#AEBDC4" cx="15.21" cy="57.12" r="1.85"/>
			<circle fill="#AEBDC4" cx="19.54" cy="57.12" r="1.85"/>
			<circle fill="#AEBDC4" cx="23.86" cy="57.12" r="1.85"/>
			<circle fill="#AEBDC4" cx="28.18" cy="57.12" r="1.85"/>
			<circle fill="#AEBDC4" cx="32.5" cy="57.12" r="1.85"/>
			<circle fill="#AEBDC4" cx="36.82" cy="57.12" r="1.85"/>
			<circle fill="#AEBDC4" cx="41.14" cy="57.12" r="1.85"/>
			<circle fill="#AEBDC4" cx="45.46" cy="57.12" r="1.85"/>
			<circle fill="#AEBDC4" cx="49.79" cy="57.12" r="1.85"/>
			<circle fill="#AEBDC4" cx="54.12" cy="57.12" r="1.85"/>
			<circle fill="#AEBDC4" cx="58.45" cy="57.12" r="1.85"/>
			<circle fill="#AEBDC4" cx="62.79" cy="57.12" r="1.85"/>
			<circle fill="#AEBDC4" cx="67.12" cy="57.12" r="1.85"/>
		</g>
		<g>
			<circle fill="#AEBDC4" cx="10.89" cy="63.05" r="1.85"/>
			<circle fill="#AEBDC4" cx="15.21" cy="63.05" r="1.85"/>
			<circle fill="#AEBDC4" cx="19.54" cy="63.05" r="1.85"/>
			<circle fill="#AEBDC4" cx="23.86" cy="63.05" r="1.85"/>
			<circle fill="#AEBDC4" cx="28.18" cy="63.05" r="1.85"/>
			<circle fill="#AEBDC4" cx="32.5" cy="63.05" r="1.85"/>
			<circle fill="#AEBDC4" cx="36.82" cy="63.05" r="1.85"/>
			<circle fill="#AEBDC4" cx="41.14" cy="63.05" r="1.85"/>
			<circle fill="#AEBDC4" cx="45.46" cy="63.05" r="1.85"/>
			<circle fill="#AEBDC4" cx="49.79" cy="63.05" r="1.85"/>
			<circle fill="#AEBDC4" cx="54.12" cy="63.05" r="1.85"/>
			<circle fill="#AEBDC4" cx="58.45" cy="63.05" r="1.85"/>
			<circle fill="#AEBDC4" cx="62.79" cy="63.05" r="1.85"/>
			<circle fill="#AEBDC4" cx="67.12" cy="63.05" r="1.85"/>
		</g>
		<g>
			<circle fill="#AEBDC4" cx="19.54" cy="27.46" r="1.85"/>
			<circle fill="#AEBDC4" cx="23.86" cy="27.46" r="1.85"/>
			<circle fill="#AEBDC4" cx="28.18" cy="27.46" r="1.85"/>
			<circle fill="#AEBDC4" cx="32.5" cy="27.46" r="1.85"/>
			<circle fill="#AEBDC4" cx="36.82" cy="27.46" r="1.85"/>
			<circle fill="#AEBDC4" cx="41.14" cy="27.46" r="1.85"/>
			<circle fill="#AEBDC4" cx="45.46" cy="27.46" r="1.85"/>
			<circle fill="#AEBDC4" cx="49.78" cy="27.46" r="1.85"/>
			<circle fill="#AEBDC4" cx="54.1" cy="27.46" r="1.85"/>
			<circle fill="#AEBDC4" cx="58.44" cy="27.46" r="1.85"/>
			<circle fill="#AEBDC4" cx="62.77" cy="27.46" r="1.85"/>
			<circle fill="#AEBDC4" cx="67.1" cy="27.46" r="1.85"/>
			<circle fill="#AEBDC4" cx="71.43" cy="27.46" r="1.85"/>
			<circle fill="#AEBDC4" cx="75.76" cy="27.46" r="1.85"/>
		</g>
		<g>
			<circle fill="#AEBDC4" cx="10.89" cy="45.26" r="1.85"/>
			<circle fill="#AEBDC4" cx="15.21" cy="45.26" r="1.85"/>
			<circle fill="#AEBDC4" cx="19.54" cy="45.26" r="1.85"/>
			<circle fill="#AEBDC4" cx="23.86" cy="45.26" r="1.85"/>
			<circle fill="#AEBDC4" cx="28.18" cy="45.26" r="1.85"/>
			<circle fill="#AEBDC4" cx="32.5" cy="45.26" r="1.85"/>
			<circle fill="#AEBDC4" cx="36.82" cy="45.26" r="1.85"/>
			<circle fill="#AEBDC4" cx="41.14" cy="45.26" r="1.85"/>
			<circle fill="#AEBDC4" cx="45.46" cy="45.26" r="1.85"/>
			<circle fill="#AEBDC4" cx="49.79" cy="45.26" r="1.85"/>
			<circle fill="#AEBDC4" cx="54.12" cy="45.26" r="1.85"/>
			<circle fill="#AEBDC4" cx="58.45" cy="45.26" r="1.85"/>
			<circle fill="#AEBDC4" cx="62.79" cy="45.26" r="1.85"/>
			<circle fill="#AEBDC4" cx="67.12" cy="45.26" r="1.85"/>
			<circle fill="#AEBDC4" cx="71.45" cy="45.26" r="1.85"/>
		</g>
		<g>
			<circle fill="#AEBDC4" cx="10.89" cy="39.32" r="1.85"/>
			<circle fill="#AEBDC4" cx="15.21" cy="39.32" r="1.85"/>
			<circle fill="#AEBDC4" cx="19.54" cy="39.32" r="1.85"/>
			<circle fill="#AEBDC4" cx="23.86" cy="39.32" r="1.85"/>
			<circle fill="#AEBDC4" cx="28.18" cy="39.32" r="1.85"/>
			<circle fill="#AEBDC4" cx="32.5" cy="39.32" r="1.85"/>
			<circle fill="#AEBDC4" cx="36.82" cy="39.32" r="1.85"/>
			<circle fill="#AEBDC4" cx="41.14" cy="39.32" r="1.85"/>
			<circle fill="#AEBDC4" cx="45.46" cy="39.32" r="1.85"/>
			<circle fill="#AEBDC4" cx="49.79" cy="39.32" r="1.85"/>
			<circle fill="#AEBDC4" cx="54.12" cy="39.32" r="1.85"/>
			<circle fill="#AEBDC4" cx="58.45" cy="39.32" r="1.85"/>
			<circle fill="#AEBDC4" cx="62.79" cy="39.32" r="1.85"/>
			<circle fill="#AEBDC4" cx="67.12" cy="39.32" r="1.85"/>
			<circle fill="#AEBDC4" cx="71.45" cy="39.32" r="1.85"/>
		</g>
		<g>
			<circle fill="#AEBDC4" cx="19.54" cy="21.53" r="1.85"/>
			<circle fill="#AEBDC4" cx="23.86" cy="21.53" r="1.85"/>
			<circle fill="#AEBDC4" cx="28.18" cy="21.53" r="1.85"/>
			<circle fill="#AEBDC4" cx="32.5" cy="21.53" r="1.85"/>
			<circle fill="#AEBDC4" cx="36.82" cy="21.53" r="1.85"/>
			<circle fill="#AEBDC4" cx="41.14" cy="21.53" r="1.85"/>
			<circle fill="#AEBDC4" cx="45.46" cy="21.53" r="1.85"/>
			<circle fill="#AEBDC4" cx="49.78" cy="21.53" r="1.85"/>
			<circle fill="#AEBDC4" cx="54.1" cy="21.53" r="1.85"/>
			<circle fill="#AEBDC4" cx="58.44" cy="21.53" r="1.85"/>
			<circle fill="#AEBDC4" cx="62.77" cy="21.53" r="1.85"/>
			<circle fill="#AEBDC4" cx="67.1" cy="21.53" r="1.85"/>
			<circle fill="#AEBDC4" cx="71.43" cy="21.53" r="1.85"/>
			<circle fill="#AEBDC4" cx="75.76" cy="21.53" r="1.85"/>
			<circle fill="#AEBDC4" cx="80.09" cy="21.53" r="1.85"/>
		</g>
		<g>
			<circle fill="#AEBDC4" cx="19.54" cy="15.6" r="1.85"/>
			<circle fill="#AEBDC4" cx="23.86" cy="15.6" r="1.85"/>
			<circle fill="#AEBDC4" cx="28.18" cy="15.6" r="1.85"/>
			<circle fill="#AEBDC4" cx="32.5" cy="15.6" r="1.85"/>
			<circle fill="#AEBDC4" cx="36.82" cy="15.6" r="1.85"/>
			<circle fill="#AEBDC4" cx="41.14" cy="15.6" r="1.85"/>
			<circle fill="#AEBDC4" cx="45.46" cy="15.6" r="1.85"/>
			<circle fill="#AEBDC4" cx="49.78" cy="15.6" r="1.85"/>
			<circle fill="#AEBDC4" cx="54.1" cy="15.6" r="1.85"/>
			<circle fill="#AEBDC4" cx="58.44" cy="15.6" r="1.85"/>
			<circle fill="#AEBDC4" cx="62.77" cy="15.6" r="1.85"/>
			<circle fill="#AEBDC4" cx="67.1" cy="15.6" r="1.85"/>
			<circle fill="#AEBDC4" cx="71.43" cy="15.6" r="1.85"/>
			<circle fill="#AEBDC4" cx="75.76" cy="15.6" r="1.85"/>
			<circle fill="#AEBDC4" cx="80.09" cy="15.6" r="1.85"/>
		</g>
		<g>
			<circle fill="#AEBDC4" cx="19.54" cy="9.67" r="1.85"/>
			<circle fill="#AEBDC4" cx="23.86" cy="9.67" r="1.85"/>
			<circle fill="#AEBDC4" cx="28.18" cy="9.67" r="1.85"/>
			<circle fill="#AEBDC4" cx="32.5" cy="9.67" r="1.85"/>
			<circle fill="#AEBDC4" cx="36.82" cy="9.67" r="1.85"/>
			<circle fill="#AEBDC4" cx="41.14" cy="9.67" r="1.85"/>
			<circle fill="#AEBDC4" cx="45.46" cy="9.67" r="1.85"/>
			<circle fill="#AEBDC4" cx="49.78" cy="9.67" r="1.85"/>
			<circle fill="#AEBDC4" cx="54.1" cy="9.67" r="1.85"/>
			<circle fill="#AEBDC4" cx="58.44" cy="9.67" r="1.85"/>
			<circle fill="#AEBDC4" cx="62.77" cy="9.67" r="1.85"/>
			<circle fill="#AEBDC4" cx="67.1" cy="9.67" r="1.85"/>
			<circle fill="#AEBDC4" cx="71.43" cy="9.67" r="1.85"/>
			<circle fill="#AEBDC4" cx="75.76" cy="9.67" r="1.85"/>
			<circle fill="#AEBDC4" cx="80.09" cy="9.67" r="1.85"/>
		</g>
		<g>
			<circle fill="#AEBDC4" cx="10.89" cy="33.39" r="1.85"/>
			<circle fill="#AEBDC4" cx="15.21" cy="33.39" r="1.85"/>
			<circle fill="#AEBDC4" cx="19.54" cy="33.39" r="1.85"/>
			<circle fill="#AEBDC4" cx="23.86" cy="33.39" r="1.85"/>
			<circle fill="#AEBDC4" cx="28.18" cy="33.39" r="1.85"/>
			<circle fill="#AEBDC4" cx="32.5" cy="33.39" r="1.85"/>
			<circle fill="#AEBDC4" cx="36.82" cy="33.39" r="1.85"/>
			<circle fill="#AEBDC4" cx="41.14" cy="33.39" r="1.85"/>
			<circle fill="#AEBDC4" cx="45.46" cy="33.39" r="1.85"/>
			<circle fill="#AEBDC4" cx="49.79" cy="33.39" r="1.85"/>
			<circle fill="#AEBDC4" cx="54.12" cy="33.39" r="1.85"/>
			<circle fill="#AEBDC4" cx="58.45" cy="33.39" r="1.85"/>
			<circle fill="#AEBDC4" cx="62.79" cy="33.39" r="1.85"/>
			<circle fill="#AEBDC4" cx="67.12" cy="33.39" r="1.85"/>
			<circle fill="#AEBDC4" cx="71.45" cy="33.39" r="1.85"/>
			<circle fill="#AEBDC4" cx="75.78" cy="33.39" r="1.85"/>
		</g>
	</g>
	<g onclick="this.parentNode.a_text=this;">
		<text transform="matrix(0.9999 0 0 1 29.4561 88.3448)"><tspan x="0" y="0" font-family="'OpenSans-Semibold'" font-size="6.3996px">W 1</tspan><tspan x="-2.48" y="7.2" font-family="'OpenSans-Semibold'" font-size="6.3996px">(</tspan><tspan x="-0.44" y="7.2" font-family="'OpenSans-Semibold'" font-size="6.3996px">н</tspan><tspan x="3.91" y="7.2" font-family="'OpenSans-Semibold'" font-size="6.3996px">и</tspan><tspan x="8.47" y="7.2" font-family="'OpenSans-Semibold'" font-size="6.3996px">з</tspan><tspan x="11.82" y="7.2" font-family="'OpenSans-Semibold'" font-size="6.3996px">)</tspan></text>
	</g>
</g>
</svg>
