<?xml version="1.0" encoding="utf-8"?>
<!-- Generator: Adobe Illustrator 23.0.1, SVG Export Plug-In . SVG Version: 6.00 Build 0)  -->
<svg version="1.1" id="Layer_1" xmlns="http://www.w3.org/2000/svg" xmlns:xlink="http://www.w3.org/1999/xlink" x="0px" y="0px"
	 viewBox="0 0 102 132" style="enable-background:new 0 0 102 132;" xml:space="preserve">
<style type="text/css">
	.st0{fill:#F1F3F4;stroke:#BCC8CE;stroke-width:0.4;stroke-linecap:round;stroke-miterlimit:10;}
	.st1{fill:#AEBDC4;}
	.st2{font-family:'Roboto-Medium';}
	.st3{font-size:3px;}
</style>
<polygon class="st0" points="0.2,131.4 0.2,0.6 101.7,0.6 63,131.4 "/>
<g 
  data-sort-seat-direction="rtl" 
  data-sort-line-direction="btt" 
  data-sort-seat-option="cx" 
  data-sort-line-option="cy" 
  data-line-start="1"
  >
	<g>
		<circle class="st1" cx="10.9" cy="122.4" r="1.8"/>
		<circle class="st1" cx="15.2" cy="122.4" r="1.8"/>
		<circle class="st1" cx="19.5" cy="122.4" r="1.8"/>
		<circle class="st1" cx="23.9" cy="122.4" r="1.8"/>
		<circle class="st1" cx="28.2" cy="122.4" r="1.8"/>
		<circle class="st1" cx="32.5" cy="122.4" r="1.8"/>
		<circle class="st1" cx="36.8" cy="122.4" r="1.8"/>
		<circle class="st1" cx="41.1" cy="122.4" r="1.8"/>
		<circle class="st1" cx="45.5" cy="122.4" r="1.8"/>
		<text transform="matrix(1 0 0 1 4.3909 123.4105)" class="st1 st2 st3">00</text>
		<text transform="matrix(1 0 0 1 48.5609 123.4105)" class="st1 st2 st3">00</text>
	</g>
	<g>
		<circle class="st1" cx="10.9" cy="116.4" r="1.8"/>
		<circle class="st1" cx="15.2" cy="116.4" r="1.8"/>
		<circle class="st1" cx="19.5" cy="116.4" r="1.8"/>
		<circle class="st1" cx="23.9" cy="116.4" r="1.8"/>
		<circle class="st1" cx="28.2" cy="116.4" r="1.8"/>
		<circle class="st1" cx="32.5" cy="116.4" r="1.8"/>
		<circle class="st1" cx="36.8" cy="116.4" r="1.8"/>
		<circle class="st1" cx="41.1" cy="116.4" r="1.8"/>
		<circle class="st1" cx="45.5" cy="116.4" r="1.8"/>
		<circle class="st1" cx="49.8" cy="116.4" r="1.8"/>
		<text transform="matrix(1 0 0 1 4.3909 117.4795)" class="st1 st2 st3">00</text>
		<text transform="matrix(1 0 0 1 52.8909 117.4795)" class="st1 st2 st3">00</text>
	</g>
	<g>
		<circle class="st1" cx="10.9" cy="110.5" r="1.8"/>
		<circle class="st1" cx="15.2" cy="110.5" r="1.8"/>
		<circle class="st1" cx="19.5" cy="110.5" r="1.8"/>
		<circle class="st1" cx="23.9" cy="110.5" r="1.8"/>
		<circle class="st1" cx="28.2" cy="110.5" r="1.8"/>
		<circle class="st1" cx="32.5" cy="110.5" r="1.8"/>
		<circle class="st1" cx="36.8" cy="110.5" r="1.8"/>
		<circle class="st1" cx="41.1" cy="110.5" r="1.8"/>
		<circle class="st1" cx="45.5" cy="110.5" r="1.8"/>
		<circle class="st1" cx="49.8" cy="110.5" r="1.8"/>
		<text transform="matrix(1 0 0 1 4.3909 111.5485)" class="st1 st2 st3">00</text>
		<text transform="matrix(1 0 0 1 52.8909 111.5485)" class="st1 st2 st3">00</text>
	</g>
	<g>
		<circle class="st1" cx="10.9" cy="104.6" r="1.8"/>
		<circle class="st1" cx="15.2" cy="104.6" r="1.8"/>
		<circle class="st1" cx="19.5" cy="104.6" r="1.8"/>
		<circle class="st1" cx="23.9" cy="104.6" r="1.8"/>
		<circle class="st1" cx="28.2" cy="104.6" r="1.8"/>
		<circle class="st1" cx="32.5" cy="104.6" r="1.8"/>
		<circle class="st1" cx="36.8" cy="104.6" r="1.8"/>
		<circle class="st1" cx="41.1" cy="104.6" r="1.8"/>
		<circle class="st1" cx="45.5" cy="104.6" r="1.8"/>
		<circle class="st1" cx="49.8" cy="104.6" r="1.8"/>
		<circle class="st1" cx="54.1" cy="104.6" r="1.8"/>
		<text transform="matrix(1 0 0 1 4.3909 105.6174)" class="st1 st2 st3">00</text>
		<text transform="matrix(1 0 0 1 57.2208 105.6174)" class="st1 st2 st3">00</text>
	</g>
	<g>
		<circle class="st1" cx="10.9" cy="98.6" r="1.8"/>
		<circle class="st1" cx="15.2" cy="98.6" r="1.8"/>
		<circle class="st1" cx="19.5" cy="98.6" r="1.8"/>
		<circle class="st1" cx="23.9" cy="98.6" r="1.8"/>
		<circle class="st1" cx="28.2" cy="98.6" r="1.8"/>
		<circle class="st1" cx="32.5" cy="98.6" r="1.8"/>
		<circle class="st1" cx="36.8" cy="98.6" r="1.8"/>
		<circle class="st1" cx="41.1" cy="98.6" r="1.8"/>
		<circle class="st1" cx="45.5" cy="98.6" r="1.8"/>
		<circle class="st1" cx="49.8" cy="98.6" r="1.8"/>
		<circle class="st1" cx="54.1" cy="98.6" r="1.8"/>
		<text transform="matrix(1 0 0 1 4.3909 99.6864)" class="st1 st2 st3">00</text>
		<text transform="matrix(1 0 0 1 57.2208 99.6864)" class="st1 st2 st3">00</text>
	</g>
	<g>
		<circle class="st1" cx="10.9" cy="92.7" r="1.8"/>
		<circle class="st1" cx="15.2" cy="92.7" r="1.8"/>
		<circle class="st1" cx="19.5" cy="92.7" r="1.8"/>
		<circle class="st1" cx="23.9" cy="92.7" r="1.8"/>
		<circle class="st1" cx="28.2" cy="92.7" r="1.8"/>
		<circle class="st1" cx="32.5" cy="92.7" r="1.8"/>
		<circle class="st1" cx="36.8" cy="92.7" r="1.8"/>
		<circle class="st1" cx="41.1" cy="92.7" r="1.8"/>
		<circle class="st1" cx="45.5" cy="92.7" r="1.8"/>
		<circle class="st1" cx="49.8" cy="92.7" r="1.8"/>
		<circle class="st1" cx="54.1" cy="92.7" r="1.8"/>
		<circle class="st1" cx="58.5" cy="92.7" r="1.8"/>
		<text transform="matrix(1 0 0 1 4.3909 93.7554)" class="st1 st2 st3">00</text>
		<text transform="matrix(1 0 0 1 61.5508 93.7554)" class="st1 st2 st3">00</text>
	</g>
	<g>
		<circle class="st1" cx="10.9" cy="86.8" r="1.8"/>
		<circle class="st1" cx="15.2" cy="86.8" r="1.8"/>
		<circle class="st1" cx="19.5" cy="86.8" r="1.8"/>
		<circle class="st1" cx="23.9" cy="86.8" r="1.8"/>
		<circle class="st1" cx="28.2" cy="86.8" r="1.8"/>
		<circle class="st1" cx="32.5" cy="86.8" r="1.8"/>
		<circle class="st1" cx="36.8" cy="86.8" r="1.8"/>
		<circle class="st1" cx="41.1" cy="86.8" r="1.8"/>
		<circle class="st1" cx="45.5" cy="86.8" r="1.8"/>
		<circle class="st1" cx="49.8" cy="86.8" r="1.8"/>
		<circle class="st1" cx="54.1" cy="86.8" r="1.8"/>
		<circle class="st1" cx="58.5" cy="86.8" r="1.8"/>
		<text transform="matrix(1 0 0 1 4.3909 87.8243)" class="st1 st2 st3">00</text>
		<text transform="matrix(1 0 0 1 61.5508 87.8243)" class="st1 st2 st3">00</text>
	</g>
	<g>
		<circle class="st1" cx="10.9" cy="80.8" r="1.8"/>
		<circle class="st1" cx="15.2" cy="80.8" r="1.8"/>
		<circle class="st1" cx="19.5" cy="80.8" r="1.8"/>
		<circle class="st1" cx="23.9" cy="80.8" r="1.8"/>
		<circle class="st1" cx="28.2" cy="80.8" r="1.8"/>
		<circle class="st1" cx="32.5" cy="80.8" r="1.8"/>
		<circle class="st1" cx="36.8" cy="80.8" r="1.8"/>
		<circle class="st1" cx="41.1" cy="80.8" r="1.8"/>
		<circle class="st1" cx="45.5" cy="80.8" r="1.8"/>
		<circle class="st1" cx="49.8" cy="80.8" r="1.8"/>
		<circle class="st1" cx="54.1" cy="80.8" r="1.8"/>
		<circle class="st1" cx="58.5" cy="80.8" r="1.8"/>
		<text transform="matrix(1 0 0 1 4.3909 81.8933)" class="st1 st2 st3">00</text>
		<text transform="matrix(1 0 0 1 61.5508 81.8933)" class="st1 st2 st3">00</text>
	</g>
	<g>
		<circle class="st1" cx="10.9" cy="74.9" r="1.8"/>
		<circle class="st1" cx="15.2" cy="74.9" r="1.8"/>
		<circle class="st1" cx="19.5" cy="74.9" r="1.8"/>
		<circle class="st1" cx="23.9" cy="74.9" r="1.8"/>
		<circle class="st1" cx="28.2" cy="74.9" r="1.8"/>
		<circle class="st1" cx="32.5" cy="74.9" r="1.8"/>
		<circle class="st1" cx="36.8" cy="74.9" r="1.8"/>
		<circle class="st1" cx="41.1" cy="74.9" r="1.8"/>
		<circle class="st1" cx="45.5" cy="74.9" r="1.8"/>
		<circle class="st1" cx="49.8" cy="74.9" r="1.8"/>
		<circle class="st1" cx="54.1" cy="74.9" r="1.8"/>
		<circle class="st1" cx="58.5" cy="74.9" r="1.8"/>
		<circle class="st1" cx="62.8" cy="74.9" r="1.8"/>
		<text transform="matrix(1 0 0 1 4.3909 75.9623)" class="st1 st2 st3">00</text>
		<text transform="matrix(1 0 0 1 65.8907 75.9623)" class="st1 st2 st3">00</text>
	</g>
	<g>
		<circle class="st1" cx="10.9" cy="69" r="1.8"/>
		<circle class="st1" cx="15.2" cy="69" r="1.8"/>
		<circle class="st1" cx="19.5" cy="69" r="1.8"/>
		<circle class="st1" cx="23.9" cy="69" r="1.8"/>
		<circle class="st1" cx="28.2" cy="69" r="1.8"/>
		<circle class="st1" cx="32.5" cy="69" r="1.8"/>
		<circle class="st1" cx="36.8" cy="69" r="1.8"/>
		<circle class="st1" cx="41.1" cy="69" r="1.8"/>
		<circle class="st1" cx="45.5" cy="69" r="1.8"/>
		<circle class="st1" cx="49.8" cy="69" r="1.8"/>
		<circle class="st1" cx="54.1" cy="69" r="1.8"/>
		<circle class="st1" cx="58.5" cy="69" r="1.8"/>
		<circle class="st1" cx="62.8" cy="69" r="1.8"/>
		<text transform="matrix(1 0 0 1 4.3909 70.0312)" class="st1 st2 st3">00</text>
		<text transform="matrix(1 0 0 1 65.8907 70.0312)" class="st1 st2 st3">00</text>
	</g>
	<g>
		<circle class="st1" cx="10.9" cy="63" r="1.9"/>
		<circle class="st1" cx="15.2" cy="63" r="1.9"/>
		<circle class="st1" cx="19.5" cy="63" r="1.9"/>
		<circle class="st1" cx="23.9" cy="63" r="1.9"/>
		<circle class="st1" cx="28.2" cy="63" r="1.9"/>
		<circle class="st1" cx="32.5" cy="63" r="1.9"/>
		<circle class="st1" cx="36.8" cy="63" r="1.8"/>
		<circle class="st1" cx="41.1" cy="63" r="1.8"/>
		<circle class="st1" cx="45.5" cy="63" r="1.8"/>
		<circle class="st1" cx="49.8" cy="63" r="1.8"/>
		<circle class="st1" cx="54.1" cy="63" r="1.8"/>
		<circle class="st1" cx="58.5" cy="63" r="1.8"/>
		<circle class="st1" cx="62.8" cy="63" r="1.8"/>
		<circle class="st1" cx="67.1" cy="63" r="1.8"/>
		<text transform="matrix(1 0 0 1 4.3909 64.1002)" class="st1 st2 st3">00</text>
		<text transform="matrix(1 0 0 1 70.2207 64.1002)" class="st1 st2 st3">00</text>
	</g>
	<g>
		<circle class="st1" cx="10.9" cy="57.1" r="1.8"/>
		<circle class="st1" cx="15.2" cy="57.1" r="1.8"/>
		<circle class="st1" cx="19.5" cy="57.1" r="1.8"/>
		<circle class="st1" cx="23.9" cy="57.1" r="1.8"/>
		<circle class="st1" cx="28.2" cy="57.1" r="1.8"/>
		<circle class="st1" cx="32.5" cy="57.1" r="1.8"/>
		<circle class="st1" cx="36.8" cy="57.1" r="1.8"/>
		<circle class="st1" cx="41.1" cy="57.1" r="1.8"/>
		<circle class="st1" cx="45.5" cy="57.1" r="1.8"/>
		<circle class="st1" cx="49.8" cy="57.1" r="1.8"/>
		<circle class="st1" cx="54.1" cy="57.1" r="1.8"/>
		<circle class="st1" cx="58.5" cy="57.1" r="1.8"/>
		<circle class="st1" cx="62.8" cy="57.1" r="1.8"/>
		<circle class="st1" cx="67.1" cy="57.1" r="1.8"/>
		<text transform="matrix(1 0 0 1 4.3909 58.1692)" class="st1 st2 st3">00</text>
		<text transform="matrix(1 0 0 1 70.2207 58.1692)" class="st1 st2 st3">00</text>
	</g>
	<g>
		<circle class="st1" cx="10.9" cy="51.2" r="1.8"/>
		<circle class="st1" cx="15.2" cy="51.2" r="1.8"/>
		<circle class="st1" cx="19.5" cy="51.2" r="1.8"/>
		<circle class="st1" cx="23.9" cy="51.2" r="1.8"/>
		<circle class="st1" cx="28.2" cy="51.2" r="1.8"/>
		<circle class="st1" cx="32.5" cy="51.2" r="1.8"/>
		<circle class="st1" cx="36.8" cy="51.2" r="1.8"/>
		<circle class="st1" cx="41.1" cy="51.2" r="1.8"/>
		<circle class="st1" cx="45.5" cy="51.2" r="1.8"/>
		<circle class="st1" cx="49.8" cy="51.2" r="1.8"/>
		<circle class="st1" cx="54.1" cy="51.2" r="1.8"/>
		<circle class="st1" cx="58.5" cy="51.2" r="1.8"/>
		<circle class="st1" cx="62.8" cy="51.2" r="1.8"/>
		<circle class="st1" cx="67.1" cy="51.2" r="1.8"/>
		<text transform="matrix(1 0 0 1 4.3909 52.2382)" class="st1 st2 st3">00</text>
		<text transform="matrix(1 0 0 1 70.2207 52.2382)" class="st1 st2 st3">00</text>
	</g>
	<g>
		<circle class="st1" cx="10.9" cy="45.3" r="1.8"/>
		<circle class="st1" cx="15.2" cy="45.3" r="1.8"/>
		<circle class="st1" cx="19.5" cy="45.3" r="1.8"/>
		<circle class="st1" cx="23.9" cy="45.3" r="1.8"/>
		<circle class="st1" cx="28.2" cy="45.3" r="1.8"/>
		<circle class="st1" cx="32.5" cy="45.3" r="1.8"/>
		<circle class="st1" cx="36.8" cy="45.3" r="1.8"/>
		<circle class="st1" cx="41.1" cy="45.3" r="1.8"/>
		<circle class="st1" cx="45.5" cy="45.3" r="1.8"/>
		<circle class="st1" cx="49.8" cy="45.3" r="1.8"/>
		<circle class="st1" cx="54.1" cy="45.3" r="1.8"/>
		<circle class="st1" cx="58.5" cy="45.3" r="1.8"/>
		<circle class="st1" cx="62.8" cy="45.3" r="1.8"/>
		<circle class="st1" cx="67.1" cy="45.3" r="1.8"/>
		<circle class="st1" cx="71.4" cy="45.3" r="1.8"/>
		<text transform="matrix(1 0 0 1 4.3909 46.3071)" class="st1 st2 st3">00</text>
		<text transform="matrix(1 0 0 1 74.5507 46.3071)" class="st1 st2 st3">00</text>
	</g>
	<g>
		<circle class="st1" cx="10.9" cy="39.3" r="1.8"/>
		<circle class="st1" cx="15.2" cy="39.3" r="1.8"/>
		<circle class="st1" cx="19.5" cy="39.3" r="1.8"/>
		<circle class="st1" cx="23.9" cy="39.3" r="1.8"/>
		<circle class="st1" cx="28.2" cy="39.3" r="1.8"/>
		<circle class="st1" cx="32.5" cy="39.3" r="1.8"/>
		<circle class="st1" cx="36.8" cy="39.3" r="1.8"/>
		<circle class="st1" cx="41.1" cy="39.3" r="1.8"/>
		<circle class="st1" cx="45.5" cy="39.3" r="1.8"/>
		<circle class="st1" cx="49.8" cy="39.3" r="1.8"/>
		<circle class="st1" cx="54.1" cy="39.3" r="1.8"/>
		<circle class="st1" cx="58.5" cy="39.3" r="1.8"/>
		<circle class="st1" cx="62.8" cy="39.3" r="1.8"/>
		<circle class="st1" cx="67.1" cy="39.3" r="1.8"/>
		<circle class="st1" cx="71.4" cy="39.3" r="1.8"/>
		<text transform="matrix(1 0 0 1 4.3909 40.3761)" class="st1 st2 st3">00</text>
		<text transform="matrix(1 0 0 1 74.5507 40.3761)" class="st1 st2 st3">00</text>
	</g>
	<g>
		<circle class="st1" cx="10.9" cy="33.4" r="1.8"/>
		<circle class="st1" cx="15.2" cy="33.4" r="1.8"/>
		<circle class="st1" cx="19.5" cy="33.4" r="1.8"/>
		<circle class="st1" cx="23.9" cy="33.4" r="1.8"/>
		<circle class="st1" cx="28.2" cy="33.4" r="1.8"/>
		<circle class="st1" cx="32.5" cy="33.4" r="1.8"/>
		<circle class="st1" cx="36.8" cy="33.4" r="1.8"/>
		<circle class="st1" cx="41.1" cy="33.4" r="1.8"/>
		<circle class="st1" cx="45.5" cy="33.4" r="1.8"/>
		<circle class="st1" cx="49.8" cy="33.4" r="1.8"/>
		<circle class="st1" cx="54.1" cy="33.4" r="1.8"/>
		<circle class="st1" cx="58.5" cy="33.4" r="1.8"/>
		<circle class="st1" cx="62.8" cy="33.4" r="1.8"/>
		<circle class="st1" cx="67.1" cy="33.4" r="1.8"/>
		<circle class="st1" cx="71.4" cy="33.4" r="1.8"/>
		<circle class="st1" cx="75.8" cy="33.4" r="1.8"/>
		<text transform="matrix(1 0 0 1 4.3909 34.4451)" class="st1 st2 st3">00</text>
		<text transform="matrix(1 0 0 1 78.8607 34.4451)" class="st1 st2 st3">00</text>
	</g>
	<g>
		<circle class="st1" cx="19.5" cy="27.5" r="1.9"/>
		<circle class="st1" cx="23.9" cy="27.5" r="1.9"/>
		<circle class="st1" cx="28.2" cy="27.5" r="1.9"/>
		<circle class="st1" cx="32.5" cy="27.5" r="1.8"/>
		<circle class="st1" cx="36.8" cy="27.5" r="1.8"/>
		<circle class="st1" cx="41.1" cy="27.5" r="1.8"/>
		<circle class="st1" cx="45.5" cy="27.5" r="1.8"/>
		<circle class="st1" cx="49.8" cy="27.5" r="1.8"/>
		<circle class="st1" cx="54.1" cy="27.5" r="1.8"/>
		<circle class="st1" cx="58.4" cy="27.5" r="1.8"/>
		<circle class="st1" cx="62.8" cy="27.5" r="1.9"/>
		<circle class="st1" cx="67.1" cy="27.5" r="1.8"/>
		<circle class="st1" cx="71.4" cy="27.5" r="1.8"/>
		<circle class="st1" cx="75.8" cy="27.5" r="1.8"/>
		<text transform="matrix(1 0 0 1 13.0409 28.514)" class="st1 st2 st3">00</text>
		<text transform="matrix(1 0 0 1 78.8607 28.514)" class="st1 st2 st3">00</text>
	</g>
	<g>
		<circle class="st1" cx="19.5" cy="21.5" r="1.9"/>
		<circle class="st1" cx="23.9" cy="21.5" r="1.9"/>
		<circle class="st1" cx="28.2" cy="21.5" r="1.9"/>
		<circle class="st1" cx="32.5" cy="21.5" r="1.8"/>
		<circle class="st1" cx="36.8" cy="21.5" r="1.8"/>
		<circle class="st1" cx="41.1" cy="21.5" r="1.8"/>
		<circle class="st1" cx="45.5" cy="21.5" r="1.8"/>
		<circle class="st1" cx="49.8" cy="21.5" r="1.8"/>
		<circle class="st1" cx="54.1" cy="21.5" r="1.8"/>
		<circle class="st1" cx="58.4" cy="21.5" r="1.8"/>
		<circle class="st1" cx="62.8" cy="21.5" r="1.9"/>
		<circle class="st1" cx="67.1" cy="21.5" r="1.8"/>
		<circle class="st1" cx="71.4" cy="21.5" r="1.8"/>
		<circle class="st1" cx="75.8" cy="21.5" r="1.8"/>
		<circle class="st1" cx="80.1" cy="21.5" r="1.8"/>
		<text transform="matrix(1 0 0 1 13.0409 22.583)" class="st1 st2 st3">00</text>
		<text transform="matrix(1 0 0 1 83.1907 22.583)" class="st1 st2 st3">00</text>
	</g>
	<g>
		<circle class="st1" cx="19.5" cy="15.6" r="1.9"/>
		<circle class="st1" cx="23.9" cy="15.6" r="1.9"/>
		<circle class="st1" cx="28.2" cy="15.6" r="1.9"/>
		<circle class="st1" cx="32.5" cy="15.6" r="1.8"/>
		<circle class="st1" cx="36.8" cy="15.6" r="1.8"/>
		<circle class="st1" cx="41.1" cy="15.6" r="1.8"/>
		<circle class="st1" cx="45.5" cy="15.6" r="1.8"/>
		<circle class="st1" cx="49.8" cy="15.6" r="1.8"/>
		<circle class="st1" cx="54.1" cy="15.6" r="1.8"/>
		<circle class="st1" cx="58.4" cy="15.6" r="1.8"/>
		<circle class="st1" cx="62.8" cy="15.6" r="1.9"/>
		<circle class="st1" cx="67.1" cy="15.6" r="1.8"/>
		<circle class="st1" cx="71.4" cy="15.6" r="1.8"/>
		<circle class="st1" cx="75.8" cy="15.6" r="1.8"/>
		<circle class="st1" cx="80.1" cy="15.6" r="1.8"/>
		<text transform="matrix(1 0 0 1 13.0409 16.652)" class="st1 st2 st3">00</text>
		<text transform="matrix(1 0 0 1 83.1907 16.652)" class="st1 st2 st3">00</text>
	</g>
	<g>
		<circle class="st1" cx="19.5" cy="9.7" r="1.9"/>
		<circle class="st1" cx="23.9" cy="9.7" r="1.9"/>
		<circle class="st1" cx="28.2" cy="9.7" r="1.9"/>
		<circle class="st1" cx="32.5" cy="9.7" r="1.8"/>
		<circle class="st1" cx="36.8" cy="9.7" r="1.8"/>
		<circle class="st1" cx="41.1" cy="9.7" r="1.8"/>
		<circle class="st1" cx="45.5" cy="9.7" r="1.8"/>
		<circle class="st1" cx="49.8" cy="9.7" r="1.8"/>
		<circle class="st1" cx="54.1" cy="9.7" r="1.8"/>
		<circle class="st1" cx="58.4" cy="9.7" r="1.8"/>
		<circle class="st1" cx="62.8" cy="9.7" r="1.9"/>
		<circle class="st1" cx="67.1" cy="9.7" r="1.8"/>
		<circle class="st1" cx="71.4" cy="9.7" r="1.8"/>
		<circle class="st1" cx="75.8" cy="9.7" r="1.8"/>
		<circle class="st1" cx="80.1" cy="9.7" r="1.8"/>
		<text transform="matrix(1 0 0 1 13.0409 10.7209)" class="st1 st2 st3">00</text>
		<text transform="matrix(1 0 0 1 83.1907 10.7209)" class="st1 st2 st3">00</text>
	</g>
</g>
</svg>
