<?xml version="1.0" encoding="utf-8"?>
<!-- Generator: Adobe Illustrator 23.0.1, SVG Export Plug-In . SVG Version: 6.00 Build 0)  -->
<svg version="1.1" id="Layer_1" xmlns="http://www.w3.org/2000/svg" xmlns:xlink="http://www.w3.org/1999/xlink" x="0px" y="0px"
	 viewBox="0 0 102 132" enable-background="new 0 0 102 132" xml:space="preserve">
<g onclick="this.parentNode.sekt.push(this);this.a_name=&quot;W 1 (низ)&quot;;">
	
		<polygon onclick="this.parentNode.a_fon=this;" fill="#F1F3F4" stroke="#BCC8CE" stroke-width="0.4" stroke-linecap="round" stroke-miterlimit="10" points="
		0.23,131.4 0.23,0.6 101.7,0.6 63.01,131.4 	"/>
	<g>
		<circle fill="#AEBDC4" cx="10.89" cy="122.36" r="1.85"/>
		<circle fill="#AEBDC4" cx="15.21" cy="122.36" r="1.85"/>
		<circle fill="#AEBDC4" cx="19.54" cy="122.36" r="1.85"/>
		<circle fill="#AEBDC4" cx="23.86" cy="122.36" r="1.85"/>
		<circle fill="#AEBDC4" cx="28.18" cy="122.36" r="1.85"/>
		<circle fill="#AEBDC4" cx="32.5" cy="122.36" r="1.85"/>
		<circle fill="#AEBDC4" cx="36.82" cy="122.36" r="1.85"/>
		<circle fill="#AEBDC4" cx="41.14" cy="122.36" r="1.85"/>
		<circle fill="#AEBDC4" cx="45.46" cy="122.36" r="1.85"/>
	</g>
	<g>
		<circle fill="#AEBDC4" cx="10.89" cy="116.43" r="1.85"/>
		<circle fill="#AEBDC4" cx="15.21" cy="116.43" r="1.85"/>
		<circle fill="#AEBDC4" cx="19.54" cy="116.43" r="1.85"/>
		<circle fill="#AEBDC4" cx="23.86" cy="116.43" r="1.85"/>
		<circle fill="#AEBDC4" cx="28.18" cy="116.43" r="1.85"/>
		<circle fill="#AEBDC4" cx="32.5" cy="116.43" r="1.85"/>
		<circle fill="#AEBDC4" cx="36.82" cy="116.43" r="1.85"/>
		<circle fill="#AEBDC4" cx="41.14" cy="116.43" r="1.85"/>
		<circle fill="#AEBDC4" cx="45.46" cy="116.43" r="1.85"/>
		<circle fill="#AEBDC4" cx="49.79" cy="116.43" r="1.85"/>
	</g>
	<g>
		<circle fill="#AEBDC4" cx="10.89" cy="110.49" r="1.85"/>
		<circle fill="#AEBDC4" cx="15.21" cy="110.49" r="1.85"/>
		<circle fill="#AEBDC4" cx="19.54" cy="110.49" r="1.85"/>
		<circle fill="#AEBDC4" cx="23.86" cy="110.49" r="1.85"/>
		<circle fill="#AEBDC4" cx="28.18" cy="110.49" r="1.85"/>
		<circle fill="#AEBDC4" cx="32.5" cy="110.49" r="1.85"/>
		<circle fill="#AEBDC4" cx="36.82" cy="110.49" r="1.85"/>
		<circle fill="#AEBDC4" cx="41.14" cy="110.49" r="1.85"/>
		<circle fill="#AEBDC4" cx="45.46" cy="110.49" r="1.85"/>
		<circle fill="#AEBDC4" cx="49.79" cy="110.49" r="1.85"/>
	</g>
	<g>
		<circle fill="#AEBDC4" cx="10.89" cy="104.56" r="1.85"/>
		<circle fill="#AEBDC4" cx="15.21" cy="104.56" r="1.85"/>
		<circle fill="#AEBDC4" cx="19.54" cy="104.56" r="1.85"/>
		<circle fill="#AEBDC4" cx="23.86" cy="104.56" r="1.85"/>
		<circle fill="#AEBDC4" cx="28.18" cy="104.56" r="1.85"/>
		<circle fill="#AEBDC4" cx="32.5" cy="104.56" r="1.85"/>
		<circle fill="#AEBDC4" cx="36.82" cy="104.56" r="1.85"/>
		<circle fill="#AEBDC4" cx="41.14" cy="104.56" r="1.85"/>
		<circle fill="#AEBDC4" cx="45.46" cy="104.56" r="1.85"/>
		<circle fill="#AEBDC4" cx="49.79" cy="104.56" r="1.85"/>
		<circle fill="#AEBDC4" cx="54.12" cy="104.56" r="1.85"/>
	</g>
	<g>
		<circle fill="#AEBDC4" cx="10.89" cy="98.63" r="1.85"/>
		<circle fill="#AEBDC4" cx="15.21" cy="98.63" r="1.85"/>
		<circle fill="#AEBDC4" cx="19.54" cy="98.63" r="1.85"/>
		<circle fill="#AEBDC4" cx="23.86" cy="98.63" r="1.85"/>
		<circle fill="#AEBDC4" cx="28.18" cy="98.63" r="1.85"/>
		<circle fill="#AEBDC4" cx="32.5" cy="98.63" r="1.85"/>
		<circle fill="#AEBDC4" cx="36.82" cy="98.63" r="1.85"/>
		<circle fill="#AEBDC4" cx="41.14" cy="98.63" r="1.85"/>
		<circle fill="#AEBDC4" cx="45.46" cy="98.63" r="1.85"/>
		<circle fill="#AEBDC4" cx="49.79" cy="98.63" r="1.85"/>
		<circle fill="#AEBDC4" cx="54.12" cy="98.63" r="1.85"/>
	</g>
	<g>
		<circle fill="#AEBDC4" cx="10.89" cy="92.7" r="1.85"/>
		<circle fill="#AEBDC4" cx="15.21" cy="92.7" r="1.85"/>
		<circle fill="#AEBDC4" cx="19.54" cy="92.7" r="1.85"/>
		<circle fill="#AEBDC4" cx="23.86" cy="92.7" r="1.85"/>
		<circle fill="#AEBDC4" cx="28.18" cy="92.7" r="1.85"/>
		<circle fill="#AEBDC4" cx="32.5" cy="92.7" r="1.85"/>
		<circle fill="#AEBDC4" cx="36.82" cy="92.7" r="1.85"/>
		<circle fill="#AEBDC4" cx="41.14" cy="92.7" r="1.85"/>
		<circle fill="#AEBDC4" cx="45.46" cy="92.7" r="1.85"/>
		<circle fill="#AEBDC4" cx="49.79" cy="92.7" r="1.85"/>
		<circle fill="#AEBDC4" cx="54.12" cy="92.7" r="1.85"/>
		<circle fill="#AEBDC4" cx="58.45" cy="92.7" r="1.85"/>
	</g>
	<g>
		<circle fill="#AEBDC4" cx="10.89" cy="86.77" r="1.85"/>
		<circle fill="#AEBDC4" cx="15.21" cy="86.77" r="1.85"/>
		<circle fill="#AEBDC4" cx="19.54" cy="86.77" r="1.85"/>
		<circle fill="#AEBDC4" cx="23.86" cy="86.77" r="1.85"/>
		<circle fill="#AEBDC4" cx="28.18" cy="86.77" r="1.85"/>
		<circle fill="#AEBDC4" cx="32.5" cy="86.77" r="1.85"/>
		<circle fill="#AEBDC4" cx="36.82" cy="86.77" r="1.85"/>
		<circle fill="#AEBDC4" cx="41.14" cy="86.77" r="1.85"/>
		<circle fill="#AEBDC4" cx="45.46" cy="86.77" r="1.85"/>
		<circle fill="#AEBDC4" cx="49.79" cy="86.77" r="1.85"/>
		<circle fill="#AEBDC4" cx="54.12" cy="86.77" r="1.85"/>
		<circle fill="#AEBDC4" cx="58.45" cy="86.77" r="1.85"/>
	</g>
	<g>
		<circle fill="#AEBDC4" cx="10.89" cy="80.84" r="1.85"/>
		<circle fill="#AEBDC4" cx="15.21" cy="80.84" r="1.85"/>
		<circle fill="#AEBDC4" cx="19.54" cy="80.84" r="1.85"/>
		<circle fill="#AEBDC4" cx="23.86" cy="80.84" r="1.85"/>
		<circle fill="#AEBDC4" cx="28.18" cy="80.84" r="1.85"/>
		<circle fill="#AEBDC4" cx="32.5" cy="80.84" r="1.85"/>
		<circle fill="#AEBDC4" cx="36.82" cy="80.84" r="1.85"/>
		<circle fill="#AEBDC4" cx="41.14" cy="80.84" r="1.85"/>
		<circle fill="#AEBDC4" cx="45.46" cy="80.84" r="1.85"/>
		<circle fill="#AEBDC4" cx="49.79" cy="80.84" r="1.85"/>
		<circle fill="#AEBDC4" cx="54.12" cy="80.84" r="1.85"/>
		<circle fill="#AEBDC4" cx="58.45" cy="80.84" r="1.85"/>
	</g>
	<g>
		<circle fill="#AEBDC4" cx="10.89" cy="74.91" r="1.85"/>
		<circle fill="#AEBDC4" cx="15.21" cy="74.91" r="1.85"/>
		<circle fill="#AEBDC4" cx="19.54" cy="74.91" r="1.85"/>
		<circle fill="#AEBDC4" cx="23.86" cy="74.91" r="1.85"/>
		<circle fill="#AEBDC4" cx="28.18" cy="74.91" r="1.85"/>
		<circle fill="#AEBDC4" cx="32.5" cy="74.91" r="1.85"/>
		<circle fill="#AEBDC4" cx="36.82" cy="74.91" r="1.85"/>
		<circle fill="#AEBDC4" cx="41.14" cy="74.91" r="1.85"/>
		<circle fill="#AEBDC4" cx="45.46" cy="74.91" r="1.85"/>
		<circle fill="#AEBDC4" cx="49.79" cy="74.91" r="1.85"/>
		<circle fill="#AEBDC4" cx="54.12" cy="74.91" r="1.85"/>
		<circle fill="#AEBDC4" cx="58.45" cy="74.91" r="1.85"/>
		<circle fill="#AEBDC4" cx="62.79" cy="74.91" r="1.85"/>
	</g>
	<g>
		<circle fill="#AEBDC4" cx="10.89" cy="68.98" r="1.85"/>
		<circle fill="#AEBDC4" cx="15.21" cy="68.98" r="1.85"/>
		<circle fill="#AEBDC4" cx="19.54" cy="68.98" r="1.85"/>
		<circle fill="#AEBDC4" cx="23.86" cy="68.98" r="1.85"/>
		<circle fill="#AEBDC4" cx="28.18" cy="68.98" r="1.85"/>
		<circle fill="#AEBDC4" cx="32.5" cy="68.98" r="1.85"/>
		<circle fill="#AEBDC4" cx="36.82" cy="68.98" r="1.85"/>
		<circle fill="#AEBDC4" cx="41.14" cy="68.98" r="1.85"/>
		<circle fill="#AEBDC4" cx="45.46" cy="68.98" r="1.85"/>
		<circle fill="#AEBDC4" cx="49.79" cy="68.98" r="1.85"/>
		<circle fill="#AEBDC4" cx="54.12" cy="68.98" r="1.85"/>
		<circle fill="#AEBDC4" cx="58.45" cy="68.98" r="1.85"/>
		<circle fill="#AEBDC4" cx="62.79" cy="68.98" r="1.85"/>
	</g>
	<g>
		<circle fill="#AEBDC4" cx="10.89" cy="63.05" r="1.85"/>
		<circle fill="#AEBDC4" cx="15.21" cy="63.05" r="1.85"/>
		<circle fill="#AEBDC4" cx="19.54" cy="63.05" r="1.85"/>
		<circle fill="#AEBDC4" cx="23.86" cy="63.05" r="1.85"/>
		<circle fill="#AEBDC4" cx="28.18" cy="63.05" r="1.85"/>
		<circle fill="#AEBDC4" cx="32.5" cy="63.05" r="1.85"/>
		<circle fill="#AEBDC4" cx="36.82" cy="63.05" r="1.85"/>
		<circle fill="#AEBDC4" cx="41.14" cy="63.05" r="1.85"/>
		<circle fill="#AEBDC4" cx="45.46" cy="63.05" r="1.85"/>
		<circle fill="#AEBDC4" cx="49.79" cy="63.05" r="1.85"/>
		<circle fill="#AEBDC4" cx="54.12" cy="63.05" r="1.85"/>
		<circle fill="#AEBDC4" cx="58.45" cy="63.05" r="1.85"/>
		<circle fill="#AEBDC4" cx="62.79" cy="63.05" r="1.85"/>
		<circle fill="#AEBDC4" cx="67.12" cy="63.05" r="1.85"/>
	</g>
	<g>
		<circle fill="#AEBDC4" cx="10.89" cy="57.12" r="1.85"/>
		<circle fill="#AEBDC4" cx="15.21" cy="57.12" r="1.85"/>
		<circle fill="#AEBDC4" cx="19.54" cy="57.12" r="1.85"/>
		<circle fill="#AEBDC4" cx="23.86" cy="57.12" r="1.85"/>
		<circle fill="#AEBDC4" cx="28.18" cy="57.12" r="1.85"/>
		<circle fill="#AEBDC4" cx="32.5" cy="57.12" r="1.85"/>
		<circle fill="#AEBDC4" cx="36.82" cy="57.12" r="1.85"/>
		<circle fill="#AEBDC4" cx="41.14" cy="57.12" r="1.85"/>
		<circle fill="#AEBDC4" cx="45.46" cy="57.12" r="1.85"/>
		<circle fill="#AEBDC4" cx="49.79" cy="57.12" r="1.85"/>
		<circle fill="#AEBDC4" cx="54.12" cy="57.12" r="1.85"/>
		<circle fill="#AEBDC4" cx="58.45" cy="57.12" r="1.85"/>
		<circle fill="#AEBDC4" cx="62.79" cy="57.12" r="1.85"/>
		<circle fill="#AEBDC4" cx="67.12" cy="57.12" r="1.85"/>
	</g>
	<g>
		<circle fill="#AEBDC4" cx="10.89" cy="51.19" r="1.85"/>
		<circle fill="#AEBDC4" cx="15.21" cy="51.19" r="1.85"/>
		<circle fill="#AEBDC4" cx="19.54" cy="51.19" r="1.85"/>
		<circle fill="#AEBDC4" cx="23.86" cy="51.19" r="1.85"/>
		<circle fill="#AEBDC4" cx="28.18" cy="51.19" r="1.85"/>
		<circle fill="#AEBDC4" cx="32.5" cy="51.19" r="1.85"/>
		<circle fill="#AEBDC4" cx="36.82" cy="51.19" r="1.85"/>
		<circle fill="#AEBDC4" cx="41.14" cy="51.19" r="1.85"/>
		<circle fill="#AEBDC4" cx="45.46" cy="51.19" r="1.85"/>
		<circle fill="#AEBDC4" cx="49.79" cy="51.19" r="1.85"/>
		<circle fill="#AEBDC4" cx="54.12" cy="51.19" r="1.85"/>
		<circle fill="#AEBDC4" cx="58.45" cy="51.19" r="1.85"/>
		<circle fill="#AEBDC4" cx="62.79" cy="51.19" r="1.85"/>
		<circle fill="#AEBDC4" cx="67.12" cy="51.19" r="1.85"/>
	</g>
	<g>
		<circle fill="#AEBDC4" cx="10.89" cy="45.26" r="1.85"/>
		<circle fill="#AEBDC4" cx="15.21" cy="45.26" r="1.85"/>
		<circle fill="#AEBDC4" cx="19.54" cy="45.26" r="1.85"/>
		<circle fill="#AEBDC4" cx="23.86" cy="45.26" r="1.85"/>
		<circle fill="#AEBDC4" cx="28.18" cy="45.26" r="1.85"/>
		<circle fill="#AEBDC4" cx="32.5" cy="45.26" r="1.85"/>
		<circle fill="#AEBDC4" cx="36.82" cy="45.26" r="1.85"/>
		<circle fill="#AEBDC4" cx="41.14" cy="45.26" r="1.85"/>
		<circle fill="#AEBDC4" cx="45.46" cy="45.26" r="1.85"/>
		<circle fill="#AEBDC4" cx="49.79" cy="45.26" r="1.85"/>
		<circle fill="#AEBDC4" cx="54.12" cy="45.26" r="1.85"/>
		<circle fill="#AEBDC4" cx="58.45" cy="45.26" r="1.85"/>
		<circle fill="#AEBDC4" cx="62.79" cy="45.26" r="1.85"/>
		<circle fill="#AEBDC4" cx="67.12" cy="45.26" r="1.85"/>
		<circle fill="#AEBDC4" cx="71.45" cy="45.26" r="1.85"/>
	</g>
	<g>
		<circle fill="#AEBDC4" cx="10.89" cy="39.32" r="1.85"/>
		<circle fill="#AEBDC4" cx="15.21" cy="39.32" r="1.85"/>
		<circle fill="#AEBDC4" cx="19.54" cy="39.32" r="1.85"/>
		<circle fill="#AEBDC4" cx="23.86" cy="39.32" r="1.85"/>
		<circle fill="#AEBDC4" cx="28.18" cy="39.32" r="1.85"/>
		<circle fill="#AEBDC4" cx="32.5" cy="39.32" r="1.85"/>
		<circle fill="#AEBDC4" cx="36.82" cy="39.32" r="1.85"/>
		<circle fill="#AEBDC4" cx="41.14" cy="39.32" r="1.85"/>
		<circle fill="#AEBDC4" cx="45.46" cy="39.32" r="1.85"/>
		<circle fill="#AEBDC4" cx="49.79" cy="39.32" r="1.85"/>
		<circle fill="#AEBDC4" cx="54.12" cy="39.32" r="1.85"/>
		<circle fill="#AEBDC4" cx="58.45" cy="39.32" r="1.85"/>
		<circle fill="#AEBDC4" cx="62.79" cy="39.32" r="1.85"/>
		<circle fill="#AEBDC4" cx="67.12" cy="39.32" r="1.85"/>
		<circle fill="#AEBDC4" cx="71.45" cy="39.32" r="1.85"/>
	</g>
	<g>
		<circle fill="#AEBDC4" cx="10.89" cy="33.39" r="1.85"/>
		<circle fill="#AEBDC4" cx="15.21" cy="33.39" r="1.85"/>
		<circle fill="#AEBDC4" cx="19.54" cy="33.39" r="1.85"/>
		<circle fill="#AEBDC4" cx="23.86" cy="33.39" r="1.85"/>
		<circle fill="#AEBDC4" cx="28.18" cy="33.39" r="1.85"/>
		<circle fill="#AEBDC4" cx="32.5" cy="33.39" r="1.85"/>
		<circle fill="#AEBDC4" cx="36.82" cy="33.39" r="1.85"/>
		<circle fill="#AEBDC4" cx="41.14" cy="33.39" r="1.85"/>
		<circle fill="#AEBDC4" cx="45.46" cy="33.39" r="1.85"/>
		<circle fill="#AEBDC4" cx="49.79" cy="33.39" r="1.85"/>
		<circle fill="#AEBDC4" cx="54.12" cy="33.39" r="1.85"/>
		<circle fill="#AEBDC4" cx="58.45" cy="33.39" r="1.85"/>
		<circle fill="#AEBDC4" cx="62.79" cy="33.39" r="1.85"/>
		<circle fill="#AEBDC4" cx="67.12" cy="33.39" r="1.85"/>
		<circle fill="#AEBDC4" cx="71.45" cy="33.39" r="1.85"/>
		<circle fill="#AEBDC4" cx="75.78" cy="33.39" r="1.85"/>
	</g>
	<g>
		<circle fill="#AEBDC4" cx="19.54" cy="27.46" r="1.85"/>
		<circle fill="#AEBDC4" cx="23.86" cy="27.46" r="1.85"/>
		<circle fill="#AEBDC4" cx="28.18" cy="27.46" r="1.85"/>
		<circle fill="#AEBDC4" cx="32.5" cy="27.46" r="1.85"/>
		<circle fill="#AEBDC4" cx="36.82" cy="27.46" r="1.85"/>
		<circle fill="#AEBDC4" cx="41.14" cy="27.46" r="1.85"/>
		<circle fill="#AEBDC4" cx="45.46" cy="27.46" r="1.85"/>
		<circle fill="#AEBDC4" cx="49.78" cy="27.46" r="1.85"/>
		<circle fill="#AEBDC4" cx="54.1" cy="27.46" r="1.85"/>
		<circle fill="#AEBDC4" cx="58.44" cy="27.46" r="1.85"/>
		<circle fill="#AEBDC4" cx="62.77" cy="27.46" r="1.85"/>
		<circle fill="#AEBDC4" cx="67.1" cy="27.46" r="1.85"/>
		<circle fill="#AEBDC4" cx="71.43" cy="27.46" r="1.85"/>
		<circle fill="#AEBDC4" cx="75.76" cy="27.46" r="1.85"/>
	</g>
	<g>
		<circle fill="#AEBDC4" cx="19.54" cy="21.53" r="1.85"/>
		<circle fill="#AEBDC4" cx="23.86" cy="21.53" r="1.85"/>
		<circle fill="#AEBDC4" cx="28.18" cy="21.53" r="1.85"/>
		<circle fill="#AEBDC4" cx="32.5" cy="21.53" r="1.85"/>
		<circle fill="#AEBDC4" cx="36.82" cy="21.53" r="1.85"/>
		<circle fill="#AEBDC4" cx="41.14" cy="21.53" r="1.85"/>
		<circle fill="#AEBDC4" cx="45.46" cy="21.53" r="1.85"/>
		<circle fill="#AEBDC4" cx="49.78" cy="21.53" r="1.85"/>
		<circle fill="#AEBDC4" cx="54.1" cy="21.53" r="1.85"/>
		<circle fill="#AEBDC4" cx="58.44" cy="21.53" r="1.85"/>
		<circle fill="#AEBDC4" cx="62.77" cy="21.53" r="1.85"/>
		<circle fill="#AEBDC4" cx="67.1" cy="21.53" r="1.85"/>
		<circle fill="#AEBDC4" cx="71.43" cy="21.53" r="1.85"/>
		<circle fill="#AEBDC4" cx="75.76" cy="21.53" r="1.85"/>
		<circle fill="#AEBDC4" cx="80.09" cy="21.53" r="1.85"/>
	</g>
	<g>
		<circle fill="#AEBDC4" cx="19.54" cy="15.6" r="1.85"/>
		<circle fill="#AEBDC4" cx="23.86" cy="15.6" r="1.85"/>
		<circle fill="#AEBDC4" cx="28.18" cy="15.6" r="1.85"/>
		<circle fill="#AEBDC4" cx="32.5" cy="15.6" r="1.85"/>
		<circle fill="#AEBDC4" cx="36.82" cy="15.6" r="1.85"/>
		<circle fill="#AEBDC4" cx="41.14" cy="15.6" r="1.85"/>
		<circle fill="#AEBDC4" cx="45.46" cy="15.6" r="1.85"/>
		<circle fill="#AEBDC4" cx="49.78" cy="15.6" r="1.85"/>
		<circle fill="#AEBDC4" cx="54.1" cy="15.6" r="1.85"/>
		<circle fill="#AEBDC4" cx="58.44" cy="15.6" r="1.85"/>
		<circle fill="#AEBDC4" cx="62.77" cy="15.6" r="1.85"/>
		<circle fill="#AEBDC4" cx="67.1" cy="15.6" r="1.85"/>
		<circle fill="#AEBDC4" cx="71.43" cy="15.6" r="1.85"/>
		<circle fill="#AEBDC4" cx="75.76" cy="15.6" r="1.85"/>
		<circle fill="#AEBDC4" cx="80.09" cy="15.6" r="1.85"/>
	</g>
	<g>
		<circle fill="#AEBDC4" cx="19.54" cy="9.67" r="1.85"/>
		<circle fill="#AEBDC4" cx="23.86" cy="9.67" r="1.85"/>
		<circle fill="#AEBDC4" cx="28.18" cy="9.67" r="1.85"/>
		<circle fill="#AEBDC4" cx="32.5" cy="9.67" r="1.85"/>
		<circle fill="#AEBDC4" cx="36.82" cy="9.67" r="1.85"/>
		<circle fill="#AEBDC4" cx="41.14" cy="9.67" r="1.85"/>
		<circle fill="#AEBDC4" cx="45.46" cy="9.67" r="1.85"/>
		<circle fill="#AEBDC4" cx="49.78" cy="9.67" r="1.85"/>
		<circle fill="#AEBDC4" cx="54.1" cy="9.67" r="1.85"/>
		<circle fill="#AEBDC4" cx="58.44" cy="9.67" r="1.85"/>
		<circle fill="#AEBDC4" cx="62.77" cy="9.67" r="1.85"/>
		<circle fill="#AEBDC4" cx="67.1" cy="9.67" r="1.85"/>
		<circle fill="#AEBDC4" cx="71.43" cy="9.67" r="1.85"/>
		<circle fill="#AEBDC4" cx="75.76" cy="9.67" r="1.85"/>
		<circle fill="#AEBDC4" cx="80.09" cy="9.67" r="1.85"/>
	</g>
</g>
</svg>
