<?xml version="1.0" encoding="utf-8"?>
<!-- Generator: Adobe Illustrator 23.0.1, SVG Export Plug-In . SVG Version: 6.00 Build 0)  -->
<svg version="1.1" id="Layer_1" xmlns="http://www.w3.org/2000/svg" xmlns:xlink="http://www.w3.org/1999/xlink" x="0px" y="0px"
	 width="130px" height="132px" viewBox="0 0 130 132" enable-background="new 0 0 130 132" xml:space="preserve">
<g onclick="this.parentNode.sekt.push(this);this.a_name=&quot;W 2 (низ)&quot;;">
	
		<rect x="-0.39" y="1.26" onclick="this.parentNode.a_fon=this;" transform="matrix(-1.836970e-16 1 -1 -1.836970e-16 131 1)" fill="#F1F3F4" stroke="#BCC8CE" stroke-width="0.4" stroke-linecap="round" stroke-miterlimit="10" width="130.77" height="129.48"/>
	<g onclick="this.parentNode.a_row=this;">
		<g onclick="this.a_par={beg_namb:1,quant:24};">
			<line fill="none" stroke="#D3DBDF" stroke-width="0.4" stroke-miterlimit="10" x1="116.65" y1="122.34" x2="13.43" y2="122.34"/>
		</g>
		<g onclick="this.a_par={beg_namb:1,quant:24};">
			<line fill="none" stroke="#D3DBDF" stroke-width="0.4" stroke-miterlimit="10" x1="116.65" y1="116.41" x2="13.43" y2="116.41"/>
		</g>
		<g onclick="this.a_par={beg_namb:1,quant:24};">
			<line fill="none" stroke="#D3DBDF" stroke-width="0.4" stroke-miterlimit="10" x1="116.65" y1="110.48" x2="13.43" y2="110.48"/>
		</g>
		<g onclick="this.a_par={beg_namb:1,quant:24};">
			<line fill="none" stroke="#D3DBDF" stroke-width="0.4" stroke-miterlimit="10" x1="116.65" y1="104.55" x2="13.43" y2="104.55"/>
		</g>
		<g onclick="this.a_par={beg_namb:1,quant:24};">
			<line fill="none" stroke="#D3DBDF" stroke-width="0.4" stroke-miterlimit="10" x1="116.65" y1="98.62" x2="13.43" y2="98.62"/>
		</g>
		<g onclick="this.a_par={beg_namb:1,quant:24};">
			<line fill="none" stroke="#D3DBDF" stroke-width="0.4" stroke-miterlimit="10" x1="116.65" y1="92.68" x2="13.43" y2="92.68"/>
		</g>
		<g onclick="this.a_par={beg_namb:1,quant:24};">
			<line fill="none" stroke="#D3DBDF" stroke-width="0.4" stroke-miterlimit="10" x1="116.65" y1="86.75" x2="13.43" y2="86.75"/>
		</g>
		<g onclick="this.a_par={beg_namb:1,quant:24};">
			<line fill="none" stroke="#D3DBDF" stroke-width="0.4" stroke-miterlimit="10" x1="116.65" y1="80.82" x2="13.43" y2="80.82"/>
		</g>
		<g onclick="this.a_par={beg_namb:1,quant:24};">
			<line fill="none" stroke="#D3DBDF" stroke-width="0.4" stroke-miterlimit="10" x1="116.65" y1="74.89" x2="13.43" y2="74.89"/>
		</g>
		<g onclick="this.a_par={beg_namb:1,quant:24};">
			<line fill="none" stroke="#D3DBDF" stroke-width="0.4" stroke-miterlimit="10" x1="116.65" y1="68.96" x2="13.43" y2="68.96"/>
		</g>
		<g onclick="this.a_par={beg_namb:1,quant:24};">
			<line fill="none" stroke="#D3DBDF" stroke-width="0.4" stroke-miterlimit="10" x1="116.65" y1="63.03" x2="13.43" y2="63.03"/>
		</g>
		<g onclick="this.a_par={beg_namb:1,quant:24};">
			<line fill="none" stroke="#D3DBDF" stroke-width="0.4" stroke-miterlimit="10" x1="116.65" y1="57.1" x2="13.43" y2="57.1"/>
		</g>
		<g onclick="this.a_par={beg_namb:1,quant:24};">
			<line fill="none" stroke="#D3DBDF" stroke-width="0.4" stroke-miterlimit="10" x1="116.65" y1="51.17" x2="13.43" y2="51.17"/>
		</g>
		<g onclick="this.a_par={beg_namb:1,quant:24};">
			<line fill="none" stroke="#D3DBDF" stroke-width="0.4" stroke-miterlimit="10" x1="116.65" y1="45.24" x2="13.43" y2="45.24"/>
		</g>
		<g onclick="this.a_par={beg_namb:1,quant:24};">
			<line fill="none" stroke="#D3DBDF" stroke-width="0.4" stroke-miterlimit="10" x1="116.65" y1="39.31" x2="13.43" y2="39.31"/>
		</g>
		<g onclick="this.a_par={beg_namb:1,quant:24};">
			<line fill="none" stroke="#D3DBDF" stroke-width="0.4" stroke-miterlimit="10" x1="116.65" y1="33.38" x2="13.43" y2="33.38"/>
		</g>
		<g onclick="this.a_par={beg_namb:1,quant:20};">
			<line fill="none" stroke="#D3DBDF" stroke-width="0.4" stroke-miterlimit="10" x1="107.99" y1="27.45" x2="22.09" y2="27.45"/>
		</g>
		<g onclick="this.a_par={beg_namb:1,quant:20};">
			<line fill="none" stroke="#D3DBDF" stroke-width="0.4" stroke-miterlimit="10" x1="107.99" y1="21.51" x2="22.09" y2="21.51"/>
		</g>
		<g onclick="this.a_par={beg_namb:1,quant:20};">
			<line fill="none" stroke="#D3DBDF" stroke-width="0.4" stroke-miterlimit="10" x1="107.99" y1="15.58" x2="22.09" y2="15.58"/>
		</g>
		<g onclick="this.a_par={beg_namb:1,quant:20};">
			<line fill="none" stroke="#D3DBDF" stroke-width="0.4" stroke-miterlimit="10" x1="107.99" y1="9.65" x2="22.09" y2="9.65"/>
		</g>
	</g>
	<g>
		<g>
			<circle fill="#AEBDC4" cx="23.93" cy="9.65" r="1.85"/>
			<circle fill="#AEBDC4" cx="28.26" cy="9.65" r="1.85"/>
			<circle fill="#AEBDC4" cx="32.58" cy="9.65" r="1.85"/>
			<circle fill="#AEBDC4" cx="36.9" cy="9.65" r="1.85"/>
			<circle fill="#AEBDC4" cx="41.22" cy="9.65" r="1.85"/>
			<circle fill="#AEBDC4" cx="45.54" cy="9.65" r="1.85"/>
			<circle fill="#AEBDC4" cx="49.86" cy="9.65" r="1.85"/>
			<circle fill="#AEBDC4" cx="54.18" cy="9.65" r="1.85"/>
			<circle fill="#AEBDC4" cx="58.5" cy="9.65" r="1.85"/>
			<circle fill="#AEBDC4" cx="62.83" cy="9.65" r="1.85"/>
			<circle fill="#AEBDC4" cx="67.16" cy="9.65" r="1.85"/>
			<circle fill="#AEBDC4" cx="71.5" cy="9.65" r="1.85"/>
			<circle fill="#AEBDC4" cx="75.83" cy="9.65" r="1.85"/>
			<circle fill="#AEBDC4" cx="80.16" cy="9.65" r="1.85"/>
			<circle fill="#AEBDC4" cx="84.49" cy="9.65" r="1.85"/>
			<circle fill="#AEBDC4" cx="88.82" cy="9.65" r="1.85"/>
			<circle fill="#AEBDC4" cx="93.15" cy="9.65" r="1.85"/>
			<circle fill="#AEBDC4" cx="97.48" cy="9.65" r="1.85"/>
			<circle fill="#AEBDC4" cx="101.81" cy="9.65" r="1.85"/>
			<circle fill="#AEBDC4" cx="106.14" cy="9.65" r="1.85"/>
		</g>
		<g>
			<circle fill="#AEBDC4" cx="23.93" cy="15.58" r="1.85"/>
			<circle fill="#AEBDC4" cx="28.26" cy="15.58" r="1.85"/>
			<circle fill="#AEBDC4" cx="32.58" cy="15.58" r="1.85"/>
			<circle fill="#AEBDC4" cx="36.9" cy="15.58" r="1.85"/>
			<circle fill="#AEBDC4" cx="41.22" cy="15.58" r="1.85"/>
			<circle fill="#AEBDC4" cx="45.54" cy="15.58" r="1.85"/>
			<circle fill="#AEBDC4" cx="49.86" cy="15.58" r="1.85"/>
			<circle fill="#AEBDC4" cx="54.18" cy="15.58" r="1.85"/>
			<circle fill="#AEBDC4" cx="58.5" cy="15.58" r="1.85"/>
			<circle fill="#AEBDC4" cx="62.83" cy="15.58" r="1.85"/>
			<circle fill="#AEBDC4" cx="67.16" cy="15.58" r="1.85"/>
			<circle fill="#AEBDC4" cx="71.5" cy="15.58" r="1.85"/>
			<circle fill="#AEBDC4" cx="75.83" cy="15.58" r="1.85"/>
			<circle fill="#AEBDC4" cx="80.16" cy="15.58" r="1.85"/>
			<circle fill="#AEBDC4" cx="84.49" cy="15.58" r="1.85"/>
			<circle fill="#AEBDC4" cx="88.82" cy="15.58" r="1.85"/>
			<circle fill="#AEBDC4" cx="93.15" cy="15.58" r="1.85"/>
			<circle fill="#AEBDC4" cx="97.48" cy="15.58" r="1.85"/>
			<circle fill="#AEBDC4" cx="101.81" cy="15.58" r="1.85"/>
			<circle fill="#AEBDC4" cx="106.14" cy="15.58" r="1.85"/>
		</g>
		<g>
			<circle fill="#AEBDC4" cx="23.93" cy="21.51" r="1.85"/>
			<circle fill="#AEBDC4" cx="28.26" cy="21.51" r="1.85"/>
			<circle fill="#AEBDC4" cx="32.58" cy="21.51" r="1.85"/>
			<circle fill="#AEBDC4" cx="36.9" cy="21.51" r="1.85"/>
			<circle fill="#AEBDC4" cx="41.22" cy="21.51" r="1.85"/>
			<circle fill="#AEBDC4" cx="45.54" cy="21.51" r="1.85"/>
			<circle fill="#AEBDC4" cx="49.86" cy="21.51" r="1.85"/>
			<circle fill="#AEBDC4" cx="54.18" cy="21.51" r="1.85"/>
			<circle fill="#AEBDC4" cx="58.5" cy="21.51" r="1.85"/>
			<circle fill="#AEBDC4" cx="62.83" cy="21.51" r="1.85"/>
			<circle fill="#AEBDC4" cx="67.16" cy="21.51" r="1.85"/>
			<circle fill="#AEBDC4" cx="71.5" cy="21.51" r="1.85"/>
			<circle fill="#AEBDC4" cx="75.83" cy="21.51" r="1.85"/>
			<circle fill="#AEBDC4" cx="80.16" cy="21.51" r="1.85"/>
			<circle fill="#AEBDC4" cx="84.49" cy="21.51" r="1.85"/>
			<circle fill="#AEBDC4" cx="88.82" cy="21.51" r="1.85"/>
			<circle fill="#AEBDC4" cx="93.15" cy="21.51" r="1.85"/>
			<circle fill="#AEBDC4" cx="97.48" cy="21.51" r="1.85"/>
			<circle fill="#AEBDC4" cx="101.81" cy="21.51" r="1.85"/>
			<circle fill="#AEBDC4" cx="106.14" cy="21.51" r="1.85"/>
		</g>
		<g>
			<circle fill="#AEBDC4" cx="23.93" cy="27.45" r="1.85"/>
			<circle fill="#AEBDC4" cx="28.26" cy="27.45" r="1.85"/>
			<circle fill="#AEBDC4" cx="32.58" cy="27.45" r="1.85"/>
			<circle fill="#AEBDC4" cx="36.9" cy="27.45" r="1.85"/>
			<circle fill="#AEBDC4" cx="41.22" cy="27.45" r="1.85"/>
			<circle fill="#AEBDC4" cx="45.54" cy="27.45" r="1.85"/>
			<circle fill="#AEBDC4" cx="49.86" cy="27.45" r="1.85"/>
			<circle fill="#AEBDC4" cx="54.18" cy="27.45" r="1.85"/>
			<circle fill="#AEBDC4" cx="58.5" cy="27.45" r="1.85"/>
			<circle fill="#AEBDC4" cx="62.83" cy="27.45" r="1.85"/>
			<circle fill="#AEBDC4" cx="67.16" cy="27.45" r="1.85"/>
			<circle fill="#AEBDC4" cx="71.5" cy="27.45" r="1.85"/>
			<circle fill="#AEBDC4" cx="75.83" cy="27.45" r="1.85"/>
			<circle fill="#AEBDC4" cx="80.16" cy="27.45" r="1.85"/>
			<circle fill="#AEBDC4" cx="84.49" cy="27.45" r="1.85"/>
			<circle fill="#AEBDC4" cx="88.82" cy="27.45" r="1.85"/>
			<circle fill="#AEBDC4" cx="93.15" cy="27.45" r="1.85"/>
			<circle fill="#AEBDC4" cx="97.48" cy="27.45" r="1.85"/>
			<circle fill="#AEBDC4" cx="101.81" cy="27.45" r="1.85"/>
			<circle fill="#AEBDC4" cx="106.14" cy="27.45" r="1.85"/>
		</g>
		<g>
			<circle fill="#AEBDC4" cx="15.27" cy="122.34" r="1.85"/>
			<circle fill="#AEBDC4" cx="19.59" cy="122.34" r="1.85"/>
			<circle fill="#AEBDC4" cx="23.91" cy="122.34" r="1.85"/>
			<circle fill="#AEBDC4" cx="28.24" cy="122.34" r="1.85"/>
			<circle fill="#AEBDC4" cx="32.56" cy="122.34" r="1.85"/>
			<circle fill="#AEBDC4" cx="36.88" cy="122.34" r="1.85"/>
			<circle fill="#AEBDC4" cx="41.2" cy="122.34" r="1.85"/>
			<circle fill="#AEBDC4" cx="45.52" cy="122.34" r="1.85"/>
			<circle fill="#AEBDC4" cx="49.84" cy="122.34" r="1.85"/>
			<circle fill="#AEBDC4" cx="54.17" cy="122.34" r="1.85"/>
			<circle fill="#AEBDC4" cx="58.5" cy="122.34" r="1.85"/>
			<circle fill="#AEBDC4" cx="62.83" cy="122.34" r="1.85"/>
			<circle fill="#AEBDC4" cx="67.16" cy="122.34" r="1.85"/>
			<circle fill="#AEBDC4" cx="71.5" cy="122.34" r="1.85"/>
			<circle fill="#AEBDC4" cx="75.83" cy="122.34" r="1.85"/>
			<circle fill="#AEBDC4" cx="80.16" cy="122.34" r="1.85"/>
			<circle fill="#AEBDC4" cx="84.49" cy="122.34" r="1.85"/>
			<circle fill="#AEBDC4" cx="88.82" cy="122.34" r="1.85"/>
			<circle fill="#AEBDC4" cx="93.15" cy="122.34" r="1.85"/>
			<circle fill="#AEBDC4" cx="97.48" cy="122.34" r="1.85"/>
			<circle fill="#AEBDC4" cx="101.81" cy="122.34" r="1.85"/>
			<circle fill="#AEBDC4" cx="106.14" cy="122.34" r="1.85"/>
			<circle fill="#AEBDC4" cx="110.47" cy="122.34" r="1.85"/>
			<circle fill="#AEBDC4" cx="114.8" cy="122.34" r="1.85"/>
		</g>
		<g>
			<circle fill="#AEBDC4" cx="15.27" cy="116.41" r="1.85"/>
			<circle fill="#AEBDC4" cx="19.59" cy="116.41" r="1.85"/>
			<circle fill="#AEBDC4" cx="23.91" cy="116.41" r="1.85"/>
			<circle fill="#AEBDC4" cx="28.24" cy="116.41" r="1.85"/>
			<circle fill="#AEBDC4" cx="32.56" cy="116.41" r="1.85"/>
			<circle fill="#AEBDC4" cx="36.88" cy="116.41" r="1.85"/>
			<circle fill="#AEBDC4" cx="41.2" cy="116.41" r="1.85"/>
			<circle fill="#AEBDC4" cx="45.52" cy="116.41" r="1.85"/>
			<circle fill="#AEBDC4" cx="49.84" cy="116.41" r="1.85"/>
			<circle fill="#AEBDC4" cx="54.17" cy="116.41" r="1.85"/>
			<circle fill="#AEBDC4" cx="58.5" cy="116.41" r="1.85"/>
			<circle fill="#AEBDC4" cx="62.83" cy="116.41" r="1.85"/>
			<circle fill="#AEBDC4" cx="67.16" cy="116.41" r="1.85"/>
			<circle fill="#AEBDC4" cx="71.5" cy="116.41" r="1.85"/>
			<circle fill="#AEBDC4" cx="75.83" cy="116.41" r="1.85"/>
			<circle fill="#AEBDC4" cx="80.16" cy="116.41" r="1.85"/>
			<circle fill="#AEBDC4" cx="84.49" cy="116.41" r="1.85"/>
			<circle fill="#AEBDC4" cx="88.82" cy="116.41" r="1.85"/>
			<circle fill="#AEBDC4" cx="93.15" cy="116.41" r="1.85"/>
			<circle fill="#AEBDC4" cx="97.48" cy="116.41" r="1.85"/>
			<circle fill="#AEBDC4" cx="101.81" cy="116.41" r="1.85"/>
			<circle fill="#AEBDC4" cx="106.14" cy="116.41" r="1.85"/>
			<circle fill="#AEBDC4" cx="110.47" cy="116.41" r="1.85"/>
			<circle fill="#AEBDC4" cx="114.8" cy="116.41" r="1.85"/>
		</g>
		<g>
			<circle fill="#AEBDC4" cx="15.27" cy="110.48" r="1.85"/>
			<circle fill="#AEBDC4" cx="19.59" cy="110.48" r="1.85"/>
			<circle fill="#AEBDC4" cx="23.91" cy="110.48" r="1.85"/>
			<circle fill="#AEBDC4" cx="28.24" cy="110.48" r="1.85"/>
			<circle fill="#AEBDC4" cx="32.56" cy="110.48" r="1.85"/>
			<circle fill="#AEBDC4" cx="36.88" cy="110.48" r="1.85"/>
			<circle fill="#AEBDC4" cx="41.2" cy="110.48" r="1.85"/>
			<circle fill="#AEBDC4" cx="45.52" cy="110.48" r="1.85"/>
			<circle fill="#AEBDC4" cx="49.84" cy="110.48" r="1.85"/>
			<circle fill="#AEBDC4" cx="54.17" cy="110.48" r="1.85"/>
			<circle fill="#AEBDC4" cx="58.5" cy="110.48" r="1.85"/>
			<circle fill="#AEBDC4" cx="62.83" cy="110.48" r="1.85"/>
			<circle fill="#AEBDC4" cx="67.16" cy="110.48" r="1.85"/>
			<circle fill="#AEBDC4" cx="71.5" cy="110.48" r="1.85"/>
			<circle fill="#AEBDC4" cx="75.83" cy="110.48" r="1.85"/>
			<circle fill="#AEBDC4" cx="80.16" cy="110.48" r="1.85"/>
			<circle fill="#AEBDC4" cx="84.49" cy="110.48" r="1.85"/>
			<circle fill="#AEBDC4" cx="88.82" cy="110.48" r="1.85"/>
			<circle fill="#AEBDC4" cx="93.15" cy="110.48" r="1.85"/>
			<circle fill="#AEBDC4" cx="97.48" cy="110.48" r="1.85"/>
			<circle fill="#AEBDC4" cx="101.81" cy="110.48" r="1.85"/>
			<circle fill="#AEBDC4" cx="106.14" cy="110.48" r="1.85"/>
			<circle fill="#AEBDC4" cx="110.47" cy="110.48" r="1.85"/>
			<circle fill="#AEBDC4" cx="114.8" cy="110.48" r="1.85"/>
		</g>
		<g>
			<circle fill="#AEBDC4" cx="15.27" cy="104.55" r="1.85"/>
			<circle fill="#AEBDC4" cx="19.59" cy="104.55" r="1.85"/>
			<circle fill="#AEBDC4" cx="23.91" cy="104.55" r="1.85"/>
			<circle fill="#AEBDC4" cx="28.24" cy="104.55" r="1.85"/>
			<circle fill="#AEBDC4" cx="32.56" cy="104.55" r="1.85"/>
			<circle fill="#AEBDC4" cx="36.88" cy="104.55" r="1.85"/>
			<circle fill="#AEBDC4" cx="41.2" cy="104.55" r="1.85"/>
			<circle fill="#AEBDC4" cx="45.52" cy="104.55" r="1.85"/>
			<circle fill="#AEBDC4" cx="49.84" cy="104.55" r="1.85"/>
			<circle fill="#AEBDC4" cx="54.17" cy="104.55" r="1.85"/>
			<circle fill="#AEBDC4" cx="58.5" cy="104.55" r="1.85"/>
			<circle fill="#AEBDC4" cx="62.83" cy="104.55" r="1.85"/>
			<circle fill="#AEBDC4" cx="67.16" cy="104.55" r="1.85"/>
			<circle fill="#AEBDC4" cx="71.5" cy="104.55" r="1.85"/>
			<circle fill="#AEBDC4" cx="75.83" cy="104.55" r="1.85"/>
			<circle fill="#AEBDC4" cx="80.16" cy="104.55" r="1.85"/>
			<circle fill="#AEBDC4" cx="84.49" cy="104.55" r="1.85"/>
			<circle fill="#AEBDC4" cx="88.82" cy="104.55" r="1.85"/>
			<circle fill="#AEBDC4" cx="93.15" cy="104.55" r="1.85"/>
			<circle fill="#AEBDC4" cx="97.48" cy="104.55" r="1.85"/>
			<circle fill="#AEBDC4" cx="101.81" cy="104.55" r="1.85"/>
			<circle fill="#AEBDC4" cx="106.14" cy="104.55" r="1.85"/>
			<circle fill="#AEBDC4" cx="110.47" cy="104.55" r="1.85"/>
			<circle fill="#AEBDC4" cx="114.8" cy="104.55" r="1.85"/>
		</g>
		<g>
			<circle fill="#AEBDC4" cx="15.27" cy="92.68" r="1.85"/>
			<circle fill="#AEBDC4" cx="19.59" cy="92.68" r="1.85"/>
			<circle fill="#AEBDC4" cx="23.91" cy="92.68" r="1.85"/>
			<circle fill="#AEBDC4" cx="28.24" cy="92.68" r="1.85"/>
			<circle fill="#AEBDC4" cx="32.56" cy="92.68" r="1.85"/>
			<circle fill="#AEBDC4" cx="36.88" cy="92.68" r="1.85"/>
			<circle fill="#AEBDC4" cx="41.2" cy="92.68" r="1.85"/>
			<circle fill="#AEBDC4" cx="45.52" cy="92.68" r="1.85"/>
			<circle fill="#AEBDC4" cx="49.84" cy="92.68" r="1.85"/>
			<circle fill="#AEBDC4" cx="54.17" cy="92.68" r="1.85"/>
			<circle fill="#AEBDC4" cx="58.5" cy="92.68" r="1.85"/>
			<circle fill="#AEBDC4" cx="62.83" cy="92.68" r="1.85"/>
			<circle fill="#AEBDC4" cx="67.16" cy="92.68" r="1.85"/>
			<circle fill="#AEBDC4" cx="71.5" cy="92.68" r="1.85"/>
			<circle fill="#AEBDC4" cx="75.83" cy="92.68" r="1.85"/>
			<circle fill="#AEBDC4" cx="80.16" cy="92.68" r="1.85"/>
			<circle fill="#AEBDC4" cx="84.49" cy="92.68" r="1.85"/>
			<circle fill="#AEBDC4" cx="88.82" cy="92.68" r="1.85"/>
			<circle fill="#AEBDC4" cx="93.15" cy="92.68" r="1.85"/>
			<circle fill="#AEBDC4" cx="97.48" cy="92.68" r="1.85"/>
			<circle fill="#AEBDC4" cx="101.81" cy="92.68" r="1.85"/>
			<circle fill="#AEBDC4" cx="106.14" cy="92.68" r="1.85"/>
			<circle fill="#AEBDC4" cx="110.47" cy="92.68" r="1.85"/>
			<circle fill="#AEBDC4" cx="114.8" cy="92.68" r="1.85"/>
		</g>
		<g>
			<circle fill="#AEBDC4" cx="15.27" cy="98.62" r="1.85"/>
			<circle fill="#AEBDC4" cx="19.59" cy="98.62" r="1.85"/>
			<circle fill="#AEBDC4" cx="23.91" cy="98.62" r="1.85"/>
			<circle fill="#AEBDC4" cx="28.24" cy="98.62" r="1.85"/>
			<circle fill="#AEBDC4" cx="32.56" cy="98.62" r="1.85"/>
			<circle fill="#AEBDC4" cx="36.88" cy="98.62" r="1.85"/>
			<circle fill="#AEBDC4" cx="41.2" cy="98.62" r="1.85"/>
			<circle fill="#AEBDC4" cx="45.52" cy="98.62" r="1.85"/>
			<circle fill="#AEBDC4" cx="49.84" cy="98.62" r="1.85"/>
			<circle fill="#AEBDC4" cx="54.17" cy="98.62" r="1.85"/>
			<circle fill="#AEBDC4" cx="58.5" cy="98.62" r="1.85"/>
			<circle fill="#AEBDC4" cx="62.83" cy="98.62" r="1.85"/>
			<circle fill="#AEBDC4" cx="67.16" cy="98.62" r="1.85"/>
			<circle fill="#AEBDC4" cx="71.5" cy="98.62" r="1.85"/>
			<circle fill="#AEBDC4" cx="75.83" cy="98.62" r="1.85"/>
			<circle fill="#AEBDC4" cx="80.16" cy="98.62" r="1.85"/>
			<circle fill="#AEBDC4" cx="84.49" cy="98.62" r="1.85"/>
			<circle fill="#AEBDC4" cx="88.82" cy="98.62" r="1.85"/>
			<circle fill="#AEBDC4" cx="93.15" cy="98.62" r="1.85"/>
			<circle fill="#AEBDC4" cx="97.48" cy="98.62" r="1.85"/>
			<circle fill="#AEBDC4" cx="101.81" cy="98.62" r="1.85"/>
			<circle fill="#AEBDC4" cx="106.14" cy="98.62" r="1.85"/>
			<circle fill="#AEBDC4" cx="110.47" cy="98.62" r="1.85"/>
			<circle fill="#AEBDC4" cx="114.8" cy="98.62" r="1.85"/>
		</g>
		<g>
			<circle fill="#AEBDC4" cx="15.27" cy="86.75" r="1.85"/>
			<circle fill="#AEBDC4" cx="19.59" cy="86.75" r="1.85"/>
			<circle fill="#AEBDC4" cx="23.91" cy="86.75" r="1.85"/>
			<circle fill="#AEBDC4" cx="28.24" cy="86.75" r="1.85"/>
			<circle fill="#AEBDC4" cx="32.56" cy="86.75" r="1.85"/>
			<circle fill="#AEBDC4" cx="36.88" cy="86.75" r="1.85"/>
			<circle fill="#AEBDC4" cx="41.2" cy="86.75" r="1.85"/>
			<circle fill="#AEBDC4" cx="45.52" cy="86.75" r="1.85"/>
			<circle fill="#AEBDC4" cx="49.84" cy="86.75" r="1.85"/>
			<circle fill="#AEBDC4" cx="54.17" cy="86.75" r="1.85"/>
			<circle fill="#AEBDC4" cx="58.5" cy="86.75" r="1.85"/>
			<circle fill="#AEBDC4" cx="62.83" cy="86.75" r="1.85"/>
			<circle fill="#AEBDC4" cx="67.16" cy="86.75" r="1.85"/>
			<circle fill="#AEBDC4" cx="71.5" cy="86.75" r="1.85"/>
			<circle fill="#AEBDC4" cx="75.83" cy="86.75" r="1.85"/>
			<circle fill="#AEBDC4" cx="80.16" cy="86.75" r="1.85"/>
			<circle fill="#AEBDC4" cx="84.49" cy="86.75" r="1.85"/>
			<circle fill="#AEBDC4" cx="88.82" cy="86.75" r="1.85"/>
			<circle fill="#AEBDC4" cx="93.15" cy="86.75" r="1.85"/>
			<circle fill="#AEBDC4" cx="97.48" cy="86.75" r="1.85"/>
			<circle fill="#AEBDC4" cx="101.81" cy="86.75" r="1.85"/>
			<circle fill="#AEBDC4" cx="106.14" cy="86.75" r="1.85"/>
			<circle fill="#AEBDC4" cx="110.47" cy="86.75" r="1.85"/>
			<circle fill="#AEBDC4" cx="114.8" cy="86.75" r="1.85"/>
		</g>
		<g>
			<circle fill="#AEBDC4" cx="15.27" cy="80.82" r="1.85"/>
			<circle fill="#AEBDC4" cx="19.59" cy="80.82" r="1.85"/>
			<circle fill="#AEBDC4" cx="23.91" cy="80.82" r="1.85"/>
			<circle fill="#AEBDC4" cx="28.24" cy="80.82" r="1.85"/>
			<circle fill="#AEBDC4" cx="32.56" cy="80.82" r="1.85"/>
			<circle fill="#AEBDC4" cx="36.88" cy="80.82" r="1.85"/>
			<circle fill="#AEBDC4" cx="41.2" cy="80.82" r="1.85"/>
			<circle fill="#AEBDC4" cx="45.52" cy="80.82" r="1.85"/>
			<circle fill="#AEBDC4" cx="49.84" cy="80.82" r="1.85"/>
			<circle fill="#AEBDC4" cx="54.17" cy="80.82" r="1.85"/>
			<circle fill="#AEBDC4" cx="58.5" cy="80.82" r="1.85"/>
			<circle fill="#AEBDC4" cx="62.83" cy="80.82" r="1.85"/>
			<circle fill="#AEBDC4" cx="67.16" cy="80.82" r="1.85"/>
			<circle fill="#AEBDC4" cx="71.5" cy="80.82" r="1.85"/>
			<circle fill="#AEBDC4" cx="75.83" cy="80.82" r="1.85"/>
			<circle fill="#AEBDC4" cx="80.16" cy="80.82" r="1.85"/>
			<circle fill="#AEBDC4" cx="84.49" cy="80.82" r="1.85"/>
			<circle fill="#AEBDC4" cx="88.82" cy="80.82" r="1.85"/>
			<circle fill="#AEBDC4" cx="93.15" cy="80.82" r="1.85"/>
			<circle fill="#AEBDC4" cx="97.48" cy="80.82" r="1.85"/>
			<circle fill="#AEBDC4" cx="101.81" cy="80.82" r="1.85"/>
			<circle fill="#AEBDC4" cx="106.14" cy="80.82" r="1.85"/>
			<circle fill="#AEBDC4" cx="110.47" cy="80.82" r="1.85"/>
			<circle fill="#AEBDC4" cx="114.8" cy="80.82" r="1.85"/>
		</g>
		<g>
			<circle fill="#AEBDC4" cx="15.27" cy="74.89" r="1.85"/>
			<circle fill="#AEBDC4" cx="19.59" cy="74.89" r="1.85"/>
			<circle fill="#AEBDC4" cx="23.91" cy="74.89" r="1.85"/>
			<circle fill="#AEBDC4" cx="28.24" cy="74.89" r="1.85"/>
			<circle fill="#AEBDC4" cx="32.56" cy="74.89" r="1.85"/>
			<circle fill="#AEBDC4" cx="36.88" cy="74.89" r="1.85"/>
			<circle fill="#AEBDC4" cx="41.2" cy="74.89" r="1.85"/>
			<circle fill="#AEBDC4" cx="45.52" cy="74.89" r="1.85"/>
			<circle fill="#AEBDC4" cx="49.84" cy="74.89" r="1.85"/>
			<circle fill="#AEBDC4" cx="54.17" cy="74.89" r="1.85"/>
			<circle fill="#AEBDC4" cx="58.5" cy="74.89" r="1.85"/>
			<circle fill="#AEBDC4" cx="62.83" cy="74.89" r="1.85"/>
			<circle fill="#AEBDC4" cx="67.16" cy="74.89" r="1.85"/>
			<circle fill="#AEBDC4" cx="71.5" cy="74.89" r="1.85"/>
			<circle fill="#AEBDC4" cx="75.83" cy="74.89" r="1.85"/>
			<circle fill="#AEBDC4" cx="80.16" cy="74.89" r="1.85"/>
			<circle fill="#AEBDC4" cx="84.49" cy="74.89" r="1.85"/>
			<circle fill="#AEBDC4" cx="88.82" cy="74.89" r="1.85"/>
			<circle fill="#AEBDC4" cx="93.15" cy="74.89" r="1.85"/>
			<circle fill="#AEBDC4" cx="97.48" cy="74.89" r="1.85"/>
			<circle fill="#AEBDC4" cx="101.81" cy="74.89" r="1.85"/>
			<circle fill="#AEBDC4" cx="106.14" cy="74.89" r="1.85"/>
			<circle fill="#AEBDC4" cx="110.47" cy="74.89" r="1.85"/>
			<circle fill="#AEBDC4" cx="114.8" cy="74.89" r="1.85"/>
		</g>
		<g>
			<circle fill="#AEBDC4" cx="15.27" cy="63.03" r="1.85"/>
			<circle fill="#AEBDC4" cx="19.59" cy="63.03" r="1.85"/>
			<circle fill="#AEBDC4" cx="23.91" cy="63.03" r="1.85"/>
			<circle fill="#AEBDC4" cx="28.24" cy="63.03" r="1.85"/>
			<circle fill="#AEBDC4" cx="32.56" cy="63.03" r="1.85"/>
			<circle fill="#AEBDC4" cx="36.88" cy="63.03" r="1.85"/>
			<circle fill="#AEBDC4" cx="41.2" cy="63.03" r="1.85"/>
			<circle fill="#AEBDC4" cx="45.52" cy="63.03" r="1.85"/>
			<circle fill="#AEBDC4" cx="49.84" cy="63.03" r="1.85"/>
			<circle fill="#AEBDC4" cx="54.17" cy="63.03" r="1.85"/>
			<circle fill="#AEBDC4" cx="58.5" cy="63.03" r="1.85"/>
			<circle fill="#AEBDC4" cx="62.83" cy="63.03" r="1.85"/>
			<circle fill="#AEBDC4" cx="67.16" cy="63.03" r="1.85"/>
			<circle fill="#AEBDC4" cx="71.5" cy="63.03" r="1.85"/>
			<circle fill="#AEBDC4" cx="75.83" cy="63.03" r="1.85"/>
			<circle fill="#AEBDC4" cx="80.16" cy="63.03" r="1.85"/>
			<circle fill="#AEBDC4" cx="84.49" cy="63.03" r="1.85"/>
			<circle fill="#AEBDC4" cx="88.82" cy="63.03" r="1.85"/>
			<circle fill="#AEBDC4" cx="93.15" cy="63.03" r="1.85"/>
			<circle fill="#AEBDC4" cx="97.48" cy="63.03" r="1.85"/>
			<circle fill="#AEBDC4" cx="101.81" cy="63.03" r="1.85"/>
			<circle fill="#AEBDC4" cx="106.14" cy="63.03" r="1.85"/>
			<circle fill="#AEBDC4" cx="110.47" cy="63.03" r="1.85"/>
			<circle fill="#AEBDC4" cx="114.8" cy="63.03" r="1.85"/>
		</g>
		<g>
			<circle fill="#AEBDC4" cx="15.27" cy="68.96" r="1.85"/>
			<circle fill="#AEBDC4" cx="19.59" cy="68.96" r="1.85"/>
			<circle fill="#AEBDC4" cx="23.91" cy="68.96" r="1.85"/>
			<circle fill="#AEBDC4" cx="28.24" cy="68.96" r="1.85"/>
			<circle fill="#AEBDC4" cx="32.56" cy="68.96" r="1.85"/>
			<circle fill="#AEBDC4" cx="36.88" cy="68.96" r="1.85"/>
			<circle fill="#AEBDC4" cx="41.2" cy="68.96" r="1.85"/>
			<circle fill="#AEBDC4" cx="45.52" cy="68.96" r="1.85"/>
			<circle fill="#AEBDC4" cx="49.84" cy="68.96" r="1.85"/>
			<circle fill="#AEBDC4" cx="54.17" cy="68.96" r="1.85"/>
			<circle fill="#AEBDC4" cx="58.5" cy="68.96" r="1.85"/>
			<circle fill="#AEBDC4" cx="62.83" cy="68.96" r="1.85"/>
			<circle fill="#AEBDC4" cx="67.16" cy="68.96" r="1.85"/>
			<circle fill="#AEBDC4" cx="71.5" cy="68.96" r="1.85"/>
			<circle fill="#AEBDC4" cx="75.83" cy="68.96" r="1.85"/>
			<circle fill="#AEBDC4" cx="80.16" cy="68.96" r="1.85"/>
			<circle fill="#AEBDC4" cx="84.49" cy="68.96" r="1.85"/>
			<circle fill="#AEBDC4" cx="88.82" cy="68.96" r="1.85"/>
			<circle fill="#AEBDC4" cx="93.15" cy="68.96" r="1.85"/>
			<circle fill="#AEBDC4" cx="97.48" cy="68.96" r="1.85"/>
			<circle fill="#AEBDC4" cx="101.81" cy="68.96" r="1.85"/>
			<circle fill="#AEBDC4" cx="106.14" cy="68.96" r="1.85"/>
			<circle fill="#AEBDC4" cx="110.47" cy="68.96" r="1.85"/>
			<circle fill="#AEBDC4" cx="114.8" cy="68.96" r="1.85"/>
		</g>
		<g>
			<circle fill="#AEBDC4" cx="15.27" cy="57.1" r="1.85"/>
			<circle fill="#AEBDC4" cx="19.59" cy="57.1" r="1.85"/>
			<circle fill="#AEBDC4" cx="23.91" cy="57.1" r="1.85"/>
			<circle fill="#AEBDC4" cx="28.24" cy="57.1" r="1.85"/>
			<circle fill="#AEBDC4" cx="32.56" cy="57.1" r="1.85"/>
			<circle fill="#AEBDC4" cx="36.88" cy="57.1" r="1.85"/>
			<circle fill="#AEBDC4" cx="41.2" cy="57.1" r="1.85"/>
			<circle fill="#AEBDC4" cx="45.52" cy="57.1" r="1.85"/>
			<circle fill="#AEBDC4" cx="49.84" cy="57.1" r="1.85"/>
			<circle fill="#AEBDC4" cx="54.17" cy="57.1" r="1.85"/>
			<circle fill="#AEBDC4" cx="58.5" cy="57.1" r="1.85"/>
			<circle fill="#AEBDC4" cx="62.83" cy="57.1" r="1.85"/>
			<circle fill="#AEBDC4" cx="67.16" cy="57.1" r="1.85"/>
			<circle fill="#AEBDC4" cx="71.5" cy="57.1" r="1.85"/>
			<circle fill="#AEBDC4" cx="75.83" cy="57.1" r="1.85"/>
			<circle fill="#AEBDC4" cx="80.16" cy="57.1" r="1.85"/>
			<circle fill="#AEBDC4" cx="84.49" cy="57.1" r="1.85"/>
			<circle fill="#AEBDC4" cx="88.82" cy="57.1" r="1.85"/>
			<circle fill="#AEBDC4" cx="93.15" cy="57.1" r="1.85"/>
			<circle fill="#AEBDC4" cx="97.48" cy="57.1" r="1.85"/>
			<circle fill="#AEBDC4" cx="101.81" cy="57.1" r="1.85"/>
			<circle fill="#AEBDC4" cx="106.14" cy="57.1" r="1.85"/>
			<circle fill="#AEBDC4" cx="110.47" cy="57.1" r="1.85"/>
			<circle fill="#AEBDC4" cx="114.8" cy="57.1" r="1.85"/>
		</g>
		<g>
			<circle fill="#AEBDC4" cx="15.27" cy="51.17" r="1.85"/>
			<circle fill="#AEBDC4" cx="19.59" cy="51.17" r="1.85"/>
			<circle fill="#AEBDC4" cx="23.91" cy="51.17" r="1.85"/>
			<circle fill="#AEBDC4" cx="28.24" cy="51.17" r="1.85"/>
			<circle fill="#AEBDC4" cx="32.56" cy="51.17" r="1.85"/>
			<circle fill="#AEBDC4" cx="36.88" cy="51.17" r="1.85"/>
			<circle fill="#AEBDC4" cx="41.2" cy="51.17" r="1.85"/>
			<circle fill="#AEBDC4" cx="45.52" cy="51.17" r="1.85"/>
			<circle fill="#AEBDC4" cx="49.84" cy="51.17" r="1.85"/>
			<circle fill="#AEBDC4" cx="54.17" cy="51.17" r="1.85"/>
			<circle fill="#AEBDC4" cx="58.5" cy="51.17" r="1.85"/>
			<circle fill="#AEBDC4" cx="62.83" cy="51.17" r="1.85"/>
			<circle fill="#AEBDC4" cx="67.16" cy="51.17" r="1.85"/>
			<circle fill="#AEBDC4" cx="71.5" cy="51.17" r="1.85"/>
			<circle fill="#AEBDC4" cx="75.83" cy="51.17" r="1.85"/>
			<circle fill="#AEBDC4" cx="80.16" cy="51.17" r="1.85"/>
			<circle fill="#AEBDC4" cx="84.49" cy="51.17" r="1.85"/>
			<circle fill="#AEBDC4" cx="88.82" cy="51.17" r="1.85"/>
			<circle fill="#AEBDC4" cx="93.15" cy="51.17" r="1.85"/>
			<circle fill="#AEBDC4" cx="97.48" cy="51.17" r="1.85"/>
			<circle fill="#AEBDC4" cx="101.81" cy="51.17" r="1.85"/>
			<circle fill="#AEBDC4" cx="106.14" cy="51.17" r="1.85"/>
			<circle fill="#AEBDC4" cx="110.47" cy="51.17" r="1.85"/>
			<circle fill="#AEBDC4" cx="114.8" cy="51.17" r="1.85"/>
		</g>
		<g>
			<circle fill="#AEBDC4" cx="15.27" cy="45.24" r="1.85"/>
			<circle fill="#AEBDC4" cx="19.59" cy="45.24" r="1.85"/>
			<circle fill="#AEBDC4" cx="23.91" cy="45.24" r="1.85"/>
			<circle fill="#AEBDC4" cx="28.24" cy="45.24" r="1.85"/>
			<circle fill="#AEBDC4" cx="32.56" cy="45.24" r="1.85"/>
			<circle fill="#AEBDC4" cx="36.88" cy="45.24" r="1.85"/>
			<circle fill="#AEBDC4" cx="41.2" cy="45.24" r="1.85"/>
			<circle fill="#AEBDC4" cx="45.52" cy="45.24" r="1.85"/>
			<circle fill="#AEBDC4" cx="49.84" cy="45.24" r="1.85"/>
			<circle fill="#AEBDC4" cx="54.17" cy="45.24" r="1.85"/>
			<circle fill="#AEBDC4" cx="58.5" cy="45.24" r="1.85"/>
			<circle fill="#AEBDC4" cx="62.83" cy="45.24" r="1.85"/>
			<circle fill="#AEBDC4" cx="67.16" cy="45.24" r="1.85"/>
			<circle fill="#AEBDC4" cx="71.5" cy="45.24" r="1.85"/>
			<circle fill="#AEBDC4" cx="75.83" cy="45.24" r="1.85"/>
			<circle fill="#AEBDC4" cx="80.16" cy="45.24" r="1.85"/>
			<circle fill="#AEBDC4" cx="84.49" cy="45.24" r="1.85"/>
			<circle fill="#AEBDC4" cx="88.82" cy="45.24" r="1.85"/>
			<circle fill="#AEBDC4" cx="93.15" cy="45.24" r="1.85"/>
			<circle fill="#AEBDC4" cx="97.48" cy="45.24" r="1.85"/>
			<circle fill="#AEBDC4" cx="101.81" cy="45.24" r="1.85"/>
			<circle fill="#AEBDC4" cx="106.14" cy="45.24" r="1.85"/>
			<circle fill="#AEBDC4" cx="110.47" cy="45.24" r="1.85"/>
			<circle fill="#AEBDC4" cx="114.8" cy="45.24" r="1.85"/>
		</g>
		<g>
			<circle fill="#AEBDC4" cx="15.27" cy="39.31" r="1.85"/>
			<circle fill="#AEBDC4" cx="19.59" cy="39.31" r="1.85"/>
			<circle fill="#AEBDC4" cx="23.91" cy="39.31" r="1.85"/>
			<circle fill="#AEBDC4" cx="28.24" cy="39.31" r="1.85"/>
			<circle fill="#AEBDC4" cx="32.56" cy="39.31" r="1.85"/>
			<circle fill="#AEBDC4" cx="36.88" cy="39.31" r="1.85"/>
			<circle fill="#AEBDC4" cx="41.2" cy="39.31" r="1.85"/>
			<circle fill="#AEBDC4" cx="45.52" cy="39.31" r="1.85"/>
			<circle fill="#AEBDC4" cx="49.84" cy="39.31" r="1.85"/>
			<circle fill="#AEBDC4" cx="54.17" cy="39.31" r="1.85"/>
			<circle fill="#AEBDC4" cx="58.5" cy="39.31" r="1.85"/>
			<circle fill="#AEBDC4" cx="62.83" cy="39.31" r="1.85"/>
			<circle fill="#AEBDC4" cx="67.16" cy="39.31" r="1.85"/>
			<circle fill="#AEBDC4" cx="71.5" cy="39.31" r="1.85"/>
			<circle fill="#AEBDC4" cx="75.83" cy="39.31" r="1.85"/>
			<circle fill="#AEBDC4" cx="80.16" cy="39.31" r="1.85"/>
			<circle fill="#AEBDC4" cx="84.49" cy="39.31" r="1.85"/>
			<circle fill="#AEBDC4" cx="88.82" cy="39.31" r="1.85"/>
			<circle fill="#AEBDC4" cx="93.15" cy="39.31" r="1.85"/>
			<circle fill="#AEBDC4" cx="97.48" cy="39.31" r="1.85"/>
			<circle fill="#AEBDC4" cx="101.81" cy="39.31" r="1.85"/>
			<circle fill="#AEBDC4" cx="106.14" cy="39.31" r="1.85"/>
			<circle fill="#AEBDC4" cx="110.47" cy="39.31" r="1.85"/>
			<circle fill="#AEBDC4" cx="114.8" cy="39.31" r="1.85"/>
		</g>
		<g>
			<circle fill="#AEBDC4" cx="15.27" cy="33.38" r="1.85"/>
			<circle fill="#AEBDC4" cx="19.59" cy="33.38" r="1.85"/>
			<circle fill="#AEBDC4" cx="23.91" cy="33.38" r="1.85"/>
			<circle fill="#AEBDC4" cx="28.24" cy="33.38" r="1.85"/>
			<circle fill="#AEBDC4" cx="32.56" cy="33.38" r="1.85"/>
			<circle fill="#AEBDC4" cx="36.88" cy="33.38" r="1.85"/>
			<circle fill="#AEBDC4" cx="41.2" cy="33.38" r="1.85"/>
			<circle fill="#AEBDC4" cx="45.52" cy="33.38" r="1.85"/>
			<circle fill="#AEBDC4" cx="49.84" cy="33.38" r="1.85"/>
			<circle fill="#AEBDC4" cx="54.17" cy="33.38" r="1.85"/>
			<circle fill="#AEBDC4" cx="58.5" cy="33.38" r="1.85"/>
			<circle fill="#AEBDC4" cx="62.83" cy="33.38" r="1.85"/>
			<circle fill="#AEBDC4" cx="67.16" cy="33.38" r="1.85"/>
			<circle fill="#AEBDC4" cx="71.5" cy="33.38" r="1.85"/>
			<circle fill="#AEBDC4" cx="75.83" cy="33.38" r="1.85"/>
			<circle fill="#AEBDC4" cx="80.16" cy="33.38" r="1.85"/>
			<circle fill="#AEBDC4" cx="84.49" cy="33.38" r="1.85"/>
			<circle fill="#AEBDC4" cx="88.82" cy="33.38" r="1.85"/>
			<circle fill="#AEBDC4" cx="93.15" cy="33.38" r="1.85"/>
			<circle fill="#AEBDC4" cx="97.48" cy="33.38" r="1.85"/>
			<circle fill="#AEBDC4" cx="101.81" cy="33.38" r="1.85"/>
			<circle fill="#AEBDC4" cx="106.14" cy="33.38" r="1.85"/>
			<circle fill="#AEBDC4" cx="110.47" cy="33.38" r="1.85"/>
			<circle fill="#AEBDC4" cx="114.8" cy="33.38" r="1.85"/>
		</g>
	</g>
	<g onclick="this.parentNode.a_text=this;">
		<text transform="matrix(0.9999 0 0 1 59.3187 88.3286)"><tspan x="0" y="0" font-family="'OpenSans-Semibold'" font-size="6.3996px">W 2</tspan><tspan x="-2.48" y="7.2" font-family="'OpenSans-Semibold'" font-size="6.3996px">(</tspan><tspan x="-0.44" y="7.2" font-family="'OpenSans-Semibold'" font-size="6.3996px">н</tspan><tspan x="3.91" y="7.2" font-family="'OpenSans-Semibold'" font-size="6.3996px">и</tspan><tspan x="8.47" y="7.2" font-family="'OpenSans-Semibold'" font-size="6.3996px">з</tspan><tspan x="11.82" y="7.2" font-family="'OpenSans-Semibold'" font-size="6.3996px">)</tspan></text>
	</g>
</g>
</svg>
