<?xml version="1.0" encoding="utf-8"?>
<!-- Generator: Adobe Illustrator 23.0.1, SVG Export Plug-In . SVG Version: 6.00 Build 0)  -->
<svg version="1.1" id="Layer_1" xmlns="http://www.w3.org/2000/svg" xmlns:xlink="http://www.w3.org/1999/xlink" x="0px" y="0px"
  viewBox="0 0 130 132" enable-background="new 0 0 130 132" xml:space="preserve">
  <rect x="0.26" y="0.61" fill="#F1F3F4" stroke="#BCC8CE" stroke-width="0.4" stroke-linecap="round" stroke-miterlimit="10" width="129.48" height="130.77"/>
  <g 
    data-sort-seat-direction="rtl" 
    data-sort-line-direction="btt" 
    data-sort-seat-option="cx" 
    data-sort-line-option="cy" 
    data-line-start="1"
    >
    <g>
      <circle fill="#AEBDC4" cx="15.27" cy="122.34" r="1.85"/>
      <circle fill="#AEBDC4" cx="19.59" cy="122.34" r="1.85"/>
      <circle fill="#AEBDC4" cx="23.91" cy="122.34" r="1.85"/>
      <circle fill="#AEBDC4" cx="28.24" cy="122.34" r="1.85"/>
      <circle fill="#AEBDC4" cx="32.56" cy="122.34" r="1.85"/>
      <circle fill="#AEBDC4" cx="36.88" cy="122.34" r="1.85"/>
      <circle fill="#AEBDC4" cx="41.2" cy="122.34" r="1.85"/>
      <circle fill="#AEBDC4" cx="45.52" cy="122.34" r="1.85"/>
      <circle fill="#AEBDC4" cx="49.84" cy="122.34" r="1.85"/>
      <circle fill="#AEBDC4" cx="54.17" cy="122.34" r="1.85"/>
      <circle fill="#AEBDC4" cx="58.5" cy="122.34" r="1.85"/>
      <circle fill="#AEBDC4" cx="62.83" cy="122.34" r="1.85"/>
      <circle fill="#AEBDC4" cx="67.16" cy="122.34" r="1.85"/>
      <circle fill="#AEBDC4" cx="71.5" cy="122.34" r="1.85"/>
      <circle fill="#AEBDC4" cx="75.83" cy="122.34" r="1.85"/>
      <circle fill="#AEBDC4" cx="80.16" cy="122.34" r="1.85"/>
      <circle fill="#AEBDC4" cx="84.49" cy="122.34" r="1.85"/>
      <circle fill="#AEBDC4" cx="88.82" cy="122.34" r="1.85"/>
      <circle fill="#AEBDC4" cx="93.15" cy="122.34" r="1.85"/>
      <circle fill="#AEBDC4" cx="97.48" cy="122.34" r="1.85"/>
      <circle fill="#AEBDC4" cx="101.81" cy="122.34" r="1.85"/>
      <circle fill="#AEBDC4" cx="106.14" cy="122.34" r="1.85"/>
      <circle fill="#AEBDC4" cx="110.47" cy="122.34" r="1.85"/>
      <circle fill="#AEBDC4" cx="114.8" cy="122.34" r="1.85"/>
    </g>
    <g>
      <circle fill="#AEBDC4" cx="15.27" cy="116.41" r="1.85"/>
      <circle fill="#AEBDC4" cx="19.59" cy="116.41" r="1.85"/>
      <circle fill="#AEBDC4" cx="23.91" cy="116.41" r="1.85"/>
      <circle fill="#AEBDC4" cx="28.24" cy="116.41" r="1.85"/>
      <circle fill="#AEBDC4" cx="32.56" cy="116.41" r="1.85"/>
      <circle fill="#AEBDC4" cx="36.88" cy="116.41" r="1.85"/>
      <circle fill="#AEBDC4" cx="41.2" cy="116.41" r="1.85"/>
      <circle fill="#AEBDC4" cx="45.52" cy="116.41" r="1.85"/>
      <circle fill="#AEBDC4" cx="49.84" cy="116.41" r="1.85"/>
      <circle fill="#AEBDC4" cx="54.17" cy="116.41" r="1.85"/>
      <circle fill="#AEBDC4" cx="58.5" cy="116.41" r="1.85"/>
      <circle fill="#AEBDC4" cx="62.83" cy="116.41" r="1.85"/>
      <circle fill="#AEBDC4" cx="67.16" cy="116.41" r="1.85"/>
      <circle fill="#AEBDC4" cx="71.5" cy="116.41" r="1.85"/>
      <circle fill="#AEBDC4" cx="75.83" cy="116.41" r="1.85"/>
      <circle fill="#AEBDC4" cx="80.16" cy="116.41" r="1.85"/>
      <circle fill="#AEBDC4" cx="84.49" cy="116.41" r="1.85"/>
      <circle fill="#AEBDC4" cx="88.82" cy="116.41" r="1.85"/>
      <circle fill="#AEBDC4" cx="93.15" cy="116.41" r="1.85"/>
      <circle fill="#AEBDC4" cx="97.48" cy="116.41" r="1.85"/>
      <circle fill="#AEBDC4" cx="101.81" cy="116.41" r="1.85"/>
      <circle fill="#AEBDC4" cx="106.14" cy="116.41" r="1.85"/>
      <circle fill="#AEBDC4" cx="110.47" cy="116.41" r="1.85"/>
      <circle fill="#AEBDC4" cx="114.8" cy="116.41" r="1.85"/>
    </g>
    <g>
      <circle fill="#AEBDC4" cx="15.27" cy="110.48" r="1.85"/>
      <circle fill="#AEBDC4" cx="19.59" cy="110.48" r="1.85"/>
      <circle fill="#AEBDC4" cx="23.91" cy="110.48" r="1.85"/>
      <circle fill="#AEBDC4" cx="28.24" cy="110.48" r="1.85"/>
      <circle fill="#AEBDC4" cx="32.56" cy="110.48" r="1.85"/>
      <circle fill="#AEBDC4" cx="36.88" cy="110.48" r="1.85"/>
      <circle fill="#AEBDC4" cx="41.2" cy="110.48" r="1.85"/>
      <circle fill="#AEBDC4" cx="45.52" cy="110.48" r="1.85"/>
      <circle fill="#AEBDC4" cx="49.84" cy="110.48" r="1.85"/>
      <circle fill="#AEBDC4" cx="54.17" cy="110.48" r="1.85"/>
      <circle fill="#AEBDC4" cx="58.5" cy="110.48" r="1.85"/>
      <circle fill="#AEBDC4" cx="62.83" cy="110.48" r="1.85"/>
      <circle fill="#AEBDC4" cx="67.16" cy="110.48" r="1.85"/>
      <circle fill="#AEBDC4" cx="71.5" cy="110.48" r="1.85"/>
      <circle fill="#AEBDC4" cx="75.83" cy="110.48" r="1.85"/>
      <circle fill="#AEBDC4" cx="80.16" cy="110.48" r="1.85"/>
      <circle fill="#AEBDC4" cx="84.49" cy="110.48" r="1.85"/>
      <circle fill="#AEBDC4" cx="88.82" cy="110.48" r="1.85"/>
      <circle fill="#AEBDC4" cx="93.15" cy="110.48" r="1.85"/>
      <circle fill="#AEBDC4" cx="97.48" cy="110.48" r="1.85"/>
      <circle fill="#AEBDC4" cx="101.81" cy="110.48" r="1.85"/>
      <circle fill="#AEBDC4" cx="106.14" cy="110.48" r="1.85"/>
      <circle fill="#AEBDC4" cx="110.47" cy="110.48" r="1.85"/>
      <circle fill="#AEBDC4" cx="114.8" cy="110.48" r="1.85"/>
    </g>
    <g>
      <circle fill="#AEBDC4" cx="15.27" cy="104.55" r="1.85"/>
      <circle fill="#AEBDC4" cx="19.59" cy="104.55" r="1.85"/>
      <circle fill="#AEBDC4" cx="23.91" cy="104.55" r="1.85"/>
      <circle fill="#AEBDC4" cx="28.24" cy="104.55" r="1.85"/>
      <circle fill="#AEBDC4" cx="32.56" cy="104.55" r="1.85"/>
      <circle fill="#AEBDC4" cx="36.88" cy="104.55" r="1.85"/>
      <circle fill="#AEBDC4" cx="41.2" cy="104.55" r="1.85"/>
      <circle fill="#AEBDC4" cx="45.52" cy="104.55" r="1.85"/>
      <circle fill="#AEBDC4" cx="49.84" cy="104.55" r="1.85"/>
      <circle fill="#AEBDC4" cx="54.17" cy="104.55" r="1.85"/>
      <circle fill="#AEBDC4" cx="58.5" cy="104.55" r="1.85"/>
      <circle fill="#AEBDC4" cx="62.83" cy="104.55" r="1.85"/>
      <circle fill="#AEBDC4" cx="67.16" cy="104.55" r="1.85"/>
      <circle fill="#AEBDC4" cx="71.5" cy="104.55" r="1.85"/>
      <circle fill="#AEBDC4" cx="75.83" cy="104.55" r="1.85"/>
      <circle fill="#AEBDC4" cx="80.16" cy="104.55" r="1.85"/>
      <circle fill="#AEBDC4" cx="84.49" cy="104.55" r="1.85"/>
      <circle fill="#AEBDC4" cx="88.82" cy="104.55" r="1.85"/>
      <circle fill="#AEBDC4" cx="93.15" cy="104.55" r="1.85"/>
      <circle fill="#AEBDC4" cx="97.48" cy="104.55" r="1.85"/>
      <circle fill="#AEBDC4" cx="101.81" cy="104.55" r="1.85"/>
      <circle fill="#AEBDC4" cx="106.14" cy="104.55" r="1.85"/>
      <circle fill="#AEBDC4" cx="110.47" cy="104.55" r="1.85"/>
      <circle fill="#AEBDC4" cx="114.8" cy="104.55" r="1.85"/>
    </g>
    <g>
      <circle fill="#AEBDC4" cx="15.27" cy="98.62" r="1.85"/>
      <circle fill="#AEBDC4" cx="19.59" cy="98.62" r="1.85"/>
      <circle fill="#AEBDC4" cx="23.91" cy="98.62" r="1.85"/>
      <circle fill="#AEBDC4" cx="28.24" cy="98.62" r="1.85"/>
      <circle fill="#AEBDC4" cx="32.56" cy="98.62" r="1.85"/>
      <circle fill="#AEBDC4" cx="36.88" cy="98.62" r="1.85"/>
      <circle fill="#AEBDC4" cx="41.2" cy="98.62" r="1.85"/>
      <circle fill="#AEBDC4" cx="45.52" cy="98.62" r="1.85"/>
      <circle fill="#AEBDC4" cx="49.84" cy="98.62" r="1.85"/>
      <circle fill="#AEBDC4" cx="54.17" cy="98.62" r="1.85"/>
      <circle fill="#AEBDC4" cx="58.5" cy="98.62" r="1.85"/>
      <circle fill="#AEBDC4" cx="62.83" cy="98.62" r="1.85"/>
      <circle fill="#AEBDC4" cx="67.16" cy="98.62" r="1.85"/>
      <circle fill="#AEBDC4" cx="71.5" cy="98.62" r="1.85"/>
      <circle fill="#AEBDC4" cx="75.83" cy="98.62" r="1.85"/>
      <circle fill="#AEBDC4" cx="80.16" cy="98.62" r="1.85"/>
      <circle fill="#AEBDC4" cx="84.49" cy="98.62" r="1.85"/>
      <circle fill="#AEBDC4" cx="88.82" cy="98.62" r="1.85"/>
      <circle fill="#AEBDC4" cx="93.15" cy="98.62" r="1.85"/>
      <circle fill="#AEBDC4" cx="97.48" cy="98.62" r="1.85"/>
      <circle fill="#AEBDC4" cx="101.81" cy="98.62" r="1.85"/>
      <circle fill="#AEBDC4" cx="106.14" cy="98.62" r="1.85"/>
      <circle fill="#AEBDC4" cx="110.47" cy="98.62" r="1.85"/>
      <circle fill="#AEBDC4" cx="114.8" cy="98.62" r="1.85"/>
    </g>
    <g>
      <circle fill="#AEBDC4" cx="15.27" cy="92.68" r="1.85"/>
      <circle fill="#AEBDC4" cx="19.59" cy="92.68" r="1.85"/>
      <circle fill="#AEBDC4" cx="23.91" cy="92.68" r="1.85"/>
      <circle fill="#AEBDC4" cx="28.24" cy="92.68" r="1.85"/>
      <circle fill="#AEBDC4" cx="32.56" cy="92.68" r="1.85"/>
      <circle fill="#AEBDC4" cx="36.88" cy="92.68" r="1.85"/>
      <circle fill="#AEBDC4" cx="41.2" cy="92.68" r="1.85"/>
      <circle fill="#AEBDC4" cx="45.52" cy="92.68" r="1.85"/>
      <circle fill="#AEBDC4" cx="49.84" cy="92.68" r="1.85"/>
      <circle fill="#AEBDC4" cx="54.17" cy="92.68" r="1.85"/>
      <circle fill="#AEBDC4" cx="58.5" cy="92.68" r="1.85"/>
      <circle fill="#AEBDC4" cx="62.83" cy="92.68" r="1.85"/>
      <circle fill="#AEBDC4" cx="67.16" cy="92.68" r="1.85"/>
      <circle fill="#AEBDC4" cx="71.5" cy="92.68" r="1.85"/>
      <circle fill="#AEBDC4" cx="75.83" cy="92.68" r="1.85"/>
      <circle fill="#AEBDC4" cx="80.16" cy="92.68" r="1.85"/>
      <circle fill="#AEBDC4" cx="84.49" cy="92.68" r="1.85"/>
      <circle fill="#AEBDC4" cx="88.82" cy="92.68" r="1.85"/>
      <circle fill="#AEBDC4" cx="93.15" cy="92.68" r="1.85"/>
      <circle fill="#AEBDC4" cx="97.48" cy="92.68" r="1.85"/>
      <circle fill="#AEBDC4" cx="101.81" cy="92.68" r="1.85"/>
      <circle fill="#AEBDC4" cx="106.14" cy="92.68" r="1.85"/>
      <circle fill="#AEBDC4" cx="110.47" cy="92.68" r="1.85"/>
      <circle fill="#AEBDC4" cx="114.8" cy="92.68" r="1.85"/>
    </g>
    <g>
      <circle fill="#AEBDC4" cx="15.27" cy="86.75" r="1.85"/>
      <circle fill="#AEBDC4" cx="19.59" cy="86.75" r="1.85"/>
      <circle fill="#AEBDC4" cx="23.91" cy="86.75" r="1.85"/>
      <circle fill="#AEBDC4" cx="28.24" cy="86.75" r="1.85"/>
      <circle fill="#AEBDC4" cx="32.56" cy="86.75" r="1.85"/>
      <circle fill="#AEBDC4" cx="36.88" cy="86.75" r="1.85"/>
      <circle fill="#AEBDC4" cx="41.2" cy="86.75" r="1.85"/>
      <circle fill="#AEBDC4" cx="45.52" cy="86.75" r="1.85"/>
      <circle fill="#AEBDC4" cx="49.84" cy="86.75" r="1.85"/>
      <circle fill="#AEBDC4" cx="54.17" cy="86.75" r="1.85"/>
      <circle fill="#AEBDC4" cx="58.5" cy="86.75" r="1.85"/>
      <circle fill="#AEBDC4" cx="62.83" cy="86.75" r="1.85"/>
      <circle fill="#AEBDC4" cx="67.16" cy="86.75" r="1.85"/>
      <circle fill="#AEBDC4" cx="71.5" cy="86.75" r="1.85"/>
      <circle fill="#AEBDC4" cx="75.83" cy="86.75" r="1.85"/>
      <circle fill="#AEBDC4" cx="80.16" cy="86.75" r="1.85"/>
      <circle fill="#AEBDC4" cx="84.49" cy="86.75" r="1.85"/>
      <circle fill="#AEBDC4" cx="88.82" cy="86.75" r="1.85"/>
      <circle fill="#AEBDC4" cx="93.15" cy="86.75" r="1.85"/>
      <circle fill="#AEBDC4" cx="97.48" cy="86.75" r="1.85"/>
      <circle fill="#AEBDC4" cx="101.81" cy="86.75" r="1.85"/>
      <circle fill="#AEBDC4" cx="106.14" cy="86.75" r="1.85"/>
      <circle fill="#AEBDC4" cx="110.47" cy="86.75" r="1.85"/>
      <circle fill="#AEBDC4" cx="114.8" cy="86.75" r="1.85"/>
    </g>
    <g>
      <circle fill="#AEBDC4" cx="15.27" cy="80.82" r="1.85"/>
      <circle fill="#AEBDC4" cx="19.59" cy="80.82" r="1.85"/>
      <circle fill="#AEBDC4" cx="23.91" cy="80.82" r="1.85"/>
      <circle fill="#AEBDC4" cx="28.24" cy="80.82" r="1.85"/>
      <circle fill="#AEBDC4" cx="32.56" cy="80.82" r="1.85"/>
      <circle fill="#AEBDC4" cx="36.88" cy="80.82" r="1.85"/>
      <circle fill="#AEBDC4" cx="41.2" cy="80.82" r="1.85"/>
      <circle fill="#AEBDC4" cx="45.52" cy="80.82" r="1.85"/>
      <circle fill="#AEBDC4" cx="49.84" cy="80.82" r="1.85"/>
      <circle fill="#AEBDC4" cx="54.17" cy="80.82" r="1.85"/>
      <circle fill="#AEBDC4" cx="58.5" cy="80.82" r="1.85"/>
      <circle fill="#AEBDC4" cx="62.83" cy="80.82" r="1.85"/>
      <circle fill="#AEBDC4" cx="67.16" cy="80.82" r="1.85"/>
      <circle fill="#AEBDC4" cx="71.5" cy="80.82" r="1.85"/>
      <circle fill="#AEBDC4" cx="75.83" cy="80.82" r="1.85"/>
      <circle fill="#AEBDC4" cx="80.16" cy="80.82" r="1.85"/>
      <circle fill="#AEBDC4" cx="84.49" cy="80.82" r="1.85"/>
      <circle fill="#AEBDC4" cx="88.82" cy="80.82" r="1.85"/>
      <circle fill="#AEBDC4" cx="93.15" cy="80.82" r="1.85"/>
      <circle fill="#AEBDC4" cx="97.48" cy="80.82" r="1.85"/>
      <circle fill="#AEBDC4" cx="101.81" cy="80.82" r="1.85"/>
      <circle fill="#AEBDC4" cx="106.14" cy="80.82" r="1.85"/>
      <circle fill="#AEBDC4" cx="110.47" cy="80.82" r="1.85"/>
      <circle fill="#AEBDC4" cx="114.8" cy="80.82" r="1.85"/>
    </g>
    <g>
      <circle fill="#AEBDC4" cx="15.27" cy="74.89" r="1.85"/>
      <circle fill="#AEBDC4" cx="19.59" cy="74.89" r="1.85"/>
      <circle fill="#AEBDC4" cx="23.91" cy="74.89" r="1.85"/>
      <circle fill="#AEBDC4" cx="28.24" cy="74.89" r="1.85"/>
      <circle fill="#AEBDC4" cx="32.56" cy="74.89" r="1.85"/>
      <circle fill="#AEBDC4" cx="36.88" cy="74.89" r="1.85"/>
      <circle fill="#AEBDC4" cx="41.2" cy="74.89" r="1.85"/>
      <circle fill="#AEBDC4" cx="45.52" cy="74.89" r="1.85"/>
      <circle fill="#AEBDC4" cx="49.84" cy="74.89" r="1.85"/>
      <circle fill="#AEBDC4" cx="54.17" cy="74.89" r="1.85"/>
      <circle fill="#AEBDC4" cx="58.5" cy="74.89" r="1.85"/>
      <circle fill="#AEBDC4" cx="62.83" cy="74.89" r="1.85"/>
      <circle fill="#AEBDC4" cx="67.16" cy="74.89" r="1.85"/>
      <circle fill="#AEBDC4" cx="71.5" cy="74.89" r="1.85"/>
      <circle fill="#AEBDC4" cx="75.83" cy="74.89" r="1.85"/>
      <circle fill="#AEBDC4" cx="80.16" cy="74.89" r="1.85"/>
      <circle fill="#AEBDC4" cx="84.49" cy="74.89" r="1.85"/>
      <circle fill="#AEBDC4" cx="88.82" cy="74.89" r="1.85"/>
      <circle fill="#AEBDC4" cx="93.15" cy="74.89" r="1.85"/>
      <circle fill="#AEBDC4" cx="97.48" cy="74.89" r="1.85"/>
      <circle fill="#AEBDC4" cx="101.81" cy="74.89" r="1.85"/>
      <circle fill="#AEBDC4" cx="106.14" cy="74.89" r="1.85"/>
      <circle fill="#AEBDC4" cx="110.47" cy="74.89" r="1.85"/>
      <circle fill="#AEBDC4" cx="114.8" cy="74.89" r="1.85"/>
    </g>
    <g>
      <circle fill="#AEBDC4" cx="15.27" cy="68.96" r="1.85"/>
      <circle fill="#AEBDC4" cx="19.59" cy="68.96" r="1.85"/>
      <circle fill="#AEBDC4" cx="23.91" cy="68.96" r="1.85"/>
      <circle fill="#AEBDC4" cx="28.24" cy="68.96" r="1.85"/>
      <circle fill="#AEBDC4" cx="32.56" cy="68.96" r="1.85"/>
      <circle fill="#AEBDC4" cx="36.88" cy="68.96" r="1.85"/>
      <circle fill="#AEBDC4" cx="41.2" cy="68.96" r="1.85"/>
      <circle fill="#AEBDC4" cx="45.52" cy="68.96" r="1.85"/>
      <circle fill="#AEBDC4" cx="49.84" cy="68.96" r="1.85"/>
      <circle fill="#AEBDC4" cx="54.17" cy="68.96" r="1.85"/>
      <circle fill="#AEBDC4" cx="58.5" cy="68.96" r="1.85"/>
      <circle fill="#AEBDC4" cx="62.83" cy="68.96" r="1.85"/>
      <circle fill="#AEBDC4" cx="67.16" cy="68.96" r="1.85"/>
      <circle fill="#AEBDC4" cx="71.5" cy="68.96" r="1.85"/>
      <circle fill="#AEBDC4" cx="75.83" cy="68.96" r="1.85"/>
      <circle fill="#AEBDC4" cx="80.16" cy="68.96" r="1.85"/>
      <circle fill="#AEBDC4" cx="84.49" cy="68.96" r="1.85"/>
      <circle fill="#AEBDC4" cx="88.82" cy="68.96" r="1.85"/>
      <circle fill="#AEBDC4" cx="93.15" cy="68.96" r="1.85"/>
      <circle fill="#AEBDC4" cx="97.48" cy="68.96" r="1.85"/>
      <circle fill="#AEBDC4" cx="101.81" cy="68.96" r="1.85"/>
      <circle fill="#AEBDC4" cx="106.14" cy="68.96" r="1.85"/>
      <circle fill="#AEBDC4" cx="110.47" cy="68.96" r="1.85"/>
      <circle fill="#AEBDC4" cx="114.8" cy="68.96" r="1.85"/>
    </g>
    <g>
      <circle fill="#AEBDC4" cx="15.27" cy="63.03" r="1.85"/>
      <circle fill="#AEBDC4" cx="19.59" cy="63.03" r="1.85"/>
      <circle fill="#AEBDC4" cx="23.91" cy="63.03" r="1.85"/>
      <circle fill="#AEBDC4" cx="28.24" cy="63.03" r="1.85"/>
      <circle fill="#AEBDC4" cx="32.56" cy="63.03" r="1.85"/>
      <circle fill="#AEBDC4" cx="36.88" cy="63.03" r="1.85"/>
      <circle fill="#AEBDC4" cx="41.2" cy="63.03" r="1.85"/>
      <circle fill="#AEBDC4" cx="45.52" cy="63.03" r="1.85"/>
      <circle fill="#AEBDC4" cx="49.84" cy="63.03" r="1.85"/>
      <circle fill="#AEBDC4" cx="54.17" cy="63.03" r="1.85"/>
      <circle fill="#AEBDC4" cx="58.5" cy="63.03" r="1.85"/>
      <circle fill="#AEBDC4" cx="62.83" cy="63.03" r="1.85"/>
      <circle fill="#AEBDC4" cx="67.16" cy="63.03" r="1.85"/>
      <circle fill="#AEBDC4" cx="71.5" cy="63.03" r="1.85"/>
      <circle fill="#AEBDC4" cx="75.83" cy="63.03" r="1.85"/>
      <circle fill="#AEBDC4" cx="80.16" cy="63.03" r="1.85"/>
      <circle fill="#AEBDC4" cx="84.49" cy="63.03" r="1.85"/>
      <circle fill="#AEBDC4" cx="88.82" cy="63.03" r="1.85"/>
      <circle fill="#AEBDC4" cx="93.15" cy="63.03" r="1.85"/>
      <circle fill="#AEBDC4" cx="97.48" cy="63.03" r="1.85"/>
      <circle fill="#AEBDC4" cx="101.81" cy="63.03" r="1.85"/>
      <circle fill="#AEBDC4" cx="106.14" cy="63.03" r="1.85"/>
      <circle fill="#AEBDC4" cx="110.47" cy="63.03" r="1.85"/>
      <circle fill="#AEBDC4" cx="114.8" cy="63.03" r="1.85"/>
    </g>
    <g>
      <circle fill="#AEBDC4" cx="15.27" cy="57.1" r="1.85"/>
      <circle fill="#AEBDC4" cx="19.59" cy="57.1" r="1.85"/>
      <circle fill="#AEBDC4" cx="23.91" cy="57.1" r="1.85"/>
      <circle fill="#AEBDC4" cx="28.24" cy="57.1" r="1.85"/>
      <circle fill="#AEBDC4" cx="32.56" cy="57.1" r="1.85"/>
      <circle fill="#AEBDC4" cx="36.88" cy="57.1" r="1.85"/>
      <circle fill="#AEBDC4" cx="41.2" cy="57.1" r="1.85"/>
      <circle fill="#AEBDC4" cx="45.52" cy="57.1" r="1.85"/>
      <circle fill="#AEBDC4" cx="49.84" cy="57.1" r="1.85"/>
      <circle fill="#AEBDC4" cx="54.17" cy="57.1" r="1.85"/>
      <circle fill="#AEBDC4" cx="58.5" cy="57.1" r="1.85"/>
      <circle fill="#AEBDC4" cx="62.83" cy="57.1" r="1.85"/>
      <circle fill="#AEBDC4" cx="67.16" cy="57.1" r="1.85"/>
      <circle fill="#AEBDC4" cx="71.5" cy="57.1" r="1.85"/>
      <circle fill="#AEBDC4" cx="75.83" cy="57.1" r="1.85"/>
      <circle fill="#AEBDC4" cx="80.16" cy="57.1" r="1.85"/>
      <circle fill="#AEBDC4" cx="84.49" cy="57.1" r="1.85"/>
      <circle fill="#AEBDC4" cx="88.82" cy="57.1" r="1.85"/>
      <circle fill="#AEBDC4" cx="93.15" cy="57.1" r="1.85"/>
      <circle fill="#AEBDC4" cx="97.48" cy="57.1" r="1.85"/>
      <circle fill="#AEBDC4" cx="101.81" cy="57.1" r="1.85"/>
      <circle fill="#AEBDC4" cx="106.14" cy="57.1" r="1.85"/>
      <circle fill="#AEBDC4" cx="110.47" cy="57.1" r="1.85"/>
      <circle fill="#AEBDC4" cx="114.8" cy="57.1" r="1.85"/>
    </g>
    <g>
      <circle fill="#AEBDC4" cx="15.27" cy="51.17" r="1.85"/>
      <circle fill="#AEBDC4" cx="19.59" cy="51.17" r="1.85"/>
      <circle fill="#AEBDC4" cx="23.91" cy="51.17" r="1.85"/>
      <circle fill="#AEBDC4" cx="28.24" cy="51.17" r="1.85"/>
      <circle fill="#AEBDC4" cx="32.56" cy="51.17" r="1.85"/>
      <circle fill="#AEBDC4" cx="36.88" cy="51.17" r="1.85"/>
      <circle fill="#AEBDC4" cx="41.2" cy="51.17" r="1.85"/>
      <circle fill="#AEBDC4" cx="45.52" cy="51.17" r="1.85"/>
      <circle fill="#AEBDC4" cx="49.84" cy="51.17" r="1.85"/>
      <circle fill="#AEBDC4" cx="54.17" cy="51.17" r="1.85"/>
      <circle fill="#AEBDC4" cx="58.5" cy="51.17" r="1.85"/>
      <circle fill="#AEBDC4" cx="62.83" cy="51.17" r="1.85"/>
      <circle fill="#AEBDC4" cx="67.16" cy="51.17" r="1.85"/>
      <circle fill="#AEBDC4" cx="71.5" cy="51.17" r="1.85"/>
      <circle fill="#AEBDC4" cx="75.83" cy="51.17" r="1.85"/>
      <circle fill="#AEBDC4" cx="80.16" cy="51.17" r="1.85"/>
      <circle fill="#AEBDC4" cx="84.49" cy="51.17" r="1.85"/>
      <circle fill="#AEBDC4" cx="88.82" cy="51.17" r="1.85"/>
      <circle fill="#AEBDC4" cx="93.15" cy="51.17" r="1.85"/>
      <circle fill="#AEBDC4" cx="97.48" cy="51.17" r="1.85"/>
      <circle fill="#AEBDC4" cx="101.81" cy="51.17" r="1.85"/>
      <circle fill="#AEBDC4" cx="106.14" cy="51.17" r="1.85"/>
      <circle fill="#AEBDC4" cx="110.47" cy="51.17" r="1.85"/>
      <circle fill="#AEBDC4" cx="114.8" cy="51.17" r="1.85"/>
    </g>
    <g>
      <circle fill="#AEBDC4" cx="15.27" cy="45.24" r="1.85"/>
      <circle fill="#AEBDC4" cx="19.59" cy="45.24" r="1.85"/>
      <circle fill="#AEBDC4" cx="23.91" cy="45.24" r="1.85"/>
      <circle fill="#AEBDC4" cx="28.24" cy="45.24" r="1.85"/>
      <circle fill="#AEBDC4" cx="32.56" cy="45.24" r="1.85"/>
      <circle fill="#AEBDC4" cx="36.88" cy="45.24" r="1.85"/>
      <circle fill="#AEBDC4" cx="41.2" cy="45.24" r="1.85"/>
      <circle fill="#AEBDC4" cx="45.52" cy="45.24" r="1.85"/>
      <circle fill="#AEBDC4" cx="49.84" cy="45.24" r="1.85"/>
      <circle fill="#AEBDC4" cx="54.17" cy="45.24" r="1.85"/>
      <circle fill="#AEBDC4" cx="58.5" cy="45.24" r="1.85"/>
      <circle fill="#AEBDC4" cx="62.83" cy="45.24" r="1.85"/>
      <circle fill="#AEBDC4" cx="67.16" cy="45.24" r="1.85"/>
      <circle fill="#AEBDC4" cx="71.5" cy="45.24" r="1.85"/>
      <circle fill="#AEBDC4" cx="75.83" cy="45.24" r="1.85"/>
      <circle fill="#AEBDC4" cx="80.16" cy="45.24" r="1.85"/>
      <circle fill="#AEBDC4" cx="84.49" cy="45.24" r="1.85"/>
      <circle fill="#AEBDC4" cx="88.82" cy="45.24" r="1.85"/>
      <circle fill="#AEBDC4" cx="93.15" cy="45.24" r="1.85"/>
      <circle fill="#AEBDC4" cx="97.48" cy="45.24" r="1.85"/>
      <circle fill="#AEBDC4" cx="101.81" cy="45.24" r="1.85"/>
      <circle fill="#AEBDC4" cx="106.14" cy="45.24" r="1.85"/>
      <circle fill="#AEBDC4" cx="110.47" cy="45.24" r="1.85"/>
      <circle fill="#AEBDC4" cx="114.8" cy="45.24" r="1.85"/>
    </g>
    <g>
      <circle fill="#AEBDC4" cx="15.27" cy="39.31" r="1.85"/>
      <circle fill="#AEBDC4" cx="19.59" cy="39.31" r="1.85"/>
      <circle fill="#AEBDC4" cx="23.91" cy="39.31" r="1.85"/>
      <circle fill="#AEBDC4" cx="28.24" cy="39.31" r="1.85"/>
      <circle fill="#AEBDC4" cx="32.56" cy="39.31" r="1.85"/>
      <circle fill="#AEBDC4" cx="36.88" cy="39.31" r="1.85"/>
      <circle fill="#AEBDC4" cx="41.2" cy="39.31" r="1.85"/>
      <circle fill="#AEBDC4" cx="45.52" cy="39.31" r="1.85"/>
      <circle fill="#AEBDC4" cx="49.84" cy="39.31" r="1.85"/>
      <circle fill="#AEBDC4" cx="54.17" cy="39.31" r="1.85"/>
      <circle fill="#AEBDC4" cx="58.5" cy="39.31" r="1.85"/>
      <circle fill="#AEBDC4" cx="62.83" cy="39.31" r="1.85"/>
      <circle fill="#AEBDC4" cx="67.16" cy="39.31" r="1.85"/>
      <circle fill="#AEBDC4" cx="71.5" cy="39.31" r="1.85"/>
      <circle fill="#AEBDC4" cx="75.83" cy="39.31" r="1.85"/>
      <circle fill="#AEBDC4" cx="80.16" cy="39.31" r="1.85"/>
      <circle fill="#AEBDC4" cx="84.49" cy="39.31" r="1.85"/>
      <circle fill="#AEBDC4" cx="88.82" cy="39.31" r="1.85"/>
      <circle fill="#AEBDC4" cx="93.15" cy="39.31" r="1.85"/>
      <circle fill="#AEBDC4" cx="97.48" cy="39.31" r="1.85"/>
      <circle fill="#AEBDC4" cx="101.81" cy="39.31" r="1.85"/>
      <circle fill="#AEBDC4" cx="106.14" cy="39.31" r="1.85"/>
      <circle fill="#AEBDC4" cx="110.47" cy="39.31" r="1.85"/>
      <circle fill="#AEBDC4" cx="114.8" cy="39.31" r="1.85"/>
    </g>
    <g>
      <circle fill="#AEBDC4" cx="15.27" cy="33.38" r="1.85"/>
      <circle fill="#AEBDC4" cx="19.59" cy="33.38" r="1.85"/>
      <circle fill="#AEBDC4" cx="23.91" cy="33.38" r="1.85"/>
      <circle fill="#AEBDC4" cx="28.24" cy="33.38" r="1.85"/>
      <circle fill="#AEBDC4" cx="32.56" cy="33.38" r="1.85"/>
      <circle fill="#AEBDC4" cx="36.88" cy="33.38" r="1.85"/>
      <circle fill="#AEBDC4" cx="41.2" cy="33.38" r="1.85"/>
      <circle fill="#AEBDC4" cx="45.52" cy="33.38" r="1.85"/>
      <circle fill="#AEBDC4" cx="49.84" cy="33.38" r="1.85"/>
      <circle fill="#AEBDC4" cx="54.17" cy="33.38" r="1.85"/>
      <circle fill="#AEBDC4" cx="58.5" cy="33.38" r="1.85"/>
      <circle fill="#AEBDC4" cx="62.83" cy="33.38" r="1.85"/>
      <circle fill="#AEBDC4" cx="67.16" cy="33.38" r="1.85"/>
      <circle fill="#AEBDC4" cx="71.5" cy="33.38" r="1.85"/>
      <circle fill="#AEBDC4" cx="75.83" cy="33.38" r="1.85"/>
      <circle fill="#AEBDC4" cx="80.16" cy="33.38" r="1.85"/>
      <circle fill="#AEBDC4" cx="84.49" cy="33.38" r="1.85"/>
      <circle fill="#AEBDC4" cx="88.82" cy="33.38" r="1.85"/>
      <circle fill="#AEBDC4" cx="93.15" cy="33.38" r="1.85"/>
      <circle fill="#AEBDC4" cx="97.48" cy="33.38" r="1.85"/>
      <circle fill="#AEBDC4" cx="101.81" cy="33.38" r="1.85"/>
      <circle fill="#AEBDC4" cx="106.14" cy="33.38" r="1.85"/>
      <circle fill="#AEBDC4" cx="110.47" cy="33.38" r="1.85"/>
      <circle fill="#AEBDC4" cx="114.8" cy="33.38" r="1.85"/>
    </g>
    <g>
      <circle fill="#AEBDC4" cx="23.93" cy="27.45" r="1.85"/>
      <circle fill="#AEBDC4" cx="28.26" cy="27.45" r="1.85"/>
      <circle fill="#AEBDC4" cx="32.58" cy="27.45" r="1.85"/>
      <circle fill="#AEBDC4" cx="36.9" cy="27.45" r="1.85"/>
      <circle fill="#AEBDC4" cx="41.22" cy="27.45" r="1.85"/>
      <circle fill="#AEBDC4" cx="45.54" cy="27.45" r="1.85"/>
      <circle fill="#AEBDC4" cx="49.86" cy="27.45" r="1.85"/>
      <circle fill="#AEBDC4" cx="54.18" cy="27.45" r="1.85"/>
      <circle fill="#AEBDC4" cx="58.5" cy="27.45" r="1.85"/>
      <circle fill="#AEBDC4" cx="62.83" cy="27.45" r="1.85"/>
      <circle fill="#AEBDC4" cx="67.16" cy="27.45" r="1.85"/>
      <circle fill="#AEBDC4" cx="71.5" cy="27.45" r="1.85"/>
      <circle fill="#AEBDC4" cx="75.83" cy="27.45" r="1.85"/>
      <circle fill="#AEBDC4" cx="80.16" cy="27.45" r="1.85"/>
      <circle fill="#AEBDC4" cx="84.49" cy="27.45" r="1.85"/>
      <circle fill="#AEBDC4" cx="88.82" cy="27.45" r="1.85"/>
      <circle fill="#AEBDC4" cx="93.15" cy="27.45" r="1.85"/>
      <circle fill="#AEBDC4" cx="97.48" cy="27.45" r="1.85"/>
      <circle fill="#AEBDC4" cx="101.81" cy="27.45" r="1.85"/>
      <circle fill="#AEBDC4" cx="106.14" cy="27.45" r="1.85"/>
    </g>
    <g>
      <circle fill="#AEBDC4" cx="23.93" cy="21.51" r="1.85"/>
      <circle fill="#AEBDC4" cx="28.26" cy="21.51" r="1.85"/>
      <circle fill="#AEBDC4" cx="32.58" cy="21.51" r="1.85"/>
      <circle fill="#AEBDC4" cx="36.9" cy="21.51" r="1.85"/>
      <circle fill="#AEBDC4" cx="41.22" cy="21.51" r="1.85"/>
      <circle fill="#AEBDC4" cx="45.54" cy="21.51" r="1.85"/>
      <circle fill="#AEBDC4" cx="49.86" cy="21.51" r="1.85"/>
      <circle fill="#AEBDC4" cx="54.18" cy="21.51" r="1.85"/>
      <circle fill="#AEBDC4" cx="58.5" cy="21.51" r="1.85"/>
      <circle fill="#AEBDC4" cx="62.83" cy="21.51" r="1.85"/>
      <circle fill="#AEBDC4" cx="67.16" cy="21.51" r="1.85"/>
      <circle fill="#AEBDC4" cx="71.5" cy="21.51" r="1.85"/>
      <circle fill="#AEBDC4" cx="75.83" cy="21.51" r="1.85"/>
      <circle fill="#AEBDC4" cx="80.16" cy="21.51" r="1.85"/>
      <circle fill="#AEBDC4" cx="84.49" cy="21.51" r="1.85"/>
      <circle fill="#AEBDC4" cx="88.82" cy="21.51" r="1.85"/>
      <circle fill="#AEBDC4" cx="93.15" cy="21.51" r="1.85"/>
      <circle fill="#AEBDC4" cx="97.48" cy="21.51" r="1.85"/>
      <circle fill="#AEBDC4" cx="101.81" cy="21.51" r="1.85"/>
      <circle fill="#AEBDC4" cx="106.14" cy="21.51" r="1.85"/>
    </g>
    <g>
      <circle fill="#AEBDC4" cx="23.93" cy="15.58" r="1.85"/>
      <circle fill="#AEBDC4" cx="28.26" cy="15.58" r="1.85"/>
      <circle fill="#AEBDC4" cx="32.58" cy="15.58" r="1.85"/>
      <circle fill="#AEBDC4" cx="36.9" cy="15.58" r="1.85"/>
      <circle fill="#AEBDC4" cx="41.22" cy="15.58" r="1.85"/>
      <circle fill="#AEBDC4" cx="45.54" cy="15.58" r="1.85"/>
      <circle fill="#AEBDC4" cx="49.86" cy="15.58" r="1.85"/>
      <circle fill="#AEBDC4" cx="54.18" cy="15.58" r="1.85"/>
      <circle fill="#AEBDC4" cx="58.5" cy="15.58" r="1.85"/>
      <circle fill="#AEBDC4" cx="62.83" cy="15.58" r="1.85"/>
      <circle fill="#AEBDC4" cx="67.16" cy="15.58" r="1.85"/>
      <circle fill="#AEBDC4" cx="71.5" cy="15.58" r="1.85"/>
      <circle fill="#AEBDC4" cx="75.83" cy="15.58" r="1.85"/>
      <circle fill="#AEBDC4" cx="80.16" cy="15.58" r="1.85"/>
      <circle fill="#AEBDC4" cx="84.49" cy="15.58" r="1.85"/>
      <circle fill="#AEBDC4" cx="88.82" cy="15.58" r="1.85"/>
      <circle fill="#AEBDC4" cx="93.15" cy="15.58" r="1.85"/>
      <circle fill="#AEBDC4" cx="97.48" cy="15.58" r="1.85"/>
      <circle fill="#AEBDC4" cx="101.81" cy="15.58" r="1.85"/>
      <circle fill="#AEBDC4" cx="106.14" cy="15.58" r="1.85"/>
    </g>
    <g>
      <circle fill="#AEBDC4" cx="23.93" cy="9.65" r="1.85"/>
      <circle fill="#AEBDC4" cx="28.26" cy="9.65" r="1.85"/>
      <circle fill="#AEBDC4" cx="32.58" cy="9.65" r="1.85"/>
      <circle fill="#AEBDC4" cx="36.9" cy="9.65" r="1.85"/>
      <circle fill="#AEBDC4" cx="41.22" cy="9.65" r="1.85"/>
      <circle fill="#AEBDC4" cx="45.54" cy="9.65" r="1.85"/>
      <circle fill="#AEBDC4" cx="49.86" cy="9.65" r="1.85"/>
      <circle fill="#AEBDC4" cx="54.18" cy="9.65" r="1.85"/>
      <circle fill="#AEBDC4" cx="58.5" cy="9.65" r="1.85"/>
      <circle fill="#AEBDC4" cx="62.83" cy="9.65" r="1.85"/>
      <circle fill="#AEBDC4" cx="67.16" cy="9.65" r="1.85"/>
      <circle fill="#AEBDC4" cx="71.5" cy="9.65" r="1.85"/>
      <circle fill="#AEBDC4" cx="75.83" cy="9.65" r="1.85"/>
      <circle fill="#AEBDC4" cx="80.16" cy="9.65" r="1.85"/>
      <circle fill="#AEBDC4" cx="84.49" cy="9.65" r="1.85"/>
      <circle fill="#AEBDC4" cx="88.82" cy="9.65" r="1.85"/>
      <circle fill="#AEBDC4" cx="93.15" cy="9.65" r="1.85"/>
      <circle fill="#AEBDC4" cx="97.48" cy="9.65" r="1.85"/>
      <circle fill="#AEBDC4" cx="101.81" cy="9.65" r="1.85"/>
      <circle fill="#AEBDC4" cx="106.14" cy="9.65" r="1.85"/>
    </g>
  </g>
</svg>
