<?xml version="1.0" encoding="utf-8"?>
<!-- Generator: Adobe Illustrator 23.0.1, SVG Export Plug-In . SVG Version: 6.00 Build 0)  -->
<svg version="1.1" id="Layer_1" xmlns="http://www.w3.org/2000/svg" xmlns:xlink="http://www.w3.org/1999/xlink" x="0px" y="0px"
	 width="130px" height="192px" viewBox="0 0 130 192" enable-background="new 0 0 130 192" xml:space="preserve">
<g onclick="this.parentNode.sekt.push(this);this.a_name=&quot;W 2 (верх)&quot;;">
	
		<polygon onclick="this.parentNode.a_fon=this;" fill="#F1F3F4" stroke="#BCC8CE" stroke-width="0.4" stroke-linecap="round" stroke-miterlimit="10" points="
		0.26,191.31 0.26,0.8 129.74,56.08 129.74,191.31 	"/>
	<g onclick="this.parentNode.a_row=this;">
		<g onclick="this.a_par={beg_namb:1,quant:26};">
			<line fill="none" stroke="#D3DBDF" stroke-width="0.4" stroke-miterlimit="10" x1="120.94" y1="182.26" x2="9.06" y2="182.26"/>
		</g>
		<g onclick="this.a_par={beg_namb:1,quant:26};">
			<line fill="none" stroke="#D3DBDF" stroke-width="0.4" stroke-miterlimit="10" x1="120.94" y1="176.33" x2="9.06" y2="176.33"/>
		</g>
		<g onclick="this.a_par={beg_namb:1,quant:26};">
			<line fill="none" stroke="#D3DBDF" stroke-width="0.4" stroke-miterlimit="10" x1="120.94" y1="170.39" x2="9.06" y2="170.39"/>
		</g>
		<g onclick="this.a_par={beg_namb:1,quant:26};">
			<line fill="none" stroke="#D3DBDF" stroke-width="0.4" stroke-miterlimit="10" x1="120.94" y1="164.46" x2="9.06" y2="164.46"/>
		</g>
		<g onclick="this.a_par={beg_namb:1,quant:26};">
			<line fill="none" stroke="#D3DBDF" stroke-width="0.4" stroke-miterlimit="10" x1="120.94" y1="158.53" x2="9.06" y2="158.53"/>
		</g>
		<g onclick="this.a_par={beg_namb:1,quant:22};">
			<line fill="none" stroke="#D3DBDF" stroke-width="0.4" stroke-miterlimit="10" x1="112.28" y1="152.6" x2="17.72" y2="152.6"/>
		</g>
		<g onclick="this.a_par={beg_namb:1,quant:22};">
			<line fill="none" stroke="#D3DBDF" stroke-width="0.4" stroke-miterlimit="10" x1="112.28" y1="146.67" x2="17.72" y2="146.67"/>
		</g>
		<g onclick="this.a_par={beg_namb:1,quant:22};">
			<line fill="none" stroke="#D3DBDF" stroke-width="0.4" stroke-miterlimit="10" x1="112.28" y1="140.74" x2="17.72" y2="140.74"/>
		</g>
		<g onclick="this.a_par={beg_namb:1,quant:22};">
			<line fill="none" stroke="#D3DBDF" stroke-width="0.4" stroke-miterlimit="10" x1="112.28" y1="134.81" x2="17.72" y2="134.81"/>
		</g>
		<g onclick="this.a_par={beg_namb:1,quant:22};">
			<line fill="none" stroke="#D3DBDF" stroke-width="0.4" stroke-miterlimit="10" x1="112.28" y1="128.88" x2="17.72" y2="128.88"/>
		</g>
		<g onclick="this.a_par={beg_namb:1,quant:26};">
			<line fill="none" stroke="#D3DBDF" stroke-width="0.4" stroke-miterlimit="10" x1="120.94" y1="122.95" x2="9.06" y2="122.95"/>
		</g>
		<g onclick="this.a_par={beg_namb:1,quant:26};">
			<line fill="none" stroke="#D3DBDF" stroke-width="0.4" stroke-miterlimit="10" x1="120.94" y1="117.02" x2="9.06" y2="117.02"/>
		</g>
		<g onclick="this.a_par={beg_namb:1,quant:26};">
			<line fill="none" stroke="#D3DBDF" stroke-width="0.4" stroke-miterlimit="10" x1="120.94" y1="111.09" x2="9.06" y2="111.09"/>
		</g>
		<g onclick="this.a_par={beg_namb:1,quant:26};">
			<line fill="none" stroke="#D3DBDF" stroke-width="0.4" stroke-miterlimit="10" x1="120.94" y1="105.16" x2="9.06" y2="105.16"/>
		</g>
		<g onclick="this.a_par={beg_namb:1,quant:26};">
			<line fill="none" stroke="#D3DBDF" stroke-width="0.4" stroke-miterlimit="10" x1="120.94" y1="99.22" x2="9.06" y2="99.22"/>
		</g>
		<g onclick="this.a_par={beg_namb:1,quant:26};">
			<line fill="none" stroke="#D3DBDF" stroke-width="0.4" stroke-miterlimit="10" x1="120.94" y1="93.29" x2="9.06" y2="93.29"/>
		</g>
		<g onclick="this.a_par={beg_namb:1,quant:26};">
			<line fill="none" stroke="#D3DBDF" stroke-width="0.4" stroke-miterlimit="10" x1="120.94" y1="87.36" x2="9.06" y2="87.36"/>
		</g>
		<g onclick="this.a_par={beg_namb:1,quant:26};">
			<line fill="none" stroke="#D3DBDF" stroke-width="0.4" stroke-miterlimit="10" x1="120.94" y1="81.43" x2="9.06" y2="81.43"/>
		</g>
		<g onclick="this.a_par={beg_namb:1,quant:26};">
			<line fill="none" stroke="#D3DBDF" stroke-width="0.4" stroke-miterlimit="10" x1="120.94" y1="75.5" x2="9.06" y2="75.5"/>
		</g>
		<g onclick="this.a_par={beg_namb:1,quant:23};">
			<line fill="none" stroke="#D3DBDF" stroke-width="0.4" stroke-miterlimit="10" x1="107.95" y1="69.57" x2="9.06" y2="69.57"/>
		</g>
		<g onclick="this.a_par={beg_namb:1,quant:20};">
			<line fill="none" stroke="#D3DBDF" stroke-width="0.4" stroke-miterlimit="10" x1="94.96" y1="63.64" x2="9.06" y2="63.64"/>
		</g>
		<g onclick="this.a_par={beg_namb:1,quant:14};">
			<line fill="none" stroke="#D3DBDF" stroke-width="0.4" stroke-miterlimit="10" x1="68.97" y1="57.71" x2="9.06" y2="57.71"/>
		</g>
		<g onclick="this.a_par={beg_namb:1,quant:12};">
			<line fill="none" stroke="#D3DBDF" stroke-width="0.4" stroke-miterlimit="10" x1="60.31" y1="51.78" x2="9.06" y2="51.78"/>
		</g>
		<g onclick="this.a_par={beg_namb:1,quant:9};">
			<line fill="none" stroke="#D3DBDF" stroke-width="0.4" stroke-miterlimit="10" x1="47.32" y1="45.85" x2="9.06" y2="45.85"/>
		</g>
	</g>
	<g>
		<g>
			<circle fill="#AEBDC4" cx="10.9" cy="45.85" r="1.85"/>
			<circle fill="#AEBDC4" cx="15.22" cy="45.85" r="1.85"/>
			<circle fill="#AEBDC4" cx="19.55" cy="45.85" r="1.85"/>
			<circle fill="#AEBDC4" cx="23.87" cy="45.85" r="1.85"/>
			<circle fill="#AEBDC4" cx="28.19" cy="45.85" r="1.85"/>
			<circle fill="#AEBDC4" cx="32.51" cy="45.85" r="1.85"/>
			<circle fill="#AEBDC4" cx="36.83" cy="45.85" r="1.85"/>
			<circle fill="#AEBDC4" cx="41.15" cy="45.85" r="1.85"/>
			<circle fill="#AEBDC4" cx="45.47" cy="45.85" r="1.85"/>
		</g>
		<g>
			<circle fill="#AEBDC4" cx="10.9" cy="51.78" r="1.85"/>
			<circle fill="#AEBDC4" cx="15.22" cy="51.78" r="1.85"/>
			<circle fill="#AEBDC4" cx="19.55" cy="51.78" r="1.85"/>
			<circle fill="#AEBDC4" cx="23.87" cy="51.78" r="1.85"/>
			<circle fill="#AEBDC4" cx="28.19" cy="51.78" r="1.85"/>
			<circle fill="#AEBDC4" cx="32.51" cy="51.78" r="1.85"/>
			<circle fill="#AEBDC4" cx="36.83" cy="51.78" r="1.85"/>
			<circle fill="#AEBDC4" cx="41.15" cy="51.78" r="1.85"/>
			<circle fill="#AEBDC4" cx="45.47" cy="51.78" r="1.85"/>
			<circle fill="#AEBDC4" cx="49.8" cy="51.78" r="1.85"/>
			<circle fill="#AEBDC4" cx="54.13" cy="51.78" r="1.85"/>
			<circle fill="#AEBDC4" cx="58.46" cy="51.78" r="1.85"/>
		</g>
		<g>
			<circle fill="#AEBDC4" cx="10.9" cy="57.71" r="1.85"/>
			<circle fill="#AEBDC4" cx="15.22" cy="57.71" r="1.85"/>
			<circle fill="#AEBDC4" cx="19.55" cy="57.71" r="1.85"/>
			<circle fill="#AEBDC4" cx="23.87" cy="57.71" r="1.85"/>
			<circle fill="#AEBDC4" cx="28.19" cy="57.71" r="1.85"/>
			<circle fill="#AEBDC4" cx="32.51" cy="57.71" r="1.85"/>
			<circle fill="#AEBDC4" cx="36.83" cy="57.71" r="1.85"/>
			<circle fill="#AEBDC4" cx="41.15" cy="57.71" r="1.85"/>
			<circle fill="#AEBDC4" cx="45.47" cy="57.71" r="1.85"/>
			<circle fill="#AEBDC4" cx="49.8" cy="57.71" r="1.85"/>
			<circle fill="#AEBDC4" cx="54.13" cy="57.71" r="1.85"/>
			<circle fill="#AEBDC4" cx="58.46" cy="57.71" r="1.85"/>
			<circle fill="#AEBDC4" cx="62.8" cy="57.71" r="1.85"/>
			<circle fill="#AEBDC4" cx="67.13" cy="57.71" r="1.85"/>
		</g>
		<g>
			<circle fill="#AEBDC4" cx="10.9" cy="63.64" r="1.85"/>
			<circle fill="#AEBDC4" cx="15.22" cy="63.64" r="1.85"/>
			<circle fill="#AEBDC4" cx="19.55" cy="63.64" r="1.85"/>
			<circle fill="#AEBDC4" cx="23.87" cy="63.64" r="1.85"/>
			<circle fill="#AEBDC4" cx="28.19" cy="63.64" r="1.85"/>
			<circle fill="#AEBDC4" cx="32.51" cy="63.64" r="1.85"/>
			<circle fill="#AEBDC4" cx="36.83" cy="63.64" r="1.85"/>
			<circle fill="#AEBDC4" cx="41.15" cy="63.64" r="1.85"/>
			<circle fill="#AEBDC4" cx="45.47" cy="63.64" r="1.85"/>
			<circle fill="#AEBDC4" cx="49.8" cy="63.64" r="1.85"/>
			<circle fill="#AEBDC4" cx="54.13" cy="63.64" r="1.85"/>
			<circle fill="#AEBDC4" cx="58.46" cy="63.64" r="1.85"/>
			<circle fill="#AEBDC4" cx="62.8" cy="63.64" r="1.85"/>
			<circle fill="#AEBDC4" cx="67.13" cy="63.64" r="1.85"/>
			<circle fill="#AEBDC4" cx="71.46" cy="63.64" r="1.85"/>
			<circle fill="#AEBDC4" cx="75.79" cy="63.64" r="1.85"/>
			<circle fill="#AEBDC4" cx="80.12" cy="63.64" r="1.85"/>
			<circle fill="#AEBDC4" cx="84.45" cy="63.64" r="1.85"/>
			<circle fill="#AEBDC4" cx="88.78" cy="63.64" r="1.85"/>
			<circle fill="#AEBDC4" cx="93.11" cy="63.64" r="1.85"/>
		</g>
		<g>
			<circle fill="#AEBDC4" cx="19.56" cy="128.88" r="1.85"/>
			<circle fill="#AEBDC4" cx="23.89" cy="128.88" r="1.85"/>
			<circle fill="#AEBDC4" cx="28.21" cy="128.88" r="1.85"/>
			<circle fill="#AEBDC4" cx="32.53" cy="128.88" r="1.85"/>
			<circle fill="#AEBDC4" cx="36.85" cy="128.88" r="1.85"/>
			<circle fill="#AEBDC4" cx="41.17" cy="128.88" r="1.85"/>
			<circle fill="#AEBDC4" cx="45.49" cy="128.88" r="1.85"/>
			<circle fill="#AEBDC4" cx="49.81" cy="128.88" r="1.85"/>
			<circle fill="#AEBDC4" cx="54.13" cy="128.88" r="1.85"/>
			<circle fill="#AEBDC4" cx="58.46" cy="128.88" r="1.85"/>
			<circle fill="#AEBDC4" cx="62.8" cy="128.88" r="1.85"/>
			<circle fill="#AEBDC4" cx="67.13" cy="128.88" r="1.85"/>
			<circle fill="#AEBDC4" cx="71.46" cy="128.88" r="1.85"/>
			<circle fill="#AEBDC4" cx="75.79" cy="128.88" r="1.85"/>
			<circle fill="#AEBDC4" cx="80.12" cy="128.88" r="1.85"/>
			<circle fill="#AEBDC4" cx="84.45" cy="128.88" r="1.85"/>
			<circle fill="#AEBDC4" cx="88.78" cy="128.88" r="1.85"/>
			<circle fill="#AEBDC4" cx="93.11" cy="128.88" r="1.85"/>
			<circle fill="#AEBDC4" cx="97.44" cy="128.88" r="1.85"/>
			<circle fill="#AEBDC4" cx="101.77" cy="128.88" r="1.85"/>
			<circle fill="#AEBDC4" cx="106.1" cy="128.88" r="1.85"/>
			<circle fill="#AEBDC4" cx="110.43" cy="128.88" r="1.85"/>
		</g>
		<g>
			<circle fill="#AEBDC4" cx="19.56" cy="152.6" r="1.85"/>
			<circle fill="#AEBDC4" cx="23.89" cy="152.6" r="1.85"/>
			<circle fill="#AEBDC4" cx="28.21" cy="152.6" r="1.85"/>
			<circle fill="#AEBDC4" cx="32.53" cy="152.6" r="1.85"/>
			<circle fill="#AEBDC4" cx="36.85" cy="152.6" r="1.85"/>
			<circle fill="#AEBDC4" cx="41.17" cy="152.6" r="1.85"/>
			<circle fill="#AEBDC4" cx="45.49" cy="152.6" r="1.85"/>
			<circle fill="#AEBDC4" cx="49.81" cy="152.6" r="1.85"/>
			<circle fill="#AEBDC4" cx="54.13" cy="152.6" r="1.85"/>
			<circle fill="#AEBDC4" cx="58.46" cy="152.6" r="1.85"/>
			<circle fill="#AEBDC4" cx="62.8" cy="152.6" r="1.85"/>
			<circle fill="#AEBDC4" cx="67.13" cy="152.6" r="1.85"/>
			<circle fill="#AEBDC4" cx="71.46" cy="152.6" r="1.85"/>
			<circle fill="#AEBDC4" cx="75.79" cy="152.6" r="1.85"/>
			<circle fill="#AEBDC4" cx="80.12" cy="152.6" r="1.85"/>
			<circle fill="#AEBDC4" cx="84.45" cy="152.6" r="1.85"/>
			<circle fill="#AEBDC4" cx="88.78" cy="152.6" r="1.85"/>
			<circle fill="#AEBDC4" cx="93.11" cy="152.6" r="1.85"/>
			<circle fill="#AEBDC4" cx="97.44" cy="152.6" r="1.85"/>
			<circle fill="#AEBDC4" cx="101.77" cy="152.6" r="1.85"/>
			<circle fill="#AEBDC4" cx="106.1" cy="152.6" r="1.85"/>
			<circle fill="#AEBDC4" cx="110.43" cy="152.6" r="1.85"/>
		</g>
		<g>
			<circle fill="#AEBDC4" cx="19.56" cy="146.67" r="1.85"/>
			<circle fill="#AEBDC4" cx="23.89" cy="146.67" r="1.85"/>
			<circle fill="#AEBDC4" cx="28.21" cy="146.67" r="1.85"/>
			<circle fill="#AEBDC4" cx="32.53" cy="146.67" r="1.85"/>
			<circle fill="#AEBDC4" cx="36.85" cy="146.67" r="1.85"/>
			<circle fill="#AEBDC4" cx="41.17" cy="146.67" r="1.85"/>
			<circle fill="#AEBDC4" cx="45.49" cy="146.67" r="1.85"/>
			<circle fill="#AEBDC4" cx="49.81" cy="146.67" r="1.85"/>
			<circle fill="#AEBDC4" cx="54.13" cy="146.67" r="1.85"/>
			<circle fill="#AEBDC4" cx="58.46" cy="146.67" r="1.85"/>
			<circle fill="#AEBDC4" cx="62.8" cy="146.67" r="1.85"/>
			<circle fill="#AEBDC4" cx="67.13" cy="146.67" r="1.85"/>
			<circle fill="#AEBDC4" cx="71.46" cy="146.67" r="1.85"/>
			<circle fill="#AEBDC4" cx="75.79" cy="146.67" r="1.85"/>
			<circle fill="#AEBDC4" cx="80.12" cy="146.67" r="1.85"/>
			<circle fill="#AEBDC4" cx="84.45" cy="146.67" r="1.85"/>
			<circle fill="#AEBDC4" cx="88.78" cy="146.67" r="1.85"/>
			<circle fill="#AEBDC4" cx="93.11" cy="146.67" r="1.85"/>
			<circle fill="#AEBDC4" cx="97.44" cy="146.67" r="1.85"/>
			<circle fill="#AEBDC4" cx="101.77" cy="146.67" r="1.85"/>
			<circle fill="#AEBDC4" cx="106.1" cy="146.67" r="1.85"/>
			<circle fill="#AEBDC4" cx="110.43" cy="146.67" r="1.85"/>
		</g>
		<g>
			<circle fill="#AEBDC4" cx="19.56" cy="140.74" r="1.85"/>
			<circle fill="#AEBDC4" cx="23.89" cy="140.74" r="1.85"/>
			<circle fill="#AEBDC4" cx="28.21" cy="140.74" r="1.85"/>
			<circle fill="#AEBDC4" cx="32.53" cy="140.74" r="1.85"/>
			<circle fill="#AEBDC4" cx="36.85" cy="140.74" r="1.85"/>
			<circle fill="#AEBDC4" cx="41.17" cy="140.74" r="1.85"/>
			<circle fill="#AEBDC4" cx="45.49" cy="140.74" r="1.85"/>
			<circle fill="#AEBDC4" cx="49.81" cy="140.74" r="1.85"/>
			<circle fill="#AEBDC4" cx="54.13" cy="140.74" r="1.85"/>
			<circle fill="#AEBDC4" cx="58.46" cy="140.74" r="1.85"/>
			<circle fill="#AEBDC4" cx="62.8" cy="140.74" r="1.85"/>
			<circle fill="#AEBDC4" cx="67.13" cy="140.74" r="1.85"/>
			<circle fill="#AEBDC4" cx="71.46" cy="140.74" r="1.85"/>
			<circle fill="#AEBDC4" cx="75.79" cy="140.74" r="1.85"/>
			<circle fill="#AEBDC4" cx="80.12" cy="140.74" r="1.85"/>
			<circle fill="#AEBDC4" cx="84.45" cy="140.74" r="1.85"/>
			<circle fill="#AEBDC4" cx="88.78" cy="140.74" r="1.85"/>
			<circle fill="#AEBDC4" cx="93.11" cy="140.74" r="1.85"/>
			<circle fill="#AEBDC4" cx="97.44" cy="140.74" r="1.85"/>
			<circle fill="#AEBDC4" cx="101.77" cy="140.74" r="1.85"/>
			<circle fill="#AEBDC4" cx="106.1" cy="140.74" r="1.85"/>
			<circle fill="#AEBDC4" cx="110.43" cy="140.74" r="1.85"/>
		</g>
		<g>
			<circle fill="#AEBDC4" cx="19.56" cy="134.81" r="1.85"/>
			<circle fill="#AEBDC4" cx="23.89" cy="134.81" r="1.85"/>
			<circle fill="#AEBDC4" cx="28.21" cy="134.81" r="1.85"/>
			<circle fill="#AEBDC4" cx="32.53" cy="134.81" r="1.85"/>
			<circle fill="#AEBDC4" cx="36.85" cy="134.81" r="1.85"/>
			<circle fill="#AEBDC4" cx="41.17" cy="134.81" r="1.85"/>
			<circle fill="#AEBDC4" cx="45.49" cy="134.81" r="1.85"/>
			<circle fill="#AEBDC4" cx="49.81" cy="134.81" r="1.85"/>
			<circle fill="#AEBDC4" cx="54.13" cy="134.81" r="1.85"/>
			<circle fill="#AEBDC4" cx="58.46" cy="134.81" r="1.85"/>
			<circle fill="#AEBDC4" cx="62.8" cy="134.81" r="1.85"/>
			<circle fill="#AEBDC4" cx="67.13" cy="134.81" r="1.85"/>
			<circle fill="#AEBDC4" cx="71.46" cy="134.81" r="1.85"/>
			<circle fill="#AEBDC4" cx="75.79" cy="134.81" r="1.85"/>
			<circle fill="#AEBDC4" cx="80.12" cy="134.81" r="1.85"/>
			<circle fill="#AEBDC4" cx="84.45" cy="134.81" r="1.85"/>
			<circle fill="#AEBDC4" cx="88.78" cy="134.81" r="1.85"/>
			<circle fill="#AEBDC4" cx="93.11" cy="134.81" r="1.85"/>
			<circle fill="#AEBDC4" cx="97.44" cy="134.81" r="1.85"/>
			<circle fill="#AEBDC4" cx="101.77" cy="134.81" r="1.85"/>
			<circle fill="#AEBDC4" cx="106.1" cy="134.81" r="1.85"/>
			<circle fill="#AEBDC4" cx="110.43" cy="134.81" r="1.85"/>
		</g>
		<g>
			<circle fill="#AEBDC4" cx="10.9" cy="69.57" r="1.85"/>
			<circle fill="#AEBDC4" cx="15.22" cy="69.57" r="1.85"/>
			<circle fill="#AEBDC4" cx="19.55" cy="69.57" r="1.85"/>
			<circle fill="#AEBDC4" cx="23.87" cy="69.57" r="1.85"/>
			<circle fill="#AEBDC4" cx="28.19" cy="69.57" r="1.85"/>
			<circle fill="#AEBDC4" cx="32.51" cy="69.57" r="1.85"/>
			<circle fill="#AEBDC4" cx="36.83" cy="69.57" r="1.85"/>
			<circle fill="#AEBDC4" cx="41.15" cy="69.57" r="1.85"/>
			<circle fill="#AEBDC4" cx="45.47" cy="69.57" r="1.85"/>
			<circle fill="#AEBDC4" cx="49.8" cy="69.57" r="1.85"/>
			<circle fill="#AEBDC4" cx="54.13" cy="69.57" r="1.85"/>
			<circle fill="#AEBDC4" cx="58.46" cy="69.57" r="1.85"/>
			<circle fill="#AEBDC4" cx="62.8" cy="69.57" r="1.85"/>
			<circle fill="#AEBDC4" cx="67.13" cy="69.57" r="1.85"/>
			<circle fill="#AEBDC4" cx="71.46" cy="69.57" r="1.85"/>
			<circle fill="#AEBDC4" cx="75.79" cy="69.57" r="1.85"/>
			<circle fill="#AEBDC4" cx="80.12" cy="69.57" r="1.85"/>
			<circle fill="#AEBDC4" cx="84.45" cy="69.57" r="1.85"/>
			<circle fill="#AEBDC4" cx="88.78" cy="69.57" r="1.85"/>
			<circle fill="#AEBDC4" cx="93.11" cy="69.57" r="1.85"/>
			<circle fill="#AEBDC4" cx="97.44" cy="69.57" r="1.85"/>
			<circle fill="#AEBDC4" cx="101.77" cy="69.57" r="1.85"/>
			<circle fill="#AEBDC4" cx="106.1" cy="69.57" r="1.85"/>
		</g>
		<g>
			<circle fill="#AEBDC4" cx="10.9" cy="182.26" r="1.85"/>
			<circle fill="#AEBDC4" cx="15.22" cy="182.26" r="1.85"/>
			<circle fill="#AEBDC4" cx="19.55" cy="182.26" r="1.85"/>
			<circle fill="#AEBDC4" cx="23.87" cy="182.26" r="1.85"/>
			<circle fill="#AEBDC4" cx="28.19" cy="182.26" r="1.85"/>
			<circle fill="#AEBDC4" cx="32.51" cy="182.26" r="1.85"/>
			<circle fill="#AEBDC4" cx="36.83" cy="182.26" r="1.85"/>
			<circle fill="#AEBDC4" cx="41.15" cy="182.26" r="1.85"/>
			<circle fill="#AEBDC4" cx="45.47" cy="182.26" r="1.85"/>
			<circle fill="#AEBDC4" cx="49.8" cy="182.26" r="1.85"/>
			<circle fill="#AEBDC4" cx="54.13" cy="182.26" r="1.85"/>
			<circle fill="#AEBDC4" cx="58.46" cy="182.26" r="1.85"/>
			<circle fill="#AEBDC4" cx="62.8" cy="182.26" r="1.85"/>
			<circle fill="#AEBDC4" cx="67.13" cy="182.26" r="1.85"/>
			<circle fill="#AEBDC4" cx="71.46" cy="182.26" r="1.85"/>
			<circle fill="#AEBDC4" cx="75.79" cy="182.26" r="1.85"/>
			<circle fill="#AEBDC4" cx="80.12" cy="182.26" r="1.85"/>
			<circle fill="#AEBDC4" cx="84.45" cy="182.26" r="1.85"/>
			<circle fill="#AEBDC4" cx="88.78" cy="182.26" r="1.85"/>
			<circle fill="#AEBDC4" cx="93.11" cy="182.26" r="1.85"/>
			<circle fill="#AEBDC4" cx="97.44" cy="182.26" r="1.85"/>
			<circle fill="#AEBDC4" cx="101.77" cy="182.26" r="1.85"/>
			<circle fill="#AEBDC4" cx="106.1" cy="182.26" r="1.85"/>
			<circle fill="#AEBDC4" cx="110.43" cy="182.26" r="1.85"/>
			<circle fill="#AEBDC4" cx="114.76" cy="182.26" r="1.85"/>
			<circle fill="#AEBDC4" cx="119.09" cy="182.26" r="1.85"/>
		</g>
		<g>
			<circle fill="#AEBDC4" cx="10.9" cy="176.33" r="1.85"/>
			<circle fill="#AEBDC4" cx="15.22" cy="176.33" r="1.85"/>
			<circle fill="#AEBDC4" cx="19.55" cy="176.33" r="1.85"/>
			<circle fill="#AEBDC4" cx="23.87" cy="176.33" r="1.85"/>
			<circle fill="#AEBDC4" cx="28.19" cy="176.33" r="1.85"/>
			<circle fill="#AEBDC4" cx="32.51" cy="176.33" r="1.85"/>
			<circle fill="#AEBDC4" cx="36.83" cy="176.33" r="1.85"/>
			<circle fill="#AEBDC4" cx="41.15" cy="176.33" r="1.85"/>
			<circle fill="#AEBDC4" cx="45.47" cy="176.33" r="1.85"/>
			<circle fill="#AEBDC4" cx="49.8" cy="176.33" r="1.85"/>
			<circle fill="#AEBDC4" cx="54.13" cy="176.33" r="1.85"/>
			<circle fill="#AEBDC4" cx="58.46" cy="176.33" r="1.85"/>
			<circle fill="#AEBDC4" cx="62.8" cy="176.33" r="1.85"/>
			<circle fill="#AEBDC4" cx="67.13" cy="176.33" r="1.85"/>
			<circle fill="#AEBDC4" cx="71.46" cy="176.33" r="1.85"/>
			<circle fill="#AEBDC4" cx="75.79" cy="176.33" r="1.85"/>
			<circle fill="#AEBDC4" cx="80.12" cy="176.33" r="1.85"/>
			<circle fill="#AEBDC4" cx="84.45" cy="176.33" r="1.85"/>
			<circle fill="#AEBDC4" cx="88.78" cy="176.33" r="1.85"/>
			<circle fill="#AEBDC4" cx="93.11" cy="176.33" r="1.85"/>
			<circle fill="#AEBDC4" cx="97.44" cy="176.33" r="1.85"/>
			<circle fill="#AEBDC4" cx="101.77" cy="176.33" r="1.85"/>
			<circle fill="#AEBDC4" cx="106.1" cy="176.33" r="1.85"/>
			<circle fill="#AEBDC4" cx="110.43" cy="176.33" r="1.85"/>
			<circle fill="#AEBDC4" cx="114.76" cy="176.33" r="1.85"/>
			<circle fill="#AEBDC4" cx="119.09" cy="176.33" r="1.85"/>
		</g>
		<g>
			<circle fill="#AEBDC4" cx="10.9" cy="170.39" r="1.85"/>
			<circle fill="#AEBDC4" cx="15.22" cy="170.39" r="1.85"/>
			<circle fill="#AEBDC4" cx="19.55" cy="170.39" r="1.85"/>
			<circle fill="#AEBDC4" cx="23.87" cy="170.39" r="1.85"/>
			<circle fill="#AEBDC4" cx="28.19" cy="170.39" r="1.85"/>
			<circle fill="#AEBDC4" cx="32.51" cy="170.39" r="1.85"/>
			<circle fill="#AEBDC4" cx="36.83" cy="170.39" r="1.85"/>
			<circle fill="#AEBDC4" cx="41.15" cy="170.39" r="1.85"/>
			<circle fill="#AEBDC4" cx="45.47" cy="170.39" r="1.85"/>
			<circle fill="#AEBDC4" cx="49.8" cy="170.39" r="1.85"/>
			<circle fill="#AEBDC4" cx="54.13" cy="170.39" r="1.85"/>
			<circle fill="#AEBDC4" cx="58.46" cy="170.39" r="1.85"/>
			<circle fill="#AEBDC4" cx="62.8" cy="170.39" r="1.85"/>
			<circle fill="#AEBDC4" cx="67.13" cy="170.39" r="1.85"/>
			<circle fill="#AEBDC4" cx="71.46" cy="170.39" r="1.85"/>
			<circle fill="#AEBDC4" cx="75.79" cy="170.39" r="1.85"/>
			<circle fill="#AEBDC4" cx="80.12" cy="170.39" r="1.85"/>
			<circle fill="#AEBDC4" cx="84.45" cy="170.39" r="1.85"/>
			<circle fill="#AEBDC4" cx="88.78" cy="170.39" r="1.85"/>
			<circle fill="#AEBDC4" cx="93.11" cy="170.39" r="1.85"/>
			<circle fill="#AEBDC4" cx="97.44" cy="170.39" r="1.85"/>
			<circle fill="#AEBDC4" cx="101.77" cy="170.39" r="1.85"/>
			<circle fill="#AEBDC4" cx="106.1" cy="170.39" r="1.85"/>
			<circle fill="#AEBDC4" cx="110.43" cy="170.39" r="1.85"/>
			<circle fill="#AEBDC4" cx="114.76" cy="170.39" r="1.85"/>
			<circle fill="#AEBDC4" cx="119.09" cy="170.39" r="1.85"/>
		</g>
		<g>
			<circle fill="#AEBDC4" cx="10.9" cy="164.46" r="1.85"/>
			<circle fill="#AEBDC4" cx="15.22" cy="164.46" r="1.85"/>
			<circle fill="#AEBDC4" cx="19.55" cy="164.46" r="1.85"/>
			<circle fill="#AEBDC4" cx="23.87" cy="164.46" r="1.85"/>
			<circle fill="#AEBDC4" cx="28.19" cy="164.46" r="1.85"/>
			<circle fill="#AEBDC4" cx="32.51" cy="164.46" r="1.85"/>
			<circle fill="#AEBDC4" cx="36.83" cy="164.46" r="1.85"/>
			<circle fill="#AEBDC4" cx="41.15" cy="164.46" r="1.85"/>
			<circle fill="#AEBDC4" cx="45.47" cy="164.46" r="1.85"/>
			<circle fill="#AEBDC4" cx="49.8" cy="164.46" r="1.85"/>
			<circle fill="#AEBDC4" cx="54.13" cy="164.46" r="1.85"/>
			<circle fill="#AEBDC4" cx="58.46" cy="164.46" r="1.85"/>
			<circle fill="#AEBDC4" cx="62.8" cy="164.46" r="1.85"/>
			<circle fill="#AEBDC4" cx="67.13" cy="164.46" r="1.85"/>
			<circle fill="#AEBDC4" cx="71.46" cy="164.46" r="1.85"/>
			<circle fill="#AEBDC4" cx="75.79" cy="164.46" r="1.85"/>
			<circle fill="#AEBDC4" cx="80.12" cy="164.46" r="1.85"/>
			<circle fill="#AEBDC4" cx="84.45" cy="164.46" r="1.85"/>
			<circle fill="#AEBDC4" cx="88.78" cy="164.46" r="1.85"/>
			<circle fill="#AEBDC4" cx="93.11" cy="164.46" r="1.85"/>
			<circle fill="#AEBDC4" cx="97.44" cy="164.46" r="1.85"/>
			<circle fill="#AEBDC4" cx="101.77" cy="164.46" r="1.85"/>
			<circle fill="#AEBDC4" cx="106.1" cy="164.46" r="1.85"/>
			<circle fill="#AEBDC4" cx="110.43" cy="164.46" r="1.85"/>
			<circle fill="#AEBDC4" cx="114.76" cy="164.46" r="1.85"/>
			<circle fill="#AEBDC4" cx="119.09" cy="164.46" r="1.85"/>
		</g>
		<g>
			<circle fill="#AEBDC4" cx="10.9" cy="158.53" r="1.85"/>
			<circle fill="#AEBDC4" cx="15.22" cy="158.53" r="1.85"/>
			<circle fill="#AEBDC4" cx="19.55" cy="158.53" r="1.85"/>
			<circle fill="#AEBDC4" cx="23.87" cy="158.53" r="1.85"/>
			<circle fill="#AEBDC4" cx="28.19" cy="158.53" r="1.85"/>
			<circle fill="#AEBDC4" cx="32.51" cy="158.53" r="1.85"/>
			<circle fill="#AEBDC4" cx="36.83" cy="158.53" r="1.85"/>
			<circle fill="#AEBDC4" cx="41.15" cy="158.53" r="1.85"/>
			<circle fill="#AEBDC4" cx="45.47" cy="158.53" r="1.85"/>
			<circle fill="#AEBDC4" cx="49.8" cy="158.53" r="1.85"/>
			<circle fill="#AEBDC4" cx="54.13" cy="158.53" r="1.85"/>
			<circle fill="#AEBDC4" cx="58.46" cy="158.53" r="1.85"/>
			<circle fill="#AEBDC4" cx="62.8" cy="158.53" r="1.85"/>
			<circle fill="#AEBDC4" cx="67.13" cy="158.53" r="1.85"/>
			<circle fill="#AEBDC4" cx="71.46" cy="158.53" r="1.85"/>
			<circle fill="#AEBDC4" cx="75.79" cy="158.53" r="1.85"/>
			<circle fill="#AEBDC4" cx="80.12" cy="158.53" r="1.85"/>
			<circle fill="#AEBDC4" cx="84.45" cy="158.53" r="1.85"/>
			<circle fill="#AEBDC4" cx="88.78" cy="158.53" r="1.85"/>
			<circle fill="#AEBDC4" cx="93.11" cy="158.53" r="1.85"/>
			<circle fill="#AEBDC4" cx="97.44" cy="158.53" r="1.85"/>
			<circle fill="#AEBDC4" cx="101.77" cy="158.53" r="1.85"/>
			<circle fill="#AEBDC4" cx="106.1" cy="158.53" r="1.85"/>
			<circle fill="#AEBDC4" cx="110.43" cy="158.53" r="1.85"/>
			<circle fill="#AEBDC4" cx="114.76" cy="158.53" r="1.85"/>
			<circle fill="#AEBDC4" cx="119.09" cy="158.53" r="1.85"/>
		</g>
		<g>
			<circle fill="#AEBDC4" cx="10.9" cy="122.95" r="1.85"/>
			<circle fill="#AEBDC4" cx="15.22" cy="122.95" r="1.85"/>
			<circle fill="#AEBDC4" cx="19.55" cy="122.95" r="1.85"/>
			<circle fill="#AEBDC4" cx="23.87" cy="122.95" r="1.85"/>
			<circle fill="#AEBDC4" cx="28.19" cy="122.95" r="1.85"/>
			<circle fill="#AEBDC4" cx="32.51" cy="122.95" r="1.85"/>
			<circle fill="#AEBDC4" cx="36.83" cy="122.95" r="1.85"/>
			<circle fill="#AEBDC4" cx="41.15" cy="122.95" r="1.85"/>
			<circle fill="#AEBDC4" cx="45.47" cy="122.95" r="1.85"/>
			<circle fill="#AEBDC4" cx="49.8" cy="122.95" r="1.85"/>
			<circle fill="#AEBDC4" cx="54.13" cy="122.95" r="1.85"/>
			<circle fill="#AEBDC4" cx="58.46" cy="122.95" r="1.85"/>
			<circle fill="#AEBDC4" cx="62.8" cy="122.95" r="1.85"/>
			<circle fill="#AEBDC4" cx="67.13" cy="122.95" r="1.85"/>
			<circle fill="#AEBDC4" cx="71.46" cy="122.95" r="1.85"/>
			<circle fill="#AEBDC4" cx="75.79" cy="122.95" r="1.85"/>
			<circle fill="#AEBDC4" cx="80.12" cy="122.95" r="1.85"/>
			<circle fill="#AEBDC4" cx="84.45" cy="122.95" r="1.85"/>
			<circle fill="#AEBDC4" cx="88.78" cy="122.95" r="1.85"/>
			<circle fill="#AEBDC4" cx="93.11" cy="122.95" r="1.85"/>
			<circle fill="#AEBDC4" cx="97.44" cy="122.95" r="1.85"/>
			<circle fill="#AEBDC4" cx="101.77" cy="122.95" r="1.85"/>
			<circle fill="#AEBDC4" cx="106.1" cy="122.95" r="1.85"/>
			<circle fill="#AEBDC4" cx="110.43" cy="122.95" r="1.85"/>
			<circle fill="#AEBDC4" cx="114.76" cy="122.95" r="1.85"/>
			<circle fill="#AEBDC4" cx="119.09" cy="122.95" r="1.85"/>
		</g>
		<g>
			<circle fill="#AEBDC4" cx="10.9" cy="117.02" r="1.85"/>
			<circle fill="#AEBDC4" cx="15.22" cy="117.02" r="1.85"/>
			<circle fill="#AEBDC4" cx="19.55" cy="117.02" r="1.85"/>
			<circle fill="#AEBDC4" cx="23.87" cy="117.02" r="1.85"/>
			<circle fill="#AEBDC4" cx="28.19" cy="117.02" r="1.85"/>
			<circle fill="#AEBDC4" cx="32.51" cy="117.02" r="1.85"/>
			<circle fill="#AEBDC4" cx="36.83" cy="117.02" r="1.85"/>
			<circle fill="#AEBDC4" cx="41.15" cy="117.02" r="1.85"/>
			<circle fill="#AEBDC4" cx="45.47" cy="117.02" r="1.85"/>
			<circle fill="#AEBDC4" cx="49.8" cy="117.02" r="1.85"/>
			<circle fill="#AEBDC4" cx="54.13" cy="117.02" r="1.85"/>
			<circle fill="#AEBDC4" cx="58.46" cy="117.02" r="1.85"/>
			<circle fill="#AEBDC4" cx="62.8" cy="117.02" r="1.85"/>
			<circle fill="#AEBDC4" cx="67.13" cy="117.02" r="1.85"/>
			<circle fill="#AEBDC4" cx="71.46" cy="117.02" r="1.85"/>
			<circle fill="#AEBDC4" cx="75.79" cy="117.02" r="1.85"/>
			<circle fill="#AEBDC4" cx="80.12" cy="117.02" r="1.85"/>
			<circle fill="#AEBDC4" cx="84.45" cy="117.02" r="1.85"/>
			<circle fill="#AEBDC4" cx="88.78" cy="117.02" r="1.85"/>
			<circle fill="#AEBDC4" cx="93.11" cy="117.02" r="1.85"/>
			<circle fill="#AEBDC4" cx="97.44" cy="117.02" r="1.85"/>
			<circle fill="#AEBDC4" cx="101.77" cy="117.02" r="1.85"/>
			<circle fill="#AEBDC4" cx="106.1" cy="117.02" r="1.85"/>
			<circle fill="#AEBDC4" cx="110.43" cy="117.02" r="1.85"/>
			<circle fill="#AEBDC4" cx="114.76" cy="117.02" r="1.85"/>
			<circle fill="#AEBDC4" cx="119.09" cy="117.02" r="1.85"/>
		</g>
		<g>
			<circle fill="#AEBDC4" cx="10.9" cy="111.09" r="1.85"/>
			<circle fill="#AEBDC4" cx="15.22" cy="111.09" r="1.85"/>
			<circle fill="#AEBDC4" cx="19.55" cy="111.09" r="1.85"/>
			<circle fill="#AEBDC4" cx="23.87" cy="111.09" r="1.85"/>
			<circle fill="#AEBDC4" cx="28.19" cy="111.09" r="1.85"/>
			<circle fill="#AEBDC4" cx="32.51" cy="111.09" r="1.85"/>
			<circle fill="#AEBDC4" cx="36.83" cy="111.09" r="1.85"/>
			<circle fill="#AEBDC4" cx="41.15" cy="111.09" r="1.85"/>
			<circle fill="#AEBDC4" cx="45.47" cy="111.09" r="1.85"/>
			<circle fill="#AEBDC4" cx="49.8" cy="111.09" r="1.85"/>
			<circle fill="#AEBDC4" cx="54.13" cy="111.09" r="1.85"/>
			<circle fill="#AEBDC4" cx="58.46" cy="111.09" r="1.85"/>
			<circle fill="#AEBDC4" cx="62.8" cy="111.09" r="1.85"/>
			<circle fill="#AEBDC4" cx="67.13" cy="111.09" r="1.85"/>
			<circle fill="#AEBDC4" cx="71.46" cy="111.09" r="1.85"/>
			<circle fill="#AEBDC4" cx="75.79" cy="111.09" r="1.85"/>
			<circle fill="#AEBDC4" cx="80.12" cy="111.09" r="1.85"/>
			<circle fill="#AEBDC4" cx="84.45" cy="111.09" r="1.85"/>
			<circle fill="#AEBDC4" cx="88.78" cy="111.09" r="1.85"/>
			<circle fill="#AEBDC4" cx="93.11" cy="111.09" r="1.85"/>
			<circle fill="#AEBDC4" cx="97.44" cy="111.09" r="1.85"/>
			<circle fill="#AEBDC4" cx="101.77" cy="111.09" r="1.85"/>
			<circle fill="#AEBDC4" cx="106.1" cy="111.09" r="1.85"/>
			<circle fill="#AEBDC4" cx="110.43" cy="111.09" r="1.85"/>
			<circle fill="#AEBDC4" cx="114.76" cy="111.09" r="1.85"/>
			<circle fill="#AEBDC4" cx="119.09" cy="111.09" r="1.85"/>
		</g>
		<g>
			<circle fill="#AEBDC4" cx="10.9" cy="105.16" r="1.85"/>
			<circle fill="#AEBDC4" cx="15.22" cy="105.16" r="1.85"/>
			<circle fill="#AEBDC4" cx="19.55" cy="105.16" r="1.85"/>
			<circle fill="#AEBDC4" cx="23.87" cy="105.16" r="1.85"/>
			<circle fill="#AEBDC4" cx="28.19" cy="105.16" r="1.85"/>
			<circle fill="#AEBDC4" cx="32.51" cy="105.16" r="1.85"/>
			<circle fill="#AEBDC4" cx="36.83" cy="105.16" r="1.85"/>
			<circle fill="#AEBDC4" cx="41.15" cy="105.16" r="1.85"/>
			<circle fill="#AEBDC4" cx="45.47" cy="105.16" r="1.85"/>
			<circle fill="#AEBDC4" cx="49.8" cy="105.16" r="1.85"/>
			<circle fill="#AEBDC4" cx="54.13" cy="105.16" r="1.85"/>
			<circle fill="#AEBDC4" cx="58.46" cy="105.16" r="1.85"/>
			<circle fill="#AEBDC4" cx="62.8" cy="105.16" r="1.85"/>
			<circle fill="#AEBDC4" cx="67.13" cy="105.16" r="1.85"/>
			<circle fill="#AEBDC4" cx="71.46" cy="105.16" r="1.85"/>
			<circle fill="#AEBDC4" cx="75.79" cy="105.16" r="1.85"/>
			<circle fill="#AEBDC4" cx="80.12" cy="105.16" r="1.85"/>
			<circle fill="#AEBDC4" cx="84.45" cy="105.16" r="1.85"/>
			<circle fill="#AEBDC4" cx="88.78" cy="105.16" r="1.85"/>
			<circle fill="#AEBDC4" cx="93.11" cy="105.16" r="1.85"/>
			<circle fill="#AEBDC4" cx="97.44" cy="105.16" r="1.85"/>
			<circle fill="#AEBDC4" cx="101.77" cy="105.16" r="1.85"/>
			<circle fill="#AEBDC4" cx="106.1" cy="105.16" r="1.85"/>
			<circle fill="#AEBDC4" cx="110.43" cy="105.16" r="1.85"/>
			<circle fill="#AEBDC4" cx="114.76" cy="105.16" r="1.85"/>
			<circle fill="#AEBDC4" cx="119.09" cy="105.16" r="1.85"/>
		</g>
		<g>
			<circle fill="#AEBDC4" cx="10.9" cy="99.22" r="1.85"/>
			<circle fill="#AEBDC4" cx="15.22" cy="99.22" r="1.85"/>
			<circle fill="#AEBDC4" cx="19.55" cy="99.22" r="1.85"/>
			<circle fill="#AEBDC4" cx="23.87" cy="99.22" r="1.85"/>
			<circle fill="#AEBDC4" cx="28.19" cy="99.22" r="1.85"/>
			<circle fill="#AEBDC4" cx="32.51" cy="99.22" r="1.85"/>
			<circle fill="#AEBDC4" cx="36.83" cy="99.22" r="1.85"/>
			<circle fill="#AEBDC4" cx="41.15" cy="99.22" r="1.85"/>
			<circle fill="#AEBDC4" cx="45.47" cy="99.22" r="1.85"/>
			<circle fill="#AEBDC4" cx="49.8" cy="99.22" r="1.85"/>
			<circle fill="#AEBDC4" cx="54.13" cy="99.22" r="1.85"/>
			<circle fill="#AEBDC4" cx="58.46" cy="99.22" r="1.85"/>
			<circle fill="#AEBDC4" cx="62.8" cy="99.22" r="1.85"/>
			<circle fill="#AEBDC4" cx="67.13" cy="99.22" r="1.85"/>
			<circle fill="#AEBDC4" cx="71.46" cy="99.22" r="1.85"/>
			<circle fill="#AEBDC4" cx="75.79" cy="99.22" r="1.85"/>
			<circle fill="#AEBDC4" cx="80.12" cy="99.22" r="1.85"/>
			<circle fill="#AEBDC4" cx="84.45" cy="99.22" r="1.85"/>
			<circle fill="#AEBDC4" cx="88.78" cy="99.22" r="1.85"/>
			<circle fill="#AEBDC4" cx="93.11" cy="99.22" r="1.85"/>
			<circle fill="#AEBDC4" cx="97.44" cy="99.22" r="1.85"/>
			<circle fill="#AEBDC4" cx="101.77" cy="99.22" r="1.85"/>
			<circle fill="#AEBDC4" cx="106.1" cy="99.22" r="1.85"/>
			<circle fill="#AEBDC4" cx="110.43" cy="99.22" r="1.85"/>
			<circle fill="#AEBDC4" cx="114.76" cy="99.22" r="1.85"/>
			<circle fill="#AEBDC4" cx="119.09" cy="99.22" r="1.85"/>
		</g>
		<g>
			<circle fill="#AEBDC4" cx="10.9" cy="93.29" r="1.85"/>
			<circle fill="#AEBDC4" cx="15.22" cy="93.29" r="1.85"/>
			<circle fill="#AEBDC4" cx="19.55" cy="93.29" r="1.85"/>
			<circle fill="#AEBDC4" cx="23.87" cy="93.29" r="1.85"/>
			<circle fill="#AEBDC4" cx="28.19" cy="93.29" r="1.85"/>
			<circle fill="#AEBDC4" cx="32.51" cy="93.29" r="1.85"/>
			<circle fill="#AEBDC4" cx="36.83" cy="93.29" r="1.85"/>
			<circle fill="#AEBDC4" cx="41.15" cy="93.29" r="1.85"/>
			<circle fill="#AEBDC4" cx="45.47" cy="93.29" r="1.85"/>
			<circle fill="#AEBDC4" cx="49.8" cy="93.29" r="1.85"/>
			<circle fill="#AEBDC4" cx="54.13" cy="93.29" r="1.85"/>
			<circle fill="#AEBDC4" cx="58.46" cy="93.29" r="1.85"/>
			<circle fill="#AEBDC4" cx="62.8" cy="93.29" r="1.85"/>
			<circle fill="#AEBDC4" cx="67.13" cy="93.29" r="1.85"/>
			<circle fill="#AEBDC4" cx="71.46" cy="93.29" r="1.85"/>
			<circle fill="#AEBDC4" cx="75.79" cy="93.29" r="1.85"/>
			<circle fill="#AEBDC4" cx="80.12" cy="93.29" r="1.85"/>
			<circle fill="#AEBDC4" cx="84.45" cy="93.29" r="1.85"/>
			<circle fill="#AEBDC4" cx="88.78" cy="93.29" r="1.85"/>
			<circle fill="#AEBDC4" cx="93.11" cy="93.29" r="1.85"/>
			<circle fill="#AEBDC4" cx="97.44" cy="93.29" r="1.85"/>
			<circle fill="#AEBDC4" cx="101.77" cy="93.29" r="1.85"/>
			<circle fill="#AEBDC4" cx="106.1" cy="93.29" r="1.85"/>
			<circle fill="#AEBDC4" cx="110.43" cy="93.29" r="1.85"/>
			<circle fill="#AEBDC4" cx="114.76" cy="93.29" r="1.85"/>
			<circle fill="#AEBDC4" cx="119.09" cy="93.29" r="1.85"/>
		</g>
		<g>
			<circle fill="#AEBDC4" cx="10.9" cy="87.36" r="1.85"/>
			<circle fill="#AEBDC4" cx="15.22" cy="87.36" r="1.85"/>
			<circle fill="#AEBDC4" cx="19.55" cy="87.36" r="1.85"/>
			<circle fill="#AEBDC4" cx="23.87" cy="87.36" r="1.85"/>
			<circle fill="#AEBDC4" cx="28.19" cy="87.36" r="1.85"/>
			<circle fill="#AEBDC4" cx="32.51" cy="87.36" r="1.85"/>
			<circle fill="#AEBDC4" cx="36.83" cy="87.36" r="1.85"/>
			<circle fill="#AEBDC4" cx="41.15" cy="87.36" r="1.85"/>
			<circle fill="#AEBDC4" cx="45.47" cy="87.36" r="1.85"/>
			<circle fill="#AEBDC4" cx="49.8" cy="87.36" r="1.85"/>
			<circle fill="#AEBDC4" cx="54.13" cy="87.36" r="1.85"/>
			<circle fill="#AEBDC4" cx="58.46" cy="87.36" r="1.85"/>
			<circle fill="#AEBDC4" cx="62.8" cy="87.36" r="1.85"/>
			<circle fill="#AEBDC4" cx="67.13" cy="87.36" r="1.85"/>
			<circle fill="#AEBDC4" cx="71.46" cy="87.36" r="1.85"/>
			<circle fill="#AEBDC4" cx="75.79" cy="87.36" r="1.85"/>
			<circle fill="#AEBDC4" cx="80.12" cy="87.36" r="1.85"/>
			<circle fill="#AEBDC4" cx="84.45" cy="87.36" r="1.85"/>
			<circle fill="#AEBDC4" cx="88.78" cy="87.36" r="1.85"/>
			<circle fill="#AEBDC4" cx="93.11" cy="87.36" r="1.85"/>
			<circle fill="#AEBDC4" cx="97.44" cy="87.36" r="1.85"/>
			<circle fill="#AEBDC4" cx="101.77" cy="87.36" r="1.85"/>
			<circle fill="#AEBDC4" cx="106.1" cy="87.36" r="1.85"/>
			<circle fill="#AEBDC4" cx="110.43" cy="87.36" r="1.85"/>
			<circle fill="#AEBDC4" cx="114.76" cy="87.36" r="1.85"/>
			<circle fill="#AEBDC4" cx="119.09" cy="87.36" r="1.85"/>
		</g>
		<g>
			<circle fill="#AEBDC4" cx="10.9" cy="81.43" r="1.85"/>
			<circle fill="#AEBDC4" cx="15.22" cy="81.43" r="1.85"/>
			<circle fill="#AEBDC4" cx="19.55" cy="81.43" r="1.85"/>
			<circle fill="#AEBDC4" cx="23.87" cy="81.43" r="1.85"/>
			<circle fill="#AEBDC4" cx="28.19" cy="81.43" r="1.85"/>
			<circle fill="#AEBDC4" cx="32.51" cy="81.43" r="1.85"/>
			<circle fill="#AEBDC4" cx="36.83" cy="81.43" r="1.85"/>
			<circle fill="#AEBDC4" cx="41.15" cy="81.43" r="1.85"/>
			<circle fill="#AEBDC4" cx="45.47" cy="81.43" r="1.85"/>
			<circle fill="#AEBDC4" cx="49.8" cy="81.43" r="1.85"/>
			<circle fill="#AEBDC4" cx="54.13" cy="81.43" r="1.85"/>
			<circle fill="#AEBDC4" cx="58.46" cy="81.43" r="1.85"/>
			<circle fill="#AEBDC4" cx="62.8" cy="81.43" r="1.85"/>
			<circle fill="#AEBDC4" cx="67.13" cy="81.43" r="1.85"/>
			<circle fill="#AEBDC4" cx="71.46" cy="81.43" r="1.85"/>
			<circle fill="#AEBDC4" cx="75.79" cy="81.43" r="1.85"/>
			<circle fill="#AEBDC4" cx="80.12" cy="81.43" r="1.85"/>
			<circle fill="#AEBDC4" cx="84.45" cy="81.43" r="1.85"/>
			<circle fill="#AEBDC4" cx="88.78" cy="81.43" r="1.85"/>
			<circle fill="#AEBDC4" cx="93.11" cy="81.43" r="1.85"/>
			<circle fill="#AEBDC4" cx="97.44" cy="81.43" r="1.85"/>
			<circle fill="#AEBDC4" cx="101.77" cy="81.43" r="1.85"/>
			<circle fill="#AEBDC4" cx="106.1" cy="81.43" r="1.85"/>
			<circle fill="#AEBDC4" cx="110.43" cy="81.43" r="1.85"/>
			<circle fill="#AEBDC4" cx="114.76" cy="81.43" r="1.85"/>
			<circle fill="#AEBDC4" cx="119.09" cy="81.43" r="1.85"/>
		</g>
		<g>
			<circle fill="#AEBDC4" cx="10.9" cy="75.5" r="1.85"/>
			<circle fill="#AEBDC4" cx="15.22" cy="75.5" r="1.85"/>
			<circle fill="#AEBDC4" cx="19.55" cy="75.5" r="1.85"/>
			<circle fill="#AEBDC4" cx="23.87" cy="75.5" r="1.85"/>
			<circle fill="#AEBDC4" cx="28.19" cy="75.5" r="1.85"/>
			<circle fill="#AEBDC4" cx="32.51" cy="75.5" r="1.85"/>
			<circle fill="#AEBDC4" cx="36.83" cy="75.5" r="1.85"/>
			<circle fill="#AEBDC4" cx="41.15" cy="75.5" r="1.85"/>
			<circle fill="#AEBDC4" cx="45.47" cy="75.5" r="1.85"/>
			<circle fill="#AEBDC4" cx="49.8" cy="75.5" r="1.85"/>
			<circle fill="#AEBDC4" cx="54.13" cy="75.5" r="1.85"/>
			<circle fill="#AEBDC4" cx="58.46" cy="75.5" r="1.85"/>
			<circle fill="#AEBDC4" cx="62.8" cy="75.5" r="1.85"/>
			<circle fill="#AEBDC4" cx="67.13" cy="75.5" r="1.85"/>
			<circle fill="#AEBDC4" cx="71.46" cy="75.5" r="1.85"/>
			<circle fill="#AEBDC4" cx="75.79" cy="75.5" r="1.85"/>
			<circle fill="#AEBDC4" cx="80.12" cy="75.5" r="1.85"/>
			<circle fill="#AEBDC4" cx="84.45" cy="75.5" r="1.85"/>
			<circle fill="#AEBDC4" cx="88.78" cy="75.5" r="1.85"/>
			<circle fill="#AEBDC4" cx="93.11" cy="75.5" r="1.85"/>
			<circle fill="#AEBDC4" cx="97.44" cy="75.5" r="1.85"/>
			<circle fill="#AEBDC4" cx="101.77" cy="75.5" r="1.85"/>
			<circle fill="#AEBDC4" cx="106.1" cy="75.5" r="1.85"/>
			<circle fill="#AEBDC4" cx="110.43" cy="75.5" r="1.85"/>
			<circle fill="#AEBDC4" cx="114.76" cy="75.5" r="1.85"/>
			<circle fill="#AEBDC4" cx="119.09" cy="75.5" r="1.85"/>
		</g>
	</g>
	<g onclick="this.parentNode.a_text=this;">
		<text transform="matrix(0.9999 0 0 1 59.3166 146.2722)"><tspan x="0" y="0" font-family="'OpenSans-Semibold'" font-size="6.3996px">W 2</tspan><tspan x="-4.28" y="7.2" font-family="'OpenSans-Semibold'" font-size="6.3996px">(</tspan><tspan x="-2.23" y="7.2" font-family="'OpenSans-Semibold'" font-size="6.3996px">в</tspan><tspan x="1.88" y="7.2" font-family="'OpenSans-Semibold'" font-size="6.3996px">е</tspan><tspan x="5.8" y="7.2" font-family="'OpenSans-Semibold'" font-size="6.3996px">рх</tspan><tspan x="13.62" y="7.2" font-family="'OpenSans-Semibold'" font-size="6.3996px">)</tspan></text>
	</g>
</g>
</svg>
