<?xml version="1.0" encoding="utf-8"?>
<!-- Generator: Adobe Illustrator 23.0.1, SVG Export Plug-In . SVG Version: 6.00 Build 0)  -->
<svg version="1.1" id="Layer_1" xmlns="http://www.w3.org/2000/svg" xmlns:xlink="http://www.w3.org/1999/xlink" x="0px" y="0px"
	 viewBox="0 0 130 192" style="enable-background:new 0 0 130 192;" xml:space="preserve">
<style type="text/css">
	.st0{fill:#F1F3F4;stroke:#BCC8CE;stroke-width:0.4;stroke-linecap:round;stroke-miterlimit:10;}
	.st1{fill:#AEBDC4;}
	.st2{font-family:'Roboto-Medium';}
	.st3{font-size:3px;}
</style>
<polygon class="st0" points="0.3,191.3 0.3,0.8 129.7,56.1 129.7,191.3 "/>
<g 
  data-sort-seat-direction="rtl" 
  data-sort-line-direction="btt" 
  data-sort-seat-option="cx" 
  data-sort-line-option="cy" 
  data-line-start="21"
  >
	<g>
		<circle class="st1" cx="10.9" cy="182.3" r="1.9"/>
		<circle class="st1" cx="15.2" cy="182.3" r="1.9"/>
		<circle class="st1" cx="19.5" cy="182.3" r="1.9"/>
		<circle class="st1" cx="23.9" cy="182.3" r="1.9"/>
		<circle class="st1" cx="28.2" cy="182.3" r="1.9"/>
		<circle class="st1" cx="32.5" cy="182.3" r="1.9"/>
		<circle class="st1" cx="36.8" cy="182.3" r="1.9"/>
		<circle class="st1" cx="41.2" cy="182.3" r="1.9"/>
		<circle class="st1" cx="45.5" cy="182.3" r="1.9"/>
		<circle class="st1" cx="49.8" cy="182.3" r="1.9"/>
		<circle class="st1" cx="54.1" cy="182.3" r="1.9"/>
		<circle class="st1" cx="58.5" cy="182.3" r="1.9"/>
		<circle class="st1" cx="62.8" cy="182.3" r="1.9"/>
		<circle class="st1" cx="67.1" cy="182.3" r="1.9"/>
		<circle class="st1" cx="71.5" cy="182.3" r="1.9"/>
		<circle class="st1" cx="75.8" cy="182.3" r="1.9"/>
		<circle class="st1" cx="80.1" cy="182.3" r="1.9"/>
		<circle class="st1" cx="84.4" cy="182.3" r="1.9"/>
		<circle class="st1" cx="88.8" cy="182.3" r="1.9"/>
		<circle class="st1" cx="93.1" cy="182.3" r="1.9"/>
		<circle class="st1" cx="97.4" cy="182.3" r="1.9"/>
		<circle class="st1" cx="101.8" cy="182.3" r="1.9"/>
		<circle class="st1" cx="106.1" cy="182.3" r="1.9"/>
		<circle class="st1" cx="110.4" cy="182.3" r="1.9"/>
		<circle class="st1" cx="114.8" cy="182.3" r="1.9"/>
		<circle class="st1" cx="119.1" cy="182.3" r="1.9"/>
		<text transform="matrix(1 0 0 1 4.4009 183.3105)" class="st1 st2 st3">00</text>
		<text transform="matrix(1 0 0 1 122.1909 183.3105)" class="st1 st2 st3">00</text>
	</g>
	<g>
		<circle class="st1" cx="10.9" cy="176.3" r="1.9"/>
		<circle class="st1" cx="15.2" cy="176.3" r="1.9"/>
		<circle class="st1" cx="19.5" cy="176.3" r="1.9"/>
		<circle class="st1" cx="23.9" cy="176.3" r="1.9"/>
		<circle class="st1" cx="28.2" cy="176.3" r="1.9"/>
		<circle class="st1" cx="32.5" cy="176.3" r="1.9"/>
		<circle class="st1" cx="36.8" cy="176.3" r="1.9"/>
		<circle class="st1" cx="41.2" cy="176.3" r="1.9"/>
		<circle class="st1" cx="45.5" cy="176.3" r="1.9"/>
		<circle class="st1" cx="49.8" cy="176.3" r="1.9"/>
		<circle class="st1" cx="54.1" cy="176.3" r="1.9"/>
		<circle class="st1" cx="58.5" cy="176.3" r="1.9"/>
		<circle class="st1" cx="62.8" cy="176.3" r="1.9"/>
		<circle class="st1" cx="67.1" cy="176.3" r="1.9"/>
		<circle class="st1" cx="71.5" cy="176.3" r="1.9"/>
		<circle class="st1" cx="75.8" cy="176.3" r="1.9"/>
		<circle class="st1" cx="80.1" cy="176.3" r="1.9"/>
		<circle class="st1" cx="84.4" cy="176.3" r="1.9"/>
		<circle class="st1" cx="88.8" cy="176.3" r="1.9"/>
		<circle class="st1" cx="93.1" cy="176.3" r="1.9"/>
		<circle class="st1" cx="97.4" cy="176.3" r="1.9"/>
		<circle class="st1" cx="101.8" cy="176.3" r="1.9"/>
		<circle class="st1" cx="106.1" cy="176.3" r="1.9"/>
		<circle class="st1" cx="110.4" cy="176.3" r="1.9"/>
		<circle class="st1" cx="114.8" cy="176.3" r="1.9"/>
		<circle class="st1" cx="119.1" cy="176.3" r="1.9"/>
		<text transform="matrix(1 0 0 1 4.4009 177.3806)" class="st1 st2 st3">00</text>
		<text transform="matrix(1 0 0 1 122.1909 177.3806)" class="st1 st2 st3">00</text>
	</g>
	<g>
		<circle class="st1" cx="10.9" cy="170.4" r="1.9"/>
		<circle class="st1" cx="15.2" cy="170.4" r="1.9"/>
		<circle class="st1" cx="19.5" cy="170.4" r="1.9"/>
		<circle class="st1" cx="23.9" cy="170.4" r="1.9"/>
		<circle class="st1" cx="28.2" cy="170.4" r="1.9"/>
		<circle class="st1" cx="32.5" cy="170.4" r="1.9"/>
		<circle class="st1" cx="36.8" cy="170.4" r="1.9"/>
		<circle class="st1" cx="41.2" cy="170.4" r="1.9"/>
		<circle class="st1" cx="45.5" cy="170.4" r="1.9"/>
		<circle class="st1" cx="49.8" cy="170.4" r="1.9"/>
		<circle class="st1" cx="54.1" cy="170.4" r="1.9"/>
		<circle class="st1" cx="58.5" cy="170.4" r="1.9"/>
		<circle class="st1" cx="62.8" cy="170.4" r="1.9"/>
		<circle class="st1" cx="67.1" cy="170.4" r="1.9"/>
		<circle class="st1" cx="71.5" cy="170.4" r="1.9"/>
		<circle class="st1" cx="75.8" cy="170.4" r="1.9"/>
		<circle class="st1" cx="80.1" cy="170.4" r="1.9"/>
		<circle class="st1" cx="84.4" cy="170.4" r="1.9"/>
		<circle class="st1" cx="88.8" cy="170.4" r="1.9"/>
		<circle class="st1" cx="93.1" cy="170.4" r="1.9"/>
		<circle class="st1" cx="97.4" cy="170.4" r="1.9"/>
		<circle class="st1" cx="101.8" cy="170.4" r="1.9"/>
		<circle class="st1" cx="106.1" cy="170.4" r="1.9"/>
		<circle class="st1" cx="110.4" cy="170.4" r="1.9"/>
		<circle class="st1" cx="114.8" cy="170.4" r="1.9"/>
		<circle class="st1" cx="119.1" cy="170.4" r="1.9"/>
		<text transform="matrix(1 0 0 1 4.4009 171.4507)" class="st1 st2 st3">00</text>
		<text transform="matrix(1 0 0 1 122.1909 171.4507)" class="st1 st2 st3">00</text>
	</g>
	<g>
		<circle class="st1" cx="10.9" cy="164.5" r="1.9"/>
		<circle class="st1" cx="15.2" cy="164.5" r="1.9"/>
		<circle class="st1" cx="19.5" cy="164.5" r="1.9"/>
		<circle class="st1" cx="23.9" cy="164.5" r="1.9"/>
		<circle class="st1" cx="28.2" cy="164.5" r="1.9"/>
		<circle class="st1" cx="32.5" cy="164.5" r="1.9"/>
		<circle class="st1" cx="36.8" cy="164.5" r="1.9"/>
		<circle class="st1" cx="41.2" cy="164.5" r="1.9"/>
		<circle class="st1" cx="45.5" cy="164.5" r="1.9"/>
		<circle class="st1" cx="49.8" cy="164.5" r="1.9"/>
		<circle class="st1" cx="54.1" cy="164.5" r="1.9"/>
		<circle class="st1" cx="58.5" cy="164.5" r="1.9"/>
		<circle class="st1" cx="62.8" cy="164.5" r="1.9"/>
		<circle class="st1" cx="67.1" cy="164.5" r="1.9"/>
		<circle class="st1" cx="71.5" cy="164.5" r="1.9"/>
		<circle class="st1" cx="75.8" cy="164.5" r="1.9"/>
		<circle class="st1" cx="80.1" cy="164.5" r="1.9"/>
		<circle class="st1" cx="84.4" cy="164.5" r="1.9"/>
		<circle class="st1" cx="88.8" cy="164.5" r="1.9"/>
		<circle class="st1" cx="93.1" cy="164.5" r="1.9"/>
		<circle class="st1" cx="97.4" cy="164.5" r="1.9"/>
		<circle class="st1" cx="101.8" cy="164.5" r="1.9"/>
		<circle class="st1" cx="106.1" cy="164.5" r="1.9"/>
		<circle class="st1" cx="110.4" cy="164.5" r="1.9"/>
		<circle class="st1" cx="114.8" cy="164.5" r="1.9"/>
		<circle class="st1" cx="119.1" cy="164.5" r="1.9"/>
		<text transform="matrix(1 0 0 1 4.4009 165.5208)" class="st1 st2 st3">00</text>
		<text transform="matrix(1 0 0 1 122.1909 165.5208)" class="st1 st2 st3">00</text>
	</g>
	<g>
		<circle class="st1" cx="10.9" cy="158.5" r="1.9"/>
		<circle class="st1" cx="15.2" cy="158.5" r="1.9"/>
		<circle class="st1" cx="19.5" cy="158.5" r="1.9"/>
		<circle class="st1" cx="23.9" cy="158.5" r="1.9"/>
		<circle class="st1" cx="28.2" cy="158.5" r="1.9"/>
		<circle class="st1" cx="32.5" cy="158.5" r="1.9"/>
		<circle class="st1" cx="36.8" cy="158.5" r="1.9"/>
		<circle class="st1" cx="41.2" cy="158.5" r="1.9"/>
		<circle class="st1" cx="45.5" cy="158.5" r="1.9"/>
		<circle class="st1" cx="49.8" cy="158.5" r="1.9"/>
		<circle class="st1" cx="54.1" cy="158.5" r="1.9"/>
		<circle class="st1" cx="58.5" cy="158.5" r="1.9"/>
		<circle class="st1" cx="62.8" cy="158.5" r="1.9"/>
		<circle class="st1" cx="67.1" cy="158.5" r="1.9"/>
		<circle class="st1" cx="71.5" cy="158.5" r="1.9"/>
		<circle class="st1" cx="75.8" cy="158.5" r="1.9"/>
		<circle class="st1" cx="80.1" cy="158.5" r="1.9"/>
		<circle class="st1" cx="84.4" cy="158.5" r="1.9"/>
		<circle class="st1" cx="88.8" cy="158.5" r="1.9"/>
		<circle class="st1" cx="93.1" cy="158.5" r="1.9"/>
		<circle class="st1" cx="97.4" cy="158.5" r="1.9"/>
		<circle class="st1" cx="101.8" cy="158.5" r="1.9"/>
		<circle class="st1" cx="106.1" cy="158.5" r="1.9"/>
		<circle class="st1" cx="110.4" cy="158.5" r="1.9"/>
		<circle class="st1" cx="114.8" cy="158.5" r="1.9"/>
		<circle class="st1" cx="119.1" cy="158.5" r="1.9"/>
		<text transform="matrix(1 0 0 1 4.4009 159.5908)" class="st1 st2 st3">00</text>
		<text transform="matrix(1 0 0 1 122.1909 159.5908)" class="st1 st2 st3">00</text>
	</g>
	<g>
		<circle class="st1" cx="19.6" cy="152.6" r="1.9"/>
		<circle class="st1" cx="23.9" cy="152.6" r="1.9"/>
		<circle class="st1" cx="28.2" cy="152.6" r="1.9"/>
		<circle class="st1" cx="32.5" cy="152.6" r="1.9"/>
		<circle class="st1" cx="36.8" cy="152.6" r="1.9"/>
		<circle class="st1" cx="41.2" cy="152.6" r="1.9"/>
		<circle class="st1" cx="45.5" cy="152.6" r="1.9"/>
		<circle class="st1" cx="49.8" cy="152.6" r="1.9"/>
		<circle class="st1" cx="54.1" cy="152.6" r="1.9"/>
		<circle class="st1" cx="58.5" cy="152.6" r="1.9"/>
		<circle class="st1" cx="62.8" cy="152.6" r="1.9"/>
		<circle class="st1" cx="67.1" cy="152.6" r="1.9"/>
		<circle class="st1" cx="71.5" cy="152.6" r="1.9"/>
		<circle class="st1" cx="75.8" cy="152.6" r="1.9"/>
		<circle class="st1" cx="80.1" cy="152.6" r="1.9"/>
		<circle class="st1" cx="84.4" cy="152.6" r="1.9"/>
		<circle class="st1" cx="88.8" cy="152.6" r="1.9"/>
		<circle class="st1" cx="93.1" cy="152.6" r="1.9"/>
		<circle class="st1" cx="97.4" cy="152.6" r="1.9"/>
		<circle class="st1" cx="101.8" cy="152.6" r="1.9"/>
		<circle class="st1" cx="106.1" cy="152.6" r="1.9"/>
		<circle class="st1" cx="110.4" cy="152.6" r="1.9"/>
		<text transform="matrix(1 0 0 1 13.0509 153.6609)" class="st1 st2 st3">00</text>
		<text transform="matrix(1 0 0 1 113.5309 153.6609)" class="st1 st2 st3">00</text>
	</g>
	<g>
		<circle class="st1" cx="19.6" cy="146.7" r="1.9"/>
		<circle class="st1" cx="23.9" cy="146.7" r="1.9"/>
		<circle class="st1" cx="28.2" cy="146.7" r="1.9"/>
		<circle class="st1" cx="32.5" cy="146.7" r="1.9"/>
		<circle class="st1" cx="36.8" cy="146.7" r="1.9"/>
		<circle class="st1" cx="41.2" cy="146.7" r="1.9"/>
		<circle class="st1" cx="45.5" cy="146.7" r="1.9"/>
		<circle class="st1" cx="49.8" cy="146.7" r="1.9"/>
		<circle class="st1" cx="54.1" cy="146.7" r="1.9"/>
		<circle class="st1" cx="58.5" cy="146.7" r="1.9"/>
		<circle class="st1" cx="62.8" cy="146.7" r="1.9"/>
		<circle class="st1" cx="67.1" cy="146.7" r="1.9"/>
		<circle class="st1" cx="71.5" cy="146.7" r="1.9"/>
		<circle class="st1" cx="75.8" cy="146.7" r="1.9"/>
		<circle class="st1" cx="80.1" cy="146.7" r="1.9"/>
		<circle class="st1" cx="84.4" cy="146.7" r="1.9"/>
		<circle class="st1" cx="88.8" cy="146.7" r="1.9"/>
		<circle class="st1" cx="93.1" cy="146.7" r="1.9"/>
		<circle class="st1" cx="97.4" cy="146.7" r="1.9"/>
		<circle class="st1" cx="101.8" cy="146.7" r="1.9"/>
		<circle class="st1" cx="106.1" cy="146.7" r="1.9"/>
		<circle class="st1" cx="110.4" cy="146.7" r="1.9"/>
		<text transform="matrix(1 0 0 1 13.0509 147.731)" class="st1 st2 st3">00</text>
		<text transform="matrix(1 0 0 1 113.5309 147.731)" class="st1 st2 st3">00</text>
	</g>
	<g>
		<circle class="st1" cx="19.6" cy="140.7" r="1.9"/>
		<circle class="st1" cx="23.9" cy="140.7" r="1.9"/>
		<circle class="st1" cx="28.2" cy="140.7" r="1.9"/>
		<circle class="st1" cx="32.5" cy="140.7" r="1.9"/>
		<circle class="st1" cx="36.8" cy="140.7" r="1.9"/>
		<circle class="st1" cx="41.2" cy="140.7" r="1.9"/>
		<circle class="st1" cx="45.5" cy="140.7" r="1.9"/>
		<circle class="st1" cx="49.8" cy="140.7" r="1.9"/>
		<circle class="st1" cx="54.1" cy="140.7" r="1.9"/>
		<circle class="st1" cx="58.5" cy="140.7" r="1.9"/>
		<circle class="st1" cx="62.8" cy="140.7" r="1.9"/>
		<circle class="st1" cx="67.1" cy="140.7" r="1.9"/>
		<circle class="st1" cx="71.5" cy="140.7" r="1.9"/>
		<circle class="st1" cx="75.8" cy="140.7" r="1.9"/>
		<circle class="st1" cx="80.1" cy="140.7" r="1.9"/>
		<circle class="st1" cx="84.4" cy="140.7" r="1.9"/>
		<circle class="st1" cx="88.8" cy="140.7" r="1.9"/>
		<circle class="st1" cx="93.1" cy="140.7" r="1.9"/>
		<circle class="st1" cx="97.4" cy="140.7" r="1.9"/>
		<circle class="st1" cx="101.8" cy="140.7" r="1.9"/>
		<circle class="st1" cx="106.1" cy="140.7" r="1.9"/>
		<circle class="st1" cx="110.4" cy="140.7" r="1.9"/>
		<text transform="matrix(1 0 0 1 13.0509 141.801)" class="st1 st2 st3">00</text>
		<text transform="matrix(1 0 0 1 113.5309 141.801)" class="st1 st2 st3">00</text>
	</g>
	<g>
		<circle class="st1" cx="19.6" cy="134.8" r="1.9"/>
		<circle class="st1" cx="23.9" cy="134.8" r="1.9"/>
		<circle class="st1" cx="28.2" cy="134.8" r="1.9"/>
		<circle class="st1" cx="32.5" cy="134.8" r="1.9"/>
		<circle class="st1" cx="36.8" cy="134.8" r="1.9"/>
		<circle class="st1" cx="41.2" cy="134.8" r="1.9"/>
		<circle class="st1" cx="45.5" cy="134.8" r="1.9"/>
		<circle class="st1" cx="49.8" cy="134.8" r="1.9"/>
		<circle class="st1" cx="54.1" cy="134.8" r="1.9"/>
		<circle class="st1" cx="58.5" cy="134.8" r="1.9"/>
		<circle class="st1" cx="62.8" cy="134.8" r="1.9"/>
		<circle class="st1" cx="67.1" cy="134.8" r="1.9"/>
		<circle class="st1" cx="71.5" cy="134.8" r="1.9"/>
		<circle class="st1" cx="75.8" cy="134.8" r="1.9"/>
		<circle class="st1" cx="80.1" cy="134.8" r="1.9"/>
		<circle class="st1" cx="84.4" cy="134.8" r="1.9"/>
		<circle class="st1" cx="88.8" cy="134.8" r="1.9"/>
		<circle class="st1" cx="93.1" cy="134.8" r="1.9"/>
		<circle class="st1" cx="97.4" cy="134.8" r="1.9"/>
		<circle class="st1" cx="101.8" cy="134.8" r="1.9"/>
		<circle class="st1" cx="106.1" cy="134.8" r="1.9"/>
		<circle class="st1" cx="110.4" cy="134.8" r="1.9"/>
		<text transform="matrix(1 0 0 1 13.0509 135.8711)" class="st1 st2 st3">00</text>
		<text transform="matrix(1 0 0 1 113.5309 135.8711)" class="st1 st2 st3">00</text>
	</g>
	<g>
		<circle class="st1" cx="19.6" cy="128.9" r="1.9"/>
		<circle class="st1" cx="23.9" cy="128.9" r="1.9"/>
		<circle class="st1" cx="28.2" cy="128.9" r="1.9"/>
		<circle class="st1" cx="32.5" cy="128.9" r="1.9"/>
		<circle class="st1" cx="36.8" cy="128.9" r="1.9"/>
		<circle class="st1" cx="41.2" cy="128.9" r="1.9"/>
		<circle class="st1" cx="45.5" cy="128.9" r="1.9"/>
		<circle class="st1" cx="49.8" cy="128.9" r="1.9"/>
		<circle class="st1" cx="54.1" cy="128.9" r="1.9"/>
		<circle class="st1" cx="58.5" cy="128.9" r="1.9"/>
		<circle class="st1" cx="62.8" cy="128.9" r="1.9"/>
		<circle class="st1" cx="67.1" cy="128.9" r="1.9"/>
		<circle class="st1" cx="71.5" cy="128.9" r="1.9"/>
		<circle class="st1" cx="75.8" cy="128.9" r="1.9"/>
		<circle class="st1" cx="80.1" cy="128.9" r="1.9"/>
		<circle class="st1" cx="84.4" cy="128.9" r="1.9"/>
		<circle class="st1" cx="88.8" cy="128.9" r="1.9"/>
		<circle class="st1" cx="93.1" cy="128.9" r="1.9"/>
		<circle class="st1" cx="97.4" cy="128.9" r="1.9"/>
		<circle class="st1" cx="101.8" cy="128.9" r="1.9"/>
		<circle class="st1" cx="106.1" cy="128.9" r="1.9"/>
		<circle class="st1" cx="110.4" cy="128.9" r="1.9"/>
		<text transform="matrix(1 0 0 1 13.0509 129.9412)" class="st1 st2 st3">00</text>
		<text transform="matrix(1 0 0 1 113.5309 129.9412)" class="st1 st2 st3">00</text>
	</g>
	<g>
		<circle class="st1" cx="10.9" cy="122.9" r="1.8"/>
		<circle class="st1" cx="15.2" cy="122.9" r="1.8"/>
		<circle class="st1" cx="19.5" cy="122.9" r="1.8"/>
		<circle class="st1" cx="23.9" cy="122.9" r="1.8"/>
		<circle class="st1" cx="28.2" cy="122.9" r="1.8"/>
		<circle class="st1" cx="32.5" cy="122.9" r="1.8"/>
		<circle class="st1" cx="36.8" cy="122.9" r="1.8"/>
		<circle class="st1" cx="41.2" cy="122.9" r="1.8"/>
		<circle class="st1" cx="45.5" cy="122.9" r="1.8"/>
		<circle class="st1" cx="49.8" cy="122.9" r="1.8"/>
		<circle class="st1" cx="54.1" cy="122.9" r="1.8"/>
		<circle class="st1" cx="58.5" cy="122.9" r="1.8"/>
		<circle class="st1" cx="62.8" cy="122.9" r="1.8"/>
		<circle class="st1" cx="67.1" cy="122.9" r="1.8"/>
		<circle class="st1" cx="71.5" cy="122.9" r="1.8"/>
		<circle class="st1" cx="75.8" cy="122.9" r="1.8"/>
		<circle class="st1" cx="80.1" cy="122.9" r="1.8"/>
		<circle class="st1" cx="84.4" cy="122.9" r="1.8"/>
		<circle class="st1" cx="88.8" cy="122.9" r="1.8"/>
		<circle class="st1" cx="93.1" cy="122.9" r="1.8"/>
		<circle class="st1" cx="97.4" cy="122.9" r="1.8"/>
		<circle class="st1" cx="101.8" cy="122.9" r="1.8"/>
		<circle class="st1" cx="106.1" cy="122.9" r="1.8"/>
		<circle class="st1" cx="110.4" cy="122.9" r="1.8"/>
		<circle class="st1" cx="114.8" cy="122.9" r="1.8"/>
		<circle class="st1" cx="119.1" cy="122.9" r="1.8"/>
		<text transform="matrix(1 0 0 1 4.4009 124.0112)" class="st1 st2 st3">00</text>
		<text transform="matrix(1 0 0 1 122.1909 124.0112)" class="st1 st2 st3">00</text>
	</g>
	<g>
		<circle class="st1" cx="10.9" cy="117" r="1.8"/>
		<circle class="st1" cx="15.2" cy="117" r="1.8"/>
		<circle class="st1" cx="19.5" cy="117" r="1.8"/>
		<circle class="st1" cx="23.9" cy="117" r="1.8"/>
		<circle class="st1" cx="28.2" cy="117" r="1.8"/>
		<circle class="st1" cx="32.5" cy="117" r="1.8"/>
		<circle class="st1" cx="36.8" cy="117" r="1.8"/>
		<circle class="st1" cx="41.2" cy="117" r="1.8"/>
		<circle class="st1" cx="45.5" cy="117" r="1.8"/>
		<circle class="st1" cx="49.8" cy="117" r="1.8"/>
		<circle class="st1" cx="54.1" cy="117" r="1.8"/>
		<circle class="st1" cx="58.5" cy="117" r="1.8"/>
		<circle class="st1" cx="62.8" cy="117" r="1.8"/>
		<circle class="st1" cx="67.1" cy="117" r="1.8"/>
		<circle class="st1" cx="71.5" cy="117" r="1.8"/>
		<circle class="st1" cx="75.8" cy="117" r="1.8"/>
		<circle class="st1" cx="80.1" cy="117" r="1.8"/>
		<circle class="st1" cx="84.4" cy="117" r="1.8"/>
		<circle class="st1" cx="88.8" cy="117" r="1.8"/>
		<circle class="st1" cx="93.1" cy="117" r="1.8"/>
		<circle class="st1" cx="97.4" cy="117" r="1.8"/>
		<circle class="st1" cx="101.8" cy="117" r="1.8"/>
		<circle class="st1" cx="106.1" cy="117" r="1.8"/>
		<circle class="st1" cx="110.4" cy="117" r="1.8"/>
		<circle class="st1" cx="114.8" cy="117" r="1.8"/>
		<circle class="st1" cx="119.1" cy="117" r="1.8"/>
		<text transform="matrix(1 0 0 1 4.4009 118.0813)" class="st1 st2 st3">00</text>
		<text transform="matrix(1 0 0 1 122.1909 118.0813)" class="st1 st2 st3">00</text>
	</g>
	<g>
		<circle class="st1" cx="10.9" cy="111.1" r="1.8"/>
		<circle class="st1" cx="15.2" cy="111.1" r="1.8"/>
		<circle class="st1" cx="19.5" cy="111.1" r="1.8"/>
		<circle class="st1" cx="23.9" cy="111.1" r="1.8"/>
		<circle class="st1" cx="28.2" cy="111.1" r="1.8"/>
		<circle class="st1" cx="32.5" cy="111.1" r="1.8"/>
		<circle class="st1" cx="36.8" cy="111.1" r="1.8"/>
		<circle class="st1" cx="41.2" cy="111.1" r="1.8"/>
		<circle class="st1" cx="45.5" cy="111.1" r="1.8"/>
		<circle class="st1" cx="49.8" cy="111.1" r="1.8"/>
		<circle class="st1" cx="54.1" cy="111.1" r="1.8"/>
		<circle class="st1" cx="58.5" cy="111.1" r="1.8"/>
		<circle class="st1" cx="62.8" cy="111.1" r="1.8"/>
		<circle class="st1" cx="67.1" cy="111.1" r="1.8"/>
		<circle class="st1" cx="71.5" cy="111.1" r="1.8"/>
		<circle class="st1" cx="75.8" cy="111.1" r="1.8"/>
		<circle class="st1" cx="80.1" cy="111.1" r="1.8"/>
		<circle class="st1" cx="84.4" cy="111.1" r="1.8"/>
		<circle class="st1" cx="88.8" cy="111.1" r="1.8"/>
		<circle class="st1" cx="93.1" cy="111.1" r="1.8"/>
		<circle class="st1" cx="97.4" cy="111.1" r="1.8"/>
		<circle class="st1" cx="101.8" cy="111.1" r="1.8"/>
		<circle class="st1" cx="106.1" cy="111.1" r="1.8"/>
		<circle class="st1" cx="110.4" cy="111.1" r="1.8"/>
		<circle class="st1" cx="114.8" cy="111.1" r="1.8"/>
		<circle class="st1" cx="119.1" cy="111.1" r="1.8"/>
		<text transform="matrix(1 0 0 1 4.4009 112.1514)" class="st1 st2 st3">00</text>
		<text transform="matrix(1 0 0 1 122.1909 112.1514)" class="st1 st2 st3">00</text>
	</g>
	<g>
		<circle class="st1" cx="10.9" cy="105.2" r="1.8"/>
		<circle class="st1" cx="15.2" cy="105.2" r="1.8"/>
		<circle class="st1" cx="19.5" cy="105.2" r="1.8"/>
		<circle class="st1" cx="23.9" cy="105.2" r="1.8"/>
		<circle class="st1" cx="28.2" cy="105.2" r="1.8"/>
		<circle class="st1" cx="32.5" cy="105.2" r="1.8"/>
		<circle class="st1" cx="36.8" cy="105.2" r="1.8"/>
		<circle class="st1" cx="41.2" cy="105.2" r="1.8"/>
		<circle class="st1" cx="45.5" cy="105.2" r="1.8"/>
		<circle class="st1" cx="49.8" cy="105.2" r="1.8"/>
		<circle class="st1" cx="54.1" cy="105.2" r="1.8"/>
		<circle class="st1" cx="58.5" cy="105.2" r="1.8"/>
		<circle class="st1" cx="62.8" cy="105.2" r="1.8"/>
		<circle class="st1" cx="67.1" cy="105.2" r="1.8"/>
		<circle class="st1" cx="71.5" cy="105.2" r="1.8"/>
		<circle class="st1" cx="75.8" cy="105.2" r="1.8"/>
		<circle class="st1" cx="80.1" cy="105.2" r="1.8"/>
		<circle class="st1" cx="84.4" cy="105.2" r="1.8"/>
		<circle class="st1" cx="88.8" cy="105.2" r="1.8"/>
		<circle class="st1" cx="93.1" cy="105.2" r="1.8"/>
		<circle class="st1" cx="97.4" cy="105.2" r="1.8"/>
		<circle class="st1" cx="101.8" cy="105.2" r="1.8"/>
		<circle class="st1" cx="106.1" cy="105.2" r="1.8"/>
		<circle class="st1" cx="110.4" cy="105.2" r="1.8"/>
		<circle class="st1" cx="114.8" cy="105.2" r="1.8"/>
		<circle class="st1" cx="119.1" cy="105.2" r="1.8"/>
		<text transform="matrix(1 0 0 1 4.4009 106.2214)" class="st1 st2 st3">00</text>
		<text transform="matrix(1 0 0 1 122.1909 106.2214)" class="st1 st2 st3">00</text>
	</g>
	<g>
		<circle class="st1" cx="10.9" cy="99.2" r="1.8"/>
		<circle class="st1" cx="15.2" cy="99.2" r="1.8"/>
		<circle class="st1" cx="19.5" cy="99.2" r="1.8"/>
		<circle class="st1" cx="23.9" cy="99.2" r="1.8"/>
		<circle class="st1" cx="28.2" cy="99.2" r="1.8"/>
		<circle class="st1" cx="32.5" cy="99.2" r="1.8"/>
		<circle class="st1" cx="36.8" cy="99.2" r="1.8"/>
		<circle class="st1" cx="41.2" cy="99.2" r="1.8"/>
		<circle class="st1" cx="45.5" cy="99.2" r="1.8"/>
		<circle class="st1" cx="49.8" cy="99.2" r="1.8"/>
		<circle class="st1" cx="54.1" cy="99.2" r="1.8"/>
		<circle class="st1" cx="58.5" cy="99.2" r="1.8"/>
		<circle class="st1" cx="62.8" cy="99.2" r="1.8"/>
		<circle class="st1" cx="67.1" cy="99.2" r="1.8"/>
		<circle class="st1" cx="71.5" cy="99.2" r="1.8"/>
		<circle class="st1" cx="75.8" cy="99.2" r="1.8"/>
		<circle class="st1" cx="80.1" cy="99.2" r="1.8"/>
		<circle class="st1" cx="84.4" cy="99.2" r="1.8"/>
		<circle class="st1" cx="88.8" cy="99.2" r="1.8"/>
		<circle class="st1" cx="93.1" cy="99.2" r="1.8"/>
		<circle class="st1" cx="97.4" cy="99.2" r="1.8"/>
		<circle class="st1" cx="101.8" cy="99.2" r="1.8"/>
		<circle class="st1" cx="106.1" cy="99.2" r="1.8"/>
		<circle class="st1" cx="110.4" cy="99.2" r="1.8"/>
		<circle class="st1" cx="114.8" cy="99.2" r="1.8"/>
		<circle class="st1" cx="119.1" cy="99.2" r="1.8"/>
		<text transform="matrix(1 0 0 1 4.4009 100.2915)" class="st1 st2 st3">00</text>
		<text transform="matrix(1 0 0 1 122.1909 100.2915)" class="st1 st2 st3">00</text>
	</g>
	<g>
		<circle class="st1" cx="10.9" cy="93.3" r="1.8"/>
		<circle class="st1" cx="15.2" cy="93.3" r="1.8"/>
		<circle class="st1" cx="19.5" cy="93.3" r="1.8"/>
		<circle class="st1" cx="23.9" cy="93.3" r="1.8"/>
		<circle class="st1" cx="28.2" cy="93.3" r="1.8"/>
		<circle class="st1" cx="32.5" cy="93.3" r="1.8"/>
		<circle class="st1" cx="36.8" cy="93.3" r="1.8"/>
		<circle class="st1" cx="41.2" cy="93.3" r="1.8"/>
		<circle class="st1" cx="45.5" cy="93.3" r="1.8"/>
		<circle class="st1" cx="49.8" cy="93.3" r="1.8"/>
		<circle class="st1" cx="54.1" cy="93.3" r="1.8"/>
		<circle class="st1" cx="58.5" cy="93.3" r="1.8"/>
		<circle class="st1" cx="62.8" cy="93.3" r="1.8"/>
		<circle class="st1" cx="67.1" cy="93.3" r="1.8"/>
		<circle class="st1" cx="71.5" cy="93.3" r="1.8"/>
		<circle class="st1" cx="75.8" cy="93.3" r="1.8"/>
		<circle class="st1" cx="80.1" cy="93.3" r="1.8"/>
		<circle class="st1" cx="84.4" cy="93.3" r="1.8"/>
		<circle class="st1" cx="88.8" cy="93.3" r="1.8"/>
		<circle class="st1" cx="93.1" cy="93.3" r="1.8"/>
		<circle class="st1" cx="97.4" cy="93.3" r="1.8"/>
		<circle class="st1" cx="101.8" cy="93.3" r="1.8"/>
		<circle class="st1" cx="106.1" cy="93.3" r="1.8"/>
		<circle class="st1" cx="110.4" cy="93.3" r="1.8"/>
		<circle class="st1" cx="114.8" cy="93.3" r="1.8"/>
		<circle class="st1" cx="119.1" cy="93.3" r="1.8"/>
		<text transform="matrix(1 0 0 1 4.4009 94.3616)" class="st1 st2 st3">00</text>
		<text transform="matrix(1 0 0 1 122.1909 94.3616)" class="st1 st2 st3">00</text>
	</g>
	<g>
		<circle class="st1" cx="10.9" cy="87.4" r="1.8"/>
		<circle class="st1" cx="15.2" cy="87.4" r="1.8"/>
		<circle class="st1" cx="19.5" cy="87.4" r="1.8"/>
		<circle class="st1" cx="23.9" cy="87.4" r="1.8"/>
		<circle class="st1" cx="28.2" cy="87.4" r="1.8"/>
		<circle class="st1" cx="32.5" cy="87.4" r="1.8"/>
		<circle class="st1" cx="36.8" cy="87.4" r="1.8"/>
		<circle class="st1" cx="41.2" cy="87.4" r="1.8"/>
		<circle class="st1" cx="45.5" cy="87.4" r="1.8"/>
		<circle class="st1" cx="49.8" cy="87.4" r="1.8"/>
		<circle class="st1" cx="54.1" cy="87.4" r="1.8"/>
		<circle class="st1" cx="58.5" cy="87.4" r="1.8"/>
		<circle class="st1" cx="62.8" cy="87.4" r="1.8"/>
		<circle class="st1" cx="67.1" cy="87.4" r="1.8"/>
		<circle class="st1" cx="71.5" cy="87.4" r="1.8"/>
		<circle class="st1" cx="75.8" cy="87.4" r="1.8"/>
		<circle class="st1" cx="80.1" cy="87.4" r="1.8"/>
		<circle class="st1" cx="84.4" cy="87.4" r="1.8"/>
		<circle class="st1" cx="88.8" cy="87.4" r="1.8"/>
		<circle class="st1" cx="93.1" cy="87.4" r="1.8"/>
		<circle class="st1" cx="97.4" cy="87.4" r="1.8"/>
		<circle class="st1" cx="101.8" cy="87.4" r="1.8"/>
		<circle class="st1" cx="106.1" cy="87.4" r="1.8"/>
		<circle class="st1" cx="110.4" cy="87.4" r="1.8"/>
		<circle class="st1" cx="114.8" cy="87.4" r="1.8"/>
		<circle class="st1" cx="119.1" cy="87.4" r="1.8"/>
		<text transform="matrix(1 0 0 1 4.4009 88.4316)" class="st1 st2 st3">00</text>
		<text transform="matrix(1 0 0 1 122.1909 88.4316)" class="st1 st2 st3">00</text>
	</g>
	<g>
		<circle class="st1" cx="10.9" cy="81.4" r="1.8"/>
		<circle class="st1" cx="15.2" cy="81.4" r="1.8"/>
		<circle class="st1" cx="19.5" cy="81.4" r="1.8"/>
		<circle class="st1" cx="23.9" cy="81.4" r="1.8"/>
		<circle class="st1" cx="28.2" cy="81.4" r="1.8"/>
		<circle class="st1" cx="32.5" cy="81.4" r="1.8"/>
		<circle class="st1" cx="36.8" cy="81.4" r="1.8"/>
		<circle class="st1" cx="41.2" cy="81.4" r="1.8"/>
		<circle class="st1" cx="45.5" cy="81.4" r="1.8"/>
		<circle class="st1" cx="49.8" cy="81.4" r="1.8"/>
		<circle class="st1" cx="54.1" cy="81.4" r="1.8"/>
		<circle class="st1" cx="58.5" cy="81.4" r="1.8"/>
		<circle class="st1" cx="62.8" cy="81.4" r="1.8"/>
		<circle class="st1" cx="67.1" cy="81.4" r="1.8"/>
		<circle class="st1" cx="71.5" cy="81.4" r="1.8"/>
		<circle class="st1" cx="75.8" cy="81.4" r="1.8"/>
		<circle class="st1" cx="80.1" cy="81.4" r="1.8"/>
		<circle class="st1" cx="84.4" cy="81.4" r="1.8"/>
		<circle class="st1" cx="88.8" cy="81.4" r="1.8"/>
		<circle class="st1" cx="93.1" cy="81.4" r="1.8"/>
		<circle class="st1" cx="97.4" cy="81.4" r="1.8"/>
		<circle class="st1" cx="101.8" cy="81.4" r="1.8"/>
		<circle class="st1" cx="106.1" cy="81.4" r="1.8"/>
		<circle class="st1" cx="110.4" cy="81.4" r="1.8"/>
		<circle class="st1" cx="114.8" cy="81.4" r="1.8"/>
		<circle class="st1" cx="119.1" cy="81.4" r="1.8"/>
		<text transform="matrix(1 0 0 1 4.4009 82.5017)" class="st1 st2 st3">00</text>
		<text transform="matrix(1 0 0 1 122.1909 82.5017)" class="st1 st2 st3">00</text>
	</g>
	<g>
		<circle class="st1" cx="10.9" cy="75.5" r="1.8"/>
		<circle class="st1" cx="15.2" cy="75.5" r="1.8"/>
		<circle class="st1" cx="19.5" cy="75.5" r="1.8"/>
		<circle class="st1" cx="23.9" cy="75.5" r="1.8"/>
		<circle class="st1" cx="28.2" cy="75.5" r="1.8"/>
		<circle class="st1" cx="32.5" cy="75.5" r="1.8"/>
		<circle class="st1" cx="36.8" cy="75.5" r="1.8"/>
		<circle class="st1" cx="41.2" cy="75.5" r="1.8"/>
		<circle class="st1" cx="45.5" cy="75.5" r="1.8"/>
		<circle class="st1" cx="49.8" cy="75.5" r="1.8"/>
		<circle class="st1" cx="54.1" cy="75.5" r="1.8"/>
		<circle class="st1" cx="58.5" cy="75.5" r="1.8"/>
		<circle class="st1" cx="62.8" cy="75.5" r="1.8"/>
		<circle class="st1" cx="67.1" cy="75.5" r="1.8"/>
		<circle class="st1" cx="71.5" cy="75.5" r="1.8"/>
		<circle class="st1" cx="75.8" cy="75.5" r="1.8"/>
		<circle class="st1" cx="80.1" cy="75.5" r="1.8"/>
		<circle class="st1" cx="84.4" cy="75.5" r="1.8"/>
		<circle class="st1" cx="88.8" cy="75.5" r="1.8"/>
		<circle class="st1" cx="93.1" cy="75.5" r="1.8"/>
		<circle class="st1" cx="97.4" cy="75.5" r="1.8"/>
		<circle class="st1" cx="101.8" cy="75.5" r="1.8"/>
		<circle class="st1" cx="106.1" cy="75.5" r="1.8"/>
		<circle class="st1" cx="110.4" cy="75.5" r="1.8"/>
		<circle class="st1" cx="114.8" cy="75.5" r="1.8"/>
		<circle class="st1" cx="119.1" cy="75.5" r="1.8"/>
		<text transform="matrix(1 0 0 1 4.4009 76.5718)" class="st1 st2 st3">00</text>
		<text transform="matrix(1 0 0 1 122.1909 76.5718)" class="st1 st2 st3">00</text>
	</g>
	<g>
		<circle class="st1" cx="10.9" cy="69.6" r="1.8"/>
		<circle class="st1" cx="15.2" cy="69.6" r="1.8"/>
		<circle class="st1" cx="19.5" cy="69.6" r="1.8"/>
		<circle class="st1" cx="23.9" cy="69.6" r="1.8"/>
		<circle class="st1" cx="28.2" cy="69.6" r="1.8"/>
		<circle class="st1" cx="32.5" cy="69.6" r="1.8"/>
		<circle class="st1" cx="36.8" cy="69.6" r="1.8"/>
		<circle class="st1" cx="41.2" cy="69.6" r="1.8"/>
		<circle class="st1" cx="45.5" cy="69.6" r="1.8"/>
		<circle class="st1" cx="49.8" cy="69.6" r="1.8"/>
		<circle class="st1" cx="54.1" cy="69.6" r="1.8"/>
		<circle class="st1" cx="58.5" cy="69.6" r="1.8"/>
		<circle class="st1" cx="62.8" cy="69.6" r="1.8"/>
		<circle class="st1" cx="67.1" cy="69.6" r="1.8"/>
		<circle class="st1" cx="71.5" cy="69.6" r="1.8"/>
		<circle class="st1" cx="75.8" cy="69.6" r="1.8"/>
		<circle class="st1" cx="80.1" cy="69.6" r="1.8"/>
		<circle class="st1" cx="84.4" cy="69.6" r="1.8"/>
		<circle class="st1" cx="88.8" cy="69.6" r="1.8"/>
		<circle class="st1" cx="93.1" cy="69.6" r="1.8"/>
		<circle class="st1" cx="97.4" cy="69.6" r="1.8"/>
		<circle class="st1" cx="101.8" cy="69.6" r="1.8"/>
		<circle class="st1" cx="106.1" cy="69.6" r="1.8"/>
		<text transform="matrix(1 0 0 1 4.4009 70.6418)" class="st1 st2 st3">00</text>
		<text transform="matrix(1 0 0 1 109.2009 70.6418)" class="st1 st2 st3">00</text>
	</g>
	<g>
		<circle class="st1" cx="10.9" cy="63.6" r="1.8"/>
		<circle class="st1" cx="15.2" cy="63.6" r="1.8"/>
		<circle class="st1" cx="19.5" cy="63.6" r="1.8"/>
		<circle class="st1" cx="23.9" cy="63.6" r="1.8"/>
		<circle class="st1" cx="28.2" cy="63.6" r="1.8"/>
		<circle class="st1" cx="32.5" cy="63.6" r="1.8"/>
		<circle class="st1" cx="36.8" cy="63.6" r="1.8"/>
		<circle class="st1" cx="41.2" cy="63.6" r="1.8"/>
		<circle class="st1" cx="45.5" cy="63.6" r="1.8"/>
		<circle class="st1" cx="49.8" cy="63.6" r="1.8"/>
		<circle class="st1" cx="54.1" cy="63.6" r="1.8"/>
		<circle class="st1" cx="58.5" cy="63.6" r="1.8"/>
		<circle class="st1" cx="62.8" cy="63.6" r="1.8"/>
		<circle class="st1" cx="67.1" cy="63.6" r="1.8"/>
		<circle class="st1" cx="71.5" cy="63.6" r="1.8"/>
		<circle class="st1" cx="75.8" cy="63.6" r="1.8"/>
		<circle class="st1" cx="80.1" cy="63.6" r="1.8"/>
		<circle class="st1" cx="84.4" cy="63.6" r="1.8"/>
		<circle class="st1" cx="88.8" cy="63.6" r="1.8"/>
		<circle class="st1" cx="93.1" cy="63.6" r="1.8"/>
		<text transform="matrix(1 0 0 1 4.4009 64.7119)" class="st1 st2 st3">00</text>
		<text transform="matrix(1 0 0 1 96.2109 64.7119)" class="st1 st2 st3">00</text>
	</g>
	<g>
		<circle class="st1" cx="10.9" cy="57.7" r="1.8"/>
		<circle class="st1" cx="15.2" cy="57.7" r="1.8"/>
		<circle class="st1" cx="19.5" cy="57.7" r="1.8"/>
		<circle class="st1" cx="23.9" cy="57.7" r="1.8"/>
		<circle class="st1" cx="28.2" cy="57.7" r="1.8"/>
		<circle class="st1" cx="32.5" cy="57.7" r="1.8"/>
		<circle class="st1" cx="36.8" cy="57.7" r="1.8"/>
		<circle class="st1" cx="41.2" cy="57.7" r="1.8"/>
		<circle class="st1" cx="45.5" cy="57.7" r="1.8"/>
		<circle class="st1" cx="49.8" cy="57.7" r="1.8"/>
		<circle class="st1" cx="54.1" cy="57.7" r="1.8"/>
		<circle class="st1" cx="58.5" cy="57.7" r="1.8"/>
		<circle class="st1" cx="62.8" cy="57.7" r="1.8"/>
		<circle class="st1" cx="67.1" cy="57.7" r="1.8"/>
		<text transform="matrix(1 0 0 1 4.4009 58.782)" class="st1 st2 st3">00</text>
		<text transform="matrix(1 0 0 1 70.231 58.782)" class="st1 st2 st3">00</text>
	</g>
	<g>
		<circle class="st1" cx="10.9" cy="51.8" r="1.8"/>
		<circle class="st1" cx="15.2" cy="51.8" r="1.8"/>
		<circle class="st1" cx="19.5" cy="51.8" r="1.8"/>
		<circle class="st1" cx="23.9" cy="51.8" r="1.8"/>
		<circle class="st1" cx="28.2" cy="51.8" r="1.8"/>
		<circle class="st1" cx="32.5" cy="51.8" r="1.8"/>
		<circle class="st1" cx="36.8" cy="51.8" r="1.8"/>
		<circle class="st1" cx="41.2" cy="51.8" r="1.8"/>
		<circle class="st1" cx="45.5" cy="51.8" r="1.8"/>
		<circle class="st1" cx="49.8" cy="51.8" r="1.8"/>
		<circle class="st1" cx="54.1" cy="51.8" r="1.8"/>
		<circle class="st1" cx="58.5" cy="51.8" r="1.8"/>
		<text transform="matrix(1 0 0 1 4.4009 52.8521)" class="st1 st2 st3">00</text>
		<text transform="matrix(1 0 0 1 61.5609 52.8521)" class="st1 st2 st3">00</text>
	</g>
	<g>
		<circle class="st1" cx="10.9" cy="45.8" r="1.8"/>
		<circle class="st1" cx="15.2" cy="45.8" r="1.8"/>
		<circle class="st1" cx="19.5" cy="45.8" r="1.8"/>
		<circle class="st1" cx="23.9" cy="45.8" r="1.8"/>
		<circle class="st1" cx="28.2" cy="45.8" r="1.8"/>
		<circle class="st1" cx="32.5" cy="45.8" r="1.8"/>
		<circle class="st1" cx="36.8" cy="45.8" r="1.8"/>
		<circle class="st1" cx="41.2" cy="45.8" r="1.8"/>
		<circle class="st1" cx="45.5" cy="45.8" r="1.8"/>
		<text transform="matrix(1 0 0 1 4.4009 46.9221)" class="st1 st2 st3">00</text>
		<text transform="matrix(1 0 0 1 48.5709 46.9221)" class="st1 st2 st3">00</text>
	</g>
</g>
</svg>
