<svg xmlns="http://www.w3.org/2000/svg" viewBox="0 0 130 172">
    <path fill="#F1F3F4" stroke="#BCC8CE" stroke-width=".4" stroke-linecap="round" stroke-miterlimit="10" d="M130.47.7v59.61H.52V.7h129.95z"/>
    <g fill="#AEBDC4">
        <circle cx="15.74" cy="51.26" r="1.85"/>
        <circle cx="20.06" cy="51.26" r="1.85"/>
        <circle cx="24.38" cy="51.26" r="1.85"/>
        <circle cx="28.7" cy="51.26" r="1.85"/>
        <circle cx="33.02" cy="51.26" r="1.85"/>
        <circle cx="37.34" cy="51.26" r="1.85"/>
        <circle cx="41.66" cy="51.26" r="1.85"/>
        <circle cx="45.98" cy="51.26" r="1.85"/>
        <circle cx="50.3" cy="51.26" r="1.85"/>
        <circle cx="54.64" cy="51.26" r="1.85"/>
        <circle cx="58.97" cy="51.26" r="1.85"/>
        <circle cx="63.3" cy="51.26" r="1.85"/>
        <circle cx="67.63" cy="51.26" r="1.85"/>
        <circle cx="71.96" cy="51.26" r="1.85"/>
        <circle cx="76.29" cy="51.26" r="1.85"/>
        <circle cx="80.62" cy="51.26" r="1.85"/>
        <circle cx="84.95" cy="51.26" r="1.85"/>
        <circle cx="89.28" cy="51.26" r="1.85"/>
        <circle cx="15.74" cy="45.33" r="1.85"/>
        <circle cx="20.06" cy="45.33" r="1.85"/>
        <circle cx="24.38" cy="45.33" r="1.85"/>
        <circle cx="28.7" cy="45.33" r="1.85"/>
        <circle cx="33.02" cy="45.33" r="1.85"/>
        <circle cx="37.34" cy="45.33" r="1.85"/>
        <circle cx="41.66" cy="45.33" r="1.85"/>
        <circle cx="45.98" cy="45.33" r="1.85"/>
        <circle cx="50.3" cy="45.33" r="1.85"/>
        <circle cx="54.64" cy="45.33" r="1.85"/>
        <circle cx="58.97" cy="45.33" r="1.85"/>
        <circle cx="63.3" cy="45.33" r="1.85"/>
        <circle cx="67.63" cy="45.33" r="1.85"/>
        <circle cx="71.96" cy="45.33" r="1.85"/>
        <circle cx="76.29" cy="45.33" r="1.85"/>
        <circle cx="80.62" cy="45.33" r="1.85"/>
        <circle cx="84.95" cy="45.33" r="1.85"/>
        <circle cx="89.28" cy="45.33" r="1.85"/>
        <circle cx="15.74" cy="33.46" r="1.85"/>
        <circle cx="20.06" cy="33.46" r="1.85"/>
        <circle cx="24.38" cy="33.46" r="1.85"/>
        <circle cx="28.7" cy="33.46" r="1.85"/>
        <circle cx="33.02" cy="33.46" r="1.85"/>
        <circle cx="37.34" cy="33.46" r="1.85"/>
        <circle cx="41.66" cy="33.46" r="1.85"/>
        <circle cx="45.98" cy="33.46" r="1.85"/>
        <circle cx="50.3" cy="33.46" r="1.85"/>
        <circle cx="54.64" cy="33.46" r="1.85"/>
        <circle cx="58.97" cy="33.46" r="1.85"/>
        <circle cx="63.3" cy="33.46" r="1.85"/>
        <circle cx="67.63" cy="33.46" r="1.85"/>
        <circle cx="71.96" cy="33.46" r="1.85"/>
        <circle cx="76.29" cy="33.46" r="1.85"/>
        <circle cx="80.62" cy="33.46" r="1.85"/>
        <circle cx="84.95" cy="33.46" r="1.85"/>
        <circle cx="89.28" cy="33.46" r="1.85"/>
        <circle cx="93.61" cy="33.46" r="1.85"/>
        <circle cx="97.94" cy="33.46" r="1.85"/>
        <circle cx="102.27" cy="33.46" r="1.85"/>
        <circle cx="106.6" cy="33.46" r="1.85"/>
        <circle cx="110.93" cy="33.46" r="1.85"/>
        <circle cx="115.27" cy="33.46" r="1.85"/>
        <g>
            <circle cx="15.74" cy="27.53" r="1.85"/>
            <circle cx="20.06" cy="27.53" r="1.85"/>
            <circle cx="24.38" cy="27.53" r="1.85"/>
            <circle cx="28.7" cy="27.53" r="1.85"/>
            <circle cx="33.02" cy="27.53" r="1.85"/>
            <circle cx="37.34" cy="27.53" r="1.85"/>
            <circle cx="41.66" cy="27.53" r="1.85"/>
            <circle cx="45.98" cy="27.53" r="1.85"/>
            <circle cx="50.3" cy="27.53" r="1.85"/>
            <circle cx="54.64" cy="27.53" r="1.85"/>
            <circle cx="58.97" cy="27.53" r="1.85"/>
            <circle cx="63.3" cy="27.53" r="1.85"/>
            <circle cx="67.63" cy="27.53" r="1.85"/>
            <circle cx="71.96" cy="27.53" r="1.85"/>
            <circle cx="76.29" cy="27.53" r="1.85"/>
            <circle cx="80.62" cy="27.53" r="1.85"/>
            <circle cx="84.95" cy="27.53" r="1.85"/>
            <circle cx="89.28" cy="27.53" r="1.85"/>
            <circle cx="93.61" cy="27.53" r="1.85"/>
            <circle cx="97.94" cy="27.53" r="1.85"/>
            <circle cx="102.27" cy="27.53" r="1.85"/>
            <circle cx="106.6" cy="27.53" r="1.85"/>
            <circle cx="110.93" cy="27.53" r="1.85"/>
            <circle cx="115.27" cy="27.53" r="1.85"/>
        </g>
        <g>
            <circle cx="15.74" cy="21.6" r="1.85"/>
            <circle cx="20.06" cy="21.6" r="1.85"/>
            <circle cx="24.38" cy="21.6" r="1.85"/>
            <circle cx="28.7" cy="21.6" r="1.85"/>
            <circle cx="33.02" cy="21.6" r="1.85"/>
            <circle cx="37.34" cy="21.6" r="1.85"/>
            <circle cx="41.66" cy="21.6" r="1.85"/>
            <circle cx="45.98" cy="21.6" r="1.85"/>
            <circle cx="50.3" cy="21.6" r="1.85"/>
            <circle cx="54.64" cy="21.6" r="1.85"/>
            <circle cx="58.97" cy="21.6" r="1.85"/>
            <circle cx="63.3" cy="21.6" r="1.85"/>
            <circle cx="67.63" cy="21.6" r="1.85"/>
            <circle cx="71.96" cy="21.6" r="1.85"/>
            <circle cx="76.29" cy="21.6" r="1.85"/>
            <circle cx="80.62" cy="21.6" r="1.85"/>
            <circle cx="84.95" cy="21.6" r="1.85"/>
            <circle cx="89.28" cy="21.6" r="1.85"/>
            <circle cx="93.61" cy="21.6" r="1.85"/>
            <circle cx="97.94" cy="21.6" r="1.85"/>
            <circle cx="102.27" cy="21.6" r="1.85"/>
            <circle cx="106.6" cy="21.6" r="1.85"/>
            <circle cx="110.93" cy="21.6" r="1.85"/>
            <circle cx="115.27" cy="21.6" r="1.85"/>
        </g>
        <g>
            <circle cx="15.74" cy="15.67" r="1.85"/>
            <circle cx="20.06" cy="15.67" r="1.85"/>
            <circle cx="24.38" cy="15.67" r="1.85"/>
            <circle cx="28.7" cy="15.67" r="1.85"/>
            <circle cx="33.02" cy="15.67" r="1.85"/>
            <circle cx="37.34" cy="15.67" r="1.85"/>
            <circle cx="41.66" cy="15.67" r="1.85"/>
            <circle cx="45.98" cy="15.67" r="1.85"/>
            <circle cx="50.3" cy="15.67" r="1.85"/>
            <circle cx="54.64" cy="15.67" r="1.85"/>
            <circle cx="58.97" cy="15.67" r="1.85"/>
            <circle cx="63.3" cy="15.67" r="1.85"/>
            <circle cx="67.63" cy="15.67" r="1.85"/>
            <circle cx="71.96" cy="15.67" r="1.85"/>
            <circle cx="76.29" cy="15.67" r="1.85"/>
            <circle cx="80.62" cy="15.67" r="1.85"/>
            <circle cx="84.95" cy="15.67" r="1.85"/>
            <circle cx="89.28" cy="15.67" r="1.85"/>
            <circle cx="93.61" cy="15.67" r="1.85"/>
            <circle cx="97.94" cy="15.67" r="1.85"/>
            <circle cx="102.27" cy="15.67" r="1.85"/>
            <circle cx="106.6" cy="15.67" r="1.85"/>
            <circle cx="110.93" cy="15.67" r="1.85"/>
            <circle cx="115.27" cy="15.67" r="1.85"/>
        </g>
        <g>
            <circle cx="15.74" cy="9.74" r="1.85"/>
            <circle cx="20.06" cy="9.74" r="1.85"/>
            <circle cx="24.38" cy="9.74" r="1.85"/>
            <circle cx="28.7" cy="9.74" r="1.85"/>
            <circle cx="33.02" cy="9.74" r="1.85"/>
            <circle cx="37.34" cy="9.74" r="1.85"/>
            <circle cx="41.66" cy="9.74" r="1.85"/>
            <circle cx="45.98" cy="9.74" r="1.85"/>
            <circle cx="50.3" cy="9.74" r="1.85"/>
            <circle cx="54.64" cy="9.74" r="1.85"/>
            <circle cx="58.97" cy="9.74" r="1.85"/>
            <circle cx="63.3" cy="9.74" r="1.85"/>
            <circle cx="67.63" cy="9.74" r="1.85"/>
            <circle cx="71.96" cy="9.74" r="1.85"/>
            <circle cx="76.29" cy="9.74" r="1.85"/>
            <circle cx="80.62" cy="9.74" r="1.85"/>
            <circle cx="84.95" cy="9.74" r="1.85"/>
            <circle cx="89.28" cy="9.74" r="1.85"/>
            <circle cx="93.61" cy="9.74" r="1.85"/>
            <circle cx="97.94" cy="9.74" r="1.85"/>
            <circle cx="102.27" cy="9.74" r="1.85"/>
            <circle cx="106.6" cy="9.74" r="1.85"/>
            <circle cx="110.93" cy="9.74" r="1.85"/>
            <circle cx="115.27" cy="9.74" r="1.85"/>
        </g>
        <g>
            <circle cx="15.74" cy="39.4" r="1.85"/>
            <circle cx="20.06" cy="39.4" r="1.85"/>
            <circle cx="24.38" cy="39.4" r="1.85"/>
            <circle cx="28.7" cy="39.4" r="1.85"/>
            <circle cx="33.02" cy="39.4" r="1.85"/>
            <circle cx="37.34" cy="39.4" r="1.85"/>
            <circle cx="41.66" cy="39.4" r="1.85"/>
            <circle cx="45.98" cy="39.4" r="1.85"/>
            <circle cx="50.3" cy="39.4" r="1.85"/>
            <circle cx="54.64" cy="39.4" r="1.85"/>
            <circle cx="58.97" cy="39.4" r="1.85"/>
            <circle cx="63.3" cy="39.4" r="1.85"/>
            <circle cx="67.63" cy="39.4" r="1.85"/>
            <circle cx="71.96" cy="39.4" r="1.85"/>
            <circle cx="76.29" cy="39.4" r="1.85"/>
            <circle cx="80.62" cy="39.4" r="1.85"/>
            <circle cx="84.95" cy="39.4" r="1.85"/>
            <circle cx="89.28" cy="39.4" r="1.85"/>
            <circle cx="93.61" cy="39.4" r="1.85"/>
            <circle cx="97.94" cy="39.4" r="1.85"/>
            <circle cx="102.27" cy="39.4" r="1.85"/>
            <circle cx="106.6" cy="39.4" r="1.85"/>
            <circle cx="110.93" cy="39.4" r="1.85"/>
            <circle cx="115.27" cy="39.4" r="1.85"/>
        </g>
    </g>
</svg>
