<?xml version="1.0" encoding="utf-8"?>
<!-- Generator: Adobe Illustrator 23.0.1, SVG Export Plug-In . SVG Version: 6.00 Build 0)  -->
<svg version="1.1" id="Layer_1" xmlns="http://www.w3.org/2000/svg" xmlns:xlink="http://www.w3.org/1999/xlink" x="0px" y="0px"
	 width="131px" height="84px" viewBox="0 0 131 84" enable-background="new 0 0 131 84" xml:space="preserve">
<g onclick="this.parentNode.sekt.push(this);this.a_name=&quot;W 3 (мягкие)&quot;;">
	
		<rect x="23.86" y="-22.97" onclick="this.parentNode.a_fon=this;" transform="matrix(-1.836970e-16 1 -1 -1.836970e-16 107.5 -23.5)" fill="#F1F3F4" stroke="#BCC8CE" stroke-width="0.4" stroke-linecap="round" stroke-miterlimit="10" width="83.28" height="129.95"/>
	<g onclick="this.parentNode.a_row=this;">
		<g onclick="this.a_par={beg_namb:1,quant:22};">
			<line fill="none" stroke="#D3DBDF" stroke-width="0.4" stroke-miterlimit="10" x1="112.76" y1="74.64" x2="18.2" y2="74.64"/>
		</g>
		<g onclick="this.a_par={beg_namb:1,quant:22};">
			<line fill="none" stroke="#D3DBDF" stroke-width="0.4" stroke-miterlimit="10" x1="112.76" y1="68.71" x2="18.2" y2="68.71"/>
		</g>
		<g onclick="this.a_par={beg_namb:1,quant:22};">
			<line fill="none" stroke="#D3DBDF" stroke-width="0.4" stroke-miterlimit="10" x1="112.76" y1="62.78" x2="18.2" y2="62.78"/>
		</g>
		<g onclick="this.a_par={beg_namb:1,quant:22};">
			<line fill="none" stroke="#D3DBDF" stroke-width="0.4" stroke-miterlimit="10" x1="112.76" y1="56.85" x2="18.2" y2="56.85"/>
		</g>
		<g onclick="this.a_par={beg_namb:13,quant:4};">
			<line fill="none" stroke="#D3DBDF" stroke-width="0.4" stroke-miterlimit="10" x1="34.86" y1="50.92" x2="18.2" y2="50.92"/>
		</g>
		<g onclick="this.a_par={beg_namb:13,quant:4};">
			<line fill="none" stroke="#D3DBDF" stroke-width="0.4" stroke-miterlimit="10" x1="34.86" y1="44.99" x2="18.2" y2="44.99"/>
		</g>
		<g onclick="this.a_par={beg_namb:13,quant:4};">
			<line fill="none" stroke="#D3DBDF" stroke-width="0.4" stroke-miterlimit="10" x1="34.86" y1="39.06" x2="18.2" y2="39.06"/>
		</g>
		<g onclick="this.a_par={beg_namb:13,quant:4};">
			<line fill="none" stroke="#D3DBDF" stroke-width="0.4" stroke-miterlimit="10" x1="34.86" y1="33.13" x2="18.2" y2="33.13"/>
		</g>
		<g onclick="this.a_par={beg_namb:13,quant:4};">
			<line fill="none" stroke="#D3DBDF" stroke-width="0.4" stroke-miterlimit="10" x1="34.86" y1="27.2" x2="18.2" y2="27.2"/>
		</g>
		<g onclick="this.a_par={beg_namb:13,quant:4};">
			<line fill="none" stroke="#D3DBDF" stroke-width="0.4" stroke-miterlimit="10" x1="34.86" y1="21.26" x2="18.2" y2="21.26"/>
		</g>
		<g onclick="this.a_par={beg_namb:13,quant:4};">
			<line fill="none" stroke="#D3DBDF" stroke-width="0.4" stroke-miterlimit="10" x1="34.86" y1="15.33" x2="18.2" y2="15.33"/>
		</g>
		<g onclick="this.a_par={beg_namb:13,quant:4};">
			<line fill="none" stroke="#D3DBDF" stroke-width="0.4" stroke-miterlimit="10" x1="34.86" y1="9.4" x2="18.2" y2="9.4"/>
		</g>
		<g onclick="this.a_par={beg_namb:5,quant:4};">
			<line fill="none" stroke="#D3DBDF" stroke-width="0.4" stroke-miterlimit="10" x1="78.13" y1="50.92" x2="61.47" y2="50.92"/>
		</g>
		<g onclick="this.a_par={beg_namb:5,quant:4};">
			<line fill="none" stroke="#D3DBDF" stroke-width="0.4" stroke-miterlimit="10" x1="78.13" y1="44.99" x2="61.47" y2="44.99"/>
		</g>
		<g onclick="this.a_par={beg_namb:5,quant:4};">
			<line fill="none" stroke="#D3DBDF" stroke-width="0.4" stroke-miterlimit="10" x1="78.13" y1="39.06" x2="61.47" y2="39.06"/>
		</g>
		<g onclick="this.a_par={beg_namb:5,quant:4};">
			<line fill="none" stroke="#D3DBDF" stroke-width="0.4" stroke-miterlimit="10" x1="78.13" y1="33.13" x2="61.47" y2="33.13"/>
		</g>
		<g onclick="this.a_par={beg_namb:5,quant:4};">
			<line fill="none" stroke="#D3DBDF" stroke-width="0.4" stroke-miterlimit="10" x1="78.13" y1="27.2" x2="61.47" y2="27.2"/>
		</g>
		<g onclick="this.a_par={beg_namb:5,quant:4};">
			<line fill="none" stroke="#D3DBDF" stroke-width="0.4" stroke-miterlimit="10" x1="78.13" y1="21.26" x2="61.47" y2="21.26"/>
		</g>
		<g onclick="this.a_par={beg_namb:5,quant:4};">
			<line fill="none" stroke="#D3DBDF" stroke-width="0.4" stroke-miterlimit="10" x1="78.13" y1="15.33" x2="61.47" y2="15.33"/>
		</g>
		<g onclick="this.a_par={beg_namb:5,quant:4};">
			<line fill="none" stroke="#D3DBDF" stroke-width="0.4" stroke-miterlimit="10" x1="78.13" y1="9.4" x2="61.47" y2="9.4"/>
		</g>
		<g onclick="this.a_par={beg_namb:1,quant:4};">
			<line fill="none" stroke="#D3DBDF" stroke-width="0.4" stroke-miterlimit="10" x1="99.78" y1="50.92" x2="83.12" y2="50.92"/>
		</g>
		<g onclick="this.a_par={beg_namb:1,quant:4};">
			<line fill="none" stroke="#D3DBDF" stroke-width="0.4" stroke-miterlimit="10" x1="99.78" y1="44.99" x2="83.12" y2="44.99"/>
		</g>
		<g onclick="this.a_par={beg_namb:1,quant:4};">
			<line fill="none" stroke="#D3DBDF" stroke-width="0.4" stroke-miterlimit="10" x1="99.78" y1="39.06" x2="83.12" y2="39.06"/>
		</g>
		<g onclick="this.a_par={beg_namb:1,quant:4};">
			<line fill="none" stroke="#D3DBDF" stroke-width="0.4" stroke-miterlimit="10" x1="99.78" y1="33.13" x2="83.12" y2="33.13"/>
		</g>
		<g onclick="this.a_par={beg_namb:1,quant:4};">
			<line fill="none" stroke="#D3DBDF" stroke-width="0.4" stroke-miterlimit="10" x1="99.78" y1="27.2" x2="83.12" y2="27.2"/>
		</g>
		<g onclick="this.a_par={beg_namb:1,quant:4};">
			<line fill="none" stroke="#D3DBDF" stroke-width="0.4" stroke-miterlimit="10" x1="99.78" y1="21.26" x2="83.12" y2="21.26"/>
		</g>
		<g onclick="this.a_par={beg_namb:1,quant:4};">
			<line fill="none" stroke="#D3DBDF" stroke-width="0.4" stroke-miterlimit="10" x1="99.78" y1="15.33" x2="83.12" y2="15.33"/>
		</g>
		<g onclick="this.a_par={beg_namb:1,quant:4};">
			<line fill="none" stroke="#D3DBDF" stroke-width="0.4" stroke-miterlimit="10" x1="99.78" y1="9.4" x2="83.12" y2="9.4"/>
		</g>
		<g onclick="this.a_par={beg_namb:9,quant:4};">
			<line fill="none" stroke="#D3DBDF" stroke-width="0.4" stroke-miterlimit="10" x1="56.47" y1="50.92" x2="39.82" y2="50.92"/>
		</g>
		<g onclick="this.a_par={beg_namb:9,quant:4};">
			<line fill="none" stroke="#D3DBDF" stroke-width="0.4" stroke-miterlimit="10" x1="56.47" y1="44.99" x2="39.82" y2="44.99"/>
		</g>
		<g onclick="this.a_par={beg_namb:9,quant:4};">
			<line fill="none" stroke="#D3DBDF" stroke-width="0.4" stroke-miterlimit="10" x1="56.47" y1="39.06" x2="39.82" y2="39.06"/>
		</g>
		<g onclick="this.a_par={beg_namb:9,quant:4};">
			<line fill="none" stroke="#D3DBDF" stroke-width="0.4" stroke-miterlimit="10" x1="56.47" y1="33.13" x2="39.82" y2="33.13"/>
		</g>
		<g onclick="this.a_par={beg_namb:9,quant:4};">
			<line fill="none" stroke="#D3DBDF" stroke-width="0.4" stroke-miterlimit="10" x1="56.47" y1="27.2" x2="39.82" y2="27.2"/>
		</g>
		<g onclick="this.a_par={beg_namb:9,quant:4};">
			<line fill="none" stroke="#D3DBDF" stroke-width="0.4" stroke-miterlimit="10" x1="56.47" y1="21.26" x2="39.82" y2="21.26"/>
		</g>
		<g onclick="this.a_par={beg_namb:9,quant:4};">
			<line fill="none" stroke="#D3DBDF" stroke-width="0.4" stroke-miterlimit="10" x1="56.47" y1="15.33" x2="39.82" y2="15.33"/>
		</g>
		<g onclick="this.a_par={beg_namb:9,quant:4};">
			<line fill="none" stroke="#D3DBDF" stroke-width="0.4" stroke-miterlimit="10" x1="56.47" y1="9.4" x2="39.82" y2="9.4"/>
		</g>
	</g>
	<g>
		<g>
			<circle fill="#AEBDC4" cx="20.05" cy="50.92" r="1.85"/>
			<circle fill="#AEBDC4" cx="24.37" cy="50.92" r="1.85"/>
			<circle fill="#AEBDC4" cx="28.69" cy="50.92" r="1.85"/>
			<circle fill="#AEBDC4" cx="33.01" cy="50.92" r="1.85"/>
		</g>
		<g>
			<circle fill="#AEBDC4" cx="20.05" cy="44.99" r="1.85"/>
			<circle fill="#AEBDC4" cx="24.37" cy="44.99" r="1.85"/>
			<circle fill="#AEBDC4" cx="28.69" cy="44.99" r="1.85"/>
			<circle fill="#AEBDC4" cx="33.01" cy="44.99" r="1.85"/>
		</g>
		<g>
			<circle fill="#AEBDC4" cx="20.05" cy="39.06" r="1.85"/>
			<circle fill="#AEBDC4" cx="24.37" cy="39.06" r="1.85"/>
			<circle fill="#AEBDC4" cx="28.69" cy="39.06" r="1.85"/>
			<circle fill="#AEBDC4" cx="33.01" cy="39.06" r="1.85"/>
		</g>
		<g>
			<circle fill="#AEBDC4" cx="20.05" cy="33.13" r="1.85"/>
			<circle fill="#AEBDC4" cx="24.37" cy="33.13" r="1.85"/>
			<circle fill="#AEBDC4" cx="28.69" cy="33.13" r="1.85"/>
			<circle fill="#AEBDC4" cx="33.01" cy="33.13" r="1.85"/>
		</g>
		<g>
			<circle fill="#AEBDC4" cx="20.05" cy="27.2" r="1.85"/>
			<circle fill="#AEBDC4" cx="24.37" cy="27.2" r="1.85"/>
			<circle fill="#AEBDC4" cx="28.69" cy="27.2" r="1.85"/>
			<circle fill="#AEBDC4" cx="33.01" cy="27.2" r="1.85"/>
		</g>
		<g>
			<circle fill="#AEBDC4" cx="20.05" cy="21.26" r="1.85"/>
			<circle fill="#AEBDC4" cx="24.37" cy="21.26" r="1.85"/>
			<circle fill="#AEBDC4" cx="28.69" cy="21.26" r="1.85"/>
			<circle fill="#AEBDC4" cx="33.01" cy="21.26" r="1.85"/>
		</g>
		<g>
			<circle fill="#AEBDC4" cx="20.05" cy="9.4" r="1.85"/>
			<circle fill="#AEBDC4" cx="24.37" cy="9.4" r="1.85"/>
			<circle fill="#AEBDC4" cx="28.69" cy="9.4" r="1.85"/>
			<circle fill="#AEBDC4" cx="33.01" cy="9.4" r="1.85"/>
		</g>
		<g>
			<circle fill="#AEBDC4" cx="20.05" cy="15.33" r="1.85"/>
			<circle fill="#AEBDC4" cx="24.37" cy="15.33" r="1.85"/>
			<circle fill="#AEBDC4" cx="28.69" cy="15.33" r="1.85"/>
			<circle fill="#AEBDC4" cx="33.01" cy="15.33" r="1.85"/>
		</g>
		<g>
			<circle fill="#AEBDC4" cx="41.66" cy="50.92" r="1.85"/>
			<circle fill="#AEBDC4" cx="45.98" cy="50.92" r="1.85"/>
			<circle fill="#AEBDC4" cx="50.3" cy="50.92" r="1.85"/>
			<circle fill="#AEBDC4" cx="54.63" cy="50.92" r="1.85"/>
		</g>
		<g>
			<circle fill="#AEBDC4" cx="41.66" cy="44.99" r="1.85"/>
			<circle fill="#AEBDC4" cx="45.98" cy="44.99" r="1.85"/>
			<circle fill="#AEBDC4" cx="50.3" cy="44.99" r="1.85"/>
			<circle fill="#AEBDC4" cx="54.63" cy="44.99" r="1.85"/>
		</g>
		<g>
			<circle fill="#AEBDC4" cx="41.66" cy="39.06" r="1.85"/>
			<circle fill="#AEBDC4" cx="45.98" cy="39.06" r="1.85"/>
			<circle fill="#AEBDC4" cx="50.3" cy="39.06" r="1.85"/>
			<circle fill="#AEBDC4" cx="54.63" cy="39.06" r="1.85"/>
		</g>
		<g>
			<circle fill="#AEBDC4" cx="41.66" cy="33.13" r="1.85"/>
			<circle fill="#AEBDC4" cx="45.98" cy="33.13" r="1.85"/>
			<circle fill="#AEBDC4" cx="50.3" cy="33.13" r="1.85"/>
			<circle fill="#AEBDC4" cx="54.63" cy="33.13" r="1.85"/>
		</g>
		<g>
			<circle fill="#AEBDC4" cx="41.66" cy="27.2" r="1.85"/>
			<circle fill="#AEBDC4" cx="45.98" cy="27.2" r="1.85"/>
			<circle fill="#AEBDC4" cx="50.3" cy="27.2" r="1.85"/>
			<circle fill="#AEBDC4" cx="54.63" cy="27.2" r="1.85"/>
		</g>
		<g>
			<circle fill="#AEBDC4" cx="41.66" cy="21.26" r="1.85"/>
			<circle fill="#AEBDC4" cx="45.98" cy="21.26" r="1.85"/>
			<circle fill="#AEBDC4" cx="50.3" cy="21.26" r="1.85"/>
			<circle fill="#AEBDC4" cx="54.63" cy="21.26" r="1.85"/>
		</g>
		<g>
			<circle fill="#AEBDC4" cx="41.66" cy="9.4" r="1.85"/>
			<circle fill="#AEBDC4" cx="45.98" cy="9.4" r="1.85"/>
			<circle fill="#AEBDC4" cx="50.3" cy="9.4" r="1.85"/>
			<circle fill="#AEBDC4" cx="54.63" cy="9.4" r="1.85"/>
		</g>
		<g>
			<circle fill="#AEBDC4" cx="41.66" cy="15.33" r="1.85"/>
			<circle fill="#AEBDC4" cx="45.98" cy="15.33" r="1.85"/>
			<circle fill="#AEBDC4" cx="50.3" cy="15.33" r="1.85"/>
			<circle fill="#AEBDC4" cx="54.63" cy="15.33" r="1.85"/>
		</g>
		<g>
			<circle fill="#AEBDC4" cx="63.32" cy="50.92" r="1.85"/>
			<circle fill="#AEBDC4" cx="67.64" cy="50.92" r="1.85"/>
			<circle fill="#AEBDC4" cx="71.96" cy="50.92" r="1.85"/>
			<circle fill="#AEBDC4" cx="76.28" cy="50.92" r="1.85"/>
		</g>
		<g>
			<circle fill="#AEBDC4" cx="63.32" cy="44.99" r="1.85"/>
			<circle fill="#AEBDC4" cx="67.64" cy="44.99" r="1.85"/>
			<circle fill="#AEBDC4" cx="71.96" cy="44.99" r="1.85"/>
			<circle fill="#AEBDC4" cx="76.28" cy="44.99" r="1.85"/>
		</g>
		<g>
			<circle fill="#AEBDC4" cx="63.32" cy="39.06" r="1.85"/>
			<circle fill="#AEBDC4" cx="67.64" cy="39.06" r="1.85"/>
			<circle fill="#AEBDC4" cx="71.96" cy="39.06" r="1.85"/>
			<circle fill="#AEBDC4" cx="76.28" cy="39.06" r="1.85"/>
		</g>
		<g>
			<circle fill="#AEBDC4" cx="63.32" cy="33.13" r="1.85"/>
			<circle fill="#AEBDC4" cx="67.64" cy="33.13" r="1.85"/>
			<circle fill="#AEBDC4" cx="71.96" cy="33.13" r="1.85"/>
			<circle fill="#AEBDC4" cx="76.28" cy="33.13" r="1.85"/>
		</g>
		<g>
			<circle fill="#AEBDC4" cx="63.32" cy="27.2" r="1.85"/>
			<circle fill="#AEBDC4" cx="67.64" cy="27.2" r="1.85"/>
			<circle fill="#AEBDC4" cx="71.96" cy="27.2" r="1.85"/>
			<circle fill="#AEBDC4" cx="76.28" cy="27.2" r="1.85"/>
		</g>
		<g>
			<circle fill="#AEBDC4" cx="63.32" cy="21.26" r="1.85"/>
			<circle fill="#AEBDC4" cx="67.64" cy="21.26" r="1.85"/>
			<circle fill="#AEBDC4" cx="71.96" cy="21.26" r="1.85"/>
			<circle fill="#AEBDC4" cx="76.28" cy="21.26" r="1.85"/>
		</g>
		<g>
			<circle fill="#AEBDC4" cx="63.32" cy="9.4" r="1.85"/>
			<circle fill="#AEBDC4" cx="67.64" cy="9.4" r="1.85"/>
			<circle fill="#AEBDC4" cx="71.96" cy="9.4" r="1.85"/>
			<circle fill="#AEBDC4" cx="76.28" cy="9.4" r="1.85"/>
		</g>
		<g>
			<circle fill="#AEBDC4" cx="63.32" cy="15.33" r="1.85"/>
			<circle fill="#AEBDC4" cx="67.64" cy="15.33" r="1.85"/>
			<circle fill="#AEBDC4" cx="71.96" cy="15.33" r="1.85"/>
			<circle fill="#AEBDC4" cx="76.28" cy="15.33" r="1.85"/>
		</g>
		<g>
			<circle fill="#AEBDC4" cx="84.97" cy="50.92" r="1.85"/>
			<circle fill="#AEBDC4" cx="89.29" cy="50.92" r="1.85"/>
			<circle fill="#AEBDC4" cx="93.61" cy="50.92" r="1.85"/>
			<circle fill="#AEBDC4" cx="97.93" cy="50.92" r="1.85"/>
		</g>
		<g>
			<circle fill="#AEBDC4" cx="84.97" cy="44.99" r="1.85"/>
			<circle fill="#AEBDC4" cx="89.29" cy="44.99" r="1.85"/>
			<circle fill="#AEBDC4" cx="93.61" cy="44.99" r="1.85"/>
			<circle fill="#AEBDC4" cx="97.93" cy="44.99" r="1.85"/>
		</g>
		<g>
			<circle fill="#AEBDC4" cx="84.97" cy="39.06" r="1.85"/>
			<circle fill="#AEBDC4" cx="89.29" cy="39.06" r="1.85"/>
			<circle fill="#AEBDC4" cx="93.61" cy="39.06" r="1.85"/>
			<circle fill="#AEBDC4" cx="97.93" cy="39.06" r="1.85"/>
		</g>
		<g>
			<circle fill="#AEBDC4" cx="84.97" cy="33.13" r="1.85"/>
			<circle fill="#AEBDC4" cx="89.29" cy="33.13" r="1.85"/>
			<circle fill="#AEBDC4" cx="93.61" cy="33.13" r="1.85"/>
			<circle fill="#AEBDC4" cx="97.93" cy="33.13" r="1.85"/>
		</g>
		<g>
			<circle fill="#AEBDC4" cx="84.97" cy="27.2" r="1.85"/>
			<circle fill="#AEBDC4" cx="89.29" cy="27.2" r="1.85"/>
			<circle fill="#AEBDC4" cx="93.61" cy="27.2" r="1.85"/>
			<circle fill="#AEBDC4" cx="97.93" cy="27.2" r="1.85"/>
		</g>
		<g>
			<circle fill="#AEBDC4" cx="84.97" cy="21.26" r="1.85"/>
			<circle fill="#AEBDC4" cx="89.29" cy="21.26" r="1.85"/>
			<circle fill="#AEBDC4" cx="93.61" cy="21.26" r="1.85"/>
			<circle fill="#AEBDC4" cx="97.93" cy="21.26" r="1.85"/>
		</g>
		<g>
			<circle fill="#AEBDC4" cx="84.97" cy="9.4" r="1.85"/>
			<circle fill="#AEBDC4" cx="89.29" cy="9.4" r="1.85"/>
			<circle fill="#AEBDC4" cx="93.61" cy="9.4" r="1.85"/>
			<circle fill="#AEBDC4" cx="97.93" cy="9.4" r="1.85"/>
		</g>
		<g>
			<circle fill="#AEBDC4" cx="84.97" cy="15.33" r="1.85"/>
			<circle fill="#AEBDC4" cx="89.29" cy="15.33" r="1.85"/>
			<circle fill="#AEBDC4" cx="93.61" cy="15.33" r="1.85"/>
			<circle fill="#AEBDC4" cx="97.93" cy="15.33" r="1.85"/>
		</g>
		<g>
			<circle fill="#AEBDC4" cx="20.05" cy="74.64" r="1.85"/>
			<circle fill="#AEBDC4" cx="24.37" cy="74.64" r="1.85"/>
			<circle fill="#AEBDC4" cx="28.69" cy="74.64" r="1.85"/>
			<circle fill="#AEBDC4" cx="33.01" cy="74.64" r="1.85"/>
			<circle fill="#AEBDC4" cx="37.33" cy="74.64" r="1.85"/>
			<circle fill="#AEBDC4" cx="41.65" cy="74.64" r="1.85"/>
			<circle fill="#AEBDC4" cx="45.97" cy="74.64" r="1.85"/>
			<circle fill="#AEBDC4" cx="50.3" cy="74.64" r="1.85"/>
			<circle fill="#AEBDC4" cx="54.62" cy="74.64" r="1.85"/>
			<circle fill="#AEBDC4" cx="58.95" cy="74.64" r="1.85"/>
			<circle fill="#AEBDC4" cx="63.28" cy="74.64" r="1.85"/>
			<circle fill="#AEBDC4" cx="67.61" cy="74.64" r="1.85"/>
			<circle fill="#AEBDC4" cx="71.94" cy="74.64" r="1.85"/>
			<circle fill="#AEBDC4" cx="76.27" cy="74.64" r="1.85"/>
			<circle fill="#AEBDC4" cx="80.6" cy="74.64" r="1.85"/>
			<circle fill="#AEBDC4" cx="84.93" cy="74.64" r="1.85"/>
			<circle fill="#AEBDC4" cx="89.26" cy="74.64" r="1.85"/>
			<circle fill="#AEBDC4" cx="93.59" cy="74.64" r="1.85"/>
			<circle fill="#AEBDC4" cx="97.92" cy="74.64" r="1.85"/>
			<circle fill="#AEBDC4" cx="102.25" cy="74.64" r="1.85"/>
			<circle fill="#AEBDC4" cx="106.58" cy="74.64" r="1.85"/>
			<circle fill="#AEBDC4" cx="110.92" cy="74.64" r="1.85"/>
		</g>
		<g>
			<circle fill="#AEBDC4" cx="20.05" cy="68.71" r="1.85"/>
			<circle fill="#AEBDC4" cx="24.37" cy="68.71" r="1.85"/>
			<circle fill="#AEBDC4" cx="28.69" cy="68.71" r="1.85"/>
			<circle fill="#AEBDC4" cx="33.01" cy="68.71" r="1.85"/>
			<circle fill="#AEBDC4" cx="37.33" cy="68.71" r="1.85"/>
			<circle fill="#AEBDC4" cx="41.65" cy="68.71" r="1.85"/>
			<circle fill="#AEBDC4" cx="45.97" cy="68.71" r="1.85"/>
			<circle fill="#AEBDC4" cx="50.3" cy="68.71" r="1.85"/>
			<circle fill="#AEBDC4" cx="54.62" cy="68.71" r="1.85"/>
			<circle fill="#AEBDC4" cx="58.95" cy="68.71" r="1.85"/>
			<circle fill="#AEBDC4" cx="63.28" cy="68.71" r="1.85"/>
			<circle fill="#AEBDC4" cx="67.61" cy="68.71" r="1.85"/>
			<circle fill="#AEBDC4" cx="71.94" cy="68.71" r="1.85"/>
			<circle fill="#AEBDC4" cx="76.27" cy="68.71" r="1.85"/>
			<circle fill="#AEBDC4" cx="80.6" cy="68.71" r="1.85"/>
			<circle fill="#AEBDC4" cx="84.93" cy="68.71" r="1.85"/>
			<circle fill="#AEBDC4" cx="89.26" cy="68.71" r="1.85"/>
			<circle fill="#AEBDC4" cx="93.59" cy="68.71" r="1.85"/>
			<circle fill="#AEBDC4" cx="97.92" cy="68.71" r="1.85"/>
			<circle fill="#AEBDC4" cx="102.25" cy="68.71" r="1.85"/>
			<circle fill="#AEBDC4" cx="106.58" cy="68.71" r="1.85"/>
			<circle fill="#AEBDC4" cx="110.92" cy="68.71" r="1.85"/>
		</g>
		<g>
			<circle fill="#AEBDC4" cx="20.05" cy="56.85" r="1.85"/>
			<circle fill="#AEBDC4" cx="24.37" cy="56.85" r="1.85"/>
			<circle fill="#AEBDC4" cx="28.69" cy="56.85" r="1.85"/>
			<circle fill="#AEBDC4" cx="33.01" cy="56.85" r="1.85"/>
			<circle fill="#AEBDC4" cx="37.33" cy="56.85" r="1.85"/>
			<circle fill="#AEBDC4" cx="41.65" cy="56.85" r="1.85"/>
			<circle fill="#AEBDC4" cx="45.97" cy="56.85" r="1.85"/>
			<circle fill="#AEBDC4" cx="50.3" cy="56.85" r="1.85"/>
			<circle fill="#AEBDC4" cx="54.62" cy="56.85" r="1.85"/>
			<circle fill="#AEBDC4" cx="58.95" cy="56.85" r="1.85"/>
			<circle fill="#AEBDC4" cx="63.28" cy="56.85" r="1.85"/>
			<circle fill="#AEBDC4" cx="67.61" cy="56.85" r="1.85"/>
			<circle fill="#AEBDC4" cx="71.94" cy="56.85" r="1.85"/>
			<circle fill="#AEBDC4" cx="76.27" cy="56.85" r="1.85"/>
			<circle fill="#AEBDC4" cx="80.6" cy="56.85" r="1.85"/>
			<circle fill="#AEBDC4" cx="84.93" cy="56.85" r="1.85"/>
			<circle fill="#AEBDC4" cx="89.26" cy="56.85" r="1.85"/>
			<circle fill="#AEBDC4" cx="93.59" cy="56.85" r="1.85"/>
			<circle fill="#AEBDC4" cx="97.92" cy="56.85" r="1.85"/>
			<circle fill="#AEBDC4" cx="102.25" cy="56.85" r="1.85"/>
			<circle fill="#AEBDC4" cx="106.58" cy="56.85" r="1.85"/>
			<circle fill="#AEBDC4" cx="110.92" cy="56.85" r="1.85"/>
		</g>
		<g>
			<circle fill="#AEBDC4" cx="20.05" cy="62.78" r="1.85"/>
			<circle fill="#AEBDC4" cx="24.37" cy="62.78" r="1.85"/>
			<circle fill="#AEBDC4" cx="28.69" cy="62.78" r="1.85"/>
			<circle fill="#AEBDC4" cx="33.01" cy="62.78" r="1.85"/>
			<circle fill="#AEBDC4" cx="37.33" cy="62.78" r="1.85"/>
			<circle fill="#AEBDC4" cx="41.65" cy="62.78" r="1.85"/>
			<circle fill="#AEBDC4" cx="45.97" cy="62.78" r="1.85"/>
			<circle fill="#AEBDC4" cx="50.3" cy="62.78" r="1.85"/>
			<circle fill="#AEBDC4" cx="54.62" cy="62.78" r="1.85"/>
			<circle fill="#AEBDC4" cx="58.95" cy="62.78" r="1.85"/>
			<circle fill="#AEBDC4" cx="63.28" cy="62.78" r="1.85"/>
			<circle fill="#AEBDC4" cx="67.61" cy="62.78" r="1.85"/>
			<circle fill="#AEBDC4" cx="71.94" cy="62.78" r="1.85"/>
			<circle fill="#AEBDC4" cx="76.27" cy="62.78" r="1.85"/>
			<circle fill="#AEBDC4" cx="80.6" cy="62.78" r="1.85"/>
			<circle fill="#AEBDC4" cx="84.93" cy="62.78" r="1.85"/>
			<circle fill="#AEBDC4" cx="89.26" cy="62.78" r="1.85"/>
			<circle fill="#AEBDC4" cx="93.59" cy="62.78" r="1.85"/>
			<circle fill="#AEBDC4" cx="97.92" cy="62.78" r="1.85"/>
			<circle fill="#AEBDC4" cx="102.25" cy="62.78" r="1.85"/>
			<circle fill="#AEBDC4" cx="106.58" cy="62.78" r="1.85"/>
			<circle fill="#AEBDC4" cx="110.92" cy="62.78" r="1.85"/>
		</g>
	</g>
	<g onclick="this.parentNode.a_text=this;">
		<text transform="matrix(0.9999 0 0 1 59.8187 39.3791)"><tspan x="0" y="0" font-family="'OpenSans-Semibold'" font-size="6.3996px">W 3</tspan><tspan x="-8.59" y="7.2" font-family="'OpenSans-Semibold'" font-size="6.3996px">(</tspan><tspan x="-6.54" y="7.2" font-family="'OpenSans-Semibold'" font-size="6.3996px">м</tspan><tspan x="-1.23" y="7.2" font-family="'OpenSans-Semibold'" font-size="6.3996px">я</tspan><tspan x="2.64" y="7.2" font-family="'OpenSans-Semibold'" font-size="6.3996px">г</tspan><tspan x="5.76" y="7.2" font-family="'OpenSans-Semibold'" font-size="6.3996px">к</tspan><tspan x="9.67" y="7.2" font-family="'OpenSans-Semibold'" font-size="6.3996px">и</tspan><tspan x="14.21" y="7.2" font-family="'OpenSans-Semibold'" font-size="6.3996px">е</tspan><tspan x="17.92" y="7.2" font-family="'OpenSans-Semibold'" font-size="6.3996px">)</tspan></text>
	</g>
</g>
</svg>
