<?xml version="1.0" encoding="utf-8"?>
<!-- Generator: Adobe Illustrator 23.0.1, SVG Export Plug-In . SVG Version: 6.00 Build 0)  -->
<svg version="1.1" id="Layer_1" xmlns="http://www.w3.org/2000/svg" xmlns:xlink="http://www.w3.org/1999/xlink" x="0px" y="0px"
	 viewBox="0 0 131 84" style="enable-background:new 0 0 131 84;" xml:space="preserve">
<style type="text/css">
	.st0{fill:#F1F3F4;stroke:#BCC8CE;stroke-width:0.4;stroke-linecap:round;stroke-miterlimit:10;}
	.st1{fill:#AEBDC4;}
	.st2{font-family:'Roboto-Medium';}
	.st3{font-size:3px;}
</style>
<rect x="0.5" y="0.4" class="st0" width="129.9" height="83.3"/>
<g onclick="&quot;W 3 (мягкие)&quot;;"
	data-sort-seat-direction="ltr" 
    data-sort-line-direction="btt" 
    data-sort-seat-option="cx" 
    data-sort-line-option="cy" 
    data-line-start="9"
    >
	
	<g>
		<circle class="st1" cx="20" cy="74.6" r="1.8"/>
		<circle class="st1" cx="24.4" cy="74.6" r="1.8"/>
		<circle class="st1" cx="28.7" cy="74.6" r="1.8"/>
		<circle class="st1" cx="33" cy="74.6" r="1.8"/>
		<circle class="st1" cx="37.3" cy="74.6" r="1.8"/>
		<circle class="st1" cx="41.7" cy="74.6" r="1.8"/>
		<circle class="st1" cx="46" cy="74.6" r="1.8"/>
		<circle class="st1" cx="50.3" cy="74.6" r="1.8"/>
		<circle class="st1" cx="54.6" cy="74.6" r="1.8"/>
		<circle class="st1" cx="59" cy="74.6" r="1.8"/>
		<circle class="st1" cx="63.3" cy="74.6" r="1.8"/>
		<circle class="st1" cx="67.6" cy="74.6" r="1.8"/>
		<circle class="st1" cx="71.9" cy="74.6" r="1.8"/>
		<circle class="st1" cx="76.3" cy="74.6" r="1.8"/>
		<circle class="st1" cx="80.6" cy="74.6" r="1.8"/>
		<circle class="st1" cx="84.9" cy="74.6" r="1.8"/>
		<circle class="st1" cx="89.3" cy="74.6" r="1.8"/>
		<circle class="st1" cx="93.6" cy="74.6" r="1.8"/>
		<circle class="st1" cx="97.9" cy="74.6" r="1.8"/>
		<circle class="st1" cx="102.2" cy="74.6" r="1.8"/>
		<circle class="st1" cx="106.6" cy="74.6" r="1.8"/>
		<circle class="st1" cx="110.9" cy="74.6" r="1.8"/>
		<text transform="matrix(1 0 0 1 13.5508 75.6906)" class="st1 st2 st3">00</text>
		<text transform="matrix(1 0 0 1 114.0209 75.6906)" class="st1 st2 st3">00</text>
	</g>
	<g>
		<circle class="st1" cx="20" cy="68.7" r="1.8"/>
		<circle class="st1" cx="24.4" cy="68.7" r="1.8"/>
		<circle class="st1" cx="28.7" cy="68.7" r="1.8"/>
		<circle class="st1" cx="33" cy="68.7" r="1.8"/>
		<circle class="st1" cx="37.3" cy="68.7" r="1.8"/>
		<circle class="st1" cx="41.7" cy="68.7" r="1.8"/>
		<circle class="st1" cx="46" cy="68.7" r="1.8"/>
		<circle class="st1" cx="50.3" cy="68.7" r="1.8"/>
		<circle class="st1" cx="54.6" cy="68.7" r="1.8"/>
		<circle class="st1" cx="59" cy="68.7" r="1.8"/>
		<circle class="st1" cx="63.3" cy="68.7" r="1.8"/>
		<circle class="st1" cx="67.6" cy="68.7" r="1.8"/>
		<circle class="st1" cx="71.9" cy="68.7" r="1.8"/>
		<circle class="st1" cx="76.3" cy="68.7" r="1.8"/>
		<circle class="st1" cx="80.6" cy="68.7" r="1.8"/>
		<circle class="st1" cx="84.9" cy="68.7" r="1.8"/>
		<circle class="st1" cx="89.3" cy="68.7" r="1.8"/>
		<circle class="st1" cx="93.6" cy="68.7" r="1.8"/>
		<circle class="st1" cx="97.9" cy="68.7" r="1.8"/>
		<circle class="st1" cx="102.2" cy="68.7" r="1.8"/>
		<circle class="st1" cx="106.6" cy="68.7" r="1.8"/>
		<circle class="st1" cx="110.9" cy="68.7" r="1.8"/>
		<text transform="matrix(1 0 0 1 13.5508 69.7605)" class="st1 st2 st3">00</text>
		<text transform="matrix(1 0 0 1 114.0209 69.7605)" class="st1 st2 st3">00</text>
	</g>
	<g>
		<circle class="st1" cx="20" cy="62.8" r="1.8"/>
		<circle class="st1" cx="24.4" cy="62.8" r="1.8"/>
		<circle class="st1" cx="28.7" cy="62.8" r="1.8"/>
		<circle class="st1" cx="33" cy="62.8" r="1.8"/>
		<circle class="st1" cx="37.3" cy="62.8" r="1.8"/>
		<circle class="st1" cx="41.7" cy="62.8" r="1.8"/>
		<circle class="st1" cx="46" cy="62.8" r="1.8"/>
		<circle class="st1" cx="50.3" cy="62.8" r="1.8"/>
		<circle class="st1" cx="54.6" cy="62.8" r="1.8"/>
		<circle class="st1" cx="59" cy="62.8" r="1.8"/>
		<circle class="st1" cx="63.3" cy="62.8" r="1.8"/>
		<circle class="st1" cx="67.6" cy="62.8" r="1.8"/>
		<circle class="st1" cx="71.9" cy="62.8" r="1.8"/>
		<circle class="st1" cx="76.3" cy="62.8" r="1.8"/>
		<circle class="st1" cx="80.6" cy="62.8" r="1.8"/>
		<circle class="st1" cx="84.9" cy="62.8" r="1.8"/>
		<circle class="st1" cx="89.3" cy="62.8" r="1.8"/>
		<circle class="st1" cx="93.6" cy="62.8" r="1.8"/>
		<circle class="st1" cx="97.9" cy="62.8" r="1.8"/>
		<circle class="st1" cx="102.2" cy="62.8" r="1.8"/>
		<circle class="st1" cx="106.6" cy="62.8" r="1.8"/>
		<circle class="st1" cx="110.9" cy="62.8" r="1.8"/>
		<text transform="matrix(1 0 0 1 13.5508 63.8304)" class="st1 st2 st3">00</text>
		<text transform="matrix(1 0 0 1 114.0209 63.8304)" class="st1 st2 st3">00</text>
	</g>
	<g>
		<circle class="st1" cx="20" cy="56.8" r="1.8"/>
		<circle class="st1" cx="24.4" cy="56.8" r="1.8"/>
		<circle class="st1" cx="28.7" cy="56.8" r="1.8"/>
		<circle class="st1" cx="33" cy="56.8" r="1.8"/>
		<circle class="st1" cx="37.3" cy="56.8" r="1.8"/>
		<circle class="st1" cx="41.7" cy="56.8" r="1.8"/>
		<circle class="st1" cx="46" cy="56.8" r="1.8"/>
		<circle class="st1" cx="50.3" cy="56.8" r="1.8"/>
		<circle class="st1" cx="54.6" cy="56.8" r="1.8"/>
		<circle class="st1" cx="59" cy="56.8" r="1.8"/>
		<circle class="st1" cx="63.3" cy="56.8" r="1.8"/>
		<circle class="st1" cx="67.6" cy="56.8" r="1.8"/>
		<circle class="st1" cx="71.9" cy="56.8" r="1.8"/>
		<circle class="st1" cx="76.3" cy="56.8" r="1.8"/>
		<circle class="st1" cx="80.6" cy="56.8" r="1.8"/>
		<circle class="st1" cx="84.9" cy="56.8" r="1.8"/>
		<circle class="st1" cx="89.3" cy="56.8" r="1.8"/>
		<circle class="st1" cx="93.6" cy="56.8" r="1.8"/>
		<circle class="st1" cx="97.9" cy="56.8" r="1.8"/>
		<circle class="st1" cx="102.2" cy="56.8" r="1.8"/>
		<circle class="st1" cx="106.6" cy="56.8" r="1.8"/>
		<circle class="st1" cx="110.9" cy="56.8" r="1.8"/>
		<text transform="matrix(1 0 0 1 13.5508 57.9004)" class="st1 st2 st3">00</text>
		<text transform="matrix(1 0 0 1 114.0209 57.9004)" class="st1 st2 st3">00</text>
	</g>
	<g>
		<circle class="st1" cx="20" cy="50.9" r="1.8"/>
		<circle class="st1" cx="24.4" cy="50.9" r="1.8"/>
		<circle class="st1" cx="28.7" cy="50.9" r="1.8"/>
		<circle class="st1" cx="33" cy="50.9" r="1.8"/>
		<circle class="st1" cx="41.7" cy="50.9" r="1.8"/>
		<circle class="st1" cx="46" cy="50.9" r="1.8"/>
		<circle class="st1" cx="50.3" cy="50.9" r="1.8"/>
		<circle class="st1" cx="54.6" cy="50.9" r="1.8"/>
		<circle class="st1" cx="63.3" cy="50.9" r="1.8"/>
		<circle class="st1" cx="67.6" cy="50.9" r="1.8"/>
		<circle class="st1" cx="72" cy="50.9" r="1.8"/>
		<circle class="st1" cx="76.3" cy="50.9" r="1.8"/>
		<circle class="st1" cx="85" cy="50.9" r="1.8"/>
		<circle class="st1" cx="89.3" cy="50.9" r="1.8"/>
		<circle class="st1" cx="93.6" cy="50.9" r="1.8"/>
		<circle class="st1" cx="97.9" cy="50.9" r="1.8"/>
		<text transform="matrix(1 0 0 1 13.5508 51.9703)" class="st1 st2 st3">00</text>
		<text transform="matrix(1 0 0 1 101.0209 51.9703)" class="st1 st2 st3">00</text>
	</g>
	<g>
		<circle class="st1" cx="20" cy="45" r="1.8"/>
		<circle class="st1" cx="24.4" cy="45" r="1.8"/>
		<circle class="st1" cx="28.7" cy="45" r="1.8"/>
		<circle class="st1" cx="33" cy="45" r="1.8"/>
		<circle class="st1" cx="41.7" cy="45" r="1.8"/>
		<circle class="st1" cx="46" cy="45" r="1.8"/>
		<circle class="st1" cx="50.3" cy="45" r="1.8"/>
		<circle class="st1" cx="54.6" cy="45" r="1.8"/>
		<circle class="st1" cx="63.3" cy="45" r="1.8"/>
		<circle class="st1" cx="67.6" cy="45" r="1.8"/>
		<circle class="st1" cx="72" cy="45" r="1.8"/>
		<circle class="st1" cx="76.3" cy="45" r="1.8"/>
		<circle class="st1" cx="85" cy="45" r="1.8"/>
		<circle class="st1" cx="89.3" cy="45" r="1.8"/>
		<circle class="st1" cx="93.6" cy="45" r="1.8"/>
		<circle class="st1" cx="97.9" cy="45" r="1.8"/>
		<text transform="matrix(1 0 0 1 13.5508 46.0403)" class="st1 st2 st3">00</text>
		<text transform="matrix(1 0 0 1 101.0209 46.0403)" class="st1 st2 st3">00</text>
	</g>
	<g>
		<circle class="st1" cx="20" cy="39.1" r="1.8"/>
		<circle class="st1" cx="24.4" cy="39.1" r="1.8"/>
		<circle class="st1" cx="28.7" cy="39.1" r="1.8"/>
		<circle class="st1" cx="33" cy="39.1" r="1.8"/>
		<circle class="st1" cx="41.7" cy="39.1" r="1.8"/>
		<circle class="st1" cx="46" cy="39.1" r="1.8"/>
		<circle class="st1" cx="50.3" cy="39.1" r="1.8"/>
		<circle class="st1" cx="54.6" cy="39.1" r="1.8"/>
		<circle class="st1" cx="63.3" cy="39.1" r="1.8"/>
		<circle class="st1" cx="67.6" cy="39.1" r="1.8"/>
		<circle class="st1" cx="72" cy="39.1" r="1.8"/>
		<circle class="st1" cx="76.3" cy="39.1" r="1.8"/>
		<circle class="st1" cx="85" cy="39.1" r="1.8"/>
		<circle class="st1" cx="89.3" cy="39.1" r="1.8"/>
		<circle class="st1" cx="93.6" cy="39.1" r="1.8"/>
		<circle class="st1" cx="97.9" cy="39.1" r="1.8"/>
		<text transform="matrix(1 0 0 1 13.5508 40.1102)" class="st1 st2 st3">00</text>
		<text transform="matrix(1 0 0 1 101.0209 40.1102)" class="st1 st2 st3">00</text>
	</g>
	<g>
		<circle class="st1" cx="20" cy="33.1" r="1.8"/>
		<circle class="st1" cx="24.4" cy="33.1" r="1.8"/>
		<circle class="st1" cx="28.7" cy="33.1" r="1.8"/>
		<circle class="st1" cx="33" cy="33.1" r="1.8"/>
		<circle class="st1" cx="41.7" cy="33.1" r="1.8"/>
		<circle class="st1" cx="46" cy="33.1" r="1.8"/>
		<circle class="st1" cx="50.3" cy="33.1" r="1.8"/>
		<circle class="st1" cx="54.6" cy="33.1" r="1.8"/>
		<circle class="st1" cx="63.3" cy="33.1" r="1.8"/>
		<circle class="st1" cx="67.6" cy="33.1" r="1.8"/>
		<circle class="st1" cx="72" cy="33.1" r="1.8"/>
		<circle class="st1" cx="76.3" cy="33.1" r="1.8"/>
		<circle class="st1" cx="85" cy="33.1" r="1.8"/>
		<circle class="st1" cx="89.3" cy="33.1" r="1.8"/>
		<circle class="st1" cx="93.6" cy="33.1" r="1.8"/>
		<circle class="st1" cx="97.9" cy="33.1" r="1.8"/>
		<text transform="matrix(1 0 0 1 13.5508 34.1802)" class="st1 st2 st3">00</text>
		<text transform="matrix(1 0 0 1 101.0209 34.1802)" class="st1 st2 st3">00</text>
	</g>
	<g>
		<circle class="st1" cx="20" cy="27.2" r="1.9"/>
		<circle class="st1" cx="24.4" cy="27.2" r="1.9"/>
		<circle class="st1" cx="28.7" cy="27.2" r="1.9"/>
		<circle class="st1" cx="33" cy="27.2" r="1.8"/>
		<circle class="st1" cx="41.7" cy="27.2" r="1.8"/>
		<circle class="st1" cx="46" cy="27.2" r="1.8"/>
		<circle class="st1" cx="50.3" cy="27.2" r="1.8"/>
		<circle class="st1" cx="54.6" cy="27.2" r="1.8"/>
		<circle class="st1" cx="63.3" cy="27.2" r="1.8"/>
		<circle class="st1" cx="67.6" cy="27.2" r="1.8"/>
		<circle class="st1" cx="72" cy="27.2" r="1.8"/>
		<circle class="st1" cx="76.3" cy="27.2" r="1.8"/>
		<circle class="st1" cx="85" cy="27.2" r="1.8"/>
		<circle class="st1" cx="89.3" cy="27.2" r="1.8"/>
		<circle class="st1" cx="93.6" cy="27.2" r="1.8"/>
		<circle class="st1" cx="97.9" cy="27.2" r="1.8"/>
		<text transform="matrix(1 0 0 1 13.5508 28.2501)" class="st1 st2 st3">00</text>
		<text transform="matrix(1 0 0 1 101.0209 28.2501)" class="st1 st2 st3">00</text>
	</g>
	<g>
		<circle class="st1" cx="20" cy="21.3" r="1.9"/>
		<circle class="st1" cx="24.4" cy="21.3" r="1.9"/>
		<circle class="st1" cx="28.7" cy="21.3" r="1.9"/>
		<circle class="st1" cx="33" cy="21.3" r="1.8"/>
		<circle class="st1" cx="41.7" cy="21.3" r="1.8"/>
		<circle class="st1" cx="46" cy="21.3" r="1.8"/>
		<circle class="st1" cx="50.3" cy="21.3" r="1.8"/>
		<circle class="st1" cx="54.6" cy="21.3" r="1.8"/>
		<circle class="st1" cx="63.3" cy="21.3" r="1.8"/>
		<circle class="st1" cx="67.6" cy="21.3" r="1.8"/>
		<circle class="st1" cx="72" cy="21.3" r="1.8"/>
		<circle class="st1" cx="76.3" cy="21.3" r="1.8"/>
		<circle class="st1" cx="85" cy="21.3" r="1.8"/>
		<circle class="st1" cx="89.3" cy="21.3" r="1.8"/>
		<circle class="st1" cx="93.6" cy="21.3" r="1.8"/>
		<circle class="st1" cx="97.9" cy="21.3" r="1.8"/>
		<text transform="matrix(1 0 0 1 13.5508 22.3201)" class="st1 st2 st3">00</text>
		<text transform="matrix(1 0 0 1 101.0209 22.3201)" class="st1 st2 st3">00</text>
	</g>
	<g>
		<circle class="st1" cx="20" cy="15.3" r="1.9"/>
		<circle class="st1" cx="24.4" cy="15.3" r="1.9"/>
		<circle class="st1" cx="28.7" cy="15.3" r="1.9"/>
		<circle class="st1" cx="33" cy="15.3" r="1.8"/>
		<circle class="st1" cx="41.7" cy="15.3" r="1.8"/>
		<circle class="st1" cx="46" cy="15.3" r="1.8"/>
		<circle class="st1" cx="50.3" cy="15.3" r="1.8"/>
		<circle class="st1" cx="54.6" cy="15.3" r="1.8"/>
		<circle class="st1" cx="63.3" cy="15.3" r="1.8"/>
		<circle class="st1" cx="67.6" cy="15.3" r="1.8"/>
		<circle class="st1" cx="72" cy="15.3" r="1.8"/>
		<circle class="st1" cx="76.3" cy="15.3" r="1.8"/>
		<circle class="st1" cx="85" cy="15.3" r="1.8"/>
		<circle class="st1" cx="89.3" cy="15.3" r="1.8"/>
		<circle class="st1" cx="93.6" cy="15.3" r="1.8"/>
		<circle class="st1" cx="97.9" cy="15.3" r="1.8"/>
		<text transform="matrix(1 0 0 1 13.5508 16.39)" class="st1 st2 st3">00</text>
		<text transform="matrix(1 0 0 1 101.0209 16.39)" class="st1 st2 st3">00</text>
	</g>
	<g>
		<circle class="st1" cx="20" cy="9.4" r="1.9"/>
		<circle class="st1" cx="24.4" cy="9.4" r="1.9"/>
		<circle class="st1" cx="28.7" cy="9.4" r="1.9"/>
		<circle class="st1" cx="33" cy="9.4" r="1.8"/>
		<circle class="st1" cx="41.7" cy="9.4" r="1.8"/>
		<circle class="st1" cx="46" cy="9.4" r="1.8"/>
		<circle class="st1" cx="50.3" cy="9.4" r="1.8"/>
		<circle class="st1" cx="54.6" cy="9.4" r="1.8"/>
		<circle class="st1" cx="63.3" cy="9.4" r="1.8"/>
		<circle class="st1" cx="67.6" cy="9.4" r="1.8"/>
		<circle class="st1" cx="72" cy="9.4" r="1.8"/>
		<circle class="st1" cx="76.3" cy="9.4" r="1.8"/>
		<circle class="st1" cx="85" cy="9.4" r="1.8"/>
		<circle class="st1" cx="89.3" cy="9.4" r="1.8"/>
		<circle class="st1" cx="93.6" cy="9.4" r="1.8"/>
		<circle class="st1" cx="97.9" cy="9.4" r="1.8"/>
		<text transform="matrix(1 0 0 1 13.5508 10.46)" class="st1 st2 st3">00</text>
		<text transform="matrix(1 0 0 1 101.0209 10.46)" class="st1 st2 st3">00</text>
	</g>
</g>
</svg>
