<?xml version="1.0" encoding="utf-8"?>
<!-- Generator: Adobe Illustrator 23.0.1, SVG Export Plug-In . SVG Version: 6.00 Build 0)  -->
<svg version="1.1" id="Layer_1" xmlns="http://www.w3.org/2000/svg" xmlns:xlink="http://www.w3.org/1999/xlink" x="0px" y="0px"
  viewBox="0 0 131 61" enable-background="new 0 0 131 61" xml:space="preserve">
  <rect x="0.52" y="0.7" fill="#F1F3F4" stroke="#BCC8CE" stroke-width="0.4" stroke-linecap="round" stroke-miterlimit="10" width="129.95" height="59.61"/>
  <g 
    data-sort-seat-direction="rtl" 
    data-sort-line-direction="btt" 
    data-sort-seat-option="cx" 
    data-sort-line-option="cy" 
    data-line-start="1"
    >
    <g>
      <circle fill="#AEBDC4" cx="15.74" cy="51.26" r="1.85"/>
      <circle fill="#AEBDC4" cx="20.06" cy="51.26" r="1.85"/>
      <circle fill="#AEBDC4" cx="24.38" cy="51.26" r="1.85"/>
      <circle fill="#AEBDC4" cx="28.7" cy="51.26" r="1.85"/>
      <circle fill="#AEBDC4" cx="33.02" cy="51.26" r="1.85"/>
      <circle fill="#AEBDC4" cx="37.34" cy="51.26" r="1.85"/>
      <circle fill="#AEBDC4" cx="41.66" cy="51.26" r="1.85"/>
      <circle fill="#AEBDC4" cx="45.98" cy="51.26" r="1.85"/>
      <circle fill="#AEBDC4" cx="50.31" cy="51.26" r="1.85"/>
      <circle fill="#AEBDC4" cx="54.64" cy="51.26" r="1.85"/>
      <circle fill="#AEBDC4" cx="58.97" cy="51.26" r="1.85"/>
      <circle fill="#AEBDC4" cx="63.3" cy="51.26" r="1.85"/>
      <circle fill="#AEBDC4" cx="67.63" cy="51.26" r="1.85"/>
      <circle fill="#AEBDC4" cx="71.96" cy="51.26" r="1.85"/>
      <circle fill="#AEBDC4" cx="76.29" cy="51.26" r="1.85"/>
      <circle fill="#AEBDC4" cx="80.62" cy="51.26" r="1.85"/>
      <circle fill="#AEBDC4" cx="84.95" cy="51.26" r="1.85"/>
      <circle fill="#AEBDC4" cx="89.28" cy="51.26" r="1.85"/>
      <circle fill="#AEBDC4" cx="93.61" cy="51.26" r="1.85"/>
      <circle fill="#AEBDC4" cx="97.94" cy="51.26" r="1.85"/>
      <circle fill="#AEBDC4" cx="102.27" cy="51.26" r="1.85"/>
      <circle fill="#AEBDC4" cx="106.6" cy="51.26" r="1.85"/>
      <circle fill="#AEBDC4" cx="110.94" cy="51.26" r="1.85"/>
      <circle fill="#AEBDC4" cx="115.27" cy="51.26" r="1.85"/>
    </g>
    <g>
      <circle fill="#AEBDC4" cx="15.74" cy="45.33" r="1.85"/>
      <circle fill="#AEBDC4" cx="20.06" cy="45.33" r="1.85"/>
      <circle fill="#AEBDC4" cx="24.38" cy="45.33" r="1.85"/>
      <circle fill="#AEBDC4" cx="28.7" cy="45.33" r="1.85"/>
      <circle fill="#AEBDC4" cx="33.02" cy="45.33" r="1.85"/>
      <circle fill="#AEBDC4" cx="37.34" cy="45.33" r="1.85"/>
      <circle fill="#AEBDC4" cx="41.66" cy="45.33" r="1.85"/>
      <circle fill="#AEBDC4" cx="45.98" cy="45.33" r="1.85"/>
      <circle fill="#AEBDC4" cx="50.31" cy="45.33" r="1.85"/>
      <circle fill="#AEBDC4" cx="54.64" cy="45.33" r="1.85"/>
      <circle fill="#AEBDC4" cx="58.97" cy="45.33" r="1.85"/>
      <circle fill="#AEBDC4" cx="63.3" cy="45.33" r="1.85"/>
      <circle fill="#AEBDC4" cx="67.63" cy="45.33" r="1.85"/>
      <circle fill="#AEBDC4" cx="71.96" cy="45.33" r="1.85"/>
      <circle fill="#AEBDC4" cx="76.29" cy="45.33" r="1.85"/>
      <circle fill="#AEBDC4" cx="80.62" cy="45.33" r="1.85"/>
      <circle fill="#AEBDC4" cx="84.95" cy="45.33" r="1.85"/>
      <circle fill="#AEBDC4" cx="89.28" cy="45.33" r="1.85"/>
      <circle fill="#AEBDC4" cx="93.61" cy="45.33" r="1.85"/>
      <circle fill="#AEBDC4" cx="97.94" cy="45.33" r="1.85"/>
      <circle fill="#AEBDC4" cx="102.27" cy="45.33" r="1.85"/>
      <circle fill="#AEBDC4" cx="106.6" cy="45.33" r="1.85"/>
      <circle fill="#AEBDC4" cx="110.94" cy="45.33" r="1.85"/>
      <circle fill="#AEBDC4" cx="115.27" cy="45.33" r="1.85"/>
    </g>
    <g>
      <circle fill="#AEBDC4" cx="15.74" cy="39.4" r="1.85"/>
      <circle fill="#AEBDC4" cx="20.06" cy="39.4" r="1.85"/>
      <circle fill="#AEBDC4" cx="24.38" cy="39.4" r="1.85"/>
      <circle fill="#AEBDC4" cx="28.7" cy="39.4" r="1.85"/>
      <circle fill="#AEBDC4" cx="33.02" cy="39.4" r="1.85"/>
      <circle fill="#AEBDC4" cx="37.34" cy="39.4" r="1.85"/>
      <circle fill="#AEBDC4" cx="41.66" cy="39.4" r="1.85"/>
      <circle fill="#AEBDC4" cx="45.98" cy="39.4" r="1.85"/>
      <circle fill="#AEBDC4" cx="50.31" cy="39.4" r="1.85"/>
      <circle fill="#AEBDC4" cx="54.64" cy="39.4" r="1.85"/>
      <circle fill="#AEBDC4" cx="58.97" cy="39.4" r="1.85"/>
      <circle fill="#AEBDC4" cx="63.3" cy="39.4" r="1.85"/>
      <circle fill="#AEBDC4" cx="67.63" cy="39.4" r="1.85"/>
      <circle fill="#AEBDC4" cx="71.96" cy="39.4" r="1.85"/>
      <circle fill="#AEBDC4" cx="76.29" cy="39.4" r="1.85"/>
      <circle fill="#AEBDC4" cx="80.62" cy="39.4" r="1.85"/>
      <circle fill="#AEBDC4" cx="84.95" cy="39.4" r="1.85"/>
      <circle fill="#AEBDC4" cx="89.28" cy="39.4" r="1.85"/>
      <circle fill="#AEBDC4" cx="93.61" cy="39.4" r="1.85"/>
      <circle fill="#AEBDC4" cx="97.94" cy="39.4" r="1.85"/>
      <circle fill="#AEBDC4" cx="102.27" cy="39.4" r="1.85"/>
      <circle fill="#AEBDC4" cx="106.6" cy="39.4" r="1.85"/>
      <circle fill="#AEBDC4" cx="110.94" cy="39.4" r="1.85"/>
      <circle fill="#AEBDC4" cx="115.27" cy="39.4" r="1.85"/>
    </g>
    <g>
      <circle fill="#AEBDC4" cx="15.74" cy="33.46" r="1.85"/>
      <circle fill="#AEBDC4" cx="20.06" cy="33.46" r="1.85"/>
      <circle fill="#AEBDC4" cx="24.38" cy="33.46" r="1.85"/>
      <circle fill="#AEBDC4" cx="28.7" cy="33.46" r="1.85"/>
      <circle fill="#AEBDC4" cx="33.02" cy="33.46" r="1.85"/>
      <circle fill="#AEBDC4" cx="37.34" cy="33.46" r="1.85"/>
      <circle fill="#AEBDC4" cx="41.66" cy="33.46" r="1.85"/>
      <circle fill="#AEBDC4" cx="45.98" cy="33.46" r="1.85"/>
      <circle fill="#AEBDC4" cx="50.31" cy="33.46" r="1.85"/>
      <circle fill="#AEBDC4" cx="54.64" cy="33.46" r="1.85"/>
      <circle fill="#AEBDC4" cx="58.97" cy="33.46" r="1.85"/>
      <circle fill="#AEBDC4" cx="63.3" cy="33.46" r="1.85"/>
      <circle fill="#AEBDC4" cx="67.63" cy="33.46" r="1.85"/>
      <circle fill="#AEBDC4" cx="71.96" cy="33.46" r="1.85"/>
      <circle fill="#AEBDC4" cx="76.29" cy="33.46" r="1.85"/>
      <circle fill="#AEBDC4" cx="80.62" cy="33.46" r="1.85"/>
      <circle fill="#AEBDC4" cx="84.95" cy="33.46" r="1.85"/>
      <circle fill="#AEBDC4" cx="89.28" cy="33.46" r="1.85"/>
      <circle fill="#AEBDC4" cx="93.61" cy="33.46" r="1.85"/>
      <circle fill="#AEBDC4" cx="97.94" cy="33.46" r="1.85"/>
      <circle fill="#AEBDC4" cx="102.27" cy="33.46" r="1.85"/>
      <circle fill="#AEBDC4" cx="106.6" cy="33.46" r="1.85"/>
      <circle fill="#AEBDC4" cx="110.94" cy="33.46" r="1.85"/>
      <circle fill="#AEBDC4" cx="115.27" cy="33.46" r="1.85"/>
    </g>
    <g>
      <circle fill="#AEBDC4" cx="15.74" cy="27.53" r="1.85"/>
      <circle fill="#AEBDC4" cx="20.06" cy="27.53" r="1.85"/>
      <circle fill="#AEBDC4" cx="24.38" cy="27.53" r="1.85"/>
      <circle fill="#AEBDC4" cx="28.7" cy="27.53" r="1.85"/>
      <circle fill="#AEBDC4" cx="33.02" cy="27.53" r="1.85"/>
      <circle fill="#AEBDC4" cx="37.34" cy="27.53" r="1.85"/>
      <circle fill="#AEBDC4" cx="41.66" cy="27.53" r="1.85"/>
      <circle fill="#AEBDC4" cx="45.98" cy="27.53" r="1.85"/>
      <circle fill="#AEBDC4" cx="50.31" cy="27.53" r="1.85"/>
      <circle fill="#AEBDC4" cx="54.64" cy="27.53" r="1.85"/>
      <circle fill="#AEBDC4" cx="58.97" cy="27.53" r="1.85"/>
      <circle fill="#AEBDC4" cx="63.3" cy="27.53" r="1.85"/>
      <circle fill="#AEBDC4" cx="67.63" cy="27.53" r="1.85"/>
      <circle fill="#AEBDC4" cx="71.96" cy="27.53" r="1.85"/>
      <circle fill="#AEBDC4" cx="76.29" cy="27.53" r="1.85"/>
      <circle fill="#AEBDC4" cx="80.62" cy="27.53" r="1.85"/>
      <circle fill="#AEBDC4" cx="84.95" cy="27.53" r="1.85"/>
      <circle fill="#AEBDC4" cx="89.28" cy="27.53" r="1.85"/>
      <circle fill="#AEBDC4" cx="93.61" cy="27.53" r="1.85"/>
      <circle fill="#AEBDC4" cx="97.94" cy="27.53" r="1.85"/>
      <circle fill="#AEBDC4" cx="102.27" cy="27.53" r="1.85"/>
      <circle fill="#AEBDC4" cx="106.6" cy="27.53" r="1.85"/>
      <circle fill="#AEBDC4" cx="110.94" cy="27.53" r="1.85"/>
      <circle fill="#AEBDC4" cx="115.27" cy="27.53" r="1.85"/>
    </g>
    <g>
      <circle fill="#AEBDC4" cx="15.74" cy="21.6" r="1.85"/>
      <circle fill="#AEBDC4" cx="20.06" cy="21.6" r="1.85"/>
      <circle fill="#AEBDC4" cx="24.38" cy="21.6" r="1.85"/>
      <circle fill="#AEBDC4" cx="28.7" cy="21.6" r="1.85"/>
      <circle fill="#AEBDC4" cx="33.02" cy="21.6" r="1.85"/>
      <circle fill="#AEBDC4" cx="37.34" cy="21.6" r="1.85"/>
      <circle fill="#AEBDC4" cx="41.66" cy="21.6" r="1.85"/>
      <circle fill="#AEBDC4" cx="45.98" cy="21.6" r="1.85"/>
      <circle fill="#AEBDC4" cx="50.31" cy="21.6" r="1.85"/>
      <circle fill="#AEBDC4" cx="54.64" cy="21.6" r="1.85"/>
      <circle fill="#AEBDC4" cx="58.97" cy="21.6" r="1.85"/>
      <circle fill="#AEBDC4" cx="63.3" cy="21.6" r="1.85"/>
      <circle fill="#AEBDC4" cx="67.63" cy="21.6" r="1.85"/>
      <circle fill="#AEBDC4" cx="71.96" cy="21.6" r="1.85"/>
      <circle fill="#AEBDC4" cx="76.29" cy="21.6" r="1.85"/>
      <circle fill="#AEBDC4" cx="80.62" cy="21.6" r="1.85"/>
      <circle fill="#AEBDC4" cx="84.95" cy="21.6" r="1.85"/>
      <circle fill="#AEBDC4" cx="89.28" cy="21.6" r="1.85"/>
      <circle fill="#AEBDC4" cx="93.61" cy="21.6" r="1.85"/>
      <circle fill="#AEBDC4" cx="97.94" cy="21.6" r="1.85"/>
      <circle fill="#AEBDC4" cx="102.27" cy="21.6" r="1.85"/>
      <circle fill="#AEBDC4" cx="106.6" cy="21.6" r="1.85"/>
      <circle fill="#AEBDC4" cx="110.94" cy="21.6" r="1.85"/>
      <circle fill="#AEBDC4" cx="115.27" cy="21.6" r="1.85"/>
    </g>
    <g>
      <circle fill="#AEBDC4" cx="15.74" cy="15.67" r="1.85"/>
      <circle fill="#AEBDC4" cx="20.06" cy="15.67" r="1.85"/>
      <circle fill="#AEBDC4" cx="24.38" cy="15.67" r="1.85"/>
      <circle fill="#AEBDC4" cx="28.7" cy="15.67" r="1.85"/>
      <circle fill="#AEBDC4" cx="33.02" cy="15.67" r="1.85"/>
      <circle fill="#AEBDC4" cx="37.34" cy="15.67" r="1.85"/>
      <circle fill="#AEBDC4" cx="41.66" cy="15.67" r="1.85"/>
      <circle fill="#AEBDC4" cx="45.98" cy="15.67" r="1.85"/>
      <circle fill="#AEBDC4" cx="50.31" cy="15.67" r="1.85"/>
      <circle fill="#AEBDC4" cx="54.64" cy="15.67" r="1.85"/>
      <circle fill="#AEBDC4" cx="58.97" cy="15.67" r="1.85"/>
      <circle fill="#AEBDC4" cx="63.3" cy="15.67" r="1.85"/>
      <circle fill="#AEBDC4" cx="67.63" cy="15.67" r="1.85"/>
      <circle fill="#AEBDC4" cx="71.96" cy="15.67" r="1.85"/>
      <circle fill="#AEBDC4" cx="76.29" cy="15.67" r="1.85"/>
      <circle fill="#AEBDC4" cx="80.62" cy="15.67" r="1.85"/>
      <circle fill="#AEBDC4" cx="84.95" cy="15.67" r="1.85"/>
      <circle fill="#AEBDC4" cx="89.28" cy="15.67" r="1.85"/>
      <circle fill="#AEBDC4" cx="93.61" cy="15.67" r="1.85"/>
      <circle fill="#AEBDC4" cx="97.94" cy="15.67" r="1.85"/>
      <circle fill="#AEBDC4" cx="102.27" cy="15.67" r="1.85"/>
      <circle fill="#AEBDC4" cx="106.6" cy="15.67" r="1.85"/>
      <circle fill="#AEBDC4" cx="110.94" cy="15.67" r="1.85"/>
      <circle fill="#AEBDC4" cx="115.27" cy="15.67" r="1.85"/>
    </g>
    <g>
      <circle fill="#AEBDC4" cx="15.74" cy="9.74" r="1.85"/>
      <circle fill="#AEBDC4" cx="20.06" cy="9.74" r="1.85"/>
      <circle fill="#AEBDC4" cx="24.38" cy="9.74" r="1.85"/>
      <circle fill="#AEBDC4" cx="28.7" cy="9.74" r="1.85"/>
      <circle fill="#AEBDC4" cx="33.02" cy="9.74" r="1.85"/>
      <circle fill="#AEBDC4" cx="37.34" cy="9.74" r="1.85"/>
      <circle fill="#AEBDC4" cx="41.66" cy="9.74" r="1.85"/>
      <circle fill="#AEBDC4" cx="45.98" cy="9.74" r="1.85"/>
      <circle fill="#AEBDC4" cx="50.31" cy="9.74" r="1.85"/>
      <circle fill="#AEBDC4" cx="54.64" cy="9.74" r="1.85"/>
      <circle fill="#AEBDC4" cx="58.97" cy="9.74" r="1.85"/>
      <circle fill="#AEBDC4" cx="63.3" cy="9.74" r="1.85"/>
      <circle fill="#AEBDC4" cx="67.63" cy="9.74" r="1.85"/>
      <circle fill="#AEBDC4" cx="71.96" cy="9.74" r="1.85"/>
      <circle fill="#AEBDC4" cx="76.29" cy="9.74" r="1.85"/>
      <circle fill="#AEBDC4" cx="80.62" cy="9.74" r="1.85"/>
      <circle fill="#AEBDC4" cx="84.95" cy="9.74" r="1.85"/>
      <circle fill="#AEBDC4" cx="89.28" cy="9.74" r="1.85"/>
      <circle fill="#AEBDC4" cx="93.61" cy="9.74" r="1.85"/>
      <circle fill="#AEBDC4" cx="97.94" cy="9.74" r="1.85"/>
      <circle fill="#AEBDC4" cx="102.27" cy="9.74" r="1.85"/>
      <circle fill="#AEBDC4" cx="106.6" cy="9.74" r="1.85"/>
      <circle fill="#AEBDC4" cx="110.94" cy="9.74" r="1.85"/>
      <circle fill="#AEBDC4" cx="115.27" cy="9.74" r="1.85"/>
    </g>
  </g>
</svg>
