<?xml version="1.0" encoding="utf-8"?>
<!-- Generator: Adobe Illustrator 23.0.1, SVG Export Plug-In . SVG Version: 6.00 Build 0)  -->
<svg version="1.1" id="Layer_1" xmlns="http://www.w3.org/2000/svg" xmlns:xlink="http://www.w3.org/1999/xlink" x="0px" y="0px"
	 viewBox="0 0 131 84" enable-background="new 0 0 131 84" xml:space="preserve">
	 <rect x="0.52" y="0.36" fill="#F1F3F4" stroke="#BCC8CE" stroke-width="0.4" stroke-linecap="round" stroke-miterlimit="10" width="129.95" height="83.28"/>
<g onclick="&quot;W 4 (мягкие)&quot;;"
	data-sort-seat-direction="ltr" 
    data-sort-line-direction="btt" 
    data-sort-seat-option="cx" 
    data-sort-line-option="cy" 
    data-line-start="9"
    >
	
		
	<g>
		<circle fill="#AEBDC4" cx="13.58" cy="74.64" r="1.85"/>
		<circle fill="#AEBDC4" cx="17.9" cy="74.64" r="1.85"/>
		<circle fill="#AEBDC4" cx="22.22" cy="74.64" r="1.85"/>
		<circle fill="#AEBDC4" cx="26.54" cy="74.64" r="1.85"/>
		<circle fill="#AEBDC4" cx="30.86" cy="74.64" r="1.85"/>
		<circle fill="#AEBDC4" cx="35.18" cy="74.64" r="1.85"/>
		<circle fill="#AEBDC4" cx="39.51" cy="74.64" r="1.85"/>
		<circle fill="#AEBDC4" cx="43.83" cy="74.64" r="1.85"/>
		<circle fill="#AEBDC4" cx="48.15" cy="74.64" r="1.85"/>
		<circle fill="#AEBDC4" cx="52.48" cy="74.64" r="1.85"/>
		<circle fill="#AEBDC4" cx="56.81" cy="74.64" r="1.85"/>
		<circle fill="#AEBDC4" cx="61.14" cy="74.64" r="1.85"/>
		<circle fill="#AEBDC4" cx="65.47" cy="74.64" r="1.85"/>
		<circle fill="#AEBDC4" cx="69.8" cy="74.64" r="1.85"/>
		<circle fill="#AEBDC4" cx="74.13" cy="74.64" r="1.85"/>
		<circle fill="#AEBDC4" cx="78.46" cy="74.64" r="1.85"/>
		<circle fill="#AEBDC4" cx="82.79" cy="74.64" r="1.85"/>
		<circle fill="#AEBDC4" cx="87.12" cy="74.64" r="1.85"/>
		<circle fill="#AEBDC4" cx="91.46" cy="74.64" r="1.85"/>
		<circle fill="#AEBDC4" cx="95.79" cy="74.64" r="1.85"/>
		<circle fill="#AEBDC4" cx="100.12" cy="74.64" r="1.85"/>
		<circle fill="#AEBDC4" cx="104.45" cy="74.64" r="1.85"/>
		<circle fill="#AEBDC4" cx="108.78" cy="74.64" r="1.85"/>
		<circle fill="#AEBDC4" cx="113.11" cy="74.64" r="1.85"/>
		<circle fill="#AEBDC4" cx="117.44" cy="74.64" r="1.85"/>
	</g>
	<g>
		<circle fill="#AEBDC4" cx="13.58" cy="68.71" r="1.85"/>
		<circle fill="#AEBDC4" cx="17.9" cy="68.71" r="1.85"/>
		<circle fill="#AEBDC4" cx="22.22" cy="68.71" r="1.85"/>
		<circle fill="#AEBDC4" cx="26.54" cy="68.71" r="1.85"/>
		<circle fill="#AEBDC4" cx="30.86" cy="68.71" r="1.85"/>
		<circle fill="#AEBDC4" cx="35.18" cy="68.71" r="1.85"/>
		<circle fill="#AEBDC4" cx="39.51" cy="68.71" r="1.85"/>
		<circle fill="#AEBDC4" cx="43.83" cy="68.71" r="1.85"/>
		<circle fill="#AEBDC4" cx="48.15" cy="68.71" r="1.85"/>
		<circle fill="#AEBDC4" cx="52.48" cy="68.71" r="1.85"/>
		<circle fill="#AEBDC4" cx="56.81" cy="68.71" r="1.85"/>
		<circle fill="#AEBDC4" cx="61.14" cy="68.71" r="1.85"/>
		<circle fill="#AEBDC4" cx="65.47" cy="68.71" r="1.85"/>
		<circle fill="#AEBDC4" cx="69.8" cy="68.71" r="1.85"/>
		<circle fill="#AEBDC4" cx="74.13" cy="68.71" r="1.85"/>
		<circle fill="#AEBDC4" cx="78.46" cy="68.71" r="1.85"/>
		<circle fill="#AEBDC4" cx="82.79" cy="68.71" r="1.85"/>
		<circle fill="#AEBDC4" cx="87.12" cy="68.71" r="1.85"/>
		<circle fill="#AEBDC4" cx="91.46" cy="68.71" r="1.85"/>
		<circle fill="#AEBDC4" cx="95.79" cy="68.71" r="1.85"/>
		<circle fill="#AEBDC4" cx="100.12" cy="68.71" r="1.85"/>
		<circle fill="#AEBDC4" cx="104.45" cy="68.71" r="1.85"/>
		<circle fill="#AEBDC4" cx="108.78" cy="68.71" r="1.85"/>
		<circle fill="#AEBDC4" cx="113.11" cy="68.71" r="1.85"/>
		<circle fill="#AEBDC4" cx="117.44" cy="68.71" r="1.85"/>
	</g>
	<g>
		<circle fill="#AEBDC4" cx="13.58" cy="62.78" r="1.85"/>
		<circle fill="#AEBDC4" cx="17.9" cy="62.78" r="1.85"/>
		<circle fill="#AEBDC4" cx="22.22" cy="62.78" r="1.85"/>
		<circle fill="#AEBDC4" cx="26.54" cy="62.78" r="1.85"/>
		<circle fill="#AEBDC4" cx="30.86" cy="62.78" r="1.85"/>
		<circle fill="#AEBDC4" cx="35.18" cy="62.78" r="1.85"/>
		<circle fill="#AEBDC4" cx="39.51" cy="62.78" r="1.85"/>
		<circle fill="#AEBDC4" cx="43.83" cy="62.78" r="1.85"/>
		<circle fill="#AEBDC4" cx="48.15" cy="62.78" r="1.85"/>
		<circle fill="#AEBDC4" cx="52.48" cy="62.78" r="1.85"/>
		<circle fill="#AEBDC4" cx="56.81" cy="62.78" r="1.85"/>
		<circle fill="#AEBDC4" cx="61.14" cy="62.78" r="1.85"/>
		<circle fill="#AEBDC4" cx="65.47" cy="62.78" r="1.85"/>
		<circle fill="#AEBDC4" cx="69.8" cy="62.78" r="1.85"/>
		<circle fill="#AEBDC4" cx="74.13" cy="62.78" r="1.85"/>
		<circle fill="#AEBDC4" cx="78.46" cy="62.78" r="1.85"/>
		<circle fill="#AEBDC4" cx="82.79" cy="62.78" r="1.85"/>
		<circle fill="#AEBDC4" cx="87.12" cy="62.78" r="1.85"/>
		<circle fill="#AEBDC4" cx="91.46" cy="62.78" r="1.85"/>
		<circle fill="#AEBDC4" cx="95.79" cy="62.78" r="1.85"/>
		<circle fill="#AEBDC4" cx="100.12" cy="62.78" r="1.85"/>
		<circle fill="#AEBDC4" cx="104.45" cy="62.78" r="1.85"/>
		<circle fill="#AEBDC4" cx="108.78" cy="62.78" r="1.85"/>
		<circle fill="#AEBDC4" cx="113.11" cy="62.78" r="1.85"/>
		<circle fill="#AEBDC4" cx="117.44" cy="62.78" r="1.85"/>
	</g>
	<g>
		<circle fill="#AEBDC4" cx="13.58" cy="56.85" r="1.85"/>
		<circle fill="#AEBDC4" cx="17.9" cy="56.85" r="1.85"/>
		<circle fill="#AEBDC4" cx="22.22" cy="56.85" r="1.85"/>
		<circle fill="#AEBDC4" cx="26.54" cy="56.85" r="1.85"/>
		<circle fill="#AEBDC4" cx="30.86" cy="56.85" r="1.85"/>
		<circle fill="#AEBDC4" cx="35.18" cy="56.85" r="1.85"/>
		<circle fill="#AEBDC4" cx="39.51" cy="56.85" r="1.85"/>
		<circle fill="#AEBDC4" cx="43.83" cy="56.85" r="1.85"/>
		<circle fill="#AEBDC4" cx="48.15" cy="56.85" r="1.85"/>
		<circle fill="#AEBDC4" cx="52.48" cy="56.85" r="1.85"/>
		<circle fill="#AEBDC4" cx="56.81" cy="56.85" r="1.85"/>
		<circle fill="#AEBDC4" cx="61.14" cy="56.85" r="1.85"/>
		<circle fill="#AEBDC4" cx="65.47" cy="56.85" r="1.85"/>
		<circle fill="#AEBDC4" cx="69.8" cy="56.85" r="1.85"/>
		<circle fill="#AEBDC4" cx="74.13" cy="56.85" r="1.85"/>
		<circle fill="#AEBDC4" cx="78.46" cy="56.85" r="1.85"/>
		<circle fill="#AEBDC4" cx="82.79" cy="56.85" r="1.85"/>
		<circle fill="#AEBDC4" cx="87.12" cy="56.85" r="1.85"/>
		<circle fill="#AEBDC4" cx="91.46" cy="56.85" r="1.85"/>
		<circle fill="#AEBDC4" cx="95.79" cy="56.85" r="1.85"/>
		<circle fill="#AEBDC4" cx="100.12" cy="56.85" r="1.85"/>
		<circle fill="#AEBDC4" cx="104.45" cy="56.85" r="1.85"/>
		<circle fill="#AEBDC4" cx="108.78" cy="56.85" r="1.85"/>
		<circle fill="#AEBDC4" cx="113.11" cy="56.85" r="1.85"/>
		<circle fill="#AEBDC4" cx="117.44" cy="56.85" r="1.85"/>
	</g>
	<g>
		<circle fill="#AEBDC4" cx="13.58" cy="50.92" r="1.85"/>
		<circle fill="#AEBDC4" cx="17.9" cy="50.92" r="1.85"/>
		<circle fill="#AEBDC4" cx="22.22" cy="50.92" r="1.85"/>
		<circle fill="#AEBDC4" cx="26.54" cy="50.92" r="1.85"/>
		<circle fill="#AEBDC4" cx="30.86" cy="50.92" r="1.85"/>
		<circle fill="#AEBDC4" cx="35.18" cy="50.92" r="1.85"/>
		<circle fill="#AEBDC4" cx="39.51" cy="50.92" r="1.85"/>
		<circle fill="#AEBDC4" cx="43.83" cy="50.92" r="1.85"/>
		<circle fill="#AEBDC4" cx="48.15" cy="50.92" r="1.85"/>
		<circle fill="#AEBDC4" cx="52.48" cy="50.92" r="1.85"/>
		<circle fill="#AEBDC4" cx="56.81" cy="50.92" r="1.85"/>
		<circle fill="#AEBDC4" cx="61.14" cy="50.92" r="1.85"/>
		<circle fill="#AEBDC4" cx="65.47" cy="50.92" r="1.85"/>
		<circle fill="#AEBDC4" cx="69.8" cy="50.92" r="1.85"/>
		<circle fill="#AEBDC4" cx="74.13" cy="50.92" r="1.85"/>
		<circle fill="#AEBDC4" cx="78.46" cy="50.92" r="1.85"/>
		<circle fill="#AEBDC4" cx="82.79" cy="50.92" r="1.85"/>
		<circle fill="#AEBDC4" cx="87.12" cy="50.92" r="1.85"/>
		<circle fill="#AEBDC4" cx="91.46" cy="50.92" r="1.85"/>
		<circle fill="#AEBDC4" cx="95.79" cy="50.92" r="1.85"/>
		<circle fill="#AEBDC4" cx="100.12" cy="50.92" r="1.85"/>
		<circle fill="#AEBDC4" cx="104.45" cy="50.92" r="1.85"/>
		<circle fill="#AEBDC4" cx="108.78" cy="50.92" r="1.85"/>
		<circle fill="#AEBDC4" cx="113.11" cy="50.92" r="1.85"/>
		<circle fill="#AEBDC4" cx="117.44" cy="50.92" r="1.85"/>
	</g>
	<g>
		<circle fill="#AEBDC4" cx="13.58" cy="44.99" r="1.85"/>
		<circle fill="#AEBDC4" cx="17.9" cy="44.99" r="1.85"/>
		<circle fill="#AEBDC4" cx="22.22" cy="44.99" r="1.85"/>
		<circle fill="#AEBDC4" cx="26.54" cy="44.99" r="1.85"/>
		<circle fill="#AEBDC4" cx="30.86" cy="44.99" r="1.85"/>
		<circle fill="#AEBDC4" cx="35.18" cy="44.99" r="1.85"/>
		<circle fill="#AEBDC4" cx="39.51" cy="44.99" r="1.85"/>
		<circle fill="#AEBDC4" cx="43.83" cy="44.99" r="1.85"/>
		<circle fill="#AEBDC4" cx="48.15" cy="44.99" r="1.85"/>
		<circle fill="#AEBDC4" cx="52.48" cy="44.99" r="1.85"/>
		<circle fill="#AEBDC4" cx="56.81" cy="44.99" r="1.85"/>
		<circle fill="#AEBDC4" cx="61.14" cy="44.99" r="1.85"/>
		<circle fill="#AEBDC4" cx="65.47" cy="44.99" r="1.85"/>
		<circle fill="#AEBDC4" cx="69.8" cy="44.99" r="1.85"/>
		<circle fill="#AEBDC4" cx="74.13" cy="44.99" r="1.85"/>
		<circle fill="#AEBDC4" cx="78.46" cy="44.99" r="1.85"/>
		<circle fill="#AEBDC4" cx="82.79" cy="44.99" r="1.85"/>
		<circle fill="#AEBDC4" cx="87.12" cy="44.99" r="1.85"/>
		<circle fill="#AEBDC4" cx="91.46" cy="44.99" r="1.85"/>
		<circle fill="#AEBDC4" cx="95.79" cy="44.99" r="1.85"/>
		<circle fill="#AEBDC4" cx="100.12" cy="44.99" r="1.85"/>
		<circle fill="#AEBDC4" cx="104.45" cy="44.99" r="1.85"/>
		<circle fill="#AEBDC4" cx="108.78" cy="44.99" r="1.85"/>
		<circle fill="#AEBDC4" cx="113.11" cy="44.99" r="1.85"/>
		<circle fill="#AEBDC4" cx="117.44" cy="44.99" r="1.85"/>
	</g>
	<g>
		<circle fill="#AEBDC4" cx="13.58" cy="39.06" r="1.85"/>
		<circle fill="#AEBDC4" cx="17.9" cy="39.06" r="1.85"/>
		<circle fill="#AEBDC4" cx="22.22" cy="39.06" r="1.85"/>
		<circle fill="#AEBDC4" cx="26.54" cy="39.06" r="1.85"/>
		<circle fill="#AEBDC4" cx="30.86" cy="39.06" r="1.85"/>
		<circle fill="#AEBDC4" cx="35.18" cy="39.06" r="1.85"/>
		<circle fill="#AEBDC4" cx="39.51" cy="39.06" r="1.85"/>
		<circle fill="#AEBDC4" cx="43.83" cy="39.06" r="1.85"/>
		<circle fill="#AEBDC4" cx="48.15" cy="39.06" r="1.85"/>
		<circle fill="#AEBDC4" cx="52.48" cy="39.06" r="1.85"/>
		<circle fill="#AEBDC4" cx="56.81" cy="39.06" r="1.85"/>
		<circle fill="#AEBDC4" cx="61.14" cy="39.06" r="1.85"/>
		<circle fill="#AEBDC4" cx="65.47" cy="39.06" r="1.85"/>
		<circle fill="#AEBDC4" cx="69.8" cy="39.06" r="1.85"/>
		<circle fill="#AEBDC4" cx="74.13" cy="39.06" r="1.85"/>
		<circle fill="#AEBDC4" cx="78.46" cy="39.06" r="1.85"/>
		<circle fill="#AEBDC4" cx="82.79" cy="39.06" r="1.85"/>
		<circle fill="#AEBDC4" cx="87.12" cy="39.06" r="1.85"/>
		<circle fill="#AEBDC4" cx="91.46" cy="39.06" r="1.85"/>
		<circle fill="#AEBDC4" cx="95.79" cy="39.06" r="1.85"/>
		<circle fill="#AEBDC4" cx="100.12" cy="39.06" r="1.85"/>
		<circle fill="#AEBDC4" cx="104.45" cy="39.06" r="1.85"/>
		<circle fill="#AEBDC4" cx="108.78" cy="39.06" r="1.85"/>
		<circle fill="#AEBDC4" cx="113.11" cy="39.06" r="1.85"/>
		<circle fill="#AEBDC4" cx="117.44" cy="39.06" r="1.85"/>
	</g>
	<g>
		<circle fill="#AEBDC4" cx="13.58" cy="33.13" r="1.85"/>
		<circle fill="#AEBDC4" cx="17.9" cy="33.13" r="1.85"/>
		<circle fill="#AEBDC4" cx="22.22" cy="33.13" r="1.85"/>
		<circle fill="#AEBDC4" cx="26.54" cy="33.13" r="1.85"/>
		<circle fill="#AEBDC4" cx="30.86" cy="33.13" r="1.85"/>
		<circle fill="#AEBDC4" cx="35.18" cy="33.13" r="1.85"/>
		<circle fill="#AEBDC4" cx="39.51" cy="33.13" r="1.85"/>
		<circle fill="#AEBDC4" cx="43.83" cy="33.13" r="1.85"/>
		<circle fill="#AEBDC4" cx="48.15" cy="33.13" r="1.85"/>
		<circle fill="#AEBDC4" cx="52.48" cy="33.13" r="1.85"/>
		<circle fill="#AEBDC4" cx="56.81" cy="33.13" r="1.85"/>
		<circle fill="#AEBDC4" cx="61.14" cy="33.13" r="1.85"/>
		<circle fill="#AEBDC4" cx="65.47" cy="33.13" r="1.85"/>
		<circle fill="#AEBDC4" cx="69.8" cy="33.13" r="1.85"/>
		<circle fill="#AEBDC4" cx="74.13" cy="33.13" r="1.85"/>
		<circle fill="#AEBDC4" cx="78.46" cy="33.13" r="1.85"/>
		<circle fill="#AEBDC4" cx="82.79" cy="33.13" r="1.85"/>
		<circle fill="#AEBDC4" cx="87.12" cy="33.13" r="1.85"/>
		<circle fill="#AEBDC4" cx="91.46" cy="33.13" r="1.85"/>
		<circle fill="#AEBDC4" cx="95.79" cy="33.13" r="1.85"/>
		<circle fill="#AEBDC4" cx="100.12" cy="33.13" r="1.85"/>
		<circle fill="#AEBDC4" cx="104.45" cy="33.13" r="1.85"/>
		<circle fill="#AEBDC4" cx="108.78" cy="33.13" r="1.85"/>
		<circle fill="#AEBDC4" cx="113.11" cy="33.13" r="1.85"/>
		<circle fill="#AEBDC4" cx="117.44" cy="33.13" r="1.85"/>
	</g>
	<g>
		<circle fill="#AEBDC4" cx="22.24" cy="27.2" r="1.85"/>
		<circle fill="#AEBDC4" cx="26.56" cy="27.2" r="1.85"/>
		<circle fill="#AEBDC4" cx="30.88" cy="27.2" r="1.85"/>
		<circle fill="#AEBDC4" cx="35.2" cy="27.2" r="1.85"/>
		<circle fill="#AEBDC4" cx="39.52" cy="27.2" r="1.85"/>
		<circle fill="#AEBDC4" cx="43.85" cy="27.2" r="1.85"/>
		<circle fill="#AEBDC4" cx="48.17" cy="27.2" r="1.85"/>
		<circle fill="#AEBDC4" cx="52.49" cy="27.2" r="1.85"/>
		<circle fill="#AEBDC4" cx="56.81" cy="27.2" r="1.85"/>
		<circle fill="#AEBDC4" cx="61.14" cy="27.2" r="1.85"/>
		<circle fill="#AEBDC4" cx="65.47" cy="27.2" r="1.85"/>
		<circle fill="#AEBDC4" cx="69.8" cy="27.2" r="1.85"/>
		<circle fill="#AEBDC4" cx="74.13" cy="27.2" r="1.85"/>
		<circle fill="#AEBDC4" cx="78.46" cy="27.2" r="1.85"/>
		<circle fill="#AEBDC4" cx="82.79" cy="27.2" r="1.85"/>
		<circle fill="#AEBDC4" cx="87.12" cy="27.2" r="1.85"/>
		<circle fill="#AEBDC4" cx="91.46" cy="27.2" r="1.85"/>
		<circle fill="#AEBDC4" cx="95.79" cy="27.2" r="1.85"/>
		<circle fill="#AEBDC4" cx="100.12" cy="27.2" r="1.85"/>
		<circle fill="#AEBDC4" cx="104.45" cy="27.2" r="1.85"/>
		<circle fill="#AEBDC4" cx="108.78" cy="27.2" r="1.85"/>
	</g>
	<g>
		<circle fill="#AEBDC4" cx="22.24" cy="21.26" r="1.85"/>
		<circle fill="#AEBDC4" cx="26.56" cy="21.26" r="1.85"/>
		<circle fill="#AEBDC4" cx="30.88" cy="21.26" r="1.85"/>
		<circle fill="#AEBDC4" cx="35.2" cy="21.26" r="1.85"/>
		<circle fill="#AEBDC4" cx="39.52" cy="21.26" r="1.85"/>
		<circle fill="#AEBDC4" cx="43.85" cy="21.26" r="1.85"/>
		<circle fill="#AEBDC4" cx="48.17" cy="21.26" r="1.85"/>
		<circle fill="#AEBDC4" cx="52.49" cy="21.26" r="1.85"/>
		<circle fill="#AEBDC4" cx="56.81" cy="21.26" r="1.85"/>
		<circle fill="#AEBDC4" cx="61.14" cy="21.26" r="1.85"/>
		<circle fill="#AEBDC4" cx="65.47" cy="21.26" r="1.85"/>
		<circle fill="#AEBDC4" cx="69.8" cy="21.26" r="1.85"/>
		<circle fill="#AEBDC4" cx="74.13" cy="21.26" r="1.85"/>
		<circle fill="#AEBDC4" cx="78.46" cy="21.26" r="1.85"/>
		<circle fill="#AEBDC4" cx="82.79" cy="21.26" r="1.85"/>
		<circle fill="#AEBDC4" cx="87.12" cy="21.26" r="1.85"/>
		<circle fill="#AEBDC4" cx="91.46" cy="21.26" r="1.85"/>
		<circle fill="#AEBDC4" cx="95.79" cy="21.26" r="1.85"/>
		<circle fill="#AEBDC4" cx="100.12" cy="21.26" r="1.85"/>
		<circle fill="#AEBDC4" cx="104.45" cy="21.26" r="1.85"/>
		<circle fill="#AEBDC4" cx="108.78" cy="21.26" r="1.85"/>
	</g>
	<g>
		<circle fill="#AEBDC4" cx="22.24" cy="15.33" r="1.85"/>
		<circle fill="#AEBDC4" cx="26.56" cy="15.33" r="1.85"/>
		<circle fill="#AEBDC4" cx="30.88" cy="15.33" r="1.85"/>
		<circle fill="#AEBDC4" cx="35.2" cy="15.33" r="1.85"/>
		<circle fill="#AEBDC4" cx="39.52" cy="15.33" r="1.85"/>
		<circle fill="#AEBDC4" cx="43.85" cy="15.33" r="1.85"/>
		<circle fill="#AEBDC4" cx="48.17" cy="15.33" r="1.85"/>
		<circle fill="#AEBDC4" cx="52.49" cy="15.33" r="1.85"/>
		<circle fill="#AEBDC4" cx="56.81" cy="15.33" r="1.85"/>
		<circle fill="#AEBDC4" cx="61.14" cy="15.33" r="1.85"/>
		<circle fill="#AEBDC4" cx="65.47" cy="15.33" r="1.85"/>
		<circle fill="#AEBDC4" cx="69.8" cy="15.33" r="1.85"/>
		<circle fill="#AEBDC4" cx="74.13" cy="15.33" r="1.85"/>
		<circle fill="#AEBDC4" cx="78.46" cy="15.33" r="1.85"/>
		<circle fill="#AEBDC4" cx="82.79" cy="15.33" r="1.85"/>
		<circle fill="#AEBDC4" cx="87.12" cy="15.33" r="1.85"/>
		<circle fill="#AEBDC4" cx="91.46" cy="15.33" r="1.85"/>
		<circle fill="#AEBDC4" cx="95.79" cy="15.33" r="1.85"/>
		<circle fill="#AEBDC4" cx="100.12" cy="15.33" r="1.85"/>
		<circle fill="#AEBDC4" cx="104.45" cy="15.33" r="1.85"/>
		<circle fill="#AEBDC4" cx="108.78" cy="15.33" r="1.85"/>
	</g>
	<g>
		<circle fill="#AEBDC4" cx="22.24" cy="9.4" r="1.85"/>
		<circle fill="#AEBDC4" cx="26.56" cy="9.4" r="1.85"/>
		<circle fill="#AEBDC4" cx="30.88" cy="9.4" r="1.85"/>
		<circle fill="#AEBDC4" cx="35.2" cy="9.4" r="1.85"/>
		<circle fill="#AEBDC4" cx="39.52" cy="9.4" r="1.85"/>
		<circle fill="#AEBDC4" cx="43.85" cy="9.4" r="1.85"/>
		<circle fill="#AEBDC4" cx="48.17" cy="9.4" r="1.85"/>
		<circle fill="#AEBDC4" cx="52.49" cy="9.4" r="1.85"/>
		<circle fill="#AEBDC4" cx="56.81" cy="9.4" r="1.85"/>
		<circle fill="#AEBDC4" cx="61.14" cy="9.4" r="1.85"/>
		<circle fill="#AEBDC4" cx="65.47" cy="9.4" r="1.85"/>
		<circle fill="#AEBDC4" cx="69.8" cy="9.4" r="1.85"/>
		<circle fill="#AEBDC4" cx="74.13" cy="9.4" r="1.85"/>
		<circle fill="#AEBDC4" cx="78.46" cy="9.4" r="1.85"/>
		<circle fill="#AEBDC4" cx="82.79" cy="9.4" r="1.85"/>
		<circle fill="#AEBDC4" cx="87.12" cy="9.4" r="1.85"/>
		<circle fill="#AEBDC4" cx="91.46" cy="9.4" r="1.85"/>
		<circle fill="#AEBDC4" cx="95.79" cy="9.4" r="1.85"/>
		<circle fill="#AEBDC4" cx="100.12" cy="9.4" r="1.85"/>
		<circle fill="#AEBDC4" cx="104.45" cy="9.4" r="1.85"/>
		<circle fill="#AEBDC4" cx="108.78" cy="9.4" r="1.85"/>
	</g>
</g>
</svg>
