<?xml version="1.0" encoding="utf-8"?>
<!-- Generator: Adobe Illustrator 23.0.1, SVG Export Plug-In . SVG Version: 6.00 Build 0)  -->
<svg version="1.1" id="Layer_1" xmlns="http://www.w3.org/2000/svg" xmlns:xlink="http://www.w3.org/1999/xlink" x="0px" y="0px"
	 viewBox="0 0 131 219" enable-background="new 0 0 131 219" xml:space="preserve">
<g onclick="this.parentNode.sekt.push(this);this.a_name=&quot;W 4 (верх)&quot;;">
	
		<polygon onclick="this.parentNode.a_fon=this;" fill="#F1F3F4" stroke="#BCC8CE" stroke-width="0.4" stroke-linecap="round" stroke-miterlimit="10" points="
		0.53,218.61 0.53,0.4 130.47,10.8 130.47,218.61 	"/>
	<g>
		<circle fill="#AEBDC4" cx="11.41" cy="209.57" r="1.85"/>
		<circle fill="#AEBDC4" cx="15.73" cy="209.57" r="1.85"/>
		<circle fill="#AEBDC4" cx="20.05" cy="209.57" r="1.85"/>
		<circle fill="#AEBDC4" cx="24.37" cy="209.57" r="1.85"/>
		<circle fill="#AEBDC4" cx="28.69" cy="209.57" r="1.85"/>
		<circle fill="#AEBDC4" cx="33.01" cy="209.57" r="1.85"/>
		<circle fill="#AEBDC4" cx="37.33" cy="209.57" r="1.85"/>
		<circle fill="#AEBDC4" cx="41.65" cy="209.57" r="1.85"/>
		<circle fill="#AEBDC4" cx="45.98" cy="209.57" r="1.85"/>
		<circle fill="#AEBDC4" cx="50.31" cy="209.57" r="1.85"/>
		<circle fill="#AEBDC4" cx="54.64" cy="209.57" r="1.85"/>
		<circle fill="#AEBDC4" cx="58.97" cy="209.57" r="1.85"/>
		<circle fill="#AEBDC4" cx="63.3" cy="209.57" r="1.85"/>
		<circle fill="#AEBDC4" cx="67.63" cy="209.57" r="1.85"/>
		<circle fill="#AEBDC4" cx="71.96" cy="209.57" r="1.85"/>
		<circle fill="#AEBDC4" cx="76.29" cy="209.57" r="1.85"/>
		<circle fill="#AEBDC4" cx="80.62" cy="209.57" r="1.85"/>
		<circle fill="#AEBDC4" cx="84.95" cy="209.57" r="1.85"/>
		<circle fill="#AEBDC4" cx="89.28" cy="209.57" r="1.85"/>
		<circle fill="#AEBDC4" cx="93.61" cy="209.57" r="1.85"/>
		<circle fill="#AEBDC4" cx="97.94" cy="209.57" r="1.85"/>
		<circle fill="#AEBDC4" cx="102.27" cy="209.57" r="1.85"/>
		<circle fill="#AEBDC4" cx="106.61" cy="209.57" r="1.85"/>
		<circle fill="#AEBDC4" cx="110.94" cy="209.57" r="1.85"/>
		<circle fill="#AEBDC4" cx="115.27" cy="209.57" r="1.85"/>
		<circle fill="#AEBDC4" cx="119.6" cy="209.57" r="1.85"/>
	</g>
	<g>
		<circle fill="#AEBDC4" cx="11.41" cy="203.64" r="1.85"/>
		<circle fill="#AEBDC4" cx="15.73" cy="203.64" r="1.85"/>
		<circle fill="#AEBDC4" cx="20.05" cy="203.64" r="1.85"/>
		<circle fill="#AEBDC4" cx="24.37" cy="203.64" r="1.85"/>
		<circle fill="#AEBDC4" cx="28.69" cy="203.64" r="1.85"/>
		<circle fill="#AEBDC4" cx="33.01" cy="203.64" r="1.85"/>
		<circle fill="#AEBDC4" cx="37.33" cy="203.64" r="1.85"/>
		<circle fill="#AEBDC4" cx="41.65" cy="203.64" r="1.85"/>
		<circle fill="#AEBDC4" cx="45.98" cy="203.64" r="1.85"/>
		<circle fill="#AEBDC4" cx="50.31" cy="203.64" r="1.85"/>
		<circle fill="#AEBDC4" cx="54.64" cy="203.64" r="1.85"/>
		<circle fill="#AEBDC4" cx="58.97" cy="203.64" r="1.85"/>
		<circle fill="#AEBDC4" cx="63.3" cy="203.64" r="1.85"/>
		<circle fill="#AEBDC4" cx="67.63" cy="203.64" r="1.85"/>
		<circle fill="#AEBDC4" cx="71.96" cy="203.64" r="1.85"/>
		<circle fill="#AEBDC4" cx="76.29" cy="203.64" r="1.85"/>
		<circle fill="#AEBDC4" cx="80.62" cy="203.64" r="1.85"/>
		<circle fill="#AEBDC4" cx="84.95" cy="203.64" r="1.85"/>
		<circle fill="#AEBDC4" cx="89.28" cy="203.64" r="1.85"/>
		<circle fill="#AEBDC4" cx="93.61" cy="203.64" r="1.85"/>
		<circle fill="#AEBDC4" cx="97.94" cy="203.64" r="1.85"/>
		<circle fill="#AEBDC4" cx="102.27" cy="203.64" r="1.85"/>
		<circle fill="#AEBDC4" cx="106.61" cy="203.64" r="1.85"/>
		<circle fill="#AEBDC4" cx="110.94" cy="203.64" r="1.85"/>
		<circle fill="#AEBDC4" cx="115.27" cy="203.64" r="1.85"/>
		<circle fill="#AEBDC4" cx="119.6" cy="203.64" r="1.85"/>
	</g>
	<g>
		<circle fill="#AEBDC4" cx="11.41" cy="197.71" r="1.85"/>
		<circle fill="#AEBDC4" cx="15.73" cy="197.71" r="1.85"/>
		<circle fill="#AEBDC4" cx="20.05" cy="197.71" r="1.85"/>
		<circle fill="#AEBDC4" cx="24.37" cy="197.71" r="1.85"/>
		<circle fill="#AEBDC4" cx="28.69" cy="197.71" r="1.85"/>
		<circle fill="#AEBDC4" cx="33.01" cy="197.71" r="1.85"/>
		<circle fill="#AEBDC4" cx="37.33" cy="197.71" r="1.85"/>
		<circle fill="#AEBDC4" cx="41.65" cy="197.71" r="1.85"/>
		<circle fill="#AEBDC4" cx="45.98" cy="197.71" r="1.85"/>
		<circle fill="#AEBDC4" cx="50.31" cy="197.71" r="1.85"/>
		<circle fill="#AEBDC4" cx="54.64" cy="197.71" r="1.85"/>
		<circle fill="#AEBDC4" cx="58.97" cy="197.71" r="1.85"/>
		<circle fill="#AEBDC4" cx="63.3" cy="197.71" r="1.85"/>
		<circle fill="#AEBDC4" cx="67.63" cy="197.71" r="1.85"/>
		<circle fill="#AEBDC4" cx="71.96" cy="197.71" r="1.85"/>
		<circle fill="#AEBDC4" cx="76.29" cy="197.71" r="1.85"/>
		<circle fill="#AEBDC4" cx="80.62" cy="197.71" r="1.85"/>
		<circle fill="#AEBDC4" cx="84.95" cy="197.71" r="1.85"/>
		<circle fill="#AEBDC4" cx="89.28" cy="197.71" r="1.85"/>
		<circle fill="#AEBDC4" cx="93.61" cy="197.71" r="1.85"/>
		<circle fill="#AEBDC4" cx="97.94" cy="197.71" r="1.85"/>
		<circle fill="#AEBDC4" cx="102.27" cy="197.71" r="1.85"/>
		<circle fill="#AEBDC4" cx="106.61" cy="197.71" r="1.85"/>
		<circle fill="#AEBDC4" cx="110.94" cy="197.71" r="1.85"/>
		<circle fill="#AEBDC4" cx="115.27" cy="197.71" r="1.85"/>
		<circle fill="#AEBDC4" cx="119.6" cy="197.71" r="1.85"/>
	</g>
	<g>
		<circle fill="#AEBDC4" cx="11.41" cy="191.78" r="1.85"/>
		<circle fill="#AEBDC4" cx="15.73" cy="191.78" r="1.85"/>
		<circle fill="#AEBDC4" cx="20.05" cy="191.78" r="1.85"/>
		<circle fill="#AEBDC4" cx="24.37" cy="191.78" r="1.85"/>
		<circle fill="#AEBDC4" cx="28.69" cy="191.78" r="1.85"/>
		<circle fill="#AEBDC4" cx="33.01" cy="191.78" r="1.85"/>
		<circle fill="#AEBDC4" cx="37.33" cy="191.78" r="1.85"/>
		<circle fill="#AEBDC4" cx="41.65" cy="191.78" r="1.85"/>
		<circle fill="#AEBDC4" cx="45.98" cy="191.78" r="1.85"/>
		<circle fill="#AEBDC4" cx="50.31" cy="191.78" r="1.85"/>
		<circle fill="#AEBDC4" cx="54.64" cy="191.78" r="1.85"/>
		<circle fill="#AEBDC4" cx="58.97" cy="191.78" r="1.85"/>
		<circle fill="#AEBDC4" cx="63.3" cy="191.78" r="1.85"/>
		<circle fill="#AEBDC4" cx="67.63" cy="191.78" r="1.85"/>
		<circle fill="#AEBDC4" cx="71.96" cy="191.78" r="1.85"/>
		<circle fill="#AEBDC4" cx="76.29" cy="191.78" r="1.85"/>
		<circle fill="#AEBDC4" cx="80.62" cy="191.78" r="1.85"/>
		<circle fill="#AEBDC4" cx="84.95" cy="191.78" r="1.85"/>
		<circle fill="#AEBDC4" cx="89.28" cy="191.78" r="1.85"/>
		<circle fill="#AEBDC4" cx="93.61" cy="191.78" r="1.85"/>
		<circle fill="#AEBDC4" cx="97.94" cy="191.78" r="1.85"/>
		<circle fill="#AEBDC4" cx="102.27" cy="191.78" r="1.85"/>
		<circle fill="#AEBDC4" cx="106.61" cy="191.78" r="1.85"/>
		<circle fill="#AEBDC4" cx="110.94" cy="191.78" r="1.85"/>
		<circle fill="#AEBDC4" cx="115.27" cy="191.78" r="1.85"/>
		<circle fill="#AEBDC4" cx="119.6" cy="191.78" r="1.85"/>
	</g>
	<g>
		<circle fill="#AEBDC4" cx="11.41" cy="185.85" r="1.85"/>
		<circle fill="#AEBDC4" cx="15.73" cy="185.85" r="1.85"/>
		<circle fill="#AEBDC4" cx="20.05" cy="185.85" r="1.85"/>
		<circle fill="#AEBDC4" cx="24.37" cy="185.85" r="1.85"/>
		<circle fill="#AEBDC4" cx="28.69" cy="185.85" r="1.85"/>
		<circle fill="#AEBDC4" cx="33.01" cy="185.85" r="1.85"/>
		<circle fill="#AEBDC4" cx="37.33" cy="185.85" r="1.85"/>
		<circle fill="#AEBDC4" cx="41.65" cy="185.85" r="1.85"/>
		<circle fill="#AEBDC4" cx="45.98" cy="185.85" r="1.85"/>
		<circle fill="#AEBDC4" cx="50.31" cy="185.85" r="1.85"/>
		<circle fill="#AEBDC4" cx="54.64" cy="185.85" r="1.85"/>
		<circle fill="#AEBDC4" cx="58.97" cy="185.85" r="1.85"/>
		<circle fill="#AEBDC4" cx="63.3" cy="185.85" r="1.85"/>
		<circle fill="#AEBDC4" cx="67.63" cy="185.85" r="1.85"/>
		<circle fill="#AEBDC4" cx="71.96" cy="185.85" r="1.85"/>
		<circle fill="#AEBDC4" cx="76.29" cy="185.85" r="1.85"/>
		<circle fill="#AEBDC4" cx="80.62" cy="185.85" r="1.85"/>
		<circle fill="#AEBDC4" cx="84.95" cy="185.85" r="1.85"/>
		<circle fill="#AEBDC4" cx="89.28" cy="185.85" r="1.85"/>
		<circle fill="#AEBDC4" cx="93.61" cy="185.85" r="1.85"/>
		<circle fill="#AEBDC4" cx="97.94" cy="185.85" r="1.85"/>
		<circle fill="#AEBDC4" cx="102.27" cy="185.85" r="1.85"/>
		<circle fill="#AEBDC4" cx="106.61" cy="185.85" r="1.85"/>
		<circle fill="#AEBDC4" cx="110.94" cy="185.85" r="1.85"/>
		<circle fill="#AEBDC4" cx="115.27" cy="185.85" r="1.85"/>
		<circle fill="#AEBDC4" cx="119.6" cy="185.85" r="1.85"/>
	</g>
	<g>
		<circle fill="#AEBDC4" cx="11.41" cy="179.92" r="1.85"/>
		<circle fill="#AEBDC4" cx="15.73" cy="179.92" r="1.85"/>
		<circle fill="#AEBDC4" cx="20.05" cy="179.92" r="1.85"/>
		<circle fill="#AEBDC4" cx="24.37" cy="179.92" r="1.85"/>
		<circle fill="#AEBDC4" cx="28.69" cy="179.92" r="1.85"/>
		<circle fill="#AEBDC4" cx="33.01" cy="179.92" r="1.85"/>
		<circle fill="#AEBDC4" cx="37.33" cy="179.92" r="1.85"/>
		<circle fill="#AEBDC4" cx="41.65" cy="179.92" r="1.85"/>
		<circle fill="#AEBDC4" cx="45.98" cy="179.92" r="1.85"/>
		<circle fill="#AEBDC4" cx="50.31" cy="179.92" r="1.85"/>
		<circle fill="#AEBDC4" cx="54.64" cy="179.92" r="1.85"/>
		<circle fill="#AEBDC4" cx="58.97" cy="179.92" r="1.85"/>
		<circle fill="#AEBDC4" cx="63.3" cy="179.92" r="1.85"/>
		<circle fill="#AEBDC4" cx="67.63" cy="179.92" r="1.85"/>
		<circle fill="#AEBDC4" cx="71.96" cy="179.92" r="1.85"/>
		<circle fill="#AEBDC4" cx="76.29" cy="179.92" r="1.85"/>
		<circle fill="#AEBDC4" cx="80.62" cy="179.92" r="1.85"/>
		<circle fill="#AEBDC4" cx="84.95" cy="179.92" r="1.85"/>
		<circle fill="#AEBDC4" cx="89.28" cy="179.92" r="1.85"/>
		<circle fill="#AEBDC4" cx="93.61" cy="179.92" r="1.85"/>
		<circle fill="#AEBDC4" cx="97.94" cy="179.92" r="1.85"/>
		<circle fill="#AEBDC4" cx="102.27" cy="179.92" r="1.85"/>
		<circle fill="#AEBDC4" cx="106.61" cy="179.92" r="1.85"/>
		<circle fill="#AEBDC4" cx="110.94" cy="179.92" r="1.85"/>
	</g>
	<g>
		<circle fill="#AEBDC4" cx="11.41" cy="173.99" r="1.85"/>
		<circle fill="#AEBDC4" cx="15.73" cy="173.99" r="1.85"/>
		<circle fill="#AEBDC4" cx="20.05" cy="173.99" r="1.85"/>
		<circle fill="#AEBDC4" cx="24.37" cy="173.99" r="1.85"/>
		<circle fill="#AEBDC4" cx="28.69" cy="173.99" r="1.85"/>
		<circle fill="#AEBDC4" cx="33.01" cy="173.99" r="1.85"/>
		<circle fill="#AEBDC4" cx="37.33" cy="173.99" r="1.85"/>
		<circle fill="#AEBDC4" cx="41.65" cy="173.99" r="1.85"/>
		<circle fill="#AEBDC4" cx="45.98" cy="173.99" r="1.85"/>
		<circle fill="#AEBDC4" cx="50.31" cy="173.99" r="1.85"/>
		<circle fill="#AEBDC4" cx="54.64" cy="173.99" r="1.85"/>
		<circle fill="#AEBDC4" cx="58.97" cy="173.99" r="1.85"/>
		<circle fill="#AEBDC4" cx="63.3" cy="173.99" r="1.85"/>
		<circle fill="#AEBDC4" cx="67.63" cy="173.99" r="1.85"/>
		<circle fill="#AEBDC4" cx="71.96" cy="173.99" r="1.85"/>
		<circle fill="#AEBDC4" cx="76.29" cy="173.99" r="1.85"/>
		<circle fill="#AEBDC4" cx="80.62" cy="173.99" r="1.85"/>
		<circle fill="#AEBDC4" cx="84.95" cy="173.99" r="1.85"/>
		<circle fill="#AEBDC4" cx="89.28" cy="173.99" r="1.85"/>
		<circle fill="#AEBDC4" cx="93.61" cy="173.99" r="1.85"/>
		<circle fill="#AEBDC4" cx="97.94" cy="173.99" r="1.85"/>
		<circle fill="#AEBDC4" cx="102.27" cy="173.99" r="1.85"/>
		<circle fill="#AEBDC4" cx="106.61" cy="173.99" r="1.85"/>
		<circle fill="#AEBDC4" cx="110.94" cy="173.99" r="1.85"/>
	</g>
	<g>
		<circle fill="#AEBDC4" cx="11.41" cy="168.06" r="1.85"/>
		<circle fill="#AEBDC4" cx="15.73" cy="168.06" r="1.85"/>
		<circle fill="#AEBDC4" cx="20.05" cy="168.06" r="1.85"/>
		<circle fill="#AEBDC4" cx="24.37" cy="168.06" r="1.85"/>
		<circle fill="#AEBDC4" cx="28.69" cy="168.06" r="1.85"/>
		<circle fill="#AEBDC4" cx="33.01" cy="168.06" r="1.85"/>
		<circle fill="#AEBDC4" cx="37.33" cy="168.06" r="1.85"/>
		<circle fill="#AEBDC4" cx="41.65" cy="168.06" r="1.85"/>
		<circle fill="#AEBDC4" cx="45.98" cy="168.06" r="1.85"/>
		<circle fill="#AEBDC4" cx="50.31" cy="168.06" r="1.85"/>
		<circle fill="#AEBDC4" cx="54.64" cy="168.06" r="1.85"/>
		<circle fill="#AEBDC4" cx="58.97" cy="168.06" r="1.85"/>
		<circle fill="#AEBDC4" cx="63.3" cy="168.06" r="1.85"/>
		<circle fill="#AEBDC4" cx="67.63" cy="168.06" r="1.85"/>
		<circle fill="#AEBDC4" cx="71.96" cy="168.06" r="1.85"/>
		<circle fill="#AEBDC4" cx="76.29" cy="168.06" r="1.85"/>
		<circle fill="#AEBDC4" cx="80.62" cy="168.06" r="1.85"/>
		<circle fill="#AEBDC4" cx="84.95" cy="168.06" r="1.85"/>
		<circle fill="#AEBDC4" cx="89.28" cy="168.06" r="1.85"/>
		<circle fill="#AEBDC4" cx="93.61" cy="168.06" r="1.85"/>
		<circle fill="#AEBDC4" cx="97.94" cy="168.06" r="1.85"/>
		<circle fill="#AEBDC4" cx="102.27" cy="168.06" r="1.85"/>
		<circle fill="#AEBDC4" cx="106.61" cy="168.06" r="1.85"/>
		<circle fill="#AEBDC4" cx="110.94" cy="168.06" r="1.85"/>
	</g>
	<g>
		<circle fill="#AEBDC4" cx="11.41" cy="162.12" r="1.85"/>
		<circle fill="#AEBDC4" cx="15.73" cy="162.12" r="1.85"/>
		<circle fill="#AEBDC4" cx="20.05" cy="162.12" r="1.85"/>
		<circle fill="#AEBDC4" cx="24.37" cy="162.12" r="1.85"/>
		<circle fill="#AEBDC4" cx="28.69" cy="162.12" r="1.85"/>
		<circle fill="#AEBDC4" cx="33.01" cy="162.12" r="1.85"/>
		<circle fill="#AEBDC4" cx="37.33" cy="162.12" r="1.85"/>
		<circle fill="#AEBDC4" cx="41.65" cy="162.12" r="1.85"/>
		<circle fill="#AEBDC4" cx="45.98" cy="162.12" r="1.85"/>
		<circle fill="#AEBDC4" cx="50.31" cy="162.12" r="1.85"/>
		<circle fill="#AEBDC4" cx="54.64" cy="162.12" r="1.85"/>
		<circle fill="#AEBDC4" cx="58.97" cy="162.12" r="1.85"/>
		<circle fill="#AEBDC4" cx="63.3" cy="162.12" r="1.85"/>
		<circle fill="#AEBDC4" cx="67.63" cy="162.12" r="1.85"/>
		<circle fill="#AEBDC4" cx="71.96" cy="162.12" r="1.85"/>
		<circle fill="#AEBDC4" cx="76.29" cy="162.12" r="1.85"/>
		<circle fill="#AEBDC4" cx="80.62" cy="162.12" r="1.85"/>
		<circle fill="#AEBDC4" cx="84.95" cy="162.12" r="1.85"/>
		<circle fill="#AEBDC4" cx="89.28" cy="162.12" r="1.85"/>
		<circle fill="#AEBDC4" cx="93.61" cy="162.12" r="1.85"/>
		<circle fill="#AEBDC4" cx="97.94" cy="162.12" r="1.85"/>
		<circle fill="#AEBDC4" cx="102.27" cy="162.12" r="1.85"/>
		<circle fill="#AEBDC4" cx="106.61" cy="162.12" r="1.85"/>
		<circle fill="#AEBDC4" cx="110.94" cy="162.12" r="1.85"/>
	</g>
	<g>
		<circle fill="#AEBDC4" cx="11.41" cy="156.19" r="1.85"/>
		<circle fill="#AEBDC4" cx="15.73" cy="156.19" r="1.85"/>
		<circle fill="#AEBDC4" cx="20.05" cy="156.19" r="1.85"/>
		<circle fill="#AEBDC4" cx="24.37" cy="156.19" r="1.85"/>
		<circle fill="#AEBDC4" cx="28.69" cy="156.19" r="1.85"/>
		<circle fill="#AEBDC4" cx="33.01" cy="156.19" r="1.85"/>
		<circle fill="#AEBDC4" cx="37.33" cy="156.19" r="1.85"/>
		<circle fill="#AEBDC4" cx="41.65" cy="156.19" r="1.85"/>
		<circle fill="#AEBDC4" cx="45.98" cy="156.19" r="1.85"/>
		<circle fill="#AEBDC4" cx="50.31" cy="156.19" r="1.85"/>
		<circle fill="#AEBDC4" cx="54.64" cy="156.19" r="1.85"/>
		<circle fill="#AEBDC4" cx="58.97" cy="156.19" r="1.85"/>
		<circle fill="#AEBDC4" cx="63.3" cy="156.19" r="1.85"/>
		<circle fill="#AEBDC4" cx="67.63" cy="156.19" r="1.85"/>
		<circle fill="#AEBDC4" cx="71.96" cy="156.19" r="1.85"/>
		<circle fill="#AEBDC4" cx="76.29" cy="156.19" r="1.85"/>
		<circle fill="#AEBDC4" cx="80.62" cy="156.19" r="1.85"/>
		<circle fill="#AEBDC4" cx="84.95" cy="156.19" r="1.85"/>
		<circle fill="#AEBDC4" cx="89.28" cy="156.19" r="1.85"/>
		<circle fill="#AEBDC4" cx="93.61" cy="156.19" r="1.85"/>
		<circle fill="#AEBDC4" cx="97.94" cy="156.19" r="1.85"/>
		<circle fill="#AEBDC4" cx="102.27" cy="156.19" r="1.85"/>
		<circle fill="#AEBDC4" cx="106.61" cy="156.19" r="1.85"/>
		<circle fill="#AEBDC4" cx="110.94" cy="156.19" r="1.85"/>
	</g>
	<g>
		<circle fill="#AEBDC4" cx="11.41" cy="150.26" r="1.85"/>
		<circle fill="#AEBDC4" cx="15.73" cy="150.26" r="1.85"/>
		<circle fill="#AEBDC4" cx="20.05" cy="150.26" r="1.85"/>
		<circle fill="#AEBDC4" cx="24.37" cy="150.26" r="1.85"/>
		<circle fill="#AEBDC4" cx="28.69" cy="150.26" r="1.85"/>
		<circle fill="#AEBDC4" cx="33.01" cy="150.26" r="1.85"/>
		<circle fill="#AEBDC4" cx="37.33" cy="150.26" r="1.85"/>
		<circle fill="#AEBDC4" cx="41.65" cy="150.26" r="1.85"/>
		<circle fill="#AEBDC4" cx="45.98" cy="150.26" r="1.85"/>
		<circle fill="#AEBDC4" cx="50.31" cy="150.26" r="1.85"/>
		<circle fill="#AEBDC4" cx="54.64" cy="150.26" r="1.85"/>
		<circle fill="#AEBDC4" cx="58.97" cy="150.26" r="1.85"/>
		<circle fill="#AEBDC4" cx="63.3" cy="150.26" r="1.85"/>
		<circle fill="#AEBDC4" cx="67.63" cy="150.26" r="1.85"/>
		<circle fill="#AEBDC4" cx="71.96" cy="150.26" r="1.85"/>
		<circle fill="#AEBDC4" cx="76.29" cy="150.26" r="1.85"/>
		<circle fill="#AEBDC4" cx="80.62" cy="150.26" r="1.85"/>
		<circle fill="#AEBDC4" cx="84.95" cy="150.26" r="1.85"/>
		<circle fill="#AEBDC4" cx="89.28" cy="150.26" r="1.85"/>
		<circle fill="#AEBDC4" cx="93.61" cy="150.26" r="1.85"/>
		<circle fill="#AEBDC4" cx="97.94" cy="150.26" r="1.85"/>
		<circle fill="#AEBDC4" cx="102.27" cy="150.26" r="1.85"/>
		<circle fill="#AEBDC4" cx="106.61" cy="150.26" r="1.85"/>
		<circle fill="#AEBDC4" cx="110.94" cy="150.26" r="1.85"/>
		<circle fill="#AEBDC4" cx="115.27" cy="150.26" r="1.85"/>
		<circle fill="#AEBDC4" cx="119.6" cy="150.26" r="1.85"/>
	</g>
	<g>
		<circle fill="#AEBDC4" cx="11.41" cy="144.33" r="1.85"/>
		<circle fill="#AEBDC4" cx="15.73" cy="144.33" r="1.85"/>
		<circle fill="#AEBDC4" cx="20.05" cy="144.33" r="1.85"/>
		<circle fill="#AEBDC4" cx="24.37" cy="144.33" r="1.85"/>
		<circle fill="#AEBDC4" cx="28.69" cy="144.33" r="1.85"/>
		<circle fill="#AEBDC4" cx="33.01" cy="144.33" r="1.85"/>
		<circle fill="#AEBDC4" cx="37.33" cy="144.33" r="1.85"/>
		<circle fill="#AEBDC4" cx="41.65" cy="144.33" r="1.85"/>
		<circle fill="#AEBDC4" cx="45.98" cy="144.33" r="1.85"/>
		<circle fill="#AEBDC4" cx="50.31" cy="144.33" r="1.85"/>
		<circle fill="#AEBDC4" cx="54.64" cy="144.33" r="1.85"/>
		<circle fill="#AEBDC4" cx="58.97" cy="144.33" r="1.85"/>
		<circle fill="#AEBDC4" cx="63.3" cy="144.33" r="1.85"/>
		<circle fill="#AEBDC4" cx="67.63" cy="144.33" r="1.85"/>
		<circle fill="#AEBDC4" cx="71.96" cy="144.33" r="1.85"/>
		<circle fill="#AEBDC4" cx="76.29" cy="144.33" r="1.85"/>
		<circle fill="#AEBDC4" cx="80.62" cy="144.33" r="1.85"/>
		<circle fill="#AEBDC4" cx="84.95" cy="144.33" r="1.85"/>
		<circle fill="#AEBDC4" cx="89.28" cy="144.33" r="1.85"/>
		<circle fill="#AEBDC4" cx="93.61" cy="144.33" r="1.85"/>
		<circle fill="#AEBDC4" cx="97.94" cy="144.33" r="1.85"/>
		<circle fill="#AEBDC4" cx="102.27" cy="144.33" r="1.85"/>
		<circle fill="#AEBDC4" cx="106.61" cy="144.33" r="1.85"/>
		<circle fill="#AEBDC4" cx="110.94" cy="144.33" r="1.85"/>
		<circle fill="#AEBDC4" cx="115.27" cy="144.33" r="1.85"/>
		<circle fill="#AEBDC4" cx="119.6" cy="144.33" r="1.85"/>
	</g>
	<g>
		<circle fill="#AEBDC4" cx="20.07" cy="138.4" r="1.85"/>
		<circle fill="#AEBDC4" cx="24.39" cy="138.4" r="1.85"/>
		<circle fill="#AEBDC4" cx="28.71" cy="138.4" r="1.85"/>
		<circle fill="#AEBDC4" cx="33.03" cy="138.4" r="1.85"/>
		<circle fill="#AEBDC4" cx="37.35" cy="138.4" r="1.85"/>
		<circle fill="#AEBDC4" cx="41.67" cy="138.4" r="1.85"/>
		<circle fill="#AEBDC4" cx="45.99" cy="138.4" r="1.85"/>
		<circle fill="#AEBDC4" cx="50.32" cy="138.4" r="1.85"/>
		<circle fill="#AEBDC4" cx="54.64" cy="138.4" r="1.85"/>
		<circle fill="#AEBDC4" cx="58.97" cy="138.4" r="1.85"/>
		<circle fill="#AEBDC4" cx="63.3" cy="138.4" r="1.85"/>
		<circle fill="#AEBDC4" cx="67.63" cy="138.4" r="1.85"/>
		<circle fill="#AEBDC4" cx="71.96" cy="138.4" r="1.85"/>
		<circle fill="#AEBDC4" cx="76.29" cy="138.4" r="1.85"/>
		<circle fill="#AEBDC4" cx="80.62" cy="138.4" r="1.85"/>
		<circle fill="#AEBDC4" cx="84.95" cy="138.4" r="1.85"/>
		<circle fill="#AEBDC4" cx="89.28" cy="138.4" r="1.85"/>
		<circle fill="#AEBDC4" cx="93.61" cy="138.4" r="1.85"/>
		<circle fill="#AEBDC4" cx="97.94" cy="138.4" r="1.85"/>
		<circle fill="#AEBDC4" cx="102.27" cy="138.4" r="1.85"/>
		<circle fill="#AEBDC4" cx="106.61" cy="138.4" r="1.85"/>
		<circle fill="#AEBDC4" cx="110.94" cy="138.4" r="1.85"/>
		<circle fill="#AEBDC4" cx="115.27" cy="138.4" r="1.85"/>
		<circle fill="#AEBDC4" cx="119.6" cy="138.4" r="1.85"/>
	</g>
	<g>
		<circle fill="#AEBDC4" cx="20.07" cy="132.47" r="1.85"/>
		<circle fill="#AEBDC4" cx="24.39" cy="132.47" r="1.85"/>
		<circle fill="#AEBDC4" cx="28.71" cy="132.47" r="1.85"/>
		<circle fill="#AEBDC4" cx="33.03" cy="132.47" r="1.85"/>
		<circle fill="#AEBDC4" cx="37.35" cy="132.47" r="1.85"/>
		<circle fill="#AEBDC4" cx="41.67" cy="132.47" r="1.85"/>
		<circle fill="#AEBDC4" cx="45.99" cy="132.47" r="1.85"/>
		<circle fill="#AEBDC4" cx="50.32" cy="132.47" r="1.85"/>
		<circle fill="#AEBDC4" cx="54.64" cy="132.47" r="1.85"/>
		<circle fill="#AEBDC4" cx="58.97" cy="132.47" r="1.85"/>
		<circle fill="#AEBDC4" cx="63.3" cy="132.47" r="1.85"/>
		<circle fill="#AEBDC4" cx="67.63" cy="132.47" r="1.85"/>
		<circle fill="#AEBDC4" cx="71.96" cy="132.47" r="1.85"/>
		<circle fill="#AEBDC4" cx="76.29" cy="132.47" r="1.85"/>
		<circle fill="#AEBDC4" cx="80.62" cy="132.47" r="1.85"/>
		<circle fill="#AEBDC4" cx="84.95" cy="132.47" r="1.85"/>
		<circle fill="#AEBDC4" cx="89.28" cy="132.47" r="1.85"/>
		<circle fill="#AEBDC4" cx="93.61" cy="132.47" r="1.85"/>
		<circle fill="#AEBDC4" cx="97.94" cy="132.47" r="1.85"/>
		<circle fill="#AEBDC4" cx="102.27" cy="132.47" r="1.85"/>
		<circle fill="#AEBDC4" cx="106.61" cy="132.47" r="1.85"/>
		<circle fill="#AEBDC4" cx="110.94" cy="132.47" r="1.85"/>
		<circle fill="#AEBDC4" cx="115.27" cy="132.47" r="1.85"/>
		<circle fill="#AEBDC4" cx="119.6" cy="132.47" r="1.85"/>
	</g>
	<g>
		<circle fill="#AEBDC4" cx="20.07" cy="126.54" r="1.85"/>
		<circle fill="#AEBDC4" cx="24.39" cy="126.54" r="1.85"/>
		<circle fill="#AEBDC4" cx="28.71" cy="126.54" r="1.85"/>
		<circle fill="#AEBDC4" cx="33.03" cy="126.54" r="1.85"/>
		<circle fill="#AEBDC4" cx="37.35" cy="126.54" r="1.85"/>
		<circle fill="#AEBDC4" cx="41.67" cy="126.54" r="1.85"/>
		<circle fill="#AEBDC4" cx="45.99" cy="126.54" r="1.85"/>
		<circle fill="#AEBDC4" cx="50.32" cy="126.54" r="1.85"/>
		<circle fill="#AEBDC4" cx="54.64" cy="126.54" r="1.85"/>
		<circle fill="#AEBDC4" cx="58.97" cy="126.54" r="1.85"/>
		<circle fill="#AEBDC4" cx="63.3" cy="126.54" r="1.85"/>
		<circle fill="#AEBDC4" cx="67.63" cy="126.54" r="1.85"/>
		<circle fill="#AEBDC4" cx="71.96" cy="126.54" r="1.85"/>
		<circle fill="#AEBDC4" cx="76.29" cy="126.54" r="1.85"/>
		<circle fill="#AEBDC4" cx="80.62" cy="126.54" r="1.85"/>
		<circle fill="#AEBDC4" cx="84.95" cy="126.54" r="1.85"/>
		<circle fill="#AEBDC4" cx="89.28" cy="126.54" r="1.85"/>
		<circle fill="#AEBDC4" cx="93.61" cy="126.54" r="1.85"/>
		<circle fill="#AEBDC4" cx="97.94" cy="126.54" r="1.85"/>
		<circle fill="#AEBDC4" cx="102.27" cy="126.54" r="1.85"/>
		<circle fill="#AEBDC4" cx="106.61" cy="126.54" r="1.85"/>
		<circle fill="#AEBDC4" cx="110.94" cy="126.54" r="1.85"/>
		<circle fill="#AEBDC4" cx="115.27" cy="126.54" r="1.85"/>
		<circle fill="#AEBDC4" cx="119.6" cy="126.54" r="1.85"/>
	</g>
	<g>
		<circle fill="#AEBDC4" cx="20.07" cy="120.61" r="1.85"/>
		<circle fill="#AEBDC4" cx="24.39" cy="120.61" r="1.85"/>
		<circle fill="#AEBDC4" cx="28.71" cy="120.61" r="1.85"/>
		<circle fill="#AEBDC4" cx="33.03" cy="120.61" r="1.85"/>
		<circle fill="#AEBDC4" cx="37.35" cy="120.61" r="1.85"/>
		<circle fill="#AEBDC4" cx="41.67" cy="120.61" r="1.85"/>
		<circle fill="#AEBDC4" cx="45.99" cy="120.61" r="1.85"/>
		<circle fill="#AEBDC4" cx="50.32" cy="120.61" r="1.85"/>
		<circle fill="#AEBDC4" cx="54.64" cy="120.61" r="1.85"/>
		<circle fill="#AEBDC4" cx="58.97" cy="120.61" r="1.85"/>
		<circle fill="#AEBDC4" cx="63.3" cy="120.61" r="1.85"/>
		<circle fill="#AEBDC4" cx="67.63" cy="120.61" r="1.85"/>
		<circle fill="#AEBDC4" cx="71.96" cy="120.61" r="1.85"/>
		<circle fill="#AEBDC4" cx="76.29" cy="120.61" r="1.85"/>
		<circle fill="#AEBDC4" cx="80.62" cy="120.61" r="1.85"/>
		<circle fill="#AEBDC4" cx="84.95" cy="120.61" r="1.85"/>
		<circle fill="#AEBDC4" cx="89.28" cy="120.61" r="1.85"/>
		<circle fill="#AEBDC4" cx="93.61" cy="120.61" r="1.85"/>
		<circle fill="#AEBDC4" cx="97.94" cy="120.61" r="1.85"/>
		<circle fill="#AEBDC4" cx="102.27" cy="120.61" r="1.85"/>
		<circle fill="#AEBDC4" cx="106.61" cy="120.61" r="1.85"/>
		<circle fill="#AEBDC4" cx="110.94" cy="120.61" r="1.85"/>
		<circle fill="#AEBDC4" cx="115.27" cy="120.61" r="1.85"/>
		<circle fill="#AEBDC4" cx="119.6" cy="120.61" r="1.85"/>
	</g>
	<g>
		<circle fill="#AEBDC4" cx="20.07" cy="114.68" r="1.85"/>
		<circle fill="#AEBDC4" cx="24.39" cy="114.68" r="1.85"/>
		<circle fill="#AEBDC4" cx="28.71" cy="114.68" r="1.85"/>
		<circle fill="#AEBDC4" cx="33.03" cy="114.68" r="1.85"/>
		<circle fill="#AEBDC4" cx="37.35" cy="114.68" r="1.85"/>
		<circle fill="#AEBDC4" cx="41.67" cy="114.68" r="1.85"/>
		<circle fill="#AEBDC4" cx="45.99" cy="114.68" r="1.85"/>
		<circle fill="#AEBDC4" cx="50.32" cy="114.68" r="1.85"/>
		<circle fill="#AEBDC4" cx="54.64" cy="114.68" r="1.85"/>
		<circle fill="#AEBDC4" cx="58.97" cy="114.68" r="1.85"/>
		<circle fill="#AEBDC4" cx="63.3" cy="114.68" r="1.85"/>
		<circle fill="#AEBDC4" cx="67.63" cy="114.68" r="1.85"/>
		<circle fill="#AEBDC4" cx="71.96" cy="114.68" r="1.85"/>
		<circle fill="#AEBDC4" cx="76.29" cy="114.68" r="1.85"/>
		<circle fill="#AEBDC4" cx="80.62" cy="114.68" r="1.85"/>
		<circle fill="#AEBDC4" cx="84.95" cy="114.68" r="1.85"/>
		<circle fill="#AEBDC4" cx="89.28" cy="114.68" r="1.85"/>
		<circle fill="#AEBDC4" cx="93.61" cy="114.68" r="1.85"/>
		<circle fill="#AEBDC4" cx="97.94" cy="114.68" r="1.85"/>
		<circle fill="#AEBDC4" cx="102.27" cy="114.68" r="1.85"/>
		<circle fill="#AEBDC4" cx="106.61" cy="114.68" r="1.85"/>
		<circle fill="#AEBDC4" cx="110.94" cy="114.68" r="1.85"/>
		<circle fill="#AEBDC4" cx="115.27" cy="114.68" r="1.85"/>
		<circle fill="#AEBDC4" cx="119.6" cy="114.68" r="1.85"/>
	</g>
	<g>
		<circle fill="#AEBDC4" cx="11.41" cy="108.75" r="1.85"/>
		<circle fill="#AEBDC4" cx="15.73" cy="108.75" r="1.85"/>
		<circle fill="#AEBDC4" cx="20.05" cy="108.75" r="1.85"/>
		<circle fill="#AEBDC4" cx="24.37" cy="108.75" r="1.85"/>
		<circle fill="#AEBDC4" cx="28.69" cy="108.75" r="1.85"/>
		<circle fill="#AEBDC4" cx="33.01" cy="108.75" r="1.85"/>
		<circle fill="#AEBDC4" cx="37.33" cy="108.75" r="1.85"/>
		<circle fill="#AEBDC4" cx="41.65" cy="108.75" r="1.85"/>
		<circle fill="#AEBDC4" cx="45.98" cy="108.75" r="1.85"/>
		<circle fill="#AEBDC4" cx="50.31" cy="108.75" r="1.85"/>
		<circle fill="#AEBDC4" cx="54.64" cy="108.75" r="1.85"/>
		<circle fill="#AEBDC4" cx="58.97" cy="108.75" r="1.85"/>
		<circle fill="#AEBDC4" cx="63.3" cy="108.75" r="1.85"/>
		<circle fill="#AEBDC4" cx="67.63" cy="108.75" r="1.85"/>
		<circle fill="#AEBDC4" cx="71.96" cy="108.75" r="1.85"/>
		<circle fill="#AEBDC4" cx="76.29" cy="108.75" r="1.85"/>
		<circle fill="#AEBDC4" cx="80.62" cy="108.75" r="1.85"/>
		<circle fill="#AEBDC4" cx="84.95" cy="108.75" r="1.85"/>
		<circle fill="#AEBDC4" cx="89.28" cy="108.75" r="1.85"/>
		<circle fill="#AEBDC4" cx="93.61" cy="108.75" r="1.85"/>
		<circle fill="#AEBDC4" cx="97.94" cy="108.75" r="1.85"/>
		<circle fill="#AEBDC4" cx="102.27" cy="108.75" r="1.85"/>
		<circle fill="#AEBDC4" cx="106.61" cy="108.75" r="1.85"/>
		<circle fill="#AEBDC4" cx="110.94" cy="108.75" r="1.85"/>
		<circle fill="#AEBDC4" cx="115.27" cy="108.75" r="1.85"/>
		<circle fill="#AEBDC4" cx="119.6" cy="108.75" r="1.85"/>
	</g>
	<g>
		<circle fill="#AEBDC4" cx="11.41" cy="102.82" r="1.85"/>
		<circle fill="#AEBDC4" cx="15.73" cy="102.82" r="1.85"/>
		<circle fill="#AEBDC4" cx="20.05" cy="102.82" r="1.85"/>
		<circle fill="#AEBDC4" cx="24.37" cy="102.82" r="1.85"/>
		<circle fill="#AEBDC4" cx="28.69" cy="102.82" r="1.85"/>
		<circle fill="#AEBDC4" cx="33.01" cy="102.82" r="1.85"/>
		<circle fill="#AEBDC4" cx="37.33" cy="102.82" r="1.85"/>
		<circle fill="#AEBDC4" cx="41.65" cy="102.82" r="1.85"/>
		<circle fill="#AEBDC4" cx="45.98" cy="102.82" r="1.85"/>
		<circle fill="#AEBDC4" cx="50.31" cy="102.82" r="1.85"/>
		<circle fill="#AEBDC4" cx="54.64" cy="102.82" r="1.85"/>
		<circle fill="#AEBDC4" cx="58.97" cy="102.82" r="1.85"/>
		<circle fill="#AEBDC4" cx="63.3" cy="102.82" r="1.85"/>
		<circle fill="#AEBDC4" cx="67.63" cy="102.82" r="1.85"/>
		<circle fill="#AEBDC4" cx="71.96" cy="102.82" r="1.85"/>
		<circle fill="#AEBDC4" cx="76.29" cy="102.82" r="1.85"/>
		<circle fill="#AEBDC4" cx="80.62" cy="102.82" r="1.85"/>
		<circle fill="#AEBDC4" cx="84.95" cy="102.82" r="1.85"/>
		<circle fill="#AEBDC4" cx="89.28" cy="102.82" r="1.85"/>
		<circle fill="#AEBDC4" cx="93.61" cy="102.82" r="1.85"/>
		<circle fill="#AEBDC4" cx="97.94" cy="102.82" r="1.85"/>
		<circle fill="#AEBDC4" cx="102.27" cy="102.82" r="1.85"/>
		<circle fill="#AEBDC4" cx="106.61" cy="102.82" r="1.85"/>
		<circle fill="#AEBDC4" cx="110.94" cy="102.82" r="1.85"/>
		<circle fill="#AEBDC4" cx="115.27" cy="102.82" r="1.85"/>
		<circle fill="#AEBDC4" cx="119.6" cy="102.82" r="1.85"/>
	</g>
	<g>
		<circle fill="#AEBDC4" cx="11.41" cy="96.89" r="1.85"/>
		<circle fill="#AEBDC4" cx="15.73" cy="96.89" r="1.85"/>
		<circle fill="#AEBDC4" cx="20.05" cy="96.89" r="1.85"/>
		<circle fill="#AEBDC4" cx="24.37" cy="96.89" r="1.85"/>
		<circle fill="#AEBDC4" cx="28.69" cy="96.89" r="1.85"/>
		<circle fill="#AEBDC4" cx="33.01" cy="96.89" r="1.85"/>
		<circle fill="#AEBDC4" cx="37.33" cy="96.89" r="1.85"/>
		<circle fill="#AEBDC4" cx="41.65" cy="96.89" r="1.85"/>
		<circle fill="#AEBDC4" cx="45.98" cy="96.89" r="1.85"/>
		<circle fill="#AEBDC4" cx="50.31" cy="96.89" r="1.85"/>
		<circle fill="#AEBDC4" cx="54.64" cy="96.89" r="1.85"/>
		<circle fill="#AEBDC4" cx="58.97" cy="96.89" r="1.85"/>
		<circle fill="#AEBDC4" cx="63.3" cy="96.89" r="1.85"/>
		<circle fill="#AEBDC4" cx="67.63" cy="96.89" r="1.85"/>
		<circle fill="#AEBDC4" cx="71.96" cy="96.89" r="1.85"/>
		<circle fill="#AEBDC4" cx="76.29" cy="96.89" r="1.85"/>
		<circle fill="#AEBDC4" cx="80.62" cy="96.89" r="1.85"/>
		<circle fill="#AEBDC4" cx="84.95" cy="96.89" r="1.85"/>
		<circle fill="#AEBDC4" cx="89.28" cy="96.89" r="1.85"/>
		<circle fill="#AEBDC4" cx="93.61" cy="96.89" r="1.85"/>
		<circle fill="#AEBDC4" cx="97.94" cy="96.89" r="1.85"/>
		<circle fill="#AEBDC4" cx="102.27" cy="96.89" r="1.85"/>
		<circle fill="#AEBDC4" cx="106.61" cy="96.89" r="1.85"/>
		<circle fill="#AEBDC4" cx="110.94" cy="96.89" r="1.85"/>
		<circle fill="#AEBDC4" cx="115.27" cy="96.89" r="1.85"/>
		<circle fill="#AEBDC4" cx="119.6" cy="96.89" r="1.85"/>
	</g>
	<g>
		<circle fill="#AEBDC4" cx="11.41" cy="90.95" r="1.85"/>
		<circle fill="#AEBDC4" cx="15.73" cy="90.95" r="1.85"/>
		<circle fill="#AEBDC4" cx="20.05" cy="90.95" r="1.85"/>
		<circle fill="#AEBDC4" cx="24.37" cy="90.95" r="1.85"/>
		<circle fill="#AEBDC4" cx="28.69" cy="90.95" r="1.85"/>
		<circle fill="#AEBDC4" cx="33.01" cy="90.95" r="1.85"/>
		<circle fill="#AEBDC4" cx="37.33" cy="90.95" r="1.85"/>
		<circle fill="#AEBDC4" cx="41.65" cy="90.95" r="1.85"/>
		<circle fill="#AEBDC4" cx="45.98" cy="90.95" r="1.85"/>
		<circle fill="#AEBDC4" cx="50.31" cy="90.95" r="1.85"/>
		<circle fill="#AEBDC4" cx="54.64" cy="90.95" r="1.85"/>
		<circle fill="#AEBDC4" cx="58.97" cy="90.95" r="1.85"/>
		<circle fill="#AEBDC4" cx="63.3" cy="90.95" r="1.85"/>
		<circle fill="#AEBDC4" cx="67.63" cy="90.95" r="1.85"/>
		<circle fill="#AEBDC4" cx="71.96" cy="90.95" r="1.85"/>
		<circle fill="#AEBDC4" cx="76.29" cy="90.95" r="1.85"/>
		<circle fill="#AEBDC4" cx="80.62" cy="90.95" r="1.85"/>
		<circle fill="#AEBDC4" cx="84.95" cy="90.95" r="1.85"/>
		<circle fill="#AEBDC4" cx="89.28" cy="90.95" r="1.85"/>
		<circle fill="#AEBDC4" cx="93.61" cy="90.95" r="1.85"/>
		<circle fill="#AEBDC4" cx="97.94" cy="90.95" r="1.85"/>
		<circle fill="#AEBDC4" cx="102.27" cy="90.95" r="1.85"/>
		<circle fill="#AEBDC4" cx="106.61" cy="90.95" r="1.85"/>
		<circle fill="#AEBDC4" cx="110.94" cy="90.95" r="1.85"/>
		<circle fill="#AEBDC4" cx="115.27" cy="90.95" r="1.85"/>
		<circle fill="#AEBDC4" cx="119.6" cy="90.95" r="1.85"/>
	</g>
	<g>
		<circle fill="#AEBDC4" cx="11.41" cy="85.02" r="1.85"/>
		<circle fill="#AEBDC4" cx="15.73" cy="85.02" r="1.85"/>
		<circle fill="#AEBDC4" cx="20.05" cy="85.02" r="1.85"/>
		<circle fill="#AEBDC4" cx="24.37" cy="85.02" r="1.85"/>
		<circle fill="#AEBDC4" cx="28.69" cy="85.02" r="1.85"/>
		<circle fill="#AEBDC4" cx="33.01" cy="85.02" r="1.85"/>
		<circle fill="#AEBDC4" cx="37.33" cy="85.02" r="1.85"/>
		<circle fill="#AEBDC4" cx="41.65" cy="85.02" r="1.85"/>
		<circle fill="#AEBDC4" cx="45.98" cy="85.02" r="1.85"/>
		<circle fill="#AEBDC4" cx="50.31" cy="85.02" r="1.85"/>
		<circle fill="#AEBDC4" cx="54.64" cy="85.02" r="1.85"/>
		<circle fill="#AEBDC4" cx="58.97" cy="85.02" r="1.85"/>
		<circle fill="#AEBDC4" cx="63.3" cy="85.02" r="1.85"/>
		<circle fill="#AEBDC4" cx="67.63" cy="85.02" r="1.85"/>
		<circle fill="#AEBDC4" cx="71.96" cy="85.02" r="1.85"/>
		<circle fill="#AEBDC4" cx="76.29" cy="85.02" r="1.85"/>
		<circle fill="#AEBDC4" cx="80.62" cy="85.02" r="1.85"/>
		<circle fill="#AEBDC4" cx="84.95" cy="85.02" r="1.85"/>
		<circle fill="#AEBDC4" cx="89.28" cy="85.02" r="1.85"/>
		<circle fill="#AEBDC4" cx="93.61" cy="85.02" r="1.85"/>
		<circle fill="#AEBDC4" cx="97.94" cy="85.02" r="1.85"/>
		<circle fill="#AEBDC4" cx="102.27" cy="85.02" r="1.85"/>
		<circle fill="#AEBDC4" cx="106.61" cy="85.02" r="1.85"/>
		<circle fill="#AEBDC4" cx="110.94" cy="85.02" r="1.85"/>
		<circle fill="#AEBDC4" cx="115.27" cy="85.02" r="1.85"/>
		<circle fill="#AEBDC4" cx="119.6" cy="85.02" r="1.85"/>
	</g>
	<g>
		<circle fill="#AEBDC4" cx="11.41" cy="79.09" r="1.85"/>
		<circle fill="#AEBDC4" cx="15.73" cy="79.09" r="1.85"/>
		<circle fill="#AEBDC4" cx="20.05" cy="79.09" r="1.85"/>
		<circle fill="#AEBDC4" cx="24.37" cy="79.09" r="1.85"/>
		<circle fill="#AEBDC4" cx="28.69" cy="79.09" r="1.85"/>
		<circle fill="#AEBDC4" cx="33.01" cy="79.09" r="1.85"/>
		<circle fill="#AEBDC4" cx="37.33" cy="79.09" r="1.85"/>
		<circle fill="#AEBDC4" cx="41.65" cy="79.09" r="1.85"/>
		<circle fill="#AEBDC4" cx="45.98" cy="79.09" r="1.85"/>
		<circle fill="#AEBDC4" cx="50.31" cy="79.09" r="1.85"/>
		<circle fill="#AEBDC4" cx="54.64" cy="79.09" r="1.85"/>
		<circle fill="#AEBDC4" cx="58.97" cy="79.09" r="1.85"/>
		<circle fill="#AEBDC4" cx="63.3" cy="79.09" r="1.85"/>
		<circle fill="#AEBDC4" cx="67.63" cy="79.09" r="1.85"/>
		<circle fill="#AEBDC4" cx="71.96" cy="79.09" r="1.85"/>
		<circle fill="#AEBDC4" cx="76.29" cy="79.09" r="1.85"/>
		<circle fill="#AEBDC4" cx="80.62" cy="79.09" r="1.85"/>
		<circle fill="#AEBDC4" cx="84.95" cy="79.09" r="1.85"/>
		<circle fill="#AEBDC4" cx="89.28" cy="79.09" r="1.85"/>
		<circle fill="#AEBDC4" cx="93.61" cy="79.09" r="1.85"/>
		<circle fill="#AEBDC4" cx="97.94" cy="79.09" r="1.85"/>
		<circle fill="#AEBDC4" cx="102.27" cy="79.09" r="1.85"/>
		<circle fill="#AEBDC4" cx="106.61" cy="79.09" r="1.85"/>
		<circle fill="#AEBDC4" cx="110.94" cy="79.09" r="1.85"/>
		<circle fill="#AEBDC4" cx="115.27" cy="79.09" r="1.85"/>
		<circle fill="#AEBDC4" cx="119.6" cy="79.09" r="1.85"/>
	</g>
	<g>
		<circle fill="#AEBDC4" cx="11.41" cy="73.16" r="1.85"/>
		<circle fill="#AEBDC4" cx="15.73" cy="73.16" r="1.85"/>
		<circle fill="#AEBDC4" cx="20.05" cy="73.16" r="1.85"/>
		<circle fill="#AEBDC4" cx="24.37" cy="73.16" r="1.85"/>
		<circle fill="#AEBDC4" cx="28.69" cy="73.16" r="1.85"/>
		<circle fill="#AEBDC4" cx="33.01" cy="73.16" r="1.85"/>
		<circle fill="#AEBDC4" cx="37.33" cy="73.16" r="1.85"/>
		<circle fill="#AEBDC4" cx="41.65" cy="73.16" r="1.85"/>
		<circle fill="#AEBDC4" cx="45.98" cy="73.16" r="1.85"/>
		<circle fill="#AEBDC4" cx="50.31" cy="73.16" r="1.85"/>
		<circle fill="#AEBDC4" cx="54.64" cy="73.16" r="1.85"/>
		<circle fill="#AEBDC4" cx="58.97" cy="73.16" r="1.85"/>
		<circle fill="#AEBDC4" cx="63.3" cy="73.16" r="1.85"/>
		<circle fill="#AEBDC4" cx="67.63" cy="73.16" r="1.85"/>
		<circle fill="#AEBDC4" cx="71.96" cy="73.16" r="1.85"/>
		<circle fill="#AEBDC4" cx="76.29" cy="73.16" r="1.85"/>
		<circle fill="#AEBDC4" cx="80.62" cy="73.16" r="1.85"/>
		<circle fill="#AEBDC4" cx="84.95" cy="73.16" r="1.85"/>
		<circle fill="#AEBDC4" cx="89.28" cy="73.16" r="1.85"/>
		<circle fill="#AEBDC4" cx="93.61" cy="73.16" r="1.85"/>
		<circle fill="#AEBDC4" cx="97.94" cy="73.16" r="1.85"/>
		<circle fill="#AEBDC4" cx="102.27" cy="73.16" r="1.85"/>
		<circle fill="#AEBDC4" cx="106.61" cy="73.16" r="1.85"/>
		<circle fill="#AEBDC4" cx="110.94" cy="73.16" r="1.85"/>
		<circle fill="#AEBDC4" cx="115.27" cy="73.16" r="1.85"/>
		<circle fill="#AEBDC4" cx="119.6" cy="73.16" r="1.85"/>
	</g>
	<g>
		<circle fill="#AEBDC4" cx="11.41" cy="67.23" r="1.85"/>
		<circle fill="#AEBDC4" cx="15.73" cy="67.23" r="1.85"/>
		<circle fill="#AEBDC4" cx="20.05" cy="67.23" r="1.85"/>
		<circle fill="#AEBDC4" cx="24.37" cy="67.23" r="1.85"/>
		<circle fill="#AEBDC4" cx="28.69" cy="67.23" r="1.85"/>
		<circle fill="#AEBDC4" cx="33.01" cy="67.23" r="1.85"/>
		<circle fill="#AEBDC4" cx="37.33" cy="67.23" r="1.85"/>
		<circle fill="#AEBDC4" cx="41.65" cy="67.23" r="1.85"/>
		<circle fill="#AEBDC4" cx="45.98" cy="67.23" r="1.85"/>
		<circle fill="#AEBDC4" cx="50.31" cy="67.23" r="1.85"/>
		<circle fill="#AEBDC4" cx="54.64" cy="67.23" r="1.85"/>
		<circle fill="#AEBDC4" cx="58.97" cy="67.23" r="1.85"/>
		<circle fill="#AEBDC4" cx="63.3" cy="67.23" r="1.85"/>
		<circle fill="#AEBDC4" cx="67.63" cy="67.23" r="1.85"/>
		<circle fill="#AEBDC4" cx="71.96" cy="67.23" r="1.85"/>
		<circle fill="#AEBDC4" cx="76.29" cy="67.23" r="1.85"/>
		<circle fill="#AEBDC4" cx="80.62" cy="67.23" r="1.85"/>
		<circle fill="#AEBDC4" cx="84.95" cy="67.23" r="1.85"/>
		<circle fill="#AEBDC4" cx="89.28" cy="67.23" r="1.85"/>
		<circle fill="#AEBDC4" cx="93.61" cy="67.23" r="1.85"/>
		<circle fill="#AEBDC4" cx="97.94" cy="67.23" r="1.85"/>
		<circle fill="#AEBDC4" cx="102.27" cy="67.23" r="1.85"/>
		<circle fill="#AEBDC4" cx="106.61" cy="67.23" r="1.85"/>
		<circle fill="#AEBDC4" cx="110.94" cy="67.23" r="1.85"/>
		<circle fill="#AEBDC4" cx="115.27" cy="67.23" r="1.85"/>
		<circle fill="#AEBDC4" cx="119.6" cy="67.23" r="1.85"/>
	</g>
	<g>
		<circle fill="#AEBDC4" cx="11.41" cy="61.3" r="1.85"/>
		<circle fill="#AEBDC4" cx="15.73" cy="61.3" r="1.85"/>
		<circle fill="#AEBDC4" cx="20.05" cy="61.3" r="1.85"/>
		<circle fill="#AEBDC4" cx="24.37" cy="61.3" r="1.85"/>
		<circle fill="#AEBDC4" cx="28.69" cy="61.3" r="1.85"/>
		<circle fill="#AEBDC4" cx="33.01" cy="61.3" r="1.85"/>
		<circle fill="#AEBDC4" cx="37.33" cy="61.3" r="1.85"/>
		<circle fill="#AEBDC4" cx="41.65" cy="61.3" r="1.85"/>
		<circle fill="#AEBDC4" cx="45.98" cy="61.3" r="1.85"/>
		<circle fill="#AEBDC4" cx="50.31" cy="61.3" r="1.85"/>
		<circle fill="#AEBDC4" cx="54.64" cy="61.3" r="1.85"/>
		<circle fill="#AEBDC4" cx="58.97" cy="61.3" r="1.85"/>
		<circle fill="#AEBDC4" cx="63.3" cy="61.3" r="1.85"/>
		<circle fill="#AEBDC4" cx="67.63" cy="61.3" r="1.85"/>
		<circle fill="#AEBDC4" cx="71.96" cy="61.3" r="1.85"/>
		<circle fill="#AEBDC4" cx="76.29" cy="61.3" r="1.85"/>
		<circle fill="#AEBDC4" cx="80.62" cy="61.3" r="1.85"/>
		<circle fill="#AEBDC4" cx="84.95" cy="61.3" r="1.85"/>
		<circle fill="#AEBDC4" cx="89.28" cy="61.3" r="1.85"/>
		<circle fill="#AEBDC4" cx="93.61" cy="61.3" r="1.85"/>
		<circle fill="#AEBDC4" cx="97.94" cy="61.3" r="1.85"/>
		<circle fill="#AEBDC4" cx="102.27" cy="61.3" r="1.85"/>
		<circle fill="#AEBDC4" cx="106.61" cy="61.3" r="1.85"/>
		<circle fill="#AEBDC4" cx="110.94" cy="61.3" r="1.85"/>
		<circle fill="#AEBDC4" cx="115.27" cy="61.3" r="1.85"/>
		<circle fill="#AEBDC4" cx="119.6" cy="61.3" r="1.85"/>
	</g>
	<g>
		<circle fill="#AEBDC4" cx="11.41" cy="55.37" r="1.85"/>
		<circle fill="#AEBDC4" cx="15.73" cy="55.37" r="1.85"/>
		<circle fill="#AEBDC4" cx="20.05" cy="55.37" r="1.85"/>
		<circle fill="#AEBDC4" cx="24.37" cy="55.37" r="1.85"/>
		<circle fill="#AEBDC4" cx="28.69" cy="55.37" r="1.85"/>
		<circle fill="#AEBDC4" cx="33.01" cy="55.37" r="1.85"/>
		<circle fill="#AEBDC4" cx="37.33" cy="55.37" r="1.85"/>
		<circle fill="#AEBDC4" cx="41.65" cy="55.37" r="1.85"/>
		<circle fill="#AEBDC4" cx="45.98" cy="55.37" r="1.85"/>
		<circle fill="#AEBDC4" cx="50.31" cy="55.37" r="1.85"/>
		<circle fill="#AEBDC4" cx="54.64" cy="55.37" r="1.85"/>
		<circle fill="#AEBDC4" cx="58.97" cy="55.37" r="1.85"/>
		<circle fill="#AEBDC4" cx="63.3" cy="55.37" r="1.85"/>
		<circle fill="#AEBDC4" cx="67.63" cy="55.37" r="1.85"/>
		<circle fill="#AEBDC4" cx="71.96" cy="55.37" r="1.85"/>
		<circle fill="#AEBDC4" cx="76.29" cy="55.37" r="1.85"/>
		<circle fill="#AEBDC4" cx="80.62" cy="55.37" r="1.85"/>
		<circle fill="#AEBDC4" cx="84.95" cy="55.37" r="1.85"/>
		<circle fill="#AEBDC4" cx="89.28" cy="55.37" r="1.85"/>
		<circle fill="#AEBDC4" cx="93.61" cy="55.37" r="1.85"/>
		<circle fill="#AEBDC4" cx="97.94" cy="55.37" r="1.85"/>
		<circle fill="#AEBDC4" cx="102.27" cy="55.37" r="1.85"/>
		<circle fill="#AEBDC4" cx="106.61" cy="55.37" r="1.85"/>
		<circle fill="#AEBDC4" cx="110.94" cy="55.37" r="1.85"/>
		<circle fill="#AEBDC4" cx="115.27" cy="55.37" r="1.85"/>
		<circle fill="#AEBDC4" cx="119.6" cy="55.37" r="1.85"/>
	</g>
	<g>
		<circle fill="#AEBDC4" cx="11.41" cy="49.44" r="1.85"/>
		<circle fill="#AEBDC4" cx="15.73" cy="49.44" r="1.85"/>
		<circle fill="#AEBDC4" cx="20.05" cy="49.44" r="1.85"/>
		<circle fill="#AEBDC4" cx="24.37" cy="49.44" r="1.85"/>
		<circle fill="#AEBDC4" cx="28.69" cy="49.44" r="1.85"/>
		<circle fill="#AEBDC4" cx="33.01" cy="49.44" r="1.85"/>
		<circle fill="#AEBDC4" cx="37.33" cy="49.44" r="1.85"/>
		<circle fill="#AEBDC4" cx="41.65" cy="49.44" r="1.85"/>
		<circle fill="#AEBDC4" cx="45.98" cy="49.44" r="1.85"/>
		<circle fill="#AEBDC4" cx="50.31" cy="49.44" r="1.85"/>
		<circle fill="#AEBDC4" cx="54.64" cy="49.44" r="1.85"/>
		<circle fill="#AEBDC4" cx="58.97" cy="49.44" r="1.85"/>
		<circle fill="#AEBDC4" cx="63.3" cy="49.44" r="1.85"/>
		<circle fill="#AEBDC4" cx="67.63" cy="49.44" r="1.85"/>
		<circle fill="#AEBDC4" cx="71.96" cy="49.44" r="1.85"/>
		<circle fill="#AEBDC4" cx="76.29" cy="49.44" r="1.85"/>
		<circle fill="#AEBDC4" cx="80.62" cy="49.44" r="1.85"/>
		<circle fill="#AEBDC4" cx="84.95" cy="49.44" r="1.85"/>
		<circle fill="#AEBDC4" cx="89.28" cy="49.44" r="1.85"/>
		<circle fill="#AEBDC4" cx="93.61" cy="49.44" r="1.85"/>
		<circle fill="#AEBDC4" cx="97.94" cy="49.44" r="1.85"/>
		<circle fill="#AEBDC4" cx="102.27" cy="49.44" r="1.85"/>
		<circle fill="#AEBDC4" cx="106.61" cy="49.44" r="1.85"/>
		<circle fill="#AEBDC4" cx="110.94" cy="49.44" r="1.85"/>
		<circle fill="#AEBDC4" cx="115.27" cy="49.44" r="1.85"/>
		<circle fill="#AEBDC4" cx="119.6" cy="49.44" r="1.85"/>
	</g>
	<g>
		<circle fill="#AEBDC4" cx="11.41" cy="43.51" r="1.85"/>
		<circle fill="#AEBDC4" cx="15.73" cy="43.51" r="1.85"/>
		<circle fill="#AEBDC4" cx="20.05" cy="43.51" r="1.85"/>
		<circle fill="#AEBDC4" cx="24.37" cy="43.51" r="1.85"/>
		<circle fill="#AEBDC4" cx="28.69" cy="43.51" r="1.85"/>
		<circle fill="#AEBDC4" cx="33.01" cy="43.51" r="1.85"/>
		<circle fill="#AEBDC4" cx="37.33" cy="43.51" r="1.85"/>
		<circle fill="#AEBDC4" cx="41.65" cy="43.51" r="1.85"/>
		<circle fill="#AEBDC4" cx="45.98" cy="43.51" r="1.85"/>
		<circle fill="#AEBDC4" cx="50.31" cy="43.51" r="1.85"/>
		<circle fill="#AEBDC4" cx="54.64" cy="43.51" r="1.85"/>
		<circle fill="#AEBDC4" cx="58.97" cy="43.51" r="1.85"/>
		<circle fill="#AEBDC4" cx="63.3" cy="43.51" r="1.85"/>
		<circle fill="#AEBDC4" cx="67.63" cy="43.51" r="1.85"/>
		<circle fill="#AEBDC4" cx="71.96" cy="43.51" r="1.85"/>
		<circle fill="#AEBDC4" cx="76.29" cy="43.51" r="1.85"/>
		<circle fill="#AEBDC4" cx="80.62" cy="43.51" r="1.85"/>
		<circle fill="#AEBDC4" cx="84.95" cy="43.51" r="1.85"/>
		<circle fill="#AEBDC4" cx="89.28" cy="43.51" r="1.85"/>
		<circle fill="#AEBDC4" cx="93.61" cy="43.51" r="1.85"/>
		<circle fill="#AEBDC4" cx="97.94" cy="43.51" r="1.85"/>
		<circle fill="#AEBDC4" cx="102.27" cy="43.51" r="1.85"/>
		<circle fill="#AEBDC4" cx="106.61" cy="43.51" r="1.85"/>
		<circle fill="#AEBDC4" cx="110.94" cy="43.51" r="1.85"/>
		<circle fill="#AEBDC4" cx="115.27" cy="43.51" r="1.85"/>
		<circle fill="#AEBDC4" cx="119.6" cy="43.51" r="1.85"/>
	</g>
	<g>
		<circle fill="#AEBDC4" cx="11.41" cy="37.58" r="1.85"/>
		<circle fill="#AEBDC4" cx="15.73" cy="37.58" r="1.85"/>
		<circle fill="#AEBDC4" cx="20.05" cy="37.58" r="1.85"/>
		<circle fill="#AEBDC4" cx="24.37" cy="37.58" r="1.85"/>
		<circle fill="#AEBDC4" cx="28.69" cy="37.58" r="1.85"/>
		<circle fill="#AEBDC4" cx="33.01" cy="37.58" r="1.85"/>
		<circle fill="#AEBDC4" cx="37.33" cy="37.58" r="1.85"/>
		<circle fill="#AEBDC4" cx="41.65" cy="37.58" r="1.85"/>
		<circle fill="#AEBDC4" cx="45.98" cy="37.58" r="1.85"/>
		<circle fill="#AEBDC4" cx="50.31" cy="37.58" r="1.85"/>
		<circle fill="#AEBDC4" cx="54.64" cy="37.58" r="1.85"/>
		<circle fill="#AEBDC4" cx="58.97" cy="37.58" r="1.85"/>
		<circle fill="#AEBDC4" cx="63.3" cy="37.58" r="1.85"/>
		<circle fill="#AEBDC4" cx="67.63" cy="37.58" r="1.85"/>
		<circle fill="#AEBDC4" cx="71.96" cy="37.58" r="1.85"/>
		<circle fill="#AEBDC4" cx="76.29" cy="37.58" r="1.85"/>
		<circle fill="#AEBDC4" cx="80.62" cy="37.58" r="1.85"/>
		<circle fill="#AEBDC4" cx="84.95" cy="37.58" r="1.85"/>
		<circle fill="#AEBDC4" cx="89.28" cy="37.58" r="1.85"/>
		<circle fill="#AEBDC4" cx="93.61" cy="37.58" r="1.85"/>
		<circle fill="#AEBDC4" cx="97.94" cy="37.58" r="1.85"/>
		<circle fill="#AEBDC4" cx="102.27" cy="37.58" r="1.85"/>
		<circle fill="#AEBDC4" cx="106.61" cy="37.58" r="1.85"/>
		<circle fill="#AEBDC4" cx="110.94" cy="37.58" r="1.85"/>
		<circle fill="#AEBDC4" cx="115.27" cy="37.58" r="1.85"/>
		<circle fill="#AEBDC4" cx="119.6" cy="37.58" r="1.85"/>
	</g>
	<g>
		<circle fill="#AEBDC4" cx="89.35" cy="31.65" r="1.85"/>
		<circle fill="#AEBDC4" cx="93.67" cy="31.65" r="1.85"/>
		<circle fill="#AEBDC4" cx="97.99" cy="31.65" r="1.85"/>
		<circle fill="#AEBDC4" cx="102.31" cy="31.65" r="1.85"/>
		<circle fill="#AEBDC4" cx="106.63" cy="31.65" r="1.85"/>
		<circle fill="#AEBDC4" cx="110.96" cy="31.65" r="1.85"/>
		<circle fill="#AEBDC4" cx="115.28" cy="31.65" r="1.85"/>
		<circle fill="#AEBDC4" cx="119.6" cy="31.65" r="1.85"/>
	</g>
	<g>
		<circle fill="#AEBDC4" cx="89.35" cy="25.72" r="1.85"/>
		<circle fill="#AEBDC4" cx="93.67" cy="25.72" r="1.85"/>
		<circle fill="#AEBDC4" cx="97.99" cy="25.72" r="1.85"/>
		<circle fill="#AEBDC4" cx="102.31" cy="25.72" r="1.85"/>
		<circle fill="#AEBDC4" cx="106.63" cy="25.72" r="1.85"/>
		<circle fill="#AEBDC4" cx="110.96" cy="25.72" r="1.85"/>
		<circle fill="#AEBDC4" cx="115.28" cy="25.72" r="1.85"/>
		<circle fill="#AEBDC4" cx="119.6" cy="25.72" r="1.85"/>
	</g>
	<g>
		<circle fill="#AEBDC4" cx="11.41" cy="19.79" r="1.85"/>
		<circle fill="#AEBDC4" cx="15.73" cy="19.79" r="1.85"/>
		<circle fill="#AEBDC4" cx="20.05" cy="19.79" r="1.85"/>
		<circle fill="#AEBDC4" cx="24.37" cy="19.79" r="1.85"/>
		<circle fill="#AEBDC4" cx="28.69" cy="19.79" r="1.85"/>
		<circle fill="#AEBDC4" cx="33.01" cy="19.79" r="1.85"/>
		<circle fill="#AEBDC4" cx="37.33" cy="19.79" r="1.85"/>
		<circle fill="#AEBDC4" cx="41.65" cy="19.79" r="1.85"/>
		<circle fill="#AEBDC4" cx="45.98" cy="19.79" r="1.85"/>
		<circle fill="#AEBDC4" cx="50.31" cy="19.79" r="1.85"/>
		<circle fill="#AEBDC4" cx="54.64" cy="19.79" r="1.85"/>
		<circle fill="#AEBDC4" cx="58.97" cy="19.79" r="1.85"/>
		<circle fill="#AEBDC4" cx="63.3" cy="19.79" r="1.85"/>
		<circle fill="#AEBDC4" cx="67.63" cy="19.79" r="1.85"/>
		<circle fill="#AEBDC4" cx="71.96" cy="19.79" r="1.85"/>
		<circle fill="#AEBDC4" cx="76.29" cy="19.79" r="1.85"/>
		<circle fill="#AEBDC4" cx="80.62" cy="19.79" r="1.85"/>
		<circle fill="#AEBDC4" cx="84.95" cy="19.79" r="1.85"/>
		<circle fill="#AEBDC4" cx="89.28" cy="19.79" r="1.85"/>
		<circle fill="#AEBDC4" cx="93.61" cy="19.79" r="1.85"/>
	</g>
</g>
</svg>
