<?xml version="1.0" encoding="utf-8"?>
<!-- Generator: Adobe Illustrator 23.0.1, SVG Export Plug-In . SVG Version: 6.00 Build 0)  -->
<svg version="1.1" id="Layer_1" xmlns="http://www.w3.org/2000/svg" xmlns:xlink="http://www.w3.org/1999/xlink" x="0px" y="0px"
  viewBox="0 0 131 61" enable-background="new 0 0 131 61" xml:space="preserve">
  <polygon fill="#F1F3F4" stroke="#BCC8CE" stroke-width="0.4" stroke-linecap="round" stroke-miterlimit="10" points="
    86.42,60.31 86.42,27.46 44.58,27.46 44.58,60.31 0.53,60.31 0.53,0.69 130.47,0.69 130.47,60.31 	"/>
    <g 
      data-sort-seat-direction="ltr" 
      data-sort-line-direction="btt" 
      data-sort-seat-option="cx" 
      data-sort-line-option="cy" 
      data-line-start="1"
      >
      <g>
        <circle fill="#AEBDC4" cx="97.98" cy="51.26" r="1.85"/>
        <circle fill="#AEBDC4" cx="102.3" cy="51.26" r="1.85"/>
        <circle fill="#AEBDC4" cx="106.62" cy="51.26" r="1.85"/>
        <circle fill="#AEBDC4" cx="110.94" cy="51.26" r="1.85"/>
        <circle fill="#AEBDC4" cx="115.26" cy="51.26" r="1.85"/>
        <circle fill="#AEBDC4" cx="15.74" cy="51.26" r="1.85"/>
        <circle fill="#AEBDC4" cx="20.06" cy="51.26" r="1.85"/>
        <circle fill="#AEBDC4" cx="24.38" cy="51.26" r="1.85"/>
        <circle fill="#AEBDC4" cx="28.7" cy="51.26" r="1.85"/>
        <circle fill="#AEBDC4" cx="33.02" cy="51.26" r="1.85"/>
      </g>
      <g>
        <circle fill="#AEBDC4" cx="97.98" cy="45.33" r="1.85"/>
        <circle fill="#AEBDC4" cx="102.3" cy="45.33" r="1.85"/>
        <circle fill="#AEBDC4" cx="106.62" cy="45.33" r="1.85"/>
        <circle fill="#AEBDC4" cx="110.94" cy="45.33" r="1.85"/>
        <circle fill="#AEBDC4" cx="115.26" cy="45.33" r="1.85"/>
        <circle fill="#AEBDC4" cx="15.74" cy="45.33" r="1.85"/>
        <circle fill="#AEBDC4" cx="20.06" cy="45.33" r="1.85"/>
        <circle fill="#AEBDC4" cx="24.38" cy="45.33" r="1.85"/>
        <circle fill="#AEBDC4" cx="28.7" cy="45.33" r="1.85"/>
        <circle fill="#AEBDC4" cx="33.02" cy="45.33" r="1.85"/>
      </g>
      <g>
        <circle fill="#AEBDC4" cx="97.98" cy="39.4" r="1.85"/>
        <circle fill="#AEBDC4" cx="102.3" cy="39.4" r="1.85"/>
        <circle fill="#AEBDC4" cx="106.62" cy="39.4" r="1.85"/>
        <circle fill="#AEBDC4" cx="110.94" cy="39.4" r="1.85"/>
        <circle fill="#AEBDC4" cx="115.26" cy="39.4" r="1.85"/>
        <circle fill="#AEBDC4" cx="15.74" cy="39.4" r="1.85"/>
        <circle fill="#AEBDC4" cx="20.06" cy="39.4" r="1.85"/>
        <circle fill="#AEBDC4" cx="24.38" cy="39.4" r="1.85"/>
        <circle fill="#AEBDC4" cx="28.7" cy="39.4" r="1.85"/>
        <circle fill="#AEBDC4" cx="33.02" cy="39.4" r="1.85"/>
      </g>
      <g>
        <circle fill="#AEBDC4" cx="97.98" cy="33.46" r="1.85"/>
        <circle fill="#AEBDC4" cx="102.3" cy="33.46" r="1.85"/>
        <circle fill="#AEBDC4" cx="106.62" cy="33.46" r="1.85"/>
        <circle fill="#AEBDC4" cx="110.94" cy="33.46" r="1.85"/>
        <circle fill="#AEBDC4" cx="115.26" cy="33.46" r="1.85"/>
        <circle fill="#AEBDC4" cx="15.74" cy="33.46" r="1.85"/>
        <circle fill="#AEBDC4" cx="20.06" cy="33.46" r="1.85"/>
        <circle fill="#AEBDC4" cx="24.38" cy="33.46" r="1.85"/>
        <circle fill="#AEBDC4" cx="28.7" cy="33.46" r="1.85"/>
        <circle fill="#AEBDC4" cx="33.02" cy="33.46" r="1.85"/>
      </g>
      <g>
        <circle fill="#AEBDC4" cx="97.98" cy="27.53" r="1.85"/>
        <circle fill="#AEBDC4" cx="102.3" cy="27.53" r="1.85"/>
        <circle fill="#AEBDC4" cx="106.62" cy="27.53" r="1.85"/>
        <circle fill="#AEBDC4" cx="110.94" cy="27.53" r="1.85"/>
        <circle fill="#AEBDC4" cx="115.26" cy="27.53" r="1.85"/>
        <circle fill="#AEBDC4" cx="15.74" cy="27.53" r="1.85"/>
        <circle fill="#AEBDC4" cx="20.06" cy="27.53" r="1.85"/>
        <circle fill="#AEBDC4" cx="24.38" cy="27.53" r="1.85"/>
        <circle fill="#AEBDC4" cx="28.7" cy="27.53" r="1.85"/>
        <circle fill="#AEBDC4" cx="33.02" cy="27.53" r="1.85"/>
      </g>
      <g>
        <circle fill="#AEBDC4" cx="97.98" cy="21.6" r="1.85"/>
        <circle fill="#AEBDC4" cx="102.3" cy="21.6" r="1.85"/>
        <circle fill="#AEBDC4" cx="106.62" cy="21.6" r="1.85"/>
        <circle fill="#AEBDC4" cx="110.94" cy="21.6" r="1.85"/>
        <circle fill="#AEBDC4" cx="115.26" cy="21.6" r="1.85"/>
        <circle fill="#AEBDC4" cx="15.74" cy="21.6" r="1.85"/>
        <circle fill="#AEBDC4" cx="20.06" cy="21.6" r="1.85"/>
        <circle fill="#AEBDC4" cx="24.38" cy="21.6" r="1.85"/>
        <circle fill="#AEBDC4" cx="28.7" cy="21.6" r="1.85"/>
        <circle fill="#AEBDC4" cx="33.02" cy="21.6" r="1.85"/>
      </g>
      <g>
        <circle fill="#AEBDC4" cx="97.98" cy="15.67" r="1.85"/>
        <circle fill="#AEBDC4" cx="102.3" cy="15.67" r="1.85"/>
        <circle fill="#AEBDC4" cx="106.62" cy="15.67" r="1.85"/>
        <circle fill="#AEBDC4" cx="110.94" cy="15.67" r="1.85"/>
        <circle fill="#AEBDC4" cx="115.26" cy="15.67" r="1.85"/>
        <circle fill="#AEBDC4" cx="15.74" cy="15.67" r="1.85"/>
        <circle fill="#AEBDC4" cx="20.06" cy="15.67" r="1.85"/>
        <circle fill="#AEBDC4" cx="24.38" cy="15.67" r="1.85"/>
        <circle fill="#AEBDC4" cx="28.7" cy="15.67" r="1.85"/>
        <circle fill="#AEBDC4" cx="33.02" cy="15.67" r="1.85"/>
      </g>
      <g>
        <circle fill="#AEBDC4" cx="15.74" cy="9.74" r="1.85"/>
        <circle fill="#AEBDC4" cx="20.06" cy="9.74" r="1.85"/>
        <circle fill="#AEBDC4" cx="24.38" cy="9.74" r="1.85"/>
        <circle fill="#AEBDC4" cx="28.7" cy="9.74" r="1.85"/>
        <circle fill="#AEBDC4" cx="33.02" cy="9.74" r="1.85"/>
        <circle fill="#AEBDC4" cx="37.34" cy="9.74" r="1.85"/>
        <circle fill="#AEBDC4" cx="41.66" cy="9.74" r="1.85"/>
        <circle fill="#AEBDC4" cx="45.98" cy="9.74" r="1.85"/>
        <circle fill="#AEBDC4" cx="50.3" cy="9.74" r="1.85"/>
        <circle fill="#AEBDC4" cx="54.64" cy="9.74" r="1.85"/>
        <circle fill="#AEBDC4" cx="58.97" cy="9.74" r="1.85"/>
        <circle fill="#AEBDC4" cx="63.3" cy="9.74" r="1.85"/>
        <circle fill="#AEBDC4" cx="67.63" cy="9.74" r="1.85"/>
        <circle fill="#AEBDC4" cx="71.96" cy="9.74" r="1.85"/>
        <circle fill="#AEBDC4" cx="76.29" cy="9.74" r="1.85"/>
        <circle fill="#AEBDC4" cx="80.62" cy="9.74" r="1.85"/>
        <circle fill="#AEBDC4" cx="84.95" cy="9.74" r="1.85"/>
        <circle fill="#AEBDC4" cx="89.28" cy="9.74" r="1.85"/>
        <circle fill="#AEBDC4" cx="93.61" cy="9.74" r="1.85"/>
        <circle fill="#AEBDC4" cx="97.94" cy="9.74" r="1.85"/>
        <circle fill="#AEBDC4" cx="102.27" cy="9.74" r="1.85"/>
        <circle fill="#AEBDC4" cx="106.6" cy="9.74" r="1.85"/>
        <circle fill="#AEBDC4" cx="110.93" cy="9.74" r="1.85"/>
        <circle fill="#AEBDC4" cx="115.26" cy="9.74" r="1.85"/>
      </g>
    </g>
  </svg>
