<?xml version="1.0" encoding="utf-8"?>
<!-- Generator: Adobe Illustrator 23.0.1, SVG Export Plug-In . SVG Version: 6.00 Build 0)  -->
<svg version="1.1" id="Layer_1" xmlns="http://www.w3.org/2000/svg" xmlns:xlink="http://www.w3.org/1999/xlink" x="0px" y="0px"
	 viewBox="0 0 131 61" style="enable-background:new 0 0 131 61;" xml:space="preserve">
<style type="text/css">
	.st0{fill:#F1F3F4;stroke:#BCC8CE;stroke-width:0.4;stroke-linecap:round;stroke-miterlimit:10;}
	.st1{fill:#AEBDC4;}
	.st2{font-family:'Roboto-Medium';}
	.st3{font-size:3px;}
</style>
<polygon class="st0" points="86.4,60.3 86.4,27.5 44.6,27.5 44.6,60.3 0.5,60.3 0.5,0.7 130.5,0.7 130.5,60.3 "/>
<g 
  data-sort-seat-direction="ltr" 
  data-sort-line-direction="btt" 
  data-sort-seat-option="cx" 
  data-sort-line-option="cy" 
  data-line-start="1"
  >
	<g>
		<circle class="st1" cx="98" cy="51.3" r="1.8"/>
		<circle class="st1" cx="102.3" cy="51.3" r="1.8"/>
		<circle class="st1" cx="106.6" cy="51.3" r="1.8"/>
		<circle class="st1" cx="110.9" cy="51.3" r="1.8"/>
		<circle class="st1" cx="115.3" cy="51.3" r="1.8"/>
		<circle class="st1" cx="15.7" cy="51.3" r="1.8"/>
		<circle class="st1" cx="20.1" cy="51.3" r="1.8"/>
		<circle class="st1" cx="24.4" cy="51.3" r="1.8"/>
		<circle class="st1" cx="28.7" cy="51.3" r="1.8"/>
		<circle class="st1" cx="33" cy="51.3" r="1.8"/>
		<text transform="matrix(1 0 0 1 9.2408 52.3105)" class="st1 st2 st3">00</text>
		<text transform="matrix(1 0 0 1 118.361 52.3105)" class="st1 st2 st3">00</text>
	</g>
	<g>
		<circle class="st1" cx="98" cy="45.3" r="1.8"/>
		<circle class="st1" cx="102.3" cy="45.3" r="1.8"/>
		<circle class="st1" cx="106.6" cy="45.3" r="1.8"/>
		<circle class="st1" cx="110.9" cy="45.3" r="1.8"/>
		<circle class="st1" cx="115.3" cy="45.3" r="1.8"/>
		<circle class="st1" cx="15.7" cy="45.3" r="1.8"/>
		<circle class="st1" cx="20.1" cy="45.3" r="1.8"/>
		<circle class="st1" cx="24.4" cy="45.3" r="1.8"/>
		<circle class="st1" cx="28.7" cy="45.3" r="1.8"/>
		<circle class="st1" cx="33" cy="45.3" r="1.8"/>
		<text transform="matrix(1 0 0 1 9.2408 46.3805)" class="st1 st2 st3">00</text>
		<text transform="matrix(1 0 0 1 118.361 46.3805)" class="st1 st2 st3">00</text>
	</g>
	<g>
		<circle class="st1" cx="98" cy="39.4" r="1.8"/>
		<circle class="st1" cx="102.3" cy="39.4" r="1.8"/>
		<circle class="st1" cx="106.6" cy="39.4" r="1.8"/>
		<circle class="st1" cx="110.9" cy="39.4" r="1.8"/>
		<circle class="st1" cx="115.3" cy="39.4" r="1.8"/>
		<circle class="st1" cx="15.7" cy="39.4" r="1.8"/>
		<circle class="st1" cx="20.1" cy="39.4" r="1.8"/>
		<circle class="st1" cx="24.4" cy="39.4" r="1.8"/>
		<circle class="st1" cx="28.7" cy="39.4" r="1.8"/>
		<circle class="st1" cx="33" cy="39.4" r="1.8"/>
		<text transform="matrix(1 0 0 1 9.2408 40.4504)" class="st1 st2 st3">00</text>
		<text transform="matrix(1 0 0 1 118.361 40.4504)" class="st1 st2 st3">00</text>
	</g>
	<g>
		<circle class="st1" cx="98" cy="33.5" r="1.8"/>
		<circle class="st1" cx="102.3" cy="33.5" r="1.8"/>
		<circle class="st1" cx="106.6" cy="33.5" r="1.8"/>
		<circle class="st1" cx="110.9" cy="33.5" r="1.8"/>
		<circle class="st1" cx="115.3" cy="33.5" r="1.8"/>
		<circle class="st1" cx="15.7" cy="33.5" r="1.8"/>
		<circle class="st1" cx="20.1" cy="33.5" r="1.8"/>
		<circle class="st1" cx="24.4" cy="33.5" r="1.8"/>
		<circle class="st1" cx="28.7" cy="33.5" r="1.8"/>
		<circle class="st1" cx="33" cy="33.5" r="1.8"/>
		<text transform="matrix(1 0 0 1 9.2408 34.5104)" class="st1 st2 st3">00</text>
		<text transform="matrix(1 0 0 1 118.361 34.5104)" class="st1 st2 st3">00</text>
	</g>
	<g>
		<circle class="st1" cx="98" cy="27.5" r="1.8"/>
		<circle class="st1" cx="102.3" cy="27.5" r="1.8"/>
		<circle class="st1" cx="106.6" cy="27.5" r="1.8"/>
		<circle class="st1" cx="110.9" cy="27.5" r="1.8"/>
		<circle class="st1" cx="115.3" cy="27.5" r="1.8"/>
		<circle class="st1" cx="15.7" cy="27.5" r="1.9"/>
		<circle class="st1" cx="20.1" cy="27.5" r="1.9"/>
		<circle class="st1" cx="24.4" cy="27.5" r="1.9"/>
		<circle class="st1" cx="28.7" cy="27.5" r="1.9"/>
		<circle class="st1" cx="33" cy="27.5" r="1.8"/>
		<text transform="matrix(1 0 0 1 9.2408 28.5803)" class="st1 st2 st3">00</text>
		<text transform="matrix(1 0 0 1 118.361 28.5803)" class="st1 st2 st3">00</text>
	</g>
	<g>
		<circle class="st1" cx="98" cy="21.6" r="1.8"/>
		<circle class="st1" cx="102.3" cy="21.6" r="1.8"/>
		<circle class="st1" cx="106.6" cy="21.6" r="1.8"/>
		<circle class="st1" cx="110.9" cy="21.6" r="1.8"/>
		<circle class="st1" cx="115.3" cy="21.6" r="1.8"/>
		<circle class="st1" cx="15.7" cy="21.6" r="1.9"/>
		<circle class="st1" cx="20.1" cy="21.6" r="1.9"/>
		<circle class="st1" cx="24.4" cy="21.6" r="1.9"/>
		<circle class="st1" cx="28.7" cy="21.6" r="1.9"/>
		<circle class="st1" cx="33" cy="21.6" r="1.8"/>
		<text transform="matrix(1 0 0 1 9.2408 22.6503)" class="st1 st2 st3">00</text>
		<text transform="matrix(1 0 0 1 118.361 22.6503)" class="st1 st2 st3">00</text>
	</g>
	<g>
		<circle class="st1" cx="98" cy="15.7" r="1.8"/>
		<circle class="st1" cx="102.3" cy="15.7" r="1.8"/>
		<circle class="st1" cx="106.6" cy="15.7" r="1.8"/>
		<circle class="st1" cx="110.9" cy="15.7" r="1.8"/>
		<circle class="st1" cx="115.3" cy="15.7" r="1.8"/>
		<circle class="st1" cx="15.7" cy="15.7" r="1.9"/>
		<circle class="st1" cx="20.1" cy="15.7" r="1.9"/>
		<circle class="st1" cx="24.4" cy="15.7" r="1.9"/>
		<circle class="st1" cx="28.7" cy="15.7" r="1.9"/>
		<circle class="st1" cx="33" cy="15.7" r="1.8"/>
		<text transform="matrix(1 0 0 1 9.2408 16.7202)" class="st1 st2 st3">00</text>
		<text transform="matrix(1 0 0 1 118.361 16.7202)" class="st1 st2 st3">00</text>
	</g>
	<g>
		<circle class="st1" cx="15.7" cy="9.7" r="1.9"/>
		<circle class="st1" cx="20.1" cy="9.7" r="1.9"/>
		<circle class="st1" cx="24.4" cy="9.7" r="1.9"/>
		<circle class="st1" cx="28.7" cy="9.7" r="1.9"/>
		<circle class="st1" cx="33" cy="9.7" r="1.8"/>
		<circle class="st1" cx="37.3" cy="9.7" r="1.8"/>
		<circle class="st1" cx="41.7" cy="9.7" r="1.8"/>
		<circle class="st1" cx="46" cy="9.7" r="1.8"/>
		<circle class="st1" cx="50.3" cy="9.7" r="1.8"/>
		<circle class="st1" cx="54.6" cy="9.7" r="1.8"/>
		<circle class="st1" cx="59" cy="9.7" r="1.8"/>
		<circle class="st1" cx="63.3" cy="9.7" r="1.9"/>
		<circle class="st1" cx="67.6" cy="9.7" r="1.8"/>
		<circle class="st1" cx="72" cy="9.7" r="1.8"/>
		<circle class="st1" cx="76.3" cy="9.7" r="1.8"/>
		<circle class="st1" cx="80.6" cy="9.7" r="1.8"/>
		<circle class="st1" cx="84.9" cy="9.7" r="1.8"/>
		<circle class="st1" cx="89.3" cy="9.7" r="1.8"/>
		<circle class="st1" cx="93.6" cy="9.7" r="1.8"/>
		<circle class="st1" cx="97.9" cy="9.7" r="1.8"/>
		<circle class="st1" cx="102.3" cy="9.7" r="1.8"/>
		<circle class="st1" cx="106.6" cy="9.7" r="1.8"/>
		<circle class="st1" cx="110.9" cy="9.7" r="1.8"/>
		<circle class="st1" cx="115.3" cy="9.7" r="1.8"/>
		<text transform="matrix(1 0 0 1 9.2408 10.7902)" class="st1 st2 st3">00</text>
		<text transform="matrix(1 0 0 1 118.361 10.7902)" class="st1 st2 st3">00</text>
	</g>
</g>
</svg>
