<?xml version="1.0" encoding="utf-8"?>
<!-- Generator: Adobe Illustrator 23.0.1, SVG Export Plug-In . SVG Version: 6.00 Build 0)  -->
<svg version="1.1" id="Layer_1" xmlns="http://www.w3.org/2000/svg" xmlns:xlink="http://www.w3.org/1999/xlink" x="0px" y="0px"
	 viewBox="0 0 131 140" style="enable-background:new 0 0 131 140;" xml:space="preserve">
<style type="text/css">
	.st0{fill:#F1F3F4;stroke:#BCC8CE;stroke-width:0.4;stroke-linecap:round;stroke-miterlimit:10;}
	.st1{fill:#AEBDC4;}
	.st2{font-family:'Roboto-Medium';}
	.st3{font-size:3px;}
</style>
<rect x="0.5" y="0.3" class="st0" width="129.9" height="139.3"/>
<g 
    data-sort-seat-direction="ltr" 
    data-sort-line-direction="btt" 
    data-sort-seat-option="cx" 
    data-sort-line-option="cy" 
    data-line-start="34"
    >
	<g>
		<circle class="st1" cx="20.1" cy="130.6" r="1.9"/>
		<circle class="st1" cx="24.4" cy="130.6" r="1.9"/>
		<circle class="st1" cx="28.7" cy="130.6" r="1.9"/>
		<circle class="st1" cx="33" cy="130.6" r="1.9"/>
		<circle class="st1" cx="37.3" cy="130.6" r="1.9"/>
		<circle class="st1" cx="41.7" cy="130.6" r="1.9"/>
		<circle class="st1" cx="46" cy="130.6" r="1.9"/>
		<circle class="st1" cx="50.3" cy="130.6" r="1.9"/>
		<circle class="st1" cx="54.6" cy="130.6" r="1.9"/>
		<circle class="st1" cx="59" cy="130.6" r="1.9"/>
		<circle class="st1" cx="63.3" cy="130.6" r="1.9"/>
		<circle class="st1" cx="67.6" cy="130.6" r="1.9"/>
		<circle class="st1" cx="71.9" cy="130.6" r="1.9"/>
		<circle class="st1" cx="76.3" cy="130.6" r="1.9"/>
		<circle class="st1" cx="80.6" cy="130.6" r="1.9"/>
		<circle class="st1" cx="84.9" cy="130.6" r="1.9"/>
		<circle class="st1" cx="89.3" cy="130.6" r="1.9"/>
		<circle class="st1" cx="93.6" cy="130.6" r="1.9"/>
		<circle class="st1" cx="97.9" cy="130.6" r="1.9"/>
		<circle class="st1" cx="102.3" cy="130.6" r="1.9"/>
		<circle class="st1" cx="106.6" cy="130.6" r="1.9"/>
		<circle class="st1" cx="110.9" cy="130.6" r="1.9"/>
		<text transform="matrix(1 0 0 1 13.5408 131.6516)" class="st1 st2 st3">00</text>
		<text transform="matrix(1 0 0 1 114.0208 131.6516)" class="st1 st2 st3">00</text>
	</g>
	<g>
		<circle class="st1" cx="20.1" cy="124.7" r="1.8"/>
		<circle class="st1" cx="24.4" cy="124.7" r="1.8"/>
		<circle class="st1" cx="28.7" cy="124.7" r="1.8"/>
		<circle class="st1" cx="33" cy="124.7" r="1.8"/>
		<circle class="st1" cx="37.3" cy="124.7" r="1.8"/>
		<circle class="st1" cx="41.7" cy="124.7" r="1.8"/>
		<circle class="st1" cx="46" cy="124.7" r="1.8"/>
		<circle class="st1" cx="50.3" cy="124.7" r="1.8"/>
		<circle class="st1" cx="54.6" cy="124.7" r="1.8"/>
		<circle class="st1" cx="59" cy="124.7" r="1.8"/>
		<circle class="st1" cx="63.3" cy="124.7" r="1.8"/>
		<circle class="st1" cx="67.6" cy="124.7" r="1.8"/>
		<circle class="st1" cx="71.9" cy="124.7" r="1.8"/>
		<circle class="st1" cx="76.3" cy="124.7" r="1.8"/>
		<circle class="st1" cx="80.6" cy="124.7" r="1.8"/>
		<circle class="st1" cx="84.9" cy="124.7" r="1.8"/>
		<circle class="st1" cx="89.3" cy="124.7" r="1.8"/>
		<circle class="st1" cx="93.6" cy="124.7" r="1.8"/>
		<circle class="st1" cx="97.9" cy="124.7" r="1.8"/>
		<circle class="st1" cx="102.3" cy="124.7" r="1.8"/>
		<circle class="st1" cx="106.6" cy="124.7" r="1.8"/>
		<circle class="st1" cx="110.9" cy="124.7" r="1.8"/>
		<text transform="matrix(1 0 0 1 13.5408 125.7216)" class="st1 st2 st3">00</text>
		<text transform="matrix(1 0 0 1 114.0208 125.7216)" class="st1 st2 st3">00</text>
	</g>
	<g>
		<circle class="st1" cx="20.1" cy="118.8" r="1.8"/>
		<circle class="st1" cx="24.4" cy="118.8" r="1.8"/>
		<circle class="st1" cx="28.7" cy="118.8" r="1.8"/>
		<circle class="st1" cx="33" cy="118.8" r="1.8"/>
		<circle class="st1" cx="37.3" cy="118.8" r="1.8"/>
		<circle class="st1" cx="41.7" cy="118.8" r="1.8"/>
		<circle class="st1" cx="46" cy="118.8" r="1.8"/>
		<circle class="st1" cx="50.3" cy="118.8" r="1.8"/>
		<circle class="st1" cx="54.6" cy="118.8" r="1.8"/>
		<circle class="st1" cx="59" cy="118.8" r="1.8"/>
		<circle class="st1" cx="63.3" cy="118.8" r="1.8"/>
		<circle class="st1" cx="67.6" cy="118.8" r="1.8"/>
		<circle class="st1" cx="71.9" cy="118.8" r="1.8"/>
		<circle class="st1" cx="76.3" cy="118.8" r="1.8"/>
		<circle class="st1" cx="80.6" cy="118.8" r="1.8"/>
		<circle class="st1" cx="84.9" cy="118.8" r="1.8"/>
		<circle class="st1" cx="89.3" cy="118.8" r="1.8"/>
		<circle class="st1" cx="93.6" cy="118.8" r="1.8"/>
		<circle class="st1" cx="97.9" cy="118.8" r="1.8"/>
		<circle class="st1" cx="102.3" cy="118.8" r="1.8"/>
		<circle class="st1" cx="106.6" cy="118.8" r="1.8"/>
		<circle class="st1" cx="110.9" cy="118.8" r="1.8"/>
		<text transform="matrix(1 0 0 1 13.5408 119.7915)" class="st1 st2 st3">00</text>
		<text transform="matrix(1 0 0 1 114.0208 119.7915)" class="st1 st2 st3">00</text>
	</g>
	<g>
		<circle class="st1" cx="20.1" cy="112.8" r="1.8"/>
		<circle class="st1" cx="24.4" cy="112.8" r="1.8"/>
		<circle class="st1" cx="28.7" cy="112.8" r="1.8"/>
		<circle class="st1" cx="33" cy="112.8" r="1.8"/>
		<circle class="st1" cx="37.3" cy="112.8" r="1.8"/>
		<circle class="st1" cx="41.7" cy="112.8" r="1.8"/>
		<circle class="st1" cx="46" cy="112.8" r="1.8"/>
		<circle class="st1" cx="50.3" cy="112.8" r="1.8"/>
		<circle class="st1" cx="54.6" cy="112.8" r="1.8"/>
		<circle class="st1" cx="59" cy="112.8" r="1.8"/>
		<circle class="st1" cx="63.3" cy="112.8" r="1.8"/>
		<circle class="st1" cx="67.6" cy="112.8" r="1.8"/>
		<circle class="st1" cx="71.9" cy="112.8" r="1.8"/>
		<circle class="st1" cx="76.3" cy="112.8" r="1.8"/>
		<circle class="st1" cx="80.6" cy="112.8" r="1.8"/>
		<circle class="st1" cx="84.9" cy="112.8" r="1.8"/>
		<circle class="st1" cx="89.3" cy="112.8" r="1.8"/>
		<circle class="st1" cx="93.6" cy="112.8" r="1.8"/>
		<circle class="st1" cx="97.9" cy="112.8" r="1.8"/>
		<circle class="st1" cx="102.3" cy="112.8" r="1.8"/>
		<circle class="st1" cx="106.6" cy="112.8" r="1.8"/>
		<circle class="st1" cx="110.9" cy="112.8" r="1.8"/>
		<text transform="matrix(1 0 0 1 13.5408 113.8615)" class="st1 st2 st3">00</text>
		<text transform="matrix(1 0 0 1 114.0208 113.8615)" class="st1 st2 st3">00</text>
	</g>
	<g>
		<circle class="st1" cx="11.4" cy="106.9" r="1.8"/>
		<circle class="st1" cx="15.7" cy="106.9" r="1.8"/>
		<circle class="st1" cx="20" cy="106.9" r="1.8"/>
		<circle class="st1" cx="24.4" cy="106.9" r="1.8"/>
		<circle class="st1" cx="28.7" cy="106.9" r="1.8"/>
		<circle class="st1" cx="33" cy="106.9" r="1.8"/>
		<circle class="st1" cx="37.3" cy="106.9" r="1.8"/>
		<circle class="st1" cx="41.6" cy="106.9" r="1.8"/>
		<circle class="st1" cx="46" cy="106.9" r="1.8"/>
		<circle class="st1" cx="50.3" cy="106.9" r="1.8"/>
		<circle class="st1" cx="54.6" cy="106.9" r="1.8"/>
		<circle class="st1" cx="59" cy="106.9" r="1.8"/>
		<circle class="st1" cx="63.3" cy="106.9" r="1.8"/>
		<circle class="st1" cx="67.6" cy="106.9" r="1.8"/>
		<circle class="st1" cx="71.9" cy="106.9" r="1.8"/>
		<circle class="st1" cx="76.3" cy="106.9" r="1.8"/>
		<circle class="st1" cx="80.6" cy="106.9" r="1.8"/>
		<circle class="st1" cx="84.9" cy="106.9" r="1.8"/>
		<circle class="st1" cx="89.3" cy="106.9" r="1.8"/>
		<circle class="st1" cx="93.6" cy="106.9" r="1.8"/>
		<circle class="st1" cx="97.9" cy="106.9" r="1.8"/>
		<circle class="st1" cx="102.3" cy="106.9" r="1.8"/>
		<circle class="st1" cx="106.6" cy="106.9" r="1.8"/>
		<circle class="st1" cx="110.9" cy="106.9" r="1.8"/>
		<circle class="st1" cx="115.3" cy="106.9" r="1.8"/>
		<circle class="st1" cx="119.6" cy="106.9" r="1.8"/>
		<text transform="matrix(1 0 0 1 4.9008 107.9314)" class="st1 st2 st3">00</text>
		<text transform="matrix(1 0 0 1 122.6908 107.9314)" class="st1 st2 st3">00</text>
	</g>
	<g>
		<circle class="st1" cx="11.4" cy="101" r="1.8"/>
		<circle class="st1" cx="15.7" cy="101" r="1.8"/>
		<circle class="st1" cx="20" cy="101" r="1.8"/>
		<circle class="st1" cx="24.4" cy="101" r="1.8"/>
		<circle class="st1" cx="28.7" cy="101" r="1.8"/>
		<circle class="st1" cx="33" cy="101" r="1.8"/>
		<circle class="st1" cx="37.3" cy="101" r="1.8"/>
		<circle class="st1" cx="41.6" cy="101" r="1.8"/>
		<circle class="st1" cx="46" cy="101" r="1.8"/>
		<circle class="st1" cx="50.3" cy="101" r="1.8"/>
		<circle class="st1" cx="54.6" cy="101" r="1.8"/>
		<circle class="st1" cx="59" cy="101" r="1.8"/>
		<circle class="st1" cx="63.3" cy="101" r="1.8"/>
		<circle class="st1" cx="67.6" cy="101" r="1.8"/>
		<circle class="st1" cx="71.9" cy="101" r="1.8"/>
		<circle class="st1" cx="76.3" cy="101" r="1.8"/>
		<circle class="st1" cx="80.6" cy="101" r="1.8"/>
		<circle class="st1" cx="84.9" cy="101" r="1.8"/>
		<circle class="st1" cx="89.3" cy="101" r="1.8"/>
		<circle class="st1" cx="93.6" cy="101" r="1.8"/>
		<circle class="st1" cx="97.9" cy="101" r="1.8"/>
		<circle class="st1" cx="102.3" cy="101" r="1.8"/>
		<circle class="st1" cx="106.6" cy="101" r="1.8"/>
		<circle class="st1" cx="110.9" cy="101" r="1.8"/>
		<circle class="st1" cx="115.3" cy="101" r="1.8"/>
		<circle class="st1" cx="119.6" cy="101" r="1.8"/>
		<text transform="matrix(1 0 0 1 4.9008 102.0013)" class="st1 st2 st3">00</text>
		<text transform="matrix(1 0 0 1 122.6908 102.0013)" class="st1 st2 st3">00</text>
	</g>
	<g>
		<circle class="st1" cx="11.4" cy="95" r="1.8"/>
		<circle class="st1" cx="15.7" cy="95" r="1.8"/>
		<circle class="st1" cx="20" cy="95" r="1.8"/>
		<circle class="st1" cx="24.4" cy="95" r="1.8"/>
		<circle class="st1" cx="28.7" cy="95" r="1.8"/>
		<circle class="st1" cx="33" cy="95" r="1.8"/>
		<circle class="st1" cx="37.3" cy="95" r="1.8"/>
		<circle class="st1" cx="41.6" cy="95" r="1.8"/>
		<circle class="st1" cx="46" cy="95" r="1.8"/>
		<circle class="st1" cx="50.3" cy="95" r="1.8"/>
		<circle class="st1" cx="54.6" cy="95" r="1.8"/>
		<circle class="st1" cx="59" cy="95" r="1.8"/>
		<circle class="st1" cx="63.3" cy="95" r="1.8"/>
		<circle class="st1" cx="67.6" cy="95" r="1.8"/>
		<circle class="st1" cx="71.9" cy="95" r="1.8"/>
		<circle class="st1" cx="76.3" cy="95" r="1.8"/>
		<circle class="st1" cx="80.6" cy="95" r="1.8"/>
		<circle class="st1" cx="84.9" cy="95" r="1.8"/>
		<circle class="st1" cx="89.3" cy="95" r="1.8"/>
		<circle class="st1" cx="93.6" cy="95" r="1.8"/>
		<circle class="st1" cx="97.9" cy="95" r="1.8"/>
		<circle class="st1" cx="102.3" cy="95" r="1.8"/>
		<circle class="st1" cx="106.6" cy="95" r="1.8"/>
		<circle class="st1" cx="110.9" cy="95" r="1.8"/>
		<circle class="st1" cx="115.3" cy="95" r="1.8"/>
		<circle class="st1" cx="119.6" cy="95" r="1.8"/>
		<text transform="matrix(1 0 0 1 4.9008 96.0713)" class="st1 st2 st3">00</text>
		<text transform="matrix(1 0 0 1 122.6908 96.0713)" class="st1 st2 st3">00</text>
	</g>
	<g>
		<circle class="st1" cx="11.4" cy="89.1" r="1.8"/>
		<circle class="st1" cx="15.7" cy="89.1" r="1.8"/>
		<circle class="st1" cx="20" cy="89.1" r="1.8"/>
		<circle class="st1" cx="24.4" cy="89.1" r="1.8"/>
		<circle class="st1" cx="28.7" cy="89.1" r="1.8"/>
		<circle class="st1" cx="33" cy="89.1" r="1.8"/>
		<circle class="st1" cx="37.3" cy="89.1" r="1.8"/>
		<circle class="st1" cx="41.6" cy="89.1" r="1.8"/>
		<circle class="st1" cx="46" cy="89.1" r="1.8"/>
		<circle class="st1" cx="50.3" cy="89.1" r="1.8"/>
		<circle class="st1" cx="54.6" cy="89.1" r="1.8"/>
		<circle class="st1" cx="59" cy="89.1" r="1.8"/>
		<circle class="st1" cx="63.3" cy="89.1" r="1.8"/>
		<circle class="st1" cx="67.6" cy="89.1" r="1.8"/>
		<circle class="st1" cx="71.9" cy="89.1" r="1.8"/>
		<circle class="st1" cx="76.3" cy="89.1" r="1.8"/>
		<circle class="st1" cx="80.6" cy="89.1" r="1.8"/>
		<circle class="st1" cx="84.9" cy="89.1" r="1.8"/>
		<circle class="st1" cx="89.3" cy="89.1" r="1.8"/>
		<circle class="st1" cx="93.6" cy="89.1" r="1.8"/>
		<circle class="st1" cx="97.9" cy="89.1" r="1.8"/>
		<circle class="st1" cx="102.3" cy="89.1" r="1.8"/>
		<circle class="st1" cx="106.6" cy="89.1" r="1.8"/>
		<circle class="st1" cx="110.9" cy="89.1" r="1.8"/>
		<circle class="st1" cx="115.3" cy="89.1" r="1.8"/>
		<circle class="st1" cx="119.6" cy="89.1" r="1.8"/>
		<text transform="matrix(1 0 0 1 4.9008 90.1412)" class="st1 st2 st3">00</text>
		<text transform="matrix(1 0 0 1 122.6908 90.1412)" class="st1 st2 st3">00</text>
	</g>
	<g>
		<circle class="st1" cx="11.4" cy="83.2" r="1.8"/>
		<circle class="st1" cx="15.7" cy="83.2" r="1.8"/>
		<circle class="st1" cx="20" cy="83.2" r="1.8"/>
		<circle class="st1" cx="24.4" cy="83.2" r="1.8"/>
		<circle class="st1" cx="28.7" cy="83.2" r="1.8"/>
		<circle class="st1" cx="33" cy="83.2" r="1.8"/>
		<circle class="st1" cx="37.3" cy="83.2" r="1.8"/>
		<circle class="st1" cx="41.6" cy="83.2" r="1.8"/>
		<circle class="st1" cx="46" cy="83.2" r="1.8"/>
		<circle class="st1" cx="50.3" cy="83.2" r="1.8"/>
		<circle class="st1" cx="54.6" cy="83.2" r="1.8"/>
		<circle class="st1" cx="59" cy="83.2" r="1.8"/>
		<circle class="st1" cx="63.3" cy="83.2" r="1.8"/>
		<circle class="st1" cx="67.6" cy="83.2" r="1.8"/>
		<circle class="st1" cx="71.9" cy="83.2" r="1.8"/>
		<circle class="st1" cx="76.3" cy="83.2" r="1.8"/>
		<circle class="st1" cx="80.6" cy="83.2" r="1.8"/>
		<circle class="st1" cx="84.9" cy="83.2" r="1.8"/>
		<circle class="st1" cx="89.3" cy="83.2" r="1.8"/>
		<circle class="st1" cx="93.6" cy="83.2" r="1.8"/>
		<circle class="st1" cx="97.9" cy="83.2" r="1.8"/>
		<circle class="st1" cx="102.3" cy="83.2" r="1.8"/>
		<circle class="st1" cx="106.6" cy="83.2" r="1.8"/>
		<circle class="st1" cx="110.9" cy="83.2" r="1.8"/>
		<circle class="st1" cx="115.3" cy="83.2" r="1.8"/>
		<circle class="st1" cx="119.6" cy="83.2" r="1.8"/>
		<text transform="matrix(1 0 0 1 4.9008 84.2112)" class="st1 st2 st3">00</text>
		<text transform="matrix(1 0 0 1 122.6908 84.2112)" class="st1 st2 st3">00</text>
	</g>
	<g>
		<circle class="st1" cx="11.4" cy="77.2" r="1.8"/>
		<circle class="st1" cx="15.7" cy="77.2" r="1.8"/>
		<circle class="st1" cx="20" cy="77.2" r="1.8"/>
		<circle class="st1" cx="24.4" cy="77.2" r="1.8"/>
		<circle class="st1" cx="28.7" cy="77.2" r="1.8"/>
		<circle class="st1" cx="33" cy="77.2" r="1.8"/>
		<circle class="st1" cx="37.3" cy="77.2" r="1.8"/>
		<circle class="st1" cx="41.6" cy="77.2" r="1.8"/>
		<circle class="st1" cx="46" cy="77.2" r="1.8"/>
		<circle class="st1" cx="50.3" cy="77.2" r="1.8"/>
		<circle class="st1" cx="54.6" cy="77.2" r="1.8"/>
		<circle class="st1" cx="59" cy="77.2" r="1.8"/>
		<circle class="st1" cx="63.3" cy="77.2" r="1.8"/>
		<circle class="st1" cx="67.6" cy="77.2" r="1.8"/>
		<circle class="st1" cx="71.9" cy="77.2" r="1.8"/>
		<circle class="st1" cx="76.3" cy="77.2" r="1.8"/>
		<circle class="st1" cx="80.6" cy="77.2" r="1.8"/>
		<circle class="st1" cx="84.9" cy="77.2" r="1.8"/>
		<circle class="st1" cx="89.3" cy="77.2" r="1.8"/>
		<circle class="st1" cx="93.6" cy="77.2" r="1.8"/>
		<circle class="st1" cx="97.9" cy="77.2" r="1.8"/>
		<circle class="st1" cx="102.3" cy="77.2" r="1.8"/>
		<circle class="st1" cx="106.6" cy="77.2" r="1.8"/>
		<circle class="st1" cx="110.9" cy="77.2" r="1.8"/>
		<circle class="st1" cx="115.3" cy="77.2" r="1.8"/>
		<circle class="st1" cx="119.6" cy="77.2" r="1.8"/>
		<text transform="matrix(1 0 0 1 4.9008 78.2811)" class="st1 st2 st3">00</text>
		<text transform="matrix(1 0 0 1 122.6908 78.2811)" class="st1 st2 st3">00</text>
	</g>
	<g>
		<circle class="st1" cx="11.4" cy="71.3" r="1.8"/>
		<circle class="st1" cx="15.7" cy="71.3" r="1.8"/>
		<circle class="st1" cx="20" cy="71.3" r="1.8"/>
		<circle class="st1" cx="24.4" cy="71.3" r="1.8"/>
		<circle class="st1" cx="28.7" cy="71.3" r="1.8"/>
		<circle class="st1" cx="33" cy="71.3" r="1.8"/>
		<circle class="st1" cx="37.3" cy="71.3" r="1.8"/>
		<circle class="st1" cx="41.6" cy="71.3" r="1.8"/>
		<circle class="st1" cx="46" cy="71.3" r="1.8"/>
		<circle class="st1" cx="50.3" cy="71.3" r="1.8"/>
		<circle class="st1" cx="54.6" cy="71.3" r="1.8"/>
		<circle class="st1" cx="59" cy="71.3" r="1.8"/>
		<circle class="st1" cx="63.3" cy="71.3" r="1.8"/>
		<circle class="st1" cx="67.6" cy="71.3" r="1.8"/>
		<circle class="st1" cx="71.9" cy="71.3" r="1.8"/>
		<circle class="st1" cx="76.3" cy="71.3" r="1.8"/>
		<circle class="st1" cx="80.6" cy="71.3" r="1.8"/>
		<circle class="st1" cx="84.9" cy="71.3" r="1.8"/>
		<circle class="st1" cx="89.3" cy="71.3" r="1.8"/>
		<circle class="st1" cx="93.6" cy="71.3" r="1.8"/>
		<circle class="st1" cx="97.9" cy="71.3" r="1.8"/>
		<circle class="st1" cx="102.3" cy="71.3" r="1.8"/>
		<circle class="st1" cx="106.6" cy="71.3" r="1.8"/>
		<circle class="st1" cx="110.9" cy="71.3" r="1.8"/>
		<circle class="st1" cx="115.3" cy="71.3" r="1.8"/>
		<circle class="st1" cx="119.6" cy="71.3" r="1.8"/>
		<text transform="matrix(1 0 0 1 4.9008 72.3511)" class="st1 st2 st3">00</text>
		<text transform="matrix(1 0 0 1 122.6908 72.3511)" class="st1 st2 st3">00</text>
	</g>
	<g>
		<circle class="st1" cx="11.4" cy="65.4" r="1.8"/>
		<circle class="st1" cx="15.7" cy="65.4" r="1.8"/>
		<circle class="st1" cx="20" cy="65.4" r="1.8"/>
		<circle class="st1" cx="24.4" cy="65.4" r="1.8"/>
		<circle class="st1" cx="28.7" cy="65.4" r="1.8"/>
		<circle class="st1" cx="33" cy="65.4" r="1.8"/>
		<circle class="st1" cx="37.3" cy="65.4" r="1.8"/>
		<circle class="st1" cx="41.6" cy="65.4" r="1.8"/>
		<circle class="st1" cx="46" cy="65.4" r="1.8"/>
		<circle class="st1" cx="50.3" cy="65.4" r="1.8"/>
		<circle class="st1" cx="54.6" cy="65.4" r="1.8"/>
		<circle class="st1" cx="59" cy="65.4" r="1.8"/>
		<circle class="st1" cx="63.3" cy="65.4" r="1.8"/>
		<circle class="st1" cx="67.6" cy="65.4" r="1.8"/>
		<circle class="st1" cx="71.9" cy="65.4" r="1.8"/>
		<circle class="st1" cx="76.3" cy="65.4" r="1.8"/>
		<circle class="st1" cx="80.6" cy="65.4" r="1.8"/>
		<circle class="st1" cx="84.9" cy="65.4" r="1.8"/>
		<circle class="st1" cx="89.3" cy="65.4" r="1.8"/>
		<circle class="st1" cx="93.6" cy="65.4" r="1.8"/>
		<circle class="st1" cx="97.9" cy="65.4" r="1.8"/>
		<circle class="st1" cx="102.3" cy="65.4" r="1.8"/>
		<circle class="st1" cx="106.6" cy="65.4" r="1.8"/>
		<circle class="st1" cx="110.9" cy="65.4" r="1.8"/>
		<circle class="st1" cx="115.3" cy="65.4" r="1.8"/>
		<circle class="st1" cx="119.6" cy="65.4" r="1.8"/>
		<text transform="matrix(1 0 0 1 4.9008 66.421)" class="st1 st2 st3">00</text>
		<text transform="matrix(1 0 0 1 122.6908 66.421)" class="st1 st2 st3">00</text>
	</g>
	<g>
		<circle class="st1" cx="11.4" cy="59.5" r="1.8"/>
		<circle class="st1" cx="15.7" cy="59.5" r="1.8"/>
		<circle class="st1" cx="20" cy="59.5" r="1.8"/>
		<circle class="st1" cx="24.4" cy="59.5" r="1.8"/>
		<circle class="st1" cx="28.7" cy="59.5" r="1.8"/>
		<circle class="st1" cx="33" cy="59.5" r="1.8"/>
		<circle class="st1" cx="37.3" cy="59.5" r="1.8"/>
		<circle class="st1" cx="41.6" cy="59.5" r="1.8"/>
		<circle class="st1" cx="46" cy="59.5" r="1.8"/>
		<circle class="st1" cx="50.3" cy="59.5" r="1.8"/>
		<circle class="st1" cx="54.6" cy="59.5" r="1.8"/>
		<circle class="st1" cx="59" cy="59.5" r="1.8"/>
		<circle class="st1" cx="63.3" cy="59.5" r="1.8"/>
		<circle class="st1" cx="67.6" cy="59.5" r="1.8"/>
		<circle class="st1" cx="71.9" cy="59.5" r="1.8"/>
		<circle class="st1" cx="76.3" cy="59.5" r="1.8"/>
		<circle class="st1" cx="80.6" cy="59.5" r="1.8"/>
		<circle class="st1" cx="84.9" cy="59.5" r="1.8"/>
		<circle class="st1" cx="89.3" cy="59.5" r="1.8"/>
		<circle class="st1" cx="93.6" cy="59.5" r="1.8"/>
		<circle class="st1" cx="97.9" cy="59.5" r="1.8"/>
		<circle class="st1" cx="102.3" cy="59.5" r="1.8"/>
		<circle class="st1" cx="106.6" cy="59.5" r="1.8"/>
		<circle class="st1" cx="110.9" cy="59.5" r="1.8"/>
		<circle class="st1" cx="115.3" cy="59.5" r="1.8"/>
		<circle class="st1" cx="119.6" cy="59.5" r="1.8"/>
		<text transform="matrix(1 0 0 1 4.9008 60.491)" class="st1 st2 st3">00</text>
		<text transform="matrix(1 0 0 1 122.6908 60.491)" class="st1 st2 st3">00</text>
	</g>
	<g>
		<circle class="st1" cx="11.4" cy="53.5" r="1.8"/>
		<circle class="st1" cx="15.7" cy="53.5" r="1.8"/>
		<circle class="st1" cx="20" cy="53.5" r="1.8"/>
		<circle class="st1" cx="24.4" cy="53.5" r="1.8"/>
		<circle class="st1" cx="28.7" cy="53.5" r="1.8"/>
		<circle class="st1" cx="33" cy="53.5" r="1.8"/>
		<circle class="st1" cx="37.3" cy="53.5" r="1.8"/>
		<circle class="st1" cx="41.6" cy="53.5" r="1.8"/>
		<circle class="st1" cx="46" cy="53.5" r="1.8"/>
		<circle class="st1" cx="50.3" cy="53.5" r="1.8"/>
		<circle class="st1" cx="54.6" cy="53.5" r="1.8"/>
		<circle class="st1" cx="59" cy="53.5" r="1.8"/>
		<circle class="st1" cx="63.3" cy="53.5" r="1.8"/>
		<circle class="st1" cx="67.6" cy="53.5" r="1.8"/>
		<circle class="st1" cx="71.9" cy="53.5" r="1.8"/>
		<circle class="st1" cx="76.3" cy="53.5" r="1.8"/>
		<circle class="st1" cx="80.6" cy="53.5" r="1.8"/>
		<circle class="st1" cx="84.9" cy="53.5" r="1.8"/>
		<circle class="st1" cx="89.3" cy="53.5" r="1.8"/>
		<circle class="st1" cx="93.6" cy="53.5" r="1.8"/>
		<circle class="st1" cx="97.9" cy="53.5" r="1.8"/>
		<circle class="st1" cx="102.3" cy="53.5" r="1.8"/>
		<circle class="st1" cx="106.6" cy="53.5" r="1.8"/>
		<circle class="st1" cx="110.9" cy="53.5" r="1.8"/>
		<circle class="st1" cx="115.3" cy="53.5" r="1.8"/>
		<circle class="st1" cx="119.6" cy="53.5" r="1.8"/>
		<text transform="matrix(1 0 0 1 4.9008 54.5609)" class="st1 st2 st3">00</text>
		<text transform="matrix(1 0 0 1 122.6908 54.5609)" class="st1 st2 st3">00</text>
	</g>
	<g>
		<circle class="st1" cx="11.4" cy="47.6" r="1.8"/>
		<circle class="st1" cx="15.7" cy="47.6" r="1.8"/>
		<circle class="st1" cx="20" cy="47.6" r="1.8"/>
		<circle class="st1" cx="24.4" cy="47.6" r="1.8"/>
		<circle class="st1" cx="28.7" cy="47.6" r="1.8"/>
		<circle class="st1" cx="33" cy="47.6" r="1.8"/>
		<circle class="st1" cx="37.3" cy="47.6" r="1.8"/>
		<circle class="st1" cx="41.6" cy="47.6" r="1.8"/>
		<circle class="st1" cx="46" cy="47.6" r="1.8"/>
		<circle class="st1" cx="50.3" cy="47.6" r="1.8"/>
		<circle class="st1" cx="54.6" cy="47.6" r="1.8"/>
		<circle class="st1" cx="59" cy="47.6" r="1.8"/>
		<circle class="st1" cx="63.3" cy="47.6" r="1.8"/>
		<circle class="st1" cx="67.6" cy="47.6" r="1.8"/>
		<circle class="st1" cx="71.9" cy="47.6" r="1.8"/>
		<circle class="st1" cx="76.3" cy="47.6" r="1.8"/>
		<circle class="st1" cx="80.6" cy="47.6" r="1.8"/>
		<circle class="st1" cx="84.9" cy="47.6" r="1.8"/>
		<circle class="st1" cx="89.3" cy="47.6" r="1.8"/>
		<circle class="st1" cx="93.6" cy="47.6" r="1.8"/>
		<circle class="st1" cx="97.9" cy="47.6" r="1.8"/>
		<circle class="st1" cx="102.3" cy="47.6" r="1.8"/>
		<circle class="st1" cx="106.6" cy="47.6" r="1.8"/>
		<circle class="st1" cx="110.9" cy="47.6" r="1.8"/>
		<circle class="st1" cx="115.3" cy="47.6" r="1.8"/>
		<circle class="st1" cx="119.6" cy="47.6" r="1.8"/>
		<text transform="matrix(1 0 0 1 4.9008 48.6309)" class="st1 st2 st3">00</text>
		<text transform="matrix(1 0 0 1 122.6908 48.6309)" class="st1 st2 st3">00</text>
	</g>
	<g>
		<circle class="st1" cx="11.4" cy="41.7" r="1.8"/>
		<circle class="st1" cx="15.7" cy="41.7" r="1.8"/>
		<circle class="st1" cx="20" cy="41.7" r="1.8"/>
		<circle class="st1" cx="24.4" cy="41.7" r="1.8"/>
		<circle class="st1" cx="28.7" cy="41.7" r="1.8"/>
		<circle class="st1" cx="33" cy="41.7" r="1.8"/>
		<circle class="st1" cx="37.3" cy="41.7" r="1.8"/>
		<circle class="st1" cx="41.6" cy="41.7" r="1.8"/>
		<circle class="st1" cx="46" cy="41.7" r="1.8"/>
		<circle class="st1" cx="50.3" cy="41.7" r="1.8"/>
		<circle class="st1" cx="54.6" cy="41.7" r="1.8"/>
		<circle class="st1" cx="59" cy="41.7" r="1.8"/>
		<circle class="st1" cx="63.3" cy="41.7" r="1.8"/>
		<circle class="st1" cx="67.6" cy="41.7" r="1.8"/>
		<circle class="st1" cx="71.9" cy="41.7" r="1.8"/>
		<circle class="st1" cx="76.3" cy="41.7" r="1.8"/>
		<circle class="st1" cx="80.6" cy="41.7" r="1.8"/>
		<circle class="st1" cx="84.9" cy="41.7" r="1.8"/>
		<circle class="st1" cx="89.3" cy="41.7" r="1.8"/>
		<circle class="st1" cx="93.6" cy="41.7" r="1.8"/>
		<circle class="st1" cx="97.9" cy="41.7" r="1.8"/>
		<circle class="st1" cx="102.3" cy="41.7" r="1.8"/>
		<circle class="st1" cx="106.6" cy="41.7" r="1.8"/>
		<circle class="st1" cx="110.9" cy="41.7" r="1.8"/>
		<circle class="st1" cx="115.3" cy="41.7" r="1.8"/>
		<circle class="st1" cx="119.6" cy="41.7" r="1.8"/>
		<text transform="matrix(1 0 0 1 4.9008 42.7008)" class="st1 st2 st3">00</text>
		<text transform="matrix(1 0 0 1 122.6908 42.7008)" class="st1 st2 st3">00</text>
	</g>
	<g>
		<circle class="st1" cx="11.4" cy="35.7" r="1.8"/>
		<circle class="st1" cx="15.7" cy="35.7" r="1.8"/>
		<circle class="st1" cx="20" cy="35.7" r="1.8"/>
		<circle class="st1" cx="24.4" cy="35.7" r="1.8"/>
		<circle class="st1" cx="28.7" cy="35.7" r="1.8"/>
		<circle class="st1" cx="33" cy="35.7" r="1.8"/>
		<circle class="st1" cx="37.3" cy="35.7" r="1.8"/>
		<circle class="st1" cx="41.6" cy="35.7" r="1.8"/>
		<circle class="st1" cx="46" cy="35.7" r="1.8"/>
		<circle class="st1" cx="50.3" cy="35.7" r="1.8"/>
		<circle class="st1" cx="54.6" cy="35.7" r="1.8"/>
		<circle class="st1" cx="59" cy="35.7" r="1.8"/>
		<circle class="st1" cx="63.3" cy="35.7" r="1.8"/>
		<circle class="st1" cx="67.6" cy="35.7" r="1.8"/>
		<circle class="st1" cx="71.9" cy="35.7" r="1.8"/>
		<circle class="st1" cx="76.3" cy="35.7" r="1.8"/>
		<circle class="st1" cx="80.6" cy="35.7" r="1.8"/>
		<circle class="st1" cx="84.9" cy="35.7" r="1.8"/>
		<circle class="st1" cx="89.3" cy="35.7" r="1.8"/>
		<circle class="st1" cx="93.6" cy="35.7" r="1.8"/>
		<circle class="st1" cx="97.9" cy="35.7" r="1.8"/>
		<circle class="st1" cx="102.3" cy="35.7" r="1.8"/>
		<circle class="st1" cx="106.6" cy="35.7" r="1.8"/>
		<circle class="st1" cx="110.9" cy="35.7" r="1.8"/>
		<circle class="st1" cx="115.3" cy="35.7" r="1.8"/>
		<circle class="st1" cx="119.6" cy="35.7" r="1.8"/>
		<text transform="matrix(1 0 0 1 4.9008 36.7708)" class="st1 st2 st3">00</text>
		<text transform="matrix(1 0 0 1 122.6908 36.7708)" class="st1 st2 st3">00</text>
	</g>
	<g>
		<circle class="st1" cx="106.6" cy="29.8" r="1.8"/>
		<circle class="st1" cx="110.9" cy="29.8" r="1.8"/>
		<circle class="st1" cx="115.3" cy="29.8" r="1.8"/>
		<circle class="st1" cx="119.6" cy="29.8" r="1.8"/>
		<circle class="st1" cx="11.4" cy="29.8" r="1.9"/>
		<circle class="st1" cx="15.7" cy="29.8" r="1.9"/>
		<circle class="st1" cx="20" cy="29.8" r="1.9"/>
		<circle class="st1" cx="24.4" cy="29.8" r="1.9"/>
		<text transform="matrix(1 0 0 1 4.9008 30.8407)" class="st1 st2 st3">00</text>
		<text transform="matrix(1 0 0 1 122.6908 30.8407)" class="st1 st2 st3">00</text>
	</g>
	<g>
		<circle class="st1" cx="106.6" cy="23.9" r="1.8"/>
		<circle class="st1" cx="110.9" cy="23.9" r="1.8"/>
		<circle class="st1" cx="115.3" cy="23.9" r="1.8"/>
		<circle class="st1" cx="119.6" cy="23.9" r="1.8"/>
		<circle class="st1" cx="11.4" cy="23.9" r="1.9"/>
		<circle class="st1" cx="15.7" cy="23.9" r="1.9"/>
		<circle class="st1" cx="20" cy="23.9" r="1.9"/>
		<circle class="st1" cx="24.4" cy="23.9" r="1.9"/>
		<text transform="matrix(1 0 0 1 4.9008 24.9106)" class="st1 st2 st3">00</text>
		<text transform="matrix(1 0 0 1 122.6908 24.9106)" class="st1 st2 st3">00</text>
	</g>
	<g>
		<circle class="st1" cx="106.6" cy="17.9" r="1.8"/>
		<circle class="st1" cx="110.9" cy="17.9" r="1.8"/>
		<circle class="st1" cx="115.3" cy="17.9" r="1.8"/>
		<circle class="st1" cx="119.6" cy="17.9" r="1.8"/>
		<circle class="st1" cx="11.4" cy="17.9" r="1.9"/>
		<circle class="st1" cx="15.7" cy="17.9" r="1.9"/>
		<circle class="st1" cx="20" cy="17.9" r="1.9"/>
		<circle class="st1" cx="24.4" cy="17.9" r="1.9"/>
		<text transform="matrix(1 0 0 1 4.9008 18.9806)" class="st1 st2 st3">00</text>
		<text transform="matrix(1 0 0 1 122.6908 18.9806)" class="st1 st2 st3">00</text>
	</g>
</g>
</svg>
