<?xml version="1.0" encoding="utf-8"?>
<!-- Generator: Adobe Illustrator 23.0.1, SVG Export Plug-In . SVG Version: 6.00 Build 0)  -->
<svg version="1.1" id="Layer_1" xmlns="http://www.w3.org/2000/svg" xmlns:xlink="http://www.w3.org/1999/xlink" x="0px" y="0px"
	 width="131px" height="61px" viewBox="0 0 131 61" enable-background="new 0 0 131 61" xml:space="preserve">
<g onclick="this.parentNode.sekt.push(this);this.a_name=&quot;W 6 (низ)&quot;;">
	
		<rect x="35.7" y="-34.5" onclick="this.parentNode.a_fon=this;" transform="matrix(-1.836970e-16 1 -1 -1.836970e-16 95.9713 -35.0287)" fill="#F1F3F4" stroke="#BCC8CE" stroke-width="0.4" stroke-linecap="round" stroke-miterlimit="10" width="59.61" height="129.95"/>
	<g onclick="this.parentNode.a_row=this;">
		<g onclick="this.a_par={beg_namb:1,quant:24};">
			<line fill="none" stroke="#D3DBDF" stroke-width="0.4" stroke-miterlimit="10" x1="117.03" y1="51.23" x2="13.79" y2="51.23"/>
		</g>
		<g onclick="this.a_par={beg_namb:1,quant:24};">
			<line fill="none" stroke="#D3DBDF" stroke-width="0.4" stroke-miterlimit="10" x1="117.03" y1="45.3" x2="13.79" y2="45.3"/>
		</g>
		<g onclick="this.a_par={beg_namb:1,quant:24};">
			<line fill="none" stroke="#D3DBDF" stroke-width="0.4" stroke-miterlimit="10" x1="117.03" y1="39.37" x2="13.79" y2="39.37"/>
		</g>
		<g onclick="this.a_par={beg_namb:1,quant:24};">
			<line fill="none" stroke="#D3DBDF" stroke-width="0.4" stroke-miterlimit="10" x1="117.03" y1="33.44" x2="13.79" y2="33.44"/>
		</g>
		<g onclick="this.a_par={beg_namb:1,quant:24};">
			<line fill="none" stroke="#D3DBDF" stroke-width="0.4" stroke-miterlimit="10" x1="117.03" y1="27.5" x2="13.79" y2="27.5"/>
		</g>
		<g onclick="this.a_par={beg_namb:1,quant:24};">
			<line fill="none" stroke="#D3DBDF" stroke-width="0.4" stroke-miterlimit="10" x1="117.03" y1="21.57" x2="13.79" y2="21.57"/>
		</g>
		<g onclick="this.a_par={beg_namb:1,quant:24};">
			<line fill="none" stroke="#D3DBDF" stroke-width="0.4" stroke-miterlimit="10" x1="117.03" y1="15.64" x2="13.79" y2="15.64"/>
		</g>
		<g onclick="this.a_par={beg_namb:1,quant:24};">
			<line fill="none" stroke="#D3DBDF" stroke-width="0.4" stroke-miterlimit="10" x1="117.03" y1="9.71" x2="13.79" y2="9.71"/>
		</g>
	</g>
	<g>
		<g>
			<circle fill="#AEBDC4" cx="15.65" cy="51.23" r="1.85"/>
			<circle fill="#AEBDC4" cx="19.97" cy="51.23" r="1.85"/>
			<circle fill="#AEBDC4" cx="24.29" cy="51.23" r="1.85"/>
			<circle fill="#AEBDC4" cx="28.61" cy="51.23" r="1.85"/>
			<circle fill="#AEBDC4" cx="32.93" cy="51.23" r="1.85"/>
			<circle fill="#AEBDC4" cx="37.25" cy="51.23" r="1.85"/>
			<circle fill="#AEBDC4" cx="41.58" cy="51.23" r="1.85"/>
			<circle fill="#AEBDC4" cx="45.9" cy="51.23" r="1.85"/>
			<circle fill="#AEBDC4" cx="50.22" cy="51.23" r="1.85"/>
			<circle fill="#AEBDC4" cx="54.55" cy="51.23" r="1.85"/>
			<circle fill="#AEBDC4" cx="58.88" cy="51.23" r="1.85"/>
			<circle fill="#AEBDC4" cx="63.21" cy="51.23" r="1.85"/>
			<circle fill="#AEBDC4" cx="67.54" cy="51.23" r="1.85"/>
			<circle fill="#AEBDC4" cx="71.87" cy="51.23" r="1.85"/>
			<circle fill="#AEBDC4" cx="76.2" cy="51.23" r="1.85"/>
			<circle fill="#AEBDC4" cx="80.53" cy="51.23" r="1.85"/>
			<circle fill="#AEBDC4" cx="84.86" cy="51.23" r="1.85"/>
			<circle fill="#AEBDC4" cx="89.19" cy="51.23" r="1.85"/>
			<circle fill="#AEBDC4" cx="93.52" cy="51.23" r="1.85"/>
			<circle fill="#AEBDC4" cx="97.86" cy="51.23" r="1.85"/>
			<circle fill="#AEBDC4" cx="102.19" cy="51.23" r="1.85"/>
			<circle fill="#AEBDC4" cx="106.52" cy="51.23" r="1.85"/>
			<circle fill="#AEBDC4" cx="110.85" cy="51.23" r="1.85"/>
			<circle fill="#AEBDC4" cx="115.18" cy="51.23" r="1.85"/>
		</g>
		<g>
			<circle fill="#AEBDC4" cx="15.65" cy="45.3" r="1.85"/>
			<circle fill="#AEBDC4" cx="19.97" cy="45.3" r="1.85"/>
			<circle fill="#AEBDC4" cx="24.29" cy="45.3" r="1.85"/>
			<circle fill="#AEBDC4" cx="28.61" cy="45.3" r="1.85"/>
			<circle fill="#AEBDC4" cx="32.93" cy="45.3" r="1.85"/>
			<circle fill="#AEBDC4" cx="37.25" cy="45.3" r="1.85"/>
			<circle fill="#AEBDC4" cx="41.58" cy="45.3" r="1.85"/>
			<circle fill="#AEBDC4" cx="45.9" cy="45.3" r="1.85"/>
			<circle fill="#AEBDC4" cx="50.22" cy="45.3" r="1.85"/>
			<circle fill="#AEBDC4" cx="54.55" cy="45.3" r="1.85"/>
			<circle fill="#AEBDC4" cx="58.88" cy="45.3" r="1.85"/>
			<circle fill="#AEBDC4" cx="63.21" cy="45.3" r="1.85"/>
			<circle fill="#AEBDC4" cx="67.54" cy="45.3" r="1.85"/>
			<circle fill="#AEBDC4" cx="71.87" cy="45.3" r="1.85"/>
			<circle fill="#AEBDC4" cx="76.2" cy="45.3" r="1.85"/>
			<circle fill="#AEBDC4" cx="80.53" cy="45.3" r="1.85"/>
			<circle fill="#AEBDC4" cx="84.86" cy="45.3" r="1.85"/>
			<circle fill="#AEBDC4" cx="89.19" cy="45.3" r="1.85"/>
			<circle fill="#AEBDC4" cx="93.52" cy="45.3" r="1.85"/>
			<circle fill="#AEBDC4" cx="97.86" cy="45.3" r="1.85"/>
			<circle fill="#AEBDC4" cx="102.19" cy="45.3" r="1.85"/>
			<circle fill="#AEBDC4" cx="106.52" cy="45.3" r="1.85"/>
			<circle fill="#AEBDC4" cx="110.85" cy="45.3" r="1.85"/>
			<circle fill="#AEBDC4" cx="115.18" cy="45.3" r="1.85"/>
		</g>
		<g>
			<circle fill="#AEBDC4" cx="15.65" cy="39.37" r="1.85"/>
			<circle fill="#AEBDC4" cx="19.97" cy="39.37" r="1.85"/>
			<circle fill="#AEBDC4" cx="24.29" cy="39.37" r="1.85"/>
			<circle fill="#AEBDC4" cx="28.61" cy="39.37" r="1.85"/>
			<circle fill="#AEBDC4" cx="32.93" cy="39.37" r="1.85"/>
			<circle fill="#AEBDC4" cx="37.25" cy="39.37" r="1.85"/>
			<circle fill="#AEBDC4" cx="41.58" cy="39.37" r="1.85"/>
			<circle fill="#AEBDC4" cx="45.9" cy="39.37" r="1.85"/>
			<circle fill="#AEBDC4" cx="50.22" cy="39.37" r="1.85"/>
			<circle fill="#AEBDC4" cx="54.55" cy="39.37" r="1.85"/>
			<circle fill="#AEBDC4" cx="58.88" cy="39.37" r="1.85"/>
			<circle fill="#AEBDC4" cx="63.21" cy="39.37" r="1.85"/>
			<circle fill="#AEBDC4" cx="67.54" cy="39.37" r="1.85"/>
			<circle fill="#AEBDC4" cx="71.87" cy="39.37" r="1.85"/>
			<circle fill="#AEBDC4" cx="76.2" cy="39.37" r="1.85"/>
			<circle fill="#AEBDC4" cx="80.53" cy="39.37" r="1.85"/>
			<circle fill="#AEBDC4" cx="84.86" cy="39.37" r="1.85"/>
			<circle fill="#AEBDC4" cx="89.19" cy="39.37" r="1.85"/>
			<circle fill="#AEBDC4" cx="93.52" cy="39.37" r="1.85"/>
			<circle fill="#AEBDC4" cx="97.86" cy="39.37" r="1.85"/>
			<circle fill="#AEBDC4" cx="102.19" cy="39.37" r="1.85"/>
			<circle fill="#AEBDC4" cx="106.52" cy="39.37" r="1.85"/>
			<circle fill="#AEBDC4" cx="110.85" cy="39.37" r="1.85"/>
			<circle fill="#AEBDC4" cx="115.18" cy="39.37" r="1.85"/>
		</g>
		<g>
			<circle fill="#AEBDC4" cx="15.65" cy="33.44" r="1.85"/>
			<circle fill="#AEBDC4" cx="19.97" cy="33.44" r="1.85"/>
			<circle fill="#AEBDC4" cx="24.29" cy="33.44" r="1.85"/>
			<circle fill="#AEBDC4" cx="28.61" cy="33.44" r="1.85"/>
			<circle fill="#AEBDC4" cx="32.93" cy="33.44" r="1.85"/>
			<circle fill="#AEBDC4" cx="37.25" cy="33.44" r="1.85"/>
			<circle fill="#AEBDC4" cx="41.58" cy="33.44" r="1.85"/>
			<circle fill="#AEBDC4" cx="45.9" cy="33.44" r="1.85"/>
			<circle fill="#AEBDC4" cx="50.22" cy="33.44" r="1.85"/>
			<circle fill="#AEBDC4" cx="54.55" cy="33.44" r="1.85"/>
			<circle fill="#AEBDC4" cx="58.88" cy="33.44" r="1.85"/>
			<circle fill="#AEBDC4" cx="63.21" cy="33.44" r="1.85"/>
			<circle fill="#AEBDC4" cx="67.54" cy="33.44" r="1.85"/>
			<circle fill="#AEBDC4" cx="71.87" cy="33.44" r="1.85"/>
			<circle fill="#AEBDC4" cx="76.2" cy="33.44" r="1.85"/>
			<circle fill="#AEBDC4" cx="80.53" cy="33.44" r="1.85"/>
			<circle fill="#AEBDC4" cx="84.86" cy="33.44" r="1.85"/>
			<circle fill="#AEBDC4" cx="89.19" cy="33.44" r="1.85"/>
			<circle fill="#AEBDC4" cx="93.52" cy="33.44" r="1.85"/>
			<circle fill="#AEBDC4" cx="97.86" cy="33.44" r="1.85"/>
			<circle fill="#AEBDC4" cx="102.19" cy="33.44" r="1.85"/>
			<circle fill="#AEBDC4" cx="106.52" cy="33.44" r="1.85"/>
			<circle fill="#AEBDC4" cx="110.85" cy="33.44" r="1.85"/>
			<circle fill="#AEBDC4" cx="115.18" cy="33.44" r="1.85"/>
		</g>
		<g>
			<circle fill="#AEBDC4" cx="15.65" cy="27.5" r="1.85"/>
			<circle fill="#AEBDC4" cx="19.97" cy="27.5" r="1.85"/>
			<circle fill="#AEBDC4" cx="24.29" cy="27.5" r="1.85"/>
			<circle fill="#AEBDC4" cx="28.61" cy="27.5" r="1.85"/>
			<circle fill="#AEBDC4" cx="32.93" cy="27.5" r="1.85"/>
			<circle fill="#AEBDC4" cx="37.25" cy="27.5" r="1.85"/>
			<circle fill="#AEBDC4" cx="41.58" cy="27.5" r="1.85"/>
			<circle fill="#AEBDC4" cx="45.9" cy="27.5" r="1.85"/>
			<circle fill="#AEBDC4" cx="50.22" cy="27.5" r="1.85"/>
			<circle fill="#AEBDC4" cx="54.55" cy="27.5" r="1.85"/>
			<circle fill="#AEBDC4" cx="58.88" cy="27.5" r="1.85"/>
			<circle fill="#AEBDC4" cx="63.21" cy="27.5" r="1.85"/>
			<circle fill="#AEBDC4" cx="67.54" cy="27.5" r="1.85"/>
			<circle fill="#AEBDC4" cx="71.87" cy="27.5" r="1.85"/>
			<circle fill="#AEBDC4" cx="76.2" cy="27.5" r="1.85"/>
			<circle fill="#AEBDC4" cx="80.53" cy="27.5" r="1.85"/>
			<circle fill="#AEBDC4" cx="84.86" cy="27.5" r="1.85"/>
			<circle fill="#AEBDC4" cx="89.19" cy="27.5" r="1.85"/>
			<circle fill="#AEBDC4" cx="93.52" cy="27.5" r="1.85"/>
			<circle fill="#AEBDC4" cx="97.86" cy="27.5" r="1.85"/>
			<circle fill="#AEBDC4" cx="102.19" cy="27.5" r="1.85"/>
			<circle fill="#AEBDC4" cx="106.52" cy="27.5" r="1.85"/>
			<circle fill="#AEBDC4" cx="110.85" cy="27.5" r="1.85"/>
			<circle fill="#AEBDC4" cx="115.18" cy="27.5" r="1.85"/>
		</g>
		<g>
			<circle fill="#AEBDC4" cx="15.65" cy="15.64" r="1.85"/>
			<circle fill="#AEBDC4" cx="19.97" cy="15.64" r="1.85"/>
			<circle fill="#AEBDC4" cx="24.29" cy="15.64" r="1.85"/>
			<circle fill="#AEBDC4" cx="28.61" cy="15.64" r="1.85"/>
			<circle fill="#AEBDC4" cx="32.93" cy="15.64" r="1.85"/>
			<circle fill="#AEBDC4" cx="37.25" cy="15.64" r="1.85"/>
			<circle fill="#AEBDC4" cx="41.58" cy="15.64" r="1.85"/>
			<circle fill="#AEBDC4" cx="45.9" cy="15.64" r="1.85"/>
			<circle fill="#AEBDC4" cx="50.22" cy="15.64" r="1.85"/>
			<circle fill="#AEBDC4" cx="54.55" cy="15.64" r="1.85"/>
			<circle fill="#AEBDC4" cx="58.88" cy="15.64" r="1.85"/>
			<circle fill="#AEBDC4" cx="63.21" cy="15.64" r="1.85"/>
			<circle fill="#AEBDC4" cx="67.54" cy="15.64" r="1.85"/>
			<circle fill="#AEBDC4" cx="71.87" cy="15.64" r="1.85"/>
			<circle fill="#AEBDC4" cx="76.2" cy="15.64" r="1.85"/>
			<circle fill="#AEBDC4" cx="80.53" cy="15.64" r="1.85"/>
			<circle fill="#AEBDC4" cx="84.86" cy="15.64" r="1.85"/>
			<circle fill="#AEBDC4" cx="89.19" cy="15.64" r="1.85"/>
			<circle fill="#AEBDC4" cx="93.52" cy="15.64" r="1.85"/>
			<circle fill="#AEBDC4" cx="97.86" cy="15.64" r="1.85"/>
			<circle fill="#AEBDC4" cx="102.19" cy="15.64" r="1.85"/>
			<circle fill="#AEBDC4" cx="106.52" cy="15.64" r="1.85"/>
			<circle fill="#AEBDC4" cx="110.85" cy="15.64" r="1.85"/>
			<circle fill="#AEBDC4" cx="115.18" cy="15.64" r="1.85"/>
		</g>
		<g>
			<circle fill="#AEBDC4" cx="15.65" cy="9.71" r="1.85"/>
			<circle fill="#AEBDC4" cx="19.97" cy="9.71" r="1.85"/>
			<circle fill="#AEBDC4" cx="24.29" cy="9.71" r="1.85"/>
			<circle fill="#AEBDC4" cx="28.61" cy="9.71" r="1.85"/>
			<circle fill="#AEBDC4" cx="32.93" cy="9.71" r="1.85"/>
			<circle fill="#AEBDC4" cx="37.25" cy="9.71" r="1.85"/>
			<circle fill="#AEBDC4" cx="41.58" cy="9.71" r="1.85"/>
			<circle fill="#AEBDC4" cx="45.9" cy="9.71" r="1.85"/>
			<circle fill="#AEBDC4" cx="50.22" cy="9.71" r="1.85"/>
			<circle fill="#AEBDC4" cx="54.55" cy="9.71" r="1.85"/>
			<circle fill="#AEBDC4" cx="58.88" cy="9.71" r="1.85"/>
			<circle fill="#AEBDC4" cx="63.21" cy="9.71" r="1.85"/>
			<circle fill="#AEBDC4" cx="67.54" cy="9.71" r="1.85"/>
			<circle fill="#AEBDC4" cx="71.87" cy="9.71" r="1.85"/>
			<circle fill="#AEBDC4" cx="76.2" cy="9.71" r="1.85"/>
			<circle fill="#AEBDC4" cx="80.53" cy="9.71" r="1.85"/>
			<circle fill="#AEBDC4" cx="84.86" cy="9.71" r="1.85"/>
			<circle fill="#AEBDC4" cx="89.19" cy="9.71" r="1.85"/>
			<circle fill="#AEBDC4" cx="93.52" cy="9.71" r="1.85"/>
			<circle fill="#AEBDC4" cx="97.86" cy="9.71" r="1.85"/>
			<circle fill="#AEBDC4" cx="102.19" cy="9.71" r="1.85"/>
			<circle fill="#AEBDC4" cx="106.52" cy="9.71" r="1.85"/>
			<circle fill="#AEBDC4" cx="110.85" cy="9.71" r="1.85"/>
			<circle fill="#AEBDC4" cx="115.18" cy="9.71" r="1.85"/>
		</g>
		<g>
			<circle fill="#AEBDC4" cx="15.65" cy="21.57" r="1.85"/>
			<circle fill="#AEBDC4" cx="19.97" cy="21.57" r="1.85"/>
			<circle fill="#AEBDC4" cx="24.29" cy="21.57" r="1.85"/>
			<circle fill="#AEBDC4" cx="28.61" cy="21.57" r="1.85"/>
			<circle fill="#AEBDC4" cx="32.93" cy="21.57" r="1.85"/>
			<circle fill="#AEBDC4" cx="37.25" cy="21.57" r="1.85"/>
			<circle fill="#AEBDC4" cx="41.58" cy="21.57" r="1.85"/>
			<circle fill="#AEBDC4" cx="45.9" cy="21.57" r="1.85"/>
			<circle fill="#AEBDC4" cx="50.22" cy="21.57" r="1.85"/>
			<circle fill="#AEBDC4" cx="54.55" cy="21.57" r="1.85"/>
			<circle fill="#AEBDC4" cx="58.88" cy="21.57" r="1.85"/>
			<circle fill="#AEBDC4" cx="63.21" cy="21.57" r="1.85"/>
			<circle fill="#AEBDC4" cx="67.54" cy="21.57" r="1.85"/>
			<circle fill="#AEBDC4" cx="71.87" cy="21.57" r="1.85"/>
			<circle fill="#AEBDC4" cx="76.2" cy="21.57" r="1.85"/>
			<circle fill="#AEBDC4" cx="80.53" cy="21.57" r="1.85"/>
			<circle fill="#AEBDC4" cx="84.86" cy="21.57" r="1.85"/>
			<circle fill="#AEBDC4" cx="89.19" cy="21.57" r="1.85"/>
			<circle fill="#AEBDC4" cx="93.52" cy="21.57" r="1.85"/>
			<circle fill="#AEBDC4" cx="97.86" cy="21.57" r="1.85"/>
			<circle fill="#AEBDC4" cx="102.19" cy="21.57" r="1.85"/>
			<circle fill="#AEBDC4" cx="106.52" cy="21.57" r="1.85"/>
			<circle fill="#AEBDC4" cx="110.85" cy="21.57" r="1.85"/>
			<circle fill="#AEBDC4" cx="115.18" cy="21.57" r="1.85"/>
		</g>
	</g>
	<g onclick="this.parentNode.a_text=this;">
		<text transform="matrix(0.9999 0 0 1 59.8182 17.2178)"><tspan x="0" y="0" font-family="'OpenSans-Semibold'" font-size="6.3996px">W 6</tspan><tspan x="-2.48" y="7.2" font-family="'OpenSans-Semibold'" font-size="6.3996px">(</tspan><tspan x="-0.44" y="7.2" font-family="'OpenSans-Semibold'" font-size="6.3996px">н</tspan><tspan x="3.91" y="7.2" font-family="'OpenSans-Semibold'" font-size="6.3996px">и</tspan><tspan x="8.47" y="7.2" font-family="'OpenSans-Semibold'" font-size="6.3996px">з</tspan><tspan x="11.82" y="7.2" font-family="'OpenSans-Semibold'" font-size="6.3996px">)</tspan></text>
	</g>
</g>
</svg>
