<svg xmlns="http://www.w3.org/2000/svg" viewBox="0 0 130 172">
    <path fill="#F1F3F4" stroke="#BCC8CE" stroke-width=".4" stroke-linecap="round" stroke-miterlimit="10" d="M130.47.67v59.61H.52V.67h129.95z"/>
    <g fill="#AEBDC4">
        <circle cx="15.65" cy="51.23" r="1.85"/>
        <circle cx="19.97" cy="51.23" r="1.85"/>
        <circle cx="24.29" cy="51.23" r="1.85"/>
        <circle cx="28.61" cy="51.23" r="1.85"/>
        <circle cx="32.93" cy="51.23" r="1.85"/>
        <circle cx="37.25" cy="51.23" r="1.85"/>
        <circle cx="41.58" cy="51.23" r="1.85"/>
        <circle cx="45.9" cy="51.23" r="1.85"/>
        <circle cx="50.22" cy="51.23" r="1.85"/>
        <circle cx="54.55" cy="51.23" r="1.85"/>
        <circle cx="58.88" cy="51.23" r="1.85"/>
        <circle cx="63.21" cy="51.23" r="1.85"/>
        <circle cx="67.54" cy="51.23" r="1.85"/>
        <circle cx="71.87" cy="51.23" r="1.85"/>
        <circle cx="76.2" cy="51.23" r="1.85"/>
        <circle cx="80.53" cy="51.23" r="1.85"/>
        <circle cx="84.86" cy="51.23" r="1.85"/>
        <circle cx="89.19" cy="51.23" r="1.85"/>
        <circle cx="93.52" cy="51.23" r="1.85"/>
        <circle cx="97.86" cy="51.23" r="1.85"/>
        <circle cx="102.19" cy="51.23" r="1.85"/>
        <circle cx="106.52" cy="51.23" r="1.85"/>
        <circle cx="110.85" cy="51.23" r="1.85"/>
        <circle cx="115.18" cy="51.23" r="1.85"/>
        <circle cx="15.65" cy="45.3" r="1.85"/>
        <circle cx="19.97" cy="45.3" r="1.85"/>
        <circle cx="24.29" cy="45.3" r="1.85"/>
        <circle cx="28.61" cy="45.3" r="1.85"/>
        <circle cx="32.93" cy="45.3" r="1.85"/>
        <circle cx="37.25" cy="45.3" r="1.85"/>
        <circle cx="41.58" cy="45.3" r="1.85"/>
        <circle cx="45.9" cy="45.3" r="1.85"/>
        <circle cx="50.22" cy="45.3" r="1.85"/>
        <circle cx="54.55" cy="45.3" r="1.85"/>
        <circle cx="58.88" cy="45.3" r="1.85"/>
        <circle cx="63.21" cy="45.3" r="1.85"/>
        <circle cx="67.54" cy="45.3" r="1.85"/>
        <circle cx="71.87" cy="45.3" r="1.85"/>
        <circle cx="76.2" cy="45.3" r="1.85"/>
        <circle cx="80.53" cy="45.3" r="1.85"/>
        <circle cx="84.86" cy="45.3" r="1.85"/>
        <circle cx="89.19" cy="45.3" r="1.85"/>
        <circle cx="93.52" cy="45.3" r="1.85"/>
        <circle cx="97.86" cy="45.3" r="1.85"/>
        <circle cx="102.19" cy="45.3" r="1.85"/>
        <circle cx="106.52" cy="45.3" r="1.85"/>
        <circle cx="110.85" cy="45.3" r="1.85"/>
        <circle cx="115.18" cy="45.3" r="1.85"/>
        <circle cx="15.65" cy="39.37" r="1.85"/>
        <circle cx="19.97" cy="39.37" r="1.85"/>
        <circle cx="24.29" cy="39.37" r="1.85"/>
        <circle cx="28.61" cy="39.37" r="1.85"/>
        <circle cx="32.93" cy="39.37" r="1.85"/>
        <circle cx="37.25" cy="39.37" r="1.85"/>
        <circle cx="41.58" cy="39.37" r="1.85"/>
        <circle cx="45.9" cy="39.37" r="1.85"/>
        <circle cx="50.22" cy="39.37" r="1.85"/>
        <circle cx="54.55" cy="39.37" r="1.85"/>
        <circle cx="58.88" cy="39.37" r="1.85"/>
        <circle cx="63.21" cy="39.37" r="1.85"/>
        <circle cx="67.54" cy="39.37" r="1.85"/>
        <circle cx="71.87" cy="39.37" r="1.85"/>
        <circle cx="76.2" cy="39.37" r="1.85"/>
        <circle cx="80.53" cy="39.37" r="1.85"/>
        <circle cx="84.86" cy="39.37" r="1.85"/>
        <circle cx="89.19" cy="39.37" r="1.85"/>
        <circle cx="93.52" cy="39.37" r="1.85"/>
        <circle cx="97.86" cy="39.37" r="1.85"/>
        <circle cx="102.19" cy="39.37" r="1.85"/>
        <circle cx="106.52" cy="39.37" r="1.85"/>
        <circle cx="110.85" cy="39.37" r="1.85"/>
        <circle cx="115.18" cy="39.37" r="1.85"/>
        <g>
            <circle cx="15.65" cy="33.44" r="1.85"/>
            <circle cx="19.97" cy="33.44" r="1.85"/>
            <circle cx="24.29" cy="33.44" r="1.85"/>
            <circle cx="28.61" cy="33.44" r="1.85"/>
            <circle cx="32.93" cy="33.44" r="1.85"/>
            <circle cx="37.25" cy="33.44" r="1.85"/>
            <circle cx="41.58" cy="33.44" r="1.85"/>
            <circle cx="45.9" cy="33.44" r="1.85"/>
            <circle cx="50.22" cy="33.44" r="1.85"/>
            <circle cx="54.55" cy="33.44" r="1.85"/>
            <circle cx="58.88" cy="33.44" r="1.85"/>
            <circle cx="63.21" cy="33.44" r="1.85"/>
            <circle cx="67.54" cy="33.44" r="1.85"/>
            <circle cx="71.87" cy="33.44" r="1.85"/>
            <circle cx="76.2" cy="33.44" r="1.85"/>
            <circle cx="80.53" cy="33.44" r="1.85"/>
            <circle cx="84.86" cy="33.44" r="1.85"/>
            <circle cx="89.19" cy="33.44" r="1.85"/>
            <circle cx="93.52" cy="33.44" r="1.85"/>
            <circle cx="97.86" cy="33.44" r="1.85"/>
            <circle cx="102.19" cy="33.44" r="1.85"/>
            <circle cx="106.52" cy="33.44" r="1.85"/>
            <circle cx="110.85" cy="33.44" r="1.85"/>
            <circle cx="115.18" cy="33.44" r="1.85"/>
        </g>
        <g>
            <circle cx="15.65" cy="27.5" r="1.85"/>
            <circle cx="19.97" cy="27.5" r="1.85"/>
            <circle cx="24.29" cy="27.5" r="1.85"/>
            <circle cx="28.61" cy="27.5" r="1.85"/>
            <circle cx="32.93" cy="27.5" r="1.85"/>
            <circle cx="37.25" cy="27.5" r="1.85"/>
            <circle cx="41.58" cy="27.5" r="1.85"/>
            <circle cx="45.9" cy="27.5" r="1.85"/>
            <circle cx="50.22" cy="27.5" r="1.85"/>
            <circle cx="54.55" cy="27.5" r="1.85"/>
            <circle cx="58.88" cy="27.5" r="1.85"/>
            <circle cx="63.21" cy="27.5" r="1.85"/>
            <circle cx="67.54" cy="27.5" r="1.85"/>
            <circle cx="71.87" cy="27.5" r="1.85"/>
            <circle cx="76.2" cy="27.5" r="1.85"/>
            <circle cx="80.53" cy="27.5" r="1.85"/>
            <circle cx="84.86" cy="27.5" r="1.85"/>
            <circle cx="89.19" cy="27.5" r="1.85"/>
            <circle cx="93.52" cy="27.5" r="1.85"/>
            <circle cx="97.86" cy="27.5" r="1.85"/>
            <circle cx="102.19" cy="27.5" r="1.85"/>
            <circle cx="106.52" cy="27.5" r="1.85"/>
            <circle cx="110.85" cy="27.5" r="1.85"/>
            <circle cx="115.18" cy="27.5" r="1.85"/>
        </g>
        <g>
            <circle cx="15.65" cy="15.64" r="1.85"/>
            <circle cx="19.97" cy="15.64" r="1.85"/>
            <circle cx="24.29" cy="15.64" r="1.85"/>
            <circle cx="28.61" cy="15.64" r="1.85"/>
            <circle cx="32.93" cy="15.64" r="1.85"/>
            <circle cx="37.25" cy="15.64" r="1.85"/>
            <circle cx="41.58" cy="15.64" r="1.85"/>
            <circle cx="45.9" cy="15.64" r="1.85"/>
            <circle cx="50.22" cy="15.64" r="1.85"/>
            <circle cx="54.55" cy="15.64" r="1.85"/>
            <circle cx="58.88" cy="15.64" r="1.85"/>
            <circle cx="63.21" cy="15.64" r="1.85"/>
            <circle cx="67.54" cy="15.64" r="1.85"/>
            <circle cx="71.87" cy="15.64" r="1.85"/>
            <circle cx="76.2" cy="15.64" r="1.85"/>
            <circle cx="80.53" cy="15.64" r="1.85"/>
            <circle cx="84.86" cy="15.64" r="1.85"/>
            <circle cx="89.19" cy="15.64" r="1.85"/>
            <circle cx="93.52" cy="15.64" r="1.85"/>
            <circle cx="97.86" cy="15.64" r="1.85"/>
            <circle cx="102.19" cy="15.64" r="1.85"/>
            <circle cx="106.52" cy="15.64" r="1.85"/>
            <circle cx="110.85" cy="15.64" r="1.85"/>
            <circle cx="115.18" cy="15.64" r="1.85"/>
        </g>
        <g>
            <circle cx="15.65" cy="9.71" r="1.85"/>
            <circle cx="19.97" cy="9.71" r="1.85"/>
            <circle cx="24.29" cy="9.71" r="1.85"/>
            <circle cx="28.61" cy="9.71" r="1.85"/>
            <circle cx="32.93" cy="9.71" r="1.85"/>
            <circle cx="37.25" cy="9.71" r="1.85"/>
            <circle cx="41.58" cy="9.71" r="1.85"/>
            <circle cx="45.9" cy="9.71" r="1.85"/>
            <circle cx="50.22" cy="9.71" r="1.85"/>
            <circle cx="54.55" cy="9.71" r="1.85"/>
            <circle cx="58.88" cy="9.71" r="1.85"/>
            <circle cx="63.21" cy="9.71" r="1.85"/>
            <circle cx="67.54" cy="9.71" r="1.85"/>
            <circle cx="71.87" cy="9.71" r="1.85"/>
            <circle cx="76.2" cy="9.71" r="1.85"/>
            <circle cx="80.53" cy="9.71" r="1.85"/>
            <circle cx="84.86" cy="9.71" r="1.85"/>
            <circle cx="89.19" cy="9.71" r="1.85"/>
            <circle cx="93.52" cy="9.71" r="1.85"/>
            <circle cx="97.86" cy="9.71" r="1.85"/>
            <circle cx="102.19" cy="9.71" r="1.85"/>
            <circle cx="106.52" cy="9.71" r="1.85"/>
            <circle cx="110.85" cy="9.71" r="1.85"/>
            <circle cx="115.18" cy="9.71" r="1.85"/>
        </g>
        <g>
            <circle cx="15.65" cy="21.57" r="1.85"/>
            <circle cx="19.97" cy="21.57" r="1.85"/>
            <circle cx="24.29" cy="21.57" r="1.85"/>
            <circle cx="28.61" cy="21.57" r="1.85"/>
            <circle cx="32.93" cy="21.57" r="1.85"/>
            <circle cx="37.25" cy="21.57" r="1.85"/>
            <circle cx="41.58" cy="21.57" r="1.85"/>
            <circle cx="45.9" cy="21.57" r="1.85"/>
            <circle cx="50.22" cy="21.57" r="1.85"/>
            <circle cx="54.55" cy="21.57" r="1.85"/>
            <circle cx="58.88" cy="21.57" r="1.85"/>
            <circle cx="63.21" cy="21.57" r="1.85"/>
            <circle cx="67.54" cy="21.57" r="1.85"/>
            <circle cx="71.87" cy="21.57" r="1.85"/>
            <circle cx="76.2" cy="21.57" r="1.85"/>
            <circle cx="80.53" cy="21.57" r="1.85"/>
            <circle cx="84.86" cy="21.57" r="1.85"/>
            <circle cx="89.19" cy="21.57" r="1.85"/>
            <circle cx="93.52" cy="21.57" r="1.85"/>
            <circle cx="97.86" cy="21.57" r="1.85"/>
            <circle cx="102.19" cy="21.57" r="1.85"/>
            <circle cx="106.52" cy="21.57" r="1.85"/>
            <circle cx="110.85" cy="21.57" r="1.85"/>
            <circle cx="115.18" cy="21.57" r="1.85"/>
        </g>
    </g>
</svg>
