<?xml version="1.0" encoding="utf-8"?>
<!-- Generator: Adobe Illustrator 23.0.1, SVG Export Plug-In . SVG Version: 6.00 Build 0)  -->
<svg version="1.1" id="Layer_1" xmlns="http://www.w3.org/2000/svg" xmlns:xlink="http://www.w3.org/1999/xlink" x="0px" y="0px"
	 viewBox="0 0 131 219" enable-background="new 0 0 131 219" xml:space="preserve">
<g onclick="&quot;W 6 (верх)&quot;;">
	
		<polygon fill="#F1F3F4" stroke="#BCC8CE" stroke-width="0.4" stroke-linecap="round" stroke-miterlimit="10" points="
		0.5,218.6 0.5,10.8 130.5,0.4 130.5,218.6 	"/>
	<g>
		<circle fill="#AEBDC4" cx="11.4" cy="209.6" r="1.9"/>
		<circle fill="#AEBDC4" cx="15.7" cy="209.6" r="1.9"/>
		<circle fill="#AEBDC4" cx="20" cy="209.6" r="1.9"/>
		<circle fill="#AEBDC4" cx="24.4" cy="209.6" r="1.9"/>
		<circle fill="#AEBDC4" cx="28.7" cy="209.6" r="1.9"/>
		<circle fill="#AEBDC4" cx="33" cy="209.6" r="1.9"/>
		<circle fill="#AEBDC4" cx="37.3" cy="209.6" r="1.9"/>
		<circle fill="#AEBDC4" cx="41.7" cy="209.6" r="1.9"/>
		<circle fill="#AEBDC4" cx="46" cy="209.6" r="1.9"/>
		<circle fill="#AEBDC4" cx="50.3" cy="209.6" r="1.9"/>
		<circle fill="#AEBDC4" cx="54.6" cy="209.6" r="1.9"/>
		<circle fill="#AEBDC4" cx="59" cy="209.6" r="1.9"/>
		<circle fill="#AEBDC4" cx="63.3" cy="209.6" r="1.9"/>
		<circle fill="#AEBDC4" cx="67.6" cy="209.6" r="1.9"/>
		<circle fill="#AEBDC4" cx="72" cy="209.6" r="1.9"/>
		<circle fill="#AEBDC4" cx="76.3" cy="209.6" r="1.9"/>
		<circle fill="#AEBDC4" cx="80.6" cy="209.6" r="1.9"/>
		<circle fill="#AEBDC4" cx="84.9" cy="209.6" r="1.9"/>
		<circle fill="#AEBDC4" cx="89.3" cy="209.6" r="1.9"/>
		<circle fill="#AEBDC4" cx="93.6" cy="209.6" r="1.9"/>
		<circle fill="#AEBDC4" cx="97.9" cy="209.6" r="1.9"/>
		<circle fill="#AEBDC4" cx="102.3" cy="209.6" r="1.9"/>
		<circle fill="#AEBDC4" cx="106.6" cy="209.6" r="1.9"/>
		<circle fill="#AEBDC4" cx="110.9" cy="209.6" r="1.9"/>
		<circle fill="#AEBDC4" cx="115.3" cy="209.6" r="1.9"/>
		<circle fill="#AEBDC4" cx="119.6" cy="209.6" r="1.9"/>
	</g>
	<g>
		<circle fill="#AEBDC4" cx="11.4" cy="203.6" r="1.9"/>
		<circle fill="#AEBDC4" cx="15.7" cy="203.6" r="1.9"/>
		<circle fill="#AEBDC4" cx="20" cy="203.6" r="1.9"/>
		<circle fill="#AEBDC4" cx="24.4" cy="203.6" r="1.9"/>
		<circle fill="#AEBDC4" cx="28.7" cy="203.6" r="1.9"/>
		<circle fill="#AEBDC4" cx="33" cy="203.6" r="1.9"/>
		<circle fill="#AEBDC4" cx="37.3" cy="203.6" r="1.9"/>
		<circle fill="#AEBDC4" cx="41.7" cy="203.6" r="1.9"/>
		<circle fill="#AEBDC4" cx="46" cy="203.6" r="1.9"/>
		<circle fill="#AEBDC4" cx="50.3" cy="203.6" r="1.9"/>
		<circle fill="#AEBDC4" cx="54.6" cy="203.6" r="1.9"/>
		<circle fill="#AEBDC4" cx="59" cy="203.6" r="1.9"/>
		<circle fill="#AEBDC4" cx="63.3" cy="203.6" r="1.9"/>
		<circle fill="#AEBDC4" cx="67.6" cy="203.6" r="1.9"/>
		<circle fill="#AEBDC4" cx="72" cy="203.6" r="1.9"/>
		<circle fill="#AEBDC4" cx="76.3" cy="203.6" r="1.9"/>
		<circle fill="#AEBDC4" cx="80.6" cy="203.6" r="1.9"/>
		<circle fill="#AEBDC4" cx="84.9" cy="203.6" r="1.9"/>
		<circle fill="#AEBDC4" cx="89.3" cy="203.6" r="1.9"/>
		<circle fill="#AEBDC4" cx="93.6" cy="203.6" r="1.9"/>
		<circle fill="#AEBDC4" cx="97.9" cy="203.6" r="1.9"/>
		<circle fill="#AEBDC4" cx="102.3" cy="203.6" r="1.9"/>
		<circle fill="#AEBDC4" cx="106.6" cy="203.6" r="1.9"/>
		<circle fill="#AEBDC4" cx="110.9" cy="203.6" r="1.9"/>
		<circle fill="#AEBDC4" cx="115.3" cy="203.6" r="1.9"/>
		<circle fill="#AEBDC4" cx="119.6" cy="203.6" r="1.9"/>
	</g>
	<g>
		<circle fill="#AEBDC4" cx="11.4" cy="198.5" r="1.9"/>
		<circle fill="#AEBDC4" cx="15.7" cy="198.5" r="1.9"/>
		<circle fill="#AEBDC4" cx="20" cy="198.5" r="1.9"/>
		<circle fill="#AEBDC4" cx="24.4" cy="198.5" r="1.9"/>
		<circle fill="#AEBDC4" cx="28.7" cy="198.5" r="1.9"/>
		<circle fill="#AEBDC4" cx="33" cy="198.5" r="1.9"/>
		<circle fill="#AEBDC4" cx="37.3" cy="198.5" r="1.9"/>
		<circle fill="#AEBDC4" cx="41.7" cy="198.5" r="1.9"/>
		<circle fill="#AEBDC4" cx="46" cy="198.5" r="1.9"/>
		<circle fill="#AEBDC4" cx="50.3" cy="198.5" r="1.9"/>
		<circle fill="#AEBDC4" cx="54.6" cy="198.5" r="1.9"/>
		<circle fill="#AEBDC4" cx="59" cy="198.5" r="1.9"/>
		<circle fill="#AEBDC4" cx="63.3" cy="198.5" r="1.9"/>
		<circle fill="#AEBDC4" cx="67.6" cy="198.5" r="1.9"/>
		<circle fill="#AEBDC4" cx="72" cy="198.5" r="1.9"/>
		<circle fill="#AEBDC4" cx="76.3" cy="198.5" r="1.9"/>
		<circle fill="#AEBDC4" cx="80.6" cy="198.5" r="1.9"/>
		<circle fill="#AEBDC4" cx="84.9" cy="198.5" r="1.9"/>
		<circle fill="#AEBDC4" cx="89.3" cy="198.5" r="1.9"/>
		<circle fill="#AEBDC4" cx="93.6" cy="198.5" r="1.9"/>
		<circle fill="#AEBDC4" cx="97.9" cy="198.5" r="1.9"/>
		<circle fill="#AEBDC4" cx="102.3" cy="198.5" r="1.9"/>
		<circle fill="#AEBDC4" cx="106.6" cy="198.5" r="1.9"/>
		<circle fill="#AEBDC4" cx="110.9" cy="198.5" r="1.9"/>
		<circle fill="#AEBDC4" cx="115.3" cy="198.5" r="1.9"/>
		<circle fill="#AEBDC4" cx="119.6" cy="198.5" r="1.9"/>
	</g>
	<g>
		<circle fill="#AEBDC4" cx="11.4" cy="192.6" r="1.9"/>
		<circle fill="#AEBDC4" cx="15.7" cy="192.6" r="1.9"/>
		<circle fill="#AEBDC4" cx="20" cy="192.6" r="1.9"/>
		<circle fill="#AEBDC4" cx="24.4" cy="192.6" r="1.9"/>
		<circle fill="#AEBDC4" cx="28.7" cy="192.6" r="1.9"/>
		<circle fill="#AEBDC4" cx="33" cy="192.6" r="1.9"/>
		<circle fill="#AEBDC4" cx="37.3" cy="192.6" r="1.9"/>
		<circle fill="#AEBDC4" cx="41.7" cy="192.6" r="1.9"/>
		<circle fill="#AEBDC4" cx="46" cy="192.6" r="1.9"/>
		<circle fill="#AEBDC4" cx="50.3" cy="192.6" r="1.9"/>
		<circle fill="#AEBDC4" cx="54.6" cy="192.6" r="1.9"/>
		<circle fill="#AEBDC4" cx="59" cy="192.6" r="1.9"/>
		<circle fill="#AEBDC4" cx="63.3" cy="192.6" r="1.9"/>
		<circle fill="#AEBDC4" cx="67.6" cy="192.6" r="1.9"/>
		<circle fill="#AEBDC4" cx="72" cy="192.6" r="1.9"/>
		<circle fill="#AEBDC4" cx="76.3" cy="192.6" r="1.9"/>
		<circle fill="#AEBDC4" cx="80.6" cy="192.6" r="1.9"/>
		<circle fill="#AEBDC4" cx="84.9" cy="192.6" r="1.9"/>
		<circle fill="#AEBDC4" cx="89.3" cy="192.6" r="1.9"/>
		<circle fill="#AEBDC4" cx="93.6" cy="192.6" r="1.9"/>
		<circle fill="#AEBDC4" cx="97.9" cy="192.6" r="1.9"/>
		<circle fill="#AEBDC4" cx="102.3" cy="192.6" r="1.9"/>
		<circle fill="#AEBDC4" cx="106.6" cy="192.6" r="1.9"/>
		<circle fill="#AEBDC4" cx="110.9" cy="192.6" r="1.9"/>
		<circle fill="#AEBDC4" cx="115.3" cy="192.6" r="1.9"/>
		<circle fill="#AEBDC4" cx="119.6" cy="192.6" r="1.9"/>
	</g>
	<g>
		<circle fill="#AEBDC4" cx="11.4" cy="186.6" r="1.9"/>
		<circle fill="#AEBDC4" cx="15.7" cy="186.6" r="1.9"/>
		<circle fill="#AEBDC4" cx="20" cy="186.6" r="1.9"/>
		<circle fill="#AEBDC4" cx="24.4" cy="186.6" r="1.9"/>
		<circle fill="#AEBDC4" cx="28.7" cy="186.6" r="1.9"/>
		<circle fill="#AEBDC4" cx="33" cy="186.6" r="1.9"/>
		<circle fill="#AEBDC4" cx="37.3" cy="186.6" r="1.9"/>
		<circle fill="#AEBDC4" cx="41.7" cy="186.6" r="1.9"/>
		<circle fill="#AEBDC4" cx="46" cy="186.6" r="1.9"/>
		<circle fill="#AEBDC4" cx="50.3" cy="186.6" r="1.9"/>
		<circle fill="#AEBDC4" cx="54.6" cy="186.6" r="1.9"/>
		<circle fill="#AEBDC4" cx="59" cy="186.6" r="1.9"/>
		<circle fill="#AEBDC4" cx="63.3" cy="186.6" r="1.9"/>
		<circle fill="#AEBDC4" cx="67.6" cy="186.6" r="1.9"/>
		<circle fill="#AEBDC4" cx="72" cy="186.6" r="1.9"/>
		<circle fill="#AEBDC4" cx="76.3" cy="186.6" r="1.9"/>
		<circle fill="#AEBDC4" cx="80.6" cy="186.6" r="1.9"/>
		<circle fill="#AEBDC4" cx="84.9" cy="186.6" r="1.9"/>
		<circle fill="#AEBDC4" cx="89.3" cy="186.6" r="1.9"/>
		<circle fill="#AEBDC4" cx="93.6" cy="186.6" r="1.9"/>
		<circle fill="#AEBDC4" cx="97.9" cy="186.6" r="1.9"/>
		<circle fill="#AEBDC4" cx="102.3" cy="186.6" r="1.9"/>
		<circle fill="#AEBDC4" cx="106.6" cy="186.6" r="1.9"/>
		<circle fill="#AEBDC4" cx="110.9" cy="186.6" r="1.9"/>
		<circle fill="#AEBDC4" cx="115.3" cy="186.6" r="1.9"/>
		<circle fill="#AEBDC4" cx="119.6" cy="186.6" r="1.9"/>
	</g>
	<g>
		<circle fill="#AEBDC4" cx="20.1" cy="180.7" r="1.9"/>
		<circle fill="#AEBDC4" cx="24.4" cy="180.7" r="1.9"/>
		<circle fill="#AEBDC4" cx="28.7" cy="180.7" r="1.9"/>
		<circle fill="#AEBDC4" cx="33" cy="180.7" r="1.9"/>
		<circle fill="#AEBDC4" cx="37.3" cy="180.7" r="1.9"/>
		<circle fill="#AEBDC4" cx="41.7" cy="180.7" r="1.9"/>
		<circle fill="#AEBDC4" cx="46" cy="180.7" r="1.9"/>
		<circle fill="#AEBDC4" cx="50.3" cy="180.7" r="1.9"/>
		<circle fill="#AEBDC4" cx="54.6" cy="180.7" r="1.9"/>
		<circle fill="#AEBDC4" cx="59" cy="180.7" r="1.9"/>
		<circle fill="#AEBDC4" cx="63.3" cy="180.7" r="1.9"/>
		<circle fill="#AEBDC4" cx="67.6" cy="180.7" r="1.9"/>
		<circle fill="#AEBDC4" cx="72" cy="180.7" r="1.9"/>
		<circle fill="#AEBDC4" cx="76.3" cy="180.7" r="1.9"/>
		<circle fill="#AEBDC4" cx="80.6" cy="180.7" r="1.9"/>
		<circle fill="#AEBDC4" cx="84.9" cy="180.7" r="1.9"/>
		<circle fill="#AEBDC4" cx="89.3" cy="180.7" r="1.9"/>
		<circle fill="#AEBDC4" cx="93.6" cy="180.7" r="1.9"/>
		<circle fill="#AEBDC4" cx="97.9" cy="180.7" r="1.9"/>
		<circle fill="#AEBDC4" cx="102.3" cy="180.7" r="1.9"/>
		<circle fill="#AEBDC4" cx="106.6" cy="180.7" r="1.9"/>
		<circle fill="#AEBDC4" cx="110.9" cy="180.7" r="1.9"/>
		<circle fill="#AEBDC4" cx="115.3" cy="180.7" r="1.9"/>
		<circle fill="#AEBDC4" cx="119.6" cy="180.7" r="1.9"/>
	</g>
	<g>
		<circle fill="#AEBDC4" cx="20.1" cy="174.8" r="1.9"/>
		<circle fill="#AEBDC4" cx="24.4" cy="174.8" r="1.9"/>
		<circle fill="#AEBDC4" cx="28.7" cy="174.8" r="1.9"/>
		<circle fill="#AEBDC4" cx="33" cy="174.8" r="1.9"/>
		<circle fill="#AEBDC4" cx="37.3" cy="174.8" r="1.9"/>
		<circle fill="#AEBDC4" cx="41.7" cy="174.8" r="1.9"/>
		<circle fill="#AEBDC4" cx="46" cy="174.8" r="1.9"/>
		<circle fill="#AEBDC4" cx="50.3" cy="174.8" r="1.9"/>
		<circle fill="#AEBDC4" cx="54.6" cy="174.8" r="1.9"/>
		<circle fill="#AEBDC4" cx="59" cy="174.8" r="1.9"/>
		<circle fill="#AEBDC4" cx="63.3" cy="174.8" r="1.9"/>
		<circle fill="#AEBDC4" cx="67.6" cy="174.8" r="1.9"/>
		<circle fill="#AEBDC4" cx="72" cy="174.8" r="1.9"/>
		<circle fill="#AEBDC4" cx="76.3" cy="174.8" r="1.9"/>
		<circle fill="#AEBDC4" cx="80.6" cy="174.8" r="1.9"/>
		<circle fill="#AEBDC4" cx="84.9" cy="174.8" r="1.9"/>
		<circle fill="#AEBDC4" cx="89.3" cy="174.8" r="1.9"/>
		<circle fill="#AEBDC4" cx="93.6" cy="174.8" r="1.9"/>
		<circle fill="#AEBDC4" cx="97.9" cy="174.8" r="1.9"/>
		<circle fill="#AEBDC4" cx="102.3" cy="174.8" r="1.9"/>
		<circle fill="#AEBDC4" cx="106.6" cy="174.8" r="1.9"/>
		<circle fill="#AEBDC4" cx="110.9" cy="174.8" r="1.9"/>
		<circle fill="#AEBDC4" cx="115.3" cy="174.8" r="1.9"/>
		<circle fill="#AEBDC4" cx="119.6" cy="174.8" r="1.9"/>
	</g>
	<g>
		<circle fill="#AEBDC4" cx="20.1" cy="168.9" r="1.9"/>
		<circle fill="#AEBDC4" cx="24.4" cy="168.9" r="1.9"/>
		<circle fill="#AEBDC4" cx="28.7" cy="168.9" r="1.9"/>
		<circle fill="#AEBDC4" cx="33" cy="168.9" r="1.9"/>
		<circle fill="#AEBDC4" cx="37.3" cy="168.9" r="1.9"/>
		<circle fill="#AEBDC4" cx="41.7" cy="168.9" r="1.9"/>
		<circle fill="#AEBDC4" cx="46" cy="168.9" r="1.9"/>
		<circle fill="#AEBDC4" cx="50.3" cy="168.9" r="1.9"/>
		<circle fill="#AEBDC4" cx="54.6" cy="168.9" r="1.9"/>
		<circle fill="#AEBDC4" cx="59" cy="168.9" r="1.9"/>
		<circle fill="#AEBDC4" cx="63.3" cy="168.9" r="1.9"/>
		<circle fill="#AEBDC4" cx="67.6" cy="168.9" r="1.9"/>
		<circle fill="#AEBDC4" cx="72" cy="168.9" r="1.9"/>
		<circle fill="#AEBDC4" cx="76.3" cy="168.9" r="1.9"/>
		<circle fill="#AEBDC4" cx="80.6" cy="168.9" r="1.9"/>
		<circle fill="#AEBDC4" cx="84.9" cy="168.9" r="1.9"/>
		<circle fill="#AEBDC4" cx="89.3" cy="168.9" r="1.9"/>
		<circle fill="#AEBDC4" cx="93.6" cy="168.9" r="1.9"/>
		<circle fill="#AEBDC4" cx="97.9" cy="168.9" r="1.9"/>
		<circle fill="#AEBDC4" cx="102.3" cy="168.9" r="1.9"/>
		<circle fill="#AEBDC4" cx="106.6" cy="168.9" r="1.9"/>
		<circle fill="#AEBDC4" cx="110.9" cy="168.9" r="1.9"/>
		<circle fill="#AEBDC4" cx="115.3" cy="168.9" r="1.9"/>
		<circle fill="#AEBDC4" cx="119.6" cy="168.9" r="1.9"/>
	</g>
	<g>
		<circle fill="#AEBDC4" cx="20.1" cy="162.9" r="1.9"/>
		<circle fill="#AEBDC4" cx="24.4" cy="162.9" r="1.9"/>
		<circle fill="#AEBDC4" cx="28.7" cy="162.9" r="1.9"/>
		<circle fill="#AEBDC4" cx="33" cy="162.9" r="1.9"/>
		<circle fill="#AEBDC4" cx="37.3" cy="162.9" r="1.9"/>
		<circle fill="#AEBDC4" cx="41.7" cy="162.9" r="1.9"/>
		<circle fill="#AEBDC4" cx="46" cy="162.9" r="1.9"/>
		<circle fill="#AEBDC4" cx="50.3" cy="162.9" r="1.9"/>
		<circle fill="#AEBDC4" cx="54.6" cy="162.9" r="1.9"/>
		<circle fill="#AEBDC4" cx="59" cy="162.9" r="1.9"/>
		<circle fill="#AEBDC4" cx="63.3" cy="162.9" r="1.9"/>
		<circle fill="#AEBDC4" cx="67.6" cy="162.9" r="1.9"/>
		<circle fill="#AEBDC4" cx="72" cy="162.9" r="1.9"/>
		<circle fill="#AEBDC4" cx="76.3" cy="162.9" r="1.9"/>
		<circle fill="#AEBDC4" cx="80.6" cy="162.9" r="1.9"/>
		<circle fill="#AEBDC4" cx="84.9" cy="162.9" r="1.9"/>
		<circle fill="#AEBDC4" cx="89.3" cy="162.9" r="1.9"/>
		<circle fill="#AEBDC4" cx="93.6" cy="162.9" r="1.9"/>
		<circle fill="#AEBDC4" cx="97.9" cy="162.9" r="1.9"/>
		<circle fill="#AEBDC4" cx="102.3" cy="162.9" r="1.9"/>
		<circle fill="#AEBDC4" cx="106.6" cy="162.9" r="1.9"/>
		<circle fill="#AEBDC4" cx="110.9" cy="162.9" r="1.9"/>
		<circle fill="#AEBDC4" cx="115.3" cy="162.9" r="1.9"/>
		<circle fill="#AEBDC4" cx="119.6" cy="162.9" r="1.9"/>
	</g>
	<g>
		<circle fill="#AEBDC4" cx="20.1" cy="157" r="1.9"/>
		<circle fill="#AEBDC4" cx="24.4" cy="157" r="1.9"/>
		<circle fill="#AEBDC4" cx="28.7" cy="157" r="1.9"/>
		<circle fill="#AEBDC4" cx="33" cy="157" r="1.9"/>
		<circle fill="#AEBDC4" cx="37.3" cy="157" r="1.9"/>
		<circle fill="#AEBDC4" cx="41.7" cy="157" r="1.9"/>
		<circle fill="#AEBDC4" cx="46" cy="157" r="1.9"/>
		<circle fill="#AEBDC4" cx="50.3" cy="157" r="1.9"/>
		<circle fill="#AEBDC4" cx="54.6" cy="157" r="1.9"/>
		<circle fill="#AEBDC4" cx="59" cy="157" r="1.9"/>
		<circle fill="#AEBDC4" cx="63.3" cy="157" r="1.9"/>
		<circle fill="#AEBDC4" cx="67.6" cy="157" r="1.9"/>
		<circle fill="#AEBDC4" cx="72" cy="157" r="1.9"/>
		<circle fill="#AEBDC4" cx="76.3" cy="157" r="1.9"/>
		<circle fill="#AEBDC4" cx="80.6" cy="157" r="1.9"/>
		<circle fill="#AEBDC4" cx="84.9" cy="157" r="1.9"/>
		<circle fill="#AEBDC4" cx="89.3" cy="157" r="1.9"/>
		<circle fill="#AEBDC4" cx="93.6" cy="157" r="1.9"/>
		<circle fill="#AEBDC4" cx="97.9" cy="157" r="1.9"/>
		<circle fill="#AEBDC4" cx="102.3" cy="157" r="1.9"/>
		<circle fill="#AEBDC4" cx="106.6" cy="157" r="1.9"/>
		<circle fill="#AEBDC4" cx="110.9" cy="157" r="1.9"/>
		<circle fill="#AEBDC4" cx="115.3" cy="157" r="1.9"/>
		<circle fill="#AEBDC4" cx="119.6" cy="157" r="1.9"/>
	</g>
	<g>
		<circle fill="#AEBDC4" cx="11.4" cy="151.1" r="1.9"/>
		<circle fill="#AEBDC4" cx="15.7" cy="151.1" r="1.9"/>
		<circle fill="#AEBDC4" cx="20" cy="151.1" r="1.9"/>
		<circle fill="#AEBDC4" cx="24.4" cy="151.1" r="1.9"/>
		<circle fill="#AEBDC4" cx="28.7" cy="151.1" r="1.9"/>
		<circle fill="#AEBDC4" cx="33" cy="151.1" r="1.9"/>
		<circle fill="#AEBDC4" cx="37.3" cy="151.1" r="1.9"/>
		<circle fill="#AEBDC4" cx="41.7" cy="151.1" r="1.9"/>
		<circle fill="#AEBDC4" cx="46" cy="151.1" r="1.9"/>
		<circle fill="#AEBDC4" cx="50.3" cy="151.1" r="1.9"/>
		<circle fill="#AEBDC4" cx="54.6" cy="151.1" r="1.9"/>
		<circle fill="#AEBDC4" cx="59" cy="151.1" r="1.9"/>
		<circle fill="#AEBDC4" cx="63.3" cy="151.1" r="1.9"/>
		<circle fill="#AEBDC4" cx="67.6" cy="151.1" r="1.9"/>
		<circle fill="#AEBDC4" cx="72" cy="151.1" r="1.9"/>
		<circle fill="#AEBDC4" cx="76.3" cy="151.1" r="1.9"/>
		<circle fill="#AEBDC4" cx="80.6" cy="151.1" r="1.9"/>
		<circle fill="#AEBDC4" cx="84.9" cy="151.1" r="1.9"/>
		<circle fill="#AEBDC4" cx="89.3" cy="151.1" r="1.9"/>
		<circle fill="#AEBDC4" cx="93.6" cy="151.1" r="1.9"/>
		<circle fill="#AEBDC4" cx="97.9" cy="151.1" r="1.9"/>
		<circle fill="#AEBDC4" cx="102.3" cy="151.1" r="1.9"/>
		<circle fill="#AEBDC4" cx="106.6" cy="151.1" r="1.9"/>
		<circle fill="#AEBDC4" cx="110.9" cy="151.1" r="1.9"/>
		<circle fill="#AEBDC4" cx="115.3" cy="151.1" r="1.9"/>
		<circle fill="#AEBDC4" cx="119.6" cy="151.1" r="1.9"/>
	</g>
	<g>
		<circle fill="#AEBDC4" cx="11.4" cy="145.1" r="1.9"/>
		<circle fill="#AEBDC4" cx="15.7" cy="145.1" r="1.9"/>
		<circle fill="#AEBDC4" cx="20" cy="145.1" r="1.9"/>
		<circle fill="#AEBDC4" cx="24.4" cy="145.1" r="1.9"/>
		<circle fill="#AEBDC4" cx="28.7" cy="145.1" r="1.9"/>
		<circle fill="#AEBDC4" cx="33" cy="145.1" r="1.9"/>
		<circle fill="#AEBDC4" cx="37.3" cy="145.1" r="1.9"/>
		<circle fill="#AEBDC4" cx="41.7" cy="145.1" r="1.9"/>
		<circle fill="#AEBDC4" cx="46" cy="145.1" r="1.9"/>
		<circle fill="#AEBDC4" cx="50.3" cy="145.1" r="1.9"/>
		<circle fill="#AEBDC4" cx="54.6" cy="145.1" r="1.9"/>
		<circle fill="#AEBDC4" cx="59" cy="145.1" r="1.9"/>
		<circle fill="#AEBDC4" cx="63.3" cy="145.1" r="1.9"/>
		<circle fill="#AEBDC4" cx="67.6" cy="145.1" r="1.9"/>
		<circle fill="#AEBDC4" cx="72" cy="145.1" r="1.9"/>
		<circle fill="#AEBDC4" cx="76.3" cy="145.1" r="1.9"/>
		<circle fill="#AEBDC4" cx="80.6" cy="145.1" r="1.9"/>
		<circle fill="#AEBDC4" cx="84.9" cy="145.1" r="1.9"/>
		<circle fill="#AEBDC4" cx="89.3" cy="145.1" r="1.9"/>
		<circle fill="#AEBDC4" cx="93.6" cy="145.1" r="1.9"/>
		<circle fill="#AEBDC4" cx="97.9" cy="145.1" r="1.9"/>
		<circle fill="#AEBDC4" cx="102.3" cy="145.1" r="1.9"/>
		<circle fill="#AEBDC4" cx="106.6" cy="145.1" r="1.9"/>
		<circle fill="#AEBDC4" cx="110.9" cy="145.1" r="1.9"/>
		<circle fill="#AEBDC4" cx="115.3" cy="145.1" r="1.9"/>
		<circle fill="#AEBDC4" cx="119.6" cy="145.1" r="1.9"/>
	</g>
	<g>
		<circle fill="#AEBDC4" cx="11.4" cy="139.2" r="1.9"/>
		<circle fill="#AEBDC4" cx="15.7" cy="139.2" r="1.9"/>
		<circle fill="#AEBDC4" cx="20" cy="139.2" r="1.9"/>
		<circle fill="#AEBDC4" cx="24.4" cy="139.2" r="1.9"/>
		<circle fill="#AEBDC4" cx="28.7" cy="139.2" r="1.9"/>
		<circle fill="#AEBDC4" cx="33" cy="139.2" r="1.9"/>
		<circle fill="#AEBDC4" cx="37.3" cy="139.2" r="1.9"/>
		<circle fill="#AEBDC4" cx="41.7" cy="139.2" r="1.9"/>
		<circle fill="#AEBDC4" cx="46" cy="139.2" r="1.9"/>
		<circle fill="#AEBDC4" cx="50.3" cy="139.2" r="1.9"/>
		<circle fill="#AEBDC4" cx="54.6" cy="139.2" r="1.9"/>
		<circle fill="#AEBDC4" cx="59" cy="139.2" r="1.9"/>
		<circle fill="#AEBDC4" cx="63.3" cy="139.2" r="1.9"/>
		<circle fill="#AEBDC4" cx="67.6" cy="139.2" r="1.9"/>
		<circle fill="#AEBDC4" cx="72" cy="139.2" r="1.9"/>
		<circle fill="#AEBDC4" cx="76.3" cy="139.2" r="1.9"/>
		<circle fill="#AEBDC4" cx="80.6" cy="139.2" r="1.9"/>
		<circle fill="#AEBDC4" cx="84.9" cy="139.2" r="1.9"/>
		<circle fill="#AEBDC4" cx="89.3" cy="139.2" r="1.9"/>
		<circle fill="#AEBDC4" cx="93.6" cy="139.2" r="1.9"/>
		<circle fill="#AEBDC4" cx="97.9" cy="139.2" r="1.9"/>
		<circle fill="#AEBDC4" cx="102.3" cy="139.2" r="1.9"/>
		<circle fill="#AEBDC4" cx="106.6" cy="139.2" r="1.9"/>
		<circle fill="#AEBDC4" cx="110.9" cy="139.2" r="1.9"/>
		<circle fill="#AEBDC4" cx="115.3" cy="139.2" r="1.9"/>
		<circle fill="#AEBDC4" cx="119.6" cy="139.2" r="1.9"/>
	</g>
	<g>
		<circle fill="#AEBDC4" cx="11.4" cy="133.3" r="1.9"/>
		<circle fill="#AEBDC4" cx="15.7" cy="133.3" r="1.9"/>
		<circle fill="#AEBDC4" cx="20" cy="133.3" r="1.9"/>
		<circle fill="#AEBDC4" cx="24.4" cy="133.3" r="1.9"/>
		<circle fill="#AEBDC4" cx="28.7" cy="133.3" r="1.9"/>
		<circle fill="#AEBDC4" cx="33" cy="133.3" r="1.9"/>
		<circle fill="#AEBDC4" cx="37.3" cy="133.3" r="1.9"/>
		<circle fill="#AEBDC4" cx="41.7" cy="133.3" r="1.9"/>
		<circle fill="#AEBDC4" cx="46" cy="133.3" r="1.9"/>
		<circle fill="#AEBDC4" cx="50.3" cy="133.3" r="1.9"/>
		<circle fill="#AEBDC4" cx="54.6" cy="133.3" r="1.9"/>
		<circle fill="#AEBDC4" cx="59" cy="133.3" r="1.9"/>
		<circle fill="#AEBDC4" cx="63.3" cy="133.3" r="1.9"/>
		<circle fill="#AEBDC4" cx="67.6" cy="133.3" r="1.9"/>
		<circle fill="#AEBDC4" cx="72" cy="133.3" r="1.9"/>
		<circle fill="#AEBDC4" cx="76.3" cy="133.3" r="1.9"/>
		<circle fill="#AEBDC4" cx="80.6" cy="133.3" r="1.9"/>
		<circle fill="#AEBDC4" cx="84.9" cy="133.3" r="1.9"/>
		<circle fill="#AEBDC4" cx="89.3" cy="133.3" r="1.9"/>
		<circle fill="#AEBDC4" cx="93.6" cy="133.3" r="1.9"/>
		<circle fill="#AEBDC4" cx="97.9" cy="133.3" r="1.9"/>
		<circle fill="#AEBDC4" cx="102.3" cy="133.3" r="1.9"/>
		<circle fill="#AEBDC4" cx="106.6" cy="133.3" r="1.9"/>
		<circle fill="#AEBDC4" cx="110.9" cy="133.3" r="1.9"/>
	</g>
	<g>
		<circle fill="#AEBDC4" cx="11.4" cy="127.3" r="1.9"/>
		<circle fill="#AEBDC4" cx="15.7" cy="127.3" r="1.9"/>
		<circle fill="#AEBDC4" cx="20" cy="127.3" r="1.9"/>
		<circle fill="#AEBDC4" cx="24.4" cy="127.3" r="1.9"/>
		<circle fill="#AEBDC4" cx="28.7" cy="127.3" r="1.9"/>
		<circle fill="#AEBDC4" cx="33" cy="127.3" r="1.9"/>
		<circle fill="#AEBDC4" cx="37.3" cy="127.3" r="1.9"/>
		<circle fill="#AEBDC4" cx="41.7" cy="127.3" r="1.9"/>
		<circle fill="#AEBDC4" cx="46" cy="127.3" r="1.9"/>
		<circle fill="#AEBDC4" cx="50.3" cy="127.3" r="1.9"/>
		<circle fill="#AEBDC4" cx="54.6" cy="127.3" r="1.9"/>
		<circle fill="#AEBDC4" cx="59" cy="127.3" r="1.9"/>
		<circle fill="#AEBDC4" cx="63.3" cy="127.3" r="1.9"/>
		<circle fill="#AEBDC4" cx="67.6" cy="127.3" r="1.9"/>
		<circle fill="#AEBDC4" cx="72" cy="127.3" r="1.9"/>
		<circle fill="#AEBDC4" cx="76.3" cy="127.3" r="1.9"/>
		<circle fill="#AEBDC4" cx="80.6" cy="127.3" r="1.9"/>
		<circle fill="#AEBDC4" cx="84.9" cy="127.3" r="1.9"/>
		<circle fill="#AEBDC4" cx="89.3" cy="127.3" r="1.9"/>
		<circle fill="#AEBDC4" cx="93.6" cy="127.3" r="1.9"/>
		<circle fill="#AEBDC4" cx="97.9" cy="127.3" r="1.9"/>
		<circle fill="#AEBDC4" cx="102.3" cy="127.3" r="1.9"/>
		<circle fill="#AEBDC4" cx="106.6" cy="127.3" r="1.9"/>
		<circle fill="#AEBDC4" cx="110.9" cy="127.3" r="1.9"/>
	</g>
	<g>
		<circle fill="#AEBDC4" cx="11.4" cy="121.4" r="1.8"/>
		<circle fill="#AEBDC4" cx="15.7" cy="121.4" r="1.8"/>
		<circle fill="#AEBDC4" cx="20" cy="121.4" r="1.8"/>
		<circle fill="#AEBDC4" cx="24.4" cy="121.4" r="1.8"/>
		<circle fill="#AEBDC4" cx="28.7" cy="121.4" r="1.8"/>
		<circle fill="#AEBDC4" cx="33" cy="121.4" r="1.8"/>
		<circle fill="#AEBDC4" cx="37.3" cy="121.4" r="1.8"/>
		<circle fill="#AEBDC4" cx="41.7" cy="121.4" r="1.8"/>
		<circle fill="#AEBDC4" cx="46" cy="121.4" r="1.8"/>
		<circle fill="#AEBDC4" cx="50.3" cy="121.4" r="1.8"/>
		<circle fill="#AEBDC4" cx="54.6" cy="121.4" r="1.8"/>
		<circle fill="#AEBDC4" cx="59" cy="121.4" r="1.8"/>
		<circle fill="#AEBDC4" cx="63.3" cy="121.4" r="1.8"/>
		<circle fill="#AEBDC4" cx="67.6" cy="121.4" r="1.8"/>
		<circle fill="#AEBDC4" cx="72" cy="121.4" r="1.8"/>
		<circle fill="#AEBDC4" cx="76.3" cy="121.4" r="1.8"/>
		<circle fill="#AEBDC4" cx="80.6" cy="121.4" r="1.8"/>
		<circle fill="#AEBDC4" cx="84.9" cy="121.4" r="1.8"/>
		<circle fill="#AEBDC4" cx="89.3" cy="121.4" r="1.8"/>
		<circle fill="#AEBDC4" cx="93.6" cy="121.4" r="1.8"/>
		<circle fill="#AEBDC4" cx="97.9" cy="121.4" r="1.8"/>
		<circle fill="#AEBDC4" cx="102.3" cy="121.4" r="1.8"/>
		<circle fill="#AEBDC4" cx="106.6" cy="121.4" r="1.8"/>
		<circle fill="#AEBDC4" cx="110.9" cy="121.4" r="1.8"/>
	</g>
	<g>
		<circle fill="#AEBDC4" cx="11.4" cy="115.5" r="1.8"/>
		<circle fill="#AEBDC4" cx="15.7" cy="115.5" r="1.8"/>
		<circle fill="#AEBDC4" cx="20" cy="115.5" r="1.8"/>
		<circle fill="#AEBDC4" cx="24.4" cy="115.5" r="1.8"/>
		<circle fill="#AEBDC4" cx="28.7" cy="115.5" r="1.8"/>
		<circle fill="#AEBDC4" cx="33" cy="115.5" r="1.8"/>
		<circle fill="#AEBDC4" cx="37.3" cy="115.5" r="1.8"/>
		<circle fill="#AEBDC4" cx="41.7" cy="115.5" r="1.8"/>
		<circle fill="#AEBDC4" cx="46" cy="115.5" r="1.8"/>
		<circle fill="#AEBDC4" cx="50.3" cy="115.5" r="1.8"/>
		<circle fill="#AEBDC4" cx="54.6" cy="115.5" r="1.8"/>
		<circle fill="#AEBDC4" cx="59" cy="115.5" r="1.8"/>
		<circle fill="#AEBDC4" cx="63.3" cy="115.5" r="1.8"/>
		<circle fill="#AEBDC4" cx="67.6" cy="115.5" r="1.8"/>
		<circle fill="#AEBDC4" cx="72" cy="115.5" r="1.8"/>
		<circle fill="#AEBDC4" cx="76.3" cy="115.5" r="1.8"/>
		<circle fill="#AEBDC4" cx="80.6" cy="115.5" r="1.8"/>
		<circle fill="#AEBDC4" cx="84.9" cy="115.5" r="1.8"/>
		<circle fill="#AEBDC4" cx="89.3" cy="115.5" r="1.8"/>
		<circle fill="#AEBDC4" cx="93.6" cy="115.5" r="1.8"/>
		<circle fill="#AEBDC4" cx="97.9" cy="115.5" r="1.8"/>
		<circle fill="#AEBDC4" cx="102.3" cy="115.5" r="1.8"/>
		<circle fill="#AEBDC4" cx="106.6" cy="115.5" r="1.8"/>
		<circle fill="#AEBDC4" cx="110.9" cy="115.5" r="1.8"/>
	</g>
	<g>
		<circle fill="#AEBDC4" cx="11.4" cy="109.6" r="1.8"/>
		<circle fill="#AEBDC4" cx="15.7" cy="109.6" r="1.8"/>
		<circle fill="#AEBDC4" cx="20" cy="109.6" r="1.8"/>
		<circle fill="#AEBDC4" cx="24.4" cy="109.6" r="1.8"/>
		<circle fill="#AEBDC4" cx="28.7" cy="109.6" r="1.8"/>
		<circle fill="#AEBDC4" cx="33" cy="109.6" r="1.8"/>
		<circle fill="#AEBDC4" cx="37.3" cy="109.6" r="1.8"/>
		<circle fill="#AEBDC4" cx="41.7" cy="109.6" r="1.8"/>
		<circle fill="#AEBDC4" cx="46" cy="109.6" r="1.8"/>
		<circle fill="#AEBDC4" cx="50.3" cy="109.6" r="1.8"/>
		<circle fill="#AEBDC4" cx="54.6" cy="109.6" r="1.8"/>
		<circle fill="#AEBDC4" cx="59" cy="109.6" r="1.8"/>
		<circle fill="#AEBDC4" cx="63.3" cy="109.6" r="1.8"/>
		<circle fill="#AEBDC4" cx="67.6" cy="109.6" r="1.8"/>
		<circle fill="#AEBDC4" cx="72" cy="109.6" r="1.8"/>
		<circle fill="#AEBDC4" cx="76.3" cy="109.6" r="1.8"/>
		<circle fill="#AEBDC4" cx="80.6" cy="109.6" r="1.8"/>
		<circle fill="#AEBDC4" cx="84.9" cy="109.6" r="1.8"/>
		<circle fill="#AEBDC4" cx="89.3" cy="109.6" r="1.8"/>
		<circle fill="#AEBDC4" cx="93.6" cy="109.6" r="1.8"/>
		<circle fill="#AEBDC4" cx="97.9" cy="109.6" r="1.8"/>
		<circle fill="#AEBDC4" cx="102.3" cy="109.6" r="1.8"/>
		<circle fill="#AEBDC4" cx="106.6" cy="109.6" r="1.8"/>
		<circle fill="#AEBDC4" cx="110.9" cy="109.6" r="1.8"/>
		<circle fill="#AEBDC4" cx="115.3" cy="109.6" r="1.8"/>
		<circle fill="#AEBDC4" cx="119.6" cy="109.6" r="1.8"/>
	</g>
	<g>
		<circle fill="#AEBDC4" cx="11.4" cy="103.6" r="1.8"/>
		<circle fill="#AEBDC4" cx="15.7" cy="103.6" r="1.8"/>
		<circle fill="#AEBDC4" cx="20" cy="103.6" r="1.8"/>
		<circle fill="#AEBDC4" cx="24.4" cy="103.6" r="1.8"/>
		<circle fill="#AEBDC4" cx="28.7" cy="103.6" r="1.8"/>
		<circle fill="#AEBDC4" cx="33" cy="103.6" r="1.8"/>
		<circle fill="#AEBDC4" cx="37.3" cy="103.6" r="1.8"/>
		<circle fill="#AEBDC4" cx="41.7" cy="103.6" r="1.8"/>
		<circle fill="#AEBDC4" cx="46" cy="103.6" r="1.8"/>
		<circle fill="#AEBDC4" cx="50.3" cy="103.6" r="1.8"/>
		<circle fill="#AEBDC4" cx="54.6" cy="103.6" r="1.8"/>
		<circle fill="#AEBDC4" cx="59" cy="103.6" r="1.8"/>
		<circle fill="#AEBDC4" cx="63.3" cy="103.6" r="1.8"/>
		<circle fill="#AEBDC4" cx="67.6" cy="103.6" r="1.8"/>
		<circle fill="#AEBDC4" cx="72" cy="103.6" r="1.8"/>
		<circle fill="#AEBDC4" cx="76.3" cy="103.6" r="1.8"/>
		<circle fill="#AEBDC4" cx="80.6" cy="103.6" r="1.8"/>
		<circle fill="#AEBDC4" cx="84.9" cy="103.6" r="1.8"/>
		<circle fill="#AEBDC4" cx="89.3" cy="103.6" r="1.8"/>
		<circle fill="#AEBDC4" cx="93.6" cy="103.6" r="1.8"/>
		<circle fill="#AEBDC4" cx="97.9" cy="103.6" r="1.8"/>
		<circle fill="#AEBDC4" cx="102.3" cy="103.6" r="1.8"/>
		<circle fill="#AEBDC4" cx="106.6" cy="103.6" r="1.8"/>
		<circle fill="#AEBDC4" cx="110.9" cy="103.6" r="1.8"/>
		<circle fill="#AEBDC4" cx="115.3" cy="103.6" r="1.8"/>
		<circle fill="#AEBDC4" cx="119.6" cy="103.6" r="1.8"/>
	</g>
	<g>
		<circle fill="#AEBDC4" cx="11.4" cy="97.7" r="1.8"/>
		<circle fill="#AEBDC4" cx="15.7" cy="97.7" r="1.8"/>
		<circle fill="#AEBDC4" cx="20" cy="97.7" r="1.8"/>
		<circle fill="#AEBDC4" cx="24.4" cy="97.7" r="1.8"/>
		<circle fill="#AEBDC4" cx="28.7" cy="97.7" r="1.8"/>
		<circle fill="#AEBDC4" cx="33" cy="97.7" r="1.8"/>
		<circle fill="#AEBDC4" cx="37.3" cy="97.7" r="1.8"/>
		<circle fill="#AEBDC4" cx="41.7" cy="97.7" r="1.8"/>
		<circle fill="#AEBDC4" cx="46" cy="97.7" r="1.8"/>
		<circle fill="#AEBDC4" cx="50.3" cy="97.7" r="1.8"/>
		<circle fill="#AEBDC4" cx="54.6" cy="97.7" r="1.8"/>
		<circle fill="#AEBDC4" cx="59" cy="97.7" r="1.8"/>
		<circle fill="#AEBDC4" cx="63.3" cy="97.7" r="1.8"/>
		<circle fill="#AEBDC4" cx="67.6" cy="97.7" r="1.8"/>
		<circle fill="#AEBDC4" cx="72" cy="97.7" r="1.8"/>
		<circle fill="#AEBDC4" cx="76.3" cy="97.7" r="1.8"/>
		<circle fill="#AEBDC4" cx="80.6" cy="97.7" r="1.8"/>
		<circle fill="#AEBDC4" cx="84.9" cy="97.7" r="1.8"/>
		<circle fill="#AEBDC4" cx="89.3" cy="97.7" r="1.8"/>
		<circle fill="#AEBDC4" cx="93.6" cy="97.7" r="1.8"/>
		<circle fill="#AEBDC4" cx="97.9" cy="97.7" r="1.8"/>
		<circle fill="#AEBDC4" cx="102.3" cy="97.7" r="1.8"/>
		<circle fill="#AEBDC4" cx="106.6" cy="97.7" r="1.8"/>
		<circle fill="#AEBDC4" cx="110.9" cy="97.7" r="1.8"/>
		<circle fill="#AEBDC4" cx="115.3" cy="97.7" r="1.8"/>
		<circle fill="#AEBDC4" cx="119.6" cy="97.7" r="1.8"/>
	</g>
	<g>
		<circle fill="#AEBDC4" cx="11.4" cy="91.8" r="1.8"/>
		<circle fill="#AEBDC4" cx="15.7" cy="91.8" r="1.8"/>
		<circle fill="#AEBDC4" cx="20" cy="91.8" r="1.8"/>
		<circle fill="#AEBDC4" cx="24.4" cy="91.8" r="1.8"/>
		<circle fill="#AEBDC4" cx="28.7" cy="91.8" r="1.8"/>
		<circle fill="#AEBDC4" cx="33" cy="91.8" r="1.8"/>
		<circle fill="#AEBDC4" cx="37.3" cy="91.8" r="1.8"/>
		<circle fill="#AEBDC4" cx="41.7" cy="91.8" r="1.8"/>
		<circle fill="#AEBDC4" cx="46" cy="91.8" r="1.8"/>
		<circle fill="#AEBDC4" cx="50.3" cy="91.8" r="1.8"/>
		<circle fill="#AEBDC4" cx="54.6" cy="91.8" r="1.8"/>
		<circle fill="#AEBDC4" cx="59" cy="91.8" r="1.8"/>
		<circle fill="#AEBDC4" cx="63.3" cy="91.8" r="1.8"/>
		<circle fill="#AEBDC4" cx="67.6" cy="91.8" r="1.8"/>
		<circle fill="#AEBDC4" cx="72" cy="91.8" r="1.8"/>
		<circle fill="#AEBDC4" cx="76.3" cy="91.8" r="1.8"/>
		<circle fill="#AEBDC4" cx="80.6" cy="91.8" r="1.8"/>
		<circle fill="#AEBDC4" cx="84.9" cy="91.8" r="1.8"/>
		<circle fill="#AEBDC4" cx="89.3" cy="91.8" r="1.8"/>
		<circle fill="#AEBDC4" cx="93.6" cy="91.8" r="1.8"/>
		<circle fill="#AEBDC4" cx="97.9" cy="91.8" r="1.8"/>
		<circle fill="#AEBDC4" cx="102.3" cy="91.8" r="1.8"/>
		<circle fill="#AEBDC4" cx="106.6" cy="91.8" r="1.8"/>
		<circle fill="#AEBDC4" cx="110.9" cy="91.8" r="1.8"/>
		<circle fill="#AEBDC4" cx="115.3" cy="91.8" r="1.8"/>
		<circle fill="#AEBDC4" cx="119.6" cy="91.8" r="1.8"/>
	</g>
	<g>
		<circle fill="#AEBDC4" cx="11.4" cy="85.8" r="1.8"/>
		<circle fill="#AEBDC4" cx="15.7" cy="85.8" r="1.8"/>
		<circle fill="#AEBDC4" cx="20" cy="85.8" r="1.8"/>
		<circle fill="#AEBDC4" cx="24.4" cy="85.8" r="1.8"/>
		<circle fill="#AEBDC4" cx="28.7" cy="85.8" r="1.8"/>
		<circle fill="#AEBDC4" cx="33" cy="85.8" r="1.8"/>
		<circle fill="#AEBDC4" cx="37.3" cy="85.8" r="1.8"/>
		<circle fill="#AEBDC4" cx="41.7" cy="85.8" r="1.8"/>
		<circle fill="#AEBDC4" cx="46" cy="85.8" r="1.8"/>
		<circle fill="#AEBDC4" cx="50.3" cy="85.8" r="1.8"/>
		<circle fill="#AEBDC4" cx="54.6" cy="85.8" r="1.8"/>
		<circle fill="#AEBDC4" cx="59" cy="85.8" r="1.8"/>
		<circle fill="#AEBDC4" cx="63.3" cy="85.8" r="1.8"/>
		<circle fill="#AEBDC4" cx="67.6" cy="85.8" r="1.8"/>
		<circle fill="#AEBDC4" cx="72" cy="85.8" r="1.8"/>
		<circle fill="#AEBDC4" cx="76.3" cy="85.8" r="1.8"/>
		<circle fill="#AEBDC4" cx="80.6" cy="85.8" r="1.8"/>
		<circle fill="#AEBDC4" cx="84.9" cy="85.8" r="1.8"/>
		<circle fill="#AEBDC4" cx="89.3" cy="85.8" r="1.8"/>
		<circle fill="#AEBDC4" cx="93.6" cy="85.8" r="1.8"/>
		<circle fill="#AEBDC4" cx="97.9" cy="85.8" r="1.8"/>
		<circle fill="#AEBDC4" cx="102.3" cy="85.8" r="1.8"/>
		<circle fill="#AEBDC4" cx="106.6" cy="85.8" r="1.8"/>
		<circle fill="#AEBDC4" cx="110.9" cy="85.8" r="1.8"/>
		<circle fill="#AEBDC4" cx="115.3" cy="85.8" r="1.8"/>
		<circle fill="#AEBDC4" cx="119.6" cy="85.8" r="1.8"/>
	</g>
	<g>
		<circle fill="#AEBDC4" cx="11.4" cy="79.9" r="1.8"/>
		<circle fill="#AEBDC4" cx="15.7" cy="79.9" r="1.8"/>
		<circle fill="#AEBDC4" cx="20" cy="79.9" r="1.8"/>
		<circle fill="#AEBDC4" cx="24.4" cy="79.9" r="1.8"/>
		<circle fill="#AEBDC4" cx="28.7" cy="79.9" r="1.8"/>
		<circle fill="#AEBDC4" cx="33" cy="79.9" r="1.8"/>
		<circle fill="#AEBDC4" cx="37.3" cy="79.9" r="1.8"/>
		<circle fill="#AEBDC4" cx="41.7" cy="79.9" r="1.8"/>
		<circle fill="#AEBDC4" cx="46" cy="79.9" r="1.8"/>
		<circle fill="#AEBDC4" cx="50.3" cy="79.9" r="1.8"/>
		<circle fill="#AEBDC4" cx="54.6" cy="79.9" r="1.8"/>
		<circle fill="#AEBDC4" cx="59" cy="79.9" r="1.8"/>
		<circle fill="#AEBDC4" cx="63.3" cy="79.9" r="1.8"/>
		<circle fill="#AEBDC4" cx="67.6" cy="79.9" r="1.8"/>
		<circle fill="#AEBDC4" cx="72" cy="79.9" r="1.8"/>
		<circle fill="#AEBDC4" cx="76.3" cy="79.9" r="1.8"/>
		<circle fill="#AEBDC4" cx="80.6" cy="79.9" r="1.8"/>
		<circle fill="#AEBDC4" cx="84.9" cy="79.9" r="1.8"/>
		<circle fill="#AEBDC4" cx="89.3" cy="79.9" r="1.8"/>
		<circle fill="#AEBDC4" cx="93.6" cy="79.9" r="1.8"/>
		<circle fill="#AEBDC4" cx="97.9" cy="79.9" r="1.8"/>
		<circle fill="#AEBDC4" cx="102.3" cy="79.9" r="1.8"/>
		<circle fill="#AEBDC4" cx="106.6" cy="79.9" r="1.8"/>
		<circle fill="#AEBDC4" cx="110.9" cy="79.9" r="1.8"/>
		<circle fill="#AEBDC4" cx="115.3" cy="79.9" r="1.8"/>
		<circle fill="#AEBDC4" cx="119.6" cy="79.9" r="1.8"/>
	</g>
	<g>
		<circle fill="#AEBDC4" cx="11.4" cy="74" r="1.8"/>
		<circle fill="#AEBDC4" cx="15.7" cy="74" r="1.8"/>
		<circle fill="#AEBDC4" cx="20" cy="74" r="1.8"/>
		<circle fill="#AEBDC4" cx="24.4" cy="74" r="1.8"/>
		<circle fill="#AEBDC4" cx="28.7" cy="74" r="1.8"/>
		<circle fill="#AEBDC4" cx="33" cy="74" r="1.8"/>
		<circle fill="#AEBDC4" cx="37.3" cy="74" r="1.8"/>
		<circle fill="#AEBDC4" cx="41.7" cy="74" r="1.8"/>
		<circle fill="#AEBDC4" cx="46" cy="74" r="1.8"/>
		<circle fill="#AEBDC4" cx="50.3" cy="74" r="1.8"/>
		<circle fill="#AEBDC4" cx="54.6" cy="74" r="1.8"/>
		<circle fill="#AEBDC4" cx="59" cy="74" r="1.8"/>
		<circle fill="#AEBDC4" cx="63.3" cy="74" r="1.8"/>
		<circle fill="#AEBDC4" cx="67.6" cy="74" r="1.8"/>
		<circle fill="#AEBDC4" cx="72" cy="74" r="1.8"/>
		<circle fill="#AEBDC4" cx="76.3" cy="74" r="1.8"/>
		<circle fill="#AEBDC4" cx="80.6" cy="74" r="1.8"/>
		<circle fill="#AEBDC4" cx="84.9" cy="74" r="1.8"/>
		<circle fill="#AEBDC4" cx="89.3" cy="74" r="1.8"/>
		<circle fill="#AEBDC4" cx="93.6" cy="74" r="1.8"/>
		<circle fill="#AEBDC4" cx="97.9" cy="74" r="1.8"/>
		<circle fill="#AEBDC4" cx="102.3" cy="74" r="1.8"/>
		<circle fill="#AEBDC4" cx="106.6" cy="74" r="1.8"/>
		<circle fill="#AEBDC4" cx="110.9" cy="74" r="1.8"/>
		<circle fill="#AEBDC4" cx="115.3" cy="74" r="1.8"/>
		<circle fill="#AEBDC4" cx="119.6" cy="74" r="1.8"/>
	</g>
	<g>
		<circle fill="#AEBDC4" cx="11.4" cy="68" r="1.8"/>
		<circle fill="#AEBDC4" cx="15.7" cy="68" r="1.8"/>
		<circle fill="#AEBDC4" cx="20" cy="68" r="1.8"/>
		<circle fill="#AEBDC4" cx="24.4" cy="68" r="1.8"/>
		<circle fill="#AEBDC4" cx="28.7" cy="68" r="1.8"/>
		<circle fill="#AEBDC4" cx="33" cy="68" r="1.8"/>
		<circle fill="#AEBDC4" cx="37.3" cy="68" r="1.8"/>
		<circle fill="#AEBDC4" cx="41.7" cy="68" r="1.8"/>
		<circle fill="#AEBDC4" cx="46" cy="68" r="1.8"/>
		<circle fill="#AEBDC4" cx="50.3" cy="68" r="1.8"/>
		<circle fill="#AEBDC4" cx="54.6" cy="68" r="1.8"/>
		<circle fill="#AEBDC4" cx="59" cy="68" r="1.8"/>
		<circle fill="#AEBDC4" cx="63.3" cy="68" r="1.8"/>
		<circle fill="#AEBDC4" cx="67.6" cy="68" r="1.8"/>
		<circle fill="#AEBDC4" cx="72" cy="68" r="1.8"/>
		<circle fill="#AEBDC4" cx="76.3" cy="68" r="1.8"/>
		<circle fill="#AEBDC4" cx="80.6" cy="68" r="1.8"/>
		<circle fill="#AEBDC4" cx="84.9" cy="68" r="1.8"/>
		<circle fill="#AEBDC4" cx="89.3" cy="68" r="1.8"/>
		<circle fill="#AEBDC4" cx="93.6" cy="68" r="1.8"/>
		<circle fill="#AEBDC4" cx="97.9" cy="68" r="1.8"/>
		<circle fill="#AEBDC4" cx="102.3" cy="68" r="1.8"/>
		<circle fill="#AEBDC4" cx="106.6" cy="68" r="1.8"/>
		<circle fill="#AEBDC4" cx="110.9" cy="68" r="1.8"/>
		<circle fill="#AEBDC4" cx="115.3" cy="68" r="1.8"/>
		<circle fill="#AEBDC4" cx="119.6" cy="68" r="1.8"/>
	</g>
	<g>
		<circle fill="#AEBDC4" cx="11.4" cy="62.1" r="1.8"/>
		<circle fill="#AEBDC4" cx="15.7" cy="62.1" r="1.8"/>
		<circle fill="#AEBDC4" cx="20" cy="62.1" r="1.8"/>
		<circle fill="#AEBDC4" cx="24.4" cy="62.1" r="1.8"/>
		<circle fill="#AEBDC4" cx="28.7" cy="62.1" r="1.8"/>
		<circle fill="#AEBDC4" cx="33" cy="62.1" r="1.8"/>
		<circle fill="#AEBDC4" cx="37.3" cy="62.1" r="1.8"/>
		<circle fill="#AEBDC4" cx="41.7" cy="62.1" r="1.8"/>
		<circle fill="#AEBDC4" cx="46" cy="62.1" r="1.8"/>
		<circle fill="#AEBDC4" cx="50.3" cy="62.1" r="1.8"/>
		<circle fill="#AEBDC4" cx="54.6" cy="62.1" r="1.8"/>
		<circle fill="#AEBDC4" cx="59" cy="62.1" r="1.8"/>
		<circle fill="#AEBDC4" cx="63.3" cy="62.1" r="1.8"/>
		<circle fill="#AEBDC4" cx="67.6" cy="62.1" r="1.8"/>
		<circle fill="#AEBDC4" cx="72" cy="62.1" r="1.8"/>
		<circle fill="#AEBDC4" cx="76.3" cy="62.1" r="1.8"/>
		<circle fill="#AEBDC4" cx="80.6" cy="62.1" r="1.8"/>
		<circle fill="#AEBDC4" cx="84.9" cy="62.1" r="1.8"/>
		<circle fill="#AEBDC4" cx="89.3" cy="62.1" r="1.8"/>
		<circle fill="#AEBDC4" cx="93.6" cy="62.1" r="1.8"/>
		<circle fill="#AEBDC4" cx="97.9" cy="62.1" r="1.8"/>
		<circle fill="#AEBDC4" cx="102.3" cy="62.1" r="1.8"/>
		<circle fill="#AEBDC4" cx="106.6" cy="62.1" r="1.8"/>
		<circle fill="#AEBDC4" cx="110.9" cy="62.1" r="1.8"/>
		<circle fill="#AEBDC4" cx="115.3" cy="62.1" r="1.8"/>
		<circle fill="#AEBDC4" cx="119.6" cy="62.1" r="1.8"/>
	</g>
	<g>
		<circle fill="#AEBDC4" cx="11.4" cy="56.2" r="1.8"/>
		<circle fill="#AEBDC4" cx="15.7" cy="56.2" r="1.8"/>
		<circle fill="#AEBDC4" cx="20" cy="56.2" r="1.8"/>
		<circle fill="#AEBDC4" cx="24.4" cy="56.2" r="1.8"/>
		<circle fill="#AEBDC4" cx="28.7" cy="56.2" r="1.8"/>
		<circle fill="#AEBDC4" cx="33" cy="56.2" r="1.8"/>
		<circle fill="#AEBDC4" cx="37.3" cy="56.2" r="1.8"/>
		<circle fill="#AEBDC4" cx="41.7" cy="56.2" r="1.8"/>
		<circle fill="#AEBDC4" cx="46" cy="56.2" r="1.8"/>
		<circle fill="#AEBDC4" cx="50.3" cy="56.2" r="1.8"/>
		<circle fill="#AEBDC4" cx="54.6" cy="56.2" r="1.8"/>
		<circle fill="#AEBDC4" cx="59" cy="56.2" r="1.8"/>
		<circle fill="#AEBDC4" cx="63.3" cy="56.2" r="1.8"/>
		<circle fill="#AEBDC4" cx="67.6" cy="56.2" r="1.8"/>
		<circle fill="#AEBDC4" cx="72" cy="56.2" r="1.8"/>
		<circle fill="#AEBDC4" cx="76.3" cy="56.2" r="1.8"/>
		<circle fill="#AEBDC4" cx="80.6" cy="56.2" r="1.8"/>
		<circle fill="#AEBDC4" cx="84.9" cy="56.2" r="1.8"/>
		<circle fill="#AEBDC4" cx="89.3" cy="56.2" r="1.8"/>
		<circle fill="#AEBDC4" cx="93.6" cy="56.2" r="1.8"/>
		<circle fill="#AEBDC4" cx="97.9" cy="56.2" r="1.8"/>
		<circle fill="#AEBDC4" cx="102.3" cy="56.2" r="1.8"/>
		<circle fill="#AEBDC4" cx="106.6" cy="56.2" r="1.8"/>
		<circle fill="#AEBDC4" cx="110.9" cy="56.2" r="1.8"/>
		<circle fill="#AEBDC4" cx="115.3" cy="56.2" r="1.8"/>
		<circle fill="#AEBDC4" cx="119.6" cy="56.2" r="1.8"/>
	</g>
	<g>
		<circle fill="#AEBDC4" cx="11.4" cy="50.2" r="1.8"/>
		<circle fill="#AEBDC4" cx="15.7" cy="50.2" r="1.8"/>
		<circle fill="#AEBDC4" cx="20" cy="50.2" r="1.8"/>
		<circle fill="#AEBDC4" cx="24.4" cy="50.2" r="1.8"/>
		<circle fill="#AEBDC4" cx="28.7" cy="50.2" r="1.8"/>
		<circle fill="#AEBDC4" cx="33" cy="50.2" r="1.8"/>
		<circle fill="#AEBDC4" cx="37.3" cy="50.2" r="1.8"/>
		<circle fill="#AEBDC4" cx="41.7" cy="50.2" r="1.8"/>
		<circle fill="#AEBDC4" cx="46" cy="50.2" r="1.8"/>
		<circle fill="#AEBDC4" cx="50.3" cy="50.2" r="1.8"/>
		<circle fill="#AEBDC4" cx="54.6" cy="50.2" r="1.8"/>
		<circle fill="#AEBDC4" cx="59" cy="50.2" r="1.8"/>
		<circle fill="#AEBDC4" cx="63.3" cy="50.2" r="1.8"/>
		<circle fill="#AEBDC4" cx="67.6" cy="50.2" r="1.8"/>
		<circle fill="#AEBDC4" cx="72" cy="50.2" r="1.8"/>
		<circle fill="#AEBDC4" cx="76.3" cy="50.2" r="1.8"/>
		<circle fill="#AEBDC4" cx="80.6" cy="50.2" r="1.8"/>
		<circle fill="#AEBDC4" cx="84.9" cy="50.2" r="1.8"/>
		<circle fill="#AEBDC4" cx="89.3" cy="50.2" r="1.8"/>
		<circle fill="#AEBDC4" cx="93.6" cy="50.2" r="1.8"/>
		<circle fill="#AEBDC4" cx="97.9" cy="50.2" r="1.8"/>
		<circle fill="#AEBDC4" cx="102.3" cy="50.2" r="1.8"/>
		<circle fill="#AEBDC4" cx="106.6" cy="50.2" r="1.8"/>
		<circle fill="#AEBDC4" cx="110.9" cy="50.2" r="1.8"/>
		<circle fill="#AEBDC4" cx="115.3" cy="50.2" r="1.8"/>
		<circle fill="#AEBDC4" cx="119.6" cy="50.2" r="1.8"/>
	</g>
	<g>
		<circle fill="#AEBDC4" cx="11.4" cy="44.3" r="1.8"/>
		<circle fill="#AEBDC4" cx="15.7" cy="44.3" r="1.8"/>
		<circle fill="#AEBDC4" cx="20" cy="44.3" r="1.8"/>
		<circle fill="#AEBDC4" cx="24.4" cy="44.3" r="1.8"/>
		<circle fill="#AEBDC4" cx="28.7" cy="44.3" r="1.8"/>
		<circle fill="#AEBDC4" cx="33" cy="44.3" r="1.8"/>
		<circle fill="#AEBDC4" cx="37.3" cy="44.3" r="1.8"/>
		<circle fill="#AEBDC4" cx="41.7" cy="44.3" r="1.8"/>
		<circle fill="#AEBDC4" cx="46" cy="44.3" r="1.8"/>
		<circle fill="#AEBDC4" cx="50.3" cy="44.3" r="1.8"/>
		<circle fill="#AEBDC4" cx="54.6" cy="44.3" r="1.8"/>
		<circle fill="#AEBDC4" cx="59" cy="44.3" r="1.8"/>
		<circle fill="#AEBDC4" cx="63.3" cy="44.3" r="1.8"/>
		<circle fill="#AEBDC4" cx="67.6" cy="44.3" r="1.8"/>
		<circle fill="#AEBDC4" cx="72" cy="44.3" r="1.8"/>
		<circle fill="#AEBDC4" cx="76.3" cy="44.3" r="1.8"/>
		<circle fill="#AEBDC4" cx="80.6" cy="44.3" r="1.8"/>
		<circle fill="#AEBDC4" cx="84.9" cy="44.3" r="1.8"/>
		<circle fill="#AEBDC4" cx="89.3" cy="44.3" r="1.8"/>
		<circle fill="#AEBDC4" cx="93.6" cy="44.3" r="1.8"/>
		<circle fill="#AEBDC4" cx="97.9" cy="44.3" r="1.8"/>
		<circle fill="#AEBDC4" cx="102.3" cy="44.3" r="1.8"/>
		<circle fill="#AEBDC4" cx="106.6" cy="44.3" r="1.8"/>
		<circle fill="#AEBDC4" cx="110.9" cy="44.3" r="1.8"/>
		<circle fill="#AEBDC4" cx="115.3" cy="44.3" r="1.8"/>
		<circle fill="#AEBDC4" cx="119.6" cy="44.3" r="1.8"/>
	</g>
	<g>
		<circle fill="#AEBDC4" cx="11.4" cy="38.4" r="1.8"/>
		<circle fill="#AEBDC4" cx="15.7" cy="38.4" r="1.8"/>
		<circle fill="#AEBDC4" cx="20" cy="38.4" r="1.8"/>
		<circle fill="#AEBDC4" cx="24.4" cy="38.4" r="1.8"/>
		<circle fill="#AEBDC4" cx="28.7" cy="38.4" r="1.8"/>
		<circle fill="#AEBDC4" cx="33" cy="38.4" r="1.8"/>
		<circle fill="#AEBDC4" cx="37.3" cy="38.4" r="1.8"/>
		<circle fill="#AEBDC4" cx="41.7" cy="38.4" r="1.8"/>
		<circle fill="#AEBDC4" cx="46" cy="38.4" r="1.8"/>
		<circle fill="#AEBDC4" cx="50.3" cy="38.4" r="1.8"/>
		<circle fill="#AEBDC4" cx="54.6" cy="38.4" r="1.8"/>
		<circle fill="#AEBDC4" cx="59" cy="38.4" r="1.8"/>
		<circle fill="#AEBDC4" cx="63.3" cy="38.4" r="1.8"/>
		<circle fill="#AEBDC4" cx="67.6" cy="38.4" r="1.8"/>
		<circle fill="#AEBDC4" cx="72" cy="38.4" r="1.8"/>
		<circle fill="#AEBDC4" cx="76.3" cy="38.4" r="1.8"/>
		<circle fill="#AEBDC4" cx="80.6" cy="38.4" r="1.8"/>
		<circle fill="#AEBDC4" cx="84.9" cy="38.4" r="1.8"/>
		<circle fill="#AEBDC4" cx="89.3" cy="38.4" r="1.8"/>
		<circle fill="#AEBDC4" cx="93.6" cy="38.4" r="1.8"/>
		<circle fill="#AEBDC4" cx="97.9" cy="38.4" r="1.8"/>
		<circle fill="#AEBDC4" cx="102.3" cy="38.4" r="1.8"/>
		<circle fill="#AEBDC4" cx="106.6" cy="38.4" r="1.8"/>
		<circle fill="#AEBDC4" cx="110.9" cy="38.4" r="1.8"/>
		<circle fill="#AEBDC4" cx="115.3" cy="38.4" r="1.8"/>
		<circle fill="#AEBDC4" cx="119.6" cy="38.4" r="1.8"/>
	</g>
	<g>
		<circle fill="#AEBDC4" cx="11.4" cy="32.5" r="1.8"/>
		<circle fill="#AEBDC4" cx="15.7" cy="32.5" r="1.8"/>
		<circle fill="#AEBDC4" cx="20" cy="32.5" r="1.8"/>
		<circle fill="#AEBDC4" cx="24.4" cy="32.5" r="1.8"/>
		<circle fill="#AEBDC4" cx="28.7" cy="32.5" r="1.8"/>
		<circle fill="#AEBDC4" cx="33" cy="32.5" r="1.8"/>
		<circle fill="#AEBDC4" cx="37.3" cy="32.5" r="1.8"/>
		<circle fill="#AEBDC4" cx="41.7" cy="32.5" r="1.8"/>
		<circle fill="#AEBDC4" cx="46" cy="32.5" r="1.8"/>
		<circle fill="#AEBDC4" cx="50.3" cy="32.5" r="1.8"/>
		<circle fill="#AEBDC4" cx="54.6" cy="32.5" r="1.8"/>
		<circle fill="#AEBDC4" cx="59" cy="32.5" r="1.8"/>
		<circle fill="#AEBDC4" cx="63.3" cy="32.5" r="1.8"/>
		<circle fill="#AEBDC4" cx="67.6" cy="32.5" r="1.8"/>
		<circle fill="#AEBDC4" cx="72" cy="32.5" r="1.8"/>
		<circle fill="#AEBDC4" cx="76.3" cy="32.5" r="1.8"/>
		<circle fill="#AEBDC4" cx="80.6" cy="32.5" r="1.8"/>
		<circle fill="#AEBDC4" cx="84.9" cy="32.5" r="1.8"/>
		<circle fill="#AEBDC4" cx="89.3" cy="32.5" r="1.8"/>
		<circle fill="#AEBDC4" cx="93.6" cy="32.5" r="1.8"/>
		<circle fill="#AEBDC4" cx="97.9" cy="32.5" r="1.8"/>
		<circle fill="#AEBDC4" cx="102.3" cy="32.5" r="1.8"/>
		<circle fill="#AEBDC4" cx="106.6" cy="32.5" r="1.8"/>
		<circle fill="#AEBDC4" cx="110.9" cy="32.5" r="1.8"/>
		<circle fill="#AEBDC4" cx="115.3" cy="32.5" r="1.8"/>
		<circle fill="#AEBDC4" cx="119.6" cy="32.5" r="1.8"/>
	</g>
	<g>
		<circle fill="#AEBDC4" cx="11.4" cy="26.5" r="1.9"/>
		<circle fill="#AEBDC4" cx="15.7" cy="26.5" r="1.9"/>
		<circle fill="#AEBDC4" cx="20" cy="26.5" r="1.9"/>
		<circle fill="#AEBDC4" cx="24.4" cy="26.5" r="1.9"/>
		<circle fill="#AEBDC4" cx="28.7" cy="26.5" r="1.9"/>
		<circle fill="#AEBDC4" cx="33" cy="26.5" r="1.8"/>
		<circle fill="#AEBDC4" cx="37.3" cy="26.5" r="1.8"/>
		<circle fill="#AEBDC4" cx="41.7" cy="26.5" r="1.8"/>
		<circle fill="#AEBDC4" cx="46" cy="26.5" r="1.8"/>
		<circle fill="#AEBDC4" cx="50.3" cy="26.5" r="1.8"/>
		<circle fill="#AEBDC4" cx="54.6" cy="26.5" r="1.8"/>
		<circle fill="#AEBDC4" cx="59" cy="26.5" r="1.8"/>
		<circle fill="#AEBDC4" cx="63.3" cy="26.5" r="1.8"/>
		<circle fill="#AEBDC4" cx="67.6" cy="26.5" r="1.8"/>
		<circle fill="#AEBDC4" cx="72" cy="26.5" r="1.8"/>
		<circle fill="#AEBDC4" cx="76.3" cy="26.5" r="1.8"/>
		<circle fill="#AEBDC4" cx="80.6" cy="26.5" r="1.8"/>
		<circle fill="#AEBDC4" cx="84.9" cy="26.5" r="1.8"/>
		<circle fill="#AEBDC4" cx="89.3" cy="26.5" r="1.8"/>
		<circle fill="#AEBDC4" cx="93.6" cy="26.5" r="1.8"/>
		<circle fill="#AEBDC4" cx="97.9" cy="26.5" r="1.8"/>
		<circle fill="#AEBDC4" cx="102.3" cy="26.5" r="1.8"/>
		<circle fill="#AEBDC4" cx="106.6" cy="26.5" r="1.8"/>
		<circle fill="#AEBDC4" cx="110.9" cy="26.5" r="1.8"/>
		<circle fill="#AEBDC4" cx="115.3" cy="26.5" r="1.8"/>
		<circle fill="#AEBDC4" cx="119.6" cy="26.5" r="1.8"/>
	</g>
	<g>
		<circle fill="#AEBDC4" cx="37.4" cy="20.6" r="1.8"/>
		<circle fill="#AEBDC4" cx="41.7" cy="20.6" r="1.8"/>
		<circle fill="#AEBDC4" cx="46" cy="20.6" r="1.8"/>
		<circle fill="#AEBDC4" cx="50.3" cy="20.6" r="1.8"/>
		<circle fill="#AEBDC4" cx="54.7" cy="20.6" r="1.8"/>
		<circle fill="#AEBDC4" cx="59" cy="20.6" r="1.8"/>
		<circle fill="#AEBDC4" cx="63.3" cy="20.6" r="1.9"/>
		<circle fill="#AEBDC4" cx="67.6" cy="20.6" r="1.8"/>
		<circle fill="#AEBDC4" cx="72" cy="20.6" r="1.8"/>
		<circle fill="#AEBDC4" cx="76.3" cy="20.6" r="1.8"/>
		<circle fill="#AEBDC4" cx="80.6" cy="20.6" r="1.8"/>
		<circle fill="#AEBDC4" cx="84.9" cy="20.6" r="1.8"/>
		<circle fill="#AEBDC4" cx="89.3" cy="20.6" r="1.8"/>
		<circle fill="#AEBDC4" cx="93.6" cy="20.6" r="1.8"/>
		<circle fill="#AEBDC4" cx="97.9" cy="20.6" r="1.8"/>
		<circle fill="#AEBDC4" cx="102.3" cy="20.6" r="1.8"/>
		<circle fill="#AEBDC4" cx="106.6" cy="20.6" r="1.8"/>
		<circle fill="#AEBDC4" cx="110.9" cy="20.6" r="1.8"/>
		<circle fill="#AEBDC4" cx="115.3" cy="20.6" r="1.8"/>
		<circle fill="#AEBDC4" cx="119.6" cy="20.6" r="1.8"/>
	</g>
</g>
</svg>
