<svg xmlns="http://www.w3.org/2000/svg" viewBox="0 0 130 172">
    <path onclick="this.parentNode.a_fon=this;" fill="#F1F3F4" stroke="#BCC8CE" stroke-width=".4" stroke-linecap="round" stroke-miterlimit="10" d="M.53 218.61V10.8L130.47.4v218.21H.53z"/>
    <g fill="#AEBDC4">
        <circle cx="37.39" cy="20.58" r="1.85"/>
        <circle cx="41.71" cy="20.58" r="1.85"/>
        <circle cx="46.03" cy="20.58" r="1.85"/>
        <circle cx="50.35" cy="20.58" r="1.85"/>
        <circle cx="54.67" cy="20.58" r="1.85"/>
        <circle cx="58.99" cy="20.58" r="1.85"/>
        <circle cx="63.31" cy="20.58" r="1.85"/>
        <circle cx="67.64" cy="20.58" r="1.85"/>
        <circle cx="71.96" cy="20.58" r="1.85"/>
        <circle cx="76.29" cy="20.58" r="1.85"/>
        <circle cx="80.62" cy="20.58" r="1.85"/>
        <circle cx="84.95" cy="20.58" r="1.85"/>
        <circle cx="89.28" cy="20.58" r="1.85"/>
        <circle cx="93.61" cy="20.58" r="1.85"/>
        <circle cx="97.94" cy="20.58" r="1.85"/>
        <circle cx="102.27" cy="20.58" r="1.85"/>
        <circle cx="106.6" cy="20.58" r="1.85"/>
        <circle cx="110.93" cy="20.58" r="1.85"/>
        <circle cx="115.26" cy="20.58" r="1.85"/>
        <circle cx="119.59" cy="20.58" r="1.85"/>
        <circle cx="20.06" cy="156.99" r="1.85"/>
        <circle cx="24.39" cy="156.99" r="1.85"/>
        <circle cx="28.71" cy="156.99" r="1.85"/>
        <circle cx="33.03" cy="156.99" r="1.85"/>
        <circle cx="37.35" cy="156.99" r="1.85"/>
        <circle cx="41.67" cy="156.99" r="1.85"/>
        <circle cx="45.99" cy="156.99" r="1.85"/>
        <circle cx="50.31" cy="156.99" r="1.85"/>
        <circle cx="54.63" cy="156.99" r="1.85"/>
        <circle cx="58.96" cy="156.99" r="1.85"/>
        <circle cx="63.29" cy="156.99" r="1.85"/>
        <circle cx="67.63" cy="156.99" r="1.85"/>
        <circle cx="71.96" cy="156.99" r="1.85"/>
        <circle cx="76.29" cy="156.99" r="1.85"/>
        <circle cx="80.62" cy="156.99" r="1.85"/>
        <circle cx="84.95" cy="156.99" r="1.85"/>
        <circle cx="89.28" cy="156.99" r="1.85"/>
        <circle cx="93.61" cy="156.99" r="1.85"/>
        <circle cx="97.94" cy="156.99" r="1.85"/>
        <circle cx="102.27" cy="156.99" r="1.85"/>
        <circle cx="106.6" cy="156.99" r="1.85"/>
        <circle cx="110.93" cy="156.99" r="1.85"/>
        <circle cx="115.26" cy="156.99" r="1.85"/>
        <circle cx="119.59" cy="156.99" r="1.85"/>
        <circle cx="20.06" cy="162.92" r="1.85"/>
        <circle cx="24.39" cy="162.92" r="1.85"/>
        <circle cx="28.71" cy="162.92" r="1.85"/>
        <circle cx="33.03" cy="162.92" r="1.85"/>
        <circle cx="37.35" cy="162.92" r="1.85"/>
        <circle cx="41.67" cy="162.92" r="1.85"/>
        <circle cx="45.99" cy="162.92" r="1.85"/>
        <circle cx="50.31" cy="162.92" r="1.85"/>
        <circle cx="54.63" cy="162.92" r="1.85"/>
        <circle cx="58.96" cy="162.92" r="1.85"/>
        <circle cx="63.29" cy="162.92" r="1.85"/>
        <circle cx="67.63" cy="162.92" r="1.85"/>
        <circle cx="71.96" cy="162.92" r="1.85"/>
        <circle cx="76.29" cy="162.92" r="1.85"/>
        <circle cx="80.62" cy="162.92" r="1.85"/>
        <circle cx="84.95" cy="162.92" r="1.85"/>
        <circle cx="89.28" cy="162.92" r="1.85"/>
        <circle cx="93.61" cy="162.92" r="1.85"/>
        <circle cx="97.94" cy="162.92" r="1.85"/>
        <circle cx="102.27" cy="162.92" r="1.85"/>
        <circle cx="106.6" cy="162.92" r="1.85"/>
        <circle cx="110.93" cy="162.92" r="1.85"/>
        <circle cx="115.26" cy="162.92" r="1.85"/>
        <circle cx="119.59" cy="162.92" r="1.85"/>
        <circle cx="20.06" cy="168.86" r="1.85"/>
        <circle cx="24.39" cy="168.86" r="1.85"/>
        <circle cx="28.71" cy="168.86" r="1.85"/>
        <circle cx="33.03" cy="168.86" r="1.85"/>
        <circle cx="37.35" cy="168.86" r="1.85"/>
        <circle cx="41.67" cy="168.86" r="1.85"/>
        <circle cx="45.99" cy="168.86" r="1.85"/>
        <circle cx="50.31" cy="168.86" r="1.85"/>
        <circle cx="54.63" cy="168.86" r="1.85"/>
        <circle cx="58.96" cy="168.86" r="1.85"/>
        <circle cx="63.29" cy="168.86" r="1.85"/>
        <circle cx="67.63" cy="168.86" r="1.85"/>
        <circle cx="71.96" cy="168.86" r="1.85"/>
        <circle cx="76.29" cy="168.86" r="1.85"/>
        <circle cx="80.62" cy="168.86" r="1.85"/>
        <circle cx="84.95" cy="168.86" r="1.85"/>
        <circle cx="89.28" cy="168.86" r="1.85"/>
        <circle cx="93.61" cy="168.86" r="1.85"/>
        <circle cx="97.94" cy="168.86" r="1.85"/>
        <circle cx="102.27" cy="168.86" r="1.85"/>
        <circle cx="106.6" cy="168.86" r="1.85"/>
        <circle cx="110.93" cy="168.86" r="1.85"/>
        <circle cx="115.26" cy="168.86" r="1.85"/>
        <circle cx="119.59" cy="168.86" r="1.85"/>
        <circle cx="20.06" cy="174.79" r="1.85"/>
        <circle cx="24.39" cy="174.79" r="1.85"/>
        <circle cx="28.71" cy="174.79" r="1.85"/>
        <circle cx="33.03" cy="174.79" r="1.85"/>
        <circle cx="37.35" cy="174.79" r="1.85"/>
        <circle cx="41.67" cy="174.79" r="1.85"/>
        <circle cx="45.99" cy="174.79" r="1.85"/>
        <circle cx="50.31" cy="174.79" r="1.85"/>
        <circle cx="54.63" cy="174.79" r="1.85"/>
        <circle cx="58.96" cy="174.79" r="1.85"/>
        <circle cx="63.29" cy="174.79" r="1.85"/>
        <circle cx="67.63" cy="174.79" r="1.85"/>
        <circle cx="71.96" cy="174.79" r="1.85"/>
        <circle cx="76.29" cy="174.79" r="1.85"/>
        <circle cx="80.62" cy="174.79" r="1.85"/>
        <circle cx="84.95" cy="174.79" r="1.85"/>
        <circle cx="89.28" cy="174.79" r="1.85"/>
        <circle cx="93.61" cy="174.79" r="1.85"/>
        <circle cx="97.94" cy="174.79" r="1.85"/>
        <circle cx="102.27" cy="174.79" r="1.85"/>
        <circle cx="106.6" cy="174.79" r="1.85"/>
        <circle cx="110.93" cy="174.79" r="1.85"/>
        <circle cx="115.26" cy="174.79" r="1.85"/>
        <circle cx="119.59" cy="174.79" r="1.85"/>
        <circle cx="20.06" cy="180.72" r="1.85"/>
        <circle cx="24.39" cy="180.72" r="1.85"/>
        <circle cx="28.71" cy="180.72" r="1.85"/>
        <circle cx="33.03" cy="180.72" r="1.85"/>
        <circle cx="37.35" cy="180.72" r="1.85"/>
        <circle cx="41.67" cy="180.72" r="1.85"/>
        <circle cx="45.99" cy="180.72" r="1.85"/>
        <circle cx="50.31" cy="180.72" r="1.85"/>
        <circle cx="54.63" cy="180.72" r="1.85"/>
        <circle cx="58.96" cy="180.72" r="1.85"/>
        <circle cx="63.29" cy="180.72" r="1.85"/>
        <circle cx="67.63" cy="180.72" r="1.85"/>
        <circle cx="71.96" cy="180.72" r="1.85"/>
        <circle cx="76.29" cy="180.72" r="1.85"/>
        <circle cx="80.62" cy="180.72" r="1.85"/>
        <circle cx="84.95" cy="180.72" r="1.85"/>
        <circle cx="89.28" cy="180.72" r="1.85"/>
        <circle cx="93.61" cy="180.72" r="1.85"/>
        <circle cx="97.94" cy="180.72" r="1.85"/>
        <circle cx="102.27" cy="180.72" r="1.85"/>
        <circle cx="106.6" cy="180.72" r="1.85"/>
        <circle cx="110.93" cy="180.72" r="1.85"/>
        <circle cx="115.26" cy="180.72" r="1.85"/>
        <circle cx="119.59" cy="180.72" r="1.85"/>
        <g>
            <circle cx="11.4" cy="133.27" r="1.85"/>
            <circle cx="15.72" cy="133.27" r="1.85"/>
            <circle cx="20.05" cy="133.27" r="1.85"/>
            <circle cx="24.37" cy="133.27" r="1.85"/>
            <circle cx="28.69" cy="133.27" r="1.85"/>
            <circle cx="33.01" cy="133.27" r="1.85"/>
            <circle cx="37.33" cy="133.27" r="1.85"/>
            <circle cx="41.65" cy="133.27" r="1.85"/>
            <circle cx="45.97" cy="133.27" r="1.85"/>
            <circle cx="50.3" cy="133.27" r="1.85"/>
            <circle cx="54.63" cy="133.27" r="1.85"/>
            <circle cx="58.96" cy="133.27" r="1.85"/>
            <circle cx="63.29" cy="133.27" r="1.85"/>
            <circle cx="67.63" cy="133.27" r="1.85"/>
            <circle cx="71.96" cy="133.27" r="1.85"/>
            <circle cx="76.29" cy="133.27" r="1.85"/>
            <circle cx="80.62" cy="133.27" r="1.85"/>
            <circle cx="84.95" cy="133.27" r="1.85"/>
            <circle cx="89.28" cy="133.27" r="1.85"/>
            <circle cx="93.61" cy="133.27" r="1.85"/>
            <circle cx="97.94" cy="133.27" r="1.85"/>
            <circle cx="102.27" cy="133.27" r="1.85"/>
            <circle cx="106.6" cy="133.27" r="1.85"/>
            <circle cx="110.93" cy="133.27" r="1.85"/>
        </g>
        <g>
            <circle cx="11.4" cy="127.34" r="1.85"/>
            <circle cx="15.72" cy="127.34" r="1.85"/>
            <circle cx="20.05" cy="127.34" r="1.85"/>
            <circle cx="24.37" cy="127.34" r="1.85"/>
            <circle cx="28.69" cy="127.34" r="1.85"/>
            <circle cx="33.01" cy="127.34" r="1.85"/>
            <circle cx="37.33" cy="127.34" r="1.85"/>
            <circle cx="41.65" cy="127.34" r="1.85"/>
            <circle cx="45.97" cy="127.34" r="1.85"/>
            <circle cx="50.3" cy="127.34" r="1.85"/>
            <circle cx="54.63" cy="127.34" r="1.85"/>
            <circle cx="58.96" cy="127.34" r="1.85"/>
            <circle cx="63.29" cy="127.34" r="1.85"/>
            <circle cx="67.63" cy="127.34" r="1.85"/>
            <circle cx="71.96" cy="127.34" r="1.85"/>
            <circle cx="76.29" cy="127.34" r="1.85"/>
            <circle cx="80.62" cy="127.34" r="1.85"/>
            <circle cx="84.95" cy="127.34" r="1.85"/>
            <circle cx="89.28" cy="127.34" r="1.85"/>
            <circle cx="93.61" cy="127.34" r="1.85"/>
            <circle cx="97.94" cy="127.34" r="1.85"/>
            <circle cx="102.27" cy="127.34" r="1.85"/>
            <circle cx="106.6" cy="127.34" r="1.85"/>
            <circle cx="110.93" cy="127.34" r="1.85"/>
        </g>
        <g>
            <circle cx="11.4" cy="121.41" r="1.85"/>
            <circle cx="15.72" cy="121.41" r="1.85"/>
            <circle cx="20.05" cy="121.41" r="1.85"/>
            <circle cx="24.37" cy="121.41" r="1.85"/>
            <circle cx="28.69" cy="121.41" r="1.85"/>
            <circle cx="33.01" cy="121.41" r="1.85"/>
            <circle cx="37.33" cy="121.41" r="1.85"/>
            <circle cx="41.65" cy="121.41" r="1.85"/>
            <circle cx="45.97" cy="121.41" r="1.85"/>
            <circle cx="50.3" cy="121.41" r="1.85"/>
            <circle cx="54.63" cy="121.41" r="1.85"/>
            <circle cx="58.96" cy="121.41" r="1.85"/>
            <circle cx="63.29" cy="121.41" r="1.85"/>
            <circle cx="67.63" cy="121.41" r="1.85"/>
            <circle cx="71.96" cy="121.41" r="1.85"/>
            <circle cx="76.29" cy="121.41" r="1.85"/>
            <circle cx="80.62" cy="121.41" r="1.85"/>
            <circle cx="84.95" cy="121.41" r="1.85"/>
            <circle cx="89.28" cy="121.41" r="1.85"/>
            <circle cx="93.61" cy="121.41" r="1.85"/>
            <circle cx="97.94" cy="121.41" r="1.85"/>
            <circle cx="102.27" cy="121.41" r="1.85"/>
            <circle cx="106.6" cy="121.41" r="1.85"/>
            <circle cx="110.93" cy="121.41" r="1.85"/>
        </g>
        <g>
            <circle cx="11.4" cy="115.48" r="1.85"/>
            <circle cx="15.72" cy="115.48" r="1.85"/>
            <circle cx="20.05" cy="115.48" r="1.85"/>
            <circle cx="24.37" cy="115.48" r="1.85"/>
            <circle cx="28.69" cy="115.48" r="1.85"/>
            <circle cx="33.01" cy="115.48" r="1.85"/>
            <circle cx="37.33" cy="115.48" r="1.85"/>
            <circle cx="41.65" cy="115.48" r="1.85"/>
            <circle cx="45.97" cy="115.48" r="1.85"/>
            <circle cx="50.3" cy="115.48" r="1.85"/>
            <circle cx="54.63" cy="115.48" r="1.85"/>
            <circle cx="58.96" cy="115.48" r="1.85"/>
            <circle cx="63.29" cy="115.48" r="1.85"/>
            <circle cx="67.63" cy="115.48" r="1.85"/>
            <circle cx="71.96" cy="115.48" r="1.85"/>
            <circle cx="76.29" cy="115.48" r="1.85"/>
            <circle cx="80.62" cy="115.48" r="1.85"/>
            <circle cx="84.95" cy="115.48" r="1.85"/>
            <circle cx="89.28" cy="115.48" r="1.85"/>
            <circle cx="93.61" cy="115.48" r="1.85"/>
            <circle cx="97.94" cy="115.48" r="1.85"/>
            <circle cx="102.27" cy="115.48" r="1.85"/>
            <circle cx="106.6" cy="115.48" r="1.85"/>
            <circle cx="110.93" cy="115.48" r="1.85"/>
        </g>
        <g>
            <circle cx="11.4" cy="209.57" r="1.85"/>
            <circle cx="15.72" cy="209.57" r="1.85"/>
            <circle cx="20.05" cy="209.57" r="1.85"/>
            <circle cx="24.37" cy="209.57" r="1.85"/>
            <circle cx="28.69" cy="209.57" r="1.85"/>
            <circle cx="33.01" cy="209.57" r="1.85"/>
            <circle cx="37.33" cy="209.57" r="1.85"/>
            <circle cx="41.65" cy="209.57" r="1.85"/>
            <circle cx="45.97" cy="209.57" r="1.85"/>
            <circle cx="50.3" cy="209.57" r="1.85"/>
            <circle cx="54.63" cy="209.57" r="1.85"/>
            <circle cx="58.96" cy="209.57" r="1.85"/>
            <circle cx="63.29" cy="209.57" r="1.85"/>
            <circle cx="67.63" cy="209.57" r="1.85"/>
            <circle cx="71.96" cy="209.57" r="1.85"/>
            <circle cx="76.29" cy="209.57" r="1.85"/>
            <circle cx="80.62" cy="209.57" r="1.85"/>
            <circle cx="84.95" cy="209.57" r="1.85"/>
            <circle cx="89.28" cy="209.57" r="1.85"/>
            <circle cx="93.61" cy="209.57" r="1.85"/>
            <circle cx="97.94" cy="209.57" r="1.85"/>
            <circle cx="102.27" cy="209.57" r="1.85"/>
            <circle cx="106.6" cy="209.57" r="1.85"/>
            <circle cx="110.93" cy="209.57" r="1.85"/>
            <circle cx="115.26" cy="209.57" r="1.85"/>
            <circle cx="119.59" cy="209.57" r="1.85"/>
        </g>
        <g>
            <circle cx="11.4" cy="203.64" r="1.85"/>
            <circle cx="15.72" cy="203.64" r="1.85"/>
            <circle cx="20.05" cy="203.64" r="1.85"/>
            <circle cx="24.37" cy="203.64" r="1.85"/>
            <circle cx="28.69" cy="203.64" r="1.85"/>
            <circle cx="33.01" cy="203.64" r="1.85"/>
            <circle cx="37.33" cy="203.64" r="1.85"/>
            <circle cx="41.65" cy="203.64" r="1.85"/>
            <circle cx="45.97" cy="203.64" r="1.85"/>
            <circle cx="50.3" cy="203.64" r="1.85"/>
            <circle cx="54.63" cy="203.64" r="1.85"/>
            <circle cx="58.96" cy="203.64" r="1.85"/>
            <circle cx="63.29" cy="203.64" r="1.85"/>
            <circle cx="67.63" cy="203.64" r="1.85"/>
            <circle cx="71.96" cy="203.64" r="1.85"/>
            <circle cx="76.29" cy="203.64" r="1.85"/>
            <circle cx="80.62" cy="203.64" r="1.85"/>
            <circle cx="84.95" cy="203.64" r="1.85"/>
            <circle cx="89.28" cy="203.64" r="1.85"/>
            <circle cx="93.61" cy="203.64" r="1.85"/>
            <circle cx="97.94" cy="203.64" r="1.85"/>
            <circle cx="102.27" cy="203.64" r="1.85"/>
            <circle cx="106.6" cy="203.64" r="1.85"/>
            <circle cx="110.93" cy="203.64" r="1.85"/>
            <circle cx="115.26" cy="203.64" r="1.85"/>
            <circle cx="119.59" cy="203.64" r="1.85"/>
        </g>
        <g>
            <circle cx="11.4" cy="198.51" r="1.85"/>
            <circle cx="15.72" cy="198.51" r="1.85"/>
            <circle cx="20.05" cy="198.51" r="1.85"/>
            <circle cx="24.37" cy="198.51" r="1.85"/>
            <circle cx="28.69" cy="198.51" r="1.85"/>
            <circle cx="33.01" cy="198.51" r="1.85"/>
            <circle cx="37.33" cy="198.51" r="1.85"/>
            <circle cx="41.65" cy="198.51" r="1.85"/>
            <circle cx="45.97" cy="198.51" r="1.85"/>
            <circle cx="50.3" cy="198.51" r="1.85"/>
            <circle cx="54.63" cy="198.51" r="1.85"/>
            <circle cx="58.96" cy="198.51" r="1.85"/>
            <circle cx="63.29" cy="198.51" r="1.85"/>
            <circle cx="67.63" cy="198.51" r="1.85"/>
            <circle cx="71.96" cy="198.51" r="1.85"/>
            <circle cx="76.29" cy="198.51" r="1.85"/>
            <circle cx="80.62" cy="198.51" r="1.85"/>
            <circle cx="84.95" cy="198.51" r="1.85"/>
            <circle cx="89.28" cy="198.51" r="1.85"/>
            <circle cx="93.61" cy="198.51" r="1.85"/>
            <circle cx="97.94" cy="198.51" r="1.85"/>
            <circle cx="102.27" cy="198.51" r="1.85"/>
            <circle cx="106.6" cy="198.51" r="1.85"/>
            <circle cx="110.93" cy="198.51" r="1.85"/>
            <circle cx="115.26" cy="198.51" r="1.85"/>
            <circle cx="119.59" cy="198.51" r="1.85"/>
        </g>
        <g>
            <circle cx="11.4" cy="192.58" r="1.85"/>
            <circle cx="15.72" cy="192.58" r="1.85"/>
            <circle cx="20.05" cy="192.58" r="1.85"/>
            <circle cx="24.37" cy="192.58" r="1.85"/>
            <circle cx="28.69" cy="192.58" r="1.85"/>
            <circle cx="33.01" cy="192.58" r="1.85"/>
            <circle cx="37.33" cy="192.58" r="1.85"/>
            <circle cx="41.65" cy="192.58" r="1.85"/>
            <circle cx="45.97" cy="192.58" r="1.85"/>
            <circle cx="50.3" cy="192.58" r="1.85"/>
            <circle cx="54.63" cy="192.58" r="1.85"/>
            <circle cx="58.96" cy="192.58" r="1.85"/>
            <circle cx="63.29" cy="192.58" r="1.85"/>
            <circle cx="67.63" cy="192.58" r="1.85"/>
            <circle cx="71.96" cy="192.58" r="1.85"/>
            <circle cx="76.29" cy="192.58" r="1.85"/>
            <circle cx="80.62" cy="192.58" r="1.85"/>
            <circle cx="84.95" cy="192.58" r="1.85"/>
            <circle cx="89.28" cy="192.58" r="1.85"/>
            <circle cx="93.61" cy="192.58" r="1.85"/>
            <circle cx="97.94" cy="192.58" r="1.85"/>
            <circle cx="102.27" cy="192.58" r="1.85"/>
            <circle cx="106.6" cy="192.58" r="1.85"/>
            <circle cx="110.93" cy="192.58" r="1.85"/>
            <circle cx="115.26" cy="192.58" r="1.85"/>
            <circle cx="119.59" cy="192.58" r="1.85"/>
        </g>
        <g>
            <circle cx="11.4" cy="186.65" r="1.85"/>
            <circle cx="15.72" cy="186.65" r="1.85"/>
            <circle cx="20.05" cy="186.65" r="1.85"/>
            <circle cx="24.37" cy="186.65" r="1.85"/>
            <circle cx="28.69" cy="186.65" r="1.85"/>
            <circle cx="33.01" cy="186.65" r="1.85"/>
            <circle cx="37.33" cy="186.65" r="1.85"/>
            <circle cx="41.65" cy="186.65" r="1.85"/>
            <circle cx="45.97" cy="186.65" r="1.85"/>
            <circle cx="50.3" cy="186.65" r="1.85"/>
            <circle cx="54.63" cy="186.65" r="1.85"/>
            <circle cx="58.96" cy="186.65" r="1.85"/>
            <circle cx="63.29" cy="186.65" r="1.85"/>
            <circle cx="67.63" cy="186.65" r="1.85"/>
            <circle cx="71.96" cy="186.65" r="1.85"/>
            <circle cx="76.29" cy="186.65" r="1.85"/>
            <circle cx="80.62" cy="186.65" r="1.85"/>
            <circle cx="84.95" cy="186.65" r="1.85"/>
            <circle cx="89.28" cy="186.65" r="1.85"/>
            <circle cx="93.61" cy="186.65" r="1.85"/>
            <circle cx="97.94" cy="186.65" r="1.85"/>
            <circle cx="102.27" cy="186.65" r="1.85"/>
            <circle cx="106.6" cy="186.65" r="1.85"/>
            <circle cx="110.93" cy="186.65" r="1.85"/>
            <circle cx="115.26" cy="186.65" r="1.85"/>
            <circle cx="119.59" cy="186.65" r="1.85"/>
        </g>
        <g>
            <circle cx="11.4" cy="109.55" r="1.85"/>
            <circle cx="15.72" cy="109.55" r="1.85"/>
            <circle cx="20.05" cy="109.55" r="1.85"/>
            <circle cx="24.37" cy="109.55" r="1.85"/>
            <circle cx="28.69" cy="109.55" r="1.85"/>
            <circle cx="33.01" cy="109.55" r="1.85"/>
            <circle cx="37.33" cy="109.55" r="1.85"/>
            <circle cx="41.65" cy="109.55" r="1.85"/>
            <circle cx="45.97" cy="109.55" r="1.85"/>
            <circle cx="50.3" cy="109.55" r="1.85"/>
            <circle cx="54.63" cy="109.55" r="1.85"/>
            <circle cx="58.96" cy="109.55" r="1.85"/>
            <circle cx="63.29" cy="109.55" r="1.85"/>
            <circle cx="67.63" cy="109.55" r="1.85"/>
            <circle cx="71.96" cy="109.55" r="1.85"/>
            <circle cx="76.29" cy="109.55" r="1.85"/>
            <circle cx="80.62" cy="109.55" r="1.85"/>
            <circle cx="84.95" cy="109.55" r="1.85"/>
            <circle cx="89.28" cy="109.55" r="1.85"/>
            <circle cx="93.61" cy="109.55" r="1.85"/>
            <circle cx="97.94" cy="109.55" r="1.85"/>
            <circle cx="102.27" cy="109.55" r="1.85"/>
            <circle cx="106.6" cy="109.55" r="1.85"/>
            <circle cx="110.93" cy="109.55" r="1.85"/>
            <circle cx="115.26" cy="109.55" r="1.85"/>
            <circle cx="119.59" cy="109.55" r="1.85"/>
        </g>
        <g>
            <circle cx="11.4" cy="103.62" r="1.85"/>
            <circle cx="15.72" cy="103.62" r="1.85"/>
            <circle cx="20.05" cy="103.62" r="1.85"/>
            <circle cx="24.37" cy="103.62" r="1.85"/>
            <circle cx="28.69" cy="103.62" r="1.85"/>
            <circle cx="33.01" cy="103.62" r="1.85"/>
            <circle cx="37.33" cy="103.62" r="1.85"/>
            <circle cx="41.65" cy="103.62" r="1.85"/>
            <circle cx="45.97" cy="103.62" r="1.85"/>
            <circle cx="50.3" cy="103.62" r="1.85"/>
            <circle cx="54.63" cy="103.62" r="1.85"/>
            <circle cx="58.96" cy="103.62" r="1.85"/>
            <circle cx="63.29" cy="103.62" r="1.85"/>
            <circle cx="67.63" cy="103.62" r="1.85"/>
            <circle cx="71.96" cy="103.62" r="1.85"/>
            <circle cx="76.29" cy="103.62" r="1.85"/>
            <circle cx="80.62" cy="103.62" r="1.85"/>
            <circle cx="84.95" cy="103.62" r="1.85"/>
            <circle cx="89.28" cy="103.62" r="1.85"/>
            <circle cx="93.61" cy="103.62" r="1.85"/>
            <circle cx="97.94" cy="103.62" r="1.85"/>
            <circle cx="102.27" cy="103.62" r="1.85"/>
            <circle cx="106.6" cy="103.62" r="1.85"/>
            <circle cx="110.93" cy="103.62" r="1.85"/>
            <circle cx="115.26" cy="103.62" r="1.85"/>
            <circle cx="119.59" cy="103.62" r="1.85"/>
        </g>
        <g>
            <circle cx="11.4" cy="97.69" r="1.85"/>
            <circle cx="15.72" cy="97.69" r="1.85"/>
            <circle cx="20.05" cy="97.69" r="1.85"/>
            <circle cx="24.37" cy="97.69" r="1.85"/>
            <circle cx="28.69" cy="97.69" r="1.85"/>
            <circle cx="33.01" cy="97.69" r="1.85"/>
            <circle cx="37.33" cy="97.69" r="1.85"/>
            <circle cx="41.65" cy="97.69" r="1.85"/>
            <circle cx="45.97" cy="97.69" r="1.85"/>
            <circle cx="50.3" cy="97.69" r="1.85"/>
            <circle cx="54.63" cy="97.69" r="1.85"/>
            <circle cx="58.96" cy="97.69" r="1.85"/>
            <circle cx="63.29" cy="97.69" r="1.85"/>
            <circle cx="67.63" cy="97.69" r="1.85"/>
            <circle cx="71.96" cy="97.69" r="1.85"/>
            <circle cx="76.29" cy="97.69" r="1.85"/>
            <circle cx="80.62" cy="97.69" r="1.85"/>
            <circle cx="84.95" cy="97.69" r="1.85"/>
            <circle cx="89.28" cy="97.69" r="1.85"/>
            <circle cx="93.61" cy="97.69" r="1.85"/>
            <circle cx="97.94" cy="97.69" r="1.85"/>
            <circle cx="102.27" cy="97.69" r="1.85"/>
            <circle cx="106.6" cy="97.69" r="1.85"/>
            <circle cx="110.93" cy="97.69" r="1.85"/>
            <circle cx="115.26" cy="97.69" r="1.85"/>
            <circle cx="119.59" cy="97.69" r="1.85"/>
        </g>
        <g>
            <circle cx="11.4" cy="91.75" r="1.85"/>
            <circle cx="15.72" cy="91.75" r="1.85"/>
            <circle cx="20.05" cy="91.75" r="1.85"/>
            <circle cx="24.37" cy="91.75" r="1.85"/>
            <circle cx="28.69" cy="91.75" r="1.85"/>
            <circle cx="33.01" cy="91.75" r="1.85"/>
            <circle cx="37.33" cy="91.75" r="1.85"/>
            <circle cx="41.65" cy="91.75" r="1.85"/>
            <circle cx="45.97" cy="91.75" r="1.85"/>
            <circle cx="50.3" cy="91.75" r="1.85"/>
            <circle cx="54.63" cy="91.75" r="1.85"/>
            <circle cx="58.96" cy="91.75" r="1.85"/>
            <circle cx="63.29" cy="91.75" r="1.85"/>
            <circle cx="67.63" cy="91.75" r="1.85"/>
            <circle cx="71.96" cy="91.75" r="1.85"/>
            <circle cx="76.29" cy="91.75" r="1.85"/>
            <circle cx="80.62" cy="91.75" r="1.85"/>
            <circle cx="84.95" cy="91.75" r="1.85"/>
            <circle cx="89.28" cy="91.75" r="1.85"/>
            <circle cx="93.61" cy="91.75" r="1.85"/>
            <circle cx="97.94" cy="91.75" r="1.85"/>
            <circle cx="102.27" cy="91.75" r="1.85"/>
            <circle cx="106.6" cy="91.75" r="1.85"/>
            <circle cx="110.93" cy="91.75" r="1.85"/>
            <circle cx="115.26" cy="91.75" r="1.85"/>
            <circle cx="119.59" cy="91.75" r="1.85"/>
        </g>
        <g>
            <circle cx="11.4" cy="85.82" r="1.85"/>
            <circle cx="15.72" cy="85.82" r="1.85"/>
            <circle cx="20.05" cy="85.82" r="1.85"/>
            <circle cx="24.37" cy="85.82" r="1.85"/>
            <circle cx="28.69" cy="85.82" r="1.85"/>
            <circle cx="33.01" cy="85.82" r="1.85"/>
            <circle cx="37.33" cy="85.82" r="1.85"/>
            <circle cx="41.65" cy="85.82" r="1.85"/>
            <circle cx="45.97" cy="85.82" r="1.85"/>
            <circle cx="50.3" cy="85.82" r="1.85"/>
            <circle cx="54.63" cy="85.82" r="1.85"/>
            <circle cx="58.96" cy="85.82" r="1.85"/>
            <circle cx="63.29" cy="85.82" r="1.85"/>
            <circle cx="67.63" cy="85.82" r="1.85"/>
            <circle cx="71.96" cy="85.82" r="1.85"/>
            <circle cx="76.29" cy="85.82" r="1.85"/>
            <circle cx="80.62" cy="85.82" r="1.85"/>
            <circle cx="84.95" cy="85.82" r="1.85"/>
            <circle cx="89.28" cy="85.82" r="1.85"/>
            <circle cx="93.61" cy="85.82" r="1.85"/>
            <circle cx="97.94" cy="85.82" r="1.85"/>
            <circle cx="102.27" cy="85.82" r="1.85"/>
            <circle cx="106.6" cy="85.82" r="1.85"/>
            <circle cx="110.93" cy="85.82" r="1.85"/>
            <circle cx="115.26" cy="85.82" r="1.85"/>
            <circle cx="119.59" cy="85.82" r="1.85"/>
        </g>
        <g>
            <circle cx="11.4" cy="79.89" r="1.85"/>
            <circle cx="15.72" cy="79.89" r="1.85"/>
            <circle cx="20.05" cy="79.89" r="1.85"/>
            <circle cx="24.37" cy="79.89" r="1.85"/>
            <circle cx="28.69" cy="79.89" r="1.85"/>
            <circle cx="33.01" cy="79.89" r="1.85"/>
            <circle cx="37.33" cy="79.89" r="1.85"/>
            <circle cx="41.65" cy="79.89" r="1.85"/>
            <circle cx="45.97" cy="79.89" r="1.85"/>
            <circle cx="50.3" cy="79.89" r="1.85"/>
            <circle cx="54.63" cy="79.89" r="1.85"/>
            <circle cx="58.96" cy="79.89" r="1.85"/>
            <circle cx="63.29" cy="79.89" r="1.85"/>
            <circle cx="67.63" cy="79.89" r="1.85"/>
            <circle cx="71.96" cy="79.89" r="1.85"/>
            <circle cx="76.29" cy="79.89" r="1.85"/>
            <circle cx="80.62" cy="79.89" r="1.85"/>
            <circle cx="84.95" cy="79.89" r="1.85"/>
            <circle cx="89.28" cy="79.89" r="1.85"/>
            <circle cx="93.61" cy="79.89" r="1.85"/>
            <circle cx="97.94" cy="79.89" r="1.85"/>
            <circle cx="102.27" cy="79.89" r="1.85"/>
            <circle cx="106.6" cy="79.89" r="1.85"/>
            <circle cx="110.93" cy="79.89" r="1.85"/>
            <circle cx="115.26" cy="79.89" r="1.85"/>
            <circle cx="119.59" cy="79.89" r="1.85"/>
        </g>
        <g>
            <circle cx="11.4" cy="73.96" r="1.85"/>
            <circle cx="15.72" cy="73.96" r="1.85"/>
            <circle cx="20.05" cy="73.96" r="1.85"/>
            <circle cx="24.37" cy="73.96" r="1.85"/>
            <circle cx="28.69" cy="73.96" r="1.85"/>
            <circle cx="33.01" cy="73.96" r="1.85"/>
            <circle cx="37.33" cy="73.96" r="1.85"/>
            <circle cx="41.65" cy="73.96" r="1.85"/>
            <circle cx="45.97" cy="73.96" r="1.85"/>
            <circle cx="50.3" cy="73.96" r="1.85"/>
            <circle cx="54.63" cy="73.96" r="1.85"/>
            <circle cx="58.96" cy="73.96" r="1.85"/>
            <circle cx="63.29" cy="73.96" r="1.85"/>
            <circle cx="67.63" cy="73.96" r="1.85"/>
            <circle cx="71.96" cy="73.96" r="1.85"/>
            <circle cx="76.29" cy="73.96" r="1.85"/>
            <circle cx="80.62" cy="73.96" r="1.85"/>
            <circle cx="84.95" cy="73.96" r="1.85"/>
            <circle cx="89.28" cy="73.96" r="1.85"/>
            <circle cx="93.61" cy="73.96" r="1.85"/>
            <circle cx="97.94" cy="73.96" r="1.85"/>
            <circle cx="102.27" cy="73.96" r="1.85"/>
            <circle cx="106.6" cy="73.96" r="1.85"/>
            <circle cx="110.93" cy="73.96" r="1.85"/>
            <circle cx="115.26" cy="73.96" r="1.85"/>
            <circle cx="119.59" cy="73.96" r="1.85"/>
        </g>
        <g>
            <circle cx="11.4" cy="68.03" r="1.85"/>
            <circle cx="15.72" cy="68.03" r="1.85"/>
            <circle cx="20.05" cy="68.03" r="1.85"/>
            <circle cx="24.37" cy="68.03" r="1.85"/>
            <circle cx="28.69" cy="68.03" r="1.85"/>
            <circle cx="33.01" cy="68.03" r="1.85"/>
            <circle cx="37.33" cy="68.03" r="1.85"/>
            <circle cx="41.65" cy="68.03" r="1.85"/>
            <circle cx="45.97" cy="68.03" r="1.85"/>
            <circle cx="50.3" cy="68.03" r="1.85"/>
            <circle cx="54.63" cy="68.03" r="1.85"/>
            <circle cx="58.96" cy="68.03" r="1.85"/>
            <circle cx="63.29" cy="68.03" r="1.85"/>
            <circle cx="67.63" cy="68.03" r="1.85"/>
            <circle cx="71.96" cy="68.03" r="1.85"/>
            <circle cx="76.29" cy="68.03" r="1.85"/>
            <circle cx="80.62" cy="68.03" r="1.85"/>
            <circle cx="84.95" cy="68.03" r="1.85"/>
            <circle cx="89.28" cy="68.03" r="1.85"/>
            <circle cx="93.61" cy="68.03" r="1.85"/>
            <circle cx="97.94" cy="68.03" r="1.85"/>
            <circle cx="102.27" cy="68.03" r="1.85"/>
            <circle cx="106.6" cy="68.03" r="1.85"/>
            <circle cx="110.93" cy="68.03" r="1.85"/>
            <circle cx="115.26" cy="68.03" r="1.85"/>
            <circle cx="119.59" cy="68.03" r="1.85"/>
        </g>
        <g>
            <circle cx="11.4" cy="62.1" r="1.85"/>
            <circle cx="15.72" cy="62.1" r="1.85"/>
            <circle cx="20.05" cy="62.1" r="1.85"/>
            <circle cx="24.37" cy="62.1" r="1.85"/>
            <circle cx="28.69" cy="62.1" r="1.85"/>
            <circle cx="33.01" cy="62.1" r="1.85"/>
            <circle cx="37.33" cy="62.1" r="1.85"/>
            <circle cx="41.65" cy="62.1" r="1.85"/>
            <circle cx="45.97" cy="62.1" r="1.85"/>
            <circle cx="50.3" cy="62.1" r="1.85"/>
            <circle cx="54.63" cy="62.1" r="1.85"/>
            <circle cx="58.96" cy="62.1" r="1.85"/>
            <circle cx="63.29" cy="62.1" r="1.85"/>
            <circle cx="67.63" cy="62.1" r="1.85"/>
            <circle cx="71.96" cy="62.1" r="1.85"/>
            <circle cx="76.29" cy="62.1" r="1.85"/>
            <circle cx="80.62" cy="62.1" r="1.85"/>
            <circle cx="84.95" cy="62.1" r="1.85"/>
            <circle cx="89.28" cy="62.1" r="1.85"/>
            <circle cx="93.61" cy="62.1" r="1.85"/>
            <circle cx="97.94" cy="62.1" r="1.85"/>
            <circle cx="102.27" cy="62.1" r="1.85"/>
            <circle cx="106.6" cy="62.1" r="1.85"/>
            <circle cx="110.93" cy="62.1" r="1.85"/>
            <circle cx="115.26" cy="62.1" r="1.85"/>
            <circle cx="119.59" cy="62.1" r="1.85"/>
        </g>
        <g>
            <circle cx="11.4" cy="56.17" r="1.85"/>
            <circle cx="15.72" cy="56.17" r="1.85"/>
            <circle cx="20.05" cy="56.17" r="1.85"/>
            <circle cx="24.37" cy="56.17" r="1.85"/>
            <circle cx="28.69" cy="56.17" r="1.85"/>
            <circle cx="33.01" cy="56.17" r="1.85"/>
            <circle cx="37.33" cy="56.17" r="1.85"/>
            <circle cx="41.65" cy="56.17" r="1.85"/>
            <circle cx="45.97" cy="56.17" r="1.85"/>
            <circle cx="50.3" cy="56.17" r="1.85"/>
            <circle cx="54.63" cy="56.17" r="1.85"/>
            <circle cx="58.96" cy="56.17" r="1.85"/>
            <circle cx="63.29" cy="56.17" r="1.85"/>
            <circle cx="67.63" cy="56.17" r="1.85"/>
            <circle cx="71.96" cy="56.17" r="1.85"/>
            <circle cx="76.29" cy="56.17" r="1.85"/>
            <circle cx="80.62" cy="56.17" r="1.85"/>
            <circle cx="84.95" cy="56.17" r="1.85"/>
            <circle cx="89.28" cy="56.17" r="1.85"/>
            <circle cx="93.61" cy="56.17" r="1.85"/>
            <circle cx="97.94" cy="56.17" r="1.85"/>
            <circle cx="102.27" cy="56.17" r="1.85"/>
            <circle cx="106.6" cy="56.17" r="1.85"/>
            <circle cx="110.93" cy="56.17" r="1.85"/>
            <circle cx="115.26" cy="56.17" r="1.85"/>
            <circle cx="119.59" cy="56.17" r="1.85"/>
        </g>
        <g>
            <circle cx="11.4" cy="50.24" r="1.85"/>
            <circle cx="15.72" cy="50.24" r="1.85"/>
            <circle cx="20.05" cy="50.24" r="1.85"/>
            <circle cx="24.37" cy="50.24" r="1.85"/>
            <circle cx="28.69" cy="50.24" r="1.85"/>
            <circle cx="33.01" cy="50.24" r="1.85"/>
            <circle cx="37.33" cy="50.24" r="1.85"/>
            <circle cx="41.65" cy="50.24" r="1.85"/>
            <circle cx="45.97" cy="50.24" r="1.85"/>
            <circle cx="50.3" cy="50.24" r="1.85"/>
            <circle cx="54.63" cy="50.24" r="1.85"/>
            <circle cx="58.96" cy="50.24" r="1.85"/>
            <circle cx="63.29" cy="50.24" r="1.85"/>
            <circle cx="67.63" cy="50.24" r="1.85"/>
            <circle cx="71.96" cy="50.24" r="1.85"/>
            <circle cx="76.29" cy="50.24" r="1.85"/>
            <circle cx="80.62" cy="50.24" r="1.85"/>
            <circle cx="84.95" cy="50.24" r="1.85"/>
            <circle cx="89.28" cy="50.24" r="1.85"/>
            <circle cx="93.61" cy="50.24" r="1.85"/>
            <circle cx="97.94" cy="50.24" r="1.85"/>
            <circle cx="102.27" cy="50.24" r="1.85"/>
            <circle cx="106.6" cy="50.24" r="1.85"/>
            <circle cx="110.93" cy="50.24" r="1.85"/>
            <circle cx="115.26" cy="50.24" r="1.85"/>
            <circle cx="119.59" cy="50.24" r="1.85"/>
        </g>
        <g>
            <circle cx="11.4" cy="44.31" r="1.85"/>
            <circle cx="15.72" cy="44.31" r="1.85"/>
            <circle cx="20.05" cy="44.31" r="1.85"/>
            <circle cx="24.37" cy="44.31" r="1.85"/>
            <circle cx="28.69" cy="44.31" r="1.85"/>
            <circle cx="33.01" cy="44.31" r="1.85"/>
            <circle cx="37.33" cy="44.31" r="1.85"/>
            <circle cx="41.65" cy="44.31" r="1.85"/>
            <circle cx="45.97" cy="44.31" r="1.85"/>
            <circle cx="50.3" cy="44.31" r="1.85"/>
            <circle cx="54.63" cy="44.31" r="1.85"/>
            <circle cx="58.96" cy="44.31" r="1.85"/>
            <circle cx="63.29" cy="44.31" r="1.85"/>
            <circle cx="67.63" cy="44.31" r="1.85"/>
            <circle cx="71.96" cy="44.31" r="1.85"/>
            <circle cx="76.29" cy="44.31" r="1.85"/>
            <circle cx="80.62" cy="44.31" r="1.85"/>
            <circle cx="84.95" cy="44.31" r="1.85"/>
            <circle cx="89.28" cy="44.31" r="1.85"/>
            <circle cx="93.61" cy="44.31" r="1.85"/>
            <circle cx="97.94" cy="44.31" r="1.85"/>
            <circle cx="102.27" cy="44.31" r="1.85"/>
            <circle cx="106.6" cy="44.31" r="1.85"/>
            <circle cx="110.93" cy="44.31" r="1.85"/>
            <circle cx="115.26" cy="44.31" r="1.85"/>
            <circle cx="119.59" cy="44.31" r="1.85"/>
        </g>
        <g>
            <circle cx="11.4" cy="38.38" r="1.85"/>
            <circle cx="15.72" cy="38.38" r="1.85"/>
            <circle cx="20.05" cy="38.38" r="1.85"/>
            <circle cx="24.37" cy="38.38" r="1.85"/>
            <circle cx="28.69" cy="38.38" r="1.85"/>
            <circle cx="33.01" cy="38.38" r="1.85"/>
            <circle cx="37.33" cy="38.38" r="1.85"/>
            <circle cx="41.65" cy="38.38" r="1.85"/>
            <circle cx="45.97" cy="38.38" r="1.85"/>
            <circle cx="50.3" cy="38.38" r="1.85"/>
            <circle cx="54.63" cy="38.38" r="1.85"/>
            <circle cx="58.96" cy="38.38" r="1.85"/>
            <circle cx="63.29" cy="38.38" r="1.85"/>
            <circle cx="67.63" cy="38.38" r="1.85"/>
            <circle cx="71.96" cy="38.38" r="1.85"/>
            <circle cx="76.29" cy="38.38" r="1.85"/>
            <circle cx="80.62" cy="38.38" r="1.85"/>
            <circle cx="84.95" cy="38.38" r="1.85"/>
            <circle cx="89.28" cy="38.38" r="1.85"/>
            <circle cx="93.61" cy="38.38" r="1.85"/>
            <circle cx="97.94" cy="38.38" r="1.85"/>
            <circle cx="102.27" cy="38.38" r="1.85"/>
            <circle cx="106.6" cy="38.38" r="1.85"/>
            <circle cx="110.93" cy="38.38" r="1.85"/>
            <circle cx="115.26" cy="38.38" r="1.85"/>
            <circle cx="119.59" cy="38.38" r="1.85"/>
        </g>
        <g>
            <circle cx="11.4" cy="32.45" r="1.85"/>
            <circle cx="15.72" cy="32.45" r="1.85"/>
            <circle cx="20.05" cy="32.45" r="1.85"/>
            <circle cx="24.37" cy="32.45" r="1.85"/>
            <circle cx="28.69" cy="32.45" r="1.85"/>
            <circle cx="33.01" cy="32.45" r="1.85"/>
            <circle cx="37.33" cy="32.45" r="1.85"/>
            <circle cx="41.65" cy="32.45" r="1.85"/>
            <circle cx="45.97" cy="32.45" r="1.85"/>
            <circle cx="50.3" cy="32.45" r="1.85"/>
            <circle cx="54.63" cy="32.45" r="1.85"/>
            <circle cx="58.96" cy="32.45" r="1.85"/>
            <circle cx="63.29" cy="32.45" r="1.85"/>
            <circle cx="67.63" cy="32.45" r="1.85"/>
            <circle cx="71.96" cy="32.45" r="1.85"/>
            <circle cx="76.29" cy="32.45" r="1.85"/>
            <circle cx="80.62" cy="32.45" r="1.85"/>
            <circle cx="84.95" cy="32.45" r="1.85"/>
            <circle cx="89.28" cy="32.45" r="1.85"/>
            <circle cx="93.61" cy="32.45" r="1.85"/>
            <circle cx="97.94" cy="32.45" r="1.85"/>
            <circle cx="102.27" cy="32.45" r="1.85"/>
            <circle cx="106.6" cy="32.45" r="1.85"/>
            <circle cx="110.93" cy="32.45" r="1.85"/>
            <circle cx="115.26" cy="32.45" r="1.85"/>
            <circle cx="119.59" cy="32.45" r="1.85"/>
        </g>
        <g>
            <circle cx="11.4" cy="26.52" r="1.85"/>
            <circle cx="15.72" cy="26.52" r="1.85"/>
            <circle cx="20.05" cy="26.52" r="1.85"/>
            <circle cx="24.37" cy="26.52" r="1.85"/>
            <circle cx="28.69" cy="26.52" r="1.85"/>
            <circle cx="33.01" cy="26.52" r="1.85"/>
            <circle cx="37.33" cy="26.52" r="1.85"/>
            <circle cx="41.65" cy="26.52" r="1.85"/>
            <circle cx="45.97" cy="26.52" r="1.85"/>
            <circle cx="50.3" cy="26.52" r="1.85"/>
            <circle cx="54.63" cy="26.52" r="1.85"/>
            <circle cx="58.96" cy="26.52" r="1.85"/>
            <circle cx="63.29" cy="26.52" r="1.85"/>
            <circle cx="67.63" cy="26.52" r="1.85"/>
            <circle cx="71.96" cy="26.52" r="1.85"/>
            <circle cx="76.29" cy="26.52" r="1.85"/>
            <circle cx="80.62" cy="26.52" r="1.85"/>
            <circle cx="84.95" cy="26.52" r="1.85"/>
            <circle cx="89.28" cy="26.52" r="1.85"/>
            <circle cx="93.61" cy="26.52" r="1.85"/>
            <circle cx="97.94" cy="26.52" r="1.85"/>
            <circle cx="102.27" cy="26.52" r="1.85"/>
            <circle cx="106.6" cy="26.52" r="1.85"/>
            <circle cx="110.93" cy="26.52" r="1.85"/>
            <circle cx="115.26" cy="26.52" r="1.85"/>
            <circle cx="119.59" cy="26.52" r="1.85"/>
        </g>
        <g>
            <circle cx="11.4" cy="145.13" r="1.85"/>
            <circle cx="15.72" cy="145.13" r="1.85"/>
            <circle cx="20.05" cy="145.13" r="1.85"/>
            <circle cx="24.37" cy="145.13" r="1.85"/>
            <circle cx="28.69" cy="145.13" r="1.85"/>
            <circle cx="33.01" cy="145.13" r="1.85"/>
            <circle cx="37.33" cy="145.13" r="1.85"/>
            <circle cx="41.65" cy="145.13" r="1.85"/>
            <circle cx="45.97" cy="145.13" r="1.85"/>
            <circle cx="50.3" cy="145.13" r="1.85"/>
            <circle cx="54.63" cy="145.13" r="1.85"/>
            <circle cx="58.96" cy="145.13" r="1.85"/>
            <circle cx="63.29" cy="145.13" r="1.85"/>
            <circle cx="67.63" cy="145.13" r="1.85"/>
            <circle cx="71.96" cy="145.13" r="1.85"/>
            <circle cx="76.29" cy="145.13" r="1.85"/>
            <circle cx="80.62" cy="145.13" r="1.85"/>
            <circle cx="84.95" cy="145.13" r="1.85"/>
            <circle cx="89.28" cy="145.13" r="1.85"/>
            <circle cx="93.61" cy="145.13" r="1.85"/>
            <circle cx="97.94" cy="145.13" r="1.85"/>
            <circle cx="102.27" cy="145.13" r="1.85"/>
            <circle cx="106.6" cy="145.13" r="1.85"/>
            <circle cx="110.93" cy="145.13" r="1.85"/>
            <circle cx="115.26" cy="145.13" r="1.85"/>
            <circle cx="119.59" cy="145.13" r="1.85"/>
        </g>
        <g>
            <circle cx="11.4" cy="139.2" r="1.85"/>
            <circle cx="15.72" cy="139.2" r="1.85"/>
            <circle cx="20.05" cy="139.2" r="1.85"/>
            <circle cx="24.37" cy="139.2" r="1.85"/>
            <circle cx="28.69" cy="139.2" r="1.85"/>
            <circle cx="33.01" cy="139.2" r="1.85"/>
            <circle cx="37.33" cy="139.2" r="1.85"/>
            <circle cx="41.65" cy="139.2" r="1.85"/>
            <circle cx="45.97" cy="139.2" r="1.85"/>
            <circle cx="50.3" cy="139.2" r="1.85"/>
            <circle cx="54.63" cy="139.2" r="1.85"/>
            <circle cx="58.96" cy="139.2" r="1.85"/>
            <circle cx="63.29" cy="139.2" r="1.85"/>
            <circle cx="67.63" cy="139.2" r="1.85"/>
            <circle cx="71.96" cy="139.2" r="1.85"/>
            <circle cx="76.29" cy="139.2" r="1.85"/>
            <circle cx="80.62" cy="139.2" r="1.85"/>
            <circle cx="84.95" cy="139.2" r="1.85"/>
            <circle cx="89.28" cy="139.2" r="1.85"/>
            <circle cx="93.61" cy="139.2" r="1.85"/>
            <circle cx="97.94" cy="139.2" r="1.85"/>
            <circle cx="102.27" cy="139.2" r="1.85"/>
            <circle cx="106.6" cy="139.2" r="1.85"/>
            <circle cx="110.93" cy="139.2" r="1.85"/>
            <circle cx="115.26" cy="139.2" r="1.85"/>
            <circle cx="119.59" cy="139.2" r="1.85"/>
        </g>
        <g>
            <circle cx="11.4" cy="151.06" r="1.85"/>
            <circle cx="15.72" cy="151.06" r="1.85"/>
            <circle cx="20.05" cy="151.06" r="1.85"/>
            <circle cx="24.37" cy="151.06" r="1.85"/>
            <circle cx="28.69" cy="151.06" r="1.85"/>
            <circle cx="33.01" cy="151.06" r="1.85"/>
            <circle cx="37.33" cy="151.06" r="1.85"/>
            <circle cx="41.65" cy="151.06" r="1.85"/>
            <circle cx="45.97" cy="151.06" r="1.85"/>
            <circle cx="50.3" cy="151.06" r="1.85"/>
            <circle cx="54.63" cy="151.06" r="1.85"/>
            <circle cx="58.96" cy="151.06" r="1.85"/>
            <circle cx="63.29" cy="151.06" r="1.85"/>
            <circle cx="67.63" cy="151.06" r="1.85"/>
            <circle cx="71.96" cy="151.06" r="1.85"/>
            <circle cx="76.29" cy="151.06" r="1.85"/>
            <circle cx="80.62" cy="151.06" r="1.85"/>
            <circle cx="84.95" cy="151.06" r="1.85"/>
            <circle cx="89.28" cy="151.06" r="1.85"/>
            <circle cx="93.61" cy="151.06" r="1.85"/>
            <circle cx="97.94" cy="151.06" r="1.85"/>
            <circle cx="102.27" cy="151.06" r="1.85"/>
            <circle cx="106.6" cy="151.06" r="1.85"/>
            <circle cx="110.93" cy="151.06" r="1.85"/>
            <circle cx="115.26" cy="151.06" r="1.85"/>
            <circle cx="119.59" cy="151.06" r="1.85"/>
        </g>
    </g>
</svg>
