<?xml version="1.0" encoding="utf-8"?>
<!-- Generator: Adobe Illustrator 23.0.1, SVG Export Plug-In . SVG Version: 6.00 Build 0)  -->
<svg version="1.1" id="Layer_1" xmlns="http://www.w3.org/2000/svg" xmlns:xlink="http://www.w3.org/1999/xlink" x="0px" y="0px"
	 viewBox="0 0 131 61" style="enable-background:new 0 0 131 61;" xml:space="preserve">
<style type="text/css">
	.st0{fill:#F1F3F4;stroke:#BCC8CE;stroke-width:0.4;stroke-linecap:round;stroke-miterlimit:10;}
	.st1{fill:#AEBDC4;}
	.st2{font-family:'Roboto-Medium';}
	.st3{font-size:3px;}
</style>
<rect x="0.5" y="0.7" class="st0" width="129.9" height="59.6"/>
<g 
    data-sort-seat-direction="ltr" 
    data-sort-line-direction="btt" 
    data-sort-seat-option="cx" 
    data-sort-line-option="cy" 
    data-line-start="1"
    >
	<g>
		<circle class="st1" cx="39.8" cy="51.3" r="1.8"/>
		<circle class="st1" cx="44.1" cy="51.3" r="1.8"/>
		<circle class="st1" cx="48.4" cy="51.3" r="1.8"/>
		<circle class="st1" cx="52.8" cy="51.3" r="1.8"/>
		<circle class="st1" cx="57.1" cy="51.3" r="1.8"/>
		<circle class="st1" cx="61.4" cy="51.3" r="1.8"/>
		<circle class="st1" cx="65.7" cy="51.3" r="1.8"/>
		<circle class="st1" cx="70" cy="51.3" r="1.8"/>
		<circle class="st1" cx="74.4" cy="51.3" r="1.8"/>
		<circle class="st1" cx="78.7" cy="51.3" r="1.8"/>
		<circle class="st1" cx="83" cy="51.3" r="1.8"/>
		<circle class="st1" cx="87.3" cy="51.3" r="1.8"/>
		<circle class="st1" cx="91.7" cy="51.3" r="1.8"/>
		<circle class="st1" cx="96" cy="51.3" r="1.8"/>
		<circle class="st1" cx="100.3" cy="51.3" r="1.8"/>
		<circle class="st1" cx="104.7" cy="51.3" r="1.8"/>
		<circle class="st1" cx="109" cy="51.3" r="1.8"/>
		<circle class="st1" cx="113.3" cy="51.3" r="1.8"/>
		<text transform="matrix(1 0 0 1 116.4009 52.3506)" class="st1 st2 st3">00</text>
		<text transform="matrix(1 0 0 1 33.2008 52.3506)" class="st1 st2 st3">00</text>
	</g>
	<g>
		<circle class="st1" cx="39.8" cy="45.4" r="1.8"/>
		<circle class="st1" cx="44.1" cy="45.4" r="1.8"/>
		<circle class="st1" cx="48.4" cy="45.4" r="1.8"/>
		<circle class="st1" cx="52.8" cy="45.4" r="1.8"/>
		<circle class="st1" cx="57.1" cy="45.4" r="1.8"/>
		<circle class="st1" cx="61.4" cy="45.4" r="1.8"/>
		<circle class="st1" cx="65.7" cy="45.4" r="1.8"/>
		<circle class="st1" cx="70" cy="45.4" r="1.8"/>
		<circle class="st1" cx="74.4" cy="45.4" r="1.8"/>
		<circle class="st1" cx="78.7" cy="45.4" r="1.8"/>
		<circle class="st1" cx="83" cy="45.4" r="1.8"/>
		<circle class="st1" cx="87.3" cy="45.4" r="1.8"/>
		<circle class="st1" cx="91.7" cy="45.4" r="1.8"/>
		<circle class="st1" cx="96" cy="45.4" r="1.8"/>
		<circle class="st1" cx="100.3" cy="45.4" r="1.8"/>
		<circle class="st1" cx="104.7" cy="45.4" r="1.8"/>
		<circle class="st1" cx="109" cy="45.4" r="1.8"/>
		<circle class="st1" cx="113.3" cy="45.4" r="1.8"/>
		<text transform="matrix(1 0 0 1 116.4009 46.4717)" class="st1 st2 st3">00</text>
		<text transform="matrix(1 0 0 1 33.2008 46.4717)" class="st1 st2 st3">00</text>
	</g>
	<g>
		<circle class="st1" cx="13.8" cy="39.5" r="1.8"/>
		<circle class="st1" cx="18.1" cy="39.5" r="1.8"/>
		<circle class="st1" cx="22.4" cy="39.5" r="1.8"/>
		<circle class="st1" cx="26.8" cy="39.5" r="1.8"/>
		<circle class="st1" cx="31.1" cy="39.5" r="1.8"/>
		<circle class="st1" cx="35.4" cy="39.5" r="1.8"/>
		<circle class="st1" cx="39.7" cy="39.5" r="1.8"/>
		<circle class="st1" cx="44" cy="39.5" r="1.8"/>
		<circle class="st1" cx="48.4" cy="39.5" r="1.8"/>
		<circle class="st1" cx="52.7" cy="39.5" r="1.8"/>
		<circle class="st1" cx="57" cy="39.5" r="1.8"/>
		<circle class="st1" cx="61.4" cy="39.5" r="1.8"/>
		<circle class="st1" cx="65.7" cy="39.5" r="1.8"/>
		<circle class="st1" cx="70" cy="39.5" r="1.8"/>
		<circle class="st1" cx="74.4" cy="39.5" r="1.8"/>
		<circle class="st1" cx="78.7" cy="39.5" r="1.8"/>
		<circle class="st1" cx="83" cy="39.5" r="1.8"/>
		<circle class="st1" cx="87.3" cy="39.5" r="1.8"/>
		<circle class="st1" cx="91.7" cy="39.5" r="1.8"/>
		<circle class="st1" cx="96" cy="39.5" r="1.8"/>
		<circle class="st1" cx="100.3" cy="39.5" r="1.8"/>
		<circle class="st1" cx="104.7" cy="39.5" r="1.8"/>
		<circle class="st1" cx="109" cy="39.5" r="1.8"/>
		<circle class="st1" cx="113.3" cy="39.5" r="1.8"/>
		<text transform="matrix(1 0 0 1 116.4009 40.5931)" class="st1 st2 st3">00</text>
		<text transform="matrix(1 0 0 1 7.3008 40.5931)" class="st1 st2 st3">00</text>
	</g>
	<g>
		<circle class="st1" cx="13.8" cy="33.7" r="1.8"/>
		<circle class="st1" cx="18.1" cy="33.7" r="1.8"/>
		<circle class="st1" cx="22.4" cy="33.7" r="1.8"/>
		<circle class="st1" cx="26.8" cy="33.7" r="1.8"/>
		<circle class="st1" cx="31.1" cy="33.7" r="1.8"/>
		<circle class="st1" cx="35.4" cy="33.7" r="1.8"/>
		<circle class="st1" cx="39.7" cy="33.7" r="1.8"/>
		<circle class="st1" cx="44" cy="33.7" r="1.8"/>
		<circle class="st1" cx="48.4" cy="33.7" r="1.8"/>
		<circle class="st1" cx="52.7" cy="33.7" r="1.8"/>
		<circle class="st1" cx="57" cy="33.7" r="1.8"/>
		<circle class="st1" cx="61.4" cy="33.7" r="1.8"/>
		<circle class="st1" cx="65.7" cy="33.7" r="1.8"/>
		<circle class="st1" cx="70" cy="33.7" r="1.8"/>
		<circle class="st1" cx="74.4" cy="33.7" r="1.8"/>
		<circle class="st1" cx="78.7" cy="33.7" r="1.8"/>
		<circle class="st1" cx="83" cy="33.7" r="1.8"/>
		<circle class="st1" cx="87.3" cy="33.7" r="1.8"/>
		<circle class="st1" cx="91.7" cy="33.7" r="1.8"/>
		<circle class="st1" cx="96" cy="33.7" r="1.8"/>
		<circle class="st1" cx="100.3" cy="33.7" r="1.8"/>
		<circle class="st1" cx="104.7" cy="33.7" r="1.8"/>
		<circle class="st1" cx="109" cy="33.7" r="1.8"/>
		<circle class="st1" cx="113.3" cy="33.7" r="1.8"/>
		<text transform="matrix(1 0 0 1 116.4009 34.714)" class="st1 st2 st3">00</text>
		<text transform="matrix(1 0 0 1 7.3008 34.714)" class="st1 st2 st3">00</text>
	</g>
	<g>
		<circle class="st1" cx="13.8" cy="27.7" r="1.9"/>
		<circle class="st1" cx="18.1" cy="27.7" r="1.9"/>
		<circle class="st1" cx="22.4" cy="27.7" r="1.9"/>
		<circle class="st1" cx="26.8" cy="27.7" r="1.9"/>
		<circle class="st1" cx="31.1" cy="27.7" r="1.8"/>
		<circle class="st1" cx="35.4" cy="27.7" r="1.8"/>
		<circle class="st1" cx="39.7" cy="27.7" r="1.8"/>
		<circle class="st1" cx="44" cy="27.7" r="1.8"/>
		<circle class="st1" cx="48.4" cy="27.7" r="1.8"/>
		<circle class="st1" cx="52.7" cy="27.7" r="1.8"/>
		<circle class="st1" cx="57" cy="27.7" r="1.8"/>
		<circle class="st1" cx="61.4" cy="27.7" r="1.8"/>
		<circle class="st1" cx="65.7" cy="27.7" r="1.8"/>
		<circle class="st1" cx="70" cy="27.7" r="1.8"/>
		<circle class="st1" cx="74.4" cy="27.7" r="1.8"/>
		<circle class="st1" cx="78.7" cy="27.7" r="1.8"/>
		<circle class="st1" cx="83" cy="27.7" r="1.8"/>
		<circle class="st1" cx="87.3" cy="27.7" r="1.8"/>
		<circle class="st1" cx="91.7" cy="27.7" r="1.8"/>
		<circle class="st1" cx="96" cy="27.7" r="1.8"/>
		<circle class="st1" cx="100.3" cy="27.7" r="1.8"/>
		<circle class="st1" cx="104.7" cy="27.7" r="1.8"/>
		<circle class="st1" cx="109" cy="27.7" r="1.8"/>
		<circle class="st1" cx="113.3" cy="27.7" r="1.8"/>
		<text transform="matrix(1 0 0 1 116.4009 28.7981)" class="st1 st2 st3">00</text>
		<text transform="matrix(1 0 0 1 7.3008 28.7981)" class="st1 st2 st3">00</text>
	</g>
	<g>
		<circle class="st1" cx="13.8" cy="21.7" r="1.9"/>
		<circle class="st1" cx="18.1" cy="21.7" r="1.9"/>
		<circle class="st1" cx="22.4" cy="21.7" r="1.9"/>
		<circle class="st1" cx="26.8" cy="21.7" r="1.9"/>
		<circle class="st1" cx="31.1" cy="21.7" r="1.8"/>
		<circle class="st1" cx="35.4" cy="21.7" r="1.8"/>
		<circle class="st1" cx="39.7" cy="21.7" r="1.8"/>
		<circle class="st1" cx="44" cy="21.7" r="1.8"/>
		<circle class="st1" cx="48.4" cy="21.7" r="1.8"/>
		<circle class="st1" cx="52.7" cy="21.7" r="1.8"/>
		<circle class="st1" cx="57" cy="21.7" r="1.8"/>
		<circle class="st1" cx="61.4" cy="21.7" r="1.8"/>
		<circle class="st1" cx="65.7" cy="21.7" r="1.8"/>
		<circle class="st1" cx="70" cy="21.7" r="1.8"/>
		<circle class="st1" cx="74.4" cy="21.7" r="1.8"/>
		<circle class="st1" cx="78.7" cy="21.7" r="1.8"/>
		<circle class="st1" cx="83" cy="21.7" r="1.8"/>
		<circle class="st1" cx="87.3" cy="21.7" r="1.8"/>
		<circle class="st1" cx="91.7" cy="21.7" r="1.8"/>
		<circle class="st1" cx="96" cy="21.7" r="1.8"/>
		<circle class="st1" cx="100.3" cy="21.7" r="1.8"/>
		<circle class="st1" cx="104.7" cy="21.7" r="1.8"/>
		<circle class="st1" cx="109" cy="21.7" r="1.8"/>
		<circle class="st1" cx="113.3" cy="21.7" r="1.8"/>
		<text transform="matrix(1 0 0 1 116.4009 22.7822)" class="st1 st2 st3">00</text>
		<text transform="matrix(1 0 0 1 7.3008 22.7822)" class="st1 st2 st3">00</text>
	</g>
	<g>
		<circle class="st1" cx="13.8" cy="15.7" r="1.9"/>
		<circle class="st1" cx="18.1" cy="15.7" r="1.9"/>
		<circle class="st1" cx="22.4" cy="15.7" r="1.9"/>
		<circle class="st1" cx="26.8" cy="15.7" r="1.9"/>
		<circle class="st1" cx="31.1" cy="15.7" r="1.8"/>
		<circle class="st1" cx="35.4" cy="15.7" r="1.8"/>
		<circle class="st1" cx="39.7" cy="15.7" r="1.8"/>
		<circle class="st1" cx="44" cy="15.7" r="1.8"/>
		<circle class="st1" cx="48.4" cy="15.7" r="1.8"/>
		<circle class="st1" cx="52.7" cy="15.7" r="1.8"/>
		<circle class="st1" cx="57" cy="15.7" r="1.8"/>
		<circle class="st1" cx="61.4" cy="15.7" r="1.8"/>
		<circle class="st1" cx="65.7" cy="15.7" r="1.8"/>
		<circle class="st1" cx="70" cy="15.7" r="1.8"/>
		<circle class="st1" cx="74.4" cy="15.7" r="1.8"/>
		<circle class="st1" cx="78.7" cy="15.7" r="1.8"/>
		<circle class="st1" cx="83" cy="15.7" r="1.8"/>
		<circle class="st1" cx="87.3" cy="15.7" r="1.8"/>
		<circle class="st1" cx="91.7" cy="15.7" r="1.8"/>
		<circle class="st1" cx="96" cy="15.7" r="1.8"/>
		<circle class="st1" cx="100.3" cy="15.7" r="1.8"/>
		<circle class="st1" cx="104.7" cy="15.7" r="1.8"/>
		<circle class="st1" cx="109" cy="15.7" r="1.8"/>
		<circle class="st1" cx="113.3" cy="15.7" r="1.8"/>
		<text transform="matrix(1 0 0 1 116.4009 16.7793)" class="st1 st2 st3">00</text>
		<text transform="matrix(1 0 0 1 7.3008 16.7793)" class="st1 st2 st3">00</text>
	</g>
	<g>
		<circle class="st1" cx="13.8" cy="9.7" r="1.9"/>
		<circle class="st1" cx="18.1" cy="9.7" r="1.9"/>
		<circle class="st1" cx="22.4" cy="9.7" r="1.9"/>
		<circle class="st1" cx="26.8" cy="9.7" r="1.9"/>
		<circle class="st1" cx="31.1" cy="9.7" r="1.8"/>
		<circle class="st1" cx="35.4" cy="9.7" r="1.8"/>
		<circle class="st1" cx="39.7" cy="9.7" r="1.8"/>
		<circle class="st1" cx="44" cy="9.7" r="1.8"/>
		<circle class="st1" cx="48.4" cy="9.7" r="1.8"/>
		<circle class="st1" cx="52.7" cy="9.7" r="1.8"/>
		<circle class="st1" cx="57" cy="9.7" r="1.8"/>
		<circle class="st1" cx="61.4" cy="9.7" r="1.8"/>
		<circle class="st1" cx="65.7" cy="9.7" r="1.8"/>
		<circle class="st1" cx="70" cy="9.7" r="1.8"/>
		<circle class="st1" cx="74.4" cy="9.7" r="1.8"/>
		<circle class="st1" cx="78.7" cy="9.7" r="1.8"/>
		<circle class="st1" cx="83" cy="9.7" r="1.8"/>
		<circle class="st1" cx="87.3" cy="9.7" r="1.8"/>
		<circle class="st1" cx="91.7" cy="9.7" r="1.8"/>
		<circle class="st1" cx="96" cy="9.7" r="1.8"/>
		<circle class="st1" cx="100.3" cy="9.7" r="1.8"/>
		<circle class="st1" cx="104.7" cy="9.7" r="1.8"/>
		<circle class="st1" cx="109" cy="9.7" r="1.8"/>
		<circle class="st1" cx="113.3" cy="9.7" r="1.8"/>
		<text transform="matrix(1 0 0 1 116.4009 10.7505)" class="st1 st2 st3">00</text>
		<text transform="matrix(1 0 0 1 7.3008 10.7505)" class="st1 st2 st3">00</text>
	</g>
</g>
</svg>
