<?xml version="1.0" encoding="utf-8"?>
<!-- Generator: Adobe Illustrator 23.0.1, SVG Export Plug-In . SVG Version: 6.00 Build 0)  -->
<svg version="1.1" id="Layer_1" xmlns="http://www.w3.org/2000/svg" xmlns:xlink="http://www.w3.org/1999/xlink" x="0px" y="0px"
	 viewBox="0 0 131 61" enable-background="new 0 0 131 61" xml:space="preserve">
<g onclick="&quot;W 7 (низ)&quot;;">
	
		<rect x="0.5" y="0.7" fill="#F1F3F4" stroke="#BCC8CE" stroke-width="0.4" stroke-linecap="round" stroke-miterlimit="10" width="129.9" height="59.6"/>
	<g>
		<circle fill="#AEBDC4" cx="39.8" cy="51.3" r="1.8"/>
		<circle fill="#AEBDC4" cx="44.1" cy="51.3" r="1.8"/>
		<circle fill="#AEBDC4" cx="48.4" cy="51.3" r="1.8"/>
		<circle fill="#AEBDC4" cx="52.8" cy="51.3" r="1.8"/>
		<circle fill="#AEBDC4" cx="57.1" cy="51.3" r="1.8"/>
		<circle fill="#AEBDC4" cx="61.4" cy="51.3" r="1.8"/>
		<circle fill="#AEBDC4" cx="65.7" cy="51.3" r="1.8"/>
		<circle fill="#AEBDC4" cx="70" cy="51.3" r="1.8"/>
		<circle fill="#AEBDC4" cx="74.4" cy="51.3" r="1.8"/>
		<circle fill="#AEBDC4" cx="78.7" cy="51.3" r="1.8"/>
		<circle fill="#AEBDC4" cx="83" cy="51.3" r="1.8"/>
		<circle fill="#AEBDC4" cx="87.3" cy="51.3" r="1.8"/>
		<circle fill="#AEBDC4" cx="91.7" cy="51.3" r="1.8"/>
		<circle fill="#AEBDC4" cx="96" cy="51.3" r="1.8"/>
		<circle fill="#AEBDC4" cx="100.3" cy="51.3" r="1.8"/>
		<circle fill="#AEBDC4" cx="104.7" cy="51.3" r="1.8"/>
		<circle fill="#AEBDC4" cx="109" cy="51.3" r="1.8"/>
		<circle fill="#AEBDC4" cx="113.3" cy="51.3" r="1.8"/>
	</g>
	<g>
		<circle fill="#AEBDC4" cx="39.8" cy="45.3" r="1.8"/>
		<circle fill="#AEBDC4" cx="44.1" cy="45.3" r="1.8"/>
		<circle fill="#AEBDC4" cx="48.4" cy="45.3" r="1.8"/>
		<circle fill="#AEBDC4" cx="52.8" cy="45.3" r="1.8"/>
		<circle fill="#AEBDC4" cx="57.1" cy="45.3" r="1.8"/>
		<circle fill="#AEBDC4" cx="61.4" cy="45.3" r="1.8"/>
		<circle fill="#AEBDC4" cx="65.7" cy="45.3" r="1.8"/>
		<circle fill="#AEBDC4" cx="70" cy="45.3" r="1.8"/>
		<circle fill="#AEBDC4" cx="74.4" cy="45.3" r="1.8"/>
		<circle fill="#AEBDC4" cx="78.7" cy="45.3" r="1.8"/>
		<circle fill="#AEBDC4" cx="83" cy="45.3" r="1.8"/>
		<circle fill="#AEBDC4" cx="87.3" cy="45.3" r="1.8"/>
		<circle fill="#AEBDC4" cx="91.7" cy="45.3" r="1.8"/>
		<circle fill="#AEBDC4" cx="96" cy="45.3" r="1.8"/>
		<circle fill="#AEBDC4" cx="100.3" cy="45.3" r="1.8"/>
		<circle fill="#AEBDC4" cx="104.7" cy="45.3" r="1.8"/>
		<circle fill="#AEBDC4" cx="109" cy="45.3" r="1.8"/>
		<circle fill="#AEBDC4" cx="113.3" cy="45.3" r="1.8"/>
	</g>
	<g>
		<circle fill="#AEBDC4" cx="13.8" cy="39.4" r="1.8"/>
		<circle fill="#AEBDC4" cx="18.1" cy="39.4" r="1.8"/>
		<circle fill="#AEBDC4" cx="22.4" cy="39.4" r="1.8"/>
		<circle fill="#AEBDC4" cx="26.8" cy="39.4" r="1.8"/>
		<circle fill="#AEBDC4" cx="31.1" cy="39.4" r="1.8"/>
		<circle fill="#AEBDC4" cx="35.4" cy="39.4" r="1.8"/>
		<circle fill="#AEBDC4" cx="39.7" cy="39.4" r="1.8"/>
		<circle fill="#AEBDC4" cx="44" cy="39.4" r="1.8"/>
		<circle fill="#AEBDC4" cx="48.4" cy="39.4" r="1.8"/>
		<circle fill="#AEBDC4" cx="52.7" cy="39.4" r="1.8"/>
		<circle fill="#AEBDC4" cx="57" cy="39.4" r="1.8"/>
		<circle fill="#AEBDC4" cx="61.4" cy="39.4" r="1.8"/>
		<circle fill="#AEBDC4" cx="65.7" cy="39.4" r="1.8"/>
		<circle fill="#AEBDC4" cx="70" cy="39.4" r="1.8"/>
		<circle fill="#AEBDC4" cx="74.4" cy="39.4" r="1.8"/>
		<circle fill="#AEBDC4" cx="78.7" cy="39.4" r="1.8"/>
		<circle fill="#AEBDC4" cx="83" cy="39.4" r="1.8"/>
		<circle fill="#AEBDC4" cx="87.3" cy="39.4" r="1.8"/>
		<circle fill="#AEBDC4" cx="91.7" cy="39.4" r="1.8"/>
		<circle fill="#AEBDC4" cx="96" cy="39.4" r="1.8"/>
		<circle fill="#AEBDC4" cx="100.3" cy="39.4" r="1.8"/>
		<circle fill="#AEBDC4" cx="104.7" cy="39.4" r="1.8"/>
		<circle fill="#AEBDC4" cx="109" cy="39.4" r="1.8"/>
		<circle fill="#AEBDC4" cx="113.3" cy="39.4" r="1.8"/>
	</g>
	<g>
		<circle fill="#AEBDC4" cx="13.8" cy="33.5" r="1.8"/>
		<circle fill="#AEBDC4" cx="18.1" cy="33.5" r="1.8"/>
		<circle fill="#AEBDC4" cx="22.4" cy="33.5" r="1.8"/>
		<circle fill="#AEBDC4" cx="26.8" cy="33.5" r="1.8"/>
		<circle fill="#AEBDC4" cx="31.1" cy="33.5" r="1.8"/>
		<circle fill="#AEBDC4" cx="35.4" cy="33.5" r="1.8"/>
		<circle fill="#AEBDC4" cx="39.7" cy="33.5" r="1.8"/>
		<circle fill="#AEBDC4" cx="44" cy="33.5" r="1.8"/>
		<circle fill="#AEBDC4" cx="48.4" cy="33.5" r="1.8"/>
		<circle fill="#AEBDC4" cx="52.7" cy="33.5" r="1.8"/>
		<circle fill="#AEBDC4" cx="57" cy="33.5" r="1.8"/>
		<circle fill="#AEBDC4" cx="61.4" cy="33.5" r="1.8"/>
		<circle fill="#AEBDC4" cx="65.7" cy="33.5" r="1.8"/>
		<circle fill="#AEBDC4" cx="70" cy="33.5" r="1.8"/>
		<circle fill="#AEBDC4" cx="74.4" cy="33.5" r="1.8"/>
		<circle fill="#AEBDC4" cx="78.7" cy="33.5" r="1.8"/>
		<circle fill="#AEBDC4" cx="83" cy="33.5" r="1.8"/>
		<circle fill="#AEBDC4" cx="87.3" cy="33.5" r="1.8"/>
		<circle fill="#AEBDC4" cx="91.7" cy="33.5" r="1.8"/>
		<circle fill="#AEBDC4" cx="96" cy="33.5" r="1.8"/>
		<circle fill="#AEBDC4" cx="100.3" cy="33.5" r="1.8"/>
		<circle fill="#AEBDC4" cx="104.7" cy="33.5" r="1.8"/>
		<circle fill="#AEBDC4" cx="109" cy="33.5" r="1.8"/>
		<circle fill="#AEBDC4" cx="113.3" cy="33.5" r="1.8"/>
	</g>
	<g>
		<circle fill="#AEBDC4" cx="13.8" cy="27.5" r="1.9"/>
		<circle fill="#AEBDC4" cx="18.1" cy="27.5" r="1.9"/>
		<circle fill="#AEBDC4" cx="22.4" cy="27.5" r="1.9"/>
		<circle fill="#AEBDC4" cx="26.8" cy="27.5" r="1.9"/>
		<circle fill="#AEBDC4" cx="31.1" cy="27.5" r="1.8"/>
		<circle fill="#AEBDC4" cx="35.4" cy="27.5" r="1.8"/>
		<circle fill="#AEBDC4" cx="39.7" cy="27.5" r="1.8"/>
		<circle fill="#AEBDC4" cx="44" cy="27.5" r="1.8"/>
		<circle fill="#AEBDC4" cx="48.4" cy="27.5" r="1.8"/>
		<circle fill="#AEBDC4" cx="52.7" cy="27.5" r="1.8"/>
		<circle fill="#AEBDC4" cx="57" cy="27.5" r="1.8"/>
		<circle fill="#AEBDC4" cx="61.4" cy="27.5" r="1.8"/>
		<circle fill="#AEBDC4" cx="65.7" cy="27.5" r="1.8"/>
		<circle fill="#AEBDC4" cx="70" cy="27.5" r="1.8"/>
		<circle fill="#AEBDC4" cx="74.4" cy="27.5" r="1.8"/>
		<circle fill="#AEBDC4" cx="78.7" cy="27.5" r="1.8"/>
		<circle fill="#AEBDC4" cx="83" cy="27.5" r="1.8"/>
		<circle fill="#AEBDC4" cx="87.3" cy="27.5" r="1.8"/>
		<circle fill="#AEBDC4" cx="91.7" cy="27.5" r="1.8"/>
		<circle fill="#AEBDC4" cx="96" cy="27.5" r="1.8"/>
		<circle fill="#AEBDC4" cx="100.3" cy="27.5" r="1.8"/>
		<circle fill="#AEBDC4" cx="104.7" cy="27.5" r="1.8"/>
		<circle fill="#AEBDC4" cx="109" cy="27.5" r="1.8"/>
		<circle fill="#AEBDC4" cx="113.3" cy="27.5" r="1.8"/>
	</g>
	<g>
		<circle fill="#AEBDC4" cx="13.8" cy="21.6" r="1.9"/>
		<circle fill="#AEBDC4" cx="18.1" cy="21.6" r="1.9"/>
		<circle fill="#AEBDC4" cx="22.4" cy="21.6" r="1.9"/>
		<circle fill="#AEBDC4" cx="26.8" cy="21.6" r="1.9"/>
		<circle fill="#AEBDC4" cx="31.1" cy="21.6" r="1.8"/>
		<circle fill="#AEBDC4" cx="35.4" cy="21.6" r="1.8"/>
		<circle fill="#AEBDC4" cx="39.7" cy="21.6" r="1.8"/>
		<circle fill="#AEBDC4" cx="44" cy="21.6" r="1.8"/>
		<circle fill="#AEBDC4" cx="48.4" cy="21.6" r="1.8"/>
		<circle fill="#AEBDC4" cx="52.7" cy="21.6" r="1.8"/>
		<circle fill="#AEBDC4" cx="57" cy="21.6" r="1.8"/>
		<circle fill="#AEBDC4" cx="61.4" cy="21.6" r="1.8"/>
		<circle fill="#AEBDC4" cx="65.7" cy="21.6" r="1.8"/>
		<circle fill="#AEBDC4" cx="70" cy="21.6" r="1.8"/>
		<circle fill="#AEBDC4" cx="74.4" cy="21.6" r="1.8"/>
		<circle fill="#AEBDC4" cx="78.7" cy="21.6" r="1.8"/>
		<circle fill="#AEBDC4" cx="83" cy="21.6" r="1.8"/>
		<circle fill="#AEBDC4" cx="87.3" cy="21.6" r="1.8"/>
		<circle fill="#AEBDC4" cx="91.7" cy="21.6" r="1.8"/>
		<circle fill="#AEBDC4" cx="96" cy="21.6" r="1.8"/>
		<circle fill="#AEBDC4" cx="100.3" cy="21.6" r="1.8"/>
		<circle fill="#AEBDC4" cx="104.7" cy="21.6" r="1.8"/>
		<circle fill="#AEBDC4" cx="109" cy="21.6" r="1.8"/>
		<circle fill="#AEBDC4" cx="113.3" cy="21.6" r="1.8"/>
	</g>
	<g>
		<circle fill="#AEBDC4" cx="13.8" cy="15.7" r="1.9"/>
		<circle fill="#AEBDC4" cx="18.1" cy="15.7" r="1.9"/>
		<circle fill="#AEBDC4" cx="22.4" cy="15.7" r="1.9"/>
		<circle fill="#AEBDC4" cx="26.8" cy="15.7" r="1.9"/>
		<circle fill="#AEBDC4" cx="31.1" cy="15.7" r="1.8"/>
		<circle fill="#AEBDC4" cx="35.4" cy="15.7" r="1.8"/>
		<circle fill="#AEBDC4" cx="39.7" cy="15.7" r="1.8"/>
		<circle fill="#AEBDC4" cx="44" cy="15.7" r="1.8"/>
		<circle fill="#AEBDC4" cx="48.4" cy="15.7" r="1.8"/>
		<circle fill="#AEBDC4" cx="52.7" cy="15.7" r="1.8"/>
		<circle fill="#AEBDC4" cx="57" cy="15.7" r="1.8"/>
		<circle fill="#AEBDC4" cx="61.4" cy="15.7" r="1.8"/>
		<circle fill="#AEBDC4" cx="65.7" cy="15.7" r="1.8"/>
		<circle fill="#AEBDC4" cx="70" cy="15.7" r="1.8"/>
		<circle fill="#AEBDC4" cx="74.4" cy="15.7" r="1.8"/>
		<circle fill="#AEBDC4" cx="78.7" cy="15.7" r="1.8"/>
		<circle fill="#AEBDC4" cx="83" cy="15.7" r="1.8"/>
		<circle fill="#AEBDC4" cx="87.3" cy="15.7" r="1.8"/>
		<circle fill="#AEBDC4" cx="91.7" cy="15.7" r="1.8"/>
		<circle fill="#AEBDC4" cx="96" cy="15.7" r="1.8"/>
		<circle fill="#AEBDC4" cx="100.3" cy="15.7" r="1.8"/>
		<circle fill="#AEBDC4" cx="104.7" cy="15.7" r="1.8"/>
		<circle fill="#AEBDC4" cx="109" cy="15.7" r="1.8"/>
		<circle fill="#AEBDC4" cx="113.3" cy="15.7" r="1.8"/>
	</g>
	<g>
		<circle fill="#AEBDC4" cx="13.8" cy="9.7" r="1.9"/>
		<circle fill="#AEBDC4" cx="18.1" cy="9.7" r="1.9"/>
		<circle fill="#AEBDC4" cx="22.4" cy="9.7" r="1.9"/>
		<circle fill="#AEBDC4" cx="26.8" cy="9.7" r="1.9"/>
		<circle fill="#AEBDC4" cx="31.1" cy="9.7" r="1.8"/>
		<circle fill="#AEBDC4" cx="35.4" cy="9.7" r="1.8"/>
		<circle fill="#AEBDC4" cx="39.7" cy="9.7" r="1.8"/>
		<circle fill="#AEBDC4" cx="44" cy="9.7" r="1.8"/>
		<circle fill="#AEBDC4" cx="48.4" cy="9.7" r="1.8"/>
		<circle fill="#AEBDC4" cx="52.7" cy="9.7" r="1.8"/>
		<circle fill="#AEBDC4" cx="57" cy="9.7" r="1.8"/>
		<circle fill="#AEBDC4" cx="61.4" cy="9.7" r="1.8"/>
		<circle fill="#AEBDC4" cx="65.7" cy="9.7" r="1.8"/>
		<circle fill="#AEBDC4" cx="70" cy="9.7" r="1.8"/>
		<circle fill="#AEBDC4" cx="74.4" cy="9.7" r="1.8"/>
		<circle fill="#AEBDC4" cx="78.7" cy="9.7" r="1.8"/>
		<circle fill="#AEBDC4" cx="83" cy="9.7" r="1.8"/>
		<circle fill="#AEBDC4" cx="87.3" cy="9.7" r="1.8"/>
		<circle fill="#AEBDC4" cx="91.7" cy="9.7" r="1.8"/>
		<circle fill="#AEBDC4" cx="96" cy="9.7" r="1.8"/>
		<circle fill="#AEBDC4" cx="100.3" cy="9.7" r="1.8"/>
		<circle fill="#AEBDC4" cx="104.7" cy="9.7" r="1.8"/>
		<circle fill="#AEBDC4" cx="109" cy="9.7" r="1.8"/>
		<circle fill="#AEBDC4" cx="113.3" cy="9.7" r="1.8"/>
	</g>
</g>
</svg>
