<?xml version="1.0" encoding="utf-8"?>
<!-- Generator: Adobe Illustrator 23.0.1, SVG Export Plug-In . SVG Version: 6.00 Build 0)  -->
<svg version="1.1" id="Layer_1" xmlns="http://www.w3.org/2000/svg" xmlns:xlink="http://www.w3.org/1999/xlink" x="0px" y="0px"
	 width="131px" height="61px" viewBox="0 0 131 61" enable-background="new 0 0 131 61" xml:space="preserve">
<g onclick="this.parentNode.sekt.push(this);this.a_name=&quot;W 7 (низ)&quot;;">
	
		<rect x="35.7" y="-34.47" onclick="this.parentNode.a_fon=this;" transform="matrix(-1.836970e-16 1 -1 -1.836970e-16 96 -35)" fill="#F1F3F4" stroke="#BCC8CE" stroke-width="0.4" stroke-linecap="round" stroke-miterlimit="10" width="59.61" height="129.95"/>
	<g onclick="this.parentNode.a_row=this;">
		<g onclick="this.a_par={beg_namb:1,quant:18};">
			<line fill="none" stroke="#D3DBDF" stroke-width="0.4" stroke-miterlimit="10" x1="115.18" y1="51.26" x2="37.94" y2="51.26"/>
		</g>
		<g onclick="this.a_par={beg_namb:1,quant:18};">
			<line fill="none" stroke="#D3DBDF" stroke-width="0.4" stroke-miterlimit="10" x1="115.18" y1="45.33" x2="37.94" y2="45.33"/>
		</g>
		<g onclick="this.a_par={beg_namb:1,quant:24};">
			<line fill="none" stroke="#D3DBDF" stroke-width="0.4" stroke-miterlimit="10" x1="115.18" y1="39.4" x2="11.96" y2="39.4"/>
		</g>
		<g onclick="this.a_par={beg_namb:1,quant:24};">
			<line fill="none" stroke="#D3DBDF" stroke-width="0.4" stroke-miterlimit="10" x1="115.18" y1="33.46" x2="11.96" y2="33.46"/>
		</g>
		<g onclick="this.a_par={beg_namb:1,quant:24};">
			<line fill="none" stroke="#D3DBDF" stroke-width="0.4" stroke-miterlimit="10" x1="115.18" y1="27.53" x2="11.96" y2="27.53"/>
		</g>
		<g onclick="this.a_par={beg_namb:1,quant:24};">
			<line fill="none" stroke="#D3DBDF" stroke-width="0.4" stroke-miterlimit="10" x1="115.18" y1="21.6" x2="11.96" y2="21.6"/>
		</g>
		<g onclick="this.a_par={beg_namb:1,quant:24};">
			<line fill="none" stroke="#D3DBDF" stroke-width="0.4" stroke-miterlimit="10" x1="115.18" y1="15.67" x2="11.96" y2="15.67"/>
		</g>
		<g onclick="this.a_par={beg_namb:1,quant:24};">
			<line fill="none" stroke="#D3DBDF" stroke-width="0.4" stroke-miterlimit="10" x1="115.18" y1="9.74" x2="11.96" y2="9.74"/>
		</g>
	</g>
	<g>
		<g>
			<circle fill="#AEBDC4" cx="39.79" cy="51.26" r="1.85"/>
			<circle fill="#AEBDC4" cx="44.11" cy="51.26" r="1.85"/>
			<circle fill="#AEBDC4" cx="48.43" cy="51.26" r="1.85"/>
			<circle fill="#AEBDC4" cx="52.75" cy="51.26" r="1.85"/>
			<circle fill="#AEBDC4" cx="57.07" cy="51.26" r="1.85"/>
			<circle fill="#AEBDC4" cx="61.39" cy="51.26" r="1.85"/>
			<circle fill="#AEBDC4" cx="65.71" cy="51.26" r="1.85"/>
			<circle fill="#AEBDC4" cx="70.03" cy="51.26" r="1.85"/>
			<circle fill="#AEBDC4" cx="74.36" cy="51.26" r="1.85"/>
			<circle fill="#AEBDC4" cx="78.69" cy="51.26" r="1.85"/>
			<circle fill="#AEBDC4" cx="83.02" cy="51.26" r="1.85"/>
			<circle fill="#AEBDC4" cx="87.35" cy="51.26" r="1.85"/>
			<circle fill="#AEBDC4" cx="91.68" cy="51.26" r="1.85"/>
			<circle fill="#AEBDC4" cx="96.01" cy="51.26" r="1.85"/>
			<circle fill="#AEBDC4" cx="100.34" cy="51.26" r="1.85"/>
			<circle fill="#AEBDC4" cx="104.67" cy="51.26" r="1.85"/>
			<circle fill="#AEBDC4" cx="109" cy="51.26" r="1.85"/>
			<circle fill="#AEBDC4" cx="113.33" cy="51.26" r="1.85"/>
		</g>
		<g>
			<circle fill="#AEBDC4" cx="39.79" cy="45.33" r="1.85"/>
			<circle fill="#AEBDC4" cx="44.11" cy="45.33" r="1.85"/>
			<circle fill="#AEBDC4" cx="48.43" cy="45.33" r="1.85"/>
			<circle fill="#AEBDC4" cx="52.75" cy="45.33" r="1.85"/>
			<circle fill="#AEBDC4" cx="57.07" cy="45.33" r="1.85"/>
			<circle fill="#AEBDC4" cx="61.39" cy="45.33" r="1.85"/>
			<circle fill="#AEBDC4" cx="65.71" cy="45.33" r="1.85"/>
			<circle fill="#AEBDC4" cx="70.03" cy="45.33" r="1.85"/>
			<circle fill="#AEBDC4" cx="74.36" cy="45.33" r="1.85"/>
			<circle fill="#AEBDC4" cx="78.69" cy="45.33" r="1.85"/>
			<circle fill="#AEBDC4" cx="83.02" cy="45.33" r="1.85"/>
			<circle fill="#AEBDC4" cx="87.35" cy="45.33" r="1.85"/>
			<circle fill="#AEBDC4" cx="91.68" cy="45.33" r="1.85"/>
			<circle fill="#AEBDC4" cx="96.01" cy="45.33" r="1.85"/>
			<circle fill="#AEBDC4" cx="100.34" cy="45.33" r="1.85"/>
			<circle fill="#AEBDC4" cx="104.67" cy="45.33" r="1.85"/>
			<circle fill="#AEBDC4" cx="109" cy="45.33" r="1.85"/>
			<circle fill="#AEBDC4" cx="113.33" cy="45.33" r="1.85"/>
		</g>
		<g>
			<circle fill="#AEBDC4" cx="13.8" cy="39.4" r="1.85"/>
			<circle fill="#AEBDC4" cx="18.12" cy="39.4" r="1.85"/>
			<circle fill="#AEBDC4" cx="22.44" cy="39.4" r="1.85"/>
			<circle fill="#AEBDC4" cx="26.77" cy="39.4" r="1.85"/>
			<circle fill="#AEBDC4" cx="31.09" cy="39.4" r="1.85"/>
			<circle fill="#AEBDC4" cx="35.41" cy="39.4" r="1.85"/>
			<circle fill="#AEBDC4" cx="39.73" cy="39.4" r="1.85"/>
			<circle fill="#AEBDC4" cx="44.05" cy="39.4" r="1.85"/>
			<circle fill="#AEBDC4" cx="48.37" cy="39.4" r="1.85"/>
			<circle fill="#AEBDC4" cx="52.7" cy="39.4" r="1.85"/>
			<circle fill="#AEBDC4" cx="57.03" cy="39.4" r="1.85"/>
			<circle fill="#AEBDC4" cx="61.36" cy="39.4" r="1.85"/>
			<circle fill="#AEBDC4" cx="65.69" cy="39.4" r="1.85"/>
			<circle fill="#AEBDC4" cx="70.03" cy="39.4" r="1.85"/>
			<circle fill="#AEBDC4" cx="74.36" cy="39.4" r="1.85"/>
			<circle fill="#AEBDC4" cx="78.69" cy="39.4" r="1.85"/>
			<circle fill="#AEBDC4" cx="83.02" cy="39.4" r="1.85"/>
			<circle fill="#AEBDC4" cx="87.35" cy="39.4" r="1.85"/>
			<circle fill="#AEBDC4" cx="91.68" cy="39.4" r="1.85"/>
			<circle fill="#AEBDC4" cx="96.01" cy="39.4" r="1.85"/>
			<circle fill="#AEBDC4" cx="100.34" cy="39.4" r="1.85"/>
			<circle fill="#AEBDC4" cx="104.67" cy="39.4" r="1.85"/>
			<circle fill="#AEBDC4" cx="109" cy="39.4" r="1.85"/>
			<circle fill="#AEBDC4" cx="113.33" cy="39.4" r="1.85"/>
		</g>
		<g>
			<circle fill="#AEBDC4" cx="13.8" cy="33.46" r="1.85"/>
			<circle fill="#AEBDC4" cx="18.12" cy="33.46" r="1.85"/>
			<circle fill="#AEBDC4" cx="22.44" cy="33.46" r="1.85"/>
			<circle fill="#AEBDC4" cx="26.77" cy="33.46" r="1.85"/>
			<circle fill="#AEBDC4" cx="31.09" cy="33.46" r="1.85"/>
			<circle fill="#AEBDC4" cx="35.41" cy="33.46" r="1.85"/>
			<circle fill="#AEBDC4" cx="39.73" cy="33.46" r="1.85"/>
			<circle fill="#AEBDC4" cx="44.05" cy="33.46" r="1.85"/>
			<circle fill="#AEBDC4" cx="48.37" cy="33.46" r="1.85"/>
			<circle fill="#AEBDC4" cx="52.7" cy="33.46" r="1.85"/>
			<circle fill="#AEBDC4" cx="57.03" cy="33.46" r="1.85"/>
			<circle fill="#AEBDC4" cx="61.36" cy="33.46" r="1.85"/>
			<circle fill="#AEBDC4" cx="65.69" cy="33.46" r="1.85"/>
			<circle fill="#AEBDC4" cx="70.03" cy="33.46" r="1.85"/>
			<circle fill="#AEBDC4" cx="74.36" cy="33.46" r="1.85"/>
			<circle fill="#AEBDC4" cx="78.69" cy="33.46" r="1.85"/>
			<circle fill="#AEBDC4" cx="83.02" cy="33.46" r="1.85"/>
			<circle fill="#AEBDC4" cx="87.35" cy="33.46" r="1.85"/>
			<circle fill="#AEBDC4" cx="91.68" cy="33.46" r="1.85"/>
			<circle fill="#AEBDC4" cx="96.01" cy="33.46" r="1.85"/>
			<circle fill="#AEBDC4" cx="100.34" cy="33.46" r="1.85"/>
			<circle fill="#AEBDC4" cx="104.67" cy="33.46" r="1.85"/>
			<circle fill="#AEBDC4" cx="109" cy="33.46" r="1.85"/>
			<circle fill="#AEBDC4" cx="113.33" cy="33.46" r="1.85"/>
		</g>
		<g>
			<circle fill="#AEBDC4" cx="13.8" cy="27.53" r="1.85"/>
			<circle fill="#AEBDC4" cx="18.12" cy="27.53" r="1.85"/>
			<circle fill="#AEBDC4" cx="22.44" cy="27.53" r="1.85"/>
			<circle fill="#AEBDC4" cx="26.77" cy="27.53" r="1.85"/>
			<circle fill="#AEBDC4" cx="31.09" cy="27.53" r="1.85"/>
			<circle fill="#AEBDC4" cx="35.41" cy="27.53" r="1.85"/>
			<circle fill="#AEBDC4" cx="39.73" cy="27.53" r="1.85"/>
			<circle fill="#AEBDC4" cx="44.05" cy="27.53" r="1.85"/>
			<circle fill="#AEBDC4" cx="48.37" cy="27.53" r="1.85"/>
			<circle fill="#AEBDC4" cx="52.7" cy="27.53" r="1.85"/>
			<circle fill="#AEBDC4" cx="57.03" cy="27.53" r="1.85"/>
			<circle fill="#AEBDC4" cx="61.36" cy="27.53" r="1.85"/>
			<circle fill="#AEBDC4" cx="65.69" cy="27.53" r="1.85"/>
			<circle fill="#AEBDC4" cx="70.03" cy="27.53" r="1.85"/>
			<circle fill="#AEBDC4" cx="74.36" cy="27.53" r="1.85"/>
			<circle fill="#AEBDC4" cx="78.69" cy="27.53" r="1.85"/>
			<circle fill="#AEBDC4" cx="83.02" cy="27.53" r="1.85"/>
			<circle fill="#AEBDC4" cx="87.35" cy="27.53" r="1.85"/>
			<circle fill="#AEBDC4" cx="91.68" cy="27.53" r="1.85"/>
			<circle fill="#AEBDC4" cx="96.01" cy="27.53" r="1.85"/>
			<circle fill="#AEBDC4" cx="100.34" cy="27.53" r="1.85"/>
			<circle fill="#AEBDC4" cx="104.67" cy="27.53" r="1.85"/>
			<circle fill="#AEBDC4" cx="109" cy="27.53" r="1.85"/>
			<circle fill="#AEBDC4" cx="113.33" cy="27.53" r="1.85"/>
		</g>
		<g>
			<circle fill="#AEBDC4" cx="13.8" cy="21.6" r="1.85"/>
			<circle fill="#AEBDC4" cx="18.12" cy="21.6" r="1.85"/>
			<circle fill="#AEBDC4" cx="22.44" cy="21.6" r="1.85"/>
			<circle fill="#AEBDC4" cx="26.77" cy="21.6" r="1.85"/>
			<circle fill="#AEBDC4" cx="31.09" cy="21.6" r="1.85"/>
			<circle fill="#AEBDC4" cx="35.41" cy="21.6" r="1.85"/>
			<circle fill="#AEBDC4" cx="39.73" cy="21.6" r="1.85"/>
			<circle fill="#AEBDC4" cx="44.05" cy="21.6" r="1.85"/>
			<circle fill="#AEBDC4" cx="48.37" cy="21.6" r="1.85"/>
			<circle fill="#AEBDC4" cx="52.7" cy="21.6" r="1.85"/>
			<circle fill="#AEBDC4" cx="57.03" cy="21.6" r="1.85"/>
			<circle fill="#AEBDC4" cx="61.36" cy="21.6" r="1.85"/>
			<circle fill="#AEBDC4" cx="65.69" cy="21.6" r="1.85"/>
			<circle fill="#AEBDC4" cx="70.03" cy="21.6" r="1.85"/>
			<circle fill="#AEBDC4" cx="74.36" cy="21.6" r="1.85"/>
			<circle fill="#AEBDC4" cx="78.69" cy="21.6" r="1.85"/>
			<circle fill="#AEBDC4" cx="83.02" cy="21.6" r="1.85"/>
			<circle fill="#AEBDC4" cx="87.35" cy="21.6" r="1.85"/>
			<circle fill="#AEBDC4" cx="91.68" cy="21.6" r="1.85"/>
			<circle fill="#AEBDC4" cx="96.01" cy="21.6" r="1.85"/>
			<circle fill="#AEBDC4" cx="100.34" cy="21.6" r="1.85"/>
			<circle fill="#AEBDC4" cx="104.67" cy="21.6" r="1.85"/>
			<circle fill="#AEBDC4" cx="109" cy="21.6" r="1.85"/>
			<circle fill="#AEBDC4" cx="113.33" cy="21.6" r="1.85"/>
		</g>
		<g>
			<circle fill="#AEBDC4" cx="13.8" cy="15.67" r="1.85"/>
			<circle fill="#AEBDC4" cx="18.12" cy="15.67" r="1.85"/>
			<circle fill="#AEBDC4" cx="22.44" cy="15.67" r="1.85"/>
			<circle fill="#AEBDC4" cx="26.77" cy="15.67" r="1.85"/>
			<circle fill="#AEBDC4" cx="31.09" cy="15.67" r="1.85"/>
			<circle fill="#AEBDC4" cx="35.41" cy="15.67" r="1.85"/>
			<circle fill="#AEBDC4" cx="39.73" cy="15.67" r="1.85"/>
			<circle fill="#AEBDC4" cx="44.05" cy="15.67" r="1.85"/>
			<circle fill="#AEBDC4" cx="48.37" cy="15.67" r="1.85"/>
			<circle fill="#AEBDC4" cx="52.7" cy="15.67" r="1.85"/>
			<circle fill="#AEBDC4" cx="57.03" cy="15.67" r="1.85"/>
			<circle fill="#AEBDC4" cx="61.36" cy="15.67" r="1.85"/>
			<circle fill="#AEBDC4" cx="65.69" cy="15.67" r="1.85"/>
			<circle fill="#AEBDC4" cx="70.03" cy="15.67" r="1.85"/>
			<circle fill="#AEBDC4" cx="74.36" cy="15.67" r="1.85"/>
			<circle fill="#AEBDC4" cx="78.69" cy="15.67" r="1.85"/>
			<circle fill="#AEBDC4" cx="83.02" cy="15.67" r="1.85"/>
			<circle fill="#AEBDC4" cx="87.35" cy="15.67" r="1.85"/>
			<circle fill="#AEBDC4" cx="91.68" cy="15.67" r="1.85"/>
			<circle fill="#AEBDC4" cx="96.01" cy="15.67" r="1.85"/>
			<circle fill="#AEBDC4" cx="100.34" cy="15.67" r="1.85"/>
			<circle fill="#AEBDC4" cx="104.67" cy="15.67" r="1.85"/>
			<circle fill="#AEBDC4" cx="109" cy="15.67" r="1.85"/>
			<circle fill="#AEBDC4" cx="113.33" cy="15.67" r="1.85"/>
		</g>
		<g>
			<circle fill="#AEBDC4" cx="13.8" cy="9.74" r="1.85"/>
			<circle fill="#AEBDC4" cx="18.12" cy="9.74" r="1.85"/>
			<circle fill="#AEBDC4" cx="22.44" cy="9.74" r="1.85"/>
			<circle fill="#AEBDC4" cx="26.77" cy="9.74" r="1.85"/>
			<circle fill="#AEBDC4" cx="31.09" cy="9.74" r="1.85"/>
			<circle fill="#AEBDC4" cx="35.41" cy="9.74" r="1.85"/>
			<circle fill="#AEBDC4" cx="39.73" cy="9.74" r="1.85"/>
			<circle fill="#AEBDC4" cx="44.05" cy="9.74" r="1.85"/>
			<circle fill="#AEBDC4" cx="48.37" cy="9.74" r="1.85"/>
			<circle fill="#AEBDC4" cx="52.7" cy="9.74" r="1.85"/>
			<circle fill="#AEBDC4" cx="57.03" cy="9.74" r="1.85"/>
			<circle fill="#AEBDC4" cx="61.36" cy="9.74" r="1.85"/>
			<circle fill="#AEBDC4" cx="65.69" cy="9.74" r="1.85"/>
			<circle fill="#AEBDC4" cx="70.03" cy="9.74" r="1.85"/>
			<circle fill="#AEBDC4" cx="74.36" cy="9.74" r="1.85"/>
			<circle fill="#AEBDC4" cx="78.69" cy="9.74" r="1.85"/>
			<circle fill="#AEBDC4" cx="83.02" cy="9.74" r="1.85"/>
			<circle fill="#AEBDC4" cx="87.35" cy="9.74" r="1.85"/>
			<circle fill="#AEBDC4" cx="91.68" cy="9.74" r="1.85"/>
			<circle fill="#AEBDC4" cx="96.01" cy="9.74" r="1.85"/>
			<circle fill="#AEBDC4" cx="100.34" cy="9.74" r="1.85"/>
			<circle fill="#AEBDC4" cx="104.67" cy="9.74" r="1.85"/>
			<circle fill="#AEBDC4" cx="109" cy="9.74" r="1.85"/>
			<circle fill="#AEBDC4" cx="113.33" cy="9.74" r="1.85"/>
		</g>
	</g>
	<g onclick="this.parentNode.a_text=this;">
		<text transform="matrix(0.9999 0 0 1 59.8193 17.2465)"><tspan x="0" y="0" font-family="'OpenSans-Semibold'" font-size="6.3996px">W 7</tspan><tspan x="-2.48" y="7.2" font-family="'OpenSans-Semibold'" font-size="6.3996px">(</tspan><tspan x="-0.44" y="7.2" font-family="'OpenSans-Semibold'" font-size="6.3996px">н</tspan><tspan x="3.91" y="7.2" font-family="'OpenSans-Semibold'" font-size="6.3996px">и</tspan><tspan x="8.47" y="7.2" font-family="'OpenSans-Semibold'" font-size="6.3996px">з</tspan><tspan x="11.82" y="7.2" font-family="'OpenSans-Semibold'" font-size="6.3996px">)</tspan></text>
	</g>
</g>
</svg>
