<svg xmlns="http://www.w3.org/2000/svg" viewBox="0 0 130 172">
    <path fill="#F1F3F4" stroke="#BCC8CE" stroke-width=".4" stroke-linecap="round" stroke-miterlimit="10" d="M130.47.7v59.61H.52V.7h129.95z"/>
    <g fill="#AEBDC4">
        <circle cx="39.79" cy="51.26" r="1.85"/>
        <circle cx="44.11" cy="51.26" r="1.85"/>
        <circle cx="48.43" cy="51.26" r="1.85"/>
        <circle cx="52.75" cy="51.26" r="1.85"/>
        <circle cx="57.07" cy="51.26" r="1.85"/>
        <circle cx="61.39" cy="51.26" r="1.85"/>
        <circle cx="65.71" cy="51.26" r="1.85"/>
        <circle cx="70.03" cy="51.26" r="1.85"/>
        <circle cx="74.36" cy="51.26" r="1.85"/>
        <circle cx="78.69" cy="51.26" r="1.85"/>
        <circle cx="83.02" cy="51.26" r="1.85"/>
        <circle cx="87.35" cy="51.26" r="1.85"/>
        <circle cx="91.68" cy="51.26" r="1.85"/>
        <circle cx="96.01" cy="51.26" r="1.85"/>
        <circle cx="100.34" cy="51.26" r="1.85"/>
        <circle cx="104.67" cy="51.26" r="1.85"/>
        <circle cx="109" cy="51.26" r="1.85"/>
        <circle cx="113.33" cy="51.26" r="1.85"/>
        <circle cx="39.79" cy="45.33" r="1.85"/>
        <circle cx="44.11" cy="45.33" r="1.85"/>
        <circle cx="48.43" cy="45.33" r="1.85"/>
        <circle cx="52.75" cy="45.33" r="1.85"/>
        <circle cx="57.07" cy="45.33" r="1.85"/>
        <circle cx="61.39" cy="45.33" r="1.85"/>
        <circle cx="65.71" cy="45.33" r="1.85"/>
        <circle cx="70.03" cy="45.33" r="1.85"/>
        <circle cx="74.36" cy="45.33" r="1.85"/>
        <circle cx="78.69" cy="45.33" r="1.85"/>
        <circle cx="83.02" cy="45.33" r="1.85"/>
        <circle cx="87.35" cy="45.33" r="1.85"/>
        <circle cx="91.68" cy="45.33" r="1.85"/>
        <circle cx="96.01" cy="45.33" r="1.85"/>
        <circle cx="100.34" cy="45.33" r="1.85"/>
        <circle cx="104.67" cy="45.33" r="1.85"/>
        <circle cx="109" cy="45.33" r="1.85"/>
        <circle cx="113.33" cy="45.33" r="1.85"/>
        <circle cx="13.8" cy="39.4" r="1.85"/>
        <circle cx="18.12" cy="39.4" r="1.85"/>
        <circle cx="22.44" cy="39.4" r="1.85"/>
        <circle cx="26.77" cy="39.4" r="1.85"/>
        <circle cx="31.09" cy="39.4" r="1.85"/>
        <circle cx="35.41" cy="39.4" r="1.85"/>
        <circle cx="39.73" cy="39.4" r="1.85"/>
        <circle cx="44.05" cy="39.4" r="1.85"/>
        <circle cx="48.37" cy="39.4" r="1.85"/>
        <circle cx="52.7" cy="39.4" r="1.85"/>
        <circle cx="57.03" cy="39.4" r="1.85"/>
        <circle cx="61.36" cy="39.4" r="1.85"/>
        <circle cx="65.69" cy="39.4" r="1.85"/>
        <circle cx="70.03" cy="39.4" r="1.85"/>
        <circle cx="74.36" cy="39.4" r="1.85"/>
        <circle cx="78.69" cy="39.4" r="1.85"/>
        <circle cx="83.02" cy="39.4" r="1.85"/>
        <circle cx="87.35" cy="39.4" r="1.85"/>
        <circle cx="91.68" cy="39.4" r="1.85"/>
        <circle cx="96.01" cy="39.4" r="1.85"/>
        <circle cx="100.34" cy="39.4" r="1.85"/>
        <circle cx="104.67" cy="39.4" r="1.85"/>
        <circle cx="109" cy="39.4" r="1.85"/>
        <circle cx="113.33" cy="39.4" r="1.85"/>
        <g>
            <circle cx="13.8" cy="33.46" r="1.85"/>
            <circle cx="18.12" cy="33.46" r="1.85"/>
            <circle cx="22.44" cy="33.46" r="1.85"/>
            <circle cx="26.77" cy="33.46" r="1.85"/>
            <circle cx="31.09" cy="33.46" r="1.85"/>
            <circle cx="35.41" cy="33.46" r="1.85"/>
            <circle cx="39.73" cy="33.46" r="1.85"/>
            <circle cx="44.05" cy="33.46" r="1.85"/>
            <circle cx="48.37" cy="33.46" r="1.85"/>
            <circle cx="52.7" cy="33.46" r="1.85"/>
            <circle cx="57.03" cy="33.46" r="1.85"/>
            <circle cx="61.36" cy="33.46" r="1.85"/>
            <circle cx="65.69" cy="33.46" r="1.85"/>
            <circle cx="70.03" cy="33.46" r="1.85"/>
            <circle cx="74.36" cy="33.46" r="1.85"/>
            <circle cx="78.69" cy="33.46" r="1.85"/>
            <circle cx="83.02" cy="33.46" r="1.85"/>
            <circle cx="87.35" cy="33.46" r="1.85"/>
            <circle cx="91.68" cy="33.46" r="1.85"/>
            <circle cx="96.01" cy="33.46" r="1.85"/>
            <circle cx="100.34" cy="33.46" r="1.85"/>
            <circle cx="104.67" cy="33.46" r="1.85"/>
            <circle cx="109" cy="33.46" r="1.85"/>
            <circle cx="113.33" cy="33.46" r="1.85"/>
        </g>
        <g>
            <circle cx="13.8" cy="27.53" r="1.85"/>
            <circle cx="18.12" cy="27.53" r="1.85"/>
            <circle cx="22.44" cy="27.53" r="1.85"/>
            <circle cx="26.77" cy="27.53" r="1.85"/>
            <circle cx="31.09" cy="27.53" r="1.85"/>
            <circle cx="35.41" cy="27.53" r="1.85"/>
            <circle cx="39.73" cy="27.53" r="1.85"/>
            <circle cx="44.05" cy="27.53" r="1.85"/>
            <circle cx="48.37" cy="27.53" r="1.85"/>
            <circle cx="52.7" cy="27.53" r="1.85"/>
            <circle cx="57.03" cy="27.53" r="1.85"/>
            <circle cx="61.36" cy="27.53" r="1.85"/>
            <circle cx="65.69" cy="27.53" r="1.85"/>
            <circle cx="70.03" cy="27.53" r="1.85"/>
            <circle cx="74.36" cy="27.53" r="1.85"/>
            <circle cx="78.69" cy="27.53" r="1.85"/>
            <circle cx="83.02" cy="27.53" r="1.85"/>
            <circle cx="87.35" cy="27.53" r="1.85"/>
            <circle cx="91.68" cy="27.53" r="1.85"/>
            <circle cx="96.01" cy="27.53" r="1.85"/>
            <circle cx="100.34" cy="27.53" r="1.85"/>
            <circle cx="104.67" cy="27.53" r="1.85"/>
            <circle cx="109" cy="27.53" r="1.85"/>
            <circle cx="113.33" cy="27.53" r="1.85"/>
        </g>
        <g>
            <circle cx="13.8" cy="21.6" r="1.85"/>
            <circle cx="18.12" cy="21.6" r="1.85"/>
            <circle cx="22.44" cy="21.6" r="1.85"/>
            <circle cx="26.77" cy="21.6" r="1.85"/>
            <circle cx="31.09" cy="21.6" r="1.85"/>
            <circle cx="35.41" cy="21.6" r="1.85"/>
            <circle cx="39.73" cy="21.6" r="1.85"/>
            <circle cx="44.05" cy="21.6" r="1.85"/>
            <circle cx="48.37" cy="21.6" r="1.85"/>
            <circle cx="52.7" cy="21.6" r="1.85"/>
            <circle cx="57.03" cy="21.6" r="1.85"/>
            <circle cx="61.36" cy="21.6" r="1.85"/>
            <circle cx="65.69" cy="21.6" r="1.85"/>
            <circle cx="70.03" cy="21.6" r="1.85"/>
            <circle cx="74.36" cy="21.6" r="1.85"/>
            <circle cx="78.69" cy="21.6" r="1.85"/>
            <circle cx="83.02" cy="21.6" r="1.85"/>
            <circle cx="87.35" cy="21.6" r="1.85"/>
            <circle cx="91.68" cy="21.6" r="1.85"/>
            <circle cx="96.01" cy="21.6" r="1.85"/>
            <circle cx="100.34" cy="21.6" r="1.85"/>
            <circle cx="104.67" cy="21.6" r="1.85"/>
            <circle cx="109" cy="21.6" r="1.85"/>
            <circle cx="113.33" cy="21.6" r="1.85"/>
        </g>
        <g>
            <circle cx="13.8" cy="15.67" r="1.85"/>
            <circle cx="18.12" cy="15.67" r="1.85"/>
            <circle cx="22.44" cy="15.67" r="1.85"/>
            <circle cx="26.77" cy="15.67" r="1.85"/>
            <circle cx="31.09" cy="15.67" r="1.85"/>
            <circle cx="35.41" cy="15.67" r="1.85"/>
            <circle cx="39.73" cy="15.67" r="1.85"/>
            <circle cx="44.05" cy="15.67" r="1.85"/>
            <circle cx="48.37" cy="15.67" r="1.85"/>
            <circle cx="52.7" cy="15.67" r="1.85"/>
            <circle cx="57.03" cy="15.67" r="1.85"/>
            <circle cx="61.36" cy="15.67" r="1.85"/>
            <circle cx="65.69" cy="15.67" r="1.85"/>
            <circle cx="70.03" cy="15.67" r="1.85"/>
            <circle cx="74.36" cy="15.67" r="1.85"/>
            <circle cx="78.69" cy="15.67" r="1.85"/>
            <circle cx="83.02" cy="15.67" r="1.85"/>
            <circle cx="87.35" cy="15.67" r="1.85"/>
            <circle cx="91.68" cy="15.67" r="1.85"/>
            <circle cx="96.01" cy="15.67" r="1.85"/>
            <circle cx="100.34" cy="15.67" r="1.85"/>
            <circle cx="104.67" cy="15.67" r="1.85"/>
            <circle cx="109" cy="15.67" r="1.85"/>
            <circle cx="113.33" cy="15.67" r="1.85"/>
        </g>
        <g>
            <circle cx="13.8" cy="9.74" r="1.85"/>
            <circle cx="18.12" cy="9.74" r="1.85"/>
            <circle cx="22.44" cy="9.74" r="1.85"/>
            <circle cx="26.77" cy="9.74" r="1.85"/>
            <circle cx="31.09" cy="9.74" r="1.85"/>
            <circle cx="35.41" cy="9.74" r="1.85"/>
            <circle cx="39.73" cy="9.74" r="1.85"/>
            <circle cx="44.05" cy="9.74" r="1.85"/>
            <circle cx="48.37" cy="9.74" r="1.85"/>
            <circle cx="52.7" cy="9.74" r="1.85"/>
            <circle cx="57.03" cy="9.74" r="1.85"/>
            <circle cx="61.36" cy="9.74" r="1.85"/>
            <circle cx="65.69" cy="9.74" r="1.85"/>
            <circle cx="70.03" cy="9.74" r="1.85"/>
            <circle cx="74.36" cy="9.74" r="1.85"/>
            <circle cx="78.69" cy="9.74" r="1.85"/>
            <circle cx="83.02" cy="9.74" r="1.85"/>
            <circle cx="87.35" cy="9.74" r="1.85"/>
            <circle cx="91.68" cy="9.74" r="1.85"/>
            <circle cx="96.01" cy="9.74" r="1.85"/>
            <circle cx="100.34" cy="9.74" r="1.85"/>
            <circle cx="104.67" cy="9.74" r="1.85"/>
            <circle cx="109" cy="9.74" r="1.85"/>
            <circle cx="113.33" cy="9.74" r="1.85"/>
        </g>
    </g>
</svg>
