<svg xmlns="http://www.w3.org/2000/svg" viewBox="0 0 130 172">
    <path fill="#F1F3F4" stroke="#BCC8CE" stroke-width=".4" stroke-linecap="round" stroke-miterlimit="10" d="M130.47.36v83.28H.52V.36h129.95z"/>
    <g fill="#AEBDC4">
        <circle cx="22.23" cy="9.38" r="1.85"/>
        <circle cx="26.55" cy="9.38" r="1.85"/>
        <circle cx="30.87" cy="9.38" r="1.85"/>
        <circle cx="35.19" cy="9.38" r="1.85"/>
        <circle cx="39.52" cy="9.38" r="1.85"/>
        <circle cx="43.84" cy="9.38" r="1.85"/>
        <circle cx="48.16" cy="9.38" r="1.85"/>
        <circle cx="52.48" cy="9.38" r="1.85"/>
        <circle cx="56.8" cy="9.38" r="1.85"/>
        <circle cx="61.13" cy="9.38" r="1.85"/>
        <circle cx="65.46" cy="9.38" r="1.85"/>
        <circle cx="69.79" cy="9.38" r="1.85"/>
        <circle cx="74.12" cy="9.38" r="1.85"/>
        <circle cx="78.45" cy="9.38" r="1.85"/>
        <circle cx="82.78" cy="9.38" r="1.85"/>
        <circle cx="87.12" cy="9.38" r="1.85"/>
        <circle cx="91.45" cy="9.38" r="1.85"/>
        <circle cx="95.78" cy="9.38" r="1.85"/>
        <circle cx="100.11" cy="9.38" r="1.85"/>
        <circle cx="104.44" cy="9.38" r="1.85"/>
        <circle cx="108.77" cy="9.38" r="1.85"/>
        <circle cx="22.23" cy="15.31" r="1.85"/>
        <circle cx="26.55" cy="15.31" r="1.85"/>
        <circle cx="30.87" cy="15.31" r="1.85"/>
        <circle cx="35.19" cy="15.31" r="1.85"/>
        <circle cx="39.52" cy="15.31" r="1.85"/>
        <circle cx="43.84" cy="15.31" r="1.85"/>
        <circle cx="48.16" cy="15.31" r="1.85"/>
        <circle cx="52.48" cy="15.31" r="1.85"/>
        <circle cx="56.8" cy="15.31" r="1.85"/>
        <circle cx="61.13" cy="15.31" r="1.85"/>
        <circle cx="65.46" cy="15.31" r="1.85"/>
        <circle cx="69.79" cy="15.31" r="1.85"/>
        <circle cx="74.12" cy="15.31" r="1.85"/>
        <circle cx="78.45" cy="15.31" r="1.85"/>
        <circle cx="82.78" cy="15.31" r="1.85"/>
        <circle cx="87.12" cy="15.31" r="1.85"/>
        <circle cx="91.45" cy="15.31" r="1.85"/>
        <circle cx="95.78" cy="15.31" r="1.85"/>
        <circle cx="100.11" cy="15.31" r="1.85"/>
        <circle cx="104.44" cy="15.31" r="1.85"/>
        <circle cx="108.77" cy="15.31" r="1.85"/>
        <circle cx="22.23" cy="21.24" r="1.85"/>
        <circle cx="26.55" cy="21.24" r="1.85"/>
        <circle cx="30.87" cy="21.24" r="1.85"/>
        <circle cx="35.19" cy="21.24" r="1.85"/>
        <circle cx="39.52" cy="21.24" r="1.85"/>
        <circle cx="43.84" cy="21.24" r="1.85"/>
        <circle cx="48.16" cy="21.24" r="1.85"/>
        <circle cx="52.48" cy="21.24" r="1.85"/>
        <circle cx="56.8" cy="21.24" r="1.85"/>
        <circle cx="61.13" cy="21.24" r="1.85"/>
        <circle cx="65.46" cy="21.24" r="1.85"/>
        <circle cx="69.79" cy="21.24" r="1.85"/>
        <circle cx="74.12" cy="21.24" r="1.85"/>
        <circle cx="78.45" cy="21.24" r="1.85"/>
        <circle cx="82.78" cy="21.24" r="1.85"/>
        <circle cx="87.12" cy="21.24" r="1.85"/>
        <circle cx="91.45" cy="21.24" r="1.85"/>
        <circle cx="95.78" cy="21.24" r="1.85"/>
        <circle cx="100.11" cy="21.24" r="1.85"/>
        <circle cx="104.44" cy="21.24" r="1.85"/>
        <circle cx="108.77" cy="21.24" r="1.85"/>
        <g>
            <circle cx="22.23" cy="27.17" r="1.85"/>
            <circle cx="26.55" cy="27.17" r="1.85"/>
            <circle cx="30.87" cy="27.17" r="1.85"/>
            <circle cx="35.19" cy="27.17" r="1.85"/>
            <circle cx="39.52" cy="27.17" r="1.85"/>
            <circle cx="43.84" cy="27.17" r="1.85"/>
            <circle cx="48.16" cy="27.17" r="1.85"/>
            <circle cx="52.48" cy="27.17" r="1.85"/>
            <circle cx="56.8" cy="27.17" r="1.85"/>
            <circle cx="61.13" cy="27.17" r="1.85"/>
            <circle cx="65.46" cy="27.17" r="1.85"/>
            <circle cx="69.79" cy="27.17" r="1.85"/>
            <circle cx="74.12" cy="27.17" r="1.85"/>
            <circle cx="78.45" cy="27.17" r="1.85"/>
            <circle cx="82.78" cy="27.17" r="1.85"/>
            <circle cx="87.12" cy="27.17" r="1.85"/>
            <circle cx="91.45" cy="27.17" r="1.85"/>
            <circle cx="95.78" cy="27.17" r="1.85"/>
            <circle cx="100.11" cy="27.17" r="1.85"/>
            <circle cx="104.44" cy="27.17" r="1.85"/>
            <circle cx="108.77" cy="27.17" r="1.85"/>
        </g>
        <g>
            <circle cx="13.57" cy="33.1" r="1.85"/>
            <circle cx="17.89" cy="33.1" r="1.85"/>
            <circle cx="22.21" cy="33.1" r="1.85"/>
            <circle cx="26.53" cy="33.1" r="1.85"/>
            <circle cx="30.85" cy="33.1" r="1.85"/>
            <circle cx="35.18" cy="33.1" r="1.85"/>
            <circle cx="39.5" cy="33.1" r="1.85"/>
            <circle cx="43.82" cy="33.1" r="1.85"/>
            <circle cx="48.14" cy="33.1" r="1.85"/>
            <circle cx="52.47" cy="33.1" r="1.85"/>
            <circle cx="56.8" cy="33.1" r="1.85"/>
            <circle cx="61.13" cy="33.1" r="1.85"/>
            <circle cx="65.46" cy="33.1" r="1.85"/>
            <circle cx="69.79" cy="33.1" r="1.85"/>
            <circle cx="74.12" cy="33.1" r="1.85"/>
            <circle cx="78.45" cy="33.1" r="1.85"/>
            <circle cx="82.78" cy="33.1" r="1.85"/>
            <circle cx="87.12" cy="33.1" r="1.85"/>
            <circle cx="91.45" cy="33.1" r="1.85"/>
            <circle cx="95.78" cy="33.1" r="1.85"/>
            <circle cx="100.11" cy="33.1" r="1.85"/>
            <circle cx="104.44" cy="33.1" r="1.85"/>
            <circle cx="108.77" cy="33.1" r="1.85"/>
            <circle cx="113.1" cy="33.1" r="1.85"/>
            <circle cx="117.43" cy="33.1" r="1.85"/>
        </g>
        <g>
            <circle cx="13.57" cy="39.03" r="1.85"/>
            <circle cx="17.89" cy="39.03" r="1.85"/>
            <circle cx="22.21" cy="39.03" r="1.85"/>
            <circle cx="26.53" cy="39.03" r="1.85"/>
            <circle cx="30.85" cy="39.03" r="1.85"/>
            <circle cx="35.18" cy="39.03" r="1.85"/>
            <circle cx="39.5" cy="39.03" r="1.85"/>
            <circle cx="43.82" cy="39.03" r="1.85"/>
            <circle cx="48.14" cy="39.03" r="1.85"/>
            <circle cx="52.47" cy="39.03" r="1.85"/>
            <circle cx="56.8" cy="39.03" r="1.85"/>
            <circle cx="61.13" cy="39.03" r="1.85"/>
            <circle cx="65.46" cy="39.03" r="1.85"/>
            <circle cx="69.79" cy="39.03" r="1.85"/>
            <circle cx="74.12" cy="39.03" r="1.85"/>
            <circle cx="78.45" cy="39.03" r="1.85"/>
            <circle cx="82.78" cy="39.03" r="1.85"/>
            <circle cx="87.12" cy="39.03" r="1.85"/>
            <circle cx="91.45" cy="39.03" r="1.85"/>
            <circle cx="95.78" cy="39.03" r="1.85"/>
            <circle cx="100.11" cy="39.03" r="1.85"/>
            <circle cx="104.44" cy="39.03" r="1.85"/>
            <circle cx="108.77" cy="39.03" r="1.85"/>
            <circle cx="113.1" cy="39.03" r="1.85"/>
            <circle cx="117.43" cy="39.03" r="1.85"/>
        </g>
        <g>
            <circle cx="13.57" cy="44.97" r="1.85"/>
            <circle cx="17.89" cy="44.97" r="1.85"/>
            <circle cx="22.21" cy="44.97" r="1.85"/>
            <circle cx="26.53" cy="44.97" r="1.85"/>
            <circle cx="30.85" cy="44.97" r="1.85"/>
            <circle cx="35.18" cy="44.97" r="1.85"/>
            <circle cx="39.5" cy="44.97" r="1.85"/>
            <circle cx="43.82" cy="44.97" r="1.85"/>
            <circle cx="48.14" cy="44.97" r="1.85"/>
            <circle cx="52.47" cy="44.97" r="1.85"/>
            <circle cx="56.8" cy="44.97" r="1.85"/>
            <circle cx="61.13" cy="44.97" r="1.85"/>
            <circle cx="65.46" cy="44.97" r="1.85"/>
            <circle cx="69.79" cy="44.97" r="1.85"/>
            <circle cx="74.12" cy="44.97" r="1.85"/>
            <circle cx="78.45" cy="44.97" r="1.85"/>
            <circle cx="82.78" cy="44.97" r="1.85"/>
            <circle cx="87.12" cy="44.97" r="1.85"/>
            <circle cx="91.45" cy="44.97" r="1.85"/>
            <circle cx="95.78" cy="44.97" r="1.85"/>
            <circle cx="100.11" cy="44.97" r="1.85"/>
            <circle cx="104.44" cy="44.97" r="1.85"/>
            <circle cx="108.77" cy="44.97" r="1.85"/>
            <circle cx="113.1" cy="44.97" r="1.85"/>
            <circle cx="117.43" cy="44.97" r="1.85"/>
        </g>
        <g>
            <circle cx="13.57" cy="50.9" r="1.85"/>
            <circle cx="17.89" cy="50.9" r="1.85"/>
            <circle cx="22.21" cy="50.9" r="1.85"/>
            <circle cx="26.53" cy="50.9" r="1.85"/>
            <circle cx="30.85" cy="50.9" r="1.85"/>
            <circle cx="35.18" cy="50.9" r="1.85"/>
            <circle cx="39.5" cy="50.9" r="1.85"/>
            <circle cx="43.82" cy="50.9" r="1.85"/>
            <circle cx="48.14" cy="50.9" r="1.85"/>
            <circle cx="52.47" cy="50.9" r="1.85"/>
            <circle cx="56.8" cy="50.9" r="1.85"/>
            <circle cx="61.13" cy="50.9" r="1.85"/>
            <circle cx="65.46" cy="50.9" r="1.85"/>
            <circle cx="69.79" cy="50.9" r="1.85"/>
            <circle cx="74.12" cy="50.9" r="1.85"/>
            <circle cx="78.45" cy="50.9" r="1.85"/>
            <circle cx="82.78" cy="50.9" r="1.85"/>
            <circle cx="87.12" cy="50.9" r="1.85"/>
            <circle cx="91.45" cy="50.9" r="1.85"/>
            <circle cx="95.78" cy="50.9" r="1.85"/>
            <circle cx="100.11" cy="50.9" r="1.85"/>
            <circle cx="104.44" cy="50.9" r="1.85"/>
            <circle cx="108.77" cy="50.9" r="1.85"/>
            <circle cx="113.1" cy="50.9" r="1.85"/>
            <circle cx="117.43" cy="50.9" r="1.85"/>
        </g>
        <g>
            <circle cx="13.57" cy="56.83" r="1.85"/>
            <circle cx="17.89" cy="56.83" r="1.85"/>
            <circle cx="22.21" cy="56.83" r="1.85"/>
            <circle cx="26.53" cy="56.83" r="1.85"/>
            <circle cx="30.85" cy="56.83" r="1.85"/>
            <circle cx="35.18" cy="56.83" r="1.85"/>
            <circle cx="39.5" cy="56.83" r="1.85"/>
            <circle cx="43.82" cy="56.83" r="1.85"/>
            <circle cx="48.14" cy="56.83" r="1.85"/>
            <circle cx="52.47" cy="56.83" r="1.85"/>
            <circle cx="56.8" cy="56.83" r="1.85"/>
            <circle cx="61.13" cy="56.83" r="1.85"/>
            <circle cx="65.46" cy="56.83" r="1.85"/>
            <circle cx="69.79" cy="56.83" r="1.85"/>
            <circle cx="74.12" cy="56.83" r="1.85"/>
            <circle cx="78.45" cy="56.83" r="1.85"/>
            <circle cx="82.78" cy="56.83" r="1.85"/>
            <circle cx="87.12" cy="56.83" r="1.85"/>
            <circle cx="91.45" cy="56.83" r="1.85"/>
            <circle cx="95.78" cy="56.83" r="1.85"/>
            <circle cx="100.11" cy="56.83" r="1.85"/>
            <circle cx="104.44" cy="56.83" r="1.85"/>
            <circle cx="108.77" cy="56.83" r="1.85"/>
            <circle cx="113.1" cy="56.83" r="1.85"/>
            <circle cx="117.43" cy="56.83" r="1.85"/>
        </g>
        <g>
            <circle cx="13.57" cy="62.76" r="1.85"/>
            <circle cx="17.89" cy="62.76" r="1.85"/>
            <circle cx="22.21" cy="62.76" r="1.85"/>
            <circle cx="26.53" cy="62.76" r="1.85"/>
            <circle cx="30.85" cy="62.76" r="1.85"/>
            <circle cx="35.18" cy="62.76" r="1.85"/>
            <circle cx="39.5" cy="62.76" r="1.85"/>
            <circle cx="43.82" cy="62.76" r="1.85"/>
            <circle cx="48.14" cy="62.76" r="1.85"/>
            <circle cx="52.47" cy="62.76" r="1.85"/>
            <circle cx="56.8" cy="62.76" r="1.85"/>
            <circle cx="61.13" cy="62.76" r="1.85"/>
            <circle cx="65.46" cy="62.76" r="1.85"/>
            <circle cx="69.79" cy="62.76" r="1.85"/>
            <circle cx="74.12" cy="62.76" r="1.85"/>
            <circle cx="78.45" cy="62.76" r="1.85"/>
            <circle cx="82.78" cy="62.76" r="1.85"/>
            <circle cx="87.12" cy="62.76" r="1.85"/>
            <circle cx="91.45" cy="62.76" r="1.85"/>
            <circle cx="95.78" cy="62.76" r="1.85"/>
            <circle cx="100.11" cy="62.76" r="1.85"/>
            <circle cx="104.44" cy="62.76" r="1.85"/>
            <circle cx="108.77" cy="62.76" r="1.85"/>
            <circle cx="113.1" cy="62.76" r="1.85"/>
            <circle cx="117.43" cy="62.76" r="1.85"/>
        </g>
        <g>
            <circle cx="13.57" cy="68.69" r="1.85"/>
            <circle cx="17.89" cy="68.69" r="1.85"/>
            <circle cx="22.21" cy="68.69" r="1.85"/>
            <circle cx="26.53" cy="68.69" r="1.85"/>
            <circle cx="30.85" cy="68.69" r="1.85"/>
            <circle cx="35.18" cy="68.69" r="1.85"/>
            <circle cx="39.5" cy="68.69" r="1.85"/>
            <circle cx="43.82" cy="68.69" r="1.85"/>
            <circle cx="48.14" cy="68.69" r="1.85"/>
            <circle cx="52.47" cy="68.69" r="1.85"/>
            <circle cx="56.8" cy="68.69" r="1.85"/>
            <circle cx="61.13" cy="68.69" r="1.85"/>
            <circle cx="65.46" cy="68.69" r="1.85"/>
            <circle cx="69.79" cy="68.69" r="1.85"/>
            <circle cx="74.12" cy="68.69" r="1.85"/>
            <circle cx="78.45" cy="68.69" r="1.85"/>
            <circle cx="82.78" cy="68.69" r="1.85"/>
            <circle cx="87.12" cy="68.69" r="1.85"/>
            <circle cx="91.45" cy="68.69" r="1.85"/>
            <circle cx="95.78" cy="68.69" r="1.85"/>
            <circle cx="100.11" cy="68.69" r="1.85"/>
            <circle cx="104.44" cy="68.69" r="1.85"/>
            <circle cx="108.77" cy="68.69" r="1.85"/>
            <circle cx="113.1" cy="68.69" r="1.85"/>
            <circle cx="117.43" cy="68.69" r="1.85"/>
        </g>
        <g>
            <circle cx="13.57" cy="74.62" r="1.85"/>
            <circle cx="17.89" cy="74.62" r="1.85"/>
            <circle cx="22.21" cy="74.62" r="1.85"/>
            <circle cx="26.53" cy="74.62" r="1.85"/>
            <circle cx="30.85" cy="74.62" r="1.85"/>
            <circle cx="35.18" cy="74.62" r="1.85"/>
            <circle cx="39.5" cy="74.62" r="1.85"/>
            <circle cx="43.82" cy="74.62" r="1.85"/>
            <circle cx="48.14" cy="74.62" r="1.85"/>
            <circle cx="52.47" cy="74.62" r="1.85"/>
            <circle cx="56.8" cy="74.62" r="1.85"/>
            <circle cx="61.13" cy="74.62" r="1.85"/>
            <circle cx="65.46" cy="74.62" r="1.85"/>
            <circle cx="69.79" cy="74.62" r="1.85"/>
            <circle cx="74.12" cy="74.62" r="1.85"/>
            <circle cx="78.45" cy="74.62" r="1.85"/>
            <circle cx="82.78" cy="74.62" r="1.85"/>
            <circle cx="87.12" cy="74.62" r="1.85"/>
            <circle cx="91.45" cy="74.62" r="1.85"/>
            <circle cx="95.78" cy="74.62" r="1.85"/>
            <circle cx="100.11" cy="74.62" r="1.85"/>
            <circle cx="104.44" cy="74.62" r="1.85"/>
            <circle cx="108.77" cy="74.62" r="1.85"/>
            <circle cx="113.1" cy="74.62" r="1.85"/>
            <circle cx="117.43" cy="74.62" r="1.85"/>
        </g>
    </g>
</svg>
