<svg xmlns="http://www.w3.org/2000/svg" viewBox="0 0 130 172">
    <path fill="#F1F3F4" stroke="#BCC8CE" stroke-width=".4" stroke-linecap="round" stroke-miterlimit="10" d="M.53 205.73V26.72L130.47.32v205.41H.53z"/>
    <g fill="#AEBDC4">
        <circle cx="99.91" cy="18.76" r="1.85"/>
        <circle cx="104.23" cy="18.76" r="1.85"/>
        <circle cx="108.55" cy="18.76" r="1.85"/>
        <circle cx="112.88" cy="18.76" r="1.85"/>
        <circle cx="117.2" cy="18.76" r="1.85"/>
        <circle cx="69.64" cy="24.69" r="1.85"/>
        <circle cx="73.96" cy="24.69" r="1.85"/>
        <circle cx="78.28" cy="24.69" r="1.85"/>
        <circle cx="82.6" cy="24.69" r="1.85"/>
        <circle cx="86.92" cy="24.69" r="1.85"/>
        <circle cx="91.24" cy="24.69" r="1.85"/>
        <circle cx="95.56" cy="24.69" r="1.85"/>
        <circle cx="99.88" cy="24.69" r="1.85"/>
        <circle cx="104.2" cy="24.69" r="1.85"/>
        <circle cx="108.54" cy="24.69" r="1.85"/>
        <circle cx="112.87" cy="24.69" r="1.85"/>
        <circle cx="117.2" cy="24.69" r="1.85"/>
        <circle cx="39.32" cy="30.62" r="1.85"/>
        <circle cx="43.64" cy="30.62" r="1.85"/>
        <circle cx="47.96" cy="30.62" r="1.85"/>
        <circle cx="52.28" cy="30.62" r="1.85"/>
        <circle cx="56.6" cy="30.62" r="1.85"/>
        <circle cx="60.93" cy="30.62" r="1.85"/>
        <circle cx="65.25" cy="30.62" r="1.85"/>
        <circle cx="69.57" cy="30.62" r="1.85"/>
        <circle cx="73.89" cy="30.62" r="1.85"/>
        <circle cx="78.22" cy="30.62" r="1.85"/>
        <circle cx="82.55" cy="30.62" r="1.85"/>
        <circle cx="86.88" cy="30.62" r="1.85"/>
        <circle cx="91.21" cy="30.62" r="1.85"/>
        <circle cx="95.54" cy="30.62" r="1.85"/>
        <circle cx="99.87" cy="30.62" r="1.85"/>
        <circle cx="104.2" cy="30.62" r="1.85"/>
        <circle cx="108.54" cy="30.62" r="1.85"/>
        <circle cx="112.87" cy="30.62" r="1.85"/>
        <circle cx="117.2" cy="30.62" r="1.85"/>
        <circle cx="34.99" cy="196.69" r="1.85"/>
        <circle cx="39.31" cy="196.69" r="1.85"/>
        <circle cx="43.63" cy="196.69" r="1.85"/>
        <circle cx="47.95" cy="196.69" r="1.85"/>
        <circle cx="52.27" cy="196.69" r="1.85"/>
        <circle cx="56.6" cy="196.69" r="1.85"/>
        <circle cx="60.92" cy="196.69" r="1.85"/>
        <circle cx="65.24" cy="196.69" r="1.85"/>
        <circle cx="69.56" cy="196.69" r="1.85"/>
        <circle cx="73.89" cy="196.69" r="1.85"/>
        <circle cx="78.22" cy="196.69" r="1.85"/>
        <circle cx="82.55" cy="196.69" r="1.85"/>
        <circle cx="86.88" cy="196.69" r="1.85"/>
        <circle cx="91.21" cy="196.69" r="1.85"/>
        <circle cx="95.54" cy="196.69" r="1.85"/>
        <circle cx="99.87" cy="196.69" r="1.85"/>
        <circle cx="104.2" cy="196.69" r="1.85"/>
        <circle cx="108.54" cy="196.69" r="1.85"/>
        <circle cx="112.87" cy="196.69" r="1.85"/>
        <circle cx="117.2" cy="196.69" r="1.85"/>
        <circle cx="34.99" cy="190.76" r="1.85"/>
        <circle cx="39.31" cy="190.76" r="1.85"/>
        <circle cx="43.63" cy="190.76" r="1.85"/>
        <circle cx="47.95" cy="190.76" r="1.85"/>
        <circle cx="52.27" cy="190.76" r="1.85"/>
        <circle cx="56.6" cy="190.76" r="1.85"/>
        <circle cx="60.92" cy="190.76" r="1.85"/>
        <circle cx="65.24" cy="190.76" r="1.85"/>
        <circle cx="69.56" cy="190.76" r="1.85"/>
        <circle cx="73.89" cy="190.76" r="1.85"/>
        <circle cx="78.22" cy="190.76" r="1.85"/>
        <circle cx="82.55" cy="190.76" r="1.85"/>
        <circle cx="86.88" cy="190.76" r="1.85"/>
        <circle cx="91.21" cy="190.76" r="1.85"/>
        <circle cx="95.54" cy="190.76" r="1.85"/>
        <circle cx="99.87" cy="190.76" r="1.85"/>
        <circle cx="104.2" cy="190.76" r="1.85"/>
        <circle cx="108.54" cy="190.76" r="1.85"/>
        <circle cx="112.87" cy="190.76" r="1.85"/>
        <circle cx="117.2" cy="190.76" r="1.85"/>
        <circle cx="17.67" cy="143.31" r="1.85"/>
        <circle cx="21.99" cy="143.31" r="1.85"/>
        <circle cx="26.31" cy="143.31" r="1.85"/>
        <circle cx="30.63" cy="143.31" r="1.85"/>
        <circle cx="34.95" cy="143.31" r="1.85"/>
        <circle cx="39.27" cy="143.31" r="1.85"/>
        <circle cx="43.59" cy="143.31" r="1.85"/>
        <circle cx="47.92" cy="143.31" r="1.85"/>
        <circle cx="52.24" cy="143.31" r="1.85"/>
        <circle cx="56.57" cy="143.31" r="1.85"/>
        <circle cx="60.9" cy="143.31" r="1.85"/>
        <circle cx="65.23" cy="143.31" r="1.85"/>
        <circle cx="69.56" cy="143.31" r="1.85"/>
        <circle cx="73.89" cy="143.31" r="1.85"/>
        <circle cx="78.22" cy="143.31" r="1.85"/>
        <circle cx="82.55" cy="143.31" r="1.85"/>
        <circle cx="86.88" cy="143.31" r="1.85"/>
        <circle cx="91.21" cy="143.31" r="1.85"/>
        <circle cx="95.54" cy="143.31" r="1.85"/>
        <circle cx="99.87" cy="143.31" r="1.85"/>
        <circle cx="104.2" cy="143.31" r="1.85"/>
        <circle cx="108.54" cy="143.31" r="1.85"/>
        <circle cx="17.67" cy="149.24" r="1.85"/>
        <circle cx="21.99" cy="149.24" r="1.85"/>
        <circle cx="26.31" cy="149.24" r="1.85"/>
        <circle cx="30.63" cy="149.24" r="1.85"/>
        <circle cx="34.95" cy="149.24" r="1.85"/>
        <circle cx="39.27" cy="149.24" r="1.85"/>
        <circle cx="43.59" cy="149.24" r="1.85"/>
        <circle cx="47.92" cy="149.24" r="1.85"/>
        <circle cx="52.24" cy="149.24" r="1.85"/>
        <circle cx="56.57" cy="149.24" r="1.85"/>
        <circle cx="60.9" cy="149.24" r="1.85"/>
        <circle cx="65.23" cy="149.24" r="1.85"/>
        <circle cx="69.56" cy="149.24" r="1.85"/>
        <circle cx="73.89" cy="149.24" r="1.85"/>
        <circle cx="78.22" cy="149.24" r="1.85"/>
        <circle cx="82.55" cy="149.24" r="1.85"/>
        <circle cx="86.88" cy="149.24" r="1.85"/>
        <circle cx="91.21" cy="149.24" r="1.85"/>
        <circle cx="95.54" cy="149.24" r="1.85"/>
        <circle cx="99.87" cy="149.24" r="1.85"/>
        <circle cx="104.2" cy="149.24" r="1.85"/>
        <circle cx="108.54" cy="149.24" r="1.85"/>
        <g>
            <circle cx="17.67" cy="155.17" r="1.85"/>
            <circle cx="21.99" cy="155.17" r="1.85"/>
            <circle cx="26.31" cy="155.17" r="1.85"/>
            <circle cx="30.63" cy="155.17" r="1.85"/>
            <circle cx="34.95" cy="155.17" r="1.85"/>
            <circle cx="39.27" cy="155.17" r="1.85"/>
            <circle cx="43.59" cy="155.17" r="1.85"/>
            <circle cx="47.92" cy="155.17" r="1.85"/>
            <circle cx="52.24" cy="155.17" r="1.85"/>
            <circle cx="56.57" cy="155.17" r="1.85"/>
            <circle cx="60.9" cy="155.17" r="1.85"/>
            <circle cx="65.23" cy="155.17" r="1.85"/>
            <circle cx="69.56" cy="155.17" r="1.85"/>
            <circle cx="73.89" cy="155.17" r="1.85"/>
            <circle cx="78.22" cy="155.17" r="1.85"/>
            <circle cx="82.55" cy="155.17" r="1.85"/>
            <circle cx="86.88" cy="155.17" r="1.85"/>
            <circle cx="91.21" cy="155.17" r="1.85"/>
            <circle cx="95.54" cy="155.17" r="1.85"/>
            <circle cx="99.87" cy="155.17" r="1.85"/>
            <circle cx="104.2" cy="155.17" r="1.85"/>
            <circle cx="108.54" cy="155.17" r="1.85"/>
        </g>
        <g>
            <circle cx="17.67" cy="161.1" r="1.85"/>
            <circle cx="21.99" cy="161.1" r="1.85"/>
            <circle cx="26.31" cy="161.1" r="1.85"/>
            <circle cx="30.63" cy="161.1" r="1.85"/>
            <circle cx="34.95" cy="161.1" r="1.85"/>
            <circle cx="39.27" cy="161.1" r="1.85"/>
            <circle cx="43.59" cy="161.1" r="1.85"/>
            <circle cx="47.92" cy="161.1" r="1.85"/>
            <circle cx="52.24" cy="161.1" r="1.85"/>
            <circle cx="56.57" cy="161.1" r="1.85"/>
            <circle cx="60.9" cy="161.1" r="1.85"/>
            <circle cx="65.23" cy="161.1" r="1.85"/>
            <circle cx="69.56" cy="161.1" r="1.85"/>
            <circle cx="73.89" cy="161.1" r="1.85"/>
            <circle cx="78.22" cy="161.1" r="1.85"/>
            <circle cx="82.55" cy="161.1" r="1.85"/>
            <circle cx="86.88" cy="161.1" r="1.85"/>
            <circle cx="91.21" cy="161.1" r="1.85"/>
            <circle cx="95.54" cy="161.1" r="1.85"/>
            <circle cx="99.87" cy="161.1" r="1.85"/>
            <circle cx="104.2" cy="161.1" r="1.85"/>
            <circle cx="108.54" cy="161.1" r="1.85"/>
        </g>
        <g>
            <circle cx="17.67" cy="167.03" r="1.85"/>
            <circle cx="21.99" cy="167.03" r="1.85"/>
            <circle cx="26.31" cy="167.03" r="1.85"/>
            <circle cx="30.63" cy="167.03" r="1.85"/>
            <circle cx="34.95" cy="167.03" r="1.85"/>
            <circle cx="39.27" cy="167.03" r="1.85"/>
            <circle cx="43.59" cy="167.03" r="1.85"/>
            <circle cx="47.92" cy="167.03" r="1.85"/>
            <circle cx="52.24" cy="167.03" r="1.85"/>
            <circle cx="56.57" cy="167.03" r="1.85"/>
            <circle cx="60.9" cy="167.03" r="1.85"/>
            <circle cx="65.23" cy="167.03" r="1.85"/>
            <circle cx="69.56" cy="167.03" r="1.85"/>
            <circle cx="73.89" cy="167.03" r="1.85"/>
            <circle cx="78.22" cy="167.03" r="1.85"/>
            <circle cx="82.55" cy="167.03" r="1.85"/>
            <circle cx="86.88" cy="167.03" r="1.85"/>
            <circle cx="91.21" cy="167.03" r="1.85"/>
            <circle cx="95.54" cy="167.03" r="1.85"/>
            <circle cx="99.87" cy="167.03" r="1.85"/>
            <circle cx="104.2" cy="167.03" r="1.85"/>
            <circle cx="108.54" cy="167.03" r="1.85"/>
        </g>
        <g>
            <circle cx="17.67" cy="36.55" r="1.85"/>
            <circle cx="21.99" cy="36.55" r="1.85"/>
            <circle cx="26.31" cy="36.55" r="1.85"/>
            <circle cx="30.63" cy="36.55" r="1.85"/>
            <circle cx="34.95" cy="36.55" r="1.85"/>
            <circle cx="39.27" cy="36.55" r="1.85"/>
            <circle cx="43.59" cy="36.55" r="1.85"/>
            <circle cx="47.92" cy="36.55" r="1.85"/>
            <circle cx="52.24" cy="36.55" r="1.85"/>
            <circle cx="56.57" cy="36.55" r="1.85"/>
            <circle cx="60.9" cy="36.55" r="1.85"/>
            <circle cx="65.23" cy="36.55" r="1.85"/>
            <circle cx="69.56" cy="36.55" r="1.85"/>
            <circle cx="73.89" cy="36.55" r="1.85"/>
            <circle cx="78.22" cy="36.55" r="1.85"/>
            <circle cx="82.55" cy="36.55" r="1.85"/>
            <circle cx="86.88" cy="36.55" r="1.85"/>
            <circle cx="91.21" cy="36.55" r="1.85"/>
            <circle cx="95.54" cy="36.55" r="1.85"/>
            <circle cx="99.87" cy="36.55" r="1.85"/>
            <circle cx="104.2" cy="36.55" r="1.85"/>
            <circle cx="108.54" cy="36.55" r="1.85"/>
            <circle cx="112.87" cy="36.55" r="1.85"/>
            <circle cx="117.2" cy="36.55" r="1.85"/>
        </g>
        <g>
            <circle cx="9.01" cy="172.96" r="1.85"/>
            <circle cx="13.33" cy="172.96" r="1.85"/>
            <circle cx="17.65" cy="172.96" r="1.85"/>
            <circle cx="21.97" cy="172.96" r="1.85"/>
            <circle cx="26.29" cy="172.96" r="1.85"/>
            <circle cx="30.61" cy="172.96" r="1.85"/>
            <circle cx="34.93" cy="172.96" r="1.85"/>
            <circle cx="39.25" cy="172.96" r="1.85"/>
            <circle cx="43.57" cy="172.96" r="1.85"/>
            <circle cx="47.91" cy="172.96" r="1.85"/>
            <circle cx="52.24" cy="172.96" r="1.85"/>
            <circle cx="56.57" cy="172.96" r="1.85"/>
            <circle cx="60.9" cy="172.96" r="1.85"/>
            <circle cx="65.23" cy="172.96" r="1.85"/>
            <circle cx="69.56" cy="172.96" r="1.85"/>
            <circle cx="73.89" cy="172.96" r="1.85"/>
            <circle cx="78.22" cy="172.96" r="1.85"/>
            <circle cx="82.55" cy="172.96" r="1.85"/>
            <circle cx="86.88" cy="172.96" r="1.85"/>
            <circle cx="91.21" cy="172.96" r="1.85"/>
            <circle cx="95.54" cy="172.96" r="1.85"/>
            <circle cx="99.87" cy="172.96" r="1.85"/>
            <circle cx="104.2" cy="172.96" r="1.85"/>
            <circle cx="108.54" cy="172.96" r="1.85"/>
            <circle cx="112.87" cy="172.96" r="1.85"/>
            <circle cx="117.2" cy="172.96" r="1.85"/>
        </g>
        <g>
            <circle cx="9.01" cy="137.38" r="1.85"/>
            <circle cx="13.33" cy="137.38" r="1.85"/>
            <circle cx="17.65" cy="137.38" r="1.85"/>
            <circle cx="21.97" cy="137.38" r="1.85"/>
            <circle cx="26.29" cy="137.38" r="1.85"/>
            <circle cx="30.61" cy="137.38" r="1.85"/>
            <circle cx="34.93" cy="137.38" r="1.85"/>
            <circle cx="39.25" cy="137.38" r="1.85"/>
            <circle cx="43.57" cy="137.38" r="1.85"/>
            <circle cx="47.91" cy="137.38" r="1.85"/>
            <circle cx="52.24" cy="137.38" r="1.85"/>
            <circle cx="56.57" cy="137.38" r="1.85"/>
            <circle cx="60.9" cy="137.38" r="1.85"/>
            <circle cx="65.23" cy="137.38" r="1.85"/>
            <circle cx="69.56" cy="137.38" r="1.85"/>
            <circle cx="73.89" cy="137.38" r="1.85"/>
            <circle cx="78.22" cy="137.38" r="1.85"/>
            <circle cx="82.55" cy="137.38" r="1.85"/>
            <circle cx="86.88" cy="137.38" r="1.85"/>
            <circle cx="91.21" cy="137.38" r="1.85"/>
            <circle cx="95.54" cy="137.38" r="1.85"/>
            <circle cx="99.87" cy="137.38" r="1.85"/>
            <circle cx="104.2" cy="137.38" r="1.85"/>
            <circle cx="108.54" cy="137.38" r="1.85"/>
            <circle cx="112.87" cy="137.38" r="1.85"/>
            <circle cx="117.2" cy="137.38" r="1.85"/>
        </g>
        <g>
            <circle cx="9.01" cy="131.45" r="1.85"/>
            <circle cx="13.33" cy="131.45" r="1.85"/>
            <circle cx="17.65" cy="131.45" r="1.85"/>
            <circle cx="21.97" cy="131.45" r="1.85"/>
            <circle cx="26.29" cy="131.45" r="1.85"/>
            <circle cx="30.61" cy="131.45" r="1.85"/>
            <circle cx="34.93" cy="131.45" r="1.85"/>
            <circle cx="39.25" cy="131.45" r="1.85"/>
            <circle cx="43.57" cy="131.45" r="1.85"/>
            <circle cx="47.91" cy="131.45" r="1.85"/>
            <circle cx="52.24" cy="131.45" r="1.85"/>
            <circle cx="56.57" cy="131.45" r="1.85"/>
            <circle cx="60.9" cy="131.45" r="1.85"/>
            <circle cx="65.23" cy="131.45" r="1.85"/>
            <circle cx="69.56" cy="131.45" r="1.85"/>
            <circle cx="73.89" cy="131.45" r="1.85"/>
            <circle cx="78.22" cy="131.45" r="1.85"/>
            <circle cx="82.55" cy="131.45" r="1.85"/>
            <circle cx="86.88" cy="131.45" r="1.85"/>
            <circle cx="91.21" cy="131.45" r="1.85"/>
            <circle cx="95.54" cy="131.45" r="1.85"/>
            <circle cx="99.87" cy="131.45" r="1.85"/>
            <circle cx="104.2" cy="131.45" r="1.85"/>
            <circle cx="108.54" cy="131.45" r="1.85"/>
            <circle cx="112.87" cy="131.45" r="1.85"/>
            <circle cx="117.2" cy="131.45" r="1.85"/>
        </g>
        <g>
            <circle cx="9.01" cy="125.52" r="1.85"/>
            <circle cx="13.33" cy="125.52" r="1.85"/>
            <circle cx="17.65" cy="125.52" r="1.85"/>
            <circle cx="21.97" cy="125.52" r="1.85"/>
            <circle cx="26.29" cy="125.52" r="1.85"/>
            <circle cx="30.61" cy="125.52" r="1.85"/>
            <circle cx="34.93" cy="125.52" r="1.85"/>
            <circle cx="39.25" cy="125.52" r="1.85"/>
            <circle cx="43.57" cy="125.52" r="1.85"/>
            <circle cx="47.91" cy="125.52" r="1.85"/>
            <circle cx="52.24" cy="125.52" r="1.85"/>
            <circle cx="56.57" cy="125.52" r="1.85"/>
            <circle cx="60.9" cy="125.52" r="1.85"/>
            <circle cx="65.23" cy="125.52" r="1.85"/>
            <circle cx="69.56" cy="125.52" r="1.85"/>
            <circle cx="73.89" cy="125.52" r="1.85"/>
            <circle cx="78.22" cy="125.52" r="1.85"/>
            <circle cx="82.55" cy="125.52" r="1.85"/>
            <circle cx="86.88" cy="125.52" r="1.85"/>
            <circle cx="91.21" cy="125.52" r="1.85"/>
            <circle cx="95.54" cy="125.52" r="1.85"/>
            <circle cx="99.87" cy="125.52" r="1.85"/>
            <circle cx="104.2" cy="125.52" r="1.85"/>
            <circle cx="108.54" cy="125.52" r="1.85"/>
            <circle cx="112.87" cy="125.52" r="1.85"/>
            <circle cx="117.2" cy="125.52" r="1.85"/>
        </g>
        <g>
            <circle cx="9.01" cy="119.59" r="1.85"/>
            <circle cx="13.33" cy="119.59" r="1.85"/>
            <circle cx="17.65" cy="119.59" r="1.85"/>
            <circle cx="21.97" cy="119.59" r="1.85"/>
            <circle cx="26.29" cy="119.59" r="1.85"/>
            <circle cx="30.61" cy="119.59" r="1.85"/>
            <circle cx="34.93" cy="119.59" r="1.85"/>
            <circle cx="39.25" cy="119.59" r="1.85"/>
            <circle cx="43.57" cy="119.59" r="1.85"/>
            <circle cx="47.91" cy="119.59" r="1.85"/>
            <circle cx="52.24" cy="119.59" r="1.85"/>
            <circle cx="56.57" cy="119.59" r="1.85"/>
            <circle cx="60.9" cy="119.59" r="1.85"/>
            <circle cx="65.23" cy="119.59" r="1.85"/>
            <circle cx="69.56" cy="119.59" r="1.85"/>
            <circle cx="73.89" cy="119.59" r="1.85"/>
            <circle cx="78.22" cy="119.59" r="1.85"/>
            <circle cx="82.55" cy="119.59" r="1.85"/>
            <circle cx="86.88" cy="119.59" r="1.85"/>
            <circle cx="91.21" cy="119.59" r="1.85"/>
            <circle cx="95.54" cy="119.59" r="1.85"/>
            <circle cx="99.87" cy="119.59" r="1.85"/>
            <circle cx="104.2" cy="119.59" r="1.85"/>
            <circle cx="108.54" cy="119.59" r="1.85"/>
            <circle cx="112.87" cy="119.59" r="1.85"/>
            <circle cx="117.2" cy="119.59" r="1.85"/>
        </g>
        <g>
            <circle cx="9.01" cy="113.65" r="1.85"/>
            <circle cx="13.33" cy="113.65" r="1.85"/>
            <circle cx="17.65" cy="113.65" r="1.85"/>
            <circle cx="21.97" cy="113.65" r="1.85"/>
            <circle cx="26.29" cy="113.65" r="1.85"/>
            <circle cx="30.61" cy="113.65" r="1.85"/>
            <circle cx="34.93" cy="113.65" r="1.85"/>
            <circle cx="39.25" cy="113.65" r="1.85"/>
            <circle cx="43.57" cy="113.65" r="1.85"/>
            <circle cx="47.91" cy="113.65" r="1.85"/>
            <circle cx="52.24" cy="113.65" r="1.85"/>
            <circle cx="56.57" cy="113.65" r="1.85"/>
            <circle cx="60.9" cy="113.65" r="1.85"/>
            <circle cx="65.23" cy="113.65" r="1.85"/>
            <circle cx="69.56" cy="113.65" r="1.85"/>
            <circle cx="73.89" cy="113.65" r="1.85"/>
            <circle cx="78.22" cy="113.65" r="1.85"/>
            <circle cx="82.55" cy="113.65" r="1.85"/>
            <circle cx="86.88" cy="113.65" r="1.85"/>
            <circle cx="91.21" cy="113.65" r="1.85"/>
            <circle cx="95.54" cy="113.65" r="1.85"/>
            <circle cx="99.87" cy="113.65" r="1.85"/>
            <circle cx="104.2" cy="113.65" r="1.85"/>
            <circle cx="108.54" cy="113.65" r="1.85"/>
            <circle cx="112.87" cy="113.65" r="1.85"/>
            <circle cx="117.2" cy="113.65" r="1.85"/>
        </g>
        <g>
            <circle cx="9.01" cy="107.72" r="1.85"/>
            <circle cx="13.33" cy="107.72" r="1.85"/>
            <circle cx="17.65" cy="107.72" r="1.85"/>
            <circle cx="21.97" cy="107.72" r="1.85"/>
            <circle cx="26.29" cy="107.72" r="1.85"/>
            <circle cx="30.61" cy="107.72" r="1.85"/>
            <circle cx="34.93" cy="107.72" r="1.85"/>
            <circle cx="39.25" cy="107.72" r="1.85"/>
            <circle cx="43.57" cy="107.72" r="1.85"/>
            <circle cx="47.91" cy="107.72" r="1.85"/>
            <circle cx="52.24" cy="107.72" r="1.85"/>
            <circle cx="56.57" cy="107.72" r="1.85"/>
            <circle cx="60.9" cy="107.72" r="1.85"/>
            <circle cx="65.23" cy="107.72" r="1.85"/>
            <circle cx="69.56" cy="107.72" r="1.85"/>
            <circle cx="73.89" cy="107.72" r="1.85"/>
            <circle cx="78.22" cy="107.72" r="1.85"/>
            <circle cx="82.55" cy="107.72" r="1.85"/>
            <circle cx="86.88" cy="107.72" r="1.85"/>
            <circle cx="91.21" cy="107.72" r="1.85"/>
            <circle cx="95.54" cy="107.72" r="1.85"/>
            <circle cx="99.87" cy="107.72" r="1.85"/>
            <circle cx="104.2" cy="107.72" r="1.85"/>
            <circle cx="108.54" cy="107.72" r="1.85"/>
            <circle cx="112.87" cy="107.72" r="1.85"/>
            <circle cx="117.2" cy="107.72" r="1.85"/>
        </g>
        <g>
            <circle cx="9.01" cy="101.79" r="1.85"/>
            <circle cx="13.33" cy="101.79" r="1.85"/>
            <circle cx="17.65" cy="101.79" r="1.85"/>
            <circle cx="21.97" cy="101.79" r="1.85"/>
            <circle cx="26.29" cy="101.79" r="1.85"/>
            <circle cx="30.61" cy="101.79" r="1.85"/>
            <circle cx="34.93" cy="101.79" r="1.85"/>
            <circle cx="39.25" cy="101.79" r="1.85"/>
            <circle cx="43.57" cy="101.79" r="1.85"/>
            <circle cx="47.91" cy="101.79" r="1.85"/>
            <circle cx="52.24" cy="101.79" r="1.85"/>
            <circle cx="56.57" cy="101.79" r="1.85"/>
            <circle cx="60.9" cy="101.79" r="1.85"/>
            <circle cx="65.23" cy="101.79" r="1.85"/>
            <circle cx="69.56" cy="101.79" r="1.85"/>
            <circle cx="73.89" cy="101.79" r="1.85"/>
            <circle cx="78.22" cy="101.79" r="1.85"/>
            <circle cx="82.55" cy="101.79" r="1.85"/>
            <circle cx="86.88" cy="101.79" r="1.85"/>
            <circle cx="91.21" cy="101.79" r="1.85"/>
            <circle cx="95.54" cy="101.79" r="1.85"/>
            <circle cx="99.87" cy="101.79" r="1.85"/>
            <circle cx="104.2" cy="101.79" r="1.85"/>
            <circle cx="108.54" cy="101.79" r="1.85"/>
            <circle cx="112.87" cy="101.79" r="1.85"/>
            <circle cx="117.2" cy="101.79" r="1.85"/>
        </g>
        <g>
            <circle cx="9.01" cy="95.86" r="1.85"/>
            <circle cx="13.33" cy="95.86" r="1.85"/>
            <circle cx="17.65" cy="95.86" r="1.85"/>
            <circle cx="21.97" cy="95.86" r="1.85"/>
            <circle cx="26.29" cy="95.86" r="1.85"/>
            <circle cx="30.61" cy="95.86" r="1.85"/>
            <circle cx="34.93" cy="95.86" r="1.85"/>
            <circle cx="39.25" cy="95.86" r="1.85"/>
            <circle cx="43.57" cy="95.86" r="1.85"/>
            <circle cx="47.91" cy="95.86" r="1.85"/>
            <circle cx="52.24" cy="95.86" r="1.85"/>
            <circle cx="56.57" cy="95.86" r="1.85"/>
            <circle cx="60.9" cy="95.86" r="1.85"/>
            <circle cx="65.23" cy="95.86" r="1.85"/>
            <circle cx="69.56" cy="95.86" r="1.85"/>
            <circle cx="73.89" cy="95.86" r="1.85"/>
            <circle cx="78.22" cy="95.86" r="1.85"/>
            <circle cx="82.55" cy="95.86" r="1.85"/>
            <circle cx="86.88" cy="95.86" r="1.85"/>
            <circle cx="91.21" cy="95.86" r="1.85"/>
            <circle cx="95.54" cy="95.86" r="1.85"/>
            <circle cx="99.87" cy="95.86" r="1.85"/>
            <circle cx="104.2" cy="95.86" r="1.85"/>
            <circle cx="108.54" cy="95.86" r="1.85"/>
            <circle cx="112.87" cy="95.86" r="1.85"/>
            <circle cx="117.2" cy="95.86" r="1.85"/>
        </g>
        <g>
            <circle cx="9.01" cy="89.93" r="1.85"/>
            <circle cx="13.33" cy="89.93" r="1.85"/>
            <circle cx="17.65" cy="89.93" r="1.85"/>
            <circle cx="21.97" cy="89.93" r="1.85"/>
            <circle cx="26.29" cy="89.93" r="1.85"/>
            <circle cx="30.61" cy="89.93" r="1.85"/>
            <circle cx="34.93" cy="89.93" r="1.85"/>
            <circle cx="39.25" cy="89.93" r="1.85"/>
            <circle cx="43.57" cy="89.93" r="1.85"/>
            <circle cx="47.91" cy="89.93" r="1.85"/>
            <circle cx="52.24" cy="89.93" r="1.85"/>
            <circle cx="56.57" cy="89.93" r="1.85"/>
            <circle cx="60.9" cy="89.93" r="1.85"/>
            <circle cx="65.23" cy="89.93" r="1.85"/>
            <circle cx="69.56" cy="89.93" r="1.85"/>
            <circle cx="73.89" cy="89.93" r="1.85"/>
            <circle cx="78.22" cy="89.93" r="1.85"/>
            <circle cx="82.55" cy="89.93" r="1.85"/>
            <circle cx="86.88" cy="89.93" r="1.85"/>
            <circle cx="91.21" cy="89.93" r="1.85"/>
            <circle cx="95.54" cy="89.93" r="1.85"/>
            <circle cx="99.87" cy="89.93" r="1.85"/>
            <circle cx="104.2" cy="89.93" r="1.85"/>
            <circle cx="108.54" cy="89.93" r="1.85"/>
            <circle cx="112.87" cy="89.93" r="1.85"/>
            <circle cx="117.2" cy="89.93" r="1.85"/>
        </g>
        <g>
            <circle cx="9.01" cy="84" r="1.85"/>
            <circle cx="13.33" cy="84" r="1.85"/>
            <circle cx="17.65" cy="84" r="1.85"/>
            <circle cx="21.97" cy="84" r="1.85"/>
            <circle cx="26.29" cy="84" r="1.85"/>
            <circle cx="30.61" cy="84" r="1.85"/>
            <circle cx="34.93" cy="84" r="1.85"/>
            <circle cx="39.25" cy="84" r="1.85"/>
            <circle cx="43.57" cy="84" r="1.85"/>
            <circle cx="47.91" cy="84" r="1.85"/>
            <circle cx="52.24" cy="84" r="1.85"/>
            <circle cx="56.57" cy="84" r="1.85"/>
            <circle cx="60.9" cy="84" r="1.85"/>
            <circle cx="65.23" cy="84" r="1.85"/>
            <circle cx="69.56" cy="84" r="1.85"/>
            <circle cx="73.89" cy="84" r="1.85"/>
            <circle cx="78.22" cy="84" r="1.85"/>
            <circle cx="82.55" cy="84" r="1.85"/>
            <circle cx="86.88" cy="84" r="1.85"/>
            <circle cx="91.21" cy="84" r="1.85"/>
            <circle cx="95.54" cy="84" r="1.85"/>
            <circle cx="99.87" cy="84" r="1.85"/>
            <circle cx="104.2" cy="84" r="1.85"/>
            <circle cx="108.54" cy="84" r="1.85"/>
            <circle cx="112.87" cy="84" r="1.85"/>
            <circle cx="117.2" cy="84" r="1.85"/>
        </g>
        <g>
            <circle cx="9.01" cy="78.07" r="1.85"/>
            <circle cx="13.33" cy="78.07" r="1.85"/>
            <circle cx="17.65" cy="78.07" r="1.85"/>
            <circle cx="21.97" cy="78.07" r="1.85"/>
            <circle cx="26.29" cy="78.07" r="1.85"/>
            <circle cx="30.61" cy="78.07" r="1.85"/>
            <circle cx="34.93" cy="78.07" r="1.85"/>
            <circle cx="39.25" cy="78.07" r="1.85"/>
            <circle cx="43.57" cy="78.07" r="1.85"/>
            <circle cx="47.91" cy="78.07" r="1.85"/>
            <circle cx="52.24" cy="78.07" r="1.85"/>
            <circle cx="56.57" cy="78.07" r="1.85"/>
            <circle cx="60.9" cy="78.07" r="1.85"/>
            <circle cx="65.23" cy="78.07" r="1.85"/>
            <circle cx="69.56" cy="78.07" r="1.85"/>
            <circle cx="73.89" cy="78.07" r="1.85"/>
            <circle cx="78.22" cy="78.07" r="1.85"/>
            <circle cx="82.55" cy="78.07" r="1.85"/>
            <circle cx="86.88" cy="78.07" r="1.85"/>
            <circle cx="91.21" cy="78.07" r="1.85"/>
            <circle cx="95.54" cy="78.07" r="1.85"/>
            <circle cx="99.87" cy="78.07" r="1.85"/>
            <circle cx="104.2" cy="78.07" r="1.85"/>
            <circle cx="108.54" cy="78.07" r="1.85"/>
            <circle cx="112.87" cy="78.07" r="1.85"/>
            <circle cx="117.2" cy="78.07" r="1.85"/>
        </g>
        <g>
            <circle cx="9.01" cy="72.14" r="1.85"/>
            <circle cx="13.33" cy="72.14" r="1.85"/>
            <circle cx="17.65" cy="72.14" r="1.85"/>
            <circle cx="21.97" cy="72.14" r="1.85"/>
            <circle cx="26.29" cy="72.14" r="1.85"/>
            <circle cx="30.61" cy="72.14" r="1.85"/>
            <circle cx="34.93" cy="72.14" r="1.85"/>
            <circle cx="39.25" cy="72.14" r="1.85"/>
            <circle cx="43.57" cy="72.14" r="1.85"/>
            <circle cx="47.91" cy="72.14" r="1.85"/>
            <circle cx="52.24" cy="72.14" r="1.85"/>
            <circle cx="56.57" cy="72.14" r="1.85"/>
            <circle cx="60.9" cy="72.14" r="1.85"/>
            <circle cx="65.23" cy="72.14" r="1.85"/>
            <circle cx="69.56" cy="72.14" r="1.85"/>
            <circle cx="73.89" cy="72.14" r="1.85"/>
            <circle cx="78.22" cy="72.14" r="1.85"/>
            <circle cx="82.55" cy="72.14" r="1.85"/>
            <circle cx="86.88" cy="72.14" r="1.85"/>
            <circle cx="91.21" cy="72.14" r="1.85"/>
            <circle cx="95.54" cy="72.14" r="1.85"/>
            <circle cx="99.87" cy="72.14" r="1.85"/>
            <circle cx="104.2" cy="72.14" r="1.85"/>
            <circle cx="108.54" cy="72.14" r="1.85"/>
            <circle cx="112.87" cy="72.14" r="1.85"/>
            <circle cx="117.2" cy="72.14" r="1.85"/>
        </g>
        <g>
            <circle cx="9.01" cy="66.21" r="1.85"/>
            <circle cx="13.33" cy="66.21" r="1.85"/>
            <circle cx="17.65" cy="66.21" r="1.85"/>
            <circle cx="21.97" cy="66.21" r="1.85"/>
            <circle cx="26.29" cy="66.21" r="1.85"/>
            <circle cx="30.61" cy="66.21" r="1.85"/>
            <circle cx="34.93" cy="66.21" r="1.85"/>
            <circle cx="39.25" cy="66.21" r="1.85"/>
            <circle cx="43.57" cy="66.21" r="1.85"/>
            <circle cx="47.91" cy="66.21" r="1.85"/>
            <circle cx="52.24" cy="66.21" r="1.85"/>
            <circle cx="56.57" cy="66.21" r="1.85"/>
            <circle cx="60.9" cy="66.21" r="1.85"/>
            <circle cx="65.23" cy="66.21" r="1.85"/>
            <circle cx="69.56" cy="66.21" r="1.85"/>
            <circle cx="73.89" cy="66.21" r="1.85"/>
            <circle cx="78.22" cy="66.21" r="1.85"/>
            <circle cx="82.55" cy="66.21" r="1.85"/>
            <circle cx="86.88" cy="66.21" r="1.85"/>
            <circle cx="91.21" cy="66.21" r="1.85"/>
            <circle cx="95.54" cy="66.21" r="1.85"/>
            <circle cx="99.87" cy="66.21" r="1.85"/>
            <circle cx="104.2" cy="66.21" r="1.85"/>
            <circle cx="108.54" cy="66.21" r="1.85"/>
            <circle cx="112.87" cy="66.21" r="1.85"/>
            <circle cx="117.2" cy="66.21" r="1.85"/>
        </g>
        <g>
            <circle cx="9.01" cy="60.28" r="1.85"/>
            <circle cx="13.33" cy="60.28" r="1.85"/>
            <circle cx="17.65" cy="60.28" r="1.85"/>
            <circle cx="21.97" cy="60.28" r="1.85"/>
            <circle cx="26.29" cy="60.28" r="1.85"/>
            <circle cx="30.61" cy="60.28" r="1.85"/>
            <circle cx="34.93" cy="60.28" r="1.85"/>
            <circle cx="39.25" cy="60.28" r="1.85"/>
            <circle cx="43.57" cy="60.28" r="1.85"/>
            <circle cx="47.91" cy="60.28" r="1.85"/>
            <circle cx="52.24" cy="60.28" r="1.85"/>
            <circle cx="56.57" cy="60.28" r="1.85"/>
            <circle cx="60.9" cy="60.28" r="1.85"/>
            <circle cx="65.23" cy="60.28" r="1.85"/>
            <circle cx="69.56" cy="60.28" r="1.85"/>
            <circle cx="73.89" cy="60.28" r="1.85"/>
            <circle cx="78.22" cy="60.28" r="1.85"/>
            <circle cx="82.55" cy="60.28" r="1.85"/>
            <circle cx="86.88" cy="60.28" r="1.85"/>
            <circle cx="91.21" cy="60.28" r="1.85"/>
            <circle cx="95.54" cy="60.28" r="1.85"/>
            <circle cx="99.87" cy="60.28" r="1.85"/>
            <circle cx="104.2" cy="60.28" r="1.85"/>
            <circle cx="108.54" cy="60.28" r="1.85"/>
            <circle cx="112.87" cy="60.28" r="1.85"/>
            <circle cx="117.2" cy="60.28" r="1.85"/>
        </g>
        <g>
            <circle cx="9.01" cy="54.35" r="1.85"/>
            <circle cx="13.33" cy="54.35" r="1.85"/>
            <circle cx="17.65" cy="54.35" r="1.85"/>
            <circle cx="21.97" cy="54.35" r="1.85"/>
            <circle cx="26.29" cy="54.35" r="1.85"/>
            <circle cx="30.61" cy="54.35" r="1.85"/>
            <circle cx="34.93" cy="54.35" r="1.85"/>
            <circle cx="39.25" cy="54.35" r="1.85"/>
            <circle cx="43.57" cy="54.35" r="1.85"/>
            <circle cx="47.91" cy="54.35" r="1.85"/>
            <circle cx="52.24" cy="54.35" r="1.85"/>
            <circle cx="56.57" cy="54.35" r="1.85"/>
            <circle cx="60.9" cy="54.35" r="1.85"/>
            <circle cx="65.23" cy="54.35" r="1.85"/>
            <circle cx="69.56" cy="54.35" r="1.85"/>
            <circle cx="73.89" cy="54.35" r="1.85"/>
            <circle cx="78.22" cy="54.35" r="1.85"/>
            <circle cx="82.55" cy="54.35" r="1.85"/>
            <circle cx="86.88" cy="54.35" r="1.85"/>
            <circle cx="91.21" cy="54.35" r="1.85"/>
            <circle cx="95.54" cy="54.35" r="1.85"/>
            <circle cx="99.87" cy="54.35" r="1.85"/>
            <circle cx="104.2" cy="54.35" r="1.85"/>
            <circle cx="108.54" cy="54.35" r="1.85"/>
            <circle cx="112.87" cy="54.35" r="1.85"/>
            <circle cx="117.2" cy="54.35" r="1.85"/>
        </g>
        <g>
            <circle cx="9.01" cy="48.42" r="1.85"/>
            <circle cx="13.33" cy="48.42" r="1.85"/>
            <circle cx="17.65" cy="48.42" r="1.85"/>
            <circle cx="21.97" cy="48.42" r="1.85"/>
            <circle cx="26.29" cy="48.42" r="1.85"/>
            <circle cx="30.61" cy="48.42" r="1.85"/>
            <circle cx="34.93" cy="48.42" r="1.85"/>
            <circle cx="39.25" cy="48.42" r="1.85"/>
            <circle cx="43.57" cy="48.42" r="1.85"/>
            <circle cx="47.91" cy="48.42" r="1.85"/>
            <circle cx="52.24" cy="48.42" r="1.85"/>
            <circle cx="56.57" cy="48.42" r="1.85"/>
            <circle cx="60.9" cy="48.42" r="1.85"/>
            <circle cx="65.23" cy="48.42" r="1.85"/>
            <circle cx="69.56" cy="48.42" r="1.85"/>
            <circle cx="73.89" cy="48.42" r="1.85"/>
            <circle cx="78.22" cy="48.42" r="1.85"/>
            <circle cx="82.55" cy="48.42" r="1.85"/>
            <circle cx="86.88" cy="48.42" r="1.85"/>
            <circle cx="91.21" cy="48.42" r="1.85"/>
            <circle cx="95.54" cy="48.42" r="1.85"/>
            <circle cx="99.87" cy="48.42" r="1.85"/>
            <circle cx="104.2" cy="48.42" r="1.85"/>
            <circle cx="108.54" cy="48.42" r="1.85"/>
            <circle cx="112.87" cy="48.42" r="1.85"/>
            <circle cx="117.2" cy="48.42" r="1.85"/>
        </g>
        <g>
            <circle cx="9.01" cy="178.89" r="1.85"/>
            <circle cx="13.33" cy="178.89" r="1.85"/>
            <circle cx="17.65" cy="178.89" r="1.85"/>
            <circle cx="21.97" cy="178.89" r="1.85"/>
            <circle cx="26.29" cy="178.89" r="1.85"/>
            <circle cx="30.61" cy="178.89" r="1.85"/>
            <circle cx="34.93" cy="178.89" r="1.85"/>
            <circle cx="39.25" cy="178.89" r="1.85"/>
            <circle cx="43.57" cy="178.89" r="1.85"/>
            <circle cx="47.91" cy="178.89" r="1.85"/>
            <circle cx="52.24" cy="178.89" r="1.85"/>
            <circle cx="56.57" cy="178.89" r="1.85"/>
            <circle cx="60.9" cy="178.89" r="1.85"/>
            <circle cx="65.23" cy="178.89" r="1.85"/>
            <circle cx="69.56" cy="178.89" r="1.85"/>
            <circle cx="73.89" cy="178.89" r="1.85"/>
            <circle cx="78.22" cy="178.89" r="1.85"/>
            <circle cx="82.55" cy="178.89" r="1.85"/>
            <circle cx="86.88" cy="178.89" r="1.85"/>
            <circle cx="91.21" cy="178.89" r="1.85"/>
            <circle cx="95.54" cy="178.89" r="1.85"/>
            <circle cx="99.87" cy="178.89" r="1.85"/>
            <circle cx="104.2" cy="178.89" r="1.85"/>
            <circle cx="108.54" cy="178.89" r="1.85"/>
            <circle cx="112.87" cy="178.89" r="1.85"/>
            <circle cx="117.2" cy="178.89" r="1.85"/>
        </g>
        <g>
            <circle cx="9.01" cy="184.82" r="1.85"/>
            <circle cx="13.33" cy="184.82" r="1.85"/>
            <circle cx="17.65" cy="184.82" r="1.85"/>
            <circle cx="21.97" cy="184.82" r="1.85"/>
            <circle cx="26.29" cy="184.82" r="1.85"/>
            <circle cx="30.61" cy="184.82" r="1.85"/>
            <circle cx="34.93" cy="184.82" r="1.85"/>
            <circle cx="39.25" cy="184.82" r="1.85"/>
            <circle cx="43.57" cy="184.82" r="1.85"/>
            <circle cx="47.91" cy="184.82" r="1.85"/>
            <circle cx="52.24" cy="184.82" r="1.85"/>
            <circle cx="56.57" cy="184.82" r="1.85"/>
            <circle cx="60.9" cy="184.82" r="1.85"/>
            <circle cx="65.23" cy="184.82" r="1.85"/>
            <circle cx="69.56" cy="184.82" r="1.85"/>
            <circle cx="73.89" cy="184.82" r="1.85"/>
            <circle cx="78.22" cy="184.82" r="1.85"/>
            <circle cx="82.55" cy="184.82" r="1.85"/>
            <circle cx="86.88" cy="184.82" r="1.85"/>
            <circle cx="91.21" cy="184.82" r="1.85"/>
            <circle cx="95.54" cy="184.82" r="1.85"/>
            <circle cx="99.87" cy="184.82" r="1.85"/>
            <circle cx="104.2" cy="184.82" r="1.85"/>
            <circle cx="108.54" cy="184.82" r="1.85"/>
            <circle cx="112.87" cy="184.82" r="1.85"/>
            <circle cx="117.2" cy="184.82" r="1.85"/>
        </g>
        <g>
            <circle cx="9.01" cy="42.48" r="1.85"/>
            <circle cx="13.33" cy="42.48" r="1.85"/>
            <circle cx="17.65" cy="42.48" r="1.85"/>
            <circle cx="21.97" cy="42.48" r="1.85"/>
            <circle cx="26.29" cy="42.48" r="1.85"/>
            <circle cx="30.61" cy="42.48" r="1.85"/>
            <circle cx="34.93" cy="42.48" r="1.85"/>
            <circle cx="39.25" cy="42.48" r="1.85"/>
            <circle cx="43.57" cy="42.48" r="1.85"/>
            <circle cx="47.91" cy="42.48" r="1.85"/>
            <circle cx="52.24" cy="42.48" r="1.85"/>
            <circle cx="56.57" cy="42.48" r="1.85"/>
            <circle cx="60.9" cy="42.48" r="1.85"/>
            <circle cx="65.23" cy="42.48" r="1.85"/>
            <circle cx="69.56" cy="42.48" r="1.85"/>
            <circle cx="73.89" cy="42.48" r="1.85"/>
            <circle cx="78.22" cy="42.48" r="1.85"/>
            <circle cx="82.55" cy="42.48" r="1.85"/>
            <circle cx="86.88" cy="42.48" r="1.85"/>
            <circle cx="91.21" cy="42.48" r="1.85"/>
            <circle cx="95.54" cy="42.48" r="1.85"/>
            <circle cx="99.87" cy="42.48" r="1.85"/>
            <circle cx="104.2" cy="42.48" r="1.85"/>
            <circle cx="108.54" cy="42.48" r="1.85"/>
            <circle cx="112.87" cy="42.48" r="1.85"/>
            <circle cx="117.2" cy="42.48" r="1.85"/>
            <circle cx="121.53" cy="42.48" r="1.85"/>
        </g>
    </g>
</svg>
