<?xml version="1.0" encoding="utf-8"?>
<!-- Generator: Adobe Illustrator 23.0.1, SVG Export Plug-In . SVG Version: 6.00 Build 0)  -->
<svg version="1.1" id="Layer_1" xmlns="http://www.w3.org/2000/svg" xmlns:xlink="http://www.w3.org/1999/xlink" x="0px" y="0px"
	 width="135px" height="132px" viewBox="0 0 135 132" enable-background="new 0 0 135 132" xml:space="preserve">
<g onclick="this.parentNode.sekt.push(this);this.a_name=&quot;W 8 (низ)&quot;;">
	
		<rect x="2.11" y="-1.14" onclick="this.parentNode.a_fon=this;" transform="matrix(-1.836970e-16 1 -1 -1.836970e-16 133.5 -1.5)" fill="#F1F3F4" stroke="#BCC8CE" stroke-width="0.4" stroke-linecap="round" stroke-miterlimit="10" width="130.78" height="134.28"/>
	<g onclick="this.parentNode.a_row=this;">
		<g onclick="this.a_par={beg_namb:1,quant:24};">
			<line fill="none" stroke="#D3DBDF" stroke-width="0.4" stroke-miterlimit="10" x1="119.13" y1="122.34" x2="15.91" y2="122.34"/>
		</g>
		<g onclick="this.a_par={beg_namb:1,quant:24};">
			<line fill="none" stroke="#D3DBDF" stroke-width="0.4" stroke-miterlimit="10" x1="119.13" y1="116.41" x2="15.91" y2="116.41"/>
		</g>
		<g onclick="this.a_par={beg_namb:1,quant:24};">
			<line fill="none" stroke="#D3DBDF" stroke-width="0.4" stroke-miterlimit="10" x1="119.13" y1="110.48" x2="15.91" y2="110.48"/>
		</g>
		<g onclick="this.a_par={beg_namb:1,quant:24};">
			<line fill="none" stroke="#D3DBDF" stroke-width="0.4" stroke-miterlimit="10" x1="119.13" y1="104.55" x2="15.91" y2="104.55"/>
		</g>
		<g onclick="this.a_par={beg_namb:1,quant:24};">
			<line fill="none" stroke="#D3DBDF" stroke-width="0.4" stroke-miterlimit="10" x1="119.13" y1="98.62" x2="15.91" y2="98.62"/>
		</g>
		<g onclick="this.a_par={beg_namb:1,quant:24};">
			<line fill="none" stroke="#D3DBDF" stroke-width="0.4" stroke-miterlimit="10" x1="119.13" y1="92.69" x2="15.91" y2="92.69"/>
		</g>
		<g onclick="this.a_par={beg_namb:1,quant:24};">
			<line fill="none" stroke="#D3DBDF" stroke-width="0.4" stroke-miterlimit="10" x1="119.13" y1="86.76" x2="15.91" y2="86.76"/>
		</g>
		<g onclick="this.a_par={beg_namb:1,quant:24};">
			<line fill="none" stroke="#D3DBDF" stroke-width="0.4" stroke-miterlimit="10" x1="119.13" y1="80.83" x2="15.91" y2="80.83"/>
		</g>
		<g onclick="this.a_par={beg_namb:1,quant:24};">
			<line fill="none" stroke="#D3DBDF" stroke-width="0.4" stroke-miterlimit="10" x1="119.13" y1="74.89" x2="15.91" y2="74.89"/>
		</g>
		<g onclick="this.a_par={beg_namb:1,quant:24};">
			<line fill="none" stroke="#D3DBDF" stroke-width="0.4" stroke-miterlimit="10" x1="119.13" y1="68.96" x2="15.91" y2="68.96"/>
		</g>
		<g onclick="this.a_par={beg_namb:1,quant:24};">
			<line fill="none" stroke="#D3DBDF" stroke-width="0.4" stroke-miterlimit="10" x1="119.13" y1="63.03" x2="15.91" y2="63.03"/>
		</g>
		<g onclick="this.a_par={beg_namb:1,quant:24};">
			<line fill="none" stroke="#D3DBDF" stroke-width="0.4" stroke-miterlimit="10" x1="119.13" y1="57.1" x2="15.91" y2="57.1"/>
		</g>
		<g onclick="this.a_par={beg_namb:1,quant:24};">
			<line fill="none" stroke="#D3DBDF" stroke-width="0.4" stroke-miterlimit="10" x1="119.13" y1="51.17" x2="15.91" y2="51.17"/>
		</g>
		<g onclick="this.a_par={beg_namb:1,quant:24};">
			<line fill="none" stroke="#D3DBDF" stroke-width="0.4" stroke-miterlimit="10" x1="119.13" y1="45.24" x2="15.91" y2="45.24"/>
		</g>
		<g onclick="this.a_par={beg_namb:1,quant:24};">
			<line fill="none" stroke="#D3DBDF" stroke-width="0.4" stroke-miterlimit="10" x1="119.13" y1="39.31" x2="15.91" y2="39.31"/>
		</g>
		<g onclick="this.a_par={beg_namb:1,quant:24};">
			<line fill="none" stroke="#D3DBDF" stroke-width="0.4" stroke-miterlimit="10" x1="119.13" y1="33.38" x2="15.91" y2="33.38"/>
		</g>
		<g onclick="this.a_par={beg_namb:1,quant:20};">
			<line fill="none" stroke="#D3DBDF" stroke-width="0.4" stroke-miterlimit="10" x1="119.13" y1="27.45" x2="33.23" y2="27.45"/>
		</g>
		<g onclick="this.a_par={beg_namb:1,quant:20};">
			<line fill="none" stroke="#D3DBDF" stroke-width="0.4" stroke-miterlimit="10" x1="119.13" y1="21.52" x2="33.23" y2="21.52"/>
		</g>
		<g onclick="this.a_par={beg_namb:1,quant:20};">
			<line fill="none" stroke="#D3DBDF" stroke-width="0.4" stroke-miterlimit="10" x1="119.13" y1="15.59" x2="33.23" y2="15.59"/>
		</g>
		<g onclick="this.a_par={beg_namb:1,quant:20};">
			<line fill="none" stroke="#D3DBDF" stroke-width="0.4" stroke-miterlimit="10" x1="119.13" y1="9.66" x2="33.23" y2="9.66"/>
		</g>
	</g>
	<g>
		<g>
			<circle fill="#AEBDC4" cx="35.08" cy="9.66" r="1.85"/>
			<circle fill="#AEBDC4" cx="39.4" cy="9.66" r="1.85"/>
			<circle fill="#AEBDC4" cx="43.72" cy="9.66" r="1.85"/>
			<circle fill="#AEBDC4" cx="48.04" cy="9.66" r="1.85"/>
			<circle fill="#AEBDC4" cx="52.36" cy="9.66" r="1.85"/>
			<circle fill="#AEBDC4" cx="56.68" cy="9.66" r="1.85"/>
			<circle fill="#AEBDC4" cx="61.01" cy="9.66" r="1.85"/>
			<circle fill="#AEBDC4" cx="65.33" cy="9.66" r="1.85"/>
			<circle fill="#AEBDC4" cx="69.65" cy="9.66" r="1.85"/>
			<circle fill="#AEBDC4" cx="73.98" cy="9.66" r="1.85"/>
			<circle fill="#AEBDC4" cx="78.31" cy="9.66" r="1.85"/>
			<circle fill="#AEBDC4" cx="82.64" cy="9.66" r="1.85"/>
			<circle fill="#AEBDC4" cx="86.97" cy="9.66" r="1.85"/>
			<circle fill="#AEBDC4" cx="91.3" cy="9.66" r="1.85"/>
			<circle fill="#AEBDC4" cx="95.63" cy="9.66" r="1.85"/>
			<circle fill="#AEBDC4" cx="99.96" cy="9.66" r="1.85"/>
			<circle fill="#AEBDC4" cx="104.29" cy="9.66" r="1.85"/>
			<circle fill="#AEBDC4" cx="108.62" cy="9.66" r="1.85"/>
			<circle fill="#AEBDC4" cx="112.95" cy="9.66" r="1.85"/>
			<circle fill="#AEBDC4" cx="117.29" cy="9.66" r="1.85"/>
		</g>
		<g>
			<circle fill="#AEBDC4" cx="35.08" cy="15.59" r="1.85"/>
			<circle fill="#AEBDC4" cx="39.4" cy="15.59" r="1.85"/>
			<circle fill="#AEBDC4" cx="43.72" cy="15.59" r="1.85"/>
			<circle fill="#AEBDC4" cx="48.04" cy="15.59" r="1.85"/>
			<circle fill="#AEBDC4" cx="52.36" cy="15.59" r="1.85"/>
			<circle fill="#AEBDC4" cx="56.68" cy="15.59" r="1.85"/>
			<circle fill="#AEBDC4" cx="61.01" cy="15.59" r="1.85"/>
			<circle fill="#AEBDC4" cx="65.33" cy="15.59" r="1.85"/>
			<circle fill="#AEBDC4" cx="69.65" cy="15.59" r="1.85"/>
			<circle fill="#AEBDC4" cx="73.98" cy="15.59" r="1.85"/>
			<circle fill="#AEBDC4" cx="78.31" cy="15.59" r="1.85"/>
			<circle fill="#AEBDC4" cx="82.64" cy="15.59" r="1.85"/>
			<circle fill="#AEBDC4" cx="86.97" cy="15.59" r="1.85"/>
			<circle fill="#AEBDC4" cx="91.3" cy="15.59" r="1.85"/>
			<circle fill="#AEBDC4" cx="95.63" cy="15.59" r="1.85"/>
			<circle fill="#AEBDC4" cx="99.96" cy="15.59" r="1.85"/>
			<circle fill="#AEBDC4" cx="104.29" cy="15.59" r="1.85"/>
			<circle fill="#AEBDC4" cx="108.62" cy="15.59" r="1.85"/>
			<circle fill="#AEBDC4" cx="112.95" cy="15.59" r="1.85"/>
			<circle fill="#AEBDC4" cx="117.29" cy="15.59" r="1.85"/>
		</g>
		<g>
			<circle fill="#AEBDC4" cx="35.08" cy="21.52" r="1.85"/>
			<circle fill="#AEBDC4" cx="39.4" cy="21.52" r="1.85"/>
			<circle fill="#AEBDC4" cx="43.72" cy="21.52" r="1.85"/>
			<circle fill="#AEBDC4" cx="48.04" cy="21.52" r="1.85"/>
			<circle fill="#AEBDC4" cx="52.36" cy="21.52" r="1.85"/>
			<circle fill="#AEBDC4" cx="56.68" cy="21.52" r="1.85"/>
			<circle fill="#AEBDC4" cx="61.01" cy="21.52" r="1.85"/>
			<circle fill="#AEBDC4" cx="65.33" cy="21.52" r="1.85"/>
			<circle fill="#AEBDC4" cx="69.65" cy="21.52" r="1.85"/>
			<circle fill="#AEBDC4" cx="73.98" cy="21.52" r="1.85"/>
			<circle fill="#AEBDC4" cx="78.31" cy="21.52" r="1.85"/>
			<circle fill="#AEBDC4" cx="82.64" cy="21.52" r="1.85"/>
			<circle fill="#AEBDC4" cx="86.97" cy="21.52" r="1.85"/>
			<circle fill="#AEBDC4" cx="91.3" cy="21.52" r="1.85"/>
			<circle fill="#AEBDC4" cx="95.63" cy="21.52" r="1.85"/>
			<circle fill="#AEBDC4" cx="99.96" cy="21.52" r="1.85"/>
			<circle fill="#AEBDC4" cx="104.29" cy="21.52" r="1.85"/>
			<circle fill="#AEBDC4" cx="108.62" cy="21.52" r="1.85"/>
			<circle fill="#AEBDC4" cx="112.95" cy="21.52" r="1.85"/>
			<circle fill="#AEBDC4" cx="117.29" cy="21.52" r="1.85"/>
		</g>
		<g>
			<circle fill="#AEBDC4" cx="35.08" cy="27.45" r="1.85"/>
			<circle fill="#AEBDC4" cx="39.4" cy="27.45" r="1.85"/>
			<circle fill="#AEBDC4" cx="43.72" cy="27.45" r="1.85"/>
			<circle fill="#AEBDC4" cx="48.04" cy="27.45" r="1.85"/>
			<circle fill="#AEBDC4" cx="52.36" cy="27.45" r="1.85"/>
			<circle fill="#AEBDC4" cx="56.68" cy="27.45" r="1.85"/>
			<circle fill="#AEBDC4" cx="61.01" cy="27.45" r="1.85"/>
			<circle fill="#AEBDC4" cx="65.33" cy="27.45" r="1.85"/>
			<circle fill="#AEBDC4" cx="69.65" cy="27.45" r="1.85"/>
			<circle fill="#AEBDC4" cx="73.98" cy="27.45" r="1.85"/>
			<circle fill="#AEBDC4" cx="78.31" cy="27.45" r="1.85"/>
			<circle fill="#AEBDC4" cx="82.64" cy="27.45" r="1.85"/>
			<circle fill="#AEBDC4" cx="86.97" cy="27.45" r="1.85"/>
			<circle fill="#AEBDC4" cx="91.3" cy="27.45" r="1.85"/>
			<circle fill="#AEBDC4" cx="95.63" cy="27.45" r="1.85"/>
			<circle fill="#AEBDC4" cx="99.96" cy="27.45" r="1.85"/>
			<circle fill="#AEBDC4" cx="104.29" cy="27.45" r="1.85"/>
			<circle fill="#AEBDC4" cx="108.62" cy="27.45" r="1.85"/>
			<circle fill="#AEBDC4" cx="112.95" cy="27.45" r="1.85"/>
			<circle fill="#AEBDC4" cx="117.29" cy="27.45" r="1.85"/>
		</g>
		<g>
			<circle fill="#AEBDC4" cx="17.76" cy="122.34" r="1.85"/>
			<circle fill="#AEBDC4" cx="22.08" cy="122.34" r="1.85"/>
			<circle fill="#AEBDC4" cx="26.4" cy="122.34" r="1.85"/>
			<circle fill="#AEBDC4" cx="30.72" cy="122.34" r="1.85"/>
			<circle fill="#AEBDC4" cx="35.04" cy="122.34" r="1.85"/>
			<circle fill="#AEBDC4" cx="39.36" cy="122.34" r="1.85"/>
			<circle fill="#AEBDC4" cx="43.68" cy="122.34" r="1.85"/>
			<circle fill="#AEBDC4" cx="48" cy="122.34" r="1.85"/>
			<circle fill="#AEBDC4" cx="52.32" cy="122.34" r="1.85"/>
			<circle fill="#AEBDC4" cx="56.66" cy="122.34" r="1.85"/>
			<circle fill="#AEBDC4" cx="60.99" cy="122.34" r="1.85"/>
			<circle fill="#AEBDC4" cx="65.32" cy="122.34" r="1.85"/>
			<circle fill="#AEBDC4" cx="69.65" cy="122.34" r="1.85"/>
			<circle fill="#AEBDC4" cx="73.98" cy="122.34" r="1.85"/>
			<circle fill="#AEBDC4" cx="78.31" cy="122.34" r="1.85"/>
			<circle fill="#AEBDC4" cx="82.64" cy="122.34" r="1.85"/>
			<circle fill="#AEBDC4" cx="86.97" cy="122.34" r="1.85"/>
			<circle fill="#AEBDC4" cx="91.3" cy="122.34" r="1.85"/>
			<circle fill="#AEBDC4" cx="95.63" cy="122.34" r="1.85"/>
			<circle fill="#AEBDC4" cx="99.96" cy="122.34" r="1.85"/>
			<circle fill="#AEBDC4" cx="104.29" cy="122.34" r="1.85"/>
			<circle fill="#AEBDC4" cx="108.62" cy="122.34" r="1.85"/>
			<circle fill="#AEBDC4" cx="112.95" cy="122.34" r="1.85"/>
			<circle fill="#AEBDC4" cx="117.29" cy="122.34" r="1.85"/>
		</g>
		<g>
			<circle fill="#AEBDC4" cx="17.76" cy="116.41" r="1.85"/>
			<circle fill="#AEBDC4" cx="22.08" cy="116.41" r="1.85"/>
			<circle fill="#AEBDC4" cx="26.4" cy="116.41" r="1.85"/>
			<circle fill="#AEBDC4" cx="30.72" cy="116.41" r="1.85"/>
			<circle fill="#AEBDC4" cx="35.04" cy="116.41" r="1.85"/>
			<circle fill="#AEBDC4" cx="39.36" cy="116.41" r="1.85"/>
			<circle fill="#AEBDC4" cx="43.68" cy="116.41" r="1.85"/>
			<circle fill="#AEBDC4" cx="48" cy="116.41" r="1.85"/>
			<circle fill="#AEBDC4" cx="52.32" cy="116.41" r="1.85"/>
			<circle fill="#AEBDC4" cx="56.66" cy="116.41" r="1.85"/>
			<circle fill="#AEBDC4" cx="60.99" cy="116.41" r="1.85"/>
			<circle fill="#AEBDC4" cx="65.32" cy="116.41" r="1.85"/>
			<circle fill="#AEBDC4" cx="69.65" cy="116.41" r="1.85"/>
			<circle fill="#AEBDC4" cx="73.98" cy="116.41" r="1.85"/>
			<circle fill="#AEBDC4" cx="78.31" cy="116.41" r="1.85"/>
			<circle fill="#AEBDC4" cx="82.64" cy="116.41" r="1.85"/>
			<circle fill="#AEBDC4" cx="86.97" cy="116.41" r="1.85"/>
			<circle fill="#AEBDC4" cx="91.3" cy="116.41" r="1.85"/>
			<circle fill="#AEBDC4" cx="95.63" cy="116.41" r="1.85"/>
			<circle fill="#AEBDC4" cx="99.96" cy="116.41" r="1.85"/>
			<circle fill="#AEBDC4" cx="104.29" cy="116.41" r="1.85"/>
			<circle fill="#AEBDC4" cx="108.62" cy="116.41" r="1.85"/>
			<circle fill="#AEBDC4" cx="112.95" cy="116.41" r="1.85"/>
			<circle fill="#AEBDC4" cx="117.29" cy="116.41" r="1.85"/>
		</g>
		<g>
			<circle fill="#AEBDC4" cx="17.76" cy="110.48" r="1.85"/>
			<circle fill="#AEBDC4" cx="22.08" cy="110.48" r="1.85"/>
			<circle fill="#AEBDC4" cx="26.4" cy="110.48" r="1.85"/>
			<circle fill="#AEBDC4" cx="30.72" cy="110.48" r="1.85"/>
			<circle fill="#AEBDC4" cx="35.04" cy="110.48" r="1.85"/>
			<circle fill="#AEBDC4" cx="39.36" cy="110.48" r="1.85"/>
			<circle fill="#AEBDC4" cx="43.68" cy="110.48" r="1.85"/>
			<circle fill="#AEBDC4" cx="48" cy="110.48" r="1.85"/>
			<circle fill="#AEBDC4" cx="52.32" cy="110.48" r="1.85"/>
			<circle fill="#AEBDC4" cx="56.66" cy="110.48" r="1.85"/>
			<circle fill="#AEBDC4" cx="60.99" cy="110.48" r="1.85"/>
			<circle fill="#AEBDC4" cx="65.32" cy="110.48" r="1.85"/>
			<circle fill="#AEBDC4" cx="69.65" cy="110.48" r="1.85"/>
			<circle fill="#AEBDC4" cx="73.98" cy="110.48" r="1.85"/>
			<circle fill="#AEBDC4" cx="78.31" cy="110.48" r="1.85"/>
			<circle fill="#AEBDC4" cx="82.64" cy="110.48" r="1.85"/>
			<circle fill="#AEBDC4" cx="86.97" cy="110.48" r="1.85"/>
			<circle fill="#AEBDC4" cx="91.3" cy="110.48" r="1.85"/>
			<circle fill="#AEBDC4" cx="95.63" cy="110.48" r="1.85"/>
			<circle fill="#AEBDC4" cx="99.96" cy="110.48" r="1.85"/>
			<circle fill="#AEBDC4" cx="104.29" cy="110.48" r="1.85"/>
			<circle fill="#AEBDC4" cx="108.62" cy="110.48" r="1.85"/>
			<circle fill="#AEBDC4" cx="112.95" cy="110.48" r="1.85"/>
			<circle fill="#AEBDC4" cx="117.29" cy="110.48" r="1.85"/>
		</g>
		<g>
			<circle fill="#AEBDC4" cx="17.76" cy="104.55" r="1.85"/>
			<circle fill="#AEBDC4" cx="22.08" cy="104.55" r="1.85"/>
			<circle fill="#AEBDC4" cx="26.4" cy="104.55" r="1.85"/>
			<circle fill="#AEBDC4" cx="30.72" cy="104.55" r="1.85"/>
			<circle fill="#AEBDC4" cx="35.04" cy="104.55" r="1.85"/>
			<circle fill="#AEBDC4" cx="39.36" cy="104.55" r="1.85"/>
			<circle fill="#AEBDC4" cx="43.68" cy="104.55" r="1.85"/>
			<circle fill="#AEBDC4" cx="48" cy="104.55" r="1.85"/>
			<circle fill="#AEBDC4" cx="52.32" cy="104.55" r="1.85"/>
			<circle fill="#AEBDC4" cx="56.66" cy="104.55" r="1.85"/>
			<circle fill="#AEBDC4" cx="60.99" cy="104.55" r="1.85"/>
			<circle fill="#AEBDC4" cx="65.32" cy="104.55" r="1.85"/>
			<circle fill="#AEBDC4" cx="69.65" cy="104.55" r="1.85"/>
			<circle fill="#AEBDC4" cx="73.98" cy="104.55" r="1.85"/>
			<circle fill="#AEBDC4" cx="78.31" cy="104.55" r="1.85"/>
			<circle fill="#AEBDC4" cx="82.64" cy="104.55" r="1.85"/>
			<circle fill="#AEBDC4" cx="86.97" cy="104.55" r="1.85"/>
			<circle fill="#AEBDC4" cx="91.3" cy="104.55" r="1.85"/>
			<circle fill="#AEBDC4" cx="95.63" cy="104.55" r="1.85"/>
			<circle fill="#AEBDC4" cx="99.96" cy="104.55" r="1.85"/>
			<circle fill="#AEBDC4" cx="104.29" cy="104.55" r="1.85"/>
			<circle fill="#AEBDC4" cx="108.62" cy="104.55" r="1.85"/>
			<circle fill="#AEBDC4" cx="112.95" cy="104.55" r="1.85"/>
			<circle fill="#AEBDC4" cx="117.29" cy="104.55" r="1.85"/>
		</g>
		<g>
			<circle fill="#AEBDC4" cx="17.76" cy="98.62" r="1.85"/>
			<circle fill="#AEBDC4" cx="22.08" cy="98.62" r="1.85"/>
			<circle fill="#AEBDC4" cx="26.4" cy="98.62" r="1.85"/>
			<circle fill="#AEBDC4" cx="30.72" cy="98.62" r="1.85"/>
			<circle fill="#AEBDC4" cx="35.04" cy="98.62" r="1.85"/>
			<circle fill="#AEBDC4" cx="39.36" cy="98.62" r="1.85"/>
			<circle fill="#AEBDC4" cx="43.68" cy="98.62" r="1.85"/>
			<circle fill="#AEBDC4" cx="48" cy="98.62" r="1.85"/>
			<circle fill="#AEBDC4" cx="52.32" cy="98.62" r="1.85"/>
			<circle fill="#AEBDC4" cx="56.66" cy="98.62" r="1.85"/>
			<circle fill="#AEBDC4" cx="60.99" cy="98.62" r="1.85"/>
			<circle fill="#AEBDC4" cx="65.32" cy="98.62" r="1.85"/>
			<circle fill="#AEBDC4" cx="69.65" cy="98.62" r="1.85"/>
			<circle fill="#AEBDC4" cx="73.98" cy="98.62" r="1.85"/>
			<circle fill="#AEBDC4" cx="78.31" cy="98.62" r="1.85"/>
			<circle fill="#AEBDC4" cx="82.64" cy="98.62" r="1.85"/>
			<circle fill="#AEBDC4" cx="86.97" cy="98.62" r="1.85"/>
			<circle fill="#AEBDC4" cx="91.3" cy="98.62" r="1.85"/>
			<circle fill="#AEBDC4" cx="95.63" cy="98.62" r="1.85"/>
			<circle fill="#AEBDC4" cx="99.96" cy="98.62" r="1.85"/>
			<circle fill="#AEBDC4" cx="104.29" cy="98.62" r="1.85"/>
			<circle fill="#AEBDC4" cx="108.62" cy="98.62" r="1.85"/>
			<circle fill="#AEBDC4" cx="112.95" cy="98.62" r="1.85"/>
			<circle fill="#AEBDC4" cx="117.29" cy="98.62" r="1.85"/>
		</g>
		<g>
			<circle fill="#AEBDC4" cx="17.76" cy="92.69" r="1.85"/>
			<circle fill="#AEBDC4" cx="22.08" cy="92.69" r="1.85"/>
			<circle fill="#AEBDC4" cx="26.4" cy="92.69" r="1.85"/>
			<circle fill="#AEBDC4" cx="30.72" cy="92.69" r="1.85"/>
			<circle fill="#AEBDC4" cx="35.04" cy="92.69" r="1.85"/>
			<circle fill="#AEBDC4" cx="39.36" cy="92.69" r="1.85"/>
			<circle fill="#AEBDC4" cx="43.68" cy="92.69" r="1.85"/>
			<circle fill="#AEBDC4" cx="48" cy="92.69" r="1.85"/>
			<circle fill="#AEBDC4" cx="52.32" cy="92.69" r="1.85"/>
			<circle fill="#AEBDC4" cx="56.66" cy="92.69" r="1.85"/>
			<circle fill="#AEBDC4" cx="60.99" cy="92.69" r="1.85"/>
			<circle fill="#AEBDC4" cx="65.32" cy="92.69" r="1.85"/>
			<circle fill="#AEBDC4" cx="69.65" cy="92.69" r="1.85"/>
			<circle fill="#AEBDC4" cx="73.98" cy="92.69" r="1.85"/>
			<circle fill="#AEBDC4" cx="78.31" cy="92.69" r="1.85"/>
			<circle fill="#AEBDC4" cx="82.64" cy="92.69" r="1.85"/>
			<circle fill="#AEBDC4" cx="86.97" cy="92.69" r="1.85"/>
			<circle fill="#AEBDC4" cx="91.3" cy="92.69" r="1.85"/>
			<circle fill="#AEBDC4" cx="95.63" cy="92.69" r="1.85"/>
			<circle fill="#AEBDC4" cx="99.96" cy="92.69" r="1.85"/>
			<circle fill="#AEBDC4" cx="104.29" cy="92.69" r="1.85"/>
			<circle fill="#AEBDC4" cx="108.62" cy="92.69" r="1.85"/>
			<circle fill="#AEBDC4" cx="112.95" cy="92.69" r="1.85"/>
			<circle fill="#AEBDC4" cx="117.29" cy="92.69" r="1.85"/>
		</g>
		<g>
			<circle fill="#AEBDC4" cx="17.76" cy="86.76" r="1.85"/>
			<circle fill="#AEBDC4" cx="22.08" cy="86.76" r="1.85"/>
			<circle fill="#AEBDC4" cx="26.4" cy="86.76" r="1.85"/>
			<circle fill="#AEBDC4" cx="30.72" cy="86.76" r="1.85"/>
			<circle fill="#AEBDC4" cx="35.04" cy="86.76" r="1.85"/>
			<circle fill="#AEBDC4" cx="39.36" cy="86.76" r="1.85"/>
			<circle fill="#AEBDC4" cx="43.68" cy="86.76" r="1.85"/>
			<circle fill="#AEBDC4" cx="48" cy="86.76" r="1.85"/>
			<circle fill="#AEBDC4" cx="52.32" cy="86.76" r="1.85"/>
			<circle fill="#AEBDC4" cx="56.66" cy="86.76" r="1.85"/>
			<circle fill="#AEBDC4" cx="60.99" cy="86.76" r="1.85"/>
			<circle fill="#AEBDC4" cx="65.32" cy="86.76" r="1.85"/>
			<circle fill="#AEBDC4" cx="69.65" cy="86.76" r="1.85"/>
			<circle fill="#AEBDC4" cx="73.98" cy="86.76" r="1.85"/>
			<circle fill="#AEBDC4" cx="78.31" cy="86.76" r="1.85"/>
			<circle fill="#AEBDC4" cx="82.64" cy="86.76" r="1.85"/>
			<circle fill="#AEBDC4" cx="86.97" cy="86.76" r="1.85"/>
			<circle fill="#AEBDC4" cx="91.3" cy="86.76" r="1.85"/>
			<circle fill="#AEBDC4" cx="95.63" cy="86.76" r="1.85"/>
			<circle fill="#AEBDC4" cx="99.96" cy="86.76" r="1.85"/>
			<circle fill="#AEBDC4" cx="104.29" cy="86.76" r="1.85"/>
			<circle fill="#AEBDC4" cx="108.62" cy="86.76" r="1.85"/>
			<circle fill="#AEBDC4" cx="112.95" cy="86.76" r="1.85"/>
			<circle fill="#AEBDC4" cx="117.29" cy="86.76" r="1.85"/>
		</g>
		<g>
			<circle fill="#AEBDC4" cx="17.76" cy="80.83" r="1.85"/>
			<circle fill="#AEBDC4" cx="22.08" cy="80.83" r="1.85"/>
			<circle fill="#AEBDC4" cx="26.4" cy="80.83" r="1.85"/>
			<circle fill="#AEBDC4" cx="30.72" cy="80.83" r="1.85"/>
			<circle fill="#AEBDC4" cx="35.04" cy="80.83" r="1.85"/>
			<circle fill="#AEBDC4" cx="39.36" cy="80.83" r="1.85"/>
			<circle fill="#AEBDC4" cx="43.68" cy="80.83" r="1.85"/>
			<circle fill="#AEBDC4" cx="48" cy="80.83" r="1.85"/>
			<circle fill="#AEBDC4" cx="52.32" cy="80.83" r="1.85"/>
			<circle fill="#AEBDC4" cx="56.66" cy="80.83" r="1.85"/>
			<circle fill="#AEBDC4" cx="60.99" cy="80.83" r="1.85"/>
			<circle fill="#AEBDC4" cx="65.32" cy="80.83" r="1.85"/>
			<circle fill="#AEBDC4" cx="69.65" cy="80.83" r="1.85"/>
			<circle fill="#AEBDC4" cx="73.98" cy="80.83" r="1.85"/>
			<circle fill="#AEBDC4" cx="78.31" cy="80.83" r="1.85"/>
			<circle fill="#AEBDC4" cx="82.64" cy="80.83" r="1.85"/>
			<circle fill="#AEBDC4" cx="86.97" cy="80.83" r="1.85"/>
			<circle fill="#AEBDC4" cx="91.3" cy="80.83" r="1.85"/>
			<circle fill="#AEBDC4" cx="95.63" cy="80.83" r="1.85"/>
			<circle fill="#AEBDC4" cx="99.96" cy="80.83" r="1.85"/>
			<circle fill="#AEBDC4" cx="104.29" cy="80.83" r="1.85"/>
			<circle fill="#AEBDC4" cx="108.62" cy="80.83" r="1.85"/>
			<circle fill="#AEBDC4" cx="112.95" cy="80.83" r="1.85"/>
			<circle fill="#AEBDC4" cx="117.29" cy="80.83" r="1.85"/>
		</g>
		<g>
			<circle fill="#AEBDC4" cx="17.76" cy="74.89" r="1.85"/>
			<circle fill="#AEBDC4" cx="22.08" cy="74.89" r="1.85"/>
			<circle fill="#AEBDC4" cx="26.4" cy="74.89" r="1.85"/>
			<circle fill="#AEBDC4" cx="30.72" cy="74.89" r="1.85"/>
			<circle fill="#AEBDC4" cx="35.04" cy="74.89" r="1.85"/>
			<circle fill="#AEBDC4" cx="39.36" cy="74.89" r="1.85"/>
			<circle fill="#AEBDC4" cx="43.68" cy="74.89" r="1.85"/>
			<circle fill="#AEBDC4" cx="48" cy="74.89" r="1.85"/>
			<circle fill="#AEBDC4" cx="52.32" cy="74.89" r="1.85"/>
			<circle fill="#AEBDC4" cx="56.66" cy="74.89" r="1.85"/>
			<circle fill="#AEBDC4" cx="60.99" cy="74.89" r="1.85"/>
			<circle fill="#AEBDC4" cx="65.32" cy="74.89" r="1.85"/>
			<circle fill="#AEBDC4" cx="69.65" cy="74.89" r="1.85"/>
			<circle fill="#AEBDC4" cx="73.98" cy="74.89" r="1.85"/>
			<circle fill="#AEBDC4" cx="78.31" cy="74.89" r="1.85"/>
			<circle fill="#AEBDC4" cx="82.64" cy="74.89" r="1.85"/>
			<circle fill="#AEBDC4" cx="86.97" cy="74.89" r="1.85"/>
			<circle fill="#AEBDC4" cx="91.3" cy="74.89" r="1.85"/>
			<circle fill="#AEBDC4" cx="95.63" cy="74.89" r="1.85"/>
			<circle fill="#AEBDC4" cx="99.96" cy="74.89" r="1.85"/>
			<circle fill="#AEBDC4" cx="104.29" cy="74.89" r="1.85"/>
			<circle fill="#AEBDC4" cx="108.62" cy="74.89" r="1.85"/>
			<circle fill="#AEBDC4" cx="112.95" cy="74.89" r="1.85"/>
			<circle fill="#AEBDC4" cx="117.29" cy="74.89" r="1.85"/>
		</g>
		<g>
			<circle fill="#AEBDC4" cx="17.76" cy="68.96" r="1.85"/>
			<circle fill="#AEBDC4" cx="22.08" cy="68.96" r="1.85"/>
			<circle fill="#AEBDC4" cx="26.4" cy="68.96" r="1.85"/>
			<circle fill="#AEBDC4" cx="30.72" cy="68.96" r="1.85"/>
			<circle fill="#AEBDC4" cx="35.04" cy="68.96" r="1.85"/>
			<circle fill="#AEBDC4" cx="39.36" cy="68.96" r="1.85"/>
			<circle fill="#AEBDC4" cx="43.68" cy="68.96" r="1.85"/>
			<circle fill="#AEBDC4" cx="48" cy="68.96" r="1.85"/>
			<circle fill="#AEBDC4" cx="52.32" cy="68.96" r="1.85"/>
			<circle fill="#AEBDC4" cx="56.66" cy="68.96" r="1.85"/>
			<circle fill="#AEBDC4" cx="60.99" cy="68.96" r="1.85"/>
			<circle fill="#AEBDC4" cx="65.32" cy="68.96" r="1.85"/>
			<circle fill="#AEBDC4" cx="69.65" cy="68.96" r="1.85"/>
			<circle fill="#AEBDC4" cx="73.98" cy="68.96" r="1.85"/>
			<circle fill="#AEBDC4" cx="78.31" cy="68.96" r="1.85"/>
			<circle fill="#AEBDC4" cx="82.64" cy="68.96" r="1.85"/>
			<circle fill="#AEBDC4" cx="86.97" cy="68.96" r="1.85"/>
			<circle fill="#AEBDC4" cx="91.3" cy="68.96" r="1.85"/>
			<circle fill="#AEBDC4" cx="95.63" cy="68.96" r="1.85"/>
			<circle fill="#AEBDC4" cx="99.96" cy="68.96" r="1.85"/>
			<circle fill="#AEBDC4" cx="104.29" cy="68.96" r="1.85"/>
			<circle fill="#AEBDC4" cx="108.62" cy="68.96" r="1.85"/>
			<circle fill="#AEBDC4" cx="112.95" cy="68.96" r="1.85"/>
			<circle fill="#AEBDC4" cx="117.29" cy="68.96" r="1.85"/>
		</g>
		<g>
			<circle fill="#AEBDC4" cx="17.76" cy="63.03" r="1.85"/>
			<circle fill="#AEBDC4" cx="22.08" cy="63.03" r="1.85"/>
			<circle fill="#AEBDC4" cx="26.4" cy="63.03" r="1.85"/>
			<circle fill="#AEBDC4" cx="30.72" cy="63.03" r="1.85"/>
			<circle fill="#AEBDC4" cx="35.04" cy="63.03" r="1.85"/>
			<circle fill="#AEBDC4" cx="39.36" cy="63.03" r="1.85"/>
			<circle fill="#AEBDC4" cx="43.68" cy="63.03" r="1.85"/>
			<circle fill="#AEBDC4" cx="48" cy="63.03" r="1.85"/>
			<circle fill="#AEBDC4" cx="52.32" cy="63.03" r="1.85"/>
			<circle fill="#AEBDC4" cx="56.66" cy="63.03" r="1.85"/>
			<circle fill="#AEBDC4" cx="60.99" cy="63.03" r="1.85"/>
			<circle fill="#AEBDC4" cx="65.32" cy="63.03" r="1.85"/>
			<circle fill="#AEBDC4" cx="69.65" cy="63.03" r="1.85"/>
			<circle fill="#AEBDC4" cx="73.98" cy="63.03" r="1.85"/>
			<circle fill="#AEBDC4" cx="78.31" cy="63.03" r="1.85"/>
			<circle fill="#AEBDC4" cx="82.64" cy="63.03" r="1.85"/>
			<circle fill="#AEBDC4" cx="86.97" cy="63.03" r="1.85"/>
			<circle fill="#AEBDC4" cx="91.3" cy="63.03" r="1.85"/>
			<circle fill="#AEBDC4" cx="95.63" cy="63.03" r="1.85"/>
			<circle fill="#AEBDC4" cx="99.96" cy="63.03" r="1.85"/>
			<circle fill="#AEBDC4" cx="104.29" cy="63.03" r="1.85"/>
			<circle fill="#AEBDC4" cx="108.62" cy="63.03" r="1.85"/>
			<circle fill="#AEBDC4" cx="112.95" cy="63.03" r="1.85"/>
			<circle fill="#AEBDC4" cx="117.29" cy="63.03" r="1.85"/>
		</g>
		<g>
			<circle fill="#AEBDC4" cx="17.76" cy="57.1" r="1.85"/>
			<circle fill="#AEBDC4" cx="22.08" cy="57.1" r="1.85"/>
			<circle fill="#AEBDC4" cx="26.4" cy="57.1" r="1.85"/>
			<circle fill="#AEBDC4" cx="30.72" cy="57.1" r="1.85"/>
			<circle fill="#AEBDC4" cx="35.04" cy="57.1" r="1.85"/>
			<circle fill="#AEBDC4" cx="39.36" cy="57.1" r="1.85"/>
			<circle fill="#AEBDC4" cx="43.68" cy="57.1" r="1.85"/>
			<circle fill="#AEBDC4" cx="48" cy="57.1" r="1.85"/>
			<circle fill="#AEBDC4" cx="52.32" cy="57.1" r="1.85"/>
			<circle fill="#AEBDC4" cx="56.66" cy="57.1" r="1.85"/>
			<circle fill="#AEBDC4" cx="60.99" cy="57.1" r="1.85"/>
			<circle fill="#AEBDC4" cx="65.32" cy="57.1" r="1.85"/>
			<circle fill="#AEBDC4" cx="69.65" cy="57.1" r="1.85"/>
			<circle fill="#AEBDC4" cx="73.98" cy="57.1" r="1.85"/>
			<circle fill="#AEBDC4" cx="78.31" cy="57.1" r="1.85"/>
			<circle fill="#AEBDC4" cx="82.64" cy="57.1" r="1.85"/>
			<circle fill="#AEBDC4" cx="86.97" cy="57.1" r="1.85"/>
			<circle fill="#AEBDC4" cx="91.3" cy="57.1" r="1.85"/>
			<circle fill="#AEBDC4" cx="95.63" cy="57.1" r="1.85"/>
			<circle fill="#AEBDC4" cx="99.96" cy="57.1" r="1.85"/>
			<circle fill="#AEBDC4" cx="104.29" cy="57.1" r="1.85"/>
			<circle fill="#AEBDC4" cx="108.62" cy="57.1" r="1.85"/>
			<circle fill="#AEBDC4" cx="112.95" cy="57.1" r="1.85"/>
			<circle fill="#AEBDC4" cx="117.29" cy="57.1" r="1.85"/>
		</g>
		<g>
			<circle fill="#AEBDC4" cx="17.76" cy="51.17" r="1.85"/>
			<circle fill="#AEBDC4" cx="22.08" cy="51.17" r="1.85"/>
			<circle fill="#AEBDC4" cx="26.4" cy="51.17" r="1.85"/>
			<circle fill="#AEBDC4" cx="30.72" cy="51.17" r="1.85"/>
			<circle fill="#AEBDC4" cx="35.04" cy="51.17" r="1.85"/>
			<circle fill="#AEBDC4" cx="39.36" cy="51.17" r="1.85"/>
			<circle fill="#AEBDC4" cx="43.68" cy="51.17" r="1.85"/>
			<circle fill="#AEBDC4" cx="48" cy="51.17" r="1.85"/>
			<circle fill="#AEBDC4" cx="52.32" cy="51.17" r="1.85"/>
			<circle fill="#AEBDC4" cx="56.66" cy="51.17" r="1.85"/>
			<circle fill="#AEBDC4" cx="60.99" cy="51.17" r="1.85"/>
			<circle fill="#AEBDC4" cx="65.32" cy="51.17" r="1.85"/>
			<circle fill="#AEBDC4" cx="69.65" cy="51.17" r="1.85"/>
			<circle fill="#AEBDC4" cx="73.98" cy="51.17" r="1.85"/>
			<circle fill="#AEBDC4" cx="78.31" cy="51.17" r="1.85"/>
			<circle fill="#AEBDC4" cx="82.64" cy="51.17" r="1.85"/>
			<circle fill="#AEBDC4" cx="86.97" cy="51.17" r="1.85"/>
			<circle fill="#AEBDC4" cx="91.3" cy="51.17" r="1.85"/>
			<circle fill="#AEBDC4" cx="95.63" cy="51.17" r="1.85"/>
			<circle fill="#AEBDC4" cx="99.96" cy="51.17" r="1.85"/>
			<circle fill="#AEBDC4" cx="104.29" cy="51.17" r="1.85"/>
			<circle fill="#AEBDC4" cx="108.62" cy="51.17" r="1.85"/>
			<circle fill="#AEBDC4" cx="112.95" cy="51.17" r="1.85"/>
			<circle fill="#AEBDC4" cx="117.29" cy="51.17" r="1.85"/>
		</g>
		<g>
			<circle fill="#AEBDC4" cx="17.76" cy="45.24" r="1.85"/>
			<circle fill="#AEBDC4" cx="22.08" cy="45.24" r="1.85"/>
			<circle fill="#AEBDC4" cx="26.4" cy="45.24" r="1.85"/>
			<circle fill="#AEBDC4" cx="30.72" cy="45.24" r="1.85"/>
			<circle fill="#AEBDC4" cx="35.04" cy="45.24" r="1.85"/>
			<circle fill="#AEBDC4" cx="39.36" cy="45.24" r="1.85"/>
			<circle fill="#AEBDC4" cx="43.68" cy="45.24" r="1.85"/>
			<circle fill="#AEBDC4" cx="48" cy="45.24" r="1.85"/>
			<circle fill="#AEBDC4" cx="52.32" cy="45.24" r="1.85"/>
			<circle fill="#AEBDC4" cx="56.66" cy="45.24" r="1.85"/>
			<circle fill="#AEBDC4" cx="60.99" cy="45.24" r="1.85"/>
			<circle fill="#AEBDC4" cx="65.32" cy="45.24" r="1.85"/>
			<circle fill="#AEBDC4" cx="69.65" cy="45.24" r="1.85"/>
			<circle fill="#AEBDC4" cx="73.98" cy="45.24" r="1.85"/>
			<circle fill="#AEBDC4" cx="78.31" cy="45.24" r="1.85"/>
			<circle fill="#AEBDC4" cx="82.64" cy="45.24" r="1.85"/>
			<circle fill="#AEBDC4" cx="86.97" cy="45.24" r="1.85"/>
			<circle fill="#AEBDC4" cx="91.3" cy="45.24" r="1.85"/>
			<circle fill="#AEBDC4" cx="95.63" cy="45.24" r="1.85"/>
			<circle fill="#AEBDC4" cx="99.96" cy="45.24" r="1.85"/>
			<circle fill="#AEBDC4" cx="104.29" cy="45.24" r="1.85"/>
			<circle fill="#AEBDC4" cx="108.62" cy="45.24" r="1.85"/>
			<circle fill="#AEBDC4" cx="112.95" cy="45.24" r="1.85"/>
			<circle fill="#AEBDC4" cx="117.29" cy="45.24" r="1.85"/>
		</g>
		<g>
			<circle fill="#AEBDC4" cx="17.76" cy="39.31" r="1.85"/>
			<circle fill="#AEBDC4" cx="22.08" cy="39.31" r="1.85"/>
			<circle fill="#AEBDC4" cx="26.4" cy="39.31" r="1.85"/>
			<circle fill="#AEBDC4" cx="30.72" cy="39.31" r="1.85"/>
			<circle fill="#AEBDC4" cx="35.04" cy="39.31" r="1.85"/>
			<circle fill="#AEBDC4" cx="39.36" cy="39.31" r="1.85"/>
			<circle fill="#AEBDC4" cx="43.68" cy="39.31" r="1.85"/>
			<circle fill="#AEBDC4" cx="48" cy="39.31" r="1.85"/>
			<circle fill="#AEBDC4" cx="52.32" cy="39.31" r="1.85"/>
			<circle fill="#AEBDC4" cx="56.66" cy="39.31" r="1.85"/>
			<circle fill="#AEBDC4" cx="60.99" cy="39.31" r="1.85"/>
			<circle fill="#AEBDC4" cx="65.32" cy="39.31" r="1.85"/>
			<circle fill="#AEBDC4" cx="69.65" cy="39.31" r="1.85"/>
			<circle fill="#AEBDC4" cx="73.98" cy="39.31" r="1.85"/>
			<circle fill="#AEBDC4" cx="78.31" cy="39.31" r="1.85"/>
			<circle fill="#AEBDC4" cx="82.64" cy="39.31" r="1.85"/>
			<circle fill="#AEBDC4" cx="86.97" cy="39.31" r="1.85"/>
			<circle fill="#AEBDC4" cx="91.3" cy="39.31" r="1.85"/>
			<circle fill="#AEBDC4" cx="95.63" cy="39.31" r="1.85"/>
			<circle fill="#AEBDC4" cx="99.96" cy="39.31" r="1.85"/>
			<circle fill="#AEBDC4" cx="104.29" cy="39.31" r="1.85"/>
			<circle fill="#AEBDC4" cx="108.62" cy="39.31" r="1.85"/>
			<circle fill="#AEBDC4" cx="112.95" cy="39.31" r="1.85"/>
			<circle fill="#AEBDC4" cx="117.29" cy="39.31" r="1.85"/>
		</g>
		<g>
			<circle fill="#AEBDC4" cx="17.76" cy="33.38" r="1.85"/>
			<circle fill="#AEBDC4" cx="22.08" cy="33.38" r="1.85"/>
			<circle fill="#AEBDC4" cx="26.4" cy="33.38" r="1.85"/>
			<circle fill="#AEBDC4" cx="30.72" cy="33.38" r="1.85"/>
			<circle fill="#AEBDC4" cx="35.04" cy="33.38" r="1.85"/>
			<circle fill="#AEBDC4" cx="39.36" cy="33.38" r="1.85"/>
			<circle fill="#AEBDC4" cx="43.68" cy="33.38" r="1.85"/>
			<circle fill="#AEBDC4" cx="48" cy="33.38" r="1.85"/>
			<circle fill="#AEBDC4" cx="52.32" cy="33.38" r="1.85"/>
			<circle fill="#AEBDC4" cx="56.66" cy="33.38" r="1.85"/>
			<circle fill="#AEBDC4" cx="60.99" cy="33.38" r="1.85"/>
			<circle fill="#AEBDC4" cx="65.32" cy="33.38" r="1.85"/>
			<circle fill="#AEBDC4" cx="69.65" cy="33.38" r="1.85"/>
			<circle fill="#AEBDC4" cx="73.98" cy="33.38" r="1.85"/>
			<circle fill="#AEBDC4" cx="78.31" cy="33.38" r="1.85"/>
			<circle fill="#AEBDC4" cx="82.64" cy="33.38" r="1.85"/>
			<circle fill="#AEBDC4" cx="86.97" cy="33.38" r="1.85"/>
			<circle fill="#AEBDC4" cx="91.3" cy="33.38" r="1.85"/>
			<circle fill="#AEBDC4" cx="95.63" cy="33.38" r="1.85"/>
			<circle fill="#AEBDC4" cx="99.96" cy="33.38" r="1.85"/>
			<circle fill="#AEBDC4" cx="104.29" cy="33.38" r="1.85"/>
			<circle fill="#AEBDC4" cx="108.62" cy="33.38" r="1.85"/>
			<circle fill="#AEBDC4" cx="112.95" cy="33.38" r="1.85"/>
			<circle fill="#AEBDC4" cx="117.29" cy="33.38" r="1.85"/>
		</g>
	</g>
	<g onclick="this.parentNode.a_text=this;">
		<text transform="matrix(0.9999 0 0 1 61.8195 88.3306)"><tspan x="0" y="0" font-family="'OpenSans-Semibold'" font-size="6.3996px">W 8</tspan><tspan x="-2.48" y="7.2" font-family="'OpenSans-Semibold'" font-size="6.3996px">(</tspan><tspan x="-0.44" y="7.2" font-family="'OpenSans-Semibold'" font-size="6.3996px">н</tspan><tspan x="3.91" y="7.2" font-family="'OpenSans-Semibold'" font-size="6.3996px">и</tspan><tspan x="8.47" y="7.2" font-family="'OpenSans-Semibold'" font-size="6.3996px">з</tspan><tspan x="11.82" y="7.2" font-family="'OpenSans-Semibold'" font-size="6.3996px">)</tspan></text>
	</g>
</g>
</svg>
