<?xml version="1.0" encoding="utf-8"?>
<!-- Generator: Adobe Illustrator 23.0.1, SVG Export Plug-In . SVG Version: 6.00 Build 0)  -->
<svg version="1.1" id="Layer_1" xmlns="http://www.w3.org/2000/svg" xmlns:xlink="http://www.w3.org/1999/xlink" x="0px" y="0px"
	 viewBox="0 0 135 132" enable-background="new 0 0 135 132" xml:space="preserve">
<g onclick="&quot;W 8 (низ)&quot;;">
	
		<rect x="0.36" y="0.61" fill="#F1F3F4" stroke="#BCC8CE" stroke-width="0.4" stroke-linecap="round" stroke-miterlimit="10" width="134.28" height="130.78"/>
	<g>
		<circle fill="#AEBDC4" cx="17.76" cy="122.34" r="1.85"/>
		<circle fill="#AEBDC4" cx="22.08" cy="122.34" r="1.85"/>
		<circle fill="#AEBDC4" cx="26.4" cy="122.34" r="1.85"/>
		<circle fill="#AEBDC4" cx="30.72" cy="122.34" r="1.85"/>
		<circle fill="#AEBDC4" cx="35.04" cy="122.34" r="1.85"/>
		<circle fill="#AEBDC4" cx="39.36" cy="122.34" r="1.85"/>
		<circle fill="#AEBDC4" cx="43.68" cy="122.34" r="1.85"/>
		<circle fill="#AEBDC4" cx="48" cy="122.34" r="1.85"/>
		<circle fill="#AEBDC4" cx="52.32" cy="122.34" r="1.85"/>
		<circle fill="#AEBDC4" cx="56.66" cy="122.34" r="1.85"/>
		<circle fill="#AEBDC4" cx="60.99" cy="122.34" r="1.85"/>
		<circle fill="#AEBDC4" cx="65.32" cy="122.34" r="1.85"/>
		<circle fill="#AEBDC4" cx="69.65" cy="122.34" r="1.85"/>
		<circle fill="#AEBDC4" cx="73.98" cy="122.34" r="1.85"/>
		<circle fill="#AEBDC4" cx="78.31" cy="122.34" r="1.85"/>
		<circle fill="#AEBDC4" cx="82.64" cy="122.34" r="1.85"/>
		<circle fill="#AEBDC4" cx="86.97" cy="122.34" r="1.85"/>
		<circle fill="#AEBDC4" cx="91.3" cy="122.34" r="1.85"/>
		<circle fill="#AEBDC4" cx="95.63" cy="122.34" r="1.85"/>
		<circle fill="#AEBDC4" cx="99.96" cy="122.34" r="1.85"/>
		<circle fill="#AEBDC4" cx="104.29" cy="122.34" r="1.85"/>
		<circle fill="#AEBDC4" cx="108.62" cy="122.34" r="1.85"/>
		<circle fill="#AEBDC4" cx="112.95" cy="122.34" r="1.85"/>
		<circle fill="#AEBDC4" cx="117.29" cy="122.34" r="1.85"/>
	</g>
	<g>
		<circle fill="#AEBDC4" cx="17.76" cy="116.41" r="1.85"/>
		<circle fill="#AEBDC4" cx="22.08" cy="116.41" r="1.85"/>
		<circle fill="#AEBDC4" cx="26.4" cy="116.41" r="1.85"/>
		<circle fill="#AEBDC4" cx="30.72" cy="116.41" r="1.85"/>
		<circle fill="#AEBDC4" cx="35.04" cy="116.41" r="1.85"/>
		<circle fill="#AEBDC4" cx="39.36" cy="116.41" r="1.85"/>
		<circle fill="#AEBDC4" cx="43.68" cy="116.41" r="1.85"/>
		<circle fill="#AEBDC4" cx="48" cy="116.41" r="1.85"/>
		<circle fill="#AEBDC4" cx="52.32" cy="116.41" r="1.85"/>
		<circle fill="#AEBDC4" cx="56.66" cy="116.41" r="1.85"/>
		<circle fill="#AEBDC4" cx="60.99" cy="116.41" r="1.85"/>
		<circle fill="#AEBDC4" cx="65.32" cy="116.41" r="1.85"/>
		<circle fill="#AEBDC4" cx="69.65" cy="116.41" r="1.85"/>
		<circle fill="#AEBDC4" cx="73.98" cy="116.41" r="1.85"/>
		<circle fill="#AEBDC4" cx="78.31" cy="116.41" r="1.85"/>
		<circle fill="#AEBDC4" cx="82.64" cy="116.41" r="1.85"/>
		<circle fill="#AEBDC4" cx="86.97" cy="116.41" r="1.85"/>
		<circle fill="#AEBDC4" cx="91.3" cy="116.41" r="1.85"/>
		<circle fill="#AEBDC4" cx="95.63" cy="116.41" r="1.85"/>
		<circle fill="#AEBDC4" cx="99.96" cy="116.41" r="1.85"/>
		<circle fill="#AEBDC4" cx="104.29" cy="116.41" r="1.85"/>
		<circle fill="#AEBDC4" cx="108.62" cy="116.41" r="1.85"/>
		<circle fill="#AEBDC4" cx="112.95" cy="116.41" r="1.85"/>
		<circle fill="#AEBDC4" cx="117.29" cy="116.41" r="1.85"/>
	</g>
	<g>
		<circle fill="#AEBDC4" cx="17.76" cy="110.48" r="1.85"/>
		<circle fill="#AEBDC4" cx="22.08" cy="110.48" r="1.85"/>
		<circle fill="#AEBDC4" cx="26.4" cy="110.48" r="1.85"/>
		<circle fill="#AEBDC4" cx="30.72" cy="110.48" r="1.85"/>
		<circle fill="#AEBDC4" cx="35.04" cy="110.48" r="1.85"/>
		<circle fill="#AEBDC4" cx="39.36" cy="110.48" r="1.85"/>
		<circle fill="#AEBDC4" cx="43.68" cy="110.48" r="1.85"/>
		<circle fill="#AEBDC4" cx="48" cy="110.48" r="1.85"/>
		<circle fill="#AEBDC4" cx="52.32" cy="110.48" r="1.85"/>
		<circle fill="#AEBDC4" cx="56.66" cy="110.48" r="1.85"/>
		<circle fill="#AEBDC4" cx="60.99" cy="110.48" r="1.85"/>
		<circle fill="#AEBDC4" cx="65.32" cy="110.48" r="1.85"/>
		<circle fill="#AEBDC4" cx="69.65" cy="110.48" r="1.85"/>
		<circle fill="#AEBDC4" cx="73.98" cy="110.48" r="1.85"/>
		<circle fill="#AEBDC4" cx="78.31" cy="110.48" r="1.85"/>
		<circle fill="#AEBDC4" cx="82.64" cy="110.48" r="1.85"/>
		<circle fill="#AEBDC4" cx="86.97" cy="110.48" r="1.85"/>
		<circle fill="#AEBDC4" cx="91.3" cy="110.48" r="1.85"/>
		<circle fill="#AEBDC4" cx="95.63" cy="110.48" r="1.85"/>
		<circle fill="#AEBDC4" cx="99.96" cy="110.48" r="1.85"/>
		<circle fill="#AEBDC4" cx="104.29" cy="110.48" r="1.85"/>
		<circle fill="#AEBDC4" cx="108.62" cy="110.48" r="1.85"/>
		<circle fill="#AEBDC4" cx="112.95" cy="110.48" r="1.85"/>
		<circle fill="#AEBDC4" cx="117.29" cy="110.48" r="1.85"/>
	</g>
	<g>
		<circle fill="#AEBDC4" cx="17.76" cy="104.55" r="1.85"/>
		<circle fill="#AEBDC4" cx="22.08" cy="104.55" r="1.85"/>
		<circle fill="#AEBDC4" cx="26.4" cy="104.55" r="1.85"/>
		<circle fill="#AEBDC4" cx="30.72" cy="104.55" r="1.85"/>
		<circle fill="#AEBDC4" cx="35.04" cy="104.55" r="1.85"/>
		<circle fill="#AEBDC4" cx="39.36" cy="104.55" r="1.85"/>
		<circle fill="#AEBDC4" cx="43.68" cy="104.55" r="1.85"/>
		<circle fill="#AEBDC4" cx="48" cy="104.55" r="1.85"/>
		<circle fill="#AEBDC4" cx="52.32" cy="104.55" r="1.85"/>
		<circle fill="#AEBDC4" cx="56.66" cy="104.55" r="1.85"/>
		<circle fill="#AEBDC4" cx="60.99" cy="104.55" r="1.85"/>
		<circle fill="#AEBDC4" cx="65.32" cy="104.55" r="1.85"/>
		<circle fill="#AEBDC4" cx="69.65" cy="104.55" r="1.85"/>
		<circle fill="#AEBDC4" cx="73.98" cy="104.55" r="1.85"/>
		<circle fill="#AEBDC4" cx="78.31" cy="104.55" r="1.85"/>
		<circle fill="#AEBDC4" cx="82.64" cy="104.55" r="1.85"/>
		<circle fill="#AEBDC4" cx="86.97" cy="104.55" r="1.85"/>
		<circle fill="#AEBDC4" cx="91.3" cy="104.55" r="1.85"/>
		<circle fill="#AEBDC4" cx="95.63" cy="104.55" r="1.85"/>
		<circle fill="#AEBDC4" cx="99.96" cy="104.55" r="1.85"/>
		<circle fill="#AEBDC4" cx="104.29" cy="104.55" r="1.85"/>
		<circle fill="#AEBDC4" cx="108.62" cy="104.55" r="1.85"/>
		<circle fill="#AEBDC4" cx="112.95" cy="104.55" r="1.85"/>
		<circle fill="#AEBDC4" cx="117.29" cy="104.55" r="1.85"/>
	</g>
	<g>
		<circle fill="#AEBDC4" cx="17.76" cy="98.62" r="1.85"/>
		<circle fill="#AEBDC4" cx="22.08" cy="98.62" r="1.85"/>
		<circle fill="#AEBDC4" cx="26.4" cy="98.62" r="1.85"/>
		<circle fill="#AEBDC4" cx="30.72" cy="98.62" r="1.85"/>
		<circle fill="#AEBDC4" cx="35.04" cy="98.62" r="1.85"/>
		<circle fill="#AEBDC4" cx="39.36" cy="98.62" r="1.85"/>
		<circle fill="#AEBDC4" cx="43.68" cy="98.62" r="1.85"/>
		<circle fill="#AEBDC4" cx="48" cy="98.62" r="1.85"/>
		<circle fill="#AEBDC4" cx="52.32" cy="98.62" r="1.85"/>
		<circle fill="#AEBDC4" cx="56.66" cy="98.62" r="1.85"/>
		<circle fill="#AEBDC4" cx="60.99" cy="98.62" r="1.85"/>
		<circle fill="#AEBDC4" cx="65.32" cy="98.62" r="1.85"/>
		<circle fill="#AEBDC4" cx="69.65" cy="98.62" r="1.85"/>
		<circle fill="#AEBDC4" cx="73.98" cy="98.62" r="1.85"/>
		<circle fill="#AEBDC4" cx="78.31" cy="98.62" r="1.85"/>
		<circle fill="#AEBDC4" cx="82.64" cy="98.62" r="1.85"/>
		<circle fill="#AEBDC4" cx="86.97" cy="98.62" r="1.85"/>
		<circle fill="#AEBDC4" cx="91.3" cy="98.62" r="1.85"/>
		<circle fill="#AEBDC4" cx="95.63" cy="98.62" r="1.85"/>
		<circle fill="#AEBDC4" cx="99.96" cy="98.62" r="1.85"/>
		<circle fill="#AEBDC4" cx="104.29" cy="98.62" r="1.85"/>
		<circle fill="#AEBDC4" cx="108.62" cy="98.62" r="1.85"/>
		<circle fill="#AEBDC4" cx="112.95" cy="98.62" r="1.85"/>
		<circle fill="#AEBDC4" cx="117.29" cy="98.62" r="1.85"/>
	</g>
	<g>
		<circle fill="#AEBDC4" cx="17.76" cy="92.69" r="1.85"/>
		<circle fill="#AEBDC4" cx="22.08" cy="92.69" r="1.85"/>
		<circle fill="#AEBDC4" cx="26.4" cy="92.69" r="1.85"/>
		<circle fill="#AEBDC4" cx="30.72" cy="92.69" r="1.85"/>
		<circle fill="#AEBDC4" cx="35.04" cy="92.69" r="1.85"/>
		<circle fill="#AEBDC4" cx="39.36" cy="92.69" r="1.85"/>
		<circle fill="#AEBDC4" cx="43.68" cy="92.69" r="1.85"/>
		<circle fill="#AEBDC4" cx="48" cy="92.69" r="1.85"/>
		<circle fill="#AEBDC4" cx="52.32" cy="92.69" r="1.85"/>
		<circle fill="#AEBDC4" cx="56.66" cy="92.69" r="1.85"/>
		<circle fill="#AEBDC4" cx="60.99" cy="92.69" r="1.85"/>
		<circle fill="#AEBDC4" cx="65.32" cy="92.69" r="1.85"/>
		<circle fill="#AEBDC4" cx="69.65" cy="92.69" r="1.85"/>
		<circle fill="#AEBDC4" cx="73.98" cy="92.69" r="1.85"/>
		<circle fill="#AEBDC4" cx="78.31" cy="92.69" r="1.85"/>
		<circle fill="#AEBDC4" cx="82.64" cy="92.69" r="1.85"/>
		<circle fill="#AEBDC4" cx="86.97" cy="92.69" r="1.85"/>
		<circle fill="#AEBDC4" cx="91.3" cy="92.69" r="1.85"/>
		<circle fill="#AEBDC4" cx="95.63" cy="92.69" r="1.85"/>
		<circle fill="#AEBDC4" cx="99.96" cy="92.69" r="1.85"/>
		<circle fill="#AEBDC4" cx="104.29" cy="92.69" r="1.85"/>
		<circle fill="#AEBDC4" cx="108.62" cy="92.69" r="1.85"/>
		<circle fill="#AEBDC4" cx="112.95" cy="92.69" r="1.85"/>
		<circle fill="#AEBDC4" cx="117.29" cy="92.69" r="1.85"/>
	</g>
	<g>
		<circle fill="#AEBDC4" cx="17.76" cy="86.76" r="1.85"/>
		<circle fill="#AEBDC4" cx="22.08" cy="86.76" r="1.85"/>
		<circle fill="#AEBDC4" cx="26.4" cy="86.76" r="1.85"/>
		<circle fill="#AEBDC4" cx="30.72" cy="86.76" r="1.85"/>
		<circle fill="#AEBDC4" cx="35.04" cy="86.76" r="1.85"/>
		<circle fill="#AEBDC4" cx="39.36" cy="86.76" r="1.85"/>
		<circle fill="#AEBDC4" cx="43.68" cy="86.76" r="1.85"/>
		<circle fill="#AEBDC4" cx="48" cy="86.76" r="1.85"/>
		<circle fill="#AEBDC4" cx="52.32" cy="86.76" r="1.85"/>
		<circle fill="#AEBDC4" cx="56.66" cy="86.76" r="1.85"/>
		<circle fill="#AEBDC4" cx="60.99" cy="86.76" r="1.85"/>
		<circle fill="#AEBDC4" cx="65.32" cy="86.76" r="1.85"/>
		<circle fill="#AEBDC4" cx="69.65" cy="86.76" r="1.85"/>
		<circle fill="#AEBDC4" cx="73.98" cy="86.76" r="1.85"/>
		<circle fill="#AEBDC4" cx="78.31" cy="86.76" r="1.85"/>
		<circle fill="#AEBDC4" cx="82.64" cy="86.76" r="1.85"/>
		<circle fill="#AEBDC4" cx="86.97" cy="86.76" r="1.85"/>
		<circle fill="#AEBDC4" cx="91.3" cy="86.76" r="1.85"/>
		<circle fill="#AEBDC4" cx="95.63" cy="86.76" r="1.85"/>
		<circle fill="#AEBDC4" cx="99.96" cy="86.76" r="1.85"/>
		<circle fill="#AEBDC4" cx="104.29" cy="86.76" r="1.85"/>
		<circle fill="#AEBDC4" cx="108.62" cy="86.76" r="1.85"/>
		<circle fill="#AEBDC4" cx="112.95" cy="86.76" r="1.85"/>
		<circle fill="#AEBDC4" cx="117.29" cy="86.76" r="1.85"/>
	</g>
	<g>
		<circle fill="#AEBDC4" cx="17.76" cy="80.83" r="1.85"/>
		<circle fill="#AEBDC4" cx="22.08" cy="80.83" r="1.85"/>
		<circle fill="#AEBDC4" cx="26.4" cy="80.83" r="1.85"/>
		<circle fill="#AEBDC4" cx="30.72" cy="80.83" r="1.85"/>
		<circle fill="#AEBDC4" cx="35.04" cy="80.83" r="1.85"/>
		<circle fill="#AEBDC4" cx="39.36" cy="80.83" r="1.85"/>
		<circle fill="#AEBDC4" cx="43.68" cy="80.83" r="1.85"/>
		<circle fill="#AEBDC4" cx="48" cy="80.83" r="1.85"/>
		<circle fill="#AEBDC4" cx="52.32" cy="80.83" r="1.85"/>
		<circle fill="#AEBDC4" cx="56.66" cy="80.83" r="1.85"/>
		<circle fill="#AEBDC4" cx="60.99" cy="80.83" r="1.85"/>
		<circle fill="#AEBDC4" cx="65.32" cy="80.83" r="1.85"/>
		<circle fill="#AEBDC4" cx="69.65" cy="80.83" r="1.85"/>
		<circle fill="#AEBDC4" cx="73.98" cy="80.83" r="1.85"/>
		<circle fill="#AEBDC4" cx="78.31" cy="80.83" r="1.85"/>
		<circle fill="#AEBDC4" cx="82.64" cy="80.83" r="1.85"/>
		<circle fill="#AEBDC4" cx="86.97" cy="80.83" r="1.85"/>
		<circle fill="#AEBDC4" cx="91.3" cy="80.83" r="1.85"/>
		<circle fill="#AEBDC4" cx="95.63" cy="80.83" r="1.85"/>
		<circle fill="#AEBDC4" cx="99.96" cy="80.83" r="1.85"/>
		<circle fill="#AEBDC4" cx="104.29" cy="80.83" r="1.85"/>
		<circle fill="#AEBDC4" cx="108.62" cy="80.83" r="1.85"/>
		<circle fill="#AEBDC4" cx="112.95" cy="80.83" r="1.85"/>
		<circle fill="#AEBDC4" cx="117.29" cy="80.83" r="1.85"/>
	</g>
	<g>
		<circle fill="#AEBDC4" cx="17.76" cy="74.89" r="1.85"/>
		<circle fill="#AEBDC4" cx="22.08" cy="74.89" r="1.85"/>
		<circle fill="#AEBDC4" cx="26.4" cy="74.89" r="1.85"/>
		<circle fill="#AEBDC4" cx="30.72" cy="74.89" r="1.85"/>
		<circle fill="#AEBDC4" cx="35.04" cy="74.89" r="1.85"/>
		<circle fill="#AEBDC4" cx="39.36" cy="74.89" r="1.85"/>
		<circle fill="#AEBDC4" cx="43.68" cy="74.89" r="1.85"/>
		<circle fill="#AEBDC4" cx="48" cy="74.89" r="1.85"/>
		<circle fill="#AEBDC4" cx="52.32" cy="74.89" r="1.85"/>
		<circle fill="#AEBDC4" cx="56.66" cy="74.89" r="1.85"/>
		<circle fill="#AEBDC4" cx="60.99" cy="74.89" r="1.85"/>
		<circle fill="#AEBDC4" cx="65.32" cy="74.89" r="1.85"/>
		<circle fill="#AEBDC4" cx="69.65" cy="74.89" r="1.85"/>
		<circle fill="#AEBDC4" cx="73.98" cy="74.89" r="1.85"/>
		<circle fill="#AEBDC4" cx="78.31" cy="74.89" r="1.85"/>
		<circle fill="#AEBDC4" cx="82.64" cy="74.89" r="1.85"/>
		<circle fill="#AEBDC4" cx="86.97" cy="74.89" r="1.85"/>
		<circle fill="#AEBDC4" cx="91.3" cy="74.89" r="1.85"/>
		<circle fill="#AEBDC4" cx="95.63" cy="74.89" r="1.85"/>
		<circle fill="#AEBDC4" cx="99.96" cy="74.89" r="1.85"/>
		<circle fill="#AEBDC4" cx="104.29" cy="74.89" r="1.85"/>
		<circle fill="#AEBDC4" cx="108.62" cy="74.89" r="1.85"/>
		<circle fill="#AEBDC4" cx="112.95" cy="74.89" r="1.85"/>
		<circle fill="#AEBDC4" cx="117.29" cy="74.89" r="1.85"/>
	</g>
	<g>
		<circle fill="#AEBDC4" cx="17.76" cy="68.96" r="1.85"/>
		<circle fill="#AEBDC4" cx="22.08" cy="68.96" r="1.85"/>
		<circle fill="#AEBDC4" cx="26.4" cy="68.96" r="1.85"/>
		<circle fill="#AEBDC4" cx="30.72" cy="68.96" r="1.85"/>
		<circle fill="#AEBDC4" cx="35.04" cy="68.96" r="1.85"/>
		<circle fill="#AEBDC4" cx="39.36" cy="68.96" r="1.85"/>
		<circle fill="#AEBDC4" cx="43.68" cy="68.96" r="1.85"/>
		<circle fill="#AEBDC4" cx="48" cy="68.96" r="1.85"/>
		<circle fill="#AEBDC4" cx="52.32" cy="68.96" r="1.85"/>
		<circle fill="#AEBDC4" cx="56.66" cy="68.96" r="1.85"/>
		<circle fill="#AEBDC4" cx="60.99" cy="68.96" r="1.85"/>
		<circle fill="#AEBDC4" cx="65.32" cy="68.96" r="1.85"/>
		<circle fill="#AEBDC4" cx="69.65" cy="68.96" r="1.85"/>
		<circle fill="#AEBDC4" cx="73.98" cy="68.96" r="1.85"/>
		<circle fill="#AEBDC4" cx="78.31" cy="68.96" r="1.85"/>
		<circle fill="#AEBDC4" cx="82.64" cy="68.96" r="1.85"/>
		<circle fill="#AEBDC4" cx="86.97" cy="68.96" r="1.85"/>
		<circle fill="#AEBDC4" cx="91.3" cy="68.96" r="1.85"/>
		<circle fill="#AEBDC4" cx="95.63" cy="68.96" r="1.85"/>
		<circle fill="#AEBDC4" cx="99.96" cy="68.96" r="1.85"/>
		<circle fill="#AEBDC4" cx="104.29" cy="68.96" r="1.85"/>
		<circle fill="#AEBDC4" cx="108.62" cy="68.96" r="1.85"/>
		<circle fill="#AEBDC4" cx="112.95" cy="68.96" r="1.85"/>
		<circle fill="#AEBDC4" cx="117.29" cy="68.96" r="1.85"/>
	</g>
	<g>
		<circle fill="#AEBDC4" cx="17.76" cy="63.03" r="1.85"/>
		<circle fill="#AEBDC4" cx="22.08" cy="63.03" r="1.85"/>
		<circle fill="#AEBDC4" cx="26.4" cy="63.03" r="1.85"/>
		<circle fill="#AEBDC4" cx="30.72" cy="63.03" r="1.85"/>
		<circle fill="#AEBDC4" cx="35.04" cy="63.03" r="1.85"/>
		<circle fill="#AEBDC4" cx="39.36" cy="63.03" r="1.85"/>
		<circle fill="#AEBDC4" cx="43.68" cy="63.03" r="1.85"/>
		<circle fill="#AEBDC4" cx="48" cy="63.03" r="1.85"/>
		<circle fill="#AEBDC4" cx="52.32" cy="63.03" r="1.85"/>
		<circle fill="#AEBDC4" cx="56.66" cy="63.03" r="1.85"/>
		<circle fill="#AEBDC4" cx="60.99" cy="63.03" r="1.85"/>
		<circle fill="#AEBDC4" cx="65.32" cy="63.03" r="1.85"/>
		<circle fill="#AEBDC4" cx="69.65" cy="63.03" r="1.85"/>
		<circle fill="#AEBDC4" cx="73.98" cy="63.03" r="1.85"/>
		<circle fill="#AEBDC4" cx="78.31" cy="63.03" r="1.85"/>
		<circle fill="#AEBDC4" cx="82.64" cy="63.03" r="1.85"/>
		<circle fill="#AEBDC4" cx="86.97" cy="63.03" r="1.85"/>
		<circle fill="#AEBDC4" cx="91.3" cy="63.03" r="1.85"/>
		<circle fill="#AEBDC4" cx="95.63" cy="63.03" r="1.85"/>
		<circle fill="#AEBDC4" cx="99.96" cy="63.03" r="1.85"/>
		<circle fill="#AEBDC4" cx="104.29" cy="63.03" r="1.85"/>
		<circle fill="#AEBDC4" cx="108.62" cy="63.03" r="1.85"/>
		<circle fill="#AEBDC4" cx="112.95" cy="63.03" r="1.85"/>
		<circle fill="#AEBDC4" cx="117.29" cy="63.03" r="1.85"/>
	</g>
	<g>
		<circle fill="#AEBDC4" cx="17.76" cy="57.1" r="1.85"/>
		<circle fill="#AEBDC4" cx="22.08" cy="57.1" r="1.85"/>
		<circle fill="#AEBDC4" cx="26.4" cy="57.1" r="1.85"/>
		<circle fill="#AEBDC4" cx="30.72" cy="57.1" r="1.85"/>
		<circle fill="#AEBDC4" cx="35.04" cy="57.1" r="1.85"/>
		<circle fill="#AEBDC4" cx="39.36" cy="57.1" r="1.85"/>
		<circle fill="#AEBDC4" cx="43.68" cy="57.1" r="1.85"/>
		<circle fill="#AEBDC4" cx="48" cy="57.1" r="1.85"/>
		<circle fill="#AEBDC4" cx="52.32" cy="57.1" r="1.85"/>
		<circle fill="#AEBDC4" cx="56.66" cy="57.1" r="1.85"/>
		<circle fill="#AEBDC4" cx="60.99" cy="57.1" r="1.85"/>
		<circle fill="#AEBDC4" cx="65.32" cy="57.1" r="1.85"/>
		<circle fill="#AEBDC4" cx="69.65" cy="57.1" r="1.85"/>
		<circle fill="#AEBDC4" cx="73.98" cy="57.1" r="1.85"/>
		<circle fill="#AEBDC4" cx="78.31" cy="57.1" r="1.85"/>
		<circle fill="#AEBDC4" cx="82.64" cy="57.1" r="1.85"/>
		<circle fill="#AEBDC4" cx="86.97" cy="57.1" r="1.85"/>
		<circle fill="#AEBDC4" cx="91.3" cy="57.1" r="1.85"/>
		<circle fill="#AEBDC4" cx="95.63" cy="57.1" r="1.85"/>
		<circle fill="#AEBDC4" cx="99.96" cy="57.1" r="1.85"/>
		<circle fill="#AEBDC4" cx="104.29" cy="57.1" r="1.85"/>
		<circle fill="#AEBDC4" cx="108.62" cy="57.1" r="1.85"/>
		<circle fill="#AEBDC4" cx="112.95" cy="57.1" r="1.85"/>
		<circle fill="#AEBDC4" cx="117.29" cy="57.1" r="1.85"/>
	</g>
	<g>
		<circle fill="#AEBDC4" cx="17.76" cy="51.17" r="1.85"/>
		<circle fill="#AEBDC4" cx="22.08" cy="51.17" r="1.85"/>
		<circle fill="#AEBDC4" cx="26.4" cy="51.17" r="1.85"/>
		<circle fill="#AEBDC4" cx="30.72" cy="51.17" r="1.85"/>
		<circle fill="#AEBDC4" cx="35.04" cy="51.17" r="1.85"/>
		<circle fill="#AEBDC4" cx="39.36" cy="51.17" r="1.85"/>
		<circle fill="#AEBDC4" cx="43.68" cy="51.17" r="1.85"/>
		<circle fill="#AEBDC4" cx="48" cy="51.17" r="1.85"/>
		<circle fill="#AEBDC4" cx="52.32" cy="51.17" r="1.85"/>
		<circle fill="#AEBDC4" cx="56.66" cy="51.17" r="1.85"/>
		<circle fill="#AEBDC4" cx="60.99" cy="51.17" r="1.85"/>
		<circle fill="#AEBDC4" cx="65.32" cy="51.17" r="1.85"/>
		<circle fill="#AEBDC4" cx="69.65" cy="51.17" r="1.85"/>
		<circle fill="#AEBDC4" cx="73.98" cy="51.17" r="1.85"/>
		<circle fill="#AEBDC4" cx="78.31" cy="51.17" r="1.85"/>
		<circle fill="#AEBDC4" cx="82.64" cy="51.17" r="1.85"/>
		<circle fill="#AEBDC4" cx="86.97" cy="51.17" r="1.85"/>
		<circle fill="#AEBDC4" cx="91.3" cy="51.17" r="1.85"/>
		<circle fill="#AEBDC4" cx="95.63" cy="51.17" r="1.85"/>
		<circle fill="#AEBDC4" cx="99.96" cy="51.17" r="1.85"/>
		<circle fill="#AEBDC4" cx="104.29" cy="51.17" r="1.85"/>
		<circle fill="#AEBDC4" cx="108.62" cy="51.17" r="1.85"/>
		<circle fill="#AEBDC4" cx="112.95" cy="51.17" r="1.85"/>
		<circle fill="#AEBDC4" cx="117.29" cy="51.17" r="1.85"/>
	</g>
	<g>
		<circle fill="#AEBDC4" cx="17.76" cy="45.24" r="1.85"/>
		<circle fill="#AEBDC4" cx="22.08" cy="45.24" r="1.85"/>
		<circle fill="#AEBDC4" cx="26.4" cy="45.24" r="1.85"/>
		<circle fill="#AEBDC4" cx="30.72" cy="45.24" r="1.85"/>
		<circle fill="#AEBDC4" cx="35.04" cy="45.24" r="1.85"/>
		<circle fill="#AEBDC4" cx="39.36" cy="45.24" r="1.85"/>
		<circle fill="#AEBDC4" cx="43.68" cy="45.24" r="1.85"/>
		<circle fill="#AEBDC4" cx="48" cy="45.24" r="1.85"/>
		<circle fill="#AEBDC4" cx="52.32" cy="45.24" r="1.85"/>
		<circle fill="#AEBDC4" cx="56.66" cy="45.24" r="1.85"/>
		<circle fill="#AEBDC4" cx="60.99" cy="45.24" r="1.85"/>
		<circle fill="#AEBDC4" cx="65.32" cy="45.24" r="1.85"/>
		<circle fill="#AEBDC4" cx="69.65" cy="45.24" r="1.85"/>
		<circle fill="#AEBDC4" cx="73.98" cy="45.24" r="1.85"/>
		<circle fill="#AEBDC4" cx="78.31" cy="45.24" r="1.85"/>
		<circle fill="#AEBDC4" cx="82.64" cy="45.24" r="1.85"/>
		<circle fill="#AEBDC4" cx="86.97" cy="45.24" r="1.85"/>
		<circle fill="#AEBDC4" cx="91.3" cy="45.24" r="1.85"/>
		<circle fill="#AEBDC4" cx="95.63" cy="45.24" r="1.85"/>
		<circle fill="#AEBDC4" cx="99.96" cy="45.24" r="1.85"/>
		<circle fill="#AEBDC4" cx="104.29" cy="45.24" r="1.85"/>
		<circle fill="#AEBDC4" cx="108.62" cy="45.24" r="1.85"/>
		<circle fill="#AEBDC4" cx="112.95" cy="45.24" r="1.85"/>
		<circle fill="#AEBDC4" cx="117.29" cy="45.24" r="1.85"/>
	</g>
	<g>
		<circle fill="#AEBDC4" cx="17.76" cy="39.31" r="1.85"/>
		<circle fill="#AEBDC4" cx="22.08" cy="39.31" r="1.85"/>
		<circle fill="#AEBDC4" cx="26.4" cy="39.31" r="1.85"/>
		<circle fill="#AEBDC4" cx="30.72" cy="39.31" r="1.85"/>
		<circle fill="#AEBDC4" cx="35.04" cy="39.31" r="1.85"/>
		<circle fill="#AEBDC4" cx="39.36" cy="39.31" r="1.85"/>
		<circle fill="#AEBDC4" cx="43.68" cy="39.31" r="1.85"/>
		<circle fill="#AEBDC4" cx="48" cy="39.31" r="1.85"/>
		<circle fill="#AEBDC4" cx="52.32" cy="39.31" r="1.85"/>
		<circle fill="#AEBDC4" cx="56.66" cy="39.31" r="1.85"/>
		<circle fill="#AEBDC4" cx="60.99" cy="39.31" r="1.85"/>
		<circle fill="#AEBDC4" cx="65.32" cy="39.31" r="1.85"/>
		<circle fill="#AEBDC4" cx="69.65" cy="39.31" r="1.85"/>
		<circle fill="#AEBDC4" cx="73.98" cy="39.31" r="1.85"/>
		<circle fill="#AEBDC4" cx="78.31" cy="39.31" r="1.85"/>
		<circle fill="#AEBDC4" cx="82.64" cy="39.31" r="1.85"/>
		<circle fill="#AEBDC4" cx="86.97" cy="39.31" r="1.85"/>
		<circle fill="#AEBDC4" cx="91.3" cy="39.31" r="1.85"/>
		<circle fill="#AEBDC4" cx="95.63" cy="39.31" r="1.85"/>
		<circle fill="#AEBDC4" cx="99.96" cy="39.31" r="1.85"/>
		<circle fill="#AEBDC4" cx="104.29" cy="39.31" r="1.85"/>
		<circle fill="#AEBDC4" cx="108.62" cy="39.31" r="1.85"/>
		<circle fill="#AEBDC4" cx="112.95" cy="39.31" r="1.85"/>
		<circle fill="#AEBDC4" cx="117.29" cy="39.31" r="1.85"/>
	</g>
	<g>
		<circle fill="#AEBDC4" cx="17.76" cy="33.38" r="1.85"/>
		<circle fill="#AEBDC4" cx="22.08" cy="33.38" r="1.85"/>
		<circle fill="#AEBDC4" cx="26.4" cy="33.38" r="1.85"/>
		<circle fill="#AEBDC4" cx="30.72" cy="33.38" r="1.85"/>
		<circle fill="#AEBDC4" cx="35.04" cy="33.38" r="1.85"/>
		<circle fill="#AEBDC4" cx="39.36" cy="33.38" r="1.85"/>
		<circle fill="#AEBDC4" cx="43.68" cy="33.38" r="1.85"/>
		<circle fill="#AEBDC4" cx="48" cy="33.38" r="1.85"/>
		<circle fill="#AEBDC4" cx="52.32" cy="33.38" r="1.85"/>
		<circle fill="#AEBDC4" cx="56.66" cy="33.38" r="1.85"/>
		<circle fill="#AEBDC4" cx="60.99" cy="33.38" r="1.85"/>
		<circle fill="#AEBDC4" cx="65.32" cy="33.38" r="1.85"/>
		<circle fill="#AEBDC4" cx="69.65" cy="33.38" r="1.85"/>
		<circle fill="#AEBDC4" cx="73.98" cy="33.38" r="1.85"/>
		<circle fill="#AEBDC4" cx="78.31" cy="33.38" r="1.85"/>
		<circle fill="#AEBDC4" cx="82.64" cy="33.38" r="1.85"/>
		<circle fill="#AEBDC4" cx="86.97" cy="33.38" r="1.85"/>
		<circle fill="#AEBDC4" cx="91.3" cy="33.38" r="1.85"/>
		<circle fill="#AEBDC4" cx="95.63" cy="33.38" r="1.85"/>
		<circle fill="#AEBDC4" cx="99.96" cy="33.38" r="1.85"/>
		<circle fill="#AEBDC4" cx="104.29" cy="33.38" r="1.85"/>
		<circle fill="#AEBDC4" cx="108.62" cy="33.38" r="1.85"/>
		<circle fill="#AEBDC4" cx="112.95" cy="33.38" r="1.85"/>
		<circle fill="#AEBDC4" cx="117.29" cy="33.38" r="1.85"/>
	</g>
	<g>
		<circle fill="#AEBDC4" cx="35.08" cy="27.45" r="1.85"/>
		<circle fill="#AEBDC4" cx="39.4" cy="27.45" r="1.85"/>
		<circle fill="#AEBDC4" cx="43.72" cy="27.45" r="1.85"/>
		<circle fill="#AEBDC4" cx="48.04" cy="27.45" r="1.85"/>
		<circle fill="#AEBDC4" cx="52.36" cy="27.45" r="1.85"/>
		<circle fill="#AEBDC4" cx="56.68" cy="27.45" r="1.85"/>
		<circle fill="#AEBDC4" cx="61.01" cy="27.45" r="1.85"/>
		<circle fill="#AEBDC4" cx="65.33" cy="27.45" r="1.85"/>
		<circle fill="#AEBDC4" cx="69.65" cy="27.45" r="1.85"/>
		<circle fill="#AEBDC4" cx="73.98" cy="27.45" r="1.85"/>
		<circle fill="#AEBDC4" cx="78.31" cy="27.45" r="1.85"/>
		<circle fill="#AEBDC4" cx="82.64" cy="27.45" r="1.85"/>
		<circle fill="#AEBDC4" cx="86.97" cy="27.45" r="1.85"/>
		<circle fill="#AEBDC4" cx="91.3" cy="27.45" r="1.85"/>
		<circle fill="#AEBDC4" cx="95.63" cy="27.45" r="1.85"/>
		<circle fill="#AEBDC4" cx="99.96" cy="27.45" r="1.85"/>
		<circle fill="#AEBDC4" cx="104.29" cy="27.45" r="1.85"/>
		<circle fill="#AEBDC4" cx="108.62" cy="27.45" r="1.85"/>
		<circle fill="#AEBDC4" cx="112.95" cy="27.45" r="1.85"/>
		<circle fill="#AEBDC4" cx="117.29" cy="27.45" r="1.85"/>
	</g>
	<g>
		<circle fill="#AEBDC4" cx="35.08" cy="21.52" r="1.85"/>
		<circle fill="#AEBDC4" cx="39.4" cy="21.52" r="1.85"/>
		<circle fill="#AEBDC4" cx="43.72" cy="21.52" r="1.85"/>
		<circle fill="#AEBDC4" cx="48.04" cy="21.52" r="1.85"/>
		<circle fill="#AEBDC4" cx="52.36" cy="21.52" r="1.85"/>
		<circle fill="#AEBDC4" cx="56.68" cy="21.52" r="1.85"/>
		<circle fill="#AEBDC4" cx="61.01" cy="21.52" r="1.85"/>
		<circle fill="#AEBDC4" cx="65.33" cy="21.52" r="1.85"/>
		<circle fill="#AEBDC4" cx="69.65" cy="21.52" r="1.85"/>
		<circle fill="#AEBDC4" cx="73.98" cy="21.52" r="1.85"/>
		<circle fill="#AEBDC4" cx="78.31" cy="21.52" r="1.85"/>
		<circle fill="#AEBDC4" cx="82.64" cy="21.52" r="1.85"/>
		<circle fill="#AEBDC4" cx="86.97" cy="21.52" r="1.85"/>
		<circle fill="#AEBDC4" cx="91.3" cy="21.52" r="1.85"/>
		<circle fill="#AEBDC4" cx="95.63" cy="21.52" r="1.85"/>
		<circle fill="#AEBDC4" cx="99.96" cy="21.52" r="1.85"/>
		<circle fill="#AEBDC4" cx="104.29" cy="21.52" r="1.85"/>
		<circle fill="#AEBDC4" cx="108.62" cy="21.52" r="1.85"/>
		<circle fill="#AEBDC4" cx="112.95" cy="21.52" r="1.85"/>
		<circle fill="#AEBDC4" cx="117.29" cy="21.52" r="1.85"/>
	</g>
	<g>
		<circle fill="#AEBDC4" cx="35.08" cy="15.59" r="1.85"/>
		<circle fill="#AEBDC4" cx="39.4" cy="15.59" r="1.85"/>
		<circle fill="#AEBDC4" cx="43.72" cy="15.59" r="1.85"/>
		<circle fill="#AEBDC4" cx="48.04" cy="15.59" r="1.85"/>
		<circle fill="#AEBDC4" cx="52.36" cy="15.59" r="1.85"/>
		<circle fill="#AEBDC4" cx="56.68" cy="15.59" r="1.85"/>
		<circle fill="#AEBDC4" cx="61.01" cy="15.59" r="1.85"/>
		<circle fill="#AEBDC4" cx="65.33" cy="15.59" r="1.85"/>
		<circle fill="#AEBDC4" cx="69.65" cy="15.59" r="1.85"/>
		<circle fill="#AEBDC4" cx="73.98" cy="15.59" r="1.85"/>
		<circle fill="#AEBDC4" cx="78.31" cy="15.59" r="1.85"/>
		<circle fill="#AEBDC4" cx="82.64" cy="15.59" r="1.85"/>
		<circle fill="#AEBDC4" cx="86.97" cy="15.59" r="1.85"/>
		<circle fill="#AEBDC4" cx="91.3" cy="15.59" r="1.85"/>
		<circle fill="#AEBDC4" cx="95.63" cy="15.59" r="1.85"/>
		<circle fill="#AEBDC4" cx="99.96" cy="15.59" r="1.85"/>
		<circle fill="#AEBDC4" cx="104.29" cy="15.59" r="1.85"/>
		<circle fill="#AEBDC4" cx="108.62" cy="15.59" r="1.85"/>
		<circle fill="#AEBDC4" cx="112.95" cy="15.59" r="1.85"/>
		<circle fill="#AEBDC4" cx="117.29" cy="15.59" r="1.85"/>
	</g>
	<g>
		<circle fill="#AEBDC4" cx="35.08" cy="9.66" r="1.85"/>
		<circle fill="#AEBDC4" cx="39.4" cy="9.66" r="1.85"/>
		<circle fill="#AEBDC4" cx="43.72" cy="9.66" r="1.85"/>
		<circle fill="#AEBDC4" cx="48.04" cy="9.66" r="1.85"/>
		<circle fill="#AEBDC4" cx="52.36" cy="9.66" r="1.85"/>
		<circle fill="#AEBDC4" cx="56.68" cy="9.66" r="1.85"/>
		<circle fill="#AEBDC4" cx="61.01" cy="9.66" r="1.85"/>
		<circle fill="#AEBDC4" cx="65.33" cy="9.66" r="1.85"/>
		<circle fill="#AEBDC4" cx="69.65" cy="9.66" r="1.85"/>
		<circle fill="#AEBDC4" cx="73.98" cy="9.66" r="1.85"/>
		<circle fill="#AEBDC4" cx="78.31" cy="9.66" r="1.85"/>
		<circle fill="#AEBDC4" cx="82.64" cy="9.66" r="1.85"/>
		<circle fill="#AEBDC4" cx="86.97" cy="9.66" r="1.85"/>
		<circle fill="#AEBDC4" cx="91.3" cy="9.66" r="1.85"/>
		<circle fill="#AEBDC4" cx="95.63" cy="9.66" r="1.85"/>
		<circle fill="#AEBDC4" cx="99.96" cy="9.66" r="1.85"/>
		<circle fill="#AEBDC4" cx="104.29" cy="9.66" r="1.85"/>
		<circle fill="#AEBDC4" cx="108.62" cy="9.66" r="1.85"/>
		<circle fill="#AEBDC4" cx="112.95" cy="9.66" r="1.85"/>
		<circle fill="#AEBDC4" cx="117.29" cy="9.66" r="1.85"/>
	</g>
</g>
</svg>
