<?xml version="1.0" encoding="utf-8"?>
<!-- Generator: Adobe Illustrator 23.0.1, SVG Export Plug-In . SVG Version: 6.00 Build 0)  -->
<svg version="1.1" id="Layer_1" xmlns="http://www.w3.org/2000/svg" xmlns:xlink="http://www.w3.org/1999/xlink" x="0px" y="0px"
	 viewBox="0 0 104 132" enable-background="new 0 0 104 132" xml:space="preserve">
<g onclick="this.parentNode.sekt.push(this);this.a_name=&quot;W 9 (низ)&quot;;">
	
		<polygon onclick="this.parentNode.a_fon=this;" fill="#F1F3F4" stroke="#BCC8CE" stroke-width="0.4" stroke-linecap="round" stroke-miterlimit="10" points="
		43.8,131.39 0.57,0.61 103.5,0.61 103.5,131.39 	"/>
	<g>
		<circle fill="#AEBDC4" cx="55.89" cy="122.34" r="1.85"/>
		<circle fill="#AEBDC4" cx="60.21" cy="122.34" r="1.85"/>
		<circle fill="#AEBDC4" cx="64.53" cy="122.34" r="1.85"/>
		<circle fill="#AEBDC4" cx="68.85" cy="122.34" r="1.85"/>
		<circle fill="#AEBDC4" cx="73.17" cy="122.34" r="1.85"/>
		<circle fill="#AEBDC4" cx="77.49" cy="122.34" r="1.85"/>
		<circle fill="#AEBDC4" cx="81.82" cy="122.34" r="1.85"/>
		<circle fill="#AEBDC4" cx="86.14" cy="122.34" r="1.85"/>
		<circle fill="#AEBDC4" cx="90.46" cy="122.34" r="1.85"/>
	</g>
	<g>
		<circle fill="#AEBDC4" cx="51.56" cy="116.41" r="1.85"/>
		<circle fill="#AEBDC4" cx="55.88" cy="116.41" r="1.85"/>
		<circle fill="#AEBDC4" cx="60.2" cy="116.41" r="1.85"/>
		<circle fill="#AEBDC4" cx="64.52" cy="116.41" r="1.85"/>
		<circle fill="#AEBDC4" cx="68.84" cy="116.41" r="1.85"/>
		<circle fill="#AEBDC4" cx="73.16" cy="116.41" r="1.85"/>
		<circle fill="#AEBDC4" cx="77.49" cy="116.41" r="1.85"/>
		<circle fill="#AEBDC4" cx="81.81" cy="116.41" r="1.85"/>
		<circle fill="#AEBDC4" cx="86.13" cy="116.41" r="1.85"/>
		<circle fill="#AEBDC4" cx="90.46" cy="116.41" r="1.85"/>
	</g>
	<g>
		<circle fill="#AEBDC4" cx="51.56" cy="110.48" r="1.85"/>
		<circle fill="#AEBDC4" cx="55.88" cy="110.48" r="1.85"/>
		<circle fill="#AEBDC4" cx="60.2" cy="110.48" r="1.85"/>
		<circle fill="#AEBDC4" cx="64.52" cy="110.48" r="1.85"/>
		<circle fill="#AEBDC4" cx="68.84" cy="110.48" r="1.85"/>
		<circle fill="#AEBDC4" cx="73.16" cy="110.48" r="1.85"/>
		<circle fill="#AEBDC4" cx="77.49" cy="110.48" r="1.85"/>
		<circle fill="#AEBDC4" cx="81.81" cy="110.48" r="1.85"/>
		<circle fill="#AEBDC4" cx="86.13" cy="110.48" r="1.85"/>
		<circle fill="#AEBDC4" cx="90.46" cy="110.48" r="1.85"/>
	</g>
	<g>
		<circle fill="#AEBDC4" cx="51.56" cy="104.55" r="1.85"/>
		<circle fill="#AEBDC4" cx="55.88" cy="104.55" r="1.85"/>
		<circle fill="#AEBDC4" cx="60.2" cy="104.55" r="1.85"/>
		<circle fill="#AEBDC4" cx="64.52" cy="104.55" r="1.85"/>
		<circle fill="#AEBDC4" cx="68.84" cy="104.55" r="1.85"/>
		<circle fill="#AEBDC4" cx="73.16" cy="104.55" r="1.85"/>
		<circle fill="#AEBDC4" cx="77.49" cy="104.55" r="1.85"/>
		<circle fill="#AEBDC4" cx="81.81" cy="104.55" r="1.85"/>
		<circle fill="#AEBDC4" cx="86.13" cy="104.55" r="1.85"/>
		<circle fill="#AEBDC4" cx="90.46" cy="104.55" r="1.85"/>
	</g>
	<g>
		<circle fill="#AEBDC4" cx="47.23" cy="98.62" r="1.85"/>
		<circle fill="#AEBDC4" cx="51.55" cy="98.62" r="1.85"/>
		<circle fill="#AEBDC4" cx="55.87" cy="98.62" r="1.85"/>
		<circle fill="#AEBDC4" cx="60.19" cy="98.62" r="1.85"/>
		<circle fill="#AEBDC4" cx="64.51" cy="98.62" r="1.85"/>
		<circle fill="#AEBDC4" cx="68.83" cy="98.62" r="1.85"/>
		<circle fill="#AEBDC4" cx="73.15" cy="98.62" r="1.85"/>
		<circle fill="#AEBDC4" cx="77.48" cy="98.62" r="1.85"/>
		<circle fill="#AEBDC4" cx="81.8" cy="98.62" r="1.85"/>
		<circle fill="#AEBDC4" cx="86.13" cy="98.62" r="1.85"/>
		<circle fill="#AEBDC4" cx="90.46" cy="98.62" r="1.85"/>
	</g>
	<g>
		<circle fill="#AEBDC4" cx="47.23" cy="92.69" r="1.85"/>
		<circle fill="#AEBDC4" cx="51.55" cy="92.69" r="1.85"/>
		<circle fill="#AEBDC4" cx="55.87" cy="92.69" r="1.85"/>
		<circle fill="#AEBDC4" cx="60.19" cy="92.69" r="1.85"/>
		<circle fill="#AEBDC4" cx="64.51" cy="92.69" r="1.85"/>
		<circle fill="#AEBDC4" cx="68.83" cy="92.69" r="1.85"/>
		<circle fill="#AEBDC4" cx="73.15" cy="92.69" r="1.85"/>
		<circle fill="#AEBDC4" cx="77.48" cy="92.69" r="1.85"/>
		<circle fill="#AEBDC4" cx="81.8" cy="92.69" r="1.85"/>
		<circle fill="#AEBDC4" cx="86.13" cy="92.69" r="1.85"/>
		<circle fill="#AEBDC4" cx="90.46" cy="92.69" r="1.85"/>
	</g>
	<g>
		<circle fill="#AEBDC4" cx="42.9" cy="86.76" r="1.85"/>
		<circle fill="#AEBDC4" cx="47.22" cy="86.76" r="1.85"/>
		<circle fill="#AEBDC4" cx="51.54" cy="86.76" r="1.85"/>
		<circle fill="#AEBDC4" cx="55.86" cy="86.76" r="1.85"/>
		<circle fill="#AEBDC4" cx="60.18" cy="86.76" r="1.85"/>
		<circle fill="#AEBDC4" cx="64.5" cy="86.76" r="1.85"/>
		<circle fill="#AEBDC4" cx="68.82" cy="86.76" r="1.85"/>
		<circle fill="#AEBDC4" cx="73.14" cy="86.76" r="1.85"/>
		<circle fill="#AEBDC4" cx="77.47" cy="86.76" r="1.85"/>
		<circle fill="#AEBDC4" cx="81.8" cy="86.76" r="1.85"/>
		<circle fill="#AEBDC4" cx="86.13" cy="86.76" r="1.85"/>
		<circle fill="#AEBDC4" cx="90.46" cy="86.76" r="1.85"/>
	</g>
	<g>
		<circle fill="#AEBDC4" cx="42.9" cy="80.83" r="1.85"/>
		<circle fill="#AEBDC4" cx="47.22" cy="80.83" r="1.85"/>
		<circle fill="#AEBDC4" cx="51.54" cy="80.83" r="1.85"/>
		<circle fill="#AEBDC4" cx="55.86" cy="80.83" r="1.85"/>
		<circle fill="#AEBDC4" cx="60.18" cy="80.83" r="1.85"/>
		<circle fill="#AEBDC4" cx="64.5" cy="80.83" r="1.85"/>
		<circle fill="#AEBDC4" cx="68.82" cy="80.83" r="1.85"/>
		<circle fill="#AEBDC4" cx="73.14" cy="80.83" r="1.85"/>
		<circle fill="#AEBDC4" cx="77.47" cy="80.83" r="1.85"/>
		<circle fill="#AEBDC4" cx="81.8" cy="80.83" r="1.85"/>
		<circle fill="#AEBDC4" cx="86.13" cy="80.83" r="1.85"/>
		<circle fill="#AEBDC4" cx="90.46" cy="80.83" r="1.85"/>
	</g>
	<g>
		<circle fill="#AEBDC4" cx="42.9" cy="74.89" r="1.85"/>
		<circle fill="#AEBDC4" cx="47.22" cy="74.89" r="1.85"/>
		<circle fill="#AEBDC4" cx="51.54" cy="74.89" r="1.85"/>
		<circle fill="#AEBDC4" cx="55.86" cy="74.89" r="1.85"/>
		<circle fill="#AEBDC4" cx="60.18" cy="74.89" r="1.85"/>
		<circle fill="#AEBDC4" cx="64.5" cy="74.89" r="1.85"/>
		<circle fill="#AEBDC4" cx="68.82" cy="74.89" r="1.85"/>
		<circle fill="#AEBDC4" cx="73.14" cy="74.89" r="1.85"/>
		<circle fill="#AEBDC4" cx="77.47" cy="74.89" r="1.85"/>
		<circle fill="#AEBDC4" cx="81.8" cy="74.89" r="1.85"/>
		<circle fill="#AEBDC4" cx="86.13" cy="74.89" r="1.85"/>
		<circle fill="#AEBDC4" cx="90.46" cy="74.89" r="1.85"/>
	</g>
	<g>
		<circle fill="#AEBDC4" cx="38.57" cy="68.96" r="1.85"/>
		<circle fill="#AEBDC4" cx="42.89" cy="68.96" r="1.85"/>
		<circle fill="#AEBDC4" cx="47.21" cy="68.96" r="1.85"/>
		<circle fill="#AEBDC4" cx="51.53" cy="68.96" r="1.85"/>
		<circle fill="#AEBDC4" cx="55.85" cy="68.96" r="1.85"/>
		<circle fill="#AEBDC4" cx="60.17" cy="68.96" r="1.85"/>
		<circle fill="#AEBDC4" cx="64.49" cy="68.96" r="1.85"/>
		<circle fill="#AEBDC4" cx="68.81" cy="68.96" r="1.85"/>
		<circle fill="#AEBDC4" cx="73.14" cy="68.96" r="1.85"/>
		<circle fill="#AEBDC4" cx="77.47" cy="68.96" r="1.85"/>
		<circle fill="#AEBDC4" cx="81.8" cy="68.96" r="1.85"/>
		<circle fill="#AEBDC4" cx="86.13" cy="68.96" r="1.85"/>
		<circle fill="#AEBDC4" cx="90.46" cy="68.96" r="1.85"/>
	</g>
	<g>
		<circle fill="#AEBDC4" cx="38.57" cy="63.03" r="1.85"/>
		<circle fill="#AEBDC4" cx="42.89" cy="63.03" r="1.85"/>
		<circle fill="#AEBDC4" cx="47.21" cy="63.03" r="1.85"/>
		<circle fill="#AEBDC4" cx="51.53" cy="63.03" r="1.85"/>
		<circle fill="#AEBDC4" cx="55.85" cy="63.03" r="1.85"/>
		<circle fill="#AEBDC4" cx="60.17" cy="63.03" r="1.85"/>
		<circle fill="#AEBDC4" cx="64.49" cy="63.03" r="1.85"/>
		<circle fill="#AEBDC4" cx="68.81" cy="63.03" r="1.85"/>
		<circle fill="#AEBDC4" cx="73.14" cy="63.03" r="1.85"/>
		<circle fill="#AEBDC4" cx="77.47" cy="63.03" r="1.85"/>
		<circle fill="#AEBDC4" cx="81.8" cy="63.03" r="1.85"/>
		<circle fill="#AEBDC4" cx="86.13" cy="63.03" r="1.85"/>
		<circle fill="#AEBDC4" cx="90.46" cy="63.03" r="1.85"/>
	</g>
	<g>
		<circle fill="#AEBDC4" cx="34.24" cy="57.1" r="1.85"/>
		<circle fill="#AEBDC4" cx="38.56" cy="57.1" r="1.85"/>
		<circle fill="#AEBDC4" cx="42.88" cy="57.1" r="1.85"/>
		<circle fill="#AEBDC4" cx="47.2" cy="57.1" r="1.85"/>
		<circle fill="#AEBDC4" cx="51.52" cy="57.1" r="1.85"/>
		<circle fill="#AEBDC4" cx="55.84" cy="57.1" r="1.85"/>
		<circle fill="#AEBDC4" cx="60.16" cy="57.1" r="1.85"/>
		<circle fill="#AEBDC4" cx="64.48" cy="57.1" r="1.85"/>
		<circle fill="#AEBDC4" cx="68.8" cy="57.1" r="1.85"/>
		<circle fill="#AEBDC4" cx="73.14" cy="57.1" r="1.85"/>
		<circle fill="#AEBDC4" cx="77.47" cy="57.1" r="1.85"/>
		<circle fill="#AEBDC4" cx="81.8" cy="57.1" r="1.85"/>
		<circle fill="#AEBDC4" cx="86.13" cy="57.1" r="1.85"/>
		<circle fill="#AEBDC4" cx="90.46" cy="57.1" r="1.85"/>
	</g>
	<g>
		<circle fill="#AEBDC4" cx="34.24" cy="51.17" r="1.85"/>
		<circle fill="#AEBDC4" cx="38.56" cy="51.17" r="1.85"/>
		<circle fill="#AEBDC4" cx="42.88" cy="51.17" r="1.85"/>
		<circle fill="#AEBDC4" cx="47.2" cy="51.17" r="1.85"/>
		<circle fill="#AEBDC4" cx="51.52" cy="51.17" r="1.85"/>
		<circle fill="#AEBDC4" cx="55.84" cy="51.17" r="1.85"/>
		<circle fill="#AEBDC4" cx="60.16" cy="51.17" r="1.85"/>
		<circle fill="#AEBDC4" cx="64.48" cy="51.17" r="1.85"/>
		<circle fill="#AEBDC4" cx="68.8" cy="51.17" r="1.85"/>
		<circle fill="#AEBDC4" cx="73.14" cy="51.17" r="1.85"/>
		<circle fill="#AEBDC4" cx="77.47" cy="51.17" r="1.85"/>
		<circle fill="#AEBDC4" cx="81.8" cy="51.17" r="1.85"/>
		<circle fill="#AEBDC4" cx="86.13" cy="51.17" r="1.85"/>
		<circle fill="#AEBDC4" cx="90.46" cy="51.17" r="1.85"/>
	</g>
	<g>
		<circle fill="#AEBDC4" cx="34.24" cy="45.24" r="1.85"/>
		<circle fill="#AEBDC4" cx="38.56" cy="45.24" r="1.85"/>
		<circle fill="#AEBDC4" cx="42.88" cy="45.24" r="1.85"/>
		<circle fill="#AEBDC4" cx="47.2" cy="45.24" r="1.85"/>
		<circle fill="#AEBDC4" cx="51.52" cy="45.24" r="1.85"/>
		<circle fill="#AEBDC4" cx="55.84" cy="45.24" r="1.85"/>
		<circle fill="#AEBDC4" cx="60.16" cy="45.24" r="1.85"/>
		<circle fill="#AEBDC4" cx="64.48" cy="45.24" r="1.85"/>
		<circle fill="#AEBDC4" cx="68.8" cy="45.24" r="1.85"/>
		<circle fill="#AEBDC4" cx="73.14" cy="45.24" r="1.85"/>
		<circle fill="#AEBDC4" cx="77.47" cy="45.24" r="1.85"/>
		<circle fill="#AEBDC4" cx="81.8" cy="45.24" r="1.85"/>
		<circle fill="#AEBDC4" cx="86.13" cy="45.24" r="1.85"/>
		<circle fill="#AEBDC4" cx="90.46" cy="45.24" r="1.85"/>
	</g>
	<g>
		<circle fill="#AEBDC4" cx="34.24" cy="39.31" r="1.85"/>
		<circle fill="#AEBDC4" cx="38.56" cy="39.31" r="1.85"/>
		<circle fill="#AEBDC4" cx="42.88" cy="39.31" r="1.85"/>
		<circle fill="#AEBDC4" cx="47.2" cy="39.31" r="1.85"/>
		<circle fill="#AEBDC4" cx="51.52" cy="39.31" r="1.85"/>
		<circle fill="#AEBDC4" cx="55.84" cy="39.31" r="1.85"/>
		<circle fill="#AEBDC4" cx="60.16" cy="39.31" r="1.85"/>
		<circle fill="#AEBDC4" cx="64.48" cy="39.31" r="1.85"/>
		<circle fill="#AEBDC4" cx="68.8" cy="39.31" r="1.85"/>
		<circle fill="#AEBDC4" cx="73.14" cy="39.31" r="1.85"/>
		<circle fill="#AEBDC4" cx="77.47" cy="39.31" r="1.85"/>
		<circle fill="#AEBDC4" cx="81.8" cy="39.31" r="1.85"/>
		<circle fill="#AEBDC4" cx="86.13" cy="39.31" r="1.85"/>
		<circle fill="#AEBDC4" cx="90.46" cy="39.31" r="1.85"/>
	</g>
	<g>
		<circle fill="#AEBDC4" cx="34.24" cy="33.38" r="1.85"/>
		<circle fill="#AEBDC4" cx="38.56" cy="33.38" r="1.85"/>
		<circle fill="#AEBDC4" cx="42.88" cy="33.38" r="1.85"/>
		<circle fill="#AEBDC4" cx="47.2" cy="33.38" r="1.85"/>
		<circle fill="#AEBDC4" cx="51.52" cy="33.38" r="1.85"/>
		<circle fill="#AEBDC4" cx="55.84" cy="33.38" r="1.85"/>
		<circle fill="#AEBDC4" cx="60.16" cy="33.38" r="1.85"/>
		<circle fill="#AEBDC4" cx="64.48" cy="33.38" r="1.85"/>
		<circle fill="#AEBDC4" cx="68.8" cy="33.38" r="1.85"/>
		<circle fill="#AEBDC4" cx="73.14" cy="33.38" r="1.85"/>
		<circle fill="#AEBDC4" cx="77.47" cy="33.38" r="1.85"/>
		<circle fill="#AEBDC4" cx="81.8" cy="33.38" r="1.85"/>
		<circle fill="#AEBDC4" cx="86.13" cy="33.38" r="1.85"/>
		<circle fill="#AEBDC4" cx="90.46" cy="33.38" r="1.85"/>
	</g>
	<g>
		<circle fill="#AEBDC4" cx="38.57" cy="27.45" r="1.85"/>
		<circle fill="#AEBDC4" cx="42.89" cy="27.45" r="1.85"/>
		<circle fill="#AEBDC4" cx="47.21" cy="27.45" r="1.85"/>
		<circle fill="#AEBDC4" cx="51.53" cy="27.45" r="1.85"/>
		<circle fill="#AEBDC4" cx="55.85" cy="27.45" r="1.85"/>
		<circle fill="#AEBDC4" cx="60.17" cy="27.45" r="1.85"/>
		<circle fill="#AEBDC4" cx="64.49" cy="27.45" r="1.85"/>
		<circle fill="#AEBDC4" cx="68.81" cy="27.45" r="1.85"/>
		<circle fill="#AEBDC4" cx="73.14" cy="27.45" r="1.85"/>
		<circle fill="#AEBDC4" cx="77.47" cy="27.45" r="1.85"/>
		<circle fill="#AEBDC4" cx="81.8" cy="27.45" r="1.85"/>
		<circle fill="#AEBDC4" cx="86.13" cy="27.45" r="1.85"/>
		<circle fill="#AEBDC4" cx="90.46" cy="27.45" r="1.85"/>
	</g>
	<g>
		<circle fill="#AEBDC4" cx="38.57" cy="21.52" r="1.85"/>
		<circle fill="#AEBDC4" cx="42.89" cy="21.52" r="1.85"/>
		<circle fill="#AEBDC4" cx="47.21" cy="21.52" r="1.85"/>
		<circle fill="#AEBDC4" cx="51.53" cy="21.52" r="1.85"/>
		<circle fill="#AEBDC4" cx="55.85" cy="21.52" r="1.85"/>
		<circle fill="#AEBDC4" cx="60.17" cy="21.52" r="1.85"/>
		<circle fill="#AEBDC4" cx="64.49" cy="21.52" r="1.85"/>
		<circle fill="#AEBDC4" cx="68.81" cy="21.52" r="1.85"/>
		<circle fill="#AEBDC4" cx="73.14" cy="21.52" r="1.85"/>
		<circle fill="#AEBDC4" cx="77.47" cy="21.52" r="1.85"/>
		<circle fill="#AEBDC4" cx="81.8" cy="21.52" r="1.85"/>
		<circle fill="#AEBDC4" cx="86.13" cy="21.52" r="1.85"/>
		<circle fill="#AEBDC4" cx="90.46" cy="21.52" r="1.85"/>
	</g>
	<g>
		<circle fill="#AEBDC4" cx="34.24" cy="15.59" r="1.85"/>
		<circle fill="#AEBDC4" cx="38.56" cy="15.59" r="1.85"/>
		<circle fill="#AEBDC4" cx="42.88" cy="15.59" r="1.85"/>
		<circle fill="#AEBDC4" cx="47.2" cy="15.59" r="1.85"/>
		<circle fill="#AEBDC4" cx="51.52" cy="15.59" r="1.85"/>
		<circle fill="#AEBDC4" cx="55.84" cy="15.59" r="1.85"/>
		<circle fill="#AEBDC4" cx="60.16" cy="15.59" r="1.85"/>
		<circle fill="#AEBDC4" cx="64.48" cy="15.59" r="1.85"/>
		<circle fill="#AEBDC4" cx="68.8" cy="15.59" r="1.85"/>
		<circle fill="#AEBDC4" cx="73.14" cy="15.59" r="1.85"/>
		<circle fill="#AEBDC4" cx="77.47" cy="15.59" r="1.85"/>
		<circle fill="#AEBDC4" cx="81.8" cy="15.59" r="1.85"/>
		<circle fill="#AEBDC4" cx="86.13" cy="15.59" r="1.85"/>
		<circle fill="#AEBDC4" cx="90.46" cy="15.59" r="1.85"/>
	</g>
	<g>
		<circle fill="#AEBDC4" cx="34.24" cy="9.66" r="1.85"/>
		<circle fill="#AEBDC4" cx="38.56" cy="9.66" r="1.85"/>
		<circle fill="#AEBDC4" cx="42.88" cy="9.66" r="1.85"/>
		<circle fill="#AEBDC4" cx="47.2" cy="9.66" r="1.85"/>
		<circle fill="#AEBDC4" cx="51.52" cy="9.66" r="1.85"/>
		<circle fill="#AEBDC4" cx="55.84" cy="9.66" r="1.85"/>
		<circle fill="#AEBDC4" cx="60.16" cy="9.66" r="1.85"/>
		<circle fill="#AEBDC4" cx="64.48" cy="9.66" r="1.85"/>
		<circle fill="#AEBDC4" cx="68.8" cy="9.66" r="1.85"/>
		<circle fill="#AEBDC4" cx="73.14" cy="9.66" r="1.85"/>
		<circle fill="#AEBDC4" cx="77.47" cy="9.66" r="1.85"/>
		<circle fill="#AEBDC4" cx="81.8" cy="9.66" r="1.85"/>
		<circle fill="#AEBDC4" cx="86.13" cy="9.66" r="1.85"/>
		<circle fill="#AEBDC4" cx="90.46" cy="9.66" r="1.85"/>
	</g>
</g>
</svg>
