<?xml version="1.0" encoding="utf-8"?>
<!-- Generator: Adobe Illustrator 23.0.1, SVG Export Plug-In . SVG Version: 6.00 Build 0)  -->
<svg version="1.1" id="Layer_1" xmlns="http://www.w3.org/2000/svg" xmlns:xlink="http://www.w3.org/1999/xlink" x="0px" y="0px"
	 width="104px" height="132px" viewBox="0 0 104 132" enable-background="new 0 0 104 132" xml:space="preserve">
<g onclick="this.parentNode.sekt.push(this);this.a_name=&quot;W 9 (низ)&quot;;">
	
		<polygon onclick="this.parentNode.a_fon=this;" fill="#F1F3F4" stroke="#BCC8CE" stroke-width="0.4" stroke-linecap="round" stroke-miterlimit="10" points="
		43.8,131.39 0.57,0.61 103.5,0.61 103.5,131.39 	"/>
	<g onclick="this.parentNode.a_row=this;">
		<g onclick="this.a_par={beg_namb:1,quant:9};">
			<line fill="none" stroke="#D3DBDF" stroke-width="0.4" stroke-miterlimit="10" x1="92.3" y1="122.34" x2="54.04" y2="122.34"/>
		</g>
		<g onclick="this.a_par={beg_namb:1,quant:10};">
			<line fill="none" stroke="#D3DBDF" stroke-width="0.4" stroke-miterlimit="10" x1="92.3" y1="116.41" x2="49.71" y2="116.41"/>
		</g>
		<g onclick="this.a_par={beg_namb:1,quant:10};">
			<line fill="none" stroke="#D3DBDF" stroke-width="0.4" stroke-miterlimit="10" x1="92.3" y1="110.48" x2="49.71" y2="110.48"/>
		</g>
		<g onclick="this.a_par={beg_namb:1,quant:10};">
			<line fill="none" stroke="#D3DBDF" stroke-width="0.4" stroke-miterlimit="10" x1="92.3" y1="104.55" x2="49.71" y2="104.55"/>
		</g>
		<g onclick="this.a_par={beg_namb:1,quant:11};">
			<line fill="none" stroke="#D3DBDF" stroke-width="0.4" stroke-miterlimit="10" x1="92.3" y1="98.62" x2="45.38" y2="98.62"/>
		</g>
		<g onclick="this.a_par={beg_namb:1,quant:11};">
			<line fill="none" stroke="#D3DBDF" stroke-width="0.4" stroke-miterlimit="10" x1="92.3" y1="92.69" x2="45.38" y2="92.69"/>
		</g>
		<g onclick="this.a_par={beg_namb:1,quant:12};">
			<line fill="none" stroke="#D3DBDF" stroke-width="0.4" stroke-miterlimit="10" x1="92.3" y1="86.76" x2="41.05" y2="86.76"/>
		</g>
		<g onclick="this.a_par={beg_namb:1,quant:12};">
			<line fill="none" stroke="#D3DBDF" stroke-width="0.4" stroke-miterlimit="10" x1="92.3" y1="80.83" x2="41.05" y2="80.83"/>
		</g>
		<g onclick="this.a_par={beg_namb:1,quant:12};">
			<line fill="none" stroke="#D3DBDF" stroke-width="0.4" stroke-miterlimit="10" x1="92.3" y1="74.89" x2="41.05" y2="74.89"/>
		</g>
		<g onclick="this.a_par={beg_namb:1,quant:13};">
			<line fill="none" stroke="#D3DBDF" stroke-width="0.4" stroke-miterlimit="10" x1="92.3" y1="68.96" x2="36.72" y2="68.96"/>
		</g>
		<g onclick="this.a_par={beg_namb:1,quant:13};">
			<line fill="none" stroke="#D3DBDF" stroke-width="0.4" stroke-miterlimit="10" x1="92.3" y1="63.03" x2="36.72" y2="63.03"/>
		</g>
		<g onclick="this.a_par={beg_namb:1,quant:14};">
			<line fill="none" stroke="#D3DBDF" stroke-width="0.4" stroke-miterlimit="10" x1="92.3" y1="57.1" x2="32.39" y2="57.1"/>
		</g>
		<g onclick="this.a_par={beg_namb:1,quant:14};">
			<line fill="none" stroke="#D3DBDF" stroke-width="0.4" stroke-miterlimit="10" x1="92.3" y1="51.17" x2="32.39" y2="51.17"/>
		</g>
		<g onclick="this.a_par={beg_namb:1,quant:14};">
			<line fill="none" stroke="#D3DBDF" stroke-width="0.4" stroke-miterlimit="10" x1="92.3" y1="45.24" x2="32.39" y2="45.24"/>
		</g>
		<g onclick="this.a_par={beg_namb:1,quant:14};">
			<line fill="none" stroke="#D3DBDF" stroke-width="0.4" stroke-miterlimit="10" x1="92.3" y1="39.31" x2="32.39" y2="39.31"/>
		</g>
		<g onclick="this.a_par={beg_namb:1,quant:14};">
			<line fill="none" stroke="#D3DBDF" stroke-width="0.4" stroke-miterlimit="10" x1="92.3" y1="33.38" x2="32.39" y2="33.38"/>
		</g>
		<g onclick="this.a_par={beg_namb:1,quant:13};">
			<line fill="none" stroke="#D3DBDF" stroke-width="0.4" stroke-miterlimit="10" x1="92.3" y1="27.45" x2="36.72" y2="27.45"/>
		</g>
		<g onclick="this.a_par={beg_namb:1,quant:13};">
			<line fill="none" stroke="#D3DBDF" stroke-width="0.4" stroke-miterlimit="10" x1="92.3" y1="21.52" x2="36.72" y2="21.52"/>
		</g>
		<g onclick="this.a_par={beg_namb:1,quant:14};">
			<line fill="none" stroke="#D3DBDF" stroke-width="0.4" stroke-miterlimit="10" x1="92.3" y1="15.59" x2="32.39" y2="15.59"/>
		</g>
		<g onclick="this.a_par={beg_namb:1,quant:14};">
			<line fill="none" stroke="#D3DBDF" stroke-width="0.4" stroke-miterlimit="10" x1="92.3" y1="9.66" x2="32.39" y2="9.66"/>
		</g>
	</g>
	<g>
		<g>
			<circle fill="#AEBDC4" cx="55.89" cy="122.34" r="1.85"/>
			<circle fill="#AEBDC4" cx="60.21" cy="122.34" r="1.85"/>
			<circle fill="#AEBDC4" cx="64.53" cy="122.34" r="1.85"/>
			<circle fill="#AEBDC4" cx="68.85" cy="122.34" r="1.85"/>
			<circle fill="#AEBDC4" cx="73.17" cy="122.34" r="1.85"/>
			<circle fill="#AEBDC4" cx="77.49" cy="122.34" r="1.85"/>
			<circle fill="#AEBDC4" cx="81.82" cy="122.34" r="1.85"/>
			<circle fill="#AEBDC4" cx="86.14" cy="122.34" r="1.85"/>
			<circle fill="#AEBDC4" cx="90.46" cy="122.34" r="1.85"/>
		</g>
		<g>
			<circle fill="#AEBDC4" cx="51.56" cy="116.41" r="1.85"/>
			<circle fill="#AEBDC4" cx="55.88" cy="116.41" r="1.85"/>
			<circle fill="#AEBDC4" cx="60.2" cy="116.41" r="1.85"/>
			<circle fill="#AEBDC4" cx="64.52" cy="116.41" r="1.85"/>
			<circle fill="#AEBDC4" cx="68.84" cy="116.41" r="1.85"/>
			<circle fill="#AEBDC4" cx="73.16" cy="116.41" r="1.85"/>
			<circle fill="#AEBDC4" cx="77.49" cy="116.41" r="1.85"/>
			<circle fill="#AEBDC4" cx="81.81" cy="116.41" r="1.85"/>
			<circle fill="#AEBDC4" cx="86.13" cy="116.41" r="1.85"/>
			<circle fill="#AEBDC4" cx="90.46" cy="116.41" r="1.85"/>
		</g>
		<g>
			<circle fill="#AEBDC4" cx="51.56" cy="110.48" r="1.85"/>
			<circle fill="#AEBDC4" cx="55.88" cy="110.48" r="1.85"/>
			<circle fill="#AEBDC4" cx="60.2" cy="110.48" r="1.85"/>
			<circle fill="#AEBDC4" cx="64.52" cy="110.48" r="1.85"/>
			<circle fill="#AEBDC4" cx="68.84" cy="110.48" r="1.85"/>
			<circle fill="#AEBDC4" cx="73.16" cy="110.48" r="1.85"/>
			<circle fill="#AEBDC4" cx="77.49" cy="110.48" r="1.85"/>
			<circle fill="#AEBDC4" cx="81.81" cy="110.48" r="1.85"/>
			<circle fill="#AEBDC4" cx="86.13" cy="110.48" r="1.85"/>
			<circle fill="#AEBDC4" cx="90.46" cy="110.48" r="1.85"/>
		</g>
		<g>
			<circle fill="#AEBDC4" cx="51.56" cy="104.55" r="1.85"/>
			<circle fill="#AEBDC4" cx="55.88" cy="104.55" r="1.85"/>
			<circle fill="#AEBDC4" cx="60.2" cy="104.55" r="1.85"/>
			<circle fill="#AEBDC4" cx="64.52" cy="104.55" r="1.85"/>
			<circle fill="#AEBDC4" cx="68.84" cy="104.55" r="1.85"/>
			<circle fill="#AEBDC4" cx="73.16" cy="104.55" r="1.85"/>
			<circle fill="#AEBDC4" cx="77.49" cy="104.55" r="1.85"/>
			<circle fill="#AEBDC4" cx="81.81" cy="104.55" r="1.85"/>
			<circle fill="#AEBDC4" cx="86.13" cy="104.55" r="1.85"/>
			<circle fill="#AEBDC4" cx="90.46" cy="104.55" r="1.85"/>
		</g>
		<g>
			<circle fill="#AEBDC4" cx="47.23" cy="98.62" r="1.85"/>
			<circle fill="#AEBDC4" cx="51.55" cy="98.62" r="1.85"/>
			<circle fill="#AEBDC4" cx="55.87" cy="98.62" r="1.85"/>
			<circle fill="#AEBDC4" cx="60.19" cy="98.62" r="1.85"/>
			<circle fill="#AEBDC4" cx="64.51" cy="98.62" r="1.85"/>
			<circle fill="#AEBDC4" cx="68.83" cy="98.62" r="1.85"/>
			<circle fill="#AEBDC4" cx="73.15" cy="98.62" r="1.85"/>
			<circle fill="#AEBDC4" cx="77.48" cy="98.62" r="1.85"/>
			<circle fill="#AEBDC4" cx="81.8" cy="98.62" r="1.85"/>
			<circle fill="#AEBDC4" cx="86.13" cy="98.62" r="1.85"/>
			<circle fill="#AEBDC4" cx="90.46" cy="98.62" r="1.85"/>
		</g>
		<g>
			<circle fill="#AEBDC4" cx="47.23" cy="92.69" r="1.85"/>
			<circle fill="#AEBDC4" cx="51.55" cy="92.69" r="1.85"/>
			<circle fill="#AEBDC4" cx="55.87" cy="92.69" r="1.85"/>
			<circle fill="#AEBDC4" cx="60.19" cy="92.69" r="1.85"/>
			<circle fill="#AEBDC4" cx="64.51" cy="92.69" r="1.85"/>
			<circle fill="#AEBDC4" cx="68.83" cy="92.69" r="1.85"/>
			<circle fill="#AEBDC4" cx="73.15" cy="92.69" r="1.85"/>
			<circle fill="#AEBDC4" cx="77.48" cy="92.69" r="1.85"/>
			<circle fill="#AEBDC4" cx="81.8" cy="92.69" r="1.85"/>
			<circle fill="#AEBDC4" cx="86.13" cy="92.69" r="1.85"/>
			<circle fill="#AEBDC4" cx="90.46" cy="92.69" r="1.85"/>
		</g>
		<g>
			<circle fill="#AEBDC4" cx="42.9" cy="86.76" r="1.85"/>
			<circle fill="#AEBDC4" cx="47.22" cy="86.76" r="1.85"/>
			<circle fill="#AEBDC4" cx="51.54" cy="86.76" r="1.85"/>
			<circle fill="#AEBDC4" cx="55.86" cy="86.76" r="1.85"/>
			<circle fill="#AEBDC4" cx="60.18" cy="86.76" r="1.85"/>
			<circle fill="#AEBDC4" cx="64.5" cy="86.76" r="1.85"/>
			<circle fill="#AEBDC4" cx="68.82" cy="86.76" r="1.85"/>
			<circle fill="#AEBDC4" cx="73.14" cy="86.76" r="1.85"/>
			<circle fill="#AEBDC4" cx="77.47" cy="86.76" r="1.85"/>
			<circle fill="#AEBDC4" cx="81.8" cy="86.76" r="1.85"/>
			<circle fill="#AEBDC4" cx="86.13" cy="86.76" r="1.85"/>
			<circle fill="#AEBDC4" cx="90.46" cy="86.76" r="1.85"/>
		</g>
		<g>
			<circle fill="#AEBDC4" cx="42.9" cy="80.83" r="1.85"/>
			<circle fill="#AEBDC4" cx="47.22" cy="80.83" r="1.85"/>
			<circle fill="#AEBDC4" cx="51.54" cy="80.83" r="1.85"/>
			<circle fill="#AEBDC4" cx="55.86" cy="80.83" r="1.85"/>
			<circle fill="#AEBDC4" cx="60.18" cy="80.83" r="1.85"/>
			<circle fill="#AEBDC4" cx="64.5" cy="80.83" r="1.85"/>
			<circle fill="#AEBDC4" cx="68.82" cy="80.83" r="1.85"/>
			<circle fill="#AEBDC4" cx="73.14" cy="80.83" r="1.85"/>
			<circle fill="#AEBDC4" cx="77.47" cy="80.83" r="1.85"/>
			<circle fill="#AEBDC4" cx="81.8" cy="80.83" r="1.85"/>
			<circle fill="#AEBDC4" cx="86.13" cy="80.83" r="1.85"/>
			<circle fill="#AEBDC4" cx="90.46" cy="80.83" r="1.85"/>
		</g>
		<g>
			<circle fill="#AEBDC4" cx="42.9" cy="74.89" r="1.85"/>
			<circle fill="#AEBDC4" cx="47.22" cy="74.89" r="1.85"/>
			<circle fill="#AEBDC4" cx="51.54" cy="74.89" r="1.85"/>
			<circle fill="#AEBDC4" cx="55.86" cy="74.89" r="1.85"/>
			<circle fill="#AEBDC4" cx="60.18" cy="74.89" r="1.85"/>
			<circle fill="#AEBDC4" cx="64.5" cy="74.89" r="1.85"/>
			<circle fill="#AEBDC4" cx="68.82" cy="74.89" r="1.85"/>
			<circle fill="#AEBDC4" cx="73.14" cy="74.89" r="1.85"/>
			<circle fill="#AEBDC4" cx="77.47" cy="74.89" r="1.85"/>
			<circle fill="#AEBDC4" cx="81.8" cy="74.89" r="1.85"/>
			<circle fill="#AEBDC4" cx="86.13" cy="74.89" r="1.85"/>
			<circle fill="#AEBDC4" cx="90.46" cy="74.89" r="1.85"/>
		</g>
		<g>
			<circle fill="#AEBDC4" cx="38.57" cy="27.45" r="1.85"/>
			<circle fill="#AEBDC4" cx="42.89" cy="27.45" r="1.85"/>
			<circle fill="#AEBDC4" cx="47.21" cy="27.45" r="1.85"/>
			<circle fill="#AEBDC4" cx="51.53" cy="27.45" r="1.85"/>
			<circle fill="#AEBDC4" cx="55.85" cy="27.45" r="1.85"/>
			<circle fill="#AEBDC4" cx="60.17" cy="27.45" r="1.85"/>
			<circle fill="#AEBDC4" cx="64.49" cy="27.45" r="1.85"/>
			<circle fill="#AEBDC4" cx="68.81" cy="27.45" r="1.85"/>
			<circle fill="#AEBDC4" cx="73.14" cy="27.45" r="1.85"/>
			<circle fill="#AEBDC4" cx="77.47" cy="27.45" r="1.85"/>
			<circle fill="#AEBDC4" cx="81.8" cy="27.45" r="1.85"/>
			<circle fill="#AEBDC4" cx="86.13" cy="27.45" r="1.85"/>
			<circle fill="#AEBDC4" cx="90.46" cy="27.45" r="1.85"/>
		</g>
		<g>
			<circle fill="#AEBDC4" cx="38.57" cy="21.52" r="1.85"/>
			<circle fill="#AEBDC4" cx="42.89" cy="21.52" r="1.85"/>
			<circle fill="#AEBDC4" cx="47.21" cy="21.52" r="1.85"/>
			<circle fill="#AEBDC4" cx="51.53" cy="21.52" r="1.85"/>
			<circle fill="#AEBDC4" cx="55.85" cy="21.52" r="1.85"/>
			<circle fill="#AEBDC4" cx="60.17" cy="21.52" r="1.85"/>
			<circle fill="#AEBDC4" cx="64.49" cy="21.52" r="1.85"/>
			<circle fill="#AEBDC4" cx="68.81" cy="21.52" r="1.85"/>
			<circle fill="#AEBDC4" cx="73.14" cy="21.52" r="1.85"/>
			<circle fill="#AEBDC4" cx="77.47" cy="21.52" r="1.85"/>
			<circle fill="#AEBDC4" cx="81.8" cy="21.52" r="1.85"/>
			<circle fill="#AEBDC4" cx="86.13" cy="21.52" r="1.85"/>
			<circle fill="#AEBDC4" cx="90.46" cy="21.52" r="1.85"/>
		</g>
		<g>
			<circle fill="#AEBDC4" cx="34.24" cy="9.66" r="1.85"/>
			<circle fill="#AEBDC4" cx="38.56" cy="9.66" r="1.85"/>
			<circle fill="#AEBDC4" cx="42.88" cy="9.66" r="1.85"/>
			<circle fill="#AEBDC4" cx="47.2" cy="9.66" r="1.85"/>
			<circle fill="#AEBDC4" cx="51.52" cy="9.66" r="1.85"/>
			<circle fill="#AEBDC4" cx="55.84" cy="9.66" r="1.85"/>
			<circle fill="#AEBDC4" cx="60.16" cy="9.66" r="1.85"/>
			<circle fill="#AEBDC4" cx="64.48" cy="9.66" r="1.85"/>
			<circle fill="#AEBDC4" cx="68.8" cy="9.66" r="1.85"/>
			<circle fill="#AEBDC4" cx="73.14" cy="9.66" r="1.85"/>
			<circle fill="#AEBDC4" cx="77.47" cy="9.66" r="1.85"/>
			<circle fill="#AEBDC4" cx="81.8" cy="9.66" r="1.85"/>
			<circle fill="#AEBDC4" cx="86.13" cy="9.66" r="1.85"/>
			<circle fill="#AEBDC4" cx="90.46" cy="9.66" r="1.85"/>
		</g>
		<g>
			<circle fill="#AEBDC4" cx="34.24" cy="15.59" r="1.85"/>
			<circle fill="#AEBDC4" cx="38.56" cy="15.59" r="1.85"/>
			<circle fill="#AEBDC4" cx="42.88" cy="15.59" r="1.85"/>
			<circle fill="#AEBDC4" cx="47.2" cy="15.59" r="1.85"/>
			<circle fill="#AEBDC4" cx="51.52" cy="15.59" r="1.85"/>
			<circle fill="#AEBDC4" cx="55.84" cy="15.59" r="1.85"/>
			<circle fill="#AEBDC4" cx="60.16" cy="15.59" r="1.85"/>
			<circle fill="#AEBDC4" cx="64.48" cy="15.59" r="1.85"/>
			<circle fill="#AEBDC4" cx="68.8" cy="15.59" r="1.85"/>
			<circle fill="#AEBDC4" cx="73.14" cy="15.59" r="1.85"/>
			<circle fill="#AEBDC4" cx="77.47" cy="15.59" r="1.85"/>
			<circle fill="#AEBDC4" cx="81.8" cy="15.59" r="1.85"/>
			<circle fill="#AEBDC4" cx="86.13" cy="15.59" r="1.85"/>
			<circle fill="#AEBDC4" cx="90.46" cy="15.59" r="1.85"/>
		</g>
		<g>
			<circle fill="#AEBDC4" cx="34.24" cy="33.38" r="1.85"/>
			<circle fill="#AEBDC4" cx="38.56" cy="33.38" r="1.85"/>
			<circle fill="#AEBDC4" cx="42.88" cy="33.38" r="1.85"/>
			<circle fill="#AEBDC4" cx="47.2" cy="33.38" r="1.85"/>
			<circle fill="#AEBDC4" cx="51.52" cy="33.38" r="1.85"/>
			<circle fill="#AEBDC4" cx="55.84" cy="33.38" r="1.85"/>
			<circle fill="#AEBDC4" cx="60.16" cy="33.38" r="1.85"/>
			<circle fill="#AEBDC4" cx="64.48" cy="33.38" r="1.85"/>
			<circle fill="#AEBDC4" cx="68.8" cy="33.38" r="1.85"/>
			<circle fill="#AEBDC4" cx="73.14" cy="33.38" r="1.85"/>
			<circle fill="#AEBDC4" cx="77.47" cy="33.38" r="1.85"/>
			<circle fill="#AEBDC4" cx="81.8" cy="33.38" r="1.85"/>
			<circle fill="#AEBDC4" cx="86.13" cy="33.38" r="1.85"/>
			<circle fill="#AEBDC4" cx="90.46" cy="33.38" r="1.85"/>
		</g>
		<g>
			<circle fill="#AEBDC4" cx="34.24" cy="39.31" r="1.85"/>
			<circle fill="#AEBDC4" cx="38.56" cy="39.31" r="1.85"/>
			<circle fill="#AEBDC4" cx="42.88" cy="39.31" r="1.85"/>
			<circle fill="#AEBDC4" cx="47.2" cy="39.31" r="1.85"/>
			<circle fill="#AEBDC4" cx="51.52" cy="39.31" r="1.85"/>
			<circle fill="#AEBDC4" cx="55.84" cy="39.31" r="1.85"/>
			<circle fill="#AEBDC4" cx="60.16" cy="39.31" r="1.85"/>
			<circle fill="#AEBDC4" cx="64.48" cy="39.31" r="1.85"/>
			<circle fill="#AEBDC4" cx="68.8" cy="39.31" r="1.85"/>
			<circle fill="#AEBDC4" cx="73.14" cy="39.31" r="1.85"/>
			<circle fill="#AEBDC4" cx="77.47" cy="39.31" r="1.85"/>
			<circle fill="#AEBDC4" cx="81.8" cy="39.31" r="1.85"/>
			<circle fill="#AEBDC4" cx="86.13" cy="39.31" r="1.85"/>
			<circle fill="#AEBDC4" cx="90.46" cy="39.31" r="1.85"/>
		</g>
		<g>
			<circle fill="#AEBDC4" cx="34.24" cy="57.1" r="1.85"/>
			<circle fill="#AEBDC4" cx="38.56" cy="57.1" r="1.85"/>
			<circle fill="#AEBDC4" cx="42.88" cy="57.1" r="1.85"/>
			<circle fill="#AEBDC4" cx="47.2" cy="57.1" r="1.85"/>
			<circle fill="#AEBDC4" cx="51.52" cy="57.1" r="1.85"/>
			<circle fill="#AEBDC4" cx="55.84" cy="57.1" r="1.85"/>
			<circle fill="#AEBDC4" cx="60.16" cy="57.1" r="1.85"/>
			<circle fill="#AEBDC4" cx="64.48" cy="57.1" r="1.85"/>
			<circle fill="#AEBDC4" cx="68.8" cy="57.1" r="1.85"/>
			<circle fill="#AEBDC4" cx="73.14" cy="57.1" r="1.85"/>
			<circle fill="#AEBDC4" cx="77.47" cy="57.1" r="1.85"/>
			<circle fill="#AEBDC4" cx="81.8" cy="57.1" r="1.85"/>
			<circle fill="#AEBDC4" cx="86.13" cy="57.1" r="1.85"/>
			<circle fill="#AEBDC4" cx="90.46" cy="57.1" r="1.85"/>
		</g>
		<g>
			<circle fill="#AEBDC4" cx="34.24" cy="51.17" r="1.85"/>
			<circle fill="#AEBDC4" cx="38.56" cy="51.17" r="1.85"/>
			<circle fill="#AEBDC4" cx="42.88" cy="51.17" r="1.85"/>
			<circle fill="#AEBDC4" cx="47.2" cy="51.17" r="1.85"/>
			<circle fill="#AEBDC4" cx="51.52" cy="51.17" r="1.85"/>
			<circle fill="#AEBDC4" cx="55.84" cy="51.17" r="1.85"/>
			<circle fill="#AEBDC4" cx="60.16" cy="51.17" r="1.85"/>
			<circle fill="#AEBDC4" cx="64.48" cy="51.17" r="1.85"/>
			<circle fill="#AEBDC4" cx="68.8" cy="51.17" r="1.85"/>
			<circle fill="#AEBDC4" cx="73.14" cy="51.17" r="1.85"/>
			<circle fill="#AEBDC4" cx="77.47" cy="51.17" r="1.85"/>
			<circle fill="#AEBDC4" cx="81.8" cy="51.17" r="1.85"/>
			<circle fill="#AEBDC4" cx="86.13" cy="51.17" r="1.85"/>
			<circle fill="#AEBDC4" cx="90.46" cy="51.17" r="1.85"/>
		</g>
		<g>
			<circle fill="#AEBDC4" cx="34.24" cy="45.24" r="1.85"/>
			<circle fill="#AEBDC4" cx="38.56" cy="45.24" r="1.85"/>
			<circle fill="#AEBDC4" cx="42.88" cy="45.24" r="1.85"/>
			<circle fill="#AEBDC4" cx="47.2" cy="45.24" r="1.85"/>
			<circle fill="#AEBDC4" cx="51.52" cy="45.24" r="1.85"/>
			<circle fill="#AEBDC4" cx="55.84" cy="45.24" r="1.85"/>
			<circle fill="#AEBDC4" cx="60.16" cy="45.24" r="1.85"/>
			<circle fill="#AEBDC4" cx="64.48" cy="45.24" r="1.85"/>
			<circle fill="#AEBDC4" cx="68.8" cy="45.24" r="1.85"/>
			<circle fill="#AEBDC4" cx="73.14" cy="45.24" r="1.85"/>
			<circle fill="#AEBDC4" cx="77.47" cy="45.24" r="1.85"/>
			<circle fill="#AEBDC4" cx="81.8" cy="45.24" r="1.85"/>
			<circle fill="#AEBDC4" cx="86.13" cy="45.24" r="1.85"/>
			<circle fill="#AEBDC4" cx="90.46" cy="45.24" r="1.85"/>
		</g>
		<g>
			<circle fill="#AEBDC4" cx="38.57" cy="63.03" r="1.85"/>
			<circle fill="#AEBDC4" cx="42.89" cy="63.03" r="1.85"/>
			<circle fill="#AEBDC4" cx="47.21" cy="63.03" r="1.85"/>
			<circle fill="#AEBDC4" cx="51.53" cy="63.03" r="1.85"/>
			<circle fill="#AEBDC4" cx="55.85" cy="63.03" r="1.85"/>
			<circle fill="#AEBDC4" cx="60.17" cy="63.03" r="1.85"/>
			<circle fill="#AEBDC4" cx="64.49" cy="63.03" r="1.85"/>
			<circle fill="#AEBDC4" cx="68.81" cy="63.03" r="1.85"/>
			<circle fill="#AEBDC4" cx="73.14" cy="63.03" r="1.85"/>
			<circle fill="#AEBDC4" cx="77.47" cy="63.03" r="1.85"/>
			<circle fill="#AEBDC4" cx="81.8" cy="63.03" r="1.85"/>
			<circle fill="#AEBDC4" cx="86.13" cy="63.03" r="1.85"/>
			<circle fill="#AEBDC4" cx="90.46" cy="63.03" r="1.85"/>
		</g>
		<g>
			<circle fill="#AEBDC4" cx="38.57" cy="68.96" r="1.85"/>
			<circle fill="#AEBDC4" cx="42.89" cy="68.96" r="1.85"/>
			<circle fill="#AEBDC4" cx="47.21" cy="68.96" r="1.85"/>
			<circle fill="#AEBDC4" cx="51.53" cy="68.96" r="1.85"/>
			<circle fill="#AEBDC4" cx="55.85" cy="68.96" r="1.85"/>
			<circle fill="#AEBDC4" cx="60.17" cy="68.96" r="1.85"/>
			<circle fill="#AEBDC4" cx="64.49" cy="68.96" r="1.85"/>
			<circle fill="#AEBDC4" cx="68.81" cy="68.96" r="1.85"/>
			<circle fill="#AEBDC4" cx="73.14" cy="68.96" r="1.85"/>
			<circle fill="#AEBDC4" cx="77.47" cy="68.96" r="1.85"/>
			<circle fill="#AEBDC4" cx="81.8" cy="68.96" r="1.85"/>
			<circle fill="#AEBDC4" cx="86.13" cy="68.96" r="1.85"/>
			<circle fill="#AEBDC4" cx="90.46" cy="68.96" r="1.85"/>
		</g>
	</g>
	<g onclick="this.parentNode.a_text=this;">
		<text transform="matrix(0.9999 0 0 1 60.4941 88.3296)"><tspan x="0" y="0" font-family="'OpenSans-Semibold'" font-size="6.3996px">W 9</tspan><tspan x="-2.48" y="7.2" font-family="'OpenSans-Semibold'" font-size="6.3996px">(</tspan><tspan x="-0.44" y="7.2" font-family="'OpenSans-Semibold'" font-size="6.3996px">н</tspan><tspan x="3.91" y="7.2" font-family="'OpenSans-Semibold'" font-size="6.3996px">и</tspan><tspan x="8.47" y="7.2" font-family="'OpenSans-Semibold'" font-size="6.3996px">з</tspan><tspan x="11.82" y="7.2" font-family="'OpenSans-Semibold'" font-size="6.3996px">)</tspan></text>
	</g>
</g>
</svg>
