<?xml version="1.0" encoding="utf-8"?>
<!-- Generator: Adobe Illustrator 23.0.1, SVG Export Plug-In . SVG Version: 6.00 Build 0)  -->
<svg version="1.1" id="Layer_1" xmlns="http://www.w3.org/2000/svg" xmlns:xlink="http://www.w3.org/1999/xlink" x="0px" y="0px"
	 width="66px" height="136px" viewBox="0 0 66 136" enable-background="new 0 0 66 136" xml:space="preserve">
<g onclick="this.parentNode.sekt.push(this);this.a_name=&quot;W 9 (верх)&quot;;">
	
		<polygon onclick="this.parentNode.a_fon=this;" fill="#F1F3F4" stroke="#BCC8CE" stroke-width="0.4" stroke-linecap="round" stroke-miterlimit="10" points="
		0.47,135.3 0.47,24.22 65.53,0.79 65.53,135.3 	"/>
	<g onclick="this.parentNode.a_row=this;">
		<g onclick="this.a_par={beg_namb:1,quant:10};">
			<line fill="none" stroke="#D3DBDF" stroke-width="0.4" stroke-miterlimit="10" x1="54.26" y1="114.39" x2="11.67" y2="114.39"/>
		</g>
		<g onclick="this.a_par={beg_namb:1,quant:4};">
			<line fill="none" stroke="#D3DBDF" stroke-width="0.4" stroke-miterlimit="10" x1="28.32" y1="120.32" x2="11.67" y2="120.32"/>
		</g>
		<g onclick="this.a_par={beg_namb:1,quant:4};">
			<line fill="none" stroke="#D3DBDF" stroke-width="0.4" stroke-miterlimit="10" x1="28.32" y1="126.25" x2="11.67" y2="126.25"/>
		</g>
		<g onclick="this.a_par={beg_namb:1,quant:10};">
			<line fill="none" stroke="#D3DBDF" stroke-width="0.4" stroke-miterlimit="10" x1="54.26" y1="108.46" x2="11.67" y2="108.46"/>
		</g>
		<g onclick="this.a_par={beg_namb:1,quant:10};">
			<line fill="none" stroke="#D3DBDF" stroke-width="0.4" stroke-miterlimit="10" x1="54.26" y1="102.53" x2="11.67" y2="102.53"/>
		</g>
		<g onclick="this.a_par={beg_namb:1,quant:8};">
			<line fill="none" stroke="#D3DBDF" stroke-width="0.4" stroke-miterlimit="10" x1="45.61" y1="96.6" x2="11.67" y2="96.6"/>
		</g>
		<g onclick="this.a_par={beg_namb:1,quant:8};">
			<line fill="none" stroke="#D3DBDF" stroke-width="0.4" stroke-miterlimit="10" x1="45.61" y1="90.67" x2="11.67" y2="90.67"/>
		</g>
		<g onclick="this.a_par={beg_namb:1,quant:8};">
			<line fill="none" stroke="#D3DBDF" stroke-width="0.4" stroke-miterlimit="10" x1="45.61" y1="84.74" x2="11.67" y2="84.74"/>
		</g>
		<g onclick="this.a_par={beg_namb:1,quant:8};">
			<line fill="none" stroke="#D3DBDF" stroke-width="0.4" stroke-miterlimit="10" x1="45.61" y1="78.8" x2="11.67" y2="78.8"/>
		</g>
		<g onclick="this.a_par={beg_namb:1,quant:8};">
			<line fill="none" stroke="#D3DBDF" stroke-width="0.4" stroke-miterlimit="10" x1="45.61" y1="72.87" x2="11.67" y2="72.87"/>
		</g>
		<g onclick="this.a_par={beg_namb:1,quant:10};">
			<line fill="none" stroke="#D3DBDF" stroke-width="0.4" stroke-miterlimit="10" x1="54.26" y1="66.94" x2="11.67" y2="66.94"/>
		</g>
		<g onclick="this.a_par={beg_namb:1,quant:10};">
			<line fill="none" stroke="#D3DBDF" stroke-width="0.4" stroke-miterlimit="10" x1="54.26" y1="61.01" x2="11.67" y2="61.01"/>
		</g>
		<g onclick="this.a_par={beg_namb:1,quant:10};">
			<line fill="none" stroke="#D3DBDF" stroke-width="0.4" stroke-miterlimit="10" x1="54.26" y1="55.08" x2="11.67" y2="55.08"/>
		</g>
		<g onclick="this.a_par={beg_namb:1,quant:10};">
			<line fill="none" stroke="#D3DBDF" stroke-width="0.4" stroke-miterlimit="10" x1="54.26" y1="49.15" x2="11.67" y2="49.15"/>
		</g>
		<g onclick="this.a_par={beg_namb:1,quant:8};">
			<line fill="none" stroke="#D3DBDF" stroke-width="0.4" stroke-miterlimit="10" x1="45.61" y1="43.22" x2="11.67" y2="43.22"/>
		</g>
		<g onclick="this.a_par={beg_namb:1,quant:5};">
			<line fill="none" stroke="#D3DBDF" stroke-width="0.4" stroke-miterlimit="10" x1="32.64" y1="37.29" x2="11.67" y2="37.29"/>
		</g>
		<g onclick="this.a_par={beg_namb:1,quant:3};">
			<line fill="none" stroke="#D3DBDF" stroke-width="0.4" stroke-miterlimit="10" x1="24.02" y1="31.36" x2="11.67" y2="31.36"/>
		</g>
	</g>
	<g>
		<g>
			<circle fill="#AEBDC4" cx="13.52" cy="31.36" r="1.85"/>
			<circle fill="#AEBDC4" cx="17.84" cy="31.36" r="1.85"/>
			<circle fill="#AEBDC4" cx="22.17" cy="31.36" r="1.85"/>
		</g>
		<g>
			<circle fill="#AEBDC4" cx="13.51" cy="126.25" r="1.85"/>
			<circle fill="#AEBDC4" cx="17.83" cy="126.25" r="1.85"/>
			<circle fill="#AEBDC4" cx="22.16" cy="126.25" r="1.85"/>
			<circle fill="#AEBDC4" cx="26.48" cy="126.25" r="1.85"/>
		</g>
		<g>
			<circle fill="#AEBDC4" cx="13.51" cy="120.32" r="1.85"/>
			<circle fill="#AEBDC4" cx="17.83" cy="120.32" r="1.85"/>
			<circle fill="#AEBDC4" cx="22.16" cy="120.32" r="1.85"/>
			<circle fill="#AEBDC4" cx="26.48" cy="120.32" r="1.85"/>
		</g>
		<g>
			<circle fill="#AEBDC4" cx="13.51" cy="37.29" r="1.85"/>
			<circle fill="#AEBDC4" cx="17.83" cy="37.29" r="1.85"/>
			<circle fill="#AEBDC4" cx="22.16" cy="37.29" r="1.85"/>
			<circle fill="#AEBDC4" cx="26.48" cy="37.29" r="1.85"/>
			<circle fill="#AEBDC4" cx="30.8" cy="37.29" r="1.85"/>
		</g>
		<g>
			<circle fill="#AEBDC4" cx="13.51" cy="43.22" r="1.85"/>
			<circle fill="#AEBDC4" cx="17.83" cy="43.22" r="1.85"/>
			<circle fill="#AEBDC4" cx="22.16" cy="43.22" r="1.85"/>
			<circle fill="#AEBDC4" cx="26.48" cy="43.22" r="1.85"/>
			<circle fill="#AEBDC4" cx="30.8" cy="43.22" r="1.85"/>
			<circle fill="#AEBDC4" cx="35.12" cy="43.22" r="1.85"/>
			<circle fill="#AEBDC4" cx="39.44" cy="43.22" r="1.85"/>
			<circle fill="#AEBDC4" cx="43.76" cy="43.22" r="1.85"/>
		</g>
		<g>
			<circle fill="#AEBDC4" cx="13.51" cy="72.87" r="1.85"/>
			<circle fill="#AEBDC4" cx="17.83" cy="72.87" r="1.85"/>
			<circle fill="#AEBDC4" cx="22.16" cy="72.87" r="1.85"/>
			<circle fill="#AEBDC4" cx="26.48" cy="72.87" r="1.85"/>
			<circle fill="#AEBDC4" cx="30.8" cy="72.87" r="1.85"/>
			<circle fill="#AEBDC4" cx="35.12" cy="72.87" r="1.85"/>
			<circle fill="#AEBDC4" cx="39.44" cy="72.87" r="1.85"/>
			<circle fill="#AEBDC4" cx="43.76" cy="72.87" r="1.85"/>
		</g>
		<g>
			<circle fill="#AEBDC4" cx="13.51" cy="78.8" r="1.85"/>
			<circle fill="#AEBDC4" cx="17.83" cy="78.8" r="1.85"/>
			<circle fill="#AEBDC4" cx="22.16" cy="78.8" r="1.85"/>
			<circle fill="#AEBDC4" cx="26.48" cy="78.8" r="1.85"/>
			<circle fill="#AEBDC4" cx="30.8" cy="78.8" r="1.85"/>
			<circle fill="#AEBDC4" cx="35.12" cy="78.8" r="1.85"/>
			<circle fill="#AEBDC4" cx="39.44" cy="78.8" r="1.85"/>
			<circle fill="#AEBDC4" cx="43.76" cy="78.8" r="1.85"/>
		</g>
		<g>
			<circle fill="#AEBDC4" cx="13.51" cy="84.74" r="1.85"/>
			<circle fill="#AEBDC4" cx="17.83" cy="84.74" r="1.85"/>
			<circle fill="#AEBDC4" cx="22.16" cy="84.74" r="1.85"/>
			<circle fill="#AEBDC4" cx="26.48" cy="84.74" r="1.85"/>
			<circle fill="#AEBDC4" cx="30.8" cy="84.74" r="1.85"/>
			<circle fill="#AEBDC4" cx="35.12" cy="84.74" r="1.85"/>
			<circle fill="#AEBDC4" cx="39.44" cy="84.74" r="1.85"/>
			<circle fill="#AEBDC4" cx="43.76" cy="84.74" r="1.85"/>
		</g>
		<g>
			<circle fill="#AEBDC4" cx="13.51" cy="90.67" r="1.85"/>
			<circle fill="#AEBDC4" cx="17.83" cy="90.67" r="1.85"/>
			<circle fill="#AEBDC4" cx="22.16" cy="90.67" r="1.85"/>
			<circle fill="#AEBDC4" cx="26.48" cy="90.67" r="1.85"/>
			<circle fill="#AEBDC4" cx="30.8" cy="90.67" r="1.85"/>
			<circle fill="#AEBDC4" cx="35.12" cy="90.67" r="1.85"/>
			<circle fill="#AEBDC4" cx="39.44" cy="90.67" r="1.85"/>
			<circle fill="#AEBDC4" cx="43.76" cy="90.67" r="1.85"/>
		</g>
		<g>
			<circle fill="#AEBDC4" cx="13.51" cy="96.6" r="1.85"/>
			<circle fill="#AEBDC4" cx="17.83" cy="96.6" r="1.85"/>
			<circle fill="#AEBDC4" cx="22.16" cy="96.6" r="1.85"/>
			<circle fill="#AEBDC4" cx="26.48" cy="96.6" r="1.85"/>
			<circle fill="#AEBDC4" cx="30.8" cy="96.6" r="1.85"/>
			<circle fill="#AEBDC4" cx="35.12" cy="96.6" r="1.85"/>
			<circle fill="#AEBDC4" cx="39.44" cy="96.6" r="1.85"/>
			<circle fill="#AEBDC4" cx="43.76" cy="96.6" r="1.85"/>
		</g>
		<g>
			<circle fill="#AEBDC4" cx="13.51" cy="49.15" r="1.85"/>
			<circle fill="#AEBDC4" cx="17.83" cy="49.15" r="1.85"/>
			<circle fill="#AEBDC4" cx="22.16" cy="49.15" r="1.85"/>
			<circle fill="#AEBDC4" cx="26.48" cy="49.15" r="1.85"/>
			<circle fill="#AEBDC4" cx="30.8" cy="49.15" r="1.85"/>
			<circle fill="#AEBDC4" cx="35.12" cy="49.15" r="1.85"/>
			<circle fill="#AEBDC4" cx="39.44" cy="49.15" r="1.85"/>
			<circle fill="#AEBDC4" cx="43.76" cy="49.15" r="1.85"/>
			<circle fill="#AEBDC4" cx="48.08" cy="49.15" r="1.85"/>
			<circle fill="#AEBDC4" cx="52.41" cy="49.15" r="1.85"/>
		</g>
		<g>
			<circle fill="#AEBDC4" cx="13.51" cy="55.08" r="1.85"/>
			<circle fill="#AEBDC4" cx="17.83" cy="55.08" r="1.85"/>
			<circle fill="#AEBDC4" cx="22.16" cy="55.08" r="1.85"/>
			<circle fill="#AEBDC4" cx="26.48" cy="55.08" r="1.85"/>
			<circle fill="#AEBDC4" cx="30.8" cy="55.08" r="1.85"/>
			<circle fill="#AEBDC4" cx="35.12" cy="55.08" r="1.85"/>
			<circle fill="#AEBDC4" cx="39.44" cy="55.08" r="1.85"/>
			<circle fill="#AEBDC4" cx="43.76" cy="55.08" r="1.85"/>
			<circle fill="#AEBDC4" cx="48.08" cy="55.08" r="1.85"/>
			<circle fill="#AEBDC4" cx="52.41" cy="55.08" r="1.85"/>
		</g>
		<g>
			<circle fill="#AEBDC4" cx="13.51" cy="61.01" r="1.85"/>
			<circle fill="#AEBDC4" cx="17.83" cy="61.01" r="1.85"/>
			<circle fill="#AEBDC4" cx="22.16" cy="61.01" r="1.85"/>
			<circle fill="#AEBDC4" cx="26.48" cy="61.01" r="1.85"/>
			<circle fill="#AEBDC4" cx="30.8" cy="61.01" r="1.85"/>
			<circle fill="#AEBDC4" cx="35.12" cy="61.01" r="1.85"/>
			<circle fill="#AEBDC4" cx="39.44" cy="61.01" r="1.85"/>
			<circle fill="#AEBDC4" cx="43.76" cy="61.01" r="1.85"/>
			<circle fill="#AEBDC4" cx="48.08" cy="61.01" r="1.85"/>
			<circle fill="#AEBDC4" cx="52.41" cy="61.01" r="1.85"/>
		</g>
		<g>
			<circle fill="#AEBDC4" cx="13.51" cy="66.94" r="1.85"/>
			<circle fill="#AEBDC4" cx="17.83" cy="66.94" r="1.85"/>
			<circle fill="#AEBDC4" cx="22.16" cy="66.94" r="1.85"/>
			<circle fill="#AEBDC4" cx="26.48" cy="66.94" r="1.85"/>
			<circle fill="#AEBDC4" cx="30.8" cy="66.94" r="1.85"/>
			<circle fill="#AEBDC4" cx="35.12" cy="66.94" r="1.85"/>
			<circle fill="#AEBDC4" cx="39.44" cy="66.94" r="1.85"/>
			<circle fill="#AEBDC4" cx="43.76" cy="66.94" r="1.85"/>
			<circle fill="#AEBDC4" cx="48.08" cy="66.94" r="1.85"/>
			<circle fill="#AEBDC4" cx="52.41" cy="66.94" r="1.85"/>
		</g>
		<g>
			<circle fill="#AEBDC4" cx="13.51" cy="102.53" r="1.85"/>
			<circle fill="#AEBDC4" cx="17.83" cy="102.53" r="1.85"/>
			<circle fill="#AEBDC4" cx="22.16" cy="102.53" r="1.85"/>
			<circle fill="#AEBDC4" cx="26.48" cy="102.53" r="1.85"/>
			<circle fill="#AEBDC4" cx="30.8" cy="102.53" r="1.85"/>
			<circle fill="#AEBDC4" cx="35.12" cy="102.53" r="1.85"/>
			<circle fill="#AEBDC4" cx="39.44" cy="102.53" r="1.85"/>
			<circle fill="#AEBDC4" cx="43.76" cy="102.53" r="1.85"/>
			<circle fill="#AEBDC4" cx="48.08" cy="102.53" r="1.85"/>
			<circle fill="#AEBDC4" cx="52.41" cy="102.53" r="1.85"/>
		</g>
		<g>
			<circle fill="#AEBDC4" cx="13.51" cy="108.46" r="1.85"/>
			<circle fill="#AEBDC4" cx="17.83" cy="108.46" r="1.85"/>
			<circle fill="#AEBDC4" cx="22.16" cy="108.46" r="1.85"/>
			<circle fill="#AEBDC4" cx="26.48" cy="108.46" r="1.85"/>
			<circle fill="#AEBDC4" cx="30.8" cy="108.46" r="1.85"/>
			<circle fill="#AEBDC4" cx="35.12" cy="108.46" r="1.85"/>
			<circle fill="#AEBDC4" cx="39.44" cy="108.46" r="1.85"/>
			<circle fill="#AEBDC4" cx="43.76" cy="108.46" r="1.85"/>
			<circle fill="#AEBDC4" cx="48.08" cy="108.46" r="1.85"/>
			<circle fill="#AEBDC4" cx="52.41" cy="108.46" r="1.85"/>
		</g>
		<g>
			<circle fill="#AEBDC4" cx="13.51" cy="114.39" r="1.85"/>
			<circle fill="#AEBDC4" cx="17.83" cy="114.39" r="1.85"/>
			<circle fill="#AEBDC4" cx="22.16" cy="114.39" r="1.85"/>
			<circle fill="#AEBDC4" cx="26.48" cy="114.39" r="1.85"/>
			<circle fill="#AEBDC4" cx="30.8" cy="114.39" r="1.85"/>
			<circle fill="#AEBDC4" cx="35.12" cy="114.39" r="1.85"/>
			<circle fill="#AEBDC4" cx="39.44" cy="114.39" r="1.85"/>
			<circle fill="#AEBDC4" cx="43.76" cy="114.39" r="1.85"/>
			<circle fill="#AEBDC4" cx="48.08" cy="114.39" r="1.85"/>
			<circle fill="#AEBDC4" cx="52.41" cy="114.39" r="1.85"/>
		</g>
	</g>
	<g onclick="this.parentNode.a_text=this;">
		<text transform="matrix(0.9999 0 0 1 27.3162 90.2649)"><tspan x="0" y="0" font-family="'OpenSans-Semibold'" font-size="6.3996px">W 9</tspan><tspan x="-4.28" y="7.2" font-family="'OpenSans-Semibold'" font-size="6.3996px">(</tspan><tspan x="-2.24" y="7.2" font-family="'OpenSans-Semibold'" font-size="6.3996px">в</tspan><tspan x="1.88" y="7.2" font-family="'OpenSans-Semibold'" font-size="6.3996px">е</tspan><tspan x="5.8" y="7.2" font-family="'OpenSans-Semibold'" font-size="6.3996px">рх</tspan><tspan x="13.62" y="7.2" font-family="'OpenSans-Semibold'" font-size="6.3996px">)</tspan></text>
	</g>
</g>
</svg>
