<?xml version="1.0" encoding="utf-8"?>
<!-- Generator: Adobe Illustrator 23.0.1, SVG Export Plug-In . SVG Version: 6.00 Build 0)  -->
<svg version="1.1" id="Layer_1" xmlns="http://www.w3.org/2000/svg" xmlns:xlink="http://www.w3.org/1999/xlink" x="0px" y="0px"
	 viewBox="0 0 66 136" style="enable-background:new 0 0 66 136;" xml:space="preserve">
<style type="text/css">
	.st0{fill:#F1F3F4;stroke:#BCC8CE;stroke-width:0.4;stroke-linecap:round;stroke-miterlimit:10;}
	.st1{fill:#AEBDC4;}
	.st2{font-family:'Roboto-Medium';}
	.st3{font-size:3px;}
</style>
<polygon class="st0" points="0.5,135.3 0.5,24.2 65.5,0.8 65.5,135.3 "/>
<g 
  data-sort-seat-direction="ltr" 
  data-sort-line-direction="btt" 
  data-sort-seat-option="cx" 
  data-sort-line-option="cy" 
  data-line-start="21"
  >
	<g>
		<circle class="st1" cx="13.5" cy="126.2" r="1.9"/>
		<circle class="st1" cx="17.8" cy="126.2" r="1.9"/>
		<circle class="st1" cx="22.2" cy="126.2" r="1.9"/>
		<circle class="st1" cx="26.5" cy="126.2" r="1.9"/>
		<text transform="matrix(1 0 0 1 7.0107 127.3014)" class="st1 st2 st3">00</text>
		<text transform="matrix(1 0 0 1 29.5808 127.3014)" class="st1 st2 st3">00</text>
	</g>
	<g>
		<circle class="st1" cx="13.5" cy="120.3" r="1.8"/>
		<circle class="st1" cx="17.8" cy="120.3" r="1.8"/>
		<circle class="st1" cx="22.2" cy="120.3" r="1.8"/>
		<circle class="st1" cx="26.5" cy="120.3" r="1.8"/>
		<text transform="matrix(1 0 0 1 7.0107 121.3762)" class="st1 st2 st3">00</text>
		<text transform="matrix(1 0 0 1 29.5808 121.3762)" class="st1 st2 st3">00</text>
	</g>
	<g>
		<circle class="st1" cx="13.5" cy="114.4" r="1.8"/>
		<circle class="st1" cx="17.8" cy="114.4" r="1.8"/>
		<circle class="st1" cx="22.2" cy="114.4" r="1.8"/>
		<circle class="st1" cx="26.5" cy="114.4" r="1.8"/>
		<circle class="st1" cx="30.8" cy="114.4" r="1.8"/>
		<circle class="st1" cx="35.1" cy="114.4" r="1.8"/>
		<circle class="st1" cx="39.4" cy="114.4" r="1.8"/>
		<circle class="st1" cx="43.8" cy="114.4" r="1.8"/>
		<circle class="st1" cx="48.1" cy="114.4" r="1.8"/>
		<circle class="st1" cx="52.4" cy="114.4" r="1.8"/>
		<text transform="matrix(1 0 0 1 7.0107 115.4507)" class="st1 st2 st3">00</text>
		<text transform="matrix(1 0 0 1 55.5109 115.4507)" class="st1 st2 st3">00</text>
	</g>
	<g>
		<circle class="st1" cx="13.5" cy="108.5" r="1.8"/>
		<circle class="st1" cx="17.8" cy="108.5" r="1.8"/>
		<circle class="st1" cx="22.2" cy="108.5" r="1.8"/>
		<circle class="st1" cx="26.5" cy="108.5" r="1.8"/>
		<circle class="st1" cx="30.8" cy="108.5" r="1.8"/>
		<circle class="st1" cx="35.1" cy="108.5" r="1.8"/>
		<circle class="st1" cx="39.4" cy="108.5" r="1.8"/>
		<circle class="st1" cx="43.8" cy="108.5" r="1.8"/>
		<circle class="st1" cx="48.1" cy="108.5" r="1.8"/>
		<circle class="st1" cx="52.4" cy="108.5" r="1.8"/>
		<text transform="matrix(1 0 0 1 7.0107 109.5249)" class="st1 st2 st3">00</text>
		<text transform="matrix(1 0 0 1 55.5109 109.5249)" class="st1 st2 st3">00</text>
	</g>
	<g>
		<circle class="st1" cx="13.5" cy="102.5" r="1.8"/>
		<circle class="st1" cx="17.8" cy="102.5" r="1.8"/>
		<circle class="st1" cx="22.2" cy="102.5" r="1.8"/>
		<circle class="st1" cx="26.5" cy="102.5" r="1.8"/>
		<circle class="st1" cx="30.8" cy="102.5" r="1.8"/>
		<circle class="st1" cx="35.1" cy="102.5" r="1.8"/>
		<circle class="st1" cx="39.4" cy="102.5" r="1.8"/>
		<circle class="st1" cx="43.8" cy="102.5" r="1.8"/>
		<circle class="st1" cx="48.1" cy="102.5" r="1.8"/>
		<circle class="st1" cx="52.4" cy="102.5" r="1.8"/>
		<text transform="matrix(1 0 0 1 7.0107 103.5997)" class="st1 st2 st3">00</text>
		<text transform="matrix(1 0 0 1 55.5109 103.5997)" class="st1 st2 st3">00</text>
	</g>
	<g>
		<circle class="st1" cx="13.5" cy="96.6" r="1.8"/>
		<circle class="st1" cx="17.8" cy="96.6" r="1.8"/>
		<circle class="st1" cx="22.2" cy="96.6" r="1.8"/>
		<circle class="st1" cx="26.5" cy="96.6" r="1.8"/>
		<circle class="st1" cx="30.8" cy="96.6" r="1.8"/>
		<circle class="st1" cx="35.1" cy="96.6" r="1.8"/>
		<circle class="st1" cx="39.4" cy="96.6" r="1.8"/>
		<circle class="st1" cx="43.8" cy="96.6" r="1.8"/>
		<text transform="matrix(1 0 0 1 7.0107 97.6743)" class="st1 st2 st3">00</text>
		<text transform="matrix(1 0 0 1 46.8608 97.6743)" class="st1 st2 st3">00</text>
	</g>
	<g>
		<circle class="st1" cx="13.5" cy="90.7" r="1.8"/>
		<circle class="st1" cx="17.8" cy="90.7" r="1.8"/>
		<circle class="st1" cx="22.2" cy="90.7" r="1.8"/>
		<circle class="st1" cx="26.5" cy="90.7" r="1.8"/>
		<circle class="st1" cx="30.8" cy="90.7" r="1.8"/>
		<circle class="st1" cx="35.1" cy="90.7" r="1.8"/>
		<circle class="st1" cx="39.4" cy="90.7" r="1.8"/>
		<circle class="st1" cx="43.8" cy="90.7" r="1.8"/>
		<text transform="matrix(1 0 0 1 7.0107 91.7495)" class="st1 st2 st3">00</text>
		<text transform="matrix(1 0 0 1 46.8608 91.7495)" class="st1 st2 st3">00</text>
	</g>
	<g>
		<circle class="st1" cx="13.5" cy="84.8" r="1.8"/>
		<circle class="st1" cx="17.8" cy="84.8" r="1.8"/>
		<circle class="st1" cx="22.2" cy="84.8" r="1.8"/>
		<circle class="st1" cx="26.5" cy="84.8" r="1.8"/>
		<circle class="st1" cx="30.8" cy="84.8" r="1.8"/>
		<circle class="st1" cx="35.1" cy="84.8" r="1.8"/>
		<circle class="st1" cx="39.4" cy="84.8" r="1.8"/>
		<circle class="st1" cx="43.8" cy="84.8" r="1.8"/>
		<text transform="matrix(1 0 0 1 7.0107 85.8245)" class="st1 st2 st3">00</text>
		<text transform="matrix(1 0 0 1 46.8608 85.8245)" class="st1 st2 st3">00</text>
	</g>
	<g>
		<circle class="st1" cx="13.5" cy="78.8" r="1.8"/>
		<circle class="st1" cx="17.8" cy="78.8" r="1.8"/>
		<circle class="st1" cx="22.2" cy="78.8" r="1.8"/>
		<circle class="st1" cx="26.5" cy="78.8" r="1.8"/>
		<circle class="st1" cx="30.8" cy="78.8" r="1.8"/>
		<circle class="st1" cx="35.1" cy="78.8" r="1.8"/>
		<circle class="st1" cx="39.4" cy="78.8" r="1.8"/>
		<circle class="st1" cx="43.8" cy="78.8" r="1.8"/>
		<text transform="matrix(1 0 0 1 7.0107 79.899)" class="st1 st2 st3">00</text>
		<text transform="matrix(1 0 0 1 46.8608 79.899)" class="st1 st2 st3">00</text>
	</g>
	<g>
		<circle class="st1" cx="13.5" cy="72.9" r="1.8"/>
		<circle class="st1" cx="17.8" cy="72.9" r="1.8"/>
		<circle class="st1" cx="22.2" cy="72.9" r="1.8"/>
		<circle class="st1" cx="26.5" cy="72.9" r="1.8"/>
		<circle class="st1" cx="30.8" cy="72.9" r="1.8"/>
		<circle class="st1" cx="35.1" cy="72.9" r="1.8"/>
		<circle class="st1" cx="39.4" cy="72.9" r="1.8"/>
		<circle class="st1" cx="43.8" cy="72.9" r="1.8"/>
		<text transform="matrix(1 0 0 1 7.0107 73.9642)" class="st1 st2 st3">00</text>
		<text transform="matrix(1 0 0 1 46.8608 73.9642)" class="st1 st2 st3">00</text>
	</g>
	<g>
		<circle class="st1" cx="13.5" cy="67" r="1.8"/>
		<circle class="st1" cx="17.8" cy="67" r="1.8"/>
		<circle class="st1" cx="22.2" cy="67" r="1.8"/>
		<circle class="st1" cx="26.5" cy="67" r="1.8"/>
		<circle class="st1" cx="30.8" cy="67" r="1.8"/>
		<circle class="st1" cx="35.1" cy="67" r="1.8"/>
		<circle class="st1" cx="39.4" cy="67" r="1.8"/>
		<circle class="st1" cx="43.8" cy="67" r="1.8"/>
		<circle class="st1" cx="48.1" cy="67" r="1.8"/>
		<circle class="st1" cx="52.4" cy="67" r="1.8"/>
		<text transform="matrix(1 0 0 1 7.0107 68.0292)" class="st1 st2 st3">00</text>
		<text transform="matrix(1 0 0 1 55.5109 68.0292)" class="st1 st2 st3">00</text>
	</g>
	<g>
		<circle class="st1" cx="13.5" cy="61" r="1.8"/>
		<circle class="st1" cx="17.8" cy="61" r="1.8"/>
		<circle class="st1" cx="22.2" cy="61" r="1.8"/>
		<circle class="st1" cx="26.5" cy="61" r="1.8"/>
		<circle class="st1" cx="30.8" cy="61" r="1.8"/>
		<circle class="st1" cx="35.1" cy="61" r="1.8"/>
		<circle class="st1" cx="39.4" cy="61" r="1.8"/>
		<circle class="st1" cx="43.8" cy="61" r="1.8"/>
		<circle class="st1" cx="48.1" cy="61" r="1.8"/>
		<circle class="st1" cx="52.4" cy="61" r="1.8"/>
		<text transform="matrix(1 0 0 1 7.0107 62.0942)" class="st1 st2 st3">00</text>
		<text transform="matrix(1 0 0 1 55.5109 62.0942)" class="st1 st2 st3">00</text>
	</g>
	<g>
		<circle class="st1" cx="13.5" cy="55.1" r="1.8"/>
		<circle class="st1" cx="17.8" cy="55.1" r="1.8"/>
		<circle class="st1" cx="22.2" cy="55.1" r="1.8"/>
		<circle class="st1" cx="26.5" cy="55.1" r="1.8"/>
		<circle class="st1" cx="30.8" cy="55.1" r="1.8"/>
		<circle class="st1" cx="35.1" cy="55.1" r="1.8"/>
		<circle class="st1" cx="39.4" cy="55.1" r="1.8"/>
		<circle class="st1" cx="43.8" cy="55.1" r="1.8"/>
		<circle class="st1" cx="48.1" cy="55.1" r="1.8"/>
		<circle class="st1" cx="52.4" cy="55.1" r="1.8"/>
		<text transform="matrix(1 0 0 1 7.0107 56.1595)" class="st1 st2 st3">00</text>
		<text transform="matrix(1 0 0 1 55.5109 56.1595)" class="st1 st2 st3">00</text>
	</g>
	<g>
		<circle class="st1" cx="13.5" cy="49.2" r="1.8"/>
		<circle class="st1" cx="17.8" cy="49.2" r="1.8"/>
		<circle class="st1" cx="22.2" cy="49.2" r="1.8"/>
		<circle class="st1" cx="26.5" cy="49.2" r="1.8"/>
		<circle class="st1" cx="30.8" cy="49.2" r="1.8"/>
		<circle class="st1" cx="35.1" cy="49.2" r="1.8"/>
		<circle class="st1" cx="39.4" cy="49.2" r="1.8"/>
		<circle class="st1" cx="43.8" cy="49.2" r="1.8"/>
		<circle class="st1" cx="48.1" cy="49.2" r="1.8"/>
		<circle class="st1" cx="52.4" cy="49.2" r="1.8"/>
		<text transform="matrix(1 0 0 1 7.0107 50.2246)" class="st1 st2 st3">00</text>
		<text transform="matrix(1 0 0 1 55.5109 50.2246)" class="st1 st2 st3">00</text>
	</g>
	<g>
		<circle class="st1" cx="13.5" cy="43.2" r="1.8"/>
		<circle class="st1" cx="17.8" cy="43.2" r="1.8"/>
		<circle class="st1" cx="22.2" cy="43.2" r="1.8"/>
		<circle class="st1" cx="26.5" cy="43.2" r="1.8"/>
		<circle class="st1" cx="30.8" cy="43.2" r="1.8"/>
		<circle class="st1" cx="35.1" cy="43.2" r="1.8"/>
		<circle class="st1" cx="39.4" cy="43.2" r="1.8"/>
		<circle class="st1" cx="43.8" cy="43.2" r="1.8"/>
		<text transform="matrix(1 0 0 1 7.0107 44.2897)" class="st1 st2 st3">00</text>
		<text transform="matrix(1 0 0 1 46.8608 44.2897)" class="st1 st2 st3">00</text>
	</g>
	<g>
		<circle class="st1" cx="13.5" cy="37.3" r="1.8"/>
		<circle class="st1" cx="17.8" cy="37.3" r="1.8"/>
		<circle class="st1" cx="22.2" cy="37.3" r="1.8"/>
		<circle class="st1" cx="26.5" cy="37.3" r="1.8"/>
		<circle class="st1" cx="30.8" cy="37.3" r="1.8"/>
		<text transform="matrix(1 0 0 1 7.0107 38.355)" class="st1 st2 st3">00</text>
		<text transform="matrix(1 0 0 1 33.9009 38.355)" class="st1 st2 st3">00</text>
	</g>
	<g>
		<circle class="st1" cx="13.5" cy="31.4" r="1.8"/>
		<circle class="st1" cx="17.8" cy="31.4" r="1.8"/>
		<circle class="st1" cx="22.2" cy="31.4" r="1.8"/>
		<text transform="matrix(1 0 0 1 7.0107 32.4205)" class="st1 st2 st3">00</text>
		<text transform="matrix(1 0 0 1 25.2709 32.4205)" class="st1 st2 st3">00</text>
	</g>
</g>
</svg>
